<?xml version="1.0" encoding="UTF-8" standalone="no"?>
<svg
   xmlns:dc="http://purl.org/dc/elements/1.1/"
   xmlns:cc="http://creativecommons.org/ns#"
   xmlns:rdf="http://www.w3.org/1999/02/22-rdf-syntax-ns#"
   xmlns:svg="http://www.w3.org/2000/svg"
   xmlns="http://www.w3.org/2000/svg"
   id="svg2"
   xml:space="preserve"
   enable-background="new 0 0 1920 1080"
   viewBox="0 0 72.081894 91.049583"
   height="91.049583"
   width="72.081894"
   y="0px"
   x="0px"
   version="1.1"><metadata
   id="metadata582"><rdf:RDF><cc:Work
       rdf:about=""><dc:format>image/svg+xml</dc:format><dc:type
         rdf:resource="http://purl.org/dc/dcmitype/StillImage" /><dc:title></dc:title></cc:Work></rdf:RDF></metadata><defs
   id="defs580">
	
	
	
	
	
	
	
	
	
	
	
	
	
	
	
	
	
	
	
	
	
	
	
	
	
	
	
	
	
	
	
	
	
	
	
	
	
</defs>
<g
   transform="translate(-736.72932,-308.20356)"
   id="Capa_2">
</g>
<g
   transform="translate(-736.72932,-308.20356)"
   id="g514">
		<g
   id="g516">
			<g
   id="g518">
				<g
   id="g520">
					<path
   d="m 746.1,350 c 0,0 -3.2,17.1 -3.5,33.3 0,0 -4.8,2.3 -5.8,9.5 -1,7.2 8.8,7 17.4,4.4 8.6,-2.5 33,5.3 45.1,0.4 12.1,-4.9 10.3,-8.2 7.3,-10.3 0,0 0,-26.4 -4.5,-35.6 0.1,0 -36,12.8 -56,-1.7 z"
   id="path522"
   style="fill:#e8eada" />
					<ellipse
   cx="773.79999"
   cy="330.79999"
   rx="27.1"
   ry="7"
   id="ellipse524"
   style="fill:#b0b098" />
					<path
   stroke-miterlimit="10"
   d="m 751.6,330.9 c 0,0 0,-3.3 3.6,-5.6 3.7,-2.3 2,-2.7 5.6,-7 3.7,-4.2 4.5,-4.6 7.1,-7.8 2.7,-3.2 6.3,-2.1 7.2,0 0.8,2.1 1.8,1.9 5.6,4.2 3.8,2.3 5.1,3.6 6.5,7.6 1.3,4 5.4,5.3 5.6,10.2 0.2,5 -19.6,13 -27.4,10.2 -7.7,-2.6 -13.8,-11.8 -13.8,-11.8 z"
   id="path526"
   style="fill:#ffffff;stroke:#000000;stroke-width:0.59509999;stroke-miterlimit:10" />
					<path
   d="m 746.1,350 c 0,0 -5.5,-1.7 -4,-8.6 1.5,-7 3.8,-14.1 6,-12.4 2.2,1.7 13.1,7.2 27.1,7.2 14,0 22.4,-5.8 25.1,-7.4 2.7,-1.6 7.8,12.5 5.3,18.8 -2.5,6.3 -11.4,7.1 -18.6,8.1 -7.3,0.8 -28,4.8 -40.9,-5.7 z"
   id="path528"
   style="fill:#d1d2bb" />
				</g>
			</g>
			<path
   d="m 806.6,387.3 c 0,0 0,-26.4 -4.5,-35.6 0,0 -1.9,0.7 -5,1.5 1.3,6.9 2.8,15.6 3.6,22.3 1.7,13.3 -1.4,18.8 -14.6,19.4 -13.2,0.6 -22.7,-3.6 -34.7,-1.9 -11.9,1.7 -14.2,-2.7 -14.2,-2.7 -0.2,0.8 -0.4,1.6 -0.6,2.6 -1,7.2 8.8,7 17.4,4.4 8.6,-2.5 33,5.3 45.1,0.4 12.4,-4.9 10.5,-8.3 7.5,-10.4 z"
   id="path530"
   style="fill:#d8d8c5" />
			<path
   d="m 746.1,350 c 12.9,10.5 33.7,6.5 40.8,5.5 7.2,-1 16.1,-1.8 18.6,-8.1 2.5,-6.3 -2.7,-20.5 -5.3,-18.8 -0.7,0.4 -1.8,1.2 -3.4,2 1.7,8.2 0.3,19.3 -21,20.1 -21.4,0.9 -33.7,-9.4 -33.7,-9.4 -1.5,7 4,8.7 4,8.7 z"
   id="path532"
   style="fill:#babaa1" />
		</g>
	</g>
</svg>