<?xml version="1.0" encoding="UTF-8" standalone="no"?>
<svg
   xmlns:dc="http://purl.org/dc/elements/1.1/"
   xmlns:cc="http://creativecommons.org/ns#"
   xmlns:rdf="http://www.w3.org/1999/02/22-rdf-syntax-ns#"
   xmlns:svg="http://www.w3.org/2000/svg"
   xmlns="http://www.w3.org/2000/svg"
   id="svg2"
   xml:space="preserve"
   enable-background="new 0 0 1920 1080"
   viewBox="0 0 122 102.7"
   height="102.7"
   width="122"
   y="0px"
   x="0px"
   version="1.1"><metadata
   id="metadata582"><rdf:RDF><cc:Work
       rdf:about=""><dc:format>image/svg+xml</dc:format><dc:type
         rdf:resource="http://purl.org/dc/dcmitype/StillImage" /><dc:title></dc:title></cc:Work></rdf:RDF></metadata><defs
   id="defs580">
	
	
	
	
	
	
	
	
	
	
	
	
	
	
	
	
	
	
	
	
	
	
	
	
	
	
	
	
	
	
	
	
	
	
	
	
	
</defs>
<g
   transform="translate(-904.9,-604.3)"
   id="Capa_2">
</g>
<g
   transform="translate(-904.9,-604.3)"
   id="g534">
		<path
   d="m 1023,644.8 c -3,-12.4 -17.8,-22 -17.8,-22 l -39.2,0 -39.3,0 c 0,0 -14.7,9.7 -17.8,22 -3.2,13 -0.2,31.2 8.7,42.8 9.9,12.9 21.4,19.4 48.4,19.4 26.9,0 38.5,-6.5 48.3,-19.3 8.9,-11.7 11.9,-29.9 8.7,-42.9 z"
   id="path536"
   style="fill:#fcf5a7" />
		<ellipse
   cx="966.29999"
   cy="696.59998"
   rx="32"
   ry="7.5999999"
   id="ellipse538"
   style="fill:#fbad26" />
	</g><g
   transform="translate(-904.9,-604.3)"
   id="g540">
		<path
   d="m 918.9,615.2 c 0,0 -6.9,5.8 -14,6.8 0,0 5.5,0.9 7.8,4.8 2.2,3.9 6.3,1.8 11.4,3 5.1,1.2 7.9,5.3 15.2,3.5 7.3,-1.8 8.7,-1.3 15.4,1.6 6.7,2.9 8.4,-3.1 12.7,-2.2 4.3,0.9 8.2,4.7 15.1,2.1 6.8,-2.6 3.6,-2.3 13.9,-0.8 10.3,1.6 7.3,-3.9 13.3,-4.4 6,-0.5 7.5,1.2 10.9,-2.5 3.5,-3.6 6.3,-3 6.3,-4.5 0,-1.6 -15.1,-7.3 -15.1,-7.3 l -92.9,0 z"
   id="path542"
   style="fill:#edc664" />
		<path
   d="m 1011.9,607.8 c 0,1.9 -20.8,5.7 -46.5,5.7 -25.7,0 -46.5,-3.8 -46.5,-5.7 0,-1.9 20.8,-3.5 46.5,-3.5 25.7,0 46.5,1.5 46.5,3.5 z"
   id="path544"
   style="fill:#edc664" />
		<path
   d="m 918.9,615.2 c 0,0 45,10.2 93,0 l 0,-7.4 c 0,0 -52.2,8.8 -93,-0.7 l 0,8.1 z"
   id="path546"
   style="fill:#fee290" />
		<path
   d="m 912.7,626.8 c 2.2,3.9 6.3,1.8 11.4,3 5.1,1.2 7.9,5.3 15.2,3.5 7.3,-1.8 8.7,-1.3 15.4,1.6 6.7,2.9 8.4,-3.1 12.7,-2.2 4.3,0.9 8.2,4.7 15.1,2.1 6.8,-2.6 3.6,-2.3 13.9,-0.8 10.3,1.6 7.3,-3.9 13.3,-4.4 6,-0.5 7.5,1.2 10.9,-2.5 3.5,-3.6 6.3,-3 6.3,-4.5 0,-0.5 -1.9,-1.6 -4.3,-2.8 1,0.5 -0.4,5.9 -6.1,6.5 -5.7,0.7 -10.4,2.1 -13.7,4.3 -3.4,2.3 -9.9,-1.7 -15,-0.5 -5.1,1.2 -8.9,3.8 -13.7,2.5 -4.9,-1.3 -7.4,-2.5 -13.1,-0.5 -5.7,2.1 -7,-3.6 -16.5,-1.9 -9.5,1.7 -13.9,0 -16.7,-2.3 -2.7,-2.3 -10,1.3 -11.6,-2.6 -1.6,-3.9 -11.3,-3.4 -11.3,-3.4 0,0 5.6,1 7.8,4.9 z"
   id="path548"
   style="fill:#e2b652" />
	</g><g
   transform="translate(-904.9,-604.3)"
   id="g550">
		<g
   id="g552">
			<path
   d="m 989.8,681.5 c -0.8,-0.7 -2.1,-1.3 -3.4,-2 l 0,0 c -3,-1.5 -7.6,-3.7 -12,-8.5 -2.6,-2.8 -4.5,-7 -6,-10 l 0,-0.1 c -0.9,-1.9 -1.6,-3.4 -2.3,-4.2 -1.6,-1.9 -4.7,-2.9 -8,-1.3 -1,-2 -0.4,-2.7 0.8,-3.8 0.7,-0.6 0.4,-1.2 0,-1.9 -0.2,-0.3 -0.6,-0.9 -1,-1.4 -0.7,-0.8 -1.4,-0.5 -1.6,-0.3 -0.3,0.2 -1.1,1 -1.2,1.1 -1.1,1.2 -1.6,2.4 -1.7,4.1 0,1.5 0.4,3.1 1.2,4.6 -1,0.9 -2.1,2.3 -2.6,4.7 -0.7,3.4 1.7,7.1 3.8,9.6 2.6,3.2 6.3,6.2 10.2,8.4 4.8,2.8 10.7,3.9 13.7,4.4 2.2,0.3 4.4,0.5 6.2,0.5 1.7,0 3,-0.1 3.8,-0.4 0.6,-0.2 0.9,-0.5 1.1,-0.8 0.4,-0.8 0.1,-1.8 -1,-2.7 z m -0.5,2.5 c -0.9,0.4 -3.8,0.6 -8.4,0 -3.2,-0.4 -9.3,-1.5 -14.3,-4.4 -3.7,-2.1 -7.3,-5.1 -9.8,-8.1 -2.7,-3.3 -3.9,-6.3 -3.5,-8.5 0.4,-1.9 1.2,-3 2,-3.8 0.9,1.3 1.9,2.8 2.2,3.1 0.1,0.2 0.3,0.3 0.5,0.3 0.1,0 0.3,0 0.4,-0.1 0.3,-0.2 0.4,-0.6 0.2,-0.9 -0.2,-0.3 -1.5,-2.1 -2.4,-3.4 -0.9,-1.5 -1.5,-3.1 -1.4,-4.6 0,-1.3 0.7,-2.5 1.4,-3.3 0.7,-0.8 1.2,-0.4 1.4,0 0.2,0.4 0.5,0.6 0.1,1.1 -0.7,0.7 -1.1,1.3 -1.2,2.1 -0.1,0.9 0.2,2 1.1,3.7 0,0 0,0 0,0 0.6,1 2.1,3.1 2.4,3.5 0.2,0.3 0.6,0.4 0.9,0.2 0.3,-0.2 0.4,-0.6 0.2,-0.9 -0.2,-0.2 -1.5,-2.2 -2.2,-3.2 2.6,-1.2 5.1,-0.5 6.4,1 0.6,0.7 1.3,2.1 2.1,3.9 l 0,0.1 c 1.5,3.1 3.5,7.3 6.2,10.3 4.5,5 9.2,7.2 12.4,8.8 l 0,0 c 1.2,0.6 2.4,1.2 3.1,1.8 0.6,0.4 0.7,1 0.2,1.3 z"
   id="path554"
   style="fill:#ed1c24" />
			<path
   d="m 963.5,657.4 c -0.6,-0.4 -1.4,-0.3 -2.2,0 -0.3,0.2 -0.5,0.6 -0.3,0.9 0.2,0.3 0.6,0.5 0.9,0.3 0.3,-0.2 0.7,-0.2 0.9,-0.1 0.2,0.1 0.4,0.4 0.4,0.7 0.1,0.7 -1,2 -1.5,2.5 -0.4,0.4 -0.7,0.6 -1,0.8 -1.5,1 -4.1,2.1 -5,1.3 0,0 -0.1,-0.1 -0.1,-0.2 0,-0.4 -0.3,-0.7 -0.7,-0.7 0,0 0,0 0,0 -0.4,0 -0.7,0.3 -0.7,0.7 0,0.5 0.2,0.9 0.5,1.2 0.5,0.5 1.2,0.7 1.9,0.7 1.9,0 4.2,-1.4 4.7,-1.8 0.4,-0.2 0.8,-0.6 1.2,-1 0,0 2,-1.9 1.9,-3.5 0,-0.8 -0.3,-1.5 -0.9,-1.8 z"
   id="path556"
   style="fill:#ed1c24" />
		</g>
	</g><g
   transform="translate(-904.9,-604.3)"
   id="g558">
		<g
   id="g560">
			<path
   d="m 914.4,644.2 c 0.6,0.9 1.6,1.9 2.7,2.8 l 0,0 c 2.5,2.2 6.4,5.6 9.2,11.4 1.7,3.4 2.5,7.9 3,11.2 l 0,0.1 c 0.4,2.1 0.7,3.7 1.1,4.7 1,2.2 3.8,4 7.3,3.4 0.4,2.2 -0.3,2.7 -1.8,3.4 -0.8,0.4 -0.7,1 -0.5,1.8 0.1,0.3 0.3,1 0.6,1.6 0.5,1 1.2,0.9 1.5,0.7 0.3,-0.1 1.4,-0.7 1.5,-0.8 1.4,-0.8 2.2,-1.9 2.7,-3.5 0.4,-1.4 0.5,-3.1 0.1,-4.7 1.2,-0.6 2.6,-1.6 3.8,-3.8 1.6,-3.1 0.3,-7.3 -1,-10.3 -1.7,-3.8 -4.4,-7.7 -7.5,-10.9 -3.9,-4 -9.2,-6.7 -12,-8 -2.1,-0.9 -4.1,-1.7 -5.8,-2.2 -1.6,-0.5 -2.9,-0.7 -3.8,-0.6 -0.6,0 -1,0.2 -1.2,0.5 -0.7,1.1 -0.6,2.1 0.1,3.2 z m 1.2,-2.2 c 1,-0.1 3.8,0.5 8.1,2.3 3,1.3 8.6,4 12.6,8.1 3,3 5.6,6.9 7.2,10.5 1.7,3.9 2.1,7.1 1,9.1 -0.9,1.7 -2,2.6 -2.9,3.1 -0.5,-1.5 -1.1,-3.2 -1.2,-3.6 -0.1,-0.2 -0.2,-0.4 -0.4,-0.4 -0.1,0 -0.3,0 -0.4,0 -0.3,0.1 -0.5,0.5 -0.4,0.8 0.1,0.4 0.9,2.4 1.3,4 0.5,1.7 0.5,3.4 0.1,4.9 -0.4,1.3 -1.3,2.2 -2.2,2.8 -0.9,0.6 -1.3,0 -1.4,-0.4 -0.1,-0.4 -0.3,-0.8 0.3,-1.1 0.9,-0.5 1.4,-0.9 1.8,-1.7 0.4,-0.9 0.4,-2 0,-3.9 0,0 0,0 0,0 -0.3,-1.1 -1.2,-3.6 -1.4,-4.1 -0.1,-0.3 -0.5,-0.5 -0.8,-0.4 -0.3,0.1 -0.5,0.5 -0.4,0.8 0.1,0.3 0.9,2.5 1.2,3.7 -2.9,0.5 -5.1,-1 -5.8,-2.7 -0.4,-0.8 -0.6,-2.4 -1,-4.4 l 0,-0.1 c -0.6,-3.4 -1.4,-8 -3.2,-11.6 -3,-6 -6.9,-9.5 -9.5,-11.8 l 0,0 c -1,-0.9 -2,-1.8 -2.5,-2.6 -0.7,-0.6 -0.7,-1.2 -0.1,-1.3 z"
   id="path562"
   style="fill:#ed1c24" />
			<path
   d="m 933.2,674.6 c 0.5,0.5 1.3,0.7 2.1,0.6 0.4,-0.1 0.6,-0.4 0.5,-0.8 -0.1,-0.4 -0.4,-0.6 -0.8,-0.5 -0.4,0.1 -0.7,0 -0.9,-0.2 -0.2,-0.2 -0.2,-0.4 -0.2,-0.7 0.1,-0.7 1.5,-1.7 2.1,-2 0.4,-0.2 0.9,-0.4 1.2,-0.5 1.7,-0.5 4.5,-0.9 5.1,0.2 0,0 0,0.1 0,0.3 -0.1,0.3 0.1,0.7 0.4,0.8 0,0 0,0 0,0 0.3,0.1 0.7,-0.1 0.8,-0.4 0.1,-0.4 0.1,-0.9 -0.1,-1.2 -0.3,-0.6 -0.9,-1 -1.6,-1.2 -1.8,-0.5 -4.4,0.2 -5.1,0.4 -0.4,0.1 -0.9,0.3 -1.4,0.6 0,0 -2.4,1.3 -2.8,2.9 0,0.5 0.2,1.2 0.7,1.7 z"
   id="path564"
   style="fill:#ed1c24" />
		</g>
	</g><g
   transform="translate(-904.9,-604.3)"
   id="g566">
		<g
   id="g568">
			<path
   d="m 978.7,644.2 c 0.6,0.9 1.6,1.9 2.7,2.8 l 0,0 c 2.5,2.2 6.4,5.6 9.2,11.4 1.7,3.4 2.5,7.9 3,11.2 l 0,0.1 c 0.4,2.1 0.7,3.7 1.1,4.7 1,2.2 3.8,4 7.3,3.4 0.4,2.2 -0.3,2.7 -1.8,3.4 -0.8,0.4 -0.7,1 -0.5,1.8 0.1,0.3 0.3,1 0.6,1.6 0.5,1 1.2,0.9 1.5,0.7 0.3,-0.1 1.4,-0.7 1.5,-0.8 1.4,-0.8 2.2,-1.9 2.7,-3.5 0.4,-1.4 0.5,-3.1 0.1,-4.7 1.2,-0.6 2.6,-1.6 3.8,-3.8 1.6,-3.1 0.3,-7.3 -1,-10.3 -1.7,-3.8 -4.4,-7.7 -7.5,-10.9 -3.9,-4 -9.2,-6.7 -12,-8 -2.1,-0.9 -4.1,-1.7 -5.8,-2.2 -1.6,-0.5 -2.9,-0.7 -3.8,-0.6 -0.6,0 -1,0.2 -1.2,0.5 -0.7,1.1 -0.7,2.1 0.1,3.2 z m 1.2,-2.2 c 1,-0.1 3.8,0.5 8.1,2.3 3,1.3 8.6,4 12.6,8.1 3,3 5.6,6.9 7.2,10.5 1.7,3.9 2.1,7.1 1,9.1 -0.9,1.7 -2,2.6 -2.9,3.1 -0.5,-1.5 -1.1,-3.2 -1.2,-3.6 -0.1,-0.2 -0.2,-0.4 -0.4,-0.4 -0.1,0 -0.3,0 -0.4,0 -0.3,0.1 -0.5,0.5 -0.4,0.8 0.1,0.4 0.9,2.4 1.3,4 0.5,1.7 0.5,3.4 0.1,4.9 -0.4,1.3 -1.3,2.2 -2.2,2.8 -0.9,0.6 -1.3,0 -1.4,-0.4 -0.1,-0.4 -0.3,-0.8 0.3,-1.1 0.9,-0.5 1.4,-0.9 1.8,-1.7 0.4,-0.9 0.4,-2 0,-3.9 0,0 0,0 0,0 -0.3,-1.1 -1.2,-3.6 -1.4,-4.1 -0.1,-0.3 -0.5,-0.5 -0.8,-0.4 -0.3,0.1 -0.5,0.5 -0.4,0.8 0.1,0.3 0.9,2.5 1.2,3.7 -2.9,0.5 -5.1,-1 -5.8,-2.7 -0.4,-0.8 -0.6,-2.4 -1,-4.4 l 0,-0.1 c -0.6,-3.4 -1.4,-8 -3.2,-11.6 -3,-6 -6.9,-9.5 -9.5,-11.8 l 0,0 c -1,-0.9 -2,-1.8 -2.5,-2.6 -0.8,-0.6 -0.7,-1.2 -0.1,-1.3 z"
   id="path570"
   style="fill:#ed1c24" />
			<path
   d="m 997.5,674.6 c 0.5,0.5 1.3,0.7 2.1,0.6 0.4,-0.1 0.6,-0.4 0.5,-0.8 -0.1,-0.4 -0.4,-0.6 -0.8,-0.5 -0.4,0.1 -0.7,0 -0.9,-0.2 -0.2,-0.2 -0.2,-0.4 -0.2,-0.7 0.1,-0.7 1.5,-1.7 2.1,-2 0.4,-0.2 0.9,-0.4 1.2,-0.5 1.7,-0.5 4.5,-0.9 5.1,0.2 0,0 0,0.1 0,0.3 -0.1,0.3 0.1,0.7 0.4,0.8 0,0 0,0 0,0 0.3,0.1 0.7,-0.1 0.8,-0.4 0.1,-0.4 0.1,-0.9 -0.1,-1.2 -0.3,-0.6 -0.9,-1 -1.6,-1.2 -1.8,-0.5 -4.4,0.2 -5.1,0.4 -0.4,0.1 -0.9,0.3 -1.4,0.6 0,0 -2.5,1.3 -2.8,2.9 0,0.5 0.2,1.2 0.7,1.7 z"
   id="path572"
   style="fill:#ed1c24" />
		</g>
	</g>
</svg>