<?xml version="1.0" encoding="UTF-8" standalone="no"?>
<svg
   xmlns:dc="http://purl.org/dc/elements/1.1/"
   xmlns:cc="http://creativecommons.org/ns#"
   xmlns:rdf="http://www.w3.org/1999/02/22-rdf-syntax-ns#"
   xmlns:svg="http://www.w3.org/2000/svg"
   xmlns="http://www.w3.org/2000/svg"
   id="svg2"
   xml:space="preserve"
   enable-background="new 0 0 1920 1080"
   viewBox="0 0 86.300005 72.243464"
   height="72.243462"
   width="86.300003"
   y="0px"
   x="0px"
   version="1.1"><metadata
   id="metadata582"><rdf:RDF><cc:Work
       rdf:about=""><dc:format>image/svg+xml</dc:format><dc:type
         rdf:resource="http://purl.org/dc/dcmitype/StillImage" /><dc:title></dc:title></cc:Work></rdf:RDF></metadata><defs
   id="defs580">
	
	
	
	
	
	
	
	
	
	
	
	
	
	
	
	
	
	
	
	
	
	
	
	
	
	
	
	
	
	
	
	
	
	
	
	
	
</defs>
<g
   transform="translate(-1608.5,-184.2)"
   id="Capa_2">
</g>
<g
   transform="translate(-1608.5,-184.2)"
   id="g30">
		<g
   id="g32">
			
			<g
   id="g36">
				
				<g
   id="g40">
					
						
					
				</g>
			</g>
		</g>
		<g
   id="g46">
			<path
   d="m 1683,255.1 c 3.2,-0.9 5,-4.8 5.4,-8 l 6.4,2.2 -3.7,-12.9 -4.3,5 c -2,-2.5 -5.9,-5.4 -9.1,-4.5 -1.1,0.3 -3.3,1.1 -6.3,1 -7.1,-0.2 -16.1,-3.6 -25.8,-10.9 -7,-5.2 -10.6,-10 -13.5,-15.6 -3,-5.5 -4.1,-10.7 -4,-12.7 0,-3.8 -4.7,-6.2 -8.3,-7.1 l 2.5,-7.4 -13.8,3.4 5.5,4.9 c -2.3,1.3 -3.9,3.8 -4,6.7 0,0.1 0,0.2 0,0.3 0.1,5.7 1.9,12.5 5.8,20.1 3.9,7.5 9.4,16.9 18.5,23.7 12.7,9.5 27.3,12.8 37.5,13.1 4.2,0.2 7.9,-0.3 11.2,-1.3"
   id="path48"
   style="fill:#c73a27" />
		</g>
	</g>
</svg>