<?xml version="1.0" encoding="UTF-8" standalone="no"?>
<svg
   xmlns:dc="http://purl.org/dc/elements/1.1/"
   xmlns:cc="http://creativecommons.org/ns#"
   xmlns:rdf="http://www.w3.org/1999/02/22-rdf-syntax-ns#"
   xmlns:svg="http://www.w3.org/2000/svg"
   xmlns="http://www.w3.org/2000/svg"
   id="svg2"
   xml:space="preserve"
   enable-background="new 0 0 1920 1080"
   viewBox="0 0 74.599999 93.400002"
   height="93.400002"
   width="74.599998"
   y="0px"
   x="0px"
   version="1.1"><metadata
   id="metadata582"><rdf:RDF><cc:Work
       rdf:about=""><dc:format>image/svg+xml</dc:format><dc:type
         rdf:resource="http://purl.org/dc/dcmitype/StillImage" /><dc:title></dc:title></cc:Work></rdf:RDF></metadata><defs
   id="defs580">
	
	
	
	
	
	
	
	
	
	
	
	
	
	
	
	
	
	
	
	
	
	
	
	
	
	
	
	
	
	
	
	
	
	
	
	
	
</defs>
<g
   transform="translate(-735.5,-778.1)"
   id="Capa_2">
</g>
<g
   transform="translate(-735.5,-778.1)"
   id="spice-rack-3">
		<path
   d="m 769.8,835.9 c 0,-2.6 -2.1,-4.7 -4.7,-4.7 l -0.2,0 c -2.7,-5.6 -5.5,-16.8 -6.9,-29.5 4.2,-1.7 7.2,-5.3 7.2,-9.5 0,-4.8 -3.8,-8.8 -9,-10.1 l 0,-2.7 c 0,-0.3 -0.1,-0.6 -0.4,-0.8 -0.2,-0.2 -0.5,-0.4 -0.8,-0.4 l -4.7,0 c -0.7,0 -1.2,0.5 -1.2,1.2 l 0,2.7 c -5.2,1.3 -9,5.3 -9,10.1 0,4.2 2.9,7.8 7.2,9.5 -1.5,12.7 -4.2,23.8 -6.9,29.5 l -0.2,0 c -2.6,0 -4.7,2.1 -4.7,4.7 0,2.6 2.1,4.7 4.7,4.7 -2.6,0 -4.7,2.1 -4.7,4.7 0,1.9 1.1,3.5 2.7,4.2 -0.9,1.1 -1.4,2.4 -1.4,4 l 0,13.7 c 0,2.4 1.9,4.3 4.3,4.3 l 23.3,0 c 2.4,0 4.3,-1.9 4.3,-4.3 l 0,-13.7 c 0,-1.5 -0.6,-2.9 -1.4,-4 1.6,-0.7 2.7,-2.3 2.7,-4.2 0,-2.6 -2.1,-4.7 -4.7,-4.7 2.4,0 4.5,-2.1 4.5,-4.7 z"
   id="path117"
   style="fill:#422e10" />
		<path
   d="m 810.1,845.2 c 0,-2.6 -2.1,-4.7 -4.7,-4.7 2.6,0 4.7,-2.1 4.7,-4.7 0,-2.6 -2.1,-4.7 -4.7,-4.7 l -0.2,0 c -2.7,-5.6 -5.5,-16.8 -6.9,-29.5 4.2,-1.7 7.2,-5.3 7.2,-9.5 0,-4.8 -3.8,-8.8 -9,-10.1 l 0,-2.7 c 0,-0.3 -0.1,-0.6 -0.4,-0.8 -0.3,-0.2 -0.5,-0.4 -0.8,-0.4 l -4.7,0 c -0.7,0 -1.2,0.5 -1.2,1.2 l 0,2.7 c -5.2,1.3 -9,5.3 -9,10.1 0,4.2 2.9,7.8 7.2,9.5 -1.5,12.7 -4.2,23.8 -6.9,29.5 l -0.2,0 c -2.6,0 -4.7,2.1 -4.7,4.7 0,2.6 2.1,4.7 4.7,4.7 -2.6,0 -4.7,2.1 -4.7,4.7 0,1.9 1.1,3.5 2.7,4.2 -0.9,1.1 -1.4,2.4 -1.4,4 l 0,13.7 c 0,2.4 1.9,4.3 4.3,4.3 l 23.3,0 c 2.4,0 4.3,-1.9 4.3,-4.3 l 0,-13.7 c 0,-1.5 -0.6,-2.9 -1.4,-4 1.4,-0.7 2.5,-2.3 2.5,-4.2 z"
   id="path119"
   style="fill:#422e10" />
	</g>
</svg>