<?xml version="1.0" encoding="UTF-8" standalone="no"?>
<svg
   xmlns:dc="http://purl.org/dc/elements/1.1/"
   xmlns:cc="http://creativecommons.org/ns#"
   xmlns:rdf="http://www.w3.org/1999/02/22-rdf-syntax-ns#"
   xmlns:svg="http://www.w3.org/2000/svg"
   xmlns="http://www.w3.org/2000/svg"
   id="svg2"
   xml:space="preserve"
   enable-background="new 0 0 1920 1080"
   viewBox="0 0 124.1 85.000003"
   height="85"
   width="124.1"
   y="0px"
   x="0px"
   version="1.1"><metadata
   id="metadata582"><rdf:RDF><cc:Work
       rdf:about=""><dc:format>image/svg+xml</dc:format><dc:type
         rdf:resource="http://purl.org/dc/dcmitype/StillImage" /><dc:title></dc:title></cc:Work></rdf:RDF></metadata><defs
   id="defs580">
	
	
	
	
	
	
	
	
	
	
	
	
	
	
	
	
	
	
	
	
	
	
	
	
	
	
	
	
	
	
	
	
	
	
	
	
	
</defs>
<g
   transform="translate(-908.7,-783.2)"
   id="Capa_2">
</g>
<path
   d="M 120.5,38.9 C 119.6,17.2 101.7,0 79.8,0 L 43.6,0 C 21.7,0 3.9,17.3 2.9,38.9 l 117.6,0 z"
   id="path203"
   style="fill:#f9aa3c" /><path
   d="m 120.1,57.4 c 0,4.3 -3.5,7.9 -7.9,7.9 L 11,65.3 c -4.3,0 -7.9,-3.5 -7.9,-7.9 l 0,-1.3 c 0,-4.3 3.5,-7.9 7.9,-7.9 l 101.3,0 c 4.3,0 7.9,3.5 7.9,7.9 l 0,1.3 z"
   id="path205"
   style="fill:#d63c27" /><path
   d="m 116.1,41.2 c 0,1.1 -0.9,2.1 -2.1,2.1 l -104.8,0 c -1.1,0 -2.1,-0.9 -2.1,-2.1 l 0,-0.9 c 0,-1.1 0.9,-2.1 2.1,-2.1 l 104.9,0 c 1.1,0 2.1,0.9 2.1,2.1 l 0,0.9 z"
   id="path207"
   style="fill:#a4bf3a" /><path
   d="m 124.1,45.6 c 0,1.3 -1.2,2.6 -2.5,2.6 l -120,0 C 0.3,48.2 0,46.9 0,45.6 l 0,-0.8 c 0,-1.3 0.3,-2.5 1.6,-2.5 l 119.9,0 c 1.3,0 2.5,1.2 2.5,2.5 l 0,0.8 z"
   id="path209"
   style="fill:#fdca88" /><path
   d="m 116.1,67.2 c 0,1.1 -0.9,2.1 -2.1,2.1 l -104.8,0 c -1.1,0 -2.1,-0.9 -2.1,-2.1 l 0,-0.9 c 0,-1.1 0.9,-2.1 2.1,-2.1 l 104.9,0 c 1.1,0 2.1,0.9 2.1,2.1 l 0,0.9 z"
   id="path211"
   style="fill:#a4bf3a" /><path
   d="m 2.1,68.4 c 0.4,9.2 8,16.6 17.4,16.6 l 84.5,0 c 9.3,0 16.9,-7.3 17.4,-16.6 l -119.3,0 z"
   id="path213"
   style="fill:#f9aa3c" /><path
   d="m 32.5,11.6 c -3.3,0 -3.1,5 0.2,5 3.3,0 3.1,-5 -0.2,-5 z"
   id="path215"
   style="fill:#fedaac" /><path
   d="m 17.6,21.3 c -2.4,0 -2.3,3.8 0.1,3.8 2.5,0 2.4,-3.8 -0.1,-3.8 z"
   id="path217"
   style="fill:#fedaac" /><path
   d="m 40.8,28.3 c -1.9,0 -1.8,3 0.1,3 2,0 1.9,-3 -0.1,-3 z"
   id="path219"
   style="fill:#fedaac" /><path
   d="m 54.1,13.7 c -2.6,0 -2.5,4.1 0.1,4.1 2.7,0 2.5,-4.1 -0.1,-4.1 z"
   id="path221"
   style="fill:#fedaac" /><path
   d="m 69.6,28.4 c -0.7,-0.7 -1.8,-0.7 -2.6,-0.3 -0.3,0.2 -0.5,0.3 -0.8,0.5 -1.3,0.8 -1.5,2.7 -0.4,3.8 1.2,1.1 3,0.7 3.8,-0.6 0.6,-1.1 1,-2.4 0,-3.4 z"
   id="path223"
   style="fill:#fedaac" /><path
   d="m 82.2,15 c -3.1,0 -2.9,4.7 0.2,4.7 3,0.1 2.9,-4.7 -0.2,-4.7 z"
   id="path225"
   style="fill:#fedaac" /><path
   d="m 99.6,21.4 c -2.4,0 -2.2,3.7 0.1,3.7 2.5,-0.1 2.3,-3.7 -0.1,-3.7 z"
   id="path227"
   style="fill:#fedaac" />
</svg>