<?xml version="1.0" encoding="UTF-8" standalone="no"?>
<svg
   xmlns:dc="http://purl.org/dc/elements/1.1/"
   xmlns:cc="http://creativecommons.org/ns#"
   xmlns:rdf="http://www.w3.org/1999/02/22-rdf-syntax-ns#"
   xmlns:svg="http://www.w3.org/2000/svg"
   xmlns="http://www.w3.org/2000/svg"
   id="svg2"
   xml:space="preserve"
   enable-background="new 0 0 1920 1080"
   viewBox="0 0 91.600001 133.30001"
   height="133.3"
   width="91.599998"
   y="0px"
   x="0px"
   version="1.1"><metadata
   id="metadata582"><rdf:RDF><cc:Work
       rdf:about=""><dc:format>image/svg+xml</dc:format><dc:type
         rdf:resource="http://purl.org/dc/dcmitype/StillImage" /><dc:title></dc:title></cc:Work></rdf:RDF></metadata><defs
   id="defs580">
	
	
	
	
	
	
	
	
	
	
	
	
	
	
	
	
	
	
	
	
	
	
	
	
	
	
	
	
	
	
	
	
	
	
	
	
	
</defs>
<g
   transform="translate(-1540.4,-324.2)"
   id="Capa_2">
</g>
<path
   d="m 90.6,20.2 1,-1.9 C 91.6,6.4 67.5,0 45.8,0 24.1,0 0,6.4 0,18.3 l 1,2.4 0,90.8 -1,3.5 c 0,11.9 24.1,18.3 45.8,18.3 21.7,0 45.8,-6.4 45.8,-18.3 l -1,-3.2 0,-91.6 z M 84.5,115 c 0,5.1 -14.7,12.2 -38.6,12.2 C 22,127.2 7.3,120.1 7.3,115 l 0,-45.9 C 7,68.6 6.8,67.5 6.8,67.5 c 0,0 8.1,7.9 40.2,7.9 32.1,0 37.6,-7.9 37.6,-7.9 0,0.5 -0.2,1 -0.4,1.5 l 0.5,0 -0.2,46 0,0 0,0 z M 45.9,30.5 C 22,30.5 7.3,23.4 7.3,18.3 7.3,13.2 22,6.1 45.9,6.1 c 23.9,0 38.6,7.1 38.6,12.2 0,5.1 -14.7,12.2 -38.6,12.2 z"
   id="path201"
   style="fill:#60c8d4" /><circle
   stroke-miterlimit="10"
   cx="45.900047"
   cy="75.199997"
   r="23.200001"
   id="circle576"
   style="fill:#ffffff;stroke:#60c8d4;stroke-width:3;stroke-miterlimit:10" />
</svg>