<?xml version="1.0" encoding="UTF-8" standalone="no"?>
<svg
   xmlns:dc="http://purl.org/dc/elements/1.1/"
   xmlns:cc="http://creativecommons.org/ns#"
   xmlns:rdf="http://www.w3.org/1999/02/22-rdf-syntax-ns#"
   xmlns:svg="http://www.w3.org/2000/svg"
   xmlns="http://www.w3.org/2000/svg"
   id="svg2"
   xml:space="preserve"
   enable-background="new 0 0 1920 1080"
   viewBox="0 0 113.03939 96.832219"
   height="96.832214"
   width="113.03939"
   y="0px"
   x="0px"
   version="1.1"><metadata
   id="metadata582"><rdf:RDF><cc:Work
       rdf:about=""><dc:format>image/svg+xml</dc:format><dc:type
         rdf:resource="http://purl.org/dc/dcmitype/StillImage" /><dc:title></dc:title></cc:Work></rdf:RDF></metadata><defs
   id="defs580">
	
	
	
	
	
	
	
	
	
	
	
	
	
	
	
	
	
	
	
	
	
	
	
	
	
	
	
	
	
	
	
	
	
	
	
	
	
</defs>
<g
   transform="translate(-1556.1606,-659.49595)"
   id="Capa_2">
</g>
<g
   transform="translate(-1556.1606,-659.49595)"
   id="g121">
		<g
   id="g123">
			<path
   d="m 1594.2,660.6 c 0,0 -6.2,5.6 -11.8,13 -5.5,7.4 -16.4,15.8 -25.1,27.5 0,0 15.4,-0.4 31.1,-5.3 15.7,-4.9 29.1,-8.2 47.7,-8.5 18.6,-0.3 22.5,-1.9 22.5,-1.9 0,0 -20.9,-6.7 -30.6,-12 -11.5,-6.2 -19.4,-6.8 -33.8,-12.8 z"
   id="path125"
   style="fill:#fbf6b9" />
			<path
   d="m 1593.4,659.8 c -0.3,0.2 -6.4,5.8 -11.9,13.2 -2.4,3.2 -5.8,6.6 -9.7,10.5 -4.9,4.9 -10.5,10.4 -15.4,17 -0.3,0.4 -0.3,0.8 -0.1,1.2 0.2,0.4 0.6,0.6 1.1,0.6 0.2,0 15.7,-0.5 31.4,-5.3 16.6,-5.1 29.7,-8.1 47.4,-8.4 18.6,-0.3 22.7,-1.9 22.9,-2 0.5,-0.2 0.8,-0.6 0.7,-1.1 0,-0.5 -0.3,-0.9 -0.8,-1.1 -0.2,-0.1 -20.9,-6.7 -30.4,-11.9 -6.8,-3.7 -12.3,-5.4 -18.6,-7.5 -4.4,-1.4 -9.3,-3 -15.3,-5.4 -0.5,-0.2 -1,-0.1 -1.3,0.2 z m 34,14.7 c 9.7,5.3 30,11.8 30.8,12.1 -0.5,-0.1 -0.8,-0.6 -0.8,-1.1 0,-0.5 0.3,-0.9 0.7,-1.1 -0.2,0.1 -4.2,1.5 -22.1,1.8 -18,0.3 -31.2,3.4 -48,8.5 -15.4,4.7 -30.7,5.2 -30.8,5.3 0.5,0 0.9,0.2 1.1,0.6 0.2,0.4 0.2,0.9 -0.1,1.2 4.8,-6.4 10.3,-11.9 15.1,-16.7 4,-4 7.4,-7.4 9.9,-10.8 5.4,-7.2 11.5,-12.8 11.6,-12.8 0,0 -0.1,0.1 -0.1,0.1 -0.3,0.2 -0.7,0.3 -1.1,0.1 6.1,2.5 11.1,4.1 15.5,5.5 6.3,2 11.7,3.7 18.3,7.3 z"
   id="path127"
   style="fill:#fbad3f" />
		</g>
		<g
   id="g129">
			<path
   d="m 1557.3,701.1 c 0,0 15.4,-0.4 31.1,-5.3 15.7,-4.9 29.1,-8.2 47.7,-8.5 18.6,-0.3 22.5,-1.9 22.5,-1.9 0.1,7.9 4.4,23 5.4,36.2 1,13.2 3.9,28.1 3.9,28.1 0,0 -8.7,1.6 -28.3,1.6 -19.6,0 -40.4,4.2 -53.1,3.8 -12.7,-0.5 -23.3,-2 -23.3,-2 0,0 -1.8,-12.4 -2.5,-28.5 -0.6,-16.1 -3.4,-23.5 -3.4,-23.5 z"
   id="path131"
   style="fill:#f4f19f" />
			<path
   d="m 1557.4,702.3 c 0.2,0 15.7,-0.5 31.4,-5.3 16.6,-5.1 29.7,-8.1 47.4,-8.4 18.6,-0.3 22.7,-1.9 22.9,-2 -0.4,0.1 -0.8,0.1 -1.1,-0.1 -0.3,-0.2 -0.5,-0.6 -0.5,-1 0.1,4 1.1,9.6 2.3,16 1.2,6.4 2.6,13.6 3.1,20.3 1,13.1 3.9,28.1 3.9,28.3 -0.1,-0.3 0,-0.6 0.2,-0.9 0.2,-0.3 0.4,-0.4 0.8,-0.5 -0.1,0 -8.8,1.6 -28.1,1.6 -10.2,0 -20.9,1.2 -30.3,2.2 -8.6,0.9 -16.8,1.8 -22.8,1.6 -12.5,-0.5 -23.1,-1.9 -23.2,-2 0.5,0.1 0.9,0.5 1,1 0,-0.1 -1.8,-12.5 -2.4,-28.4 -0.6,-15.2 -3.2,-23.4 -3.6,-24.1 0.2,0.4 0.2,0.8 0,1.1 -0.2,0.4 -0.6,0.6 -1,0.6 z m 2.2,22.4 c 0.7,16 2.4,28.5 2.5,28.6 0.1,0.5 0.5,0.9 1,1 0.1,0 10.8,1.5 23.4,2 6.2,0.2 14.5,-0.7 23.2,-1.6 9.3,-1 19.9,-2.2 30,-2.2 19.5,0 28.2,-1.6 28.5,-1.6 0.3,-0.1 0.6,-0.2 0.8,-0.5 0.2,-0.3 0.2,-0.6 0.2,-0.9 0,-0.1 -2.9,-15 -3.9,-28 -0.5,-6.8 -1.9,-14.1 -3.1,-20.5 -1.2,-6.3 -2.2,-11.8 -2.3,-15.6 0,-0.4 -0.2,-0.7 -0.5,-1 -0.3,-0.2 -0.7,-0.3 -1.1,-0.1 -0.2,0.1 -4.2,1.5 -22.1,1.8 -18,0.3 -31.2,3.4 -48,8.5 -15.4,4.7 -30.7,5.2 -30.8,5.3 -0.4,0 -0.7,0.2 -0.9,0.5 -0.2,0.3 -0.3,0.7 -0.1,1.1 -0.1,0.1 2.5,7.5 3.2,23.2 z"
   id="path133"
   style="fill:#fbad3f" />
		</g>
		<g
   id="g135">
			<g
   id="g137">
				<path
   d="m 1574.5,712.4 c 0.5,3.3 -1,6.3 -3.2,6.6 -2.3,0.3 -4.5,-2.1 -5,-5.4 -0.5,-3.3 1,-6.3 3.2,-6.6 2.2,-0.4 4.5,2.1 5,5.4 z"
   id="path139"
   style="fill:#fcb12c" />
			</g>
			<g
   id="g141">
				<path
   d="m 1593.7,719.1 c 0.6,3.8 -0.8,7.2 -3.1,7.5 -2.3,0.3 -4.5,-2.5 -5.1,-6.3 -0.6,-3.8 0.8,-7.2 3.1,-7.5 2.3,-0.4 4.6,2.4 5.1,6.3 z"
   id="path143"
   style="fill:#fcb12c" />
			</g>
			<g
   id="g145">
				<path
   d="m 1586.2,741.5 c 0.7,4.5 -1.2,8.5 -4.2,9 -3,0.4 -5.9,-2.9 -6.5,-7.4 -0.7,-4.5 1.2,-8.5 4.2,-9 2.9,-0.4 5.9,2.9 6.5,7.4 z"
   id="path147"
   style="fill:#fcb12c" />
			</g>
			<g
   id="g149">
				<path
   d="m 1610.7,741.7 c 0.4,3 -1.5,5.7 -4.4,6.1 -2.9,0.4 -5.5,-1.7 -5.9,-4.6 -0.4,-3 1.5,-5.7 4.4,-6.1 2.8,-0.5 5.5,1.6 5.9,4.6 z"
   id="path151"
   style="fill:#fcb12c" />
			</g>
			<g
   id="g153">
				<path
   d="m 1633.6,740.3 c 0.5,3.6 -1.1,6.7 -3.6,7.1 -2.5,0.4 -5,-2.2 -5.5,-5.8 -0.5,-3.6 1.1,-6.7 3.6,-7.1 2.5,-0.4 5,2.2 5.5,5.8 z"
   id="path155"
   style="fill:#fcb12c" />
			</g>
			<g
   id="g157">
				<path
   d="m 1639.7,720.5 c 0.4,2.8 -1.1,5.3 -3.5,5.7 -2.3,0.3 -4.5,-1.7 -4.9,-4.5 -0.4,-2.8 1.1,-5.3 3.5,-5.7 2.3,-0.3 4.5,1.7 4.9,4.5 z"
   id="path159"
   style="fill:#fcb12c" />
			</g>
			<g
   id="g161">
				<path
   d="m 1624.1,717.2 c 0.5,3.6 -1.6,6.8 -4.8,7.3 -3.2,0.5 -6.2,-2 -6.7,-5.6 -0.5,-3.6 1.6,-6.8 4.8,-7.3 3.2,-0.5 6.2,2 6.7,5.6 z"
   id="path163"
   style="fill:#fcb12c" />
			</g>
			<g
   id="g165">
				<path
   d="m 1600.3,702.7 c 0.4,2.7 -1.3,5.2 -3.8,5.5 -2.5,0.4 -4.8,-1.5 -5.2,-4.2 -0.4,-2.7 1.3,-5.2 3.8,-5.5 2.5,-0.4 4.8,1.5 5.2,4.2 z"
   id="path167"
   style="fill:#fcb12c" />
			</g>
			<g
   id="g169">
				<path
   d="m 1634.3,698.5 c 0.4,2.9 -1.7,5.5 -4.8,6 -3.1,0.4 -5.9,-1.5 -6.3,-4.4 -0.4,-2.9 1.7,-5.5 4.8,-6 3.1,-0.4 5.9,1.5 6.3,4.4 z"
   id="path171"
   style="fill:#fcb12c" />
			</g>
			<g
   id="g173">
				<path
   d="m 1654.7,709.9 c 0.7,4.6 -0.8,8.7 -3.4,9 -2.5,0.4 -5.1,-3.1 -5.8,-7.7 -0.7,-4.6 0.8,-8.7 3.4,-9 2.5,-0.3 5.1,3.1 5.8,7.7 z"
   id="path175"
   style="fill:#fcb12c" />
			</g>
			<g
   id="g177">
				<path
   d="m 1660,739.5 c 0.6,3.8 -1.7,7.3 -4.9,7.8 -3.3,0.5 -6.4,-2.2 -6.9,-6.1 -0.6,-3.8 1.7,-7.3 4.9,-7.8 3.2,-0.4 6.3,2.3 6.9,6.1 z"
   id="path179"
   style="fill:#fcb12c" />
			</g>
		</g>
	</g>
</svg>