<?xml version="1.0" encoding="UTF-8" standalone="no"?>
<svg
   xmlns:dc="http://purl.org/dc/elements/1.1/"
   xmlns:cc="http://creativecommons.org/ns#"
   xmlns:rdf="http://www.w3.org/1999/02/22-rdf-syntax-ns#"
   xmlns:svg="http://www.w3.org/2000/svg"
   xmlns="http://www.w3.org/2000/svg"
   version="1.1"
   id="svg2"
   width="28.20619"
   height="28.205185"
   viewBox="0 0 28.20619 28.205185">
  <metadata
     id="metadata12">
    <rdf:RDF>
      <cc:Work
         rdf:about="">
        <dc:format>image/svg+xml</dc:format>
        <dc:type
           rdf:resource="http://purl.org/dc/dcmitype/StillImage" />
        <dc:title></dc:title>
      </cc:Work>
    </rdf:RDF>
  </metadata>
  <defs
     id="defs10" />
  <g
     id="g4"
     transform="translate(154.1031,413.16896)">
    <path
       id="path6"
       style="fill:#585858"
       d="m -152.3831,-402.02296 c -0.971,0.149 -1.72,0.898 -1.72,1.87 l 0,1.945 c 0,0.971 0.674,1.795 1.646,1.944 l 1.421,0.149 c 0.301,0.897 0.6,1.72 1.048,2.469 l -0.897,1.196 c -0.673,0.748 -0.599,1.796 0.076,2.544 l 1.345,1.348 c 0.674,0.671 1.796,0.746 2.543,0.149 l 1.123,-0.824 c 0.822,0.448 1.72,0.824 2.544,1.122 l 0.149,1.422 c 0.148,0.972 0.972,1.72 1.944,1.72 l 1.945,0 c 0.972,0.075 1.795,-0.673 1.869,-1.646 l 0.225,-1.422 c 0.898,-0.224 1.87,-0.521 2.692,-1.047 l 1.122,0.897 c 0.749,0.599 1.796,0.523 2.544,-0.148 l 1.347,-1.347 c 0.673,-0.675 0.821,-1.795 0.225,-2.544 l -0.824,-1.047 c 0.45,-0.822 0.899,-1.721 1.123,-2.693 l 1.271,-0.149 c 0.974,-0.075 1.72,-0.897 1.72,-1.869 l 0,-1.945 c 0.075,-0.973 -0.672,-1.796 -1.645,-1.871 l -1.271,-0.224 c -0.225,-0.897 -0.523,-1.795 -1.047,-2.619 l 0.822,-0.972 c 0.599,-0.748 0.523,-1.869 -0.149,-2.543 l -1.347,-1.421 c -0.673,-0.674 -1.721,-0.748 -2.544,-0.149 l -0.896,0.747 c -0.898,-0.523 -1.797,-0.973 -2.768,-1.271 l -0.149,-1.197 c -0.076,-0.896 -0.898,-1.646 -1.871,-1.72 l -1.945,0 c -0.972,0 -1.796,0.749 -1.945,1.645 l -0.149,1.198 c -0.971,0.299 -1.944,0.674 -2.842,1.196 l -0.972,-0.748 c -0.749,-0.599 -1.871,-0.599 -2.544,0.076 l -1.421,1.419 c -0.674,0.675 -0.749,1.722 -0.149,2.47 l 0.821,1.122 c -0.522,0.823 -0.896,1.72 -1.122,2.617 l -1.348,0.151 z m 12.492,-2.169 0,0 c 2.769,0 5.013,2.318 5.013,5.086 -0.074,2.768 -2.319,5.013 -5.087,5.013 -2.769,-0.075 -5.012,-2.319 -5.012,-5.162 0.075,-2.768 2.318,-4.937 5.086,-4.937 l 0,0 z" />
  </g>
</svg>
