<?xml version="1.0" encoding="utf-8"?>
<!-- Generator: Adobe Illustrator 16.0.0, SVG Export Plug-In . SVG Version: 6.00 Build 0)  -->
<!DOCTYPE svg PUBLIC "-//W3C//DTD SVG 1.1//EN" "http://www.w3.org/Graphics/SVG/1.1/DTD/svg11.dtd" [
	<!ENTITY ns_extend "http://ns.adobe.com/Extensibility/1.0/">
	<!ENTITY ns_ai "http://ns.adobe.com/AdobeIllustrator/10.0/">
	<!ENTITY ns_graphs "http://ns.adobe.com/Graphs/1.0/">
	<!ENTITY ns_vars "http://ns.adobe.com/Variables/1.0/">
	<!ENTITY ns_imrep "http://ns.adobe.com/ImageReplacement/1.0/">
	<!ENTITY ns_sfw "http://ns.adobe.com/SaveForWeb/1.0/">
	<!ENTITY ns_custom "http://ns.adobe.com/GenericCustomNamespace/1.0/">
	<!ENTITY ns_adobe_xpath "http://ns.adobe.com/XPath/1.0/">
]>
<svg version="1.1" id="Capa_1" xmlns:x="&ns_extend;" xmlns:i="&ns_ai;" xmlns:graph="&ns_graphs;"
	 xmlns="http://www.w3.org/2000/svg" xmlns:xlink="http://www.w3.org/1999/xlink" x="0px" y="0px" width="1920px"
	 height="1079.999px" viewBox="0 0 1920 1079.999" enable-background="new 0 0 1920 1079.999" xml:space="preserve">
<metadata>
	<sfw  xmlns="&ns_sfw;">
		<slices></slices>
		<sliceSourceBounds  width="4073.896" height="1279.387" bottomLeftOrigin="true" y="-2649.601" x="-653.842"></sliceSourceBounds>
	</sfw>
</metadata>
<radialGradient id="SVGID_1_" cx="-218.7217" cy="278.6445" r="631.7004" gradientTransform="matrix(2.111 0 0 0.9608 1421.7224 124.189)" gradientUnits="userSpaceOnUse">
	<stop  offset="0" style="stop-color:#FFFFFF"/>
	<stop  offset="0.1716" style="stop-color:#FFFFFC"/>
	<stop  offset="0.3031" style="stop-color:#FFFDF2"/>
	<stop  offset="0.4214" style="stop-color:#FFFBE2"/>
	<stop  offset="0.5318" style="stop-color:#FFF8CB"/>
	<stop  offset="0.6369" style="stop-color:#FFF4AD"/>
	<stop  offset="0.7379" style="stop-color:#FFF088"/>
	<stop  offset="0.8357" style="stop-color:#FFEA5C"/>
	<stop  offset="0.9284" style="stop-color:#FFE42B"/>
	<stop  offset="1" style="stop-color:#FFDE00"/>
</radialGradient>
<rect x="0.002" y="-0.001" fill="url(#SVGID_1_)" width="1920" height="783.824"/>
<path fill="#FFDE00" d="M0.002,581.909c89.061-1.673,1113.969-84.191,1920,183.869v483.607h-1920V581.909z"/>
<path fill="#FFFFFF" d="M390.209,706.948c-133.012,0-263.375,5.378-390.207,15.66v556.777h1920V983.399
	C1513.68,811.462,977.699,706.948,390.209,706.948z"/>
<polygon fill="none" points="628.092,1033.76 628.436,1033.257 628.432,1033.253 628.424,1033.251 "/>
<g>
	<path fill="#FFDE00" d="M941.207,466.691c0,18.411-14.922,33.329-33.329,33.329c-18.404,0-33.327-14.918-33.327-33.329
		c0-18.401,14.923-33.324,33.327-33.324C926.285,433.367,941.207,448.29,941.207,466.691z"/>
	<circle fill="#FFDE00" cx="1019.189" cy="464.422" r="31.637"/>
	<path fill="#FFDE00" d="M1009.142,453.646c0,23.646-19.165,42.817-42.815,42.817c-23.646,0-42.818-19.172-42.818-42.817
		c0-23.648,19.172-42.819,42.818-42.819C989.977,410.826,1009.142,429.997,1009.142,453.646z"/>
	<path fill="#FFDE00" d="M1072.855,501.605c0,16.741-13.573,30.318-30.314,30.318H877.469c-16.74,0-30.32-13.577-30.32-30.318l0,0
		c0-16.744,13.58-30.314,30.32-30.314h165.072C1059.282,471.291,1072.855,484.861,1072.855,501.605L1072.855,501.605z"/>
</g>
<g>
	<path fill="#FFDE00" d="M630.5,940.426c0,21.695-17.585,39.279-39.278,39.279c-21.689,0-39.277-17.584-39.277-39.279
		c0-21.686,17.588-39.272,39.277-39.272C612.915,901.153,630.5,918.74,630.5,940.426z"/>
	<path fill="#FFDE00" d="M759.688,937.751c0,20.595-16.694,37.289-37.282,37.289c-20.595,0-37.286-16.694-37.286-37.289
		s16.691-37.289,37.286-37.289C742.994,900.462,759.688,917.156,759.688,937.751z"/>
	<path fill="#FFDE00" d="M710.565,925.05c0,27.868-22.59,50.462-50.459,50.462c-27.87,0-50.466-22.594-50.466-50.462
		c0-27.867,22.596-50.463,50.466-50.463C687.976,874.587,710.565,897.183,710.565,925.05z"/>
	<path fill="#FFDE00" d="M785.649,981.572c0,19.729-15.995,35.73-35.729,35.73H555.386c-19.731,0-35.734-16.001-35.734-35.73l0,0
		c0-19.733,16.003-35.728,35.734-35.728h194.535C769.654,945.845,785.649,961.839,785.649,981.572L785.649,981.572z"/>
</g>
<g>
	<path fill="#FFDE00" d="M367.156,456.949c0,14.739-11.947,26.686-26.686,26.686c-14.735,0-26.685-11.946-26.685-26.686
		c0-14.733,11.949-26.682,26.685-26.682C355.209,430.268,367.156,442.216,367.156,456.949z"/>
	<circle fill="#FFDE00" cx="429.595" cy="455.132" r="25.331"/>
	<circle fill="#FFDE00" cx="387.268" cy="446.503" r="34.284"/>
	<path fill="#FFDE00" d="M472.563,484.903c0,13.404-10.867,24.275-24.273,24.275H316.124c-13.405,0-24.277-10.871-24.277-24.275l0,0
		c0-13.406,10.872-24.272,24.277-24.272H448.29C461.696,460.631,472.563,471.497,472.563,484.903L472.563,484.903z"/>
</g>
<g>
	<path fill="#FFDE00" d="M1196.939,287.555c0,13.013-10.549,23.56-23.561,23.56c-13.01,0-23.559-10.547-23.559-23.56
		c0-13.008,10.549-23.558,23.559-23.558C1186.391,263.997,1196.939,274.547,1196.939,287.555z"/>
	<circle fill="#FFDE00" cx="1252.063" cy="285.948" r="22.363"/>
	<circle fill="#FFDE00" cx="1214.694" cy="278.331" r="30.267"/>
	<path fill="#FFDE00" d="M1289.999,312.233c0,11.835-9.597,21.432-21.429,21.432h-116.688c-11.833,0-21.432-9.597-21.432-21.432l0,0
		c0-11.836,9.599-21.429,21.432-21.429h116.688C1280.402,290.805,1289.999,300.397,1289.999,312.233L1289.999,312.233z"/>
</g>
<radialGradient id="SVGID_2_" cx="1835.2627" cy="-937.0684" r="164.5493" gradientTransform="matrix(0.8272 0.5471 -1.5204 1.0156 -1147.439 294.3032)" gradientUnits="userSpaceOnUse">
	<stop  offset="0" style="stop-color:#FFFFFF"/>
	<stop  offset="1" style="stop-color:#000000"/>
</radialGradient>
<polygon fill="url(#SVGID_2_)" points="1574.661,669.257 1561.412,660.495 1686.244,577.118 1699.492,585.879 "/>
<radialGradient id="SVGID_3_" cx="-886.1494" cy="1471.8799" r="269.3163" gradientTransform="matrix(0.6337 -0.3797 1.0842 0.6797 731.4683 -922.3409)" gradientUnits="userSpaceOnUse">
	<stop  offset="0" style="stop-color:#FFFFFF"/>
	<stop  offset="1" style="stop-color:#000000"/>
</radialGradient>
<polygon fill="url(#SVGID_3_)" points="1696.248,582.269 1686.097,588.35 1597.074,532.547 1607.223,526.464 "/>
<radialGradient id="SVGID_4_" cx="-6663.9834" cy="-1336.1953" r="1123.6521" gradientTransform="matrix(-0.0333 -0.2161 -1.0391 -0.6134 48.1536 -1810.7963)" gradientUnits="userSpaceOnUse">
	<stop  offset="0" style="stop-color:#FFFFFF"/>
	<stop  offset="1" style="stop-color:#000000"/>
</radialGradient>
<polygon opacity="0.5" fill="url(#SVGID_4_)" points="1605.693,530.423 1606.225,533.88 1691.539,584.242 1691.002,580.776 "/>
<radialGradient id="SVGID_5_" cx="1632.6787" cy="368.1953" r="90.5633" gradientTransform="matrix(1 0 0 1 44.0571 -64.8188)" gradientUnits="userSpaceOnUse">
	<stop  offset="0" style="stop-color:#FFFFFF"/>
	<stop  offset="1" style="stop-color:#000000"/>
</radialGradient>
<polygon fill="url(#SVGID_5_)" points="1615.568,588.493 1700.675,534.896 1695.949,531.56 1696.248,531.375 1691.984,528.765 
	1688.676,526.426 1688.423,526.58 1610.381,478.725 1600.318,484.896 1678.502,532.831 1595.326,585.22 1595.734,585.51 
	1591.25,588.461 1706.844,667.192 1719.188,659.071 "/>
<radialGradient id="SVGID_6_" cx="-3366.4316" cy="-645.3486" r="176.9048" gradientTransform="matrix(-0.7456 -0.5324 -1.108 0.6872 -1454.2974 -1005.4758)" gradientUnits="userSpaceOnUse">
	<stop  offset="0" style="stop-color:#FFFFFF"/>
	<stop  offset="1" style="stop-color:#000000"/>
</radialGradient>
<polygon fill="url(#SVGID_6_)" points="1599.903,530.434 1611.844,538.959 1702.82,482.543 1690.875,474.019 "/>
<radialGradient id="SVGID_7_" cx="8851.9785" cy="3364.3691" r="1125.5404" gradientTransform="matrix(0.2068 0.071 1.0262 -0.6347 -3542.9036 2072.5532)" gradientUnits="userSpaceOnUse">
	<stop  offset="0" style="stop-color:#FFFFFF"/>
	<stop  offset="1" style="stop-color:#000000"/>
</radialGradient>
<polygon opacity="0.5" fill="url(#SVGID_7_)" points="1692.394,480.949 1689.085,479.813 1604.826,531.928 1608.148,533.065 "/>
<radialGradient id="SVGID_8_" cx="-6132.2412" cy="-489.6191" r="1123.6519" gradientTransform="matrix(-0.3029 -0.0792 -1.3409 0.9109 -1023.1001 510.3064)" gradientUnits="userSpaceOnUse">
	<stop  offset="0" style="stop-color:#FFFFFF"/>
	<stop  offset="1" style="stop-color:#000000"/>
</radialGradient>
<polygon opacity="0.5" fill="url(#SVGID_8_)" points="1571.831,658.457 1576.685,659.729 1686.775,584.94 1681.922,583.676 "/>
<linearGradient id="SVGID_9_" gradientUnits="userSpaceOnUse" x1="1596.7881" y1="585.708" x2="1596.7881" y2="808.7365" gradientTransform="matrix(1 0 0 1 44.0571 -64.8188)">
	<stop  offset="0" style="stop-color:#FFFFFF"/>
	<stop  offset="0.0673" style="stop-color:#D5D5D5"/>
	<stop  offset="0.1503" style="stop-color:#A9AAAA"/>
	<stop  offset="0.2371" style="stop-color:#838484"/>
	<stop  offset="0.3266" style="stop-color:#646565"/>
	<stop  offset="0.4199" style="stop-color:#4C4D4D"/>
	<stop  offset="0.5184" style="stop-color:#3B3C3C"/>
	<stop  offset="0.6257" style="stop-color:#313232"/>
	<stop  offset="0.7582" style="stop-color:#2E2F2F"/>
	<stop  offset="1" style="stop-color:#0B0C0C"/>
</linearGradient>
<path fill="url(#SVGID_9_)" d="M1766.588,695.938c0.003,10.133-7.184,18.348-16.057,18.348l-219.371,0.001
	c-8.871-0.001-16.057-8.216-16.059-18.348l0.001-19.881c0.001-10.133,7.185-18.351,16.056-18.351l219.373-0.001
	c8.872,0.001,16.059,8.219,16.059,18.351L1766.588,695.938z"/>
<radialGradient id="SVGID_10_" cx="1598.8135" cy="575.9805" r="244.7346" gradientTransform="matrix(1.1196 0 0 1 -169.8264 -64.8188)" gradientUnits="userSpaceOnUse">
	<stop  offset="0" style="stop-color:#FFFFFF"/>
	<stop  offset="1" style="stop-color:#000000"/>
</radialGradient>
<rect x="1525.517" y="663.089" opacity="0.51" fill="url(#SVGID_10_)" width="219.544" height="5.986"/>
<g>
	
		<linearGradient id="SVGID_11_" gradientUnits="userSpaceOnUse" x1="1510.917" y1="503.415" x2="1510.917" y2="976.4225" gradientTransform="matrix(1 0 0 1 44.0571 -64.8188)">
		<stop  offset="0" style="stop-color:#FFFFFF"/>
		<stop  offset="0.1257" style="stop-color:#FEECC3"/>
		<stop  offset="0.3853" style="stop-color:#FBC64B"/>
		<stop  offset="0.5" style="stop-color:#FAB71B"/>
		<stop  offset="0.9945" style="stop-color:#EE7425"/>
	</linearGradient>
	<polygon fill="url(#SVGID_11_)" points="1571.137,681.087 1559.266,681.086 1538.812,701.542 1550.677,701.542 	"/>
	
		<linearGradient id="SVGID_12_" gradientUnits="userSpaceOnUse" x1="1545.0762" y1="503.4277" x2="1545.0762" y2="976.4126" gradientTransform="matrix(1 0 0 1 44.0571 -64.8188)">
		<stop  offset="0" style="stop-color:#FFFFFF"/>
		<stop  offset="0.1257" style="stop-color:#FEECC3"/>
		<stop  offset="0.3853" style="stop-color:#FBC64B"/>
		<stop  offset="0.5" style="stop-color:#FAB71B"/>
		<stop  offset="0.9945" style="stop-color:#EE7425"/>
	</linearGradient>
	<polygon fill="url(#SVGID_12_)" points="1593.425,681.087 1572.973,701.542 1584.843,701.542 1605.295,681.087 	"/>
	
		<linearGradient id="SVGID_13_" gradientUnits="userSpaceOnUse" x1="1579.2354" y1="503.4277" x2="1579.2354" y2="976.4126" gradientTransform="matrix(1 0 0 1 44.0571 -64.8188)">
		<stop  offset="0" style="stop-color:#FFFFFF"/>
		<stop  offset="0.1257" style="stop-color:#FEECC3"/>
		<stop  offset="0.3853" style="stop-color:#FBC64B"/>
		<stop  offset="0.5" style="stop-color:#FAB71B"/>
		<stop  offset="0.9945" style="stop-color:#EE7425"/>
	</linearGradient>
	<polygon fill="url(#SVGID_13_)" points="1627.585,681.087 1607.131,701.541 1618.996,701.542 1639.455,681.088 	"/>
	
		<linearGradient id="SVGID_14_" gradientUnits="userSpaceOnUse" x1="1613.3945" y1="503.4277" x2="1613.3945" y2="976.4126" gradientTransform="matrix(1 0 0 1 44.0571 -64.8188)">
		<stop  offset="0" style="stop-color:#FFFFFF"/>
		<stop  offset="0.1257" style="stop-color:#FEECC3"/>
		<stop  offset="0.3853" style="stop-color:#FBC64B"/>
		<stop  offset="0.5" style="stop-color:#FAB71B"/>
		<stop  offset="0.9945" style="stop-color:#EE7425"/>
	</linearGradient>
	<polygon fill="url(#SVGID_14_)" points="1661.75,681.087 1641.291,701.542 1653.154,701.542 1673.613,681.087 	"/>
	
		<linearGradient id="SVGID_15_" gradientUnits="userSpaceOnUse" x1="1648.6289" y1="503.4277" x2="1648.6289" y2="976.4126" gradientTransform="matrix(1 0 0 1 44.0571 -64.8188)">
		<stop  offset="0" style="stop-color:#FFFFFF"/>
		<stop  offset="0.1257" style="stop-color:#FEECC3"/>
		<stop  offset="0.3853" style="stop-color:#FBC64B"/>
		<stop  offset="0.5" style="stop-color:#FAB71B"/>
		<stop  offset="0.9945" style="stop-color:#EE7425"/>
	</linearGradient>
	<polygon fill="url(#SVGID_15_)" points="1708.849,681.087 1696.979,681.087 1676.525,701.542 1688.389,701.541 	"/>
	
		<linearGradient id="SVGID_16_" gradientUnits="userSpaceOnUse" x1="1682.7881" y1="503.4277" x2="1682.7881" y2="976.4126" gradientTransform="matrix(1 0 0 1 44.0571 -64.8188)">
		<stop  offset="0" style="stop-color:#FFFFFF"/>
		<stop  offset="0.1257" style="stop-color:#FEECC3"/>
		<stop  offset="0.3853" style="stop-color:#FBC64B"/>
		<stop  offset="0.5" style="stop-color:#FAB71B"/>
		<stop  offset="0.9945" style="stop-color:#EE7425"/>
	</linearGradient>
	<polygon fill="url(#SVGID_16_)" points="1731.137,681.087 1710.684,701.542 1722.554,701.541 1743.008,681.087 	"/>
</g>
<linearGradient id="SVGID_17_" gradientUnits="userSpaceOnUse" x1="1457.1846" y1="451.2676" x2="1457.1846" y2="800.9044" gradientTransform="matrix(1 0 0 1 44.0571 -64.8188)">
	<stop  offset="0" style="stop-color:#FFFFFF"/>
	<stop  offset="1" style="stop-color:#010202"/>
</linearGradient>
<path fill="url(#SVGID_17_)" d="M1551.139,690.564c0,27.555-22.337,49.896-49.893,49.896c-27.559,0-49.902-22.342-49.9-49.896
	c-0.002-27.548,22.342-49.895,49.9-49.896C1528.802,640.67,1551.139,663.017,1551.139,690.564z"/>
<linearGradient id="SVGID_18_" gradientUnits="userSpaceOnUse" x1="1457.0703" y1="597.1641" x2="1457.0703" y2="787.4951" gradientTransform="matrix(1 0 0 1 44.0571 -64.8188)">
	<stop  offset="0" style="stop-color:#FFFFFF"/>
	<stop  offset="1" style="stop-color:#010202"/>
</linearGradient>
<path fill="url(#SVGID_18_)" d="M1501.099,648.154c-21.997,0.001-40.001,17.208-41.374,38.858
	c13.547,3.376,28.336,5.246,43.836,5.247c13.664-0.001,26.774-1.458,38.971-4.105
	C1541.725,665.968,1523.476,648.155,1501.099,648.154z"/>
<linearGradient id="SVGID_19_" gradientUnits="userSpaceOnUse" x1="1457.1875" y1="590.7285" x2="1457.1875" y2="800.2983" gradientTransform="matrix(1 0 0 1 44.0571 -64.8188)">
	<stop  offset="0" style="stop-color:#FFFFFF"/>
	<stop  offset="0.0834" style="stop-color:#D5D5D5"/>
	<stop  offset="0.1862" style="stop-color:#A9AAAA"/>
	<stop  offset="0.2937" style="stop-color:#838484"/>
	<stop  offset="0.4047" style="stop-color:#646565"/>
	<stop  offset="0.5203" style="stop-color:#4C4D4D"/>
	<stop  offset="0.6424" style="stop-color:#3B3C3C"/>
	<stop  offset="0.7753" style="stop-color:#313232"/>
	<stop  offset="0.9396" style="stop-color:#2E2F2F"/>
	<stop  offset="1" style="stop-color:#0B0C0C"/>
</linearGradient>
<path fill="url(#SVGID_19_)" d="M1501.245,713.809c-13.215,0-23.96-10.75-23.962-23.965c0-13.21,10.748-23.96,23.962-23.961
	c13.214,0,23.962,10.75,23.961,23.962C1525.207,703.059,1514.459,713.809,1501.245,713.809L1501.245,713.809z"/>
<linearGradient id="SVGID_20_" gradientUnits="userSpaceOnUse" x1="1457.1895" y1="696.0078" x2="1457.1895" y2="816.9606" gradientTransform="matrix(1 0 0 1 44.0571 -64.8188)">
	<stop  offset="0" style="stop-color:#FFFFFF"/>
	<stop  offset="1" style="stop-color:#010202"/>
</linearGradient>
<path fill="url(#SVGID_20_)" d="M1501.246,707.818c-9.912,0-17.969-8.061-17.971-17.973c0-9.909,8.059-17.972,17.971-17.973
	c9.91,0.001,17.975,8.063,17.973,17.974C1519.22,699.758,1511.156,707.818,1501.246,707.818L1501.246,707.818z"/>
<linearGradient id="SVGID_21_" gradientUnits="userSpaceOnUse" x1="1456.7217" y1="740.9141" x2="1456.7217" y2="820.3055" gradientTransform="matrix(1 0 0 1 44.0571 -64.8188)">
	<stop  offset="0" style="stop-color:#FFFFFF"/>
	<stop  offset="1" style="stop-color:#010202"/>
</linearGradient>
<path fill="url(#SVGID_21_)" d="M1515.57,690.24c0.001,8.164-6.625,14.789-14.793,14.789s-14.788-6.625-14.789-14.789
	c0.001-8.168,6.621-14.791,14.789-14.792C1508.945,675.449,1515.57,682.072,1515.57,690.24z"/>
<linearGradient id="SVGID_22_" gradientUnits="userSpaceOnUse" x1="1734.8535" y1="451.2715" x2="1734.8535" y2="800.9048" gradientTransform="matrix(1 0 0 1 44.0571 -64.8188)">
	<stop  offset="0" style="stop-color:#FFFFFF"/>
	<stop  offset="1" style="stop-color:#010202"/>
</linearGradient>
<path fill="url(#SVGID_22_)" d="M1828.807,690.563c0.002,27.555-22.336,49.897-49.891,49.896
	c-27.559,0.001-49.902-22.342-49.9-49.896c-0.002-27.548,22.342-49.895,49.9-49.895
	C1806.471,640.67,1828.809,663.016,1828.807,690.563z"/>
<linearGradient id="SVGID_23_" gradientUnits="userSpaceOnUse" x1="1734.7363" y1="597.168" x2="1734.7363" y2="787.4948" gradientTransform="matrix(1 0 0 1 44.0571 -64.8188)">
	<stop  offset="0" style="stop-color:#FFFFFF"/>
	<stop  offset="1" style="stop-color:#010202"/>
</linearGradient>
<path fill="url(#SVGID_23_)" d="M1778.769,648.155c-21.999-0.001-40.001,17.207-41.381,38.858
	c13.554,3.375,28.343,5.245,43.843,5.246c13.663-0.001,26.773-1.458,38.971-4.105
	C1819.395,665.968,1801.145,648.154,1778.769,648.155z"/>
<linearGradient id="SVGID_24_" gradientUnits="userSpaceOnUse" x1="1734.8574" y1="545.8223" x2="1734.8574" y2="802.3024" gradientTransform="matrix(1 0 0 1 44.0571 -64.8188)">
	<stop  offset="0" style="stop-color:#FFFFFF"/>
	<stop  offset="0.0834" style="stop-color:#D5D5D5"/>
	<stop  offset="0.1862" style="stop-color:#A9AAAA"/>
	<stop  offset="0.2937" style="stop-color:#838484"/>
	<stop  offset="0.4047" style="stop-color:#646565"/>
	<stop  offset="0.5203" style="stop-color:#4C4D4D"/>
	<stop  offset="0.6424" style="stop-color:#3B3C3C"/>
	<stop  offset="0.7753" style="stop-color:#313232"/>
	<stop  offset="0.9396" style="stop-color:#2E2F2F"/>
	<stop  offset="1" style="stop-color:#0B0C0C"/>
</linearGradient>
<path fill="url(#SVGID_24_)" d="M1778.916,713.809c-13.217,0-23.963-10.75-23.964-23.964c0.001-13.211,10.749-23.961,23.962-23.962
	c13.209,0,23.963,10.75,23.963,23.962C1802.876,703.06,1792.125,713.809,1778.916,713.809L1778.916,713.809z"/>
<linearGradient id="SVGID_25_" gradientUnits="userSpaceOnUse" x1="1734.8574" y1="696.0098" x2="1734.8574" y2="816.9592" gradientTransform="matrix(1 0 0 1 44.0571 -64.8188)">
	<stop  offset="0" style="stop-color:#FFFFFF"/>
	<stop  offset="1" style="stop-color:#010202"/>
</linearGradient>
<path fill="url(#SVGID_25_)" d="M1778.916,707.818c-9.912,0-17.975-8.061-17.975-17.972c-0.002-9.91,8.062-17.973,17.975-17.973
	c9.909,0,17.974,8.062,17.974,17.973C1796.889,699.759,1788.826,707.818,1778.916,707.818L1778.916,707.818z"/>
<linearGradient id="SVGID_26_" gradientUnits="userSpaceOnUse" x1="1734.3926" y1="740.915" x2="1734.3926" y2="820.3038" gradientTransform="matrix(1 0 0 1 44.0571 -64.8188)">
	<stop  offset="0" style="stop-color:#FFFFFF"/>
	<stop  offset="1" style="stop-color:#010202"/>
</linearGradient>
<path fill="url(#SVGID_26_)" d="M1793.24,690.24c0,8.165-6.625,14.79-14.793,14.789c-8.168,0-14.787-6.625-14.787-14.789
	c-0.002-8.168,6.619-14.791,14.787-14.791C1786.614,675.449,1793.24,682.072,1793.24,690.24z"/>
<polygon fill="#3C3C3B" points="1371.857,334.296 1928.504,334.296 1928.504,484.465 1371.857,484.465 1436.221,409.383 "/>
<g>
	<path fill="#FFFFFF" d="M1488.483,383.646l0.866-1.401l0.861-1.301l0.977-1.294l0.974-1.298l0.979-1.192l1.082-1.188l1.079-1.188
		l1.186-1.076l1.089-1.083l1.192-1.079l1.291-1.082l1.194-0.972l1.299-0.972l0.652-0.435l0.756-0.435l1.295-0.859l1.411-0.76
		l1.406-0.865l1.405-0.648l1.517-0.753l1.406-0.647l1.516-0.543l1.517-0.542l1.622-0.54l1.517-0.431l1.624-0.436l1.622-0.321
		l1.619-0.326l1.627-0.213l1.732-0.217l1.626-0.107l1.732-0.11h1.732h2.591l2.601,0.218l1.298,0.108l1.188,0.216l2.496,0.432
		l1.295,0.321l1.195,0.219l2.38,0.756l2.375,0.753l2.277,0.976l1.188,0.436l1.082,0.54l2.166,1.078l1.082,0.648l1.082,0.65
		l2.057,1.295l1.948,1.409l1.95,1.51l1.84,1.514l1.73,1.729l1.734,1.728l1.619,1.838l1.517,1.946l1.408,1.94l1.298,2.056
		l0.646,1.082l0.545,1.082l1.189,2.161l0.975,2.27l0.868,2.269l0.433,1.189l0.432,1.187l0.326,1.189l0.324,1.191l0.32,1.293
		l0.219,1.191l0.324,1.294l0.107,1.188l0.219,1.297l0.113,1.299l0.105,1.293l0.107,1.295l0.105,1.298v1.296v1.409l-0.105,0.752
		l-0.213,0.761l-0.113,0.752l-0.219,0.651l-0.537,1.188l-0.326,0.545l-0.326,0.537l-0.432,0.428l-0.432,0.545l-0.543,0.431
		l-0.539,0.322l-0.65,0.436l-0.65,0.322l-0.646,0.323l-0.761,0.33l-0.221-0.216l-0.211-0.329l-0.219-0.537l-0.216-0.542
		l-0.437-1.513l-0.537-1.839l-0.432-2.156l-0.432-2.272l-0.869-5.188l-1.732-9.938l-0.432-2.163l-0.326-1.729l-0.432-1.409
		l-0.214-1.079l-0.542-1.189l-0.653-1.078l-0.539-0.972l-0.648-0.863l-0.652-0.761l-0.324-0.321l-0.326-0.324l-0.647-0.54
		l-0.432-0.216l-0.326-0.213l-0.756-0.327l-0.759-0.326l-0.758-0.109l-0.863-0.104h-0.869l-0.756,0.104l-0.866,0.218l-0.868,0.218
		l-0.974,0.327l-0.864,0.429l-1.84,0.973l-1.841,1.188l-0.974,0.759l-0.977,0.754l-0.427,0.328l-0.545,0.429l-0.974,0.865
		l-0.864,0.866l-0.974,0.967l-0.977,0.868l-0.972,1.082l-1.951,2.054l0.543-2.161l0.326-1.948l0.107-0.974l0.105-0.967l0.111-0.867
		v-0.865v-0.759l-0.111-0.753l-0.105-0.652l-0.218-0.646l-0.216-0.647l-0.324-0.54l-0.326-0.435l-0.432-0.43l-0.761-0.649
		l-0.866-0.432l-0.535-0.106l-0.439-0.111l-0.427-0.109l-0.544-0.105h-0.433h-0.542l-0.974,0.105h-0.54l-0.54,0.221l-1.087,0.322
		l-1.082,0.321l-1.082,0.544l-1.188,0.644l-1.082,0.652l-1.189,0.756l-1.085,0.755l-1.188,0.865l-1.195,0.868l-2.161,1.938
		l-2.164,1.947l-2.062,2.057l-1.945,1.946l-1.732,1.833l-1.627,1.734l-2.377,2.59l0.863-2.16l0.652-2.055l0.435-1.942l0.214-0.973
		l0.112-0.866l0.214-1.619l0.107-1.624v-0.753v-0.652l-0.107-0.648l-0.113-0.649l-0.213-1.186l-0.43-1.082l-0.219-0.545
		l-0.213-0.427l-0.653-0.866l-0.649-0.753l-0.433-0.329l-0.326-0.321l-0.863-0.543l-0.975-0.429l-0.974-0.326l-0.972-0.321
		l-0.652-0.111h-0.543l-1.189-0.107h-1.188l-1.195,0.107l-1.295,0.219l-1.301,0.214l-1.408,0.326l-1.296,0.429l-1.408,0.436
		l-1.405,0.54l-1.301,0.649l-1.408,0.647l-1.296,0.647L1488.483,383.646L1488.483,383.646z M1481.123,410.01v-2.049l0.11-1.945
		l0.216-2.055l0.323-1.941l0.108-0.438l0.105-0.538l0.437-0.866l0.432-0.974l0.543-0.86l0.647-0.865l0.655-0.865l0.751-0.866
		l0.758-0.753l0.761-0.757l0.866-0.76l0.863-0.752l0.869-0.652l0.974-0.646l0.863-0.65l1.948-1.189l1.843-0.972l1.835-0.976
		l1.843-0.645l1.625-0.65l1.403-0.324l0.65-0.108l0.652-0.104l0.432-0.109h0.54l0.323,0.109l0.327,0.104l0.326,0.218l0.211,0.215
		l0.218,0.217l0.219,0.325l0.108,0.323l0.216,0.43v0.436l0.105,0.431v1.081l-0.105,1.083l-0.216,1.188l-0.327,1.402l-0.429,1.403
		l-0.548,1.518l-1.188,3.13l-0.758,1.731l-0.758,1.62l-1.619,3.457l-1.843,3.35l-1.73,3.352l-3.356,5.943l-2.703,4.539l-1.409,2.271
		l-0.432,0.86l-0.11,0.434l-0.105,0.433l-0.11,0.328v0.429l0.11,0.645l0.105,0.439l0.11,0.321l0.108,0.215l0.213,0.32l0.438,0.544
		l0.537,0.433l0.545,0.326l0.645,0.217l0.65,0.106h0.756l0.652-0.216l0.761-0.328l0.321-0.214l0.321-0.216l0.329-0.324l0.324-0.434
		l7.363-8.752l5.407-6.377l2.925-3.347l3.136-3.458l3.032-3.459l1.622-1.624l1.514-1.618l3.028-3.137l3.04-2.913l2.81-2.594
		l1.295-1.081l1.306-1.082l1.185-0.865l1.188-0.758l0.975-0.645l0.979-0.545l-0.216,1.625l-0.432,1.833l-0.218,0.975l-0.327,1.082
		l-0.649,2.055l-0.648,2.269l-0.863,2.271l-0.863,2.27l-0.977,2.376l-1.951,4.754l-2.054,4.534l-0.977,2.055l-1.082,2.057
		l-0.974,1.837l-0.864,1.727l-1.627,2.591l-0.429,0.868l-0.11,0.43l-0.11,0.436v0.321v0.433l0.11,0.649l0.11,0.431l0.105,0.329
		l0.323,0.535l0.327,0.323l0.218,0.221l0.214,0.219l0.329,0.214l0.321,0.107l0.326,0.215l0.324,0.107l0.323,0.107h0.756h0.652
		l0.327-0.107l0.429-0.107l0.326-0.215l0.324-0.217l0.652-0.544l0.324-0.323l0.214-0.429l0.107-0.106l0.113-0.109l1.295-2.268
		l1.732-2.598l1.838-2.809l2.056-3.136l2.169-3.128l2.375-3.246l2.386-3.349l2.49-3.139l2.38-3.128l2.38-2.814l2.383-2.592
		l1.082-1.188l1.082-1.082l0.974-0.973l1.082-0.861l0.863-0.757l0.979-0.545l0.324-0.322l0.432-0.216l0.756-0.322l0.758-0.107h0.545
		l0.646,0.43l0.542,0.76l0.54,0.751l0.437,0.975l0.323,1.082l0.322,1.188l0.326,1.188l0.321,1.404l0.435,2.92l0.432,3.022
		l0.761,6.593l0.326,1.621l0.213,1.624l0.543,3.022l0.434,1.518l0.108,0.752l0.211,0.651l0.437,1.403l0.54,1.296l0.329,0.544
		l0.216,0.537l0.647,1.082l0.326,0.537l0.324,0.436l0.863,0.865l0.864,0.645l0.439,0.324l0.429,0.221l0.542,0.212l0.543,0.219
		l0.539,0.106l0.545,0.107l1.293,0.109h0.655l0.537-0.109l1.19-0.214l1.195-0.321l-0.656,1.831l-0.753,1.839l-0.868,1.728
		l-0.432,0.866l-0.438,0.864l-0.969,1.728l-0.977,1.627l-1.082,1.619l-1.082,1.51l-1.19,1.517l-1.3,1.51l-1.301,1.405l-1.295,1.403
		l-1.409,1.295l-0.758,0.653l-0.756,0.645l-1.411,1.189l-1.621,1.193l-1.514,1.073l-1.622,1.082l-1.735,0.973l-1.731,0.869
		l-1.73,0.859l-1.729,0.866l-1.843,0.65l-1.835,0.644l-0.977,0.329l-0.977,0.322l-1.945,0.431l-1.948,0.436l-1.946,0.431
		l-1.948,0.215l-2.059,0.213l-2.056,0.108l-2.054,0.118l-2.601-0.118l-2.599-0.212l-1.301-0.109l-1.295-0.215l-2.496-0.431
		l-1.188-0.22l-1.189-0.324l-2.488-0.645l-2.274-0.866l-2.375-0.866l-1.087-0.534l-1.085-0.545l-2.271-1.082l-1.08-0.537
		l-0.977-0.65l-2.059-1.297l-2.051-1.511l-1.845-1.404l-1.841-1.625l-1.838-1.725l-1.621-1.735l-1.627-1.832l-1.514-1.946
		l-1.406-1.943l-1.298-2.052l-0.647-1.082l-0.653-1.082l-1.082-2.163l-0.969-2.268l-0.981-2.269l-0.321-1.19l-0.432-1.189
		l-0.324-1.188l-0.326-1.189l-0.324-1.19l-0.323-1.292l-0.219-1.191l-0.216-1.294l-0.11-1.298l-0.214-1.188l-0.107-1.298
		l-0.11-1.294v-1.305V410.01L1481.123,410.01z"/>
	<polygon fill-rule="evenodd" clip-rule="evenodd" fill="#FFFFFF" points="1602.883,434.326 1606.784,434.326 1606.784,400.178 
		1606.89,400.178 1618.359,434.326 1622.688,434.326 1634.158,400.178 1634.271,400.178 1634.271,434.326 1638.17,434.326 
		1638.17,395.424 1631.676,395.424 1620.629,428.489 1620.523,428.489 1609.485,395.424 1602.883,395.424 1602.883,434.326 	"/>
	<path fill-rule="evenodd" clip-rule="evenodd" fill="#FFFFFF" d="M1640.545,434.326h4.439l3.788-11.996h13.853l3.896,11.996h4.328
		l-12.553-38.902h-5.302L1640.545,434.326L1640.545,434.326z M1655.591,399.421h0.108l5.736,19.238h-11.471L1655.591,399.421
		L1655.591,399.421z"/>
	<polygon fill-rule="evenodd" clip-rule="evenodd" fill="#FFFFFF" points="1678.213,434.326 1683.731,434.326 1696.721,395.424 
		1692.177,395.424 1681.13,429.571 1681.024,429.571 1669.986,395.424 1665.548,395.424 1678.213,434.326 	"/>
	<polygon fill-rule="evenodd" clip-rule="evenodd" fill="#FFFFFF" points="1699.964,434.326 1704.4,434.326 1704.4,395.424 
		1699.964,395.424 1699.964,434.326 	"/>
	<polygon fill-rule="evenodd" clip-rule="evenodd" fill="#FFFFFF" points="1724.753,431.842 1724.753,430.544 1724.101,430.652 
		1723.342,430.759 1722.913,430.759 1722.476,430.652 1722.26,430.436 1722.044,430.223 1721.938,430 1721.823,429.571 
		1721.723,429.034 1721.723,428.381 1721.723,422.871 1724.753,422.871 1724.753,421.572 1721.723,421.572 1721.723,417.795 
		1720.204,418.221 1720.204,421.572 1717.927,421.572 1717.927,422.871 1720.204,422.871 1720.204,429.034 1720.204,429.787 
		1720.31,430.436 1720.422,430.977 1720.746,431.41 1720.852,431.52 1721.067,431.734 1721.609,431.947 1722.154,432.056 
		1722.805,432.056 1723.885,432.056 1724.318,431.947 1724.753,431.842 	"/>
	<path fill-rule="evenodd" clip-rule="evenodd" fill="#FFFFFF" d="M1734.923,425.683l-0.105-0.865l-0.112-0.759l-0.327-0.754
		l-0.211-0.321l-0.218-0.329l-0.216-0.215l-0.324-0.213l-0.326-0.219l-0.324-0.219l-0.432-0.108l-0.432-0.108l-0.542-0.108h-0.435
		h-0.537l-0.55,0.108l-0.427,0.108l-0.433,0.222l-0.434,0.215l-0.326,0.213l-0.327,0.324l-0.326,0.329l-0.537,0.753l-0.326,0.974
		l-0.211,0.429v0.544l-0.113,0.538v0.649v0.646l0.113,0.543v0.645l0.211,0.439l0.107,0.536l0.219,0.436l0.326,0.32l0.211,0.433
		l0.326,0.214l0.327,0.328l0.432,0.216l0.434,0.216l0.433,0.105l0.544,0.108h0.538l0.542,0.108l0.974-0.108l0.869-0.108l0.863-0.213
		l0.759-0.215l-0.222-1.297l-0.645,0.213l-0.756,0.217l-0.761,0.106l-0.761,0.109l-0.863-0.109l-0.761-0.215l-0.206-0.108
		l-0.326-0.213l-0.327-0.223l-0.218-0.213l-0.324-0.539l-0.323-0.759v-0.43l-0.108-0.543v-1.08h6.924v-0.433V425.683
		L1734.923,425.683z M1733.299,425.247h-5.191l0.105-0.537l0.218-0.538l0.214-0.436l0.328-0.432l0.433-0.215l0.427-0.328
		l0.439-0.107h0.537h0.545l0.542,0.107l0.213,0.109l0.219,0.219l0.219,0.109l0.107,0.215l0.324,0.322l0.213,0.436l0.108,0.538
		V425.247L1733.299,425.247z"/>
	<polygon fill-rule="evenodd" clip-rule="evenodd" fill="#FFFFFF" points="1744.227,431.52 1744.121,430.115 1743.582,430.436 
		1742.932,430.544 1742.174,430.652 1741.523,430.759 1741.094,430.759 1740.66,430.652 1740.01,430.436 1739.467,430.115 
		1739.251,429.895 1739.035,429.571 1738.714,429.034 1738.495,428.381 1738.388,427.631 1738.388,426.87 1738.388,426.004 
		1738.604,425.139 1738.819,424.494 1739.148,423.844 1739.359,423.628 1739.683,423.414 1739.904,423.199 1740.228,423.09 
		1740.549,422.871 1740.878,422.871 1741.744,422.762 1742.281,422.762 1742.932,422.871 1743.469,422.983 1744.014,423.199 
		1744.227,421.789 1743.039,421.572 1741.744,421.464 1741.204,421.464 1740.66,421.572 1740.122,421.681 1739.578,421.902 
		1739.148,422.117 1738.714,422.33 1738.495,422.548 1738.277,422.654 1738.164,422.871 1737.953,423.09 1737.843,423.199 
		1737.737,423.414 1737.411,423.844 1737.2,424.385 1737.087,424.817 1736.871,425.359 1736.764,425.897 1736.764,426.549 
		1736.764,427.193 1736.764,427.846 1736.871,428.489 1736.977,429.034 1737.087,429.571 1737.301,430 1737.521,430.436 
		1737.843,430.759 1738.063,431.082 1738.388,431.303 1738.714,431.52 1739.148,431.734 1739.467,431.842 1740.333,432.056 
		1741.204,432.056 1742.068,432.056 1742.932,431.842 1743.689,431.734 1744.227,431.52 	"/>
	<polygon fill-rule="evenodd" clip-rule="evenodd" fill="#FFFFFF" points="1754.947,431.947 1754.947,424.71 1754.837,424.059 
		1754.729,423.414 1754.729,423.199 1754.513,422.871 1754.297,422.439 1754.078,422.227 1753.865,422.008 1753.541,421.789 
		1753.32,421.681 1752.996,421.572 1752.672,421.464 1752.238,421.464 1751.807,421.464 1751.156,421.464 1750.508,421.572 
		1749.969,421.789 1749.531,422.117 1749.1,422.439 1748.668,422.871 1748.344,423.414 1748.236,423.628 1748.129,423.949 
		1748.236,422.762 1748.236,421.572 1746.718,421.572 1746.718,431.947 1748.236,431.947 1748.236,426.979 1748.344,426.113 
		1748.455,425.683 1748.455,425.247 1748.773,424.604 1749.1,423.949 1749.643,423.414 1749.855,423.199 1750.182,422.983 
		1750.727,422.762 1751.372,422.654 1751.917,422.762 1752.349,422.871 1752.672,423.09 1752.996,423.414 1753.104,423.736 
		1753.215,424.172 1753.32,424.71 1753.32,425.247 1753.32,431.947 1754.947,431.947 	"/>
	<path fill-rule="evenodd" clip-rule="evenodd" fill="#FFFFFF" d="M1767.067,426.658v-0.761l-0.112-0.321v-0.329l-0.104-0.537
		l-0.218-0.538l-0.105-0.436l-0.216-0.432l-0.322-0.321l-0.331-0.329l-0.323-0.324l-0.327-0.213l-0.321-0.215l-0.437-0.222
		l-0.432-0.108l-0.43-0.108h-0.435h-0.432h-0.65l-0.544,0.108l-0.433,0.108l-0.537,0.222l-0.432,0.215l-0.329,0.213l-0.432,0.324
		l-0.326,0.329l-0.326,0.431l-0.211,0.43l-0.219,0.438l-0.221,0.429l-0.108,0.537l-0.105,0.545l-0.107,0.536v0.542v0.646
		l0.107,0.543l0.105,0.645l0.108,0.439l0.439,0.972l0.211,0.32l0.218,0.433l0.327,0.214l0.429,0.328l0.329,0.216l0.432,0.216
		l0.432,0.105l0.435,0.108l0.972,0.108l0.545-0.108h0.537l0.545-0.214l0.432-0.107l0.432-0.324l0.432-0.212l0.327-0.33l0.434-0.324
		l0.221-0.429l0.322-0.436l0.216-0.432l0.218-0.429l0.105-0.544l0.104-0.539l0.112-0.543V426.658L1767.067,426.658z
		 M1765.441,426.658l-0.105,1.078l-0.217,0.861l-0.11,0.327l-0.105,0.323l-0.432,0.539l-0.221,0.213l-0.214,0.223l-0.323,0.213
		l-0.219,0.108l-0.54,0.215h-0.647h-0.652l-0.65-0.215l-0.324-0.216l-0.221-0.105l-0.427-0.436l-0.435-0.644l-0.216-0.654
		l-0.105-0.43v-0.429l-0.11-0.973v-0.438l0.11-0.429l0.105-0.868l0.321-0.643l0.224-0.332l0.214-0.321l0.218-0.214l0.214-0.109
		l0.542-0.321l0.652-0.222h0.54h0.43h0.326l0.326,0.109l0.324,0.112l0.213,0.216l0.324,0.105l0.221,0.217l0.216,0.215l0.321,0.648
		l0.11,0.325l0.111,0.321l0.105,0.761L1765.441,426.658L1765.441,426.658z"/>
	<polygon fill-rule="evenodd" clip-rule="evenodd" fill="#FFFFFF" points="1771.29,431.947 1771.29,416.82 1769.664,416.82 
		1769.664,431.947 1771.29,431.947 	"/>
	<path fill-rule="evenodd" clip-rule="evenodd" fill="#FFFFFF" d="M1783.408,426.658v-0.761l-0.103-0.321v-0.329l-0.113-0.537
		l-0.216-0.538l-0.107-0.436l-0.214-0.432l-0.323-0.321l-0.332-0.329l-0.318-0.324l-0.329-0.213l-0.324-0.215l-0.432-0.222
		l-0.437-0.108l-0.43-0.108h-0.434h-0.433h-0.649l-0.545,0.108l-0.43,0.108l-0.542,0.222l-0.43,0.215l-0.326,0.213l-0.432,0.324
		l-0.329,0.329l-0.326,0.431l-0.214,0.43l-0.213,0.438l-0.219,0.429l-0.107,0.537l-0.105,0.545l-0.113,0.536v0.542v0.646
		l0.113,0.543l0.105,0.645l0.107,0.439l0.432,0.972l0.214,0.32l0.226,0.433l0.319,0.214l0.437,0.328l0.319,0.216l0.438,0.216
		l0.43,0.105l0.432,0.108l0.977,0.108l0.54-0.108h0.542l0.54-0.214l0.432-0.107l0.432-0.324l0.435-0.212l0.329-0.33l0.429-0.324
		l0.222-0.429l0.323-0.436l0.214-0.432l0.218-0.429l0.105-0.544l0.113-0.539l0.103-0.543V426.658L1783.408,426.658z
		 M1781.787,426.658l-0.105,1.078l-0.221,0.861l-0.108,0.327l-0.105,0.323l-0.435,0.539l-0.216,0.213l-0.216,0.223l-0.326,0.213
		l-0.221,0.108l-0.537,0.215h-0.65h-0.646l-0.65-0.215l-0.326-0.216l-0.219-0.105l-0.429-0.436l-0.435-0.644l-0.219-0.654
		l-0.107-0.43v-0.429l-0.105-0.973v-0.438l0.105-0.429l0.107-0.868l0.324-0.643l0.221-0.332l0.214-0.321l0.216-0.214l0.216-0.109
		l0.542-0.321l0.65-0.222h0.54h0.432h0.326l0.326,0.109l0.324,0.112l0.219,0.216l0.323,0.105l0.216,0.217l0.216,0.215l0.324,0.648
		l0.108,0.325l0.112,0.321l0.108,0.761L1781.787,426.658L1781.787,426.658z"/>
	<path fill-rule="evenodd" clip-rule="evenodd" fill="#FFFFFF" d="M1794.776,433.574l-0.11-0.652V432.6l-0.11-0.214l-0.319-0.544
		l-0.113-0.216l-0.213-0.216l-0.221-0.107l-0.321-0.221l-0.216-0.105l-0.329-0.108l-0.759-0.216h-0.755h-2.054l-0.764-0.108h-0.318
		l-0.324-0.108l-0.221-0.107l-0.108-0.105l-0.103-0.223v-0.213v-0.322l0.211-0.217l0.107-0.104l0.113-0.109l0.105-0.109l0.219-0.105
		l0.65,0.105l0.755,0.109l0.54-0.109h0.545l0.861-0.221l0.434-0.215l0.327-0.108l0.323-0.213l0.324-0.322l0.326-0.215l0.214-0.328
		l0.216-0.323l0.107-0.321l0.221-0.761v-0.429l0.105-0.33l-0.105-0.429v-0.325l-0.221-0.541l-0.107-0.322l-0.216-0.217l-0.433-0.434
		h1.954v-1.299h-3.573l-0.758-0.108h-0.758h-0.977l-0.537,0.108l-0.438,0.217l-0.326,0.113l-0.43,0.215l-0.326,0.213l-0.326,0.324
		l-0.43,0.545l-0.434,0.645l-0.111,0.438l-0.107,0.322v0.428l-0.105,0.438l0.105,0.429v0.431l0.107,0.433l0.219,0.433l0.216,0.323
		l0.222,0.329l0.318,0.322l0.437,0.213l-0.542,0.323l-0.213,0.221l-0.111,0.219l-0.11,0.214l-0.105,0.214l-0.11,0.216v0.328v0.213
		l0.11,0.216v0.215l0.216,0.218l0.111,0.222l0.213,0.104l0.432,0.323l-0.432,0.216l-0.324,0.214l-0.326,0.33l-0.219,0.322
		l-0.213,0.321l-0.213,0.434l-0.113,0.433v0.431v0.321l0.113,0.329l0.213,0.644l0.105,0.324l0.219,0.221l0.218,0.219l0.327,0.212
		l0.318,0.109l0.326,0.213l0.326,0.113l0.321,0.109l0.872,0.212h0.971h0.543l0.545-0.105l0.537-0.106l0.537-0.109l0.539-0.113
		l0.438-0.213l0.321-0.216l0.437-0.215l0.324-0.216l0.326-0.329l0.213-0.322l0.219-0.321l0.214-0.323l0.11-0.437l0.11-0.322V433.574
		L1794.776,433.574z M1792.502,425.247v0.545l-0.216,0.536l-0.108,0.221l-0.113,0.212l-0.323,0.433l-0.432,0.218l-0.433,0.22
		l-0.539,0.105l-0.65,0.109l-0.542-0.109l-0.54-0.105l-0.542-0.22l-0.327-0.218l-0.318-0.433l-0.219-0.433l-0.216-0.431v-0.65
		v-0.537l0.216-0.538l0.104-0.223l0.115-0.213l0.103-0.215l0.216-0.107l0.438-0.324l0.432-0.219l0.54-0.217h0.649h0.656l0.537,0.107
		l0.434,0.222l0.43,0.321l0.213,0.432l0.332,0.436l0.105,0.538V425.247L1792.502,425.247z M1793.26,433.786l-0.107,0.434
		l-0.219,0.428l-0.216,0.438l-0.216,0.213l-0.216,0.108l-0.545,0.322l-0.647,0.215l-0.643,0.114h-0.872h-0.542l-0.645-0.114
		l-0.438-0.102l-0.537-0.329l-0.326-0.215l-0.219-0.322l-0.219-0.436v-0.537v-0.325v-0.216l0.219-0.325l0.11-0.321l0.216-0.217
		l0.321-0.214l0.543-0.438h0.649h2.164l0.545,0.108l0.43,0.108l0.435,0.112l0.323,0.215l0.324,0.217l0.107,0.321l0.111,0.324
		L1793.26,433.786L1793.26,433.786z"/>
	<path fill-rule="evenodd" clip-rule="evenodd" fill="#FFFFFF" d="M1798.996,431.947v-10.375h-1.519v10.375H1798.996
		L1798.996,431.947z M1800.3,417.795l-0.872-1.084l-2.596,2.377l0.646,0.865L1800.3,417.795L1800.3,417.795z"/>
	<path fill-rule="evenodd" clip-rule="evenodd" fill="#FFFFFF" d="M1809.711,431.947v-1.512v-1.616v-4.002l-0.105-0.759
		l-0.112-0.645l-0.105-0.215l-0.11-0.328l-0.216-0.217l-0.11-0.215l-0.214-0.213l-0.324-0.219l-0.649-0.327l-0.762-0.217h-0.429
		h-0.545h-0.972l-0.974,0.217l-0.864,0.222l-0.758,0.324l0.105,1.401l0.758-0.429l0.435-0.109l0.324-0.219l0.863-0.109l0.759-0.107
		l0.649,0.107l0.543,0.109l0.432,0.219l0.218,0.215l0.322,0.323l0.11,0.431l0.104,0.545v0.535v0.865h-0.755h-0.647l-1.299,0.217
		l-0.542,0.107l-0.54,0.221l-0.868,0.431l-0.324,0.214l-0.326,0.323l-0.321,0.329l-0.216,0.322l-0.221,0.321l-0.108,0.33
		l-0.105,0.429v0.323l0.105,0.651v0.213l0.108,0.217l0.221,0.43l0.321,0.438l0.432,0.215l0.54,0.213l0.545,0.108l0.54,0.108
		l0.649-0.108l0.647-0.108l0.54-0.213l0.438-0.324l0.432-0.328l0.435-0.43l0.216-0.43l0.216-0.436h0.11l-0.11,0.436v0.536v1.188
		H1809.711L1809.711,431.947z M1808.084,427.303v0.649l-0.215,0.646l-0.214,0.546l-0.435,0.536l-0.434,0.543l-0.214,0.213
		l-0.219,0.108l-0.326,0.108l-0.323,0.106l-0.648,0.109h-0.323l-0.327-0.109l-0.323-0.106l-0.214-0.217l-0.224-0.213l-0.107-0.223
		l-0.105-0.32l-0.108-0.322l0.108-0.214v-0.219l0.105-0.327l0.331-0.43l0.432-0.322l0.214-0.109l0.432-0.22l0.759-0.214l1.082-0.109
		l1.297-0.107V427.303L1808.084,427.303z"/>
	<polygon fill-rule="evenodd" clip-rule="evenodd" fill="#FFFFFF" points="1819.236,428.819 1819.128,428.275 1819.128,427.952 
		1819.021,427.736 1818.802,427.303 1818.48,426.979 1818.046,426.761 1817.609,426.549 1816.746,426.221 1815.774,425.897 
		1814.905,425.576 1814.688,425.359 1814.474,425.247 1814.366,425.031 1814.256,424.924 1814.256,424.71 1814.15,424.281 
		1814.256,423.949 1814.366,423.628 1814.474,423.305 1814.688,423.09 1815.014,422.871 1815.448,422.762 1815.88,422.654 
		1816.42,422.654 1817.504,422.762 1818.046,422.871 1818.584,422.983 1818.584,421.681 1817.609,421.464 1817.069,421.464 
		1816.638,421.464 1815.661,421.464 1815.229,421.572 1814.905,421.681 1814.15,421.902 1813.603,422.33 1813.174,422.762 
		1812.96,422.983 1812.85,423.305 1812.741,423.521 1812.629,423.844 1812.629,424.172 1812.523,424.494 1812.629,425.139 
		1812.741,425.359 1812.741,425.576 1813.065,426.004 1813.39,426.437 1813.716,426.658 1814.15,426.87 1815.124,427.193 
		1815.987,427.517 1816.42,427.631 1816.856,427.846 1817.178,428.06 1817.291,428.168 1817.394,428.275 1817.504,428.489 
		1817.504,428.598 1817.609,429.034 1817.504,429.465 1817.394,429.787 1817.178,430.115 1816.856,430.328 1816.532,430.544 
		1816.096,430.652 1815.551,430.759 1815.014,430.868 1814.474,430.759 1813.823,430.759 1813.284,430.652 1812.741,430.436 
		1812.741,431.947 1813.716,432.056 1814.905,432.164 1815.88,432.056 1816.746,431.842 1817.504,431.626 1817.828,431.41 
		1818.046,431.198 1818.37,430.977 1818.584,430.652 1818.802,430.436 1818.91,430.115 1819.021,429.895 1819.128,429.571 
		1819.236,429.248 1819.236,428.819 	"/>
	<polygon fill-rule="evenodd" clip-rule="evenodd" fill="#FFFFFF" points="1727.999,411.203 1727.999,403.961 1727.999,403.313 
		1727.886,402.664 1727.778,402.447 1727.673,402.126 1727.349,401.688 1727.131,401.475 1726.914,401.26 1726.696,401.044 
		1726.372,400.938 1726.049,400.83 1725.722,400.723 1725.29,400.723 1724.858,400.723 1724.208,400.723 1723.668,400.83 
		1723.126,401.044 1722.586,401.367 1722.154,401.688 1721.723,402.126 1721.394,402.664 1721.286,402.878 1721.178,403.208 
		1721.286,402.02 1721.286,400.83 1719.774,400.83 1719.774,411.203 1721.286,411.203 1721.286,406.229 1721.394,405.369 
		1721.504,404.934 1721.609,404.502 1721.823,403.853 1722.26,403.208 1722.694,402.664 1722.913,402.447 1723.231,402.232 
		1723.773,402.02 1724.529,401.91 1724.967,402.02 1725.4,402.126 1725.722,402.342 1726.049,402.664 1726.265,402.992 
		1726.372,403.42 1726.372,403.961 1726.485,404.502 1726.485,411.203 1727.999,411.203 	"/>
	<polygon fill-rule="evenodd" clip-rule="evenodd" fill="#FFFFFF" points="1739.791,411.203 1739.791,400.83 1738.277,400.83 
		1738.277,405.797 1738.277,406.773 1738.164,407.095 1738.063,407.525 1737.737,408.285 1737.411,408.936 1736.977,409.365 
		1736.655,409.58 1736.439,409.795 1735.787,410.01 1735.142,410.116 1734.6,410.01 1734.167,409.904 1733.841,409.688 
		1733.62,409.471 1733.409,409.043 1733.299,408.605 1733.19,408.176 1733.19,407.525 1733.19,400.83 1731.675,400.83 
		1731.675,408.07 1731.675,408.714 1731.782,409.365 1731.896,409.688 1732.003,409.904 1732.327,410.446 1732.546,410.661 
		1732.759,410.878 1732.978,410.982 1733.299,411.092 1733.518,411.203 1733.949,411.305 1734.272,411.419 1734.705,411.419 
		1735.354,411.305 1736.005,411.203 1736.55,410.982 1737.087,410.661 1737.521,410.337 1737.843,409.904 1738.164,409.471 
		1738.277,409.149 1738.388,408.936 1738.495,408.936 1738.388,410.01 1738.277,411.203 1739.791,411.203 	"/>
	<path fill-rule="evenodd" clip-rule="evenodd" fill="#FFFFFF" d="M1751.046,404.934v-0.868l-0.211-0.752l-0.327-0.759l-0.107-0.322
		l-0.219-0.322l-0.326-0.222l-0.324-0.214l-0.32-0.215l-0.329-0.216l-0.427-0.106l-0.439-0.107l-0.43-0.107h-0.537h-0.545
		l-0.434,0.107l-0.538,0.107l-0.437,0.216l-0.324,0.214l-0.432,0.215l-0.326,0.328l-0.324,0.322l-0.545,0.76l-0.318,0.969
		l-0.113,0.435l-0.105,0.538l-0.107,0.542v0.646v0.652l0.107,0.537l0.105,0.65l0.113,0.432l0.213,0.543l0.219,0.43l0.211,0.322
		l0.221,0.429l0.324,0.221l0.437,0.324l0.321,0.217l0.432,0.214l0.543,0.111l0.432,0.102h0.54l0.542,0.114l0.977-0.114l0.863-0.102
		l0.869-0.221l0.758-0.214l-0.219-1.298l-0.539,0.217l-0.758,0.217l-0.867,0.105l-0.758,0.106l-0.868-0.106l-0.647-0.215
		l-0.324-0.107l-0.324-0.217l-0.219-0.212l-0.215-0.216l-0.433-0.546l-0.216-0.752l-0.113-0.435l-0.105-0.537v-1.082h6.925v-0.436
		V404.934L1751.046,404.934z M1749.426,404.502h-5.199l0.113-0.541l0.216-0.541l0.216-0.428l0.324-0.438l0.437-0.213l0.433-0.322
		l0.434-0.109h0.537h0.543l0.537,0.109l0.221,0.106l0.219,0.216l0.213,0.105l0.105,0.217l0.326,0.328l0.219,0.428l0.107,0.541
		V404.502L1749.426,404.502z"/>
	<polygon fill-rule="evenodd" clip-rule="evenodd" fill="#FFFFFF" points="1761.547,400.83 1759.817,400.83 1757.327,407.64 
		1757.003,408.497 1756.782,409.471 1756.14,407.64 1753.76,400.83 1752.022,400.83 1755.919,411.203 1757.543,411.203 
		1761.547,400.83 	"/>
	<path fill-rule="evenodd" clip-rule="evenodd" fill="#FFFFFF" d="M1769.985,411.203l-0.104-1.516v-1.617v-4.005v-0.752
		l-0.105-0.649l-0.112-0.217l-0.108-0.321l-0.219-0.216l-0.213-0.222l-0.216-0.214l-0.216-0.215l-0.655-0.322l-0.754-0.215h-0.537
		h-0.434h-1.082l-0.866,0.215l-0.869,0.216l-0.758,0.321l0.107,1.403l0.761-0.431l0.321-0.105l0.438-0.216l0.866-0.106l0.76-0.109
		l0.644,0.109l0.544,0.106l0.322,0.216l0.326,0.213l0.211,0.323l0.218,0.436l0.11,0.539v0.543v0.86h-0.76h-0.65l-1.296,0.22
		l-0.54,0.108l-0.542,0.213l-0.863,0.433l-0.432,0.212l-0.327,0.332l-0.218,0.321l-0.214,0.321l-0.216,0.329l-0.107,0.325
		l-0.113,0.427v0.33v0.644l0.113,0.217l0.107,0.217l0.216,0.433l0.321,0.432l0.438,0.214l0.432,0.221l0.65,0.102l0.539,0.114
		l0.648-0.114l0.539-0.102l0.543-0.221l0.544-0.321l0.428-0.324l0.331-0.433l0.318-0.434l0.219-0.428h0.108l-0.108,0.428v0.539
		v1.193H1769.985L1769.985,411.203z M1768.365,406.56l-0.11,0.645l-0.101,0.647l-0.328,0.541l-0.326,0.543l-0.433,0.535
		l-0.216,0.217l-0.323,0.107l-0.216,0.109l-0.322,0.105l-0.654,0.106h-0.433l-0.326-0.106l-0.213-0.105l-0.219-0.217l-0.219-0.217
		l-0.213-0.212v-0.323l-0.108-0.33v-0.213l0.108-0.217l0.105-0.324l0.326-0.436l0.432-0.321l0.216-0.106l0.326-0.215l0.871-0.214
		l1.077-0.118l1.298-0.104V406.56L1768.365,406.56z"/>
	<polygon fill-rule="evenodd" clip-rule="evenodd" fill="#FFFFFF" points="1779.515,408.07 1779.404,407.525 1779.297,407.204 
		1779.297,406.988 1778.973,406.56 1778.646,406.229 1778.322,406.016 1777.888,405.797 1776.914,405.476 1776.048,405.148 
		1775.182,404.828 1774.855,404.611 1774.75,404.502 1774.642,404.287 1774.534,404.182 1774.534,403.961 1774.429,403.529 
		1774.429,403.208 1774.534,402.878 1774.75,402.555 1774.969,402.342 1775.292,402.126 1775.724,402.02 1776.156,401.91 
		1776.698,401.91 1777.78,402.02 1778.322,402.126 1778.864,402.232 1778.864,400.938 1777.888,400.723 1777.351,400.723 
		1776.806,400.723 1775.942,400.723 1775.511,400.83 1775.081,400.938 1774.429,401.153 1773.884,401.582 1773.454,402.02 
		1773.236,402.232 1773.128,402.555 1773.021,402.771 1772.915,403.1 1772.805,403.42 1772.805,403.744 1772.915,404.396 
		1772.915,404.611 1773.021,404.828 1773.236,405.256 1773.56,405.691 1773.997,405.906 1774.429,406.121 1775.292,406.441 
		1776.269,406.773 1776.698,406.881 1777.024,407.095 1777.351,407.311 1777.564,407.416 1777.67,407.525 1777.78,407.745 
		1777.78,407.852 1777.888,408.285 1777.78,408.714 1777.67,409.043 1777.456,409.365 1777.133,409.58 1776.806,409.795 
		1776.377,409.904 1775.837,410.01 1775.292,410.116 1774.75,410.01 1774.103,410.01 1773.56,409.904 1773.021,409.688 
		1773.021,411.203 1773.997,411.305 1775.182,411.419 1776.156,411.305 1776.914,411.092 1777.67,410.878 1778.001,410.661 
		1778.322,410.446 1778.541,410.231 1778.864,409.904 1778.973,409.688 1779.188,409.365 1779.297,409.149 1779.404,408.827 
		1779.404,408.497 1779.515,408.07 	"/>
</g>
<g>
	<g>
		<path fill="#FFEAC7" d="M1187.242,214.22c0,2.753-2.232,4.982-4.982,4.982l0,0c-2.752,0-4.98-2.229-4.98-4.982v-7.973
			c0-2.751,2.229-4.982,4.98-4.982l0,0c2.75,0,4.982,2.231,4.982,4.982V214.22z"/>
		<path fill="#FFEAC7" d="M1247.616,214.22c0,2.753-2.231,4.982-4.981,4.982l0,0c-2.752,0-4.984-2.229-4.984-4.982v-7.973
			c0-2.751,2.232-4.982,4.984-4.982l0,0c2.75,0,4.981,2.231,4.981,4.982V214.22z"/>
		<path fill-rule="evenodd" clip-rule="evenodd" fill="#F4F5F4" d="M1238.396,146.968c-4.406-2.9-14.278-4.922-25.76-4.922
			c-11.426,0-21.256,2.002-25.693,4.881c-7.487,4.346-10.896,18.328-10.896,32.216V206.1h13.285v-26.957
			c0-9.142,2.949-14.835,4.791-17.7v49.788h36.861v-49.007c2.031,3.065,4.955,8.545,4.955,16.919V206.1h13.285v-26.957
			C1249.225,165.298,1245.832,151.362,1238.396,146.968z"/>
		<ellipse fill-rule="evenodd" clip-rule="evenodd" fill="#FFEAC7" cx="1212.932" cy="121.989" rx="15.725" ry="16.166"/>
		<path fill-rule="evenodd" clip-rule="evenodd" fill="#7E6055" d="M1199.783,117.459c1.615-1.856,3.666-3.151,5.465-4.811
			c1.24-1.146,3.334-1.335,4.55,0c2.714,2.981,7.772,5.684,11.638,3.331c1.537-0.929,3.49-0.31,4.402,1.156
			c0.428,0.684,1.49,1.28,2.531,1.803c-1.389-7.471-7.77-13.115-15.436-13.115c-8.461,0-15.359,6.87-15.71,15.479
			C1198.221,120.17,1198.822,118.572,1199.783,117.459z"/>
		<path fill-rule="evenodd" clip-rule="evenodd" fill="#FFEAC7" d="M1230.592,122.515c0,2.34-0.746,4.238-1.662,4.238
			c-0.92,0-1.666-1.898-1.666-4.238c0-2.342,0.746-4.24,1.666-4.24C1229.846,118.274,1230.592,120.173,1230.592,122.515z"/>
		<path fill-rule="evenodd" clip-rule="evenodd" fill="#FFEAC7" d="M1198.951,122.515c0,2.34-0.746,4.238-1.67,4.238
			c-0.916,0-1.662-1.898-1.662-4.238c0-2.342,0.746-4.24,1.662-4.24C1198.205,118.274,1198.951,120.173,1198.951,122.515z"/>
		<g>
			<g>
				<path fill-rule="evenodd" clip-rule="evenodd" fill="#F6CD7D" d="M1230.067,112.614c-0.02-0.129-0.048-0.259-0.09-0.391
					c-0.28-0.902-1.029-3.586-1.029-4.562c0-7.619-7.13-13.797-15.922-13.797c-8.796,0-15.925,6.178-15.925,13.797
					c0,0.858-0.775,3.48-1.318,4.953H1230.067z"/>
				<path fill-rule="evenodd" clip-rule="evenodd" fill="#F6CD7D" d="M1212.785,98.868c2.268,0,4.117-1.849,4.117-4.116
					c0-2.267-1.85-4.116-4.117-4.116s-4.116,1.85-4.116,4.116C1208.669,97.02,1210.518,98.868,1212.785,98.868z"/>
				<g>
					<path fill-rule="evenodd" clip-rule="evenodd" fill="#E2B459" d="M1203.627,96.524c1.434-0.91,3.049-1.618,4.791-2.074
						c0.113,0.283,0.174,0.592,0.174,0.913v11.073c0,1.369-1.115,2.484-2.482,2.484l0,0c-1.367,0-2.482-1.115-2.482-2.484V96.524z"
						/>
					<path fill-rule="evenodd" clip-rule="evenodd" fill="#E2B459" d="M1217.201,94.344c1.713,0.401,3.312,1.047,4.746,1.888v10.205
						c0,1.369-1.119,2.484-2.482,2.484l0,0c-1.367,0-2.486-1.115-2.486-2.484V95.363C1216.979,95,1217.059,94.655,1217.201,94.344z"
						/>
				</g>
			</g>
			<path fill-rule="evenodd" clip-rule="evenodd" fill="#E2B459" d="M1227.627,113.057c0,0.735-0.596,1.33-1.328,1.33h-27.461
				c-0.732,0-1.328-0.595-1.328-1.33l0,0c0-0.733,0.596-1.328,1.328-1.328h27.461
				C1227.031,111.729,1227.627,112.323,1227.627,113.057L1227.627,113.057z"/>
		</g>
		<path fill="#0A88A2" d="M1231.286,211.357l-0.282-28.7h-36.881v31.1c-8.771,21.708-9.791,63.057-9.399,76.773l16.604-0.475
			c-0.575-20.115,3.46-50.525,9.657-65.778h5.381c5.99,15.46,9.332,45.856,8.763,65.778l16.601,0.475
			C1242.137,276.287,1241.023,232.264,1231.286,211.357z"/>
		<path fill="#524C40" d="M1203.549,294.938c0.181-0.558,0.283-1.153,0.283-1.773c0-3.179-2.582-5.755-5.76-5.755h-9.943
			c-3.18,0-5.76,2.576-5.76,5.755c0,0.62,0.1,1.216,0.28,1.773H1203.549z"/>
		<path fill="#524C40" d="M1244.297,294.938c0.181-0.558,0.28-1.153,0.28-1.773c0-3.179-2.579-5.755-5.757-5.755h-9.945
			c-3.182,0-5.76,2.576-5.76,5.755c0,0.62,0.103,1.216,0.282,1.773H1244.297z"/>
		<rect x="1199.279" y="160.317" fill="#0A88A2" width="25.916" height="28.148"/>
		<polygon fill="#0A88A2" points="1197.162,143.187 1199.723,162.407 1204.707,161.412 1202.002,142.617 		"/>
		<polygon fill="#0A88A2" points="1227.424,143.187 1224.861,162.407 1219.877,161.412 1222.584,142.617 		"/>
		<path fill="#FFEAC7" d="M1205.813,142.28c-0.007,0.105,0.042,0.432,0.042,0.537c0,2.752,2.997,4.982,6.691,4.982
			c3.695,0,6.699-2.737,6.699-5.488c0,0-3.297-0.256-6.609-0.266C1209.289,142.036,1205.926,142.27,1205.813,142.28z"/>
		<path fill="#106F83" d="M1203.08,174.483v9.002c0,3.407,2.762,6.17,6.171,6.17h6.2c3.409,0,6.172-2.763,6.172-6.17v-9.002H1203.08
			z"/>
		<rect x="1193.221" y="206.799" fill="#A27178" width="39.42" height="7.088"/>
		
			<rect x="1208.99" y="205.884" fill="none" stroke="#563B3F" stroke-width="1.3287" stroke-miterlimit="10" width="8.4" height="8.614"/>
		
			<rect x="1215.185" y="209.771" fill="none" stroke="#563B3F" stroke-width="1.3287" stroke-miterlimit="10" width="3.046" height="0.841"/>
	</g>
	<g opacity="0.5">
		<path fill="#FFEAC7" d="M1247.616,214.22c0,2.753-2.231,4.982-4.981,4.982l0,0c-2.752,0-4.984-2.229-4.984-4.982v-7.973
			c0-2.751,2.232-4.982,4.984-4.982l0,0c2.75,0,4.981,2.231,4.981,4.982V214.22z"/>
		<path fill-rule="evenodd" clip-rule="evenodd" fill="#F4F5F4" d="M1238.396,146.968c-4.406-2.9-14.278-4.922-25.76-4.922
			c-0.08,0-0.156,0.002-0.237,0.002v69.183h18.585v-49.007c2.031,3.065,4.955,8.545,4.955,16.919V206.1h13.285v-26.957
			C1249.225,165.298,1245.832,151.362,1238.396,146.968z"/>
		<path fill-rule="evenodd" clip-rule="evenodd" fill="#FFEAC7" d="M1212.934,105.823c-0.18,0-0.357,0.008-0.534,0.014v32.304
			c0.177,0.007,0.354,0.015,0.534,0.015c8.683,0,15.723-7.237,15.723-16.166C1228.656,113.06,1221.616,105.823,1212.934,105.823z"/>
		<path fill-rule="evenodd" clip-rule="evenodd" fill="#7E6055" d="M1212.934,105.823c-0.18,0-0.357,0.008-0.534,0.014v9.04
			c2.724,1.83,6.2,2.83,9.036,1.103c1.537-0.929,3.49-0.31,4.402,1.156c0.428,0.684,1.49,1.28,2.531,1.803
			C1226.98,111.468,1220.6,105.823,1212.934,105.823z"/>
		<path fill-rule="evenodd" clip-rule="evenodd" fill="#FFEAC7" d="M1230.592,122.515c0,2.34-0.746,4.238-1.662,4.238
			c-0.92,0-1.666-1.898-1.666-4.238c0-2.342,0.746-4.24,1.666-4.24C1229.846,118.274,1230.592,120.173,1230.592,122.515z"/>
		<g>
			<g>
				<path fill-rule="evenodd" clip-rule="evenodd" fill="#F6CD7D" d="M1212.399,112.614h17.668c-0.02-0.129-0.048-0.259-0.09-0.391
					c-0.28-0.902-1.029-3.586-1.029-4.562c0-7.619-7.13-13.797-15.922-13.797c-0.212,0-0.418,0.007-0.627,0.014V112.614z"/>
				<path fill-rule="evenodd" clip-rule="evenodd" fill="#F6CD7D" d="M1212.785,90.636c-0.129,0-0.257,0.008-0.386,0.02v8.193
					c0.129,0.012,0.257,0.02,0.386,0.02c2.268,0,4.117-1.849,4.117-4.116C1216.902,92.485,1215.053,90.636,1212.785,90.636z"/>
				<g>
					<path fill-rule="evenodd" clip-rule="evenodd" fill="#E2B459" d="M1217.201,94.344c1.713,0.401,3.312,1.047,4.746,1.888v10.205
						c0,1.369-1.119,2.484-2.482,2.484l0,0c-1.367,0-2.486-1.115-2.486-2.484V95.363C1216.979,95,1217.059,94.655,1217.201,94.344z"
						/>
				</g>
			</g>
			<path fill-rule="evenodd" clip-rule="evenodd" fill="#E2B459" d="M1226.299,111.729h-13.899v2.658h13.899
				c0.732,0,1.328-0.595,1.328-1.33C1227.627,112.323,1227.031,111.729,1226.299,111.729z"/>
		</g>
		<path fill="#0A88A2" d="M1231.286,211.357l-0.282-28.7h-18.604v41.62h3.966c5.99,15.46,9.332,45.856,8.763,65.778l16.601,0.475
			C1242.137,276.287,1241.023,232.264,1231.286,211.357z"/>
		<path fill="#524C40" d="M1244.297,294.938c0.181-0.558,0.28-1.153,0.28-1.773c0-3.179-2.579-5.755-5.757-5.755h-9.945
			c-3.182,0-5.76,2.576-5.76,5.755c0,0.62,0.103,1.216,0.282,1.773H1244.297z"/>
		<rect x="1212.399" y="160.317" fill="#0A88A2" width="12.796" height="28.148"/>
		<polygon fill="#0A88A2" points="1227.424,143.187 1224.861,162.407 1219.877,161.412 1222.584,142.617 		"/>
		<path fill="#FFEAC7" d="M1212.637,142.046c-0.08,0-0.156,0.002-0.237,0.002v5.746c0.052,0,0.1,0.006,0.147,0.006
			c3.695,0,6.699-2.737,6.699-5.488C1219.246,142.312,1215.949,142.056,1212.637,142.046z"/>
		<path fill="#106F83" d="M1212.399,174.483v15.172h3.052c3.409,0,6.172-2.763,6.172-6.17v-9.002H1212.399z"/>
		<rect x="1212.399" y="206.799" fill="#A27178" width="20.241" height="7.088"/>
		
			<rect x="1212.399" y="205.884" fill="none" stroke="#563B3F" stroke-width="1.3287" stroke-miterlimit="10" width="4.991" height="8.614"/>
		
			<rect x="1215.185" y="209.771" fill="none" stroke="#563B3F" stroke-width="1.3287" stroke-miterlimit="10" width="3.046" height="0.841"/>
	</g>
</g>
<g>
	<g>
		<path fill="#FFEAC7" d="M346.62,347.949c0,4.413-3.58,7.992-7.996,7.992l0,0c-4.414,0-7.989-3.579-7.989-7.992v-12.786
			c0-4.415,3.575-7.992,7.989-7.992l0,0c4.416,0,7.996,3.577,7.996,7.992V347.949z"/>
		<path fill="#FFEAC7" d="M443.45,347.949c0,4.413-3.574,7.992-7.99,7.992l0,0c-4.41,0-7.989-3.579-7.989-7.992v-12.786
			c0-4.415,3.579-7.992,7.989-7.992l0,0c4.416,0,7.99,3.577,7.99,7.992V347.949z"/>
		<path fill-rule="evenodd" clip-rule="evenodd" fill="#0A88A2" d="M428.667,240.083c-7.066-4.655-22.9-7.896-41.32-7.896
			c-18.32,0-34.094,3.214-41.212,7.827c-12.003,6.974-17.48,29.398-17.48,51.673v43.237h21.312v-43.237
			c0-14.665,4.735-23.794,7.69-28.39v79.858h59.121v-78.604c3.26,4.915,7.943,13.704,7.943,27.136v43.237h21.308v-43.237
			C446.029,269.48,440.587,247.129,428.667,240.083z"/>
		<rect x="383.504" y="239.018" fill-rule="evenodd" clip-rule="evenodd" fill="#0C788E" width="8.542" height="98.373"/>
		<path fill-rule="evenodd" clip-rule="evenodd" fill="#FFEAC7" d="M413.038,200.016c0,14.318-11.29,25.928-25.217,25.928
			c-13.932,0-25.223-11.609-25.223-25.928s11.291-25.926,25.223-25.926C401.748,174.09,413.038,185.697,413.038,200.016z"/>
		<path fill-rule="evenodd" clip-rule="evenodd" fill="#7E6055" d="M366.735,192.754c2.584-2.981,5.875-5.058,8.758-7.719
			c1.996-1.837,5.35-2.141,7.299,0c4.359,4.783,12.467,9.116,18.672,5.346c2.455-1.493,5.592-0.5,7.062,1.852
			c0.681,1.096,2.388,2.053,4.06,2.891c-2.229-11.981-12.462-21.033-24.764-21.033c-13.57,0-24.629,11.018-25.191,24.828
			C364.224,197.102,365.188,194.535,366.735,192.754z"/>
		<path fill-rule="evenodd" clip-rule="evenodd" fill="#FFEAC7" d="M416.149,200.861c0,3.753-1.197,6.797-2.672,6.797
			c-1.476,0-2.672-3.044-2.672-6.797c0-3.757,1.196-6.801,2.672-6.801C414.952,194.061,416.149,197.104,416.149,200.861z"/>
		<path fill-rule="evenodd" clip-rule="evenodd" fill="#FFEAC7" d="M365.395,200.861c0,3.753-1.196,6.797-2.672,6.797
			s-2.672-3.044-2.672-6.797c0-3.757,1.196-6.801,2.672-6.801S365.395,197.104,365.395,200.861z"/>
		<g>
			<g>
				<g>
					<path fill-rule="evenodd" clip-rule="evenodd" fill="#0A88A2" d="M415.308,184.982c-0.03-0.205-0.076-0.412-0.144-0.623
						c-0.46-1.455-1.655-5.754-1.655-7.324c0-12.22-11.436-22.131-25.543-22.131c-14.102,0-25.537,9.911-25.537,22.131
						c0,1.379-1.243,5.586-2.115,7.947H415.308z"/>
				</g>
				<path fill-rule="evenodd" clip-rule="evenodd" fill="#0C788E" d="M411.388,185.695c0,1.173-0.949,2.13-2.13,2.13H365.22
					c-1.182,0-2.137-0.957-2.137-2.13l0,0c0-1.18,0.955-2.133,2.137-2.133h44.038C410.438,183.562,411.388,184.516,411.388,185.695
					L411.388,185.695z"/>
			</g>
		</g>
		<path fill="#0A88A2" d="M417.263,343.354l-0.459-1.542h-59.146v5.393c-14.076,34.819-15.706,101.136-15.076,123.142l26.625-0.764
			c-0.924-32.26,5.551-81.037,15.494-105.504h8.625c9.604,24.795,14.969,73.551,14.055,105.504l26.631,0.764
			C434.661,447.498,432.876,376.891,417.263,343.354z"/>
		<path fill="#524C40" d="M372.771,477.415c0.289-0.897,0.449-1.852,0.449-2.843c0-5.101-4.133-9.237-9.233-9.237h-15.948
			c-5.102,0-9.232,4.137-9.232,9.237c0,0.991,0.159,1.945,0.448,2.843H372.771z"/>
		<path fill="#524C40" d="M438.128,477.415c0.288-0.897,0.448-1.852,0.448-2.843c0-5.101-4.137-9.237-9.233-9.237H413.39
			c-5.096,0-9.232,4.137-9.232,9.237c0,0.991,0.159,1.945,0.448,2.843H438.128z"/>
		<rect x="356.208" y="341.646" fill="#0C788E" width="63.222" height="5.767"/>
		<g>
			<g>
				<path fill="#1E1E1C" d="M389.751,257.324c0,1.176-0.955,2.135-2.131,2.135c-1.182,0-2.135-0.959-2.135-2.135
					c0-1.18,0.953-2.136,2.135-2.136C388.796,255.188,389.751,256.145,389.751,257.324z"/>
				<path fill="#1E1E1C" d="M389.751,272.973c0,1.176-0.955,2.131-2.131,2.131c-1.182,0-2.135-0.955-2.135-2.131
					c0-1.181,0.953-2.135,2.135-2.135C388.796,270.838,389.751,271.792,389.751,272.973z"/>
				<path fill="#1E1E1C" d="M389.751,288.62c0,1.179-0.955,2.136-2.131,2.136c-1.182,0-2.135-0.957-2.135-2.136
					s0.953-2.136,2.135-2.136C388.796,286.484,389.751,287.441,389.751,288.62z"/>
				<path fill="#1E1E1C" d="M389.751,304.267c0,1.179-0.955,2.136-2.131,2.136c-1.182,0-2.135-0.957-2.135-2.136
					s0.953-2.13,2.135-2.13C388.796,302.137,389.751,303.088,389.751,304.267z"/>
				<path fill="#1E1E1C" d="M389.751,319.916c0,1.179-0.955,2.135-2.131,2.135c-1.182,0-2.135-0.956-2.135-2.135
					c0-1.176,0.953-2.135,2.135-2.135C388.796,317.781,389.751,318.74,389.751,319.916z"/>
			</g>
		</g>
		<path fill="#FFEAC7" d="M376.407,232.561c-0.016,0.17,0.066,0.693,0.066,0.861c0,4.415,4.803,7.992,10.729,7.992
			c5.927,0,10.75-4.39,10.75-8.803c0,0-5.287-0.406-10.605-0.425C381.982,232.171,376.582,232.545,376.407,232.561z"/>
		<path fill="#0C788E" d="M362.218,269.898v7.98c0,3.02,2.449,5.47,5.473,5.47h5.498c3.018,0,5.473-2.45,5.473-5.47v-7.98H362.218z"
			/>
		<path fill="#0C788E" d="M395.677,269.898v7.98c0,3.02,2.45,5.47,5.468,5.47h5.499c3.021,0,5.473-2.45,5.473-5.47v-7.98H395.677z"
			/>
	</g>
	<g opacity="0.5">
		<path fill="#FFEAC7" d="M443.45,347.949c0,4.413-3.574,7.992-7.99,7.992l0,0c-4.41,0-7.989-3.579-7.989-7.992v-12.786
			c0-4.415,3.579-7.992,7.989-7.992l0,0c4.416,0,7.99,3.577,7.99,7.992V347.949z"/>
		<path fill-rule="evenodd" clip-rule="evenodd" fill="#0A88A2" d="M428.667,240.083c-7.051-4.642-22.834-7.878-41.196-7.894
			v110.966h29.308v-78.604c3.26,4.915,7.943,13.704,7.943,27.136v43.237h21.308v-43.237
			C446.029,269.48,440.587,247.129,428.667,240.083z"/>
		<rect x="387.471" y="239.018" fill-rule="evenodd" clip-rule="evenodd" fill="#0C788E" width="4.575" height="98.373"/>
		<path fill-rule="evenodd" clip-rule="evenodd" fill="#FFEAC7" d="M387.821,174.09c-0.119,0-0.232,0.005-0.351,0.008v51.838
			c0.118,0.002,0.231,0.008,0.351,0.008c13.927,0,25.217-11.609,25.217-25.928S401.748,174.09,387.821,174.09z"/>
		<path fill-rule="evenodd" clip-rule="evenodd" fill="#7E6055" d="M387.821,174.09c-0.119,0-0.232,0.005-0.351,0.008v14.839
			c4.286,2.722,9.614,4.108,13.993,1.444c2.455-1.493,5.592-0.5,7.062,1.852c0.681,1.096,2.388,2.053,4.06,2.891
			C410.356,183.142,400.123,174.09,387.821,174.09z"/>
		<path fill-rule="evenodd" clip-rule="evenodd" fill="#FFEAC7" d="M416.149,200.861c0,3.753-1.197,6.797-2.672,6.797
			c-1.476,0-2.672-3.044-2.672-6.797c0-3.757,1.196-6.801,2.672-6.801C414.952,194.061,416.149,197.104,416.149,200.861z"/>
		<g>
			<g>
				<g>
					<path fill-rule="evenodd" clip-rule="evenodd" fill="#0A88A2" d="M387.471,184.982h27.837c-0.03-0.205-0.076-0.412-0.144-0.623
						c-0.46-1.455-1.655-5.754-1.655-7.324c0-12.22-11.436-22.131-25.543-22.131c-0.165,0-0.33,0.008-0.495,0.013V184.982z"/>
				</g>
				<path fill-rule="evenodd" clip-rule="evenodd" fill="#0C788E" d="M409.258,183.562h-21.787v4.263h21.787
					c1.181,0,2.13-0.957,2.13-2.13C411.388,184.516,410.438,183.562,409.258,183.562z"/>
			</g>
		</g>
		<path fill="#0A88A2" d="M417.263,343.354l-0.459-1.542h-29.333v22.267h5.854c9.604,24.795,14.969,73.551,14.055,105.504
			l26.631,0.764C434.661,447.498,432.876,376.891,417.263,343.354z"/>
		<path fill="#524C40" d="M438.128,477.415c0.288-0.897,0.448-1.852,0.448-2.843c0-5.101-4.137-9.237-9.233-9.237H413.39
			c-5.096,0-9.232,4.137-9.232,9.237c0,0.991,0.159,1.945,0.448,2.843H438.128z"/>
		<rect x="387.471" y="341.646" fill="#0C788E" width="31.959" height="5.767"/>
		<g>
			<g>
				<path fill="#1E1E1C" d="M387.62,255.188c-0.051,0-0.098,0.013-0.149,0.016v4.237c0.052,0.005,0.099,0.018,0.149,0.018
					c1.176,0,2.131-0.959,2.131-2.135C389.751,256.145,388.796,255.188,387.62,255.188z"/>
				<path fill="#1E1E1C" d="M387.62,270.838c-0.051,0-0.098,0.01-0.149,0.013v4.243c0.052,0,0.099,0.01,0.149,0.01
					c1.176,0,2.131-0.955,2.131-2.131C389.751,271.792,388.796,270.838,387.62,270.838z"/>
				<path fill="#1E1E1C" d="M387.62,286.484c-0.051,0-0.098,0.014-0.149,0.018v4.235c0.052,0.005,0.099,0.019,0.149,0.019
					c1.176,0,2.131-0.957,2.131-2.136S388.796,286.484,387.62,286.484z"/>
				<path fill="#1E1E1C" d="M387.62,302.137c-0.051,0-0.098,0.01-0.149,0.01v4.242c0.052,0.003,0.099,0.014,0.149,0.014
					c1.176,0,2.131-0.957,2.131-2.136S388.796,302.137,387.62,302.137z"/>
				<path fill="#1E1E1C" d="M387.62,317.781c-0.051,0-0.098,0.012-0.149,0.018v4.236c0.052,0.004,0.099,0.016,0.149,0.016
					c1.176,0,2.131-0.956,2.131-2.135C389.751,318.74,388.796,317.781,387.62,317.781z"/>
			</g>
		</g>
		<path fill="#FFEAC7" d="M387.471,232.189v9.211c5.803-0.129,10.481-4.443,10.481-8.789
			C397.952,232.611,392.742,232.209,387.471,232.189z"/>
		<path fill="#0C788E" d="M395.677,269.898v7.98c0,3.02,2.45,5.47,5.468,5.47h5.499c3.021,0,5.473-2.45,5.473-5.47v-7.98H395.677z"
			/>
	</g>
</g>
<g>
	<g>
		<path fill="#FFEAC7" d="M915.513,357.47c0,4.822-3.91,8.729-8.729,8.729l0,0c-4.821,0-8.732-3.906-8.732-8.729v-13.969
			c0-4.82,3.911-8.73,8.732-8.73l0,0c4.818,0,8.729,3.91,8.729,8.73V357.47z"/>
		<path fill="#FFEAC7" d="M1021.292,357.47c0,4.822-3.909,8.729-8.732,8.729l0,0c-4.817,0-8.727-3.906-8.727-8.729v-13.969
			c0-4.82,3.909-8.73,8.727-8.73l0,0c4.823,0,8.732,3.91,8.732,8.73V357.47z"/>
		<path fill-rule="evenodd" clip-rule="evenodd" fill="#F4F5F4" d="M1005.14,239.638c-7.721-5.082-25.018-8.622-45.133-8.622
			c-20.018,0-37.249,3.506-45.023,8.55c-13.112,7.615-19.091,32.114-19.091,56.446v47.229h23.278v-47.229
			c0-16.017,5.17-25.993,8.398-31.012v87.231h64.582v-85.863c3.562,5.37,8.678,14.97,8.678,29.644v47.229h23.282v-47.229
			C1024.111,271.754,1018.166,247.339,1005.14,239.638z"/>
		<ellipse fill-rule="evenodd" clip-rule="evenodd" fill="#FFEAC7" cx="960.521" cy="195.873" rx="27.546" ry="28.323"/>
		<path fill-rule="evenodd" clip-rule="evenodd" fill="#7E6055" d="M937.485,187.937c2.824-3.254,6.424-5.522,9.567-8.43
			c2.176-2.005,5.85-2.338,7.975,0c4.761,5.224,13.618,9.959,20.396,5.838c2.688-1.629,6.107-0.544,7.715,2.024
			c0.748,1.199,2.603,2.243,4.434,3.159c-2.434-13.09-13.613-22.98-27.051-22.98c-14.825,0-26.906,12.038-27.519,27.121
			C934.742,192.687,935.798,189.886,937.485,187.937z"/>
		<path fill-rule="evenodd" clip-rule="evenodd" fill="#FFEAC7" d="M991.465,196.793c0,4.1-1.308,7.427-2.92,7.427
			c-1.604,0-2.918-3.327-2.918-7.427c0-4.101,1.313-7.428,2.918-7.428C990.157,189.365,991.465,192.692,991.465,196.793z"/>
		<ellipse fill-rule="evenodd" clip-rule="evenodd" fill="#FFEAC7" cx="933.103" cy="196.793" rx="2.917" ry="7.427"/>
		<g>
			<g>
				<path fill-rule="evenodd" clip-rule="evenodd" fill="#F6CD7D" d="M990.546,179.448c-0.035-0.226-0.084-0.452-0.158-0.685
					c-0.496-1.58-1.808-6.281-1.808-7.995c0-13.349-12.487-24.172-27.896-24.172c-15.412,0-27.901,10.823-27.901,24.172
					c0,1.506-1.354,6.098-2.306,8.68H990.546z"/>
				<path fill-rule="evenodd" clip-rule="evenodd" fill="#F6CD7D" d="M960.267,155.364c3.973,0,7.213-3.241,7.213-7.213
					c0-3.973-3.24-7.212-7.213-7.212s-7.211,3.239-7.211,7.212C953.056,152.123,956.294,155.364,960.267,155.364z"/>
				<g>
					<path fill-rule="evenodd" clip-rule="evenodd" fill="#E2B459" d="M944.214,151.256c2.513-1.595,5.348-2.833,8.401-3.635
						c0.197,0.497,0.311,1.038,0.311,1.602v19.402c0,2.396-1.962,4.353-4.356,4.353l0,0c-2.401,0-4.355-1.956-4.355-4.353V151.256z"
						/>
					<path fill-rule="evenodd" clip-rule="evenodd" fill="#E2B459" d="M968.003,147.437c3.002,0.702,5.802,1.832,8.316,3.307v17.882
						c0,2.396-1.962,4.353-4.355,4.353l0,0c-2.393,0-4.35-1.956-4.35-4.353v-19.402
						C967.614,148.586,967.749,147.983,968.003,147.437z"/>
				</g>
			</g>
			<path fill-rule="evenodd" clip-rule="evenodd" fill="#E2B459" d="M986.271,180.222c0,1.288-1.049,2.33-2.334,2.33h-48.105
				c-1.287,0-2.335-1.042-2.335-2.33l0,0c0-1.282,1.048-2.324,2.335-2.324h48.105C985.222,177.897,986.271,178.939,986.271,180.222
				L986.271,180.222z"/>
		</g>
		<path fill="#0A88A2" d="M992.683,352.454l-0.503-1.688h-64.61v5.889c-15.376,38.037-17.156,110.48-16.469,134.515l29.087-0.831
			c-1.004-35.242,6.06-88.524,16.924-115.248h9.427c10.484,27.087,16.352,80.342,15.355,115.248l29.088,0.831
			C1011.691,466.216,1009.742,389.085,992.683,352.454z"/>
		<path fill="#524C40" d="M944.084,498.893c0.316-0.978,0.49-2.021,0.49-3.108c0-5.567-4.513-10.083-10.09-10.083h-17.423
			c-5.572,0-10.086,4.516-10.086,10.083c0,1.088,0.176,2.131,0.492,3.108H944.084z"/>
		<path fill="#524C40" d="M1015.474,498.893c0.313-0.978,0.489-2.021,0.489-3.108c0-5.567-4.513-10.083-10.085-10.083H988.45
			c-5.567,0-10.085,4.516-10.085,10.083c0,1.088,0.174,2.131,0.495,3.108H1015.474z"/>
		<path fill="#FFEAC7" d="M948.052,231.427c-0.018,0.182,0.073,0.755,0.073,0.94c0,4.819,5.249,8.728,11.724,8.728
			c6.47,0,11.736-4.796,11.736-9.615c0,0-5.775-0.447-11.578-0.464C954.143,230.999,948.25,231.405,948.052,231.427z"/>
		<rect x="925.987" y="344.469" fill="#E0B28D" width="69.06" height="12.417"/>
		
			<rect x="953.611" y="342.864" fill="none" stroke="#563B3F" stroke-width="2.328" stroke-miterlimit="10" width="14.724" height="15.092"/>
		
			<rect x="964.471" y="349.673" fill="none" stroke="#563B3F" stroke-width="2.328" stroke-miterlimit="10" width="5.334" height="1.475"/>
		<path fill="#CFCECE" d="M966.199,260.57v8.716c0,3.3,2.677,5.976,5.973,5.976h6.007c3.299,0,5.978-2.676,5.978-5.976v-8.716
			H966.199z"/>
	</g>
	<g opacity="0.5">
		<path fill="#FFEAC7" d="M1021.292,357.47c0,4.822-3.909,8.729-8.732,8.729l0,0c-4.817,0-8.727-3.906-8.727-8.729v-13.969
			c0-4.82,3.909-8.73,8.727-8.73l0,0c4.823,0,8.732,3.91,8.732,8.73V357.47z"/>
		<path fill-rule="evenodd" clip-rule="evenodd" fill="#F4F5F4" d="M1005.14,239.638c-7.602-5.002-24.5-8.508-44.226-8.612v121.206
			h31.237v-85.863c3.562,5.37,8.678,14.97,8.678,29.644v47.229h23.282v-47.229C1024.111,271.754,1018.166,247.339,1005.14,239.638z"
			/>
		<path fill-rule="evenodd" clip-rule="evenodd" fill="#FFEAC7" d="M960.914,167.561v56.625
			c15.033-0.223,27.152-12.808,27.152-28.312C988.066,180.364,975.947,167.778,960.914,167.561z"/>
		<path fill-rule="evenodd" clip-rule="evenodd" fill="#7E6055" d="M960.914,167.564v16.675c4.543,2.654,9.984,3.855,14.509,1.105
			c2.688-1.629,6.107-0.544,7.715,2.024c0.748,1.199,2.603,2.243,4.434,3.159C985.164,177.568,974.173,167.76,960.914,167.564z"/>
		<path fill-rule="evenodd" clip-rule="evenodd" fill="#FFEAC7" d="M991.465,196.793c0,4.1-1.308,7.427-2.92,7.427
			c-1.604,0-2.918-3.327-2.918-7.427c0-4.101,1.313-7.428,2.918-7.428C990.157,189.365,991.465,192.692,991.465,196.793z"/>
		<g>
			<g>
				<path fill-rule="evenodd" clip-rule="evenodd" fill="#F6CD7D" d="M960.914,179.448h29.632c-0.035-0.226-0.084-0.452-0.158-0.685
					c-0.496-1.58-1.808-6.281-1.808-7.995c0-13.281-12.363-24.059-27.666-24.169V179.448z"/>
				<path fill-rule="evenodd" clip-rule="evenodd" fill="#F6CD7D" d="M960.914,140.973v14.36c3.674-0.332,6.565-3.427,6.565-7.182
					C967.479,144.399,964.588,141.304,960.914,140.973z"/>
				<g>
					<path fill-rule="evenodd" clip-rule="evenodd" fill="#E2B459" d="M968.003,147.437c3.002,0.702,5.802,1.832,8.316,3.307v17.882
						c0,2.396-1.962,4.353-4.355,4.353l0,0c-2.393,0-4.35-1.956-4.35-4.353v-19.402
						C967.614,148.586,967.749,147.983,968.003,147.437z"/>
				</g>
			</g>
			<path fill-rule="evenodd" clip-rule="evenodd" fill="#E2B459" d="M983.937,177.897h-23.022v4.654h23.022
				c1.285,0,2.334-1.042,2.334-2.33C986.271,178.939,985.222,177.897,983.937,177.897z"/>
		</g>
		<path fill="#0A88A2" d="M992.683,352.454l-0.503-1.688h-31.266v24.324h5.624c10.484,27.087,16.352,80.342,15.355,115.248
			l29.088,0.831C1011.691,466.216,1009.742,389.085,992.683,352.454z"/>
		<path fill="#524C40" d="M1015.474,498.893c0.313-0.978,0.489-2.021,0.489-3.108c0-5.567-4.513-10.083-10.085-10.083H988.45
			c-5.567,0-10.085,4.516-10.085,10.083c0,1.088,0.174,2.131,0.495,3.108H1015.474z"/>
		<path fill="#FFEAC7" d="M960.914,231.019v10.027c5.979-0.489,10.671-5.017,10.671-9.566
			C971.585,231.479,966.4,231.08,960.914,231.019z"/>
		<rect x="960.914" y="344.469" fill="#E0B28D" width="34.133" height="12.417"/>
		
			<rect x="960.914" y="342.864" fill="none" stroke="#563B3F" stroke-width="2.328" stroke-miterlimit="10" width="7.421" height="15.092"/>
		
			<rect x="964.471" y="349.673" fill="none" stroke="#563B3F" stroke-width="2.328" stroke-miterlimit="10" width="5.334" height="1.475"/>
		<path fill="#CFCECE" d="M966.199,260.57v8.716c0,3.3,2.677,5.976,5.973,5.976h6.007c3.299,0,5.978-2.676,5.978-5.976v-8.716
			H966.199z"/>
	</g>
</g>
<g>
	<g>
		<path fill="#FFEAC7" d="M598.521,808.289c0,5.259-4.266,9.524-9.521,9.524l0,0c-5.261,0-9.526-4.266-9.526-9.524v-15.237
			c0-5.261,4.266-9.523,9.526-9.523l0,0c5.255,0,9.521,4.263,9.521,9.523V808.289z"/>
		<path fill="#FFEAC7" d="M713.914,808.289c0,5.259-4.266,9.524-9.521,9.524l0,0c-5.261,0-9.526-4.266-9.526-9.524v-15.237
			c0-5.261,4.266-9.523,9.526-9.523l0,0c5.255,0,9.521,4.263,9.521,9.523V808.289z"/>
		<path fill-rule="evenodd" clip-rule="evenodd" fill="#F39140" d="M696.293,679.753c-8.421-5.547-27.291-9.41-49.232-9.41
			c-21.839,0-40.635,3.829-49.11,9.326c-14.309,8.311-20.837,35.032-20.837,61.575v51.522h25.397v-51.522
			c0-17.474,5.643-28.353,9.165-33.829v95.161h70.449v-93.668c3.885,5.857,9.465,16.331,9.465,32.336v51.522h25.397v-51.522
			C716.987,714.784,710.497,688.148,696.293,679.753z"/>
		<ellipse fill-rule="evenodd" clip-rule="evenodd" fill="#FFEAC7" cx="647.619" cy="632.007" rx="30.05" ry="30.896"/>
		<path fill-rule="evenodd" clip-rule="evenodd" fill="#7E6055" d="M622.492,623.354c3.086-3.553,7.002-6.026,10.438-9.198
			c2.379-2.188,6.379-2.551,8.703,0c5.188,5.701,14.855,10.863,22.244,6.371c2.932-1.779,6.668-0.597,8.414,2.206
			c0.817,1.306,2.846,2.446,4.837,3.445c-2.655-14.278-14.85-25.065-29.509-25.065c-16.171,0-29.35,13.129-30.02,29.586
			C619.5,628.534,620.648,625.478,622.492,623.354z"/>
		<path fill-rule="evenodd" clip-rule="evenodd" fill="#FFEAC7" d="M681.375,633.016c0,4.472-1.426,8.098-3.184,8.098
			s-3.178-3.626-3.178-8.098c0-4.478,1.42-8.104,3.178-8.104S681.375,628.538,681.375,633.016z"/>
		<path fill-rule="evenodd" clip-rule="evenodd" fill="#FFEAC7" d="M620.895,633.016c0,4.472-1.426,8.098-3.178,8.098
			c-1.764,0-3.189-3.626-3.189-8.098c0-4.478,1.426-8.104,3.189-8.104C619.469,624.911,620.895,628.538,620.895,633.016z"/>
		<path fill="#0A88A2" d="M682.703,802.812l-0.541-1.837h-70.486v6.426c-16.773,41.49-18.717,120.516-17.967,146.738l31.734-0.909
			c-1.101-38.442,6.607-96.565,18.457-125.722h10.283c11.438,29.546,17.837,87.645,16.742,125.722l31.734,0.909
			C703.441,926.915,701.314,842.776,682.703,802.812z"/>
		<path fill="#524C40" d="M629.69,962.563c0.344-1.069,0.534-2.207,0.534-3.387c0-6.078-4.93-11.008-11.008-11.008h-19.005
			c-6.072,0-11.002,4.93-11.002,11.008c0,1.18,0.19,2.317,0.534,3.387H629.69z"/>
		<path fill="#524C40" d="M707.564,962.563c0.345-1.069,0.541-2.207,0.541-3.387c0-6.078-4.93-11.008-11.008-11.008h-19.004
			c-6.08,0-11.003,4.93-11.003,11.008c0,1.18,0.19,2.317,0.535,3.387H707.564z"/>
		<path fill="#0C788E" d="M703.127,909.775c-0.725-13.756-1.93-28.94-3.835-43.925h-36.528c2.49,13.994,4.346,29.189,5.525,43.925
			H703.127z"/>
		<path fill="#0C788E" d="M628.442,909.775c1.37-14.696,3.46-29.905,6.196-43.925h-37.555c-1.906,14.996-3.104,30.185-3.823,43.925
			H628.442z"/>
		<path fill-rule="evenodd" clip-rule="evenodd" fill="#BA7230" d="M603.783,759.403v-18.159c0-4.761,0.442-9.284,1.285-13.583
			h-28.631c-0.399,4.591-0.59,9.17-0.59,13.583v18.159H603.783z"/>
		<path fill-rule="evenodd" clip-rule="evenodd" fill="#BA7230" d="M690.324,759.403h27.936v-18.159c0-4.413-0.19-8.992-0.59-13.583
			h-28.84c0.984,4.309,1.494,8.82,1.494,13.583V759.403z"/>
		<path fill-rule="evenodd" clip-rule="evenodd" fill="#F4F5F4" d="M668.572,671.673c-6.596-0.848-13.854-1.33-21.512-1.33
			c-7.223,0-14.094,0.427-20.389,1.186v122.156h41.9V671.673z"/>
		<path fill="#FFEAC7" d="M634.018,670.788c-0.013,0.203,0.08,0.826,0.08,1.026c0,5.261,5.729,9.524,12.79,9.524
			c7.056,0,12.804-5.23,12.804-10.489c0,0-6.301-0.485-12.631-0.507C640.662,670.324,634.232,670.77,634.018,670.788z"/>
		<rect x="609.947" y="794.109" fill="#563B3F" width="75.344" height="13.54"/>
		<g>
			<g>
				<g>
					<path fill="#E0B28D" d="M657.416,810.087h-18.599v-18.998h18.599V810.087z M641.355,807.548h13.517v-13.921h-13.517V807.548z"
						/>
				</g>
				<g>
					<rect x="650.656" y="798.513" fill="#E0B28D" width="8.365" height="4.146"/>
				</g>
			</g>
		</g>
		<polygon fill="#BA7230" points="674.08,795.031 665.609,794.183 659.685,669.673 673.231,669.673 		"/>
		<polygon fill="#BA7230" points="618.203,794.534 626.672,793.685 633.439,669.673 619.898,669.673 		"/>
		<g>
			<g>
				<path fill-rule="evenodd" clip-rule="evenodd" fill="#F6CD7D" d="M680.625,611.106c-0.03-0.242-0.092-0.492-0.166-0.744
					c-0.547-1.727-1.973-6.853-1.973-8.725c0-14.563-13.627-26.371-30.438-26.371c-16.804,0-30.43,11.808-30.43,26.371
					c0,1.642-1.482,6.656-2.521,9.469H680.625z"/>
				<path fill-rule="evenodd" clip-rule="evenodd" fill="#F6CD7D" d="M647.601,584.834c4.327,0,7.861-3.531,7.861-7.868
					c0-4.332-3.534-7.863-7.861-7.863c-4.339,0-7.874,3.531-7.874,7.863C639.727,581.303,643.262,584.834,647.601,584.834z"/>
				<g>
					<path fill-rule="evenodd" clip-rule="evenodd" fill="#E2B459" d="M630.09,580.351c2.734-1.736,5.826-3.092,9.158-3.959
						c0.215,0.541,0.332,1.125,0.332,1.74v21.171c0,2.608-2.133,4.745-4.745,4.745l0,0c-2.612,0-4.745-2.137-4.745-4.745V580.351z"
						/>
					<path fill-rule="evenodd" clip-rule="evenodd" fill="#E2B459" d="M656.033,576.188c3.276,0.77,6.338,1.998,9.072,3.605v19.509
						c0,2.608-2.139,4.745-4.751,4.745l0,0c-2.606,0-4.739-2.137-4.739-4.745v-21.171
						C655.615,577.442,655.764,576.782,656.033,576.188z"/>
				</g>
			</g>
			<path fill-rule="evenodd" clip-rule="evenodd" fill="#E2B459" d="M675.961,611.955c0,1.401-1.138,2.538-2.539,2.538h-52.484
				c-1.401,0-2.538-1.137-2.538-2.538l0,0c0-1.405,1.137-2.538,2.538-2.538h52.484C674.823,609.417,675.961,610.55,675.961,611.955
				L675.961,611.955z"/>
		</g>
	</g>
	<g opacity="0.5">
		<path fill="#FFEAC7" d="M713.914,808.289c0,5.259-4.266,9.524-9.521,9.524l0,0c-5.261,0-9.526-4.266-9.526-9.524v-15.237
			c0-5.261,4.266-9.523,9.526-9.523l0,0c5.255,0,9.521,4.263,9.521,9.523V808.289z"/>
		<path fill-rule="evenodd" clip-rule="evenodd" fill="#F39140" d="M696.293,679.753c-8.064-5.308-25.711-9.069-46.455-9.377v132.2
			h32.287v-93.668c3.885,5.857,9.465,16.331,9.465,32.336v51.522h25.397v-51.522C716.987,714.784,710.497,688.148,696.293,679.753z"
			/>
		<path fill-rule="evenodd" clip-rule="evenodd" fill="#FFEAC7" d="M649.838,601.204v61.605
			c15.557-1.168,27.831-14.505,27.831-30.803C677.669,615.71,665.395,602.372,649.838,601.204z"/>
		<path fill-rule="evenodd" clip-rule="evenodd" fill="#7E6055" d="M649.838,601.211v19.058c4.549,2.19,9.688,2.906,14.039,0.258
			c2.932-1.779,6.668-0.597,8.414,2.206c0.817,1.306,2.846,2.446,4.837,3.445C674.607,612.631,663.489,602.237,649.838,601.211z"/>
		<path fill-rule="evenodd" clip-rule="evenodd" fill="#FFEAC7" d="M681.375,633.016c0,4.472-1.426,8.098-3.184,8.098
			s-3.178-3.626-3.178-8.098c0-4.478,1.42-8.104,3.178-8.104S681.375,628.538,681.375,633.016z"/>
		<path fill="#0A88A2" d="M682.703,802.812l-0.541-1.837h-32.324v26.533h4.346c11.438,29.546,17.837,87.645,16.742,125.722
			l31.734,0.909C703.441,926.915,701.314,842.776,682.703,802.812z"/>
		<path fill="#524C40" d="M707.564,962.563c0.345-1.069,0.541-2.207,0.541-3.387c0-6.078-4.93-11.008-11.008-11.008h-19.004
			c-6.08,0-11.003,4.93-11.003,11.008c0,1.18,0.19,2.317,0.535,3.387H707.564z"/>
		<path fill="#0C788E" d="M703.127,909.775c-0.725-13.756-1.93-28.94-3.835-43.925h-36.528c2.49,13.994,4.346,29.189,5.525,43.925
			H703.127z"/>
		<path fill-rule="evenodd" clip-rule="evenodd" fill="#BA7230" d="M690.324,759.403h27.936v-18.159c0-4.413-0.19-8.992-0.59-13.583
			h-28.84c0.984,4.309,1.494,8.82,1.494,13.583V759.403z"/>
		<path fill-rule="evenodd" clip-rule="evenodd" fill="#F4F5F4" d="M649.838,670.389v123.296h18.734V671.673
			C662.789,670.93,656.464,670.49,649.838,670.389z"/>
		<path fill="#FFEAC7" d="M649.838,670.38v10.639c5.643-1.195,9.854-5.67,9.854-10.169
			C659.691,670.85,655.111,670.496,649.838,670.38z"/>
		<rect x="649.838" y="794.109" fill="#563B3F" width="35.453" height="13.54"/>
		<g>
			<g>
				<g>
					<polygon fill="#E0B28D" points="649.838,791.089 649.838,793.627 654.872,793.627 654.872,807.548 649.838,807.548 
						649.838,810.087 657.416,810.087 657.416,791.089 					"/>
				</g>
				<g>
					<rect x="650.656" y="798.513" fill="#E0B28D" width="8.365" height="4.146"/>
				</g>
			</g>
		</g>
		<polygon fill="#BA7230" points="674.08,795.031 665.609,794.183 659.685,669.673 673.231,669.673 		"/>
		<g>
			<g>
				<path fill-rule="evenodd" clip-rule="evenodd" fill="#F6CD7D" d="M649.838,611.106h30.787c-0.03-0.242-0.092-0.492-0.166-0.744
					c-0.547-1.727-1.973-6.853-1.973-8.725c0-14.041-12.674-25.52-28.648-26.321V611.106z"/>
				<path fill-rule="evenodd" clip-rule="evenodd" fill="#F6CD7D" d="M649.838,569.428v15.077c3.246-0.971,5.624-3.982,5.624-7.539
					C655.462,573.411,653.084,570.399,649.838,569.428z"/>
				<g>
					<path fill-rule="evenodd" clip-rule="evenodd" fill="#E2B459" d="M656.033,576.188c3.276,0.77,6.338,1.998,9.072,3.605v19.509
						c0,2.608-2.139,4.745-4.751,4.745l0,0c-2.606,0-4.739-2.137-4.739-4.745v-21.171
						C655.615,577.442,655.764,576.782,656.033,576.188z"/>
				</g>
			</g>
			<path fill-rule="evenodd" clip-rule="evenodd" fill="#E2B459" d="M673.422,609.417h-23.584v5.076h23.584
				c1.401,0,2.539-1.137,2.539-2.538C675.961,610.55,674.823,609.417,673.422,609.417z"/>
		</g>
	</g>
</g>
</svg>
