<svg xmlns="http://www.w3.org/2000/svg" width="803.7" height="1121.7" viewBox="0 0 803.7 1121.7">
  <rect
     style="fill:#eaf5f7"
     id="rect8"
     height="630.85706"
     width="780.79999"
     y="490.90002"
     x="22.999994" />
  <g
     transform="translate(-269.4,-65.5)"
     id="g10">
    <g
       id="g12">
      <path
         style="fill:none;stroke:#9bd5e1;stroke-width:30;stroke-miterlimit:10"
         id="path14"
         d="m 966.8,748.8 c 0,0 -89.9,-8.8 -182.2,-46.2 -48.8,-19.8 -140.9,-55.2 -238.3,-63.9"
         stroke-miterlimit="10" />
      <g
         id="g16">
        <polygon
           style="fill:#9bd5e1"
           id="polygon18"
           points="553.4,669.4 556.6,609.6 503.3,636.7 " />
      </g>
    </g>
  </g>
  <path
     style="fill:#eaf5f7"
     id="path20"
     d="m 469,425.5 c 4.2,12.3 10.6,13 22.9,13.1 -0.3,1.4 0.3,3.3 0.1,4.7 3.9,0.8 7.9,1.2 11.8,1.2 6.1,15.8 -4.4,23 -1.8,38.8 1.7,10.4 20.4,17.5 5.3,23.1 -12.7,4.7 -35.3,-3.5 -48.6,-4 -12.9,-0.5 -20.4,-1.1 -29.2,8.8 -21.7,24.4 -3.9,52.5 29.9,51.3 27.6,-1 52.6,-16.2 80.3,-13.4 21.2,2.1 37.9,11.2 59.6,9.6 36.1,-2.7 72,-6.6 108.2,-9.2 21.7,-1.5 46.8,-3.5 65.9,-11.4 21.7,-9 30.7,-12.6 30.7,-39.1 0,-6.6 2.4,-20.9 -4.2,-25.4 -8.8,-6 -23.1,6 -31,7.8 -12.2,2.7 -26.1,-4.6 -37.3,-2.6 -6.1,1.1 -15.4,3.5 -21.4,6 -11.3,4.7 -6.8,17.4 -17.1,22.8 -8.7,4.6 -28.9,2.6 -39.2,2.9 -18.2,0.6 -36.8,0.5 -54.9,-1 -13.4,-1.1 -30,-7.7 -38.6,-19 -9.4,-12.3 1.5,-25.7 -3.7,-38 -13.2,-31 -63.1,-43.6 -88.5,-24" />
  <path
     style="fill:#e0c9a9"
     id="path22"
     d="m 400,396.5 c -0.1,-1.8 5.5,-5.3 5.7,-7.1 29,-3.9 55.8,-6.6 84.7,-3.9 13,1.2 37.9,-2.9 49.5,11.2 1.8,4.7 0.7,7.5 -0.7,11.8 -0.3,1 -4.5,4 -5.1,4.9 -2,2.6 -1,4.3 -3.8,7.1 -7.2,7.2 -18.7,2.9 -28.2,2 -3.6,-0.3 -7.1,-1.8 -11,-1 -9.3,1.8 -2.3,4.7 -7.9,8.1 -4.9,3 -13.7,1.3 -19.5,2.8 -4.8,1.2 -6.2,3.8 -11.9,4.3 -8.1,0.7 -18.6,-2.5 -26.5,-4.2 -0.6,-15.7 -29.4,-20.7 -27.1,-34.9" />
  <path
     style="fill:#2d8263"
     id="path24"
     d="m 305,452.5 c 0,0 31,-32 52,-40 21,-8 51,-27 51,-27 l 0,10 9,0 0,12 8,0 0,11.5 14.2,0 0,8.5 29.8,0 c 0,0 7,4.8 23,6.9 16,2.1 7,3.1 22,6.1 15,3 15,10 8,12 -7,2 -2.9,5 4.5,12 7.4,7 -11.5,3 -11.5,12 0,9 13.3,22 13.3,22 l -16.7,22 -63.7,-11 -60.9,-11 -82,-46 z" />
  <path
     style="fill:#2d8263"
     id="path26"
     d="m 719,504.5 c 0,0 -26,-29 -54,-52 -28,-23 -104,-43.8 -112,-49.9 -8,-6.1 -24.7,-17.1 -24.7,-17.1 l 0,8 -6.3,0 0,9.1 -7,0 -10,0 0,9.9 -9,0 0,9 c 0,0 7,1 15,6 8,5 9.5,3.8 17.3,6.9 7.8,3.1 15.7,5.1 14.7,10.6 -1,5.5 -21.4,6.5 -10.7,10.5 10.7,4 18.7,10 15.7,15 -3,5 -7,8.1 0,12 7,3.9 7,17 7,17 l 50,21 114,-16 z" />
  <g
     transform="translate(-269.4,-65.5)"
     id="g28">
    <ellipse
       style="fill:#ffffff"
       id="ellipse30"
       ry="7.3000002"
       rx="12"
       cy="724.79999"
       cx="622.40002"
       transform="matrix(0.8215,0.5702,-0.5702,0.8215,524.3876,-225.5387)" />
    <path
       style="fill:#e0d8e4"
       id="path32"
       d="m 575.9,728.5 c 0,0 0,-14.5 -9.7,-33.8 -10.9,-21.7 -38.1,-22.1 -38.1,-22.1 0,0 14,14.2 10.1,16.9 -5.8,4.2 -22.7,-22.6 -48.5,-10.5 0,0 11.4,5 14.5,8.4 5.1,5.7 5,12.7 4.3,12.2 -14.8,-12.5 -32.5,-6.9 -32.5,-6.9 0,0 13.6,10.7 7.5,14.8 -2.4,1.6 -20.1,-8.5 -31.1,2.8 -4.4,4.5 1.9,-2.9 10.4,4.2 8.5,7.1 -9.5,18 -9.5,18 l 36.3,-6.3 86.3,2.3 z" />
    <path
       style="fill:#e0d8e4"
       id="path34"
       d="m 588.2,906 c 0,0 -17.5,-2.5 -24.9,0 -7.6,2.6 -17.8,4.7 -21.3,4.7 -3.5,0 12.3,3.2 12.3,3.2 0,0 -12.2,1.6 -20.6,10 0,0 8.6,0 10.6,2.5 3.1,3.8 -6.9,9.6 -12.3,13.2 -5.4,3.6 4.1,3.1 4.1,9.1 0,13.5 -13,18.1 -18.9,22.9 0,0 17,0 25,-7.4 7.5,-6.9 15.6,-23 24.3,-30.9 8.7,-7.9 21.7,-27.3 21.7,-27.3 z" />
    <path
       style="fill:#ffffff"
       id="path36"
       d="m 667.3,759.6 c 0,0 3.3,6 2.5,13.4 -0.5,4.5 -4.7,11.2 -4.7,11.2 0,0 0.7,-7.7 -0.7,-13.4 C 663,765.1 659,761 659,761 l 8.3,-1.4 z" />
    <path
       style="fill:#ffffff"
       id="path38"
       d="m 652.1,767.5 c 0,0 3.3,6 2.5,13.4 -0.5,4.5 -4.7,11.2 -4.7,11.2 0,0 0.7,-7.7 -0.7,-13.4 -1.4,-5.7 -5.4,-9.8 -5.4,-9.8 l 8.3,-1.4 z" />
    <path
       style="fill:#ffffff"
       id="path40"
       d="m 636.5,773.4 c 0,0 4.1,4.5 5,11 0.5,4 -1.8,10.6 -1.8,10.6 0,0 -1,-6.8 -3.4,-11.4 -2.5,-4.6 -6.7,-7.3 -6.7,-7.3 l 6.9,-2.9 z" />
    <path
       style="fill:#ffffff"
       id="path42"
       d="m 622.8,781.6 c 0,0 4.8,3.8 6.6,10.1 1.1,3.9 -0.1,10.8 -0.1,10.8 0,0 -2,-6.5 -5.2,-10.7 -3.2,-4.2 -7.7,-6.2 -7.7,-6.2 l 6.4,-4 z" />
    <path
       style="fill:#ffffff"
       id="path44"
       d="m 608.2,790.3 c 0,0 5.4,2.9 8.3,8.8 1.8,3.6 1.8,10.6 1.8,10.6 0,0 -3.1,-6.1 -7,-9.6 -3.9,-3.5 -8.7,-4.7 -8.7,-4.7 l 5.6,-5.1 z" />
    <path
       style="fill:#ffffff"
       id="path46"
       d="m 666.7,894.2 c 0,0 3.3,-6 2.5,-13.4 -0.5,-4.5 -4.8,-11.2 -4.8,-11.2 0,0 0.8,7.7 -0.7,13.4 -1.5,5.7 -5.4,9.8 -5.4,9.8 l 8.4,1.4 z" />
    <path
       style="fill:#ffffff"
       id="path48"
       d="m 651.4,886.4 c 0,0 3.3,-6 2.5,-13.4 -0.5,-4.5 -4.8,-11.1 -4.8,-11.1 0,0 0.8,7.7 -0.7,13.4 -1.5,5.7 -5.4,9.8 -5.4,9.8 l 8.4,1.3 z" />
    <path
       style="fill:#ffffff"
       id="path50"
       d="m 635.8,880.6 c 0,0 4.1,-4.5 4.9,-11 0.5,-4 -1.8,-10.6 -1.8,-10.6 0,0 -1,6.8 -3.4,11.4 -2.5,4.6 -6.7,7.3 -6.7,7.3 l 7,2.9 z" />
    <path
       style="fill:#ffffff"
       id="path52"
       d="m 622.1,872.4 c 0,0 4.8,-3.8 6.6,-10.1 1.1,-3.9 -0.1,-10.8 -0.1,-10.8 0,0 -2,6.5 -5.1,10.7 -3.1,4.2 -7.7,6.2 -7.7,6.2 l 6.3,4 z" />
    <path
       style="fill:#ffffff"
       id="path54"
       d="m 607.4,863.7 c 0,0 5.4,-2.9 8.3,-8.8 1.8,-3.6 1.8,-10.6 1.8,-10.6 0,0 -3.1,6.1 -7,9.6 -3.9,3.6 -8.7,4.7 -8.7,4.7 l 5.6,5.1 z" />
    <path
       style="fill:#dbd6e7"
       id="path56"
       d="m 664.4,743.9 c 0,0 10.3,5.8 8.5,12.4 -1.8,6.6 -28.2,13.7 -45.2,24.5 -17,10.8 -34.8,48.8 -34.8,48.8 l -13.2,-0.8 c 0,0 20,25.4 46.7,41.4 26.7,16 45.9,20 45.9,23.2 0,3.2 -2.9,11.6 -16.3,7.5 -19.9,-6 -76.2,-49.9 -76.2,-49.9 l -3.8,-28.5 14.1,-26.9 34.5,-43.1 39.8,-8.6 z" />
    <path
       style="fill:#aea7c2"
       id="path58"
       d="m 579.6,828.8 6.6,0 c 0,0 26.4,-48.9 51.8,-63.1 25.4,-14.2 26.4,-21.8 26.4,-21.8 0,0 -48.9,-46.9 -192.9,-22.4 -41.1,7 -91.3,83.7 -91.3,83.7 0,0 -7.5,-21.9 -32,-33 -24.5,-11.1 -32.9,-5.5 -32.9,-5.5 0,0 45.8,2.9 36.7,69.7 -6,43.8 -36.7,34.8 -36.7,73.1 0,0 46.8,-40.2 63.2,-40.2 10.9,0 5.3,27.2 93.9,60.2 85.1,31.7 149.6,4.7 172.2,-9.4 22.6,-14.1 16,-19.2 16,-19.2 0,0 -18.9,-7 -41.4,-25 -22.5,-18 -30.1,-30.2 -30.1,-30.2 l -9.5,-16.9 z" />
    <ellipse
       style="fill:#ffffff"
       id="ellipse60"
       ry="7.3000002"
       rx="12"
       cy="725.79999"
       cx="606.40002"
       transform="matrix(0.8215,0.5702,-0.5702,0.8215,522.0894,-216.1967)" />
    <circle
       id="circle62"
       r="4.9000001"
       cy="727.70001"
       cx="610.29999" />
    <path
       style="fill:#e0d8e4"
       id="path64"
       d="m 522.2,915.4 c 0,0 -17.5,-2.5 -24.9,0 -7.6,2.6 -17.8,4.7 -21.3,4.7 -3.5,0 12.3,3.2 12.3,3.2 0,0 -12.2,1.6 -20.6,10 0,0 8.6,0 10.6,2.5 3.1,3.8 -6.9,9.6 -12.3,13.2 -5.4,3.6 4.1,3.1 4.1,9.1 0,13.5 -13,18.1 -18.9,22.9 0,0 17,0 25,-7.4 7.5,-6.9 15.6,-23 24.3,-30.9 8.7,-7.9 21.7,-27.3 21.7,-27.3 z" />
  </g>
  <g
     transform="translate(-269.4,-65.5)"
     id="g66">
    <ellipse
       style="fill:#ffffff"
       id="ellipse68"
       ry="3.7"
       rx="6.1999998"
       cy="768"
       cx="826.79999"
       transform="matrix(0.8215,0.5702,-0.5702,0.8215,585.5029,-334.3655)" />
    <path
       style="fill:#fdca64"
       id="path70"
       d="m 802.9,769.9 c 0,0 0,-7.5 -5,-17.4 -5.6,-11.2 -19.6,-11.4 -19.6,-11.4 0,0 7.2,7.3 5.2,8.7 -3,2.1 -11.7,-11.6 -25,-5.4 0,0 5.9,2.6 7.5,4.3 2.6,2.9 2.6,6.6 2.2,6.3 -7.6,-6.4 -16.7,-3.6 -16.7,-3.6 0,0 7,5.5 3.9,7.6 -1.2,0.8 -10.3,-4.4 -16,1.5 -2.3,2.3 1,-1.5 5.3,2.2 4.4,3.6 -4.9,9.3 -4.9,9.3 l 18.7,-3.2 44.4,1.1 z" />
    <path
       style="fill:#fdca64"
       id="path72"
       d="m 809.2,861.4 c 0,0 -9,-1.3 -12.8,0 -3.9,1.3 -9.1,2.4 -11,2.4 -1.9,0 6.3,1.6 6.3,1.6 0,0 -6.3,0.8 -10.6,5.1 0,0 4.4,0 5.5,1.3 1.6,2 -3.6,5 -6.3,6.8 -2.8,1.8 2.1,1.6 2.1,4.7 0,7 -6.7,9.3 -9.8,11.8 0,0 8.7,0 12.9,-3.8 3.9,-3.6 8,-11.8 12.5,-15.9 4.5,-4.1 11.2,-14 11.2,-14 z" />
    <path
       style="fill:#ffffff"
       id="path74"
       d="m 850,786 c 0,0 1.7,3.1 1.3,6.9 -0.3,2.3 -2.4,5.7 -2.4,5.7 0,0 0.4,-3.9 -0.4,-6.9 -0.8,-2.9 -2.8,-5 -2.8,-5 L 850,786 Z" />
    <path
       style="fill:#ffffff"
       id="path76"
       d="m 842.1,790 c 0,0 1.7,3.1 1.3,6.9 -0.3,2.3 -2.4,5.7 -2.4,5.7 0,0 0.4,-4 -0.4,-6.9 -0.8,-2.9 -2.8,-5 -2.8,-5 l 4.3,-0.7 z" />
    <path
       style="fill:#ffffff"
       id="path78"
       d="m 834.1,793.1 c 0,0 2.1,2.3 2.6,5.7 0.3,2.1 -0.9,5.5 -0.9,5.5 0,0 -0.5,-3.5 -1.8,-5.9 -1.3,-2.4 -3.4,-3.8 -3.4,-3.8 l 3.5,-1.5 z" />
    <path
       style="fill:#ffffff"
       id="path80"
       d="m 827,797.3 c 0,0 2.5,1.9 3.4,5.2 0.6,2 -0.1,5.5 -0.1,5.5 0,0 -1,-3.4 -2.7,-5.5 -1.6,-2.2 -4,-3.2 -4,-3.2 l 3.4,-2 z" />
    <path
       style="fill:#ffffff"
       id="path82"
       d="m 819.5,801.7 c 0,0 2.8,1.5 4.3,4.5 0.9,1.9 0.9,5.5 0.9,5.5 0,0 -1.6,-3.1 -3.6,-5 -2,-1.8 -4.5,-2.4 -4.5,-2.4 l 2.9,-2.6 z" />
    <path
       style="fill:#ffffff"
       id="path84"
       d="m 849.6,855.3 c 0,0 1.7,-3.1 1.3,-6.9 -0.3,-2.3 -2.5,-5.7 -2.5,-5.7 0,0 0.4,4 -0.4,6.9 -0.8,2.9 -2.8,5 -2.8,5 l 4.4,0.7 z" />
    <path
       style="fill:#ffffff"
       id="path86"
       d="m 841.7,851.3 c 0,0 1.7,-3.1 1.3,-6.9 -0.3,-2.3 -2.5,-5.7 -2.5,-5.7 0,0 0.4,3.9 -0.4,6.9 -0.8,2.9 -2.8,5 -2.8,5 l 4.4,0.7 z" />
    <path
       style="fill:#ffffff"
       id="path88"
       d="m 833.7,848.2 c 0,0 2.1,-2.3 2.5,-5.7 0.3,-2.1 -0.9,-5.5 -0.9,-5.5 0,0 -0.5,3.5 -1.8,5.9 -1.3,2.4 -3.4,3.8 -3.4,3.8 l 3.6,1.5 z" />
    <path
       style="fill:#ffffff"
       id="path90"
       d="m 826.7,844 c 0,0 2.5,-2 3.4,-5.2 0.6,-2 -0.1,-5.5 -0.1,-5.5 0,0 -1,3.4 -2.6,5.5 -1.6,2.2 -4,3.2 -4,3.2 l 3.3,2 z" />
    <path
       style="fill:#ffffff"
       id="path92"
       d="m 819.1,839.6 c 0,0 2.8,-1.5 4.3,-4.5 0.9,-1.9 0.9,-5.5 0.9,-5.5 0,0 -1.6,3.1 -3.6,5 -2,1.8 -4.5,2.4 -4.5,2.4 l 2.9,2.6 z" />
    <path
       style="fill:#fac268"
       id="path94"
       d="m 848.4,777.9 c 0,0 5.3,3 4.4,6.4 -0.9,3.4 -14.5,7.1 -23.3,12.6 -8.7,5.6 -17.9,25.1 -17.9,25.1 l -6.8,-0.4 c 0,0 10.3,13.1 24.1,21.3 13.8,8.2 23.6,10.3 23.6,11.9 0,1.6 -1.2,7 -8.4,3.9 -9.8,-4.3 -39.3,-25.7 -39.3,-25.7 l -1.9,-14.7 7.3,-13.8 17.7,-22.2 20.5,-4.4 z" />
    <path
       style="fill:#f59b00"
       id="path96"
       d="m 804.8,821.6 3.4,0 c 0,0 13.6,-25.2 26.7,-32.5 13.1,-7.3 13.6,-11.3 13.6,-11.3 0,0 -25.2,-24.1 -99.4,-11.5 -21.2,3.6 -47,43.1 -47,43.1 0,0 -3.9,-11.3 -16.5,-17 -12.6,-5.7 -17,-2.8 -17,-2.8 0,0 23.6,1.5 18.9,35.9 -3.1,22.5 -18.9,17.9 -18.9,37.7 0,0 24.1,-20.7 32.6,-20.7 5.6,0 2.7,14 48.4,31 43.8,16.3 77.1,2.4 88.7,-4.8 11.6,-7.3 8.2,-9.9 8.2,-9.9 0,0 -9.7,-3.6 -21.3,-12.9 -11.6,-9.3 -15.5,-15.6 -15.5,-15.6 l -4.9,-8.7 z" />
    <ellipse
       style="fill:#ffffff"
       id="ellipse98"
       ry="3.7"
       rx="6.1999998"
       cy="768.59998"
       cx="818.59998"
       transform="matrix(0.8215,0.5702,-0.5702,0.8215,584.2974,-329.5496)" />
    <circle
       id="circle100"
       r="2.5"
       cy="769.5"
       cx="820.59998" />
    <path
       style="fill:#fdca64"
       id="path102"
       d="m 775.2,866.2 c 0,0 -9,-1.3 -12.8,0 -3.9,1.3 -9.1,2.4 -11,2.4 -1.9,0 6.3,1.6 6.3,1.6 0,0 -6.3,0.8 -10.6,5.1 0,0 4.4,0 5.5,1.3 1.6,2 -3.6,5 -6.3,6.8 -2.8,1.8 2.1,1.6 2.1,4.7 0,7 -6.7,9.3 -9.8,11.8 0,0 8.7,0 12.9,-3.8 3.9,-3.6 8,-11.8 12.5,-15.9 4.5,-4 11.2,-14 11.2,-14 z" />
  </g>
  <g
     transform="translate(-269.4,-65.5)"
     id="g104">
    <ellipse
       style="fill:#ffffff"
       id="ellipse106"
       ry="1.6"
       rx="2.7"
       cy="798"
       cx="927.29999"
       transform="matrix(0.8215,0.5702,-0.5702,0.8215,620.5419,-386.2905)" />
    <path
       style="fill:#9194c9"
       id="path108"
       d="m 916.7,798.9 c 0,0 0,-3.3 -2.2,-7.7 -2.5,-4.9 -8.6,-5 -8.6,-5 0,0 3.2,3.2 2.3,3.8 -1.3,0.9 -5.1,-5.1 -11,-2.4 0,0 2.6,1.1 3.3,1.9 1.2,1.3 1.1,2.9 1,2.8 -3.3,-2.8 -7.4,-1.6 -7.4,-1.6 0,0 3.1,2.4 1.7,3.3 -0.5,0.4 -4.5,-1.9 -7,0.6 -1,1 0.4,-0.6 2.3,1 1.9,1.6 -2.2,4.1 -2.2,4.1 l 8.2,-1.4 19.6,0.6 z" />
    <path
       style="fill:#9194c9"
       id="path110"
       d="m 919.5,839.1 c 0,0 -4,-0.6 -5.6,0 -1.7,0.6 -4,1.1 -4.8,1.1 -0.8,0 2.8,0.7 2.8,0.7 0,0 -2.8,0.4 -4.7,2.3 0,0 1.9,0 2.4,0.6 0.7,0.9 -1.6,2.2 -2.8,3 -1.2,0.8 0.9,0.7 0.9,2.1 0,3.1 -3,4.1 -4.3,5.2 0,0 3.8,0 5.7,-1.7 1.7,-1.6 3.5,-5.2 5.5,-7 2,-1.9 4.9,-6.3 4.9,-6.3 z" />
    <path
       style="fill:#ffffff"
       id="path112"
       d="m 937.5,805.9 c 0,0 0.8,1.4 0.6,3 -0.1,1 -1.1,2.5 -1.1,2.5 0,0 0.2,-1.7 -0.2,-3 -0.3,-1.3 -1.2,-2.2 -1.2,-2.2 l 1.9,-0.3 z" />
    <path
       style="fill:#ffffff"
       id="path114"
       d="m 934,807.7 c 0,0 0.8,1.4 0.6,3 -0.1,1 -1.1,2.5 -1.1,2.5 0,0 0.2,-1.7 -0.2,-3 -0.3,-1.3 -1.2,-2.2 -1.2,-2.2 l 1.9,-0.3 z" />
    <path
       style="fill:#ffffff"
       id="path116"
       d="m 930.5,809 c 0,0 0.9,1 1.1,2.5 0.1,0.9 -0.4,2.4 -0.4,2.4 0,0 -0.2,-1.5 -0.8,-2.6 -0.6,-1 -1.5,-1.7 -1.5,-1.7 l 1.6,-0.6 z" />
    <path
       style="fill:#ffffff"
       id="path118"
       d="m 927.4,810.9 c 0,0 1.1,0.9 1.5,2.3 0.3,0.9 0,2.4 0,2.4 0,0 -0.5,-1.5 -1.2,-2.4 -0.7,-0.9 -1.8,-1.4 -1.8,-1.4 l 1.5,-0.9 z" />
    <path
       style="fill:#ffffff"
       id="path120"
       d="m 924,812.9 c 0,0 1.2,0.6 1.9,2 0.4,0.8 0.4,2.4 0.4,2.4 0,0 -0.7,-1.4 -1.6,-2.2 -0.9,-0.8 -2,-1.1 -2,-1.1 l 1.3,-1.1 z" />
    <path
       style="fill:#ffffff"
       id="path122"
       d="m 937.3,836.4 c 0,0 0.8,-1.4 0.6,-3 -0.1,-1 -1.1,-2.5 -1.1,-2.5 0,0 0.2,1.7 -0.2,3 -0.3,1.3 -1.2,2.2 -1.2,2.2 l 1.9,0.3 z" />
    <path
       style="fill:#ffffff"
       id="path124"
       d="m 933.8,834.7 c 0,0 0.8,-1.4 0.6,-3 -0.1,-1 -1.1,-2.5 -1.1,-2.5 0,0 0.2,1.7 -0.2,3 -0.3,1.3 -1.2,2.2 -1.2,2.2 l 1.9,0.3 z" />
    <path
       style="fill:#ffffff"
       id="path126"
       d="m 930.3,833.3 c 0,0 0.9,-1 1.1,-2.5 0.1,-0.9 -0.4,-2.4 -0.4,-2.4 0,0 -0.2,1.5 -0.8,2.6 -0.6,1 -1.5,1.7 -1.5,1.7 l 1.6,0.6 z" />
    <path
       style="fill:#ffffff"
       id="path128"
       d="m 927.2,831.5 c 0,0 1.1,-0.9 1.5,-2.3 0.2,-0.9 0,-2.4 0,-2.4 0,0 -0.5,1.5 -1.2,2.4 -0.7,0.9 -1.7,1.4 -1.7,1.4 l 1.4,0.9 z" />
    <path
       style="fill:#ffffff"
       id="path130"
       d="m 923.9,829.5 c 0,0 1.2,-0.6 1.9,-2 0.4,-0.8 0.4,-2.4 0.4,-2.4 0,0 -0.7,1.4 -1.6,2.2 -0.9,0.8 -2,1.1 -2,1.1 l 1.3,1.1 z" />
    <path
       style="fill:#9194c9"
       id="path132"
       d="m 936.8,802.4 c 0,0 2.3,1.3 1.9,2.8 -0.4,1.5 -6.4,3.1 -10.2,5.5 -3.8,2.4 -7.9,11.1 -7.9,11.1 l -3,-0.2 c 0,0 4.5,5.8 10.6,9.4 6.1,3.6 10.4,4.5 10.4,5.2 0,0.7 0.2,3.3 -3.7,1.7 -4.3,-1.8 -17.3,-11.3 -17.3,-11.3 l -0.9,-6.5 3.2,-6.1 7.8,-9.8 9.1,-1.8 z" />
    <path
       style="fill:#302780"
       id="path134"
       d="m 917.6,821.6 1.5,0 c 0,0 6,-11.1 11.7,-14.3 5.8,-3.2 6,-5 6,-5 0,0 -11.1,-10.6 -43.7,-5.1 -9.3,1.6 -20.7,19 -20.7,19 0,0 -1.7,-5 -7.3,-7.5 -5.6,-2.5 -7.5,-1.2 -7.5,-1.2 0,0 10.4,0.7 8.3,15.8 -1.4,9.9 -8.3,7.9 -8.3,16.6 0,0 10.6,-9.1 14.3,-9.1 2.5,0 1.2,6.2 21.3,13.7 19.3,7.2 33.9,1.1 39,-2.1 5.1,-3.2 3.6,-4.3 3.6,-4.3 0,0 -4.3,-1.6 -9.4,-5.7 -5.1,-4.1 -6.8,-6.8 -6.8,-6.8 l -2,-4 z" />
    <ellipse
       style="fill:#ffffff"
       id="ellipse136"
       ry="1.6"
       rx="2.7"
       cy="798.29999"
       cx="923.59998"
       transform="matrix(0.8215,0.5702,-0.5702,0.8215,620.021,-384.1733)" />
    <circle
       id="circle138"
       r="1.1"
       cy="798.70001"
       cx="924.5" />
    <path
       style="fill:#9194c9"
       id="path140"
       d="m 904.6,841.2 c 0,0 -4,-0.6 -5.6,0 -1.7,0.6 -4,1.1 -4.8,1.1 -0.8,0 2.8,0.7 2.8,0.7 0,0 -2.8,0.4 -4.7,2.3 0,0 1.9,0 2.4,0.6 0.7,0.9 -1.6,2.2 -2.8,3 -1.2,0.8 0.9,0.7 0.9,2.1 0,3.1 -3,4.1 -4.3,5.2 0,0 3.8,0 5.7,-1.7 1.7,-1.6 3.5,-5.2 5.5,-7 1.9,-1.9 4.9,-6.3 4.9,-6.3 z" />
  </g>
  <path
     style="fill:#d0ba9d"
     id="path142"
     d="m 54.7,339.7 c 3.5,-2.4 3.8,-13.5 8.5,-18.2 6.5,-6.3 16.4,-1.3 22.9,-6.9 7.9,-6.8 5,-19 14.9,-25.4 7.4,-4.8 12.7,-3.2 20.8,-2.4 11.5,1.1 27.3,3.3 38.4,-0.5 5.7,-1.9 7.7,-5.3 14.8,-5.9 4.5,-0.3 8.5,1.1 12.3,1.8 17,3.3 29.9,6.2 47.3,3.5 12,-1.8 32.9,-7.9 44.2,-1.5 -6.2,0.4 -13.7,-0.8 -19.1,1.2 -3.5,1.3 -6.2,5.3 -9.7,6.7 -10.8,4.1 -27.4,2 -38.7,1.4 -5.4,-0.3 -11.4,-2.5 -16.8,-0.7 -4.7,1.6 -8.4,6.6 -14.2,7.7 -11.2,2.1 -24,-1.7 -35.3,-2.1 -4.9,-0.2 -21.8,-3 -22.9,4 -1.7,10.9 32.6,5.2 37.2,4.9 6.7,-0.5 12.4,0.9 17.3,2.3 12.5,3.5 22.2,6.6 35.9,5.9 20.2,-1 48.1,-8.3 66.2,3.6 -12.4,1.9 -25.9,-3.3 -38.2,-0.5 -11.2,2.6 -16.7,8.1 -29.4,7 -11.8,-1.1 -23.1,-6.2 -34.9,-7.1 -11.3,-0.9 -22.7,0.6 -33.9,1.2 20.1,20.1 58.4,3 80.7,16.7 -5.4,11 -25.6,3.3 -33.9,1.1 -9.9,-2.7 -17.6,-2.5 -27.6,-2.2 -16,0.6 -32.7,-4.1 -49.1,-4.8 -3.4,-0.1 -11.3,-1.4 -14.2,0 -3,1.5 -4,5.8 -7,8.6 -8.1,7.6 -23.7,6.4 -32,-0.5" />
  <path
     style="fill:#d0ba9d"
     id="path144"
     d="m 165,361.5 c -2,-20.7 5.4,-26.8 13.3,-42.9 3.4,-6.9 9,-10.7 13.4,-12.1 3.9,-1.2 9.1,0.1 13.2,0 8.4,-0.1 20.9,-1.2 25.9,-9 0,9.3 -9.8,9.2 -14.8,14.7 7.8,5.8 14.2,0.1 20.9,-2.7 11.4,-4.7 19.7,0.1 31.3,0 7.7,0 14.1,-2.7 21.8,-3 7.5,-0.3 12.8,2 20,3.1 10.5,1.6 18.2,-4.5 28,-5 7.3,-0.4 12.7,4.3 19.8,4.9 -5.1,0 -13.9,-1.9 -18.2,0.6 -2.2,1.3 -3.8,7.7 -6.8,9.5 -8.2,4.9 -21.8,-1 -30.8,-0.1 -11.1,1.1 -19.7,6.4 -32,3.9 -11,-2.3 -12.7,-5.3 -23.6,1.3 11.6,-0.7 19.5,4.9 32.4,4.9 -14.3,7.7 -31.3,-0.6 -40.1,4.9 11.6,13.9 51.2,5.3 66.8,4.1 12.6,-1 28.5,-1.7 40.6,2 8.1,2.5 15.5,10.7 23.8,6.1 -12.3,8.7 -38.4,0.5 -52.8,0.9 -4,0.1 -17.2,-1.2 -19,3.4 -2.2,5.9 11.6,6.4 14.5,8.7 -7.4,-0.2 -23.1,4.6 -25.7,-9.8 -15.8,-5.6 -42,-6.2 -49,-1.1 3.1,5.9 14.1,4.1 17.8,10.6 -7.7,0.7 -35.8,-20 -41.8,4.8 1.1,-5.6 -2.4,-10.2 -8,-10.7 -6.8,-0.6 -9.3,4.9 -11.6,9 1.5,-7.8 -7,-13.2 -14.2,-10.8 -6.6,2.1 -5.5,11.8 -13.2,10.8" />
  <path
     style="fill:#807b60"
     id="path146"
     d="m 17.2,365.5 38.8,-28 c 0,0 5.2,2 22.1,0 16.9,-2 16.9,-2 16.9,-2 l 76.2,56 -5.2,73 -87.9,0 -60.9,6 0,-105 z" />
  <path
     style="fill:#807b60"
     id="path148"
     d="m 17.2,365.5 38.8,-28 c 0,0 5.2,2 22.1,0 16.9,-2 16.9,-2 16.9,-2 l 76.2,56 -5.2,73 -87.9,0 -60.9,6 0,-105 z" />
  <g
     transform="translate(-269.4,-65.5)"
     id="g150">
    <path
       id="path152"
       d="m 524.7,99.2 -0.4,-0.8 0.1,-5.4 -0.1,-0.7 0.1,-2.3 0,-0.8 0,-3.1 0,-0.8 0,-0.7 -0.1,-0.7 0.1,-6.2 -0.1,-0.8 0,-0.8 0,-2.2 0,-0.8 0,-0.8 0,-0.8 0,-1.4 0,-0.9 0,-1.8 0.4,-1.2 0.8,-0.4 0.8,0.1 0.9,0 0.8,0.1 0.9,0.3 0.6,0.7 2.4,8.8 0.3,1.5 0.3,0.9 0.1,0.7 0.5,1.4 0.1,0.8 0.3,0.8 1.8,7.4 0.2,1.3 0.3,1.2 0.4,0.3 1.9,-8.3 0.5,-1.5 0.1,-0.6 0.3,-0.7 0.2,-0.8 0.1,-0.9 1,-3.6 0.3,-0.7 1.1,-4.6 0.6,-1.4 0.2,-0.9 0.1,-0.7 0.2,-0.7 0.5,-0.7 1.3,-0.5 1.2,0 0.7,0.1 0.8,0.3 0.5,0.7 -0.1,5.5 0.1,0.8 -0.1,1.5 0,0.9 -0.1,4.5 0.1,0.9 0,0.8 0.1,1.5 -0.1,2.4 0.1,3.7 -0.1,0.9 0.1,0.8 -0.1,3.6 0.1,0.8 0,0.8 0.1,0.6 -0.1,0.6 0.1,0.9 -0.3,0.7 -0.6,0.4 -0.8,0.1 -0.8,-0.4 -0.5,-0.5 0,-0.6 0,-0.8 -0.1,-0.8 0,-0.8 -0.1,-0.7 0.1,-2.7 -0.1,-1.2 0.1,-0.9 0,-0.8 0,-0.8 0.1,-0.7 -0.1,-0.8 0,-0.8 0.1,-1.6 -0.1,-3.1 0.1,-3.2 0,-2.2 0,-0.7 0,-1 0.1,-0.7 -0.1,-1 0.1,-3 -0.2,0 -0.3,0.7 -0.1,0.7 -0.1,0.9 -0.2,0.6 -0.1,0.9 -3,10.7 -0.3,0.8 -0.1,0.8 -0.3,0.6 -0.1,0.7 -1.4,5.3 -0.3,0.7 -0.1,0.9 -0.2,0.6 -0.7,0.8 -0.9,0.2 -0.7,0 -0.9,-0.3 -0.6,-0.7 -0.5,-1.4 0,-0.8 -0.2,-0.9 -0.3,-0.7 -0.4,-1.4 -0.3,-0.6 -0.2,-1.1 -0.4,-1.2 -0.1,-0.8 -0.5,-1.5 -0.2,-0.6 -0.1,-0.8 -0.3,-0.6 -0.3,-1.5 -0.8,-2.3 -1.9,-8.3 -0.2,0.1 0,1.6 0,1.5 0,0.8 0.1,0.8 0,0.7 0.1,3.3 0,0.7 0,1.6 -0.1,0.8 0.1,0.8 0,0.6 0,2.4 0,0.7 0,0.8 0,11.5 -0.3,0.8 -0.8,0.4 -0.7,0 -1.4,-0.6 z" />
    <path
       id="path154"
       d="m 559.4,99.8 -1.9,-0.6 -0.6,-0.4 -1,-0.9 -1.2,-1.6 -0.3,-0.6 -0.5,-1.2 -0.2,-0.6 0,-0.8 -0.2,-0.6 0,-0.7 -0.1,-0.7 -0.1,-0.7 0,-2.6 0.2,-2.7 0.2,-1.3 0.5,-2.1 0.2,-0.7 0.3,-0.6 0.7,-1.1 0.9,-1.2 0.5,-0.4 0.6,-0.4 1.8,-0.8 1.4,-0.2 1,0 1,0.1 1.2,0.2 1.8,1 1,1.1 0.7,1.2 0.2,0.6 0.2,1.7 -0.2,1.7 -0.1,0.6 -0.1,0.7 -0.3,0.7 -1,1.7 -1.4,1.4 -0.6,0.5 -1.7,1 -0.6,0.2 -0.7,0.2 -1.2,0.5 -0.7,0.1 -0.7,0 -0.7,0.2 -0.6,0.3 -0.3,0.7 0.3,1.1 0.4,1 1,1.7 1.1,0.8 0.6,0.1 1.1,0.1 1,0 0.7,-0.2 0.7,-0.1 0.6,-0.3 0.9,-0.5 0.9,-0.7 0.7,-0.3 0.6,0.3 0.3,0.6 0.1,0.8 -0.3,0.7 -0.5,0.5 -0.6,0.5 -0.6,0.3 -0.7,0.2 -0.7,0.3 -1.3,0.3 -0.6,0.1 -2.1,0 -1,-0.2 z m -1.4,-10.6 1.3,-0.4 0.6,-0.2 1.2,-0.6 1.7,-1.1 0.4,-0.5 0.3,-0.6 0.3,-0.7 0.2,-0.6 0.2,-0.6 0.1,-0.7 0,-1 0,-1 -0.1,-0.7 -0.9,-1.1 -0.5,-0.2 -0.7,-0.3 -0.9,0 -1.2,0.1 -1,0.2 -0.5,0.3 -0.4,0.4 -0.4,0.5 -0.4,0.7 -0.5,1.3 -0.6,3.3 0,1.3 -0.1,1.3 0.4,0.7 0.7,0.2 0.8,0 z" />
    <path
       id="path156"
       d="m 578.7,99.9 -0.7,-0.2 -0.6,-0.3 -0.6,-0.1 -0.5,-0.4 -0.5,-0.3 -0.8,-1.1 -0.3,-0.6 -0.3,-0.6 -0.4,-1.3 -0.2,-1.9 0,-2.8 -0.1,-0.6 0,-0.8 0,-0.6 0,-0.7 0,-1.7 0,-0.6 -0.1,-1.8 0,-1.3 0,-1.4 0,-0.7 -0.4,-0.6 -1,-0.4 -1.2,-0.2 -0.3,-0.5 0,-0.7 0.4,-0.6 1.1,-0.3 1.1,0 0.3,-0.4 0,-0.8 0,-0.7 0,-0.7 0,-0.7 0,-2.1 -0.1,-1.3 0.2,-0.5 0.5,-0.5 1.2,0.1 0.7,0.3 0.4,0.5 0.1,1.3 0,1.4 0,0.5 -0.1,2.5 0.4,0.7 0.7,0.2 1.3,0 1.3,0 1.3,0 0.6,0.4 0.4,0.6 0,0.6 -0.3,0.5 -0.7,0.3 -0.6,0.1 -0.7,0 -1.2,0 -0.7,0 -0.6,0 -0.7,0.3 -0.3,0.7 0,0.7 0,0.7 0.1,0.7 -0.1,6.8 0.1,1 0,2.5 0.2,1.2 0.3,1.3 0.6,1.2 1,0.8 1,0.2 1.6,0 0.6,-0.1 0.7,-0.2 0.8,0 0.5,0.4 0.1,0.6 -0.2,0.8 -0.6,0.5 -1.3,0.4 -0.7,0.1 -0.7,0.2 -1,0.1 -1,-0.1 z" />
    <path
       id="path158"
       d="m 592,99.9 -0.7,-0.1 -0.6,-0.2 -0.6,-0.2 -0.5,-0.3 -0.5,-0.4 -0.5,-0.4 -0.7,-1.1 -0.3,-0.7 -0.3,-1.2 0,-0.7 0,-2.1 0.1,-0.7 0.1,-0.6 0.2,-0.7 0.2,-0.5 0.2,-0.7 0.4,-0.6 0.3,-0.5 0.4,-0.5 0.5,-0.4 0.6,-0.6 0.6,-0.3 1.9,-0.9 0.7,-0.1 1.3,-0.2 1,0 0.9,-0.1 0.6,0.1 0.7,-0.2 0.4,-0.6 -0.1,-1.4 -0.1,-0.7 -0.1,-0.6 -0.2,-0.8 -0.2,-0.5 -0.4,-0.5 -0.5,-0.4 -0.5,-0.4 -0.6,-0.1 -1,0 -1,-0.1 -1.1,0.2 -0.9,0.3 -1.2,0.8 -0.7,0.1 -0.6,-0.4 -0.3,-0.4 -0.1,-0.8 0.2,-0.7 0.5,-0.4 0.6,-0.3 0.6,-0.3 1.2,-0.5 0.6,0 0.7,-0.2 0.7,0 2,0 0.7,0.2 1,0.2 0.9,0.4 0.5,0.3 0.5,0.4 0.8,1.2 0.3,0.6 0.3,0.7 0.3,1.3 0.2,1.3 0,1.1 0.1,1 0,1.3 0,0.6 0,0.7 0,2.1 -0.1,1.4 0.1,0.5 -0.1,2.4 0.1,1.6 0,0.7 0,0.7 0.1,1.2 -0.2,0.8 -1,0.3 -1.2,-0.3 -0.5,-0.6 -0.1,-0.7 -0.3,-0.2 -0.4,0.2 -0.9,0.8 -0.6,0.4 -1.1,0.4 -1.2,0.4 -2.1,0.2 z m 2.4,-2.6 0.6,-0.2 1.2,-0.6 1,-0.6 0.5,-0.5 0.4,-0.8 0.2,-0.9 0,-0.6 0,-0.7 0,-3.4 0,-0.5 -0.3,-0.8 -0.6,-0.2 -2.5,-0.1 -0.7,0.2 -1.2,0.4 -1.1,0.8 -0.4,0.5 -0.4,0.6 -0.3,0.5 -0.3,0.6 -0.1,0.6 -0.1,1.7 0,1.1 0.1,0.6 0.5,1.2 0.4,0.4 0.6,0.3 0.7,0.3 1,0.1 0.8,0 z" />
    <path
       id="path160"
       d="m 607.8,99.3 -0.4,-0.6 -0.1,-0.6 -0.1,-1.2 0,-2.1 0,-0.7 0,-0.6 0,-1.1 0,-1.1 0.1,-1.2 -0.1,-0.7 0,-8.8 0,-0.8 0,-0.8 0.1,-0.6 -0.1,-4.2 0,-1 0,-3 -0.1,-0.7 0,-1.3 -0.1,-1.3 0.2,-0.7 0.5,-0.3 0.5,0 0.6,-0.1 0.7,0.4 0.5,0.5 0.1,3.5 0,0.6 0.1,0.7 -0.1,1.8 0,1.3 0,0.7 0,1.1 0,0.6 0,2.2 0.1,0.9 -0.1,1.1 0,0.6 0,0.7 0,0.6 0.1,0.7 0,9.6 0,0.7 0,1.3 0.1,0.6 0,0.6 0,0.8 0,1.3 -0.1,0.7 -0.5,0.2 -0.6,0 -0.7,0.1 -0.6,-0.4 z" />
    <path
       id="path162"
       d="m 621.3,99.8 -1.9,-0.6 -0.6,-0.4 -1,-0.9 -1.2,-1.6 -0.3,-0.6 -0.5,-1.2 -0.2,-0.6 0,-0.8 -0.2,-0.6 0,-0.7 -0.1,-0.7 -0.1,-0.7 0,-2.6 0.2,-2.7 0.2,-1.3 0.5,-2.1 0.2,-0.7 0.3,-0.6 0.7,-1.1 0.9,-1.2 0.5,-0.4 0.6,-0.4 1.8,-0.8 1.4,-0.2 1,0 1,0.1 1.2,0.2 1.8,1 1,1.1 0.7,1.2 0.2,0.6 0.2,1.7 -0.2,1.7 -0.1,0.6 -0.1,0.7 -0.3,0.7 -1,1.7 -1.4,1.4 -0.6,0.5 -1.7,1 -0.6,0.2 -0.7,0.2 -1.2,0.5 -0.7,0.1 -0.7,0 -0.7,0.2 -0.6,0.3 -0.3,0.7 0.3,1.1 0.4,1 1,1.7 1.1,0.8 0.6,0.1 1.1,0.1 1,0 0.7,-0.2 0.7,-0.1 0.6,-0.3 0.9,-0.5 0.9,-0.7 0.7,-0.3 0.6,0.3 0.3,0.6 0.1,0.8 -0.3,0.7 -0.5,0.5 -0.6,0.5 -0.6,0.3 -0.7,0.2 -0.7,0.3 -1.3,0.3 -0.6,0.1 -2.1,0 -1,-0.2 z m -1.4,-10.6 1.3,-0.4 0.6,-0.2 1.2,-0.6 1.7,-1.1 0.4,-0.5 0.3,-0.6 0.3,-0.7 0.2,-0.6 0.2,-0.6 0.1,-0.7 0,-1 0,-1 -0.1,-0.7 -0.9,-1.1 -0.5,-0.2 -0.7,-0.3 -0.9,0 -1.2,0.1 -1,0.2 -0.5,0.3 -0.4,0.4 -0.4,0.5 -0.4,0.7 -0.5,1.3 -0.6,3.3 0,1.3 -0.1,1.3 0.4,0.7 0.7,0.2 0.8,0 z" />
    <path
       id="path164"
       d="m 639,99.9 -0.6,-0.1 -0.6,-0.2 -0.7,-0.1 -0.6,-0.1 -0.6,-0.3 -1.2,-0.5 -0.5,-0.4 -0.6,-0.4 -0.3,-0.6 0.1,-0.9 0.3,-0.5 0.5,-0.3 0.7,0.1 0.6,0.3 1.9,1.1 1.3,0.3 1.7,0.2 1,-0.1 0.6,-0.4 0.6,-0.3 0.5,-0.5 0.6,-1 0.1,-0.7 0,-1 -0.1,-1.2 -0.2,-0.6 -0.4,-0.7 -0.5,-0.5 -0.9,-0.7 -0.9,-0.5 -0.5,-0.3 -1.1,-0.4 -0.9,-0.4 -1.2,-0.7 -1.7,-1.2 -1.2,-1.5 -0.3,-0.7 -0.2,-0.6 -0.1,-0.6 -0.1,-2 0.1,-0.7 0.1,-0.6 0.3,-0.6 0.3,-0.7 1,-0.9 0.5,-0.2 0.5,-0.4 2.3,-0.5 0.7,0 1.7,0 0.6,0.1 1.3,0.4 0.6,0.1 0.6,0.3 0.6,0.3 0.4,0.7 0,0.8 -0.2,0.5 -0.5,0.4 -0.7,-0.1 -0.7,-0.2 -1,-0.4 -1,-0.2 -0.7,-0.2 -2.1,0.1 -0.6,0.3 -0.6,0.5 -0.3,0.4 -0.1,0.6 -0.1,1 0,1.1 0.2,0.5 0.4,0.6 0.5,0.5 0.4,0.2 0.6,0.5 0.6,0.3 0.9,0.5 3.1,1.6 1,0.8 0.4,0.4 1.4,1.3 0.5,1.2 0.2,0.6 0.1,0.7 0,2 -0.1,0.6 -0.4,1.3 -0.3,0.6 -0.8,1.2 -0.5,0.5 -1.8,0.9 -0.7,0.2 -0.6,0.1 -1,0 -1,0 -0.6,0 z" />
    <path
       id="path166"
       d="m 658.4,111.2 -0.4,-0.5 -0.1,-1.2 0,-0.6 0,-0.8 0,-0.6 0,-0.7 0,-0.7 0,-0.8 0,-2.1 0,-0.6 0,-6 0,-0.7 0,-0.6 -0.1,-0.8 0,-2 0,-0.7 0,-0.6 0,-0.7 0,-0.7 0,-0.6 0.1,-0.8 -0.1,-3 0,-0.6 0,-1.2 0,-0.6 0,-3.4 -0.1,-2 0.2,-0.8 0.6,-0.3 0.7,0 0.9,0.2 0.5,0.6 0.1,0.7 0.2,0.5 0.5,-0.2 0.6,-0.3 0.6,-0.5 0.6,-0.3 2.4,-1 1.1,0 0.7,-0.1 1,0 1.3,0.3 0.6,0.2 1,0.8 0.4,0.4 0.3,0.7 0.3,0.5 0.2,0.7 0.2,0.5 0.2,0.8 0.2,1.3 0.2,2.2 0,1.3 0,0.7 0,2 -0.1,0.8 0,0.6 -0.3,2.2 -0.3,1.2 -0.7,2 -0.7,1.2 -0.4,0.6 -0.7,0.8 -0.7,0.7 -0.4,0.4 -0.6,0.2 -0.5,0.3 -1,0.3 -2.4,0.1 -0.6,-0.1 -2.1,-0.7 -0.6,0 -0.3,0.5 0,1.4 0,0.8 0,0.6 0,1.7 0,1 0.1,0.7 0,2.6 0.2,2.1 -0.2,0.6 -0.6,0.2 -1.2,0 -0.8,-0.1 z m 6.4,-13.8 0.9,-0.1 1,-0.2 0.6,-0.2 0.5,-0.3 0.5,-0.5 0.4,-0.5 0.7,-1.1 0.5,-1.2 0.3,-1.4 0.2,-2.8 0,-3.4 -0.1,-1.2 0,-0.7 -0.1,-0.7 0,-0.6 -0.3,-1.4 -0.6,-1.2 -0.4,-0.5 -0.5,-0.3 -1.6,-0.2 -1,0 -0.8,0.1 -0.7,0.2 -1.2,0.6 -0.5,0.3 -1.1,1 -0.5,0.9 -0.2,1 0,8.5 0,0.7 0,0.7 -0.1,0.9 0,1.1 0.3,1.2 0.5,0.6 0.6,0.3 0.6,0.2 0.6,0.1 0.7,0.1 0.8,0 z" />
    <path
       id="path168"
       d="m 683.8,99.8 -1.9,-0.6 -0.6,-0.4 -1,-0.9 -1.2,-1.6 -0.3,-0.6 -0.5,-1.2 -0.2,-0.6 0,-0.8 -0.2,-0.6 0,-0.7 -0.1,-0.7 -0.1,-0.7 0,-2.6 0.2,-2.7 0.2,-1.3 0.5,-2.1 0.2,-0.7 0.3,-0.6 0.7,-1.1 0.9,-1.2 0.5,-0.4 0.6,-0.4 1.8,-0.8 1.4,-0.2 1,0 1,0.1 1.2,0.2 1.8,1 1,1.1 0.7,1.2 0.2,0.6 0.2,1.7 -0.2,1.7 -0.1,0.6 -0.1,0.7 -0.3,0.7 -1,1.7 -1.4,1.4 -0.6,0.5 -1.7,1 -0.6,0.2 -0.7,0.2 -1.2,0.5 -0.7,0.1 -0.7,0 -0.7,0.2 -0.6,0.3 -0.3,0.7 0.3,1.1 0.4,1 1,1.7 1.1,0.8 0.6,0.1 1.1,0.1 1,0 0.7,-0.2 0.7,-0.1 0.6,-0.3 0.9,-0.5 0.9,-0.7 0.7,-0.3 0.6,0.3 0.3,0.6 0.1,0.8 -0.3,0.7 -0.5,0.5 -0.6,0.5 -0.6,0.3 -0.7,0.2 -0.7,0.3 -1.3,0.3 -0.6,0.1 -2.1,0 -1,-0.2 z m -1.4,-10.6 1.3,-0.4 0.6,-0.2 1.2,-0.6 1.7,-1.1 0.4,-0.5 0.3,-0.6 0.3,-0.7 0.2,-0.6 0.2,-0.6 0.1,-0.7 0,-1 0,-1 -0.1,-0.7 -0.9,-1.1 -0.5,-0.2 -0.7,-0.3 -0.9,0 -1.2,0.1 -1,0.2 -0.5,0.3 -0.4,0.4 -0.4,0.5 -0.4,0.7 -0.5,1.3 -0.6,3.3 0,1.3 -0.1,1.3 0.4,0.7 0.7,0.2 0.8,0 z" />
    <path
       id="path170"
       d="m 701.5,99.9 -0.6,-0.1 -0.6,-0.2 -0.7,-0.1 -0.6,-0.1 -0.6,-0.3 -1.2,-0.5 -0.5,-0.4 -0.6,-0.4 -0.3,-0.6 0.1,-0.9 0.3,-0.5 0.5,-0.3 0.7,0.1 0.6,0.3 1.9,1.1 1.3,0.3 1.7,0.2 1,-0.1 0.6,-0.2 0.6,-0.3 0.5,-0.5 0.6,-1 0.1,-0.7 0,-1 -0.1,-1.2 -0.2,-0.6 -0.4,-0.7 -0.5,-0.5 -0.9,-0.7 -0.9,-0.5 -0.5,-0.3 -1.1,-0.4 -0.9,-0.4 -1.2,-0.7 -1.7,-1.2 -1.2,-1.5 -0.3,-0.7 -0.2,-0.6 -0.1,-0.6 -0.1,-2 0.1,-0.7 0.1,-0.6 0.3,-0.6 0.3,-0.7 1,-0.9 0.5,-0.2 0.5,-0.4 2.3,-0.5 0.7,0 1.7,0 0.6,0.1 1.3,0.4 0.6,0.1 0.6,0.3 0.6,0.3 0.4,0.7 0,0.8 -0.2,0.5 -0.5,0.4 -0.7,-0.1 -0.7,-0.2 -1,-0.4 -1,-0.2 -0.7,-0.2 -2.1,0.1 -0.6,0.3 -0.6,0.5 -0.3,0.4 -0.1,0.6 -0.1,1 0,1.1 0.2,0.5 0.4,0.6 0.5,0.5 0.4,0.2 0.6,0.5 0.6,0.3 0.9,0.5 3.1,1.6 1,0.8 0.4,0.4 0.9,1.1 0.5,1.2 0.2,0.6 0.1,0.7 0,2 -0.1,0.6 -0.4,1.3 -0.3,0.6 -0.8,1.2 -0.5,0.5 -1.8,0.9 -0.7,0.2 -0.6,0.1 -1,0 -1,0 -0.1,0 z" />
    <path
       id="path172"
       d="m 717.3,99.9 -0.7,-0.1 -0.6,-0.2 -0.6,-0.2 -0.5,-0.3 -0.5,-0.4 -0.5,-0.4 -0.7,-1.1 -0.3,-0.7 -0.3,-1.2 0,-0.7 0,-2.1 0.1,-0.7 0.1,-0.6 0.2,-0.7 0.2,-0.5 0.2,-0.7 0.4,-0.6 0.3,-0.5 0.4,-0.5 0.5,-0.4 0.6,-0.6 0.6,-0.3 1.9,-0.9 0.7,-0.1 1.3,-0.2 1,0 0.9,-0.1 0.6,0.1 0.7,-0.2 0.4,-0.6 -0.1,-1.4 -0.1,-0.7 -0.1,-0.6 -0.2,-0.8 -0.2,-0.5 -0.4,-0.5 -0.5,-0.4 -0.5,-0.4 -0.6,-0.1 -1,0 -1,-0.1 -1.1,0.2 -0.9,0.3 -1.2,0.8 -0.7,0.1 -0.6,-0.4 -0.3,-0.4 -0.1,-0.8 0.4,-0.7 0.5,-0.4 0.6,-0.3 0.4,-0.3 1.2,-0.5 0.6,0 0.7,-0.2 0.7,0 2,0 0.7,0.2 1,0.2 0.9,0.4 0.5,0.3 0.5,0.4 0.8,1.2 0.3,0.6 0.3,0.7 0.3,1.3 0.2,1.3 0,1.1 0.1,1 0,1.3 0,0.6 0,0.7 0,2.1 -0.1,1.4 0.1,0.5 -0.1,2.4 0.1,1.6 0,0.7 0,0.7 0.1,1.2 -0.2,0.8 -1,0.3 -1.2,-0.3 -0.5,-0.6 -0.1,-0.7 -0.3,-0.2 -0.4,0.2 -0.9,0.8 -0.6,0.4 -1.1,0.4 -1.2,0.4 -2.1,0.2 z m 2.4,-2.6 0.6,-0.2 1.2,-0.6 1,-0.6 0.5,-0.5 0.4,-0.8 0.2,-0.9 0,-0.6 0,-0.7 0,-3.4 0,-0.5 -0.3,-0.8 -0.6,-0.2 -2.5,-0.1 -0.7,0.2 -1.2,0.3 -1.1,0.8 -0.4,0.5 -0.4,0.6 -0.3,0.5 -0.3,0.6 -0.1,0.6 -0.1,1.7 0,1.1 0.1,0.6 0.5,1.2 0.4,0.4 0.6,0.3 0.7,0.3 1,0.1 0.8,0.1 z" />
    <path
       id="path174"
       d="m 739,99.9 -0.9,0 -0.7,0 -0.6,-0.1 -0.6,-0.4 -1.2,-0.6 -0.5,-0.4 -0.5,-0.5 -0.3,-0.6 -0.4,-0.6 -0.6,-1.1 -0.1,-0.6 -0.3,-0.6 -0.3,-1.5 -0.1,-0.8 -0.2,-1.2 -0.1,-1.4 0,-2 0.1,-0.7 0.1,-0.8 0,-0.6 0.1,-0.7 0.1,-0.7 0.1,-0.6 0.4,-1.4 0.8,-1.9 1.2,-1.6 0.5,-0.5 0.6,-0.3 0.5,-0.4 0.6,-0.3 0.6,-0.2 0.6,-0.1 0.7,-0.1 1,0 1.1,0 0.7,0.2 0.6,0.1 1.3,0.5 0.5,0.3 0.5,0 0.3,-0.5 0,-0.6 0.1,-1.1 -0.1,-4.3 0.1,-0.6 0,-0.7 0,-0.7 -0.1,-0.8 0,-0.6 -0.1,-0.7 0.2,-0.7 0.5,-0.3 1,0 0.9,0.3 0.4,0.6 0.2,1.2 0,0.7 0.1,0.6 0,0.7 0,1.6 0,2.7 0,0.6 0,1.7 0,0.7 0,1 0,0.6 0,1.8 0,1.9 0.1,0.8 -0.1,6.4 0,0.8 0,5.1 0.2,2.6 -0.3,0.7 -0.6,0.4 -0.7,-0.1 -0.8,-0.2 -0.5,-0.5 -0.1,-0.6 -0.3,-0.4 -0.4,0.1 -0.5,0.5 -0.5,0.3 -1.1,0.8 -0.6,0.1 -1.3,0.4 -1.3,-0.1 z m 0.6,-2.6 1,-0.1 0.6,-0.1 0.5,-0.2 0.6,-0.2 0.5,-0.3 0.5,-0.5 0.4,-0.6 0.4,-0.7 0.2,-0.9 0,-5.8 0,-0.7 -0.1,-1 0,-4.1 -0.2,-0.9 -0.4,-0.8 -1.7,-1.2 -1.3,-0.3 -1.1,0 -1,0 -1,0.3 -0.9,0.4 -0.9,1.1 -0.3,0.5 -0.3,0.7 -0.2,0.7 -0.5,2.7 0,0.6 -0.1,1.3 0,1.1 0.1,1.8 0,0.5 0,1.3 0.3,1.3 0.1,0.8 0.2,0.5 0.2,0.6 0.3,0.7 0.4,0.5 0.5,0.4 1.1,0.6 0.7,0.2 1.4,-0.2 z" />
    <path
       id="path176"
       d="m 758.8,99.8 -0.6,0 -1.2,-0.6 -0.6,-0.4 -0.6,-0.3 -0.9,-0.9 -0.4,-0.5 -0.7,-1.3 -0.5,-1.2 -0.3,-1.2 -0.4,-2.1 -0.1,-1.4 0,-2.7 0.1,-1.4 0.1,-1.3 0.1,-0.7 0.5,-2 0.3,-0.5 0.5,-1.3 0.4,-0.6 0.8,-1 0.6,-0.5 0.5,-0.3 0.8,-0.4 1,-0.4 1,-0.2 1.3,0 1,0 0.7,0.1 1.3,0.4 0.5,-0.1 0.5,0.3 1,0.8 0.8,1.1 0.7,1.2 0.2,0.7 0.3,0.5 0.1,0.7 0.2,0.7 0.1,0.6 0.1,0.7 0.1,1.4 0.2,1.3 -0.1,2 0,0.8 0,0.7 -0.3,2.1 -0.1,0.5 -0.6,1.9 -0.3,0.7 -0.3,0.5 -0.3,0.7 -0.4,0.5 -0.5,0.5 -0.5,0.5 -0.5,0.4 -1.1,0.7 -1.2,0.3 -0.7,0.1 -2,0 -0.6,-0.1 z m 2.7,-2.5 0.6,-0.2 0.6,-0.2 0.6,-0.4 0.4,-0.5 0.4,-0.7 0.3,-0.6 0.2,-0.6 0.2,-0.7 0.1,-0.7 0,-0.6 0.1,-0.8 0.1,-0.6 0,-0.7 0,-0.8 0,-1.2 0.1,-0.9 -0.1,-2 -0.2,-1.3 -0.2,-0.7 -0.1,-0.6 -0.5,-1.2 -0.3,-0.6 -0.4,-0.5 -0.5,-0.5 -0.9,-0.7 -0.6,-0.1 -0.9,0 -1,0.1 -1.2,0.3 -0.6,0.6 -0.6,0.8 -0.6,1.1 -0.1,0.7 -0.2,0.7 -0.2,1.3 0,0.7 -0.1,0.6 -0.1,1.4 0.1,2 0,1.3 0,0.8 0.1,0.6 0.5,2.1 0.2,0.7 0.2,0.5 0.4,0.6 0.4,0.6 0.6,0.5 0.5,0.3 0.7,0.2 2,-0.1 z" />
    <path
       id="path178"
       d="m 777.7,99.9 -0.6,-0.1 -0.6,-0.2 -0.7,-0.1 -0.6,-0.1 -0.6,-0.3 -1.2,-0.5 -0.4,-0.6 -0.6,-0.4 -0.3,-0.6 0.1,-0.9 0.3,-0.5 0.5,-0.3 0.7,0.1 0.6,0.3 1.9,1.1 1.3,0.3 1.7,0.2 1,-0.1 0.6,-0.2 0.6,-0.3 0.5,-0.5 0.6,-1 0.1,-0.7 0,-1 -0.1,-1.2 -0.2,-0.6 -0.4,-0.7 -0.5,-0.5 -0.9,-0.7 -0.9,-0.5 -0.5,-0.3 -1.1,-0.4 -0.9,-0.4 -1.2,-0.7 -1.7,-1.2 -1.2,-1.5 -0.3,-0.7 -0.2,-0.6 -0.1,-0.6 -0.1,-2 0.1,-0.7 0.1,-0.6 0.3,-0.6 0.3,-0.7 1,-0.9 0.5,-0.2 0.5,-0.4 2.3,-0.5 0.7,0 1.7,0 0.6,0.1 1.3,0.4 0.6,0.1 0.6,0.3 0.6,0.3 0.4,0.7 0,0.8 -0.2,0.5 -0.5,0.4 -0.7,-0.1 -0.7,-0.2 -1,-0.4 -1,-0.2 -0.7,-0.2 -2.1,0.1 -0.6,0.3 -0.6,0.5 -0.3,0.4 -0.1,0.6 -0.1,1 0,1.1 0.2,0.5 0.4,0.6 0.5,0.5 0.4,0.2 0.6,0.5 0.6,0.3 0.9,0.5 3.1,1.6 1,0.8 0.4,0.4 0.9,1.1 0.5,1.2 0.2,0.6 0.1,0.7 0,2 -0.1,0.6 -0.4,1.3 -0.3,0.6 -0.8,1.2 -0.5,0.5 -1.8,0.9 -0.7,0.2 -0.6,0.1 -1,0 -1,0 -0.2,0.2 z" />
  </g>
  <g
     transform="translate(-269.4,-65.5)"
     id="g180">
    <g
       id="g182">
      <path
         style="fill:#ffffff"
         id="path184"
         d="m 459.5,764.7 0,1.5 -4.4,0 0,15.3 -1.7,0 0,-15.3 -4.4,0 0,-1.5 10.5,0 z" />
      <path
         style="fill:#ffffff"
         id="path186"
         d="m 461.6,764.7 1.7,0 0,16.8 -1.7,0 0,-16.8 z" />
      <path
         style="fill:#ffffff"
         id="path188"
         d="m 466.6,781.5 0,-16.8 4.8,0 c 3.4,0 5,0.9 5,4.3 0,2 -0.8,3.2 -1.8,3.7 1.4,0.5 2.4,1.8 2.4,4.1 0,3.5 -1.8,4.7 -5.4,4.7 l -5,0 z m 1.6,-15.3 0,5.9 2.8,0 c 2.4,0 3.6,-0.5 3.6,-3.1 0,-2.3 -0.9,-2.8 -3.6,-2.8 l -2.8,0 z m 2.8,13.9 c 3,0 4.1,-0.6 4.1,-3.3 0,-2.6 -1.2,-3.2 -4,-3.2 l -2.9,0 0,6.5 2.8,0 z" />
      <path
         style="fill:#ffffff"
         id="path190"
         d="m 488,774.9 0,-10.1 1.6,0 0,10.8 c 0,4.9 -1.6,6.2 -5.3,6.2 -3.6,0 -5.2,-1.4 -5.2,-6.2 l 0,-10.8 1.6,0 0,10.1 c 0,4.4 0.6,5.4 3.6,5.4 3.1,0 3.7,-1 3.7,-5.4 z" />
      <path
         style="fill:#ffffff"
         id="path192"
         d="m 502.7,769.5 c 0,3.1 -1.2,4.5 -3.9,4.8 l 3.8,7.2 -1.8,0 -3.7,-7.2 -2.8,0 0,7.2 -1.7,0 0,-16.8 4.7,0 c 3.7,0 5.4,1.2 5.4,4.8 z m -8.3,-3.3 0,6.7 2.8,0 c 2.7,0 4,-0.3 4,-3.4 0,-2.8 -1.2,-3.3 -3.9,-3.3 l -2.9,0 z" />
      <path
         style="fill:#ffffff"
         id="path194"
         d="m 510.7,764.5 c 4.2,0 6.1,2.6 6.1,8.6 0,6 -1.9,8.6 -6.1,8.6 -4.2,0 -6.1,-2.6 -6.1,-8.6 0,-6 1.9,-8.6 6.1,-8.6 z m 0,15.8 c 2.8,0 4.4,-1.6 4.4,-7.1 0,-5.5 -1.7,-7.1 -4.4,-7.1 -2.7,0 -4.4,1.6 -4.4,7.1 0,5.5 1.7,7.1 4.4,7.1 z m 0.4,-21 2.1,0 -2.1,3.9 -1.1,0 1.1,-3.9 z" />
      <path
         style="fill:#ffffff"
         id="path196"
         d="m 519.4,781.5 0,-16.8 1.6,0 7.2,13.3 0,-13.3 1.7,0 0,16.8 -1.6,0 -7.2,-13.2 0,13.2 -1.7,0 z" />
      <path
         style="fill:#ffffff"
         id="path198"
         d="m 464.6,788.7 1.7,0 0,15.3 6.4,0 0,1.5 -8,0 0,-16.8 z" />
      <path
         style="fill:#ffffff"
         id="path200"
         d="m 483.4,798.9 0,-10.1 1.6,0 0,10.8 c 0,4.9 -1.6,6.2 -5.3,6.2 -3.6,0 -5.2,-1.4 -5.2,-6.2 l 0,-10.8 1.6,0 0,10.1 c 0,4.4 0.6,5.4 3.6,5.4 3,0 3.7,-1 3.7,-5.4 z" />
      <path
         style="fill:#ffffff"
         id="path202"
         d="m 497.5,804.7 c 0,0 -1.5,1.1 -4,1.1 -4.2,0 -6.1,-2.5 -6.1,-8.6 0,-6.1 2,-8.6 6.1,-8.6 2.1,0 3.5,0.9 3.7,1 -0.7,1.3 -0.7,1.3 -0.7,1.3 -0.2,-0.1 -1.4,-0.9 -3,-0.9 -2.7,0 -4.5,1.5 -4.5,7.1 0,5.6 1.8,7.1 4.5,7.1 1.8,0 3.2,-0.9 3.2,-0.9 l 0.8,1.4 z" />
      <path
         style="fill:#ffffff"
         id="path204"
         d="m 499.8,788.7 1.7,0 0,16.8 -1.7,0 0,-16.8 z" />
      <path
         style="fill:#ffffff"
         id="path206"
         d="m 510.1,788.5 c 4.2,0 6.1,2.6 6.1,8.6 0,6 -1.9,8.6 -6.1,8.6 -4.2,0 -6.1,-2.6 -6.1,-8.6 0.1,-6 1.9,-8.6 6.1,-8.6 z m 0,15.8 c 2.8,0 4.4,-1.6 4.4,-7.1 0,-5.5 -1.7,-7.1 -4.4,-7.1 -2.7,0 -4.4,1.6 -4.4,7.1 0,5.5 1.7,7.1 4.4,7.1 z" />
      <path
         style="fill:#ffffff"
         id="path208"
         d="m 438.7,812.7 c 4.1,0 5.5,1.3 5.5,5.2 0,4 -1.6,5.2 -5.5,5.2 l -2.9,0 0,6.4 -1.7,0 0,-16.8 4.6,0 z m -2.9,1.5 0,7.4 2.6,0 c 3.2,0 4.2,-0.5 4.2,-3.7 0,-3 -0.8,-3.7 -4,-3.7 l -2.8,0 z" />
      <path
         style="fill:#ffffff"
         id="path210"
         d="m 446.7,812.7 8.3,0 0,1.5 -6.6,0 0,5.9 6.6,0 0,1.5 -6.6,0 0,6.5 6.8,0 0,1.5 -8.5,0 0,-16.9 z" />
      <path
         style="fill:#ffffff"
         id="path212"
         d="m 457.5,812.7 10.2,0 0,1.5 -8.8,13.8 8.6,0 0,1.5 -10.5,0 0,-1.5 8.8,-13.8 -8.3,0 0,-1.5 z" />
      <path
         style="fill:#ffffff"
         id="path214"
         d="m 474.6,812.7 8.3,0 0,1.5 -6.6,0 0,5.9 6.6,0 0,1.5 -6.6,0 0,6.5 6.8,0 0,1.5 -8.5,0 0,-16.9 z" />
      <path
         style="fill:#ffffff"
         id="path216"
         d="m 485.8,827.1 c 0.6,0.4 2,1.2 3.7,1.2 2.5,0 3.5,-1.5 3.5,-3 0,-1.5 -1.6,-2.5 -3.4,-3.6 -2.3,-1.4 -4.2,-2.7 -4.2,-5 0,-2.6 2.1,-4.1 4.6,-4.1 2.4,0 4,1 4.2,1.1 l -0.6,1.4 c 0,0 -1.7,-1 -3.4,-1 -1.8,0 -3,1 -3,2.6 0,1.5 1.7,2.6 3.4,3.7 2.3,1.4 4.2,2.9 4.2,4.9 0,2.5 -1.8,4.5 -5.1,4.5 -2,0 -3.6,-0.9 -4.3,-1.3 l 0.4,-1.4 z" />
      <path
         style="fill:#ffffff"
         id="path218"
         d="m 501.8,812.7 c 4.1,0 5.5,1.3 5.5,5.2 0,4 -1.6,5.2 -5.5,5.2 l -2.9,0 0,6.4 -1.7,0 0,-16.8 4.6,0 z m -3,1.5 0,7.4 2.6,0 c 3.2,0 4.2,-0.5 4.2,-3.7 0,-3 -0.8,-3.7 -4,-3.7 l -2.8,0 z" />
      <path
         style="fill:#ffffff"
         id="path220"
         d="m 517.8,825.3 -6.3,0 -1.2,4.2 -1.7,0 4.9,-16.8 2.4,0 4.9,16.8 -1.8,0 -1.2,-4.2 z m -5.9,-1.4 5.5,0 -2.7,-9.5 -2.8,9.5 z" />
      <path
         style="fill:#ffffff"
         id="path222"
         d="m 522.8,829.5 0,-16.8 4.8,0 c 4.2,0 6.2,2.3 6.2,8.4 0,6.1 -1.9,8.4 -6.2,8.4 l -4.8,0 z m 4.8,-1.4 c 2.7,0 4.5,-1.3 4.5,-6.9 0,-5.7 -1.8,-6.9 -4.5,-6.9 l -3.1,0 0,13.8 3.1,0 z" />
      <path
         style="fill:#ffffff"
         id="path224"
         d="m 544.3,825.3 -6.3,0 -1.2,4.2 -1.7,0 4.9,-16.8 2.4,0 4.9,16.8 -1.7,0 -1.3,-4.2 z m -5.9,-1.4 5.5,0 -2.7,-9.5 -2.8,9.5 z" />
      <path
         style="fill:#ffffff"
         id="path226"
         d="m 449.6,849.3 -6.3,0 -1.2,4.2 -1.7,0 4.9,-16.8 2.4,0 4.9,16.8 -1.7,0 -1.3,-4.2 z m -5.9,-1.4 5.5,0 -2.7,-9.5 -2.8,9.5 z" />
      <path
         style="fill:#ffffff"
         id="path228"
         d="m 454.5,836.7 1.7,0 0,15.3 6.4,0 0,1.5 -8,0 0,-16.8 z" />
      <path
         style="fill:#ffffff"
         id="path230"
         d="m 464.7,853.5 0,-16.8 4.8,0 c 3.4,0 5,0.9 5,4.3 0,2 -0.8,3.2 -1.8,3.7 1.4,0.5 2.4,1.8 2.4,4.1 0,3.5 -1.8,4.7 -5.4,4.7 l -5,0 z m 1.6,-15.3 0,5.9 2.8,0 c 2.4,0 3.6,-0.5 3.6,-3.1 0,-2.3 -0.9,-2.8 -3.6,-2.8 l -2.8,0 z m 2.9,13.9 c 3,0 4.1,-0.6 4.1,-3.3 0,-2.6 -1.2,-3.2 -4,-3.2 l -2.9,0 0,6.5 2.8,0 z" />
      <path
         style="fill:#ffffff"
         id="path232"
         d="m 485.5,849.3 -6.3,0 -1.2,4.2 -1.7,0 4.9,-16.8 2.4,0 4.9,16.8 -1.7,0 -1.3,-4.2 z m -6,-1.4 5.5,0 -2.7,-9.5 -2.8,9.5 z" />
      <path
         style="fill:#ffffff"
         id="path234"
         d="m 499.9,852.7 c 0,0 -1.5,1.1 -4,1.1 -4.2,0 -6.1,-2.5 -6.1,-8.6 0,-6.1 2,-8.6 6.1,-8.6 2.1,0 3.5,0.9 3.7,1 -0.7,1.3 -0.7,1.3 -0.7,1.3 -0.2,-0.1 -1.4,-0.9 -3,-0.9 -2.7,0 -4.5,1.5 -4.5,7.1 0,5.6 1.8,7.1 4.5,7.1 1.8,0 3.2,-0.9 3.2,-0.9 l 0.8,1.4 z" />
      <path
         style="fill:#ffffff"
         id="path236"
         d="m 507.6,836.5 c 4.2,0 6.1,2.6 6.1,8.6 0,6 -1.9,8.6 -6.1,8.6 -4.2,0 -6.1,-2.6 -6.1,-8.6 0,-6 1.9,-8.6 6.1,-8.6 z m 0,15.8 c 2.8,0 4.4,-1.6 4.4,-7.1 0,-5.5 -1.7,-7.1 -4.4,-7.1 -2.7,0 -4.4,1.6 -4.4,7.1 0,5.5 1.6,7.1 4.4,7.1 z" />
      <path
         style="fill:#ffffff"
         id="path238"
         d="m 526.3,841.5 c 0,3.1 -1.2,4.5 -3.9,4.8 l 3.8,7.2 -1.8,0 -3.7,-7.2 -2.8,0 0,7.2 -1.7,0 0,-16.8 4.7,0 c 3.7,0 5.4,1.2 5.4,4.8 z m -8.4,-3.3 0,6.7 2.8,0 c 2.7,0 4,-0.3 4,-3.4 0,-2.8 -1.2,-3.3 -3.9,-3.3 l -2.9,0 z" />
      <path
         style="fill:#ffffff"
         id="path240"
         d="m 536.9,849.3 -6.3,0 -1.2,4.2 -1.7,0 4.9,-16.8 2.4,0 4.9,16.8 -1.7,0 -1.3,-4.2 z m -5.9,-1.4 5.5,0 -2.7,-9.5 -2.8,9.5 z" />
      <path
         style="fill:#ffffff"
         id="path242"
         d="m 445.1,865.5 c 0,3.1 -1.2,4.5 -3.9,4.8 l 3.8,7.2 -1.8,0 -3.7,-7.2 -2.8,0 0,7.2 -1.7,0 0,-16.8 4.7,0 c 3.7,0 5.4,1.2 5.4,4.8 z m -8.4,-3.3 0,6.7 2.8,0 c 2.7,0 4,-0.3 4,-3.4 0,-2.8 -1.2,-3.3 -3.9,-3.3 l -2.9,0 z" />
      <path
         style="fill:#ffffff"
         id="path244"
         d="m 453.1,860.5 c 4.2,0 6.1,2.6 6.1,8.6 0,6 -1.9,8.6 -6.1,8.6 -4.2,0 -6.1,-2.6 -6.1,-8.6 0,-6 1.9,-8.6 6.1,-8.6 z m 0,15.8 c 2.8,0 4.4,-1.6 4.4,-7.1 0,-5.5 -1.7,-7.1 -4.4,-7.1 -2.7,0 -4.4,1.6 -4.4,7.1 0,5.5 1.6,7.1 4.4,7.1 z" />
      <path
         style="fill:#ffffff"
         id="path246"
         d="m 461.7,877.5 0,-16.8 4.8,0 c 4.2,0 6.2,2.3 6.2,8.4 0,6.1 -1.9,8.4 -6.2,8.4 l -4.8,0 z m 4.8,-1.4 c 2.7,0 4.5,-1.3 4.5,-6.9 0,-5.7 -1.8,-6.9 -4.5,-6.9 l -3.1,0 0,13.8 3.1,0 z" />
      <path
         style="fill:#ffffff"
         id="path248"
         d="m 483.3,873.3 -6.3,0 -1.2,4.2 -1.7,0 4.9,-16.8 2.4,0 4.9,16.8 -1.7,0 -1.3,-4.2 z m -5.9,-1.4 5.5,0 -2.7,-9.5 -2.8,9.5 z" />
      <path
         style="fill:#ffffff"
         id="path250"
         d="m 488.3,877.5 0,-16.8 4.8,0 c 3.4,0 5,0.9 5,4.3 0,2 -0.8,3.2 -1.8,3.7 1.4,0.5 2.4,1.8 2.4,4.1 0,3.5 -1.8,4.7 -5.4,4.7 l -5,0 z m 1.6,-15.3 0,5.9 2.8,0 c 2.4,0 3.6,-0.5 3.6,-3.1 0,-2.3 -0.9,-2.8 -3.6,-2.8 l -2.8,0 z m 2.9,13.9 c 3,0 4.1,-0.6 4.1,-3.3 0,-2.6 -1.2,-3.2 -4,-3.2 l -2.9,0 0,6.5 2.8,0 z" />
      <path
         style="fill:#ffffff"
         id="path252"
         d="m 509.1,873.3 -6.3,0 -1.2,4.2 -1.7,0 4.9,-16.8 2.4,0 4.9,16.8 -1.7,0 -1.3,-4.2 z m -6,-1.4 5.5,0 -2.7,-9.5 -2.8,9.5 z" />
      <path
         style="fill:#ffffff"
         id="path254"
         d="m 514,860.7 1.7,0 0,15.3 6.4,0 0,1.5 -8,0 0,-16.8 z" />
      <path
         style="fill:#ffffff"
         id="path256"
         d="m 524.1,860.7 1.7,0 0,15.3 6.4,0 0,1.5 -8,0 0,-16.8 z" />
      <path
         style="fill:#ffffff"
         id="path258"
         d="m 539.7,860.5 c 4.2,0 6.1,2.6 6.1,8.6 0,6 -1.9,8.6 -6.1,8.6 -4.2,0 -6.1,-2.6 -6.1,-8.6 0,-6 1.9,-8.6 6.1,-8.6 z m 0,15.8 c 2.8,0 4.4,-1.6 4.4,-7.1 0,-5.5 -1.7,-7.1 -4.4,-7.1 -2.7,0 -4.4,1.6 -4.4,7.1 0,5.5 1.6,7.1 4.4,7.1 z" />
    </g>
  </g>
  <g
     transform="translate(-269.4,-65.5)"
     id="g260">
    <g
       id="g262">
      <path
         style="fill:#ffffff"
         id="path264"
         d="m 740.3,811.3 -6.3,0 -1.2,4.2 -1.7,0 4.9,-16.8 2.4,0 4.9,16.8 -1.7,0 -1.3,-4.2 z m -5.9,-1.5 5.5,0 -2.7,-9.5 -2.8,9.5 z" />
      <path
         style="fill:#ffffff"
         id="path266"
         d="m 754.5,798.7 0,1.5 -4.4,0 0,15.3 -1.7,0 0,-15.3 -4.4,0 0,-1.5 10.5,0 z" />
      <path
         style="fill:#ffffff"
         id="path268"
         d="m 765.3,808.8 0,-10.1 1.6,0 0,10.8 c 0,4.9 -1.6,6.2 -5.3,6.2 -3.6,0 -5.2,-1.4 -5.2,-6.2 l 0,-10.8 1.6,0 0,10.1 c 0,4.4 0.6,5.4 3.6,5.4 3.1,0 3.7,-1 3.7,-5.4 z m -3.5,-15.6 2.1,0 -2.1,3.9 -1.1,0 1.1,-3.9 z" />
      <path
         style="fill:#ffffff"
         id="path270"
         d="m 770,815.5 0,-16.8 1.6,0 7.2,13.3 0,-13.3 1.7,0 0,16.8 -1.6,0 -7.2,-13.2 0,13.2 -1.7,0 z" />
      <path
         style="fill:#ffffff"
         id="path272"
         d="m 729.3,822.7 0,1.5 -4.3,0 0,15.3 -1.7,0 0,-15.3 -4.4,0 0,-1.5 10.4,0 z" />
      <path
         style="fill:#ffffff"
         id="path274"
         d="m 741.5,827.5 c 0,3.1 -1.2,4.5 -3.9,4.8 l 3.8,7.2 -1.8,0 -3.7,-7.2 -2.8,0 0,7.2 -1.7,0 0,-16.8 4.7,0 c 3.7,0 5.4,1.1 5.4,4.8 z m -8.4,-3.3 0,6.7 2.8,0 c 2.7,0 4,-0.3 4,-3.4 0,-2.8 -1.2,-3.3 -3.9,-3.3 l -2.9,0 z" />
      <path
         style="fill:#ffffff"
         id="path276"
         d="m 752.7,832.8 0,-10.1 1.6,0 0,10.8 c 0,4.9 -1.6,6.2 -5.3,6.2 -3.6,0 -5.2,-1.4 -5.2,-6.2 l 0,-10.8 1.6,0 0,10.1 c 0,4.4 0.6,5.4 3.6,5.4 3.1,0 3.7,-1 3.7,-5.4 z" />
      <path
         style="fill:#ffffff"
         id="path278"
         d="m 766.9,838.6 c 0,0 -1.5,1.1 -4,1.1 -4.2,0 -6.1,-2.5 -6.1,-8.6 0,-6.1 2,-8.6 6.1,-8.6 2.1,0 3.5,0.9 3.7,1 -0.7,1.3 -0.7,1.3 -0.7,1.3 -0.2,-0.1 -1.4,-0.9 -3,-0.9 -2.7,0 -4.5,1.5 -4.5,7.1 0,5.6 1.8,7.1 4.5,7.1 1.8,0 3.2,-0.9 3.2,-0.9 l 0.8,1.4 z" />
      <path
         style="fill:#ffffff"
         id="path280"
         d="m 778,831.5 -7.1,0 0,7.9 -1.7,0 0,-16.8 1.7,0 0,7.4 7.1,0 0,-7.4 1.7,0 0,16.8 -1.7,0 0,-7.9 z" />
      <path
         style="fill:#ffffff"
         id="path282"
         d="m 790.9,835.3 -6.3,0 -1.2,4.2 -1.7,0 4.9,-16.8 2.4,0 4.9,16.8 -1.7,0 -1.3,-4.2 z m -5.9,-1.5 5.5,0 -2.7,-9.5 -2.8,9.5 z" />
    </g>
  </g>
  <g
     transform="translate(-269.4,-65.5)"
     id="g284">
    <g
       id="g286">
      <path
         id="path288"
         d="m 908.4,926.8 c 0.6,0.4 2,1.2 3.7,1.2 2.5,0 3.5,-1.5 3.5,-3 0,-1.5 -1.6,-2.5 -3.4,-3.6 -2.3,-1.4 -4.2,-2.7 -4.2,-5 0,-2.6 2.1,-4.1 4.6,-4.1 2.4,0 4,1 4.2,1.1 l -0.6,1.4 c 0,0 -1.7,-1 -3.4,-1 -1.8,0 -3,1 -3,2.6 0,1.5 1.7,2.6 3.4,3.7 2.3,1.4 4.2,2.9 4.2,4.9 0,2.5 -1.8,4.5 -5.1,4.5 -2,0 -3.6,-0.9 -4.3,-1.3 l 0.4,-1.4 z" />
      <path
         id="path290"
         d="m 927.8,925.1 -6.3,0 -1.2,4.2 -1.7,0 4.9,-16.8 2.4,0 4.9,16.8 -1.8,0 -1.2,-4.2 z m -5.9,-1.5 5.5,0 -2.7,-9.5 -2.8,9.5 z" />
      <path
         id="path292"
         d="m 932.7,912.5 1.7,0 0,15.3 6.4,0 0,1.5 -8,0 0,-16.8 z" />
      <path
         id="path294"
         d="m 949.1,923.7 -0.5,0 -4.1,-7.6 0,13.2 -1.7,0 0,-16.8 1.5,0 4.5,8.3 4.5,-8.3 1.5,0 0,16.8 -1.6,0 0,-13.2 -4.1,7.6 z" />
      <path
         id="path296"
         d="m 963.5,912.3 c 4.2,0 6.1,2.6 6.1,8.6 0,6 -1.9,8.6 -6.1,8.6 -4.2,0 -6.1,-2.6 -6.1,-8.6 0,-6.1 1.9,-8.6 6.1,-8.6 z m 0,15.7 c 2.8,0 4.4,-1.6 4.4,-7.1 0,-5.5 -1.7,-7.1 -4.4,-7.1 -2.7,0 -4.4,1.6 -4.4,7.1 0,5.5 1.6,7.1 4.4,7.1 z m 0.4,-21 2.1,0 -2.1,3.9 -1.1,0 1.1,-3.9 z" />
      <path
         id="path298"
         d="m 972.2,929.3 0,-16.8 1.6,0 7.2,13.3 0,-13.3 1.7,0 0,16.8 -1.6,0 -7.2,-13.2 0,13.2 -1.7,0 z" />
      <path
         id="path300"
         d="m 912.3,949.1 -6.3,0 -1.2,4.2 -1.8,0 4.9,-16.8 2.4,0 4.9,16.8 -1.7,0 -1.2,-4.2 z m -6,-1.5 5.5,0 -2.7,-9.5 -2.8,9.5 z" />
      <path
         id="path302"
         d="m 917.2,953.3 0,-16.8 4.8,0 c 3.4,0 5,0.9 5,4.3 0,2 -0.8,3.2 -1.8,3.7 1.4,0.5 2.4,1.8 2.4,4.1 0,3.5 -1.8,4.7 -5.4,4.7 l -5,0 z m 1.7,-15.3 0,5.9 2.8,0 c 2.4,0 3.6,-0.5 3.6,-3.1 0,-2.3 -0.9,-2.8 -3.6,-2.8 l -2.8,0 z m 2.8,13.8 c 3,0 4.1,-0.6 4.1,-3.3 0,-2.6 -1.2,-3.2 -4,-3.2 l -2.9,0 0,6.5 2.8,0 z" />
      <path
         id="path304"
         d="m 938,949.1 -6.3,0 -1.2,4.2 -1.7,0 4.9,-16.8 2.4,0 4.9,16.8 -1.7,0 -1.3,-4.2 z m -5.9,-1.5 5.5,0 -2.7,-9.5 -2.8,9.5 z" />
      <path
         id="path306"
         d="m 943,953.3 0,-16.8 4.8,0 c 4.2,0 6.2,2.3 6.2,8.4 0,6.1 -1.9,8.4 -6.2,8.4 l -4.8,0 z m 4.8,-1.5 c 2.7,0 4.5,-1.3 4.5,-6.9 0,-5.7 -1.8,-6.9 -4.5,-6.9 l -3.1,0 0,13.8 3.1,0 z" />
      <path
         id="path308"
         d="m 956.5,936.5 8.3,0 0,1.5 -6.6,0 0,5.9 6.6,0 0,1.5 -6.6,0 0,6.5 6.8,0 0,1.5 -8.5,0 0,-16.9 z" />
      <path
         id="path310"
         d="m 971.3,936.5 1.7,0 0,12.5 c 0,2.2 -1,4.5 -3.9,4.5 -1.4,0 -2.6,-0.6 -2.6,-0.6 l 0.5,-1.5 c 0,0 1.2,0.5 2.2,0.5 1.5,0 2.3,-1 2.3,-3.3 l 0,-12.1 z" />
      <path
         id="path312"
         d="m 981.5,936.3 c 4.2,0 6.1,2.6 6.1,8.6 0,6 -1.9,8.6 -6.1,8.6 -4.2,0 -6.1,-2.6 -6.1,-8.6 0,-6.1 1.9,-8.6 6.1,-8.6 z m 0,15.7 c 2.8,0 4.4,-1.6 4.4,-7.1 0,-5.5 -1.7,-7.1 -4.4,-7.1 -2.7,0 -4.4,1.6 -4.4,7.1 0,5.5 1.6,7.1 4.4,7.1 z" />
      <path
         id="path314"
         d="m 921.4,960.3 c 4.2,0 6.1,2.6 6.1,8.6 0,6 -1.9,8.6 -6.1,8.6 -4.2,0 -6.1,-2.6 -6.1,-8.6 0.1,-6.1 1.9,-8.6 6.1,-8.6 z m 0,15.7 c 2.8,0 4.4,-1.6 4.4,-7.1 0,-5.5 -1.7,-7.1 -4.4,-7.1 -2.7,0 -4.4,1.6 -4.4,7.1 0,5.5 1.7,7.1 4.4,7.1 z" />
      <path
         id="path316"
         d="m 930,974.8 c 0.6,0.4 2,1.2 3.7,1.2 2.5,0 3.5,-1.5 3.5,-3 0,-1.5 -1.6,-2.5 -3.4,-3.6 -2.3,-1.4 -4.2,-2.7 -4.2,-5 0,-2.6 2.1,-4.1 4.6,-4.1 2.4,0 4,1 4.2,1.1 l -0.6,1.4 c 0,0 -1.7,-1 -3.4,-1 -1.8,0 -3,1 -3,2.6 0,1.5 1.7,2.6 3.4,3.7 2.3,1.4 4.2,2.9 4.2,4.9 0,2.5 -1.8,4.5 -5.1,4.5 -2,0 -3.6,-0.9 -4.3,-1.3 l 0.4,-1.4 z" />
      <path
         id="path318"
         d="m 950.6,960.5 0,1.5 -4.4,0 0,15.3 -1.7,0 0,-15.3 -4.4,0 0,-1.5 10.5,0 z" />
      <path
         id="path320"
         d="m 962.8,965.3 c 0,3.1 -1.2,4.5 -3.9,4.8 l 3.8,7.2 -1.8,0 -3.7,-7.2 -2.8,0 0,7.2 -1.7,0 0,-16.8 4.7,0 c 3.7,0 5.4,1.1 5.4,4.8 z m -8.4,-3.3 0,6.7 2.8,0 c 2.7,0 4,-0.3 4,-3.4 0,-2.8 -1.2,-3.3 -3.9,-3.3 l -2.9,0 z" />
      <path
         id="path322"
         d="m 973.4,973.1 -6.3,0 -1.2,4.2 -1.7,0 4.9,-16.8 2.4,0 4.9,16.8 -1.7,0 -1.3,-4.2 z m -5.9,-1.5 5.5,0 -2.7,-9.5 -2.8,9.5 z" />
    </g>
  </g>
  <g
     transform="translate(-269.4,-65.5)"
     id="g356">
    <g
       id="g358">
      <path
         id="path360"
         d="m 455.9,267 c 6.2,0 8.2,2 8.2,7.8 0,6 -2.4,7.8 -8.3,7.8 l -4.3,0 0,9.6 -2.5,0 0,-25.2 6.9,0 z m -4.3,2.3 0,11.2 3.9,0 c 4.8,0 6.2,-0.7 6.2,-5.6 0,-4.5 -1.2,-5.6 -5.9,-5.6 l -4.2,0 z" />
      <path
         id="path362"
         d="m 474.9,292.3 c -0.5,0.1 -1,0.2 -1.7,0.2 -3.5,0 -5.5,-2.1 -5.5,-6.5 l 0,-19 2.4,0 0,18.5 c 0,3.5 1,4.9 3.1,4.9 0.4,0 0.8,0 1.2,-0.1 l 0.5,2 z" />
      <path
         id="path364"
         d="m 484,281.6 2.3,0 0,-2.5 c 0,-1.9 -0.9,-3.1 -3.2,-3.1 -2.6,0 -4.8,1.1 -4.8,1.1 l -0.6,-1.8 c 0,0 2.2,-1.3 5.4,-1.3 4.2,0 5.5,2 5.5,5.4 l 0,12.8 -1.8,0 -0.3,-1.3 c -1.2,0.8 -2.6,1.6 -5,1.6 -3.4,0 -5.2,-2.4 -5.2,-5.2 0,-2.8 2.3,-5.7 7.7,-5.7 z m 2.4,7.4 0,-5.4 -2.4,0 c -3.3,0 -5.1,1.7 -5.1,3.7 0,1.9 1.4,3.3 3.2,3.3 1.9,-0.1 3.6,-1 4.3,-1.6 z" />
      <path
         id="path366"
         d="m 504,279.8 c 0,-2.9 -1.2,-3.8 -3.4,-3.8 -2.3,0 -4.4,1.6 -5,2.1 l 0,14.1 -2.4,0 0,-18 1.8,0 0.5,1.8 c 1.4,-1 3.6,-2.1 5.7,-2.1 4,0 5.2,2.2 5.2,5.9 l 0,12.3 -2.4,0 0,-12.3 z" />
      <path
         id="path368"
         d="m 514,274.2 4.2,0 0,2.1 -4.2,0 0,9.3 c 0,3.5 1,4.9 3.1,4.9 0.5,0 1.3,-0.2 1.6,-0.3 l 0.5,1.9 c -0.4,0.1 -1.3,0.4 -2.1,0.4 -3.5,0 -5.5,-2.1 -5.5,-6.5 l 0,-9.7 -2.2,0 0,-2.1 2.2,0 0,-4.7 2.4,0 0,4.7 z" />
      <path
         id="path370"
         d="m 528.9,281.6 2.3,0 0,-2.5 c 0,-1.9 -0.9,-3.1 -3.2,-3.1 -2.6,0 -4.8,1.1 -4.8,1.1 l -0.6,-1.8 c 0,0 2.2,-1.3 5.4,-1.3 4.2,0 5.5,2 5.5,5.4 l 0,12.8 -1.8,0 -0.3,-1.3 c -1.2,0.8 -2.6,1.6 -5,1.6 -3.4,0 -5.2,-2.4 -5.2,-5.2 0,-2.8 2.2,-5.7 7.7,-5.7 z m 2.4,7.4 0,-5.4 -2.4,0 c -3.3,0 -5.1,1.7 -5.1,3.7 0,1.9 1.4,3.3 3.2,3.3 1.9,-0.1 3.6,-1 4.3,-1.6 z" />
      <path
         id="path372"
         d="m 555.5,267 2.4,0 0,25.2 -1.9,0 -0.4,-1.5 c -0.8,0.9 -2.3,1.8 -4.3,1.8 -3.9,0 -7,-2.3 -7,-9.3 0,-7 3.1,-9.3 6.9,-9.3 2.1,0 3.7,1.1 4.2,1.7 l 0,-8.6 z m -3.9,23.5 c 1.7,0 3.1,-0.9 3.9,-2.2 l 0,-10.2 c -0.5,-0.9 -1.8,-2.2 -3.9,-2.2 -3.8,0 -4.9,2.9 -4.9,7.3 0,4.4 1.1,7.3 4.9,7.3 z" />
      <path
         id="path374"
         d="m 564.1,283.8 c 0.1,4 1.1,6.7 4.8,6.7 2.8,0 4.4,-1.2 4.4,-1.2 l 0.9,1.8 c 0,0 -2.1,1.4 -5.3,1.4 -4.2,0 -7.2,-2.2 -7.2,-9.3 0,-7.1 3,-9.3 6.8,-9.3 5.1,0 6.4,3.6 6.4,9.8 l -10.8,0 z m 0,-1.9 8.4,0 c -0.1,-4.1 -1.3,-5.9 -4,-5.9 -3.1,0 -4.2,2.3 -4.4,5.9 z" />
      <path
         id="path376"
         d="m 477.7,327.6 c -0.3,0.1 -1.9,0.9 -3.8,0.9 -4.2,0 -7.2,-2.2 -7.2,-9.3 0,-7.1 3,-9.3 7.2,-9.3 1.4,0 2.8,0.4 3.7,0.9 l -0.9,1.8 c -0.1,0 -1.3,-0.7 -2.9,-0.7 -3.9,0 -4.8,2.8 -4.8,7.2 0,4.4 0.9,7.2 4.8,7.2 1.7,0 3.1,-0.7 3.1,-0.7 l 0.8,2 z" />
      <path
         id="path378"
         d="m 488.1,317.6 2.3,0 0,-2.5 c 0,-1.9 -0.9,-3.1 -3.2,-3.1 -2.6,0 -4.8,1.1 -4.8,1.1 l -0.6,-1.8 c 0,0 2.2,-1.3 5.4,-1.3 4.2,0 5.5,2 5.5,5.4 l 0,12.8 -1.7,0 -0.3,-1.3 c -1.2,0.8 -2.6,1.6 -5,1.6 -3.4,0 -5.2,-2.4 -5.2,-5.2 0,-2.8 2.1,-5.7 7.6,-5.7 z m 2.3,7.4 0,-5.4 -2.4,0 c -3.3,0 -5.1,1.7 -5.1,3.7 0,1.9 1.4,3.3 3.2,3.3 1.9,-0.1 3.6,-1 4.3,-1.6 z" />
      <path
         id="path380"
         d="m 504.9,312.2 c -0.3,-0.1 -0.7,-0.1 -1.2,-0.1 -2.4,0 -3.7,1.6 -4.1,2.1 l 0,14 -2.4,0 0,-18 1.8,0 0.5,1.8 c 1.1,-1.1 2.5,-2.1 4.5,-2.1 0.4,0 1,0 1.3,0.1 l -0.4,2.2 z" />
      <path
         id="path382"
         d="m 510.2,311.7 c 0.5,-0.5 2.1,-1.7 4.2,-1.7 3.8,0 6.9,2.3 6.9,9.3 0,7 -3,9.3 -7,9.3 -2,0 -3.5,-0.9 -4.2,-1.8 l -0.5,1.5 -1.8,0 0,-25.3 2.4,0 0,8.7 z m 3.8,0.3 c -2.1,0 -3.3,1.3 -3.9,2.2 l 0,10.2 c 0.7,1.3 2.2,2.2 3.9,2.2 3.8,0 4.9,-2.9 4.9,-7.2 0,-4.3 -1.1,-7.4 -4.9,-7.4 z" />
      <path
         id="path384"
         d="m 524.3,319.2 c 0,-7.1 3,-9.2 7.2,-9.2 4.2,0 7.1,2.2 7.1,9.2 0,7.1 -3,9.3 -7.1,9.3 -4.2,0 -7.2,-2.2 -7.2,-9.3 z m 11.9,0 c 0,-4.4 -0.9,-7.2 -4.8,-7.2 -3.9,0 -4.8,2.8 -4.8,7.2 0,4.4 0.9,7.2 4.8,7.2 3.9,0 4.8,-2.8 4.8,-7.2 z m -3.8,-17.2 3.1,0 -3.1,5.9 -1.7,0 1.7,-5.9 z" />
      <path
         id="path386"
         d="m 553.3,315.8 c 0,-2.9 -1.2,-3.8 -3.4,-3.8 -2.3,0 -4.4,1.6 -5,2.1 l 0,14.1 -2.4,0 0,-18 1.8,0 0.5,1.8 c 1.4,-1 3.6,-2.1 5.7,-2.1 4,0 5.2,2.2 5.2,5.9 l 0,12.3 -2.4,0 0,-12.3 z" />
    </g>
  </g>
  <g
     transform="translate(-269.4,-65.5)"
     id="g388">
    <g
       id="g390">
      <path
         id="path392"
         d="m 316.7,292.6 2.5,0 -7.3,25.2 -3.7,0 -7.3,-25.2 2.6,0 6.6,22.7 6.6,-22.7 z" />
      <path
         id="path394"
         d="m 321.1,308.8 c 0,-7.1 3,-9.2 7.2,-9.2 4.2,0 7.1,2.2 7.1,9.2 0,7.1 -3,9.3 -7.1,9.3 -4.3,0 -7.2,-2.2 -7.2,-9.3 z m 11.9,0 c 0,-4.4 -0.9,-7.2 -4.8,-7.2 -3.9,0 -4.8,2.8 -4.8,7.2 0,4.4 0.9,7.2 4.8,7.2 3.9,0 4.8,-2.8 4.8,-7.2 z" />
      <path
         id="path396"
         d="m 346.2,317.9 c -0.5,0.1 -1,0.2 -1.7,0.2 -3.5,0 -5.5,-2.1 -5.5,-6.5 l 0,-19 2.4,0 0,18.5 c 0,3.5 1,4.9 3.1,4.9 0.4,0 0.8,0 1.2,-0.1 l 0.5,2 z" />
      <path
         id="path398"
         d="m 358.8,317.2 c -0.3,0.1 -1.9,0.9 -3.8,0.9 -4.2,0 -7.2,-2.2 -7.2,-9.3 0,-7.1 3,-9.3 7.2,-9.3 1.4,0 2.8,0.4 3.7,0.9 l -0.9,1.8 c -0.1,0 -1.3,-0.7 -2.9,-0.7 -3.9,0 -4.8,2.8 -4.8,7.2 0,4.4 0.9,7.2 4.8,7.2 1.7,0 3.1,-0.7 3.1,-0.7 l 0.8,2 z" />
      <path
         id="path400"
         d="m 369.2,307.2 2.3,0 0,-2.5 c 0,-1.9 -0.9,-3.1 -3.2,-3.1 -2.6,0 -4.8,1.1 -4.8,1.1 l -0.6,-1.8 c 0,0 2.2,-1.3 5.4,-1.3 4.2,0 5.5,2 5.5,5.4 l 0,12.8 -1.8,0 -0.3,-1.3 c -1.2,0.8 -2.6,1.6 -5,1.6 -3.4,0 -5.2,-2.4 -5.2,-5.2 0,-2.8 2.2,-5.7 7.7,-5.7 z m 2.3,7.4 0,-5.4 -2.4,0 c -3.3,0 -5.1,1.7 -5.1,3.7 0,1.9 1.4,3.3 3.2,3.3 1.9,-0.1 3.6,-1 4.3,-1.6 z m -2.1,-23 3.1,0 -3.1,5.9 -1.7,0 1.7,-5.9 z" />
      <path
         id="path402"
         d="m 389.2,305.4 c 0,-2.9 -1.2,-3.8 -3.4,-3.8 -2.3,0 -4.4,1.6 -5,2.1 l 0,14.1 -2.4,0 0,-18 1.8,0 0.5,1.8 c 1.4,-1 3.6,-2.1 5.7,-2.1 4,0 5.2,2.2 5.2,5.9 l 0,12.3 -2.4,0 0,-12.3 z" />
    </g>
  </g>
  <g
     transform="translate(-269.4,-37.5)"
     id="g460">
    <g
       id="g462">
      <path
         style="fill:#545e6b"
         id="path464"
         d="m 368.6,1056.3 0,-16.8 1.6,0 7.2,13.3 0,-13.3 1.7,0 0,16.8 -1.6,0 -7.2,-13.2 0,13.2 -1.7,0 z" />
      <path
         style="fill:#545e6b"
         id="path466"
         d="m 382.3,1039.5 1.7,0 0,16.8 -1.7,0 0,-16.8 z" />
      <path
         style="fill:#545e6b"
         id="path468"
         d="m 396.3,1039.5 1.7,0 -4.8,16.8 -2.4,0 -4.8,-16.8 1.7,0 4.4,15.1 4.2,-15.1 z" />
      <path
         style="fill:#545e6b"
         id="path470"
         d="m 399.8,1039.5 8.3,0 0,1.5 -6.6,0 0,5.9 6.6,0 0,1.5 -6.6,0 0,6.5 6.8,0 0,1.5 -8.5,0 0,-16.9 z" />
      <path
         style="fill:#545e6b"
         id="path472"
         d="m 411.1,1039.5 1.7,0 0,15.3 6.4,0 0,1.5 -8,0 0,-16.8 z" />
      <path
         style="fill:#545e6b"
         id="path474"
         d="m 425.9,1056.3 0,-16.8 4.8,0 c 4.2,0 6.2,2.3 6.2,8.4 0,6.1 -1.9,8.4 -6.2,8.4 l -4.8,0 z m 4.8,-1.5 c 2.7,0 4.5,-1.3 4.5,-6.9 0,-5.7 -1.8,-6.9 -4.5,-6.9 l -3.1,0 0,13.8 3.1,0 z" />
      <path
         style="fill:#545e6b"
         id="path476"
         d="m 439.5,1039.5 8.3,0 0,1.5 -6.6,0 0,5.9 6.6,0 0,1.5 -6.6,0 0,6.5 6.8,0 0,1.5 -8.5,0 0,-16.9 z" />
      <path
         style="fill:#545e6b"
         id="path478"
         d="m 367.9,1074.7 -0.5,0 -4.1,-7.6 0,13.2 -1.7,0 0,-16.8 1.5,0 4.5,8.3 4.5,-8.3 1.5,0 0,16.8 -1.6,0 0,-13.3 -4.1,7.7 z" />
      <path
         style="fill:#545e6b"
         id="path480"
         d="m 376.9,1063.5 8.3,0 0,1.5 -6.6,0 0,5.9 6.6,0 0,1.5 -6.6,0 0,6.5 6.8,0 0,1.5 -8.5,0 0,-16.9 z" />
      <path
         style="fill:#545e6b"
         id="path482"
         d="m 398.3,1068.2 c 0,3.1 -1.2,4.5 -3.9,4.8 l 3.8,7.2 -1.8,0 -3.7,-7.2 -2.8,0 0,7.2 -1.7,0 0,-16.8 4.7,0 c 3.7,0.1 5.4,1.2 5.4,4.8 z m -8.4,-3.2 0,6.7 2.8,0 c 2.7,0 4,-0.3 4,-3.4 0,-2.8 -1.2,-3.3 -3.9,-3.3 l -2.9,0 z" />
      <path
         style="fill:#545e6b"
         id="path484"
         d="m 410.3,1079.4 c 0,0 -1.5,1.1 -4,1.1 -4.2,0 -6.1,-2.5 -6.1,-8.6 0,-6.1 2,-8.6 6.1,-8.6 2.1,0 3.5,0.9 3.7,1 -0.7,1.3 -0.7,1.3 -0.7,1.3 -0.2,-0.1 -1.4,-0.9 -3,-0.9 -2.7,0 -4.5,1.5 -4.5,7.1 0,5.6 1.8,7.1 4.5,7.1 1.8,0 3.2,-0.9 3.2,-0.9 l 0.8,1.4 z" />
      <path
         style="fill:#545e6b"
         id="path486"
         d="m 421.3,1073.6 0,-10.1 1.6,0 0,10.8 c 0,4.9 -1.6,6.2 -5.3,6.2 -3.6,0 -5.2,-1.4 -5.2,-6.2 l 0,-10.8 1.6,0 0,10.1 c 0,4.4 0.6,5.4 3.6,5.4 3,0 3.7,-1 3.7,-5.4 z" />
      <path
         style="fill:#545e6b"
         id="path488"
         d="m 436,1068.2 c 0,3.1 -1.2,4.5 -3.9,4.8 l 3.8,7.2 -1.8,0 -3.7,-7.2 -2.8,0 0,7.2 -1.6,0 0,-16.8 4.7,0 c 3.6,0.1 5.3,1.2 5.3,4.8 z m -8.4,-3.2 0,6.7 2.8,0 c 2.7,0 4,-0.3 4,-3.4 0,-2.8 -1.2,-3.3 -3.9,-3.3 l -2.9,0 z" />
      <path
         style="fill:#545e6b"
         id="path490"
         d="m 438.6,1063.5 1.7,0 0,16.8 -1.7,0 0,-16.8 z" />
      <path
         style="fill:#545e6b"
         id="path492"
         d="m 448.9,1063.3 c 4.2,0 6.1,2.6 6.1,8.6 0,6 -1.9,8.6 -6.1,8.6 -4.2,0 -6.1,-2.6 -6.1,-8.6 0,-6.1 1.9,-8.6 6.1,-8.6 z m 0,15.7 c 2.8,0 4.4,-1.6 4.4,-7.1 0,-5.5 -1.7,-7.1 -4.4,-7.1 -2.7,0 -4.4,1.6 -4.4,7.1 0,5.5 1.7,7.1 4.4,7.1 z" />
    </g>
  </g>
  <g
     transform="translate(-269.4,-65.5)"
     id="g556">
    <g
       id="g558">
      <path
         id="path560"
         d="m 968,812.2 c 4.1,0 5.5,1.3 5.5,5.2 0,4 -1.6,5.2 -5.5,5.2 l -2.9,0 0,6.4 -1.7,0 0,-16.8 4.6,0 z m -2.9,1.4 0,7.4 2.6,0 c 3.2,0 4.2,-0.5 4.2,-3.7 0,-3 -0.8,-3.7 -4,-3.7 l -2.8,0 z" />
      <path
         id="path562"
         d="m 980.6,829 c -0.3,0.1 -0.7,0.1 -1.1,0.1 -2.3,0 -3.6,-1.4 -3.6,-4.3 l 0,-12.6 1.6,0 0,12.4 c 0,2.4 0.7,3.3 2.1,3.3 0.3,0 0.5,0 0.8,-0.1 l 0.2,1.2 z" />
      <path
         id="path564"
         d="m 986.7,821.9 1.6,0 0,-1.7 c 0,-1.3 -0.6,-2.1 -2.1,-2.1 -1.7,0 -3.2,0.7 -3.2,0.7 l -0.4,-1.2 c 0,0 1.5,-0.8 3.6,-0.8 2.8,0 3.7,1.3 3.7,3.6 l 0,8.5 -1.2,0 -0.2,-0.9 c -0.8,0.5 -1.8,1.1 -3.3,1.1 -2.3,0 -3.5,-1.6 -3.5,-3.5 0,-1.9 1.4,-3.7 5,-3.7 z m 1.6,4.9 0,-3.6 -1.6,0 c -2.2,0 -3.4,1.1 -3.4,2.4 0,1.3 0.9,2.2 2.1,2.2 1.3,0 2.4,-0.6 2.9,-1 z" />
      <path
         id="path566"
         d="m 1000.1,820.6 c 0,-1.9 -0.8,-2.5 -2.3,-2.5 -1.6,0 -3,1.1 -3.4,1.4 l 0,9.4 -1.6,0 0,-12 1.2,0 0.3,1.2 c 1,-0.7 2.4,-1.4 3.8,-1.4 2.7,0 3.5,1.5 3.5,3.9 l 0,8.2 -1.6,0 0,-8.2 z" />
      <path
         id="path568"
         d="m 1011.4,828.6 c -0.2,0.1 -1.2,0.6 -2.5,0.6 -2.8,0 -4.8,-1.5 -4.8,-6.2 0,-4.7 2,-6.2 4.8,-6.2 1,0 1.8,0.3 2.5,0.6 l -0.6,1.2 c -0.1,0 -0.9,-0.5 -1.9,-0.5 -2.6,0 -3.2,1.9 -3.2,4.8 0,2.9 0.6,4.8 3.2,4.8 1.2,0 2,-0.5 2,-0.5 l 0.5,1.4 z" />
      <path
         id="path570"
         d="m 1015.9,817 2.8,0 0,1.4 -2.8,0 0,6.2 c 0,2.4 0.6,3.3 2.1,3.3 0.3,0 0.9,-0.1 1.1,-0.2 l 0.3,1.3 c -0.2,0 -0.9,0.2 -1.4,0.2 -2.4,0 -3.6,-1.4 -3.6,-4.3 l 0,-6.5 -1.4,0 0,-1.4 1.4,0 0,-3.1 1.6,0 0,3.1 z" />
      <path
         id="path572"
         d="m 1020.8,823 c 0,-4.7 2,-6.1 4.8,-6.1 2.8,0 4.8,1.4 4.8,6.1 0,4.7 -2,6.2 -4.8,6.2 -2.8,-0.1 -4.8,-1.5 -4.8,-6.2 z m 8,0 c 0,-2.9 -0.6,-4.8 -3.2,-4.8 -2.6,0 -3.2,1.9 -3.2,4.8 0,2.9 0.6,4.8 3.2,4.8 2.6,0 3.2,-1.9 3.2,-4.8 z" />
      <path
         id="path574"
         d="m 1040.1,820.6 c 0,-1.9 -0.8,-2.5 -2.3,-2.5 -1.6,0 -3,1.1 -3.4,1.4 l 0,9.4 -1.6,0 0,-12 1.2,0 0.3,1.2 c 1,-0.7 2.4,-1.4 3.8,-1.4 2.7,0 3.5,1.5 3.5,3.9 l 0,8.2 -1.6,0 0,-8.2 z" />
    </g>
  </g>
  <g
     transform="translate(-269.4,-65.5)"
     id="g662">
    <g
       id="g664">
      <path
         id="path666"
         d="m 718.5,429.5 -0.8,0 -6.1,-11.4 0,19.8 -2.5,0 0,-25.2 2.3,0 6.7,12.5 6.7,-12.5 2.3,0 0,25.2 -2.4,0 0,-19.8 -6.2,11.4 z" />
      <path
         id="path668"
         d="m 733.4,413.1 c 1,0 1.8,0.8 1.8,1.8 0,1 -0.8,1.8 -1.8,1.8 -1,0 -1.8,-0.8 -1.8,-1.8 -0.1,-1 0.8,-1.8 1.8,-1.8 z m -1.2,6.8 2.4,0 0,18 -2.4,0 0,-18 z" />
      <path
         id="path670"
         d="m 750.3,425.5 c 0,-2.9 -1.2,-3.8 -3.4,-3.8 -2.3,0 -4.4,1.6 -5,2.1 l 0,14.1 -2.4,0 0,-18 1.8,0 0.5,1.8 c 1.4,-1 3.6,-2.1 5.7,-2.1 4,0 5.2,2.2 5.2,5.9 l 0,12.3 -2.4,0 0,-12.3 z" />
      <path
         id="path672"
         d="m 763.9,427.3 2.3,0 0,-2.5 c 0,-1.9 -0.9,-3.1 -3.2,-3.1 -2.6,0 -4.8,1.1 -4.8,1.1 l -0.6,-1.8 c 0,0 2.2,-1.3 5.4,-1.3 4.2,0 5.5,2 5.5,5.4 l 0,12.8 -1.8,0 -0.3,-1.3 c -1.2,0.8 -2.6,1.6 -5,1.6 -3.4,0 -5.2,-2.4 -5.2,-5.2 0,-2.8 2.2,-5.7 7.7,-5.7 z m 2.3,7.4 0,-5.4 -2.4,0 c -3.3,0 -5.1,1.7 -5.1,3.7 0,1.9 1.4,3.3 3.2,3.3 2,-0.1 3.7,-1 4.3,-1.6 z" />
    </g>
  </g>
  <g
     transform="translate(-269.4,-65.5)"
     id="g674">
    <g
       id="g676">
      <path
         id="path678"
         d="m 750.1,325.2 -0.8,0 -6.1,-11.4 0,19.8 -2.5,0 0,-25.2 2.3,0 6.7,12.5 6.7,-12.5 2.3,0 0,25.2 -2.4,0 0,-19.8 -6.2,11.4 z" />
      <path
         id="path680"
         d="m 763.6,308.4 12.4,0 0,2.2 -10,0 0,8.8 9.9,0 0,2.2 -9.9,0 0,9.7 10.2,0 0,2.2 -12.7,0 0,-25.1 z" />
      <path
         id="path682"
         d="m 795.6,315.6 c 0,4.7 -1.8,6.7 -5.8,7.2 l 5.7,10.9 -2.7,0 -5.6,-10.7 -4.2,0 0,10.7 -2.5,0 0,-25.2 7,0 c 5.5,-0.1 8.1,1.6 8.1,7.1 z m -12.6,-4.9 0,10 4.1,0 c 4,0 5.9,-0.5 5.9,-5.1 0,-4.2 -1.8,-4.9 -5.9,-4.9 l -4.1,0 z" />
      <path
         id="path684"
         d="m 813.6,332.3 c 0,0 -2.3,1.6 -5.9,1.6 -6.3,0 -9.2,-3.8 -9.2,-12.9 0,-9.1 3,-12.9 9.2,-12.9 3.2,0 5.3,1.4 5.5,1.5 -1.1,2 -1.1,2 -1.1,2 -0.3,-0.2 -2.1,-1.3 -4.4,-1.3 -4.1,0 -6.7,2.2 -6.7,10.7 0,8.5 2.6,10.7 6.7,10.7 2.7,0 4.8,-1.4 4.8,-1.4 l 1.1,2 z" />
      <path
         id="path686"
         d="m 830.1,323.6 0,-15.2 2.4,0 0,16.2 c 0,7.3 -2.4,9.4 -7.9,9.4 -5.5,0 -7.8,-2.1 -7.8,-9.4 l 0,-16.2 2.4,0 0,15.2 c 0,6.6 0.9,8.1 5.4,8.1 4.5,0 5.5,-1.5 5.5,-8.1 z" />
      <path
         id="path688"
         d="m 852.2,315.6 c 0,4.7 -1.8,6.7 -5.8,7.2 l 5.7,10.9 -2.7,0 -5.6,-10.7 -4.2,0 0,10.7 -2.5,0 0,-25.2 7,0 c 5.5,-0.1 8.1,1.6 8.1,7.1 z m -12.6,-4.9 0,10 4.1,0 c 4,0 5.9,-0.5 5.9,-5.1 0,-4.2 -1.8,-4.9 -5.9,-4.9 l -4.1,0 z" />
      <path
         id="path690"
         d="m 856,308.4 2.5,0 0,25.2 -2.5,0 0,-25.2 z" />
      <path
         id="path692"
         d="m 871.5,308.1 c 6.3,0 9.1,3.9 9.1,12.9 0,9.1 -2.8,12.9 -9.1,12.9 -6.3,0 -9.1,-3.9 -9.1,-12.9 0,-9 2.8,-12.9 9.1,-12.9 z m 0,23.6 c 4.1,0 6.6,-2.3 6.6,-10.7 0,-8.4 -2.5,-10.7 -6.6,-10.7 -4.1,0 -6.6,2.3 -6.6,10.7 0,8.4 2.5,10.7 6.6,10.7 z" />
    </g>
  </g>
  <g
     transform="translate(-269.4,-65.5)"
     id="g694">
    <g
       id="g696">
      <path
         id="path698"
         d="m 1031.4,485.1 0,-0.8 11.4,-6.1 -19.8,0 0,-2.5 25.2,0 0,2.3 -12.5,6.7 12.5,6.7 0,2.3 -25.2,0 0,-2.4 19.8,0 -11.4,-6.2 z" />
      <path
         id="path700"
         d="m 1031.4,500.1 c -4,0.1 -6.7,1.1 -6.7,4.8 0,2.8 1.2,4.4 1.2,4.4 l -1.8,0.9 c 0,0 -1.4,-2.1 -1.4,-5.3 0,-4.2 2.2,-7.2 9.3,-7.2 7.1,0 9.3,3 9.3,6.8 0,5.1 -3.6,6.4 -9.8,6.4 l 0,-10.8 z m 1.9,0 0,8.4 c 4.1,-0.1 5.9,-1.3 5.9,-4 0,-3.2 -2.3,-4.2 -5.9,-4.4 z" />
      <path
         id="path702"
         d="m 1041,517.8 0,4.2 -2.1,0 0,-4.2 -9.3,0 c -3.5,0 -4.9,1 -4.9,3.1 0,0.5 0.2,1.3 0.3,1.6 l -1.9,0.5 c -0.1,-0.4 -0.4,-1.3 -0.4,-2.1 0,-3.5 2.1,-5.5 6.5,-5.5 l 9.7,0 0,-2.2 2.1,0 0,2.2 4.7,0 0,2.4 -4.7,0 z" />
      <path
         id="path704"
         d="m 1041,526.3 0,2.4 -18,0 0,-2.4 18,0 z m 6.8,1.2 c 0,1 -0.8,1.8 -1.8,1.8 -1,0 -1.8,-0.8 -1.8,-1.8 0,-1 0.8,-1.8 1.8,-1.8 1,0 1.8,0.8 1.8,1.8 z" />
      <path
         id="path706"
         d="m 1022.9,540.7 c -0.1,-0.5 -0.2,-1 -0.2,-1.7 0,-3.5 2.1,-5.5 6.5,-5.5 l 19,0 0,2.4 -18.5,0 c -3.5,0 -4.9,1 -4.9,3.1 0,0.4 0,0.8 0.1,1.2 l -2,0.5 z" />
      <path
         id="path708"
         d="m 1035.6,553.6 c 2.6,0 3.6,-1 3.6,-3.3 0,-2.3 -1.7,-4.2 -2.1,-4.8 l -14.1,0 0,-2.4 18,0 0,1.8 -1.8,0.5 c 1,1.3 2.1,3.2 2.1,5.3 0,2.6 -0.9,4 -2.5,4.6 1.3,1.5 2.5,3.6 2.5,5.8 0,4 -2.2,5.1 -5.9,5.1 l -12.4,0 0,-2.2 12.5,0 c 2.9,0 3.8,-1.1 3.8,-3.3 0,-2 -1.4,-3.9 -2.2,-4.9 -0.4,0.1 -1,0.1 -1.8,0.1 l -12.3,0 0,-2.4 12.6,0 z" />
      <path
         id="path710"
         d="m 1031.4,572.5 c -4,0.1 -6.7,1.1 -6.7,4.8 0,2.8 1.2,4.4 1.2,4.4 l -1.8,0.9 c 0,0 -1.4,-2.1 -1.4,-5.3 0,-4.2 2.2,-7.2 9.3,-7.2 7.1,0 9.3,3 9.3,6.8 0,5.1 -3.6,6.4 -9.8,6.4 l 0,-10.8 z m 1.9,0 0,8.4 c 4.1,-0.1 5.9,-1.3 5.9,-4 0,-3.2 -2.3,-4.2 -5.9,-4.4 z" />
      <path
         id="path712"
         d="m 1039,594.7 c 0.1,-0.3 0.1,-0.7 0.1,-1.2 0,-2.4 -1.6,-3.7 -2.1,-4.1 l -14,0 0,-2.4 18,0 0,1.8 -1.8,0.5 c 1.1,1.1 2.1,2.5 2.1,4.5 0,0.4 0,1 -0.1,1.3 l -2.2,-0.4 z" />
      <path
         id="path714"
         d="m 1023.6,607.8 c -0.1,-0.3 -0.9,-1.9 -0.9,-3.8 0,-4.2 2.2,-7.2 9.3,-7.2 7.1,0 9.3,3 9.3,7.2 0,1.4 -0.4,2.8 -0.9,3.7 l -1.8,-0.9 c 0,-0.1 0.7,-1.3 0.7,-2.9 0,-3.9 -2.8,-4.8 -7.2,-4.8 -4.4,0 -7.2,0.9 -7.2,4.8 0,1.7 0.7,3.1 0.7,3.1 l -2,0.8 z" />
      <path
         id="path716"
         d="m 1028.5,613.7 c -2.9,0 -3.8,1.3 -3.8,3.5 0,2.3 1.6,4.4 2.2,5 l 14.1,0 0,2.4 -18,0 0,-1.9 1.8,-0.4 c -1,-1.4 -2.1,-3.6 -2.1,-5.7 0,-4 2.2,-5.3 5.9,-5.3 l 12.4,0 0,2.4 -12.5,0 z" />
      <path
         id="path718"
         d="m 1039,636.8 c 0.1,-0.3 0.1,-0.7 0.1,-1.2 0,-2.4 -1.6,-3.7 -2.1,-4.1 l -14,0 0,-2.4 18,0 0,1.8 -1.8,0.5 c 1.1,1.1 2.1,2.5 2.1,4.5 0,0.4 0,1 -0.1,1.3 l -2.2,-0.4 z" />
      <path
         id="path720"
         d="m 1041,640 0,2.4 -18,0 0,-2.4 18,0 z m 6.8,1.3 c 0,1 -0.8,1.8 -1.8,1.8 -1,0 -1.8,-0.8 -1.8,-1.8 0,-1 0.8,-1.8 1.8,-1.8 1,-0.1 1.8,0.8 1.8,1.8 z" />
      <path
         id="path722"
         d="m 1032,646.6 c 7.1,0 9.2,3 9.2,7.2 0,4.2 -2.2,7.1 -9.2,7.1 -7.1,0 -9.3,-3 -9.3,-7.1 0,-4.3 2.2,-7.2 9.3,-7.2 z m 0,11.9 c 4.4,0 7.2,-0.9 7.2,-4.8 0,-3.9 -2.8,-4.8 -7.2,-4.8 -4.4,0 -7.2,0.9 -7.2,4.8 0,3.9 2.8,4.8 7.2,4.8 z" />
    </g>
  </g>
  <polygon
     transform="translate(-269.4,-65.5)"
     id="polygon724"
     points="448.4,468 459.4,468 459.4,426 468.4,426 473.4,468 481.4,468 481.4,426 487.4,426 495.4,468 513.4,468 513.4,489 527.4,489 527.4,448 546.6,448 553.4,510 493.4,530 418.4,510 418.4,473 432.4,473 432.4,426 440.6,426 " />
  <path
     style="fill:#635e53"
     id="path726"
     d="m 117,352.5 c -0.1,-0.3 -0.1,-0.7 -0.2,-1 L 95,335.5 c 0,0 0,0 -16.9,2 -16.9,2 -22.1,0 -22.1,0 l -17.5,12.6 c 10.8,5.5 7.1,7.8 -2.5,17.7 -6.2,6.4 -11.4,27.2 2.9,17.3 1.4,-10.2 13.3,-36.6 18.9,-15.2 1.7,6.6 -3.7,40.8 12.3,30.9 9.4,-5.8 1.6,-26.9 6.9,-35.3 8.2,-13.1 10,8.5 12.9,14.9 1.8,-0.3 2.9,-0.8 4.2,-1.9 -1.2,-6.4 -2.9,-13.3 -2.1,-20 12.1,4.7 19.5,26.5 33.8,24.8 -0.8,-11.9 -8,-20.1 -8.8,-31.7 l -0.1,0 0,0.9 z" />
  <path
     style="fill:#68a98c"
     id="path728"
     d="m 6,470.5 c 0,0 57,-38 106,-36 49,2 73.8,21.3 116,18 42.2,-3.3 83.1,-19 118.1,-9 35,10 68.9,23 98.9,64 30,41 -185,15 -185,15 l -216,8.1 -44,-4.1 6,-56 z" />
  <g
     transform="translate(-269.4,-65.5)"
     id="g730">
    <g
       id="g732">
      <path
         style="fill:none;stroke:#544842;stroke-width:3.53929996;stroke-linecap:round;stroke-linejoin:round;stroke-dasharray:11.3386, 11.3386"
         id="path734"
         d="m 594.2,356.4 313.3,0 c 0,0 91.9,6.6 91.9,88 0,52.4 0,242.5 0,306.4" />
      <g
         id="g736">
        <polygon
           style="fill:#544842"
           id="polygon738"
           points="1012.6,740.9 999.5,772 986.4,740.9 999.5,746.5 " />
      </g>
    </g>
  </g>
  <g
     transform="translate(-269.4,-65.5)"
     id="g740">
    <g
       id="g742">
      <path
         style="fill:none;stroke:#544842;stroke-width:3.53929996;stroke-linecap:round;stroke-linejoin:round;stroke-dasharray:11.3386, 11.3386"
         id="path744"
         d="m 806.3,533.3 c 0,0 -9.5,11.6 -8.7,14.7 1.6,6 17.5,5.7 18.8,14.8 1.3,9.1 -4.1,12.9 0,23.2 6.6,16.7 47.8,22.2 65.2,29 17.4,6.8 67.7,2.3 67.7,2.3 l 29.5,6.4" />
      <g
         id="g746">
        <polygon
           style="fill:#544842"
           id="polygon748"
           points="971.9,608.7 999.5,628.1 966.3,634.4 974.5,622.7 " />
      </g>
    </g>
  </g>
  <path
     style="fill:#545e6b"
     id="path750"
     d="m 259.7,1090.2 0,-124.5 -13.8,0 0,124.5 c -2.5,2 -4.1,5.1 -4.1,8.5 0,6 4.9,10.9 10.9,10.9 6,0 10.9,-4.9 10.9,-10.9 0.1,-3.5 -1.5,-6.5 -3.9,-8.5 z" />
  <path
     style="fill:none;stroke:#000000;stroke-width:2;stroke-miterlimit:10"
     id="path752"
     d="m 259.7,1090.2 0,-135.8 0,0 0,0 c 0,-6.2 -3.1,-9.6 -6.9,-9.6 -3.8,0 -6.9,3.4 -6.9,9.6 l 0,0 0,0 0,135.8 c -2.5,2 -4.1,5.1 -4.1,8.5 0,6 4.9,10.9 10.9,10.9 6,0 10.9,-4.9 10.9,-10.9 0.1,-3.5 -1.5,-6.5 -3.9,-8.5 z"
     stroke-miterlimit="10" />
  <path
     style="fill:#545e6b"
     id="path754"
     d="m 487.9,1090.2 0,-84.5 -13.8,0 0,84.5 c -2.5,2 -4.1,5.1 -4.1,8.5 0,6 4.9,10.9 10.9,10.9 6,0 10.9,-4.9 10.9,-10.9 0.2,-3.5 -1.4,-6.5 -3.9,-8.5 z" />
  <path
     style="fill:none;stroke:#000000;stroke-width:2;stroke-miterlimit:10"
     id="path756"
     d="m 487.9,1090.2 0,-135.8 0,0 0,0 c 0,-6.2 -3.1,-9.6 -6.9,-9.6 -3.8,0 -6.9,3.4 -6.9,9.6 l 0,0 0,0 0,135.8 c -2.5,2 -4.1,5.1 -4.1,8.5 0,6 4.9,10.9 10.9,10.9 6,0 10.9,-4.9 10.9,-10.9 0.2,-3.5 -1.4,-6.5 -3.9,-8.5 z"
     stroke-miterlimit="10" />
  <path
     style="fill:#545e6b"
     id="path758"
     d="m 715,1090.2 0,-34.5 -13.8,0 0,34.5 c -2.5,2 -4.1,5.1 -4.1,8.5 0,6 4.9,10.9 10.9,10.9 6,0 10.9,-4.9 10.9,-10.9 0.1,-3.5 -1.5,-6.5 -3.9,-8.5 z" />
  <path
     style="fill:none;stroke:#000000;stroke-width:2;stroke-miterlimit:10"
     id="path760"
     d="m 715,1090.2 0,-135.8 0,0 0,0 c 0,-6.2 -3.1,-9.6 -6.9,-9.6 -3.8,0 -6.9,3.4 -6.9,9.6 l 0,0 0,0 0,135.8 c -2.5,2 -4.1,5.1 -4.1,8.5 0,6 4.9,10.9 10.9,10.9 6,0 10.9,-4.9 10.9,-10.9 0.1,-3.5 -1.5,-6.5 -3.9,-8.5 z"
     stroke-miterlimit="10" />
  <polyline
     transform="translate(-269.4,-65.5)"
     style="fill:none;stroke:#544842;stroke-width:3.53929996;stroke-linecap:round;stroke-linejoin:round;stroke-miterlimit:10;stroke-dasharray:11.3386"
     id="polyline762"
     points="   877.4,879 877.4,1000.3 1056.2,1000.3 1056.2,879  "
     stroke-miterlimit="10" />
  <line
     style="fill:none;stroke:#544842;stroke-width:3.53929996;stroke-linecap:round;stroke-linejoin:round;stroke-miterlimit:10;stroke-dasharray:11.3386"
     id="line764"
     y2="944.70001"
     x2="252.80002"
     y1="870.79999"
     x1="252.80002"
     stroke-miterlimit="10" />
  <line
     style="fill:none;stroke:#544842;stroke-width:3.53929996;stroke-linecap:round;stroke-linejoin:round;stroke-miterlimit:10;stroke-dasharray:11.3386"
     id="line766"
     y2="944.70001"
     x2="481.00003"
     y1="806.79999"
     x1="481.00003"
     stroke-miterlimit="10" />
  <g
     id="flowRoot3723"
     style="font-style:normal;font-weight:normal;font-size:27.5px;line-height:125%;font-family:sans-serif;letter-spacing:0px;word-spacing:0px;fill:#000000;fill-opacity:1;stroke:none;stroke-width:1px;stroke-linecap:butt;stroke-linejoin:miter;stroke-opacity:1"
     transform="matrix(0.94809169,0.31799707,-0.31799707,0.94809169,224.60712,-128.62347)">
    <path
       id="path3618"
       style=""
       d="m 408.74658,610.47446 q -0.73852,0.32226 -1.34277,0.60424 -0.59082,0.28199 -1.55762,0.59082 -0.81909,0.25513 -1.78589,0.42969 -0.95337,0.18799 -2.10815,0.18799 -2.17529,0 -3.96118,-0.60425 -1.77246,-0.61767 -3.08838,-1.92016 -1.28906,-1.27564 -2.01416,-3.23609 -0.7251,-1.97387 -0.7251,-4.57886 0,-2.4707 0.69824,-4.41772 0.69824,-1.94702 2.01416,-3.28979 1.27564,-1.3025 3.07495,-1.98731 1.81275,-0.68481 4.0149,-0.68481 1.61132,0 3.20922,0.3894 1.61133,0.3894 3.57178,1.36963 l 0,3.15552 -0.20141,0 q -1.65162,-1.38306 -3.27637,-2.01416 -1.62476,-0.63111 -3.47778,-0.63111 -1.51734,0 -2.73926,0.49683 -1.2085,0.4834 -2.16187,1.51733 -0.92651,1.00708 -1.45019,2.55127 -0.51026,1.53076 -0.51026,3.54492 0,2.10816 0.56397,3.62549 0.57739,1.51734 1.47705,2.47071 0.93994,0.99365 2.18872,1.47705 1.26221,0.46997 2.65869,0.46997 1.92017,0 3.59863,-0.65796 1.67847,-0.65796 3.14209,-1.97388 l 0.18799,0 0,3.11524 z" />
    <path
       id="path3620"
       style=""
       d="m 423.98706,611.92465 -2.51099,0 0,-1.5979 q -0.33569,0.22827 -0.91308,0.64453 -0.56397,0.40283 -1.10108,0.64453 -0.6311,0.30884 -1.45019,0.51026 -0.81909,0.21484 -1.92017,0.21484 -2.02759,0 -3.4375,-1.34277 -1.40991,-1.34278 -1.40991,-3.42407 0,-1.70533 0.7251,-2.75269 0.73852,-1.06079 2.09472,-1.66504 1.36963,-0.60425 3.2898,-0.81909 1.92017,-0.21484 4.12231,-0.32227 l 0,-0.3894 q 0,-0.85938 -0.30883,-1.42334 -0.29541,-0.56397 -0.85938,-0.88623 -0.53711,-0.30884 -1.28906,-0.41626 -0.75195,-0.10742 -1.57105,-0.10742 -0.99365,0 -2.21557,0.26855 -1.22193,0.25513 -2.52442,0.75195 l -0.13427,0 0,-2.56469 q 0.73852,-0.20142 2.13501,-0.44312 1.39648,-0.2417 2.75268,-0.2417 1.58447,0 2.75269,0.26856 1.18164,0.25512 2.04101,0.88623 0.84595,0.61767 1.28907,1.5979 0.44311,0.98022 0.44311,2.43042 l 0,10.17822 z m -2.51099,-3.69263 0,-4.17602 q -1.15478,0.0671 -2.72583,0.20141 -1.55761,0.13428 -2.4707,0.38941 -1.08765,0.30884 -1.75903,0.9668 -0.67139,0.64453 -0.67139,1.78588 0,1.28907 0.77881,1.94703 0.77881,0.64453 2.37671,0.64453 1.32934,0 2.43042,-0.51026 1.10107,-0.52368 2.04101,-1.24878 z" />
    <path
       id="path3622"
       style=""
       d="m 441.04028,611.92465 -2.52441,0 0,-1.57104 q -1.08765,0.93994 -2.26929,1.46362 -1.18164,0.52368 -2.5647,0.52368 -2.68554,0 -4.27001,-2.06787 -1.57105,-2.06787 -1.57105,-5.73364 0,-1.90674 0.53711,-3.39722 0.55054,-1.49048 1.47705,-2.53784 0.91309,-1.02051 2.12158,-1.55762 1.22193,-0.53711 2.52442,-0.53711 1.18164,0 2.09472,0.25513 0.91309,0.2417 1.92017,0.76538 l 0,-6.49902 2.52441,0 0,20.89355 z m -2.52441,-3.69263 0,-8.60717 q -1.02051,-0.45655 -1.82617,-0.63111 -0.80567,-0.17456 -1.75904,-0.17456 -2.12158,0 -3.30322,1.47705 -1.18164,1.47705 -1.18164,4.18946 0,2.67212 0.91309,4.0686 0.91308,1.38306 2.92724,1.38306 1.07422,0 2.1753,-0.46997 1.10107,-0.4834 2.05444,-1.23536 z" />
    <path
       id="path3624"
       style=""
       d="m 458.56348,604.6871 -11.05103,0 q 0,1.38306 0.41626,2.41699 0.41626,1.02051 1.14136,1.67847 0.69824,0.64453 1.65161,0.9668 0.9668,0.32226 2.12158,0.32226 1.53076,0 3.07495,-0.60424 1.55762,-0.61768 2.21558,-1.2085 l 0.13428,0 0,2.75269 q -1.27564,0.5371 -2.60498,0.89965 -1.32935,0.36255 -2.79297,0.36255 -3.73291,0 -5.82764,-2.01416 -2.09473,-2.02759 -2.09473,-5.74707 0,-3.6792 2.00074,-5.84106 2.01416,-2.16187 5.29052,-2.16187 3.03467,0 4.67286,1.77246 1.65161,1.77246 1.65161,5.0354 l 0,1.36963 z m -2.45728,-1.93359 q -0.0134,-1.98731 -1.00708,-3.07495 -0.98022,-1.08765 -2.99438,-1.08765 -2.02759,0 -3.23609,1.19507 -1.19507,1.19507 -1.3562,2.96753 l 8.59375,0 z" />
    <path
       id="path3626"
       style=""
       d="m 474.93188,611.92465 -2.52441,0 0,-8.54004 q 0,-1.03393 -0.12085,-1.93359 -0.12085,-0.91309 -0.44311,-1.42334 -0.3357,-0.56397 -0.9668,-0.83252 -0.6311,-0.28198 -1.63818,-0.28198 -1.03394,0 -2.16187,0.51025 -1.12793,0.51025 -2.16187,1.30249 l 0,11.19873 -2.52441,0 0,-14.99878 2.52441,0 0,1.66504 q 1.18165,-0.98022 2.44385,-1.53076 1.26221,-0.55054 2.59156,-0.55054 2.43042,0 3.70605,1.46363 1.27563,1.46362 1.27563,4.2163 l 0,9.73511 z" />
    <path
       id="path3628"
       style=""
       d="m 491.448,611.92465 -2.51099,0 0,-1.5979 q -0.33569,0.22827 -0.91308,0.64453 -0.56397,0.40283 -1.10108,0.64453 -0.6311,0.30884 -1.45019,0.51026 -0.8191,0.21484 -1.92017,0.21484 -2.02759,0 -3.4375,-1.34277 -1.40991,-1.34278 -1.40991,-3.42407 0,-1.70533 0.7251,-2.75269 0.73852,-1.06079 2.09472,-1.66504 1.36963,-0.60425 3.2898,-0.81909 1.92016,-0.21484 4.12231,-0.32227 l 0,-0.3894 q 0,-0.85938 -0.30884,-1.42334 -0.29541,-0.56397 -0.85937,-0.88623 -0.53711,-0.30884 -1.28906,-0.41626 -0.75196,-0.10742 -1.57105,-0.10742 -0.99365,0 -2.21557,0.26855 -1.22193,0.25513 -2.52442,0.75195 l -0.13428,0 0,-2.56469 q 0.73853,-0.20142 2.13501,-0.44312 1.39649,-0.2417 2.75269,-0.2417 1.58447,0 2.75268,0.26856 1.18165,0.25512 2.04102,0.88623 0.84595,0.61767 1.28906,1.5979 0.44312,0.98022 0.44312,2.43042 l 0,10.17822 z m -2.51099,-3.69263 0,-4.17602 q -1.15478,0.0671 -2.72583,0.20141 -1.55762,0.13428 -2.4707,0.38941 -1.08765,0.30884 -1.75903,0.9668 -0.67139,0.64453 -0.67139,1.78588 0,1.28907 0.77881,1.94703 0.77881,0.64453 2.37671,0.64453 1.32934,0 2.43042,-0.51026 1.10107,-0.52368 2.04101,-1.24878 z" />
    <path
       id="path3630"
       style=""
       d="m 513.79175,611.79037 q -0.71167,0.18799 -1.55762,0.30884 -0.83252,0.12085 -1.49048,0.12085 -2.29614,0 -3.49121,-1.23535 -1.19507,-1.23535 -1.19507,-3.96118 l 0,-7.97608 -1.70532,0 0,-2.12158 1.70532,0 0,-4.3103 2.52442,0 0,4.3103 5.20996,0 0,2.12158 -5.20996,0 0,6.83472 q 0,1.18164 0.0537,1.85303 0.0537,0.65796 0.37597,1.23535 0.29541,0.53711 0.80567,0.79224 0.52368,0.2417 1.58447,0.2417 0.61768,0 1.28906,-0.17457 0.67139,-0.18798 0.9668,-0.30883 l 0.13428,0 0,2.26928 z" />
    <path
       id="path3632"
       style=""
       d="m 526.2124,599.67856 -0.13428,0 q -0.56396,-0.13428 -1.10107,-0.18799 -0.52368,-0.0671 -1.24878,-0.0671 -1.16821,0 -2.25586,0.52368 -1.08764,0.51026 -2.09472,1.32935 l 0,10.64819 -2.52442,0 0,-14.99878 2.52442,0 0,2.21558 q 1.5039,-1.2085 2.64526,-1.70532 1.15478,-0.51026 2.34985,-0.51026 0.65796,0 0.95337,0.0403 0.29541,0.0269 0.88623,0.12084 l 0,2.59156 z" />
    <path
       id="path3634"
       style=""
       d="m 541.39917,604.43198 q 0,3.66577 -1.87988,5.78735 -1.87989,2.12158 -5.0354,2.12158 -3.18238,0 -5.06226,-2.12158 -1.86645,-2.12158 -1.86645,-5.78735 0,-3.66578 1.86645,-5.78736 1.87988,-2.13501 5.06226,-2.13501 3.15551,0 5.0354,2.13501 1.87988,2.12158 1.87988,5.78736 z m -2.60498,0 q 0,-2.91382 -1.14136,-4.32373 -1.14136,-1.42334 -3.16894,-1.42334 -2.05445,0 -3.1958,1.42334 -1.12793,1.40991 -1.12793,4.32373 0,2.81982 1.14135,4.28344 1.14136,1.4502 3.18238,1.4502 2.01416,0 3.15551,-1.43677 1.15479,-1.45019 1.15479,-4.29687 z m -0.13428,-15.01221 -3.66577,5.02197 -2.00073,0 2.40356,-5.02197 3.26294,0 z" />
    <path
       id="path3636"
       style=""
       d="m 553.39014,593.47494 -0.13428,0 q -0.41626,-0.12085 -1.08765,-0.24169 -0.67138,-0.13428 -1.18164,-0.13428 -1.62475,0 -2.36328,0.7251 -0.7251,0.71167 -0.7251,2.59155 l 0,0.51025 4.55201,0 0,2.12158 -4.47144,0 0,12.8772 -2.52441,0 0,-12.8772 -1.70533,0 0,-2.12158 1.70533,0 0,-0.49682 q 0,-2.67212 1.32934,-4.09546 1.32935,-1.43677 3.84033,-1.43677 0.84595,0 1.51734,0.0806 0.68481,0.0806 1.24878,0.18798 l 0,2.30957 z" />
    <path
       id="path3638"
       style=""
       d="m 557.70044,594.41489 -2.84668,0 0,-2.61841 2.84668,0 0,2.61841 z m -0.16113,17.50976 -2.52442,0 0,-14.99878 2.52442,0 0,14.99878 z" />
    <path
       id="path3640"
       style=""
       d="m 573.54517,610.98471 q -1.26221,0.60425 -2.40357,0.93994 -1.12793,0.33569 -2.40356,0.33569 -1.62476,0 -2.98096,-0.46997 -1.3562,-0.48339 -2.323,-1.45019 -0.98022,-0.9668 -1.51733,-2.44385 -0.53711,-1.47705 -0.53711,-3.45093 0,-3.6792 2.01416,-5.77392 2.02759,-2.09473 5.34424,-2.09473 1.28906,0 2.52441,0.36255 1.24878,0.36255 2.28272,0.88623 l 0,2.8064 -0.13428,0 q -1.15479,-0.89966 -2.39014,-1.38306 -1.22192,-0.4834 -2.39013,-0.4834 -2.14844,0 -3.39722,1.4502 -1.23535,1.43676 -1.23535,4.22973 0,2.71241 1.20849,4.17603 1.22193,1.45019 3.42408,1.45019 0.76538,0 1.55761,-0.20141 0.79224,-0.20142 1.42334,-0.52368 0.55054,-0.28199 1.03394,-0.59082 0.4834,-0.32227 0.76538,-0.55054 l 0.13428,0 0,2.77954 z" />
    <path
       id="path3642"
       style=""
       d="m 588.44995,611.92465 -2.51099,0 0,-1.5979 q -0.33569,0.22827 -0.91308,0.64453 -0.56397,0.40283 -1.10108,0.64453 -0.6311,0.30884 -1.45019,0.51026 -0.81909,0.21484 -1.92017,0.21484 -2.02758,0 -3.4375,-1.34277 -1.40991,-1.34278 -1.40991,-3.42407 0,-1.70533 0.7251,-2.75269 0.73852,-1.06079 2.09473,-1.66504 1.36962,-0.60425 3.28979,-0.81909 1.92017,-0.21484 4.12231,-0.32227 l 0,-0.3894 q 0,-0.85938 -0.30883,-1.42334 -0.29541,-0.56397 -0.85938,-0.88623 -0.53711,-0.30884 -1.28906,-0.41626 -0.75195,-0.10742 -1.57105,-0.10742 -0.99365,0 -2.21557,0.26855 -1.22193,0.25513 -2.52442,0.75195 l -0.13427,0 0,-2.56469 q 0.73852,-0.20142 2.13501,-0.44312 1.39648,-0.2417 2.75268,-0.2417 1.58447,0 2.75269,0.26856 1.18164,0.25512 2.04101,0.88623 0.84595,0.61767 1.28907,1.5979 0.44311,0.98022 0.44311,2.43042 l 0,10.17822 z m -2.51099,-3.69263 0,-4.17602 q -1.15478,0.0671 -2.72583,0.20141 -1.55761,0.13428 -2.4707,0.38941 -1.08764,0.30884 -1.75903,0.9668 -0.67139,0.64453 -0.67139,1.78588 0,1.28907 0.77881,1.94703 0.77881,0.64453 2.37671,0.64453 1.32934,0 2.43042,-0.51026 1.10107,-0.52368 2.04101,-1.24878 z" />
  </g>
</svg>
