<svg xmlns="http://www.w3.org/2000/svg" xmlns:xlink="http://www.w3.org/1999/xlink" width="566.8" height="272.1" viewBox="0 0 566.79998 272.09999"><path fill="#d7aa7e" d="M29 206h524v20.7H29z"/><path fill="#ebb987" d="M13.8 198l-2.5 74h7.5l18-72M553.2 198l2.5 74h-7.5l-18-72"/><path fill="none" d="M13.8 726l-2.5 74h7.5l18-72M553.2 726l2.5 74h-7.5l-18-72"/><path fill="#4e5b68" d="M0 0h566.8v206.5H0z"/><path fill="#fff" d="M15.2 19.2h260V189h-260zM288 19.2h260V189H288z"/><g transform="translate(-930.6 -414.5)"><defs><path id="a" d="M1218.3 518.5h99v342.7h-99z"/></defs><clipPath id="b"><use height="100%" width="100%" overflow="visible" xlink:href="#a"/></clipPath><path transform="translate(0 -160)" d="M1191.2 646.8c25.5 0 46.2 20.7 46.2 46.2 0 25.5-20.7 46.2-46.2 46.2v-92.4z" clip-path="url(#b)" fill="#a3a8ac"/></g><g transform="translate(-930.6 -414.5)"><defs><path id="c" d="M1108.4 524h99v342.6h-99z"/></defs><clipPath id="d"><use height="100%" width="100%" overflow="visible" xlink:href="#c"/></clipPath><path transform="translate(0 -160)" d="M1234.5 738.3c-25.5 0-46.2-20.7-46.2-46.2 0-25.4 20.7-46 46.2-46v92.3z" clip-path="url(#d)" fill="#a3a8ac"/></g></svg>