<svg xmlns="http://www.w3.org/2000/svg" viewBox="0 0 216.80001 274.96528" height="275" width="216.8"><path d="M200.3 144.8c-3.7-3.7-9.7-3.8-13.4 0L116 214.4c-3.7 3.7-3.8 9.7 0 13.4 1.7 1.8 4.2 2.7 6.6 2.7 2.4 0 5-1 6.7-2.7l70.7-69.8c3.7-3.6 3.8-9.6 0-13.4zm-6.8 10.8c-2.3 0-4-2-4-4.2 0-2.3 1.8-4 4-4 2.4 0 4.2 1.8 4.2 4 0 2.4-2 4.3-4.2 4.2z" fill="#87c767"/><path d="M188.3 183.2v82.3c0 5.2-4.3 9.5-9.5 9.5H38c-5.2 0-9.5-4.3-9.5-9.5v-82.3h159.8z" fill="#7e868d"/><path fill="#5d6771" d="M28.5 191h159.8v6.7H28.5zM21.3 197.6h7.2v17h-7.2z"/><path fill="#343f49" d="M0 197.6h21.3v10H0z"/><path fill="#5d6771" d="M188.3 197.6h7.2v17h-7.2z"/><path fill="#343f49" d="M195.5 197.6h21.3v10h-21.3z"/><path d="M28.5 183.2v82.3c0 5.2 4.3 9.5 9.5 9.5h70.4v-91.8h-80z" fill="#d2d4d4"/><path stroke-miterlimit="10" d="M60.2 25.5c-17.3 10-17.3 26.3 0 36.2 17.3 10 17.3 26.3 0 36.2-17.3 10-17.3 26.2 0 36 17.3 10 17.3 26.4 0 36.3M103.7 1.7c-17.3 10-17.3 26.3 0 36.2 17.3 10 17.3 26.2 0 36-17.3 10-17.3 26.4 0 36.3 17.3 10 17.3 26.3 0 36.2M146.4 25.5c-17.3 10-17.3 26.3 0 36.2 17.3 10 17.3 26.3 0 36.2-17.3 10-17.3 26.2 0 36 17.3 10 17.3 26.4 0 36.3" fill="none" stroke="#f79020" stroke-width="3.3" stroke-linecap="round"/></svg>