<svg xmlns="http://www.w3.org/2000/svg" width="985.3" height="124.2" viewBox="0 0 985.29996 124.19997"><path fill="#957452" d="M0 0h985.3v50H0z"/><path fill="#392512" d="M0 27.6h985.3V50H0z"/><path d="M140.6 50v67.7c0 3.6-3 6.5-6.5 6.5H93.3c-3.6 0-6.5-3-6.5-6.5V50h54z" fill="#616466"/><path fill="#484a4c" d="M71.5 50h84.3v15.6H71.5z"/><path d="M124.2 95.7c0 5.8-4.7 10.6-10.6 10.6-6 0-10.6-4.7-10.6-10.6 0-5.8 4.7-10.6 10.6-10.6 6 0 10.6 5 10.6 10.7z" opacity=".1"/><path d="M124.2 91.8c0 5.8-4.7 10.6-10.6 10.6-6 0-10.6-4.7-10.6-10.6 0-5.8 4.7-10.6 10.6-10.6 6 0 10.6 4.8 10.6 10.6z" fill="#9a9d9e"/><path d="M114.7 99.7c0 .6-.5 1-1 1-.7 0-1.2-.4-1.2-1V84c0-.5.5-1 1-1 .7 0 1.2.5 1.2 1v15.7z" opacity=".2"/><path d="M879 50v67.7c0 3.6-3 6.5-6.6 6.5h-41c-3.5 0-6.4-3-6.4-6.5V50h54z" fill="#616466"/><path fill="#484a4c" d="M809.8 50H894v15.6H810z"/><path d="M862.5 95.7c0 5.8-4.7 10.6-10.6 10.6-6 0-10.7-4.7-10.7-10.6C841.3 90 846 85 852 85c5.7.2 10.5 5 10.5 10.7z" opacity=".1"/><path d="M862.5 91.8c0 5.8-4.7 10.6-10.6 10.6-6 0-10.7-4.7-10.7-10.6 0-5.8 4.7-10.6 10.6-10.6 5.7 0 10.5 4.8 10.5 10.6z" fill="#9a9d9e"/><path d="M853 99.7c0 .6-.5 1-1 1-.7 0-1.2-.4-1.2-1V84c0-.5.5-1 1-1 .7 0 1.2.5 1.2 1v15.7z" opacity=".2"/></svg>