<svg xmlns="http://www.w3.org/2000/svg" viewBox="0 0 101.20055 203" height="203" width="101.2"><path d="M50.5 37.2h3v17h-3zM56.7 37.2h3v17h-3zM76 34l24.6-7.2V16.3S92.2 0 74 0H14.3v12.6l30 21.5H76zM44.3 37.2h3v17h-3zM63 37.2h3v17h-3zM0 16h6.2v10.2H0zM15.4 32.3v12.2s-.2 6-4.8 8.5l3 5.5c7.8-4 8-13.5 8-14V26.3H28L13.8 16H9.3v10.2s6 2.7 6 6zM69 37.2h3.2v17h-3zM75.2 37.2h3v17h-3zM78.7 57h-3.5c7 13.4 23 52 23 106v18.2c0 .7-1.3 18.7-15.8 18.7H24.6C10 200 9 182 8.8 181v-18C8.8 114 46 77.5 46.5 77l1-.8V57h-3.2v18c-2 2-38.5 38.7-38.5 88v18.3c0 1 1.4 21.7 18.8 21.7h57.8c17.5 0 18.8-20.8 18.8-21.7V163c0-53.7-15-91.8-22.5-106z"/><path d="M26.8 128c-11.6 21.6-8.8 45.6 6.3 53.7 15 8 36.7-2.8 48.3-24.3C93 136 90 112 75 103.8c-15-8-36.7 2.8-48.2 24.3z" fill="#df577d" stroke="#000" stroke-width="1.4" stroke-linecap="round" stroke-linejoin="round"/></svg>