<svg xmlns="http://www.w3.org/2000/svg" viewBox="0 0 224.29367 111.9" height="111.9" width="224.3"><path d="M66.5 29.7s9.2-18.3 36.7-22.5c14.3-2.2 34.6 6 45.6-5.6l-4 28H66.4zM78.7 86s4.8 14.2 23.2 19c9.5 2.7 24-1.8 30.6 7l-.6-20-53.3-6zM161.2 56.6s7-35 32-35S218 0 218 0s19.4 35.6-11 56.6c0 0 21.6 32 4 54.8 0 0-9.3-16.5-16-20-22.6-12-29.7-22.5-34-34.8z" fill="#89cebf"/><path d="M13.2 61.5s25-37.3 88-37.3 81.6 32.4 81.6 32.4S165.6 99.4 98.6 98C46.4 96.7 13 62.4 13 62.4" fill="#3f9c8f"/><path d="M101.3 24.2c-18.3 0-33.3 3-45.5 7.6 4.8 3 9 7 12 12C71 49.2 72 54 72.2 60.4c.3 6.7-2 10.8-4.5 16.7-1.5 2.5-3.3 4.8-5.3 6.8s-4.3 3.8-6.7 5.2C68 94 82.4 97.6 98.8 98c67 1.4 84-41.4 84-41.4s-18.5-32.4-81.5-32.4z" fill="#464c53"/><path d="M26.6 61.5S11.8 45.7 3.8 51C-4.2 56.6 5 64 5 64S-5.3 69.5 4 76.6c11.4 8.8 22.8-15 22.8-15z" fill="#89cebf"/><g transform="translate(-1051.42 -129.6)"><path d="M1119.4 186c0 6.7-5.4 12.2-12.2 12.2-6.7 0-12.2-5.4-12.2-12.2 0-6.7 5.4-12.2 12.2-12.2 6.7 0 12.2 5.5 12.2 12.2z" fill="#fff"/><circle cx="1107.2" cy="186" r="5.7" fill="#464c53"/></g><path d="M87.7 70.3s17.5 10 29 10.2C128 80.5 134 83 134 83l-10-10-36.3-2.7z" fill="#89cebf"/></svg>