<svg xmlns="http://www.w3.org/2000/svg" viewBox="0 0 301.05883 231.85358" height="231.9" width="301.1"><path d="M128.4 29.2c-5.7 3.4-9.2-4.4-13-7-4.5-2.8-8.4-4.4-12.2-8-2.4-2.3-9.3-10-12-4-1.7 3.7 6.4 10 6.5 14.7-14.3.8-27-.4-39.6 5-5.4 2.4-8 5.2-11.7 9-2.7 2.8-7.5 8-11.2 9.8-7 3.2-36.4-5.6-33 10C2.3 61 4.5 62 6 63c1.4 1 3.6 1.7 4.8 2.6 1 .7.3 2 1.4 2.8 5.5 3.5 10.8 8.7 17 10.7 4 1.3 8.4 2.3 12.7 3.5C46 84 52 85 54 88c15 27 42 48 72.8 50 4.5 1 9 1.5 13.5 1.6 4.4 0 8.6-.2 12.4-1 3.7-.8 7.3-4 11-4.8 4.2-1 8.4-1 12.5-2 6.5-1.5 14-4.7 20.5-5.3 1.5 12.3 10.4 11 21.4 10.3 5.6-.4 10.6-2 15.3-5.4 3.8-2.8 2.7-12 5.5-15.7 2-2.6 18.3-15 20.5-18 8-10.4 13.5-3.2 26-6.2 3-.8 8.5-.8 11-2.8 3.7-2.7 2.3-1.3 2-4.6-.2-1.7-2-3-2.4-4.6-.4-2.7.7-5.2 1-7.6-8.3-1.6-11.8 1.4-19 5.7C271 82 262 83.8 253.2 83c-9.7-1-11.2-7.6-12.4-16-1.3-9.6-4-16.8-12.3-20.6 13.7-5 25-4 39.5-4.2 4.7 0 9.5 3.3 11-2 1-3.8-1.8-12.8-6-13-1.3-3.8 1-11.8-5-11.7-2.4 0-4 3.5-5.5 4.8-2.8 2.2-6.2 3.7-9.5 4.8-7.4 2.5-17 3.6-24.6 4.7-8.3 1-23.3-4-31.5-4.6-14.5-.8-27.3-2.6-41 2.4-4.7 1.8-7.6 5-13 5.4-4.2.4-10.6.8-14.5-1 .4.6.8 1.3 1 2" fill="#ecc832"/><path d="M12.4 66.5c0 1.4.7 2.4 2 3 4 1.7 7.8 4 12 5C32 76 37 78 42.4 80c5.7.2 9.7 4.2 12.7 8.2 17 21 32 45 61.4 48.2 6 1.3 13.5 3.4 21.4 2 7-1.4 13.8-3.2 20.5-5.8 7.4-3 15-5.6 23-6 4 0 7.5-2 10.6-4.6 2.7-2.5 5.3-5 7.2-8.5 2.4-4.2 5-8 7.7-12.2 6.2-10 13.8-18.8 23.7-25.4 1.5-1 3-2.5 4.2-3.8 1.6-1.7 2.5-3.8 2.6-6.2.3-6-2-11-6.4-15-1.4-1.3-2.8-1.6-4.6-.8-5.4 2.5-10.5 5-14 10.3-1.5 2.4-3.3 4.8-5 7.2-7.3 11-17.5 17.6-31 18.6-2 .2-4 .2-6-.6-.6-.2-1-1-1-1.5s.5-1.2 1-1.4c1.5-1 3.3-.4 5-.5 9.2-.7 17.3-4 23.8-11 2.8-3 5.2-6.4 7.4-10 3.6-5.7 7.8-11 14.5-13.3 1.5-.6 3-1.6 4.3-2.5 1.3-1 2.2-2 1.4-3.7-1-2 0-3.6 1.7-4.8l1.6-1c.7-.5 1.3-1.2 1-2-.3-.6-1-1-1.5-1.2-4.4-1-9-2-13.3-3.3-7.2-2.4-14.7-2.8-22.2-3.6-8.2-1-16.3.4-24.4.4-4.6 0-8.8 1.5-12.6 3.7-3.2 2-6.4 4-9.3 6.5-5.4 4.6-10 10-12.7 16.8-1.6 4-.8 6.7 2.7 9.2l1 .5c1.3.8 1.3 2 0 3s-2.6 1.3-4 .3c-4.4-3.5-7.3-8.8-3.3-14.7l.7-1c2.6-4 5-8.2 8.5-11.6.8-.8 2-1.8 1.5-3.2-.6-1.7-2.4-1.3-3.8-1.5l-6.8-.7c-1.3 0-2.6-1.2-3.6-.2-1 1.2 0 2.4.8 3.3 2.2 3 2 6.3 2 9.6.2 2-.7 3.7-2.7 4.5-5 2-10 4.4-15 4.6C103 56 93 58 82 58c6-2 12-4 18-4.3 4.2-.5 8-.6 12-1.5 5.3-1 10-3 13.6-7.4 1-1 1.2-2.2.6-3.4-1.8-3.8-4-7.4-7-10.4-6.7-7-14.3-12.8-22.3-18l-1.8-.7h-.6l-.5 1 2.3 4 9.3 13.3c1.7 2.6 1.2 5-1.3 6.4-1.2.7-2.4.5-3.6.3-7.7-1-15.4-.7-23.2-1-3 0-5.7.7-8.3 2.4-2 1.4-3.3 3-3.5 5.6 0 1.5-.2 3-.5 4.3 0 .3-.5 1-.7 1-.6-.2-1.3-.4-1.6-.8-2-3.4-1-9 2-11.5 3.3-2.8 7-4.8 11.4-4.6H82l12 .6c1.6 0 3.2 0 5-.2 1.3 0 2-1.6 1-2.7-4-4.6-6.4-10.2-10-15-2.7-3.5-4.8-7.4-7-11-.4-.6-.4-1.3-.5-2 0-1.3 1.7-2.8 3-2.2 1 .5 1.8 1 2.6 1.8 2.3 1.6 4.2 3.5 6.5 5 8 5 15.5 10.6 22.7 16.6 1.3 1 2.5 2.3 4 3 5.6 2 11.3 4.3 17.5 4.2 3 0 5.8-.7 8.7.6.6.3 1.6-.2 2.3-.6 1.3-.7 2.5-1.5 3.7-2.4 5.5-3.7 11.5-5.8 18.3-5.5 2.7 0 5.4-.2 8-.6 5.5-.6 11-.8 16.4-.3 7.4.7 14.6 1.7 21.6 4 5 1.6 10.3 1.6 15.5.5 4.4-1 8.7-1.4 13-1.3h5.7c2.4-.2 4.4-1 6.2-2.7 1.7-1.8 3.6-3.4 5.7-4.8 6-4 12 .7 12.6 6 0 .8.2 1.7 0 2.5-.4 2.2.7 3.5 2.6 4.4.8.5 1.7 1 2.5 1.7 2.2 1.8 3 4 2.3 6.7-1.3 5.2-4.7 9-10.7 8.6-4-.2-7.8-.7-11.6-1.8-7.6-2.3-15.3-1.7-23-.5-4.2.6-4.7 2-2 5.2 3 3.4 5 7.3 5.4 11.8.5 8.3-1.6 12.6-8.5 17.6l-4 2.8c-5.7 3.5-10 8.3-13.8 13.6-3 4-5.7 8.3-8.4 12.5-3.3 5.3-5.8 11-10.7 15.3-.7.6-.7 1.5-.4 2.3 2 6.4 8.8 11.2 15.4 10.3 7.6-1 14.5-4 19.8-9.8 3-3.3 5.4-7 7.7-10.7 3.2-5.6 7.6-10.4 12.4-14.8 2.4-2.2 4-4.6 5.6-7.3 1.3-2 1-3.8.5-5.8-.4-1.7-1.4-2.7-2.7-3.3-2-1-4.2-1.8-6.3-2.8-2.5-1.3-5-2.5-6-5.2-.4-.6 0-1.3.4-1.6.2-.2.7-.3 1-.2.6.2 1 .5 1.6 1 6.5 5 14 4.7 21.5 3.8 2.4-.3 4.6-1.3 6.2-3 3.6-3.6 8.4-5.5 12.6-8 2.7-1.8 5.7-1.7 8.2.3 2.6 2 3 5 2 8.5-.3.6-.6 1-.8 1.7-.3 1 0 2 1 2.7.6.2 1.2.3 1.7.6 2.5 1.6 3.6 4 2.8 6.2-1 3-3.6 5.4-6.4 5-4-.8-8 0-11.8.4l-6.2.7c-2 .2-3.8.4-5.5 1-8.6 2.6-16 7-22 13.7-3.8 4.3-7 9-10 13.7-3.5 5.3-7.8 9.8-13.6 12.7-4 2-8.2 3.5-12.5 4.2-6.2 1-11.8-.2-15.8-5.5-1.3-1.7-2.8-3-4-4.8-1.2-1.4-2.4-1.8-4-1-3 1.4-6.4 2-9.7 2.2-2.7.2-5.4.8-8 1.6-4.8 1.5-9.4 3.6-14.2 5-6.8 1.8-13.8 3.4-20.7 5-1.4.3-3 .3-4.4.2-7.3-.8-14.4-2-20.2-4.2-13.3-1.3-25.3-8.3-35.3-16.3-13-11-16-30-32-37-4.8-2-9.7-3.6-14.5-5.2-5-1.6-9.7-3.3-14.3-5.7l-1.3-.4c-1.8-.5-3.6-1-5.5-1.3-2.3-.6-1.8-3.2-3.3-4.4-.3 0-.4-.2-.6-.4C.6 64.4 0 59.2 0 53.5c0-4 3-5.5 6-7.2 2.3-1.4 3.3.6 4.8 1.5 1.5 1 3 1 4.8 1l7.5.6c3.7.4 7.2 0 10.7-.6 2.4-.3 4.3-1.3 5.6-3.6 1-1.8 2.4-3.4 3.8-5 3-3.4 6-7 10.4-9 4-1.8 8.2-3.2 12-5 5.6-2.6 11.3-3.2 17.2-3.4 3.4 0 6.7.6 10 1.5 1 .3 1.5 1.2 1.3 2.4-.4 1.2-1.2 1.8-2.4 1.7l-5-.7c-7.2-1.3-14-.4-21 2.3-2.6 1-5.4 2-8 3.3-6.7 3-11.7 8-15.3 14.3-1.3 2.3-2.7 3.7-5 4-5 1-10 2-15 1-4-.7-8.3 0-13-.3 2.5 4.7 3 9.5 3 14.2zM238.2 40c8-1.6 15.7-1 23.5 1 3.2.7 6.5 1.2 9.8 1.7 2 .3 4.2 0 6-1.2 2.7-1.6 2.8-5 .2-6.7l-1-.6c-4.7-1.5-6.4-4.3-4.7-9 .6-1.8-.7-3.2-2.2-4.2-1.5-1-2.8-.6-4 .3-1.6 1-3.2 2.2-4.5 3.5-3.7 3.7-8.2 5-13.2 4.5-3.7-.3-7.4 0-11 .6-1.3 0-2 .8-1.4 2 1 2.8.3 5-2 6.7-.2.2-.3.8-.2 1 0 .4.6.6 1 1 1.4-.3 2.6-.3 3.8-.6zm41 49.7c4.8-1.3 10 .2 14.8-1.6-.3-2-2.3-2.4-3.3-3.6-1.5-1.7-1.7-3-.6-5l1.8-2.7c.7-1 1-2.3 0-3.4-1-1-2.3-.8-3.5-.3-2.6 1.2-5.3 2.4-7.5 4.4-1.6 1.4-3.3 2.6-5 3.7-3.2 2.2-6.7 3.4-10.5 3.7-2 0-2.6 1.2-2.3 3l1.2 5.3c5.3-1.3 10.2-2 15-3.3zM4 56c.3 1.5.5 3.2 1.2 4.7.7 1.7 1 3.8 2.7 4.7 1 .6 1.4-2.7.4-6.2-.6-2-1-4-2.7-5.5-.2-.2-.7 0-1 0-.3 0-.4.2-.6.4v2z" fill="#49351b"/><path d="M174.7 154.8s-20.2 31-20.7 51c-.3 16.4 6 26.5 19.8 26 7.8-.3 23.5-2.7 19.7-30.5-3.5-25.4-18.8-46.5-18.8-46.5z" fill="#ecc832"/></svg>