<svg xmlns="http://www.w3.org/2000/svg" viewBox="0 0 266.27499 259.48294" height="259.5" width="266.3"><path d="M137.2 83.5L93.4 166l82.6-43.7c18.7 35.3 13.2 80-16.5 109.8-36.5 36.6-95.6 36.6-132 0-36.6-36.4-36.6-95.5 0-132C57 70.2 101.8 64.7 137 83.5z" fill="#ffefdb"/><path d="M93.5 257.2c51.2 0 92.8-41.2 93.4-92.3v1c0 51.6-42 93.4-93.5 93.4C42 259.4 0 217.6 0 166v-1C.7 216 42.3 257 93.6 257z" fill="#ffefdb"/><path d="M164 150.2s-8.5 8-2.8 18c0 0 7.7-7.3 2.8-18z" fill="#10a587"/><path d="M173.8 157.7s-3 8-8.4 11.7c0 0-2-1-4.4-1.2 0 0 .4-9.2 12.8-10.5z" fill="#75b060"/><path d="M152 154.3s.4 8.5 4.4 13.7c0 0 2-.3 4.5.2 0 0 2.4-9-9-14z" fill="#75b060"/><path d="M155.4 204c-10.7-1.7-15.5-21.6-14.6-27.3 1-7 7.7-11.6 14.8-10.5 2 .3 3.8 1 5.4 2 1.8-.4 3.8-.6 5.8-.3 7 1 12 7.5 11 14.4-1 5.7-11.7 23.2-22.4 21.6z" fill="#d64642"/><path d="M171 175.5c0 .6.4 1.2 1 1.3.6 0 1.2-.3 1.3-1 0-.5-.3-1-1-1.2-.6 0-1 .3-1.2 1zM163 174.3c0 .6.4 1.2 1 1.3.6 0 1.2-.3 1.3-1 0-.5-.3-1-1-1.2-.6-.2-1 .3-1.2 1zM155 173c0 .6.4 1.2 1 1.3.6 0 1.2-.3 1.3-1 0-.5-.3-1-1-1.2-.6 0-1 .4-1.2 1zM147.6 171.8c0 .6.3 1.2 1 1.3.5.2 1-.2 1.2-.8 0-.6-.3-1.2-1-1.3-.5-.2-1 .2-1.2.8zM169.6 185c0 .7.3 1.3 1 1.4.5 0 1-.3 1.2-1 0-.5-.3-1-1-1.2-.6 0-1 .3-1.2 1zM161.6 184c0 .5.3 1 1 1.2.5 0 1-.3 1.2-1 0-.5-.3-1-1-1.2-.6 0-1 .3-1.2 1z" fill="#69303a"/><circle cx="154.7" cy="182.8" r="1.1" fill="#69303a"/><path d="M145.8 181.4c0 .6.3 1.2 1 1.3.5 0 1-.3 1.2-1 0-.5-.3-1-1-1.2-.5 0-1 .3-1.2 1zM166.2 179.7c0 .6.3 1.2 1 1.3.5 0 1-.3 1.2-1 0-.5-.3-1-1-1.2-.6 0-1 .3-1.2 1zM158.2 178.4c0 .6.3 1.2 1 1.3.5 0 1-.3 1.2-1 0-.5-.3-1-1-1.2-.6 0-1 .3-1.2 1zM150.6 177.2c0 .6.3 1.2 1 1.3.5 0 1-.3 1.2-1 0-.5-.3-1-1-1.2-.5 0-1 .3-1.2 1zM160 193.5c0 .6.4 1.2 1 1.3.6 0 1.2-.3 1.3-1 0-.5-.3-1-1-1.2-.6 0-1.2.3-1.2 1zM152 192.3c0 .6.3 1.2 1 1.3.5 0 1-.3 1.2-1 0-.5-.3-1-1-1.2-.5 0-1 .3-1.2 1zM164.6 189.3c0 .6.3 1.2 1 1.3.5 0 1-.3 1.2-1 0-.5-.3-1-1-1.2-.5 0-1 .3-1.2 1zM156.6 188c0 .7.3 1.3 1 1.4.5 0 1-.3 1.2-1 0-.5-.3-1-1-1.2-.5-.2-1 .3-1.2 1zM148.8 186.8c0 .6.3 1.2 1 1.3.5.2 1-.2 1.2-.8 0-.6-.3-1.2-1-1.3-.5-.2-1 .2-1.2.8zM155 197.7c0 .6.4 1.2 1 1.3.6 0 1.2-.3 1.3-1 0-.5-.3-1-1-1.2-.5 0-1 .3-1.2 1z" fill="#69303a"/><path d="M139 210.2s-11-3.4-17 6.5c.2 0 10.4 3 17-6.5z" fill="#10a587"/><path d="M137.5 222.5s-8.4 1.4-14.3-1.4c0 0 0-2-1-4.3 0 0 8-4.3 15.3 5.8z" fill="#75b060"/><path d="M129.6 202s-7.2 4.6-9.7 10.6c0 0 1.2 1.6 2 4 0 0 9-2.3 7.6-14.7z" fill="#75b060"/><path d="M88.3 229.7c-4-10 11-24.2 16.3-26.3 6.5-2.5 14 1 16.5 7.6.8 2 1 4 1 5.8 1.4 1.3 2.5 3 3.2 4.8 2.6 6.7-.6 14.2-7 16.7-5.5 2-26 1.5-30-8.6z" fill="#d64642"/><path d="M120.8 229c-.6.2-.8 1-.6 1.4.2.6 1 1 1.4.6.6-.2.8-1 .6-1.4-.2-.5-.8-.8-1.4-.6zM118 221.5c-.7.2-1 1-.7 1.4.2.5 1 .7 1.4.5.6-.2 1-1 .6-1.4-.2-.5-1-.7-1.4-.5zM115 214c-.6 0-.8.8-.6 1.3.2.6 1 .8 1.4.6.6-.3 1-1 .6-1.5-.2-.5-1-.8-1.4-.6zM112.3 207c-.6 0-1 .7-.7 1.3.2.6.8 1 1.4.7.6-.2 1-.8.7-1.4-.2-.6-1-1-1.4-.7zM111.7 232.5c-.6.2-1 1-.6 1.4.3.5 1 .7 1.5.5.6-.2.8-1 .6-1.4 0-.4-.7-.7-1.3-.5zM108.8 225c-.6.2-.8 1-.6 1.4.2.6 1 1 1.4.6.6-.2 1-1 .6-1.4-.2-.5-1-.8-1.4-.6zM106 217.4c-.7.2-1 1-.7 1.4.2.6 1 .8 1.4.6.6-.2.8-1 .6-1.4-.2-.5-1-.8-1.4-.6zM103 210c-.5.3-.8 1-.6 1.5.2.6.8 1 1.4.7.6-.2 1-.8.7-1.4-.2-.6-1-1-1.4-.7zM114.7 227c-.6 0-.8.8-.6 1.3.3.6 1 .8 1.5.6.6-.3.8-1 .6-1.5 0-.6-.7-1-1.3-.6zM111.8 219.3c-.6.2-.8 1-.6 1.4.2.6 1 .8 1.4.6.6-.2.8-1 .6-1.4-.2-.6-.8-1-1.4-.7zM109 212c-.5.3-.8 1-.6 1.5.2.6.8 1 1.4.7.6-.2 1-.8.7-1.4-.2-.6-1-1-1.4-.7zM99.7 228.5c-.6.2-1 1-.6 1.4.3.5 1 .8 1.5.5.6-.2.8-1 .6-1.4 0-.4-.8-.7-1.3-.5zM96.8 221c-.6 0-1 .8-.6 1.3.2.6 1 .8 1.4.6.6-.3 1-1 .6-1.5-.2-.5-1-.8-1.4-.6zM105.6 230.4c-.6.2-1 1-.6 1.4.2.6 1 .8 1.4.6.6-.2.8-1 .6-1.4-.2-.6-.8-.8-1.4-.6zM102.7 222.8c-.6.2-1 1-.6 1.4.3.6 1 .8 1.5.6.6-.2.8-1 .6-1.4 0-.5-.7-.8-1.3-.6zM100 215.4c-.7.2-1 .8-.8 1.4.2.6.8 1 1.4.7.6-.2 1-.8.7-1.4-.2-.5-1-.8-1.4-.6zM93.6 226.3c-.6.2-.8 1-.6 1.4.2.6 1 .8 1.4.6.6-.2 1-1 .6-1.4-.2-.6-.8-1-1.4-.7z" fill="#69303a"/><path d="M22.4 198.7s6.3 9.7 17.2 5.8c0 0-5.8-9-17.2-5.8z" fill="#10a587"/><path d="M31.5 190.3s7.4 4.3 10 10.2c0 0-1 1.7-1.8 4 0 0-9-1.8-8.2-14.2z" fill="#75b060"/><path d="M24.5 211s8.5 1 14.2-2c0 0 0-2 1-4.5 0 0-8.4-3.7-15.2 6.6z" fill="#75b060"/><path d="M74 216c-3.4 10.4-24 11.8-29.3 10-6.6-2.2-10.2-9.5-8-16.3.7-2 1.8-3.6 3-5 0-2 0-4 .7-5.8 2.3-7 9.5-10.6 16-8.4 5.6 1.7 21 15.2 17.6 25.5z" fill="#d64642"/><path d="M48.6 196c.6 0 1.2-.2 1.4-.8.2-.6 0-1.2-.7-1.4-.6-.2-1.2 0-1.4.7-.3.6 0 1.2.6 1.4zM46 203.6c.6.2 1.2 0 1.4-.7.2-.7 0-1.3-.7-1.5-.6-.2-1.2 0-1.4.7-.2.5 0 1.2.7 1.4zM43.4 211.2c.6.2 1.2 0 1.4-.7.2-.6 0-1.2-.7-1.4-.5 0-1 .2-1.3.8-.2.6.2 1.2.7 1.4zM41 218.4c.6.2 1.2 0 1.4-.7.2-.6 0-1.2-.7-1.4-.6-.2-1.2 0-1.4.7 0 .5.2 1.2.7 1.4zM57.8 199c.6.2 1.2 0 1.4-.7.2-.6 0-1.2-.7-1.4-.6-.3-1.2 0-1.4.6 0 .6.2 1.2.8 1.4zM55.2 206.6c.6.2 1.2 0 1.4-.7.2-.7 0-1.3-.7-1.5-.7-.2-1.3 0-1.5.7 0 .6.2 1.3.7 1.4z" fill="#69303a"/><circle cx="53" cy="213.3" r="1.1" fill="#69303a"/><path d="M50.2 221.7c.6.2 1.2 0 1.4-.6.2-.5 0-1-.7-1.3-.7-.2-1.3 0-1.5.7-.2.5 0 1 .7 1.3zM51.8 201.4c.6.2 1.2 0 1.4-.7.2-.6 0-1.2-.7-1.4-.6-.2-1.2 0-1.4.7 0 .6.3 1.2.8 1.4z" fill="#69303a"/><circle cx="49.6" cy="208.1" r="1.1" fill="#69303a"/><path d="M46.8 216.4c.6.2 1.2 0 1.4-.7.2-.6 0-1.2-.7-1.4-.6-.2-1.2 0-1.4.7 0 .5.3 1.2.8 1.4zM64.5 209.7c.6.2 1.2 0 1.4-.7 0-.6-.2-1.2-.8-1.4-.6-.2-1.2 0-1.4.7-.2.6 0 1.2.7 1.4zM62 217.4c.5.2 1 0 1.3-.7.2-.6 0-1.2-.7-1.4-.6-.2-1.2 0-1.4.7-.2.6 0 1.2.7 1.4zM61 204.5c.7.2 1.3 0 1.5-.7.2-.6 0-1.2-.7-1.4-.6-.2-1.2 0-1.4.7-.2.7 0 1.3.7 1.5zM58.5 212.2c.6.2 1.2 0 1.4-.7 0-.6-.2-1.2-.8-1.4-.6 0-1.2.2-1.4.8-.2.6.2 1.2.7 1.4zM56 219.7c.6.2 1.2 0 1.4-.7.2-.6 0-1.2-.7-1.4-.6-.2-1.2 0-1.4.7-.2.6 0 1.2.7 1.4zM67.8 215.3c.6.2 1.2 0 1.4-.7.2-.6 0-1.2-.7-1.4-.6-.2-1.2 0-1.4.7 0 .5.2 1 .8 1.3z" fill="#69303a"/><path d="M17 179.5s10.3-5.3 7.5-16.5c0 0-9.4 5-7.5 16.5z" fill="#10a587"/><path d="M9.6 169.6s5-7 11.2-9c0 0 1.5 1.4 4 2.4 0 0-3 8.7-15.2 6.6z" fill="#75b060"/><path d="M29.6 178.7s2-8.3-.6-14.4c0 0-2-.2-4.3-1.4 0 0-4.7 7.8 5 15.7z" fill="#75b060"/><path d="M39.7 130c9.8 4.5 9 25 6.8 30.2-3 6.4-10.6 9-17 6-2-.7-3.5-2-4.7-3.4-2 0-3.8-.4-5.7-1.2-6.4-3-9.4-10.6-6.5-17 2.4-5 17.4-19 27.2-14.6z" fill="#d64642"/><path d="M17 153.2c.2-.6 0-1.2-.5-1.5-.6-.3-1.2 0-1.5.5-.3.6 0 1.2.5 1.5.6.3 1.2 0 1.5-.5zM24.3 156.6c.3-.5 0-1.2-.5-1.5-.5 0-1.2 0-1.5.6-.3.6 0 1.2.5 1.5.6.4 1.3 0 1.5-.4zM31.7 160c.2-.6 0-1.3-.5-1.6-.6-.3-1.2 0-1.5.5-.3.5 0 1 .5 1.4.6.3 1.2 0 1.5-.5zM38.5 163c.3-.4 0-1-.5-1.4-.5-.3-1.2 0-1.5.5-.3.6 0 1.3.5 1.6.6.2 1.3 0 1.5-.5zM21 144.3c.3-.6 0-1.2-.5-1.5-.6-.3-1.2 0-1.5.5-.2.5 0 1.2.5 1.5.6.3 1.3 0 1.5-.5zM28.4 147.7c.2-.6 0-1.2-.5-1.5-.7-.3-1.3 0-1.6.5-.3.5 0 1.2.5 1.5.5.3 1 0 1.4-.5zM35.7 151c.3-.5 0-1-.5-1.4-.5-.3-1.2 0-1.5.5-.2.7 0 1.3.5 1.6.6.3 1.3 0 1.5-.5zM43 154.3c.2-.5 0-1.2-.6-1.5-.5-.3-1.2 0-1.5.5-.4.5 0 1.2.4 1.5.5.3 1.2 0 1.5-.5zM22.8 150.5c.3-.6 0-1.2-.5-1.5-.6-.3-1.2 0-1.5.5-.3.6 0 1.2.5 1.5.6.3 1.3 0 1.5-.5zM30.2 154c.3-.6 0-1.3-.5-1.6-.5-.3-1.2 0-1.5.5-.3.5 0 1 .5 1.4.6.3 1.2 0 1.5-.5zM37.2 157c.3-.4 0-1-.5-1.4-.5-.3-1.2 0-1.5.5-.3.6 0 1.3.5 1.6.5.2 1.2 0 1.5-.5zM32.4 138.8c.3-.6 0-1.2-.5-1.5-.7-.3-1.3 0-1.6.5-.2.6 0 1.2.5 1.5.5.3 1.2 0 1.4-.5zM39.8 142.2c.3-.6 0-1.2-.5-1.5-.6-.3-1.2 0-1.5.5-.3.6 0 1.2.5 1.5.6.3 1.2 0 1.5-.5zM27 141.7c.2-.6 0-1.2-.6-1.5-.5-.2-1.2 0-1.5.5-.3.6 0 1.2.4 1.5.6.2 1.2 0 1.5-.5zM34.2 145c.3-.6 0-1.2-.5-1.5-.6-.3-1.2 0-1.5.5-.3.5 0 1.2.5 1.5.6.3 1.3 0 1.5-.5zM41.5 148.3c.3-.5 0-1.2-.5-1.5-.5-.3-1.2 0-1.5.5-.3.5 0 1.2.5 1.5.5.3 1.2 0 1.5-.5zM38.3 136c.3-.5 0-1-.5-1.4-.6-.3-1.2 0-1.5.5-.3.7 0 1.3.5 1.6.6.3 1.2 0 1.5-.5z" fill="#69303a"/><path d="M43.5 108.7s10 5.7 18-2.8c0 0-9.4-5.2-18 2.7z" fill="#10a587"/><path d="M47.6 97s8.5.6 13.7 4.5c0 0-.3 2 .2 4.6 0 0-9 2.5-14-9z" fill="#75b060"/><path d="M51 119s8-3 11.7-8.5c0 0-1-2-1.2-4.4 0 0-9.2.5-10.5 13z" fill="#75b060"/><path d="M97.3 100.6c1.7 10.7-16 21.4-21.5 22.2-7 1-13.4-3.8-14.5-11-.3-2-.2-4 .4-5.7-1-1.5-1.8-3.3-2-5.3C58.4 93.7 63 87 70 86c5.7-1 25.6 4 27.3 14.6z" fill="#d64642"/><path d="M65.4 94.3c.6 0 1-.7 1-1.3-.2-.6-.8-1-1.4-1-.6.2-1 .8-1 1.4.2.6.8 1 1.4 1zM66.6 102.3c.6 0 1-.7 1-1.3-.2-.6-.8-1-1.4-1-.6.2-1 .8-1 1.4.3.6.8 1 1.4 1zM68 110.3c.5 0 1-.7.8-1.3 0-.6-.7-1-1.2-1-.6.2-1 .8-1 1.4 0 .6.7 1 1.3 1zM69 117.7c.6 0 1-.6 1-1.2s-.6-1-1.2-1-1 .6-1 1.2c0 .7.6 1 1.2 1zM75 92.8c.6 0 1-.7 1-1.2-.2-.6-.8-1-1.4-1-.6.2-1 .8-1 1.4.3.5.8 1 1.4.8zM76.3 100.8c.6 0 1-.7 1-1.3-.2-.6-.8-1-1.4-1-.7.2-1 .8-1 1.4 0 .5.7 1 1.3.8zM77.5 108.8c.6 0 1-.7 1-1.3-.2-.6-.8-1-1.4-1-.5.2-1 .8-.8 1.4 0 .5.7 1 1.3.8zM78.7 116.5c.6 0 1-.6 1-1.2s-.6-1-1.2-1-1 .6-1 1.2c0 .7.6 1 1.2 1zM70.8 97.7c.6 0 1-.7 1-1.3-.2-.6-.8-1-1.3-1-.6.2-1 .8-1 1.4.2.6.7 1 1.3 1zM72 105.7c.7 0 1-.7 1-1.3 0-.6-.7-1-1.3-1-.6.2-1 .8-1 1.4.2.6.8 1 1.4 1zM73.3 113.3c.6 0 1-.6 1-1.2 0-.5-.6-1-1.2-1-.5.2-1 .7-1 1.3 0 .6.6 1 1.3 1zM86 99.3c.5 0 1-.7.8-1.2 0-.5-.7-1-1.3-.8-.6 0-1 .7-1 1.3.2.5.8 1 1.4.8zM87 107.3c.7 0 1-.7 1-1.3 0-.6-.7-1-1.3-1-.6.2-1 .8-1 1.4.3.6.8 1 1.4 1zM80.5 96.2c.6 0 1-.7 1-1.3-.2-.7-.8-1-1.4-1-.5 0-1 .7-.8 1.3 0 .6.7 1 1.3 1zM81.7 104.2c.6 0 1-.7 1-1.3-.2-.7-.8-1-1.4-1-.6 0-1 .7-1 1.3.3.6.8 1 1.4 1zM83 112c.5 0 1-.5 1-1-.2-.7-.7-1-1.3-1-.6 0-1 .5-1 1 0 .7.6 1.2 1.2 1zM91.4 102.7c.6 0 1-.7 1-1.3-.2-.6-.8-1-1.4-1-.6.2-1 .8-1 1.4.2.6.8 1 1.4 1z" fill="#69303a"/><circle cx="162.6" cy="96.5" r="1.4" fill="#936750"/><circle cx="131.8" cy="110.9" r="1.4" fill="#936750"/><circle cx="129.6" cy="141.2" r="1.4" fill="#936750"/><circle cx="112.7" cy="146.4" r="1.4" fill="#936750"/><circle cx="177.5" cy="93.7" r=".8" fill="#936750"/><circle cx="163.4" cy="90.3" r=".8" fill="#936750"/><circle cx="164.5" cy="107.6" r=".8" fill="#936750"/><circle cx="148.5" cy="127.2" r=".8" fill="#936750"/><circle cx="136.8" cy="128.1" r=".8" fill="#936750"/><circle cx="126.4" cy="130.3" r=".8" fill="#936750"/><circle cx="134.1" cy="128.1" r=".8" fill="#936750"/><circle cx="106.6" cy="152" r=".8" fill="#936750"/><path d="M111.4 139.5c0 .4.2 1 .6 1 .4 0 1-.2 1-.6 0-.5-.2-1-.6-1-.5-.2-1 0-1 .5z" fill="#936750"/><circle cx="172" cy="104.8" r=".5" fill="#936750"/><circle cx="198.5" cy="108.4" r=".5" fill="#936750"/><circle cx="143.4" cy="135.1" r=".5" fill="#936750"/><circle cx="115.1" cy="131.1" r=".5" fill="#936750"/><circle cx="116.2" cy="143.8" r=".5" fill="#936750"/><path d="M166 54.3l11-47c1.2-4.8 6-7.8 10.7-6.7L266 19l-13 55.7-87-20.4z" fill="#936750"/><circle cx="256.1" cy="25.9" r="1.8" opacity=".5" fill="#936750"/><circle cx="236.4" cy="51.6" r="1.8" opacity=".5" fill="#936750"/><circle cx="188.4" cy="28.6" r="1.8" opacity=".5" fill="#936750"/><circle cx="198.5" cy="8.2" r="1.8" opacity=".5" fill="#936750"/><circle cx="194.4" cy="55.6" r="1.8" opacity=".5" fill="#936750"/><circle cx="246.3" cy="67.7" r="1.8" opacity=".5" fill="#936750"/><circle cx="176.6" cy="49.5" r="1.8" opacity=".5" fill="#936750"/><circle cx="219.1" cy="31.9" r="1.8" opacity=".5" fill="#936750"/><circle cx="251.5" cy="24.8" r=".9" opacity=".5" fill="#936750"/><circle cx="249.5" cy="29.5" r=".9" opacity=".5" fill="#936750"/><circle cx="215.2" cy="40.7" r=".9" opacity=".5" fill="#936750"/><circle cx="187.6" cy="46.8" r=".9" opacity=".5" fill="#936750"/><circle cx="183.8" cy="30.8" r=".9" opacity=".5" fill="#936750"/><circle cx="204.2" cy="35.1" r=".9" opacity=".5" fill="#936750"/><path d="M191.4 11.7c0 .5.2 1 .7 1 .6.2 1 0 1.2-.6 0-.4-.2-1-.7-1-.5 0-1 .2-1 .7z" opacity=".5" fill="#936750"/><circle cx="189.7" cy="5.7" r=".9" opacity=".5" fill="#936750"/><circle cx="203.2" cy="54.4" r=".9" opacity=".5" fill="#936750"/><circle cx="242.3" cy="68.2" r=".9" opacity=".5" fill="#936750"/><circle cx="245.3" cy="63.8" r=".9" opacity=".5" fill="#936750"/><circle cx="244.1" cy="48.4" r=".9" opacity=".5" fill="#936750"/><circle cx="230.2" cy="54.9" r=".9" opacity=".5" fill="#936750"/><circle cx="233" cy="49.7" r=".9" opacity=".5" fill="#936750"/><circle cx="215.7" cy="34.5" r=".9" opacity=".5" fill="#936750"/><circle cx="226.9" cy="15.9" r=".9" opacity=".5" fill="#936750"/><circle cx="224.1" cy="18.4" r=".9" opacity=".5" fill="#936750"/><circle cx="171.3" cy="39" r=".9" opacity=".5" fill="#936750"/><circle cx="235.2" cy="33.8" r=".9" opacity=".5" fill="#936750"/><circle cx="244.7" cy="17.1" r=".9" opacity=".5" fill="#936750"/><circle cx="257.6" cy="45.2" r=".9" opacity=".5" fill="#936750"/><circle cx="256.4" cy="30.2" r=".5" opacity=".5" fill="#936750"/><circle cx="263.4" cy="20.5" r=".5" opacity=".5" fill="#936750"/><circle cx="251.7" cy="17.8" r=".5" opacity=".5" fill="#936750"/><circle cx="226.5" cy="37" r=".5" opacity=".5" fill="#936750"/><circle cx="233.2" cy="53" r=".5" opacity=".5" fill="#936750"/><circle cx="243.8" cy="39.2" r=".5" opacity=".5" fill="#936750"/><circle cx="214.9" cy="12.6" r=".5" opacity=".5" fill="#936750"/><circle cx="235.5" cy="60.5" r=".5" opacity=".5" fill="#936750"/><circle cx="252.1" cy="73" r=".5" opacity=".5" fill="#936750"/><circle cx="251.3" cy="61.7" r=".5" opacity=".5" fill="#936750"/><circle cx="253.7" cy="46.4" r=".5" opacity=".5" fill="#936750"/><circle cx="221.1" cy="64.2" r=".5" opacity=".5" fill="#936750"/><circle cx="197.9" cy="48.7" r=".5" opacity=".5" fill="#936750"/><circle cx="198.2" cy="55.5" r=".5" opacity=".5" fill="#936750"/><circle cx="187.2" cy="56.7" r=".5" opacity=".5" fill="#936750"/><circle cx="179.5" cy="49.3" r=".5" opacity=".5" fill="#936750"/><circle cx="174.2" cy="38.7" r=".5" opacity=".5" fill="#936750"/><circle cx="195.8" cy="32.7" r=".5" opacity=".5" fill="#936750"/><circle cx="191.6" cy="25.5" r=".5" opacity=".5" fill="#936750"/><circle cx="196.3" cy="12.9" r=".5" opacity=".5" fill="#936750"/><circle cx="181" cy="5.2" r=".5" opacity=".5" fill="#936750"/><circle cx="182.6" cy="19.3" r=".5" opacity=".5" fill="#936750"/><circle cx="237.1" cy="23.4" r=".5" opacity=".5" fill="#936750"/><circle cx="205.2" cy="20.1" r=".5" opacity=".5" fill="#936750"/><circle cx="217.5" cy="51.4" r=".5" opacity=".5" fill="#936750"/><path fill="#fff" d="M260.3 43.7l-82-19.2 2-8.6 82 19z"/><path fill="#d64642" d="M255.6 64l-82-19 2.2-8.7 81.8 19.2z"/><path d="M188 .2l78.3 18.3-1.4 6-73-17.2c-4.8-1-9.6 1.8-10.7 6.6l-9.8 41.6-5.3-1.3 11-47c1-4.8 6-8.2 10.7-7z" fill="#ffefdb"/><circle cx="218.5" cy="71.7" r=".8" fill="#936750"/><circle cx="210.9" cy="73.6" r=".8" fill="#936750"/><circle cx="202.1" cy="73.8" r=".8" fill="#936750"/><circle cx="208" cy="72.4" r="1.4" fill="#936750"/><circle cx="204.1" cy="83.5" r="1.4" fill="#936750"/><circle cx="191.1" cy="61" r="1.4" fill="#936750"/><circle cx="199.9" cy="79.3" r=".5" fill="#936750"/><circle cx="202.9" cy="65.9" r=".5" fill="#936750"/></svg>