<svg
   xmlns:i="&amp;#38;ns_ai;"
   xmlns:dc="http://purl.org/dc/elements/1.1/"
   xmlns:cc="http://creativecommons.org/ns#"
   xmlns:rdf="http://www.w3.org/1999/02/22-rdf-syntax-ns#"
   xmlns:svg="http://www.w3.org/2000/svg"
   xmlns="http://www.w3.org/2000/svg"
   xmlns:xlink="http://www.w3.org/1999/xlink"
   xmlns:sodipodi="http://sodipodi.sourceforge.net/DTD/sodipodi-0.dtd"
   xmlns:inkscape="http://www.inkscape.org/namespaces/inkscape"
   version="1.1"
   id="Capa_1"
   x="0px"
   y="0px"
   width="159.37003"
   height="136.38287"
   viewBox="0 0 159.37002 136.38288">
<switch
   id="switch3"
   transform="matrix(0.82275879,-0.56839069,0.56839069,0.82275879,-411.80993,-370.88914)"
   style="fill:#ffe0b2;fill-opacity:1">
	<g
   id="g5"
   style="fill:#ffe0b2;fill-opacity:1">
		<g
   id="g7"
   style="fill:#ffe0b2;fill-opacity:1">
			<g
   id="g9"
   style="fill:#ffe0b2;fill-opacity:1">
				<defs
   id="defs11">
					<rect
   id="SVGID_1_"
   x="33.605999"
   y="28.757"
   width="90.216003"
   height="92.724998" />
				</defs>
				<clipPath
   id="SVGID_2_">
					<use
   xlink:href="#SVGID_1_"
   overflow="visible"
   id="use15"
   style="overflow:visible"
   x="0"
   y="0"
   width="100%"
   height="100%" />
				</clipPath>
			</g>
			<g
   id="g21"
   style="fill:#ffe0b2;fill-opacity:1">
				<defs
   id="defs23">
					<path
   id="SVGID_3_"
   d="m 63.674,85.834 c -1.185,0.252 -1.941,1.416 -1.689,2.604 0.252,1.186 1.417,1.943 2.604,1.691 1.186,-0.254 1.942,-1.42 1.69,-2.605 -0.22,-1.031 -1.131,-1.738 -2.146,-1.738 -0.152,-0.001 -0.305,0.015 -0.459,0.048"
   inkscape:connector-curvature="0" />
				</defs>
				<clipPath
   id="SVGID_4_">
					<use
   xlink:href="#SVGID_3_"
   overflow="visible"
   id="use27"
   style="overflow:visible"
   x="0"
   y="0"
   width="100%"
   height="100%" />
				</clipPath>
				
					<radialGradient
   id="SVGID_5_"
   cx="68.982903"
   cy="1104.0332"
   r="0.9993"
   gradientTransform="matrix(2.6066,-0.554,-0.554,-2.6066,495.9531,3003.9707)"
   gradientUnits="userSpaceOnUse">
					<stop
   offset="0"
   style="stop-color:#FFFFFF"
   id="stop30" />
					<stop
   offset="0.631"
   style="stop-color:#FEFEFD"
   id="stop32" />
					<stop
   offset="0.8633"
   style="stop-color:#FCFCF5"
   id="stop34" />
					<stop
   offset="1"
   style="stop-color:#F9F9EB"
   id="stop36" />
				</radialGradient>
				<polygon
   clip-path="url(#SVGID_4_)"
   points="67.465,90.182 61.939,91.355 60.798,85.984 66.323,84.809 "
   id="polygon38"
   style="fill:#ffe0b2;fill-opacity:1" />
			</g>
			<g
   id="g40"
   style="fill:#ffe0b2;fill-opacity:1">
				<defs
   id="defs42">
					<path
   id="SVGID_6_"
   d="m 91.251,67.232 c -1.185,0.252 -1.941,1.417 -1.689,2.604 0.252,1.186 1.417,1.942 2.604,1.69 1.185,-0.252 1.941,-1.418 1.689,-2.603 -0.219,-1.032 -1.131,-1.74 -2.145,-1.74 -0.151,0 -0.305,0.016 -0.459,0.049"
   inkscape:connector-curvature="0" />
				</defs>
				<clipPath
   id="SVGID_7_">
					<use
   xlink:href="#SVGID_6_"
   overflow="visible"
   id="use46"
   style="overflow:visible"
   x="0"
   y="0"
   width="100%"
   height="100%" />
				</clipPath>
				
					<radialGradient
   id="SVGID_8_"
   cx="68.983398"
   cy="1104.0342"
   r="0.9993"
   gradientTransform="matrix(2.6066,-0.554,-0.554,-2.6066,523.5293,2985.373)"
   gradientUnits="userSpaceOnUse">
					<stop
   offset="0"
   style="stop-color:#FFFFFF"
   id="stop49" />
					<stop
   offset="0.631"
   style="stop-color:#FEFEFD"
   id="stop51" />
					<stop
   offset="0.8633"
   style="stop-color:#FCFCF5"
   id="stop53" />
					<stop
   offset="1"
   style="stop-color:#F9F9EB"
   id="stop55" />
				</radialGradient>
				
			</g>
			<g
   id="g59"
   style="fill:#ffe0b2;fill-opacity:1">
				<defs
   id="defs61">
					<path
   id="SVGID_9_"
   d="m 64.604,94.352 c -1.186,0.252 -1.941,1.416 -1.689,2.602 0.252,1.188 1.416,1.943 2.603,1.691 1.187,-0.252 1.942,-1.418 1.69,-2.604 -0.22,-1.031 -1.131,-1.738 -2.146,-1.738 -0.152,0 -0.304,0.015 -0.458,0.049"
   inkscape:connector-curvature="0" />
				</defs>
				<clipPath
   id="SVGID_10_">
					<use
   xlink:href="#SVGID_9_"
   overflow="visible"
   id="use65"
   style="overflow:visible"
   x="0"
   y="0"
   width="100%"
   height="100%" />
				</clipPath>
				
					<radialGradient
   id="SVGID_11_"
   cx="68.982399"
   cy="1104.0312"
   r="1.0007"
   gradientTransform="matrix(2.6066,-0.554,-0.554,-2.6066,496.8809,3012.4863)"
   gradientUnits="userSpaceOnUse">
					<stop
   offset="0"
   style="stop-color:#FFFFFF"
   id="stop68" />
					<stop
   offset="0.631"
   style="stop-color:#FEFEFD"
   id="stop70" />
					<stop
   offset="0.8633"
   style="stop-color:#FCFCF5"
   id="stop72" />
					<stop
   offset="1"
   style="stop-color:#F9F9EB"
   id="stop74" />
				</radialGradient>
				<polygon
   clip-path="url(#SVGID_10_)"
   points="68.395,98.699 62.869,99.873 61.727,94.5 67.252,93.326 "
   id="polygon76"
   style="fill:#ffe0b2;fill-opacity:1" />
			</g>
			<g
   id="g78"
   style="fill:#ffe0b2;fill-opacity:1">
				<defs
   id="defs80">
					<path
   id="SVGID_12_"
   d="m 96.55,78.025 c -1.186,0.252 -1.942,1.416 -1.69,2.604 0.252,1.186 1.418,1.941 2.603,1.689 1.187,-0.252 1.943,-1.418 1.69,-2.602 -0.219,-1.033 -1.13,-1.74 -2.144,-1.74 -0.152,0.001 -0.305,0.016 -0.459,0.049"
   inkscape:connector-curvature="0" />
				</defs>
				<clipPath
   id="SVGID_13_">
					<use
   xlink:href="#SVGID_12_"
   overflow="visible"
   id="use84"
   style="overflow:visible"
   x="0"
   y="0"
   width="100%"
   height="100%" />
				</clipPath>
				
					<radialGradient
   id="SVGID_14_"
   cx="68.982903"
   cy="1104.0322"
   r="1.0005"
   gradientTransform="matrix(2.6066,-0.554,-0.554,-2.6066,528.8281,2996.1582)"
   gradientUnits="userSpaceOnUse">
					<stop
   offset="0"
   style="stop-color:#FFFFFF"
   id="stop87" />
					<stop
   offset="0.631"
   style="stop-color:#FEFEFD"
   id="stop89" />
					<stop
   offset="0.8633"
   style="stop-color:#FCFCF5"
   id="stop91" />
					<stop
   offset="1"
   style="stop-color:#F9F9EB"
   id="stop93" />
				</radialGradient>
				
			</g>
			<g
   id="g97"
   style="fill:#ffe0b2;fill-opacity:1">
				<defs
   id="defs99">
					<path
   id="SVGID_15_"
   d="m 72.725,92.223 c -1.186,0.252 -1.942,1.418 -1.689,2.604 0.252,1.186 1.418,1.943 2.604,1.691 1.185,-0.252 1.941,-1.418 1.689,-2.605 -0.219,-1.029 -1.13,-1.736 -2.145,-1.736 -0.152,-0.001 -0.305,0.012 -0.459,0.046"
   inkscape:connector-curvature="0" />
				</defs>
				<clipPath
   id="SVGID_16_">
					<use
   xlink:href="#SVGID_15_"
   overflow="visible"
   id="use103"
   style="overflow:visible"
   x="0"
   y="0"
   width="100%"
   height="100%" />
				</clipPath>
				
					<radialGradient
   id="SVGID_17_"
   cx="68.982903"
   cy="1104.0322"
   r="1"
   gradientTransform="matrix(2.6066,-0.554,-0.554,-2.6066,505.0029,3010.3574)"
   gradientUnits="userSpaceOnUse">
					<stop
   offset="0"
   style="stop-color:#FFFFFF"
   id="stop106" />
					<stop
   offset="0.631"
   style="stop-color:#FEFEFD"
   id="stop108" />
					<stop
   offset="0.8633"
   style="stop-color:#FCFCF5"
   id="stop110" />
					<stop
   offset="1"
   style="stop-color:#F9F9EB"
   id="stop112" />
				</radialGradient>
				
			</g>
			<g
   id="g116"
   style="fill:#ffe0b2;fill-opacity:1">
				<defs
   id="defs118">
					<path
   id="SVGID_18_"
   d="m 101.983,69.658 c -1.186,0.252 -1.943,1.418 -1.691,2.604 0.252,1.186 1.418,1.942 2.604,1.69 1.186,-0.253 1.943,-1.417 1.691,-2.604 -0.219,-1.031 -1.131,-1.738 -2.146,-1.738 -0.151,0 -0.303,0.015 -0.458,0.048"
   inkscape:connector-curvature="0" />
				</defs>
				<clipPath
   id="SVGID_19_">
					<use
   xlink:href="#SVGID_18_"
   overflow="visible"
   id="use122"
   style="overflow:visible"
   x="0"
   y="0"
   width="100%"
   height="100%" />
				</clipPath>
				
					<radialGradient
   id="SVGID_20_"
   cx="68.983398"
   cy="1104.0322"
   r="0.99980003"
   gradientTransform="matrix(2.6066,-0.554,-0.554,-2.6066,534.2607,2987.7949)"
   gradientUnits="userSpaceOnUse">
					<stop
   offset="0"
   style="stop-color:#FFFFFF"
   id="stop125" />
					<stop
   offset="0.631"
   style="stop-color:#FEFEFD"
   id="stop127" />
					<stop
   offset="0.8633"
   style="stop-color:#FCFCF5"
   id="stop129" />
					<stop
   offset="1"
   style="stop-color:#F9F9EB"
   id="stop131" />
				</radialGradient>
				
			</g>
		</g>
		<g
   id="g135"
   style="fill:#ffe0b2;fill-opacity:1">
			<defs
   id="defs137">
				<rect
   id="SVGID_21_"
   x="136.246"
   y="56.877998"
   width="437.828"
   height="161.955" />
			</defs>
			<clipPath
   id="SVGID_22_">
				<use
   xlink:href="#SVGID_21_"
   overflow="visible"
   id="use141"
   style="overflow:visible"
   x="0"
   y="0"
   width="100%"
   height="100%" />
			</clipPath>
			
		</g>
		<g
   id="g145"
   style="fill:#ffe0b2;fill-opacity:1">
			<defs
   id="defs147">
				<rect
   id="SVGID_23_"
   x="28.579"
   y="235.125"
   width="224.327"
   height="316.60501" />
			</defs>
			<clipPath
   id="SVGID_24_">
				<use
   xlink:href="#SVGID_23_"
   overflow="visible"
   id="use151"
   style="overflow:visible"
   x="0"
   y="0"
   width="100%"
   height="100%" />
			</clipPath>
			<g
   clip-path="url(#SVGID_24_)"
   id="g153"
   style="fill:#ffe0b2;fill-opacity:1">
				<defs
   id="defs155">
					<rect
   id="SVGID_25_"
   x="28.579"
   y="235.125"
   width="224.327"
   height="316.60501" />
				</defs>
				<clipPath
   id="SVGID_26_">
					<use
   xlink:href="#SVGID_25_"
   overflow="visible"
   id="use159"
   style="overflow:visible"
   x="0"
   y="0"
   width="100%"
   height="100%" />
				</clipPath>
				<g
   clip-path="url(#SVGID_26_)"
   id="g161"
   style="fill:#ffe0b2;fill-opacity:1">
					<g
   id="g163"
   style="fill:#ffe0b2;fill-opacity:1">
						<defs
   id="defs165">
							<rect
   id="SVGID_27_"
   x="-46.314999"
   y="218.009"
   width="369.24399"
   height="345.33099" />
						</defs>
						<clipPath
   id="SVGID_28_">
							<use
   xlink:href="#SVGID_27_"
   overflow="visible"
   id="use169"
   style="overflow:visible"
   x="0"
   y="0"
   width="100%"
   height="100%" />
						</clipPath>
						
					</g>
				</g>
			</g>
		</g>
		<g
   id="g173"
   style="fill:#ffe0b2;fill-opacity:1">
			<defs
   id="defs175">
				<rect
   id="SVGID_29_"
   x="190.564"
   y="301.86801"
   width="353.267"
   height="130.675" />
			</defs>
			<clipPath
   id="SVGID_30_">
				<use
   xlink:href="#SVGID_29_"
   overflow="visible"
   id="use179"
   style="overflow:visible"
   x="0"
   y="0"
   width="100%"
   height="100%" />
			</clipPath>
			
		</g>
		
		
		<g
   id="g187"
   style="fill:#ffe0b2;fill-opacity:1">
			<defs
   id="defs189">
				<rect
   id="SVGID_31_"
   x="80.521004"
   y="551.72998"
   width="158.091"
   height="147.89101" />
			</defs>
			<clipPath
   id="SVGID_32_">
				<use
   xlink:href="#SVGID_31_"
   overflow="visible"
   id="use193"
   style="overflow:visible"
   x="0"
   y="0"
   width="100%"
   height="100%" />
			</clipPath>
			<path
   clip-path="url(#SVGID_32_)"
   d="m 182.809,679.664 c 0,0 26.668,-22.863 31.344,-33.557 0,0 12.196,9.465 11.175,10.951 -0.001,10e-4 -18.357,24.764 -42.519,22.606 m -16.002,-83.461 c -24.123,-16.576 -41.248,-33.568 -38.25,-37.932 3.006,-4.373 25.002,5.533 49.123,22.111 24.127,16.582 41.253,33.564 38.249,37.936 -2.999,4.366 -24.997,-5.533 -49.122,-22.115 m 71.34,62.027 c 4.037,-12.207 -19.527,-24.068 -19.527,-24.068 3.438,-4.998 5.623,-10.129 5.623,-10.129 0,0 7.459,-12.793 -41.272,-46.838 -48.748,-34.035 -61.974,-24.121 -61.974,-24.121 -42.017,42.947 -40.938,93.492 -40.301,103.209 0.021,0.332 0.044,0.68 0.079,1.025 0.029,0.428 0.066,0.658 0.066,0.658 0.041,0.404 0.109,0.791 0.196,1.16 1.831,9.285 10.267,20.545 22.907,29.232 14.607,10.039 30.383,13.586 39.492,9.752 6.711,-1.518 23.014,-10.588 23.014,-10.588 28.695,16.503 65.584,-10.823 71.697,-29.292"
   id="path195"
   inkscape:connector-curvature="0"
   style="fill:#ffe0b2;fill-opacity:1" />
		</g>
		<g
   id="g197"
   style="fill:#ffe0b2;fill-opacity:1">
			<defs
   id="defs199">
				<rect
   id="SVGID_33_"
   x="265.95001"
   y="481.32101"
   width="110.077"
   height="102.974" />
			</defs>
			<clipPath
   id="SVGID_34_">
				<use
   xlink:href="#SVGID_33_"
   overflow="visible"
   id="use203"
   style="overflow:visible"
   x="0"
   y="0"
   width="100%"
   height="100%" />
			</clipPath>
			
		</g>
		<g
   id="g207"
   style="fill:#ffe0b2;fill-opacity:1">
			<defs
   id="defs209">
				<rect
   id="SVGID_35_"
   x="402.319"
   y="442.39401"
   width="112.191"
   height="99.835999" />
			</defs>
			<clipPath
   id="SVGID_36_">
				<use
   xlink:href="#SVGID_35_"
   overflow="visible"
   id="use213"
   style="overflow:visible"
   x="0"
   y="0"
   width="100%"
   height="100%" />
			</clipPath>
			
		</g>
		<g
   id="g217"
   style="fill:#ffe0b2;fill-opacity:1">
			<defs
   id="defs219">
				<rect
   id="SVGID_37_"
   x="292.078"
   y="563.81097"
   width="261.39401"
   height="265.76999" />
			</defs>
			<clipPath
   id="SVGID_38_">
				<use
   xlink:href="#SVGID_37_"
   overflow="visible"
   id="use223"
   style="overflow:visible"
   x="0"
   y="0"
   width="100%"
   height="100%" />
			</clipPath>
			<g
   clip-path="url(#SVGID_38_)"
   id="g225"
   style="fill:#ffe0b2;fill-opacity:1">
				<defs
   id="defs227">
					<rect
   id="SVGID_39_"
   x="292.078"
   y="563.81097"
   width="261.39401"
   height="265.76999" />
				</defs>
				<clipPath
   id="SVGID_40_">
					<use
   xlink:href="#SVGID_39_"
   overflow="visible"
   id="use231"
   style="overflow:visible"
   x="0"
   y="0"
   width="100%"
   height="100%" />
				</clipPath>
				<g
   clip-path="url(#SVGID_40_)"
   id="g233"
   style="fill:#ffe0b2;fill-opacity:1">
					<g
   id="g235"
   style="fill:#ffe0b2;fill-opacity:1">
						<defs
   id="defs237">
							<rect
   id="SVGID_41_"
   x="286.099"
   y="558.495"
   width="273.354"
   height="271.74899" />
						</defs>
						<clipPath
   id="SVGID_42_">
							<use
   xlink:href="#SVGID_41_"
   overflow="visible"
   id="use241"
   style="overflow:visible"
   x="0"
   y="0"
   width="100%"
   height="100%" />
						</clipPath>
						
					</g>
				</g>
			</g>
		</g>
	</g>
</switch>
</svg>