<?xml version="1.0" encoding="UTF-8" standalone="no"?>
<svg
   xmlns:dc="http://purl.org/dc/elements/1.1/"
   xmlns:cc="http://creativecommons.org/ns#"
   xmlns:rdf="http://www.w3.org/1999/02/22-rdf-syntax-ns#"
   xmlns:svg="http://www.w3.org/2000/svg"
   xmlns="http://www.w3.org/2000/svg"
   xmlns:xlink="http://www.w3.org/1999/xlink"
   xml:space="preserve"
   enable-background="new 0 0 595.28 841.89"
   viewBox="0 0 58.5 93.8"
   height="93.8"
   width="58.5">
<switch
   transform="translate(-116.51936,-452.782)"
   id="switch3">
	<g>
		<g
   id="g7">
			<g
   id="g9">
				<defs
   id="defs11">
					<rect
   height="80"
   width="79.999001"
   y="37.687"
   x="37.709999"
   id="SVGID_1_" />
				</defs>
				<clipPath
   id="SVGID_2_">
					<use
   height="100%"
   width="100%"
   y="0"
   x="0"
   style="overflow:visible"
   id="use15"
   overflow="visible"
   xlink:href="#SVGID_1_" />
				</clipPath>
				
				
				
				
			</g>
			
		</g>
		<g
   id="g27">
			<defs
   id="defs29">
				<rect
   height="476.79001"
   width="412.44101"
   y="28.753"
   x="135.92799"
   id="SVGID_3_" />
			</defs>
			<clipPath
   id="SVGID_4_">
				<use
   height="100%"
   width="100%"
   y="0"
   x="0"
   style="overflow:visible"
   id="use33"
   overflow="visible"
   xlink:href="#SVGID_3_" />
			</clipPath>
			
		</g>
		<g
   id="g37">
			<defs
   id="defs39">
				<rect
   height="173.61301"
   width="169.306"
   y="448.04501"
   x="52.019001"
   id="SVGID_5_" />
			</defs>
			<clipPath
   id="SVGID_6_">
				<use
   height="100%"
   width="100%"
   y="0"
   x="0"
   style="overflow:visible"
   id="use43"
   overflow="visible"
   xlink:href="#SVGID_5_" />
			</clipPath>		
			<path
   style="fill:#f9cc1e"
   id="path77"
   d="m 153.177,536.717 c 4.389,0.449 7.723,3.014 7.428,5.736 -0.256,2.734 -4.027,4.574 -8.428,4.133 -4.385,-0.443 -10.004,-5.99 -10.004,-5.99 0,0 6.625,-4.319 11.004,-3.879"
   clip-path="url(#SVGID_6_)" />
			<path
   style="fill:#f9cc1e"
   id="path79"
   d="m 165.481,529.65 c 1.037,3.506 0.102,6.869 -2.074,7.518 -2.184,0.629 -4.779,-1.689 -5.818,-5.188 -1.027,-3.514 1.484,-9.57 1.484,-9.57 0,0 5.385,3.74 6.408,7.24"
   clip-path="url(#SVGID_6_)" />
			<path
   style="fill:#f9cc1e"
   id="path81"
   d="m 156.479,521.137 c 0.098,3.66 -1.656,6.664 -3.928,6.732 -2.277,0.059 -4.186,-2.855 -4.289,-6.502 -0.105,-3.658 3.877,-8.875 3.877,-8.875 0,0 4.237,4.992 4.34,8.645"
   clip-path="url(#SVGID_6_)" />
			<path
   style="fill:#f9cc1e"
   id="path83"
   d="m 147.919,509.867 c -0.117,3.648 -2.033,6.555 -4.301,6.492 -2.279,-0.068 -4.032,-3.078 -3.923,-6.74 0.117,-3.646 4.37,-8.639 4.37,-8.639 0,0 3.965,5.219 3.854,8.887"
   clip-path="url(#SVGID_6_)" />
			<path
   style="fill:#f9cc1e"
   id="path85"
   d="m 140.95,497.963 c -0.667,3.154 -2.802,5.363 -4.757,4.947 -1.957,-0.412 -2.994,-3.307 -2.332,-6.457 0.674,-3.143 5.156,-6.781 5.156,-6.781 0,0 2.605,5.148 1.933,8.291"
   clip-path="url(#SVGID_6_)" />
			<path
   style="fill:#f9cc1e"
   id="path87"
   d="m 137.12,486.477 c -0.874,2.814 -3.015,4.652 -4.757,4.094 -1.764,-0.529 -2.454,-3.275 -1.569,-6.086 0.89,-2.811 5.294,-5.76 5.294,-5.76 0,0 1.912,4.933 1.032,7.752"
   clip-path="url(#SVGID_6_)" />
			<path
   style="fill:#f9cc1e"
   id="path89"
   d="m 135.51,475.418 c -1.198,2.219 -3.273,3.393 -4.645,2.664 -1.376,-0.742 -1.511,-3.137 -0.318,-5.344 1.19,-2.205 5.341,-3.941 5.341,-3.941 0,0 0.829,4.418 -0.378,6.621"
   clip-path="url(#SVGID_6_)" />
			<path
   style="fill:#f9cc1e"
   id="path91"
   d="m 136.119,464.965 c -1.181,2.203 -3.252,3.404 -4.623,2.664 -1.371,-0.73 -1.521,-3.123 -0.334,-5.326 1.164,-2.217 5.316,-3.973 5.316,-3.973 0,0 0.846,4.41 -0.359,6.635"
   clip-path="url(#SVGID_6_)" />
			<path
   style="fill:#f9cc1e"
   id="path93"
   d="m 141.591,527.693 c 4.227,1.199 7.059,4.318 6.305,6.951 -0.754,2.635 -4.791,3.791 -9.034,2.572 -4.244,-1.193 -8.793,-7.67 -8.793,-7.67 0,0 7.271,-3.067 11.522,-1.853"
   clip-path="url(#SVGID_6_)" />
			<path
   style="fill:#f9cc1e"
   id="path95"
   d="m 133.968,516.502 c 3.886,2.068 5.985,5.709 4.71,8.119 -1.287,2.424 -5.49,2.701 -9.375,0.629 -3.896,-2.061 -7.002,-9.338 -7.002,-9.338 0,0 7.763,-1.476 11.667,0.59"
   clip-path="url(#SVGID_6_)" />
			<path
   style="fill:#f9cc1e"
   id="path97"
   d="m 127.965,504.379 c 2.682,2.576 3.574,6.021 1.969,7.684 -1.609,1.674 -5.084,0.943 -7.764,-1.639 -2.696,-2.566 -3.559,-9.207 -3.559,-9.207 0,0 6.657,0.576 9.354,3.162"
   clip-path="url(#SVGID_6_)" />
			<path
   style="fill:#f9cc1e"
   id="path99"
   d="m 125.59,490.652 c 2.207,3.152 2.406,6.799 0.461,8.176 -1.953,1.369 -5.33,-0.074 -7.531,-3.211 -2.209,-3.143 -1.746,-10.014 -1.746,-10.014 0,0 6.613,1.913 8.816,5.049"
   clip-path="url(#SVGID_6_)" />
			<path
   style="fill:#f9cc1e"
   id="path101"
   d="m 124.197,477.729 c 1.67,2.977 1.515,6.25 -0.344,7.279 -1.858,1.041 -4.705,-0.541 -6.375,-3.543 -1.684,-2.982 -0.637,-9.035 -0.637,-9.035 0,0 5.686,2.299 7.356,5.299"
   clip-path="url(#SVGID_6_)" />
			<path
   style="fill:#f9cc1e"
   id="path103"
   d="m 125.277,466.734 c 1.198,2.568 0.854,5.229 -0.727,5.961 -1.607,0.738 -3.835,-0.729 -5.027,-3.297 -1.197,-2.551 0.021,-7.467 0.021,-7.467 0,0 4.559,2.237 5.733,4.803"
   clip-path="url(#SVGID_6_)" />
			<path
   style="fill:#f9cc1e"
   id="path105"
   d="m 128.958,458.668 c 0.553,2.719 -0.354,5.203 -2.042,5.555 -1.689,0.357 -3.523,-1.568 -4.09,-4.295 -0.578,-2.721 1.703,-7.146 1.703,-7.146 0,0 3.849,3.154 4.429,5.886"
   clip-path="url(#SVGID_6_)" />
			<path
   style="fill:#f9cc1e"
   id="path107"
   d="m 130.418,462.27 c -3.525,7.945 -3.036,16.93 -1.382,25.217 1.715,8.381 4.879,16.441 9.024,23.867 4.196,7.434 9.507,14.174 15.569,20.049 6.045,5.918 13.26,10.668 21.416,13.475 l -0.066,0.24 c -8.631,-1.393 -16.531,-6.047 -23.086,-11.836 -6.566,-5.883 -11.601,-13.236 -15.63,-20.953 -4.023,-7.723 -6.988,-16.014 -8.469,-24.596 -0.709,-4.299 -1.034,-8.66 -0.761,-13.016 0.292,-4.316 -0.9056,-14.0493 3.144,-12.537 z"
   clip-path="url(#SVGID_6_)" />
		<path
   style="fill:#f9cc1e"
   clip-path="url(#SVGID_6_)"
   d="m 153.177,536.717 c 4.389,0.449 7.723,3.014 7.428,5.736 -0.256,2.734 -4.027,4.574 -8.428,4.133 -4.385,-0.443 -10.004,-5.99 -10.004,-5.99 0,0 6.625,-4.319 11.004,-3.879"
   id="path3457" /><path
   style="fill:#f9cc1e"
   clip-path="url(#SVGID_6_)"
   d="m 165.481,529.65 c 1.037,3.506 0.102,6.869 -2.074,7.518 -2.184,0.629 -4.779,-1.689 -5.818,-5.188 -1.027,-3.514 1.484,-9.57 1.484,-9.57 0,0 5.385,3.74 6.408,7.24"
   id="path3459" /><path
   style="fill:#f9cc1e"
   clip-path="url(#SVGID_6_)"
   d="m 156.479,521.137 c 0.098,3.66 -1.656,6.664 -3.928,6.732 -2.277,0.059 -4.186,-2.855 -4.289,-6.502 -0.105,-3.658 3.877,-8.875 3.877,-8.875 0,0 4.237,4.992 4.34,8.645"
   id="path3461" /><path
   style="fill:#f9cc1e"
   clip-path="url(#SVGID_6_)"
   d="m 147.919,509.867 c -0.117,3.648 -2.033,6.555 -4.301,6.492 -2.279,-0.068 -4.032,-3.078 -3.923,-6.74 0.117,-3.646 4.37,-8.639 4.37,-8.639 0,0 3.965,5.219 3.854,8.887"
   id="path3463" /><path
   style="fill:#f9cc1e"
   clip-path="url(#SVGID_6_)"
   d="m 137.12,486.477 c -0.874,2.814 -3.015,4.652 -4.757,4.094 -1.764,-0.529 -2.454,-3.275 -1.569,-6.086 0.89,-2.811 5.294,-5.76 5.294,-5.76 0,0 1.912,4.933 1.032,7.752"
   id="path3465" /><path
   style="fill:#f9cc1e"
   clip-path="url(#SVGID_6_)"
   d="m 135.51,475.418 c -1.198,2.219 -3.273,3.393 -4.645,2.664 -1.376,-0.742 -1.511,-3.137 -0.318,-5.344 1.19,-2.205 5.341,-3.941 5.341,-3.941 0,0 0.829,4.418 -0.378,6.621"
   id="path3467" /><path
   style="fill:#f9cc1e"
   clip-path="url(#SVGID_6_)"
   d="m 141.591,527.693 c 4.227,1.199 7.059,4.318 6.305,6.951 -0.754,2.635 -4.791,3.791 -9.034,2.572 -4.244,-1.193 -8.793,-7.67 -8.793,-7.67 0,0 7.271,-3.067 11.522,-1.853"
   id="path3469" /><path
   style="fill:#f9cc1e"
   clip-path="url(#SVGID_6_)"
   d="m 133.968,516.502 c 3.886,2.068 5.985,5.709 4.71,8.119 -1.287,2.424 -5.49,2.701 -9.375,0.629 -3.896,-2.061 -7.002,-9.338 -7.002,-9.338 0,0 7.763,-1.476 11.667,0.59"
   id="path3471" /><path
   style="fill:#f9cc1e"
   clip-path="url(#SVGID_6_)"
   d="m 127.965,504.379 c 2.682,2.576 3.574,6.021 1.969,7.684 -1.609,1.674 -5.084,0.943 -7.764,-1.639 -2.696,-2.566 -3.559,-9.207 -3.559,-9.207 0,0 6.657,0.576 9.354,3.162"
   id="path3473" /><path
   style="fill:#f9cc1e"
   clip-path="url(#SVGID_6_)"
   d="m 125.59,490.652 c 2.207,3.152 2.406,6.799 0.461,8.176 -1.953,1.369 -5.33,-0.074 -7.531,-3.211 -2.209,-3.143 -1.746,-10.014 -1.746,-10.014 0,0 6.613,1.913 8.816,5.049"
   id="path3475" /><path
   style="fill:#f9cc1e"
   clip-path="url(#SVGID_6_)"
   d="m 124.197,477.729 c 1.67,2.977 1.515,6.25 -0.344,7.279 -1.858,1.041 -4.705,-0.541 -6.375,-3.543 -1.684,-2.982 -0.637,-9.035 -0.637,-9.035 0,0 5.686,2.299 7.356,5.299"
   id="path3477" /><path
   style="fill:#f9cc1e"
   clip-path="url(#SVGID_6_)"
   d="m 125.277,466.734 c 1.198,2.568 0.854,5.229 -0.727,5.961 -1.607,0.738 -3.835,-0.729 -5.027,-3.297 -1.197,-2.551 0.021,-7.467 0.021,-7.467 0,0 4.559,2.237 5.733,4.803"
   id="path3479" /><path
   style="fill:#f9cc1e"
   clip-path="url(#SVGID_6_)"
   d="m 128.958,458.668 c 0.553,2.719 -0.354,5.203 -2.042,5.555 -1.689,0.357 -3.523,-1.568 -4.09,-4.295 -0.578,-2.721 1.703,-7.146 1.703,-7.146 0,0 3.849,3.154 4.429,5.886"
   id="path3481" /><path
   clip-path="url(#SVGID_6_)"
   d="m 130.418,462.27 c -3.525,7.945 -3.036,16.93 -1.382,25.217 1.715,8.381 4.879,16.441 9.024,23.867 4.196,7.434 9.507,14.174 15.569,20.049 6.045,5.918 13.26,10.668 21.416,13.475 l -0.066,0.24 c -8.631,-1.393 -16.531,-6.047 -23.086,-11.836 -6.566,-5.883 -11.601,-13.236 -15.63,-20.953 -4.023,-7.723 -6.988,-16.014 -8.469,-24.596 -0.709,-4.299 -1.034,-8.66 -0.761,-13.016 0.292,-4.316 -0.9056,-14.0493 3.144,-12.537 z"
   id="path3483"
   style="fill:#f9cc1e" /><path
   style="fill:#f9cc1e"
   id="path3485"
   d="m 153.177,536.717 c 4.389,0.449 7.723,3.014 7.428,5.736 -0.256,2.734 -4.027,4.574 -8.428,4.133 -4.385,-0.443 -10.004,-5.99 -10.004,-5.99 0,0 6.625,-4.319 11.004,-3.879"
   clip-path="url(#SVGID_6_)" /><path
   style="fill:#f9cc1e"
   id="path3487"
   d="m 165.481,529.65 c 1.037,3.506 0.102,6.869 -2.074,7.518 -2.184,0.629 -4.779,-1.689 -5.818,-5.188 -1.027,-3.514 1.484,-9.57 1.484,-9.57 0,0 5.385,3.74 6.408,7.24"
   clip-path="url(#SVGID_6_)" /><path
   style="fill:#f9cc1e"
   id="path3489"
   d="m 156.479,521.137 c 0.098,3.66 -1.656,6.664 -3.928,6.732 -2.277,0.059 -4.186,-2.855 -4.289,-6.502 -0.105,-3.658 3.877,-8.875 3.877,-8.875 0,0 4.237,4.992 4.34,8.645"
   clip-path="url(#SVGID_6_)" /><path
   style="fill:#f9cc1e"
   id="path3491"
   d="m 147.919,509.867 c -0.117,3.648 -2.033,6.555 -4.301,6.492 -2.279,-0.068 -4.032,-3.078 -3.923,-6.74 0.117,-3.646 4.37,-8.639 4.37,-8.639 0,0 3.965,5.219 3.854,8.887"
   clip-path="url(#SVGID_6_)" /><path
   style="fill:#f9cc1e"
   id="path3493"
   d="m 137.12,486.477 c -0.874,2.814 -3.015,4.652 -4.757,4.094 -1.764,-0.529 -2.454,-3.275 -1.569,-6.086 0.89,-2.811 2.80695,-6.54424 5.294,-5.76 2.48613,0.78394 1.912,4.933 1.032,7.752"
   clip-path="url(#SVGID_6_)" /><path
   style="fill:#f9cc1e"
   id="path3495"
   d="m 135.51,475.418 c -1.198,2.219 -3.273,3.393 -4.645,2.664 -1.376,-0.742 -1.511,-3.137 -0.318,-5.344 1.19,-2.205 5.341,-3.941 5.341,-3.941 0,0 0.829,4.418 -0.378,6.621"
   clip-path="url(#SVGID_6_)" /><path
   style="fill:#f9cc1e"
   id="path3497"
   d="m 141.591,527.693 c 4.227,1.199 7.059,4.318 6.305,6.951 -0.754,2.635 -4.791,3.791 -9.034,2.572 -4.244,-1.193 -8.793,-7.67 -8.793,-7.67 0,0 7.271,-3.067 11.522,-1.853"
   clip-path="url(#SVGID_6_)" /><path
   style="fill:#f9cc1e"
   id="path3499"
   d="m 133.968,516.502 c 3.886,2.068 5.985,5.709 4.71,8.119 -1.287,2.424 -5.49,2.701 -9.375,0.629 -3.896,-2.061 -7.002,-9.338 -7.002,-9.338 0,0 7.763,-1.476 11.667,0.59"
   clip-path="url(#SVGID_6_)" /><path
   style="fill:#f9cc1e"
   id="path3501"
   d="m 127.965,504.379 c 2.682,2.576 3.574,6.021 1.969,7.684 -1.609,1.674 -5.084,0.943 -7.764,-1.639 -2.696,-2.566 -3.559,-9.207 -3.559,-9.207 0,0 6.657,0.576 9.354,3.162"
   clip-path="url(#SVGID_6_)" /><path
   style="fill:#f9cc1e"
   id="path3503"
   d="m 125.59,490.652 c 2.207,3.152 2.406,6.799 0.461,8.176 -1.953,1.369 -5.33,-0.074 -7.531,-3.211 -2.209,-3.143 -1.746,-10.014 -1.746,-10.014 0,0 6.613,1.913 8.816,5.049"
   clip-path="url(#SVGID_6_)" /><path
   style="fill:#f9cc1e"
   id="path3505"
   d="m 124.197,477.729 c 1.67,2.977 1.515,6.25 -0.344,7.279 -1.858,1.041 -4.705,-0.541 -6.375,-3.543 -1.684,-2.982 -0.637,-9.035 -0.637,-9.035 0,0 5.686,2.299 7.356,5.299"
   clip-path="url(#SVGID_6_)" /><path
   style="fill:#f9cc1e"
   id="path3507"
   d="m 125.277,466.734 c 1.198,2.568 0.854,5.229 -0.727,5.961 -1.607,0.738 -3.835,-0.729 -5.027,-3.297 -1.197,-2.551 0.021,-7.467 0.021,-7.467 0,0 4.559,2.237 5.733,4.803"
   clip-path="url(#SVGID_6_)" /><path
   style="fill:#f9cc1e"
   id="path3509"
   d="m 128.958,458.668 c 0.553,2.719 -0.354,5.203 -2.042,5.555 -1.689,0.357 -3.523,-1.568 -4.09,-4.295 -0.578,-2.721 1.703,-7.146 1.703,-7.146 0,0 3.849,3.154 4.429,5.886"
   clip-path="url(#SVGID_6_)" /><path
   style="fill:#f9cc1e"
   id="path3511"
   d="m 130.418,462.27 c -3.525,7.945 -3.036,16.93 -1.382,25.217 1.715,8.381 4.8613,16.4509 9.024,23.867 4.17833,7.44395 9.507,14.174 15.569,20.049 6.045,5.918 13.26,10.668 21.416,13.475 l -0.066,0.24 c -8.631,-1.393 -16.531,-6.047 -23.086,-11.836 -6.566,-5.883 -11.601,-13.236 -15.63,-20.953 -4.023,-7.723 -6.988,-16.014 -8.469,-24.596 -0.709,-4.299 -1.034,-8.66 -0.761,-13.016 0.292,-4.316 -0.9056,-14.0493 3.144,-12.537 z"
   clip-path="url(#SVGID_6_)" /></g>
		<g
   id="g109">
			<defs
   id="defs111">
				<rect
   height="172.854"
   width="142.408"
   y="640.38501"
   x="52.019001"
   id="SVGID_7_" />
			</defs>
			<clipPath
   id="SVGID_8_">
				<use
   height="100%"
   width="100%"
   y="0"
   x="0"
   style="overflow:visible"
   id="use115"
   overflow="visible"
   xlink:href="#SVGID_7_" />
			</clipPath>
		</g>	
	</g>
</switch>
</svg>