<svg xmlns="http://www.w3.org/2000/svg" width="13.7mm" height="13.7mm" viewBox="0 0 48.5 48.5">
  <g transform="translate(-327.14459,-522.36389)">
    <circle
       style="fill:#800000"
       cx="351.42859"
       cy="546.64789"
       r="24.284"
       id="circle3813" />
    <path
       style="fill:#ffffff"
       d="m 346.05357,537.12892 0.804,0.076 0.471,-0.039 0.492,-0.084 0.449,-0.106 0.447,0.005 0.494,-0.084 0.764,-0.282 0.65,-0.172 0.76,0.054 0.512,0.208 0.602,0.252 0.668,0.344 0.467,0.184 0.531,0.499 0.307,0.607 0.061,0.537 -0.451,0.331 -0.449,0.106 -0.47,0.039 -0.517,0.129 -0.403,0.129 -0.271,0.198 0.67,0.12 0.516,-0.128 0.516,-0.017 0.537,-0.062 0.447,0.005 0.447,-0.106 0.764,-0.17 0.337,-0.107 0.739,-0.127 1.139,0.192 0.713,0.255 0.643,0.499 0.353,0.519 0.284,0.54 0.105,0.561 -0.385,0.421 -0.896,0.102 -0.561,0.105 -0.448,0.105 -0.138,0.268 0.736,0.209 0.471,-0.038 0.492,-0.085 0.516,-0.016 0.492,0.028 0.537,-0.062 0.695,-0.148 0.736,0.098 0.713,0.255 0.4,0.317 0.443,0.229 0.621,0.545 0.488,0.362 0.463,0.521 0.373,0.586 0.354,0.406 0.151,0.36 0.354,0.406 0.309,0.495 0.327,0.676 0.306,0.607 0.308,0.495 0.265,0.361 0.195,0.495 0.307,0.606 0.238,0.741 0.102,0.784 0.172,0.65 0.107,0.449 0.105,0.561 0.08,0.717 -0.12,0.781 -0.095,0.401 -0.162,0.535 -0.14,0.49 -0.274,0.534 -0.365,0.6 -0.408,0.465 -0.541,0.397 -0.697,0.26 -0.56,0.105 -0.538,0.061 -0.826,-0.031 -0.715,-0.143 -0.469,-0.072 -0.512,-0.207 -0.758,-0.277 -2.002,-1.029 -0.512,-0.208 -0.935,-0.48 -0.423,-0.272 -0.512,-0.208 -0.889,-0.458 -0.379,-0.249 -1.777,-0.915 -0.469,-0.186 -0.422,-0.272 -1.379,-0.71 -0.645,-0.275 -0.602,-0.365 -0.711,-0.254 -0.666,-0.455 -0.469,-0.185 -0.422,-0.272 -0.912,-0.414 -0.4,-0.206 -0.689,-0.409 -0.354,-0.296 -0.689,-0.299 -0.492,-0.14 -0.422,-0.273 -0.443,-0.229 -0.889,-0.569 -1.268,-0.708 -0.512,-0.207 -0.377,-0.251 -0.445,-0.229 -0.422,-0.273 -0.49,-0.14 -0.623,-0.32 -1.066,-0.661 -0.734,-0.321 -0.553,-0.565 -0.287,-0.316 -0.355,-0.183 -0.444,-0.342 -0.331,-0.339 -0.4,-0.206 -0.399,-0.317 -0.33,-0.452 -0.774,-0.791 -0.35,-0.631 -0.129,-0.516 -0.219,-0.449 -0.17,-0.764 0.009,-0.783 0.161,-0.423 0.051,-0.536 0.119,-0.67 0.365,-0.6 0.207,-0.512 0.543,-0.509 0.881,-0.728 0.492,-0.084 0.406,-0.242 0.385,-0.309 0.673,-0.216 0.761,-0.058 0.426,-0.062 0.537,0.051 0.492,-0.084 0.539,-0.061 0.469,-0.04 0.492,0.028 0.56,0.007 0.717,-0.082 0.76,0.054 0.514,0.096 0.604,0.028 0.515,0.096 0.69,0.187 0.579,0.187 0.691,0.187 0.445,0.229 0.553,0.454 0.443,0.453 -0.34,0.331 -0.897,0.214 -0.897,0.325 -0.139,0.266 z m -6.79,4.888 -0.289,-0.093 0.063,0.313 0.267,0.137 0.111,0.002 0.068,-0.134 -0.22,-0.225 z m 2.896,3.008 -0.268,-0.025 -0.159,0.2 0.108,0.337 0.357,0.07 0.334,0.116 0.18,-0.133 -0.086,-0.381 -0.466,-0.184 z m 1.879,1.923 -0.264,-0.361 -0.158,0.089 -0.068,0.133 0.086,0.381 0.355,0.184 0.002,-0.224 0.047,-0.202 z m 0.729,-1.087 0.023,-0.157 -0.043,-0.135 -0.357,0.041 -0.316,0.176 0.381,0.139 0.312,-0.064 z m 1.653,0.175 -0.112,-10e-4 -0.045,0.089 0.02,0.18 0.044,0.134 0.202,-0.064 0.047,-0.2 -0.156,-0.138 z m 0.245,2.038 -0.156,-0.023 -0.113,0.11 -0.091,0.179 0.065,0.202 0.178,-0.021 0.113,-0.11 0.092,-0.178 -0.088,-0.159 z m 1.994,-2.236 -0.021,-0.067 -0.156,-0.023 -0.16,0.311 0.088,0.158 0.045,0.022 0.111,0.002 0.16,-0.312 -0.067,-0.091 z m 0.152,2.329 -0.111,-0.002 -0.068,0.021 -0.091,0.178 0.132,0.182 0.113,0 0.09,-0.065 -0.021,-0.179 -0.044,-0.135 z m 0.707,-1.157 -0.021,-0.179 -0.11,-0.113 -0.225,-0.002 -0.068,0.134 0.222,0.226 0.202,-0.066 z m 0.274,3.516 -0.091,0.066 -10e-4,0.111 0.312,0.16 0.335,0.004 -0.221,-0.338 -0.334,-0.003 z m 0.877,-2.361 -0.27,0.087 -0.024,0.156 0.021,0.067 0.335,0.004 0.271,-0.198 -0.333,-0.116 z m 0.439,2.533 0.048,-0.2 -0.11,-0.113 -0.156,-0.024 -0.067,0.021 -0.003,0.224 0.111,0.113 0.066,-0.021 0.111,0 z m 0.039,-3.355 0.156,0.136 0.178,-0.021 0.068,-0.134 -0.129,-0.404 -0.379,-0.138 0.018,0.403 0.088,0.158 z m 2.153,1.501 -0.107,-0.338 -0.38,-0.025 -0.267,-0.138 -0.225,0.108 0.152,0.36 0.422,0.161 0.246,0.07 0.159,-0.198 z m 0.275,1.435 10e-4,-0.112 -0.244,-0.182 -0.29,-0.093 0.108,0.337 0.29,0.094 0.135,-0.044 z m 0.695,1.82 0.607,-0.308 -0.312,-0.047 -0.219,-0.451 -0.629,0.239 -0.048,0.201 0.601,0.366 z m 1.864,-0.56 0.002,-0.224 -0.043,-0.135 -0.451,0.218 -0.406,0.354 0.514,0.096 0.384,-0.309 z m 0.586,1.594 -0.11,-0.225 -0.6,-0.365 -0.72,0.305 0.664,0.679 0.287,0.205 0.18,-0.021 0.203,-0.064 0.16,-0.312 -0.064,-0.202 z m 0.07,1.5 -0.087,-0.158 -0.334,-0.115 -0.067,0.021 -0.002,0.111 0.223,0.227 0.289,0.093 0.066,-0.021 -0.043,-0.022 -0.045,-0.136 z m -0.315,-3.65 0.089,0.046 0.131,0.403 0.287,0.205 -0.073,0.581 -0.251,0.377 -0.004,0.336 0.313,0.049 0.269,0.024 0.18,-0.02 0.066,-0.021 0.227,-0.221 0.27,-0.087 -0.088,-0.157 -0.043,-0.135 -0.156,-0.137 -0.133,-0.068 0.027,-0.38 -0.244,-0.294 -0.553,-0.453 0.002,-0.224 -0.066,-0.091 -0.021,-0.067 -0.156,-0.024 -0.09,0.066 -0.047,0.201 0.064,0.091 z m 0.729,2.738 -0.045,0.088 0.221,0.227 0.044,0.023 0.156,0.023 0.179,-0.02 0.135,0.068 0.111,10e-4 0.021,0.067 0.066,0.09 0.11,0.113 0.179,-0.02 0.158,-0.088 -0.086,-0.27 -0.135,-0.068 -0.156,-0.024 -0.066,-0.091 -0.088,-0.046 -0.111,-0.112 -0.223,-0.115 -0.135,0.044 -0.223,-0.003 -0.112,0.113 z m 0.283,0.652 -0.066,-0.091 -0.088,-0.045 -0.113,-0.002 0,0.112 0.043,0.135 0.088,0.046 0.201,0.047 -0.065,-0.202 z m 1.088,0.728 0.068,-0.134 -0.043,-0.135 -0.18,0.021 -0.155,-0.024 -0.472,0.151 0.488,0.251 0.158,-0.087 0.136,-0.043 z m -0.474,-1.594 0.111,0.113 0.021,0.067 0.045,0.022 0.312,0.049 0.045,0.022 0.156,0.023 0.199,0.048 0.158,0.024 0.178,-0.021 0.115,-0.223 0.07,-0.357 0.004,-0.335 -0.041,-0.247 0,-0.111 -0.16,0.312 -0.066,0.021 -0.111,-0.002 -0.135,0.044 -0.045,-0.023 -0.18,0.133 -0.27,0.086 -0.09,-0.046 -0.201,-0.047 -0.203,0.289 0.021,0.066 0.067,0.093 z m 0.162,-2.392 0.223,0.114 0.27,-0.085 -0.135,-0.069 -0.109,-0.113 -0.291,0.02 0.042,0.133 z m 1.078,3.593 -0.043,-0.247 0.025,-0.156 -0.022,-0.067 -0.29,0.019 -0.004,0.225 -0.116,0.446 0.108,0.225 0.065,0.201 0.224,0.003 0.115,-0.223 -0.066,-0.202 0.004,-0.224 z m 1.453,0.015 -0.826,-0.031 -0.229,0.333 -0.205,0.288 0,0.112 0.021,0.067 0.152,0.359 0.089,0.046 0.335,0.004 0.047,-0.201 0.025,-0.156 0.184,-0.468 0.407,-0.353 z m -0.994,-1.129 -0.002,0.223 0.042,0.247 0.313,-0.063 0.205,-0.289 -0.064,-0.201 -0.088,-0.158 -0.291,0.02 -0.115,0.221 z m 0.297,-2.324 0.064,0.091 0.07,-0.134 0.09,-0.065 0.022,-0.045 -0.044,-0.135 -0.223,-0.003 -0.025,0.156 0.046,0.135 z m 1.524,5.454 -0.11,-0.113 -0.043,-0.135 0.023,-0.155 0.16,-0.312 -0.021,-0.067 0.091,-0.065 0.069,-0.134 0.201,-0.065 0.158,-0.087 0.094,-0.401 -0.086,-0.271 -0.111,-0.112 -0.043,-0.135 -0.111,-0.113 -0.176,-0.203 -0.066,-0.09 -0.332,-0.34 -0.354,-0.295 -0.178,-0.092 -0.158,0.088 -0.025,0.269 0.176,0.203 0.109,0.226 0.154,0.247 0.086,0.27 0.109,0.225 -0.113,0.223 0.086,0.269 0.041,0.248 -0.024,0.268 -0.093,0.29 -0.135,0.043 -0.113,0.11 -0.16,0.312 0.268,0.025 0.225,0.003 0.178,0.091 0.135,-0.043 0.09,-0.065 -10e-4,-0.117 z m -0.48,-6.829 0.132,0.181 0.156,0.024 0.045,-0.089 0.092,-0.065 0.201,-0.065 -0.088,-0.157 -0.135,0.043 -0.155,-0.024 -0.134,-0.07 -0.135,0.043 0.021,0.179 z m 1.176,6.569 -0.266,-0.137 -0.137,0.155 0.151,0.471 0.315,-0.175 0.002,-0.224 -0.065,-0.09 z m 0.601,-1.604 0.091,-0.178 -0.064,-0.202 0.023,-0.045 -0.043,-0.134 -0.021,-0.18 -0.086,-0.27 -0.109,-0.225 -0.223,-0.003 -0.006,0.447 -0.047,0.2 -0.004,0.336 -0.046,0.089 0.11,0.113 0.045,0.022 0.111,0.002 0.09,0.046 0.179,-0.018 z m 0.278,-2.838 0.223,0.114 0.066,0.091 0.021,0.067 0.066,0.09 0.135,-0.044 0.156,-0.087 -0.021,-0.067 0.002,-0.111 0.045,-0.09 -0.043,-0.022 -0.066,-0.091 -0.56,-0.006 -0.091,0.066 0.067,0.09 z m 0.215,-1.183 0.045,0.023 0.021,0.067 0.065,0.091 0.136,-0.044 0,-0.111 -0.064,-0.091 -0.021,-0.066 -0.112,-0.002 -0.067,0.021 -0.023,0.045 0.02,0.067 z m 0.313,5.955 0.066,-0.022 0.092,-0.065 -0.044,-0.135 -0.11,-0.113 -0.134,-0.068 -0.135,0.043 -0.024,0.156 0.156,0.137 0.133,0.067 z m -0.026,-9.463 0.043,0.134 0.156,0.024 0.067,-0.021 -0.022,-0.067 0.023,-0.045 -0.09,-0.046 -0.111,-0.001 -0.066,0.022 z m 1.151,8.803 -0.02,-0.179 -0.043,-0.135 -0.133,-0.18 -0.156,-0.025 -0.135,0.043 -0.045,0.09 -0.09,0.065 -0.004,0.224 -0.047,0.201 0.045,0.023 0.111,0.112 0.065,0.091 0.044,0.022 0.27,-0.086 0.138,-0.266 z m 0.324,-2.814 0.045,0.023 0.068,-0.134 0.09,-0.066 0.002,-0.111 0.022,-0.045 -0.132,-0.181 -0.156,-0.023 -0.203,0.064 -0.023,0.044 -0.09,0.066 -0.045,0.089 0.066,0.091 0.109,0.112 0.135,0.068 0.112,0.003 z m 0.05,-4.361 0.087,0.269 0.201,0.048 0.155,0.024 -0.066,-0.091 -0.089,-0.046 -0.131,-0.181 0.045,-0.088 0.001,-0.112 -0.021,-0.067 -0.065,-0.091 -0.113,0.111 -0.004,0.224 z m 0.257,2.888 0.067,-0.022 -0.021,-0.067 0,-0.111 0.069,-0.134 0.067,-0.021 0.09,-0.066 -0.064,-0.201 -0.089,-0.046 -0.067,0.021 -0.113,0.11 -0.09,0.066 0.021,0.067 -0.045,0.089 -0.025,0.156 0.044,0.135 0.156,0.024 z m -0.082,5.189 0.11,0.113 0.111,10e-4 0.092,-0.065 0.023,-0.156 -0.066,-0.091 -0.133,-0.068 -0.137,0.266 z m 0.66,-6.748 0.248,-0.153 0.179,-0.021 0.024,-0.156 -0.021,-0.18 -0.266,-0.137 -0.248,0.153 -0.203,0.177 0.043,0.134 0.02,0.18 0.224,0.003 z m 0.349,6.536 -0.201,0.065 -0.113,0.109 -0.068,0.022 0.02,0.29 0.18,-0.02 0.223,0.002 0.27,-0.086 0.004,-0.224 -0.315,-0.158 z m 0.184,-6.262 0.134,0.069 0.179,-0.021 0.137,-0.155 0.18,-0.133 -0.156,-0.023 -0.224,-0.003 -0.247,0.154 -0.003,0.112 z m 0.404,5.777 0.221,0.227 0.092,-0.178 -0.154,-0.248 -0.109,-0.113 -0.18,-0.092 0.13,0.404 z m 0.496,-2.388 -0.155,-0.024 -0.067,0.021 -0.09,0.066 -0.092,0.178 0.021,0.066 0.066,0.092 0.088,0.045 0.047,-0.089 0.09,-0.066 0.114,-0.222 -0.022,-0.067 z m 0.33,0.563 -0.068,0.133 0.066,0.09 0.021,0.067 0.065,0.091 0.135,0.068 0.066,-0.021 0.069,-0.134 -0.065,-0.091 0.021,-0.043 -0.109,-0.114 -0.09,-0.046 -0.111,0 z m 0.376,-1.607 0.132,0.181 0.09,0.046 0.179,-0.02 0.001,-0.113 0.023,-0.044 -0.065,-0.202 -0.222,-0.114 -0.135,0.043 -0.003,0.223 z"
       id="path3817" />
  </g>
</svg>
