<?xml version="1.0" encoding="UTF-8" standalone="no"?>
<svg
   xmlns:ns="&amp;ns_sfw;"
   xmlns:dc="http://purl.org/dc/elements/1.1/"
   xmlns:cc="http://creativecommons.org/ns#"
   xmlns:rdf="http://www.w3.org/1999/02/22-rdf-syntax-ns#"
   xmlns:svg="http://www.w3.org/2000/svg"
   xmlns="http://www.w3.org/2000/svg"
   xml:space="preserve"
   enable-background="new 0 0 966 672"
   viewBox="0 0 622.23279 255.31279"
   height="255.31279"
   width="622.23279"
   y="0px"
   x="0px"
   id="Capa_1"
   version="1.1"><defs
   id="defs409" />
<metadata
   id="metadata3">
	<ns:sfw>
		<ns:slices />
		<ns:sliceSourceBounds
   bottomLeftOrigin="true"
   x="-2529.46"
   y="-2953.84"
   height="3420.7"
   width="8525.98" />
	</ns:sfw>
<rdf:RDF><cc:Work
     rdf:about=""><dc:format>image/svg+xml</dc:format><dc:type
       rdf:resource="http://purl.org/dc/dcmitype/StillImage" /><dc:title></dc:title></cc:Work></rdf:RDF></metadata>










































































<g
   transform="translate(-182.5786,-254.2586)"
   id="g4537"><polygon
     style="fill:none;stroke:#000000;stroke-width:1.08280003;stroke-miterlimit:10"
     stroke-miterlimit="10"
     points="191.48,396.17 239.72,396.17 239.72,339.29 227.75,327.32 203.44,327.32 191.48,339.29 "
     id="polygon5" /><rect
     x="191.48"
     y="377.64001"
     width="14.19"
     height="18.530001"
     id="rect7" /><rect
     x="225.53"
     y="377.64001"
     width="14.19"
     height="18.530001"
     id="rect9" /><rect
     x="332.85999"
     y="270.67999"
     width="14.19"
     height="18.530001"
     id="rect11" /><line
     style="fill:none;stroke:#000000;stroke-width:1.08280003;stroke-miterlimit:10"
     stroke-miterlimit="10"
     x1="203.2"
     y1="385.32001"
     x2="228"
     y2="385.32001"
     id="line13" /><rect
     x="213.59"
     y="380.54999"
     width="4.02"
     height="8.7299995"
     id="rect15" /><polygon
     style="fill:none;stroke:#000000;stroke-width:1.08280003;stroke-linecap:round;stroke-linejoin:round;stroke-miterlimit:10"
     stroke-miterlimit="10"
     points="224.18,327.32 224.18,339.29 239.72,339.29 227.75,327.32 "
     id="polygon17" /><polygon
     style="fill:none;stroke:#000000;stroke-width:1.08280003;stroke-linecap:round;stroke-linejoin:round;stroke-miterlimit:10"
     stroke-miterlimit="10"
     points="207.02,327.32 207.02,339.29 191.48,339.29 203.44,327.32 "
     id="polygon19" /><rect
     style="fill:none;stroke:#000000;stroke-width:1.08280003;stroke-linecap:round;stroke-linejoin:round;stroke-miterlimit:10"
     x="193.52"
     y="398.89999"
     stroke-miterlimit="10"
     width="8.0600004"
     height="47.110001"
     id="rect21" /><rect
     style="fill:none;stroke:#000000;stroke-width:1.08280003;stroke-linecap:round;stroke-linejoin:round;stroke-miterlimit:10"
     x="227.92"
     y="398.89999"
     stroke-miterlimit="10"
     width="8.0600004"
     height="47.110001"
     id="rect23" /><polygon
     style="fill:none;stroke:#000000;stroke-width:1.08280003;stroke-miterlimit:10"
     stroke-miterlimit="10"
     points="288.57,396.17 336.82,396.17 336.82,339.29 324.85,327.32 300.54,327.32 288.57,339.29 "
     id="polygon25" /><rect
     x="288.57001"
     y="377.64001"
     width="14.19"
     height="18.530001"
     id="rect27" /><rect
     x="322.62"
     y="377.64001"
     width="14.19"
     height="18.530001"
     id="rect29" /><line
     style="fill:none;stroke:#000000;stroke-width:1.08280003;stroke-miterlimit:10"
     stroke-miterlimit="10"
     x1="300.29999"
     y1="385.32001"
     x2="325.09"
     y2="385.32001"
     id="line31" /><rect
     x="310.69"
     y="380.54999"
     width="4.02"
     height="8.7299995"
     id="rect33" /><rect
     style="fill:none;stroke:#000000;stroke-width:1.08280003;stroke-linecap:round;stroke-linejoin:round;stroke-miterlimit:10"
     x="290.62"
     y="398.89999"
     stroke-miterlimit="10"
     width="8.0600004"
     height="47.110001"
     id="rect35" /><rect
     style="fill:none;stroke:#000000;stroke-width:1.08280003;stroke-linecap:round;stroke-linejoin:round;stroke-miterlimit:10"
     x="325.01001"
     y="398.89999"
     stroke-miterlimit="10"
     width="8.0600004"
     height="47.110001"
     id="rect37" /><polygon
     style="fill:none;stroke:#000000;stroke-width:1.08280003;stroke-miterlimit:10"
     stroke-miterlimit="10"
     points="355.8,396.17 404.04,396.17 404.04,339.29 392.07,327.32 367.76,327.32 355.8,339.29 "
     id="polygon39" /><rect
     x="355.79999"
     y="377.64001"
     width="14.19"
     height="18.530001"
     id="rect41" /><rect
     x="389.85001"
     y="377.64001"
     width="14.19"
     height="18.530001"
     id="rect43" /><line
     style="fill:none;stroke:#000000;stroke-width:1.08280003;stroke-miterlimit:10"
     stroke-miterlimit="10"
     x1="367.51999"
     y1="385.32001"
     x2="392.32001"
     y2="385.32001"
     id="line45" /><rect
     x="377.91"
     y="380.54999"
     width="4.02"
     height="8.7299995"
     id="rect47" /><rect
     style="fill:none;stroke:#000000;stroke-width:1.08280003;stroke-linecap:round;stroke-linejoin:round;stroke-miterlimit:10"
     x="357.84"
     y="398.89999"
     stroke-miterlimit="10"
     width="8.0600004"
     height="47.110001"
     id="rect49" /><rect
     style="fill:none;stroke:#000000;stroke-width:1.08280003;stroke-linecap:round;stroke-linejoin:round;stroke-miterlimit:10"
     x="392.23999"
     y="398.89999"
     stroke-miterlimit="10"
     width="8.0600004"
     height="47.110001"
     id="rect51" /><polygon
     style="fill:none;stroke:#000000;stroke-width:1.08280003;stroke-miterlimit:10"
     stroke-miterlimit="10"
     points="433.47,396.17 481.71,396.17 481.71,339.29 469.74,327.32 445.43,327.32 433.47,339.29 "
     id="polygon53" /><rect
     x="433.47"
     y="377.64001"
     width="14.19"
     height="18.530001"
     id="rect55" /><rect
     x="467.51999"
     y="377.64001"
     width="14.19"
     height="18.530001"
     id="rect57" /><polygon
     style="fill:none;stroke:#000000;stroke-width:1.08280003;stroke-linecap:round;stroke-linejoin:round;stroke-miterlimit:10"
     stroke-miterlimit="10"
     points="466.17,327.32 466.17,339.29 481.71,339.29 469.74,327.32 "
     id="polygon59" /><polygon
     style="fill:none;stroke:#000000;stroke-width:1.08280003;stroke-linecap:round;stroke-linejoin:round;stroke-miterlimit:10"
     stroke-miterlimit="10"
     points="449.01,327.32 449.01,339.29 433.47,339.29 445.43,327.32 "
     id="polygon61" /><rect
     style="fill:none;stroke:#000000;stroke-width:1.08280003;stroke-linecap:round;stroke-linejoin:round;stroke-miterlimit:10"
     x="435.51001"
     y="398.89999"
     stroke-miterlimit="10"
     width="8.0600004"
     height="47.110001"
     id="rect63" /><rect
     style="fill:none;stroke:#000000;stroke-width:1.08280003;stroke-linecap:round;stroke-linejoin:round;stroke-miterlimit:10"
     x="469.91"
     y="398.89999"
     stroke-miterlimit="10"
     width="8.0600004"
     height="47.110001"
     id="rect65" /><g
     id="g67">
	
		<rect
   style="fill:none;stroke:#000000;stroke-width:1.08280003;stroke-linecap:round;stroke-linejoin:round;stroke-miterlimit:10"
   x="304.04001"
   y="327.32001"
   stroke-miterlimit="10"
   width="8.9399996"
   height="15.98"
   id="rect69" />
	
		<rect
   style="fill:none;stroke:#000000;stroke-width:1.08280003;stroke-linecap:round;stroke-linejoin:round;stroke-miterlimit:10"
   x="312.97"
   y="327.32001"
   stroke-miterlimit="10"
   width="8.9399996"
   height="15.98"
   id="rect71" />
</g><polygon
     style="fill:none;stroke:#000000;stroke-width:1.08280003;stroke-miterlimit:10"
     stroke-miterlimit="10"
     points="527.05,396.17 575.29,396.17 575.29,339.29 563.33,327.32 539.02,327.32 527.05,339.29 "
     id="polygon73" /><rect
     x="527.04999"
     y="377.64001"
     width="14.19"
     height="18.530001"
     id="rect75" /><rect
     x="561.09998"
     y="377.64001"
     width="14.19"
     height="18.530001"
     id="rect77" /><rect
     style="fill:none;stroke:#000000;stroke-width:1.08280003;stroke-linecap:round;stroke-linejoin:round;stroke-miterlimit:10"
     x="529.09998"
     y="398.89999"
     stroke-miterlimit="10"
     width="8.0600004"
     height="47.110001"
     id="rect79" /><rect
     style="fill:none;stroke:#000000;stroke-width:1.08280003;stroke-linecap:round;stroke-linejoin:round;stroke-miterlimit:10"
     x="563.48999"
     y="398.89999"
     stroke-miterlimit="10"
     width="8.0600004"
     height="47.110001"
     id="rect81" /><g
     id="g83">
	
		<rect
   style="fill:none;stroke:#000000;stroke-width:1.08280003;stroke-linecap:round;stroke-linejoin:round;stroke-miterlimit:10"
   x="542.52002"
   y="327.32001"
   stroke-miterlimit="10"
   width="8.9300003"
   height="15.98"
   id="rect85" />
	
		<rect
   style="fill:none;stroke:#000000;stroke-width:1.08280003;stroke-linecap:round;stroke-linejoin:round;stroke-miterlimit:10"
   x="551.45001"
   y="327.32001"
   stroke-miterlimit="10"
   width="8.9399996"
   height="15.98"
   id="rect87" />
</g><rect
     x="757.41998"
     y="327.32001"
     width="8.9300003"
     height="15.98"
     id="rect89" /><rect
     x="768.90002"
     y="327.32001"
     width="8.9399996"
     height="15.98"
     id="rect91" /><polygon
     style="fill:none;stroke:#000000;stroke-width:1.08280003;stroke-miterlimit:10"
     stroke-miterlimit="10"
     points="594.75,396.17 642.99,396.17 642.99,339.29 631.02,327.32 606.71,327.32 594.75,339.29 "
     id="polygon93" /><rect
     x="594.75"
     y="377.64001"
     width="14.19"
     height="18.530001"
     id="rect95" /><rect
     x="628.79999"
     y="377.64001"
     width="14.19"
     height="18.530001"
     id="rect97" /><rect
     style="fill:none;stroke:#000000;stroke-width:1.08280003;stroke-linecap:round;stroke-linejoin:round;stroke-miterlimit:10"
     x="596.78998"
     y="398.89999"
     stroke-miterlimit="10"
     width="8.0600004"
     height="47.110001"
     id="rect99" /><rect
     style="fill:none;stroke:#000000;stroke-width:1.08280003;stroke-linecap:round;stroke-linejoin:round;stroke-miterlimit:10"
     x="631.19"
     y="398.89999"
     stroke-miterlimit="10"
     width="8.0600004"
     height="47.110001"
     id="rect101" /><rect
     style="fill:none;stroke:#000000;stroke-width:1.08280003;stroke-linecap:round;stroke-linejoin:round;stroke-miterlimit:10"
     x="611.83002"
     y="327.32001"
     stroke-miterlimit="10"
     width="14.68"
     height="15.98"
     id="rect103" /><rect
     style="fill:none;stroke:#000000;stroke-width:1.08280003;stroke-linecap:round;stroke-linejoin:round;stroke-miterlimit:10"
     x="374.57999"
     y="327.32001"
     stroke-miterlimit="10"
     width="14.68"
     height="15.98"
     id="rect105" /><polygon
     style="fill:none;stroke:#000000;stroke-width:1.08280003;stroke-miterlimit:10"
     stroke-miterlimit="10"
     points="678.36,396.17 726.6,396.17 726.6,339.29 714.64,327.32 690.33,327.32 678.36,339.29 "
     id="polygon107" /><g
     id="g109">
	<g
   id="g111">
		<polyline
   style="fill:none;stroke:#000000;stroke-width:1.08280003;stroke-linecap:round;stroke-linejoin:round"
   points="    692.55,392.56 692.55,396.17 688.94,396.17   "
   id="polyline113" />
		<polyline
   style="fill:none;stroke:#000000;stroke-width:1.08280003;stroke-linecap:round;stroke-linejoin:round"
   points="    681.97,396.17 678.36,396.17 678.36,392.56   "
   id="polyline115" />
		
			<line
   style="fill:none;stroke:#000000;stroke-width:1.08280003;stroke-linecap:round;stroke-linejoin:round;stroke-dasharray:3.7715, 3.7715"
   x1="678.35999"
   y1="388.79001"
   x2="678.35999"
   y2="383.13"
   id="line117" />
		<polyline
   style="fill:none;stroke:#000000;stroke-width:1.08280003;stroke-linecap:round;stroke-linejoin:round"
   points="    678.36,381.25 678.36,377.64 681.97,377.64   "
   id="polyline119" />
		<polyline
   style="fill:none;stroke:#000000;stroke-width:1.08280003;stroke-linecap:round;stroke-linejoin:round"
   points="    688.94,377.64 692.55,377.64 692.55,381.25   "
   id="polyline121" />
		
			<line
   style="fill:none;stroke:#000000;stroke-width:1.08280003;stroke-linecap:round;stroke-linejoin:round;stroke-dasharray:3.7715, 3.7715"
   x1="692.54999"
   y1="385.01999"
   x2="692.54999"
   y2="390.67001"
   id="line123" />
	</g>
</g><g
     id="g125">
	<g
   id="g127">
		<polyline
   style="fill:none;stroke:#000000;stroke-width:1.08280003;stroke-linecap:round;stroke-linejoin:round"
   points="    726.6,392.56 726.6,396.17 722.99,396.17   "
   id="polyline129" />
		<polyline
   style="fill:none;stroke:#000000;stroke-width:1.08280003;stroke-linecap:round;stroke-linejoin:round"
   points="    716.02,396.17 712.41,396.17 712.41,392.56   "
   id="polyline131" />
		
			<line
   style="fill:none;stroke:#000000;stroke-width:1.08280003;stroke-linecap:round;stroke-linejoin:round;stroke-dasharray:3.7715, 3.7715"
   x1="712.40997"
   y1="388.79001"
   x2="712.40997"
   y2="383.13"
   id="line133" />
		<polyline
   style="fill:none;stroke:#000000;stroke-width:1.08280003;stroke-linecap:round;stroke-linejoin:round"
   points="    712.41,381.25 712.41,377.64 716.02,377.64   "
   id="polyline135" />
		<polyline
   style="fill:none;stroke:#000000;stroke-width:1.08280003;stroke-linecap:round;stroke-linejoin:round"
   points="    722.99,377.64 726.6,377.64 726.6,381.25   "
   id="polyline137" />
		
			<line
   style="fill:none;stroke:#000000;stroke-width:1.08280003;stroke-linecap:round;stroke-linejoin:round;stroke-dasharray:3.7715, 3.7715"
   x1="726.59998"
   y1="385.01999"
   x2="726.59998"
   y2="390.67001"
   id="line139" />
	</g>
</g><rect
     style="fill:none;stroke:#000000;stroke-width:1.08280003;stroke-linecap:round;stroke-linejoin:round;stroke-miterlimit:10"
     x="680.40997"
     y="398.89999"
     stroke-miterlimit="10"
     width="8.0600004"
     height="47.110001"
     id="rect141" /><rect
     style="fill:none;stroke:#000000;stroke-width:1.08280003;stroke-linecap:round;stroke-linejoin:round;stroke-miterlimit:10"
     x="714.79999"
     y="398.89999"
     stroke-miterlimit="10"
     width="8.0600004"
     height="47.110001"
     id="rect143" /><rect
     x="694.16998"
     y="327.32001"
     width="14.68"
     height="15.98"
     id="rect145" /><polygon
     style="fill:none;stroke:#000000;stroke-width:1.08280003;stroke-miterlimit:10"
     stroke-miterlimit="10"
     points="743.51,396.17 791.75,396.17 791.75,339.29 779.79,327.32 755.47,327.32 743.51,339.29 "
     id="polygon147" /><g
     id="g149">
	<g
   id="g151">
		<polyline
   style="fill:none;stroke:#000000;stroke-width:1.08280003;stroke-linecap:round;stroke-linejoin:round"
   points="    757.7,392.56 757.7,396.17 754.09,396.17   "
   id="polyline153" />
		<polyline
   style="fill:none;stroke:#000000;stroke-width:1.08280003;stroke-linecap:round;stroke-linejoin:round"
   points="    747.12,396.17 743.51,396.17 743.51,392.56   "
   id="polyline155" />
		
			<line
   style="fill:none;stroke:#000000;stroke-width:1.08280003;stroke-linecap:round;stroke-linejoin:round;stroke-dasharray:3.7715, 3.7715"
   x1="743.51001"
   y1="388.79001"
   x2="743.51001"
   y2="383.13"
   id="line157" />
		<polyline
   style="fill:none;stroke:#000000;stroke-width:1.08280003;stroke-linecap:round;stroke-linejoin:round"
   points="    743.51,381.25 743.51,377.64 747.12,377.64   "
   id="polyline159" />
		<polyline
   style="fill:none;stroke:#000000;stroke-width:1.08280003;stroke-linecap:round;stroke-linejoin:round"
   points="    754.09,377.64 757.7,377.64 757.7,381.25   "
   id="polyline161" />
		
			<line
   style="fill:none;stroke:#000000;stroke-width:1.08280003;stroke-linecap:round;stroke-linejoin:round;stroke-dasharray:3.7715, 3.7715"
   x1="757.70001"
   y1="385.01999"
   x2="757.70001"
   y2="390.67001"
   id="line163" />
	</g>
</g><g
     id="g165">
	<g
   id="g167">
		<polyline
   style="fill:none;stroke:#000000;stroke-width:1.08280003;stroke-linecap:round;stroke-linejoin:round"
   points="    791.75,392.56 791.75,396.17 788.14,396.17   "
   id="polyline169" />
		<polyline
   style="fill:none;stroke:#000000;stroke-width:1.08280003;stroke-linecap:round;stroke-linejoin:round"
   points="    781.17,396.17 777.56,396.17 777.56,392.56   "
   id="polyline171" />
		
			<line
   style="fill:none;stroke:#000000;stroke-width:1.08280003;stroke-linecap:round;stroke-linejoin:round;stroke-dasharray:3.7715, 3.7715"
   x1="777.56"
   y1="388.79001"
   x2="777.56"
   y2="383.13"
   id="line173" />
		<polyline
   style="fill:none;stroke:#000000;stroke-width:1.08280003;stroke-linecap:round;stroke-linejoin:round"
   points="    777.56,381.25 777.56,377.64 781.17,377.64   "
   id="polyline175" />
		<polyline
   style="fill:none;stroke:#000000;stroke-width:1.08280003;stroke-linecap:round;stroke-linejoin:round"
   points="    788.14,377.64 791.75,377.64 791.75,381.25   "
   id="polyline177" />
		
			<line
   style="fill:none;stroke:#000000;stroke-width:1.08280003;stroke-linecap:round;stroke-linejoin:round;stroke-dasharray:3.7715, 3.7715"
   x1="791.75"
   y1="385.01999"
   x2="791.75"
   y2="390.67001"
   id="line179" />
	</g>
</g><rect
     style="fill:none;stroke:#000000;stroke-width:1.08280003;stroke-linecap:round;stroke-linejoin:round;stroke-miterlimit:10"
     x="745.56"
     y="398.89999"
     stroke-miterlimit="10"
     width="8.0600004"
     height="47.110001"
     id="rect181" /><rect
     style="fill:none;stroke:#000000;stroke-width:1.08280003;stroke-linecap:round;stroke-linejoin:round;stroke-miterlimit:10"
     x="779.95001"
     y="398.89999"
     stroke-miterlimit="10"
     width="8.0600004"
     height="47.110001"
     id="rect183" /><line
     style="fill:none;stroke:#000000;stroke-width:1.08280003;stroke-miterlimit:10"
     stroke-miterlimit="10"
     x1="259.51999"
     y1="327.32001"
     x2="259.51999"
     y2="453.01001"
     id="line185" /><line
     style="fill:none;stroke:#000000;stroke-width:1.08280003;stroke-miterlimit:10"
     stroke-miterlimit="10"
     x1="502.53"
     y1="327.32001"
     x2="502.53"
     y2="453.01001"
     id="line187" /><rect
     style="fill:none;stroke:#000000;stroke-width:1.08280003;stroke-miterlimit:10"
     x="183.12"
     y="254.8"
     stroke-miterlimit="10"
     width="229.62"
     height="254.23"
     id="rect189" /><rect
     style="fill:none;stroke:#000000;stroke-width:1.08280003;stroke-miterlimit:10"
     x="423.89001"
     y="254.8"
     stroke-miterlimit="10"
     width="229.62"
     height="254.23"
     id="rect191" /><rect
     style="fill:none;stroke:#000000;stroke-width:1.08280003;stroke-miterlimit:10"
     x="664.09998"
     y="254.8"
     stroke-miterlimit="10"
     width="140.17"
     height="254.23"
     id="rect193" /><g
     id="g195">
	<path
   d="m 357.46,276.19 c 0,0.12 -0.06,0.18 -0.18,0.18 l -0.79,0 c -0.12,0 -0.18,-0.06 -0.18,-0.18 l 0,-5.24 c 0,-0.28 -0.04,-0.78 -0.26,-1.16 -0.12,-0.21 -0.17,-0.34 -0.17,-0.38 0.01,-0.09 0.08,-0.14 0.11,-0.15 l 0.57,-0.35 c 0.06,-0.05 0.12,-0.08 0.15,-0.08 0.28,0 0.54,0.95 0.6,1.28 0.4,-0.43 0.95,-1.28 1.83,-1.28 0.35,0 0.75,0.12 0.75,0.26 0,0.03 -0.03,0.08 -0.05,0.12 l -0.34,0.78 c -0.01,0.03 -0.03,0.11 -0.09,0.11 -0.08,0 -0.21,-0.14 -0.5,-0.14 -0.53,0 -1.07,0.79 -1.44,1.19 l 0,5.04 z"
   id="path197" />
	<path
   d="m 365.09,269.22 c 0,-0.11 0.05,-0.17 0.11,-0.18 l 0.76,-0.18 c 0.12,-0.03 0.08,-0.02 0.18,-0.03 0.11,0 0.11,0.12 0.11,0.2 l 0,5.44 c 0,0.35 0.01,0.69 0.17,1.01 0.09,0.18 0.29,0.49 0.29,0.58 0,0.06 -0.08,0.09 -0.14,0.12 l -0.6,0.37 c -0.06,0.03 -0.09,0.05 -0.12,0.05 -0.23,0 -0.4,-0.55 -0.57,-0.9 -0.43,0.35 -1.25,0.9 -2.12,0.9 -2.06,0 -2.23,-1.19 -2.23,-2.29 l 0,-5.07 c 0,-0.11 0.05,-0.17 0.11,-0.18 l 0.76,-0.18 c 0.12,-0.03 0.08,-0.02 0.18,-0.03 0.11,0 0.11,0.12 0.11,0.2 l 0,5.3 c 0,0.66 0.26,1.24 1.25,1.24 0.47,0 1.45,-0.5 1.74,-0.78 l 0,-5.59 z"
   id="path199" />
	<path
   d="m 373.69,275.67 c 0.02,0.04 0.05,0.08 0.05,0.12 0,0.17 -1.28,0.79 -2.41,0.79 -2.03,-0.02 -3.22,-1.56 -3.22,-3.88 0,-2.25 1.13,-3.88 3.02,-3.88 2.55,0 2.78,2.47 2.78,3.79 0,0.21 0,0.34 -0.17,0.34 l -4.38,0 c 0,0.93 0.37,2.61 2.11,2.61 0.99,0 1.79,-0.63 1.88,-0.63 0.05,0 0.06,0.05 0.09,0.09 l 0.25,0.65 z M 372.65,272 c 0,-0.79 -0.26,-2.23 -1.59,-2.23 -1.41,0 -1.71,1.47 -1.71,2.23 l 3.3,0 z"
   id="path201" />
	<path
   d="m 380.9,273.96 c 0,0.69 0,1.15 0.17,1.53 0.08,0.18 0.28,0.47 0.28,0.57 0,0.06 -0.08,0.09 -0.14,0.12 l -0.6,0.37 c -0.06,0.03 -0.09,0.05 -0.12,0.05 -0.21,0 -0.49,-0.66 -0.55,-0.9 -0.37,0.26 -1.12,0.9 -2.25,0.9 -1.63,0 -2.38,-1.83 -2.38,-3.73 0,-2.2 0.78,-4.03 2.55,-4.03 0.95,0 1.47,0.26 1.88,0.52 l 0,-3.63 c 0,-0.11 0.05,-0.17 0.11,-0.18 l 0.75,-0.18 c 0.12,-0.03 0.08,-0.01 0.18,-0.03 0.12,0 0.12,0.12 0.12,0.2 l 0,8.42 z m -1.16,-3.61 c -0.49,-0.26 -0.98,-0.5 -1.74,-0.5 -1.31,0 -1.44,1.5 -1.44,2.98 0,1.28 0.11,2.73 1.34,2.73 0.79,0 1.47,-0.67 1.83,-0.9 l 0,-4.31 z"
   id="path203" />
	<path
   d="m 388.04,273.96 c 0,0.96 0.05,1.1 0.18,1.53 0.06,0.18 0.27,0.47 0.27,0.57 0,0.06 -0.08,0.09 -0.14,0.12 l -0.6,0.37 c -0.06,0.03 -0.09,0.05 -0.12,0.05 -0.23,0 -0.5,-0.81 -0.58,-1.02 -0.18,0.17 -0.93,1.02 -2.2,1.02 -1.21,0 -1.99,-0.79 -1.99,-2.15 0,-2.58 3.06,-2.63 4,-2.66 l 0,-0.55 c 0,-0.89 -0.27,-1.38 -1.36,-1.38 -1.02,0 -1.73,0.49 -1.86,0.49 -0.05,0 -0.09,-0.03 -0.11,-0.08 l -0.2,-0.54 c -0.03,-0.08 -0.05,-0.12 -0.05,-0.2 0,-0.26 1.41,-0.7 2.38,-0.7 1.76,0 2.35,0.85 2.35,2.14 l 0,2.99 z m -1.16,-1.24 c -0.67,0.02 -2.86,0.02 -2.86,1.62 0,0.61 0.34,1.3 1.11,1.3 0.79,0 1.5,-0.73 1.74,-0.95 l 0,-1.97 z"
   id="path205" />
	<path
   d="m 356.32,286.23 c 0,-0.35 -0.02,-0.72 -0.09,-1.07 -0.08,-0.35 -0.2,-0.44 -0.2,-0.52 0,-0.03 0.02,-0.06 0.08,-0.11 l 0.66,-0.37 c 0.03,-0.02 0.09,-0.06 0.14,-0.06 0.23,0 0.4,0.79 0.41,0.9 0.4,-0.37 1.34,-0.9 1.99,-0.9 0.99,0 1.42,0.3 1.62,0.92 0.46,-0.34 1.28,-0.92 2.02,-0.92 1.7,0 1.82,1.19 1.82,2.29 l 0,5.07 c 0,0.12 -0.06,0.18 -0.18,0.18 l -0.79,0 c -0.12,0 -0.18,-0.06 -0.18,-0.18 l 0,-5.1 c 0,-0.66 -0.17,-1.24 -0.98,-1.24 -0.73,0 -1.19,0.41 -1.5,0.63 l 0,5.71 c 0,0.12 -0.06,0.18 -0.18,0.18 l -0.79,0 c -0.12,0 -0.18,-0.06 -0.18,-0.18 l 0,-5.1 c 0,-0.66 -0.17,-1.24 -0.99,-1.24 -0.69,0 -1.22,0.43 -1.48,0.64 l 0,5.7 c 0,0.12 -0.06,0.18 -0.18,0.18 l -0.79,0 c -0.12,0 -0.18,-0.06 -0.18,-0.18 l 0,-5.23 z"
   id="path207" />
	<path
   d="m 369.76,291.86 c -2.06,0 -2.95,-1.67 -2.95,-3.85 0,-2.11 0.89,-3.91 3.1,-3.91 2.09,0 2.98,1.68 2.98,3.83 0.01,2.15 -0.9,3.93 -3.13,3.93 z m 1.88,-3.94 c 0,-1.5 -0.41,-2.87 -1.79,-2.87 -1.37,0 -1.79,1.31 -1.79,2.83 0,1.74 0.4,3.04 1.8,3.04 1.37,0 1.78,-1.24 1.78,-3 z"
   id="path209" />
	<path
   d="m 379.01,291.08 c 0.01,0.06 0.03,0.11 0.03,0.15 0,0.2 -1.15,0.63 -1.97,0.63 -0.66,0 -1.21,-0.24 -1.44,-0.53 -0.44,-0.47 -0.44,-1.16 -0.44,-1.73 l 0,-4.34 -1.15,0 c -0.11,0 -0.11,-0.11 -0.11,-0.18 l 0,-0.58 c 0,-0.11 0,-0.18 0.11,-0.18 l 1.15,0 0,-2.09 c 0,-0.09 0.06,-0.15 0.17,-0.18 l 0.81,-0.23 c 0.05,0 0.08,-0.01 0.11,-0.01 0.08,0 0.08,0.08 0.08,0.17 l 0,2.35 2.26,0 c 0.09,0 0.17,0.02 0.17,0.11 0,0.03 -0.02,0.06 -0.02,0.11 l -0.2,0.6 c -0.03,0.08 -0.11,0.14 -0.2,0.14 l -2.02,0 0,4.34 c 0,0.61 0,1.24 0.92,1.24 0.72,0 1.33,-0.41 1.47,-0.41 0.06,0 0.11,0.05 0.11,0.09 l 0.16,0.53 z"
   id="path211" />
	<path
   d="m 381.51,291.47 c 0,0.12 -0.06,0.18 -0.18,0.18 l -0.79,0 c -0.12,0 -0.18,-0.06 -0.18,-0.18 l 0,-5.24 c 0,-0.28 -0.04,-0.78 -0.26,-1.16 -0.12,-0.21 -0.17,-0.34 -0.17,-0.38 0.01,-0.09 0.08,-0.14 0.11,-0.15 l 0.57,-0.35 c 0.06,-0.05 0.12,-0.08 0.15,-0.08 0.28,0 0.54,0.95 0.6,1.28 0.4,-0.43 0.95,-1.28 1.83,-1.28 0.35,0 0.75,0.12 0.75,0.26 0,0.03 -0.03,0.08 -0.05,0.12 l -0.34,0.78 c -0.01,0.03 -0.03,0.11 -0.09,0.11 -0.08,0 -0.21,-0.14 -0.5,-0.14 -0.53,0 -1.07,0.79 -1.44,1.19 l 0,5.04 z"
   id="path213" />
	<path
   d="m 386.77,291.47 c 0,0.12 -0.06,0.18 -0.18,0.18 l -0.79,0 c -0.12,0 -0.18,-0.06 -0.18,-0.18 l 0,-6.2 -1.19,0 c -0.12,0 -0.18,-0.06 -0.18,-0.18 l 0,-0.58 c 0,-0.12 0.06,-0.18 0.18,-0.18 l 2.15,0 c 0.17,0 0.2,0.09 0.2,0.23 l 0,6.91 z m -0.66,-8.91 c -0.52,0 -0.93,-0.41 -0.93,-0.93 0,-0.52 0.41,-0.93 0.93,-0.93 0.52,0 0.93,0.43 0.93,0.93 0,0.5 -0.41,0.93 -0.93,0.93 z"
   id="path215" />
	<path
   d="m 390.1,290.66 3.77,0 c 0.14,0 0.21,0.02 0.21,0.06 0,0.04 -0.03,0.09 -0.06,0.17 l -0.28,0.63 c -0.05,0.12 -0.11,0.14 -0.2,0.14 l -4.77,0 c -0.15,0 -0.17,-0.02 -0.17,-0.18 l 0,-0.61 3.83,-5.54 -3.34,0 c -0.12,0 -0.18,-0.06 -0.18,-0.18 l 0,-0.63 c 0,-0.15 0.03,-0.18 0.18,-0.18 l 4.61,0 c 0.15,0 0.18,0.03 0.18,0.18 l 0,0.63 -3.78,5.51 z"
   id="path217" />
</g><g
     id="g219">
	<path
   d="m 198.18,281.18 c 0.01,0.06 0.03,0.11 0.03,0.15 0,0.2 -1.15,0.63 -1.97,0.63 -0.66,0 -1.21,-0.24 -1.44,-0.53 -0.44,-0.47 -0.44,-1.16 -0.44,-1.73 l 0,-4.34 -1.15,0 c -0.11,0 -0.11,-0.11 -0.11,-0.18 l 0,-0.58 c 0,-0.11 0,-0.18 0.11,-0.18 l 1.15,0 0,-2.09 c 0,-0.09 0.06,-0.15 0.17,-0.18 l 0.81,-0.23 c 0.05,0 0.08,-0.01 0.11,-0.01 0.08,0 0.08,0.08 0.08,0.17 l 0,2.35 2.26,0 c 0.09,0 0.17,0.02 0.17,0.11 0,0.03 -0.02,0.06 -0.02,0.11 l -0.2,0.6 c -0.03,0.08 -0.11,0.14 -0.2,0.14 l -2.02,0 0,4.34 c 0,0.61 0,1.24 0.92,1.24 0.72,0 1.33,-0.41 1.47,-0.41 0.06,0 0.11,0.05 0.11,0.09 l 0.16,0.53 z"
   id="path221" />
	<path
   d="m 200.69,281.56 c 0,0.12 -0.06,0.18 -0.18,0.18 l -0.79,0 c -0.12,0 -0.18,-0.06 -0.18,-0.18 l 0,-5.24 c 0,-0.28 -0.04,-0.78 -0.26,-1.16 -0.12,-0.21 -0.17,-0.34 -0.17,-0.38 0.01,-0.09 0.08,-0.14 0.11,-0.15 l 0.57,-0.35 c 0.06,-0.05 0.12,-0.08 0.15,-0.08 0.28,0 0.54,0.95 0.6,1.28 0.4,-0.43 0.95,-1.28 1.83,-1.28 0.35,0 0.75,0.12 0.75,0.26 0,0.03 -0.03,0.08 -0.05,0.12 l -0.34,0.78 c -0.01,0.03 -0.03,0.11 -0.09,0.11 -0.08,0 -0.21,-0.14 -0.5,-0.14 -0.53,0 -1.07,0.79 -1.44,1.19 l 0,5.04 z"
   id="path223" />
	<path
   d="m 208.91,279.33 c 0,0.96 0.05,1.1 0.18,1.53 0.06,0.18 0.27,0.47 0.27,0.57 0,0.06 -0.08,0.09 -0.14,0.12 l -0.6,0.37 c -0.06,0.03 -0.09,0.05 -0.12,0.05 -0.23,0 -0.5,-0.81 -0.58,-1.02 -0.18,0.17 -0.93,1.02 -2.2,1.02 -1.21,0 -1.99,-0.79 -1.99,-2.15 0,-2.58 3.06,-2.63 4,-2.66 l 0,-0.55 c 0,-0.89 -0.27,-1.38 -1.36,-1.38 -1.02,0 -1.73,0.49 -1.86,0.49 -0.05,0 -0.09,-0.03 -0.11,-0.08 l -0.2,-0.54 c -0.03,-0.08 -0.05,-0.12 -0.05,-0.2 0,-0.26 1.41,-0.7 2.38,-0.7 1.76,0 2.35,0.85 2.35,2.14 l 0,2.99 z m -1.16,-1.24 c -0.67,0.02 -2.86,0.02 -2.86,1.62 0,0.61 0.34,1.3 1.11,1.3 0.79,0 1.5,-0.73 1.74,-0.95 l 0,-1.97 z"
   id="path225" />
	<path
   d="m 216.78,281.56 c 0,0.12 -0.06,0.18 -0.18,0.18 l -0.79,0 c -0.12,0 -0.18,-0.06 -0.18,-0.18 l 0,-5.1 c 0,-0.66 -0.17,-1.24 -0.99,-1.24 -0.99,0 -1.63,0.6 -2.02,0.93 l 0,5.41 c 0,0.12 -0.06,0.18 -0.18,0.18 l -0.79,0 c -0.12,0 -0.18,-0.06 -0.18,-0.18 l 0,-5.27 c 0,-0.5 0,-0.67 -0.06,-0.9 -0.12,-0.46 -0.24,-0.57 -0.24,-0.64 0,-0.03 0.02,-0.06 0.08,-0.11 l 0.69,-0.38 c 0.03,-0.02 0.08,-0.06 0.12,-0.06 0.28,0 0.46,0.92 0.47,1.04 0.5,-0.4 1.3,-1.04 2.46,-1.04 1.7,0 1.82,1.19 1.82,2.29 l 0,5.07 z"
   id="path227" />
	<path
   d="m 222.81,275.42 c -0.06,0.12 -0.09,0.18 -0.18,0.18 -0.11,0 -0.75,-0.41 -1.54,-0.41 -0.61,0 -1.13,0.31 -1.13,1.01 0,1.68 3.39,1.21 3.39,3.59 0,1.44 -1.13,2.17 -2.44,2.17 -0.73,0 -2.32,-0.43 -2.32,-0.73 0,-0.08 0.03,-0.12 0.06,-0.18 l 0.21,-0.47 c 0.05,-0.11 0.09,-0.14 0.14,-0.14 0.14,0 0.93,0.53 1.97,0.53 0.66,0 1.22,-0.37 1.22,-1.1 0,-1.59 -3.39,-1.24 -3.39,-3.54 0,-1.24 0.96,-2.12 2.31,-2.12 0.52,0 1.41,0.24 1.8,0.46 0.12,0.06 0.17,0.12 0.17,0.2 0,0.05 -0.05,0.09 -0.06,0.15 l -0.21,0.4 z"
   id="path229" />
	<path
   d="m 225.3,276.32 c 0,-0.35 -0.02,-0.72 -0.09,-1.07 -0.08,-0.35 -0.2,-0.44 -0.2,-0.52 0,-0.03 0.02,-0.06 0.08,-0.11 l 0.66,-0.37 c 0.03,-0.02 0.09,-0.06 0.14,-0.06 0.23,0 0.4,0.79 0.41,0.9 0.4,-0.37 1.34,-0.9 1.99,-0.9 0.99,0 1.42,0.3 1.62,0.92 0.46,-0.34 1.28,-0.92 2.02,-0.92 1.7,0 1.82,1.19 1.82,2.29 l 0,5.07 c 0,0.12 -0.06,0.18 -0.18,0.18 l -0.79,0 c -0.12,0 -0.18,-0.06 -0.18,-0.18 l 0,-5.1 c 0,-0.66 -0.17,-1.24 -0.98,-1.24 -0.73,0 -1.19,0.41 -1.5,0.63 l 0,5.71 c 0,0.12 -0.06,0.18 -0.18,0.18 l -0.79,0 c -0.12,0 -0.18,-0.06 -0.18,-0.18 l 0,-5.1 c 0,-0.66 -0.17,-1.24 -0.99,-1.24 -0.69,0 -1.22,0.43 -1.48,0.64 l 0,5.7 c 0,0.12 -0.06,0.18 -0.18,0.18 l -0.79,0 c -0.12,0 -0.18,-0.06 -0.18,-0.18 l 0,-5.23 z"
   id="path231" />
	<path
   d="m 237.92,281.56 c 0,0.12 -0.06,0.18 -0.18,0.18 l -0.79,0 c -0.12,0 -0.18,-0.06 -0.18,-0.18 l 0,-6.2 -1.19,0 c -0.12,0 -0.18,-0.06 -0.18,-0.18 l 0,-0.58 c 0,-0.12 0.06,-0.18 0.18,-0.18 l 2.15,0 c 0.17,0 0.2,0.09 0.2,0.23 l 0,6.91 z m -0.65,-8.9 c -0.52,0 -0.93,-0.41 -0.93,-0.93 0,-0.52 0.41,-0.93 0.93,-0.93 0.52,0 0.93,0.43 0.93,0.93 0,0.5 -0.41,0.93 -0.93,0.93 z"
   id="path233" />
	<path
   d="m 244.04,275.42 c -0.06,0.12 -0.09,0.18 -0.18,0.18 -0.11,0 -0.75,-0.41 -1.54,-0.41 -0.61,0 -1.13,0.31 -1.13,1.01 0,1.68 3.39,1.21 3.39,3.59 0,1.44 -1.13,2.17 -2.44,2.17 -0.73,0 -2.32,-0.43 -2.32,-0.73 0,-0.08 0.03,-0.12 0.06,-0.18 l 0.21,-0.47 c 0.05,-0.11 0.09,-0.14 0.14,-0.14 0.14,0 0.93,0.53 1.97,0.53 0.66,0 1.22,-0.37 1.22,-1.1 0,-1.59 -3.39,-1.24 -3.39,-3.54 0,-1.24 0.96,-2.12 2.31,-2.12 0.52,0 1.41,0.24 1.8,0.46 0.12,0.06 0.17,0.12 0.17,0.2 0,0.05 -0.05,0.09 -0.06,0.15 l -0.21,0.4 z"
   id="path235" />
	<path
   d="m 248.12,281.56 c 0,0.12 -0.06,0.18 -0.18,0.18 l -0.79,0 c -0.12,0 -0.18,-0.06 -0.18,-0.18 l 0,-6.2 -1.19,0 c -0.12,0 -0.18,-0.06 -0.18,-0.18 l 0,-0.58 c 0,-0.12 0.06,-0.18 0.18,-0.18 l 2.15,0 c 0.17,0 0.2,0.09 0.2,0.23 l 0,6.91 z m -0.66,-8.9 c -0.52,0 -0.93,-0.41 -0.93,-0.93 0,-0.52 0.41,-0.93 0.93,-0.93 0.52,0 0.93,0.43 0.93,0.93 0,0.5 -0.41,0.93 -0.93,0.93 z"
   id="path237" />
	<path
   d="m 253.19,281.96 c -2.06,0 -2.95,-1.67 -2.95,-3.85 0,-2.11 0.89,-3.91 3.1,-3.91 2.09,0 2.98,1.68 2.98,3.83 0,2.14 -0.9,3.93 -3.13,3.93 z m 1.88,-3.94 c 0,-1.5 -0.41,-2.87 -1.79,-2.87 -1.37,0 -1.79,1.31 -1.79,2.83 0,1.74 0.4,3.04 1.8,3.04 1.36,-0.01 1.78,-1.25 1.78,-3 z"
   id="path239" />
	<path
   d="m 263.76,281.56 c 0,0.12 -0.06,0.18 -0.18,0.18 l -0.79,0 c -0.12,0 -0.18,-0.06 -0.18,-0.18 l 0,-5.1 c 0,-0.66 -0.17,-1.24 -0.99,-1.24 -0.99,0 -1.63,0.6 -2.02,0.93 l 0,5.41 c 0,0.12 -0.06,0.18 -0.18,0.18 l -0.79,0 c -0.12,0 -0.18,-0.06 -0.18,-0.18 l 0,-5.27 c 0,-0.5 0,-0.67 -0.06,-0.9 -0.12,-0.46 -0.24,-0.57 -0.24,-0.64 0,-0.03 0.02,-0.06 0.08,-0.11 l 0.69,-0.38 c 0.03,-0.02 0.08,-0.06 0.12,-0.06 0.28,0 0.46,0.92 0.47,1.04 0.5,-0.4 1.3,-1.04 2.46,-1.04 1.7,0 1.82,1.19 1.82,2.29 l 0,5.07 z"
   id="path241" />
	<path
   d="m 271.26,281.04 c 0.02,0.04 0.05,0.08 0.05,0.12 0,0.17 -1.28,0.79 -2.41,0.79 -2.03,-0.02 -3.22,-1.56 -3.22,-3.88 0,-2.25 1.13,-3.88 3.02,-3.88 2.55,0 2.78,2.47 2.78,3.79 0,0.21 0,0.34 -0.17,0.34 l -4.38,0 c 0,0.93 0.37,2.61 2.11,2.61 0.99,0 1.79,-0.63 1.88,-0.63 0.05,0 0.06,0.05 0.09,0.09 l 0.25,0.65 z m -1.04,-3.66 c 0,-0.79 -0.26,-2.23 -1.59,-2.23 -1.41,0 -1.71,1.47 -1.71,2.23 l 3.3,0 z"
   id="path243" />
	<path
   d="m 276.87,275.42 c -0.06,0.12 -0.09,0.18 -0.18,0.18 -0.11,0 -0.75,-0.41 -1.54,-0.41 -0.61,0 -1.13,0.31 -1.13,1.01 0,1.68 3.39,1.21 3.39,3.59 0,1.44 -1.13,2.17 -2.44,2.17 -0.73,0 -2.32,-0.43 -2.32,-0.73 0,-0.08 0.03,-0.12 0.06,-0.18 l 0.21,-0.47 c 0.05,-0.11 0.09,-0.14 0.14,-0.14 0.14,0 0.93,0.53 1.97,0.53 0.66,0 1.22,-0.37 1.22,-1.1 0,-1.59 -3.39,-1.24 -3.39,-3.54 0,-1.24 0.96,-2.12 2.31,-2.12 0.52,0 1.41,0.24 1.8,0.46 0.12,0.06 0.17,0.12 0.17,0.2 0,0.05 -0.05,0.09 -0.06,0.15 l -0.21,0.4 z"
   id="path245" />
</g><g
     id="g247">
	<path
   d="m 196.03,495.23 c 0,0.17 -0.03,0.21 -0.2,0.21 l -0.75,0 c -0.17,0 -0.21,-0.05 -0.21,-0.21 l 0,-2.17 -3.88,0 c -0.18,0 -0.21,-0.03 -0.21,-0.2 l 0,-0.87 4,-6.66 c 0.05,-0.08 0.08,-0.14 0.17,-0.14 0.05,0 0.11,0.02 0.2,0.03 l 0.64,0.11 c 0.09,0.02 0.2,0.05 0.2,0.11 0,0.05 -0.05,0.14 -0.08,0.17 l -3.93,6.46 2.89,0 0.2,-2.46 c 0,-0.15 0.02,-0.2 0.21,-0.2 l 0.55,0 c 0.17,0 0.2,0.05 0.2,0.21 l 0,2.44 1.22,0 c 0.17,0 0.21,0.03 0.21,0.21 l 0,0.58 c 0,0.18 -0.04,0.2 -0.21,0.2 l -1.22,0 0,2.18 z"
   id="path249" />
	<path
   d="m 204.93,495.05 c 0,0.12 -0.06,0.18 -0.18,0.18 l -0.79,0 c -0.12,0 -0.18,-0.06 -0.18,-0.18 l 0,-5.24 c 0,-0.28 -0.04,-0.78 -0.26,-1.16 -0.12,-0.21 -0.17,-0.34 -0.17,-0.38 0.01,-0.09 0.08,-0.14 0.11,-0.15 l 0.57,-0.35 c 0.06,-0.05 0.12,-0.08 0.15,-0.08 0.28,0 0.54,0.95 0.6,1.28 0.4,-0.43 0.95,-1.28 1.83,-1.28 0.35,0 0.75,0.12 0.75,0.26 0,0.03 -0.03,0.08 -0.05,0.12 l -0.34,0.78 c -0.01,0.03 -0.03,0.11 -0.09,0.11 -0.08,0 -0.21,-0.14 -0.5,-0.14 -0.53,0 -1.07,0.79 -1.44,1.19 l 0,5.04 z"
   id="path251" />
	<path
   d="m 212.55,488.08 c 0,-0.11 0.05,-0.17 0.11,-0.18 l 0.76,-0.18 c 0.12,-0.03 0.08,-0.02 0.18,-0.03 0.11,0 0.11,0.12 0.11,0.2 l 0,5.44 c 0,0.35 0.01,0.69 0.17,1.01 0.09,0.18 0.29,0.49 0.29,0.58 0,0.06 -0.08,0.09 -0.14,0.12 l -0.6,0.37 c -0.06,0.03 -0.09,0.05 -0.12,0.05 -0.23,0 -0.4,-0.55 -0.57,-0.9 -0.43,0.35 -1.25,0.9 -2.12,0.9 -2.06,0 -2.23,-1.19 -2.23,-2.29 l 0,-5.07 c 0,-0.11 0.05,-0.17 0.11,-0.18 l 0.76,-0.18 c 0.12,-0.03 0.08,-0.02 0.18,-0.03 0.11,0 0.11,0.12 0.11,0.2 l 0,5.3 c 0,0.66 0.26,1.24 1.25,1.24 0.47,0 1.45,-0.5 1.74,-0.78 l 0,-5.59 z"
   id="path253" />
	<path
   d="m 221.15,494.53 c 0.02,0.04 0.05,0.08 0.05,0.12 0,0.17 -1.28,0.79 -2.41,0.79 -2.03,-0.02 -3.22,-1.56 -3.22,-3.88 0,-2.25 1.13,-3.88 3.02,-3.88 2.55,0 2.78,2.47 2.78,3.79 0,0.21 0,0.34 -0.17,0.34 l -4.38,0 c 0,0.93 0.37,2.61 2.11,2.61 0.99,0 1.79,-0.63 1.88,-0.63 0.05,0 0.06,0.05 0.09,0.09 l 0.25,0.65 z m -1.04,-3.67 c 0,-0.79 -0.26,-2.23 -1.59,-2.23 -1.41,0 -1.71,1.47 -1.71,2.23 l 3.3,0 z"
   id="path255" />
	<path
   d="m 228.36,492.82 c 0,0.69 0,1.15 0.17,1.53 0.08,0.18 0.28,0.47 0.28,0.57 0,0.06 -0.08,0.09 -0.14,0.12 l -0.6,0.37 c -0.06,0.03 -0.09,0.05 -0.12,0.05 -0.21,0 -0.49,-0.66 -0.55,-0.9 -0.37,0.26 -1.12,0.9 -2.25,0.9 -1.63,0 -2.38,-1.83 -2.38,-3.73 0,-2.2 0.78,-4.03 2.55,-4.03 0.95,0 1.47,0.26 1.88,0.52 l 0,-3.63 c 0,-0.11 0.05,-0.17 0.11,-0.18 l 0.75,-0.18 c 0.12,-0.03 0.08,-0.01 0.18,-0.03 0.12,0 0.12,0.12 0.12,0.2 l 0,8.42 z m -1.16,-3.61 c -0.49,-0.26 -0.98,-0.5 -1.74,-0.5 -1.31,0 -1.44,1.5 -1.44,2.98 0,1.28 0.11,2.73 1.34,2.73 0.79,0 1.47,-0.67 1.83,-0.9 l 0,-4.31 z"
   id="path257" />
	<path
   d="m 235.5,492.82 c 0,0.96 0.05,1.1 0.18,1.53 0.06,0.18 0.27,0.47 0.27,0.57 0,0.06 -0.08,0.09 -0.14,0.12 l -0.6,0.37 c -0.06,0.03 -0.09,0.05 -0.12,0.05 -0.23,0 -0.5,-0.81 -0.58,-1.02 -0.18,0.17 -0.93,1.02 -2.2,1.02 -1.21,0 -1.99,-0.79 -1.99,-2.15 0,-2.58 3.06,-2.63 4,-2.66 l 0,-0.55 c 0,-0.89 -0.27,-1.38 -1.36,-1.38 -1.02,0 -1.73,0.49 -1.86,0.49 -0.05,0 -0.09,-0.03 -0.11,-0.08 l -0.2,-0.54 c -0.03,-0.08 -0.05,-0.12 -0.05,-0.2 0,-0.26 1.41,-0.7 2.38,-0.7 1.76,0 2.35,0.85 2.35,2.14 l 0,2.99 z m -1.16,-1.24 c -0.67,0.02 -2.86,0.02 -2.86,1.62 0,0.61 0.34,1.3 1.11,1.3 0.79,0 1.5,-0.73 1.74,-0.95 l 0,-1.97 z"
   id="path259" />
	<path
   d="m 241.47,488.91 c -0.06,0.12 -0.09,0.18 -0.18,0.18 -0.11,0 -0.75,-0.41 -1.54,-0.41 -0.61,0 -1.13,0.31 -1.13,1.01 0,1.68 3.39,1.21 3.39,3.59 0,1.44 -1.13,2.17 -2.44,2.17 -0.73,0 -2.32,-0.43 -2.32,-0.73 0,-0.08 0.03,-0.12 0.06,-0.18 l 0.21,-0.47 c 0.05,-0.11 0.09,-0.14 0.14,-0.14 0.14,0 0.93,0.53 1.97,0.53 0.66,0 1.22,-0.37 1.22,-1.1 0,-1.59 -3.39,-1.24 -3.39,-3.54 0,-1.24 0.96,-2.12 2.31,-2.12 0.52,0 1.41,0.24 1.8,0.46 0.12,0.06 0.17,0.12 0.17,0.2 0,0.05 -0.05,0.09 -0.06,0.15 l -0.21,0.4 z"
   id="path261" />
</g><g
     id="g263">
	<path
   d="m 313.23,486.72 c -0.06,-0.05 -0.09,-0.09 -0.09,-0.14 0,-0.17 1.01,-1.39 2.6,-1.39 1.44,0 2.6,0.93 2.6,2.47 0,1.47 -0.95,1.99 -1.57,2.26 0.58,0.18 1.91,0.66 1.91,2.57 0,1.74 -1.25,2.95 -3.27,2.95 -0.84,0 -2.47,-0.34 -2.47,-0.67 0,-0.05 0.02,-0.08 0.03,-0.12 l 0.3,-0.69 c 0.02,-0.05 0.05,-0.09 0.12,-0.09 0.12,0 0.85,0.5 2.03,0.5 1.3,0 2,-0.75 2,-1.92 0,-1.65 -1.33,-1.88 -2.21,-1.88 l -0.52,0 c -0.18,0 -0.21,-0.03 -0.21,-0.2 l 0,-0.61 c 0,-0.17 0.05,-0.21 0.21,-0.21 l 0.52,0 c 0.84,0 1.97,-0.41 1.97,-1.85 0,-0.89 -0.63,-1.44 -1.5,-1.44 -1.1,0 -1.62,0.93 -1.83,0.93 -0.03,0 -0.08,-0.02 -0.11,-0.05 l -0.51,-0.42 z"
   id="path265" />
	<path
   d="m 326.75,495.05 c 0,0.12 -0.06,0.18 -0.18,0.18 l -0.79,0 c -0.12,0 -0.18,-0.06 -0.18,-0.18 l 0,-5.24 c 0,-0.28 -0.04,-0.78 -0.26,-1.16 -0.12,-0.21 -0.17,-0.34 -0.17,-0.38 0.01,-0.09 0.08,-0.14 0.11,-0.15 l 0.57,-0.35 c 0.06,-0.05 0.12,-0.08 0.15,-0.08 0.28,0 0.54,0.95 0.6,1.28 0.4,-0.43 0.95,-1.28 1.83,-1.28 0.35,0 0.75,0.12 0.75,0.26 0,0.03 -0.03,0.08 -0.05,0.12 l -0.34,0.78 c -0.01,0.03 -0.03,0.11 -0.09,0.11 -0.08,0 -0.21,-0.14 -0.5,-0.14 -0.53,0 -1.07,0.79 -1.44,1.19 l 0,5.04 z"
   id="path267" />
	<path
   d="m 334.37,488.08 c 0,-0.11 0.05,-0.17 0.11,-0.18 l 0.76,-0.18 c 0.12,-0.03 0.08,-0.02 0.18,-0.03 0.11,0 0.11,0.12 0.11,0.2 l 0,5.44 c 0,0.35 0.01,0.69 0.17,1.01 0.09,0.18 0.29,0.49 0.29,0.58 0,0.06 -0.08,0.09 -0.14,0.12 l -0.6,0.37 c -0.06,0.03 -0.09,0.05 -0.12,0.05 -0.23,0 -0.4,-0.55 -0.57,-0.9 -0.43,0.35 -1.25,0.9 -2.12,0.9 -2.06,0 -2.23,-1.19 -2.23,-2.29 l 0,-5.07 c 0,-0.11 0.05,-0.17 0.11,-0.18 l 0.76,-0.18 c 0.12,-0.03 0.08,-0.02 0.18,-0.03 0.11,0 0.11,0.12 0.11,0.2 l 0,5.3 c 0,0.66 0.26,1.24 1.25,1.24 0.47,0 1.45,-0.5 1.74,-0.78 l 0,-5.59 z"
   id="path269" />
	<path
   d="m 342.97,494.53 c 0.02,0.04 0.05,0.08 0.05,0.12 0,0.17 -1.28,0.79 -2.41,0.79 -2.03,-0.02 -3.22,-1.56 -3.22,-3.88 0,-2.25 1.13,-3.88 3.02,-3.88 2.55,0 2.78,2.47 2.78,3.79 0,0.21 0,0.34 -0.17,0.34 l -4.38,0 c 0,0.93 0.37,2.61 2.11,2.61 0.99,0 1.79,-0.63 1.88,-0.63 0.05,0 0.06,0.05 0.09,0.09 l 0.25,0.65 z m -1.03,-3.67 c 0,-0.79 -0.26,-2.23 -1.59,-2.23 -1.41,0 -1.71,1.47 -1.71,2.23 l 3.3,0 z"
   id="path271" />
	<path
   d="m 350.19,492.82 c 0,0.69 0,1.15 0.17,1.53 0.08,0.18 0.28,0.47 0.28,0.57 0,0.06 -0.08,0.09 -0.14,0.12 l -0.6,0.37 c -0.06,0.03 -0.09,0.05 -0.12,0.05 -0.21,0 -0.49,-0.66 -0.55,-0.9 -0.37,0.26 -1.12,0.9 -2.25,0.9 -1.63,0 -2.38,-1.83 -2.38,-3.73 0,-2.2 0.78,-4.03 2.55,-4.03 0.95,0 1.47,0.26 1.88,0.52 l 0,-3.63 c 0,-0.11 0.05,-0.17 0.11,-0.18 l 0.75,-0.18 c 0.12,-0.03 0.08,-0.01 0.18,-0.03 0.12,0 0.12,0.12 0.12,0.2 l 0,8.42 z m -1.17,-3.61 c -0.49,-0.26 -0.98,-0.5 -1.74,-0.5 -1.31,0 -1.44,1.5 -1.44,2.98 0,1.28 0.11,2.73 1.34,2.73 0.79,0 1.47,-0.67 1.83,-0.9 l 0,-4.31 z"
   id="path273" />
	<path
   d="m 357.32,492.82 c 0,0.96 0.05,1.1 0.18,1.53 0.06,0.18 0.27,0.47 0.27,0.57 0,0.06 -0.08,0.09 -0.14,0.12 l -0.6,0.37 c -0.06,0.03 -0.09,0.05 -0.12,0.05 -0.23,0 -0.5,-0.81 -0.58,-1.02 -0.18,0.17 -0.93,1.02 -2.2,1.02 -1.21,0 -1.99,-0.79 -1.99,-2.15 0,-2.58 3.06,-2.63 4,-2.66 l 0,-0.55 c 0,-0.89 -0.27,-1.38 -1.36,-1.38 -1.02,0 -1.73,0.49 -1.86,0.49 -0.05,0 -0.09,-0.03 -0.11,-0.08 l -0.2,-0.54 c -0.03,-0.08 -0.05,-0.12 -0.05,-0.2 0,-0.26 1.41,-0.7 2.38,-0.7 1.76,0 2.35,0.85 2.35,2.14 l 0,2.99 z m -1.16,-1.24 c -0.67,0.02 -2.86,0.02 -2.86,1.62 0,0.61 0.34,1.3 1.11,1.3 0.79,0 1.5,-0.73 1.74,-0.95 l 0,-1.97 z"
   id="path275" />
	<path
   d="m 363.3,488.91 c -0.06,0.12 -0.09,0.18 -0.18,0.18 -0.11,0 -0.75,-0.41 -1.54,-0.41 -0.61,0 -1.13,0.31 -1.13,1.01 0,1.68 3.39,1.21 3.39,3.59 0,1.44 -1.13,2.17 -2.44,2.17 -0.73,0 -2.32,-0.43 -2.32,-0.73 0,-0.08 0.03,-0.12 0.06,-0.18 l 0.21,-0.47 c 0.05,-0.11 0.09,-0.14 0.14,-0.14 0.14,0 0.93,0.53 1.97,0.53 0.66,0 1.22,-0.37 1.22,-1.1 0,-1.59 -3.39,-1.24 -3.39,-3.54 0,-1.24 0.96,-2.12 2.31,-2.12 0.52,0 1.41,0.24 1.8,0.46 0.12,0.06 0.17,0.12 0.17,0.2 0,0.05 -0.05,0.09 -0.06,0.15 l -0.21,0.4 z"
   id="path277" />
</g><g
     id="g279">
	<path
   d="m 438.57,495.23 c 0,0.17 -0.03,0.21 -0.2,0.21 l -0.75,0 c -0.17,0 -0.21,-0.05 -0.21,-0.21 l 0,-2.17 -3.88,0 c -0.18,0 -0.21,-0.03 -0.21,-0.2 l 0,-0.87 4,-6.66 c 0.05,-0.08 0.08,-0.14 0.17,-0.14 0.05,0 0.11,0.02 0.2,0.03 l 0.64,0.11 c 0.09,0.02 0.2,0.05 0.2,0.11 0,0.05 -0.05,0.14 -0.08,0.17 l -3.93,6.46 2.89,0 0.2,-2.46 c 0,-0.15 0.02,-0.2 0.21,-0.2 l 0.55,0 c 0.17,0 0.2,0.05 0.2,0.21 l 0,2.44 1.22,0 c 0.17,0 0.21,0.03 0.21,0.21 l 0,0.58 c 0,0.18 -0.04,0.2 -0.21,0.2 l -1.22,0 0,2.18 z"
   id="path281" />
	<path
   d="m 447.46,495.05 c 0,0.12 -0.06,0.18 -0.18,0.18 l -0.79,0 c -0.12,0 -0.18,-0.06 -0.18,-0.18 l 0,-5.24 c 0,-0.28 -0.04,-0.78 -0.26,-1.16 -0.12,-0.21 -0.17,-0.34 -0.17,-0.38 0.01,-0.09 0.08,-0.14 0.11,-0.15 l 0.57,-0.35 c 0.06,-0.05 0.12,-0.08 0.15,-0.08 0.28,0 0.54,0.95 0.6,1.28 0.4,-0.43 0.95,-1.28 1.83,-1.28 0.35,0 0.75,0.12 0.75,0.26 0,0.03 -0.03,0.08 -0.05,0.12 l -0.34,0.78 c -0.01,0.03 -0.03,0.11 -0.09,0.11 -0.08,0 -0.21,-0.14 -0.5,-0.14 -0.53,0 -1.07,0.79 -1.44,1.19 l 0,5.04 z"
   id="path283" />
	<path
   d="m 455.09,488.08 c 0,-0.11 0.05,-0.17 0.11,-0.18 l 0.76,-0.18 c 0.12,-0.03 0.08,-0.02 0.18,-0.03 0.11,0 0.11,0.12 0.11,0.2 l 0,5.44 c 0,0.35 0.01,0.69 0.17,1.01 0.09,0.18 0.29,0.49 0.29,0.58 0,0.06 -0.08,0.09 -0.14,0.12 l -0.6,0.37 c -0.06,0.03 -0.09,0.05 -0.12,0.05 -0.23,0 -0.4,-0.55 -0.57,-0.9 -0.43,0.35 -1.25,0.9 -2.12,0.9 -2.06,0 -2.23,-1.19 -2.23,-2.29 l 0,-5.07 c 0,-0.11 0.05,-0.17 0.11,-0.18 l 0.76,-0.18 c 0.12,-0.03 0.08,-0.02 0.18,-0.03 0.11,0 0.11,0.12 0.11,0.2 l 0,5.3 c 0,0.66 0.26,1.24 1.25,1.24 0.47,0 1.45,-0.5 1.74,-0.78 l 0,-5.59 z"
   id="path285" />
	<path
   d="m 463.69,494.53 c 0.02,0.04 0.05,0.08 0.05,0.12 0,0.17 -1.28,0.79 -2.41,0.79 -2.03,-0.02 -3.22,-1.56 -3.22,-3.88 0,-2.25 1.13,-3.88 3.02,-3.88 2.55,0 2.78,2.47 2.78,3.79 0,0.21 0,0.34 -0.17,0.34 l -4.38,0 c 0,0.93 0.37,2.61 2.11,2.61 0.99,0 1.79,-0.63 1.88,-0.63 0.05,0 0.06,0.05 0.09,0.09 l 0.25,0.65 z m -1.04,-3.67 c 0,-0.79 -0.26,-2.23 -1.59,-2.23 -1.41,0 -1.71,1.47 -1.71,2.23 l 3.3,0 z"
   id="path287" />
	<path
   d="m 470.9,492.82 c 0,0.69 0,1.15 0.17,1.53 0.08,0.18 0.28,0.47 0.28,0.57 0,0.06 -0.08,0.09 -0.14,0.12 l -0.6,0.37 c -0.06,0.03 -0.09,0.05 -0.12,0.05 -0.21,0 -0.49,-0.66 -0.55,-0.9 -0.37,0.26 -1.12,0.9 -2.25,0.9 -1.63,0 -2.38,-1.83 -2.38,-3.73 0,-2.2 0.78,-4.03 2.55,-4.03 0.95,0 1.47,0.26 1.88,0.52 l 0,-3.63 c 0,-0.11 0.05,-0.17 0.11,-0.18 l 0.75,-0.18 c 0.12,-0.03 0.08,-0.01 0.18,-0.03 0.12,0 0.12,0.12 0.12,0.2 l 0,8.42 z m -1.16,-3.61 c -0.49,-0.26 -0.98,-0.5 -1.74,-0.5 -1.31,0 -1.44,1.5 -1.44,2.98 0,1.28 0.11,2.73 1.34,2.73 0.79,0 1.47,-0.67 1.83,-0.9 l 0,-4.31 z"
   id="path289" />
	<path
   d="m 478.04,492.82 c 0,0.96 0.05,1.1 0.18,1.53 0.06,0.18 0.27,0.47 0.27,0.57 0,0.06 -0.08,0.09 -0.14,0.12 l -0.6,0.37 c -0.06,0.03 -0.09,0.05 -0.12,0.05 -0.23,0 -0.5,-0.81 -0.58,-1.02 -0.18,0.17 -0.93,1.02 -2.2,1.02 -1.21,0 -1.99,-0.79 -1.99,-2.15 0,-2.58 3.06,-2.63 4,-2.66 l 0,-0.55 c 0,-0.89 -0.27,-1.38 -1.36,-1.38 -1.02,0 -1.73,0.49 -1.86,0.49 -0.05,0 -0.09,-0.03 -0.11,-0.08 l -0.2,-0.54 c -0.03,-0.08 -0.05,-0.12 -0.05,-0.2 0,-0.26 1.41,-0.7 2.38,-0.7 1.76,0 2.35,0.85 2.35,2.14 l 0,2.99 z m -1.16,-1.24 c -0.67,0.02 -2.86,0.02 -2.86,1.62 0,0.61 0.34,1.3 1.11,1.3 0.79,0 1.5,-0.73 1.74,-0.95 l 0,-1.97 z"
   id="path291" />
	<path
   d="m 484.01,488.91 c -0.06,0.12 -0.09,0.18 -0.18,0.18 -0.11,0 -0.75,-0.41 -1.54,-0.41 -0.61,0 -1.13,0.31 -1.13,1.01 0,1.68 3.39,1.21 3.39,3.59 0,1.44 -1.13,2.17 -2.44,2.17 -0.73,0 -2.32,-0.43 -2.32,-0.73 0,-0.08 0.03,-0.12 0.06,-0.18 l 0.21,-0.47 c 0.05,-0.11 0.09,-0.14 0.14,-0.14 0.14,0 0.93,0.53 1.97,0.53 0.66,0 1.22,-0.37 1.22,-1.1 0,-1.59 -3.39,-1.24 -3.39,-3.54 0,-1.24 0.96,-2.12 2.31,-2.12 0.52,0 1.41,0.24 1.8,0.46 0.12,0.06 0.17,0.12 0.17,0.2 0,0.05 -0.05,0.09 -0.06,0.15 l -0.21,0.4 z"
   id="path293" />
</g><g
     id="g295">
	<path
   d="m 559.05,486.72 c -0.06,-0.05 -0.09,-0.09 -0.09,-0.14 0,-0.17 1.01,-1.39 2.6,-1.39 1.44,0 2.6,0.93 2.6,2.47 0,1.47 -0.95,1.99 -1.57,2.26 0.58,0.18 1.91,0.66 1.91,2.57 0,1.74 -1.25,2.95 -3.27,2.95 -0.84,0 -2.47,-0.34 -2.47,-0.67 0,-0.05 0.02,-0.08 0.03,-0.12 l 0.3,-0.69 c 0.02,-0.05 0.05,-0.09 0.12,-0.09 0.12,0 0.85,0.5 2.03,0.5 1.3,0 2,-0.75 2,-1.92 0,-1.65 -1.33,-1.88 -2.21,-1.88 l -0.52,0 c -0.18,0 -0.21,-0.03 -0.21,-0.2 l 0,-0.61 c 0,-0.17 0.05,-0.21 0.21,-0.21 l 0.52,0 c 0.84,0 1.97,-0.41 1.97,-1.85 0,-0.89 -0.63,-1.44 -1.5,-1.44 -1.1,0 -1.62,0.93 -1.83,0.93 -0.03,0 -0.08,-0.02 -0.11,-0.05 l -0.51,-0.42 z"
   id="path297" />
	<path
   d="m 572.57,495.05 c 0,0.12 -0.06,0.18 -0.18,0.18 l -0.79,0 c -0.12,0 -0.18,-0.06 -0.18,-0.18 l 0,-5.24 c 0,-0.28 -0.04,-0.78 -0.26,-1.16 -0.12,-0.21 -0.17,-0.34 -0.17,-0.38 0.01,-0.09 0.08,-0.14 0.11,-0.15 l 0.57,-0.35 c 0.06,-0.05 0.12,-0.08 0.15,-0.08 0.28,0 0.54,0.95 0.6,1.28 0.4,-0.43 0.95,-1.28 1.83,-1.28 0.35,0 0.75,0.12 0.75,0.26 0,0.03 -0.03,0.08 -0.05,0.12 l -0.34,0.78 c -0.01,0.03 -0.03,0.11 -0.09,0.11 -0.08,0 -0.21,-0.14 -0.5,-0.14 -0.53,0 -1.07,0.79 -1.44,1.19 l 0,5.04 z"
   id="path299" />
	<path
   d="m 580.19,488.08 c 0,-0.11 0.05,-0.17 0.11,-0.18 l 0.76,-0.18 c 0.12,-0.03 0.08,-0.02 0.18,-0.03 0.11,0 0.11,0.12 0.11,0.2 l 0,5.44 c 0,0.35 0.01,0.69 0.17,1.01 0.09,0.18 0.29,0.49 0.29,0.58 0,0.06 -0.08,0.09 -0.14,0.12 l -0.6,0.37 c -0.06,0.03 -0.09,0.05 -0.12,0.05 -0.23,0 -0.4,-0.55 -0.57,-0.9 -0.43,0.35 -1.25,0.9 -2.12,0.9 -2.06,0 -2.23,-1.19 -2.23,-2.29 l 0,-5.07 c 0,-0.11 0.05,-0.17 0.11,-0.18 l 0.76,-0.18 c 0.12,-0.03 0.08,-0.02 0.18,-0.03 0.11,0 0.11,0.12 0.11,0.2 l 0,5.3 c 0,0.66 0.26,1.24 1.25,1.24 0.47,0 1.45,-0.5 1.74,-0.78 l 0,-5.59 z"
   id="path301" />
	<path
   d="m 588.8,494.53 c 0.02,0.04 0.05,0.08 0.05,0.12 0,0.17 -1.28,0.79 -2.41,0.79 -2.03,-0.02 -3.22,-1.56 -3.22,-3.88 0,-2.25 1.13,-3.88 3.02,-3.88 2.55,0 2.78,2.47 2.78,3.79 0,0.21 0,0.34 -0.17,0.34 l -4.38,0 c 0,0.93 0.37,2.61 2.11,2.61 0.99,0 1.79,-0.63 1.88,-0.63 0.05,0 0.06,0.05 0.09,0.09 l 0.25,0.65 z m -1.04,-3.67 c 0,-0.79 -0.26,-2.23 -1.59,-2.23 -1.41,0 -1.71,1.47 -1.71,2.23 l 3.3,0 z"
   id="path303" />
	<path
   d="m 596.01,492.82 c 0,0.69 0,1.15 0.17,1.53 0.08,0.18 0.28,0.47 0.28,0.57 0,0.06 -0.08,0.09 -0.14,0.12 l -0.6,0.37 c -0.06,0.03 -0.09,0.05 -0.12,0.05 -0.21,0 -0.49,-0.66 -0.55,-0.9 -0.37,0.26 -1.12,0.9 -2.25,0.9 -1.63,0 -2.38,-1.83 -2.38,-3.73 0,-2.2 0.78,-4.03 2.55,-4.03 0.95,0 1.47,0.26 1.88,0.52 l 0,-3.63 c 0,-0.11 0.05,-0.17 0.11,-0.18 l 0.75,-0.18 c 0.12,-0.03 0.08,-0.01 0.18,-0.03 0.12,0 0.12,0.12 0.12,0.2 l 0,8.42 z m -1.16,-3.61 c -0.49,-0.26 -0.98,-0.5 -1.74,-0.5 -1.31,0 -1.44,1.5 -1.44,2.98 0,1.28 0.11,2.73 1.34,2.73 0.79,0 1.47,-0.67 1.83,-0.9 l 0,-4.31 z"
   id="path305" />
	<path
   d="m 603.14,492.82 c 0,0.96 0.05,1.1 0.18,1.53 0.06,0.18 0.27,0.47 0.27,0.57 0,0.06 -0.08,0.09 -0.14,0.12 l -0.6,0.37 c -0.06,0.03 -0.09,0.05 -0.12,0.05 -0.23,0 -0.5,-0.81 -0.58,-1.02 -0.18,0.17 -0.93,1.02 -2.2,1.02 -1.21,0 -1.99,-0.79 -1.99,-2.15 0,-2.58 3.06,-2.63 4,-2.66 l 0,-0.55 c 0,-0.89 -0.27,-1.38 -1.36,-1.38 -1.02,0 -1.73,0.49 -1.86,0.49 -0.05,0 -0.09,-0.03 -0.11,-0.08 l -0.2,-0.54 c -0.03,-0.08 -0.05,-0.12 -0.05,-0.2 0,-0.26 1.41,-0.7 2.38,-0.7 1.76,0 2.35,0.85 2.35,2.14 l 0,2.99 z m -1.16,-1.24 c -0.67,0.02 -2.86,0.02 -2.86,1.62 0,0.61 0.34,1.3 1.11,1.3 0.79,0 1.5,-0.73 1.74,-0.95 l 0,-1.97 z"
   id="path307" />
	<path
   d="m 609.12,488.91 c -0.06,0.12 -0.09,0.18 -0.18,0.18 -0.11,0 -0.75,-0.41 -1.54,-0.41 -0.61,0 -1.13,0.31 -1.13,1.01 0,1.68 3.39,1.21 3.39,3.59 0,1.44 -1.13,2.17 -2.44,2.17 -0.73,0 -2.32,-0.43 -2.32,-0.73 0,-0.08 0.03,-0.12 0.06,-0.18 l 0.21,-0.47 c 0.05,-0.11 0.09,-0.14 0.14,-0.14 0.14,0 0.93,0.53 1.97,0.53 0.66,0 1.22,-0.37 1.22,-1.1 0,-1.59 -3.39,-1.24 -3.39,-3.54 0,-1.24 0.96,-2.12 2.31,-2.12 0.52,0 1.41,0.24 1.8,0.46 0.12,0.06 0.17,0.12 0.17,0.2 0,0.05 -0.05,0.09 -0.06,0.15 l -0.21,0.4 z"
   id="path309" />
</g><g
     id="g311">
	<path
   d="m 710.25,486.72 c -0.06,-0.05 -0.09,-0.09 -0.09,-0.14 0,-0.17 1.01,-1.39 2.6,-1.39 1.44,0 2.6,0.93 2.6,2.47 0,1.47 -0.95,1.99 -1.57,2.26 0.58,0.18 1.91,0.66 1.91,2.57 0,1.74 -1.25,2.95 -3.27,2.95 -0.84,0 -2.47,-0.34 -2.47,-0.67 0,-0.05 0.02,-0.08 0.03,-0.12 l 0.3,-0.69 c 0.02,-0.05 0.05,-0.09 0.12,-0.09 0.12,0 0.85,0.5 2.03,0.5 1.3,0 2,-0.75 2,-1.92 0,-1.65 -1.33,-1.88 -2.21,-1.88 l -0.52,0 c -0.18,0 -0.21,-0.03 -0.21,-0.2 l 0,-0.61 c 0,-0.17 0.05,-0.21 0.21,-0.21 l 0.52,0 c 0.84,0 1.97,-0.41 1.97,-1.85 0,-0.89 -0.63,-1.44 -1.5,-1.44 -1.1,0 -1.62,0.93 -1.83,0.93 -0.03,0 -0.08,-0.02 -0.11,-0.05 l -0.51,-0.42 z"
   id="path313" />
	<path
   d="m 723.77,495.05 c 0,0.12 -0.06,0.18 -0.18,0.18 l -0.79,0 c -0.12,0 -0.18,-0.06 -0.18,-0.18 l 0,-5.24 c 0,-0.28 -0.04,-0.78 -0.26,-1.16 -0.12,-0.21 -0.17,-0.34 -0.17,-0.38 0.01,-0.09 0.08,-0.14 0.11,-0.15 l 0.57,-0.35 c 0.06,-0.05 0.12,-0.08 0.15,-0.08 0.28,0 0.54,0.95 0.6,1.28 0.4,-0.43 0.95,-1.28 1.83,-1.28 0.35,0 0.75,0.12 0.75,0.26 0,0.03 -0.03,0.08 -0.05,0.12 l -0.34,0.78 c -0.01,0.03 -0.03,0.11 -0.09,0.11 -0.08,0 -0.21,-0.14 -0.5,-0.14 -0.53,0 -1.07,0.79 -1.44,1.19 l 0,5.04 z"
   id="path315" />
	<path
   d="m 731.4,488.08 c 0,-0.11 0.05,-0.17 0.11,-0.18 l 0.76,-0.18 c 0.12,-0.03 0.08,-0.02 0.18,-0.03 0.11,0 0.11,0.12 0.11,0.2 l 0,5.44 c 0,0.35 0.01,0.69 0.17,1.01 0.09,0.18 0.29,0.49 0.29,0.58 0,0.06 -0.08,0.09 -0.14,0.12 l -0.6,0.37 c -0.06,0.03 -0.09,0.05 -0.12,0.05 -0.23,0 -0.4,-0.55 -0.57,-0.9 -0.43,0.35 -1.25,0.9 -2.12,0.9 -2.06,0 -2.23,-1.19 -2.23,-2.29 l 0,-5.07 c 0,-0.11 0.05,-0.17 0.11,-0.18 l 0.76,-0.18 c 0.12,-0.03 0.08,-0.02 0.18,-0.03 0.11,0 0.11,0.12 0.11,0.2 l 0,5.3 c 0,0.66 0.26,1.24 1.25,1.24 0.47,0 1.45,-0.5 1.74,-0.78 l 0,-5.59 z"
   id="path317" />
	<path
   d="m 740,494.53 c 0.02,0.04 0.05,0.08 0.05,0.12 0,0.17 -1.28,0.79 -2.41,0.79 -2.03,-0.02 -3.22,-1.56 -3.22,-3.88 0,-2.25 1.13,-3.88 3.02,-3.88 2.55,0 2.78,2.47 2.78,3.79 0,0.21 0,0.34 -0.17,0.34 l -4.38,0 c 0,0.93 0.37,2.61 2.11,2.61 0.99,0 1.79,-0.63 1.88,-0.63 0.05,0 0.06,0.05 0.09,0.09 l 0.25,0.65 z m -1.04,-3.67 c 0,-0.79 -0.26,-2.23 -1.59,-2.23 -1.41,0 -1.71,1.47 -1.71,2.23 l 3.3,0 z"
   id="path319" />
	<path
   d="m 747.21,492.82 c 0,0.69 0,1.15 0.17,1.53 0.08,0.18 0.28,0.47 0.28,0.57 0,0.06 -0.08,0.09 -0.14,0.12 l -0.6,0.37 c -0.06,0.03 -0.09,0.05 -0.12,0.05 -0.21,0 -0.49,-0.66 -0.55,-0.9 -0.37,0.26 -1.12,0.9 -2.25,0.9 -1.63,0 -2.38,-1.83 -2.38,-3.73 0,-2.2 0.78,-4.03 2.55,-4.03 0.95,0 1.47,0.26 1.88,0.52 l 0,-3.63 c 0,-0.11 0.05,-0.17 0.11,-0.18 l 0.75,-0.18 c 0.12,-0.03 0.08,-0.01 0.18,-0.03 0.12,0 0.12,0.12 0.12,0.2 l 0,8.42 z m -1.16,-3.61 c -0.49,-0.26 -0.98,-0.5 -1.74,-0.5 -1.31,0 -1.44,1.5 -1.44,2.98 0,1.28 0.11,2.73 1.34,2.73 0.79,0 1.47,-0.67 1.83,-0.9 l 0,-4.31 z"
   id="path321" />
	<path
   d="m 754.35,492.82 c 0,0.96 0.05,1.1 0.18,1.53 0.06,0.18 0.27,0.47 0.27,0.57 0,0.06 -0.08,0.09 -0.14,0.12 l -0.6,0.37 c -0.06,0.03 -0.09,0.05 -0.12,0.05 -0.23,0 -0.5,-0.81 -0.58,-1.02 -0.18,0.17 -0.93,1.02 -2.2,1.02 -1.21,0 -1.99,-0.79 -1.99,-2.15 0,-2.58 3.06,-2.63 4,-2.66 l 0,-0.55 c 0,-0.89 -0.27,-1.38 -1.36,-1.38 -1.02,0 -1.73,0.49 -1.86,0.49 -0.05,0 -0.09,-0.03 -0.11,-0.08 l -0.2,-0.54 c -0.03,-0.08 -0.05,-0.12 -0.05,-0.2 0,-0.26 1.41,-0.7 2.38,-0.7 1.76,0 2.35,0.85 2.35,2.14 l 0,2.99 z m -1.16,-1.24 c -0.67,0.02 -2.86,0.02 -2.86,1.62 0,0.61 0.34,1.3 1.11,1.3 0.79,0 1.5,-0.73 1.74,-0.95 l 0,-1.97 z"
   id="path323" />
	<path
   d="m 760.32,488.91 c -0.06,0.12 -0.09,0.18 -0.18,0.18 -0.11,0 -0.75,-0.41 -1.54,-0.41 -0.61,0 -1.13,0.31 -1.13,1.01 0,1.68 3.39,1.21 3.39,3.59 0,1.44 -1.13,2.17 -2.44,2.17 -0.73,0 -2.32,-0.43 -2.32,-0.73 0,-0.08 0.03,-0.12 0.06,-0.18 l 0.21,-0.47 c 0.05,-0.11 0.09,-0.14 0.14,-0.14 0.14,0 0.93,0.53 1.97,0.53 0.66,0 1.22,-0.37 1.22,-1.1 0,-1.59 -3.39,-1.24 -3.39,-3.54 0,-1.24 0.96,-2.12 2.31,-2.12 0.52,0 1.41,0.24 1.8,0.46 0.12,0.06 0.17,0.12 0.17,0.2 0,0.05 -0.05,0.09 -0.06,0.15 l -0.21,0.4 z"
   id="path325" />
</g><g
     id="g327">
	<path
   d="m 440.07,281.18 c 0.01,0.06 0.03,0.11 0.03,0.15 0,0.2 -1.15,0.63 -1.97,0.63 -0.66,0 -1.21,-0.24 -1.44,-0.53 -0.44,-0.47 -0.44,-1.16 -0.44,-1.73 l 0,-4.34 -1.15,0 c -0.11,0 -0.11,-0.11 -0.11,-0.18 l 0,-0.58 c 0,-0.11 0,-0.18 0.11,-0.18 l 1.15,0 0,-2.09 c 0,-0.09 0.06,-0.15 0.17,-0.18 l 0.81,-0.23 c 0.05,0 0.08,-0.01 0.11,-0.01 0.08,0 0.08,0.08 0.08,0.17 l 0,2.35 2.26,0 c 0.09,0 0.17,0.02 0.17,0.11 0,0.03 -0.02,0.06 -0.02,0.11 l -0.2,0.6 c -0.03,0.08 -0.11,0.14 -0.2,0.14 l -2.02,0 0,4.34 c 0,0.61 0,1.24 0.92,1.24 0.72,0 1.33,-0.41 1.47,-0.41 0.06,0 0.11,0.05 0.11,0.09 l 0.16,0.53 z"
   id="path329" />
	<path
   d="m 442.58,281.56 c 0,0.12 -0.06,0.18 -0.18,0.18 l -0.79,0 c -0.12,0 -0.18,-0.06 -0.18,-0.18 l 0,-5.24 c 0,-0.28 -0.04,-0.78 -0.26,-1.16 -0.12,-0.21 -0.17,-0.34 -0.17,-0.38 0.01,-0.09 0.08,-0.14 0.11,-0.15 l 0.57,-0.35 c 0.06,-0.05 0.12,-0.08 0.15,-0.08 0.28,0 0.54,0.95 0.6,1.28 0.4,-0.43 0.95,-1.28 1.83,-1.28 0.35,0 0.75,0.12 0.75,0.26 0,0.03 -0.03,0.08 -0.05,0.12 l -0.34,0.78 c -0.01,0.03 -0.03,0.11 -0.09,0.11 -0.08,0 -0.21,-0.14 -0.5,-0.14 -0.53,0 -1.07,0.79 -1.44,1.19 l 0,5.04 z"
   id="path331" />
	<path
   d="m 450.79,279.33 c 0,0.96 0.05,1.1 0.18,1.53 0.06,0.18 0.27,0.47 0.27,0.57 0,0.06 -0.08,0.09 -0.14,0.12 l -0.6,0.37 c -0.06,0.03 -0.09,0.05 -0.12,0.05 -0.23,0 -0.5,-0.81 -0.58,-1.02 -0.18,0.17 -0.93,1.02 -2.2,1.02 -1.21,0 -1.99,-0.79 -1.99,-2.15 0,-2.58 3.06,-2.63 4,-2.66 l 0,-0.55 c 0,-0.89 -0.27,-1.38 -1.36,-1.38 -1.02,0 -1.73,0.49 -1.86,0.49 -0.05,0 -0.09,-0.03 -0.11,-0.08 l -0.2,-0.54 c -0.03,-0.08 -0.05,-0.12 -0.05,-0.2 0,-0.26 1.41,-0.7 2.38,-0.7 1.76,0 2.35,0.85 2.35,2.14 l 0,2.99 z m -1.16,-1.24 c -0.67,0.02 -2.86,0.02 -2.86,1.62 0,0.61 0.34,1.3 1.11,1.3 0.79,0 1.5,-0.73 1.74,-0.95 l 0,-1.97 z"
   id="path333" />
	<path
   d="m 458.66,281.56 c 0,0.12 -0.06,0.18 -0.18,0.18 l -0.79,0 c -0.12,0 -0.18,-0.06 -0.18,-0.18 l 0,-5.1 c 0,-0.66 -0.17,-1.24 -0.99,-1.24 -0.99,0 -1.63,0.6 -2.02,0.93 l 0,5.41 c 0,0.12 -0.06,0.18 -0.18,0.18 l -0.79,0 c -0.12,0 -0.18,-0.06 -0.18,-0.18 l 0,-5.27 c 0,-0.5 0,-0.67 -0.06,-0.9 -0.12,-0.46 -0.24,-0.57 -0.24,-0.64 0,-0.03 0.02,-0.06 0.08,-0.11 l 0.69,-0.38 c 0.03,-0.02 0.08,-0.06 0.12,-0.06 0.28,0 0.46,0.92 0.47,1.04 0.5,-0.4 1.3,-1.04 2.46,-1.04 1.7,0 1.82,1.19 1.82,2.29 l 0,5.07 z"
   id="path335" />
	<path
   d="m 464.7,275.42 c -0.06,0.12 -0.09,0.18 -0.18,0.18 -0.11,0 -0.75,-0.41 -1.54,-0.41 -0.61,0 -1.13,0.31 -1.13,1.01 0,1.68 3.39,1.21 3.39,3.59 0,1.44 -1.13,2.17 -2.44,2.17 -0.73,0 -2.32,-0.43 -2.32,-0.73 0,-0.08 0.03,-0.12 0.06,-0.18 l 0.21,-0.47 c 0.05,-0.11 0.09,-0.14 0.14,-0.14 0.14,0 0.93,0.53 1.97,0.53 0.66,0 1.22,-0.37 1.22,-1.1 0,-1.59 -3.39,-1.24 -3.39,-3.54 0,-1.24 0.96,-2.12 2.31,-2.12 0.52,0 1.41,0.24 1.8,0.46 0.12,0.06 0.17,0.12 0.17,0.2 0,0.05 -0.05,0.09 -0.06,0.15 l -0.21,0.4 z"
   id="path337" />
	<path
   d="m 467.19,276.32 c 0,-0.35 -0.02,-0.72 -0.09,-1.07 -0.08,-0.35 -0.2,-0.44 -0.2,-0.52 0,-0.03 0.02,-0.06 0.08,-0.11 l 0.66,-0.37 c 0.03,-0.02 0.09,-0.06 0.14,-0.06 0.23,0 0.4,0.79 0.41,0.9 0.4,-0.37 1.34,-0.9 1.99,-0.9 0.99,0 1.42,0.3 1.62,0.92 0.46,-0.34 1.28,-0.92 2.02,-0.92 1.7,0 1.82,1.19 1.82,2.29 l 0,5.07 c 0,0.12 -0.06,0.18 -0.18,0.18 l -0.79,0 c -0.12,0 -0.18,-0.06 -0.18,-0.18 l 0,-5.1 c 0,-0.66 -0.17,-1.24 -0.98,-1.24 -0.73,0 -1.19,0.41 -1.5,0.63 l 0,5.71 c 0,0.12 -0.06,0.18 -0.18,0.18 l -0.79,0 c -0.12,0 -0.18,-0.06 -0.18,-0.18 l 0,-5.1 c 0,-0.66 -0.17,-1.24 -0.99,-1.24 -0.69,0 -1.22,0.43 -1.48,0.64 l 0,5.7 c 0,0.12 -0.06,0.18 -0.18,0.18 l -0.79,0 c -0.12,0 -0.18,-0.06 -0.18,-0.18 l 0,-5.23 z"
   id="path339" />
	<path
   d="m 479.81,281.56 c 0,0.12 -0.06,0.18 -0.18,0.18 l -0.79,0 c -0.12,0 -0.18,-0.06 -0.18,-0.18 l 0,-6.2 -1.19,0 c -0.12,0 -0.18,-0.06 -0.18,-0.18 l 0,-0.58 c 0,-0.12 0.06,-0.18 0.18,-0.18 l 2.15,0 c 0.17,0 0.2,0.09 0.2,0.23 l 0,6.91 z m -0.66,-8.9 c -0.52,0 -0.93,-0.41 -0.93,-0.93 0,-0.52 0.41,-0.93 0.93,-0.93 0.52,0 0.93,0.43 0.93,0.93 0,0.5 -0.41,0.93 -0.93,0.93 z"
   id="path341" />
	<path
   d="m 485.92,275.42 c -0.06,0.12 -0.09,0.18 -0.18,0.18 -0.11,0 -0.75,-0.41 -1.54,-0.41 -0.61,0 -1.13,0.31 -1.13,1.01 0,1.68 3.39,1.21 3.39,3.59 0,1.44 -1.13,2.17 -2.44,2.17 -0.73,0 -2.32,-0.43 -2.32,-0.73 0,-0.08 0.03,-0.12 0.06,-0.18 l 0.21,-0.47 c 0.05,-0.11 0.09,-0.14 0.14,-0.14 0.14,0 0.93,0.53 1.97,0.53 0.66,0 1.22,-0.37 1.22,-1.1 0,-1.59 -3.39,-1.24 -3.39,-3.54 0,-1.24 0.96,-2.12 2.31,-2.12 0.52,0 1.41,0.24 1.8,0.46 0.12,0.06 0.17,0.12 0.17,0.2 0,0.05 -0.05,0.09 -0.06,0.15 l -0.21,0.4 z"
   id="path343" />
	<path
   d="m 490,281.56 c 0,0.12 -0.06,0.18 -0.18,0.18 l -0.79,0 c -0.12,0 -0.18,-0.06 -0.18,-0.18 l 0,-6.2 -1.19,0 c -0.12,0 -0.18,-0.06 -0.18,-0.18 l 0,-0.58 c 0,-0.12 0.06,-0.18 0.18,-0.18 l 2.15,0 c 0.17,0 0.2,0.09 0.2,0.23 l 0,6.91 z m -0.66,-8.9 c -0.52,0 -0.93,-0.41 -0.93,-0.93 0,-0.52 0.41,-0.93 0.93,-0.93 0.52,0 0.93,0.43 0.93,0.93 0,0.5 -0.41,0.93 -0.93,0.93 z"
   id="path345" />
	<path
   d="m 495.07,281.96 c -2.06,0 -2.95,-1.67 -2.95,-3.85 0,-2.11 0.89,-3.91 3.1,-3.91 2.09,0 2.98,1.68 2.98,3.83 0.01,2.14 -0.9,3.93 -3.13,3.93 z m 1.88,-3.94 c 0,-1.5 -0.41,-2.87 -1.79,-2.87 -1.37,0 -1.79,1.31 -1.79,2.83 0,1.74 0.4,3.04 1.8,3.04 1.37,-0.01 1.78,-1.25 1.78,-3 z"
   id="path347" />
	<path
   d="m 505.65,281.56 c 0,0.12 -0.06,0.18 -0.18,0.18 l -0.79,0 c -0.12,0 -0.18,-0.06 -0.18,-0.18 l 0,-5.1 c 0,-0.66 -0.17,-1.24 -0.99,-1.24 -0.99,0 -1.63,0.6 -2.02,0.93 l 0,5.41 c 0,0.12 -0.06,0.18 -0.18,0.18 l -0.79,0 c -0.12,0 -0.18,-0.06 -0.18,-0.18 l 0,-5.27 c 0,-0.5 0,-0.67 -0.06,-0.9 -0.12,-0.46 -0.24,-0.57 -0.24,-0.64 0,-0.03 0.02,-0.06 0.08,-0.11 l 0.69,-0.38 c 0.03,-0.02 0.08,-0.06 0.12,-0.06 0.28,0 0.46,0.92 0.47,1.04 0.5,-0.4 1.3,-1.04 2.46,-1.04 1.7,0 1.82,1.19 1.82,2.29 l 0,5.07 z"
   id="path349" />
	<path
   d="m 513.15,281.04 c 0.02,0.04 0.05,0.08 0.05,0.12 0,0.17 -1.28,0.79 -2.41,0.79 -2.03,-0.02 -3.22,-1.56 -3.22,-3.88 0,-2.25 1.13,-3.88 3.02,-3.88 2.55,0 2.78,2.47 2.78,3.79 0,0.21 0,0.34 -0.17,0.34 l -4.38,0 c 0,0.93 0.37,2.61 2.11,2.61 0.99,0 1.79,-0.63 1.88,-0.63 0.05,0 0.06,0.05 0.09,0.09 l 0.25,0.65 z m -1.04,-3.66 c 0,-0.79 -0.26,-2.23 -1.59,-2.23 -1.41,0 -1.71,1.47 -1.71,2.23 l 3.3,0 z"
   id="path351" />
	<path
   d="m 518.76,275.42 c -0.06,0.12 -0.09,0.18 -0.18,0.18 -0.11,0 -0.75,-0.41 -1.54,-0.41 -0.61,0 -1.13,0.31 -1.13,1.01 0,1.68 3.39,1.21 3.39,3.59 0,1.44 -1.13,2.17 -2.44,2.17 -0.73,0 -2.32,-0.43 -2.32,-0.73 0,-0.08 0.03,-0.12 0.06,-0.18 l 0.21,-0.47 c 0.05,-0.11 0.09,-0.14 0.14,-0.14 0.14,0 0.93,0.53 1.97,0.53 0.66,0 1.22,-0.37 1.22,-1.1 0,-1.59 -3.39,-1.24 -3.39,-3.54 0,-1.24 0.96,-2.12 2.31,-2.12 0.52,0 1.41,0.24 1.8,0.46 0.12,0.06 0.17,0.12 0.17,0.2 0,0.05 -0.05,0.09 -0.06,0.15 l -0.21,0.4 z"
   id="path353" />
</g><rect
     x="570.5"
     y="270.67999"
     width="14.19"
     height="18.530001"
     id="rect355" /><g
     id="g357">
	<path
   d="m 595.1,276.19 c 0,0.12 -0.06,0.18 -0.18,0.18 l -0.79,0 c -0.12,0 -0.18,-0.06 -0.18,-0.18 l 0,-5.24 c 0,-0.28 -0.04,-0.78 -0.26,-1.16 -0.12,-0.21 -0.17,-0.34 -0.17,-0.38 0.01,-0.09 0.08,-0.14 0.11,-0.15 l 0.57,-0.35 c 0.06,-0.05 0.12,-0.08 0.15,-0.08 0.28,0 0.54,0.95 0.6,1.28 0.4,-0.43 0.95,-1.28 1.83,-1.28 0.35,0 0.75,0.12 0.75,0.26 0,0.03 -0.03,0.08 -0.05,0.12 l -0.34,0.78 c -0.01,0.03 -0.03,0.11 -0.09,0.11 -0.08,0 -0.21,-0.14 -0.5,-0.14 -0.53,0 -1.07,0.79 -1.44,1.19 l 0,5.04 z"
   id="path359" />
	<path
   d="m 602.73,269.22 c 0,-0.11 0.05,-0.17 0.11,-0.18 l 0.76,-0.18 c 0.12,-0.03 0.08,-0.02 0.18,-0.03 0.11,0 0.11,0.12 0.11,0.2 l 0,5.44 c 0,0.35 0.01,0.69 0.17,1.01 0.09,0.18 0.29,0.49 0.29,0.58 0,0.06 -0.08,0.09 -0.14,0.12 l -0.6,0.37 c -0.06,0.03 -0.09,0.05 -0.12,0.05 -0.23,0 -0.4,-0.55 -0.57,-0.9 -0.43,0.35 -1.25,0.9 -2.12,0.9 -2.06,0 -2.23,-1.19 -2.23,-2.29 l 0,-5.07 c 0,-0.11 0.05,-0.17 0.11,-0.18 l 0.76,-0.18 c 0.12,-0.03 0.08,-0.02 0.18,-0.03 0.11,0 0.11,0.12 0.11,0.2 l 0,5.3 c 0,0.66 0.26,1.24 1.25,1.24 0.47,0 1.45,-0.5 1.74,-0.78 l 0,-5.59 z"
   id="path361" />
	<path
   d="m 611.33,275.67 c 0.02,0.04 0.05,0.08 0.05,0.12 0,0.17 -1.28,0.79 -2.41,0.79 -2.03,-0.02 -3.22,-1.56 -3.22,-3.88 0,-2.25 1.13,-3.88 3.02,-3.88 2.55,0 2.78,2.47 2.78,3.79 0,0.21 0,0.34 -0.17,0.34 l -4.38,0 c 0,0.93 0.37,2.61 2.11,2.61 0.99,0 1.79,-0.63 1.88,-0.63 0.05,0 0.06,0.05 0.09,0.09 l 0.25,0.65 z M 610.29,272 c 0,-0.79 -0.26,-2.23 -1.59,-2.23 -1.41,0 -1.71,1.47 -1.71,2.23 l 3.3,0 z"
   id="path363" />
	<path
   d="m 618.54,273.96 c 0,0.69 0,1.15 0.17,1.53 0.08,0.18 0.28,0.47 0.28,0.57 0,0.06 -0.08,0.09 -0.14,0.12 l -0.6,0.37 c -0.06,0.03 -0.09,0.05 -0.12,0.05 -0.21,0 -0.49,-0.66 -0.55,-0.9 -0.37,0.26 -1.12,0.9 -2.25,0.9 -1.63,0 -2.38,-1.83 -2.38,-3.73 0,-2.2 0.78,-4.03 2.55,-4.03 0.95,0 1.47,0.26 1.88,0.52 l 0,-3.63 c 0,-0.11 0.05,-0.17 0.11,-0.18 l 0.75,-0.18 c 0.12,-0.03 0.08,-0.01 0.18,-0.03 0.12,0 0.12,0.12 0.12,0.2 l 0,8.42 z m -1.16,-3.61 c -0.49,-0.26 -0.98,-0.5 -1.74,-0.5 -1.31,0 -1.44,1.5 -1.44,2.98 0,1.28 0.11,2.73 1.34,2.73 0.79,0 1.47,-0.67 1.83,-0.9 l 0,-4.31 z"
   id="path365" />
	<path
   d="m 625.68,273.96 c 0,0.96 0.05,1.1 0.18,1.53 0.06,0.18 0.27,0.47 0.27,0.57 0,0.06 -0.08,0.09 -0.14,0.12 l -0.6,0.37 c -0.06,0.03 -0.09,0.05 -0.12,0.05 -0.23,0 -0.5,-0.81 -0.58,-1.02 -0.18,0.17 -0.93,1.02 -2.2,1.02 -1.21,0 -1.99,-0.79 -1.99,-2.15 0,-2.58 3.06,-2.63 4,-2.66 l 0,-0.55 c 0,-0.89 -0.27,-1.38 -1.36,-1.38 -1.02,0 -1.73,0.49 -1.86,0.49 -0.05,0 -0.09,-0.03 -0.11,-0.08 l -0.2,-0.54 c -0.03,-0.08 -0.05,-0.12 -0.05,-0.2 0,-0.26 1.41,-0.7 2.38,-0.7 1.76,0 2.35,0.85 2.35,2.14 l 0,2.99 z m -1.16,-1.24 c -0.67,0.02 -2.86,0.02 -2.86,1.62 0,0.61 0.34,1.3 1.11,1.3 0.79,0 1.5,-0.73 1.74,-0.95 l 0,-1.97 z"
   id="path367" />
	<path
   d="m 593.96,286.23 c 0,-0.35 -0.02,-0.72 -0.09,-1.07 -0.08,-0.35 -0.2,-0.44 -0.2,-0.52 0,-0.03 0.02,-0.06 0.08,-0.11 l 0.66,-0.37 c 0.03,-0.02 0.09,-0.06 0.14,-0.06 0.23,0 0.4,0.79 0.41,0.9 0.4,-0.37 1.34,-0.9 1.99,-0.9 0.99,0 1.42,0.3 1.62,0.92 0.46,-0.34 1.28,-0.92 2.02,-0.92 1.7,0 1.82,1.19 1.82,2.29 l 0,5.07 c 0,0.12 -0.06,0.18 -0.18,0.18 l -0.79,0 c -0.12,0 -0.18,-0.06 -0.18,-0.18 l 0,-5.1 c 0,-0.66 -0.17,-1.24 -0.98,-1.24 -0.73,0 -1.19,0.41 -1.5,0.63 l 0,5.71 c 0,0.12 -0.06,0.18 -0.18,0.18 l -0.79,0 c -0.12,0 -0.18,-0.06 -0.18,-0.18 l 0,-5.1 c 0,-0.66 -0.17,-1.24 -0.99,-1.24 -0.69,0 -1.22,0.43 -1.48,0.64 l 0,5.7 c 0,0.12 -0.06,0.18 -0.18,0.18 l -0.79,0 c -0.12,0 -0.18,-0.06 -0.18,-0.18 l 0,-5.23 z"
   id="path369" />
	<path
   d="m 607.4,291.86 c -2.06,0 -2.95,-1.67 -2.95,-3.85 0,-2.11 0.89,-3.91 3.1,-3.91 2.09,0 2.98,1.68 2.98,3.83 0.01,2.15 -0.9,3.93 -3.13,3.93 z m 1.88,-3.94 c 0,-1.5 -0.41,-2.87 -1.79,-2.87 -1.38,0 -1.79,1.31 -1.79,2.83 0,1.74 0.4,3.04 1.8,3.04 1.37,0 1.78,-1.24 1.78,-3 z"
   id="path371" />
	<path
   d="m 616.65,291.08 c 0.01,0.06 0.03,0.11 0.03,0.15 0,0.2 -1.15,0.63 -1.97,0.63 -0.66,0 -1.21,-0.24 -1.44,-0.53 -0.44,-0.47 -0.44,-1.16 -0.44,-1.73 l 0,-4.34 -1.15,0 c -0.11,0 -0.11,-0.11 -0.11,-0.18 l 0,-0.58 c 0,-0.11 0,-0.18 0.11,-0.18 l 1.15,0 0,-2.09 c 0,-0.09 0.06,-0.15 0.17,-0.18 l 0.81,-0.23 c 0.05,0 0.08,-0.01 0.11,-0.01 0.08,0 0.08,0.08 0.08,0.17 l 0,2.35 2.26,0 c 0.09,0 0.17,0.02 0.17,0.11 0,0.03 -0.02,0.06 -0.02,0.11 l -0.2,0.6 c -0.03,0.08 -0.11,0.14 -0.2,0.14 l -2.02,0 0,4.34 c 0,0.61 0,1.24 0.92,1.24 0.72,0 1.33,-0.41 1.47,-0.41 0.06,0 0.11,0.05 0.11,0.09 l 0.16,0.53 z"
   id="path373" />
	<path
   d="m 619.15,291.47 c 0,0.12 -0.06,0.18 -0.18,0.18 l -0.79,0 c -0.12,0 -0.18,-0.06 -0.18,-0.18 l 0,-5.24 c 0,-0.28 -0.04,-0.78 -0.26,-1.16 -0.12,-0.21 -0.17,-0.34 -0.17,-0.38 0.01,-0.09 0.08,-0.14 0.11,-0.15 l 0.57,-0.35 c 0.06,-0.05 0.12,-0.08 0.15,-0.08 0.28,0 0.54,0.95 0.6,1.28 0.4,-0.43 0.95,-1.28 1.83,-1.28 0.35,0 0.75,0.12 0.75,0.26 0,0.03 -0.03,0.08 -0.05,0.12 l -0.34,0.78 c -0.01,0.03 -0.03,0.11 -0.09,0.11 -0.08,0 -0.21,-0.14 -0.5,-0.14 -0.53,0 -1.07,0.79 -1.44,1.19 l 0,5.04 z"
   id="path375" />
	<path
   d="m 624.41,291.47 c 0,0.12 -0.06,0.18 -0.18,0.18 l -0.79,0 c -0.12,0 -0.18,-0.06 -0.18,-0.18 l 0,-6.2 -1.19,0 c -0.12,0 -0.18,-0.06 -0.18,-0.18 l 0,-0.58 c 0,-0.12 0.06,-0.18 0.18,-0.18 l 2.15,0 c 0.17,0 0.2,0.09 0.2,0.23 l 0,6.91 z m -0.66,-8.91 c -0.52,0 -0.93,-0.41 -0.93,-0.93 0,-0.52 0.41,-0.93 0.93,-0.93 0.52,0 0.93,0.43 0.93,0.93 0,0.5 -0.41,0.93 -0.93,0.93 z"
   id="path377" />
	<path
   d="m 627.74,290.66 3.77,0 c 0.14,0 0.21,0.02 0.21,0.06 0,0.04 -0.03,0.09 -0.06,0.17 l -0.28,0.63 c -0.05,0.12 -0.11,0.14 -0.2,0.14 l -4.77,0 c -0.15,0 -0.17,-0.02 -0.17,-0.18 l 0,-0.61 3.83,-5.54 -3.34,0 c -0.12,0 -0.18,-0.06 -0.18,-0.18 l 0,-0.63 c 0,-0.15 0.03,-0.18 0.18,-0.18 l 4.61,0 c 0.15,0 0.18,0.03 0.18,0.18 l 0,0.63 -3.78,5.51 z"
   id="path379" />
</g><rect
     x="702.78998"
     y="270.67999"
     width="14.19"
     height="18.530001"
     id="rect381" /><g
     id="g383">
	<path
   d="m 727.39,276.19 c 0,0.12 -0.06,0.18 -0.18,0.18 l -0.79,0 c -0.12,0 -0.18,-0.06 -0.18,-0.18 l 0,-5.24 c 0,-0.28 -0.04,-0.78 -0.26,-1.16 -0.12,-0.21 -0.17,-0.34 -0.17,-0.38 0.01,-0.09 0.08,-0.14 0.11,-0.15 l 0.57,-0.35 c 0.06,-0.05 0.12,-0.08 0.15,-0.08 0.28,0 0.54,0.95 0.6,1.28 0.4,-0.43 0.95,-1.28 1.83,-1.28 0.35,0 0.75,0.12 0.75,0.26 0,0.03 -0.03,0.08 -0.05,0.12 l -0.34,0.78 c -0.01,0.03 -0.03,0.11 -0.09,0.11 -0.08,0 -0.21,-0.14 -0.5,-0.14 -0.53,0 -1.07,0.79 -1.44,1.19 l 0,5.04 z"
   id="path385" />
	<path
   d="m 735.01,269.22 c 0,-0.11 0.05,-0.17 0.11,-0.18 l 0.76,-0.18 c 0.12,-0.03 0.08,-0.02 0.18,-0.03 0.11,0 0.11,0.12 0.11,0.2 l 0,5.44 c 0,0.35 0.01,0.69 0.17,1.01 0.09,0.18 0.29,0.49 0.29,0.58 0,0.06 -0.08,0.09 -0.14,0.12 l -0.6,0.37 c -0.06,0.03 -0.09,0.05 -0.12,0.05 -0.23,0 -0.4,-0.55 -0.57,-0.9 -0.43,0.35 -1.25,0.9 -2.12,0.9 -2.06,0 -2.23,-1.19 -2.23,-2.29 l 0,-5.07 c 0,-0.11 0.05,-0.17 0.11,-0.18 l 0.76,-0.18 c 0.12,-0.03 0.08,-0.02 0.18,-0.03 0.11,0 0.11,0.12 0.11,0.2 l 0,5.3 c 0,0.66 0.26,1.24 1.25,1.24 0.47,0 1.45,-0.5 1.74,-0.78 l 0,-5.59 z"
   id="path387" />
	<path
   d="m 743.61,275.67 c 0.02,0.04 0.05,0.08 0.05,0.12 0,0.17 -1.28,0.79 -2.41,0.79 -2.03,-0.02 -3.22,-1.56 -3.22,-3.88 0,-2.25 1.13,-3.88 3.02,-3.88 2.55,0 2.78,2.47 2.78,3.79 0,0.21 0,0.34 -0.17,0.34 l -4.38,0 c 0,0.93 0.37,2.61 2.11,2.61 0.99,0 1.79,-0.63 1.88,-0.63 0.05,0 0.06,0.05 0.09,0.09 l 0.25,0.65 z M 742.57,272 c 0,-0.79 -0.26,-2.23 -1.59,-2.23 -1.41,0 -1.71,1.47 -1.71,2.23 l 3.3,0 z"
   id="path389" />
	<path
   d="m 750.82,273.96 c 0,0.69 0,1.15 0.17,1.53 0.08,0.18 0.28,0.47 0.28,0.57 0,0.06 -0.08,0.09 -0.14,0.12 l -0.6,0.37 c -0.06,0.03 -0.09,0.05 -0.12,0.05 -0.21,0 -0.49,-0.66 -0.55,-0.9 -0.37,0.26 -1.12,0.9 -2.25,0.9 -1.63,0 -2.38,-1.83 -2.38,-3.73 0,-2.2 0.78,-4.03 2.55,-4.03 0.95,0 1.47,0.26 1.88,0.52 l 0,-3.63 c 0,-0.11 0.05,-0.17 0.11,-0.18 l 0.75,-0.18 c 0.12,-0.03 0.08,-0.01 0.18,-0.03 0.12,0 0.12,0.12 0.12,0.2 l 0,8.42 z m -1.16,-3.61 c -0.49,-0.26 -0.98,-0.5 -1.74,-0.5 -1.31,0 -1.44,1.5 -1.44,2.98 0,1.28 0.11,2.73 1.34,2.73 0.79,0 1.47,-0.67 1.83,-0.9 l 0,-4.31 z"
   id="path391" />
	<path
   d="m 757.96,273.96 c 0,0.96 0.05,1.1 0.18,1.53 0.06,0.18 0.27,0.47 0.27,0.57 0,0.06 -0.08,0.09 -0.14,0.12 l -0.6,0.37 c -0.06,0.03 -0.09,0.05 -0.12,0.05 -0.23,0 -0.5,-0.81 -0.58,-1.02 -0.18,0.17 -0.93,1.02 -2.2,1.02 -1.21,0 -1.99,-0.79 -1.99,-2.15 0,-2.58 3.06,-2.63 4,-2.66 l 0,-0.55 c 0,-0.89 -0.27,-1.38 -1.36,-1.38 -1.02,0 -1.73,0.49 -1.86,0.49 -0.05,0 -0.09,-0.03 -0.11,-0.08 l -0.2,-0.54 c -0.03,-0.08 -0.05,-0.12 -0.05,-0.2 0,-0.26 1.41,-0.7 2.38,-0.7 1.76,0 2.35,0.85 2.35,2.14 l 0,2.99 z m -1.16,-1.24 c -0.67,0.02 -2.86,0.02 -2.86,1.62 0,0.61 0.34,1.3 1.11,1.3 0.79,0 1.5,-0.73 1.74,-0.95 l 0,-1.97 z"
   id="path393" />
	<path
   d="m 726.24,286.23 c 0,-0.35 -0.02,-0.72 -0.09,-1.07 -0.08,-0.35 -0.2,-0.44 -0.2,-0.52 0,-0.03 0.02,-0.06 0.08,-0.11 l 0.66,-0.37 c 0.03,-0.02 0.09,-0.06 0.14,-0.06 0.23,0 0.4,0.79 0.41,0.9 0.4,-0.37 1.34,-0.9 1.99,-0.9 0.99,0 1.42,0.3 1.62,0.92 0.46,-0.34 1.28,-0.92 2.02,-0.92 1.7,0 1.82,1.19 1.82,2.29 l 0,5.07 c 0,0.12 -0.06,0.18 -0.18,0.18 l -0.79,0 c -0.12,0 -0.18,-0.06 -0.18,-0.18 l 0,-5.1 c 0,-0.66 -0.17,-1.24 -0.98,-1.24 -0.73,0 -1.19,0.41 -1.5,0.63 l 0,5.71 c 0,0.12 -0.06,0.18 -0.18,0.18 l -0.79,0 c -0.12,0 -0.18,-0.06 -0.18,-0.18 l 0,-5.1 c 0,-0.66 -0.17,-1.24 -0.99,-1.24 -0.69,0 -1.22,0.43 -1.48,0.64 l 0,5.7 c 0,0.12 -0.06,0.18 -0.18,0.18 l -0.79,0 c -0.12,0 -0.18,-0.06 -0.18,-0.18 l 0,-5.23 z"
   id="path395" />
	<path
   d="m 739.68,291.86 c -2.06,0 -2.95,-1.67 -2.95,-3.85 0,-2.11 0.89,-3.91 3.1,-3.91 2.09,0 2.98,1.68 2.98,3.83 0.01,2.15 -0.89,3.93 -3.13,3.93 z m 1.88,-3.94 c 0,-1.5 -0.41,-2.87 -1.79,-2.87 -1.38,0 -1.79,1.31 -1.79,2.83 0,1.74 0.4,3.04 1.8,3.04 1.37,0 1.78,-1.24 1.78,-3 z"
   id="path397" />
	<path
   d="m 748.93,291.08 c 0.01,0.06 0.03,0.11 0.03,0.15 0,0.2 -1.15,0.63 -1.97,0.63 -0.66,0 -1.21,-0.24 -1.44,-0.53 -0.44,-0.47 -0.44,-1.16 -0.44,-1.73 l 0,-4.34 -1.15,0 c -0.11,0 -0.11,-0.11 -0.11,-0.18 l 0,-0.58 c 0,-0.11 0,-0.18 0.11,-0.18 l 1.15,0 0,-2.09 c 0,-0.09 0.06,-0.15 0.17,-0.18 l 0.81,-0.23 c 0.05,0 0.08,-0.01 0.11,-0.01 0.08,0 0.08,0.08 0.08,0.17 l 0,2.35 2.26,0 c 0.09,0 0.17,0.02 0.17,0.11 0,0.03 -0.02,0.06 -0.02,0.11 l -0.2,0.6 c -0.03,0.08 -0.11,0.14 -0.2,0.14 l -2.02,0 0,4.34 c 0,0.61 0,1.24 0.92,1.24 0.72,0 1.33,-0.41 1.47,-0.41 0.06,0 0.11,0.05 0.11,0.09 l 0.16,0.53 z"
   id="path399" />
	<path
   d="m 751.43,291.47 c 0,0.12 -0.06,0.18 -0.18,0.18 l -0.79,0 c -0.12,0 -0.18,-0.06 -0.18,-0.18 l 0,-5.24 c 0,-0.28 -0.04,-0.78 -0.26,-1.16 -0.12,-0.21 -0.17,-0.34 -0.17,-0.38 0.01,-0.09 0.08,-0.14 0.11,-0.15 l 0.57,-0.35 c 0.06,-0.05 0.12,-0.08 0.15,-0.08 0.28,0 0.54,0.95 0.6,1.28 0.4,-0.43 0.95,-1.28 1.83,-1.28 0.35,0 0.75,0.12 0.75,0.26 0,0.03 -0.03,0.08 -0.05,0.12 l -0.34,0.78 c -0.01,0.03 -0.03,0.11 -0.09,0.11 -0.08,0 -0.21,-0.14 -0.5,-0.14 -0.53,0 -1.07,0.79 -1.44,1.19 l 0,5.04 z"
   id="path401" />
	<path
   d="m 756.69,291.47 c 0,0.12 -0.06,0.18 -0.18,0.18 l -0.79,0 c -0.12,0 -0.18,-0.06 -0.18,-0.18 l 0,-6.2 -1.19,0 c -0.12,0 -0.18,-0.06 -0.18,-0.18 l 0,-0.58 c 0,-0.12 0.06,-0.18 0.18,-0.18 l 2.15,0 c 0.17,0 0.2,0.09 0.2,0.23 l 0,6.91 z m -0.66,-8.91 c -0.52,0 -0.93,-0.41 -0.93,-0.93 0,-0.52 0.41,-0.93 0.93,-0.93 0.52,0 0.93,0.43 0.93,0.93 0,0.5 -0.41,0.93 -0.93,0.93 z"
   id="path403" />
	<path
   d="m 760.02,290.66 3.77,0 c 0.14,0 0.21,0.02 0.21,0.06 0,0.04 -0.03,0.09 -0.06,0.17 l -0.28,0.63 c -0.05,0.12 -0.11,0.14 -0.2,0.14 l -4.77,0 c -0.15,0 -0.17,-0.02 -0.17,-0.18 l 0,-0.61 3.83,-5.54 -3.34,0 c -0.12,0 -0.18,-0.06 -0.18,-0.18 l 0,-0.63 c 0,-0.15 0.03,-0.18 0.18,-0.18 l 4.61,0 c 0.15,0 0.18,0.03 0.18,0.18 l 0,0.63 -3.78,5.51 z"
   id="path405" />
</g></g>
</svg>