<?xml version="1.0" encoding="utf-8"?>
<!-- Generator: Adobe Illustrator 16.0.0, SVG Export Plug-In . SVG Version: 6.00 Build 0)  -->
<!DOCTYPE svg PUBLIC "-//W3C//DTD SVG 1.1//EN" "http://www.w3.org/Graphics/SVG/1.1/DTD/svg11.dtd" [
	<!ENTITY ns_extend "http://ns.adobe.com/Extensibility/1.0/">
	<!ENTITY ns_ai "http://ns.adobe.com/AdobeIllustrator/10.0/">
	<!ENTITY ns_graphs "http://ns.adobe.com/Graphs/1.0/">
	<!ENTITY ns_vars "http://ns.adobe.com/Variables/1.0/">
	<!ENTITY ns_imrep "http://ns.adobe.com/ImageReplacement/1.0/">
	<!ENTITY ns_sfw "http://ns.adobe.com/SaveForWeb/1.0/">
	<!ENTITY ns_custom "http://ns.adobe.com/GenericCustomNamespace/1.0/">
	<!ENTITY ns_adobe_xpath "http://ns.adobe.com/XPath/1.0/">
]>
<svg version="1.1" xmlns:x="&ns_extend;" xmlns:i="&ns_ai;" xmlns:graph="&ns_graphs;"
	 xmlns="http://www.w3.org/2000/svg" xmlns:xlink="http://www.w3.org/1999/xlink" x="0px" y="0px" width="1366px" height="768px"
	 viewBox="0 0 1366 768" enable-background="new 0 0 1366 768" xml:space="preserve">
<metadata>
	<sfw  xmlns="&ns_sfw;">
		<slices></slices>
		<sliceSourceBounds  height="2316.335" width="8390.297" y="-648.291" x="-3993.106" bottomLeftOrigin="true"></sliceSourceBounds>
	</sfw>
</metadata>
<g id="Fondo" display="none">
</g>
<g id="Guías">
</g>
<g id="Primer_plano">
</g>
<g id="Capa_1">
	<rect fill="#009CBC" width="1366" height="768"/>
	<g>
		<g>
			<rect x="318.194" y="237.456" fill="none" width="633.973" height="163.276"/>
			<text transform="matrix(1 0 0 1 506.4722 325.0508)" fill="#FFFFFF" font-family="'Dubbem'" font-size="97.655">Canva</text>
		</g>
		<g>
			<rect x="336.653" y="356.993" fill="none" width="583.491" height="73.943"/>
			
				<text transform="matrix(1 0 0 1 454.0493 379.2446)" fill="#FFFFFF" font-family="'GoBoom!'" font-size="28.4827" letter-spacing="2">Manual de supervivencia</text>
		</g>
		<g>
			
				<path fill="none" stroke="#FFFFFF" stroke-width="1.3563" stroke-linecap="round" stroke-linejoin="round" stroke-miterlimit="10" stroke-dasharray="16.2746" d="
				M948.983,291.104c-13.987-6.265-29.386-12.879-45.214-10.222c-6.602,1.109-12.297,4.62-18.11,7.657
				c-11.303,5.907-23.293,9.049-36.243,8.572c-59.077-2.171-111.311-50.713-165.744-68.504
				c-49.377-16.138-109.077-26.652-160.315-11.73c-14.004,4.078-26.167,8.009-33.374,21.807c-5.738,10.986-0.485,25.059-5.901,34.93
				c-5.249,9.567-22.048,9.766-31.542,10.964c-17.673,2.23-36.245,3.165-53.015,9.511c-26.135,9.891-43.691,40.172-42.304,67.987
				c1.057,21.198,14.332,31.802,32.675,39.886c16.716,7.367,15.25,12.483,15.121,29.718c-0.135,18.114-11.614,31.394-13.198,49.041
				c-2.213,24.659,23.937,44.849,43.384,55.487c13.522,7.399,28.754,11.538,42.982,16.417
				c-26.033-12.712-55.717-40.342-47.562-67.294c2.57-8.492,9.812-14.999,8.8-24.341c-0.643-5.94-11.919-9.506-7.351-18.339
				c12.229-23.664,36.705-38.337,69.675-32.25c30.945,5.713,61.187,34.117,95.232,24.946c18.532-4.991,31.299-26.499,50.648-28.527
				c19.97-2.096,33.066,15.541,51.794,19.094c23.574,4.474,41.201-7.179,63.085-12.693c8.853-2.23,23.553-4.239,32.045,0.19
				c13.543,7.064,14.8,18.68,31.646,18.233c22.22-0.586,36.133-7.536,55.386,8.763c21.177,17.926,56.869,34.208,81.555,11.335
				C1003.529,414.32,1002.375,315.016,948.983,291.104z"/>
			
				<path fill="none" stroke="#FFFFFF" stroke-width="1.3563" stroke-linecap="round" stroke-linejoin="round" stroke-miterlimit="10" stroke-dasharray="16.2746" d="
				M478.185,552.625c5.149,2.516,10.156,4.449,14.697,5.676C488.194,556.193,483.251,554.363,478.185,552.625z"/>
		</g>
		<g>
			<g>
				<path fill="#FFFFFF" d="M926.924,271.166c-43.619,0-78.981,35.361-78.981,78.982c0,43.622,35.362,78.984,78.981,78.984
					c43.622,0,78.984-35.363,78.984-78.984C1005.908,306.527,970.546,271.166,926.924,271.166z M926.924,399.397
					c-27.197,0-49.247-22.05-49.247-49.249s22.049-49.247,49.247-49.247c27.2,0,49.25,22.048,49.25,49.247
					S954.124,399.397,926.924,399.397z"/>
				<circle fill="none" stroke="#FFFFFF" stroke-width="3.0137" stroke-miterlimit="10" cx="926.926" cy="350.149" r="85.136"/>
				<g>
					<path fill="#FFFFFF" d="M933.821,268.997c0,2.517-2.041,4.559-4.56,4.559l0,0c-2.518,0-4.558-2.042-4.558-4.559v-5.926
						c0-2.519,2.041-4.56,4.558-4.56l0,0c2.519,0,4.56,2.041,4.56,4.56V268.997z"/>
					<path fill="#FFFFFF" d="M845.774,343.252c2.518,0,4.558,2.042,4.558,4.56l0,0c0,2.518-2.041,4.56-4.558,4.56h-5.929
						c-2.517,0-4.558-2.042-4.558-4.56l0,0c0-2.518,2.041-4.56,4.558-4.56H845.774z"/>
					<path fill="#FFFFFF" d="M920.03,431.301c0-2.518,2.041-4.559,4.558-4.559l0,0c2.52,0,4.56,2.041,4.56,4.559v5.927
						c0,2.517-2.04,4.559-4.56,4.559l0,0c-2.517,0-4.558-2.042-4.558-4.559V431.301z"/>
					<path fill="#FFFFFF" d="M1008.078,357.045c-2.518,0-4.561-2.042-4.561-4.56l0,0c0-2.518,2.043-4.56,4.561-4.56h5.927
						c2.515,0,4.558,2.042,4.558,4.56l0,0c0,2.518-2.042,4.56-4.558,4.56H1008.078z"/>
				</g>
				<g>
					<defs>
						<path id="SVGID_1_" d="M926.924,271.166c-43.619,0-78.981,35.361-78.981,78.982c0,43.622,35.362,78.984,78.981,78.984
							c43.622,0,78.984-35.363,78.984-78.984C1005.908,306.527,970.546,271.166,926.924,271.166z M926.924,399.397
							c-27.197,0-49.247-22.05-49.247-49.249s22.049-49.247,49.247-49.247c27.2,0,49.25,22.048,49.25,49.247
							S954.124,399.397,926.924,399.397z"/>
					</defs>
					<clipPath id="SVGID_2_">
						<use xlink:href="#SVGID_1_"  overflow="visible"/>
					</clipPath>
					
						<line clip-path="url(#SVGID_2_)" fill="none" stroke="#A4DBF8" stroke-width="51.2325" stroke-miterlimit="10" x1="928.919" y1="310.418" x2="928.919" y2="246.135"/>
					
						<line clip-path="url(#SVGID_2_)" fill="none" stroke="#A4DBF8" stroke-width="51.2325" stroke-miterlimit="10" x1="886.521" y1="347.347" x2="822.236" y2="347.347"/>
					
						<line clip-path="url(#SVGID_2_)" fill="none" stroke="#A4DBF8" stroke-width="51.2325" stroke-miterlimit="10" x1="923.448" y1="389.746" x2="923.448" y2="454.03"/>
					
						<line clip-path="url(#SVGID_2_)" fill="none" stroke="#A4DBF8" stroke-width="51.2325" stroke-miterlimit="10" x1="965.847" y1="352.818" x2="1030.131" y2="352.818"/>
				</g>
			</g>
		</g>
	</g>
</g>
</svg>
