<?xml version="1.0" encoding="UTF-8" standalone="no"?>
<svg
   xmlns:ns="&amp;ns_sfw;"
   xmlns:dc="http://purl.org/dc/elements/1.1/"
   xmlns:cc="http://creativecommons.org/ns#"
   xmlns:rdf="http://www.w3.org/1999/02/22-rdf-syntax-ns#"
   xmlns:svg="http://www.w3.org/2000/svg"
   xmlns="http://www.w3.org/2000/svg"
   id="svg2"
   xml:space="preserve"
   enable-background="new 0 0 595.28 841.89"
   viewBox="0 0 639.56595 55.928309"
   height="55.92831"
   width="639.56598"
   y="0px"
   x="0px"
   version="1.1"><defs
   id="defs228">
	
		
	
		
	
		
	
		
	
		
	
		
	
		
	
		
	
		
	
		
	
	
	
	
	
		
	
		
	
		
	
		
	
		
	
		
	
		
	
		
	
		
	
		
	
	
		
	
		
	
		
	
		
	
	
		
	
		
	
		
	
		
	
		
	
</defs>
<metadata
   id="metadata4">
	<ns:sfw>
		<ns:slices />
		<ns:sliceSourceBounds
   bottomLeftOrigin="true"
   x="2267.3"
   y="-3417.56"
   height="1611.23"
   width="3183.53" />
	</ns:sfw>
<rdf:RDF><cc:Work
     rdf:about=""><dc:format>image/svg+xml</dc:format><dc:type
       rdf:resource="http://purl.org/dc/dcmitype/StillImage" /><dc:title></dc:title></cc:Work></rdf:RDF></metadata>
<g
   transform="translate(-229.4348,-391.94)"
   id="Capa_2">
</g>
<g
   transform="translate(-229.4348,-397.94)"
   id="g28">
		<path
   d="m 273.79,405.76 c 0,0.13 -0.03,0.15 -0.15,0.15 l -3.39,0 c -0.09,0 -0.13,-0.04 -0.13,-0.13 l 0,-7.27 c 0,-0.09 0.04,-0.13 0.13,-0.13 l 3.42,0 c 0.12,0 0.14,0.03 0.14,0.07 0,0.03 -0.02,0.1 -0.03,0.14 l -0.15,0.46 c -0.03,0.1 -0.07,0.1 -0.17,0.1 l -2.44,0 0,2.44 2.16,0 c 0.12,0 0.14,0.02 0.14,0.14 l 0,0.48 c 0,0.12 -0.02,0.14 -0.14,0.14 l -2.16,0 0,2.78 2.64,0 c 0.09,0 0.13,0.04 0.13,0.12 l 0,0.51 z"
   id="path30" />
		<path
   d="m 277.59,401.36 c -0.04,0.09 -0.07,0.13 -0.13,0.13 -0.08,0 -0.54,-0.3 -1.11,-0.3 -0.44,0 -0.81,0.22 -0.81,0.73 0,1.21 2.44,0.87 2.44,2.58 0,1.03 -0.81,1.56 -1.76,1.56 -0.53,0 -1.67,-0.31 -1.67,-0.53 0,-0.05 0.02,-0.09 0.04,-0.13 l 0.15,-0.34 c 0.03,-0.08 0.07,-0.1 0.1,-0.1 0.1,0 0.67,0.38 1.42,0.38 0.47,0 0.88,-0.26 0.88,-0.79 0,-1.14 -2.44,-0.89 -2.44,-2.55 0,-0.89 0.69,-1.53 1.66,-1.53 0.37,0 1.01,0.18 1.3,0.33 0.09,0.04 0.12,0.09 0.12,0.14 0,0.03 -0.03,0.07 -0.04,0.11 l -0.15,0.31 z"
   id="path32" />
		<path
   d="m 281.37,405.71 c 0.01,0.02 0.02,0.06 0.02,0.08 0,0.12 -0.53,0.28 -0.94,0.28 -0.54,0 -0.9,-0.22 -1.03,-0.53 -0.15,-0.36 -0.15,-1.21 -0.15,-1.6 l 0,-5.71 c 0,-0.08 0.03,-0.12 0.08,-0.13 l 0.55,-0.13 c 0.09,-0.02 0.05,-0.01 0.13,-0.02 0.08,0 0.08,0.09 0.08,0.14 l 0,5.88 c 0,0.34 0.01,0.9 0.03,1.03 0.02,0.12 0.12,0.38 0.44,0.38 0.29,0 0.49,-0.14 0.57,-0.14 0.07,0 0.07,0.03 0.08,0.07 l 0.14,0.4 z"
   id="path34" />
		<path
   d="m 285.51,404.17 c 0,0.69 0.03,0.79 0.13,1.1 0.04,0.13 0.2,0.34 0.2,0.41 0,0.04 -0.05,0.07 -0.1,0.09 l -0.43,0.26 c -0.04,0.02 -0.06,0.03 -0.09,0.03 -0.16,0 -0.36,-0.58 -0.42,-0.74 -0.13,0.12 -0.67,0.74 -1.58,0.74 -0.87,0 -1.43,-0.57 -1.43,-1.55 0,-1.86 2.2,-1.89 2.88,-1.91 l 0,-0.4 c 0,-0.64 -0.2,-0.99 -0.98,-0.99 -0.74,0 -1.24,0.35 -1.34,0.35 -0.03,0 -0.07,-0.02 -0.08,-0.05 l -0.14,-0.39 c -0.02,-0.05 -0.03,-0.09 -0.03,-0.14 0,-0.19 1.01,-0.51 1.71,-0.51 1.27,0 1.7,0.62 1.7,1.54 l 0,2.16 z m -0.83,-0.89 c -0.48,0.01 -2.06,0.01 -2.06,1.17 0,0.44 0.24,0.93 0.8,0.93 0.57,0 1.08,-0.53 1.25,-0.68 l 0,-1.42 z"
   id="path36" />
		<path
   d="m 288.14,401.04 c 0.3,-0.31 0.89,-0.56 1.4,-0.56 1.33,0 1.78,1.11 1.78,2.46 0,1.58 -0.42,3.12 -1.88,3.12 -0.77,0 -1.18,-0.2 -1.53,-0.54 -0.05,0.15 -0.23,0.54 -0.35,0.54 -0.04,0 -0.11,-0.04 -0.15,-0.08 l -0.28,-0.18 c -0.09,-0.06 -0.16,-0.09 -0.16,-0.14 0,-0.05 0.09,-0.13 0.16,-0.32 0.1,-0.18 0.18,-0.43 0.18,-0.78 l 0,-6.34 c 0,-0.08 0.03,-0.12 0.08,-0.13 l 0.55,-0.13 c 0.09,-0.02 0.06,-0.01 0.13,-0.02 0.08,0 0.08,0.09 0.08,0.14 l 0,2.96 z m 0,3.87 c 0.25,0.18 0.66,0.42 1.14,0.42 1.04,0 1.13,-1.27 1.13,-2.41 0,-0.85 -0.09,-1.71 -0.98,-1.71 -0.64,0 -0.85,0.24 -1.3,0.55 l 0,3.15 z"
   id="path38" />
		<path
   d="m 294.57,406.07 c -1.49,0 -2.12,-1.2 -2.12,-2.77 0,-1.52 0.64,-2.82 2.23,-2.82 1.51,0 2.14,1.21 2.14,2.76 0,1.54 -0.65,2.83 -2.25,2.83 z m 1.35,-2.84 c 0,-1.08 -0.3,-2.07 -1.29,-2.07 -0.99,0 -1.29,0.95 -1.29,2.04 0,1.25 0.29,2.19 1.3,2.19 0.98,-0.01 1.28,-0.9 1.28,-2.16 z m -2.06,-3.4 c -0.03,0.02 -0.07,0.03 -0.11,0.03 -0.03,0 -0.07,-0.03 -0.1,-0.09 l -0.1,-0.15 c -0.02,-0.03 -0.05,-0.08 -0.05,-0.11 0,-0.03 0.04,-0.05 0.09,-0.1 l 1.6,-1.23 c 0.02,-0.01 0.07,-0.05 0.11,-0.05 0.04,0 0.08,0.05 0.11,0.09 l 0.32,0.47 c 0.02,0.03 0.04,0.07 0.04,0.11 0,0.04 -0.04,0.08 -0.1,0.1 l -1.81,0.93 z"
   id="path40" />
		<path
   d="m 302.18,405.78 c 0,0.09 -0.04,0.13 -0.13,0.13 l -0.57,0 c -0.09,0 -0.13,-0.04 -0.13,-0.13 l 0,-3.67 c 0,-0.47 -0.12,-0.89 -0.71,-0.89 -0.71,0 -1.18,0.43 -1.45,0.67 l 0,3.89 c 0,0.09 -0.04,0.13 -0.13,0.13 l -0.57,0 c -0.09,0 -0.13,-0.04 -0.13,-0.13 l 0,-3.8 c 0,-0.36 0,-0.48 -0.04,-0.65 -0.09,-0.33 -0.18,-0.41 -0.18,-0.46 0,-0.02 0.01,-0.04 0.05,-0.08 l 0.49,-0.27 c 0.02,-0.01 0.05,-0.04 0.09,-0.04 0.2,0 0.33,0.66 0.34,0.75 0.36,-0.29 0.94,-0.75 1.77,-0.75 1.22,0 1.31,0.86 1.31,1.65 l 0,3.65 z"
   id="path42" />
		<path
   d="m 310.19,405.5 c 0.01,0.04 0.02,0.08 0.02,0.11 0,0.14 -0.82,0.45 -1.42,0.45 -0.47,0 -0.87,-0.18 -1.04,-0.39 -0.32,-0.34 -0.32,-0.84 -0.32,-1.24 l 0,-3.12 -0.83,0 c -0.08,0 -0.08,-0.08 -0.08,-0.13 l 0,-0.42 c 0,-0.08 0,-0.13 0.08,-0.13 l 0.83,0 0,-1.51 c 0,-0.07 0.04,-0.11 0.12,-0.13 l 0.58,-0.17 c 0.03,0 0.06,-0.01 0.08,-0.01 0.05,0 0.05,0.05 0.05,0.12 l 0,1.69 1.63,0 c 0.06,0 0.12,0.01 0.12,0.08 0,0.02 -0.01,0.04 -0.01,0.08 l -0.14,0.43 c -0.02,0.05 -0.08,0.1 -0.14,0.1 l -1.45,0 0,3.12 c 0,0.44 0,0.89 0.66,0.89 0.52,0 0.96,-0.3 1.06,-0.3 0.04,0 0.08,0.03 0.08,0.07 l 0.12,0.41 z"
   id="path44" />
		<path
   d="m 312.9,406.07 c -1.48,0 -2.12,-1.2 -2.12,-2.77 0,-1.52 0.64,-2.82 2.23,-2.82 1.51,0 2.15,1.21 2.15,2.76 0,1.54 -0.65,2.83 -2.26,2.83 z m 1.36,-2.84 c 0,-1.08 -0.3,-2.07 -1.29,-2.07 -0.99,0 -1.29,0.95 -1.29,2.04 0,1.25 0.29,2.19 1.3,2.19 0.98,-0.01 1.28,-0.9 1.28,-2.16 z"
   id="path46" />
		<path
   d="m 317.49,405.78 c 0,0.09 -0.04,0.13 -0.13,0.13 l -0.57,0 c -0.09,0 -0.13,-0.04 -0.13,-0.13 l 0,-3.77 c 0,-0.2 -0.03,-0.56 -0.19,-0.84 -0.09,-0.15 -0.12,-0.24 -0.12,-0.28 0.01,-0.07 0.05,-0.1 0.08,-0.11 l 0.41,-0.25 c 0.04,-0.03 0.09,-0.05 0.11,-0.05 0.2,0 0.38,0.68 0.43,0.92 0.29,-0.31 0.68,-0.92 1.32,-0.92 0.25,0 0.54,0.09 0.54,0.19 0,0.02 -0.02,0.06 -0.03,0.09 l -0.24,0.56 c -0.01,0.02 -0.02,0.08 -0.07,0.08 -0.05,0 -0.15,-0.1 -0.36,-0.1 -0.38,0 -0.77,0.57 -1.03,0.86 l 0,3.62 z"
   id="path48" />
		<path
   d="m 323.56,405.41 c 0.01,0.03 0.03,0.05 0.03,0.09 0,0.12 -0.93,0.57 -1.74,0.57 -1.31,0 -2.07,-1.02 -2.07,-2.63 0,-1.84 0.88,-2.96 2.23,-2.96 0.74,0 1.58,0.52 1.58,0.68 0,0.03 -0.02,0.06 -0.03,0.09 l -0.25,0.46 c -0.02,0.03 -0.03,0.07 -0.07,0.07 -0.04,0 -0.52,-0.56 -1.17,-0.56 -1.08,0 -1.4,0.8 -1.4,2.06 0,1 0.2,2.06 1.27,2.06 0.71,0 1.29,-0.45 1.35,-0.45 0.03,0 0.04,0.03 0.07,0.07 l 0.2,0.45 z"
   id="path50" />
		<path
   d="m 325.96,405.78 c 0,0.09 -0.04,0.13 -0.13,0.13 l -0.57,0 c -0.09,0 -0.13,-0.04 -0.13,-0.13 l 0,-4.47 -0.86,0 c -0.09,0 -0.13,-0.04 -0.13,-0.13 l 0,-0.42 c 0,-0.09 0.04,-0.13 0.13,-0.13 l 1.55,0 c 0.12,0 0.14,0.07 0.14,0.16 l 0,4.99 z m -0.47,-6.41 c -0.38,0 -0.67,-0.3 -0.67,-0.67 0,-0.37 0.3,-0.67 0.67,-0.67 0.37,0 0.67,0.31 0.67,0.67 0,0.36 -0.3,0.67 -0.67,0.67 z"
   id="path52" />
		<path
   d="m 331.51,404.17 c 0,0.5 0,0.83 0.12,1.1 0.05,0.13 0.2,0.34 0.2,0.41 0,0.04 -0.05,0.07 -0.1,0.09 l -0.43,0.26 c -0.04,0.02 -0.07,0.03 -0.09,0.03 -0.15,0 -0.35,-0.47 -0.4,-0.65 -0.26,0.19 -0.8,0.65 -1.62,0.65 -1.18,0 -1.71,-1.32 -1.71,-2.68 0,-1.58 0.56,-2.9 1.84,-2.9 0.68,0 1.06,0.19 1.35,0.37 l 0,-2.62 c 0,-0.08 0.03,-0.12 0.08,-0.13 l 0.54,-0.13 c 0.09,-0.02 0.06,-0.01 0.13,-0.02 0.09,0 0.09,0.09 0.09,0.14 l 0,6.08 z m -0.83,-2.59 c -0.35,-0.19 -0.7,-0.36 -1.25,-0.36 -0.95,0 -1.04,1.08 -1.04,2.14 0,0.92 0.08,1.97 0.97,1.97 0.57,0 1.06,-0.48 1.32,-0.65 l 0,-3.1 z"
   id="path54" />
		<path
   d="m 335.11,406.07 c -1.49,0 -2.12,-1.2 -2.12,-2.77 0,-1.52 0.64,-2.82 2.23,-2.82 1.51,0 2.14,1.21 2.14,2.76 0.01,1.54 -0.64,2.83 -2.25,2.83 z m 1.35,-2.84 c 0,-1.08 -0.3,-2.07 -1.29,-2.07 -0.99,0 -1.29,0.95 -1.29,2.04 0,1.25 0.29,2.19 1.3,2.19 0.99,-0.01 1.28,-0.9 1.28,-2.16 z"
   id="path56" />
	</g><g
   transform="translate(-65.36523,-463.63271)"
   id="g58">
		<path
   d="m 270.53,471.64 c 0,0.13 -0.03,0.15 -0.15,0.15 l -3.39,0 c -0.09,0 -0.13,-0.04 -0.13,-0.13 l 0,-7.27 c 0,-0.09 0.04,-0.13 0.13,-0.13 l 3.42,0 c 0.12,0 0.14,0.03 0.14,0.07 0,0.03 -0.02,0.1 -0.03,0.14 l -0.15,0.46 c -0.03,0.1 -0.07,0.1 -0.17,0.1 l -2.44,0 0,2.44 2.16,0 c 0.12,0 0.14,0.02 0.14,0.14 l 0,0.48 c 0,0.12 -0.02,0.14 -0.14,0.14 l -2.16,0 0,2.78 2.64,0 c 0.09,0 0.13,0.04 0.13,0.12 l 0,0.51 z"
   id="path60" />
		<path
   d="m 274.34,467.24 c -0.04,0.09 -0.07,0.13 -0.13,0.13 -0.08,0 -0.54,-0.3 -1.11,-0.3 -0.44,0 -0.81,0.22 -0.81,0.73 0,1.21 2.44,0.87 2.44,2.58 0,1.03 -0.81,1.56 -1.76,1.56 -0.53,0 -1.67,-0.31 -1.67,-0.53 0,-0.05 0.02,-0.09 0.04,-0.13 l 0.15,-0.34 c 0.03,-0.08 0.07,-0.1 0.1,-0.1 0.1,0 0.67,0.38 1.42,0.38 0.47,0 0.88,-0.26 0.88,-0.79 0,-1.14 -2.44,-0.89 -2.44,-2.55 0,-0.89 0.69,-1.53 1.66,-1.53 0.37,0 1.01,0.18 1.3,0.33 0.09,0.04 0.12,0.09 0.12,0.14 0,0.03 -0.03,0.07 -0.04,0.11 l -0.15,0.31 z"
   id="path62" />
		<path
   d="m 278.11,471.6 c 0.01,0.02 0.02,0.06 0.02,0.08 0,0.12 -0.53,0.28 -0.94,0.28 -0.54,0 -0.9,-0.22 -1.03,-0.53 -0.15,-0.36 -0.15,-1.21 -0.15,-1.6 l 0,-5.71 c 0,-0.08 0.03,-0.12 0.08,-0.13 l 0.55,-0.13 c 0.09,-0.02 0.05,-0.01 0.13,-0.02 0.08,0 0.08,0.09 0.08,0.14 l 0,5.88 c 0,0.34 0.01,0.9 0.03,1.03 0.02,0.12 0.12,0.38 0.44,0.38 0.29,0 0.49,-0.14 0.57,-0.14 0.07,0 0.07,0.03 0.08,0.07 l 0.14,0.4 z"
   id="path64" />
		<path
   d="m 282.26,470.06 c 0,0.69 0.03,0.79 0.13,1.1 0.04,0.13 0.2,0.34 0.2,0.41 0,0.04 -0.05,0.07 -0.1,0.09 l -0.43,0.26 c -0.04,0.02 -0.06,0.03 -0.09,0.03 -0.16,0 -0.36,-0.58 -0.42,-0.74 -0.13,0.12 -0.67,0.74 -1.58,0.74 -0.87,0 -1.43,-0.57 -1.43,-1.55 0,-1.86 2.2,-1.89 2.88,-1.91 l 0,-0.4 c 0,-0.64 -0.2,-0.99 -0.98,-0.99 -0.74,0 -1.24,0.35 -1.34,0.35 -0.03,0 -0.07,-0.02 -0.08,-0.05 l -0.14,-0.39 c -0.02,-0.05 -0.03,-0.09 -0.03,-0.14 0,-0.19 1.01,-0.51 1.71,-0.51 1.27,0 1.7,0.62 1.7,1.54 l 0,2.16 z m -0.84,-0.89 c -0.48,0.01 -2.06,0.01 -2.06,1.17 0,0.44 0.24,0.93 0.8,0.93 0.57,0 1.08,-0.53 1.25,-0.68 l 0,-1.42 z"
   id="path66" />
		<path
   d="m 284.89,466.92 c 0.3,-0.31 0.89,-0.56 1.4,-0.56 1.33,0 1.78,1.11 1.78,2.46 0,1.58 -0.42,3.12 -1.88,3.12 -0.77,0 -1.18,-0.2 -1.53,-0.54 -0.05,0.15 -0.23,0.54 -0.35,0.54 -0.04,0 -0.11,-0.04 -0.15,-0.08 l -0.28,-0.18 c -0.09,-0.06 -0.16,-0.09 -0.16,-0.14 0,-0.05 0.09,-0.13 0.16,-0.32 0.1,-0.18 0.18,-0.43 0.18,-0.78 l 0,-6.34 c 0,-0.08 0.03,-0.12 0.08,-0.13 l 0.55,-0.13 c 0.09,-0.02 0.06,-0.01 0.13,-0.02 0.08,0 0.08,0.09 0.08,0.14 l 0,2.96 z m 0,3.87 c 0.25,0.18 0.66,0.42 1.14,0.42 1.04,0 1.13,-1.27 1.13,-2.41 0,-0.85 -0.09,-1.71 -0.98,-1.71 -0.64,0 -0.85,0.24 -1.3,0.55 l 0,3.15 z"
   id="path68" />
		<path
   d="m 291.31,471.95 c -1.49,0 -2.12,-1.2 -2.12,-2.77 0,-1.52 0.64,-2.82 2.23,-2.82 1.51,0 2.14,1.21 2.14,2.76 0.01,1.54 -0.64,2.83 -2.25,2.83 z m 1.35,-2.84 c 0,-1.08 -0.3,-2.07 -1.29,-2.07 -0.99,0 -1.29,0.95 -1.29,2.04 0,1.25 0.29,2.19 1.3,2.19 0.99,0 1.28,-0.89 1.28,-2.16 z m -2.05,-3.4 c -0.03,0.02 -0.07,0.03 -0.11,0.03 -0.03,0 -0.07,-0.03 -0.1,-0.09 l -0.1,-0.15 c -0.02,-0.03 -0.05,-0.08 -0.05,-0.11 0,-0.03 0.04,-0.05 0.09,-0.1 l 1.6,-1.23 c 0.02,-0.01 0.07,-0.05 0.11,-0.05 0.04,0 0.08,0.05 0.11,0.09 l 0.32,0.47 c 0.02,0.03 0.04,0.07 0.04,0.11 0,0.04 -0.04,0.08 -0.1,0.1 l -1.81,0.93 z"
   id="path70" />
		<path
   d="m 298.92,471.66 c 0,0.09 -0.04,0.13 -0.13,0.13 l -0.57,0 c -0.09,0 -0.13,-0.04 -0.13,-0.13 l 0,-3.67 c 0,-0.47 -0.12,-0.89 -0.71,-0.89 -0.71,0 -1.18,0.43 -1.45,0.67 l 0,3.89 c 0,0.09 -0.04,0.13 -0.13,0.13 l -0.57,0 c -0.09,0 -0.13,-0.04 -0.13,-0.13 l 0,-3.8 c 0,-0.36 0,-0.48 -0.04,-0.65 -0.09,-0.33 -0.18,-0.41 -0.18,-0.46 0,-0.02 0.01,-0.04 0.05,-0.08 l 0.49,-0.27 c 0.02,-0.01 0.05,-0.04 0.09,-0.04 0.2,0 0.33,0.66 0.34,0.75 0.36,-0.29 0.94,-0.75 1.77,-0.75 1.22,0 1.31,0.86 1.31,1.65 l 0,3.65 z"
   id="path72" />
		<path
   d="m 307.32,470.06 c 0,0.69 0.03,0.79 0.13,1.1 0.04,0.13 0.2,0.34 0.2,0.41 0,0.04 -0.05,0.07 -0.1,0.09 l -0.43,0.26 c -0.04,0.02 -0.07,0.03 -0.09,0.03 -0.17,0 -0.36,-0.58 -0.42,-0.74 -0.13,0.12 -0.67,0.74 -1.58,0.74 -0.87,0 -1.43,-0.57 -1.43,-1.55 0,-1.86 2.2,-1.89 2.88,-1.91 l 0,-0.4 c 0,-0.64 -0.2,-0.99 -0.98,-0.99 -0.74,0 -1.24,0.35 -1.34,0.35 -0.03,0 -0.07,-0.02 -0.08,-0.05 l -0.14,-0.39 c -0.02,-0.05 -0.03,-0.09 -0.03,-0.14 0,-0.19 1.01,-0.51 1.72,-0.51 1.27,0 1.69,0.62 1.69,1.54 l 0,2.16 z m -0.84,-0.89 c -0.48,0.01 -2.06,0.01 -2.06,1.17 0,0.44 0.24,0.93 0.8,0.93 0.57,0 1.08,-0.53 1.25,-0.68 l 0,-1.42 z"
   id="path74" />
		<path
   d="m 311.11,471.6 c 0.01,0.02 0.02,0.06 0.02,0.08 0,0.12 -0.53,0.28 -0.93,0.28 -0.54,0 -0.9,-0.22 -1.04,-0.53 -0.15,-0.36 -0.15,-1.21 -0.15,-1.6 l 0,-5.71 c 0,-0.08 0.03,-0.12 0.08,-0.13 l 0.55,-0.13 c 0.09,-0.02 0.05,-0.01 0.13,-0.02 0.08,0 0.08,0.09 0.08,0.14 l 0,5.88 c 0,0.34 0.01,0.9 0.03,1.03 0.02,0.12 0.12,0.38 0.44,0.38 0.29,0 0.49,-0.14 0.57,-0.14 0.07,0 0.07,0.03 0.08,0.07 l 0.14,0.4 z"
   id="path76" />
		<path
   d="m 315.26,470.06 c 0,0.69 0.03,0.79 0.13,1.1 0.04,0.13 0.2,0.34 0.2,0.41 0,0.04 -0.05,0.07 -0.1,0.09 l -0.43,0.26 c -0.04,0.02 -0.07,0.03 -0.09,0.03 -0.17,0 -0.36,-0.58 -0.42,-0.74 -0.13,0.12 -0.67,0.74 -1.58,0.74 -0.87,0 -1.43,-0.57 -1.43,-1.55 0,-1.86 2.2,-1.89 2.88,-1.91 l 0,-0.4 c 0,-0.64 -0.2,-0.99 -0.98,-0.99 -0.74,0 -1.24,0.35 -1.34,0.35 -0.03,0 -0.07,-0.02 -0.08,-0.05 l -0.14,-0.39 c -0.02,-0.05 -0.03,-0.09 -0.03,-0.14 0,-0.19 1.01,-0.51 1.72,-0.51 1.27,0 1.69,0.62 1.69,1.54 l 0,2.16 z m -0.84,-0.89 c -0.48,0.01 -2.06,0.01 -2.06,1.17 0,0.44 0.24,0.93 0.8,0.93 0.57,0 1.08,-0.53 1.25,-0.68 l 0,-1.42 z"
   id="path78" />
		<path
   d="m 317.9,471.66 c 0,0.09 -0.04,0.13 -0.13,0.13 l -0.57,0 c -0.09,0 -0.13,-0.04 -0.13,-0.13 l 0,-3.77 c 0,-0.2 -0.03,-0.56 -0.19,-0.84 -0.09,-0.15 -0.12,-0.24 -0.12,-0.28 0.01,-0.07 0.05,-0.1 0.08,-0.11 l 0.41,-0.25 c 0.04,-0.03 0.09,-0.05 0.11,-0.05 0.2,0 0.38,0.68 0.43,0.92 0.29,-0.31 0.68,-0.92 1.32,-0.92 0.25,0 0.54,0.09 0.54,0.19 0,0.02 -0.02,0.06 -0.03,0.09 l -0.24,0.56 c -0.01,0.02 -0.02,0.08 -0.07,0.08 -0.05,0 -0.15,-0.1 -0.36,-0.1 -0.38,0 -0.77,0.57 -1.03,0.86 l 0,3.62 z"
   id="path80" />
		<path
   d="m 324.13,469.67 c 0,0.62 0.08,1.9 0.08,2.5 0,1 -0.45,1.94 -1.94,1.94 -0.82,0 -1.85,-0.37 -1.85,-0.58 0,-0.06 0.01,-0.08 0.04,-0.14 l 0.18,-0.37 c 0.01,-0.03 0.03,-0.07 0.08,-0.07 0.09,0 0.75,0.43 1.51,0.43 1.02,0 1.14,-0.59 1.14,-1.19 0,-0.55 -0.03,-1 -0.03,-1.13 -0.25,0.21 -0.76,0.61 -1.5,0.61 -1,0 -1.69,-0.88 -1.69,-2.43 0,-1.73 0.67,-2.86 2.07,-2.86 0.73,0 1.15,0.36 1.3,0.47 0.1,-0.27 0.22,-0.47 0.32,-0.47 0.04,0 0.08,0.01 0.1,0.02 l 0.49,0.31 c 0.04,0.03 0.04,0.04 0.04,0.07 0,0.09 -0.1,0.14 -0.2,0.41 -0.1,0.28 -0.14,0.42 -0.14,0.81 l 0,1.67 z m -0.83,-2.28 c -0.19,-0.09 -0.57,-0.3 -1.01,-0.3 -0.84,0 -1.23,0.74 -1.23,1.91 0,1.17 0.21,1.9 0.96,1.9 0.57,0 1.03,-0.37 1.29,-0.55 l 0,-2.96 z"
   id="path82" />
		<path
   d="m 329.32,470.06 c 0,0.69 0.03,0.79 0.13,1.1 0.04,0.13 0.2,0.34 0.2,0.41 0,0.04 -0.05,0.07 -0.1,0.09 l -0.43,0.26 c -0.04,0.02 -0.06,0.03 -0.09,0.03 -0.16,0 -0.36,-0.58 -0.42,-0.74 -0.13,0.12 -0.67,0.74 -1.58,0.74 -0.87,0 -1.43,-0.57 -1.43,-1.55 0,-1.86 2.2,-1.89 2.88,-1.91 l 0,-0.4 c 0,-0.64 -0.2,-0.99 -0.98,-0.99 -0.74,0 -1.24,0.35 -1.34,0.35 -0.03,0 -0.07,-0.02 -0.08,-0.05 l -0.14,-0.39 c -0.02,-0.05 -0.03,-0.09 -0.03,-0.14 0,-0.19 1.01,-0.51 1.71,-0.51 1.27,0 1.7,0.62 1.7,1.54 l 0,2.16 z m -0.84,-0.89 c -0.48,0.01 -2.06,0.01 -2.06,1.17 0,0.44 0.24,0.93 0.8,0.93 0.57,0 1.08,-0.53 1.25,-0.68 l 0,-1.42 z"
   id="path84" />
		<path
   d="m 334.77,470.06 c 0,0.5 0,0.83 0.12,1.1 0.05,0.13 0.2,0.34 0.2,0.41 0,0.04 -0.05,0.07 -0.1,0.09 l -0.43,0.26 c -0.04,0.02 -0.07,0.03 -0.09,0.03 -0.15,0 -0.35,-0.47 -0.4,-0.65 -0.26,0.19 -0.8,0.65 -1.62,0.65 -1.18,0 -1.71,-1.32 -1.71,-2.68 0,-1.58 0.56,-2.9 1.84,-2.9 0.68,0 1.06,0.19 1.35,0.37 l 0,-2.62 c 0,-0.08 0.03,-0.12 0.08,-0.13 l 0.54,-0.13 c 0.09,-0.02 0.06,-0.01 0.13,-0.02 0.09,0 0.09,0.09 0.09,0.14 l 0,6.08 z m -0.84,-2.6 c -0.35,-0.19 -0.7,-0.36 -1.25,-0.36 -0.95,0 -1.04,1.08 -1.04,2.14 0,0.92 0.08,1.97 0.97,1.97 0.57,0 1.06,-0.48 1.32,-0.65 l 0,-3.1 z"
   id="path86" />
		<path
   d="m 338.37,471.95 c -1.49,0 -2.12,-1.2 -2.12,-2.77 0,-1.52 0.64,-2.82 2.23,-2.82 1.51,0 2.14,1.21 2.14,2.76 0,1.54 -0.65,2.83 -2.25,2.83 z m 1.35,-2.84 c 0,-1.08 -0.3,-2.07 -1.29,-2.07 -0.99,0 -1.29,0.95 -1.29,2.04 0,1.25 0.29,2.19 1.3,2.19 0.98,0 1.28,-0.89 1.28,-2.16 z"
   id="path88" />
	</g><g
   transform="translate(96.92062,-527.21729)"
   id="g90">
		<path
   d="m 268.19,536.01 c 0,0.13 -0.03,0.15 -0.15,0.15 l -3.39,0 c -0.09,0 -0.13,-0.04 -0.13,-0.13 l 0,-7.27 c 0,-0.09 0.04,-0.13 0.13,-0.13 l 3.42,0 c 0.12,0 0.14,0.03 0.14,0.07 0,0.03 -0.02,0.1 -0.03,0.14 l -0.15,0.46 c -0.03,0.1 -0.07,0.1 -0.16,0.1 l -2.44,0 0,2.44 2.16,0 c 0.12,0 0.14,0.02 0.14,0.14 l 0,0.48 c 0,0.12 -0.02,0.14 -0.14,0.14 l -2.16,0 0,2.78 2.64,0 c 0.09,0 0.13,0.04 0.13,0.12 l 0,0.51 z"
   id="path92" />
		<path
   d="m 272,531.61 c -0.04,0.09 -0.07,0.13 -0.13,0.13 -0.08,0 -0.54,-0.3 -1.11,-0.3 -0.44,0 -0.81,0.22 -0.81,0.73 0,1.21 2.44,0.87 2.44,2.58 0,1.03 -0.81,1.56 -1.76,1.56 -0.53,0 -1.67,-0.31 -1.67,-0.53 0,-0.05 0.02,-0.09 0.04,-0.13 l 0.15,-0.34 c 0.03,-0.08 0.07,-0.1 0.1,-0.1 0.1,0 0.67,0.38 1.42,0.38 0.47,0 0.88,-0.26 0.88,-0.79 0,-1.14 -2.44,-0.89 -2.44,-2.55 0,-0.89 0.69,-1.53 1.66,-1.53 0.38,0 1.01,0.18 1.3,0.33 0.09,0.04 0.12,0.09 0.12,0.14 0,0.03 -0.03,0.07 -0.04,0.11 l -0.15,0.31 z"
   id="path94" />
		<path
   d="m 275.77,535.96 c 0.01,0.02 0.02,0.06 0.02,0.08 0,0.12 -0.53,0.28 -0.93,0.28 -0.54,0 -0.9,-0.22 -1.04,-0.53 -0.15,-0.36 -0.15,-1.21 -0.15,-1.6 l 0,-5.71 c 0,-0.08 0.03,-0.12 0.08,-0.13 l 0.55,-0.13 c 0.09,-0.02 0.05,-0.01 0.13,-0.02 0.08,0 0.08,0.09 0.08,0.14 l 0,5.88 c 0,0.34 0.01,0.9 0.03,1.03 0.02,0.12 0.12,0.38 0.44,0.38 0.29,0 0.49,-0.14 0.57,-0.14 0.07,0 0.07,0.03 0.08,0.07 l 0.14,0.4 z"
   id="path96" />
		<path
   d="m 279.92,534.42 c 0,0.69 0.03,0.79 0.13,1.1 0.04,0.13 0.2,0.34 0.2,0.41 0,0.04 -0.05,0.07 -0.1,0.09 l -0.43,0.26 c -0.04,0.02 -0.07,0.03 -0.09,0.03 -0.17,0 -0.36,-0.58 -0.42,-0.74 -0.13,0.12 -0.67,0.74 -1.58,0.74 -0.87,0 -1.43,-0.57 -1.43,-1.55 0,-1.86 2.2,-1.89 2.88,-1.91 l 0,-0.4 c 0,-0.64 -0.2,-0.99 -0.98,-0.99 -0.74,0 -1.24,0.35 -1.34,0.35 -0.03,0 -0.07,-0.02 -0.08,-0.05 l -0.14,-0.39 c -0.02,-0.05 -0.03,-0.09 -0.03,-0.14 0,-0.19 1.01,-0.51 1.72,-0.51 1.27,0 1.69,0.62 1.69,1.54 l 0,2.16 z m -0.84,-0.89 c -0.48,0.01 -2.06,0.01 -2.06,1.17 0,0.44 0.24,0.93 0.8,0.93 0.57,0 1.08,-0.53 1.25,-0.68 l 0,-1.42 z"
   id="path98" />
		<path
   d="m 282.54,531.29 c 0.3,-0.31 0.89,-0.56 1.4,-0.56 1.33,0 1.78,1.11 1.78,2.46 0,1.58 -0.42,3.12 -1.88,3.12 -0.77,0 -1.18,-0.2 -1.53,-0.54 -0.05,0.15 -0.23,0.54 -0.35,0.54 -0.04,0 -0.11,-0.04 -0.15,-0.08 l -0.28,-0.18 c -0.09,-0.06 -0.17,-0.09 -0.17,-0.14 0,-0.05 0.09,-0.13 0.17,-0.32 0.1,-0.18 0.18,-0.43 0.18,-0.78 l 0,-6.34 c 0,-0.08 0.03,-0.12 0.08,-0.13 l 0.55,-0.13 c 0.09,-0.02 0.05,-0.01 0.13,-0.02 0.08,0 0.08,0.09 0.08,0.14 l 0,2.96 z m 0,3.87 c 0.25,0.18 0.66,0.42 1.14,0.42 1.03,0 1.13,-1.27 1.13,-2.41 0,-0.85 -0.09,-1.71 -0.98,-1.71 -0.64,0 -0.85,0.24 -1.3,0.55 l 0,3.15 z"
   id="path100" />
		<path
   d="m 288.97,536.32 c -1.48,0 -2.12,-1.2 -2.12,-2.77 0,-1.52 0.64,-2.82 2.23,-2.82 1.51,0 2.15,1.21 2.15,2.76 -0.01,1.54 -0.65,2.83 -2.26,2.83 z m 1.35,-2.84 c 0,-1.08 -0.3,-2.07 -1.29,-2.07 -0.99,0 -1.29,0.95 -1.29,2.04 0,1.25 0.29,2.19 1.3,2.19 0.98,-0.01 1.28,-0.9 1.28,-2.16 z m -2.06,-3.4 c -0.03,0.02 -0.07,0.03 -0.11,0.03 -0.03,0 -0.06,-0.03 -0.1,-0.09 l -0.1,-0.15 c -0.02,-0.03 -0.05,-0.08 -0.05,-0.11 0,-0.03 0.04,-0.05 0.09,-0.1 l 1.6,-1.23 c 0.02,-0.01 0.06,-0.05 0.11,-0.05 0.04,0 0.08,0.05 0.11,0.09 l 0.32,0.47 c 0.02,0.03 0.04,0.07 0.04,0.11 0,0.04 -0.04,0.08 -0.1,0.1 l -1.81,0.93 z"
   id="path102" />
		<path
   d="m 296.58,536.03 c 0,0.09 -0.04,0.13 -0.13,0.13 l -0.57,0 c -0.09,0 -0.13,-0.04 -0.13,-0.13 l 0,-3.67 c 0,-0.47 -0.12,-0.89 -0.72,-0.89 -0.71,0 -1.18,0.43 -1.45,0.67 l 0,3.89 c 0,0.09 -0.04,0.13 -0.13,0.13 l -0.57,0 c -0.09,0 -0.13,-0.04 -0.13,-0.13 l 0,-3.8 c 0,-0.36 0,-0.48 -0.04,-0.65 -0.09,-0.33 -0.18,-0.41 -0.18,-0.46 0,-0.02 0.01,-0.04 0.05,-0.08 l 0.5,-0.27 c 0.02,-0.01 0.05,-0.04 0.09,-0.04 0.2,0 0.33,0.66 0.34,0.75 0.36,-0.29 0.94,-0.75 1.77,-0.75 1.22,0 1.31,0.86 1.31,1.65 l 0,3.65 z"
   id="path104" />
		<path
   d="m 304.97,534.42 c 0,0.69 0.03,0.79 0.13,1.1 0.04,0.13 0.2,0.34 0.2,0.41 0,0.04 -0.05,0.07 -0.1,0.09 l -0.43,0.26 c -0.04,0.02 -0.06,0.03 -0.09,0.03 -0.16,0 -0.36,-0.58 -0.42,-0.74 -0.13,0.12 -0.67,0.74 -1.58,0.74 -0.87,0 -1.43,-0.57 -1.43,-1.55 0,-1.86 2.2,-1.89 2.88,-1.91 l 0,-0.4 c 0,-0.64 -0.2,-0.99 -0.98,-0.99 -0.74,0 -1.24,0.35 -1.34,0.35 -0.03,0 -0.07,-0.02 -0.08,-0.05 l -0.14,-0.39 c -0.02,-0.05 -0.03,-0.09 -0.03,-0.14 0,-0.19 1.01,-0.51 1.71,-0.51 1.27,0 1.7,0.62 1.7,1.54 l 0,2.16 z m -0.83,-0.89 c -0.48,0.01 -2.06,0.01 -2.06,1.17 0,0.44 0.24,0.93 0.8,0.93 0.57,0 1.08,-0.53 1.25,-0.68 l 0,-1.42 z"
   id="path106" />
		<path
   d="m 306.83,532.62 c 0,-0.42 0,-0.7 -0.13,-1.1 -0.04,-0.13 -0.2,-0.34 -0.2,-0.41 0,-0.04 0.05,-0.07 0.1,-0.09 l 0.43,-0.26 c 0.04,-0.02 0.06,-0.03 0.09,-0.03 0.15,0 0.35,0.47 0.39,0.65 0.27,-0.19 0.8,-0.65 1.62,-0.65 1.18,0 1.72,1.32 1.72,2.68 0,1.58 -0.56,2.9 -1.84,2.9 -0.67,0 -1.04,-0.19 -1.34,-0.37 l 0,2.24 c 0,0.08 -0.03,0.12 -0.08,0.13 l -0.55,0.13 c -0.09,0.02 -0.05,0.01 -0.13,0.02 -0.08,0 -0.08,-0.09 -0.08,-0.14 l 0,-5.7 z m 0.84,2.6 c 0.35,0.19 0.69,0.36 1.24,0.36 0.95,0 1.03,-1.08 1.03,-2.15 0,-0.92 -0.08,-1.97 -0.97,-1.97 -0.57,0 -1.04,0.32 -1.31,0.54 l 0,3.22 z"
   id="path108" />
		<path
   d="m 314.27,535.96 c 0.01,0.02 0.02,0.06 0.02,0.08 0,0.12 -0.53,0.28 -0.94,0.28 -0.54,0 -0.9,-0.22 -1.03,-0.53 -0.15,-0.36 -0.15,-1.21 -0.15,-1.6 l 0,-5.71 c 0,-0.08 0.03,-0.12 0.08,-0.13 l 0.55,-0.13 c 0.09,-0.02 0.05,-0.01 0.13,-0.02 0.08,0 0.08,0.09 0.08,0.14 l 0,5.88 c 0,0.34 0.01,0.9 0.03,1.03 0.02,0.12 0.12,0.38 0.44,0.38 0.29,0 0.49,-0.14 0.57,-0.14 0.07,0 0.07,0.03 0.08,0.07 l 0.14,0.4 z"
   id="path110" />
		<path
   d="m 318.42,534.42 c 0,0.69 0.03,0.79 0.13,1.1 0.04,0.13 0.2,0.34 0.2,0.41 0,0.04 -0.05,0.07 -0.1,0.09 l -0.43,0.26 c -0.04,0.02 -0.06,0.03 -0.09,0.03 -0.16,0 -0.36,-0.58 -0.42,-0.74 -0.13,0.12 -0.67,0.74 -1.58,0.74 -0.87,0 -1.43,-0.57 -1.43,-1.55 0,-1.86 2.2,-1.89 2.88,-1.91 l 0,-0.4 c 0,-0.64 -0.2,-0.99 -0.98,-0.99 -0.74,0 -1.24,0.35 -1.34,0.35 -0.03,0 -0.07,-0.02 -0.08,-0.05 l -0.14,-0.39 c -0.02,-0.05 -0.03,-0.09 -0.03,-0.14 0,-0.19 1.01,-0.51 1.71,-0.51 1.27,0 1.7,0.62 1.7,1.54 l 0,2.16 z m -0.84,-0.89 c -0.48,0.01 -2.06,0.01 -2.06,1.17 0,0.44 0.24,0.93 0.8,0.93 0.57,0 1.08,-0.53 1.25,-0.68 l 0,-1.42 z"
   id="path112" />
		<path
   d="m 322.72,531.61 c -0.04,0.09 -0.07,0.13 -0.13,0.13 -0.08,0 -0.54,-0.3 -1.11,-0.3 -0.44,0 -0.81,0.22 -0.81,0.73 0,1.21 2.44,0.87 2.44,2.58 0,1.03 -0.81,1.56 -1.76,1.56 -0.53,0 -1.67,-0.31 -1.67,-0.53 0,-0.05 0.02,-0.09 0.04,-0.13 l 0.15,-0.34 c 0.03,-0.08 0.07,-0.1 0.1,-0.1 0.1,0 0.67,0.38 1.42,0.38 0.47,0 0.88,-0.26 0.88,-0.79 0,-1.14 -2.44,-0.89 -2.44,-2.55 0,-0.89 0.69,-1.53 1.66,-1.53 0.37,0 1.01,0.18 1.3,0.33 0.09,0.04 0.12,0.09 0.12,0.14 0,0.03 -0.03,0.07 -0.04,0.11 l -0.15,0.31 z"
   id="path114" />
		<path
   d="m 327.4,535.75 c 0.01,0.04 0.02,0.08 0.02,0.11 0,0.14 -0.82,0.45 -1.42,0.45 -0.47,0 -0.87,-0.18 -1.04,-0.39 -0.32,-0.34 -0.32,-0.84 -0.32,-1.24 l 0,-3.12 -0.83,0 c -0.08,0 -0.08,-0.08 -0.08,-0.13 l 0,-0.42 c 0,-0.08 0,-0.13 0.08,-0.13 l 0.83,0 0,-1.51 c 0,-0.07 0.04,-0.11 0.12,-0.13 l 0.58,-0.17 c 0.03,0 0.06,-0.01 0.08,-0.01 0.05,0 0.05,0.05 0.05,0.12 l 0,1.69 1.63,0 c 0.06,0 0.12,0.01 0.12,0.08 0,0.02 -0.01,0.04 -0.01,0.08 l -0.14,0.43 c -0.02,0.05 -0.08,0.1 -0.14,0.1 l -1.45,0 0,3.12 c 0,0.44 0,0.89 0.66,0.89 0.52,0 0.96,-0.3 1.06,-0.3 0.04,0 0.08,0.03 0.08,0.07 l 0.12,0.41 z"
   id="path116" />
		<path
   d="m 331.66,534.42 c 0,0.69 0.03,0.79 0.13,1.1 0.04,0.13 0.2,0.34 0.2,0.41 0,0.04 -0.05,0.07 -0.1,0.09 l -0.43,0.26 c -0.04,0.02 -0.06,0.03 -0.09,0.03 -0.16,0 -0.36,-0.58 -0.42,-0.74 -0.13,0.12 -0.67,0.74 -1.58,0.74 -0.87,0 -1.43,-0.57 -1.43,-1.55 0,-1.86 2.2,-1.89 2.88,-1.91 l 0,-0.4 c 0,-0.64 -0.2,-0.99 -0.98,-0.99 -0.74,0 -1.24,0.35 -1.34,0.35 -0.03,0 -0.07,-0.02 -0.08,-0.05 l -0.14,-0.39 c -0.02,-0.05 -0.03,-0.09 -0.03,-0.14 0,-0.19 1.01,-0.51 1.71,-0.51 1.27,0 1.7,0.62 1.7,1.54 l 0,2.16 z m -0.84,-0.89 c -0.48,0.01 -2.06,0.01 -2.06,1.17 0,0.44 0.24,0.93 0.8,0.93 0.57,0 1.08,-0.53 1.25,-0.68 l 0,-1.42 z"
   id="path118" />
		<path
   d="m 337.11,534.42 c 0,0.5 0,0.83 0.12,1.1 0.05,0.13 0.2,0.34 0.2,0.41 0,0.04 -0.05,0.07 -0.1,0.09 l -0.43,0.26 c -0.04,0.02 -0.07,0.03 -0.09,0.03 -0.15,0 -0.35,-0.47 -0.4,-0.65 -0.26,0.19 -0.8,0.65 -1.62,0.65 -1.18,0 -1.71,-1.32 -1.71,-2.68 0,-1.58 0.56,-2.9 1.84,-2.9 0.68,0 1.06,0.19 1.35,0.37 l 0,-2.62 c 0,-0.08 0.03,-0.12 0.08,-0.13 l 0.54,-0.13 c 0.09,-0.02 0.06,-0.01 0.13,-0.02 0.09,0 0.09,0.09 0.09,0.14 l 0,6.08 z m -0.83,-2.59 c -0.35,-0.19 -0.7,-0.36 -1.25,-0.36 -0.95,0 -1.04,1.08 -1.04,2.14 0,0.92 0.08,1.97 0.97,1.97 0.57,0 1.06,-0.48 1.32,-0.65 l 0,-3.1 z"
   id="path120" />
		<path
   d="m 340.71,536.32 c -1.49,0 -2.12,-1.2 -2.12,-2.77 0,-1.52 0.64,-2.82 2.23,-2.82 1.51,0 2.14,1.21 2.14,2.76 0.01,1.54 -0.64,2.83 -2.25,2.83 z m 1.35,-2.84 c 0,-1.08 -0.3,-2.07 -1.29,-2.07 -0.99,0 -1.29,0.95 -1.29,2.04 0,1.25 0.29,2.19 1.3,2.19 0.99,-0.01 1.28,-0.9 1.28,-2.16 z"
   id="path122" />
	</g><g
   transform="translate(263.71075,-585.75689)"
   id="g124">
		<path
   d="m 273.79,594.46 c 0,0.13 -0.03,0.15 -0.15,0.15 l -3.39,0 c -0.09,0 -0.13,-0.04 -0.13,-0.13 l 0,-7.27 c 0,-0.09 0.04,-0.13 0.13,-0.13 l 3.42,0 c 0.12,0 0.14,0.03 0.14,0.07 0,0.03 -0.02,0.1 -0.03,0.14 l -0.15,0.46 c -0.03,0.1 -0.07,0.1 -0.17,0.1 l -2.44,0 0,2.44 2.16,0 c 0.12,0 0.14,0.02 0.14,0.14 l 0,0.48 c 0,0.12 -0.02,0.14 -0.14,0.14 l -2.16,0 0,2.78 2.64,0 c 0.09,0 0.13,0.04 0.13,0.12 l 0,0.51 z"
   id="path126" />
		<path
   d="m 277.59,590.06 c -0.04,0.09 -0.07,0.13 -0.13,0.13 -0.08,0 -0.54,-0.3 -1.11,-0.3 -0.44,0 -0.81,0.22 -0.81,0.73 0,1.21 2.44,0.87 2.44,2.58 0,1.03 -0.81,1.56 -1.76,1.56 -0.53,0 -1.67,-0.31 -1.67,-0.53 0,-0.05 0.02,-0.09 0.04,-0.13 l 0.15,-0.34 c 0.03,-0.08 0.07,-0.1 0.1,-0.1 0.1,0 0.67,0.38 1.42,0.38 0.47,0 0.88,-0.26 0.88,-0.79 0,-1.14 -2.44,-0.89 -2.44,-2.55 0,-0.89 0.69,-1.53 1.66,-1.53 0.37,0 1.01,0.18 1.3,0.33 0.09,0.04 0.12,0.09 0.12,0.14 0,0.03 -0.03,0.07 -0.04,0.11 l -0.15,0.31 z"
   id="path128" />
		<path
   d="m 281.37,594.42 c 0.01,0.02 0.02,0.06 0.02,0.08 0,0.12 -0.53,0.28 -0.94,0.28 -0.54,0 -0.9,-0.22 -1.03,-0.53 -0.15,-0.36 -0.15,-1.21 -0.15,-1.6 l 0,-5.71 c 0,-0.08 0.03,-0.12 0.08,-0.13 l 0.55,-0.13 c 0.09,-0.02 0.05,-0.01 0.13,-0.02 0.08,0 0.08,0.09 0.08,0.14 l 0,5.88 c 0,0.34 0.01,0.9 0.03,1.03 0.02,0.12 0.12,0.38 0.44,0.38 0.29,0 0.49,-0.14 0.57,-0.14 0.07,0 0.07,0.03 0.08,0.07 l 0.14,0.4 z"
   id="path130" />
		<path
   d="m 285.51,592.88 c 0,0.69 0.03,0.79 0.13,1.1 0.04,0.13 0.2,0.34 0.2,0.41 0,0.04 -0.05,0.07 -0.1,0.09 l -0.43,0.26 c -0.04,0.02 -0.06,0.03 -0.09,0.03 -0.16,0 -0.36,-0.58 -0.42,-0.74 -0.13,0.12 -0.67,0.74 -1.58,0.74 -0.87,0 -1.43,-0.57 -1.43,-1.55 0,-1.86 2.2,-1.89 2.88,-1.91 l 0,-0.4 c 0,-0.64 -0.2,-0.99 -0.98,-0.99 -0.74,0 -1.24,0.35 -1.34,0.35 -0.03,0 -0.07,-0.02 -0.08,-0.05 l -0.14,-0.39 c -0.02,-0.05 -0.03,-0.09 -0.03,-0.14 0,-0.19 1.01,-0.51 1.71,-0.51 1.27,0 1.7,0.62 1.7,1.54 l 0,2.16 z m -0.83,-0.89 c -0.48,0.01 -2.06,0.01 -2.06,1.17 0,0.44 0.24,0.93 0.8,0.93 0.57,0 1.08,-0.53 1.25,-0.68 l 0,-1.42 z"
   id="path132" />
		<path
   d="m 288.14,589.74 c 0.3,-0.31 0.89,-0.56 1.4,-0.56 1.33,0 1.78,1.11 1.78,2.46 0,1.58 -0.42,3.12 -1.88,3.12 -0.77,0 -1.18,-0.2 -1.53,-0.54 -0.05,0.15 -0.23,0.54 -0.35,0.54 -0.04,0 -0.11,-0.04 -0.15,-0.08 l -0.28,-0.18 c -0.09,-0.06 -0.16,-0.09 -0.16,-0.14 0,-0.05 0.09,-0.13 0.16,-0.32 0.1,-0.18 0.18,-0.43 0.18,-0.78 l 0,-6.34 c 0,-0.08 0.03,-0.12 0.08,-0.13 l 0.55,-0.13 c 0.09,-0.02 0.06,-0.01 0.13,-0.02 0.08,0 0.08,0.09 0.08,0.14 l 0,2.96 z m 0,3.88 c 0.25,0.18 0.66,0.42 1.14,0.42 1.04,0 1.13,-1.27 1.13,-2.41 0,-0.85 -0.09,-1.71 -0.98,-1.71 -0.64,0 -0.85,0.24 -1.3,0.55 l 0,3.15 z"
   id="path134" />
		<path
   d="m 294.57,594.77 c -1.49,0 -2.12,-1.2 -2.12,-2.77 0,-1.52 0.64,-2.82 2.23,-2.82 1.51,0 2.14,1.21 2.14,2.76 0,1.54 -0.65,2.83 -2.25,2.83 z m 1.35,-2.84 c 0,-1.08 -0.3,-2.07 -1.29,-2.07 -0.99,0 -1.29,0.95 -1.29,2.04 0,1.25 0.29,2.19 1.3,2.19 0.98,0 1.28,-0.89 1.28,-2.16 z m -2.06,-3.4 c -0.03,0.02 -0.07,0.03 -0.11,0.03 -0.03,0 -0.07,-0.03 -0.1,-0.09 l -0.1,-0.15 c -0.02,-0.03 -0.05,-0.08 -0.05,-0.11 0,-0.03 0.04,-0.05 0.09,-0.1 l 1.6,-1.23 c 0.02,-0.01 0.07,-0.05 0.11,-0.05 0.04,0 0.08,0.05 0.11,0.09 l 0.32,0.47 c 0.02,0.03 0.04,0.07 0.04,0.11 0,0.04 -0.04,0.08 -0.1,0.1 l -1.81,0.93 z"
   id="path136" />
		<path
   d="m 302.18,594.48 c 0,0.09 -0.04,0.13 -0.13,0.13 l -0.57,0 c -0.09,0 -0.13,-0.04 -0.13,-0.13 l 0,-3.67 c 0,-0.47 -0.12,-0.89 -0.71,-0.89 -0.71,0 -1.18,0.43 -1.45,0.67 l 0,3.89 c 0,0.09 -0.04,0.13 -0.13,0.13 l -0.57,0 c -0.09,0 -0.13,-0.04 -0.13,-0.13 l 0,-3.8 c 0,-0.36 0,-0.48 -0.04,-0.65 -0.09,-0.33 -0.18,-0.41 -0.18,-0.46 0,-0.02 0.01,-0.04 0.05,-0.08 l 0.49,-0.27 c 0.02,-0.01 0.05,-0.04 0.09,-0.04 0.2,0 0.33,0.66 0.34,0.75 0.36,-0.29 0.94,-0.75 1.77,-0.75 1.22,0 1.31,0.86 1.31,1.65 l 0,3.65 z"
   id="path138" />
		<path
   d="m 310.57,592.88 c 0,0.69 0.03,0.79 0.13,1.1 0.04,0.13 0.2,0.34 0.2,0.41 0,0.04 -0.05,0.07 -0.1,0.09 l -0.43,0.26 c -0.04,0.02 -0.07,0.03 -0.09,0.03 -0.17,0 -0.36,-0.58 -0.42,-0.74 -0.13,0.12 -0.67,0.74 -1.58,0.74 -0.87,0 -1.43,-0.57 -1.43,-1.55 0,-1.86 2.2,-1.89 2.88,-1.91 l 0,-0.4 c 0,-0.64 -0.2,-0.99 -0.98,-0.99 -0.74,0 -1.24,0.35 -1.34,0.35 -0.03,0 -0.07,-0.02 -0.08,-0.05 l -0.14,-0.39 c -0.02,-0.05 -0.03,-0.09 -0.03,-0.14 0,-0.19 1.01,-0.51 1.72,-0.51 1.27,0 1.69,0.62 1.69,1.54 l 0,2.16 z m -0.83,-0.89 c -0.48,0.01 -2.06,0.01 -2.06,1.17 0,0.44 0.24,0.93 0.8,0.93 0.57,0 1.08,-0.53 1.25,-0.68 l 0,-1.42 z"
   id="path140" />
		<path
   d="m 313.2,589.74 c 0.3,-0.31 0.89,-0.56 1.4,-0.56 1.33,0 1.78,1.11 1.78,2.46 0,1.58 -0.42,3.12 -1.88,3.12 -0.77,0 -1.18,-0.2 -1.53,-0.54 -0.05,0.15 -0.23,0.54 -0.35,0.54 -0.04,0 -0.11,-0.04 -0.15,-0.08 l -0.28,-0.18 c -0.09,-0.06 -0.17,-0.09 -0.17,-0.14 0,-0.05 0.09,-0.13 0.17,-0.32 0.1,-0.18 0.18,-0.43 0.18,-0.78 l 0,-6.34 c 0,-0.08 0.03,-0.12 0.08,-0.13 l 0.55,-0.13 c 0.09,-0.02 0.05,-0.01 0.13,-0.02 0.08,0 0.08,0.09 0.08,0.14 l 0,2.96 z m 0,3.88 c 0.25,0.18 0.66,0.42 1.14,0.42 1.03,0 1.13,-1.27 1.13,-2.41 0,-0.85 -0.09,-1.71 -0.98,-1.71 -0.64,0 -0.85,0.24 -1.3,0.55 l 0,3.15 z"
   id="path142" />
		<path
   d="m 319.03,594.48 c 0,0.09 -0.04,0.13 -0.13,0.13 l -0.57,0 c -0.09,0 -0.13,-0.04 -0.13,-0.13 l 0,-4.47 -0.86,0 c -0.09,0 -0.13,-0.04 -0.13,-0.13 l 0,-0.42 c 0,-0.09 0.04,-0.13 0.13,-0.13 l 1.55,0 c 0.12,0 0.14,0.07 0.14,0.16 l 0,4.99 z m -0.47,-6.41 c -0.38,0 -0.67,-0.3 -0.67,-0.67 0,-0.37 0.3,-0.67 0.67,-0.67 0.37,0 0.67,0.31 0.67,0.67 0,0.36 -0.3,0.67 -0.67,0.67 z"
   id="path144" />
		<path
   d="m 324.49,594.11 c 0.01,0.03 0.03,0.05 0.03,0.09 0,0.12 -0.92,0.57 -1.74,0.57 -1.46,-0.01 -2.32,-1.12 -2.32,-2.79 0,-1.62 0.81,-2.79 2.18,-2.79 1.84,0 2,1.78 2,2.73 0,0.15 0,0.24 -0.12,0.24 l -3.16,0 c 0,0.67 0.26,1.88 1.52,1.88 0.71,0 1.29,-0.45 1.35,-0.45 0.03,0 0.04,0.03 0.07,0.07 l 0.19,0.45 z m -0.75,-2.64 c 0,-0.57 -0.19,-1.61 -1.14,-1.61 -1.01,0 -1.23,1.06 -1.23,1.61 l 2.37,0 z"
   id="path146" />
		<path
   d="m 326.86,594.48 c 0,0.09 -0.04,0.13 -0.13,0.13 l -0.57,0 c -0.09,0 -0.13,-0.04 -0.13,-0.13 l 0,-3.77 c 0,-0.2 -0.03,-0.56 -0.19,-0.84 -0.09,-0.15 -0.12,-0.24 -0.12,-0.28 0.01,-0.07 0.05,-0.1 0.08,-0.11 l 0.41,-0.25 c 0.04,-0.03 0.09,-0.05 0.11,-0.05 0.2,0 0.38,0.68 0.43,0.92 0.29,-0.31 0.68,-0.92 1.32,-0.92 0.25,0 0.54,0.09 0.54,0.19 0,0.02 -0.02,0.06 -0.03,0.09 l -0.24,0.56 c -0.01,0.02 -0.02,0.08 -0.07,0.08 -0.05,0 -0.15,-0.1 -0.36,-0.1 -0.38,0 -0.77,0.57 -1.03,0.86 l 0,3.62 z"
   id="path148" />
		<path
   d="m 332.4,594.21 c 0.01,0.04 0.02,0.08 0.02,0.11 0,0.14 -0.83,0.45 -1.42,0.45 -0.47,0 -0.87,-0.18 -1.03,-0.39 -0.32,-0.34 -0.32,-0.84 -0.32,-1.24 l 0,-3.12 -0.82,0 c -0.08,0 -0.08,-0.08 -0.08,-0.13 l 0,-0.42 c 0,-0.08 0,-0.13 0.08,-0.13 l 0.82,0 0,-1.51 c 0,-0.07 0.04,-0.11 0.12,-0.13 l 0.58,-0.17 c 0.03,0 0.05,-0.01 0.08,-0.01 0.05,0 0.05,0.05 0.05,0.12 l 0,1.69 1.63,0 c 0.07,0 0.12,0.01 0.12,0.08 0,0.02 -0.01,0.04 -0.01,0.08 l -0.14,0.43 c -0.02,0.05 -0.08,0.1 -0.14,0.1 l -1.45,0 0,3.12 c 0,0.44 0,0.89 0.66,0.89 0.52,0 0.96,-0.3 1.06,-0.3 0.04,0 0.08,0.03 0.08,0.07 l 0.11,0.41 z"
   id="path150" />
		<path
   d="m 335.11,594.77 c -1.49,0 -2.12,-1.2 -2.12,-2.77 0,-1.52 0.64,-2.82 2.23,-2.82 1.51,0 2.14,1.21 2.14,2.76 0.01,1.54 -0.64,2.83 -2.25,2.83 z m 1.35,-2.84 c 0,-1.08 -0.3,-2.07 -1.29,-2.07 -0.99,0 -1.29,0.95 -1.29,2.04 0,1.25 0.29,2.19 1.3,2.19 0.99,0 1.28,-0.89 1.28,-2.16 z"
   id="path152" />
	</g><g
   transform="translate(-229.4348,-397.94)"
   id="g174">
		
			<path
   stroke-miterlimit="10"
   d="m 353.18,417.69 c 11.34,-3.09 -14.49,-1.38 -23.93,3.36 -8.71,4.37 -19.56,4.6 -21.67,4.6 l 0,0 c 0,0 -0.07,0 -0.18,0 -0.12,0 -0.19,0 -0.19,0 l 0,0 c -2.11,0 -12.96,-0.23 -21.67,-4.6 -9.44,-4.74 -23.93,-3.36 -23.93,-3.36 3.22,3.26 13.45,18.92 29.71,21.43 8.2,1.27 14.94,1.15 16.07,1.12 1.13,0.03 7.88,0.14 16.07,-1.12 16.27,-2.52 17.77,-18.17 29.72,-21.43 z"
   id="path176"
   style="fill:none;stroke:#4c474c;stroke-width:0.85039997;stroke-linecap:round;stroke-linejoin:round;stroke-miterlimit:10" />
		
			<path
   stroke-miterlimit="10"
   d="m 229.86,432.14 c 0,9.98 8.2,18.07 18.3,18.07 l 20.06,0 c 10.11,0 18.3,-8.09 18.3,-18.07 0,-9.98 -8.2,-18.07 -18.3,-18.07 l -20.06,0 c -10.1,0 -18.3,8.09 -18.3,18.07 z m 32.74,-8.03 c 4.44,0 8.04,3.59 8.04,8.03 0,4.44 -3.6,8.03 -8.04,8.03 l -8.81,0 c -4.44,0 -8.04,-3.59 -8.04,-8.03 0,-4.44 3.6,-8.03 8.04,-8.03 l 8.81,0 z"
   id="path178"
   style="fill:#ffffff;stroke:#4c474c;stroke-width:0.85039997;stroke-linecap:round;stroke-linejoin:round;stroke-miterlimit:10" />
		
			<path
   stroke-miterlimit="10"
   d="m 320.47,432.14 c 0,9.98 8.2,18.07 18.3,18.07 l 20.06,0 c 10.11,0 18.3,-8.09 18.3,-18.07 0,-9.98 -8.2,-18.07 -18.3,-18.07 l -20.06,0 c -10.11,0 -18.3,8.09 -18.3,18.07 z m 32.73,-8.03 c 4.44,0 8.04,3.59 8.04,8.03 0,4.44 -3.6,8.03 -8.04,8.03 l -8.81,0 c -4.44,0 -8.04,-3.59 -8.04,-8.03 0,-4.44 3.6,-8.03 8.04,-8.03 l 8.81,0 z"
   id="path180"
   style="fill:#ffffff;stroke:#4c474c;stroke-width:0.85039997;stroke-linecap:round;stroke-linejoin:round;stroke-miterlimit:10" />
		
			<path
   stroke-miterlimit="10"
   d="m 349.77,429.78 c -5.04,-10.61 -14.49,-1.38 -23.93,3.36 -8.71,4.37 -19.56,4.6 -21.67,4.6 l 0,0 c 0,0 -0.07,0 -0.19,0 -0.12,0 -0.18,0 -0.18,0 l 0,0 c -2.11,0 -12.96,-0.23 -21.67,-4.6 -9.44,-4.74 -18.89,-13.97 -23.93,-3.36 -4.16,8.74 13.45,18.92 29.71,21.43 8.2,1.27 14.95,1.15 16.07,1.12 1.13,0.03 7.88,0.14 16.07,-1.12 16.27,-2.52 33.87,-12.69 29.72,-21.43 z"
   id="path182"
   style="fill:#ffffff;stroke:#4c474c;stroke-width:0.85039997;stroke-linecap:round;stroke-linejoin:round;stroke-miterlimit:10" />
	</g><path
   stroke-miterlimit="10"
   d="m 282.69477,33.65729 c 0,0 3.22,17.85 -22.7,14.91 -23.84,-2.71 -27.42,-1.55 -32.24,-0.89 -4.81,0.67 -21.85,8.15 -30.54,2.06 -4.44,-3.12 -4.75,-10.96 -4.75,-10.96 l 10.96,-5.74 c 0,0 3.29,5.76 6.84,7.09 3.55,1.33 17.93,-1.2 23.76,-1.2 5.83,0 24.14,-0.13 29.21,-0.35 5.07,-0.22 9.63,0.22 10.9,-5.54 1.27,-5.76 4.31,-5.76 4.31,-5.76 l 4.25,6.38 z"
   id="path184"
   style="fill:#ffffff;stroke:#4c474c;stroke-width:0.79540002;stroke-linecap:round;stroke-linejoin:round;stroke-miterlimit:10" /><path
   stroke-miterlimit="10"
   d="m 256.73477,32.80729 c 0,9.53 7.83,17.26 17.49,17.26 l 19.16,0 c 9.66,0 17.49,-7.73 17.49,-17.26 0,-9.53 -7.83,-17.26 -17.49,-17.26 l -19.16,0 c -9.66,0 -17.49,7.73 -17.49,17.26 z m 31.27,-7.67 c 4.24,0 7.68,3.43 7.68,7.67 0,4.24 -3.44,7.67 -7.68,7.67 l -8.42,0 c -4.24,0 -7.68,-3.43 -7.68,-7.67 0,-4.24 3.44,-7.67 7.68,-7.67 l 8.42,0 z"
   id="path186"
   style="fill:#ffffff;stroke:#4c474c;stroke-width:0.85039997;stroke-linecap:round;stroke-linejoin:round;stroke-miterlimit:10" /><path
   stroke-miterlimit="10"
   d="m 165.39477,32.80729 c 0,9.53 7.83,17.26 17.49,17.26 l 19.16,0 c 9.66,0 17.49,-7.73 17.49,-17.26 0,-9.53 -7.83,-17.26 -17.49,-17.26 l -19.16,0 c -9.66,0 -17.49,7.73 -17.49,17.26 z m 31.28,-7.67 c 4.24,0 7.68,3.43 7.68,7.67 0,4.24 -3.44,7.67 -7.68,7.67 l -8.42,0 c -4.24,0 -7.68,-3.43 -7.68,-7.67 0,-4.24 3.44,-7.67 7.68,-7.67 l 8.42,0 z"
   id="path188"
   style="fill:#ffffff;stroke:#4c474c;stroke-width:0.85039997;stroke-linecap:round;stroke-linejoin:round;stroke-miterlimit:10" /><path
   stroke-miterlimit="10"
   d="m 192.46477,40.48729 c 0,0 -5.77,-25.46 27.07,-21.82 21.91,2.43 25.86,0.52 32.42,-0.27 5.89,-0.71 12.88,-0.41 18.57,-0.17 16.72,0.69 12.21,22.27 12.21,22.27 0,0 -8.13,1.04 -10.33,-5 -1.46,-4.03 0.93,-8.62 -16.56,-6.18 -5.31,0.74 -10.27,-0.08 -20.16,0 -8.42,0.07 -6.23,0 -13.81,0.51 -7.18,0.48 -14.12,-3.84 -17.64,5.24 -2.77,7.11 -11.77,5.42 -11.77,5.42 z"
   id="path190"
   style="fill:#ffffff;stroke:#4c474c;stroke-width:0.85039997;stroke-linecap:round;stroke-linejoin:round;stroke-miterlimit:10" /><g
   transform="translate(96.92062,-527.21729)"
   id="g192">
		
			<path
   stroke-miterlimit="10"
   d="m 348.15,560.65 c 0,0 3.22,17.65 -22.74,14.74 -23.88,-2.68 -27.48,-1.54 -32.3,-0.88 -4.82,0.66 -21.9,8.06 -30.6,2.04 -4.45,-3.08 -4.76,-10.84 -4.76,-10.84 l 10.98,-5.67 c 0,0 3.3,5.7 6.86,7.02 3.56,1.32 18.03,-2.85 23.87,-2.85 5.84,0 24.12,1.54 29.2,1.32 5.08,-0.22 9.65,0.22 10.92,-5.48 1.27,-5.7 4.31,-5.7 4.31,-5.7 l 4.26,6.3 z"
   id="path194"
   style="fill:#ffffff;stroke:#4c474c;stroke-width:0.85039997;stroke-linecap:round;stroke-linejoin:round;stroke-miterlimit:10" />
		
			<path
   stroke-miterlimit="10"
   d="m 322.13,559.08 c 0,8.25 7.85,14.93 17.52,14.93 l 19.2,0 c 9.68,0 17.52,-6.69 17.52,-14.93 0,-8.24 -7.85,-14.93 -17.52,-14.93 l -19.2,0 c -9.67,0 -17.52,6.69 -17.52,14.93 z m 31.34,-6.63 c 4.25,0 7.69,2.97 7.69,6.64 0,3.67 -3.44,6.64 -7.69,6.64 l -8.43,0 c -4.25,0 -7.69,-2.97 -7.69,-6.64 0,-3.67 3.44,-6.64 7.69,-6.64 l 8.43,0 z"
   id="path196"
   style="fill:#ffffff;stroke:#4c474c;stroke-width:0.85039997;stroke-linecap:round;stroke-linejoin:round;stroke-miterlimit:10" />
		
			<path
   stroke-miterlimit="10"
   d="m 230.62,559.08 c 0,8.25 7.85,14.93 17.52,14.93 l 19.2,0 c 9.68,0 17.52,-6.69 17.52,-14.93 0,-8.24 -7.85,-14.93 -17.52,-14.93 l -19.2,0 c -9.68,0 -17.52,6.69 -17.52,14.93 z m 31.34,-6.63 c 4.25,0 7.69,2.97 7.69,6.64 0,3.67 -3.44,6.64 -7.69,6.64 l -8.43,0 c -4.25,0 -7.69,-2.97 -7.69,-6.64 0,-3.67 3.45,-6.64 7.69,-6.64 l 8.43,0 z"
   id="path198"
   style="fill:#ffffff;stroke:#4c474c;stroke-width:0.85039997;stroke-linecap:round;stroke-linejoin:round;stroke-miterlimit:10" />
		
			<path
   stroke-miterlimit="10"
   d="m 257.74,565.72 c 0,0 -5.78,-22.03 27.12,-18.88 21.96,2.1 25.91,0.45 32.48,-0.23 5.9,-0.61 12.91,-0.35 18.61,-0.15 16.76,0.6 12.23,19.26 12.23,19.26 0,0 -8.15,0.9 -10.35,-4.32 -1.47,-3.49 -0.13,-10.95 -16.6,-5.35 -4.38,1.49 -6.41,3.04 -16.32,3.11 -8.43,0.06 -13.16,-0.72 -17.72,-2.67 -6.46,-2.76 -14.15,-3.32 -17.68,4.53 -2.76,6.16 -11.77,4.7 -11.77,4.7 z"
   id="path200"
   style="fill:#ffffff;stroke:#4c474c;stroke-width:0.85039997;stroke-linecap:round;stroke-linejoin:round;stroke-miterlimit:10" />
	</g><g
   transform="translate(263.71075,-585.75689)"
   id="g212">
		
			<path
   stroke-miterlimit="10"
   d="m 260.42,636.36 c 0,0 1.98,4.89 10.2,4.89 8.22,0 25.46,0 25.46,0 l -0.01,-12.75 -23.52,0 -12.13,7.86 z"
   id="path214"
   style="fill:#ffffff;stroke:#4c474c;stroke-width:0.85039997;stroke-linecap:round;stroke-linejoin:round;stroke-miterlimit:10" />
		
			<ellipse
   stroke-miterlimit="10"
   cx="296.07999"
   cy="634.87"
   rx="4.96"
   ry="6.3800001"
   id="ellipse216"
   style="fill:#605f65;stroke:#4c474c;stroke-width:0.85039997;stroke-linecap:round;stroke-linejoin:round;stroke-miterlimit:10" />
		
			<path
   stroke-miterlimit="10"
   d="m 332.6,628.5 -23.52,0 0,0 -0.01,0 c -2.74,0 -4.96,2.85 -4.96,6.38 0,3.52 2.22,6.38 4.96,6.38 0,0 17.25,0 25.46,0 8.22,0 10.2,-4.89 10.2,-4.89 L 332.6,628.5 Z"
   id="path218"
   style="fill:#ffffff;stroke:#4c474c;stroke-width:0.85039997;stroke-linecap:round;stroke-linejoin:round;stroke-miterlimit:10" />
		
			<path
   stroke-miterlimit="10"
   d="m 231.56,619.54 c 0,9.29 7.63,16.82 17.04,16.82 l 18.67,0 c 9.41,0 17.04,-7.53 17.04,-16.82 0,-9.29 -7.63,-16.82 -17.04,-16.82 l -18.67,0 c -9.41,0 -17.04,7.53 -17.04,16.82 z m 30.47,-7.48 c 4.13,0 7.48,3.35 7.48,7.48 0,4.13 -3.35,7.47 -7.48,7.47 l -8.2,0 c -4.13,0 -7.48,-3.34 -7.48,-7.47 0,-4.13 3.35,-7.48 7.48,-7.48 l 8.2,0 z"
   id="path220"
   style="fill:#ffffff;stroke:#4c474c;stroke-width:0.85039997;stroke-linecap:round;stroke-linejoin:round;stroke-miterlimit:10" />
		
			<path
   stroke-miterlimit="10"
   d="m 322.68,619.54 c 0,9.29 7.63,16.82 17.04,16.82 l 18.67,0 c 9.41,0 17.04,-7.53 17.04,-16.82 0,-9.29 -7.63,-16.82 -17.04,-16.82 l -18.67,0 c -9.41,0 -17.04,7.53 -17.04,16.82 z m 30.48,-7.48 c 4.13,0 7.48,3.35 7.48,7.48 0,4.13 -3.35,7.47 -7.48,7.47 l -8.2,0 c -4.13,0 -7.48,-3.34 -7.48,-7.47 0,-4.13 3.35,-7.48 7.48,-7.48 l 8.2,0 z"
   id="path222"
   style="fill:#ffffff;stroke:#4c474c;stroke-width:0.85039997;stroke-linecap:round;stroke-linejoin:round;stroke-miterlimit:10" />
		
			<path
   stroke-miterlimit="10"
   d="m 338.21,606.82 c -5.12,-2.95 -13.75,-2.41 -13.75,-2.41 l -21.18,0.24 -21.18,-0.24 c 0,0 -8.62,-0.54 -13.74,2.41 -14.24,8.2 -10.42,20.19 -10.42,20.19 8.86,0.64 9.78,-2.34 11.11,-5.24 1.33,-2.89 3.27,-6.73 6.39,-6.73 2.41,0 11.33,0 11.33,0 0,0 8.14,0 16.51,0 8.37,0 16.51,0 16.51,0 0,0 8.92,0 11.33,0 3.12,0 5.06,3.84 6.39,6.73 1.33,2.9 2.25,5.87 11.11,5.24 0.01,0 3.83,-12 -10.41,-20.19 z"
   id="path224"
   style="fill:#ffffff;stroke:#4c474c;stroke-width:0.85039997;stroke-linecap:round;stroke-linejoin:round;stroke-miterlimit:10" />
	</g>
</svg>