<svg xmlns="http://www.w3.org/2000/svg" width="706.2" height="946.9" viewBox="0 0 706.20001 946.90002"><path fill="#eaf5f7" d="M0 0h706.2v947H0z"/><path fill="#fff" d="M56.6 214h366v678h-366zM382.6 70.7c0-6.5-4.8-12-11-12H105c-6.2 0-11.4 5.5-11.4 12v47.8c0 6.5 5 12.4 11.3 12.4h266.7c6 0 11-6 11-12.5V70.7z"/><path fill="#48b9b2" d="M218 214H423.6l-37-94H95l-37 94"/><path opacity=".5" fill="#48b9b2" d="M56.6 700.4l366-119.5V342l-366 119.6"/><path stroke-miterlimit="10" fill="#fff" stroke="#000" stroke-width=".8" d="M92 238h295v571.2H92z"/><path stroke-miterlimit="10" fill="none" stroke="#000" stroke-width="1.9" d="M92 271.3h295"/><path stroke-miterlimit="10" fill="none" stroke="#000" stroke-width=".8" d="M95.2 293.8h288.4"/><path stroke-miterlimit="10" fill="none" stroke="#000" stroke-width="1.9" d="M92 309.8h295"/><path stroke-miterlimit="10" fill="none" stroke="#000" stroke-width=".8" d="M95.2 325.8h288.4"/><path stroke-miterlimit="10" fill="none" stroke="#000" stroke-width="1.9" d="M92 340.7h295"/><path stroke-miterlimit="10" fill="none" stroke="#000" stroke-width=".8" d="M95.2 358h288.4M95.2 374h288.4M95.2 390h288.4M95.2 406h288.4M95.2 422h288.4M95.2 438h288.4M95.2 454h288.4M95.2 470h288.4M95.2 487.4h288.4M95.2 502h288.4"/><path stroke-miterlimit="10" fill="none" stroke="#000" stroke-width="1.9" d="M92 519.5h295"/><path stroke-miterlimit="10" fill="none" stroke="#000" stroke-width=".8" d="M95.2 534h288.4M95.2 550.2h288.4"/><path stroke-miterlimit="10" fill="none" stroke="#000" stroke-width="1.9" d="M92 595h295M92 717.7h295"/><path d="M116.8 798.3v-9h3.5c1.6 0 2 1.2 2 2.5 0 .8 0 1.6-.7 2.2-.5.4-1.2.6-2 .5h-1v3.8h-1.8zm1.7-5h1c.6 0 1-.4 1-1.5 0-1-.3-1.2-1.3-1.2h-.8v2.6zM126.4 797.3c-.3.8-.7 1.2-1.5 1.2-1.3 0-1.6-.6-1.6-1.8v-5.2h1.6v4.7c0 .3 0 .6.2 1h.5c.7 0 .7-.7.7-1.3v-4.5h1.6v6.8h-1.5v-1zM129.4 793.8c0-1.6.8-2.5 2.3-2.5 2.2 0 2.4 1 2.4 3v1h-3v1c0 .8.4 1 .8 1 .6 0 .8-.4.7-1.3h1.6c.2 1.5-.5 2.5-2 2.5-2 0-2.7-1-2.6-3V794zm3 .2v-.6c0-.7 0-1-.7-1-.8 0-.8.7-.8 1.3v.3h1.5zM138.5 797.6c-.3.7-.8 1-1.4 1-1.2 0-1.5-1.3-1.5-2.4v-2.5c0-2 .6-2.4 1.6-2.4.8 0 1.2.2 1.5 1v-3h1.6v9h-1.5v-.7zm0-3.6c0-.5 0-1.5-.7-1.5s-.7.6-.7 1.3v2.3c0 .8.3 1.3.8 1.3s.8-.4.8-1.2v-2zM141.5 793.8c0-1.6.8-2.5 2.3-2.5 2.2 0 2.4 1 2.4 3v1h-3v1c0 .8.3 1 .7 1 .5 0 .7-.4.6-1.3h1.6c0 1.5-.6 2.5-2.2 2.5-1.8 0-2.6-1-2.5-3V794zm3 .2v-.6c0-.7 0-1-.7-1-.8 0-.8.7-.8 1.3v.3h1.6zM153.2 794v-1c0-.3-.2-.5-.5-.5-.6 0-.6.7-.6 1.5v1.6c0 1.3.2 1.6.7 1.6.5 0 .5-.5.5-1v-.6h1.6v.6c0 1.4-.6 2.2-2.2 2.2-1.4 0-2.2-.7-2-2.6v-2.2c0-2 .8-2.4 2-2.4 1.6 0 2.2 1 2.2 2v.5h-1.6zM156 795c0-2.2 0-3.7 2.3-3.7s2.3 1.5 2.4 3.8c0 2.5-.3 3.5-2.4 3.5-2 0-2.4-1-2.4-3.4zm1.5 1c0 1 0 1.3.8 1.3.7 0 .8-.4.8-1.2V794c0-.6 0-1.3-.7-1.3-.8 0-.8.7-.8 1.3v2.3zM163.7 792.2c.4-.8 1-1 1.4-1 1 0 1.7.6 1.7 1.8v5.3H165v-4.5c0-.7 0-1-.6-1s-.8.4-.8 1.2v4.4H162v-6.8h1.6v.6zM170.5 798.3c-1 0-2.2.2-2.2-1v-4.7h-.7v-1h.6v-2h1.6v2h.7v1h-.7v4.2c0 .3.5.3.7.2v1.3zM171.4 793.8c0-1.6.8-2.5 2.3-2.5 2.2 0 2.4 1 2.4 3v1h-3v1c0 .8.4 1 .8 1 .6 0 .8-.4.7-1.3h1.6c.2 1.5-.5 2.5-2 2.5-2 0-2.7-1-2.6-3V794zm3.2.2v-.6c0-.7-.2-1-.8-1-.8 0-.8.7-.8 1.3v.3h1.6zM179 792.2c.5-.8 1.2-1 1.5-1 1 0 1.6.6 1.6 1.8v5.3h-1.4v-4.5c0-.7 0-1-.7-1s-1 .4-1 1.2v4.4h-1.4v-6.8h1.6v.6zM183.5 793.8c0-1.6.8-2.5 2.3-2.5 2.2 0 2.4 1 2.4 3v1h-3v1c0 .8.3 1 .7 1 .5 0 .7-.4.6-1.3h1.6c0 1.5-.6 2.5-2.2 2.5-1.8 0-2.6-1-2.5-3V794zm3.2.2v-.6c0-.7-.2-1-.8-1-1 0-1 .7-1 1.3v.3h1.7zM191.2 792.7l.6-1c.4-.4.8-.4 1-.4v2c-1-.2-1.5 0-1.6 1v4h-1.6v-7h1.5v1.4zM199 798.3c-1 0-2.2.2-2.2-1v-4.7h-.6v-1h.6v-2h1.6v2h.7v1h-.6v4.2c0 .3.5.3.7.2v1.3zM201.6 792.7l.6-1c.4-.4.8-.4 1-.4v2c-1-.2-1.5 0-1.6 1v4H200v-7h1.5v1.4zM207.2 798.3v-.7l-.7.7-.8.2c-1.3 0-1.8-.6-1.8-2 0-1.6 1-2 2.2-2.4.7-.2 1-.5.8-1 0-.3-.3-.4-.7-.4-.7 0-.8.4-.8 1H204c0-1.3.4-2.2 2.4-2.2s2.3 1 2.3 2v5h-1.5zm-.2-3.6c-.4.3-1 .5-1.3 1-.2 0-.3.4-.3.7 0 .5.2 1 .7 1 1 0 1-1.3 1-2v-.7zM211.4 797h2.5v1.3h-4.3V797l2.4-4.3H210v-1.2h4v1l-2.4 4.6zM218 798.3v-.7l-.7.7-.8.2c-1.3 0-1.8-.6-1.8-2 0-1.6 1-2 2.3-2.4.7-.2 1-.5.8-1 0-.3-.3-.4-.7-.4-.6 0-.7.4-.7 1h-1.5c0-1.3.4-2.2 2.4-2.2s2.3 1 2.3 2v5H218zm-.3-3.6c-.4.3-1 .5-1.3 1-.2 0-.3.4-.3.7 0 .5.3 1 .8 1 1 0 .8-1.3.8-2v-.7zM222 796c0 1.4.5 1.3.8 1.3.4 0 .8-.3.7-.8 0-.4-.5-.6-.8-.8l-1-.6c-.7-.4-1.2-1-1.2-2 0-1.2.8-1.8 2.3-1.8 1.5 0 2.2.8 2.2 2.3h-1.6c0-.8-.2-1-.7-1-.4 0-.7 0-.7.5 0 .4.3.6.6.8l1.3 1c.3 0 1 .8 1 1.2 0 1.2-.2 2.4-2.3 2.4-.8 0-2.4-.4-2.2-2.4h1.6zM232.2 797.6c-.3.7-.8 1-1.4 1-1.3 0-1.6-1.3-1.6-2.4v-2.5c0-2 .6-2.4 1.6-2.4.7 0 1 .2 1.4 1v-3h1.6v9h-1.6v-.7zm0-3.6c0-.5 0-1.5-.7-1.5s-.7.6-.7 1.3v2.3c0 .8.2 1.3.7 1.3.5 0 .8-.4.8-1.2v-2zM235.3 793.8c0-1.6.8-2.5 2.3-2.5 2.2 0 2.4 1 2.4 3v1h-3v1c0 .8.3 1 .7 1 .6 0 .8-.4.7-1.3h1.6c0 1.5-.6 2.5-2.2 2.5-1.8 0-2.6-1-2.5-3V794zm3 .2v-.6c0-.7 0-1-.7-1-.8 0-.8.7-.8 1.3v.3h1.6z"/><path stroke-miterlimit="10" fill="none" stroke="#000" stroke-width="1.9" d="M92 762.7h295"/><g><path d="M132 262.2v-17h3.3v17H132zM141 250.8c.8-1.5 2-1.6 2.8-1.6 1.7 0 3 1 3 3.3v9.8h-3v-8.5c0-1.2 0-2-1.2-2-1 0-1.5 1-1.4 2.2v8.2h-3v-12.7h3v1.3zM148.6 251.6v-2h1V248c0-2.3 1-3 3.2-3h1v2.4h-.6c-.4 0-.6 0-.6.4v1.5h1.3v2h-1.4v10.7h-3v-10.6h-1zM155.6 256.3c0-4.4 0-7.2 4.5-7.2s4.5 3 4.5 7.3c0 4.4-.6 6.3-4.4 6.3-3.8 0-4.4-2-4.4-6.3zm3 1.8c0 1.7 0 2.3 1.5 2.3s1.6-.7 1.6-2.2v-4c0-1.3 0-2.5-1.5-2.5s-1.5 1.2-1.5 2.4v4zM170 251.7c.3-1 .7-1.4 1-1.8 1-.8 1.5-.8 2-.8v3.5c-1.7-.2-3 .2-3 2v7.5h-3v-12.7h3v2.2zM177.6 250.8c.7-1.4 2-1.6 2.8-1.6 1 0 2.5.5 2.7 1.6.7-1 1.6-1.6 3-1.6 2.2 0 3 1.4 3 2.7v10.3h-2.8v-8.6c0-1.2 0-2.3-1.4-2.2-1.3 0-1.5 1-1.5 2.4v8.3h-3v-8.8c0-1 0-2-1.3-2-1.4 0-1.4 1-1.4 2.3v8.4h-3v-12.7h3v1.3zM198 262.2c-.3-.4-.3-1-.3-1.3-.3.4-.7.8-1.2 1-.4.4-1 .5-1.4.5-2.3 0-3.3-1.2-3.3-3.8 0-3 2-3.6 4.4-4.6 1.3-.4 1.8-1 1.5-2 0-.6-.6-.7-1.4-.7-1.2 0-1.5.7-1.4 2h-2.8c0-2.5.8-4.2 4.4-4.2 4 0 4.2 2.2 4.2 4v7.4c0 .6 0 1.2.2 1.8H198zm-.5-6.7L195 257c-.3.5-.4 1-.4 1.6 0 1 .3 1.6 1.4 1.6 1.7 0 1.4-2.2 1.5-3.4v-1.3zM208.2 254v-1.5c0-.7-.4-1-1-1-1 0-1 1.2-1 2.7v3c-.2 2.5 0 3 1 3s1-1 1-2v-1h3v1c0 2.8-1.2 4.2-4 4.2-2.7 0-4.2-1.4-4-4.8v-4c0-3.7 1.6-4.6 4-4.6 3 0 4 2 4 3.7v1h-3zM213.8 248V245h3v2.7h-3zm0 14.2v-12.7h3v12.7h-3zM219.6 256.3c0-4.4 0-7.2 4.5-7.2s4.5 3 4.5 7.3c0 4.4-.6 6.3-4.4 6.3-3.8 0-4.4-2-4.4-6.3zm4.7-11.6h3.5l-3.3 3.3h-2.3l2-3.3zm-1.8 13.4c0 1.7 0 2.3 1.6 2.3 1.5 0 1.6-.7 1.6-2.2v-4c0-1.3 0-2.5-1.5-2.5s-1.5 1.2-1.5 2.4v4zM234 250.8c.7-1.5 2-1.6 2.7-1.6 1.7 0 3 1 3 3.3v9.8h-3v-8.5c0-1.2 0-2-1.2-2-1 0-1.5 1-1.4 2.2v8.2h-2.8v-12.7h3v1.3zM255.7 245.3h3.2v17h-3.4l-2.5-6-2.2-6.8.3 4.8.3 4.7v3.2H248v-17h3.4l2.5 6.3 2.2 6.7-.3-4.8-.3-4.8v-3.3zM267.3 260.3c-.5 1.5-1.4 2.2-2.8 2.2-2.3 0-2.8-1.2-2.8-3.3v-9.8h3v8.7c0 .7 0 1.3.2 1.8 0 .3.4.4.8.4 1.4 0 1.4-1.6 1.4-2.6v-8.3h3V262h-3v-1.7zM277.4 262.3c-1.7.2-4.2.4-4.2-2v-8.6H272v-2h1.2V246h3v3.6h1.2v2h-1.2v8c0 .5 1 .5 1.2.4v2.3zM282.2 251.7c.4-1 .8-1.4 1.2-1.8.8-.8 1.4-.8 1.8-.8v3.5c-1.6-.2-3 .2-3 2v7.5h-2.8v-12.7h2.8v2.2zM287.2 248V245h3v2.7h-3zm0 14.2v-12.7h3v12.7h-3zM298 254v-1.5c0-.7-.4-1-1-1-1 0-1 1.2-1 2.7v3c-.2 2.5 0 3 1 3s1-1 1-2v-1h3v1c0 2.8-1.2 4.2-4 4.2-2.7 0-4.2-1.4-4-4.8v-4c0-3.7 1.6-4.6 4-4.6 3 0 4 2 4 3.7v1h-3zM303.5 248V245h3v2.7h-3zm0 14.2v-12.7h3v12.7h-3zM309.3 256.3c0-4.4 0-7.2 4.5-7.2 4.4 0 4.4 3 4.4 7.3 0 4.4-.6 6.3-4.4 6.3-4 0-4.5-2-4.5-6.3zm3 1.8c0 1.7 0 2.3 1.5 2.3 1.4 0 1.5-.7 1.5-2.2v-4c0-1.3 0-2.5-1.5-2.5-1.6 0-1.6 1.2-1.6 2.4v4zM323.7 250.8c.7-1.5 2-1.6 2.7-1.6 1.7 0 3 1 3 3.3v9.8h-3v-8.5c0-1.2 0-2-1.2-2-1 0-1.5 1-1.4 2.2v8.2h-3v-12.7h3v1.3zM337.8 262.2c-.2-.4-.2-1-.2-1.3-.3.4-.7.8-1.2 1-.4.4-1 .5-1.4.5-2.4 0-3.4-1.2-3.4-3.8 0-3 2-3.6 4.4-4.6 1.2-.4 1.7-1 1.4-2 0-.6-.6-.7-1.4-.7-1.3 0-1.6.7-1.5 2h-2.8c0-2.5.8-4.2 4.4-4.2 4 0 4.3 2.2 4.3 4v7.4c0 .6 0 1.2.2 1.8h-2.7zm-.4-6.7L335 257c-.4.5-.5 1-.5 1.6 0 1 .3 1.6 1.4 1.6 1.6 0 1.3-2.2 1.4-3.4v-1.3zM343.6 262.2v-17h3v17h-3z"/></g><g><path d="M504 474.4h-3.7l-.6 2.3h-2l3-11h3l3 11h-2l-.7-2.3zm-3.2-1.8h2.8l-1.4-5-1.4 5zM507.7 465.7h2v9.2h3.8v1.7h-6v-11zM515 465.7h6v1.8h-4.2v2.6h4v2h-4v3h4.2v1.7h-6v-11zm3-3.6h2l-1.3 2.6h-1.3l.6-2.5zM530.4 469c0 2-.8 3-2.3 3.4l2.5 4.3h-2l-2.4-4H525v4h-2v-11h3.5c2.7 0 4 .8 4 3.4zm-5.6-1.6v3.4h1.5c1.5 0 2-.3 2-1.7 0-1.2-.5-1.6-2-1.6H525zM536 476.8c-3.3 0-4.3-2-4.3-5.7 0-3.6 1-5.6 4.3-5.6 1 0 2 .3 2.6.6l-.8 1.6c-.3-.2-1-.4-1.8-.4-1.7 0-2.3 1-2.3 4 0 2.7.6 3.8 2.3 3.8.6 0 1 0 1.4-.3v-2.3h-1.6v-1.8h3.5v5c-.5.6-2 1.2-3.3 1.2zM541.2 465.7h6v1.8h-4v2.6h4v2h-4v3h4v1.7h-6v-11zM549 476.6v-11h2l3.8 7.2v-7.2h2v11h-2l-3.8-7.2v7.2h-2zM562.7 465.5c3.3 0 4.3 2 4.3 5.7 0 3.6-1 5.7-4.3 5.7s-4.3-2.2-4.3-5.8c0-3.6 1-5.7 4.3-5.7zm0 9.6c1.8 0 2.3-1.2 2.3-3.8 0-2.6-.5-4-2.3-4-1.8 0-2.3 1.4-2.3 4s.5 4 2.3 4zM568.8 474.3s1.2.8 2.3.8c1.4 0 2-.6 2-1.3 0-.8-1-1.4-2-2-2-1-2.8-2-2.8-3.4s1-2.8 3.4-2.8c1.6 0 2.5.4 3 .7l-.7 1.6s-1.2-.6-2-.6c-1.3 0-1.7.6-1.7 1 0 .8.8 1.4 2 2 2 1.3 2.8 2.3 2.8 3.5 0 1.8-1.4 3-4 3-1.2 0-2.4-.4-3-1l.8-1.4zM503.8 489.6h-4l-1 2.7h-1l3.2-11h1.6l3.2 11h-1l-1-2.7zm-4-1h3.7l-1.8-6.2-1.8 6.2zM511 495h-1v-10.6h1v.7c.2 0 1-.7 2-.7 1.6 0 3 1 3 4s-1.3 4-3 4c-.8 0-1.4-.4-1.8-.7v3.5zm1.8-9.8c-1 0-1.5.6-1.7 1v4.4c.4.5 1 1 1.8 1 1.7 0 2-1.4 2-3.3 0-1.8-.4-3-2-3zM520.5 487.7h1v-1c0-1-.4-1.5-1.4-1.5-1 0-2 .5-2 .5l-.3-.8s1-.6 2.4-.6c2 0 2.5 1 2.5 2.4v5.6h-.8v-.6c-.6.3-1.2.7-2.3.7-1.5 0-2.3-1-2.3-2.3.2-1.3 1-2.5 3.5-2.5zm1 3.2v-2.5h-1c-1.5 0-2.3.7-2.3 1.6 0 1 .6 1.5 1.4 1.5 1 0 1.6-.3 2-.6zM528 485.4h-.6c-1 0-1.6.6-1.8.8v6h-1v-7.7h.8l.2.8c.5-.5 1-1 2-1h.5v1zM530.5 484.5h1.8v1h-1.8v4c0 1.4.4 2 1.4 2h.6l.2.7-1 .2c-1.4 0-2.3-1-2.3-2.8v-4.2h-1v-1h1v-2h1v2zM534.7 481.5c.4 0 .8.4.8.8s-.4.8-.8.8-.8-.3-.8-.7c0-.4.3-.8.7-.8zm-.5 3h1v7.8h-1v-7.8zM540.7 485.4h-.5c-1 0-1.6.6-1.8.8v6h-1v-7.7h.8l.2.8c.5-.5 1-1 2-1h.5l-.3 1zM549.5 481.3h1v11h-.8l-.2-.7c-.3.4-1 .8-2 .8-1.6 0-3-1-3-4s1.4-4 3-4c1 0 1.7.5 2 .7v-3.7zm-1.7 10.3c.7 0 1.4-.4 1.7-1v-4.3c-.2-.4-.8-1-1.7-1-1.6 0-2 1.3-2 3.2 0 1.8.4 3 2 3zM553.3 488.6c0 1.8.5 3 2 3 1.3 0 2-.6 2-.6l.4.8s-1 .6-2.3.6c-1.8 0-3-1-3-4s1.2-4 3-4c2 0 2.7 1.6 2.7 4.3h-4.7zm0-.8h3.7c0-1.8-.6-2.6-1.8-2.6-1.4 0-1.8 1-2 2.6zM565.7 487.7h1v-1c0-1-.4-1.5-1.4-1.5-1 0-2 .5-2 .5l-.4-.8s1-.6 2.3-.6c1.8 0 2.4 1 2.4 2.4v5.6h-.8l-.2-.6c-.5.3-1 .7-2.2.7-1.5 0-2.3-1-2.3-2.3 0-1.3 1-2.5 3.4-2.5zm1 3.2v-2.5h-1c-1.5 0-2.3.7-2.3 1.6 0 1 .6 1.5 1.4 1.5.8 0 1.6-.3 2-.6zM574.4 487c0-1.4-.5-1.7-1.5-1.7s-2 .7-2.3 1v6h-1v-11h1v4c.6-.6 1.5-1 2.4-1 2 0 2.4 1 2.4 2.6v5.3h-1V487zM577 488.4c0-3 1.3-4 3-4 2 0 3.2 1 3.2 4s-1.3 4-3 4c-2 0-3.2-1-3.2-4zm5.2 0c0-2-.4-3-2-3-1.8 0-2.2 1-2.2 3s.4 3.2 2 3.2c1.8 0 2.2-1.3 2.2-3.2zM588.2 485.4h-.5c-1 0-1.6.6-1.8.8v6h-1v-7.7h.7l.2.8c.4-.5 1-1 2-1h.4l-.2 1zM592.4 487.7h1v-1c0-1-.4-1.5-1.4-1.5-1 0-2 .5-2 .5l-.4-.8s1-.6 2.4-.6c1.8 0 2.4 1 2.4 2.4v5.6h-.8v-.6c-.6.3-1.2.7-2.3.7-1.5 0-2.3-1-2.3-2.3 0-1.3 1-2.5 3.4-2.5zm1 3.2v-2.5h-1c-1.5 0-2.3.7-2.3 1.6 0 1 .7 1.5 1.5 1.5 1 0 1.6-.3 2-.6zM604 481.3h1v11h-.8l-.2-.7c-.3.4-1 .8-2 .8-1.6 0-3-1-3-4s1.4-4 3-4c1 0 1.7.5 2 .7v-3.7zm-1.7 10.3c.7 0 1.4-.4 1.7-1v-4.3c-.2-.4-.8-1-1.7-1-1.6 0-2 1.3-2 3.2 0 1.8.3 3 2 3zM607.8 488.6c0 1.8.5 3 2 3 1.3 0 2-.6 2-.6l.4.8s-1 .6-2.3.6c-2 0-3.2-1-3.2-4s1.3-4 3-4c2.2 0 2.8 1.6 2.8 4.3h-4.8zm0-.8h3.7c0-1.8-.6-2.6-1.8-2.6-1.4 0-2 1-2 2.6zM615.2 485c.2 0 1-.6 2-.6 1.5 0 3 1 3 4s-1.4 4-3 4c-1 0-1.6-.4-2-.8l-.2.7h-.8v-11h1v3.8zm1.6.2c-1 0-1.5.6-1.7 1v4.4c.4.5 1 1 1.8 1 1.7 0 2-1.4 2-3.3.2-1.8-.3-3-2-3zM622.4 488.6c0 1.8.5 3 2 3 1.3 0 2-.6 2-.6l.4.8s-1 .6-2.3.6c-1.8 0-3-1-3-4s1.2-4 3-4c2 0 2.7 1.6 2.7 4.3h-4.8zm0-.8h3.7c0-1.8-.5-2.6-1.7-2.6-1.4 0-1.8 1-2 2.6zM632 485.4h-.4c-1 0-1.6.6-1.8.8v6h-1v-7.7h.8l.2.8c.5-.5 1-1 2-1h.5l-.2 1zM636.3 487.7h1v-1c0-1-.4-1.5-1.4-1.5-1.2 0-2.2.5-2.2.5l-.3-.8s1-.6 2.4-.6c1.7 0 2.3 1 2.3 2.4v5.6h-.8v-.6c-.6.3-1.2.7-2.3.7-1.5 0-2.3-1-2.3-2.3 0-1.3 1-2.5 3.3-2.5zm1 3.2v-2.5h-1c-1.5 0-2.3.7-2.3 1.6 0 1 .6 1.5 1.4 1.5 1 0 1.6-.3 2-.6zm-1-10h1.5l-1.4 2.5h-.7l.7-2.6zM645 487c0-1.4-.5-1.7-1.5-1.7s-2 .7-2.2 1v6h-1v-7.8h.8l.3.8c.6-.5 1.6-1 2.5-1 1.7 0 2.3 1 2.3 2.7v5.4h-1V487zM499.2 504.3c0 1.8.5 3 2 3 1.3 0 2-.6 2-.6l.4.8s-1 .6-2.3.6c-1.8 0-3-1-3-4s1.2-4 3-4c2 0 2.7 1.7 2.7 4.4h-4.8zm0-.8h3.7c-.2-1.8-.7-2.6-2-2.6s-1.7 1-1.8 2.5zM507.2 508c-1.3 0-2.2-.6-2.2-.6l.5-.8s.8.6 1.7.6c1 0 1.5-.7 1.5-1.3 0-.5-.4-1-1.5-1.6-1.4-.8-2-1.5-2-2.3 0-1.2 1-2 2.3-2 1.2 0 2 .7 2 .7l-.3.8s-1-.5-1.6-.5c-.7 0-1.3.4-1.3 1 0 .7.7 1.2 1.5 1.7 1.3.8 2 1.4 2 2.3 0 1.2-1 2-2.6 2zM512.6 500.2h1.8v1h-1.8v4c0 1.4.4 2 1.4 2h.7l.2.7h-1c-1.5 0-2.4-.8-2.4-2.7V501h-1v-.8h1v-2h1v2zM519 503.4h1v-1c0-1-.3-1.5-1.3-1.5s-2 .4-2 .4l-.4-.8s1-.5 2.4-.5c1.8 0 2.4 1 2.4 2.5v5.6h-.7v-.5c-.6.3-1.2.7-2.3.7-1.5 0-2.3-1-2.3-2.3 0-1.4 1-2.6 3.4-2.6zm1 3.2v-2.4h-1c-1.4 0-2.2.7-2.2 1.6 0 .8.6 1.4 1.4 1.4 1 0 1.6-.3 2-.6zM526.4 501h-.5c-1.2 0-1.7.6-2 .8v6h-1v-7.7h1v1c.6-.6 1.2-1 2-1h.6l-.2 1zM531.8 500.8c.2-.2 1-.7 2-.7 1.5 0 3 1 3 4s-1.4 4-3 4c-1 0-1.6-.3-2-.7l-.2.7h-.8v-11h1v3.8zm1.7 0c-1 0-1.5.7-1.7 1v4.5c.3.5 1 1 1.7 1 1.7 0 2-1.4 2-3.3 0-1.8-.4-3-2-3zM539 497.2c.4 0 .8.4.8.8s-.4.8-.8.8-.8-.4-.8-.8c0-.5.3-.8.8-.8zm-.6 3h1v7.8h-1v-7.8zM542.3 504.3c0 1.8.5 3 2 3 1.3 0 2-.6 2-.6l.4.8s-1 .6-2.3.6c-1.8 0-3-1-3-4s1.2-4 3-4c2 0 2.7 1.7 2.7 4.4h-4.7zm0-.8h3.7c0-1.8-.6-2.6-1.8-2.6-1.3 0-1.8 1-2 2.5zM553.4 502.6c0-1.3-.5-1.6-1.5-1.6s-2 .7-2.3 1v6h-1v-7.8h.8l.2.8c.6-.5 1.6-1 2.5-1 1.7 0 2.3 1 2.3 2.7v5.4h-1v-5.4zM561.8 507l2-6.8h1.2l-2.5 7.8H561l-2.4-7.8h1l2.2 6.8zM566.8 497.2c.4 0 .8.4.8.8s-.4.8-.8.8-.8-.4-.8-.8c0-.5.4-.8.8-.8zm-.5 3h1v7.8h-1v-7.8zM571 508c-1.2 0-2-.6-2-.6l.4-.8s.8.6 1.7.6c1.2 0 1.6-.7 1.6-1.3 0-.5-.4-1-1.5-1.6-1.3-.8-2-1.5-2-2.3 0-1.2 1.2-2 2.4-2s2 .7 2 .7l-.3.8s-.8-.5-1.5-.5-1.3.4-1.3 1c0 .7.7 1.2 1.5 1.7 1.3.8 2 1.4 2 2.3 0 1.2-1 2-2.6 2zM575.8 497.2c.4 0 .8.4.8.8s-.4.8-.8.8-.8-.4-.8-.8c0-.5.4-.8.8-.8zm-.5 3h1v7.8h-1v-7.8zM579.5 500.8c.2-.2 1-.7 2-.7 1.5 0 3 1 3 4s-1.4 4-3 4c-1 0-1.6-.3-2-.7l-.2.7h-.8v-11h1v3.8zm1.7 0c-1 0-1.5.7-1.7 1v4.5c.3.5 1 1 1.7 1 1.7 0 2-1.4 2-3.3 0-1.8-.3-3-2-3zM589 508h-.6c-1.5 0-2.4-.8-2.4-2.7V497h1v8c0 1.6.4 2.2 1.4 2.2h.5v.8zM591 504.3c0 1.8.4 3 2 3 1.2 0 2-.6 2-.6l.3.8s-1 .6-2.3.6c-1.8 0-3-1-3-4s1.2-4 3-4c2 0 2.7 1.7 2.7 4.4H591zm0-.8h3.6c0-1.8-.6-2.6-1.8-2.6-1.4 0-1.8 1-2 2.5zM599 508c-1.4 0-2.3-.6-2.3-.6l.5-.8s.8.6 1.7.6c1 0 1.4-.7 1.4-1.3 0-.5-.4-1-1.5-1.6-1.5-.8-2-1.5-2-2.3 0-1.2 1-2 2.2-2 1.2 0 2 .7 2 .7l-.3.8s-1-.5-1.7-.5-1.3.4-1.3 1c0 .7.7 1.2 1.5 1.7 1.3.8 2 1.4 2 2.3 0 1.2-1 2-2.6 2zM608 508h-.4l-2.5-7.8h1.2l2 6.8 2.2-6.8h1l-2.8 9.2c-.3 1-1 1.8-2.2 1.8-.4 0-.7 0-1-.2l.2-.8h.6c1 0 1.2-.6 1.5-1.3l.3-1zM616.7 505.6c0 1.3.5 1.7 1.5 1.7s2-.7 2.2-1v-6h1v7.7h-.8l-.2-.8c-.6.5-1.6 1-2.5 1-1.8 0-2.4-1-2.4-2.7V500h1v5.6zM624.8 500.2h1.8v1h-1.8v4c0 1.4.4 2 1.4 2h.7v.7h-.8c-1.5 0-2.4-.8-2.4-2.7V501h-1v-.8h1v-2h1v2zM629 497.2c.5 0 1 .4 1 .8s-.5.8-1 .8c-.3 0-.7-.4-.7-.8 0-.5.3-.8.8-.8zm-.5 3h1v7.8h-1v-7.8zM634.8 508h-.7c-1.4 0-2.3-.8-2.3-2.7V497h1v8c0 1.6.4 2.2 1.4 2.2h.6l.2.8zM636.5 497.2c.4 0 .8.4.8.8s-.4.8-.8.8-.8-.4-.8-.8c0-.5.4-.8.8-.8zm-.5 3h1v7.8h-1v-7.8zM642.8 501H639v-.8h5v1l-4 6h3.8v.8h-5v-1l4-6zM648.4 503.4h1v-1c0-1-.4-1.5-1.4-1.5-1 0-2 .4-2 .4l-.4-.8s1-.5 2.4-.5c1.8 0 2.4 1 2.4 2.5v5.6h-.8v-.5c-.6.3-1.2.7-2.3.7-1.5 0-2.3-1-2.3-2.3 0-1.4 1-2.6 3.4-2.6zm1 3.2v-2.4h-1c-1.5 0-2.3.7-2.3 1.6 0 .8.7 1.4 1.5 1.4 1 0 1.6-.3 2-.6zM655.7 501h-.5c-1 0-1.6.6-1.8.8v6h-1v-7.7h.8l.2 1c.5-.6 1-1 2-1h.5l-.3 1zM499.5 521.3c0 1.3.5 1.7 1.5 1.7s2-.7 2.2-1v-6h1v7.7h-.8l-.2-.8c-.6.4-1.6.8-2.5.8-1.7 0-2.3-1-2.3-2.6v-5.4h1v5.5zM511 518.3c0-1.3-.5-1.6-1.5-1.6s-2 .7-2.2 1v6h-1V516h.8l.3.7c.6-.5 1.6-1 2.5-1 1.7 0 2.3 1 2.3 2.7v5.4h-1v-5.5zM517 519h1v-1c0-.8-.5-1.4-1.5-1.4s-2 .5-2 .5l-.4-.7s1-.5 2.5-.5c1.8 0 2.4 1 2.4 2.4v5.6h-1v-.6c-.5.3-1 .7-2.2.7-1.5 0-2.3-1.2-2.3-2.4 0-1.3 1-2.5 3.4-2.5zm1 3.3V520h-1.2c-1.4 0-2.2.6-2.2 1.5 0 .8.6 1.4 1.4 1.4 1 0 1.6-.4 2-.7zM525.3 515.8h1.8v1h-1.7v4c0 1.4.4 2 1.4 2h.7l.2.7-1 .2c-1.4 0-2.3-1-2.3-2.8v-4.3h-1v-1h1v-2h1v2zM529.5 513c.4 0 .8.3.8.7 0 .4-.4.8-.8.8s-.8-.4-.8-.8c0-.5.4-.8.8-.8zm-.5 2.8h1v7.8h-1v-7.8zM533.3 526.5h-1v-10.7h.8l.3.7s.8-.8 2-.8c1.5 0 3 1 3 4s-1.4 4-3 4c-1 0-1.5-.4-2-.7v3.5zm1.6-10c-1 0-1.6.7-1.8 1v4.5c.3.5 1 1 1.7 1 1.6 0 2-1.4 2-3.3 0-1.8-.4-3-2-3zM539.4 519.8c0-3 1.3-4 3-4 2 0 3.2 1 3.2 4s-1.3 4-3 4c-2 0-3.2-1-3.2-4zm5.2 0c0-2-.4-3-2-3-1.8 0-2.2 1-2.2 3s.4 3.2 2 3.2c1.8 0 2.2-1.3 2.2-3.2zM551.8 523c-.4.5-1 .8-2 .8-2 0-3-1.8-3-4 0-2 .7-4 3-4 .7 0 1.4.2 2 .8l.2-.7h.8v8c0 1.5-.7 3-2.6 3-1 0-1.7-.3-1.7-.3l.2-1s.7.3 1.5.3c1 0 1.6-.7 1.6-2v-1zm-1.7 0c1 0 1.5-.5 1.8-1v-4.4c-.2-.4-.8-1-1.7-1-1.5 0-2 1.3-2 3.2 0 2 .5 3 2 3zM558.2 516.7h-.5c-1 0-1.6.6-1.8.8v6h-1V516h.7l.2.8c.4-.5 1-1 2-1h.4l-.2 1zM562.4 519h1v-1c0-.8-.4-1.4-1.4-1.4-1 0-2 .5-2 .5l-.4-.7s1-.5 2.4-.5c1.8 0 2.4 1 2.4 2.4v5.6h-.8v-.6c-.6.3-1.2.7-2.3.7-1.5 0-2.3-1.2-2.3-2.4 0-1.3 1-2.5 3.4-2.5zm1 3.3V520h-1c-1.5 0-2.3.6-2.3 1.5 0 .8.7 1.4 1.5 1.4 1 0 1.6-.4 2-.7zM570 513.6h-.8c-1 0-1.4.6-1.4 2v.3h1.7v.8h-1.7v7h-1v-7h-1v-1h1v-.4c0-1.4.6-2.8 2.5-2.8h1l-.4 1zM571.8 512.3h1.4l-1.4 2.6h-.7l.8-2.7zm-.7 3.5h1v7.8h-1v-7.8zM577.2 519h1v-1c0-.8-.4-1.4-1.4-1.4-1 0-2 .5-2 .5l-.4-.7s1-.5 2.4-.5c1.8 0 2.4 1 2.4 2.4v5.6h-.8v-.6c-.6.3-1.2.7-2.3.7-1.4 0-2.2-1.2-2.2-2.4 0-1.3 1-2.5 3.4-2.5zm1 3.3V520h-1c-1.5 0-2.3.6-2.3 1.5 0 .8.5 1.4 1.3 1.4 1 0 1.6-.4 2-.7zM588.8 512.7h1v11h-.8l-.2-.7c-.3.4-1 .8-2 .8-1.6 0-3-1-3-4s1.4-4 3-4c1 0 1.7.5 2 .7v-3.8zM587 523c.8 0 1.5-.5 1.8-1v-4.4c-.2-.4-.8-1-1.7-1-1.5 0-2 1.3-2 3.2 0 2 .4 3 2 3zM592.5 513c.4 0 .8.3.8.7 0 .4-.4.8-.8.8s-.8-.4-.8-.8c0-.5.4-.8.8-.8zm-.5 2.8h1v7.8h-1v-7.8zM598.7 513.6h-.7c-1 0-1.4.6-1.4 2v.3h1.7v.8h-1.7v7h-1v-7h-1v-1h1v-.4c0-1.4.6-2.8 2.5-2.8h1l-.3 1zM600.5 520c0 1.8.5 3 2 3 1.3 0 2-.6 2-.6l.4.8s-1 .6-2.4.6c-1.8 0-3-1-3-4s1.2-4 3-4c2 0 2.7 1.6 2.7 4.3h-4.8zm0-.8h3.7c0-1.8-.6-2.6-1.8-2.6-1.4 0-1.8 1-2 2.6zM610 516.7h-.4c-1 0-1.6.6-1.8.8v6h-1V516h.8l.2.8c.5-.5 1-1 2-1h.5l-.2 1zM612 520c0 1.8.6 3 2.2 3 1.2 0 2-.6 2-.6l.3.8s-1 .6-2.3.6c-1.8 0-3-1-3-4s1.2-4 3-4c2 0 2.7 1.6 2.7 4.3h-5zm0-.8h3.8c0-1.8-.6-2.6-1.8-2.6-1.3 0-1.8 1-2 2.6zM623.2 518.3c0-1.3-.5-1.6-1.5-1.6s-2 .7-2.2 1v6h-1V516h.8l.2.7c.6-.5 1.6-1 2.5-1 1.7 0 2.3 1 2.3 2.7v5.4h-1v-5.5zM627.5 515.8h1.8v1h-1.8v4c0 1.4.4 2 1.4 2h.6l.2.7-1 .2c-1.4 0-2.3-1-2.3-2.8v-4.3h-1v-1h1v-2h1v2zM631.8 520c0 1.8.5 3 2 3 1.3 0 2-.6 2-.6l.4.8s-1 .6-2.3.6c-2 0-3.2-1-3.2-4s1.3-4 3-4c2.2 0 2.8 1.6 2.8 4.3h-4.8zm0-.8h3.7c0-1.8-.6-2.6-1.8-2.6-1.3 0-1.8 1-2 2.6zM639 517.2c.5 0 .8.4.8.8 0 .5-.4.8-.8.8-.5 0-.8-.4-.8-.8s.3-.8.8-.8zm0 5c.5 0 .8.3.8.7 0 .3-.4.7-.8.7-.5 0-.8-.4-.8-.8 0-.5.3-1 .8-1zM503 539c-.2.2-1 .5-1.8.5-2 0-3-1-3-4s1.2-4 3-4c.6 0 1.2.2 1.6.4l-.4.7s-.6-.3-1.3-.3c-1.6 0-2 1.2-2 3 0 2 .4 3.2 2 3.2 1 0 1.4-.3 1.4-.3l.5.8zM504.2 535.5c0-3 1.3-4 3-4 2 0 3.2 1 3.2 4s-1.3 4-3 4c-2 0-3.2-1-3.2-4zm5 0c0-2-.3-3-2-3s-2 1-2 3 .3 3.2 2 3.2c1.8 0 2-1.3 2-3.2zM515 539.4h-.6c-1.5 0-2.4-.8-2.4-2.7v-8.3h1v8c0 1.6.4 2.2 1.4 2.2h.5v.8zM515.8 535.5c0-3 1.3-4 3-4 2 0 3.2 1 3.2 4s-1.3 4-3 4c-2 0-3.2-1-3.2-4zm5.2 0c0-2-.4-3-2-3-1.8 0-2.2 1-2.2 3s.4 3.2 2 3.2c1.8 0 2.2-1.3 2.2-3.2zM527 532.4h-.5c-1 0-1.6.6-1.8.8v6h-1v-7.7h.8l.2.8c.5-.5 1-1 2-1h.5l-.2 1zM536 528.4h1v11h-1v-.7c-.4.4-1 .8-2 .8-1.7 0-3-1-3-4s1.3-4 3-4c1 0 1.6.5 2 .7v-3.8zm-1.8 10.2c.7 0 1.4-.4 1.7-1v-4.3c-.3-.4-1-1-1.8-1-1.6 0-2 1.3-2 3.2-.2 2 .3 3 2 3zM539.6 528.6c.4 0 .8.4.8.8s-.4.8-.8.8-.8-.4-.8-.8c0-.5.4-.8.8-.8zm-.5 3h1v7.7h-1v-7.8zM544 539.5c-1.4 0-2.3-.7-2.3-.7l.5-.8s.8.6 1.7.6c1 0 1.4-.7 1.4-1.3 0-.4-.4-1-1.5-1.5-1.5-.8-2-1.5-2-2.3 0-1.3 1-2 2.2-2 1.2 0 2 .6 2 .6l-.3 1s-1-.6-1.7-.6-1.3.4-1.3 1c0 .7.7 1.2 1.5 1.7 1.3 1 2 1.5 2 2.4 0 1-1 2-2.6 2zM549.3 531.5h1.8v1h-1.7v4c0 1.4.4 2 1.4 2h.7l.2.7-1 .2c-1.4 0-2.3-1-2.3-2.8v-4.2h-1v-1h1v-2h1v2zM553.5 528.6c.4 0 .8.4.8.8s-.4.8-.8.8-.8-.4-.8-.8c0-.5.4-.8.8-.8zm-.5 3h1v7.7h-1v-7.8zM561 534c0-1.4-.6-1.7-1.6-1.7s-2 .7-2.2 1v6h-1v-7.8h.8l.2.8c.6-.5 1.6-1 2.5-1 1.7 0 2.3 1 2.3 2.7v5.4h-1V534zM565.3 531.5h1.8v1h-1.7v4c0 1.4.4 2 1.4 2h.7l.2.7-1 .2c-1.4 0-2.3-1-2.3-2.8v-4.2h-1v-1h1v-2h1v2zM568.5 535.5c0-3 1.3-4 3-4 2 0 3.2 1 3.2 4s-1.3 4-3 4c-2 0-3.2-1-3.2-4zm5.2 0c0-2-.4-3-2-3-1.8 0-2.2 1-2.2 3s.4 3.2 2 3.2c1.8 0 2.2-1.3 2.2-3.2zM577 537.8c.5 0 .8.4.8.8 0 .2 0 .5-.2.6l-1 2.2h-.5l.6-1.8c-.2-.2-.5-.5-.5-1 .2-.4.6-.8 1-.8zM582.4 535.5c0-3 1.3-4 3-4 2 0 3.2 1 3.2 4s-1.3 4-3 4c-2 0-3.2-1-3.2-4zm5.2 0c0-2-.4-3-2-3-1.8 0-2.2 1-2.2 3s.4 3.2 2 3.2c1.8 0 2.2-1.3 2.2-3.2zM591.6 531.5h1.8v1h-1.8v4c0 1.4.4 2 1.4 2h.7l.2.7-1 .2c-1.5 0-2.4-1-2.4-2.8v-4.2h-1v-1h1v-2h1v2zM598.5 532.4h-.5c-1 0-1.6.6-1.8.8v6h-1v-7.7h.8l.2.8c.5-.5 1-1 2-1h.5l-.2 1zM599.4 535.5c0-3 1.3-4 3-4 2 0 3.2 1 3.2 4s-1.3 4-3 4c-2 0-3.2-1-3.2-4zm5.2 0c0-2-.4-3-2-3-1.8 0-2.2 1-2.2 3s.4 3.2 2 3.2c1.8 0 2.2-1.3 2.2-3.2zM611.8 531.5h1.8v1h-1.8v4c0 1.4.4 2 1.4 2h.7v.7l-.8.2c-1.5 0-2.4-1-2.4-2.8v-4.2h-1v-1h1v-2h1v2zM616 528.6c.4 0 .8.4.8.8s-.4.8-.8.8-.8-.4-.8-.8c0-.5.3-.8.8-.8zm-.5 3h1v7.7h-1v-7.8zM619.7 542.2h-1v-10.7h.8l.2.7s.8-.8 2-.8c1.5 0 3 1 3 4s-1.4 4-3 4c-1 0-1.5-.4-2-.7v3.5zm1.7-10c-1 0-1.5.7-1.7 1v4.5c.3.5 1 1 1.7 1 1.7 0 2-1.4 2-3.3 0-1.8-.4-3-2-3zM626 535.5c0-3 1.2-4 3-4s3 1 3 4-1.2 4-3 4-3-1-3-4zm5 0c0-2-.3-3-2-3s-2 1-2 3 .3 3.2 2 3.2 2-1.3 2-3.2zM641.3 528.4h1v11h-.8l-.2-.7c-.3.4-1 .8-2 .8-1.6 0-3-1-3-4s1.4-4 3-4c1 0 1.7.5 2 .7v-3.8zm-1.7 10.2c.7 0 1.4-.4 1.7-1v-4.3c-.2-.4-.8-1-1.7-1-1.6 0-2 1.3-2 3.2 0 2 .4 3 2 3zM645 535.7c0 1.8.6 3 2.2 3 1.2 0 2-.6 2-.6l.3 1s-1 .5-2.3.5c-1.8 0-3-1-3-4s1.2-4 3-4c2 0 2.7 1.6 2.7 4.3h-5zm0-.8h3.8c0-2-.6-2.7-1.8-2.7-1.4 0-1.8 1-2 2.6zM501.6 555c-.2.2-.4.2-.7.2-1.6 0-2.5-1-2.5-2.8V544h1v8.2c0 1.5.4 2 1.4 2h.4l.2 1zM503.3 551.4c0 1.8.5 3 2 3 1.3 0 2-.6 2-.6l.4.8s-1 .6-2.3.6c-1.8 0-3-1-3-4s1.2-4 3-4c2 0 2.7 1.6 2.7 4.3h-4.7zm0-.8h3.7c0-1.8-.6-2.6-1.8-2.6-1.3 0-1.8 1-2 2.6zM511 547.2h2v1h-2v4c0 1.4.5 2 1.5 2h.7l.2.7h-1c-1.4 0-2.3-.8-2.3-2.7V548h-.8v-.8h1v-2h1v2zM518 548h-.6c-1 0-1.6.7-1.8 1v6h-1v-7.8h.8l.2.8c.5-.5 1-1 2-1h.5v1zM522 550.4h1v-1c0-1-.3-1.5-1.3-1.5s-2 .4-2 .4l-.4-.8s1-.5 2.4-.5c1.8 0 2.4 1 2.4 2.5v5.6h-.7v-.5c-.6.3-1.2.7-2.3.7-1.5 0-2.3-1-2.3-2.3 0-1.3 1-2.6 3.4-2.6zm1 3.2v-2.4h-1c-1.4 0-2.2.7-2.2 1.6 0 .8.6 1.4 1.4 1.4 1 0 1.6-.3 2-.6zM528.8 551c0-3 1.3-4 3-4 2 0 3.2 1 3.2 4 0 3.2-1.3 4-3 4-2 .2-3.2-.8-3.2-4zm5.2 0c0-1.8-.4-3-2-3-1.8 0-2.2 1.2-2.2 3 0 2 .4 3.3 2 3.3 1.8 0 2.2-1.3 2.2-3.2zM544.3 554.4c-.4.4-1 .7-1.8.7-1.7 0-3-1-3-4s1.3-4 3-4c1 0 1.8.7 2 1v-.8h1V558h-1v-3.6zm-1.7 0c.7 0 1.4-.5 1.7-1V549c-.2-.5-.8-1-1.7-1-1.6 0-2 1.2-2 3 0 2 .4 3.3 2 3.3zM548.4 552.7c0 1.3.5 1.7 1.5 1.7s1.8-.7 2-1v-6h1v7.7h-.7l-.2-.7c-.5.5-1.5 1-2.4 1-1.7 0-2.3-1-2.3-2.7v-5.4h1v5.5zM555.8 551.4c0 1.8.5 3 2 3 1.3 0 2-.6 2-.6l.4.8s-1 .6-2.3.6c-2 0-3.2-1-3.2-4s1.3-4 3-4c2.2 0 2.8 1.6 2.8 4.3h-4.8zm0-.8h3.7c0-1.8-.6-2.6-1.8-2.6-1.3 0-1.8 1-2 2.6zM568.2 550.4h1v-1c0-1-.4-1.5-1.4-1.5-1 0-2 .4-2 .4l-.4-.8s1-.5 2.4-.5c1.8 0 2.4 1 2.4 2.5v5.6h-.8v-.5c-.6.3-1.2.7-2.3.7-1.4 0-2.2-1-2.2-2.3 0-1.3 1-2.6 3.4-2.6zm1 3.2v-2.4h-1c-1.5 0-2.3.7-2.3 1.6 0 .8.5 1.4 1.3 1.4 1 0 1.6-.3 2-.6zM573.2 558h-1V547h.8l.2.7c0-.2.8-1 2-1 1.5 0 3 1 3 4s-1.4 4-3 4c-1 0-1.5-.3-2-.6v3.5zm1.7-10c-1 0-1.6.6-1.8 1v4.4c.3.5 1 1 1.7 1 1.6 0 2-1.4 2-3.3 0-1.7-.4-3-2-3zM582.7 550.4h1v-1c0-1-.4-1.5-1.4-1.5-1 0-2 .4-2 .4l-.4-.8s1-.5 2.3-.5c1.8 0 2.4 1 2.4 2.5v5.6h-.8l-.2-.5c-.5.3-1 .7-2.2.7-1.5 0-2.3-1-2.3-2.3 0-1.3 1-2.6 3.4-2.6zm1 3.2v-2.4h-1c-1.5 0-2.3.7-2.3 1.6 0 .8.6 1.4 1.4 1.4 1 0 1.6-.3 2-.6zM590 548h-.5c-1 0-1.6.7-1.8 1v6h-1v-7.8h.8l.2.8c.5-.5 1-1 2-1h.5l-.2 1zM592 551.4c0 1.8.5 3 2 3 1.3 0 2-.6 2-.6l.4.8s-1 .6-2.3.6c-1.7 0-3-1-3-4s1.3-4 3-4c2.2 0 2.8 1.6 2.8 4.3H592zm0-.8h3.7c0-1.8-.6-2.6-1.8-2.6-1.5 0-2 1-2 2.6zM602 548h-3.8v-.8h5v1l-4 6h3.8v.8h-5v-1l4-6zM609 554.8s-.7.4-1.6.4c-2 0-3-1-3-4s1.2-4 3-4c.6 0 1.2.2 1.6.4l-.4.8s-.6-.3-1.3-.3c-1.7 0-2 1.3-2 3.2 0 2 .3 3 2 3 .8 0 1.3-.2 1.3-.2l.5.8zM613.6 550.4h1v-1c0-1-.4-1.5-1.4-1.5-1 0-2 .4-2 .4l-.4-.8s1-.5 2.4-.5c1.8 0 2.4 1 2.4 2.5v5.6h-.8v-.5c-.6.3-1.2.7-2.3.7-1.5 0-2.3-1-2.3-2.3 0-1.3 1-2.6 3.4-2.6zm1 3.2v-2.4h-1c-1.5 0-2.3.7-2.3 1.6 0 .8.6 1.4 1.4 1.4 1 0 1.6-.3 2-.6zM503 565.3c0-1-.4-1.6-1.3-1.6-1 0-2 .7-2 1v6h-1V563h.7l.2.7c.6-.4 1.4-1 2.3-1 1 0 1.6.5 2 1.2.5-.7 1.5-1.2 2.4-1.2 1.8 0 2.2 1 2.2 2.6v5.4h-1v-5.4c0-1.3-.5-1.6-1.4-1.6-1 0-1.7.6-2 1v6.1h-1v-5.7zM513.5 566h1v-1c0-.8-.4-1.4-1.4-1.4-1 0-2 .5-2 .5l-.3-.7s1-.5 2.4-.5c2 0 2.5 1 2.5 2.4v5.6h-.8v-.6c-.6.3-1.2.7-2.3.7-1.5 0-2.3-1.2-2.3-2.4.2-1.2 1-2.5 3.5-2.5zm1 3.3V567h-1c-1.5 0-2.3.6-2.3 1.5 0 .8.6 1.4 1.4 1.4 1 0 1.6-.4 2-.7zM520.8 563.8h-.5c-1 0-1.6.6-1.8.8v6h-1V563h.8l.2.7c.5-.5 1-1 2-1h.5l-.2 1zM526.5 570.5s-.8.4-1.7.4c-2 0-3-1-3-4 0-3.2 1.2-4 3-4 .6 0 1.2 0 1.6.3l-.4.8s-.6-.2-1.3-.2c-1.7 0-2 1.2-2 3 0 2 .3 3.2 2 3.2.8 0 1.3-.3 1.3-.3l.5.8zM531 566h1v-1c0-.8-.4-1.4-1.4-1.4-1 0-2 .5-2 .5l-.4-.7s1-.5 2.4-.5c1.8 0 2.4 1 2.4 2.4v5.6h-.8v-.6c-.6.3-1.2.7-2.3.7-1.6 0-2.4-1.2-2.4-2.4s1-2.5 3.4-2.5zm1 3.3V567h-1c-1.5 0-2.3.6-2.3 1.5 0 .8.6 1.4 1.4 1.4 1 0 1.7-.4 2-.7zM539.5 559.8h1v11h-.8l-.2-.7c-.3.5-1 1-2 1-1.6 0-3-1-3-4s1.4-4 3-4c1 0 1.7.4 2 .6v-3.8zm-1.7 10.2c.7 0 1.4-.4 1.7-1v-4.3c-.2-.4-.8-1-1.7-1-1.6 0-2 1.3-2 3.2 0 1.7.4 3 2 3zM542.2 566.8c0-3 1.3-4 3-4 2 0 3.2 1 3.2 4s-1.3 4-3 4c-2 0-3.2-1-3.2-4zm5.2 0c0-2-.4-3-2-3-1.8 0-2.2 1-2.2 3s.4 3.2 2 3.2c1.8 0 2.2-1.3 2.2-3.2zM554 567c0 2 .4 3 2 3 1.2 0 2-.5 2-.5l.3.8s-1 .6-2.3.6c-1.8 0-3-1-3-4 0-3.2 1.2-4 3-4 2 0 2.7 1.5 2.7 4.2H554zm0-.8h3.6c0-1.8-.6-2.6-1.8-2.6-1.3 0-1.8 1-2 2.6zM565 565.3c0-1.3-.5-1.6-1.5-1.6s-2 .7-2.2 1v6h-1V563h.8l.3.7c.6-.5 1.6-1 2.5-1 1.7 0 2.3 1 2.3 2.7v5.4h-1v-5.5zM575.8 565.3c0-1.3-.5-1.6-1.5-1.6s-2 .7-2.2 1v6h-1V563h1v.7c.7-.5 1.7-1 2.6-1 1.7 0 2.3 1 2.3 2.7v5.4h-1v-5.5zM579.4 567c0 2 .5 3 2 3 1.3 0 2-.5 2-.5l.4.8s-1 .6-2.3.6c-1.8 0-3-1-3-4 0-3.2 1.2-4 3-4 2 0 2.7 1.5 2.7 4.2h-4.8zm0-.8h3.7c0-1.8-.5-2.6-1.7-2.6-1.3 0-1.8 1-2 2.6zM590.3 570c-.4.5-1 .8-2 .8-2 0-3-1.8-3-4 0-2 .7-4 3-4 .7 0 1.4.2 2 .8l.2-.7h.8v8c0 1.5-.7 3-2.6 3-1 0-1.7-.3-1.7-.3l.2-1s.7.3 1.5.3c1 0 1.6-.7 1.6-2v-1zm-1.7 0c.8 0 1.4-.4 1.7-1v-4.3c-.2-.4-.8-1-1.7-1-1.6 0-2 1.3-2 3.2 0 1.7.4 3 2 3zM596.7 563.8h-.5c-1 0-1.6.6-1.8.8v6h-1V563h.8l.2.7c.5-.5 1-1 2-1h.5l-.3 1zM598.6 560c.4 0 .8.3.8.7 0 .4-.4.8-.8.8s-.8-.4-.8-.8.4-.8.8-.8zm-.5 3h1v7.7h-1V563zM602.7 563h1.8v.8h-1.8v4c0 1.5.4 2 1.4 2h.8l.2.8-1 .2c-1.4 0-2.3-1-2.3-2.8v-4.2h-1v-1h1v-2h1v2zM609.2 566h1v-1c0-.8-.4-1.4-1.4-1.4-1 0-2 .5-2 .5l-.4-.7s1-.5 2.4-.5c1.8 0 2.4 1 2.4 2.4v5.6h-.8v-.6c-.6.3-1.2.7-2.3.7-1.4 0-2.2-1.2-2.2-2.4s1-2.5 3.4-2.5zm1 3.3V567h-1c-1.5 0-2.3.6-2.3 1.5 0 .8.5 1.4 1.3 1.4s1.6-.4 2-.7zM613.8 569.2c.5 0 .8.4.8.8s-.4.8-.8.8c-.5 0-.8-.4-.8-.8s.3-.8.8-.8z"/></g><path stroke-miterlimit="10" fill="none" stroke="#e30613" stroke-width="1.9" d="M324.4 754.7L480.7 508"/><ellipse ry="37.8" rx="156.6" cy="786.1" cx="237.2" stroke-miterlimit="10" fill="none" stroke="#e30613" stroke-width="1.9"/><path d="M95.8 611v-9.2h1v9h-1zM99.8 605c.5-.7 1-1 1.7-1 1 0 1.7.5 1.7 1.7v5.2h-1v-5c0-.7-.2-1.2-1-1.2-.4 0-.7 0-1 .4-.3.4-.3.7-.3 1.2v4.5h-1V604h.8v.7zM108.2 604.2h1v6c0 .7 0 1.4-.5 2-.4.8-1 1-2 1s-1.8-.5-2-1.6h1c0 .6.5.8 1 .8 1.6 0 1.5-1.5 1.5-2.3-.4.8-.8 1-1.5 1-1.3 0-2.2-.8-2.2-3.5 0-1.4.4-3.5 2-3.5.7 0 1.3.3 1.6 1v-.8zm-2.7 3.3c0 1.6.3 2.7 1.2 2.7 1.5 0 1.4-1.8 1.4-3s-.2-2.5-1.2-2.5c-1.2 0-1.3 2-1.3 2.8zM112 605.3c.3-1 1-1.3 2-1.2v1c-1.3-.2-2 .6-2 1.8v4h-1v-6.6h.8v1zM118.8 608.6c0 1.3-.6 2.4-2 2.4-1.3 0-2.2-.8-2.2-3.6 0-1.4.4-3.5 2.2-3.5 2.2 0 2 2 2 3.5h-3.2c0 1 0 2.7 1.2 2.7 1 0 1.2-.8 1-1.6h1zm-1-1.8c0-.8 0-2-1-2s-1 1.2-1.2 2h2.3zM123.6 601.8h1v9h-1v-.8c-.3.8-.7 1-1.5 1-2 0-1.8-3-2-3.5 0-2 .7-3.5 2-3.5.8 0 1.2.3 1.6 1v-3.2zm0 5.6c0-1 0-2.6-1.3-2.6-.8 0-1.3.6-1.3 2.7 0 1.5 0 2.8 1.4 2.8 1 0 1.3-1.2 1.3-2v-1zM126.4 603v-1.2h1v1.2h-1zm0 8V604h1v6.7h-1zM133 608.6c0 1.3-.7 2.4-2 2.4-1.4 0-2.3-.8-2.3-3.6 0-1.4.4-3.5 2.2-3.5 2 0 2 2 2 3.5h-3.3c0 1 0 2.7 1.2 2.7.8 0 1-.8 1-1.6h1zm-1-1.8c0-.8 0-2-1-2-1.2 0-1.2 1.2-1.3 2h2.3zM135.4 605c.5-.7 1-1 1.7-1 1 0 1.8.5 1.8 1.7v5.2h-1v-5c0-.7-.2-1.2-1-1.2-.4 0-.7 0-1 .4-.3.4-.3.7-.3 1.2v4.5h-1V604h1v.7zM141.6 604.2h1v.8h-1v4.6c0 .2 0 .5.4.5h.6v1h-1c-.7 0-1-.2-1-1.2V605h-1v-.8h1v-1.8h.8v1.8zM147.7 608.6c0 1.3-.6 2.4-2 2.4-1.3 0-2.2-.8-2.2-3.6 0-1.4.4-3.5 2.2-3.5 2.2 0 2 2 2 3.5h-3.2c0 1 0 2.7 1.2 2.7 1 0 1.2-.8 1-1.6h1zm-1-1.8c0-.8 0-2-1-2s-1 1.2-1.2 2h2.3zM152 606c0-.8-.3-1.2-1-1.2-.8 0-1.2.3-1.2 1 0 1 .7 1 1.4 1.3 1 .5 2 .8 2 2 0 1.3-1 2-2.4 2-.6 0-1.3 0-1.7-.6-.3-.5-.3-1-.3-1.4h1c0 .8 0 1.3 1 1.3.8 0 1.3-.3 1.3-1 0-1-1-1-1.7-1.4-1-.5-1.6-.8-1.6-2s.8-2 2-2c1.3 0 2 .7 2 2h-.7zM250 798v-1.5h1.7v1.6H250zM244 798v-1.5h1.7v1.6H244zM256.2 798v-1.5h1.6v1.6h-1.6z"/></svg>