<svg xmlns="http://www.w3.org/2000/svg" height="247.6" width="247.6"><circle cx="123.8" cy="123.8" r="123.8" fill="#eaf5f7"/><path d="M86.5 120.8h-.3.3zm1.8-1l-.3.2s.2 0 .3-.2zm-.8.6c-.2 0-.3 0-.4.2l.5-.2z" fill="#ccbea7"/><path d="M59.4 124.5s-3.8 46-2.4 47.6c1.5 1.6 129.2-13 131.4-15.7 2.2-2.7 3-45.5 2.3-46.6l-.6-1-130.6 15.8z" fill="#f8b81a"/><g fill="#eda60e"><path d="M105.4 140.3c-.2 5.7-5 10-11 9.8-5.6 0-10-5-9.8-10.8.3-5.7 5.2-10 11-10 5.7.4 10 5.3 9.8 11zM186 130c-.3 4.7-4.4 8.3-9 8-5 0-8.6-4.2-8.4-9 .2-4.8 4.3-8.5 9-8.2 5 .2 8.6 4.3 8.4 9zM139.8 128.4c5.2.3 9.7-3.7 10-9 0-2-.5-4-1.6-5.7l-17 2c-.3 1-.5 1.8-.5 2.8-.3 5.2 3.8 9.7 9 10zM57.5 150.8c1.5 1 3.3 1.5 5.2 1.6 6 .3 11.3-4.4 11.6-10.5.3-6.2-4.4-11.4-10.5-11.7-1.8 0-3.4.3-5 1-.4 5-1 12.4-1.3 19.5zM81 164.3c-3.6-.2-6.7 2.5-6.8 6v.7l13-1.3c-.6-3-3-5.3-6.2-5.4zM160.2 157.2c.3-6-4.4-11-10.4-11.4-6-.3-11 4.3-11.4 10.3-.2 3 .8 5.5 2.4 7.6l18.4-2.4c.6-1.2 1-2.6 1-4z"/></g><g><path d="M59.4 124.5l16-12.2s9 4 13.4-.6c4.3-4.6-2.5-7-2.5-7S118.8 76 123 75.3c4.5-.5 50 2 67.7 34.3L59.4 124.5z" fill="#ffd93e"/><path d="M88.8 111.7c4.3-4.6-2.5-7-2.5-7l-.4 8.8c1-.4 2-1 2.8-1.8z" fill="#e8ae0e"/><g fill="#f4cd29" transform="translate(-878.45 -191.64)"><path d="M1012.4 286.3c-.2 4.2-3.8 7.4-8 7.2-4.2-.2-7.4-3.8-7.2-8 .2-4.2 3.8-7.4 8-7.2 4.2.2 7.4 3.8 7.2 8zM1044.6 290.7c-.2 4.3-3.8 7.5-8 7.3-4.3-.2-7.6-3.8-7.4-8 .2-4.3 3.8-7.6 8-7.4 4.3.2 7.6 4 7.4 8z"/><circle cx="985.4" cy="301" r="5.5"/></g></g></svg>