<svg xmlns="http://www.w3.org/2000/svg" height="247.6" width="247.6"><circle cx="123.8" cy="123.8" r="123.8" fill="#eaf5f7"/><path d="M39.8 119.5v47.3c0 5 16.4 8.8 36.7 8.8 20.2 0 36.6-4 36.6-8.8v-47.3H40z" fill="#d1d4d6"/><path d="M39.8 113.3v47.3c0 5 16.4 9 36.7 9 20.2 0 36.6-4 36.6-9v-47.3H40z" fill="#f6a320"/><path d="M113 115.6c0 5-16.3 8.8-36.5 8.8-20.3 0-36.7-4-36.7-8.8 0-4.8 4-18 36.7-18 31.6 0 36.6 13.2 36.6 18" fill="#f6a320"/><path d="M39.7 101.2c-2 4.8-1.3 4 2.2 8 2.5 3.2 4.7 6.4 7.5 9.5 8.2-4 18-6 26.7-9.2 7.8-3 41.3 7 40.7 5.6-1.6-3.2-4.8-11.8-5.3-15.3-.5-3.7 1-10.8 1-14.4 0-6.2-21-6.2-30.2-6.6-7.7-.4-15.6.3-23.3.8-5 .3-15.6-.7-19 4-3.4 4.5 2 12-.5 17.7" fill="#d2b584"/><path d="M113 84c0 4.8-16.4 8.7-36.7 8.7-20.2 0-36.6-4-36.6-8.7 0-5 16.4-8.8 36.6-8.8 20.3 0 36.7 4 36.7 8.8M111.7 94c-3.4 0-8.2 2.2-11.7 3.2-7.3 2-16.5 3.8-24.3 3.5-12-.5-22-1.5-36-7.8.7 2.7-5 11.3-6.2 14-2 4.7 5-1.7 8.3 2.3 2.7 3 5 6.3 7.7 9.4 8.2-4 18-6 26.7-9.3 7.8-2.8 41.3 7 40.7 5.7-1.6-3.2-5-11.8-5.3-15.3-.2-1.5 0-3.5.2-5.6h-.3" fill="#e5c68e"/><path d="M38.7 90.2c-.6.6-.6 1.6 0 2.2 8.8 9 58.4 10 73.8 1.5.7-.5 1-1.4.6-2.2-.4-.7-1.3-1-2-.6-15 8.4-63 6.4-70-1-.7-.5-1.7-.6-2.3 0" fill="#5e4040"/><path d="M38.7 94.4c-.6.5-.6 1.5 0 2 8.8 9.2 58.4 10.2 73.8 1.6.7-.4 1-1.3.6-2-.4-.8-1.3-1-2-.6-15 8.3-63 6.3-70-1-.7-.6-1.7-.6-2.3 0" fill="#5e4040"/><path d="M78 106.2v-.3c0-1.2 1-2.4 2.5-3.3 1.7-1 3.8-1.6 5.3-1.3L84 103c-1 1-4.5 4-5.8 4v-.8m.6-6c-2.4 1.4-3.7 3.4-3.8 5.6 0 2.2.6 3.6 1.8 4.2 1.7.8 3.8-.3 6.3-2.2-.8 2.7-1.2 5.4-1.5 7.5l-.6 3c-.2 0-.2.2-.2.4 0 .7.4 1.2 1 1.5.8.3 1.7 0 2-1 .3-.7.5-1.8.7-3.4.6-3.5 1.4-9 4-12.7l-1.2-1.3c.5 0 1-.4 1-1 .2 0 .2-.3.2-.5 0-.6-.3-1.2-1-1.4-2.2-1-5.8-.5-8.7 1.3" fill="#5e4040"/><path d="M92.3 102.7c1.4 1 2.3 2 2.3 3.2v1c-1.4 0-5-3-6-4.2l-1.7-1.4c1.4-.3 3.6.2 5.3 1.3m-7.2-4c-.5.3-1 1-1 1.4 0 .4.2.6.3.8.2.4.6.7 1 .8l-1.2 1.4c2.8 4 3.6 9.2 4.2 12.8.2 1.5.4 2.6.7 3.4.2.8 1 1.2 2 1 .5-.3 1-1 1-1.5l-.2-.6c-.2-.3-.4-1.5-.6-2.7-.3-2-.8-4.8-1.6-7.5 2.5 2 4.6 3 6.3 2 1-.5 1.7-2 1.7-4 0-2.2-1.4-4.3-3.8-5.8-3-1.7-6.6-2.3-9-1.3" fill="#5e4040"/><g><path d="M204.8 185.5c3.2-1 5-5 5.3-8l6.5 2-3.7-12.8-4.3 5c-2-2.5-6-5.4-9-4.4-1.2.3-3.4 1-6.4 1-7-.3-16-3.6-25.7-11-7-5.2-10.6-10-13.5-15.5-3-5.6-4-10.8-4-12.7 0-3.7-4.8-6.2-8.3-7l2.5-7.4-13.8 3.4 5.5 5c-2.3 1.2-4 3.7-4 6.5v.3c0 5.7 2 12.5 5.8 20 4 7.6 9.4 17 18.5 23.8 12.7 9.5 27.2 12.8 37.4 13.2 4.4 0 8-.4 11.4-1.3" fill="#c73017"/></g></svg>