<svg xmlns="http://www.w3.org/2000/svg" height="247.6" width="247.6"><circle cx="123.8" cy="123.8" r="123.8" fill="#eaf5f7"/><path d="M136.4 149.3c5-5.5 17.6-26.2 22.8-25.4 5.3.7 23-33.6-13-45-36-11.3-64 16.2-57 20.7 7.2 4.5 17.7 32 16.2 41.4-1.5 9.6 19 23.5 31 8.3" fill="#6c8938"/><path d="M112.8 88.3c0 10.2 1 25.7 1.7 31.5.7 5.7-4.7 8.7-6.8.8-2-8-6.4-29.8-10.7-37.5-4.2-7.5 15.5-10 15.8 5.3" fill="#56722b"/><path d="M131.8 150.2c-2 4-9.8 4.5-14.3 3-4.4-1.7-10-5-10-10.8-.2-4.5 7.7-4 14.5-1.8 6.7 2.2 11.3 6.6 9.8 9.6" fill="#90b651"/><path d="M162 109c-7.8 6.7-18.7 17.8-22.5 22.2-3.8 4.4-9.7 2.3-5-4.5 4.5-6.8 18-24.5 20.8-32.8 3-8.4 17.7 4.7 6.6 15M142.6 92.3c-5.2 8.8-12 22.8-14 28.2-2.3 5.4-8.5 5.3-6.4-2.6 2.2-8 9-29 9.2-38 0-8.7 18.3-1 11.2 12.3" fill="#56722b"/><path d="M155.3 121.7c0 2.3.7 4.5 1.8 6.4 1.5 2.4 3.4 4.2 5.6 5.4 1.5.8 3.2 1.3 5 1.5 2 2 4.4 3.7 7 4.4 3.5 1 7.2.5 10.5-1.4 1.3-.7 2.3-1.5 3-2.4.5-.3.8-.7 1-1 .6 0 1-.2 1.7-.3 1.3-.3 2.6-.8 3.8-1.5 3-1.8 5-4.4 6-7.5 1-2.2 1-4.7.6-7 1.4-2 2.2-4 2.5-6.2.5-3 0-6-1.7-8.8l-1-1.7-8 3.6.7.6c.5.4 1 1 1.4 1.6.6 1.2.8 2.5.6 3.8 0 1.2-.7 2.3-1.5 3.2-1.2 1-1.7 3-1 4.5.5 1.3.5 2.8 0 4-.4 1.3-1.2 2.4-2.5 3.2l-1.6.5c-.7.2-1.2.2-1.8.2-1.5-.2-3 .6-4 2 0 .5-.4 1-.8 1.4-.4.5-.8.8-1.3 1-1.3 1-3 1-4.3.7-1.4-.4-2.7-1.3-3.5-2.7-.8-1.3-2.2-2-3.8-2-1 0-2-.2-3-.7-1-.5-1.8-1.2-2.4-2.2-.5-.7-.7-1.6-.8-2.5 0-1 .2-1.8.5-2.7l.4-1-8.7 4zM176.4 87.2c-1.5-.6-3-1-4.7-1-2.5 0-5 .6-7.3 2-2.5 1.4-4.4 3.5-5.6 6-.8 1.8-1.2 3.8-1.3 5.7-2 1.8-3.3 4.2-4 6.8-.8 3.3-.4 7 1.5 10l.6 1c-.3 1.4-.4 2.6-.4 4l9-4c0-1.3-.3-2.6-1.3-3.6l-.7-.6-.4-.7c-1-1.4-1-3-.7-4.4.3-1.3 1-2.6 2.4-3.4 1.4-.8 2.2-2.5 2-4-.4-1.3-.2-2.5.3-3.6.5-1 1.3-2 2.4-2.6 1-.6 2-.8 3-.8s2 .4 3 1c1.4 1 3.4 1 4.8-.3 0-.2.2-.3.4-.4l.5-.3c1.5-.8 3-1 4.5-.6 1.4.4 2.7 1.3 3.5 2.7.3.6.6 1.2.7 1.8v2c-.3 1.8.8 3.8 2.8 4.4.4 0 .8.3 1.2.5l8-3.4c-.7-1-1.5-1.6-2.3-2.2-.5-.5-1-.8-1.7-1.2 0-.5 0-1-.2-1.5-.3-1.5-.8-3-1.6-4.3-2-3.3-5-5.5-8.5-6.4-3.3-1-7-.6-10 1.2" fill="#ffe09f"/><path d="M176.7 91.8c-3-2-7-2.2-10.3-.3-3.7 2.2-5.4 6.3-4.7 10.2-4.4 2.8-6 8.7-3.2 13.2.4.7 1 1.5 1.6 2-1.2 3-1 6.3.6 9 2 3.5 5.5 5.2 9 5 2.8 4.7 8.8 6.2 13.5 3.5 1.8-1 3-2.3 3.8-4 2 .3 4 0 5.7-1.2 4.3-2.4 6-7.6 4-12 3.3-3 4.2-8 1.8-12-1.3-2.3-3.3-3.8-5.6-4.5.3-2.2 0-4.4-1.2-6.4-2.8-4.7-8.7-6.3-13.4-3.6l-1.3 1" fill="#fff"/><path d="M143 98.5c.6.8 1.5 1.4 2.5 2 .6 2.6 2 5 4 6.8 2.4 2.3 5.8 3.7 9.5 3.7h1.2c1 .8 2 1.5 3.2 2 2 1 4 1.7 6.4 1.6 2.7 0 5.2-.8 7.3-2.2 1.6-1 3-2.2 4-3.6 2.7-.6 5.3-2 7.2-4 2.5-2.5 4-6 4-9.8 0-1.3-.3-2.6-.7-3.8 0-.4-.2-1-.4-1.3.3-.6.5-1 .6-1.6V88c.5-1.2.6-2.5.6-3.7 0-2.5-.7-4.8-2-6.8l-7.3 3.3c.7 1 1.2 2.2 1.2 3.6V86h-.2c0 .7-.4 1-.6 1.6-1 1.3-1 3-.2 4.5l.7 1.6c0 .5 0 1 .2 1.5 0 1.7-.6 3.2-1.7 4.3-1 1-2.4 1.7-4 1.7-1.5 0-3 1-3.6 2.3-.6 1-1.3 1.8-2.2 2.4-1 .6-2 1-3 1s-2-.3-2.8-.7c-.7-.3-1.4-1-2-1.6-1-1.5-2.7-2.2-4.5-1.6h-.8c-.2.2-.5.2-.8.2-1.6 0-3-.6-4-1.5-1-1-1.8-2.3-2-3.8 0-1.2-.5-2.3-1.4-3l-8.7 3.8z" fill="#ffe09f"/><path d="M143.6 77.8c-1.3 1-2.3 2.3-3.2 3.6-1.2 2.2-2 4.7-2 7.3 0 3 1 5.6 2.7 7.8.6.8 1.2 1.4 2 2l8.6-3.8c-.4-.3-.8-.6-1.2-.7-1.2-.4-2.2-1.2-2.8-2-.7-1-1-2.2-1-3.4-.2-1 0-2.2.7-3 .5-1 1.3-1.8 2.3-2.3 1.5-.8 2.4-2.5 2-4.3v-.5-.5c0-1.6.6-3 1.6-4 1-1.2 2.5-2 4-2 .8 0 1.4.2 2 .4.6.2 1.2.5 1.7 1 1.5 1.2 3.7 1 5.2-.3.5-.4 1-1 1.8-1 .6-.4 1.4-.6 2-.6 1.5 0 2.7.5 3.7 1.2 1 .8 1.8 2 2 3.2.5 1.5 1.8 2.7 3.5 3 1.4 0 2.7.8 3.6 1.8v.2l7.5-3.3-1.6-2.2c-1.6-1.8-3.7-3-6-4-1-2-2.4-3.7-4-5-2.5-1.8-5.5-3-8.7-3-1.8.2-3.5.5-5 1.2l-2 1c-.3-.3-.8-.5-1.3-.7-1.4-.4-3-.7-4.6-.7-3.7.2-7 1.8-9.5 4.3-2.4 2.5-4 5.8-4 9.5" fill="#ffe09f"/><path d="M147.7 79.8c-3 1.6-5.3 5-5.2 8.8 0 4.3 2.8 7.8 6.6 9 .3 5.3 4.7 9.5 10 9.4 1 0 1.8-.2 2.7-.4 1.8 2.5 4.8 4 8 4 4 0 7.2-2.3 8.8-5.6 5.4 0 9.7-4.5 9.6-10 0-1.8-.5-3.6-1.4-5 1-1.7 1.6-3.6 1.6-5.6 0-5-3.8-9-8.5-9.6-1-4.3-5-7.4-9.6-7.3-2.5 0-5 1-6.6 2.7-1.7-1.3-4-2-6.2-2-5.4 0-9.7 4.5-9.6 10v1.6" fill="#fff"/><path d="M73.6 96c0 1.7.5 3.3 1 4.7 1 2.3 2.7 4.3 5 6 2.3 1.5 5 2.3 7.8 2.3 2 0 4-.4 5.7-1.2 2.6 1 5.4 1.3 8 .8 3.3-.7 6.5-2.6 8.6-5.6l.6-1c1.3-.3 2.6-.7 3.7-1.3 2-1 3.6-2.5 5-4.3 1.4-2.2 2.2-4.7 2.4-7.2 0-1.7-.2-3.5-.8-5.2 1.3-2.6 1.6-5.5 1-8.3 0-1-.4-2-.8-3.2l-7.3 3.3.4 1.3c0 1.6-.2 3-1 4.4-1 1.2-1 3-.3 4.3.5 1 .8 2 .7 3 0 1-.4 2.2-1 3-.6 1-1.3 1.5-2 2l-2.7.6c-1.7 0-3.3 1-4 2.7 0 .2 0 .4-.2.7l-.4.7c-.8 1.3-2 2-3.6 2.4-1.3.2-2.8 0-4-.7-1.4-1-3.2-1-4.7 0-1 .7-2 1-3.3 1-1 0-2.3-.3-3.3-1-.8-.6-1.5-1.5-2-2.4-.3-1-.5-2-.3-3.2.2-1.4-.4-3-1.7-3.8l-8.3 3.7 2 1.8" fill="#ffe09f"/><path d="M120.8 72.6c-1-2.3-2.6-4.3-4.7-5.8-1-.7-2.2-1.3-3.4-1.7l-1.3-.3c-.2-.5-.5-1-1-1.4-.7-1-1.7-2-3-2.8-2.7-2-6-2.8-9.2-2.4-2.3.3-4.6 1.2-6.6 2.6-2.2-.4-4.5-.3-6.6.4-2.8.8-5.4 2.6-7.3 5.3-1 1.4-1.7 3-2 4.7-.3.6-.4 1.3-.4 2l-1.2.8c-1.2 1-2.4 2-3.3 3.3-2.2 3.2-3 7-2.3 10.4.5 2.5 1.7 5 3.5 7l8.3-3.8-.6-.3c-.2 0-.3-.2-.5-.3-.2 0-.3 0-.5-.3-1.3-1-2.2-2.3-2.4-3.7-.2-1.5 0-3 1-4.3.4-.6 1-1 1.4-1.4.5-.4 1.2-.7 1.8-1 2-.4 3.2-2.3 3-4.3-.2-.7-.2-1.5 0-2.2 0-.7.4-1.4.8-2 .8-1 2-1.8 3-2.2 1.3-.4 2.6-.3 4 0 1.3.7 3 .4 4.3-.8 1-1 2.3-1.7 3.6-1.8 1.3-.2 2.6.2 3.8 1l1.3 1.2 1 1.5c.5 1.5 1.8 2.5 3.5 2.6.5 0 1 0 1.6.3.5.2 1 .4 1.5.8 1 .6 1.6 1.4 2 2.4l7.3-3.2z" fill="#ffe09f"/><path d="M77.7 94c-.5 3.4 1 7 4 9.3 3.5 2.4 8 2.3 11.3 0 4.4 2.8 10.3 1.7 13.3-2.6.6-.8 1-1.6 1.3-2.4 3 0 6-1.5 8-4.2 2.2-3 2.3-7 .5-10.2h.2c3-4.5 2-10.6-2.4-13.7-1.6-1-3.4-1.6-5-1.7-.8-1.7-2-3.4-3.7-4.6-4-2.8-9.4-2-12.6 1.3-4-1.6-9-.2-11.6 3.5-1.5 2.2-2 4.7-1.7 7-2 .7-4 2-5.2 4-3 4.3-2 10.4 2.4 13.5l1.5 1" fill="#fff"/><path d="M92 78c0 1.5.5 3 1.2 4.6 1 2.3 2.5 4.3 4.7 5.8 2.3 1.7 5 2.5 7.8 2.5 2 0 4-.5 5.7-1.3 2.5 1 5.3 1.2 8 .7 3.2-.6 6.4-2.6 8.5-5.6l.6-1c1.3-.2 2.6-.7 3.7-1.3 2-1 3.7-2.4 5-4.3 1.5-2.2 2.3-4.7 2.5-7 0-2-.2-3.7-.8-5.4 1.3-2.6 1.6-5.5 1-8.3 0-1-.4-2-.8-3l-7.3 3c0 .5.2 1 .3 1.4.2 1.4 0 3-1 4.2-.8 1.3-1 3-.2 4.3.6 1 1 2 .8 3 0 1.2-.4 2.2-1 3-.6 1-1.3 1.5-2 2-1 .3-1.8.6-2.7.6-1.6 0-3.2 1-3.8 2.8l-.3.7-.5.7c-1 1.3-2.3 2-3.7 2.4-1.3.3-2.8 0-4-.7-1.4-1-3.2-1.2-4.7-.2-1 .7-2 1-3.2 1-1.2 0-2.3-.2-3.3-1-1-.6-1.6-1.4-2-2.4-.4-1-.6-2-.4-3 .3-1.6-.4-3-1.6-4L90 76l2 2" fill="#ffe09f"/><path d="M139.2 54.4c-1-2.2-2.6-4.2-4.7-5.7-1-.8-2.2-1.4-3.4-1.8l-1.2-.4-1-1.4c-.8-1-1.8-2-3-3-2.8-2-6-2.6-9.3-2.3-2.4.2-4.7 1-6.7 2.5-2.2-.4-4.4-.3-6.6.3-2.8 1-5.4 2.7-7.3 5.3-1 1.6-1.8 3.2-2.2 4.8 0 .7-.2 1.3-.3 2l-1.3.8c-1.2 1-2.3 2-3.3 3.3-2.2 3-3 6.7-2.3 10.2.4 2.6 1.6 5 3.4 7l8.4-3.7-.6-.4h-.5c0-.2-.2-.3-.4-.4-1.4-1-2.2-2.3-2.5-3.8-.3-1.4 0-3 1-4.3.4-.6.8-1 1.3-1.4.6-.3 1.2-.6 1.8-.7 2-.6 3.2-2.5 3-4.5-.2-.7-.2-1.4 0-2 0-.8.4-1.5 1-2 .7-1.2 1.7-2 3-2.4 1-.3 2.5-.3 3.7.2 1.5.6 3.2.3 4.4-1 1-1 2.3-1.6 3.6-1.8 1.4 0 2.8.2 4 1 .5.4 1 .8 1.2 1.3.4.5.6 1 .8 1.6.6 1.4 2 2.5 3.6 2.6.4 0 1 0 1.5.3.4 0 1 .4 1.4.7.8.6 1.5 1.5 2 2.4l7.2-3.2z" fill="#ffe09f"/><path d="M96 75.7c-.4 3.5 1 7.2 4.2 9.4 3.4 2.6 8 2.4 11.2 0 4.4 3 10.3 2 13.3-2.5.6-.7 1-1.6 1.3-2.4 3 0 6-1.3 8-4 2.2-3.2 2.3-7.2.6-10.4 3-4.5 2-10.6-2.4-13.7-1.6-1.2-3.4-1.7-5-1.8-.8-1.8-2-3.4-3.7-4.6-4-2.8-9.4-2.2-12.7 1.3-4-1.7-9-.4-11.6 3.4-1.5 2-2 4.6-1.7 7-2 .6-4 2-5.3 3.8-3 4.4-2 10.5 2.4 13.6l1.5 1" fill="#fff"/><path d="M122 75.5l.4.4c1.3 1.3 3 2.4 4.8 3.2 1 2.5 2.7 4.7 4.8 6.2 0 0 .2 0 .3.2 2.7 2 6.2 2.8 9.7 2.3l1.2-.4c1 .8 2.2 1.4 3.5 2 2 .6 4.2.8 6.5.5 2.7-.3 5-1.4 7-3 1.3-1.2 2.4-2.6 3.2-4.2 2.8-1 5-2.6 6.8-4.8 2-2.8 3-6.5 2.6-10.2-.2-1.3-.6-2.6-1-3.7l-.7-1 .4-1.8c.2-1.3.3-2.7 0-4 0-1.2-.4-2.3-.8-3.3l-7.3 3c0 .5.2 1 .3 1.3V60c0 .6-.3 1-.6 1.6-.6 1.4-.5 3 .6 4.4.3.4.6.8.8 1.4l.5 1.5c0 1.5-.3 3-1.2 4.2-1 1.2-2.2 2-3.7 2.3-1.4 0-2.8 1-3.3 2.7-.3 1-1 2-1.7 2.7-1 .5-2 1-3 1.2-1 0-1.8 0-2.7-.3-1-.4-1.7-1-2.3-1.6-1.2-1.2-3-1.6-4.6-1l-.7.4c-.3 0-.5 0-.8.2-1.6.2-3-.2-4.2-1-1.3-1-2.2-2.2-2.4-3.7-.3-1.5-1.5-2.8-3.2-3.2-.3 0-.6 0-1-.2l-8.2 3.7z" fill="#ffe09f"/><path d="M122.4 57c-1 1-2 2.5-2.6 4v.2c-1 2.2-1.4 4.7-1 7.2.4 2.7 1.5 5 3.2 7l8.2-3.6c-.7-.3-1.5-.8-2-1.4-.8-.8-1.4-2-1.5-3-.2-1.2 0-2.2.3-3V64c.5-1 1.2-2 2-2.5 1.5-1 2-2.8 1.6-4.6l-.2-.4V56c-.3-1.5 0-3 1-4.2 1-1.2 2.2-2 3.8-2.2h2c.6 0 1 .3 1.7.6 1.6 1 4 .8 5.2-.8.4-.6 1-1 1.6-1.5.6-.4 1.3-.7 2-.8 1.4-.2 2.7 0 3.8.7 1 .6 2 1.6 2.5 2.8.7 1.5 2 2.5 3.8 2.5 1.4 0 2.8.5 3.8 1.4.7.7 1.3 1.5 1.7 2.5l7.3-3.3c-1-2-2.2-4-3.8-5.3-1.8-1.6-4-2.7-6.5-3-1.2-2-2.8-3.6-4.7-4.7-2.6-1.5-5.7-2-9-1.7-1.6.3-3.3 1-4.8 1.7l-1.6 1.2-1.5-.4c-1.5-.3-3-.4-4.7 0-3.7.4-7 2.4-9 5.3-2 2.8-3 6.3-2.6 10" fill="#ffe09f"/><path d="M126.8 58.4c-3 2-4.6 5.7-4 9.4.5 4.2 3.7 7.4 7.6 8.2 1 5 5.8 8.7 11 8 1-.2 2-.5 2.7-1 2.2 2.4 5.3 3.6 8.6 3 4-.4 6.8-3 8-6.6 5.3-.8 9-5.7 8.2-11-.2-2-1-3.6-2.2-5 1-1.7 1.2-3.7 1-5.7-.8-5-5-8.4-9.8-8.4-1.6-4-6-6.7-10.5-6-2.5.4-4.7 1.7-6.2 3.6-1.8-1.2-4-1.7-6.3-1.4-5.4.8-9 5.8-8.3 11 0 .7.2 1.3.4 1.8" fill="#fff"/><path d="M160.3 83c.7-1.3 1-3 1.3-4.5v-.3c.2-2.3-.2-4.7-1.2-7l-7.3 3.3c.6 1 .7 2 .7 3v.2c-.2 1-.6 2-1.2 3-1 1.3-1.2 3.2 0 4.7 0 0 0 .3.2.4l.2.5c.6 1.4.7 3 .2 4.4-.5 1.4-1.5 2.6-3 3.3-.6.3-1.2.5-2 .6-.5 0-1.2 0-1.8-.2-2-.4-4 .6-4.7 2.5-.2.6-.6 1.2-1 1.7-.6.6-1.2 1-2 1.3-1 .6-2.4.7-3.6.5-1.2-.3-2.3-1-3.2-2-1-1.2-2.7-1.8-4.3-1.3-1.3.4-2.7.3-4-.2-1.2-.5-2.3-1.5-3-2.8l-.4-1.7v-1.7c.2-.6 0-1 0-1.7l-8 3.6.2 1c.2 1.5.6 2.8 1.2 4 1.5 3.2 4 5.4 7 6.7 2.2 1 4.6 1.3 7 1 1.8 1.5 3.8 2.5 6 3 3 .6 6 .3 9-1 1.5-1 3-2 4-3.2.5-.4 1-1 1.3-1.5h1.5c1.5-.2 3-.6 4.5-1.3 3.4-1.7 6-4.6 7-8 1-3 1-6.7-.4-10" fill="#ffe09f"/><path d="M160.4 71.2c-1.4-2.7-3.4-4.8-5.8-6-1.7-1-3.6-1.7-5.6-1.8-1.7-2.2-4-3.7-6.5-4.6-3.2-1-7-1-10.2.7l-1 .6c-1.3-.3-2.6-.6-4-.6-2 0-4.3.4-6.4 1.4-2.5 1-4.4 3-5.7 5-1 1.5-1.6 3.2-2 5-2.3 1.6-4 4-5 6.6-1 3.3-1 7 .7 10.5.5 1 1.2 2 2 3l1 1v.7l8-3.5c-.3-1-1-1.8-1.7-2.4-.5-.2-1-.6-1.3-1l-1-1.4c-.6-1.4-.6-3 0-4.4.4-1.4 1.4-2.6 3-3.3 1.2-.6 2-2 2-3.6 0-1 .5-2 1-3 .6-.8 1.4-1.6 2.4-2 1-.5 1.8-.7 2.7-.6 1 0 2 .2 2.7.6 1.4 1 3.4.8 4.7-.4l.6-.5.8-.3c1.4-.7 3-.7 4.3-.3 1.4.5 2.6 1.4 3.3 2.7.7 1.5 2.3 2.5 4 2.3 1.2 0 2.4 0 3.4.7 1 .6 1.8 1.4 2.4 2.5l7.4-3.3z" fill="#ffe09f"/><path d="M155.6 83c2.2-2.8 2.8-6.7 1-10.2-1.7-3.8-5.7-6-9.7-5.4-2.6-4.7-8.2-6.6-13-4.3l-2.3 1.6c-2.7-1.5-6-1.7-9-.2-3.5 1.6-5.5 5-5.5 8.7-5 2.5-7 8.3-4.6 13.2.8 1.7 2 3 3.6 4-.3 2 0 4 .8 5.8 2.2 4.4 7.2 6.5 11.8 5 2.8 3.5 7.6 4.7 11.8 2.7 2.3-1.2 4-3 5-5.4 2 .5 4.3.4 6.4-.7 4.8-2.3 7-8.2 4.5-13-.2-.6-.5-1-1-1.5" fill="#fff"/><path d="M57.3 104.8c11.8-3.6 20 5 25.7 11.6 5.6 6.7 36.6 20 31.4 42.3-5.2 22.4-42.7 40.5-63 18.3-12.2-13.3-6-31.7-5-42.4.6-8-5.6-25 11-29.8" fill="#f49815"/><path d="M55 119.7c4-.7 8 12 4.3 13s-8-12-4.2-13M60.8 146c3 0 11.8 7.6 10 13.2-2 5.6-7.2 5.5-10.5 1.2s-2.5-14.2.5-14.3" fill="#ffe09f"/><path d="M57.8 107.2c3.6-.8 1.2-5.5-.8-9.4-2-3.8-1-9-5.4-7.8-4.3 1.3 1.2 4.7 2.8 8.6 1.6 3.8.6 9.2 3.4 8.6" fill="#6c8938"/><g><path d="M140.8 135c12 0 28.4-9 41.7 3 13.3 11.8 10.8 42.7-37 42.2-47.8-.6-54.6-28.4-42-42 11-12 25-3.5 37.3-3.3" fill="#ffe09f"/><path d="M143 139.3c5 0 15.5-4.7 22.4-4.7 7 0 7 4.4 1.6 4.4-5.2 0-13.2 5.3-22.6 5.3-9.4 0-6-5-1.4-5" fill="#fff"/><path d="M125.6 146.2c1.2 0 2.2-.7 2.2-1.5 0-1-1-1.6-2.2-1.6-1.2 0-2.2.8-2.2 1.7 0 .8 1 1.5 2.2 1.5M108.5 153.4c1.2 0 2.2-.7 2.2-1.6 0-.8-1-1.5-2.2-1.5-1.2 0-2.2.7-2.2 1.5 0 1 1 1.6 2.2 1.6M132.8 164.4c1.2 0 2.2-.7 2.2-1.5 0-1-1-1.6-2.2-1.6-1.2 0-2.2.7-2.2 1.5 0 .7 1 1.4 2.2 1.4M159.3 150.6c1.2 0 2.2-.7 2.2-1.5s-1-1.4-2.2-1.4c-1.2 0-2.2.6-2.2 1.5 0 1 1 1.6 2.3 1.6M160.7 171c1.2 0 2.2-.6 2.2-1.5 0-.8-1-1.5-2.3-1.5-1.2 0-2.2.7-2.2 1.5 0 1 1 1.5 2.2 1.5M181.7 149c1.2 0 2.2-.7 2.2-1.6 0-.8-1-1.5-2.3-1.5-1.3 0-2.2.6-2.2 1.4 0 1 1 1.6 2.2 1.6M131 175.5c1.3 0 2.3-.7 2.3-1.6 0-1-1-1.6-2.2-1.6-1 0-2 .7-2 1.5s1 1.5 2 1.5" fill="#cdbb94"/></g><g><path d="M124 163c-14.3-6.3-30-1.8-35 10-5.2 11.8 2.3 26.4 16.7 32.6 14.4 6.2 30.2 1.7 35.3-10 5-12-2.5-26.5-17-32.7" fill="#ec635c"/><path d="M122.4 152.2c-4.5 1.4-10 7.2-8 11.7 2.3 4.5 1.5 5.3-2 4-3.7-1.3-4.5-12.3-5.7-10.3-1.2 2-.7 8 2 12 2.8 4.2 8.5 1 10.5 3.5s1.8 6.3-1.6 7c-3.5.4-1 1.2 1.3 1.3 2.3.2 3.6-7 7-7s7 7.5 13 8.6c6 1.2-.6-1-3.5-3.7-3-2.6-4-11.7 2-10.7 6.4 1 6.6 0 4.3-1.3-2.4-1.4-15-.4-11-3.2 4-2.7 5.3-4.5 1.6-3-3.8 1.7-6.6 3.2-10.5 2.3-4-1-5.8-6-1.3-8.2 4.4-2.3 3.5-3.7 1.7-2.8" fill="#90b651"/></g></svg>