<svg xmlns="http://www.w3.org/2000/svg" height="247.6" width="247.6"><circle cx="123.8" cy="123.8" r="123.8" fill="#eaf5f7"/><path d="M44.5 187c-3.5-9 2.4-40 31-50 28.4-10.2 47 4.7 50 26.5 3 21.7 1.3 35.6-10.5 38.7-11.8 3-21-11.5-34.8-8.8-14 2.6-28.7 11.2-35.7-6.5" fill="#fff"/><path d="M55.7 187c-7.7-7.8-10.2-21.6 3.7-34.6 14-13 24.5-19.3 42.6-13.6 18 5.8 21 28.5 20 39.5s-5.4 16.5-13.3 15.3c-8-1.2-9-8.6-20.4-8.8-11.3-.3-22.7 12.2-32.6 2" fill="#e41517"/><path d="M75.6 162.5c-6.7-8.2 10.6-21.5 19.4-12 9 9.6-12.2 21-19.4 12" fill="#fff"/><path d="M79.8 159.4c-3.3-4.3 5.8-10.8 10-6 4 4.8-5.4 12-10 6" fill="#fff"/><g><path d="M157.8 175l-18 5s11.7 1 14 2.2c2.3 1 10.7 9.7 10.7 9.7l-6.7-17z" fill="#c6c6c6"/><path d="M157.8 175l-18 5s11.7 1 14 2.2c2.3 1 10.7 9.7 10.7 9.7l-6.7-17z" fill="none" stroke="#000" stroke-width="1.1" stroke-linecap="round" stroke-linejoin="round"/><path d="M157.6 175l68.6-57.6c-14.6-5.2-30.4-20.6-30.4-20.6s-22.6-2.6-35-11.3l-3.2 89.4zM158.6 173l37-75.5M166 165.4l-6-3M168.7 163l-8.4-4.2M169 159.3l-6-3M174 157.8l-12.8-6.2M176 155l-14-6.8M178.7 152.6l-16.4-8M179 149l-14-7M180.6 146l-14.2-7M182 143l-14-7M182.8 139.5l-12.6-6.2M185.7 137l-15.4-7.5M189 135l-19-9.4M188 130.6l-14-7M192.5 129l-20-9.8M199 128.4l-30-14.7M200.5 125.3l-30-14.7M202 122.2l-30-14.6M208 113.8l-33-16.2M205 120l-33-16.3M202.8 115l-25.6-12.5" fill="none" stroke="#000" stroke-width="1.1" stroke-linecap="round" stroke-linejoin="round"/></g><g><g transform="translate(-529.74 -502.22)"><path d="M593.5 544.4c18 1.2 53.2 7 53.2 34H610s2-13.6-18.4-28.7c-2.4-1.8-1-5.5 2-5.3z" fill="#e2ad39"/><path d="M598 625.3c14.8-1 43.7-6 43.7-28.2h-30s1.5 11.4-15.4 24c-2 1.3-.8 4.4 1.6 4.2z" fill="#be292e"/><path d="M592.7 582.2l-23.4-13.5c-3-1.8-6.8.4-6.8 4v.3c0 1 .4 2.2 1 3l.3.3c4.7 5.7 4.7 14 0 19.7l-.2.2c-.7.8-1 2-1 3v.4c0 3.5 3.7 5.7 6.7 4l23.4-13.6c3-1.7 3-6 0-7.8z" fill="#e2ad39"/><path d="M647.3 586.8c0-6.6 1.8-12.6 4.7-17-31.3-17.7-57 3.7-65.5 13-2 2.3-2 5.7 0 8 8.5 9.2 33.2 27.7 65.4 12.8-3-4.3-4.8-10.3-4.8-16.8z" fill="#29a2a4"/><path d="M669.6 586.8c0-5.2-13-14.2-16.2-16.2l-1.4-.8c-3 4.4-4.8 10.4-4.8 17 0 6.5 1.8 12.5 4.7 16.8l1.4-.7c3.4-1.7 16.3-10.7 16.3-16.2z" fill="#e2ad39"/><g fill="#fff"><path d="M639 601.6l1.3-36.8c-1.6-.4-3.2-.8-4.8-1l1.4 37.8c0 1.2 1.8 1.2 2 0zM629 599.6l1.3-36.5h-4.7l1.4 36.6c0 1.2 2 1.2 2 0zM619 597.6l1.2-34-4.5 1 1.3 33c0 1.2 2 1.2 2 0zM609 595.6l1-29.2c-1.3.6-2.7 1.2-4 2l1 27.2c0 1.2 2 1.2 2 0zM599 593.6l.8-22c-1.2 1-2.4 1.7-3.5 2.5l.7 19.6c0 1.2 2 1.2 2 0z"/></g><circle cx="656.7" cy="579.2" r="2" fill="#544842"/></g><path d="M79.8 103.7c-2 4.2-5.8 9.5-13.3 15-2 1.4-.8 4.5 1.6 4.3 12.2-.8 33.5-4 41.2-17.2-11.2 2.4-21 1-29.4-2zM56.8 88.4c-1-1-1.5-2.5-1.5-4H37.5c0 3.4-1.3 6.6-3.5 9.3v.2c-.8.8-1.2 2-1.2 3v.4c0 3.5 3.7 5.7 6.8 4l19-11-1.8-2z" fill="#544842"/><path d="M117.5 84.5h-7.8l-.5 15c0 1-2 1-2 0l-.6-15h-7l-.4 13c0 1-2 1-2 0l-.5-13h-7l-.5 11c0 1-2 1-2 0l-.4-11h-7.2l-.3 9c0 1-2 1-2 0l-.4-9h-7.5l-.2 7c0 1-2 1-2 0l-.3-7H55.3c0 1.4.5 3 1.5 4 .5.6 1 1.2 1.8 1.8 4.5 4.4 11.8 10 21.2 13.4 8.3 3 18.2 4.5 29.4 2 4.2-.8 8.5-2.2 13-4.3-3-4.3-4.7-10.3-4.7-17z" fill="#29a2a4"/><path d="M117.5 84.5c0 6.6 1.8 12.5 4.7 17l1.5-.8C127 99 140 90 140 84.5h-22.5z" fill="#544842"/><path d="M107.2 99.4c0 1.2 2 1.2 2 0l.5-15h-3l.5 15zM97.2 97.4c0 1.2 2 1.2 2 0l.5-13h-3l.5 13zM87.2 95.4c0 1.2 2 1.2 2 0l.4-11h-2.8l.4 11zM79.2 93.4l.4-9H77l.2 9c0 1.2 2 1.2 2 0zM69.3 91.4l.2-7H67l.3 7c0 1.2 2 1.2 2 0z" fill="#cac9c9"/></g></svg>