<svg xmlns="http://www.w3.org/2000/svg" xmlns:xlink="http://www.w3.org/1999/xlink" viewBox="0 0 215.354 215.354" height="215.4" width="215.4"><switch transform="translate(-1203.03 -717.992)"><g><path fill="none" d="M420.3 211H535v639.2H420.2z"/><path fill="none" d="M412.3 138.2h286v106.4h-286zM412.3 443h286v106.5h-286z"/><circle r="5.4" cy="56.6" cx="1356.4" fill="#6ec6d5"/><path d="M1356.4 51v11c3 0 5.4-2.4 5.4-5.4 0-3-2.4-5.5-5.4-5.5z" fill="#57bfc8"/><circle r="1.8" cy="54.3" cx="1355.1" fill="#fff"/><path d="M1003.3 228.3l9.8 28c1 2-.2 4.3-2.4 5-2 .8-4.4-.3-5.2-2.4l-9.8-28 7.7-2.7z" fill="#fff"/><circle r="3.1" cy="220.4" cx="641.5" fill="#fff"/><circle r="3.1" cy="222.8" cx="656.9" fill="#fff"/><circle r="2.9" cy="539.3" cx="763.9" fill="#fff"/><circle r="1.1" cy="540.8" cx="780" fill="#fff"/><path d="M1350.8 473.3h-.2.2zm.8-.5zm-.4.3v.2z" fill="#ccbea7"/><defs><path id="a" d="M974.7 464h198.6V611H974.7z"/></defs><clipPath id="b"><use height="100%" width="100%" overflow="visible" xlink:href="#a"/></clipPath><path fill="none" d="M477.6 773H635v106.5H477.7zM1028.6 773H1186v106.5h-157.4z"/><circle r="107.7" cy="825.7" cx="1310.7" fill="#9bd5e1"/><path fill="#fdd8b3" d="M1303.2 816.4h14.8v10h-14.8z"/><path fill="#f2ba94" d="M1318 816.4h-14.8v7.7l14.8-3.8"/><circle r="7.1" cy="790.2" cx="1338.9" fill="#f2ba94"/><circle r="7.1" cy="790.2" cx="1278" fill="#f2ba94"/><path d="M1309.6 819.5h-3c-16.2 0-29.4-13-29.4-29.3v-17.6c0-16.2 13.2-29.4 29.4-29.4h3c16.2 0 29.3 13.2 29.3 29.4v17.6c0 16.2-13.2 29.3-29.4 29.3z" fill="#fdd8b3"/><path d="M1327 749c-1.8-.2-3.2 0-3.2 0-.6-1.7-2.2-3-4.4-4-3-1-6.2-1.7-9.5-1.8-7.2 0-16 2.6-24.2 9l-1 .8c-4.7 5.2-7.6 12-7.6 19.6V791c9.8-4.8 22.3-15.8 22.3-15.8-1.7 3.7-8.4 8.7-8.4 8.7 15.3-4.5 18.5-12 18.5-12-.8 4.8-3.4 9.5-3.4 9.5 11.3-7.8 13-18.8 13-18.8-1 9.5 14.3 23 14.3 23v-9.4l5.5 16.2V772.6c0-9.6-4.5-18.2-11.7-23.5z" fill="#f2ba94"/><path d="M1319 760.2s-1.7 11-13 18.7c0 0 2.7-4.7 3.5-9.5 0 0-3.2 7.5-18.4 12 0 0 6.8-5.2 8.4-9 0 0-14.7 13.3-24.7 17 0 0-5.6-27 11-40 16.8-12.7 35.8-9.8 38-3 0 0 5-.8 8 2.2s12 17.2 9.5 28.5c-2.3 11.4-2.3 13-2.3 13l-5.7-16.5v9.3s-15.3-13.4-14.3-22.8z"/><path d="M1309.5 758.2c-18.7 2.7-24.4-2-25.7-7-3 2.8-5 6-6.6 9.5 4.6 7.8 32.3-2.5 32.3-2.5zM1338 758.7c-2.2-4.8-4.8-8.6-6.2-10-3-3-8-2.3-8-2.3-.6-1.5-2-3-4.2-4 .3.3 2.3 1.8 2.8 5.3.6 3.8 0 4.8 0 4.8s7-7.8 15.6 6.2zM1291 781.4c3-.8 5.4-1.8 7.5-2.8 5-6.3 4.2-12.5 4.2-12.5-5.3 8-24.4 21.7-24.7 22 9.7-5 21.4-15.4 21.4-15.4-1.6 3.7-8.3 8.8-8.3 8.8zM1319 760.2s-6 12-11.3 15.4c-.8 2-1.6 3.3-1.6 3.3 11.3-8 13-18.8 13-18.8z" fill="#545e6b"/><path d="M1333.3 783v-3s-14-14.8-14.3-19.8c-1 9.4 14.3 22.8 14.3 22.8z" fill="#545e6b"/><path d="M1319 760.2l-.2.8c0-.5.2-.8.2-.8z" fill="#78402c"/><path fill="#f2ba94" d="M1304.4 801.2v-3.5l2 3.5"/><path d="M1316.3 790c2.4 0 4.7 1.3 6 2.4.3.3.3.7 0 1-.2.3-.6.3-1 0 0 0-5-4.2-8.2-.7-.2.3-.6.3-1 0-.2-.2-.2-.7 0-1 1.4-1.3 2.8-1.8 4.3-1.8zM1295.8 790c1.5 0 3 .4 4.2 1.7.3.3.3.8 0 1-.3.3-.7.3-1 0-3.3-3.5-8 .6-8.3.7-.3.3-.8.3-1 0-.3-.3-.2-.7 0-1 1.3-1 3.7-2.5 6-2.5z" fill="#d28f69"/><path d="M1338.6 872.3c0 7-5.8 13-13 13h-30.2c-7 0-12.8-6-12.8-13v-33.7c0-7.2 5.7-13 12.8-13h30.3c7 0 13 5.8 13 13v33.7z" fill="#fdd8b3"/><path d="M1282.6 872.3v-33.7c0-7.2 5.7-13 12.8-13h6.3l6.8 9 10.5-9h6.7c7 0 13 5.8 13 13v33.7c0 7-6 13-13 13h-30.2c-7.2 0-13-6-13-13z" fill="#d1251b"/><path fill="#a81917" d="M1291 838h1.7v35.8h-1.7zM1329 838h1.8v35.8h-1.7z"/><g><g fill="#fff"><ellipse ry="6.1" rx="7.9" cy="843.4" cx="1258.3"/><ellipse ry="6.1" rx="7.9" cy="841.7" cx="1278.5"/><ellipse ry="4.9" rx="6.3" cy="842.9" cx="1286.4"/><ellipse ry="7.6" rx="9.4" cy="839.6" cx="1269.1"/></g><path d="M1247.5 840.5c.2 12.7 10.6 23 23.4 23 12.6 0 23-10.3 23.2-23h-46.7z" fill="#f9b042"/><path d="M1280.8 862.3c0 .6-.5 1-1.2 1H1262c-.7 0-1.2-.4-1.2-1s.5-1 1-1h17.8c.7 0 1.2.4 1.2 1zM1293.3 846.7l.6-2.7h-46.2c0 1 .4 1.8.6 2.7h45z" fill="#d9891e"/><g fill="#fff"><path d="M1269.3 824.5s7.5-4.8 3.5-11c-4-6-10-9-7.5-17.7 2.4-8.6 2.5-15 2.5-15s-1 8-7 13.3c-6 5.4-4.2 10 5.5 17.8 8.4 7 3 12.7 3 12.7z"/><path d="M1265.3 828s-2.5-1.2-1.5-4.5 3.5-6.5-1.4-9.4c-5.7-3.3-7.8-8.3-7.8-8.3s-.7 7.5 3.8 10.3c3.6 2.2 3.8 5 3.6 7-.2 1.6-.2 4.2 3.3 5z"/></g></g><g><g fill="#fff"><ellipse ry="5.4" rx="6.9" cy="855.9" cx="1355.4"/><ellipse ry="6.6" rx="8.2" cy="854.2" cx="1344.5"/></g><path d="M1326 854.3c.2 4.4 10.6 8 23.4 8 12.7 0 23-3.6 23.4-8H1326z" fill="#f9b042"/><path d="M1359.3 862.3c0 .6-.5 1-1 1h-18c-.5 0-1-.4-1-1s.5-1 1-1h18c.5 0 1 .4 1 1z" fill="#d9891e"/><path d="M1349 845.8s5.6-3.6 2.6-8c-3-4.6-7.4-7-5.6-13.4 1.8-6.4 2-11 2-11s-1 5.8-5.3 9.7c-4.4 4-3 7.5 4 13.4 6.3 5 2.3 9.4 2.3 9.4z" fill="#fff"/></g><g><defs><circle r="107.7" cy="825.7" cx="1310.7" id="c"/></defs><clipPath id="d"><use height="100%" width="100%" overflow="visible" xlink:href="#c"/></clipPath><g clip-path="url(#d)"><path d="M1212 868c15.2 39 53.7 66.7 98.7 66.7s83.5-27.8 98.6-66.8H1212z" fill="#3f2b2f"/><path d="M1402 883c2.6-4.5 5-9.3 7-14.3h-196.6c2 5 4.4 9.8 7 14.4H1402z" fill="#e2ad39"/><path fill="#402a16" d="M1207 863.4h207.8v12.8H1207z"/><path fill="#fff" d="M1207 871.4h207.8v4.8H1207z"/></g></g></g></switch></svg>