<svg xmlns="http://www.w3.org/2000/svg" viewBox="0 0 45.018984 92.299997" height="100" width="100"><path d="M45 60v11.6c0 5-1.8 9.5-5.5 13.4h-.3v.4l-1.4 1.4h-.3v.3c-4 3.5-8.2 5.2-13 5.3l.2-.3c-.3 0-.4-.4-.5-.8H24c0 .6.2 1 .3 1H24c-3.3 0-5.4 0-6.5-.2v-1h-.3V91v1h-.4l-4.2-1.4v-.5H12v.2c-3.7-1.8-6.6-4.4-8.8-8 0-.7-.3-1.2-.8-1.5v.4c-1-1.3-1.6-3-2-4.5-.6-1.4-1-6-.2-7.7v.5c0 .3 0 .3.5 0 0-.5-.2-1-.4-1.2.4-.4 1-.7 1.4-.8h.4V67c.8 0 1.8-.3 3.3-.3v.3c.2 0 .2 0 .4-.3h1.4L7 67v1l.6.7.4-.8-.7-1v-.4l1.4-.2v.3H9v-.3l2.3-.3c.3 0 .5 0 .8.2v.3h.6c.6.2 1 .7 1.3 1.5l1 3.4 1 1.7v.2c.4.6 1 1.2 1.7 1.7v.4h.4V75c3 2.2 7.2 1.6 9.4-1 0 .4 0 .7.3.8v-.8h-.3c1-1 1.3-2.2 1.4-3.5l.2-1.2h.3v-.6c0-.2 0-.2-.3 0v-.2c.3-2.8 0-5.4 0-8.2l-.6-2.3v-.4s0-.4-.2-.6c0-.3 0-.4-.3-.4v.3c-1-2-2.6-3.6-5-4.6 0-.5 0-1-.5-1v.8l-1-.4c0 .2-.6 0-2-.3-.5 0-1-.3-1.4-.3 0-.5-.2-.8-.4-1v.7c-.8 0-1-.3-1.5-.5h.6c0-.5-.3-1.2-.7-1.8-.4.3-.4.6-.2 1 .3.4.4.7.3.8-1-1-1-4-.8-6.2 0-5.3 0-5.6 4.7-6.8v.3h.3v-.4c1.7-.4 3-1 4.3-1.8l.3.3h.2c0-.2 0-.4.3-.4V35l1-1.2.5.5.2-.4c0-.2-.3-.4-.4-.4L28 32h1s-.3-.2-.4-.5V31l.8-2.5c2-7 .5-12.2-2.7-13.8h.9c-.3 0-.3-.3 0-.7-.3 0-.4 0-.5-.4-.3 0 0 .4 0 .5h-.3v.7c-.8-.3-1.5-.5-2.4-.5H24s0-.3-.3 0c0-.2 0 0 0 0-1 0-2 0-3 .5-.5-.8-.7 0-.4.3-.5.3-.8.7-1.2 1.2v-.7c-.3 0-.4 0-.3.4v.4l-.7 1.4h-.3V18.6l-.8 2c-.6 2-.6 3-2.2 4v-.2s-.3 0-.4.3c-.5.2-1 .4-1.4.4h-1.6v-.4l-.3-.3v.4c0-.3.3 0 0 0H9v-.3l-.7.3h-3c0-.2 0-.3-.2-.3v.4c-.4 0-1-.2-1.3-.4v-1.3h-.2v1c-.6-.3-1-1-1-2-.4-2.7 0-5.3.5-7.8h.4L3 14c.3-.7.5-1.5 1-2.2v.8l.5.3.3-.5v-.8h-.2l-.4.3v.2H4c.5-1.3 1.2-2.4 2-3.6 0 0 .3 0 .3.3v-.4l.7-1C9.8 4 13 1.8 16.7.7V2c-.3.3 0 .3 0 0h.4L16.8.7c1.6-.4 3.2-.7 5-.7v.3h.4L22 0H25c1.7 0 3.2.4 4.7.8h.3c2.3.7 4.4 1.7 6.4 3 0 .5 0 .6.3.4.7.5 1.3 1 1.8 1.6v.4h.5l1 1.4c2.4 2.8 3.7 6 4.3 9.3-.3 0-.3.4 0 .8h.2V21c0 .3 0 .4-.2.4h.3V24c0 5.2 0 6-.5 8.5v1l-.6 1.5c0-.4 0-.6-.3-.6v.4c-.8-.8-.8 0-.8 0 .5 0 .7.2.7.2-.4 0-.6 0-.5.4 0 0 .4 0 .8-.3 0 .6-.4 1-.6 1.7h-.5.4c-.4.8-.8 1.5-1.3 2v.2l-1 1c-.5.4-1 1-1.3 1.5-2 2.7 0 4.3 2 6.8l2 2.6c1 2.3 2 5.6 2 9zM1.3 75.3L1 75v1.4h.2v-1zm.3-7h-.3v.4h.2v-.3zm.5 1l.4 1 .3.4.3-1-1-.5zm1.3 5.2V74l-.2-.3-.2-.4v-1l-.4.3v.8l.3 1 .6.2zm0 3.2L3 77l-.2.4.3.8.3-.4zm.2-60l-.3-.5v-.8h-.4v1.1h.7zM4 68.3l.5.6h.3V68l-.7.2zm.5 2.5v-.6h-.2l.2.5zm-.2.5v1L5 72l-.4-.3-.3-.2zm0 3.5l.3.8v.5H5l-.2-.3.3-.4V75l-.4-.2-.3.2zm.4-60v.3h-.3v.6l.2.2H5v-.5h-.3l.3-.2V15l-.4-.3v.3zm0 63.8l.2 1 .2.3.3-.3-.3-1-.3-.6-.4.8zM5.3 18H5l.3.4H5v.2H5v.3h-.3l.2.4h-.4.8V18zm.4 3.8l-.3-.5H5V23l.3.4.3-.5v-.4l.2-.5zm-.3 61l-.7-.4v1l.3.3.5-1zm0-59h-.2v.7l.3-.5zM6 10v.8l.4.4.3-.5v-.7L6 9.5l-.2.3zm.5 4.2H6l.4.2.5-.8-.4-.3-.3.2h-.4l-.2.2.3.3.3.3zM6 69.4l.4.8v-.6l-.4-.2zM6 12l.2.4h.3L6 12zm1.2 5H7l-.4-.6-.4.3v.8l.4.3.3-.3v-.3l.2-.2zm-1 55.7l.4 1.2.4.3V73l-.7-.3zm.2-52.4v.3l.5.6-.2-.5H7l-.2-.6v-.3l-.4.6zm.8 4l-.3-.4v-.7l-.5-.3v1.3l.4.3H7V24zm-.7 53l.5.6v-1.3l-.5.5zm.7 3H7l-.4.4v1l.4.4v-1.8zm.2-67.8h.3v-.4l-.3.3v.2zm.2 2.3v.3H8v.8l.4-.4L8 15l-.2-.4-.2.2zm0 2.2H8v-.3l-.3.3zm0 54.8l1 .3-.5-1-.3.8zm.5-53.2v.4l.2.3V18L8 18v.4zm0 57.2l.4.3v-.4l-.3-.4v.6zm.7-54h-.4V23h.3v-1.2zm0 2l-.4.2h.4zm-.3 56v.3H9l-.2-.6-.3-.3v.8zM9 83h-.5l.4.5H9V83zM9 7.2l.3-.4H9l-.2.2.2.2zm.4 2.8v.3l-.3.4h.5v-.8l-.3-.6-.3.3H9v.2h.2zm0 3.8l.2.5.3-.4v-1h-.5v.8zm0 2.3l.2.4v-.2l-.3-.3h.2zm.6 1h-.5v.5l.2.3.5-.3-.2-.6zm.4 6.8L10 23v.4h-.4l-.3.4.3.4h.3v.3h.3V24zm-.4-3.3h-.4v.4h.5v-.5zM10 70l-.2-.6v1.1-.5zm.3-49.6v-.7H10v.6h.3zm0-15.2l.3.2v-.6l-.2.2v.2zm.7 83.5v-.4h-.5l.4.2-.2.4.2-.3zm-.4-81l.3.4v-.3h-.4zm0 4l.4.6.3-.3v-.8l-.4-.5-.3 1zm.4 3.8l.4.3.3-.5h-.4l-.3.2zm.7 2.7l-.4-.4v.5H11v.3h.4l.3-.4zM11 67.7h.5v-.4l-.4.4zm.2 4v.4l.5.4v-1.7H11l.2 1zm.5-50l-.3-.4-.3.7.4.4v.2l.2-.2v-.8zM11.5 68l-.3.3v.3l.5-.4-.2-.2zm-.2 6.8l.3.8v.4l.2.3v-1l-.5-.5zm.2 3.2l.3 1v.4-1.2l-.3-.2zm1 5.2l-.6-.5-.2.5.5.5v-.5zm-.2-73l.3.3v-1H12v.7zm0 2.5l.4 1v.2l.2-.4v-1h-.6zm.3 3.7v.6l.2.4v-.7l-.2-.5v.4zm.2 4l.3.4.4-.3V20H13V20l-.2.5zm.6 3L13 23v.7h.4v-.4zM13.6 2V2L13 2h.4zm-.4 68l.2-.4v-.3H13v.7zm0 2.6V74l.2.2V72l-.2.8zm.4-68.4l-.3-.3v1h.2v-.6zM13.3 77v.4l.2-.4-.3-.7v.7zm.3 4v.6l.2-.2v-.8l-.3-.4v1zm0-69.6h.5l-.3-.5v.4zm.5 73.4l-.2-.3v.5l.3-.2zm.2-69.8l.2.5v-1H14l.2.5zm0 2.7l.2-.4-.2.4zm0 1.3h.4V18l-.2.2v.8zm.7 3.2l-.4-.5v.3l.3.2zm-.4 49v1l.3-.5V71l-.2-.4h-.3v.7zm.4 4.2h-.3v.6l.3-.6zm.2-73H15v.2h.2v1-1zm.3 80.4l-.3-.7v1.4l.3-.6zM16 10l-.4.4.4-.6-.3-.3.2.6zm-.2 3l.3.4.2-.4h-.4zm0 29l.3 1 .2-.5-.4-.4zm.4-24.7h.3V17l-.3-.2v.5zm0 28.7l-.2-.8v.8h.3zm.3-26.2l-.4-.3v.3l.2.8h.3v-.8zm0-15.5l.2.5V4l-.3.3zm0 72.5h.3v-.4h-.2l-.2.4zm.4-68.3l.3-.3V8l-.3-.4V8h-.3v.5zm-.3 72v.5h.4l-.2-.6zm.5 4.5l.4-.4h-.3v-.2.4h-.5l.4.2zm0-73.3v.6-.5zm.3 3.3l.3.3V14.7l-.3-.5-.3-.3v.3l.3.7zm-.3 26l.4.8.3-.4v-.8h-.3l-.3-.4h.3l.3-.5-.4-.3-.3.3V41zm1 47.7l-.2-.5-.5-.4h-.3v.8l.4.4.5-.3zM17 11v.4l.4.3v-.3l-.3-.5zm.4 34l.5-.2V44l-.3-.4h-.4l.3 1.5V45v.3zm.4-26.7l-.3-.5h-.3v.5l.3.3.3-.3zm.4 29.6l-.7-.5v1.3h.8v-1zm.5 31l-.2-.2v-.4h-.4V79l.3.5h.3V79zm-.4-69h.3v-.3h-.4v.4zm.5 3.4v-.7h-.3v.5l.4.2zm0 29.4l.2.3.3.2v-.8H19v.4zm.3 47.6v-.7l-.2-.3v.7l.3.4zm0-46.3v.9l.2-.6V44zm0 2v.2l.4.4V46l-.2-.2h-.2zm1 3.3h-.4l-.2-.5v-.4l-.4 1.2.8.5v-.7zm-.6-48v.5h.4V1h-.3v.3zm0 3.8h.4v-.4L20 5zm.5 3V6.8l-.2.3.2.6zm.5 3.2l-.4-.7v1h.3v-.3zm0 69H20h.4zm.3-36v-1l-.2.5v1l.2-.6zm-.2-3l.3.3.4-.3h-.6zm.6 50.7l-.3-.6V91v.7l.4.2zm.7-40.4l-.3-.3V51l-.4-.5-.3.5.6 1h.4v-.4zm-.5-49h.3v-.4l-.3.5zm.2 3.5v.2h.4L22 6zm0 3.2l.4.6h.5-.3.4l-.3-.6h-.6zm.2 73.6l.3.5.3-.3-.3-.4-.4.2zm0 3v.5h.6l-.4-.7-.3-.6-.2.4.3.3zM22 12v.3-.3l.4-.3H22v.3zm.8 1h-.3V12.3h-.3v1.1h.3l.3-.5zM22 39l.2.8v-1 .3zm1 51l-.5-1.2-.4 1 .2.5h.7V90zm-.7-48v.2h.4-.2l-.2-.3zm1 4.3l-.5-1v-.7l-.3.3v.5l.3.3v.3l-.2.2.3.5.3-.4zM23 1.6h.2V1l-.2.2v.4zm0 3.2h.4v-.5H23v.5zm.3 43.2l-.2.4v.3l.3-.7zm0-40l.4.4V8l-.4-.7V8zm1 3.2L24 11v.2H24v-.5h-.4v.6l.4.3.4-.4zm-1 70l.5-.2-.4-.4v.7zm.8 3.3L24 84h-.3l.3.5h.3zm0-70.8l-.2.3h.3v-.3zM23.7 37l.3 1v-1.4l-.3.5zm.3 4h.3v-1H24v1zm0 2.8l.2.8.4.4v-.4l-.3-.8H24zm.7 4l-.3-1-.3.4.5.8.2-.3zm0-42.2V6l.2-.4-.2-.3v.3zm.8 73.3l-.3-.8-.3-.3-.4.3 1 .6zM25 6.7V6v.7zm0 28.8s0 .2 0 0zm.4 15.5H25v.4l.4-.3zm.4 32V82.2l-.4-.7H25v.6h.2l.3-.3v.3h-.2v.9l.2.2h.3zM25 9.3l.4.3v-.7l-.3.4zm.3.6h.3v-.3l-.3.3zm.5 3.3v-1l-.4.4v.7l.4.4V13zm-.4 25.7v.7l.4-.5-.3-.6v.3zm.4 47l-.4-.4v.3l.3.3v-.4zm-.2-43.3h.3V42h-.5v.4zm.6-40.8V.8L26 1v.4l.2.2zM26 46.3l.6.3V46l-.3-.3-.3-.7v1.3zm.3 43.7v-.8L26 89v.6l.3.7V90zm.3-85.7h-.3V5l.4-.3v-.2zm.2 3v-.5l-.2-.3h-.3l.3.4-.3.2v.3l.3-.4.2.2zm-.5 41.6v.8l.4-.5-.4-.4zm.5 3.8l-.3-.5V52l-.2.6.5.2zm0 27.5l.2-.4h-.3v.5l.2-.2zm.5-69.2l.2-.3-.3-.3v.3l-.3-.3h-.4v.5l.3.4v-.2h.4zM27 37.4l.2.3h.4l-.3-.4v-.4l-.2.5zm.2 3v-.5H27l.2.4zm0 43.7h.3l-.2-.5v.5zm0-40l.4.6.2-.3-.3-.7-.2.5zm.7 44l-.4-.6V87l-.3.2v.9h.6zM27.5 47l.4.8V47l-.2-.5-.2.7zM28 2.5l-.2.5h.4v-.7l-.3-.5-.2.3.2.5zm.4 6.5v.5l.3.3v-.5l-.3-.5v-.4H28V9l.3.2V9zM28 51.8l.6-.5v-.8H28V51.6zm.5-46h-.3v.5h.6l-.3-.4zm.4 73.3l-.2-.4v-1l-.6 1 .7.6zM28.4 35v.4h.2V35l.2-.2v.3-.3l-.3-.5V34l-.2-.2v1zM29 55l-.2-.7h-.3v.7h.4zm-.4-42.5v1l.4-.5v-1h-.3v.5zm0 23l.3.2v-.4l-.4.3zm.3 46.2h-.4v.2l.3-.3zm0 0l-.4.2v.2l.2.4v-.8zm-.2-66.6v.9l.4.2v-.4l-.2-.5-.2-.2zm0 24l.4-.7h-.4v.8zm.6-22.6h-.5v.2h.3v-.2zm.3 28.8l-.7-.4.5 1.4.2-1zm-.4 40H29v.8l.3.5v-1.3zm.4-14l.3.5V71l-.3.3zm.5-18l-.4-.5v.8l.4-.3zm0 19.6L30 72V72h-.2V73.3h.4v-.6zm0 3.4l-.3-.5-.2.4v.5l.4-.3zM30 29.5l.3.7V30l.4-.5-.2-.2H30v.2zm.3 27.4h.4v-.4l-.5-.8H30v.5h.2v.6zM30 10.3l.2.5v-.7zm.3 23.3l.4-.6-.5-.3v1zm0-19h.4v.3-1h-.4v.6zm0 22l.5.8.3-.4v-.5l-.4-.5-.3.7zm1 27.3v-.3L31 63l-.5.2.6.8h.4zM31 84.4V84h-.2v.4h.2zm0-66.7v.4-.7l-.3-.7v.4l.3.7zm-.2 22l.3 1v.4-1.5l-.4.2zm.6-19l-.2.4v.2h.2v.4l.2.3v-1.1l-.3-.7.2.5v.2zm-.4 23l.4.8h.3v-.3l-.3-.8-.4.2zm.4 23.3l-.4-.5v.7l.4-.2zm.2-19.8v.8h.2v-1.5h-.3l-.3.3v.4h.4zM31 2.7h.5-.3v-.5.5zm.5 21.4L31 24v.4h.5zM31 28l.6 1v-1H31zm1.3 4.2v-.3L32 31v-.3l-.4-.3h-.3l.5 1.7h.5zm-.7-23.4V9h.2v-.4h-.2zm.2 26l.3-.4H32l-.2.5h.2zm-.3 16v.6l.4.3V51l-.4-.8v.4zm0 17h.4v-.3l-.4.3zm0 10.8h.6l-.3-.6v.6zM32 9h-.2v.6L32 9zm.3 26.5v-.8H32l-.3.5.3.3h.3zm-.2-23l-.2.3v.4h.4v-.7zm0 42.2v.4l.2-.2H32zm.5 28.3v-.5H32v.4h.5zm0-65l-.3.2.3.3V18zm0 24v.4l.3-.7-.5-.4.2.7zm0 19.4V61l-.2.6h.3v-.2zm.3-39.2l-.3.5v.3h.4v-.3l-.2-.5zm.4 46.6h-.4v.5h.2l.2-.5zM33 7.5v-.3.3zm.3 18.2H33l.2 1v-1zm.3 3.6H33l.4.8.2-.7zm-.4 2.2v.3h.2v-.2h-.2zm0 1.5l.4 1 .4-.4v-.3l-.3-.8-.6.5zm0 20.2l.3.4v-1h-.3v.6zm0-42.7l.5.5v-.4l-.3-.4v.3zm.4 20.3l-.3.3h.3v-.2zm.2-17.4V13v.2h-.4v.4l.3.8.4.3v-.3l-.2-1zm-.4 22V37l.2.4.3-.7-.4-.8V35l-.2.3zm0 21l.5-.2-.4-.7-.2.8zm.7-39.6l-.3-.4v.3h.2V18v-1.2zM33.7 39l.5.4V39h-.4zm0 20.7l.2.7h.3v-.5l-.3-.3zm.5 4.4h.2V63h-.4l.3 1zm.5-41.2l-.2-.4-.3.3h.5zm-.3-1.5l.3.3.3-.3v-1h-.5v1zm0 22.4l.3.8V43h-.3v.7zm.4 23v-.4L34 66l.3.7v.4-.3zm0 21.2v-.6H34v.3l.4.2zm.4-63.4l-.3-.8-.3.6.6.2zm-.3 2.7V26v.4l-.3.8v.7l.5.4-.3-1zm-.2 20.3h.7l-.4-.4-.3.4zm0 3.4l.5.4h.3l.4-.6-.7-.7v.4l-.4.6zm.8-19.8v-.4l-.4-.4v.7l.3.6h.3v-.3h-.3zm0 4.2v-.8L35 34v.6l.4.8zm-.3 19l.7.6v-1H35l-.2.5zm.3-40.5l.4.2v-.4h-.4zm0 44.3h.8v-.5h-.5v.6zm.4-19.4v-.4l-.2-.3v.4l.2.2zm-.2 23l.3.2v-.8l-.2-.3v1zm.2-44.4v.5l.2-.2-.3-.2zm0 24v.5l.4.2v-1l-.3.4zm.6 23.3l-.5-.4v-.4l-.2.3.3.3v.5l-.2.3h.4V65zM36 19v-.4l-.3-.3v.8l.4.8V19zm.2 3H36v.8l.4.3v-.5l-.2-.5zm.2 23.6l.3-.4V45l-.5-.5H36v.6l.4.6zm-.4-1.4h.2V44H36v.2zm.4-18.3v-1H36v.4l.2.5zm0-15.6h.4V10l-.4.6zm.2 18.7v.6h.4l-.4-1v.5zm0 43.2l.3.7.2-.4v-.3l-.3-.5-.4.4zm0-16.8l.2.3v.5l.2-.3v-.4l-.3-.2zm.5-23V32v1l.2.8v-1zM37 76.2l.5.2-.4-.6-.2.5zm.4-62.5H37v.7h.3v-.8zm0 23.6l.3.2v-.7L37 36v.4l.2.7zm.3-20h-.3v1h.2v-1zM37 80.5l.5.3v-1l-.4-.3v1zm.6-41l-.3.4v.3l.2.4.3-.5-.2-.7zm.3 44h-.4v-.3l-.2-.3v.5l.4.3v-.2zm-.3-59.2l.3.3V24l-.3.3zm.7 22L38 46l-.3.3v1.4h.3l.3-.7v-.6zM38 21.6h.2L38 21v.5zM38.3 9v.3L39 9v-.3l-.4.3zm.5 2.7l-.4.3v.5h.2v-.2l.2-.5zm-.5 45.5l.3.7.5-.2-.8-.6zm0-2.5h.5V54l-.4.2v.5zM39 78l-.2-.8v.5l.2.3zm.2-40.3l-.2.7v.4l.2-.3v-.8zm.2 23l-.3.5.2.3.4-.5-.4-.3zm0 21.2V81H39v.6h.3zm0-63H39l.3.6V19zm.5 46v-.3l-.4.4h.4zm-.3-55h.5l-.2.2v.7h.3l.2-.3V10l-.3-.4h-.5l.3-.3-.4.6zm.4 16v-.8h-.3v.7h.3zm0 42.5h.3l-.4-.4v.5zm.8-54.8h-.8l.5.8.3-.8zm-.4 16V29h-.4v.6l.4-.2zm-.4 39h.3-.2zm.4-36.8l-.3.2h.2V32zM40 52.4l.2.3V52H40v.5zM40 73l.4-.4V72H40v.9zm.3-55.6l.3.3v-.4l-.4-.3v.4zm1 18.7h-1v.6l.4.3.4-.2v-.3l.2-.4zm-1 40v.3-.2l.2.2v-.4h-.2zm.2-20v.4h.4l-.2-.5h-.3zm.5 3.2l-.5.3.4.5v-.8zm0 20h-.5v.8l.4-.3v-.5zm-.3-59v.4h.2v-.2h-.3zm.4.6h-.3v.5l.5-.3v-.2zm.4 3.6v-.7l-.4-.4v1.3h.3zm0 42.2l-.2-.3v.4h.3zm0-54.2h.4l.2-.4h-.3l-.2.4zm.8 58.3l-.4-.5v.7l.4-.3zM42 16V15v.3l-.2.6.2.5zm.4 3l-.4-.6v.7l.3.5V19zm0 2.7l-.2-.4v.4zm0 36v-.3l-.2.3zm.4-32.6l-.4-.2.3 1v.2-1zm-.3 36.4l.4-.5-.6-.4v.7zM43 29l-.2.4.3.4.4-.5-.5-.3zm.2 36l-.3-.4v.3h.2zm.4 3.5l-.3-.3v.5l.3-.2zm0-12.7h.4v-.6l-.4.6zm.6 20V75l-.5.6.4.4h.2v-.2zm.7-8.5l-.2-.4v-.4h-.3v.4l.4.3z"/></svg>