<svg xmlns="http://www.w3.org/2000/svg" viewBox="0 0 851.87548 274.04632" height="274" width="851.9"><switch transform="translate(-89.087 -386.116)"><g><path fill="#48b9b2" d="M89 528.5h138.4v131.7H89zM264.3 528.5h146v130.7h-146zM451.3 528.5h135.2v132.7H451.3zM638.3 528.5h117v129.7h-117zM792.3 528.5H941v129.7H792.2z"/><path fill="none" d="M218.4 294H775v86H218.3zM1201.3 863.3h130.2V941h-130.2zM1153.4 389.6h248.4v77.7h-248.4zM1524.7 389.6H1773v77.7h-248.3zM108.7 545.7h81v108.7h-81z"/><text transform="translate(108.734 558.29)"><tspan font-size="18" y="0" x="0" font-family="Verdana" fill="#fff">Sistemas de </tspan><tspan font-size="18" y="21.6" x="0" font-family="Verdana" fill="#fff">producción:</tspan><tspan font-size="18" y="43.2" x="0" font-family="Verdana" fill="#fff">Agricultura</tspan><tspan font-size="18" y="64.9" x="0" font-family="Verdana" fill="#fff">Pesca</tspan><tspan font-size="18" y="86.5" x="0" font-family="Verdana" fill="#fff">Acuicultura</tspan></text><path fill="none" d="M276 545.7h96.2v76h-96z"/><text y="591.8" x="272.1" font-size="18" font-family="Verdana" fill="#fff">Procesamiento</text><path fill="none" d="M308.3 443.3H685V472H308.3z"/><text font-size="24" transform="translate(412.33 460.116)" font-family="Verdana" fill="#402a16">De la mesa a la granja</text><path fill="none" d="M308.3 732.7H685v28.6H308.3zM461.7 545.7h98.8v76h-98.8z"/><text y="573.1" x="461.7"><tspan font-size="18" y="573.1" x="461.7" font-family="Verdana" fill="#fff">Alimentos </tspan><tspan font-size="18" y="594.7" x="461.7" font-family="Verdana" fill="#fff">seguros y de </tspan><tspan font-size="18" y="616.3" x="461.7" font-family="Verdana" fill="#fff">alta calidad</tspan></text><path fill="none" d="M652.7 545.7h65.8v122.8h-65.8z"/><text y="583" x="649.8"><tspan font-size="18" y="583" x="649.8" font-family="Verdana" fill="#fff">Ingesta de </tspan><tspan font-size="18" y="604.6" x="649.8" font-family="Verdana" fill="#fff">alimentos</tspan></text><path fill="none" d="M808.6 545.7h85.6v116.7h-85.6z"/><text y="564.2" x="804.6"><tspan font-size="18" y="564.2" x="804.6" font-family="Verdana" fill="#fff">Salud y </tspan><tspan font-size="18" y="585.8" x="804.6" font-family="Verdana" fill="#fff">bienestar de </tspan><tspan font-size="18" y="607.4" x="804.6" font-family="Verdana" fill="#fff">los </tspan><tspan font-size="18" y="629.1" x="804.6" font-family="Verdana" fill="#fff">consumidores</tspan></text><path fill="#48b9b2" d="M232.2 577.8h19.3v16.6h-19.3z"/><path fill="#48b9b2" d="M246 567.2l16.5 19-16.6 19.3M412.3 578.8h30v16.6h-30z"/><path fill="#48b9b2" d="M434 567.2l16.4 19-16.5 19.3M593.3 578.8h30v16.6h-30z"/><path fill="#48b9b2" d="M615 567.2l16.5 19-16.6 19.3M760.2 578.8h16.3v16.6h-16.3z"/><path fill="#48b9b2" d="M774 567.2l16.5 19-16.6 19.3"/><path fill="#e1c298" d="M176 514.4l-40.3-3-3-40.3"/><path d="M161 497.8c62.6-57.4 194.4-96.6 337.6-96.6 143 0 275 39.2 337.7 96.6h27.2c-65.2-66-204-111.7-365-111.7-160.8 0-299.7 45.7-365 111.8H161z" fill="#e1c298"/></g></switch></svg>