<svg xmlns="http://www.w3.org/2000/svg" width="850.9" height="415.8" viewBox="0 0 850.88884 415.84399"><switch transform="translate(-89.087 -386.116)"><g><path fill="#48b9b2" d="M89 528.5h138.4v127.7H89zM264.3 528.5h149v129.7h-149zM451.3 528.5h133.2v129.7H451.3zM638.3 528.5h122v129.7h-122z"/><rect x="792.3" y="528.5" width="147.6" height="129.7" ry="2" fill="#48b9b2"/><path fill="none" d="M218.4 294H775v86H218.3z"/><text transform="translate(357.037 320.464)"><tspan x="0" y="0" font-size="38" font-family="Verdana">CADENA ALIMENTARIA:</tspan><tspan x="14.3" y="36" font-size="38" font-family="Verdana">Del campo a la mesa</tspan></text><path fill="none" d="M1201.3 863.3h130.2V941h-130.2z"/><text transform="translate(1229.702 889.876)" font-size="38" font-family="Verdana">pesca</text><path fill="none" d="M1153.4 389.6h248.4v77.7h-248.4z"/><text transform="translate(1206.31 416.153)" font-size="38" font-family="Verdana">agricultura</text><path fill="none" d="M1524.7 389.6H1773v77.7h-248.3z"/><text transform="translate(1585.208 416.153)" font-size="38" font-family="Verdana">ganadería</text><path fill="none" d="M108.7 545.7h81v108.7h-81z"/><text transform="translate(108.734 558.29)"><tspan x="0" y="0" font-size="18" font-family="Verdana" fill="#fff">Sistemas de </tspan><tspan x="0" y="21.6" font-size="18" font-family="Verdana" fill="#fff">producción:</tspan><tspan x="0" y="43.2" font-size="18" font-family="Verdana" fill="#fff">Agricultura</tspan><tspan x="0" y="64.9" font-size="18" font-family="Verdana" fill="#fff">Pesca</tspan><tspan x="0" y="86.5" font-size="18" font-family="Verdana" fill="#fff">Acuicultura</tspan></text><path fill="none" d="M276 545.7h96.2v76h-96z"/><text font-size="18" x="273.1" y="590.8" font-family="Verdana" fill="#fff">Procesamiento</text><path fill="none" d="M308.3 443.3H685V472H308.3z"/><text font-size="24" x="363" y="460.1" font-family="Verdana" fill="#402a16">De la mesa a la granja</text><path fill="none" d="M308.3 732.7H685v28.6H308.3z"/><text font-size="24" x="368.9" y="748.4" font-family="Verdana" fill="#402a16">De la granja a la mesa</text><path fill="none" d="M461.7 545.7h98.8v76h-98.8z"/><text x="460.7" y="571.1"><tspan x="460.7" y="571.1" font-size="18" font-family="Verdana" fill="#fff">Alimentos </tspan><tspan x="460.7" y="592.7" font-size="18" font-family="Verdana" fill="#fff">seguros y de </tspan><tspan x="460.7" y="614.4" font-size="18" font-family="Verdana" fill="#fff">alta calidad</tspan></text><path fill="none" d="M652.7 545.7h65.8v122.8h-65.8z"/><text x="650.8" y="582"><tspan x="650.8" y="582" font-size="18" font-family="Verdana" fill="#fff">Ingesta de </tspan><tspan x="650.8" y="603.6" font-size="18" font-family="Verdana" fill="#fff">alimentos</tspan></text><path fill="none" d="M808.6 545.7h85.6v116.7h-85.6z"/><text transform="translate(808.567 558.29)"><tspan x="0" y="0" font-size="18" font-family="Verdana" fill="#fff">Salud y </tspan><tspan x="0" y="21.6" font-size="18" font-family="Verdana" fill="#fff">bienestar de </tspan><tspan x="0" y="43.2" font-size="18" font-family="Verdana" fill="#fff">los </tspan><tspan x="0" y="64.9" font-size="18" font-family="Verdana" fill="#fff">consumidores</tspan></text><path fill="#48b9b2" d="M230.2 578.8h18.3v16.6h-18.3z"/><path fill="#48b9b2" d="M247 605.5v-38.3l16.5 19M416.2 578.8h19.3v16.6h-19.3z"/><path fill="#48b9b2" d="M432 605.5v-38.3l16.5 19M591.3 581.7h30v16.6h-30z"/><path fill="#48b9b2" d="M613 608.4V570l16.5 19.3M764.2 579.8h19.3v16.6h-19.3z"/><path fill="#48b9b2" d="M775 606.4v-38.2l16.5 19"/><path fill="#e1c298" d="M137.6 514l-10-39 50.3 34.8"/><path d="M161 497.8c62.6-57.4 194.4-96.6 337.6-96.6 143 0 275 39.2 337.7 96.6h27.2c-65.2-66-204-111.7-365-111.7-160.8 0-299.7 45.7-365 111.8H161z" fill="#e1c298"/><path fill="#402a16" d="M855.7 674l10 39.2-50.2-35"/><path d="M832.5 690.2C769.8 747.7 638 787 494.8 787c-143 0-275-39.3-337.7-96.8H130C195 756.2 334 802 494.8 802s299.8-45.7 365-111.8h-27.3z" fill="#402a16"/><path d="M1144.8 663.2l4.7 7.3c1 1.6 2.4 2.7 4.2 3l8.5 2.3c1 .3 1.6 1.7.8 2.6l-5.6 6.7c-1 1.5-1.7 3.3-1.6 5l.6 8.8c0 1.2-1 2-2.3 1.7l-8-3.3c-1.7-.6-3.5-.6-5.2 0l-8 3.3c-1.3.4-2.5-.5-2.4-1.7l.6-8.7c0-1.7-.5-3.5-1.6-5l-5.6-6.6c-.8-1-.3-2.3.8-2.6l8.5-2.2c2-.4 3.4-1.5 4.3-3l4.7-7.4c.7-1 2-1 2.8 0z" fill="#8bbf43"/><g fill="#00905e"><circle cx="1143.4" cy="667.8" r="1.4"/><circle cx="1143.4" cy="673.8" r="2.3"/></g><g fill="#00905e"><circle cx="1129.5" cy="678.8" r="1.4"/><circle cx="1135.4" cy="680.3" r="2.3"/></g><g fill="#00905e"><circle cx="1134.9" cy="694.6" r="1.4"/><circle cx="1137.9" cy="689.4" r="2.3"/></g><g fill="#00905e"><circle cx="1151.9" cy="694.6" r="1.4"/><circle cx="1148.9" cy="689.4" r="2.3"/></g><g fill="#00905e"><circle cx="1157.3" cy="678.8" r="1.4"/><circle cx="1151.4" cy="680.3" r="2.3"/></g><circle cx="1143.4" cy="682.6" r="3.2" fill="#00905e"/><path d="M1162.2 675.8l-8.5-2.2c-1.8-.4-3.3-1.5-4.2-3l-4.7-7.4c-.3-.6-1-.8-1.4-.8v4c.8 0 1.4.6 1.4 1.4 0 .7-.6 1.3-1.4 1.3v2.5c1.3 0 2.3 1 2.3 2.3 0 1.2-1 2.3-2.3 2.3v3.4c1.8 0 3.2 1.4 3.2 3.2 0 1.8-1.4 3.2-3.2 3.2v11c1 0 1.8 0 2.6.4l8 3.3c1.3.4 2.5-.5 2.4-1.7l-.6-8.7c0-1.7.5-3.5 1.6-5l5.6-6.6c.8-1 .3-2.3-.8-2.6zm-12.2 15.6c-1 .6-2.4.2-3-.8-.7-1-.3-2.5.8-3.2 1-.6 2.4-.2 3 1 .7 1 .3 2.4-.8 3zm2.6 4.4c-.7.4-1.5.2-2-.5-.3-.6 0-1.5.6-2 .7-.2 1.5 0 2 .6.3.6 0 1.4-.6 1.8zm-.6-13.3c-1.2.3-2.4-.4-2.8-1.6-.3-1.3.4-2.6 1.6-3 1.3-.2 2.5.5 2.8 1.7.4 1.2-.4 2.5-1.6 2.8zm5.6-2.4c-.7.3-1.5-.2-1.7-1-.3-.6.2-1.4 1-1.6.6-.2 1.4.3 1.6 1 .2.7-.3 1.5-1 1.7z" fill="#76a836"/><path d="M1144.8 667.8c0-.8-.6-1.4-1.4-1.4v2.7c.8 0 1.4-.5 1.4-1.2zM1145.7 673.8c0-1.3-1-2.3-2.3-2.3v4.6c1.3 0 2.3-1 2.3-2.2z" fill="#00764d"/><circle cx="1151.9" cy="694.6" r="1.4" fill="#00764d"/><circle cx="1148.9" cy="689.4" r="2.3" fill="#00764d"/><circle cx="1157.3" cy="678.8" r="1.4" fill="#00764d"/><circle cx="1151.4" cy="680.3" r="2.3" fill="#00764d"/><path d="M1146.6 682.6c0-1.8-1.4-3.2-3.2-3.2v6.4c1.8 0 3.2-1.4 3.2-3.2z" fill="#00764d"/><g><path d="M1345 801.4l-12.7 7.3c-1.6 1-1.6 3.3 0 4.2l12.6 7.2c1.6 1 3.6-.2 3.6-2v-14.7c0-2-2-3-3.7-2z" fill="#c2c1c1"/><path d="M1288.8 815.2h25.6l3.3 7.2c.7 1.6-.4 3.5-2.2 3.5h-20.3c-1 0-1.8-.7-2.2-1.6l-4.2-9.2z" fill="#fff"/><path d="M1284.7 810.8c0-3.4-1.6-6.5-4-8.7 27-9 49.3 2 56.7 6.8 1.7 1 1.7 3 0 4-7.4 5-28.8 14.4-56.8 6.7 2.5-2.2 4-5.3 4-8.7z" fill="#00905e"/><path d="M1270.4 810.8c0-4.6 6-7.3 9-8.3l1.2-.4c2.5 2.3 4 5.4 4 8.8 0 3.4-1.5 6.5-4 8.7l-1.2-.3c-3-1-9-3.8-9-8.4z" fill="#f8ae3c"/><circle cx="1278.1" cy="807.2" r="1.8" fill="#676767"/><g><path d="M1338.7 810.8h10v7.3c0 2-2 3-3.8 2.2l-10.2-5.8c1-.6 2-1 2.6-1.6 1-.5 1.3-1.3 1.3-2z" fill="#e3e3e2"/><path d="M1284.7 810.8h54c0 .7-.4 1.5-1.3 2l-2.6 1.6c-4 2.2-10 4.8-17.8 6.4-7.2 1.5-15.7 2.2-25.2 1-3.6-.5-7.3-1.2-11.2-2.3 2.5-2.2 4-5.3 4-8.7z" fill="#00764d"/><path d="M1284.7 810.8c0 3.4-1.6 6.5-4 8.7-.5 0-1-.2-1.3-.3-3-1-9-3.8-9-8.4h14.3z" fill="#f39021"/></g></g><g><path d="M1406.6 634.8l-50.8 35.4c-18.8 13-43.6 13.6-63 1.2l-48.2-34.7v69" fill="none" stroke="#4e4e4e" stroke-width="2.6" stroke-linecap="round" stroke-linejoin="round"/><path fill="#4e4e4e" d="M1244.6 712.6l-4.2-10 4.2 1.7 4.3-1.8"/><path d="M1405.7 637.6l-217.8 2V630l217.7 2c1.6 0 2.8 1.2 2.8 2.8 0 1.5-1.2 2.8-2.8 2.8z" fill="#00905e"/><path d="M1239.6 641.2H1186c-1 0-2-1-2-2v-9c0-1 1-2 2-2h53.6c1.7 0 3 1.4 3 3v7c0 1.7-1.3 3-3 3z" fill="#8bbf43"/><g><path d="M1242.6 635.5c0 1.4-.5 2.6-1.2 3.5l164.3-1.4c1.6 0 2.8-1.3 2.8-3h-166v1z" fill="#00764d"/><path d="M1242.6 634.7H1184v2.7c0 2 1.8 3.8 4 3.8h49c1.7 0 3.3-1 4.4-2.2.7-1 1.2-2 1.2-3.5v-.8z" fill="#76a836"/></g><g><circle cx="1248.7" cy="642" r="9.4" fill="#4e4e4e"/><circle cx="1248.7" cy="642" r="6.6" fill="#f39021"/></g></g><g><path d="M1205.4 726.7c18 1.2 53.2 7 53.2 34.2H1222s2-13.8-18.6-29c-2.4-1.8-1-5.5 2-5.3z" fill="#e2ad39"/><path d="M1209.7 807.7c15-1 44-6 44-28.2h-30.2s1.6 11.3-15.4 23.8c-1.8 1.5-.7 4.6 1.7 4.4z" fill="#be292e"/><path d="M1204.6 764.6L1181 751c-3-1.7-6.7.4-6.7 4v.4c0 1 .4 2.2 1 3l.3.2c4.7 5.8 4.7 14 0 19.8l-.2.2c-.7.8-1 2-1 3v.4c0 3.5 3.7 5.7 6.7 4l23.6-13.6c3-1.7 3-6 0-7.8z" fill="#e2ad39"/><path d="M1259.2 769.2c0-6.7 1.8-12.7 4.8-17-31.4-17.8-57 3.7-65.6 13-2 2.2-2 5.7 0 8 8.5 9.2 33.2 27.7 65.5 12.8-3-4.3-4.8-10.3-4.8-16.8z" fill="#29a2a4"/><path d="M1281.7 769.2c0-5.3-13-14.2-16.3-16.2l-1.4-.8c-3 4.3-4.8 10.3-4.8 17 0 6.5 1.8 12.5 4.7 16.8l1.4-.6c3.4-1.7 16.3-10.7 16.3-16.2z" fill="#e2ad39"/><g fill="#fff"><path d="M1251 784l1.3-36.8c-1.7-.5-3.3-1-5-1l1.6 37.8c0 1.2 1.8 1.2 2 0zM1241 782l1.3-36.6h-4.8l1.4 36.6c0 1.2 1.8 1.2 2 0zM1231 780l1.2-34c-1.6.2-3 .5-4.6 1l1.3 33c0 1.2 1.8 1.2 2 0zM1221 778l1-29.2c-1.4.5-2.8 1-4.2 1.8l1 27.4c.2 1.2 2 1.2 2 0zM1211 776l.7-22c-1.2 1-2.4 1.7-3.6 2.5l1 19.5c0 1.2 1.8 1.2 2 0z"/></g><circle cx="1268.7" cy="761.6" r="2.1" fill="#4e4e4e"/><g><path d="M1221.5 788.4c-2 4.2-6 9.4-13.4 15-1.8 1.4-.7 4.5 1.7 4.3 12.2-.8 33.5-4.2 41.2-17.3-11.3 2.4-21.3 1-29.5-2zM1198.4 773c-1-1-1.5-2.5-1.5-4h-18c0 3.4-1.2 6.7-3.4 9.4l-.2.2c-.7.8-1 2-1 3v.4c0 3.5 3.7 5.7 6.7 4l19.2-11-1.8-2z" fill="#544842"/><path d="M1259.2 769h-7.8l-.5 15c-.2 1.2-2 1.2-2 0l-.7-15h-7l-.4 13c-.2 1.2-2 1.2-2 0l-.6-13h-7l-.5 11c-.2 1.2-2 1.2-2 0l-.5-11h-7.3l-.3 9c-.2 1.2-2 1.2-2 0l-.5-9h-7.4v7c-.2 1.2-2 1.2-2 0l-.4-7H1197c0 1.5.4 3 1.4 4 .5.7 1 1.3 1.8 2 4.5 4.4 11.8 10 21.3 13.4 8.2 3 18.2 4.4 29.4 2 4-1 8.4-2.3 13-4.4-3-4.3-4.8-10.3-4.8-16.8z" fill="#29a2a4"/><path d="M1259.2 769.2c0 6.5 1.8 12.5 4.7 16.8l1.4-.6c3.4-1.7 16.3-10.7 16.3-16.2h-22.5z" fill="#544842"/><path d="M1249 784c0 1.2 1.8 1.2 2 0l.4-15h-3l.5 15zM1239 782c0 1.2 1.8 1.2 2 0l.4-13h-3l.5 13zM1229 780c0 1.2 1.8 1.2 2 0l.3-11h-2.8l.4 11zM1221 778l.2-9h-2.7l.4 9c0 1.2 1.8 1.2 2 0zM1211 776v-7h-2.4l.3 7c0 1.2 1.8 1.2 2 0z" fill="#cac9c9"/></g></g><g><circle cx="1272.2" cy="589.8" r="10.4" fill="#6ec6d5"/><path d="M1272.2 579.5v20.7c5.8 0 10.4-4.6 10.4-10.4 0-5.7-4.6-10.3-10.4-10.3z" fill="#57bfc8"/><circle cx="1269.9" cy="585.6" r="3.5" fill="#fff"/></g><g><circle cx="1277.2" cy="732.6" r="8.8" fill="#6ec6d5"/><path d="M1277.2 723.8v17.6c5 0 8.8-4 8.8-8.8 0-4.8-4-8.8-8.8-8.8z" fill="#57bfc8"/><circle cx="1275.2" cy="729" r="3" fill="#fff"/></g><g><circle cx="1217.5" cy="589.2" r="5.7" fill="#6ec6d5"/><path d="M1217.5 583.5V595c3.2 0 5.7-2.6 5.7-5.8 0-3.2-2.5-5.7-5.7-5.7z" fill="#57bfc8"/><circle cx="1216.2" cy="586.8" r="1.9" fill="#fff"/></g><g><circle cx="1200.2" cy="666.8" r="7.1" fill="#6ec6d5"/><path d="M1200.2 659.7V674c4 0 7-3.3 7-7.2 0-4-3-7-7-7z" fill="#57bfc8"/><circle cx="1198.6" cy="663.9" r="2.4" fill="#fff"/></g><g><circle cx="1320.4" cy="709.9" r="9.4" fill="#6ec6d5"/><path d="M1320.7 700.4l-.6 19c5.3 0 9.7-4 9.8-9.2.2-5.3-4-9.6-9-9.8z" fill="#57bfc8"/><circle cx="1318.4" cy="705.9" r="3.2" fill="#fff"/></g><g><circle cx="1248.7" cy="533.6" r="5.4" fill="#6ec6d5"/><path d="M1248.7 528.2v11c3 0 5.4-2.6 5.4-5.6 0-3-2.3-5.4-5.3-5.4z" fill="#57bfc8"/><circle cx="1247.5" cy="531.4" r="1.8" fill="#fff"/></g><g><path d="M1176 170.8c2-.8 4.4.4 5 2.5l48.8 137.4c.7 2-.4 4.5-2.5 5.2-2.2.7-4.5-.4-5.3-2.5L1173.4 176c-.7-2 .4-4.5 2.5-5.2" fill="#906232"/><path d="M1191.5 293l49-17.5c24 67.2-25.7 83.3-49 17.4" fill="#53b474"/><path d="M1220 283l9.8 27.7c.7 2-.4 4.5-2.5 5.2-2.2.7-4.5-.4-5.3-2.5l-9.8-28 7.7-2.6z" fill="#fff"/><path d="M1248.2 337.6c2.3 1 4.3 2.8 5.2 5.3 1 2.5.5 5.2-1 7.4-2.2-1-4.2-2.8-5-5.4-1-2.6-.6-5.3.8-7.4M1256.2 311.8c1 2.3 1 5-.2 7.5-1.2 2.4-3.4 4-5.8 4.6-1-2.4-1-5.2 0-7.6 1.3-2.4 3.5-4 6-4.6M1268.4 332c-1 2.4-3.2 4-6 4.7-2.6.5-5.2-.2-7.2-1.8 1.2-2.3 3.3-4 6-4.6 2.6-.6 5.3 0 7.2 1.7M1262.6 274.2c2.4 1 4.4 2.8 5.3 5.3.7 2.6.3 5.3-1 7.5-2.4-1-4.3-2.8-5.2-5.4-1-2.6-.5-5.3.8-7.4" fill="#53b474"/></g><g><path d="M1341 286.6c2.3 1 4.3 2.8 5.2 5.4 1 2.6.5 5.3-1 7.4-2.2-1-4.2-2.8-5-5.4-1-2.5-.6-5.2.8-7.4M1349 260.8c1 2.3 1 5 0 7.5-1.4 2.4-3.6 4-6 4.6-1-2.4-1-5 0-7.6 1.3-2.4 3.6-4 6-4.6M1361.2 281.2c-1 2.2-3.2 4-6 4.5-2.6.6-5.2-.2-7.2-1.7 1.2-2.3 3.3-4 6-4.6 2.6-.5 5.3.2 7.2 1.8M1355.5 223.2c2.3 1 4.3 2.8 5.2 5.4.8 2.6.4 5.3-1 7.4-2.3-1-4.2-2.8-5-5.4-1-2.5-.6-5.2.8-7.4" fill="#53b474"/><path d="M1323.6 284.6h-1c-.8-.2-2-.2-3.3-.4-1.4 0-3-.3-5-.6-.8 0-1.8-.3-3-.4-.4 0-1-.3-1.4-.6l-1.6-.7c-1-.5-2-1-3.2-1.4h-.2l-.4-.3-.4-.2c-.3 0-.6-.2-.8-.3-.2 0-.3 0-.5-.2l-.6-.3-1-.7c-2.7-1.7-5-4-6.7-7-1.8-2.8-3-6-3.2-9.6-.3-3.6.3-7.2 1.7-10.5l.5-1.2.6-1c.5-1 1-1.8 1.5-2.4l1-1.2.8-1c.5-.6 1.2-1.2 2-1.8 2.6-2.2 5.8-3.7 9-4.4 3.4-.8 6.7-.7 9.7 0 .7.2 1.5.3 2.2.6l1 .3 1 .4 3.2 1.3 1.5.6c.5 0 1 .3 1.4.6l2.4 1.8c1.5 1.2 2.8 2.3 4 3l2.3 2.2.8.8h-1c-.7-.2-1.8-.2-3.2-.4l-5-.6-3-.5c-.4 0-1-.3-1.3-.6l-1.6-.7c-1-.4-2.2-1-3.3-1.3l-.7-.3c-.3 0-.5 0-.8-.2l-1.5-.4c-2-.5-4.2-.5-6.5 0-2.2.5-4.4 1.5-6.3 3l-1.4 1.3-.6.6-.6.7-1 1.4-.4 1-.2.5-.2.2s0 .3 0 0c-1 2.3-1.3 4.7-1 7 0 2.5 1 4.8 2 6.8 1.2 2 3 3.5 4.5 4.6l.7.4.3.2s.3 0 .4.2c.3 0 .6.3 1 .4l.3.2c-.3 0 0 0 0 0h.2c1 .6 2 1 3.2 1.5l1.5.6c.5.2 1 .4 1.4.8l2.5 1.8 4 3 2.3 2.2.8.8" fill="#c4c1c1"/><path d="M1331 267.5l-.7.2-1.5.4-2.4.5c-.5 0-1 .2-1.4.3-.3 0-.5 0-.7-.3l-.6-.3-12.8-5.4-13-5.4-.5-.3c-.2 0-.4 0-.6-.2l-1-1.2c-.4-.7-1-1.4-1.2-2l-.8-1.4-.3-.5.6-.2 1.5-.4 2.4-.3 1.4-.2h.7c0 .3.4.3.6.4l12.7 5.4 12.7 5.4.7.2c.3 0 .6 0 .7.3l.8 1.2 1.3 2 .8 1.4.3.5" fill="#c4c1c1"/><path fill="#c4c1c1" d="M1299 249l-3.4 8.5-18-7.6 3.5-8.5z"/><path d="M1283 247.2c1.8-4 0-9-4.2-10.6l-34-14.4c-4-1.8-8.8 0-10.6 4.2-1.7 4 .2 9 4.3 10.6l34 14.5c4 1.7 8.8-.2 10.6-4.3" fill="#c56317"/></g><g><g fill="#4d4a4a"><path d="M1730.2 179.6l-5 1 31.8 177.5h5.2"/><path d="M1725 183.2l5.2 1-32 174h-5"/><path d="M1700 338.3h58v5h-58z"/><path d="M1710.2 293l-3.6 3.3L1753 342l3.5-3.2"/><path d="M1708.2 292h40v4.8h-40z"/><path d="M1742 294.7l-28.5-36.4 3.8-3 28.6 36.4z"/><path d="M1716.2 253h23.7v4.8H1716z"/><path d="M1737.4 256.5l-21-26.5 4-3 20.8 26.4z"/></g><path d="M1727.6 217c-20.3 0-37-16.5-37-37 0-20.2 16.7-36.8 37-36.8 20.4 0 37 16.6 37 37 0 20.3-16.6 36.8-37 36.8zm0-67.7c-17 0-30.8 14-30.8 30.8 0 17 14 31 30.8 31 17 0 30.8-14 30.8-31 0-16.8-13.8-30.7-30.8-30.7z" fill="#4d4a4a"/><path d="M1706.8 180c0 11.7 9.3 21 20.8 21 11.6 0 21-9.3 21-21 0-11.4-9.4-20.7-21-20.7-11.5 0-20.8 9.3-20.8 20.8z" fill="#848280"/><path fill="#848280" d="M1732.6 164.3l-5-1v-33.8l15.5 5M1740 169l-4-3.4 17-29.3 10.8 12M1744 176.5l-1.8-4.8 29.3-17 3.3 16M1743.5 185l1-5h33.8l-5 15.5M1739 192.4l3.2-4 29.3 17-12 11M1731.3 196.4l4.7-1.7 17 29.3-16 3.3M1722.7 196l5 1v33.8l-15.5-5M1715.4 191.4l3.8 3.3-17 29.3-10.7-12M1711.4 183.8l1.7 4.7-29.2 17-3.3-16M1711.8 175.2l-1 5H1677l5-15.5M1716.4 168l-3.3 3.7-29.2-17 12-10.7M1724 164l-4.8 1.6-17-29.3 16-3.3"/><path d="M1719.7 180c0 4.5 3.6 8 8 8 4.3 0 8-3.5 8-8 0-4.2-3.7-7.8-8-7.8-4.4 0-8 3.6-8 8z" fill="#4d4a4a"/></g><g><path fill="#e9e8e8" d="M1624.6 326h9.7v32h-9.7z"/><path fill="#3d3d3d" d="M1624.6 352.5h9.7v5.5h-9.7z"/><path d="M1641 328.5H1608.3s.2 6 9.3 7.7c0 0-.3 4 1.8 4 2 0 1.4-4 1.4-4h7.4s-.7 4 1.4 4c2 0 1.8-4 1.8-4 9-1.8 9.3-7.7 9.3-7.7z" fill="#f29cb6"/><path d="M1565.2 271.6l77.7-2.3s14.4 0 14.4 30.4-1.2 30.8-7 30.8H1586s-19.2 2.5-19.2-15c0-17.4-1.6-44-1.6-44z" fill="#e9e8e8"/><path d="M1581.6 270s11.2-2.4 15.4.8c4.2 3-3.4 8-6.7 8.6-3.4.8-5 .5-5 .5l-5.2-6.4 1.6-3.7z" fill="#e9e8e8"/><path d="M1598.2 272.5c-.2-.6-.5-1.2-1.2-1.7-4.2-3.2-15.6-.8-15.6-.8l-1.6 3.8s12-4.3 18.4-1.3z" fill="#3d3d3d"/><path d="M1582.6 274.7s10-3 12-1.5c2 1.4-5.3 5.5-8.6 5.4l-3.4-4z" fill="#fff"/><path d="M1556.3 266s-10-5.4-15-3.7c-4.8 1.8 1 8.6 4 10.3 3 1.7 4.5 2 4.5 2l6.8-4.6-.3-4z" fill="#e9e8e8"/><path d="M1539.8 263.6c.2-.6.8-1 1.6-1.3 5-1.7 15 3.8 15 3.8l.5 4.3s-10.3-7.7-17.2-6.7z" fill="#3d3d3d"/><path d="M1554 270.4s-8.8-5.8-11-5c-2.4.7 3.4 6.7 6.5 7.7l4.5-2.6z" fill="#fff"/><g fill="#e9e8e8"><path d="M1576.4 267.6s2.7-3.3 2.6-6.4c0 0 0-2 2-2.3 1.7-.3 3.8 1.8 2 6.5-2 4.7-3 5-3 5l-3.6-3zM1562.7 265.3s-1.7-4-.6-7c0 0 .6-2-1-2.7-1.7-.8-4.3.7-4 5.7.5 5 1.4 5.6 1.4 5.6l4.3-1.7z"/></g><g><path d="M1582 300c2.2-3.3 3.6-7 4.3-11.3 2-13.4-5-25.6-15.7-27.3-10.7-1.6-21 8-23 21.4-.8 4.2-.5 8.3.5 12l34 5.2z" fill="#e9e8e8"/><path d="M1568.5 261.2c-7 0-13.7 4.5-17.6 11.6 1 1.5 5.6 2.4 8.3 1 3-1.8 8.2.6 9.7-1.7 1.5-2.2-.5-10.7-.5-10.8zM1586.3 288.7c.4-3 .4-6 0-8.6 0 0-2.6-.3-3.8 3-.8 2-.8 5-2 7.4-1.7 4 1.3 5 3 7.3 1.3-2.7 2.3-5.7 2.8-9z" fill="#3d3d3d"/><circle cx="1559.2" cy="282.7" r="3.1" fill="#fff"/><path d="M1561.3 283c-.2 1.2-1.3 2-2.5 1.8-1 0-2-1.2-1.8-2.4.2-1.2 1.3-2 2.5-1.8 1.2 0 2 1.3 1.8 2.4z" fill="#010202"/><circle cx="1560.7" cy="281.9" r="1.1" fill="#fff"/><circle cx="1574.5" cy="285" r="3.1" fill="#fff"/><circle cx="1574.5" cy="285" r="2.2" fill="#010202"/><circle cx="1576.1" cy="284.2" r="1.1" fill="#fff"/><path d="M1547.2 285.2v5.5l.3 1.3c0 .5 0 1 .2 1.4 0 .5.2 1 .4 1.4l4.6.7c2.8-.8 5-1.7 4.3-2.6-1.6-2-1.7-2.6-1.2-4 .6-1.5.8-4.3-1.2-5.6-2-1.4-6.5-3.2-6.6-3.3v.2l-.5 2.6-.2 1.6v.8z" fill="#3d3d3d"/><g><ellipse transform="rotate(8.645 1565.11 299.69)" cx="1564.8" cy="299.6" rx="17.8" ry="9.5" fill="#f193ac"/><ellipse transform="rotate(8.66 1570.568 300.747)" cx="1570.6" cy="300.7" rx="1.6" ry="1.5" fill="#c45e74"/><path d="M1561 299.2c-.2 1-1 1.4-1.8 1.3-1 0-1.5-1-1.4-1.7.2-1 1-1.4 1.8-1.3 1 0 1.5 1 1.3 1.7z" fill="#c45e74"/></g></g><g><path fill="#e9e8e8" d="M1581 326h9.6v32h-9.7z"/><path fill="#3d3d3d" d="M1581 352.5h9.6v5.5h-9.7z"/></g><g><path fill="#e9e8e8" d="M1598.4 326h9.7v32h-9.6z"/><path fill="#3d3d3d" d="M1598.4 352.5h9.7v5.5h-9.6z"/></g><g><path fill="#e9e8e8" d="M1642 326h9.8v32h-9.7z"/><path fill="#3d3d3d" d="M1642 352.5h9.8v5.5h-9.7z"/></g><path d="M1657.4 297.5c0-28.2-14.5-28.2-14.5-28.2l-29.7.8s.2 8.2 17.2 15.8c16.5 7.4 2.5 21.7 26.7 26l.2-14.3z" fill="#3d3d3d"/><path d="M1653.8 278s5.8 4.7 7.4 17.4c1.7 14.7 7.2 20 7.2 20s2.4-.3 3.3 2c1.4 3.2 2.8 4.5 2.8 4.5s-8.4 1-7.5-5.5c0 0-4-4.4-6-11.2-1.7-6.8-2.4-13.7-5.7-16.4l-3.5-7.8 2-3.3z" fill="#3d3d3d"/></g></g></switch></svg>