<svg xmlns="http://www.w3.org/2000/svg" viewBox="0 0 46.9 91.08333" height="100" width="100"><path d="M46.2 22h.4v2.4h-.2v.6l.3-.3v.7h-.3c0 .2.3.4 0 .4-.2.3 0 .3 0 .3 0 2-.2 3-.6 4.8 0-.3 0-.4-.3-.4 0 0-.3.4-.3.7l.4.4-1.2 4.4-.4-.5v.3c-.2.5-.2 1 0 1.2-.7 2-1.6 4-2.6 6v-.2.5c-.5.6-.8 1.3-1 2 0-.4-.2-.5-.4-.5h-.2c.3.2.3.4.4.8l-1.3 2h-.5v.2l-1 1.8s0-.3-.2-.4v-.5c-.2.3-.2.7 0 1l-1.3 2V51c0-.3 0-.4-.2-.3v.7h.2l-6.4 9.7s-.3 0 0 .4c-.6.8-1.4 1.7-2.2 3l-2 3v-.3H25v1c-1 1.7-2 2.8-2.3 3.6-1.2 2.2-.4 3.6 2 4h1v.7c.2 0 .3-.3 0-.7h6.7v.4c.4 0 .5-.3.5-.3h7.8v.4h.2c-.3.2-.3.4-.3.4l.3 1c.4-.2.5-.4.5-.6L41 76c.2 0 0 0-.2-.3.6 0 1.2 0 1.7.3 1.6 0 2.5 1.2 2.6 2.7.5 2.7.5 5.5.2 8.3H45v1.4c-.3 3-3 2.7-8 2.7h-2l.4-.2H35v.2c0-.3-.3 0 0 0H12.7c0-.4-.3-.7-.4-.8 0 0 0 .3-.3.8H6c-.2-.3-.3-.4-.4-.3v.3c-1.6 0-2.3 0-3-.3-.2-.3-.4-.4-.6-.4v.3c-.5-.3-1-.5-1.2-1 0-.3-.3-.6-.4-.6 0-.5-.3-1-.3-1.6v-1h.4v-1c0-.3 0-.6-.4-.6V82h.4c0-.6 0-.8-.4-1v-2c0-4 1.5-5 6.3-12V67L8 65H8l1.2-2 1.3-1.6h.6c-.2 0-.2-.2 0-.2v-.5s.3-.3.4-.7l.5-.6h.7c-.3 0-.4-.2-.3-.6 0-.3.3-.7.5-.8l.6-1v.8c.5 0 .8-1 .4-1.3.3-.3.8-1 1-1.6 0 .6 0 .8.3.8.3-.3 0-1 0-1l.6-1 .5-.8c0 .8.3 1.3.5 1.2h.3v-.8c-.5 0-.5-.3-.5-.5v-.4L24.6 41h.3l-.2-.3L26 39v.3h.4c.2 0 .3-.2.3-.2h-.4v-.7l1-2v.7h.5V36h-.2l1-2.2v.4c.5 0 .6 0 .8-.3h-.8c0-.4.3-.6.3-1v.2c.2 0 .3-.2 0-.5l1.2-3v.4h.4V29c0-.3 0-.4-.2-.5v-.2c1.3-4 .7-8.7-1-11.2h.3V17h-.6c-.7-1-1.6-1.8-2.8-2.2H26c-1-.5-2-.6-3-.5 0-.3-.5-.3-.5-.3v-.3h.3v-.2c-.4 0-.6.5-.6.5l.4.2c-1 .2-2 .6-2.8 1.4V15h-.4v.4h-.3l.2.6c-.8.7-.5.3-1.2 1.3V17h-.4V18l-.8 1.2v-.4l-.8-.3v.7h.2s.4-.3.5 0v.2c-.5 1-.8 2-1 3v1.7c0 1.4-.2 2.3-.6 3H15v.5c-.3.8-1 1.3-2.5 1.4V29v-1l-.5 1 .4.3H12c-.8.2-1.8.2-3 .2v-1h-.4c0-.2.3-.4 0-.5h-.4v1.6H5.7c0-1-.3-1.5-.5-2v1l.2 1h-1l-.2-.4s0-.2-.3-.2v.4c-.4 0-.8 0-1.2-.3 0-.6 0-1-.3-1s-.3.4-.3.7c-.5 0-1-.5-1-.8.2-.2.3-.2.3-.4-.4 0-.5-.3-.3-.5 0 0-.4-.3-.6-.8 0-.3 0-.3 0 0l-.2-.5v-1.3c.3 0 1 0 .5-.3v-.9H.2c0-1.7.4-3.3.8-5v.5c.2 0 .2.4.4.5H2v-.5c-.4 0-.5 0-.5-.3H2l-.5-1c0 .2 0 .4-.3.6 0-.4.3-.7.3-1H2h-.4c.4-1.7.8-2.8 1.2-4v.6l.3.4H3l.3.2h.2v-.2c.2 0 0-.7-.2-1.2 1.6-3.2 3.6-6 6.5-8.4l.3-.2L11 3s.4-.2.6-.5V3h.5c-.2 0-.2 0 0 0l.4-.3v-.5c.3-.3.8-.5 1.3-.6h.3C15.5.7 17.6.2 20 0v.5h.2V.2h6.5c0 .4 0 .4.3.5V0c4 .6 7.2 1.7 9.3 3.2h.3v.5h.5c.6.5 1 1 1.5 1.3.3.2.4.5 0 .5h.4l2.8 3c0 .3 0 .3.3.3 2.3 3 3.7 6 4.4 9.6-.3 0-.3.7 0 .7.4 1 .4 2 .5 3h-.7V22zM1.7 77l.3.5v-2h-.3l-.3.5.3 1zm0-55l-.2.4.5.3.3-.4v-.7l-.4-.5v.4l-.2-.3-.3.2v.7H2zm.8 1.4h-.3l-.3.2-.2.4.5-.3.2-.3zm0 2.5V25l-.2-.5V24l-.4.3v1.9h.4V26zM2.7 84l-.3-.3V82.7l-.5 1 .4.7.3-.3zm0 4l-.2-1-.3 1h.4zM3 17.5h.5v-1.2l-.3-.3-.3.5v1zM3 75l.5.3h.3v-.5l-.5-.3-.2.5zM4 19.6h-.3l-.3.6.3.7.3-.5v-.8zM3.2 23l.3.4v.7l.4-.4-.4-1H4h-.4l-.3.2v.3zM3.6 79H4V78H3l.4.6zm0-60.3h-.3v.2l.3-.2zm.6 8.8v-.5l-.4-.5h-.3v1l.5.4.2-.4zm-.4 58.4l.3-.5v.5zm.5.6h-.4.2zm0-76v.4h.2l-.2-.3zm0 1.5H5v-.5h-.5v.5zm0 7l.5-.2v.4h.4v-1l-.4-.5v.3l-.5.5v.4zm.2-3.7v.4H5V15h-.5zm.7 6.7l-.2.5h.3l.4-.3V21l-.3-.5H5v-.2l.3.5-.4.3.2.4zM5 14.4v.4H5v-.5H5zM5 77.2V76v1.2zm.6-53l-.4-.3-.2.3v1.5h.4v-.2L6 25v-.7zm-.5 59.5l.4.2v.3-.7h-.3zm.7 4v-.4h-.4v.9l.4-.4zM5.8 10l.7.2-.3-.8-.4.5zm.4 2.7H6v.4h.3l.2-.3-.4-.4.2.4zm0 3.7l.3.5v.3-1.6l-.4.7zm0 3.2h.3v1.1l.2-.3V19.2l-.5.4zm0 50.3l.3.7v.4l.2.4v-1l-.5-.5zm.6 4.6v-1l-.4-.4v1l.4.4zm-.2-51.3v.3H7l-.3-.8h-.3l.2.5zM7 79l.3-.7-.5-.4v.4l.2.6zm.3-52v-.6H6.6v.5l.4.4V27zM7.3 7l.4 1.2V7.3h-.4zm0 78.7h.4V85h-.2v.7zm.2-75.2v.6l.2.4v-1.3l-.2.3zm.2 4l.4.4.2-.3v-.4l-.4-.4v.6zM8 89.3H8V89.8H8v-.7zm0-71l.3-.2v-.3H8v.5zm.6 3.5l-.3-1v-.4l-.2.4v.5l.2.8.4-.2zM8 68l.2 1.2h.3v-1l-.4-1v.8zm.2 4.2l.3.4v-.8l-.3.5zm.2 4l.3.8v-1l-.3-.4v.7zm.3-51h-.3v.6l.3.3v-1zM9 5.7L8.6 5v1l.4-.2zM9 80l-.3-.2v.5L9 80zm.2-70V9H9l.2.3-.3.3.2.3zm0 2v.4-.6.4zm.3 1.4v-.9h-.2v1h.2zm0 53.7l.3.4V66h-.2v1.3zm0-47.2l.4.3.2-.3-.3-.4-.4.5zm.5 51h-.4l.3.4v-.5zm-.3-47.3l.4.5.2-.4v-.8H10l-.3.7zm1.2 3.7h-.2l-.3-.3v-.6l-.3-.5-.3.3v.8l.5.5h.3V27zm-.6 1.7v-.4H10v.3h.4zm0 49v-.5l-.2.5v.8l.2-.8zm0-73.4l.4.3V3.8v.4l-.3.2zm.5 5.7l.2.4v-.4H11zM11 65h.4v-.7H11v.6zm.4-53.3l-.3-.5v.6h.4zm.2 3.3v-.5L11 14v1.1h.4zm0 3.3V18l-.3.5.3-.2zM11.4 72h.3v-.4l-.3.3zm1-46.5l-.5-1-.4-.3v1.3l.4.3.3-.3zM12 76l-.3-.4v.6l.3-.2zm.2-48v-.4h-.4v.4l.3.3.2-.3zm0-19.6l.2.8.3.4.2-.3-.2-.4-.3-.6-.3-.3v.4zM12 80v.4l.4-.4-.3-.3-.2.3zm0-74.5V6l.4.2V5.3H12zm1 78.5l-.4-.4-.5-.5v1l.3.4.5-.4zm-1-71.7l.2.4.3.4v-.4l-.2-.4h-.2zm.3 75.7v-1.6V88zm.2-71.6l.3.5.3-.2v-.3l-.5-.5v-1l-.3.4.2 1zm.3 73.4l-.3-.3h-.3v.2l.3.3.3-.2zm-.3-71l.3.3V19l-.2-.3v.3zm.3-6l.4.6V13l-.2-.2v-.5l-.2.6zm.3 7l-.3.4h.4v-.3zm-.2 4h.4v-1.2l-.3-.4v1.6zm0 42.5v1l.4-.2v-.7H13zm.3 4.6v-.2l.2-.5-.5-.4v.6l.3.3zm.7-43l-.4.2h-.3v.2l.5-.3h.2zM13.5 75h.4v-.4l-.4-.8h-.3v.8l.2.4zm0-70.4h.3v-.3h-.3v.4zm.3 2.8v.5h.3v-.6H14zm0 77.6l.2.5.3.4V85l-.4-.2zm.2-74.5v.8l.2.2v-.8H14zm0 50.2v1l.6-.6-.4-.8-.2.3zm.6 28.2v-.3l-.5.3h.6zm-.3-74.3l.3.7V14h-.3v-.3h-.2l.3 1zM15 18l-.5-1v.8h.4zm0 6h-.3v.2h.2zm0 40.6l-.4-.5v1l.3-.4zm-.2-44V21.3v-.6zm0-19l.4.6V1.2l-.3.4zm.5 4.2l.3.3v-.5l-.3-.7-.3.5.3.5zm.8 3.7v-.8l-.5.5.4.3zm-.4 49.8h.3V58.5h-.3v1zm.5-47l-.2-.8v1.2l.3-.4zm.4 75l-.3-.6v-.4l-.2.7.6.2zM16 62v.6l.3.7v-.5l-.2-.7zm.5 4l-.3-.2V67l.4-.4V66zm0 4.3h.4l-.2-.7v-.3h-.4v1zM17 .5L17 .2h-.2v.5-.3h.4zm0 3.7h.4-.3.4l-.3-.5H17l.2.5zm-.2 77v.4h.6l-.4-.7v-.7h-.4.3l-.2.4.2.4zm0-74.8v.3-.3l.4-.3H17v.4zM17 78l.3.5V78H17zM17.3 8h.3l.3-.4h-.4V6.7h-.3v1zm.6 77.5l-.4-.7v-.4h-.2l-.3 1 .2.4.3.3.4-.4v-.3zM18 14l-.4-1-.3.3v1l.4.6.2-1zm.3-11.7l.4.3V2l-.3-.4v.7zm.5 3.7l.4-.6-.2.3-.2-.5h-.3V6h.3zm-.3 46l.5.4v-.7l-.2-.5h-.3v.7zm0 24.6l.4-.4-.2-.3v-.2l-.2.4v.4zM19 55V55l-.2-.3-.3.4h.5zM19 80l-.2-.5h-.3l.3.5h.3zm-.2-71l.3.4v.3l.2-.3v-.7l-.4.2zm0 49.7h.5L19 58l-.2.5zm.8-46.3l-.6-.5v1.1l.6-.6zM19 62l.2.7.3.4h.3v-1H19zm1 25.6l-.4-.4-.3-.8v.8l.5.7.2-.4zM20 66v-1h-.6v1.3l.8.3V66H20zm0 4v-.6H20v.7l.2 1 .3-.6-.2-.5zm0-69V.3 1zm0 72.6l.7.7-.5-1-.3.3zm0-70l.4.3V4h.3v-.6l-.4-.3-.3.2zm.7 73.8h-.3v.6l.2.4h.4v-1l-.5-.8H20v.4l.2.3h.5zm-.4-27.2v.3h.2V50l-.3-.4v.8zm0-42.7l.5.3h.3v-.9l-.3-.6-.3.4v.7zm.4 73.8l.3-.4-.4-.4v.7zm0-28.3l-.2-.3v.5l.3.3V53zm.4 3.8V56l-.4.8h.5zm0-46v.2h-.2l.3.2V10.3h-.3v.2h.2zm.4 3.8v-.4H21v.4h.4zm0 70l-.4-.2v.7l.2.6v-1.1zM21.5 1l-.3.5.3-.3h.4l-.3-.3V.8h-.3l.2.5zm-.2 46.3l.4.3v-.6l-.2-.3-.2.5zm.4-45.3l-.3.3h.4l-.2-.3zm0 2.7V5l.2.5.3.3v-.4h.2l-.2-.2V5l-.2-.4.2.3v.2l-.4-.3h-.5.5zm.6 50.5v-.3l-.3-.4h.2v-.3H22v-.6l-.3.2v.9l.7.5zm-.6 20v.2h.2v-.4h-.2zm.7-67h-.3l-.3.6.2.2h.4v-.7zm.6 3.8H23v-.5h-.4l.3-.2-.2-.3h-.7v.8l.4.8h.4l.5-.5zm-.3 46.2L22 58l.3.4v.7l.4-.5zm-.5 20.8h.3l-.2-.5v.5zm.3 3.3v.3l.2.6.4-.3-.2-.5v-.3h-.3zM23 63l.2-.2v-1l-.5.2v.7l.2.4zm0-17.4l.3 1 .3-.2v-1l-.3-.3-.3.6zM23.5 4l.3.2v-.7l-.4-.8-.2.4v.5l.4-.3V4zm0 65.7l-.3-.3V69v.8l.2.3v-.3zM23.3.5l.3.3.3-.3-.2-.4-.4.2v.3zm.2 49.3h.5v-.5h-.4v.5zm.4-42V6.3l-.4.2v1.1l.3.2zm-.3 45v.6h.5v-.6L24 52l-.3.5v.4zm0 24.4v.3l.4.4V77v.2-.3l-.3.2zm.3-20l.3-.4v-.4H24l-.3.4.3.3zm0-47l.2.4v-.8H24v.7zm.6.5H24l.2.2h.3v-.3zm-.4 70v.5l.3.5v-1.2h-.3zm0-20.4v.8l.4-.7h-.4zm.6 4.6l.3-.6V64l-.3.2v-.7l-.4.4.3.7.2.2zm.4 1.4V66l-.4.2.3.4.2-.2zm-.2-18l.4-.3v-.7H25v1zm.5 3.5h.4v-.3l-.5-.8-.4-.2v.5h.3l.2.6zm-.3-46.4l.3-.3-.3-.7v1.1zm0 2.7l.4.7h.3v-.7h-.7zm.4.8v.2L26 9h-.2zm.5 2.7l-.4-.7v.3l.4.8v.6-1zm.5 47.3v-.3L26 58h-.4l.6 1h.3zm-1 20.4h.2v.2h.3l-.3-.5v.4zm1-17.4l-.5-.5v.7l.4-.2zM26 41.7l.2.3h.3v.8h.3v-1.4h-.4l-.3.4zm.3 45v.3h.4V87l-.4-.2zM26.5.4V.2v.3zm0 2.8h.4v-.4l-.2-.2v.5zm.5 43v-.7l-.3-.6v1l.3.4zM27 4l.2-.5H27V4zm.2 3.5h.3v-.8L27 7l.2.5zm0 42.2v.4l.2-.2h-.2zm.2 3v-.4.3H27l.2.2zm0 25.4l.3.2v-.5h-.4v.4zm.3-65.7l-.3.3.3.4v-.7zm0 44V56l-.2.7.3-.3zm.6-8.8v.8l.2-.7h-.2zM28.5 5l.4.4V5l-.4-.5V5zm0 46.6l.7-.5-.3-.6h-.5v1.3zm0-43.7l.4.6.3.4v-.3l-.3-1v-.3h-.4V8zm1 4.2l-.2-1-.4-.5v.3l-.2.3h.3l.2.7.2.2zm-.6 42.5v.7l.2-.6H29zm.4 3.7V58H29l.3 1.2v-.8zm-.2-24v1.2l.2-.7-.2-.5zm1-19.3h-.4v.4h-.4v.5l.3.2.3-.3v-.4l.2-.5zM30 39.4l-.2-.8v-.8h-.4v.8l.5.8zm-.6 43.3l.3.5v.2-.5h-.3zM30 42l-.2.4h.5L30 42zm-.2 4l.4.3h.4l.3-.6-.4-.5-.4-.3v.3l-.4.6zm.4 3.4l.5.6V49l-.4-.2v.6zm.3-41h.4l-.2-.2h-.3zm.7 44.5l-.3-.4h-.5v.6h.6v-.3zm-.5-19.6h.3v-.2h-.2v.2zm.5 23l-.4-.3v.8l.2.3h.3v-.6zM31 12.6l.2-.3V12H31l-.2.2v.4zm0 24v.3h.2v-1l-.3.5zm.3-23V13H31v.5l.5.7-.2-.5zm.2 4v-1h-.3l-.2.6.5.4zM31.3 39v.3l.3-.3H31zm0 1l.3.4.3-.3v-.3l-.5-.4h-.3v.6zm.3-19.6h.3l-.4-.5v-.6l-.2.5.2.4zm0 67.5v.6l.4-.3-.5-.4zm0-83.2l.4.3v-.7H32l-.2.5zm0 39h.4v-.4l-.4.4zm0-20.3l.2.7h.3v-.5l-.3-.4v.2zM32 47l.3.5v-1l-.2.6zm.4-19.8v-.7l-.2 1 .4.8v-.5l-.2-.6zm0 23.2H32v.7V50.5zm0-41.7h.3v-.8h-.3v.7zm0 22.5v.5h.5v-.4l-.4-.6v.5zm.6-19l-.3-1v1h.2zm-.4 23l.4.3.3-.6V34l-.4.4-.2.6zm.2-19.7l.2-.3-.2.3zm.2 23v.2l.4.4v-.6L33 38l-.2.4zm0 40.4l.3.2v-.7l-.2-.3v.7zm1-37.8l-.5-.4-.4.3v1.6h.3l.3-.5v-.8zm-.3 45h-.7l.7.6v-.6zM33 18.7l.3.4v-.7l-.3.4zm0-2.7h.4l-.3-.4v.4zm.5-12.6h.3v-.2l-.3.2zM34 6l-.2.4V7h.3l.2-.3v-.5zm.4 46.7l-.6-.5v.7l.6-.3zM34 33.4h.2V32l-.3 1v.4zM34 49v.6h.3l-.3-.8v.3zm.6-13H34v.5l.4.3.2-.7zm-.4 40.6l.3 1v-1l-.3-.2v.2zm.4-38.2l-.2.4v.8l.2 1v-2.2zm.2 42l-.4.2.3.4v-.7zM35 84l-.2-.3-.3.4v1l.4.3V84zm-.3-79.7h.5v1l.4-.5v-.5L35 4h-.5v-.3.6zm0 16.2h.4v-.8.8zm1 67.4l-1-.2.6.8.3-.7zM35 24.3h.3l.3-.3V24H35l-.2.6zM35.8 8H35l.6.8.2-.7zm-.2 39l-.3-.2v.3l-.2.5.5.3V47zm.3-35.3l-.5-.3v.4l.5.3v-.3zm0 20l.4-.2v-.7h-.6l-.3.5.6.3zm.4 3.8V34l-.6.2v1.3h.6zM36 14.7v.3h.2V15H36zm0 .8v.4l.5-.4v-.3l-.5.2zM36 38l.4.7v-1l-.4-.3v.6zm0-19.2l.5.3v-1l-.3-.3v1zm1 23h-.6v.5h.3l.2-.4zm-.6 40.6l.3.3v-.4h-.3zm.5-60.6l-.4.4v.3l.3-.7zm-.2-15h.4v-.4H37l-.2.4zm0 3.3l.4.5V9.3v.4l-.3.5zm.6 19.6l.4-.7-.3-.4v.3l-.5-.5v.8l.4.3zm.3-16.2l-.5-.4.4.8v-.4zm0 19l-.4-.4v.8l.3-.3zm0-16.4h-.3v.3l.3-.3zm0 20.7l.2-.3-.4-.6v-.4l-.4.5v.6h.6zm.4-17l-.3-.4.3 1v.2-1zm0 12.7l-.2.5.3.2.2-.4-.2-.4zm.5 7.6l-.4-.4-.3.3v.4h.4l.5-.4zm-.2 1.6H38v.2h.2v-.2zm.3-17.7v-.4H38v.4l.3.3V24zm0-12h.9l-.3-.5.2-.4-.3.5-.3.5zm.3 19.2v.4h.3L39 31l.2-.2V30l-.4.2v1zm-.3 16zm.7-32.8l-.3.3v.7l.4.4.3-.8v-.3l-.3-.3zm-.3 20l.4.3v-1l-.3.6zm.8 3.4l-.4-.8v1.5l.4-.7zm.2-16v-.5h-.4v-.6 1h.4zm-.2 60.5h.7L40 82v-.4.3l-.2.3zm.8-53.2v-.7l-.4.5.4.3zm-.3-19.6v.7h.4v-.7h-.2v-.4l-.2.2zm.7 23h-.4v.4l.3.4v-.8zm.2-16L41 16v.8l.2-.3zm.4 7.5v.2h.3v-.5h-.2v-.9l-.4.4.2.7zm0-1.6l.3.3v-.3h-.2zm0-11l.4.3h.3v-1 .2h-.4l-.3.3zm.7 19V30h-.4l.3.3zm-.4 54v.3h.4v-.3h-.5zm.3-69.4l.3.3V15l-.2-.3v.3zm.5 19.6V34h-.4v.7l.4.3v-.4zm.2-16.3l-.2-.6-.3.5v.4l.5-.3zM43 78v.7l.3.5.3-.4v-.4L43 78v-.3l-.3.3zm.2-52.6l.3.4V25l-.2-.2v.7zm.7 4l-.3-.7-.5-.3v.6l.7.4zm-.3-16l.5.4-.4-.4zm0-.7l.2.4v-.5l-.2.2zm0 77l.2.4v.2h.3v-.5h-.5zm.6-57l-.4.2v.2l.3-.3v-.2zm0-16.6l-.2.6.5.3h.3l-.6-1zm.2 4l.3.3.4-.4v-.4l-.3-.3h-.4V19l-.2.4v.6zm0 3.5l.4.3v.4l.2-.4V23h-.4l-.2.5zm1 3.2l-.5-.3V26l.2-.6V25H45v.4l-.2.4v.8l.2.4v.4l.3.3v-1zM44.6 80v.4h.4V80H45zm.5 3.5H45v.3l.2-.3z"/></svg>