<svg xmlns="http://www.w3.org/2000/svg" height="247.6" width="247.6"><circle cx="123.8" cy="123.8" r="123.8" fill="#eaf5f7"/><path d="M85 63.3c-7-7-4.7-24-4.7-24H60s2 17-5 24c-6.8 7-9.7 25-9.7 49.5v40s3 8.7 24.8 8.7c22 0 24.8-8.6 24.8-8.6v-40.2c0-24.4-3-42.6-9.8-49.5z" fill="#d6e5ea"/><path d="M89.2 101c0-9.5-1.7-19-1.7-19H52.7S51 91.4 51 101c-.3 9.3-.7 43.8 1.6 48.3 2.4 4.5 11 5.6 17.5 5.6s15-1.2 17.5-5.7c2.3-4.5 2-39 1.7-48.4z" fill="#fff"/><path d="M82.4 46.3c0 2-1.6 3.6-3.6 3.6H61.3c-2 0-3.5-1.8-3.5-3.7v-8c0-2 1.6-3.6 3.5-3.6h17.5c2 0 3.6 1.6 3.6 3.6v8z" fill="#bcd6dd"/><g fill="#a7cbd2"><path d="M62 47c0 .6-.4 1-1 1-.4 0-.8-.4-.8-1v-9.5c0-.5.4-1 1-1 .4 0 .8.5.8 1V47zM65.6 47c0 .6-.4 1-1 1-.4 0-.8-.4-.8-1v-9.5c0-.5.4-1 1-1 .4 0 .8.5.8 1V47zM69.2 47c0 .6-.4 1-1 1-.4 0-.8-.4-.8-1v-9.5c0-.5.4-1 1-1 .4 0 .8.5.8 1V47zM72.8 47c0 .6-.4 1-1 1-.4 0-.8-.4-.8-1v-9.5c0-.5.4-1 1-1 .3 0 .8.5.8 1V47z"/><g><path d="M76.3 47c0 .6-.4 1-1 1-.4 0-.8-.4-.8-1v-9.5c0-.5.4-1 1-1 .4 0 .8.5.8 1V47zM80 47c0 .6-.5 1-1 1s-1-.4-1-1v-9.5c0-.5.5-1 1-1s1 .5 1 1V47z"/></g></g><path d="M62 64.2s-12 11-8 57.6c0 0 1.5-44 18-57.6H62z" opacity=".5" fill="#fff"/><g><g transform="translate(-174.94 -156.2)"><path d="M310 232.4c-7.7-5.3-12.4-2.6-12.4-2.6s-5.2 1.5-6.8 10.7c-1.7 9.2.3 19.6 6 26.2 5.5 6.6 12 8.3 18.7 5.6 7-3 10-8.7 9-17.3-.7-8.6-6.8-17.4-14.5-22.6z" fill="#ecb577"/><path d="M298.3 229.6c8 .2 18.8 15.6 19.2 27 .5 11.4-11.2 16.4-11.5 16.5 3 1 6.3.6 9.5-.7 7-3 10-8.7 9-17.3-.7-8.6-6.8-17.4-14.5-22.6-6-4-10.2-3.4-11.7-3z" fill="#e0a66c"/><ellipse transform="rotate(-5.878 299.918 247.275)" cx="300" cy="247.3" rx="6.8" ry="10" fill="#eebf9c"/></g><g transform="translate(-174.94 -156.2)"><path d="M354 229c-1.3-9.2-6.5-10.8-6.5-10.8s-4.6-2.7-12.4 2.4c-7.8 5-14 13.7-15 22.3-1 8.4 2.3 14.4 9 17.3 6.8 3 13 1.3 18.7-5.2 5.7-6.3 8-16.8 6.5-26z" fill="#e5ab70"/><path d="M348 218.5c5.5 6 1.7 24.5-6.4 32.6-8 8.2-19.6 3-19.8 3 1.5 2.8 4 5 7 6.3 7 3 13.2 1.3 19-5.2 5.6-6.3 7.8-16.8 6.4-26-1.2-7.2-4.6-9.7-6-10.5z" fill="#e0a66c"/><ellipse transform="rotate(40.815 336.398 231.926)" cx="336.4" cy="231.9" rx="6.8" ry="10" fill="#eebf9c"/></g><path d="M175 123c8.6-3.3 9-8.7 9-8.7s1.8-5-4.8-11.7c-6.6-6.6-16.3-11-25-10-8.5.8-13.7 5.2-15.2 12.2-1.5 7.4 1.5 13 9 17.3 7.5 4.4 18.2 4.4 27 1z" fill="#ecb577"/><path d="M184 115c-5 6.4-23.7 6.6-33.4.4-9.5-6-7-18.6-7-18.8-2.3 2-4 4.8-4.6 8.2-1.5 7.4 1.5 13 9 17.3 7.5 4.4 18.2 4.4 27 1 6.7-2.6 8.5-6.5 9-8z" fill="#e0a66c"/><path d="M165 112.3c-4.8-2.7-7.2-7.5-5.4-11 2-3.2 7.2-3.7 12-1 5 2.6 7.3 7.5 5.5 10.8-1.7 3.4-7 4-12 1.3z" fill="#eebf9c"/></g><g><path d="M97.3 197.2s-6-55 42.7-57.3c50.4-2.6 50.6 57.4 50.6 57.4l-93.3-.2z" fill="#a75230"/><path d="M175.4 153.6l7.4-6c.3-.3.7-.6.8-1 .2-.4 0-.8 0-1.2-.4-2.3-.3-4.7.6-6.8 1-2 2.7-4 5-4.3 2.2-.5 4.8.7 5.6 2.8.8 2 0 4-1 5.8 3.6-1 7.3 1.7 8.3 5.3.5 1.4.3 3.2-.4 4.4-1.2 2.5-3 3.4-6.5 3.2-1.3 0-3.2-1-4.3-1.7-.8-.5-1.4-1.2-2.3-1.3-1-.2-1.7.4-2.4 1-2.5 2-5 4-7 6.5-.8-1.8-2.2-4-3.3-5.7" fill="#f0c8a1"/><g fill="#b06345" transform="translate(-174.94 -156.2)"><ellipse transform="rotate(-34.567 333.14 328.457)" cx="333.2" cy="328.5" rx="23.8" ry="19.5"/><path d="M347 311l8.4-5.8s2 .8 3.4 3c1.4 2 1 3 1 3l-7.2 7.2-5.7-7.4z"/></g><g><path d="M92.4 195v.5c0 9.6 23.2 17.5 51.8 17.5 28.7 0 52-8 52-17.5-.2-.2-.2-.3-.2-.5H92.4z" fill="#f5a8a2"/></g></g></svg>