<?xml version="1.0" encoding="UTF-8" standalone="no"?>
<svg
   xmlns:dc="http://purl.org/dc/elements/1.1/"
   xmlns:cc="http://creativecommons.org/ns#"
   xmlns:rdf="http://www.w3.org/1999/02/22-rdf-syntax-ns#"
   xmlns:svg="http://www.w3.org/2000/svg"
   xmlns="http://www.w3.org/2000/svg"
   version="1.1"
   id="svg3395"
   viewBox="0 0 34.984001 82.079002"
   height="23.164518mm"
   width="9.8732624mm">
  <defs
     id="defs3397" />
  <metadata
     id="metadata3400">
    <rdf:RDF>
      <cc:Work
         rdf:about="">
        <dc:format>image/svg+xml</dc:format>
        <dc:type
           rdf:resource="http://purl.org/dc/dcmitype/StillImage" />
        <dc:title></dc:title>
      </cc:Work>
    </rdf:RDF>
  </metadata>
  <g
     transform="translate(437.492,8.6772953)"
     id="layer1">
    <path
       d="m -419.984,4.7057047 c 3.711,0 6.711,-2.984 6.711,-6.695 0,-3.688 -3,-6.688 -6.711,-6.688 -3.688,0 -6.688,3 -6.688,6.688 0.001,3.711 3.001,6.695 6.688,6.695 z"
       id="path18"
       style="fill:#231f20" />
    <path
       d="m -429.038,69.643705 c 0,2.078 1.656,3.758 3.734,3.758 2.07,0 3.758,-1.68 3.758,-3.758 l 0,-31.492 3.148,0 0,31.492 c 0,2.078 1.688,3.758 3.758,3.758 2.078,0 3.742,-1.68 3.742,-3.758 l 0.023,-54.297 3.125,0 0,20.016 c 0,4.031 5.242,4.031 5.242,0 l 0,-20.453 c 0,-4.445 -3.461,-8.7890003 -8.664,-8.7890003 l -17.75,-0.023 c -4.758,0 -8.57,3.875 -8.57,8.6880003 l 0,20.578 c 0,3.984 5.273,3.984 5.273,0 l 0,-20.017 3.18,0 0,54.297 10e-4,0 z"
       id="path20"
       style="fill:#231f20" />
  </g>
</svg>
