<?xml version="1.0" encoding="UTF-8" standalone="no"?>
<svg
   xmlns:dc="http://purl.org/dc/elements/1.1/"
   xmlns:cc="http://creativecommons.org/ns#"
   xmlns:rdf="http://www.w3.org/1999/02/22-rdf-syntax-ns#"
   xmlns:svg="http://www.w3.org/2000/svg"
   xmlns="http://www.w3.org/2000/svg"
   version="1.1"
   id="svg3369"
   viewBox="0 0 41.794145 82.043507"
   height="23.154501mm"
   width="11.795237mm">
  <defs
     id="defs3371" />
  <metadata
     id="metadata3374">
    <rdf:RDF>
      <cc:Work
         rdf:about="">
        <dc:format>image/svg+xml</dc:format>
        <dc:type
           rdf:resource="http://purl.org/dc/dcmitype/StillImage" />
        <dc:title></dc:title>
      </cc:Work>
    </rdf:RDF>
  </metadata>
  <g
     transform="translate(629.4685,-19.91188)"
     id="layer1">
    <path
       d="m -602.33166,34.72488 c 4.688,0 8.047,3.859 8.75,5.961 l 5.742,18.898 c 1.148,4.047 -4.016,5.734 -5.25,1.781 l -5.164,-17.336 -2.977,0 8.656,30.812 -8.258,0 0,24.047 c 0,4.102 -6.164,4.078 -6.164,0 l 0,-24.195 -3.133,0 0,24.149 c 0,4.148 -6.195,4.148 -6.195,0 l 0,-24 -8.273,0 8.57,-30.812 -2.844,0 -5.18,17.383 c -1.219,3.781 -6.43,2.25 -5.242,-1.828 l 5.742,-18.898 c 0.617,-2.148 3.336,-5.961 8.047,-5.961 l 13.173,0 0,-9.99e-4 z"
       id="path14"
       style="fill:#231f20" />
    <path
       d="m -608.56566,33.31088 c 3.695,0 6.695,-3 6.695,-6.688 0,-3.711 -3,-6.711 -6.695,-6.711 -3.703,0 -6.695,3 -6.695,6.711 -10e-4,3.688 2.992,6.688 6.695,6.688 z"
       id="path16"
       style="fill:#231f20" />
  </g>
</svg>
