<svg xmlns="http://www.w3.org/2000/svg" width="392.25101" height="117.596" viewBox="0 0 392.25101 117.596"><switch transform="translate(-48.717,-38.253)">
	<g>
		<polygon
   points="356.466,17.319 412.466,17.319 468.591,17.319 468.591,97.552 468.591,177.784 412.466,177.784 356.466,177.784 300.341,177.784 244.342,177.784 188.217,177.784 132.217,177.784 76.217,177.784 20.219,177.784 20.219,97.552 20.219,17.319 20.219,17.319 76.217,17.319 132.217,17.319 188.217,17.319 244.342,17.319 300.341,17.319 "
   id="polygon7"
   style="fill:#212121;fill-opacity:1" />
		<rect
   x="20.219"
   y="16.816999"
   width="448.37201"
   height="1.003"
   id="rect9" />
		<rect
   x="468.08899"
   y="17.319"
   width="1.0039999"
   height="160.465"
   id="rect11" />
		<polygon
   points="468.591,16.817 469.093,16.817 469.093,17.319 468.089,17.319 468.591,17.82 468.591,16.817 "
   id="polygon13" />
		<rect
   x="20.219"
   y="177.283"
   width="448.37201"
   height="1.003"
   id="rect15" />
		<polygon
   points="469.093,177.784 469.093,178.286 468.591,178.286 468.591,177.283 468.089,177.784 469.093,177.784 "
   id="polygon17" />
		<rect
   x="19.716"
   y="17.319"
   width="1.005"
   height="160.465"
   id="rect19" />
		<polygon
   points="20.219,178.286 19.716,178.286 19.716,177.784 20.721,177.784 20.219,177.283 20.219,178.286 "
   id="polygon21" />
		<polygon
   points="19.716,17.319 19.716,16.817 20.219,16.817 20.219,17.82 20.721,17.319 19.716,17.319 "
   id="polygon23" />
		<path
   d="m 57.258,66.462 1.005,-1.505 1.005,-1.504 1.129,-1.505 1.131,-1.504 1.13,-1.379 1.255,-1.379 1.256,-1.38 1.381,-1.379 1.256,-1.253 1.381,-1.254 1.508,-1.129 1.381,-1.128 1.506,-1.128 0.754,-0.502 0.879,-0.501 1.507,-1.003 1.632,-1.003 1.633,-0.878 1.633,-0.877 1.758,-0.753 1.632,-0.752 1.758,-0.752 1.758,-0.627 1.884,-0.501 1.758,-0.502 1.883,-0.501 1.883,-0.376 1.884,-0.377 1.884,-0.25 2.009,-0.251 1.884,-0.251 2.008,0 2.01,-0.125 3.014,0.125 3.014,0.251 1.506,0.125 1.381,0.251 2.889,0.502 1.506,0.25 1.382,0.376 2.763,0.753 2.762,1.003 2.637,1.003 1.381,0.626 1.256,0.627 2.512,1.254 1.256,0.752 1.255,0.627 2.386,1.505 2.26,1.755 2.26,1.63 2.135,1.88 2.01,2.006 2.008,2.006 1.884,2.132 1.758,2.256 1.632,2.257 1.508,2.382 0.753,1.254 0.628,1.253 1.381,2.508 1.131,2.633 1.004,2.633 0.502,1.379 0.502,1.379 0.377,1.379 0.377,1.379 0.377,1.379 0.251,1.505 0.376,1.379 0.126,1.504 0.251,1.505 0.126,1.379 0.126,1.504 0.125,1.505 0.125,1.504 0,1.505 0,1.755 -0.125,0.877 -0.251,0.878 -0.126,0.752 -0.251,0.752 -0.628,1.505 -0.377,0.627 -0.376,0.627 -0.503,0.501 -0.502,0.502 -0.627,0.501 -0.629,0.502 -0.753,0.501 -0.753,0.376 -0.754,0.376 -0.879,0.376 -0.251,-0.25 -0.251,-0.376 -0.252,-0.627 -0.25,-0.627 -0.502,-1.755 -0.629,-2.132 -0.502,-2.507 -0.502,-2.758 -1.005,-5.893 -2.009,-11.658 -0.502,-2.383 -0.377,-2.006 -0.502,-1.755 -0.252,-1.128 -0.627,-1.379 -0.754,-1.254 -0.627,-1.128 -0.754,-1.003 -0.754,-0.878 -0.376,-0.376 -0.377,-0.376 -0.753,-0.627 -0.502,-0.251 -0.377,-0.25 -0.879,-0.502 -0.879,-0.251 -0.879,-0.125 -1.005,-0.126 -1.005,0 -0.879,0.126 -1.004,0.125 -1.004,0.376 -1.131,0.377 -1.004,0.376 -2.135,1.253 -2.135,1.379 -1.13,0.753 -1.13,0.877 -0.502,0.502 -0.629,0.501 -1.129,0.878 -1.005,1.128 -1.13,1.003 -1.131,1.129 -1.129,1.128 -2.261,2.507 0.628,-2.507 0.377,-2.382 0.125,-1.128 0.126,-1.004 0.126,-1.002 0,-1.003 0,-0.878 -0.126,-0.878 -0.126,-0.877 -0.251,-0.753 -0.251,-0.626 -0.377,-0.627 -0.377,-0.502 -0.502,-0.501 -0.879,-0.752 -1.004,-0.502 -0.628,-0.251 -0.503,-0.125 -0.502,-0.125 -0.627,0 -0.503,-0.126 -0.628,0 -1.13,0.126 -0.628,0.125 -0.627,0.125 -1.256,0.376 -1.256,0.502 -1.256,0.627 -1.381,0.627 -1.256,0.877 -1.381,0.752 -1.256,1.004 -1.381,1.002 -1.381,1.003 -2.512,2.257 -2.512,2.257 -2.385,2.257 -2.26,2.382 -2.01,2.131 -1.883,2.006 -2.763,3.009 1.005,-2.633 0.753,-2.382 0.503,-2.257 0.25,-1.003 0.126,-1.003 0.251,-2.006 0.126,-1.755 0,-0.878 0,-0.752 L 86.642,69.973 86.517,69.221 86.265,67.842 85.763,66.588 85.512,65.961 85.261,65.46 84.507,64.457 83.754,63.579 83.252,63.203 82.875,62.827 81.87,62.2 80.741,61.698 79.61,61.197 l -1.13,-0.251 -0.753,-0.125 -0.629,-0.126 -1.381,0 -1.381,0 -1.381,0.126 -1.507,0.125 -1.507,0.376 -1.633,0.376 -1.506,0.377 -1.634,0.625 -1.632,0.627 -1.507,0.627 -1.633,0.752 -1.506,0.878 -1.632,0.878 0,0 z m -8.537,30.589 0,-2.257 0.125,-2.382 0.251,-2.257 0.376,-2.257 0.127,-0.627 0.125,-0.501 0.502,-1.128 0.502,-1.003 0.629,-1.003 0.753,-1.003 0.753,-1.003 0.879,-1.003 0.879,-0.878 0.879,-1.003 1.005,-0.877 1.005,-0.753 1.004,-0.877 1.13,-0.753 1.005,-0.752 2.26,-1.254 2.135,-1.253 2.135,-1.003 2.134,-0.878 1.884,-0.627 1.633,-0.376 0.752,-0.251 0.754,-0.125 0.502,0 0.629,0 0.376,0.125 0.376,0.126 0.377,0.125 0.252,0.376 0.25,0.251 0.252,0.376 0.125,0.376 0.252,0.502 0,0.501 0.125,0.502 0,1.128 -0.125,1.379 -0.252,1.379 -0.377,1.63 -0.502,1.63 -0.627,1.755 -1.381,3.636 -0.879,1.881 -0.879,2.006 -1.885,3.886 -2.134,4.012 -2.009,3.887 -3.893,6.895 -3.139,5.266 -1.633,2.633 -0.502,1.003 -0.125,0.501 -0.126,0.376 -0.126,0.502 0,0.376 0.126,0.877 0.126,0.376 0.125,0.377 0.125,0.376 0.252,0.376 0.502,0.627 0.628,0.501 0.628,0.376 0.753,0.251 0.753,0.125 0.879,-0.125 0.754,-0.125 0.879,-0.376 0.377,-0.251 0.377,-0.376 0.376,-0.376 0.377,-0.376 8.538,-10.28 6.277,-7.271 3.389,-4.014 3.641,-3.886 3.516,-4.012 1.884,-1.881 1.758,-1.88 3.516,-3.636 3.517,-3.385 3.264,-3.009 1.507,-1.254 1.507,-1.254 1.381,-1.003 1.381,-1.002 1.131,-0.753 1.13,-0.501 -0.251,1.88 -0.502,2.132 -0.252,1.128 -0.377,1.128 -0.753,2.508 -0.753,2.507 -1.005,2.759 -1.005,2.632 -1.129,2.759 -2.261,5.391 -2.386,5.265 -1.13,2.508 -1.256,2.382 -1.13,2.131 -1.004,1.881 -1.884,3.134 -0.503,1.003 -0.125,0.501 -0.125,0.377 0,0.501 0,0.376 0.125,0.878 0.125,0.376 0.126,0.376 0.377,0.752 0.376,0.251 0.252,0.376 0.251,0.251 0.376,0.251 0.377,0.125 0.377,0.125 0.377,0.251 0.377,0 0.879,0.126 0.753,-0.126 0.376,0 0.503,-0.251 0.376,-0.125 0.377,-0.251 0.754,-0.627 0.377,-0.376 0.25,-0.501 0.127,-0.126 0.125,-0.25 1.506,-2.508 2.01,-3.009 2.135,-3.259 2.385,-3.636 2.512,-3.636 2.762,-3.887 2.763,-3.761 2.888,-3.761 2.763,-3.51 2.763,-3.385 2.762,-3.009 1.256,-1.254 1.256,-1.254 1.129,-1.128 1.256,-1.003 1.005,-0.878 1.13,-0.752 0.377,-0.251 0.502,-0.251 0.879,-0.376 0.879,-0.25 0.628,0 0.753,0.626 0.629,0.753 0.627,1.003 0.502,1.128 0.377,1.254 0.377,1.253 0.377,1.505 0.377,1.504 0.502,3.386 0.502,3.635 0.879,7.522 0.377,1.88 0.251,1.881 0.628,3.636 0.502,1.755 0.125,0.877 0.252,0.753 0.502,1.63 0.628,1.379 0.376,0.752 0.252,0.627 0.753,1.254 0.377,0.626 0.376,0.502 1.005,1.003 1.005,0.752 0.502,0.376 0.502,0.251 0.629,0.251 0.627,0.25 0.628,0.126 0.628,0.125 1.506,0.125 0.754,-0.125 0.628,0 1.382,-0.251 1.381,-0.376 -0.754,2.132 -0.879,2.006 -1.004,2.131 -0.502,1.003 -0.503,1.003 -1.13,1.88 -1.131,2.006 -1.255,1.881 -1.256,1.755 -1.381,1.755 -1.507,1.756 -1.507,1.629 -1.507,1.63 -1.632,1.505 -0.879,0.752 -0.879,0.752 -1.632,1.379 -1.884,1.379 -1.758,1.254 -1.884,1.254 -2.009,1.128 -2.009,1.003 -2.01,1.003 -2.008,0.878 -2.135,0.877 -2.135,0.753 -1.13,0.376 -1.13,0.251 -2.26,0.626 -2.261,0.502 -2.26,0.376 -2.261,0.376 -2.385,0.251 -2.386,0.125 -2.386,0 -3.014,0 -3.014,-0.25 -1.506,-0.126 -1.508,-0.251 -2.887,-0.501 -1.382,-0.376 -1.381,-0.251 -2.888,-0.877 -2.637,-0.878 -2.763,-1.003 -1.255,-0.627 -1.256,-0.627 -2.637,-1.254 -1.256,-0.752 -1.131,-0.752 -2.385,-1.504 -2.386,-1.63 -2.135,-1.756 -2.134,-1.755 -2.135,-2.006 -1.884,-2.006 -1.884,-2.131 -1.758,-2.257 -1.632,-2.256 -1.507,-2.383 -0.753,-1.253 -0.753,-1.254 -1.256,-2.507 -1.131,-2.633 -1.129,-2.633 -0.377,-1.379 -0.502,-1.379 -0.377,-1.379 -0.377,-1.38 -0.377,-1.504 -0.377,-1.379 -0.25,-1.505 -0.252,-1.379 -0.125,-1.504 -0.252,-1.505 -0.125,-1.504 -0.125,-1.504 0,-1.505 0,-1.503 0.004,0 z"
   style="fill:#ffffff" />
		<polygon
   points="328.466,120.869 328.216,120.619 328.089,120.243 327.964,119.866 327.839,119.239 327.839,118.487 327.839,111.969 331.354,111.969 331.354,110.59 327.839,110.59 327.839,106.076 326.081,106.578 326.081,110.59 323.444,110.59 323.444,111.969 326.081,111.969 326.081,119.239 326.081,120.117 326.206,120.869 326.331,121.496 326.708,121.872 326.833,122.123 327.085,122.248 327.712,122.499 328.341,122.75 329.095,122.75 330.349,122.75 330.853,122.625 331.354,122.499 331.354,122.499 331.354,120.995 330.601,121.12 329.722,121.12 329.22,121.12 328.718,120.995 "
   style="clip-rule:evenodd;fill:#ffffff;fill-rule:evenodd" />
		<path
   d="m 343.157,115.354 -0.127,-1.003 -0.125,-0.878 -0.377,-0.877 -0.25,-0.376 -0.252,-0.377 -0.252,-0.25 -0.375,-0.376 -0.377,-0.251 -0.377,-0.125 -0.502,-0.251 -0.502,-0.126 -0.629,0 -0.502,-0.125 -0.627,0.125 -0.629,0 -0.502,0.251 -0.502,0.126 -0.502,0.25 -0.377,0.376 -0.377,0.251 -0.377,0.502 -0.627,0.877 -0.377,1.003 -0.252,0.627 0,0.627 -0.125,0.627 0,0.627 0,0.752 0.125,0.752 0,0.627 0.252,0.627 0.125,0.627 0.252,0.501 0.377,0.376 0.25,0.376 0.377,0.377 0.377,0.376 0.502,0.25 0.502,0.126 0.502,0.251 0.629,0.125 0.627,0 0.629,0 1.129,0 1.004,-0.125 1.006,-0.251 0.879,-0.251 -0.252,-1.63 -0.754,0.376 -0.879,0.251 -0.879,0.125 -0.879,0 -1.004,0 -0.879,-0.25 -0.25,-0.126 -0.377,-0.25 -0.377,-0.251 -0.252,-0.251 -0.377,-0.752 -0.375,-0.878 0,-0.501 -0.127,-0.502 0,-1.253 8.037,0 0,-0.502 0,-0.376 10e-4,0 z m -1.885,-0.502 -6.025,0 0.125,-0.626 0.25,-0.627 0.252,-0.502 0.377,-0.501 0.502,-0.376 0.502,-0.251 0.502,-0.126 0.629,-0.125 0.627,0.125 0.629,0.126 0.25,0.125 0.252,0.126 0.25,0.25 0.127,0.126 0.375,0.501 0.252,0.502 0.125,0.627 0,0.626 -0.001,0 z"
   style="clip-rule:evenodd;fill:#ffffff;fill-rule:evenodd" />
		<polygon
   points="350.313,121.12 349.812,121.12 349.058,120.869 348.431,120.368 348.179,120.117 347.929,119.866 347.552,119.239 347.3,118.487 347.175,117.61 347.175,116.732 347.175,115.604 347.425,114.727 347.677,113.975 348.054,113.223 348.304,112.972 348.681,112.721 348.933,112.47 349.31,112.22 349.687,112.094 350.062,111.969 351.067,111.969 351.694,111.969 352.448,112.094 353.075,112.22 353.704,112.47 353.954,110.841 352.573,110.59 351.067,110.464 350.438,110.464 349.812,110.59 349.183,110.715 348.556,110.966 348.054,111.217 347.552,111.467 347.3,111.718 347.05,111.843 346.923,112.094 346.673,112.22 346.546,112.47 346.421,112.721 346.044,113.223 345.794,113.724 345.667,114.351 345.417,114.978 345.292,115.604 345.292,116.231 345.292,116.983 345.292,117.86 345.417,118.613 345.542,119.239 345.667,119.866 345.919,120.368 346.171,120.744 346.546,121.245 346.798,121.622 347.175,121.872 347.552,122.123 348.054,122.248 348.431,122.499 349.435,122.625 350.438,122.75 351.444,122.625 352.448,122.499 353.327,122.248 353.954,122.123 353.954,122.123 353.829,120.493 353.202,120.744 352.448,120.995 351.569,121.12 350.815,121.12 "
   style="clip-rule:evenodd;fill:#ffffff;fill-rule:evenodd" />
		<polygon
   points="365.632,111.467 365.38,111.217 365.13,111.091 364.753,110.841 364.501,110.715 364.124,110.59 363.749,110.464 363.245,110.339 362.743,110.339 361.991,110.464 361.237,110.59 360.608,110.841 360.106,111.217 359.604,111.593 359.103,112.094 358.726,112.721 358.601,112.972 358.476,113.223 358.601,111.969 358.601,110.59 356.843,110.59 356.843,122.625 358.601,122.625 358.601,116.857 358.726,115.729 358.851,115.354 358.851,114.852 359.228,113.975 359.604,113.223 360.233,112.721 360.483,112.47 360.86,112.22 361.487,111.969 362.241,111.843 362.87,111.969 363.372,112.094 363.749,112.345 364.124,112.596 364.251,113.097 364.376,113.599 364.501,114.1 364.501,114.852 364.501,122.625 366.386,122.625 366.386,122.625 366.386,114.226 366.259,113.473 366.134,112.721 366.134,112.345 365.882,112.094 "
   style="clip-rule:evenodd;fill:#ffffff;fill-rule:evenodd" />
		<path
   d="m 380.448,116.356 0,-0.752 -0.127,-0.376 0,-0.377 -0.125,-0.626 -0.25,-0.627 -0.127,-0.502 -0.25,-0.501 -0.377,-0.502 -0.377,-0.376 -0.377,-0.251 -0.377,-0.376 -0.377,-0.25 -0.502,-0.126 -0.502,-0.125 -0.502,-0.126 -0.502,0 -0.502,-0.125 -0.754,0.125 -0.627,0 -0.504,0.251 -0.627,0.126 -0.502,0.376 -0.377,0.25 -0.502,0.376 -0.377,0.377 -0.377,0.501 -0.252,0.502 -0.25,0.501 -0.252,0.502 -0.125,0.626 -0.125,0.502 -0.127,0.627 0,0.627 0,0.752 0.127,0.752 0.125,0.627 0.125,0.627 0.502,1.128 0.252,0.376 0.252,0.376 0.375,0.377 0.504,0.376 0.377,0.25 0.502,0.126 0.502,0.251 0.502,0.125 1.131,0 0.627,0 0.627,-0.125 0.629,-0.126 0.502,-0.251 0.502,-0.25 0.502,-0.251 0.377,-0.376 0.502,-0.502 0.252,-0.376 0.377,-0.501 0.25,-0.502 0.252,-0.627 0.125,-0.501 0.125,-0.627 0.127,-0.752 0,-0.627 0,0 z m -1.885,0.125 -0.125,1.129 -0.25,1.003 -0.127,0.501 -0.125,0.376 -0.502,0.627 -0.252,0.251 -0.25,0.251 -0.377,0.25 -0.252,0.126 -0.627,0.125 -0.754,0.125 -0.754,-0.125 -0.752,-0.125 -0.377,-0.251 -0.252,-0.251 -0.502,-0.501 -0.502,-0.627 -0.252,-0.878 -0.125,-0.376 0,-0.501 -0.125,-1.129 0,-0.501 0.125,-0.627 0.125,-0.878 0.377,-0.877 0.252,-0.251 0.25,-0.376 0.252,-0.251 0.252,-0.251 0.627,-0.25 0.754,-0.251 0.627,-0.126 0.502,0 0.377,0.126 0.377,0.125 0.377,0.126 0.25,0.125 0.377,0.251 0.252,0.251 0.25,0.25 0.377,0.627 0.127,0.376 0.125,0.502 0.125,0.877 0.125,1.003 0,0 z" style="clip-rule:evenodd;fill:#ffffff;fill-rule:evenodd" />
		<polygon
   points="385.345,104.948 383.462,104.948 383.462,122.499 385.345,122.499 385.345,122.499 "
   id="polygon37"
   style="clip-rule:evenodd;fill:#ffffff;fill-rule:evenodd" />
		<path
   d="m 399.407,116.356 0,-0.752 -0.125,-0.376 0,-0.377 -0.127,-0.626 -0.25,-0.627 -0.127,-0.502 -0.25,-0.501 -0.377,-0.502 -0.377,-0.376 -0.377,-0.251 -0.377,-0.376 -0.375,-0.25 -0.504,-0.126 -0.502,-0.125 -0.502,-0.126 -0.502,0 -0.502,-0.125 -0.754,0.125 -0.627,0 -0.502,0.251 -0.629,0.126 -0.502,0.376 -0.377,0.25 -0.502,0.376 -0.377,0.377 -0.377,0.501 -0.25,0.502 -0.252,0.501 -0.25,0.502 -0.127,0.626 -0.125,0.502 -0.125,0.627 0,0.627 0,0.752 0.125,0.752 0.125,0.627 0.127,0.627 0.502,1.128 0.25,0.376 0.252,0.376 0.377,0.377 0.502,0.376 0.377,0.25 0.502,0.126 0.502,0.251 0.502,0.125 1.131,0 0.627,0 0.629,-0.125 0.627,-0.126 0.502,-0.251 0.502,-0.25 0.502,-0.251 0.377,-0.376 0.502,-0.502 0.252,-0.376 0.377,-0.501 0.25,-0.502 0.252,-0.627 0.125,-0.501 0.127,-0.627 0.125,-0.752 0,-0.627 0,0 z m -1.883,0.125 -0.127,1.129 -0.25,1.003 -0.127,0.501 -0.125,0.376 -0.502,0.627 -0.252,0.251 -0.25,0.251 -0.377,0.25 -0.252,0.126 -0.627,0.125 -0.754,0.125 -0.752,-0.125 -0.754,-0.125 -0.377,-0.251 -0.252,-0.251 -0.502,-0.501 -0.502,-0.627 -0.25,-0.878 -0.127,-0.376 0,-0.501 -0.125,-1.129 0,-0.501 0.125,-0.627 0.127,-0.878 0.375,-0.877 0.252,-0.251 0.252,-0.376 0.25,-0.251 0.252,-0.251 0.627,-0.25 0.754,-0.251 0.627,-0.126 0.502,0 0.377,0.126 0.377,0.125 0.377,0.126 0.252,0.125 0.375,0.251 0.252,0.251 0.252,0.25 0.375,0.627 0.127,0.376 0.125,0.502 0.125,0.877 0.127,1.003 0,0 z"
   style="clip-rule:evenodd;fill:#ffffff;fill-rule:evenodd" />
		<path
   d="m 412.591,124.505 -0.125,-0.752 0,-0.376 -0.127,-0.376 -0.375,-0.502 -0.127,-0.251 -0.25,-0.25 -0.252,-0.251 -0.377,-0.125 -0.25,-0.126 -0.377,-0.125 -0.879,-0.251 -0.879,0 -2.387,0 -0.879,-0.125 -0.375,0 -0.377,-0.126 -0.252,-0.125 -0.125,-0.251 -0.125,-0.125 0,-0.251 0,-0.376 0.25,-0.251 0.125,-0.125 0.127,-0.126 0.125,-0.125 0.252,-0.125 0.752,0.125 0.879,0 0.629,0 0.627,0 1.004,-0.251 0.504,-0.25 0.375,-0.251 0.377,-0.251 0.377,-0.251 0.377,-0.376 0.252,-0.251 0.25,-0.376 0.125,-0.376 0.252,-0.877 0,-0.502 0.125,-0.501 -0.125,-0.376 0,-0.377 -0.252,-0.752 -0.125,-0.25 -0.25,-0.377 -0.504,-0.501 2.262,0 0,-1.379 -4.145,0 -0.879,-0.126 -0.879,-0.125 -1.129,0.125 -0.629,0.126 -0.502,0.125 -0.377,0.251 -0.502,0.251 -0.377,0.25 -0.377,0.251 -0.502,0.752 -0.502,0.753 -0.125,0.376 -0.127,0.501 0,0.502 -0.125,0.376 0.125,0.627 0,0.501 0.127,0.502 0.25,0.501 0.252,0.376 0.25,0.376 0.377,0.377 0.502,0.25 -0.627,0.376 -0.252,0.126 -0.125,0.25 -0.125,0.377 -0.125,0.25 -0.127,0.251 0,0.251 0,0.376 0.127,0.251 0,0.25 0.25,0.251 0.125,0.126 0.252,0.25 0.502,0.251 -0.502,0.251 -0.377,0.376 -0.377,0.251 -0.25,0.376 -0.252,0.501 -0.25,0.376 -0.127,0.502 0,0.627 0,0.376 0.127,0.376 0.25,0.752 0.125,0.251 0.252,0.376 0.252,0.251 0.375,0.251 0.377,0.125 0.377,0.251 0.377,0.125 0.377,0.125 1.004,0.126 1.131,0.125 0.627,0 0.629,-0.125 0.627,-0.126 0.627,-0.125 0.629,-0.125 0.502,-0.251 0.377,-0.251 0.502,-0.251 0.377,-0.376 0.377,-0.25 0.25,-0.377 0.252,-0.376 0.25,-0.501 0.127,-0.376 0.125,-0.502 0,-0.376 0,0 z m -2.637,-9.653 0,0.627 -0.252,0.627 -0.125,0.251 -0.125,0.251 -0.377,0.376 -0.502,0.376 -0.502,0.251 -0.629,0.125 -0.752,0.125 -0.629,-0.125 -0.627,-0.125 -0.629,-0.251 -0.377,-0.376 -0.375,-0.376 -0.252,-0.502 -0.252,-0.627 0,-0.627 0,-0.626 0.252,-0.627 0.125,-0.251 0.127,-0.251 0.125,-0.25 0.25,-0.251 0.504,-0.251 0.502,-0.376 0.627,-0.126 0.754,0 0.754,0 0.627,0.126 0.502,0.251 0.502,0.376 0.252,0.376 0.377,0.501 0.125,0.627 0,0.752 0,0 z m 0.879,9.778 -0.125,0.627 -0.252,0.502 -0.25,0.501 -0.252,0.126 -0.252,0.25 -0.627,0.377 -0.754,0.125 -0.752,0.251 -1.006,0 -0.627,0 -0.754,-0.126 -0.502,-0.25 -0.627,-0.251 -0.377,-0.251 -0.252,-0.501 -0.25,-0.376 0,-0.627 0,-0.377 0,-0.376 0.25,-0.25 0.125,-0.376 0.252,-0.251 0.377,-0.251 0.627,-0.501 0.754,0 2.512,0 0.627,0 0.502,0.125 0.502,0.251 0.377,0.25 0.377,0.251 0.125,0.376 0.127,0.376 0.125,0.376 0,0 z"
   style="clip-rule:evenodd;fill:#ffffff;fill-rule:evenodd" />
		<path
   d="m 417.487,122.499 0,-11.909 -1.758,0 0,11.909 1.758,0 0,0 z m 1.508,-16.297 -1.006,-1.254 -3.014,2.633 0.754,1.003 3.266,-2.382 0,0 z"
   style="clip-rule:evenodd;fill:#ffffff;fill-rule:evenodd" />
		<path
   d="m 429.919,122.625 0,-1.756 0,-1.88 0,-4.639 -0.127,-0.878 -0.125,-0.752 -0.125,-0.376 -0.127,-0.251 -0.25,-0.376 -0.125,-0.251 -0.252,-0.25 -0.377,-0.126 -0.754,-0.376 -0.879,-0.251 -0.502,0 -0.627,-0.125 -1.131,0.125 -1.129,0.126 -1.006,0.376 -0.879,0.376 0.127,1.505 0.879,-0.377 0.502,-0.25 0.377,-0.126 1.004,-0.251 0.879,0 0.754,0 0.627,0.126 0.502,0.251 0.252,0.376 0.377,0.376 0.125,0.501 0.125,0.502 0,0.627 0,1.003 -0.879,0 -0.754,0.125 -1.506,0.251 -0.627,0.125 -0.629,0.251 -1.004,0.501 -0.377,0.251 -0.377,0.376 -0.377,0.251 -0.25,0.376 -0.252,0.502 -0.125,0.376 -0.125,0.376 0,0.501 0.125,0.627 0,0.376 0.125,0.251 0.252,0.502 0.377,0.376 0.502,0.376 0.627,0.251 0.629,0.125 0.627,0 0.754,0 0.752,-0.125 0.629,-0.251 0.502,-0.376 0.502,-0.376 0.502,-0.502 0.252,-0.501 0.252,-0.627 0.125,0 -0.125,0.627 0,0.626 0,1.38 1.758,0 0,0 z m -1.885,-5.517 0,0.878 -0.25,0.752 -0.252,0.627 -0.502,0.627 -0.502,0.501 -0.252,0.251 -0.25,0.251 -0.377,0.125 -0.377,0.125 -0.754,0.126 -0.377,-0.126 -0.377,0 -0.375,-0.25 -0.252,-0.126 -0.252,-0.25 -0.125,-0.376 -0.125,-0.377 -0.125,-0.376 0.125,-0.125 0,-0.251 0.125,-0.501 0.377,-0.376 0.502,-0.377 0.252,-0.25 0.502,-0.126 0.879,-0.251 1.256,-0.25 1.506,0 0,0.125 0,0 z"
   style="clip-rule:evenodd;fill:#ffffff;fill-rule:evenodd" />
		<polygon
   points="439.587,116.607 439.083,116.356 438.079,115.854 436.95,115.604 435.944,115.229 435.694,114.978 435.442,114.727 435.317,114.602 435.192,114.351 435.192,114.226 435.065,113.724 435.192,113.348 435.317,112.972 435.442,112.596 435.694,112.345 436.071,112.094 436.573,111.969 437.075,111.843 437.702,111.843 438.958,111.969 439.587,112.094 440.214,112.22 440.214,110.715 439.083,110.464 438.456,110.464 437.954,110.339 436.823,110.464 436.321,110.59 435.944,110.715 435.065,110.966 434.438,111.342 433.937,111.969 433.685,112.22 433.56,112.47 433.435,112.847 433.308,113.223 433.308,113.599 433.183,113.849 433.308,114.602 433.435,114.978 433.435,115.229 433.81,115.729 434.187,116.105 434.563,116.481 435.065,116.732 436.196,117.108 437.2,117.359 437.702,117.61 438.204,117.735 438.581,118.111 438.708,118.237 438.833,118.362 438.958,118.613 438.958,118.738 439.083,119.239 438.958,119.741 438.833,120.117 438.581,120.493 438.204,120.744 437.829,120.995 437.325,121.12 436.698,121.245 436.071,121.245 435.442,121.245 434.688,121.12 434.062,120.995 433.435,120.869 433.435,122.499 434.563,122.75 435.944,122.75 437.075,122.75 438.079,122.499 438.958,122.123 439.335,121.998 439.587,121.747 439.962,121.371 440.214,121.12 440.466,120.869 440.591,120.493 440.716,120.117 440.841,119.741 440.968,119.365 440.968,118.989 440.968,118.989 440.841,118.362 440.841,117.986 440.716,117.735 440.466,117.233 440.089,116.857 "
   style="clip-rule:evenodd;fill:#ffffff;fill-rule:evenodd" />
		<polygon
   points="334.368,87.397 334.116,87.146 333.864,87.021 333.614,86.771 333.237,86.646 332.86,86.52 332.483,86.395 331.981,86.269 331.479,86.269 330.726,86.395 330.099,86.52 329.47,86.771 328.843,87.146 328.341,87.522 327.839,88.024 327.462,88.651 327.337,88.901 327.21,89.152 327.337,87.898 327.337,86.52 325.579,86.52 325.579,98.555 327.337,98.555 327.337,92.788 327.462,91.659 327.587,91.283 327.712,90.782 327.964,89.904 328.466,89.152 328.968,88.651 329.22,88.4 329.597,88.149 330.224,87.898 331.103,87.773 331.604,87.898 332.106,88.024 332.483,88.274 332.86,88.525 333.112,89.027 333.237,89.528 333.237,90.03 333.362,90.782 333.362,98.555 335.12,98.555 335.12,98.555 335.12,90.155 335.12,89.403 334.995,88.651 334.87,88.274 334.743,88.024 "
   style="clip-rule:evenodd;fill:#ffffff;fill-rule:evenodd" />
		<polygon
   points="346.798,94.292 346.421,95.17 346.044,95.797 345.542,96.424 345.165,96.674 344.915,96.925 344.161,97.176 343.407,97.301 342.78,97.176 342.278,97.051 341.901,96.8 341.649,96.424 341.399,96.048 341.272,95.546 341.147,94.919 341.147,94.292 341.147,86.52 339.39,86.52 339.39,94.919 339.39,95.671 339.515,96.424 339.642,96.674 339.767,97.051 340.144,97.552 340.394,97.803 340.646,98.054 340.896,98.304 341.272,98.43 341.524,98.555 342.026,98.68 342.403,98.68 342.905,98.806 343.659,98.68 344.413,98.555 345.04,98.304 345.667,97.928 346.171,97.552 346.546,97.051 346.923,96.424 347.05,96.173 347.175,95.797 347.3,95.797 347.175,97.176 347.05,98.555 348.808,98.555 348.808,98.555 348.808,86.52 347.05,86.52 347.05,92.286 347.05,93.289 346.923,93.791 "
   style="clip-rule:evenodd;fill:#ffffff;fill-rule:evenodd" />
		<path
   d="m 361.864,91.283 0,-1.003 -0.25,-0.877 -0.377,-0.878 -0.125,-0.376 -0.252,-0.376 -0.377,-0.251 -0.377,-0.376 -0.377,-0.251 -0.375,-0.125 -0.504,-0.251 -0.502,-0.125 -0.502,0 -0.627,-0.126 -0.629,0.126 -0.502,0 -0.627,0.251 -0.502,0.125 -0.377,0.251 -0.502,0.376 -0.377,0.251 -0.377,0.501 -0.629,0.878 -0.375,1.003 -0.127,0.627 -0.125,0.626 -0.125,0.627 0,0.627 0,0.752 0.125,0.753 0.125,0.626 0.127,0.627 0.25,0.627 0.252,0.502 0.25,0.376 0.252,0.376 0.377,0.376 0.502,0.376 0.377,0.251 0.502,0.125 0.627,0.251 0.502,0.125 0.629,0 0.627,0 1.131,0 1.004,-0.125 1.004,-0.251 0.879,-0.25 -0.25,-1.63 -0.629,0.376 -0.879,0.251 -1.004,0.125 -0.879,0 -1.004,0 -0.754,-0.251 -0.377,-0.125 -0.377,-0.251 -0.25,-0.251 -0.252,-0.25 -0.502,-0.753 -0.25,-0.877 -0.127,-0.502 -0.125,-0.501 0,-1.254 8.035,0 0,-0.502 0,-0.376 10e-4,0 z m -1.883,-0.501 -6.027,0 0.127,-0.627 0.25,-0.627 0.252,-0.501 0.377,-0.502 0.502,-0.376 0.502,-0.251 0.502,-0.125 0.627,-0.125 0.629,0.125 0.627,0.125 0.252,0.126 0.25,0.125 0.252,0.251 0.125,0.125 0.377,0.502 0.252,0.501 0.125,0.627 0,0.627 -0.001,0 z"
   style="clip-rule:evenodd;fill:#ffffff;fill-rule:evenodd" />
		<polygon
   points="365.003,86.52 362.995,86.52 367.515,98.555 369.397,98.555 374.044,86.52 374.044,86.52 372.036,86.52 369.147,94.418 368.771,95.421 368.519,96.424 367.767,94.292 "
   id="polygon55"
   style="clip-rule:evenodd;fill:#ffffff;fill-rule:evenodd" />
		<path
   d="m 383.837,98.555 -0.125,-1.755 0,-1.881 0,-4.639 0,-0.877 -0.125,-0.752 -0.125,-0.377 -0.127,-0.25 -0.25,-0.376 -0.252,-0.251 -0.25,-0.251 -0.252,-0.125 -0.754,-0.376 -0.879,-0.251 -0.627,0 -0.502,-0.126 -1.256,0.126 -1.004,0.125 -1.006,0.376 -0.879,0.376 0.127,1.505 0.879,-0.376 0.375,-0.251 0.504,-0.125 1.004,-0.251 0.879,0 0.754,0 0.627,0.125 0.377,0.251 0.377,0.376 0.25,0.376 0.252,0.502 0.125,0.501 0,0.627 0,1.003 -0.879,0 -0.754,0.125 -1.506,0.251 -0.627,0.126 -0.629,0.25 -1.004,0.502 -0.502,0.251 -0.377,0.376 -0.252,0.25 -0.25,0.377 -0.252,0.501 -0.125,0.376 -0.125,0.376 0,0.502 0,0.627 0.125,0.376 0.125,0.251 0.252,0.501 0.377,0.376 0.502,0.376 0.502,0.251 0.754,0.125 0.627,0 0.754,0 0.627,-0.125 0.629,-0.251 0.627,-0.376 0.502,-0.376 0.377,-0.501 0.377,-0.502 0.25,-0.627 0.127,0 -0.127,0.627 0,0.627 0,1.379 1.758,0 0,0 z m -1.883,-5.516 -0.125,0.877 -0.125,0.752 -0.377,0.627 -0.377,0.627 -0.502,0.502 -0.252,0.25 -0.377,0.251 -0.25,0.126 -0.377,0.125 -0.754,0.125 -0.502,-0.125 -0.377,0 -0.25,-0.251 -0.252,-0.125 -0.252,-0.251 -0.25,-0.376 0,-0.376 -0.125,-0.376 0,-0.126 0.125,-0.25 0.125,-0.502 0.377,-0.376 0.502,-0.376 0.252,-0.251 0.377,-0.125 1.004,-0.251 1.256,-0.251 1.506,0 0,0.126 0,0 z"
   style="clip-rule:evenodd;fill:#ffffff;fill-rule:evenodd" />
		<polygon
   points="393.505,92.537 393.003,92.286 391.874,91.785 390.868,91.534 389.864,91.158 389.487,90.907 389.362,90.657 389.237,90.531 389.11,90.28 389.11,90.155 388.985,89.654 388.985,89.277 389.11,88.901 389.362,88.525 389.614,88.274 389.989,88.024 390.493,87.898 390.995,87.773 391.622,87.773 392.878,87.898 393.505,88.024 394.134,88.149 394.134,86.646 393.003,86.395 392.376,86.395 391.747,86.269 390.743,86.395 390.241,86.52 389.739,86.646 388.985,86.896 388.358,87.271 387.856,87.898 387.604,88.149 387.479,88.4 387.353,88.776 387.228,89.152 387.103,89.528 387.103,89.779 387.228,90.531 387.228,90.907 387.353,91.158 387.604,91.659 387.981,92.036 388.483,92.412 388.985,92.663 389.989,93.039 391.12,93.289 391.622,93.54 391.999,93.665 392.376,94.042 392.626,94.167 392.753,94.292 392.878,94.543 392.878,94.668 393.003,95.17 392.878,95.671 392.753,96.048 392.501,96.424 392.124,96.674 391.747,96.925 391.245,97.051 390.618,97.176 389.989,97.176 389.362,97.176 388.608,97.051 387.981,96.925 387.353,96.8 387.353,98.43 388.483,98.68 389.864,98.68 390.995,98.68 391.874,98.43 392.753,98.054 393.13,97.928 393.505,97.677 393.757,97.301 394.134,97.051 394.259,96.8 394.511,96.424 394.636,96.048 394.761,95.671 394.761,95.295 394.888,94.919 394.888,94.919 394.761,94.292 394.636,93.916 394.636,93.665 394.259,93.164 393.882,92.788 "
   id="polygon59"
   style="clip-rule:evenodd;fill:#ffffff;fill-rule:evenodd" />
		<path
   d="m 302.601,125.383 0,-45.131 5.148,0 0,45.131 -5.148,0 0,0 z m -112.626,0 0,-45.131 7.658,0 12.808,38.361 12.933,-38.361 7.533,0 0,45.131 -4.52,0 0,-39.74 -13.436,39.74 -5.021,0 -13.31,-39.74 -0.126,39.74 -4.519,0 0,0 z m 43.694,0 14.439,-45.131 6.152,0 14.564,45.131 -5.021,0 -4.521,-13.916 -16.071,0 -4.395,13.916 -5.147,0 0,0 z m 17.453,-40.493 -6.53,22.315 13.31,0 -6.654,-22.315 -0.126,0 0,0 z m 26.242,40.493 -14.691,-45.131 5.148,0 12.807,39.489 12.934,-39.489 5.273,0 -15.068,45.131 -6.403,0 0,0 z"
   style="fill:#ffffff" />
	</g></switch></svg>