<svg xmlns="http://www.w3.org/2000/svg"
   width="46mm"
   height="49.2mm"
   viewBox="0 0 163.2 174.5">
  <g
     id="layer1"
     transform="translate(-482.56949,-215.00824)">
    <switch
       id="switch3337"
       transform="translate(-141.14105,-40.4614)">
      <g>
          <g
             id="g3342">
            <polygon
               id="polygon3344"
               points="0,0 158.262,0 158.262,-158.262 0,-158.262     "
               fill="none" />
            <polygon
               id="polygon3346"
               points="158.262,0 0,0 0,-158.262 158.262,-158.262     "
               fill="#F2E2C0" />
            <path
               id="path3348"
               d="M19.701-141.762c0,2.209-1.791,4-4,4s-4-1.791-4-4s1.791-4,4-4S19.701-143.971,19.701-141.762z"
               fill="#D7B96E" />
            <path
               id="path3350"
               d="M45.701-122.512c0,2.348-1.902,4.25-4.25,4.25c-2.347,0-4.25-1.902-4.25-4.25s1.903-4.25,4.25-4.25      C43.799-126.762,45.701-124.859,45.701-122.512z"
               fill="#D7B96E" />
            <path
               id="path3352"
               d="M29.701-109.262c0,0.828-0.671,1.5-1.5,1.5c-0.828,0-1.5-0.672-1.5-1.5s0.672-1.5,1.5-1.5      C29.03-110.762,29.701-110.09,29.701-109.262z"
               fill="#D7B96E" />
            <path
               id="path3354"
               d="M22.701-72.262c0,1.933-1.566,3.5-3.5,3.5c-1.933,0-3.5-1.567-3.5-3.5s1.567-3.5,3.5-3.5      C21.135-75.762,22.701-74.194,22.701-72.262z"
               fill="#D7B96E" />
            <path
               id="path3356"
               d="M102.201-138.512c0,1.795-1.455,3.25-3.25,3.25s-3.25-1.455-3.25-3.25s1.455-3.25,3.25-3.25      S102.201-140.307,102.201-138.512z"
               fill="#D7B96E" />
            <path
               id="path3358"
               d="M82.131-101.762c0,0.828-0.672,1.5-1.5,1.5s-1.5-0.672-1.5-1.5s0.672-1.5,1.5-1.5      S82.131-102.59,82.131-101.762z"
               fill="#FDF7E6" />
            <path
               id="path3360"
               d="M82.701-61.762c0,1.933-1.566,3.5-3.5,3.5c-1.933,0-3.5-1.567-3.5-3.5s1.567-3.5,3.5-3.5      C81.135-65.262,82.701-63.694,82.701-61.762z"
               fill="#D7B96E" />
            <path
               id="path3362"
               d="M111.201-104.762c0,1.657-1.343,3-3,3c-1.656,0-3-1.343-3-3s1.344-3,3-3      C109.858-107.762,111.201-106.419,111.201-104.762z"
               fill="#D7B96E" />
            <path
               id="path3364"
               d="M143.701-148.012c0,1.242-1.007,2.25-2.25,2.25c-1.242,0-2.25-1.008-2.25-2.25s1.008-2.25,2.25-2.25      C142.694-150.262,143.701-149.254,143.701-148.012z"
               fill="#FDF7E6" />
            <path
               id="path3366"
               d="M150.701-41.762c0,1.933-1.566,3.5-3.5,3.5c-1.933,0-3.5-1.567-3.5-3.5s1.567-3.5,3.5-3.5      C149.135-45.262,150.701-43.694,150.701-41.762z"
               fill="#D7B96E" />
            <path
               id="path3368"
               d="M123.201-9.012c0,1.242-1.007,2.25-2.25,2.25c-1.242,0-2.25-1.008-2.25-2.25s1.008-2.25,2.25-2.25      C122.194-11.262,123.201-10.254,123.201-9.012z"
               fill="#D7B96E" />
            <path
               id="path3370"
               d="M121.201-50.262c0,2.762-2.238,5-5,5c-2.761,0-5-2.238-5-5s2.239-5,5-5      C118.963-55.262,121.201-53.023,121.201-50.262z"
               fill="#D7B96E" />
            <path
               id="path3372"
               d="M128.332-81.696c0,1.417-1.148,2.565-2.564,2.565c-1.418,0-2.566-1.148-2.566-2.565      s1.148-2.565,2.566-2.565C127.184-84.262,128.332-83.113,128.332-81.696z"
               fill="#D7B96E" />
            <path
               id="path3374"
               d="M48.201-47.762c0,1.381-1.119,2.5-2.5,2.5s-2.5-1.119-2.5-2.5s1.119-2.5,2.5-2.5      S48.201-49.143,48.201-47.762z"
               fill="#D7B96E" />
            <path
               id="path3376"
               d="M50.832-81.696c0,1.417-1.148,2.565-2.564,2.565c-1.418,0-2.566-1.148-2.566-2.565      s1.148-2.565,2.566-2.565C49.684-84.262,50.832-83.113,50.832-81.696z"
               fill="#D7B96E" />
            <path
               id="path3378"
               d="M15.701-32.762c0,1.104-0.895,2-2,2c-1.104,0-2-0.896-2-2s0.896-2,2-2      C14.807-34.762,15.701-33.866,15.701-32.762z"
               fill="#FDF7E6" />
            <path
               id="path3380"
               d="M34.701-10.012c0,1.795-1.455,3.25-3.25,3.25s-3.25-1.455-3.25-3.25s1.455-3.25,3.25-3.25      S34.701-11.807,34.701-10.012z"
               fill="#D7B96E" />
            <path
               id="path3382"
               d="M92.701-17.262c0,0.828-0.671,1.5-1.5,1.5c-0.828,0-1.5-0.672-1.5-1.5s0.672-1.5,1.5-1.5      C92.03-18.762,92.701-18.09,92.701-17.262z"
               fill="#FDF7E6" />
            <path
               id="path3384"
               d="M63.701-29.762c0,1.657-1.343,3-3,3c-1.656,0-3-1.343-3-3s1.344-3,3-3      C62.358-32.762,63.701-31.419,63.701-29.762z"
               fill="#D7B96E" />
            <path
               id="path3386"
               d="M82.701-36.512c0,0.967-0.783,1.75-1.75,1.75c-0.966,0-1.75-0.783-1.75-1.75s0.784-1.75,1.75-1.75      C81.918-38.262,82.701-37.479,82.701-36.512z"
               fill="#D7B96E" />
            <path
               id="path3388"
               d="M76.451-11.637c0,0.897-0.727,1.625-1.625,1.625c-0.896,0-1.625-0.728-1.625-1.625      s0.729-1.625,1.625-1.625C75.725-13.262,76.451-12.534,76.451-11.637z"
               fill="#D7B96E" />
            <path
               id="path3390"
               d="M57.201-156.012c0,1.242-1.007,2.25-2.25,2.25c-1.242,0-2.25-1.008-2.25-2.25s1.008-2.25,2.25-2.25      C56.194-158.262,57.201-157.254,57.201-156.012z"
               fill="#D7B96E" />
            <path
               id="path3392"
               d="M63.701-136.262c0,0.828-0.671,1.5-1.5,1.5c-0.828,0-1.5-0.672-1.5-1.5s0.672-1.5,1.5-1.5      C63.03-137.762,63.701-137.09,63.701-136.262z"
               fill="#D7B96E" />
            <path
               id="path3394"
               d="M147.201-107.512c0,0.967-0.783,1.75-1.75,1.75c-0.966,0-1.75-0.783-1.75-1.75s0.784-1.75,1.75-1.75      C146.418-109.262,147.201-108.479,147.201-107.512z"
               fill="#D7B96E" />
          </g>
       
        <g
           id="g3396" />
        <g
           id="g3416" />
        <g
           id="g3442">
          <g
             id="g3444">
            <g
               id="g3446">
              <g
                 id="g3448">
                <path
                   id="path3450"
                   d="m 356.225,611.829 c 5.588,2.491 13.47,-0.435 19.671,2.346 4.383,1.959 10.303,9.058 14.306,12.469 10.618,9.058 22.403,11.937 34.062,18.733"
                   style="fill:none" />
              </g>
              <g
                 id="g3452">
                <g
                   id="g3454" />
              </g>
            </g>
            <g
               id="g3458">
              <g
                 id="g3460">
                <path
                   id="path3462"
                   d="m 378.894,587.292 c 12.093,21.974 33.27,32.458 48.252,51.142"
                   style="fill:none" />
              </g>
              <g
                 id="g3464">
                <g
                   id="g3466" />
              </g>
            </g>
            <g
               id="g3470">
              <g
                 id="g3472">
                <path
                   id="path3474"
                   d="m 382.341,581.39 c 9.662,4.438 20.643,8.67 30.619,14.077 9.543,5.164 22.361,13.23 33.445,12.263"
                   style="fill:none" />
              </g>
              <g
                 id="g3476">
                <g
                   id="g3478" />
              </g>
            </g>
            <g
               id="g3482">
              <g
                 id="g3484">
                <path
                   id="path3486"
                   d="m 404.641,561.06 c 2.2,10.655 9.712,18.709 17.729,25.033 7.164,5.661 21.023,7.729 25.893,15.264"
                   style="fill:none" />
              </g>
              <g
                 id="g3488">
                <g
                   id="g3490" />
              </g>
            </g>
            <g
               id="g3494">
              <g
                 id="g3496">
                <path
                   id="path3498"
                   d="m 409.573,552.993 c 8.613,8.078 18.734,3.858 26.994,14.839 5.83,7.752 8.973,12.407 15.855,19.18"
                   style="fill:none" />
              </g>
              <g
                 id="g3500">
                <g
                   id="g3502" />
              </g>
            </g>
            <g
               id="g3506">
              <g
                 id="g3508">
                <path
                   id="path3510"
                   d="m 423.759,539.823 c 9.445,6.385 21.854,0.75 30.146,13.218 4.842,7.268 7.986,17.1 12.34,25.021"
                   style="fill:none" />
              </g>
              <g
                 id="g3512">
                <g
                   id="g3514" />
              </g>
            </g>
            <g
               id="g3518">
              <g
                 id="g3520">
                <path
                   id="path3522"
                   d="m 449.608,516.204 c -10.326,20.837 19.526,24.611 25.162,38.398"
                   style="fill:none" />
              </g>
              <g
                 id="g3524">
                <g
                   id="g3526" />
              </g>
            </g>
            <g
               id="g3530">
              <g
                 id="g3532">
                <path
                   id="path3534"
                   d="m 451.454,509.831 c 7.342,16 36.141,16.278 36.584,34.794"
                   style="fill:none" />
              </g>
              <g
                 id="g3536">
                <g
                   id="g3538" />
              </g>
            </g>
            <g
               id="g3542">
              <g
                 id="g3544">
                <path
                   id="path3546"
                   d="m 461.226,491.062 c 4.003,9.058 13.111,14.32 19.557,21.321 6.783,7.366 11.441,15.504 16.404,24.526"
                   style="fill:none" />
              </g>
              <g
                 id="g3548">
                <g
                   id="g3550" />
              </g>
            </g>
            <g
               id="g3554">
              <g
                 id="g3556">
                <path
                   id="path3558"
                   d="m 484.006,495.936 c 10.442,12.009 25.799,19.011 33.382,33.862"
                   style="fill:none" />
              </g>
              <g
                 id="g3560">
                <g
                   id="g3562" />
              </g>
            </g>
            <g
               id="g3566">
              <g
                 id="g3568">
                <path
                   id="path3570"
                   d="m 487.746,471.095 c 2.349,9.325 4.175,18.842 10.783,26.522 6.21,7.208 20.915,13.242 21.168,24.211"
                   style="fill:none" />
              </g>
              <g
                 id="g3572">
                <g
                   id="g3574" />
              </g>
            </g>
            <g
               id="g3578">
              <g
                 id="g3580">
                <path
                   id="path3582"
                   d="m 507.909,476.078 c -2.518,11.26 5.789,12.578 11.668,19.146 4.712,5.26 4.947,12.383 7.68,18.442"
                   style="fill:none" />
              </g>
              <g
                 id="g3584">
                <g
                   id="g3586" />
              </g>
            </g>
            <g
               id="g3590">
              <g
                 id="g3592">
                <path
                   id="path3594"
                   d="m 517.665,457.31 c -4.299,22.977 21.443,28.601 23.523,50.019"
                   style="fill:none" />
              </g>
              <g
                 id="g3596">
                <g
                   id="g3598" />
              </g>
            </g>
            <g
               id="g3602">
              <g
                 id="g3604">
                <path
                   id="path3606"
                   d="m 529.083,453.705 c 8.537,15.638 11.984,33.233 21.357,48.531"
                   style="fill:none" />
              </g>
              <g
                 id="g3608">
                <g
                   id="g3610" />
              </g>
            </g>
            <g
               id="g3614">
              <g
                 id="g3616">
                <path
                   id="path3618"
                   d="m 541.261,456.366 c 3.689,9.891 14.125,13.447 18.268,23.449 3.211,7.776 5.484,19.216 1.608,27.247"
                   style="fill:none" />
              </g>
              <g
                 id="g3620">
                <g
                   id="g3622" />
              </g>
            </g>
            <g
               id="g3626">
              <g
                 id="g3628">
                <path
                   id="path3630"
                   d="m 592.279,471.157 c -3.997,8.283 -13.901,8.851 -17.64,16.615 -2.285,4.741 -0.604,14.089 -1.428,19.337"
                   style="fill:none" />
              </g>
              <g
                 id="g3632">
                <g
                   id="g3634" />
              </g>
            </g>
            <g
               id="g3638">
              <g
                 id="g3640">
                <path
                   id="path3642"
                   d="m 576.95,455.483 c -7.002,14.463 -3.979,30.535 -8.719,45"
                   style="fill:none" />
              </g>
              <g
                 id="g3644">
                <g
                   id="g3646" />
              </g>
            </g>
            <g
               id="g3650">
              <g
                 id="g3652">
                <path
                   id="path3654"
                   d="m 608.743,488.897 c -7.389,-1.016 -32.344,12.142 -35.531,18.213"
                   style="fill:none" />
              </g>
              <g
                 id="g3656">
                <g
                   id="g3658" />
              </g>
            </g>
            <g
               id="g3662">
              <g
                 id="g3664">
                <path
                   id="path3666"
                   d="m 624.218,495.101 c -9.373,5.164 -19.621,13.353 -29.707,16.46 -11.225,3.458 -24.303,3.108 -36.045,7.692"
                   style="fill:none" />
              </g>
              <g
                 id="g3668">
                <g
                   id="g3670" />
              </g>
            </g>
            <g
               id="g3674">
              <g
                 id="g3676">
                <path
                   id="path3678"
                   d="m 636.928,510.896 c -6.415,-2.333 -27.351,3.58 -34.569,5.805 -6.348,1.947 -12.555,6.736 -18.387,9.953"
                   style="fill:none" />
              </g>
              <g
                 id="g3680">
                <g
                   id="g3682" />
              </g>
            </g>
            <g
               id="g3686">
              <g
                 id="g3688">
                <path
                   id="path3690"
                   d="m 642.437,530.632 c -10.049,-6.797 -38.99,-12.542 -49.572,-4.862"
                   style="fill:none" />
              </g>
              <g
                 id="g3692">
                <g
                   id="g3694" />
              </g>
            </g>
            <g
               id="g3698">
              <g
                 id="g3700">
                <path
                   id="path3702"
                   d="m 349.263,674.619 c 4.257,7.316 24.41,-9.832 32.447,-11.429 7.758,-1.535 22.967,-5.804 30.525,-3.156"
                   style="fill:none" />
              </g>
              <g
                 id="g3704">
                <g
                   id="g3706" />
              </g>
            </g>
            <g
               id="g3710">
              <g
                 id="g3712">
                <path
                   id="path3714"
                   d="m 348.007,643.15 c 3.336,5.527 27.834,2.794 36.238,4.307 6.282,1.125 14.965,4.124 20.733,1.838"
                   style="fill:none" />
              </g>
              <g
                 id="g3716">
                <g
                   id="g3718" />
              </g>
            </g>
            <g
               id="g3722">
              <g
                 id="g3724">
                <path
                   id="path3726"
                   d="m 380.688,712.241 c 3.805,-8.38 9.598,-15.831 16.176,-22.336 5.516,-5.467 13.992,-8.441 18.623,-14.234"
                   style="fill:none" />
              </g>
              <g
                 id="g3728">
                <g
                   id="g3730" />
              </g>
            </g>
            <g
               id="g3734">
              <g
                 id="g3736">
                <path
                   id="path3738"
                   d="m 360.782,700.413 c 10.008,-4.196 16.309,-14.258 26.816,-18.804 10.104,-4.367 17.488,-6.276 24.951,-13.714"
                   style="fill:none" />
              </g>
              <g
                 id="g3740">
                <g
                   id="g3742" />
              </g>
            </g>
            <g
               id="g3746">
              <g
                 id="g3748">
                <path
                   id="path3750"
                   d="m 402.911,742.875 c 0.018,-11.888 6.931,-25.977 11.592,-36.994 2.841,-6.712 8,-14.875 2.883,-21.877"
                   style="fill:none" />
              </g>
              <g
                 id="g3752">
                <g
                   id="g3754" />
              </g>
            </g>
            <g
               id="g3758">
              <g
                 id="g3760">
                <path
                   id="path3762"
                   d="m 440.764,770.266 c -8.956,-23.05 17.501,-58.918 1.567,-79.915"
                   style="fill:none" />
              </g>
              <g
                 id="g3764">
                <g
                   id="g3766" />
              </g>
            </g>
            <g
               id="g3770">
              <g
                 id="g3772">
                <path
                   id="path3774"
                   d="m 473.561,749.527 c -11.161,-19 -8.235,-40.418 -14.47,-60.36"
                   style="fill:none" />
              </g>
              <g
                 id="g3776">
                <g
                   id="g3778" />
              </g>
            </g>
            <g
               id="g3782">
              <g
                 id="g3784">
                <path
                   id="path3786"
                   d="m 420.036,737.47 c 6.265,-14.163 11.451,-33.198 10.672,-48.738"
                   style="fill:none" />
              </g>
              <g
                 id="g3788">
                <g
                   id="g3790" />
              </g>
            </g>
            <g
               id="g3794">
              <g
                 id="g3796">
                <path
                   id="path3798"
                   d="m 489.913,737.856 c -0.872,-20.292 -13.896,-38.143 -25.216,-53.103"
                   style="fill:none" />
              </g>
              <g
                 id="g3800">
                <g
                   id="g3802" />
              </g>
            </g>
            <g
               id="g3806">
              <g
                 id="g3808">
                <path
                   id="path3810"
                   d="m 517.816,713.1 c -9.22,-6.131 -18.714,-12.808 -28.474,-18.854 -5.684,-3.518 -12.094,-10.074 -17.916,-11.864"
                   style="fill:none" />
              </g>
              <g
                 id="g3812">
                <g
                   id="g3814" />
              </g>
            </g>
            <g
               id="g3818">
              <g
                 id="g3820">
                <path
                   id="path3822"
                   d="m 534.815,678.294 c -15.45,10.038 -41.868,8.973 -53.321,-6.808"
                   style="fill:none" />
              </g>
              <g
                 id="g3824">
                <g
                   id="g3826" />
              </g>
            </g>
            <g
               id="g3830">
              <g
                 id="g3832">
                <path
                   id="path3834"
                   d="m 528.461,703.231 c -7.722,-13.858 -21.11,-47.829 -37.194,-50.526"
                   style="fill:none" />
              </g>
              <g
                 id="g3836">
                <g
                   id="g3838" />
              </g>
            </g>
            <g
               id="g3842">
              <g
                 id="g3844">
                <path
                   id="path3846"
                   d="m 544.073,673.203 c -4.988,-5.792 -16.914,-8.199 -23.527,-12.856 -6.276,-4.414 -13.612,-9.468 -19.568,-14.33"
                   style="fill:none" />
              </g>
              <g
                 id="g3848">
                <g
                   id="g3850" />
              </g>
            </g>
            <g
               id="g3854">
              <g
                 id="g3856">
                <path
                   id="path3858"
                   d="m 551.323,657.155 c -6.229,-11.102 -26.498,-19.663 -38.216,-23.171"
                   style="fill:none" />
              </g>
              <g
                 id="g3860">
                <g
                   id="g3862" />
              </g>
            </g>
            <g
               id="g3866">
              <g
                 id="g3868">
                <path
                   id="path3870"
                   d="m 578.306,635.593 c -10.207,-0.545 -18.392,3.084 -27.998,-0.108 -10.523,-3.508 -21.828,-7.088 -31.341,-12.771"
                   style="fill:none" />
              </g>
              <g
                 id="g3872">
                <g
                   id="g3874" />
              </g>
            </g>
            <g
               id="g3878">
              <g
                 id="g3880">
                <path
                   id="path3882"
                   d="m 596.868,640.115 c -6.445,-12.589 -23.873,-17.583 -35.713,-23.147 -7.098,-3.337 -13.68,-8.756 -20.812,-11.379"
                   style="fill:none" />
              </g>
              <g
                 id="g3884">
                <g
                   id="g3886" />
              </g>
            </g>
            <g
               id="g3890">
              <g
                 id="g3892">
                <path
                   id="path3894"
                   d="m 607.66,620.778 c -8.815,-7.656 -21.901,-13.447 -32.579,-18.359 -6.875,-3.155 -14.971,-8.743 -22.137,-10.46"
                   style="fill:none" />
              </g>
              <g
                 id="g3896">
                <g
                   id="g3898" />
              </g>
            </g>
            <g
               id="g3902">
              <g
                 id="g3904">
                <path
                   id="path3906"
                   d="m 627.542,579.019 c -8.967,-5.574 -26.261,3.641 -37.494,2.359 -9.397,-1.078 -20.748,-5.081 -30.326,-3.87"
                   style="fill:none" />
              </g>
              <g
                 id="g3908">
                <g
                   id="g3910" />
              </g>
            </g>
            <g
               id="g3914">
              <g
                 id="g3916">
                <path
                   id="path3918"
                   d="m 617.317,599.385 c -12.879,-14.489 -39.396,-6.894 -52.244,-19.471"
                   style="fill:none" />
              </g>
              <g
                 id="g3920">
                <g
                   id="g3922" />
              </g>
            </g>
            <g
               id="g3926">
              <g
                 id="g3928">
                <path
                   id="path3930"
                   d="m 633.196,562.523 c -8.344,-9.058 -28.709,0.181 -39.396,-1.257 -5.688,-0.762 -11.19,-3.604 -16.556,-5.467"
                   style="fill:none" />
              </g>
              <g
                 id="g3932">
                <g
                   id="g3934" />
              </g>
            </g>
            <g
               id="g3938">
              <g
                 id="g3940">
                <path
                   id="path3942"
                   d="m 638.845,546.003 c -12.607,-15.371 -39.264,1.016 -54.918,-7.28"
                   style="fill:none" />
              </g>
              <g
                 id="g3944">
                <g
                   id="g3946" />
              </g>
            </g>
            <g
               id="g3950">
              <g
                 id="g3952">
                <path
                   id="path3954"
                   d="m 563.675,438.673 c -3.492,20.015 9.984,43.875 2.5,62.935"
                   style="fill:none" />
              </g>
              <g
                 id="g3956">
                <g
                   id="g3958" />
              </g>
            </g>
            <g
               id="g3962">
              <g
                 id="g3964">
                <path
                   id="path3966"
                   d="m 616.593,461.795 c -9.338,5.224 -14.799,19.87 -24.211,26.728 -6.642,4.837 -18.541,8.175 -21.89,16.06"
                   style="fill:none" />
              </g>
              <g
                 id="g3968">
                <g
                   id="g3970" />
              </g>
            </g>
            <g
               id="g3974">
              <g
                 id="g3976">
                <path
                   id="path3978"
                   d="m 392.203,711.262 c 6.343,-16.145 31.302,-23.184 34.134,-40.223"
                   style="fill:none" />
              </g>
              <g
                 id="g3980">
                <g
                   id="g3982" />
              </g>
            </g>
            <g
               id="g3986">
              <g
                 id="g3988">
                <path
                   id="path3990"
                   d="m 435.55,731.604 c 1.719,-9.796 11.314,-26.848 5.957,-35.435"
                   style="fill:none" />
              </g>
              <g
                 id="g3992">
                <g
                   id="g3994" />
              </g>
            </g>
            <g
               id="g3998">
              <g
                 id="g4000">
                <path
                   id="path4002"
                   d="m 463.954,758.838 c -8.582,-16.786 8.834,-55.207 -11.496,-64.677"
                   style="fill:none" />
              </g>
              <g
                 id="g4004">
                <g
                   id="g4006" />
              </g>
            </g>
            <g
               id="g4010">
              <g
                 id="g4012">
                <path
                   id="path4014"
                   d="m 569.729,671.123 c -12.251,-3.942 -24.054,-7.256 -35.649,-12.711 -10.523,-4.933 -17.887,-15.793 -26.578,-20.003"
                   style="fill:none" />
              </g>
              <g
                 id="g4016">
                <g
                   id="g4018" />
              </g>
            </g>
            <g
               id="g4022">
              <g
                 id="g4024">
                <path
                   id="path4026"
                   d="m 585.402,655.801 c -1.573,-7.462 -17.329,-20.68 -24.151,-25.88 -7.848,-5.962 -18.14,-7.68 -24.246,-15.807"
                   style="fill:none" />
              </g>
              <g
                 id="g4028">
                <g
                   id="g4030" />
              </g>
            </g>
            <g
               id="g4034">
              <g
                 id="g4036">
                <path
                   id="path4038"
                   d="m 417.89,524.294 c 22.041,10.995 44.522,20.936 67.191,30.573 -1.387,3.689 2.176,7.728 4.353,11.768"
                   style="fill:none" />
              </g>
              <g
                 id="g4040">
                <g
                   id="g4042" />
              </g>
            </g>
            <g
               id="g4046">
              <g
                 id="g4048">
                <path
                   id="path4050"
                   d="m 383.974,569.755 c 18.672,-12.166 59.449,-10.981 74.87,7.015"
                   style="fill:none" />
              </g>
              <g
                 id="g4052">
                <g
                   id="g4054" />
              </g>
            </g>
            <g
               id="g4058">
              <g
                 id="g4060">
                <path
                   id="path4062"
                   d="m 453.606,484.532 c -6.385,21.743 6.021,52.365 26.668,63.032"
                   style="fill:none" />
              </g>
              <g
                 id="g4064">
                <g
                   id="g4066" />
              </g>
            </g>
            <g
               id="g4070">
              <g
                 id="g4072">
                <path
                   id="path4074"
                   d="m 357.414,628.591 c 11.333,3.192 21.745,6.772 33.319,9.034 7.293,1.438 13.805,2.72 19.852,7.244"
                   style="fill:none" />
              </g>
              <g
                 id="g4076">
                <g
                   id="g4078" />
              </g>
            </g>
            <g
               id="g4082">
              <g
                 id="g4084">
                <path
                   id="path4086"
                   d="m 363.874,579.491 c 6.662,12.13 27.885,24.404 40.676,29.109 9.319,3.422 21.24,4.075 26.188,14.463"
                   style="fill:none" />
              </g>
              <g
                 id="g4088">
                <g
                   id="g4090" />
              </g>
            </g>
            <g
               id="g4094" />
          </g>
          <g
             id="g4100">
            <g
               id="g4102" />
            <g
               id="g4108" />
          </g>
          <g
             id="g4112">
            <g
               id="g4114" />
            <g
               id="g4120" />
          </g>
          <g
             id="g4124">
            <g
               id="g4126" />
            <g
               id="g4132" />
          </g>
          <g
             id="g4136">
            <g
               id="g4138" />
            <g
               id="g4144" />
          </g>
          <g
             id="g4148">
            <g
               id="g4150" />
            <g
               id="g4156" />
          </g>
          <g
             id="g4160">
            <g
               id="g4162" />
            <g
               id="g4168" />
          </g>
          <g
             id="g4172">
            <g
               id="g4174" />
            <g
               id="g4180" />
          </g>
          <g
             id="g4184">
            <g
               id="g4186" />
            <g
               id="g4192" />
          </g>
          <g
             id="g4196">
            <g
               id="g4198" />
            <g
               id="g4204" />
          </g>
          <g
             id="g4208">
            <g
               id="g4210" />
            <g
               id="g4216" />
          </g>
          <g
             id="g4220">
            <g
               id="g4222" />
            <g
               id="g4228" />
          </g>
          <g
             id="g4232">
            <g
               id="g4234" />
            <g
               id="g4240" />
          </g>
          <g
             id="g4244">
            <g
               id="g4246" />
            <g
               id="g4252" />
          </g>
          <g
             id="g4256">
            <g
               id="g4258" />
            <g
               id="g4264" />
          </g>
          <g
             id="g4268">
            <g
               id="g4270" />
            <g
               id="g4276" />
          </g>
          <g
             id="g4280">
            <g
               id="g4282" />
            <g
               id="g4288" />
          </g>
          <g
             id="g4292">
            <g
               id="g4294" />
            <g
               id="g4300" />
          </g>
          <g
             id="g4304">
            <g
               id="g4306" />
            <g
               id="g4312" />
          </g>
        </g>
        <g
           id="g4394">
          <g
             id="g4396" />
          <g
             id="g4420">
            <path
               id="path4422"
               d="m 543.874,319.651 c -11.725,-19.325 -27.832,-18.371 -47.962,-20.681 -41.923,-4.826 -88.12,-1.597 -125.529,19.592 -27.399,15.527 -28.033,56.997 5.096,67.324 28.709,8.974 67.013,-7.207 95.728,-10.703 23.944,-2.914 97.157,-15.128 72.667,-55.532 z"
               style="fill:none" />
          </g>
          <g
             id="g4426" />
          <g
             id="g4430" />
        </g>
        <g
           id="g4466">
          <g
             id="g4468" />
          <g
             id="g4472" />
          <g
             id="g4476" />
          <g
             id="g4480" />
          <g
             id="g4486">
            <g
               id="g4488" />
            <g
               id="g4492" />
            <g
               id="g4496" />
            <g
               id="g4500" />
            <g
               id="g4504" />
            <g
               id="g4508" />
            <g
               id="g4512" />
            <g
               id="g4516" />
            <g
               id="g4520" />
            <g
               id="g4524" />
            <g
               id="g4528" />
            <g
               id="g4532" />
            <g
               id="g4536" />
            <g
               id="g4540" />
            <g
               id="g4544" />
            <g
               id="g4548" />
            <g
               id="g4552" />
            <g
               id="g4556" />
            <g
               id="g4560" />
            <g
               id="g4564" />
            <g
               id="g4568" />
            <g
               id="g4572" />
            <g
               id="g4576" />
            <g
               id="g4580" />
            <g
               id="g4584" />
            <g
               id="g4588" />
            <g
               id="g4592" />
            <g
               id="g4596" />
            <g
               id="g4600" />
            <g
               id="g4604" />
            <g
               id="g4608" />
            <g
               id="g4612" />
            <g
               id="g4616" />
            <g
               id="g4620" />
            <g
               id="g4624" />
            <g
               id="g4628" />
            <g
               id="g4632" />
            <g
               id="g4636" />
          </g>
          <g
             id="g4640" />
          <g
             id="g4644" />
          <g
             id="g4648" />
          <g
             id="g4652" />
          <g
             id="g4656" />
          <g
             id="g4660" />
          <g
             id="g4664" />
          <g
             id="g4668" />
          <g
             id="g4672">
            <g
               id="g4674" />
            <g
               id="g4678" />
            <g
               id="g4682" />
            <g
               id="g4686" />
            <g
               id="g4690" />
            <g
               id="g4694" />
            <g
               id="g4698" />
            <g
               id="g4702" />
            <g
               id="g4706" />
            <g
               id="g4710" />
            <g
               id="g4714" />
            <g
               id="g4718" />
            <g
               id="g4722" />
            <g
               id="g4726" />
            <g
               id="g4730" />
            <g
               id="g4734" />
            <g
               id="g4738" />
            <g
               id="g4742" />
            <g
               id="g4746" />
            <g
               id="g4750" />
            <g
               id="g4754" />
            <g
               id="g4758" />
          </g>
        </g>
        <g
           id="g4762">
          <g
             id="g4764">
            <path
               id="path4766"
               d="m 752.274,275.57 c -51.617,-42.945 -90.867,0.326 -101.574,17.33 -16.616,26.339 -35.514,66.429 -18.877,97.002 14.264,26.219 57.104,35.942 84.562,38.131 15.391,1.233 33.857,-1.5 44.994,-13.157 14.431,-15.105 50.163,-90.001 -9.105,-139.306 z"
               style="fill:#ffffff" />
            <path
               id="path4768"
               d="m 649.284,291.992 c 8.461,-13.387 34.264,-42.957 70.471,-35.265 l 0,0 c 10.51,2.261 21.778,7.715 33.594,17.547 l 0,0 c 34.098,28.323 37.346,65.234 31.01,94.378 l 0,0 c -4.863,22.483 -15.166,40.43 -21.769,47.372 l 0,0 c -11.743,12.238 -30.681,14.912 -46.331,13.69 l 0,0 c -7.625,-0.617 -16.434,-1.802 -25.493,-3.761 l 0,0 c -23.8,-5.164 -49.573,-15.469 -60.419,-35.252 l 0,0 c -7.596,-14.018 -7.97,-29.872 -4.631,-45.364 l 0,0 c 4.207,-19.495 14.258,-38.566 23.568,-53.345 l 0,0 z m 69.756,-31.988 c -33.79,-7.4 -58.785,20.85 -66.912,33.79 l 0,0 c -9.205,14.584 -19.073,33.39 -23.125,52.256 l 0,0 c -3.238,15.008 -2.805,29.968 4.305,43.041 l 0,0 c 9.826,18.213 34.723,28.566 58.164,33.583 l 0,0 c 8.896,1.923 17.566,3.073 25.053,3.689 l 0,0 c 15.113,1.223 33.121,-1.559 43.646,-12.648 l 0,0 c 5.951,-6.192 16.242,-23.946 20.909,-45.763 l 0,0 c 6.095,-28.468 3.062,-63.661 -29.884,-91.089 l 0,0 c -11.474,-9.554 -22.252,-14.718 -32.156,-16.859 l 0,0 z"
               style="fill:#de4e77" />
          </g>
          <g
             id="g4770">
            <path
               id="path4772"
               d="m 758.919,292.851 c -37.071,-45.763 -78.233,-15.238 -90.357,-2.444 -18.785,19.834 -41.898,51.085 -32.814,80.229 7.795,24.999 42.998,40.684 66.248,47.275 13.029,3.689 29.379,4.486 40.967,-3.641 14.989,-10.533 58.53,-68.86 15.956,-121.419 z"
               style="fill:#9bd5e1" />
            <path
               id="path4774"
               d="m 667.352,289.247 c 8.649,-9.082 31.359,-26.909 57.675,-21.321 l 0,0 c 11.586,2.491 23.68,9.615 35.205,23.873 l 0,0 c 18.648,22.966 21.133,47.273 16.629,68.111 l 0,0 c -6.035,27.683 -23.91,49.329 -32.924,55.728 l 0,0 c -10.874,7.606 -25.307,7.703 -37.69,5.053 l 0,0 c -1.603,-0.338 -3.182,-0.736 -4.718,-1.183 l 0,0 c -23.43,-6.725 -59.04,-22.217 -67.378,-48.375 l 0,0 c -2.675,-8.635 -2.642,-17.426 -0.794,-25.989 l 0,0 c 4.658,-21.454 20.476,-41.602 33.995,-55.897 l 0,0 z m 56.967,-18.044 c -24.277,-5.321 -46.336,11.671 -54.529,20.354 l 0,0 c -13.346,14.064 -28.79,33.947 -33.155,54.3 l 0,0 c -1.747,8.114 -1.767,16.29 0.712,24.283 l 0,0 c 7.258,23.849 42.038,39.704 65.107,46.149 l 0,0 c 1.459,0.411 2.968,0.787 4.492,1.125 l 0,0 c 11.877,2.564 25.434,2.275 35.061,-4.522 l 0,0 c 8.072,-5.624 25.881,-27.065 31.551,-53.696 l 0,0 c 4.319,-20.099 2.025,-43.101 -15.938,-65.292 l 0,0 c -11.176,-13.776 -22.545,-20.378 -33.301,-22.701 l 0,0 z"
               style="fill:#de4e77" />
          </g>
          <g
             id="g4776">
            <path
               id="path4778"
               d="m 691.388,345.264 0.006,-0.012 c 2.699,-11.271 16.145,-22.688 28.188,-20.341 l 0,0 c 3.57,0.75 6.922,2.902 9.479,6.604 l 0,0 -0.006,0 c 2.789,4.1 3.9,11.802 2.375,19.156 l 0,0 c -1.442,6.941 -5.808,13.785 -14.336,15.226 l 0,0 c -3.088,0.519 -6.119,0.41 -8.941,-0.206 l 0,0 c -10.49,-2.299 -18.545,-11.272 -16.818,-20.196 l 0,0 0.053,-0.231 0,0 z m 3.224,0.931 c -1.308,6.216 5.068,14.282 14.244,16.217 l 0,0 c 2.432,0.509 5.021,0.617 7.668,0.169 l 0,0 c 6.832,-1.185 10.232,-6.385 11.623,-12.625 l 0,0 c 1.453,-6.445 0.145,-13.812 -1.844,-16.52 l 0,0 c -2.158,-3.085 -4.686,-4.644 -7.433,-5.25 l 0,0 c -4.631,-1.028 -10.219,0.919 -14.904,4.536 l 0,0 c -4.688,3.567 -8.345,8.732 -9.331,13.387 l 0,0 c 10e-4,0.002 -0.011,0.026 -0.023,0.086 l 0,0 z"
               style="fill:#de4e77" />
          </g>
          <g
             id="g4780">
            <path
               id="path4782"
               d="m 746.669,311.403 c 0.162,0.012 0.271,0.024 0.283,0.036 l 0,0 c 5.159,1.282 10.135,6.952 9.139,12.733 l 0,0 c -0.357,1.706 -1.416,3.327 -3.115,4.487 l 0,0 -0.955,-1.379 -0.957,-1.378 c 1.09,-0.762 1.549,-1.561 1.742,-2.442 l 0,0 c 0.35,-1.476 -0.302,-3.52 -1.664,-5.298 l 0,0 c -1.262,-1.682 -3.124,-2.987 -4.672,-3.386 l 0,0 -0.26,-0.061 c -0.891,-0.183 -2.039,0.133 -3.122,1.052 l 0,0 c -1.068,0.919 -1.989,2.37 -2.339,4.015 l 0,0 c -0.182,0.871 -0.218,1.802 -0.074,2.756 l 0,0 c 0.418,2.299 2.068,3.399 4.414,3.955 l 0,0 c 2.358,0.569 5.281,-0.024 5.975,-0.591 l 0,0 0.957,1.378 0.955,1.379 c -2.068,1.354 -5.314,1.765 -8.599,1.113 l 0,0 c -3.062,-0.605 -6.324,-2.673 -7.003,-6.676 l 0,0 c -0.23,-1.378 -0.182,-2.746 0.096,-4.015 l 0,0 c 1.029,-4.607 4.845,-8.295 9.199,-7.678 l 0,0 z"
               style="fill:#de4e77" />
          </g>
          <g
             id="g4784">
            <path
               id="path4786"
               d="m 746.903,345.119 c 2.711,-2.044 5.969,-2.516 8.734,-1.911 l 0,0 c 2.744,0.581 5.234,2.263 6.004,4.995 l 0,0 c 0.471,1.669 0.418,3.471 0.043,5.213 l 0,0 c -1.018,4.691 -4.719,9.927 -10.434,8.875 l 0,0 c -0.694,-0.133 -1.406,-0.387 -2.104,-0.761 l 0,0 0.775,-1.488 -0.788,1.476 c -3.01,-1.802 -6.047,-6.773 -5.144,-11.864 l 0,0 c 0,-0.024 0,-0.048 0.012,-0.06 l 0,0 c 0.352,-1.657 1.306,-3.29 2.902,-4.475 l 0,0 z m 11.502,7.595 c 0.29,-1.331 0.29,-2.637 0,-3.604 l 0,0 c -0.271,-1.1 -1.561,-2.212 -3.478,-2.625 l 0,0 c -1.887,-0.411 -4.159,-0.085 -6.005,1.307 l 0,0 c -0.978,0.749 -1.439,1.571 -1.656,2.563 l 0,0 c -0.834,2.902 2.043,7.631 3.436,8.199 l 0,0 0,0 c 0.452,0.23 0.869,0.375 1.258,0.46 l 0,0 c 1.443,0.314 2.684,-0.193 3.906,-1.39 l 0,0 c 1.184,-1.186 2.141,-3.049 2.539,-4.886 l 0,0 c 0,-0.011 0,-0.024 0,-0.024 l 0,0 z"
               style="fill:#de4e77" />
          </g>
          <g
             id="g4788">
            <path
               id="path4790"
               d="m 733.353,375.027 c 2.379,-4.087 7.891,-6.809 12.767,-5.89 l 0,0 c 2.382,0.46 4.595,2.213 5.479,5.031 l 0,0 -0.016,0 c 0.449,1.428 0.39,3.011 0.027,4.741 l 0,0 c -0.812,3.979 -3.906,9.227 -9.869,8.599 l 0,0 c -0.305,-0.048 -0.594,-0.11 -0.885,-0.17 l 0,0 c -5.406,-1.245 -8.936,-6.167 -8.09,-10.715 l 0,0 c 0.116,-0.532 0.296,-1.076 0.587,-1.596 l 0,0 z m 15.051,0.181 c -0.628,-1.778 -1.585,-2.442 -2.989,-2.794 l 0,0 c -2.938,-0.761 -7.827,1.621 -9.116,4.22 l 0,0 c -0.114,0.207 -0.194,0.436 -0.254,0.69 l 0,0 c -0.235,1.04 0.126,2.552 1.123,3.894 l 0,0 c 0.993,1.342 2.542,2.444 4.396,2.842 l 0,0 c 0.227,0.048 0.468,0.097 0.637,0.121 l 0,0 c 3.215,0.495 5.367,-2.671 6.131,-5.974 l 0,0 c 0.291,-1.306 0.236,-2.551 0.073,-2.975 l 0,0 1.585,-0.543 -1.586,0.519 0,0 z"
               style="fill:#de4e77" />
          </g>
          <g
             id="g4792">
            <path
               id="path4794"
               d="m 706.825,382.657 c 2.539,-1.547 5.407,-1.849 7.886,-1.318 l 0,0 c 3.109,0.678 5.901,2.709 6.476,5.842 l 0,0 c 0.235,1.281 0.164,2.625 -0.127,3.93 l 0,0 c -1.087,4.85 -5.113,10.279 -10.907,9.264 l 0,0 c -0.921,-0.193 -1.827,-0.58 -2.712,-1.161 l 0,0 0.922,-1.402 -0.933,1.402 c -2.696,-1.996 -5.018,-6.785 -4.16,-11.537 l 0,0 c 0,-0.024 0.013,-0.048 0.013,-0.084 l 0,0 c 0.412,-1.887 1.56,-3.738 3.542,-4.936 l 0,0 z m 10.965,7.74 c 0.205,-0.967 0.236,-1.875 0.097,-2.623 l 0,0 c -0.163,-1.271 -1.675,-2.686 -3.882,-3.158 l 0,0 c -1.718,-0.362 -3.695,-0.157 -5.426,0.909 l 0,0 c -1.216,0.749 -1.766,1.68 -2.031,2.865 l 0,0 c -0.779,2.842 1.513,7.354 2.738,8.018 l 0,0 0.006,0 c 0.564,0.364 1.078,0.581 1.561,0.69 l 0,0 c 1.416,0.302 2.82,-0.266 4.172,-1.56 l 0,0 c 1.308,-1.295 2.358,-3.254 2.754,-5.104 l 0,0 c -10e-4,-0.013 0.005,-0.013 0.011,-0.037 l 0,0 z"
               style="fill:#de4e77" />
          </g>
          <g
             id="g4796">
            <path
               id="path4798"
               d="m 686.604,370.455 c 1.104,0.231 2.178,0.75 3.158,1.524 l 0,0 0,0 c 2.467,2.092 4.239,6.651 3.415,11.114 l 0,0 c -0.44,2.141 -1.784,4.269 -4.166,5.442 l 0,0 c -2.333,1.174 -4.86,1.355 -7.085,0.871 l 0,0 c -3.441,-0.75 -6.484,-3.096 -6.865,-6.614 l 0,0 c -0.072,-0.955 0.024,-1.923 0.224,-2.878 l 0,0 c 1.15,-4.96 5.491,-10.461 11.319,-9.459 l 0,0 z m 1.091,4.172 c -0.655,-0.507 -1.234,-0.773 -1.79,-0.894 l 0,0 c -1.404,-0.316 -2.953,0.29 -4.404,1.667 l 0,0 c -1.413,1.344 -2.545,3.375 -2.943,5.212 l 0,0 c -0.145,0.689 -0.188,1.355 -0.15,1.911 l 0,0 c 0.06,1.379 1.741,3.085 4.226,3.604 l 0,0 c 1.555,0.338 3.296,0.206 4.866,-0.592 l 0,0 c 1.428,-0.738 2.083,-1.766 2.396,-3.158 l 0,0 c 0.737,-2.804 -1.113,-7.074 -2.2,-7.74 l 0,0 1.032,-1.33 -1.033,1.32 0,0 z"
               style="fill:#de4e77" />
          </g>
          <g
             id="g4800">
            <path
               id="path4802"
               d="m 656.831,350.633 c 1.041,-4.595 4.852,-8.295 9.204,-7.666 l 0,0 c 0.157,0 0.278,0.024 0.278,0.036 l 0,0 c 5.168,1.281 10.134,6.942 9.135,12.723 l 0,0 c -0.351,1.706 -1.406,3.325 -3.101,4.486 l 0,0 -0.006,0 c -2.08,1.367 -5.329,1.766 -8.604,1.125 l 0,0 c -3.049,-0.616 -6.326,-2.673 -7.003,-6.676 l 0,0 c -0.224,-1.378 -0.181,-2.708 0.085,-3.965 l 0,0 c 0,-0.025 0.012,-0.039 0.012,-0.063 l 0,0 z m 8.746,-4.353 c -0.885,-0.193 -2.032,0.133 -3.123,1.052 l 0,0 c -1.076,0.919 -1.988,2.371 -2.346,4.015 l 0,0 c -0.174,0.871 -0.211,1.79 -0.06,2.746 l 0,0 c 0.411,2.309 2.062,3.399 4.396,3.955 l 0,0 c 2.369,0.567 5.305,-0.024 5.986,-0.592 l 0,0 0.954,1.378 -0.954,-1.378 c 1.081,-0.762 1.543,-1.549 1.736,-2.432 l 0,0 c 0.35,-1.475 -0.303,-3.542 -1.664,-5.296 l 0,0 c -1.266,-1.682 -3.121,-3 -4.673,-3.399 l 0,0 -0.252,-0.049 0,0 z"
               style="fill:#de4e77" />
          </g>
          <g
             id="g4804">
            <path
               id="path4806"
               d="m 676.918,312.842 c 1.869,-4.717 7.571,-8.587 12.924,-7.62 l 0,0 c 1.995,0.4 3.864,1.766 4.963,3.943 l 0,0 0,0 c 0.915,1.862 0.981,4.33 0.459,6.905 l 0,0 c -0.7,3.532 -3.19,7.644 -8.103,7.813 l 0,0 c -0.869,0.024 -1.73,-0.061 -2.539,-0.242 l 0,0 c -5.023,-1.138 -8.719,-5.54 -7.909,-10.05 l 0,0 c 0.054,-0.242 0.108,-0.484 0.205,-0.749 l 0,0 z m 14.901,-2.129 c -0.734,-1.404 -1.592,-1.959 -2.688,-2.214 l 0,0 c -2.949,-0.821 -8.114,2.468 -9.044,5.467 l 0,0 c -0.036,0.097 -0.066,0.217 -0.091,0.338 l 0,0 c -0.223,0.932 0.127,2.261 1.105,3.472 l 0,0 c 0.969,1.209 2.487,2.225 4.221,2.587 l 0,0 c 0.564,0.133 1.162,0.193 1.754,0.169 l 0,0 c 2.734,-0.072 4.232,-2.297 4.911,-5.164 l 0,0 c 0.446,-1.958 0.204,-4.051 -0.157,-4.643 l 0,0 1.474,-0.774 -1.485,0.762 0,0 z"
               style="fill:#de4e77" />
          </g>
          <g
             id="g4808">
            <path
               id="path4810"
               d="m 708.169,293.129 c 2.623,-3.882 7.121,-5.381 10.799,-4.608 l 0,0 c 1.621,0.352 3.146,1.198 4.136,2.613 l 0,0 c 1.826,2.673 2.261,6.338 1.573,9.675 l 0,0 c -0.713,3.882 -3.871,7.837 -8.937,7.039 l 0,0 0.241,-1.646 -0.426,1.609 c -0.107,-0.024 -0.139,-0.037 -0.139,-0.037 l -0.006,0 c -3.795,-0.991 -9.383,-5.745 -8.38,-11.984 l 0,0 c 0.194,-0.895 0.572,-1.802 1.139,-2.661 l 0,0 z m 12.178,-0.073 c -0.398,-0.593 -1.107,-1.04 -2.092,-1.245 l 0,0 c -2.23,-0.521 -5.563,0.507 -7.287,3.168 l 0,0 c -0.35,0.521 -0.549,1.028 -0.664,1.523 l 0,0 c -0.363,1.609 0.374,3.483 1.724,5.081 l 0,0 c 1.292,1.596 3.214,2.744 4.087,2.913 l 0,0 c 0.098,0.012 0.176,0.036 0.218,0.048 l 0,0 c 2.871,0.328 4.286,-1.438 5.065,-4.45 l 0,0 c 0.006,-0.036 0.012,-0.061 0.019,-0.097 l 0,0 c 0.533,-2.465 0.041,-5.418 -1.07,-6.941 l 0,0 z"
               style="fill:#de4e77" />
          </g>
          <g
             id="g4812">
            <polygon
               id="polygon4814"
               points="730.18,339.024 694.515,353.101 693.292,349.969 728.957,335.904 728.957,335.904 "
               style="fill:#de4e77" />
          </g>
          <g
             id="g4816">
            <polygon
               id="polygon4818"
               points="719.185,363.283 715.994,364.299 705.097,329.894 708.29,328.878 708.29,328.878 "
               style="fill:#de4e77" />
          </g>
          <g
             id="g4820">
            <polygon
               id="polygon4822"
               points="729.575,350.948 728.232,354.032 696.824,340.39 698.168,337.307 698.168,337.307 "
               style="fill:#de4e77" />
          </g>
          <g
             id="g4824">
            <polygon
               id="polygon4826"
               points="723.958,328.502 704.323,361.191 701.442,359.463 721.084,326.786 721.084,326.786 "
               style="fill:#de4e77" />
          </g>
          <g
             id="g4828">
            <path
               id="path4830"
               d="m 712.378,343.5 c -1.127,-0.933 -1.984,0 -2.213,0.375 -0.363,0.58 -0.776,1.45 -0.411,2.116 0.302,0.567 1.237,0.774 1.839,0.834 0.338,0.024 0.736,-0.048 0.979,-0.292 0.319,-0.338 1.101,-1.959 -0.194,-3.033 z"
               style="fill:#ffffff" />
          </g>
          <g
             id="g4832">
            <path
               id="path4834"
               d="m 666.724,350.828 c -1.123,-0.943 -1.983,0 -2.213,0.375 -0.362,0.569 -0.773,1.45 -0.41,2.116 0.302,0.569 1.244,0.786 1.838,0.822 0.338,0.037 0.736,-0.024 0.984,-0.277 0.308,-0.327 1.096,-1.96 -0.199,-3.036 z"
               style="fill:#ffffff" />
          </g>
          <g
             id="g4836">
            <path
               id="path4838"
               d="m 684.864,378.207 c -1.123,-0.943 -1.984,0 -2.219,0.375 -0.357,0.569 -0.773,1.452 -0.405,2.118 0.302,0.567 1.244,0.786 1.839,0.822 0.338,0.037 0.736,-0.024 0.979,-0.291 0.313,-0.314 1.095,-1.96 -0.194,-3.024 z"
               style="fill:#ffffff" />
          </g>
          <g
             id="g4840">
            <path
               id="path4842"
               d="m 712.644,388.766 c -1.139,-0.932 -1.996,0.012 -2.225,0.374 -0.363,0.581 -0.768,1.451 -0.412,2.116 0.314,0.581 1.244,0.787 1.846,0.835 0.332,0.024 0.742,-0.036 0.984,-0.29 0.307,-0.326 1.09,-1.959 -0.193,-3.035 z"
               style="fill:#ffffff" />
          </g>
          <g
             id="g4844">
            <path
               id="path4846"
               d="m 743.541,376.817 c -1.13,-0.919 -1.983,0.012 -2.226,0.386 -0.35,0.569 -0.76,1.451 -0.404,2.116 0.309,0.569 1.246,0.774 1.844,0.835 0.333,0.024 0.738,-0.048 0.982,-0.29 0.315,-0.338 1.099,-1.959 -0.196,-3.047 z"
               style="fill:#ffffff" />
          </g>
          <g
             id="g4848">
            <path
               id="path4850"
               d="m 753.361,351.178 c -1.124,-0.931 -1.983,0.012 -2.22,0.388 -0.355,0.567 -0.771,1.438 -0.404,2.104 0.303,0.58 1.241,0.785 1.838,0.833 0.34,0.024 0.738,-0.024 0.979,-0.277 0.317,-0.339 1.096,-1.972 -0.193,-3.048 z"
               style="fill:#ffffff" />
          </g>
          <g
             id="g4852">
            <path
               id="path4854"
               d="m 747.854,319.663 c -1.132,-0.943 -1.989,0 -2.225,0.375 -0.359,0.58 -0.77,1.452 -0.408,2.116 0.309,0.569 1.248,0.787 1.846,0.835 0.332,0.024 0.739,-0.037 0.975,-0.29 0.314,-0.328 1.093,-1.96 -0.188,-3.036 z"
               style="fill:#ffffff" />
          </g>
          <g
             id="g4856">
            <path
               id="path4858"
               d="m 717.062,297.858 c -1.129,-0.932 -1.989,0.012 -2.219,0.374 -0.356,0.582 -0.772,1.452 -0.411,2.116 0.314,0.569 1.248,0.787 1.846,0.835 0.332,0.024 0.742,-0.036 0.983,-0.29 0.318,-0.328 1.091,-1.959 -0.199,-3.035 z"
               style="fill:#ffffff" />
          </g>
          <g
             id="g4860">
            <path
               id="path4862"
               d="m 688.094,312.793 c -1.138,-0.931 -1.983,0 -2.22,0.375 -0.365,0.581 -0.775,1.45 -0.406,2.116 0.305,0.569 1.234,0.786 1.838,0.834 0.342,0.024 0.734,-0.036 0.981,-0.29 0.314,-0.325 1.093,-1.958 -0.193,-3.035 z"
               style="fill:#ffffff" />
          </g>
          <g
             id="g4864">
            <path
               id="path4866"
               d="m 674.573,329.047 c -1.133,-0.931 -1.996,0.012 -2.226,0.376 -0.351,0.58 -0.767,1.45 -0.411,2.116 0.314,0.58 1.244,0.785 1.852,0.833 0.326,0.024 0.736,-0.036 0.978,-0.29 0.307,-0.326 1.089,-1.959 -0.193,-3.035 z"
               style="fill:#de4e77" />
          </g>
          <g
             id="g4868">
            <path
               id="path4870"
               d="m 698.591,384.883 c -1.127,-0.931 -1.984,0.012 -2.213,0.374 -0.363,0.582 -0.773,1.452 -0.41,2.116 0.307,0.569 1.243,0.787 1.844,0.835 0.332,0.024 0.73,-0.036 0.973,-0.29 0.325,-0.325 1.101,-1.959 -0.194,-3.035 z"
               style="fill:#de4e77" />
          </g>
          <g
             id="g4872">
            <path
               id="path4874"
               d="m 728.159,381.812 c -1.125,-0.943 -1.982,0 -2.219,0.375 -0.355,0.581 -0.775,1.452 -0.406,2.116 0.311,0.569 1.24,0.786 1.844,0.834 0.335,0.024 0.734,-0.036 0.975,-0.29 0.314,-0.327 1.099,-1.959 -0.194,-3.035 z"
               style="fill:#de4e77" />
          </g>
          <g
             id="g4876">
            <path
               id="path4878"
               d="m 746.119,362.207 c -1.126,-0.931 -1.983,0.012 -2.214,0.387 -0.364,0.569 -0.775,1.452 -0.412,2.118 0.305,0.567 1.246,0.786 1.838,0.834 0.342,0.024 0.74,-0.036 0.987,-0.291 0.308,-0.326 1.093,-1.972 -0.199,-3.048 z"
               style="fill:#de4e77" />
          </g>
          <g
             id="g4880">
            <path
               id="path4882"
               d="m 751.583,334.198 c -1.123,-0.931 -1.98,0.012 -2.219,0.387 -0.357,0.569 -0.767,1.452 -0.404,2.118 0.308,0.567 1.24,0.774 1.838,0.823 0.332,0.024 0.743,-0.036 0.981,-0.292 0.314,-0.326 1.093,-1.959 -0.196,-3.036 z"
               style="fill:#de4e77" />
          </g>
          <g
             id="g4884">
            <path
               id="path4886"
               d="m 735.088,303.179 c -1.122,-0.944 -1.983,0 -2.219,0.375 -0.356,0.568 -0.767,1.451 -0.404,2.104 0.308,0.58 1.241,0.797 1.839,0.833 0.338,0.036 0.742,-0.024 0.978,-0.278 0.317,-0.337 1.095,-1.97 -0.194,-3.034 z"
               style="fill:#de4e77" />
          </g>
          <g
             id="g4888">
            <path
               id="path4890"
               d="m 701.802,302.295 c -1.131,-0.93 -1.988,0.012 -2.219,0.376 -0.365,0.58 -0.775,1.451 -0.413,2.116 0.313,0.567 1.247,0.786 1.839,0.834 0.338,0.024 0.752,-0.036 0.986,-0.291 0.309,-0.325 1.094,-1.957 -0.193,-3.035 z"
               style="fill:#de4e77" />
          </g>
          <g
             id="g4892">
            <path
               id="path4894"
               d="m 646.25,347.563 c -1.126,-0.933 -1.983,0.012 -2.213,0.374 -0.362,0.58 -0.776,1.451 -0.411,2.116 0.303,0.568 1.244,0.774 1.836,0.835 0.342,0.024 0.74,-0.036 0.987,-0.292 0.314,-0.325 1.096,-1.958 -0.199,-3.033 z"
               style="fill:#de4e77" />
          </g>
          <g
             id="g4896">
            <path
               id="path4898"
               d="m 677.317,394.605 c -1.117,-0.93 -1.979,0.012 -2.213,0.376 -0.363,0.581 -0.773,1.45 -0.412,2.116 0.314,0.581 1.248,0.786 1.852,0.834 0.326,0.024 0.736,-0.036 0.979,-0.29 0.31,-0.326 1.089,-1.958 -0.206,-3.036 z"
               style="fill:#de4e77" />
          </g>
          <g
             id="g4900">
            <path
               id="path4902"
               d="m 712.885,408.853 c -1.123,-0.931 -1.983,0.012 -2.214,0.375 -0.361,0.581 -0.771,1.451 -0.41,2.116 0.314,0.581 1.244,0.787 1.846,0.834 0.332,0.024 0.742,-0.036 0.978,-0.29 0.307,-0.326 1.095,-1.959 -0.2,-3.035 z"
               style="fill:#de4e77" />
          </g>
          <g
             id="g4904">
            <path
               id="path4906"
               d="m 751.257,392.792 c -1.123,-0.931 -1.984,0.012 -2.219,0.375 -0.355,0.581 -0.767,1.45 -0.404,2.116 0.307,0.581 1.246,0.786 1.844,0.834 0.332,0.036 0.73,-0.024 0.973,-0.29 0.316,-0.325 1.101,-1.958 -0.194,-3.035 z"
               style="fill:#de4e77" />
          </g>
          <g
             id="g4908">
            <path
               id="path4910"
               d="m 769.985,355.048 c -1.125,-0.931 -1.982,0.012 -2.219,0.376 -0.354,0.58 -0.775,1.451 -0.408,2.116 0.312,0.58 1.242,0.785 1.846,0.833 0.332,0.024 0.738,-0.036 0.98,-0.29 0.309,-0.326 1.088,-1.959 -0.199,-3.035 z"
               style="fill:#de4e77" />
          </g>
          <g
             id="g4912">
            <path
               id="path4914"
               d="m 762.632,310.822 c -1.132,-0.932 -1.99,0.012 -2.219,0.386 -0.355,0.569 -0.773,1.44 -0.41,2.104 0.313,0.581 1.243,0.787 1.844,0.847 0.332,0.012 0.736,-0.048 0.984,-0.29 0.315,-0.337 1.09,-1.971 -0.199,-3.047 z"
               style="fill:#de4e77" />
          </g>
          <g
             id="g4916">
            <path
               id="path4918"
               d="m 712.771,276.61 c -1.13,-0.932 -1.984,0.012 -2.219,0.374 -0.363,0.581 -0.773,1.451 -0.405,2.116 0.308,0.581 1.237,0.787 1.845,0.835 0.332,0.024 0.725,-0.037 0.972,-0.29 0.319,-0.328 1.096,-1.959 -0.193,-3.035 z"
               style="fill:#de4e77" />
          </g>
          <g
             id="g4920">
            <path
               id="path4922"
               d="m 678.22,297.496 c -1.133,-0.933 -1.984,0.012 -2.219,0.374 -0.363,0.58 -0.775,1.451 -0.411,2.116 0.313,0.568 1.243,0.787 1.842,0.835 0.335,0.024 0.745,-0.036 0.987,-0.292 0.313,-0.326 1.086,-1.959 -0.199,-3.033 z"
               style="fill:#de4e77" />
          </g>
          <g
             id="g4924">
            <path
               id="path4926"
               d="m 657.302,320.182 c -1.123,-0.943 -1.983,0 -2.213,0.374 -0.363,0.582 -0.772,1.452 -0.41,2.118 0.308,0.568 1.24,0.774 1.844,0.835 0.332,0.024 0.736,-0.048 0.988,-0.292 0.306,-0.338 1.086,-1.959 -0.209,-3.035 z"
               style="fill:#de4e77" />
          </g>
          <g
             id="g4928">
            <path
               id="path4930"
               d="m 656.987,374.773 c -1.129,-0.931 -1.982,0.012 -2.225,0.375 -0.355,0.581 -0.76,1.451 -0.398,2.116 0.303,0.569 1.234,0.786 1.839,0.835 0.338,0.024 0.736,-0.037 0.978,-0.29 0.314,-0.327 1.101,-1.959 -0.194,-3.036 z"
               style="fill:#de4e77" />
          </g>
          <g
             id="g4932">
            <path
               id="path4934"
               d="m 692.628,401.911 c -1.125,-0.932 -1.982,0.012 -2.213,0.374 -0.355,0.581 -0.773,1.452 -0.41,2.116 0.309,0.581 1.244,0.787 1.846,0.835 0.331,0.024 0.735,-0.036 0.982,-0.29 0.303,-0.327 1.09,-1.959 -0.205,-3.035 z"
               style="fill:#de4e77" />
          </g>
          <g
             id="g4936">
            <path
               id="path4938"
               d="m 731.632,402.878 c -1.127,-0.931 -1.984,0.012 -2.217,0.375 -0.361,0.581 -0.771,1.45 -0.41,2.116 0.314,0.581 1.247,0.786 1.846,0.834 0.331,0.024 0.732,-0.036 0.98,-0.29 0.308,-0.325 1.092,-1.958 -0.199,-3.035 z"
               style="fill:#de4e77" />
          </g>
          <g
             id="g4940">
            <path
               id="path4942"
               d="m 765.255,370.346 c -1.123,-0.944 -1.982,0 -2.219,0.375 -0.355,0.58 -0.772,1.451 -0.404,2.116 0.309,0.568 1.24,0.787 1.844,0.835 0.334,0.024 0.737,-0.036 0.979,-0.292 0.316,-0.324 1.089,-1.958 -0.2,-3.034 z"
               style="fill:#de4e77" />
          </g>
          <g
             id="g4944">
            <path
               id="path4946"
               d="m 770.692,333.17 c -1.126,-0.931 -1.983,0.012 -2.219,0.376 -0.356,0.58 -0.768,1.451 -0.404,2.116 0.308,0.567 1.243,0.785 1.844,0.833 0.332,0.024 0.736,-0.036 0.973,-0.29 0.313,-0.325 1.101,-1.958 -0.194,-3.035 z"
               style="fill:#de4e77" />
          </g>
          <g
             id="g4948">
            <path
               id="path4950"
               d="m 746.481,290.178 c -1.133,-0.931 -1.99,0 -2.225,0.375 -0.352,0.581 -0.771,1.44 -0.405,2.105 0.308,0.58 1.244,0.787 1.845,0.847 0.332,0.024 0.736,-0.036 0.979,-0.291 0.313,-0.327 1.09,-1.972 -0.194,-3.036 z"
               style="fill:#de4e77" />
          </g>
          <g
             id="g4952">
            <path
               id="path4954"
               d="m 692.339,285.086 c -1.127,-0.931 -1.984,0.012 -2.213,0.376 -0.356,0.58 -0.775,1.451 -0.411,2.116 0.313,0.567 1.243,0.785 1.845,0.833 0.332,0.024 0.736,-0.036 0.984,-0.29 0.312,-0.325 1.09,-1.958 -0.205,-3.035 z"
               style="fill:#de4e77" />
          </g>
          <g
             id="g4956">
            <path
               id="path4958"
               d="m 718.871,315.986 c -1.123,-0.931 -1.983,0.012 -2.214,0.386 -0.355,0.569 -0.771,1.452 -0.41,2.116 0.309,0.569 1.244,0.774 1.846,0.823 0.332,0.036 0.736,-0.036 0.982,-0.29 0.303,-0.313 1.091,-1.959 -0.204,-3.035 z"
               style="fill:#de4e77" />
          </g>
          <g
             id="g4960">
            <path
               id="path4962"
               d="m 734.726,327.427 c -1.117,-0.945 -1.977,0 -2.213,0.375 -0.361,0.567 -0.772,1.438 -0.41,2.104 0.314,0.58 1.244,0.798 1.851,0.834 0.326,0.024 0.73,-0.024 0.972,-0.279 0.313,-0.338 1.095,-1.971 -0.2,-3.034 z"
               style="fill:#de4e77" />
          </g>
          <g
             id="g4964">
            <path
               id="path4966"
               d="m 738.844,349.486 c -1.13,-0.933 -1.983,0.012 -2.22,0.386 -0.355,0.568 -0.771,1.438 -0.41,2.104 0.314,0.58 1.244,0.786 1.846,0.834 0.331,0.024 0.742,-0.036 0.982,-0.292 0.314,-0.324 1.097,-1.957 -0.198,-3.032 z"
               style="fill:#de4e77" />
          </g>
          <g
             id="g4968">
            <path
               id="path4970"
               d="m 733.237,364.88 c -1.123,-0.943 -1.982,0 -2.213,0.375 -0.361,0.569 -0.772,1.452 -0.41,2.116 0.302,0.569 1.246,0.786 1.838,0.822 0.338,0.037 0.736,-0.036 0.984,-0.277 0.311,-0.326 1.096,-1.959 -0.199,-3.036 z"
               style="fill:#de4e77" />
          </g>
          <g
             id="g4972">
            <path
               id="path4974"
               d="m 713.138,373.14 c -1.123,-0.932 -1.982,0 -2.213,0.375 -0.361,0.58 -0.772,1.451 -0.41,2.116 0.314,0.568 1.247,0.773 1.839,0.833 0.338,0.024 0.749,-0.037 0.989,-0.29 0.311,-0.324 1.09,-1.958 -0.205,-3.034 z"
               style="fill:#de4e77" />
          </g>
          <g
             id="g4976">
            <path
               id="path4978"
               d="m 692.81,363.889 c -1.123,-0.931 -1.984,0.012 -2.213,0.375 -0.356,0.581 -0.773,1.452 -0.41,2.116 0.308,0.569 1.243,0.786 1.844,0.834 0.332,0.024 0.736,-0.036 0.984,-0.29 0.314,-0.327 1.089,-1.959 -0.205,-3.035 z"
               style="fill:#de4e77" />
          </g>
          <g
             id="g4980">
            <path
               id="path4982"
               d="m 684.272,351.747 c -1.127,-0.932 -1.984,0.012 -2.213,0.374 -0.362,0.582 -0.776,1.452 -0.41,2.116 0.301,0.569 1.23,0.787 1.835,0.835 0.341,0.024 0.739,-0.036 0.987,-0.29 0.308,-0.327 1.096,-1.959 -0.199,-3.035 z"
               style="fill:#de4e77" />
          </g>
          <g
             id="g4984">
            <path
               id="path4986"
               d="m 697.63,324.294 c -1.125,-0.944 -1.982,0 -2.221,0.375 -0.357,0.58 -0.773,1.451 -0.411,2.116 0.313,0.568 1.247,0.787 1.845,0.835 0.332,0.024 0.746,-0.037 0.986,-0.292 0.315,-0.325 1.088,-1.958 -0.199,-3.034 z"
               style="fill:#de4e77" />
          </g>
          <g
             id="g4988">
            <path
               id="path4990"
               d="m 676.544,364.76 c -1.126,-0.932 -1.983,0.012 -2.219,0.374 -0.356,0.581 -0.773,1.463 -0.41,2.116 0.307,0.581 1.242,0.799 1.844,0.835 0.338,0.024 0.736,-0.024 0.979,-0.278 0.314,-0.326 1.095,-1.959 -0.194,-3.047 z"
               style="fill:#de4e77" />
          </g>
          <g
             id="g4992">
            <path
               id="path4994"
               d="m 724.218,333.388 c -1.133,-0.943 -1.984,0 -2.213,0.376 -0.363,0.567 -0.776,1.438 -0.411,2.104 0.302,0.579 1.237,0.786 1.835,0.847 0.342,0.012 0.74,-0.036 0.982,-0.292 0.319,-0.338 1.098,-1.971 -0.193,-3.035 z"
               style="fill:#ffffff" />
          </g>
          <g
             id="g4996">
            <path
               id="path4998"
               d="m 726.304,342.627 c -1.133,-0.93 -1.984,0.012 -2.219,0.388 -0.363,0.569 -0.771,1.438 -0.404,2.116 0.307,0.569 1.236,0.774 1.841,0.822 0.329,0.024 0.739,-0.036 0.976,-0.29 0.313,-0.327 1.095,-1.958 -0.194,-3.036 z"
               style="fill:#ffffff" />
          </g>
          <g
             id="g5000">
            <path
               id="path5002"
               d="m 722.657,353.549 c -1.127,-0.945 -1.984,0 -2.213,0.374 -0.357,0.58 -0.773,1.451 -0.411,2.116 0.313,0.568 1.243,0.774 1.851,0.835 0.326,0.012 0.73,-0.036 0.979,-0.292 0.312,-0.325 1.089,-1.97 -0.206,-3.033 z"
               style="fill:#ffffff" />
          </g>
          <g
             id="g5004">
            <path
               id="path5006"
               d="m 710.871,357.443 c -1.123,-0.933 -1.983,0.012 -2.219,0.375 -0.351,0.58 -0.761,1.451 -0.405,2.116 0.309,0.567 1.238,0.787 1.846,0.834 0.332,0.024 0.736,-0.036 0.978,-0.291 0.313,-0.326 1.089,-1.959 -0.2,-3.034 z"
               style="fill:#ffffff" />
          </g>
          <g
             id="g5008">
            <path
               id="path5010"
               d="m 701.94,352.085 c -1.125,-0.931 -1.982,0 -2.212,0.375 -0.365,0.581 -0.776,1.452 -0.413,2.116 0.311,0.569 1.246,0.786 1.838,0.834 0.332,0.026 0.746,-0.036 0.993,-0.29 0.308,-0.326 1.087,-1.959 -0.206,-3.035 z"
               style="fill:#ffffff" />
          </g>
          <g
             id="g5012">
            <path
               id="path5014"
               d="m 699.236,343.232 c -1.129,-0.932 -1.983,0.012 -2.219,0.388 -0.362,0.568 -0.772,1.438 -0.411,2.104 0.314,0.58 1.248,0.785 1.846,0.833 0.332,0.024 0.742,-0.036 0.978,-0.278 0.311,-0.337 1.094,-1.97 -0.194,-3.047 z"
               style="fill:#ffffff" />
          </g>
          <g
             id="g5016">
            <path
               id="path5018"
               d="m 704.854,334.573 c -1.123,-0.93 -1.983,0.012 -2.219,0.376 -0.35,0.581 -0.768,1.451 -0.404,2.116 0.307,0.581 1.237,0.786 1.844,0.834 0.332,0.024 0.736,-0.036 0.973,-0.29 0.314,-0.327 1.101,-1.959 -0.194,-3.036 z"
               style="fill:#ffffff" />
          </g>
          <g
             id="g5020">
            <path
               id="path5022"
               d="m 714.403,330.618 c -1.133,-0.93 -1.983,0.012 -2.219,0.388 -0.363,0.569 -0.776,1.438 -0.412,2.104 0.314,0.581 1.245,0.786 1.846,0.834 0.332,0.024 0.742,-0.036 0.979,-0.278 0.32,-0.338 1.095,-1.97 -0.194,-3.048 z"
               style="fill:#ffffff" />
          </g>
        </g>
      </g>
    </switch>
  </g>
</svg>
