<?xml version="1.0" encoding="UTF-8" standalone="no"?>
<svg
   xmlns:dc="http://purl.org/dc/elements/1.1/"
   xmlns:cc="http://creativecommons.org/ns#"
   xmlns:rdf="http://www.w3.org/1999/02/22-rdf-syntax-ns#"
   xmlns:svg="http://www.w3.org/2000/svg"
   xmlns="http://www.w3.org/2000/svg"
   version="1.1"
   id="svg5793"
   viewBox="0 0 101.093 101.091"
   height="28.530127mm"
   width="28.530691mm">
  <defs
     id="defs5795" />
  <metadata
     id="metadata5798">
    <rdf:RDF>
      <cc:Work
         rdf:about="">
        <dc:format>image/svg+xml</dc:format>
        <dc:type
           rdf:resource="http://purl.org/dc/dcmitype/StillImage" />
        <dc:title></dc:title>
      </cc:Work>
    </rdf:RDF>
  </metadata>
  <g
     transform="translate(-66.596357,-404.67385)"
     id="layer1">
    <path
       id="path825"
       d="m 117.14336,404.67385 c -27.916003,0 -50.547003,22.63 -50.547003,50.545 0,27.915 22.631,50.546 50.547003,50.546 27.913,0 50.546,-22.63 50.546,-50.546 0,-27.916 -22.632,-50.545 -50.546,-50.545 z"
       style="fill:#48b9b2" />
    <path
       id="path827"
       d="m 152.95536,465.91685 c -1.068,-0.793 -2.529,-1.238 -3.868,-1.207 -1.23,-0.959 -2.775,-1.572 -3.602,-1.901 l -0.27,-0.105 c -0.03,-0.011 -0.062,-0.007 -0.095,-0.018 0.005,-0.187 0.021,-0.369 0.021,-0.556 0,-10.569 -8.278,-19.57 -19.921,-23.142 -2.029,2.521 -5.137,4.137 -8.62,4.137 -3.913,0 -7.353,-2.048 -9.32,-5.122 -0.55,0.108 -1.084,0.232 -1.617,0.366 0.132,0.157 0.28,0.291 0.401,0.456 1.479,2.006 1.746,4.428 0.715,6.476 -1.082,2.142 -3.363,3.474 -5.952,3.474 -0.338,0 -0.686,-0.022 -1.037003,-0.068 -3.377,-0.447 -4.721,-2.593 -5.396,-4.445 -2.592,2.339 -4.616,5.139 -5.933,8.307 l -2.395,0 c -2.854,0 -5.168,2.479 -5.168,5.529 l 0,4.938 c 0,3.056 2.314,5.533 5.168,5.533 l 1.37,0 c 1.574,6.021 5.368,11.132 11.005,14.418 l 0.065,2.839 c 0.032,1.43 0.734,1.932 1.146,2.1 0.152,0.062 0.364003,0.123 0.619003,0.123 0.445,0 1.023,-0.179 1.677,-0.803 l 1.934,-1.862 c 3.079,0.983 6.502,1.549 10.267,1.549 5.054,0 9.375,-0.598 13.088,-1.645 l 2.038,1.958 c 0.651,0.624 1.233,0.803 1.679,0.803 0.254,0 0.464,-0.061 0.614,-0.123 0.419,-0.17 1.119,-0.67 1.151,-2.1 l 0.062,-2.666 c 7.723,-3.915 11.508,-10.529 12.225,-18.23 0.509,0.21 0.977,0.416 1.383,0.623 -0.634,0.499 -1.035,1.201 -1.147,2.037 -0.146,1.089 0.232,2.068 1.047,2.691 0.514,0.388 1.149,0.59 1.787,0.59 0.387,0 0.777,-0.075 1.137,-0.229 0.951,-0.401 1.569,-1.27 1.701,-2.381 0.047,-0.38 0.021,-0.742 -0.056,-1.08 0.302,0.117 0.578,0.27 0.818,0.45 0.473,0.352 1.143,0.254 1.494,-0.22 0.354,-0.474 0.256,-1.14 -0.215,-1.494 z m -4.577,2.76 c -0.251,0.104 -0.577,0.064 -0.794,-0.098 -0.19,-0.151 -0.268,-0.381 -0.222,-0.704 0.034,-0.271 0.147,-0.613 0.688,-0.842 0.1,-0.04 0.208,-0.075 0.319,-0.104 0.321,0.367 0.463,0.729 0.424,1.084 -0.039,0.346 -0.177,0.559 -0.415,0.664 z m -56.250003,-30.226 c 0,0 7.521,-3.703 11.831003,0.405 0.284,0.274 0.558,0.58 0.812,0.925 2.699,3.655 -0.305,7.916 -4.767,7.325 -2.848003,-0.372 -3.764003,-2.234 -4.296003,-4.004 -0.242,-0.801 -0.4,-1.584 -0.627,-2.205 -0.606,-1.671 -2.953,-2.446 -2.953,-2.446 z"
       style="fill:#e8e6d9" />
    <path
       id="path829"
       d="m 116.60436,441.72085 c 2.834,0 5.369,-1.228 7.141,-3.167 1.562,-1.715 2.525,-3.993 2.525,-6.497 0,-5.338 -4.327,-9.667 -9.666,-9.667 -5.338,0 -9.665,4.329 -9.665,9.667 0,2.126 0.697,4.086 1.861,5.682 1.761,2.411 4.593,3.982 7.804,3.982 z m 0,-17.204 c 4.157,0 7.541,3.38 7.541,7.539 0,2.425 -1.172,4.562 -2.956,5.943 -1.274,0.983 -2.853,1.593 -4.585,1.593 -2.041,0 -3.896,-0.821 -5.254,-2.147 -1.404,-1.37 -2.284,-3.274 -2.284,-5.388 0,-4.16 3.384,-7.54 7.538,-7.54 z m -4.567,8.393 c -0.161,-0.13 -0.265,-0.326 -0.265,-0.55 0,-0.388 0.313,-0.703 0.701,-0.703 l 3.8,-0.003 0,-2.946 c 0,-0.482 0.312,-0.868 0.699,-0.868 0.395,0 0.707,0.386 0.707,0.868 l 0,3.485 c 0,0.032 -0.013,0.062 -0.016,0.091 0.003,0.025 0.016,0.047 0.016,0.072 -0.003,0.359 -0.274,0.646 -0.627,0.687 -0.024,0.006 -0.051,0.021 -0.079,0.021 -0.005,0 -0.014,-0.005 -0.017,-0.005 l -4.483,0.005 c -0.164,10e-4 -0.312,-0.057 -0.436,-0.154 z"
       style="fill:#ffffff" />
  </g>
</svg>
