<?xml version="1.0" encoding="UTF-8" standalone="no"?>
<svg
   xmlns:dc="http://purl.org/dc/elements/1.1/"
   xmlns:cc="http://creativecommons.org/ns#"
   xmlns:rdf="http://www.w3.org/1999/02/22-rdf-syntax-ns#"
   xmlns:svg="http://www.w3.org/2000/svg"
   xmlns="http://www.w3.org/2000/svg"
   version="1.1"
   id="svg5793"
   viewBox="0 0 101.092 101.092"
   height="28.530409mm"
   width="28.530409mm">
  <defs
     id="defs5795" />
  <metadata
     id="metadata5798">
    <rdf:RDF>
      <cc:Work
         rdf:about="">
        <dc:format>image/svg+xml</dc:format>
        <dc:type
           rdf:resource="http://purl.org/dc/dcmitype/StillImage" />
        <dc:title></dc:title>
      </cc:Work>
    </rdf:RDF>
  </metadata>
  <g
     transform="translate(-317.54253,-392.62777)"
     id="layer1">
    <circle
       id="circle5"
       r="50.546001"
       cy="443.17377"
       cx="368.08853"
       style="fill:#bdbbde" />
    <rect
       id="rect7"
       height="47.285"
       width="66.197998"
       y="422.27277"
       x="334.96454"
       style="fill:#ffffff" />
    <rect
       id="rect832"
       height="3.05"
       width="24.228001"
       y="460.1398"
       x="342.20255"
       style="fill:#f8d489" />
    <rect
       id="rect834"
       height="3.05"
       width="24.228001"
       y="460.1398"
       x="369.74655"
       style="fill:#f8d489" />
    <rect
       id="rect836"
       height="1.425"
       width="28.021"
       y="435.61377"
       x="365.95355"
       style="fill:#8a7f77" />
    <rect
       id="rect838"
       height="1.426"
       width="28.021"
       y="431.12277"
       x="365.95355"
       style="fill:#8a7f77" />
    <rect
       id="rect840"
       height="1.425"
       width="28.021"
       y="440.10178"
       x="365.95355"
       style="fill:#8a7f77" />
    <rect
       id="rect842"
       height="1.427"
       width="28.021"
       y="444.59076"
       x="365.95355"
       style="fill:#8a7f77" />
    <rect
       id="rect844"
       height="1.424"
       width="51.542"
       y="455.17578"
       x="342.43155"
       style="fill:#8a7f77" />
    <rect
       id="rect846"
       height="1.426"
       width="51.542"
       y="450.68378"
       x="342.43155"
       style="fill:#8a7f77" />
    <path
       id="path848"
       d="m 342.20253,446.04677 c 0,0.781 0.644,1.426 1.42399,1.426 l 15.678,0 c 0.78501,0 1.42701,-0.645 1.42701,-1.426 l 0,-13.499 c 0,-0.783 -0.642,-1.426 -1.42701,-1.426 l -15.678,0 c -0.77999,0 -1.42399,0.643 -1.42399,1.426 l 0,13.499 z"
       style="fill:#f8d489" />
    <path
       id="path850"
       d="m 358.63352,436.65177 1.47301,1.474 0,6.18 c 0,1.753 -1.123,2.354 -2.49501,2.354 l -3.85399,0 -4.39601,0 -3.855,0 c -1.375,0 -2.49899,-0.603 -2.49899,-2.354 l 0,-1.403 4.36899,-4.012 c 0.812,-0.743 1.32601,-1.02 1.73001,-1.013 0.41499,-0.01 0.959,0.293 1.80899,1.015 l 5.149,4.729 c 0.074,0.069 0.17,0.103 0.26701,0.103 0.104,0 0.20899,-0.042 0.287,-0.126 0.146,-0.158 0.137,-0.407 -0.024,-0.554 l -3.388,-3.111 3.284,-3.287 c 0.532,-0.531 0.854,-0.698 1.04499,-0.688 0.19101,-0.017 0.536,0.172 1.098,0.693 z"
       style="fill:#6f6359" />
    <path
       id="path852"
       d="m 349.60252,435.37177 c 0,-1.18 0.95601,-2.138 2.14,-2.138 1.178,0 2.136,0.958 2.136,2.138 0,1.179 -0.958,2.137 -2.136,2.137 -1.18399,10e-4 -2.14,-0.959 -2.14,-2.137 z"
       style="fill:#f8f6f6" />
    <path
       id="path855"
       d="m 397.02052,414.97477 -57.867,0 c -3.69199,0.007 -6.691,3.004 -6.693,6.7 l 0,43 c 0.002,3.694 3.00101,6.692 6.693,6.698 l 57.867,0 c 3.693,-0.006 6.692,-3.004 6.69401,-6.698 l 0,-43 c 0,-3.696 -2.99901,-6.693 -6.69401,-6.7 z m -0.71199,4.294 c 0.839,0 1.52299,0.682 1.52299,1.522 0,0.84 -0.686,1.521 -1.52299,1.521 -0.844,0 -1.52101,-0.682 -1.52101,-1.521 -10e-4,-0.84 0.678,-1.522 1.52101,-1.522 z m -11.967,0.09 7.48699,0 c 0.793,0 1.432,0.643 1.432,1.433 0,0.79 -0.639,1.433 -1.432,1.433 l -7.48699,0 c -0.793,0 -1.432,-0.643 -1.432,-1.433 0,-0.79 0.639,-1.433 1.432,-1.433 z m 15.72199,45.317 c -0.005,1.663 -1.383,3.045 -3.043,3.045 l -57.867,0 c -1.659,0 -3.037,-1.382 -3.043,-3.045 l 0,-38.704 63.953,0 0,38.704 0,0 z"
       style="fill:#6f6359" />
  </g>
</svg>
