<?xml version="1.0" encoding="UTF-8" standalone="no"?>
<svg
   xmlns:dc="http://purl.org/dc/elements/1.1/"
   xmlns:cc="http://creativecommons.org/ns#"
   xmlns:rdf="http://www.w3.org/1999/02/22-rdf-syntax-ns#"
   xmlns:svg="http://www.w3.org/2000/svg"
   xmlns="http://www.w3.org/2000/svg"
   xmlns:xlink="http://www.w3.org/1999/xlink"
   version="1.1"
   x="0px"
   y="0px"
   width="566.79999"
   height="272.10001"
   viewBox="0 0 566.79998 272.09999"
   enable-background="new 0 0 2227.3 1408.9"
   xml:space="preserve"
   id="svg2"><metadata
   id="metadata207"><rdf:RDF><cc:Work
       rdf:about=""><dc:format>image/svg+xml</dc:format><dc:type
         rdf:resource="http://purl.org/dc/dcmitype/StillImage" /><dc:title></dc:title></cc:Work></rdf:RDF></metadata><defs
   id="defs205">
	<linearGradient
   y2="330.67361"
   x2="299.69821"
   y1="182.3125"
   x1="299.69821"
   gradientUnits="userSpaceOnUse"
   id="SVGID_1_"
   gradientTransform="translate(-930.59998,-414.5)">
		<stop
   id="stop7"
   style="stop-color:#26292B"
   offset="0" />
		<stop
   id="stop9"
   style="stop-color:#000007"
   offset="1" />
	</linearGradient>
	
	
	<linearGradient
   y2="832.01727"
   x2="299.3056"
   y1="372.81451"
   x1="299.30569"
   gradientUnits="userSpaceOnUse"
   id="SVGID_2_"
   gradientTransform="translate(-930.59998,-414.5)">
		<stop
   id="stop16"
   style="stop-color:#26292B"
   offset="0" />
		<stop
   id="stop18"
   style="stop-color:#000007"
   offset="1" />
	</linearGradient>
	
	
	
	
	<linearGradient
   y2="884.63568"
   x2="295.76071"
   y1="889.60742"
   x1="295.76071"
   gradientUnits="userSpaceOnUse"
   id="SVGID_3_"
   gradientTransform="translate(-930.59998,-414.5)">
		<stop
   id="stop29"
   style="stop-color:#26292B"
   offset="0" />
		<stop
   id="stop31"
   style="stop-color:#000007"
   offset="1" />
	</linearGradient>
	
	<linearGradient
   y2="899.02319"
   x2="295.76071"
   y1="903.99408"
   x1="295.76071"
   gradientUnits="userSpaceOnUse"
   id="SVGID_4_"
   gradientTransform="translate(-930.59998,-414.5)">
		<stop
   id="stop36"
   style="stop-color:#26292B"
   offset="0" />
		<stop
   id="stop38"
   style="stop-color:#000007"
   offset="1" />
	</linearGradient>
	
	<linearGradient
   y2="913.40802"
   x2="295.76071"
   y1="918.38177"
   x1="295.76071"
   gradientUnits="userSpaceOnUse"
   id="SVGID_5_"
   gradientTransform="translate(-930.59998,-414.5)">
		<stop
   id="stop43"
   style="stop-color:#26292B"
   offset="0" />
		<stop
   id="stop45"
   style="stop-color:#000007"
   offset="1" />
	</linearGradient>
	
	<linearGradient
   y2="927.79358"
   x2="295.76071"
   y1="932.76947"
   x1="295.76071"
   gradientUnits="userSpaceOnUse"
   id="SVGID_6_"
   gradientTransform="translate(-930.59998,-414.5)">
		<stop
   id="stop50"
   style="stop-color:#26292B"
   offset="0" />
		<stop
   id="stop52"
   style="stop-color:#000007"
   offset="1" />
	</linearGradient>
	
	<linearGradient
   y2="942.17853"
   x2="295.76071"
   y1="947.14941"
   x1="295.76071"
   gradientUnits="userSpaceOnUse"
   id="SVGID_7_"
   gradientTransform="translate(-930.59998,-414.5)">
		<stop
   id="stop57"
   style="stop-color:#26292B"
   offset="0" />
		<stop
   id="stop59"
   style="stop-color:#000007"
   offset="1" />
	</linearGradient>
	
	
	
	
	
	
	
	
	
	
	
	
	
	
	
	
	
	
	
	
	
	
	
	
	
	
	
</defs>
<g
   id="Capa_2"
   transform="translate(-930.59998,-414.50003)">
</g>
<rect
   style="fill:#d7aa7e"
   id="rect161"
   height="20.6"
   width="524.20001"
   y="206.09995"
   x="28.900024" /><polygon
   style="fill:#ebb987"
   id="polygon163"
   points="944.4,1140.5 941.9,1214.6 949.4,1214.6 967.5,1142.4 "
   transform="translate(-930.59998,-942.50003)" /><polygon
   style="fill:#ebb987"
   id="polygon165"
   points="1483.8,1140.5 1486.3,1214.6 1478.8,1214.6 1460.7,1142.4 "
   transform="translate(-930.59998,-942.50003)" /><polygon
   style="fill:none"
   id="polygon167"
   points="944.4,1140.5 941.9,1214.6 949.4,1214.6 967.5,1142.4 "
   transform="translate(-930.59998,-414.50003)" /><polygon
   style="fill:none"
   id="polygon169"
   points="1483.8,1140.5 1486.3,1214.6 1478.8,1214.6 1460.7,1142.4 "
   transform="translate(-930.59998,-414.50003)" /><rect
   style="fill:#4e5b68"
   id="rect171"
   height="206.52521"
   width="566.79999"
   y="-3.0517578e-005"
   x="0" /><rect
   style="fill:#ffffff"
   id="rect173"
   height="169.8159"
   width="260.10001"
   y="19.199982"
   x="15.200012" /><rect
   style="fill:#ffffff"
   id="rect175"
   height="169.8159"
   width="260.10001"
   y="19.199982"
   x="287.90002" /><g
   id="g181"
   transform="translate(-930.59998,-414.50003)">
		<defs
   id="defs183">
			<rect
   height="342.70001"
   width="99"
   y="518.5"
   x="1218.3"
   id="SVGID_245_" />
		</defs>
		<clipPath
   id="SVGID_8_">
			<use
   height="100%"
   width="100%"
   y="0"
   x="0"
   style="overflow:visible"
   id="use187"
   overflow="visible"
   xlink:href="#SVGID_245_" />
		</clipPath>
		<path
   transform="translate(0,-160)"
   style="fill:#a3a8ac"
   id="path189"
   d="m 1191.2,646.8 c 25.5,0 46.2,20.7 46.2,46.2 0,25.5 -20.7,46.2 -46.2,46.2 l 0,-92.4 z"
   clip-path="url(#SVGID_8_)" />
	</g><g
   id="g191"
   transform="translate(-930.59998,-414.50003)">
		<defs
   id="defs193">
			<rect
   height="342.70001"
   width="99"
   y="523.90002"
   x="1108.4"
   id="SVGID_247_" />
		</defs>
		<clipPath
   id="SVGID_9_">
			<use
   height="100%"
   width="100%"
   y="0"
   x="0"
   style="overflow:visible"
   id="use197"
   overflow="visible"
   xlink:href="#SVGID_247_" />
		</clipPath>
		<path
   transform="translate(0,-160)"
   style="fill:#a3a8ac"
   id="path199"
   d="m 1234.5,738.3 c -25.5,0 -46.2,-20.7 -46.2,-46.2 0,-25.5 20.7,-46.2 46.2,-46.2 l 0,92.4 z"
   clip-path="url(#SVGID_9_)" />
	</g>
</svg>