<?xml version="1.0" encoding="UTF-8" standalone="no"?>
<svg
   xmlns:dc="http://purl.org/dc/elements/1.1/"
   xmlns:cc="http://creativecommons.org/ns#"
   xmlns:rdf="http://www.w3.org/1999/02/22-rdf-syntax-ns#"
   xmlns:svg="http://www.w3.org/2000/svg"
   xmlns="http://www.w3.org/2000/svg"
   version="1.1"
   id="svg5152"
   viewBox="0 0 101.776 101.776"
   height="28.72345mm"
   width="28.72345mm">
  <defs
     id="defs5154" />
  <metadata
     id="metadata5157">
    <rdf:RDF>
      <cc:Work
         rdf:about="">
        <dc:format>image/svg+xml</dc:format>
        <dc:type
           rdf:resource="http://purl.org/dc/dcmitype/StillImage" />
        <dc:title></dc:title>
      </cc:Work>
    </rdf:RDF>
  </metadata>
  <g
     transform="translate(-5.5405655,-6.1303444)"
     id="layer1">
    <circle
       id="circle805"
       r="50.888"
       cy="57.018345"
       cx="56.428566"
       style="fill:#e8e6d9" />
    <path
       id="path807"
       d="m 37.345584,82.461347 c 0,1.759 -1.423,3.182 -3.181,3.182 l 0,0 c -1.758,0 -3.181,-1.423 -3.181,-3.182 l 0,-12.722 c 0,-1.758 1.423,-3.181 3.181,-3.181 l 0,0 c 1.758,0 3.181,1.422 3.181,3.181 l 0,12.722 z"
       enable-background="new    "
       style="opacity:0.2;fill:#2b2523" />
    <path
       id="path809"
       d="m 81.872584,82.461347 c 0,1.759 -1.422,3.182 -3.18,3.182 l 0,0 c -1.759,0 -3.182,-1.423 -3.182,-3.182 l 0,-12.722 c 0,-1.758 1.423,-3.181 3.182,-3.181 l 0,0 c 1.758,0 3.18,1.422 3.18,3.181 l 0,12.722 z"
       enable-background="new    "
       style="opacity:0.2;fill:#2b2523" />
    <path
       id="path811"
       d="m 37.345584,79.281347 c 0,1.758 -1.423,3.181 -3.181,3.181 l 0,0 c -1.758,0 -3.181,-1.422 -3.181,-3.181 l 0,-12.722 c 0,-1.759 1.423,-3.182 3.181,-3.182 l 0,0 c 1.758,0 3.181,1.423 3.181,3.182 l 0,12.722 z"
       style="fill:#e39d58" />
    <path
       id="path813"
       d="m 81.872584,79.281347 c 0,1.758 -1.422,3.181 -3.18,3.181 l 0,0 c -1.759,0 -3.182,-1.422 -3.182,-3.181 l 0,-12.722 c 0,-1.759 1.423,-3.182 3.182,-3.182 l 0,0 c 1.758,0 3.18,1.423 3.18,3.182 l 0,12.722 z"
       style="fill:#e39d58" />
    <path
       id="path815"
       d="m 24.624584,37.935347 c -3.513,0 -6.361,2.848 -6.361,6.36 l 0,19.083 c 0,1.43 0.488,2.733 1.283,3.795 l 14.619,-29.238 -9.541,0 z"
       style="fill:#535d74" />
    <polygon
       id="polygon817"
       points="361.812,260.694 377.715,228.889 355.452,228.889 339.549,260.694 "
       style="fill:#535d74"
       transform="translate(-302.20342,-190.95365)" />
    <path
       id="path819"
       d="m 34.165584,37.935347 -14.619,29.238 c 1.16,1.551 2.994,2.566 5.078,2.566 l 12.722,0 15.902,-31.805 -19.083,0 z"
       style="fill:#f8d489" />
    <path
       id="path821"
       d="m 78.692584,69.740347 9.541,0 c 3.513,0 6.36,-2.849 6.36,-6.361 l 0,-19.084 c 0,-1.428 -0.488,-2.733 -1.283,-3.794 l -14.618,29.239 z"
       style="fill:#535d74" />
    <path
       id="path823"
       d="m 88.233584,37.935347 -12.723,0 -15.902,31.805 19.084,0 14.618,-29.239 c -1.159,-1.55 -2.993,-2.566 -5.077,-2.566 z"
       style="fill:#f8d489" />
  </g>
</svg>
