<?xml version="1.0" encoding="UTF-8" standalone="no"?>
<svg
   xmlns:dc="http://purl.org/dc/elements/1.1/"
   xmlns:cc="http://creativecommons.org/ns#"
   xmlns:rdf="http://www.w3.org/1999/02/22-rdf-syntax-ns#"
   xmlns:svg="http://www.w3.org/2000/svg"
   xmlns="http://www.w3.org/2000/svg"
   version="1.1"
   x="0px"
   y="0px"
   width="985.29999"
   height="124.19997"
   viewBox="0 0 985.29996 124.19997"
   enable-background="new 0 0 2227.3 1408.9"
   xml:space="preserve"
   id="svg2"><metadata
   id="metadata207"><rdf:RDF><cc:Work
       rdf:about=""><dc:format>image/svg+xml</dc:format><dc:type
         rdf:resource="http://purl.org/dc/dcmitype/StillImage" /><dc:title></dc:title></cc:Work></rdf:RDF></metadata><defs
   id="defs205">
	<linearGradient
   y2="330.67361"
   x2="299.69821"
   y1="182.3125"
   x1="299.69821"
   gradientUnits="userSpaceOnUse"
   id="SVGID_1_"
   gradientTransform="translate(-699,-146.3)">
		<stop
   id="stop7"
   style="stop-color:#26292B"
   offset="0" />
		<stop
   id="stop9"
   style="stop-color:#000007"
   offset="1" />
	</linearGradient>
	
	
	<linearGradient
   y2="832.01727"
   x2="299.3056"
   y1="372.81451"
   x1="299.30569"
   gradientUnits="userSpaceOnUse"
   id="SVGID_2_"
   gradientTransform="translate(-699,-146.3)">
		<stop
   id="stop16"
   style="stop-color:#26292B"
   offset="0" />
		<stop
   id="stop18"
   style="stop-color:#000007"
   offset="1" />
	</linearGradient>
	
	
	
	
	<linearGradient
   y2="884.63568"
   x2="295.76071"
   y1="889.60742"
   x1="295.76071"
   gradientUnits="userSpaceOnUse"
   id="SVGID_3_"
   gradientTransform="translate(-699,-146.3)">
		<stop
   id="stop29"
   style="stop-color:#26292B"
   offset="0" />
		<stop
   id="stop31"
   style="stop-color:#000007"
   offset="1" />
	</linearGradient>
	
	<linearGradient
   y2="899.02319"
   x2="295.76071"
   y1="903.99408"
   x1="295.76071"
   gradientUnits="userSpaceOnUse"
   id="SVGID_4_"
   gradientTransform="translate(-699,-146.3)">
		<stop
   id="stop36"
   style="stop-color:#26292B"
   offset="0" />
		<stop
   id="stop38"
   style="stop-color:#000007"
   offset="1" />
	</linearGradient>
	
	<linearGradient
   y2="913.40802"
   x2="295.76071"
   y1="918.38177"
   x1="295.76071"
   gradientUnits="userSpaceOnUse"
   id="SVGID_5_"
   gradientTransform="translate(-699,-146.3)">
		<stop
   id="stop43"
   style="stop-color:#26292B"
   offset="0" />
		<stop
   id="stop45"
   style="stop-color:#000007"
   offset="1" />
	</linearGradient>
	
	<linearGradient
   y2="927.79358"
   x2="295.76071"
   y1="932.76947"
   x1="295.76071"
   gradientUnits="userSpaceOnUse"
   id="SVGID_6_"
   gradientTransform="translate(-699,-146.3)">
		<stop
   id="stop50"
   style="stop-color:#26292B"
   offset="0" />
		<stop
   id="stop52"
   style="stop-color:#000007"
   offset="1" />
	</linearGradient>
	
	<linearGradient
   y2="942.17853"
   x2="295.76071"
   y1="947.14941"
   x1="295.76071"
   gradientUnits="userSpaceOnUse"
   id="SVGID_7_"
   gradientTransform="translate(-699,-146.3)">
		<stop
   id="stop57"
   style="stop-color:#26292B"
   offset="0" />
		<stop
   id="stop59"
   style="stop-color:#000007"
   offset="1" />
	</linearGradient>
	
	
	
	
	
	
	
	
	
	
	
	
	
	
	
	
	
	
	
	
	
	
	
	
	
	
	
</defs>
<g
   id="Capa_2"
   transform="translate(-699,-146.30001)">
</g>
<rect
   style="fill:#957452"
   id="rect137"
   height="50"
   width="985.29999"
   y="-3.8146973e-006"
   x="0" /><rect
   style="fill:#392512"
   id="rect139"
   height="22.299999"
   width="985.29999"
   y="27.600002"
   x="0" /><path
   style="fill:#616466"
   id="path141"
   d="m 140.6,49.999976 0,67.699994 c 0,3.6 -2.9,6.5 -6.5,6.5 l -40.9,0 c -3.6,0 -6.5,-2.9 -6.5,-6.5 l 0,-67.799994 53.9,0 z" /><rect
   style="fill:#484a4c"
   id="rect143"
   height="15.6"
   width="84.300003"
   y="49.999996"
   x="71.5" /><path
   style="opacity:0.15"
   id="path145"
   d="m 124.2,95.699974 c 0,5.799996 -4.7,10.599996 -10.6,10.599996 -5.9,0 -10.6,-4.7 -10.6,-10.599996 0,-5.8 4.7,-10.6 10.6,-10.6 5.9,0 10.6,4.8 10.6,10.6 z" /><path
   style="fill:#9a9d9e"
   id="path147"
   d="m 124.2,91.799974 c 0,5.8 -4.7,10.599996 -10.6,10.599996 -5.9,0 -10.6,-4.699996 -10.6,-10.599996 0,-5.8 4.7,-10.6 10.6,-10.6 5.9,0 10.6,4.8 10.6,10.6 z" /><path
   style="opacity:0.2"
   id="path149"
   d="m 114.7,99.699974 c 0,0.599996 -0.5,1.099996 -1.1,1.099996 l 0,0 c -0.6,0 -1.1,-0.5 -1.1,-1.099996 l 0,-15.6 c 0,-0.6 0.5,-1.1 1.1,-1.1 l 0,0 c 0.6,0 1.1,0.5 1.1,1.1 l 0,15.6 z" /><path
   style="fill:#616466"
   id="path151"
   d="m 878.9,49.999976 0,67.699994 c 0,3.6 -2.9,6.5 -6.5,6.5 l -40.9,0 c -3.6,0 -6.5,-2.9 -6.5,-6.5 l 0,-67.799994 53.9,0 z" /><rect
   style="fill:#484a4c"
   id="rect153"
   height="15.6"
   width="84.300003"
   y="49.999996"
   x="809.80005" /><path
   style="opacity:0.15"
   id="path155"
   d="m 862.5,95.699974 c 0,5.799996 -4.7,10.599996 -10.6,10.599996 -5.8,0 -10.6,-4.7 -10.6,-10.599996 0,-5.8 4.7,-10.6 10.6,-10.6 5.8,0.1 10.6,4.8 10.6,10.6 z" /><path
   style="fill:#9a9d9e"
   id="path157"
   d="m 862.5,91.799974 c 0,5.8 -4.7,10.599996 -10.6,10.599996 -5.8,0 -10.6,-4.699996 -10.6,-10.599996 0,-5.8 4.7,-10.6 10.6,-10.6 5.8,0.1 10.6,4.8 10.6,10.6 z" /><path
   style="opacity:0.2"
   id="path159"
   d="m 853,99.699974 c 0,0.599996 -0.5,1.099996 -1.1,1.099996 l 0,0 c -0.6,0 -1.1,-0.5 -1.1,-1.099996 l 0,-15.6 c 0,-0.6 0.5,-1.1 1.1,-1.1 l 0,0 c 0.6,0 1.1,0.5 1.1,1.1 l 0,15.6 z" />
</svg>