<?xml version="1.0" encoding="UTF-8" standalone="no"?>
<svg
   xmlns:dc="http://purl.org/dc/elements/1.1/"
   xmlns:cc="http://creativecommons.org/ns#"
   xmlns:rdf="http://www.w3.org/1999/02/22-rdf-syntax-ns#"
   xmlns:svg="http://www.w3.org/2000/svg"
   xmlns="http://www.w3.org/2000/svg"
   id="svg2"
   xml:space="preserve"
   enable-background="new 0 0 2227.3 1408.9"
   viewBox="0 0 115.5 215.4"
   height="215.39999"
   width="115.5"
   y="0px"
   x="0px"
   version="1.1"><metadata
   id="metadata1113"><rdf:RDF><cc:Work
       rdf:about=""><dc:format>image/svg+xml</dc:format><dc:type
         rdf:resource="http://purl.org/dc/dcmitype/StillImage" /><dc:title></dc:title></cc:Work></rdf:RDF></metadata><defs
   id="defs1111">
	
	
	
	
	
	
	
	
	
	
	
	
	
	
	
	
	
	
	
	
	
	
	
	
	
	
	
	
	
	
	
	
	
	
	
	
	
	
	
	
	
	
	
	
	
	
	
	
	
	
	
	
	
	
	
	
	
	
	
	
	
	
	
	
	
	
	
	
	
	
	
	
	
	
	
	
	
	
	
	
	
	
	
	
	
	
	
	
	
	
	
	
	
	
	
	
	
	
	
	
	
	
	
	
	
	
	
	
	
	
	
	
	
	
	
	
	
	
	
	
	
	
	
	
	
	
	
	
	
	
	
	
	
	
	
	
	
	
	
	
	
	
	
	
	
	
	
	
	
	
	
	
	
	
	
	
	
	
	
	
	
	
	
	
	
	
	
	
	
	
	
	
	
	
	
	
	
	
	
	
	
	
	
	
	
	
	
	
	
	
	
	
	
	
	
	
	
	
	
	
	
	
	
		
	
		
	
	
	
	
	
	
	
	
	
	
	
	
	
	
	
	
	
	
	
	
	
	
	
	
	
	
	
	
	
	
	
	
	
	
	
	
</defs>
<g
   transform="translate(-1702.8,-888)"
   id="Capa_2">
</g>
<g
   transform="translate(-1702.8,-888)"
   id="g1085">
		<path
   d="m 1774.8,1040.7 0,57.9 c 0,2.7 -2.2,4.8 -4.8,4.8 l -17,0 c -2.7,0 -4.8,-2.2 -4.8,-4.8 l 0,-57.9 c 0,-2.7 2.2,-4.8 4.8,-4.8 l 17,0 c 2.6,0 4.8,2.1 4.8,4.8 z"
   id="path1087"
   style="fill:#e85a80" />
		<rect
   x="1748"
   y="1040"
   width="26.700001"
   height="13.5"
   id="rect1089"
   style="fill:#cd3f6b" />
		<path
   d="m 1818.3,1028.1 0,6.3 c 0,3.2 -2.4,5.8 -5.5,6.3 -17.3,2.2 -34.8,3.3 -52.2,3.3 -17.5,0 -34.9,-1.1 -52.3,-3.3 -3.1,-0.4 -5.5,-3.1 -5.5,-6.3 l 0,-6.3 115.5,0 z"
   id="path1091"
   style="fill:#e85a80" />
		<path
   d="m 1814.7,1028.1 -108.2,0 10.1,-126.2 c 0.6,-7.8 7.2,-13.9 15,-13.9 l 58,0 c 7.9,0 14.4,6 15,13.9 l 10.1,126.2 z"
   id="path1093"
   style="fill:#ceebec" />
		<path
   d="m 1753.7,898.7 -5,0 c -1.5,0 -2.7,-1.2 -2.7,-2.7 0,-1.5 1.2,-2.7 2.7,-2.7 l 5,0 c 1.5,0 2.7,1.2 2.7,2.7 0,1.5 -1.2,2.7 -2.7,2.7 z"
   id="path1095"
   style="fill:#ffffff" />
		<path
   d="m 1721.7,940.1 c -0.1,0 -0.1,0 -0.2,0 -1.5,-0.1 -2.6,-1.4 -2.5,-2.9 l 2.8,-34.8 c 0.4,-5.1 4.7,-9.1 9.8,-9.1 l 6.2,0 c 1.5,0 2.7,1.2 2.7,2.7 0,1.5 -1.2,2.7 -2.7,2.7 l -6.2,0 c -2.3,0 -4.2,1.8 -4.4,4.1 l -2.8,34.8 c -0.1,1.4 -1.3,2.5 -2.7,2.5 z"
   id="path1097"
   style="fill:#ffffff" />
		<path
   d="m 1814.7,1028.1 -54.1,0 0,-140 29,0 c 7.9,0 14.4,6 15,13.9 l 10.1,126.1 z"
   id="path1099"
   style="fill:#a5dbdb" />
		<path
   d="m 1774.8,1040.7 0,57.9 c 0,2.7 -2.2,4.8 -4.8,4.8 l -9.3,0 0,-67.6 9.3,0 c 2.6,0.1 4.8,2.2 4.8,4.9 z"
   id="path1101"
   style="fill:#cd3f6b" />
		<path
   d="m 1818.3,1028.1 0,6.3 c 0,3.2 -2.4,5.8 -5.5,6.3 -17.3,2.2 -34.8,3.3 -52.2,3.3 l 0,-15.9 57.7,0 z"
   id="path1103"
   style="fill:#cd3f6b" />
		<path
   d="m 1780,981.5 0,46.6 -37.1,0 0,-46.6 c 0,-10 7.9,-18.1 17.8,-18.5 0.3,0 0.5,0 0.8,0 10.1,0 18.5,8.3 18.5,18.5 z"
   id="path1105"
   style="fill:#ade1f8" />
		<path
   d="m 1780,981.5 0,46.6 -19.4,0 0,-65.1 c 0.3,0 0.5,0 0.8,0 10.2,0 18.6,8.3 18.6,18.5 z"
   id="path1107"
   style="fill:#a3d5ee" />
	</g>
</svg>