<?xml version="1.0" encoding="UTF-8" standalone="no"?>
<!-- Created with Inkscape (http://www.inkscape.org/) -->

<svg
   xmlns:dc="http://purl.org/dc/elements/1.1/"
   xmlns:cc="http://creativecommons.org/ns#"
   xmlns:rdf="http://www.w3.org/1999/02/22-rdf-syntax-ns#"
   xmlns:svg="http://www.w3.org/2000/svg"
   xmlns="http://www.w3.org/2000/svg"
   xmlns:sodipodi="http://sodipodi.sourceforge.net/DTD/sodipodi-0.dtd"
   xmlns:inkscape="http://www.inkscape.org/namespaces/inkscape"
   width="28.530409mm"
   height="28.530409mm"
   viewBox="0 0 101.092 101.092"
   id="svg5793"
   version="1.1"
   inkscape:version="0.91 r13725"
   sodipodi:docname="horarios.svg">
  <defs
     id="defs5795" />
  <sodipodi:namedview
     id="base"
     pagecolor="#ffffff"
     bordercolor="#666666"
     borderopacity="1.0"
     inkscape:pageopacity="0.0"
     inkscape:pageshadow="2"
     inkscape:zoom="1.979899"
     inkscape:cx="-43.926362"
     inkscape:cy="9.912967"
     inkscape:document-units="px"
     inkscape:current-layer="layer1"
     showgrid="false"
     fit-margin-top="0"
     fit-margin-left="0"
     fit-margin-right="0"
     fit-margin-bottom="0"
     inkscape:window-width="1920"
     inkscape:window-height="1027"
     inkscape:window-x="-8"
     inkscape:window-y="-8"
     inkscape:window-maximized="1" />
  <metadata
     id="metadata5798">
    <rdf:RDF>
      <cc:Work
         rdf:about="">
        <dc:format>image/svg+xml</dc:format>
        <dc:type
           rdf:resource="http://purl.org/dc/dcmitype/StillImage" />
        <dc:title></dc:title>
      </cc:Work>
    </rdf:RDF>
  </metadata>
  <g
     inkscape:label="Capa 1"
     inkscape:groupmode="layer"
     id="layer1"
     transform="translate(-245.86006,-291.57413)">
    <g
       transform="translate(-203.60395,254.20813)"
       id="g765">
      <circle
         style="fill:#535d74"
         id="circle"
         cx="500.01001"
         cy="87.912003"
         r="50.546001" />
      <g
         id="icon">
        <path
           style="fill:#ffffff"
           inkscape:connector-curvature="0"
           id="base-3"
           d="m 516.642,124.873 -33.266,0 c -2.712,0 -4.929,-2.219 -4.929,-4.929 l 0,-64.065 c 0,-2.712 2.217,-4.929 4.929,-4.929 l 33.266,0 c 2.712,0 4.93,2.217 4.93,4.929 l 0,64.065 c 0,2.712 -2.218,4.929 -4.93,4.929 z" />
        <rect
           style="fill:#82cee6"
           id="screen"
           x="482.14401"
           y="62.039001"
           width="35.729"
           height="51.744999" />
        <circle
           style="fill:#bebbbb"
           id="nav"
           cx="499.88699"
           cy="119.699"
           r="2.464" />
        <path
           style="fill:#bebbbb"
           inkscape:connector-curvature="0"
           id="speaker"
           d="m 504.938,57.727 -9.856,0 c -0.616,0 -1.232,-0.493 -1.232,-1.232 l 0,0 c 0,-0.615 0.616,-1.231 1.232,-1.231 l 9.856,0 c 0.738,0 1.232,0.616 1.232,1.231 l 0,0 c 0.002,0.739 -0.493,1.232 -1.232,1.232 z" />
      </g>
    </g>
    <circle
       style="fill:#ffffff"
       cx="296.78503"
       cy="342.09814"
       r="11.123"
       id="circle1005" />
    <g
       transform="translate(-203.60395,254.20813)"
       id="g1007">
      <rect
         style="fill:#82cee6;stroke:#82cee6;stroke-miterlimit:10"
         x="491.59399"
         y="90.473999"
         transform="matrix(-0.707,-0.7072,0.7072,-0.707,781.2549,506.9058)"
         stroke-miterlimit="10"
         width="8.059"
         height="2.313"
         id="rect1009" />
      <rect
         style="fill:#82cee6;stroke:#82cee6;stroke-miterlimit:10"
         x="494.50601"
         y="87.768997"
         transform="matrix(-0.7071,0.7071,-0.7071,-0.7071,920.5775,-203.4411)"
         stroke-miterlimit="10"
         width="15.829"
         height="2.313"
         id="rect1011" />
    </g>
  </g>
</svg>
