<?xml version="1.0" encoding="UTF-8" standalone="no"?>
<svg
   xmlns:ns="&amp;#38;ns_sfw;"
   xmlns:dc="http://purl.org/dc/elements/1.1/"
   xmlns:cc="http://creativecommons.org/ns#"
   xmlns:rdf="http://www.w3.org/1999/02/22-rdf-syntax-ns#"
   xmlns:svg="http://www.w3.org/2000/svg"
   xmlns="http://www.w3.org/2000/svg"
   version="1.1"
   id="Capa_1"
   x="0px"
   y="0px"
   width="105.4"
   height="105.4"
   viewBox="0 0 105.4 105.4"
   enable-background="new 0 0 595.3 841.9"
   xml:space="preserve"><defs
   id="defs61" />
<metadata
   id="metadata3">
	<ns:sfw>
		<ns:slices />
		<ns:sliceSourceBounds
   height="840.4"
   width="1393.1"
   x="-914"
   y="-946"
   bottomLeftOrigin="true" />
	</ns:sfw>
<rdf:RDF><cc:Work
     rdf:about=""><dc:format>image/svg+xml</dc:format><dc:type
       rdf:resource="http://purl.org/dc/dcmitype/StillImage" /><dc:title></dc:title></cc:Work></rdf:RDF></metadata>


<circle
   cx="52.700001"
   cy="52.700001"
   r="52.700001"
   id="circle13"
   style="fill:#65acb0;fill-opacity:1" />
<g
   id="g15"
   transform="translate(-257.19999,-74.700001)"
   style="fill:#ffffff;fill-opacity:1">
	<path
   d="m 297.6,139.8 c 0,0 0,-6.7 0,-17.1 0,-10.4 -1.2,-18.1 -4.2,-21.1 -1.4,-1.4 -1.9,-3.7 -2.1,-5.8 0.6,-0.2 1,-0.8 1,-1.4 l 0,-3.4 c 0,-0.8 -0.7,-1.5 -1.5,-1.5 l -7.4,0 c -0.8,0 -1.5,0.7 -1.5,1.5 l 0,3.4 c 0,0.6 0.4,1.2 1,1.4 -0.2,2.1 -0.7,4.4 -2.1,5.8 -2.9,2.9 -4.2,10.7 -4.2,21.1 0,10.4 0,17.1 0,17.1 0,0 1.2,3.7 10.5,3.7 9.3,0 10.5,-3.7 10.5,-3.7 z"
   id="path17"
   style="fill:#ffffff;fill-opacity:1" />
	<path
   d="m 313.1,124.4 c 0,0 -0.1,0 0,0 0.1,0 0.2,0 0.3,0.1 0.2,0 0.4,0.1 0.6,0.1 0.1,0 0.3,0 0.4,0 0.2,0 0.4,0 0.6,0 0.2,0 0.3,-0.1 0.5,-0.1 0.2,0 0.3,0 0.5,-0.1 0.3,-0.1 0.7,-0.2 1,-0.3 0.1,0 0.1,-0.1 0.2,-0.1 0.7,1 1.7,1.9 3,2.7 3.2,1.8 7.7,1.8 11.4,0.4 0.3,-0.1 0.6,-0.3 0.9,-0.4 0.1,0 0.1,-0.1 0.2,-0.1 0.3,-0.1 0.5,-0.3 0.7,-0.4 0,0 0.1,0 0.1,-0.1 0.2,-0.1 0.4,-0.3 0.5,-0.4 0,0 0.1,-0.1 0.1,-0.1 0.2,-0.1 0.3,-0.3 0.4,-0.4 0,0 0.1,-0.1 0.1,-0.1 0.1,-0.1 0.2,-0.2 0.3,-0.3 0,0 0,-0.1 0.1,-0.1 0.1,-0.1 0.2,-0.2 0.2,-0.4 0,0 0,-0.1 0.1,-0.1 0,-0.1 0.1,-0.2 0.1,-0.3 0,0 0,-0.1 0,-0.1 0,-0.1 0,-0.1 0.1,-0.2 0,0 0,0 0,0 0,0 0,0 0,0 0.1,-0.2 0.1,-0.3 0.1,-0.3 0,0 0.7,-2.2 -2.1,-5 -0.7,-0.7 -1.6,-1.4 -2.4,-2 2.2,-2.8 3,-7 2.4,-10.7 -0.1,-0.3 -0.1,-0.7 -0.2,-1 0,-0.1 0,-0.1 -0.1,-0.2 -0.1,-0.3 -0.2,-0.5 -0.3,-0.8 0,0 0,-0.1 0,-0.1 -0.1,-0.2 -0.2,-0.4 -0.3,-0.6 0,0 0,-0.1 -0.1,-0.1 -0.1,-0.2 -0.2,-0.4 -0.3,-0.5 0,0 0,0 -0.1,-0.1 -0.1,-0.1 -0.2,-0.3 -0.3,-0.4 0,0 0,0 0,0 -0.1,-0.1 -0.2,-0.2 -0.3,-0.3 0,0 0,0 0,0 -0.2,-0.2 -0.4,-0.3 -0.6,-0.4 0,0 0,0 0,0 l 0,0 c -0.2,-0.1 -0.3,-0.1 -0.3,-0.1 0,0 -2,-1.2 -5.3,1 -3.3,2.2 -6,5.8 -6.4,9.4 -1.1,-1.7 -2.6,-3.3 -4.3,-4.4 -0.3,-0.2 -0.6,-0.4 -0.8,-0.5 -0.1,0 -0.1,-0.1 -0.2,-0.1 -0.3,-0.1 -0.5,-0.3 -0.8,-0.3 0,0 -0.1,0 -0.1,0 -0.2,-0.1 -0.4,-0.2 -0.6,-0.2 0,0 -0.1,0 -0.1,0 -0.2,-0.1 -0.4,-0.1 -0.6,-0.1 0,0 -0.1,0 -0.1,0 -0.2,0 -0.3,0 -0.5,0 0,0 0,0 0,0 -0.2,0 -0.3,0 -0.5,0 0,0 0,0 -0.1,0 -0.3,0 -0.5,0.1 -0.6,0.1 0,0 0,0 0,0 0,0 0,0 0,0 -0.2,0.1 -0.3,0.1 -0.3,0.1 0,0 -2.2,0.6 -2.9,4.5 -0.7,3.9 0.1,8.4 2.5,11.2 1.4,1.5 2.8,2.4 4.2,2.7 z"
   id="path19"
   style="fill:#ffffff;fill-opacity:1" />
	<path
   d="m 343.3,137.8 c -0.4,-1.5 -2,-2.7 -3.5,-2.3 0.5,-0.7 0.7,-1.7 0.4,-2.5 -0.4,-0.9 -1.5,-1.4 -2.4,-1.2 -1,0.2 -1.7,1 -2.1,1.9 -0.4,0.9 -0.4,1.9 -0.2,2.9 0,0.2 0.1,0.4 0,0.5 -0.1,0.2 -0.2,0.3 -0.3,0.4 -0.2,0.2 -0.5,0.4 -0.8,0.7 -0.1,-0.1 -0.2,-0.1 -0.2,-0.1 l -2.4,1.7 c -3.2,-3.4 -7.9,-5.9 -14.8,-5.5 -18.3,0.9 -18.5,19.1 -18.3,23.5 l -2,0 c 0,0.1 0,0.1 0,0.2 0,4.1 9.9,7.4 22.1,7.4 12.2,0 22.1,-3.3 22.1,-7.4 0,-0.1 0,-0.1 0,-0.2 l -2.3,0 c -0.2,-2.5 -0.9,-9.3 -4.4,-15 l 2.1,-2.1 c 0,0 0,-0.1 0,-0.2 0.1,-0.1 0.3,-0.2 0.4,-0.4 0.3,-0.2 0.7,-0.5 1.1,-0.4 0.4,0.1 0.6,0.3 0.9,0.5 0.5,0.3 1.3,0.7 1.9,0.7 1.4,0.1 2.2,-0.3 2.8,-1.4 0,-0.4 0.1,-1.2 -0.1,-1.7 z"
   id="path21"
   style="fill:#ffffff;fill-opacity:1" />
</g>








</svg>