<?xml version="1.0" encoding="UTF-8" standalone="no"?>
<svg
   xmlns:dc="http://purl.org/dc/elements/1.1/"
   xmlns:cc="http://creativecommons.org/ns#"
   xmlns:rdf="http://www.w3.org/1999/02/22-rdf-syntax-ns#"
   xmlns:svg="http://www.w3.org/2000/svg"
   xmlns="http://www.w3.org/2000/svg"
   id="svg2"
   xml:space="preserve"
   enable-background="new 0 0 2227.3 1408.9"
   viewBox="0 0 101.20055 203"
   height="203"
   width="101.20055"
   y="0px"
   x="0px"
   version="1.1"><metadata
   id="metadata1113"><rdf:RDF><cc:Work
       rdf:about=""><dc:format>image/svg+xml</dc:format><dc:type
         rdf:resource="http://purl.org/dc/dcmitype/StillImage" /><dc:title></dc:title></cc:Work></rdf:RDF></metadata><defs
   id="defs1111">
	
	
	
	
	
	
	
	
	
	
	
	
	
	
	
	
	
	
	
	
	
	
	
	
	
	
	
	
	
	
	
	
	
	
	
	
	
	
	
	
	
	
	
	
	
	
	
	
	
	
	
	
	
	
	
	
	
	
	
	
	
	
	
	
	
	
	
	
	
	
	
	
	
	
	
	
	
	
	
	
	
	
	
	
	
	
	
	
	
	
	
	
	
	
	
	
	
	
	
	
	
	
	
	
	
	
	
	
	
	
	
	
	
	
	
	
	
	
	
	
	
	
	
	
	
	
	
	
	
	
	
	
	
	
	
	
	
	
	
	
	
	
	
	
	
	
	
	
	
	
	
	
	
	
	
	
	
	
	
	
	
	
	
	
	
	
	
	
	
	
	
	
	
	
	
	
	
	
	
	
	
	
	
	
	
	
	
	
	
	
	
	
	
	
	
	
	
	
	
	
	
	
	
		
	
		
	
	
	
	
	
	
	
	
	
	
	
	
	
	
	
	
	
	
	
	
	
	
	
	
	
	
	
	
	
	
	
	
	
	
	
	
</defs>
<g
   transform="translate(-1100.7,-323)"
   id="Capa_2">
</g>
<g
   transform="translate(-1100.7,-323)"
   id="g691">
		<rect
   x="1151.2"
   y="360.20001"
   width="3.0999999"
   height="16.9"
   id="rect693" />
		<rect
   x="1157.4"
   y="360.20001"
   width="3.0999999"
   height="16.9"
   id="rect695" />
		<path
   d="m 1176.6,357.1 24.7,-7.3 0,-10.5 c 0,0 -8.4,-16.3 -26.5,-16.3 -18.2,0 -59.9,0 -59.9,0 l 0,12.6 30.1,21.5 31.6,0 z"
   id="path697" />
		<rect
   x="1145"
   y="360.20001"
   width="3.0999999"
   height="16.9"
   id="rect699" />
		<rect
   x="1163.6"
   y="360.20001"
   width="3.0999999"
   height="16.9"
   id="rect701" />
		<rect
   x="1100.7"
   y="339"
   width="6.1999998"
   height="10.2"
   id="rect703" />
		<path
   d="m 1116.1,355.3 0,12.2 c 0,0 -0.2,6.1 -4.8,8.5 l 2.9,5.5 c 7.9,-4.1 8.1,-13.5 8.1,-13.9 l 0,-18.4 6.4,0 -14.2,-10.2 -4.5,0 0,10.2 c 0,0 6,2.7 6.1,6.1 z"
   id="path705" />
		<rect
   x="1169.8"
   y="360.20001"
   width="3.0999999"
   height="16.9"
   id="rect707" />
		<rect
   x="1175.9"
   y="360.20001"
   width="3.0999999"
   height="16.9"
   id="rect709" />
		<path
   d="m 1179.4,380.1 -3.5,0 c 7.1,13.3 22.9,51.9 22.9,106 l 0,18.1 c 0,0.7 -1.2,18.7 -15.7,18.7 l -57.8,0 c -14.6,0 -15.7,-18 -15.8,-18.7 l 0,-18.1 c 0,-49.1 37.3,-85.5 37.7,-85.9 l 0.9,-0.8 0,-19.3 -3.1,0 c 0,0 0,16.8 0,18 -1.9,1.8 -38.5,38.6 -38.5,88 l 0,18.2 c 0,1 1.4,21.7 18.8,21.7 l 57.8,0 c 17.5,0 18.8,-20.8 18.8,-21.7 l 0,-18.2 c 0.1,-53.8 -15,-91.9 -22.5,-106 z"
   id="path711" />
		<path
   d="m 1127.5,451.1 c -11.6,21.5 -8.8,45.5 6.3,53.6 15,8.1 36.6,-2.8 48.2,-24.3 11.6,-21.5 8.8,-45.5 -6.3,-53.6 -15.1,-8.1 -36.7,2.8 -48.2,24.3 z"
   id="path713"
   style="fill:#df577d;stroke:#000000;stroke-width:1.41729999;stroke-linecap:round;stroke-linejoin:round" />
	</g>
</svg>