<?xml version="1.0" encoding="UTF-8" standalone="no"?>
<svg
   xmlns:dc="http://purl.org/dc/elements/1.1/"
   xmlns:cc="http://creativecommons.org/ns#"
   xmlns:rdf="http://www.w3.org/1999/02/22-rdf-syntax-ns#"
   xmlns:svg="http://www.w3.org/2000/svg"
   xmlns="http://www.w3.org/2000/svg"
   id="svg2"
   xml:space="preserve"
   enable-background="new 0 0 2227.3 1408.9"
   viewBox="0 0 175.10587 219.20608"
   height="219.20609"
   width="175.10587"
   y="0px"
   x="0px"
   version="1.1"><metadata
   id="metadata1113"><rdf:RDF><cc:Work
       rdf:about=""><dc:format>image/svg+xml</dc:format><dc:type
         rdf:resource="http://purl.org/dc/dcmitype/StillImage" /><dc:title></dc:title></cc:Work></rdf:RDF></metadata><defs
   id="defs1111">
	
	
	
	
	
	
	
	
	
	
	
	
	
	
	
	
	
	
	
	
	
	
	
	
	
	
	
	
	
	
	
	
	
	
	
	
	
	
	
	
	
	
	
	
	
	
	
	
	
	
	
	
	
	
	
	
	
	
	
	
	
	
	
	
	
	
	
	
	
	
	
	
	
	
	
	
	
	
	
	
	
	
	
	
	
	
	
	
	
	
	
	
	
	
	
	
	
	
	
	
	
	
	
	
	
	
	
	
	
	
	
	
	
	
	
	
	
	
	
	
	
	
	
	
	
	
	
	
	
	
	
	
	
	
	
	
	
	
	
	
	
	
	
	
	
	
	
	
	
	
	
	
	
	
	
	
	
	
	
	
	
	
	
	
	
	
	
	
	
	
	
	
	
	
	
	
	
	
	
	
	
	
	
	
	
	
	
	
	
	
	
	
	
	
	
	
	
	
	
	
	
	
	
		
	
		
	
	
	
	
	
	
	
	
	
	
	
	
	
	
	
	
	
	
	
	
	
	
	
	
	
	
	
	
	
	
	
	
	
	
	
	
</defs>
<g
   transform="translate(-1067.0471,-611.2)"
   id="Capa_2">
</g>
<g
   transform="translate(-1067.0471,-611.2)"
   id="g723">
		<path
   d="m 1149.7,830.4 c -0.4,0 -0.8,0 -1.3,0 -69.4,0.1 -80.3,-30 -80.3,-30 l -1,-101.1 c -1,-22 12.5,-32.5 12.5,-32.5 l 17.5,-13 56,-0.5 0,0 1.5,0 1.5,0 0,0 56,0.5 17.5,13 c 0,0 13.5,10.5 12.5,32.5 l -1,101.1 c 0,0 -11,30.5 -81.6,30 l -9.8,0 z"
   id="path725"
   style="fill:#5dc1b4" />
		<path
   d="m 1095.2,669.2 c 0,0 22.7,7.6 36.8,9.8 3.8,0.6 3.8,0.6 3.8,0.6 0,0 -49.9,104.9 -16.1,146.2 0,0 -38.3,-3 -46.5,-33.8 l 1.5,-99.8 c -0.1,-0.1 -2.7,-17 20.5,-23 z"
   id="path727"
   style="opacity:0.17000002;fill:#4b9e8e" />
		<path
   d="m 1101.9,817.9 c -22,-8 -24.5,-23 -24.5,-23 0,0 0.5,-54 -0.5,-87.1 0,-0.7 0,-1.3 0,-2 0.3,-31.5 18.4,-36.7 18.4,-36.7 0,0 -0.1,1.4 0,0 l -7.9,-8.1 -7.5,5.7 c 0,0 -13.5,10.5 -12.5,32.5 l 1,101.1 c 0,0 10.9,30.2 80.3,30 0.4,0 0.8,0 1.2,0 l 10,0 c 30,0.2 49.2,-5.2 61.4,-11.4 -57.5,20 -119.4,-1 -119.4,-1 z"
   id="path729"
   style="fill:#4eb4a5" />
		<g
   id="g731">
			<path
   d="M 1098.4,623.3"
   id="path733"
   style="fill:#dd4d72" />
			<path
   d="M 1098.8,635"
   id="path735"
   style="fill:#e1aeba" />
			<path
   d="m 1215.8,648.7 c 0,0 -0.1,0.1 -0.1,0.1 l 0,-4.7 c 1.9,-2.4 0.6,-6 0.1,-7.3 l 0.1,-5.5 0.1,0 c 2,-3.7 0,-7.8 0,-7.8 0,0.1 0,0.1 0,0.2 -1.1,0.3 -76.1,20.4 -117.3,0.1 0,-0.2 -0.1,-0.4 -0.1,-0.7 0,0 -2,3.4 0,7.1 l 0.1,0 0.1,4.9 c -0.3,0.6 -2.2,5.4 0.2,8.1 l 0.1,4.7 0,0 c 0,0 -4.7,6.1 0.2,10.9 0,0 45,29.1 116.3,0.9 l 0,0 c 4.9,-4.9 0.2,-11 0.2,-11 z"
   id="path737"
   style="fill:#449f92" />
			<path
   d="m 1098.6,629.8 c 0,0 39.9,16.4 117.4,1.4 l 0.3,6.4 c 0,0 -69.6,14.2 -117.4,-2.7 l -0.3,-5.1"
   id="path739"
   style="fill:#308576" />
			<path
   d="m 1098.9,643.2 c 0,0 39.3,15.9 116.8,0.9 l 0.3,5 c 0,0 -69.1,15.7 -116.9,-1.2 l -0.2,-4.7"
   id="path741"
   style="fill:#308576" />
			<ellipse
   cx="1157.3"
   cy="623"
   rx="58.700001"
   ry="11.8"
   id="ellipse743"
   style="fill:#308576" />
		</g>
		<ellipse
   cx="1154.6"
   cy="621.09998"
   rx="51.400002"
   ry="7.9000001"
   id="ellipse745"
   style="fill:#267164" />
		<path
   d="m 1219.3,664.8 c 0,0 -10,9 -24,10 0,0 20.1,99.4 -17.4,154.2 l 7.5,0 c 0,0 43.9,-10.9 34.9,-9.4 0,0 20.6,-9.8 19.1,-26.3 l -0.5,-104.1 c -0.1,0.1 -0.1,-11.9 -19.6,-24.4 z"
   id="path747"
   style="opacity:0.17000002;fill:#bbacba" />
		<path
   d="m 1219.3,664.8 c 0,0 -7.8,6.6 -14.4,8.2 0,0 25.9,14.4 25.4,31.5 l 1.7,90 c 0,0 2.2,9.3 -17.7,22.5 0,0 -3.6,1.8 -0.2,1.2 0,0 17.3,0.5 25.6,-20.4 l -0.6,-104.9 c 0,0 1.8,-16.5 -19.8,-28.1 z"
   id="path749"
   style="opacity:0.43000004;fill:#f7eaec" />
		<path
   d="m 1225.8,738.8 c -4,-3.3 -8.3,-16.6 -8.3,-16.6 4,-14 -0.2,-21.5 -0.2,-21.5 -2.2,-3.3 -8.5,-2.2 -8.5,-2.2 l -0.4,-5 c -5.9,-16.8 -26.7,-6.9 -26.7,-6.9 -15.4,5.2 -27.7,-7.5 -27.7,-7.5 0,0 -0.2,0.3 -0.6,0.8 -2.3,2.9 -11.7,12.6 -30.4,7 0,0 -15.8,-5.3 -20.2,7.2 0,0 -2.2,5.7 -2.2,6.6 0,0 -8,-0.3 -8.3,7.2 0,0.2 0,0.5 0,0.8 0.2,8.3 1.4,19.2 1.8,21.1 0,0 0.7,8.3 -3.4,10.6 0,0 4.1,5.4 4.8,10.1 0,0 -0.4,14 -0.7,17.9 0,0 -1.2,11.7 9.8,17.3 0,0 2.4,16.7 13.5,18.4 0,0 11.1,4.2 26.2,0.2 0,0 1.9,-0.7 5.7,2 0,0 8.1,7.4 8.4,8.1 16.6,-13.3 21,-10.5 21,-10.5 13.1,2.6 22.9,-4.6 22.9,-4.6 6.9,-4.6 7.1,-16.9 7.1,-16.9 3.6,-1.1 6.7,-6.8 6.7,-6.8 3.4,-3.3 1.2,-14 1.2,-14 -4,-19.5 8.5,-22.8 8.5,-22.8 z"
   id="path751"
   style="opacity:0.86000001;fill:#ffffff" />
		<g
   id="g753">
			<g
   id="g755">
				<path
   stroke-miterlimit="10"
   d="m 1098.7,740.6 c -0.3,0.1 -0.7,0.2 -1.1,0.3 0,0 0.3,0.3 0.8,0.9"
   id="path757"
   style="fill:none;stroke:#7e7274;stroke-width:1.12590003;stroke-miterlimit:10" />
				<path
   stroke-miterlimit="10"
   d="m 1099.7,743.4 c 2,2.7 4.6,7.1 4.5,11.3 0,0 -1.9,13.3 0.3,16 0,0 1.3,5 6.1,8"
   id="path759"
   style="fill:none;stroke:#7e7274;stroke-width:1.12590003;stroke-miterlimit:10;stroke-dasharray:2.2159, 2.2159" />
				<path
   stroke-miterlimit="10"
   d="m 1111.5,779.3 c 0.3,0.2 0.7,0.3 1,0.5 0,0 0,0.4 0.1,1.1"
   id="path761"
   style="fill:none;stroke:#7e7274;stroke-width:1.12590003;stroke-miterlimit:10" />
				<path
   stroke-miterlimit="10"
   d="m 1113.2,783.2 c 1,3.7 3.7,9.4 10.1,11.7 0,0 10.7,4 20.7,0.8"
   id="path763"
   style="fill:none;stroke:#7e7274;stroke-width:1.12590003;stroke-miterlimit:10;stroke-dasharray:2.3972, 2.3972" />
				<path
   stroke-miterlimit="10"
   d="m 1145.2,795.4 c 0.4,-0.1 0.7,-0.3 1.1,-0.4 0,0 0.4,0.2 1,0.5"
   id="path765"
   style="fill:none;stroke:#7e7274;stroke-width:1.12590003;stroke-miterlimit:10" />
				<path
   stroke-miterlimit="10"
   d="m 1149.7,796.8 c 2.6,1.4 6,3.3 8,4.8"
   id="path767"
   style="fill:none;stroke:#7e7274;stroke-width:1.12590003;stroke-miterlimit:10;stroke-dasharray:2.679, 2.679" />
				<path
   stroke-miterlimit="10"
   d="m 1158.7,802.4 c 0.4,0.3 0.6,0.6 0.7,0.9 0,0 0.3,-0.3 0.8,-0.9"
   id="path769"
   style="fill:none;stroke:#7e7274;stroke-width:1.12590003;stroke-miterlimit:10" />
				<path
   stroke-miterlimit="10"
   d="m 1161.8,800.9 c 3.4,-3.1 10,-7.9 17.9,-5.9 0,0 18.1,2.5 22.9,-10.6 0,0 0.8,-3.2 1.2,-5.6"
   id="path771"
   style="fill:none;stroke:#7e7274;stroke-width:1.12590003;stroke-miterlimit:10;stroke-dasharray:2.2368, 2.2368" />
				<path
   stroke-miterlimit="10"
   d="m 1203.9,777.7 c 0.1,-0.5 0.1,-1 0,-1.2 0,0 0.4,-0.2 1,-0.5"
   id="path773"
   style="fill:none;stroke:#7e7274;stroke-width:1.12590003;stroke-miterlimit:10" />
				<path
   stroke-miterlimit="10"
   d="m 1206.8,774.7 c 2.4,-2 5.5,-5.6 5.5,-11.4 0,0 -0.8,-14 -1.1,-15.5 0,0 0.2,-4.9 5.8,-8.8"
   id="path775"
   style="fill:none;stroke:#7e7274;stroke-width:1.12590003;stroke-miterlimit:10;stroke-dasharray:2.2542, 2.2542" />
				<path
   stroke-miterlimit="10"
   d="m 1218,738.5 c 0.3,-0.2 0.7,-0.4 1,-0.6 0,0 -0.4,0 -1.1,-0.3"
   id="path777"
   style="fill:none;stroke:#7e7274;stroke-width:1.12590003;stroke-miterlimit:10" />
				<path
   stroke-miterlimit="10"
   d="m 1216,736.4 c -2.1,-1.9 -4.4,-6 -3.6,-15.1 0,0 4.3,-10.6 -5.4,-16 l -1.5,-0.4"
   id="path779"
   style="fill:none;stroke:#7e7274;stroke-width:1.12590003;stroke-miterlimit:10;stroke-dasharray:2.3276, 2.3276" />
				<path
   stroke-miterlimit="10"
   d="m 1204.3,704.7 -1.1,-0.3 c 0,0 -0.1,-0.4 -0.3,-1.1"
   id="path781"
   style="fill:none;stroke:#7e7274;stroke-width:1.12590003;stroke-miterlimit:10" />
				<path
   stroke-miterlimit="10"
   d="m 1202.1,701.1 c -1.5,-3.5 -5,-8.5 -11.9,-7.5 0,0 -18.6,4.4 -24.5,3.2 l -7.4,-6.3"
   id="path783"
   style="fill:none;stroke:#7e7274;stroke-width:1.12590003;stroke-miterlimit:10;stroke-dasharray:2.3164, 2.3164" />
				<path
   stroke-miterlimit="10"
   d="m 1157.4,689.7 -0.9,-0.8 c 0,0 -0.3,0.3 -0.8,0.9"
   id="path785"
   style="fill:none;stroke:#7e7274;stroke-width:1.12590003;stroke-miterlimit:10" />
				<path
   stroke-miterlimit="10"
   d="m 1154.2,691.4 c -3.2,3.2 -9.1,8.3 -13.6,7.1 0,0 -17.5,-5.2 -21.6,-3.7 0,0 -8.7,4.1 -9.5,10.5"
   id="path787"
   style="fill:none;stroke:#7e7274;stroke-width:1.12590003;stroke-miterlimit:10;stroke-dasharray:2.2385, 2.2385" />
				<path
   stroke-miterlimit="10"
   d="m 1109.5,706.4 c 0,0.4 0,0.8 0.1,1.2 0,0 -0.4,0.1 -1.1,0.4"
   id="path789"
   style="fill:none;stroke:#7e7274;stroke-width:1.12590003;stroke-miterlimit:10" />
				<path
   stroke-miterlimit="10"
   d="m 1106.4,708.8 c -3.3,1.6 -7.8,4.7 -6,9.3 0,0 3.8,17.6 -0.8,21.8"
   id="path791"
   style="fill:none;stroke:#7e7274;stroke-width:1.12590003;stroke-miterlimit:10;stroke-dasharray:2.2387, 2.2387" />
			</g>
		</g>
		<path
   d="M 1169.1,689.7"
   id="path793"
   style="fill:#c88899" />
		<g
   id="g795">
			<path
   d="m 1173,716.6 c 0,0 -4.1,7.8 3.2,15.2 l 9.7,8.6 c 0,0 1.5,-9 0.6,-12.1 0,0 -0.2,-4.6 -5.2,-5.5 0,0 -7.5,-2.2 -7.2,-7.3 0.1,0 -1.2,-0.7 -1.1,1.1 z"
   id="path797"
   style="fill:#5ba845" />
			<path
   d="m 1173.2,714.7 c 0,0 -4.8,-3.9 -12.4,-3.7 0,0 -7.8,0.4 -15.5,6.1 0,0 -4.6,3.4 -6.6,3.8 0,0 13.3,3.4 17.8,3.3 l 4.3,-0.2 13.1,-8.9"
   id="path799"
   style="fill:#5ba845" />
			<path
   d="m 1144.1,738 c 0,0 -14.2,-6.4 -20.4,2.2 0,0 -10.7,11.8 -1.3,26.3 0,0 3.2,4.5 6.8,5.4 0,0 7.2,2.3 13.8,-0.8 0,0 5.9,-2.7 6.9,-4 0,0 0.6,-18.6 5.1,-20.9 -0.1,0.1 -2.6,-5.5 -10.9,-8.2 z"
   id="path801"
   style="fill:#1a5180" />
			<path
   d="m 1140.7,741.9 c 0,0 1.9,1 5.3,-5.3 0,0 9.3,-12.1 18.1,-16.8 0,0 9.7,-5.6 11,-6.1 l 2.5,-2.3 3,2.3 c 0,0 -12.4,5.7 -19.7,11.4 0,0 -13.6,10 -13.5,17.7 0,0 0.7,1.5 1,1.7 0,0 -5.2,1.2 -7.7,-2.6 z"
   id="path803"
   style="fill:#66bb48" />
			<path
   d="m 1140.6,739.3 c 0,0 -0.4,6.7 8.6,4.8 l 1,1.6 c 0,0 -6.5,3 -10.1,-2 0,0 -1.3,-2.8 -0.8,-4.6 l 1.3,0.2 z"
   id="path805"
   style="fill:#0f4161" />
			<path
   d="m 1149.4,767.9 c -2.1,1.3 -5.1,3.6 -7.9,3.7 -0.7,0 0.5,0.9 0,0.5 -0.6,-0.5 -3.2,-5.4 -3.6,-6.1 -2.5,-5.2 -2.4,-11.5 0.2,-16.6 1.4,-2.8 5.2,-3.1 8,-4.4 2.8,-1.3 5.1,-3.7 7.3,-0.5 1.8,2.6 3.7,4.1 3.6,7.3 -0.1,3.2 -1.3,6.2 -2.7,9 -1.3,2.6 -2.9,5.1 -4.7,7.4"
   id="path807"
   style="fill:#0f4161" />
			<path
   d="m 1166.8,741.8 c 0,0 -20.3,-2.3 -19.9,17.6 0,0 -1.6,16.6 13.6,21.9 0,0 2.6,0.6 3.7,0.2 0,0 9,4.1 16.4,-5.4 0,0 14,-15.6 5,-25.6 0,0 -6.4,-7.7 -17.7,-8.5 0.1,0 -0.9,0.8 -1.1,-0.2 z"
   id="path809"
   style="fill:#245d9a" />
			<path
   d="m 1172.2,713.6 c 0,0 -5.5,13.3 -5.9,18.6 0,0 -1.8,12.7 -2,13.4 0,0 -0.6,1.4 -1.7,1.9 0,0 3.4,3.4 6.2,1.4 0,0 1,-0.9 1.2,-1.2 0,0 -2.4,0.7 -1.4,-10.4 0,0 2.4,-17.4 6,-22.5 l 1.6,-3.1 -3.9,0.4 0,1.5 z"
   id="path811"
   style="fill:#66bb48" />
			<path
   d="m 1161.2,745.2 c 0,0 2,6.4 9.7,1.5 l 1.5,1.2 c 0,0 -5.1,5 -10.1,1.6 0,0 -2.2,-2.2 -2.3,-4 l 1.2,-0.3 z"
   id="path813"
   style="fill:#0f4161" />
		</g>
	</g><g
   transform="translate(-1256.4323,-535.12216)"
   id="g931">
		<g
   id="g933">
			<path
   d="m 1301.2,731.7 c 0,-1.8 -0.8,-2.6 -2.4,-2.6 -1.6,0 -3.1,1.2 -3.5,1.5 l 0,10.2 -1.7,0 0,-13 1.3,0 0.4,1.3 c 0.9,-0.7 2.3,-1.5 3.8,-1.5 1.8,0 2.9,0.6 3.4,1.8 1.1,-1 2.6,-1.8 4.2,-1.8 2.9,0 3.7,1.6 3.7,4.2 l 0,8.9 -1.7,0 0,-9 c 0,-2.1 -0.8,-2.7 -2.4,-2.7 -1.4,0 -2.8,1 -3.5,1.6 0.1,0.3 0.1,0.8 0.1,1.3 l 0,8.9 -1.7,0 0,-9.1 z"
   id="path935" />
			<path
   d="m 1314.8,734.7 c 0.1,2.9 0.8,4.8 3.5,4.8 2,0 3.1,-0.8 3.1,-0.8 l 0.7,1.3 c 0,0 -1.5,1 -3.8,1 -3,0 -5.2,-1.6 -5.2,-6.7 0,-5.1 2.2,-6.7 4.9,-6.7 3.7,0 4.6,2.6 4.6,7.1 l -7.8,0 z m 0,-1.4 6.1,0 c -0.1,-3 -0.9,-4.3 -2.9,-4.3 -2.2,0.1 -3,1.8 -3.2,4.3 z"
   id="path937" />
			<path
   d="m 1330.9,729.3 c -0.2,-0.1 -0.5,-0.1 -0.8,-0.1 -1.8,0 -2.7,1.2 -2.9,1.5 l 0,10.1 -1.7,0 0,-13 1.3,0 0.4,1.3 c 0.8,-0.8 1.8,-1.5 3.2,-1.5 0.3,0 0.7,0 0.9,0.1 l -0.4,1.6 z"
   id="path939" />
			<path
   d="m 1340.5,731.7 c 0,-1.8 -0.8,-2.6 -2.4,-2.6 -1.6,0 -3.1,1.2 -3.5,1.5 l 0,10.2 -1.7,0 0,-13 1.3,0 0.4,1.3 c 0.9,-0.7 2.3,-1.5 3.8,-1.5 1.8,0 2.9,0.6 3.4,1.8 1.1,-1 2.6,-1.8 4.2,-1.8 2.9,0 3.7,1.6 3.7,4.2 l 0,8.9 -1.7,0 0,-9 c 0,-2.1 -0.8,-2.7 -2.4,-2.7 -1.4,0 -2.8,1 -3.5,1.6 0.1,0.3 0.1,0.8 0.1,1.3 l 0,8.9 -1.7,0 0,-9.1 z"
   id="path941" />
			<path
   d="m 1354.2,734.7 c 0.1,2.9 0.8,4.8 3.5,4.8 2,0 3.1,-0.8 3.1,-0.8 l 0.6,1.3 c 0,0 -1.5,1 -3.8,1 -3,0 -5.2,-1.6 -5.2,-6.7 0,-5.1 2.2,-6.7 4.9,-6.7 3.7,0 4.6,2.6 4.6,7.1 l -7.7,0 z m 0,-1.4 6.1,0 c -0.1,-3 -0.9,-4.3 -2.9,-4.3 -2.3,0.1 -3.1,1.8 -3.2,4.3 z"
   id="path943" />
			<path
   d="m 1369.8,740.9 c -0.4,0.1 -0.7,0.2 -1.2,0.2 -2.5,0 -3.9,-1.5 -3.9,-4.7 l 0,-13.7 1.7,0 0,13.3 c 0,2.5 0.7,3.5 2.3,3.5 0.3,0 0.6,0 0.8,-0.1 l 0.3,1.5 z"
   id="path945" />
			<path
   d="m 1376.4,733.2 1.7,0 0,-1.8 c 0,-1.4 -0.7,-2.3 -2.3,-2.3 -1.9,0 -3.4,0.8 -3.4,0.8 l -0.4,-1.3 c 0,0 1.6,-0.9 3.9,-0.9 3,0 4,1.4 4,3.9 l 0,9.2 -1.3,0 -0.2,-1 c -0.8,0.6 -1.9,1.2 -3.6,1.2 -2.5,0 -3.7,-1.7 -3.7,-3.8 -0.2,-2 1.4,-4 5.3,-4 z m 1.7,5.3 0,-3.9 -1.7,0 c -2.4,0 -3.7,1.2 -3.7,2.7 0,1.4 1,2.4 2.3,2.4 1.4,-0.1 2.6,-0.8 3.1,-1.2 z"
   id="path947" />
			<path
   d="m 1390.5,722.6 1.7,0 0,18.2 -1.4,0 -0.3,-1.1 c -0.6,0.7 -1.6,1.3 -3.1,1.3 -2.8,0 -5,-1.7 -5,-6.7 0,-5 2.2,-6.7 5,-6.7 1.5,0 2.7,0.8 3.1,1.2 l 0,-6.2 z m -2.8,17 c 1.2,0 2.3,-0.6 2.8,-1.6 l 0,-7.3 c -0.4,-0.6 -1.3,-1.6 -2.8,-1.6 -2.7,0 -3.5,2.1 -3.5,5.2 0,3.2 0.8,5.3 3.5,5.3 z"
   id="path949" />
			<path
   d="m 1400.5,733.2 1.7,0 0,-1.8 c 0,-1.4 -0.7,-2.3 -2.3,-2.3 -1.9,0 -3.4,0.8 -3.4,0.8 l -0.4,-1.3 c 0,0 1.6,-0.9 3.9,-0.9 3,0 4,1.4 4,3.9 l 0,9.2 -1.3,0 -0.2,-1 c -0.8,0.6 -1.9,1.2 -3.6,1.2 -2.5,0 -3.7,-1.7 -3.7,-3.8 -0.2,-2 1.3,-4 5.3,-4 z m 1.6,5.3 0,-3.9 -1.7,0 c -2.4,0 -3.7,1.2 -3.7,2.7 0,1.4 1,2.4 2.3,2.4 1.4,-0.1 2.6,-0.8 3.1,-1.2 z"
   id="path951" />
		</g>
	</g>
</svg>