<?xml version="1.0" encoding="UTF-8" standalone="no"?>
<svg
   xmlns:dc="http://purl.org/dc/elements/1.1/"
   xmlns:cc="http://creativecommons.org/ns#"
   xmlns:rdf="http://www.w3.org/1999/02/22-rdf-syntax-ns#"
   xmlns:svg="http://www.w3.org/2000/svg"
   xmlns="http://www.w3.org/2000/svg"
   xmlns:xlink="http://www.w3.org/1999/xlink"
   viewBox="0 0 14.727969 20.722002"
   id="svg2"
   version="1.1"
   width="14.727969"
   height="20.722002">
  <metadata
     id="metadata35">
    <rdf:RDF>
      <cc:Work
         rdf:about="">
        <dc:format>image/svg+xml</dc:format>
        <dc:type
           rdf:resource="http://purl.org/dc/dcmitype/StillImage" />
        <dc:title></dc:title>
      </cc:Work>
    </rdf:RDF>
  </metadata>
  <defs
     id="defs4">
    <filter
       height="1.5149"
       id="filter3537"
       width="1.6155"
       x="-0.30774999"
       y="-0.25745001">
      <feGaussianBlur
         stdDeviation="13.00579"
         id="feGaussianBlur7" />
    </filter>
    <linearGradient
       id="linearGradient3534">
      <stop
         offset="0"
         stop-color="#fff"
         id="stop10" />
      <stop
         offset="1"
         stop-color="#fff"
         stop-opacity="0"
         id="stop12" />
    </linearGradient>
    <radialGradient
       cx="457.12711"
       cy="397.85736"
       gradientTransform="matrix(-0.62972,-1.46358,1.44052,-0.6198,-2064.264,1124.5056)"
       gradientUnits="userSpaceOnUse"
       id="radialGradient2473"
       r="197.2068">
      <stop
         offset="0"
         stop-color="#001651"
         stop-opacity=".87069"
         id="stop15" />
      <stop
         offset="1"
         stop-color="#0041f1"
         stop-opacity="0"
         id="stop17" />
    </radialGradient>
    <radialGradient
       cx="481.38342"
       cy="658.84564"
       gradientTransform="matrix(0.78727,-0.76553,0.73085,0.7516,-2624.3135,375.07591)"
       gradientUnits="userSpaceOnUse"
       id="radialGradient2469"
       r="189.35699"
       xlink:href="#linearGradient3534" />
    <radialGradient
       cx="271.67026"
       cy="350.62665"
       gradientTransform="matrix(0.73243,0.39572,-1.25394,2.32091,-1740.1977,-738.90764)"
       gradientUnits="userSpaceOnUse"
       id="radialGradient2471"
       r="197.2068"
       xlink:href="#linearGradient3534" />
  </defs>
  <g
     transform="matrix(0.03734144,0,0,0.03734144,78.434221,-1.1730059)"
     id="g21">
    <path
       d="m -1706.047,394.50758 c 0,105.89487 -88.3412,191.83854 -197.1903,191.83854 -108.8491,0 -199.2041,-85.96282 -197.1902,-191.83854 2.6758,-142.01921 111.0861,-199.86618 197.1902,-363.0946 91.4559,157.87667 197.1903,257.19971 197.1903,363.0946 z"
       id="path23"
       style="opacity:0.69855;fill:#0041f1;fill-opacity:0.52600995;fill-rule:evenodd" />
    <path
       d="m -1712.855,394.06256 c 0,101.67961 -84.8248,184.20234 -189.3411,184.20234 -104.5163,0 -191.2749,-82.54101 -189.3412,-184.20234 2.5693,-136.36619 106.6645,-191.91063 189.3412,-348.64172 87.8154,151.59239 189.3411,246.96191 189.3411,348.64172 z"
       id="path25"
       style="opacity:0.69855;fill:url(#radialGradient2469);fill-rule:evenodd" />
    <path
       d="m -1716.1485,390.12145 c 0,100.47062 -83.8161,182.012 -187.0896,182.012 -103.2735,0 -189.0003,-81.55955 -187.0896,-182.012 2.5388,-134.74455 105.396,-189.62843 187.0896,-344.4958 56.1021,499.60922 187.0896,244.02517 187.0896,344.4958 z"
       id="path27"
       style="opacity:0.69855;fill:url(#radialGradient2471);fill-rule:evenodd" />
    <path
       d="m -1706.047,394.50758 c 0,105.89487 -88.3412,191.83854 -197.1903,191.83854 -108.8491,0 -199.2041,-85.96282 -197.1902,-191.83854 2.6758,-142.01921 111.0861,-199.86618 197.1902,-363.0946 91.4559,157.87667 197.1903,257.19971 197.1903,363.0946 z"
       id="path29"
       style="opacity:0.69855;fill:url(#radialGradient2473);fill-rule:evenodd" />
    <path
       d="m 735.71429,328.327 a 55,35 0 1 1 -110,0 55,35 0 1 1 110,0 z"
       transform="matrix(0.41702,-0.49235,0.48517,0.41724,-2440.769,431.47041)"
       id="path31"
       style="opacity:0.82318995;fill:#ffffff;fill-opacity:0.80058001;fill-rule:evenodd;filter:url(#filter3537)" />
  </g>
</svg>
