<?xml version="1.0" encoding="UTF-8" standalone="no"?>
<svg
   xmlns:dc="http://purl.org/dc/elements/1.1/"
   xmlns:cc="http://creativecommons.org/ns#"
   xmlns:rdf="http://www.w3.org/1999/02/22-rdf-syntax-ns#"
   xmlns:svg="http://www.w3.org/2000/svg"
   xmlns="http://www.w3.org/2000/svg"
   version="1.1"
   x="0px"
   y="0px"
   width="283.30869"
   height="193.65343"
   viewBox="0 0 283.30868 193.65341"
   enable-background="new 0 0 2227.3 1408.9"
   xml:space="preserve"
   id="svg2"><metadata
   id="metadata207"><rdf:RDF><cc:Work
       rdf:about=""><dc:format>image/svg+xml</dc:format><dc:type
         rdf:resource="http://purl.org/dc/dcmitype/StillImage" /><dc:title></dc:title></cc:Work></rdf:RDF></metadata><defs
   id="defs205">
	<linearGradient
   y2="330.67361"
   x2="299.69821"
   y1="182.3125"
   x1="299.69821"
   gradientUnits="userSpaceOnUse"
   id="SVGID_1_"
   gradientTransform="translate(-111.8,-359.6)">
		<stop
   id="stop7"
   style="stop-color:#26292B"
   offset="0" />
		<stop
   id="stop9"
   style="stop-color:#000007"
   offset="1" />
	</linearGradient>
	
	
	<linearGradient
   y2="832.01727"
   x2="299.3056"
   y1="372.81451"
   x1="299.30569"
   gradientUnits="userSpaceOnUse"
   id="SVGID_2_"
   gradientTransform="matrix(0.75528842,0,0,0.31898232,-84.441245,-114.70605)">
		<stop
   id="stop16"
   style="stop-color:#26292B"
   offset="0" />
		<stop
   id="stop18"
   style="stop-color:#000007"
   offset="1" />
	</linearGradient>
	
	
	
	
	<linearGradient
   y2="884.63568"
   x2="295.76071"
   y1="889.60742"
   x1="295.76071"
   gradientUnits="userSpaceOnUse"
   id="SVGID_3_"
   gradientTransform="matrix(0.74384589,0,0,1,-78.781737,-713.3892)">
		<stop
   id="stop29"
   style="stop-color:#26292B"
   offset="0" />
		<stop
   id="stop31"
   style="stop-color:#000007"
   offset="1" />
	</linearGradient>
	
	<linearGradient
   y2="899.02319"
   x2="295.76071"
   y1="903.99408"
   x1="295.76071"
   gradientUnits="userSpaceOnUse"
   id="SVGID_4_"
   gradientTransform="matrix(0.74384589,0,0,1,-78.781737,-717.3892)">
		<stop
   id="stop36"
   style="stop-color:#26292B"
   offset="0" />
		<stop
   id="stop38"
   style="stop-color:#000007"
   offset="1" />
	</linearGradient>
	
	<linearGradient
   y2="913.40802"
   x2="295.76071"
   y1="918.38177"
   x1="295.76071"
   gradientUnits="userSpaceOnUse"
   id="SVGID_5_"
   gradientTransform="matrix(0.74384589,0,0,1,-78.781737,-707.38919)">
		<stop
   id="stop43"
   style="stop-color:#26292B"
   offset="0" />
		<stop
   id="stop45"
   style="stop-color:#000007"
   offset="1" />
	</linearGradient>
	
	<linearGradient
   y2="927.79358"
   x2="295.76071"
   y1="932.76947"
   x1="295.76071"
   gradientUnits="userSpaceOnUse"
   id="SVGID_6_"
   gradientTransform="matrix(0.74384589,0,0,1,-78.781737,-707.38919)">
		<stop
   id="stop50"
   style="stop-color:#26292B"
   offset="0" />
		<stop
   id="stop52"
   style="stop-color:#000007"
   offset="1" />
	</linearGradient>
	
	<linearGradient
   y2="942.17853"
   x2="295.76071"
   y1="947.14941"
   x1="295.76071"
   gradientUnits="userSpaceOnUse"
   id="SVGID_7_"
   gradientTransform="matrix(0.74384589,0,0,1,-78.781737,-707.38919)">
		<stop
   id="stop57"
   style="stop-color:#26292B"
   offset="0" />
		<stop
   id="stop59"
   style="stop-color:#000007"
   offset="1" />
	</linearGradient>
	
	
	
	
	
	
	
	
	
	
	
	
	
	
	
	
	
	
	
	
	
	
	
	
	
	
	
</defs>
<g
   id="Capa_2"
   transform="translate(-111.8,-707.3892)">
</g>
<path
   style="fill:#4e5b68"
   id="path13"
   d="m 283.30869,192.43893 c 0,0.68315 -1.13225,1.21449 -2.49095,1.21449 l -277.6267981,0 C 1.8322463,193.65342 0.7,193.12208 0.7,192.43893 l 0,-29.41363 c 0,-0.68316 1.1322463,-1.2145 2.4909419,-1.2145 l 277.5513181,0 c 1.3587,0 2.49094,0.53134 2.49094,1.2145 l 0,29.41363 z" /><path
   style="fill:url(#SVGID_2_)"
   id="path20"
   d="m 282.70446,161.53264 c 0,0.57416 -1.13294,1.02074 -2.49246,1.02074 l -277.7195482,0 C 1.1329326,162.55338 0,162.1068 0,161.53264 L 0.60423074,1.0207324 c 0,-0.57417003 1.13293266,-1.0207400293945 2.49245176,-1.0207400293945 l 277.7195475,0 c 1.35952,0 2.49246,0.4465699993945 2.49246,1.0207400293945 L 282.70446,161.53264 Z" /><rect
   style="fill:#dbe2e3"
   id="rect24"
   height="136.42035"
   width="219.58093"
   y="11.709124"
   x="38.529663" /><path
   style="fill:#ffffff;stroke:#ffffff;stroke-width:1.02703512;stroke-miterlimit:10"
   id="path26"
   d="m 23.795167,116.53592 c 0,0.81621 -1.427212,1.51581 -3.262199,1.51581 l -9.480766,0 c -1.8349876,0 -3.2621998,-0.6996 -3.2621998,-1.51581 l 0,-68.619518 c 0,-0.8162 1.4272122,-1.51581 3.2621998,-1.51581 l 9.480766,0 c 1.834987,0 3.262199,0.69961 3.262199,1.51581 l 0,68.619518 z"
   stroke-miterlimit="10" /><rect
   style="fill:url(#SVGID_3_)"
   id="rect33"
   height="6.8000002"
   width="248.29575"
   y="168.91083"
   x="17.099995" /><rect
   style="fill:url(#SVGID_4_)"
   id="rect40"
   height="6.8000002"
   width="248.29575"
   y="179.31085"
   x="17.099995" />
<rect
   y="25.935705"
   x="56.235317"
   height="48.917667"
   width="184.02361"
   id="rect3393"
   style="fill:#ffffff;fill-opacity:1" /><rect
   y="87.665138"
   x="56.411789"
   height="48.917667"
   width="184.02361"
   id="rect3393-6"
   style="fill:#ffffff;fill-opacity:1" /></svg>