<?xml version="1.0" encoding="UTF-8" standalone="no"?>
<svg height="24" viewBox="0 -158 1024 1000" width="525" xmlns="http://www.w3.org/2000/svg">
<g transform="translate(1780.1542,5.0000001e-6)">
<path d="m-1723.3151,240.40198c29.9202-79.73892 76.139-153.60611 136.3513-213.9766 46.1798-46.29041 100.8487-84.53979 161.4106-109.51025 50.3991-20.8608 104.8404-32.17217 159.4292-32.10618 54.5888-.06599 109.03,11.24538 159.4291,32.10618 60.5619,24.97047 115.23082,63.21984 161.41054,109.51025 60.21237,60.37049 106.43114,134.23767 136.35126,213.97659 9.73883,56.59128 14.55276,114.24763 11.02648,171.64507-1.68692,27.66698-5.30504,55.22507-11.02648,82.34995-11.25191,45.31233-31.22657,88.48005-58.87026,126.12936-31.04654,42.50271-71.41484,77.79433-116.45972,104.82876-54.44782,32.71319-115.42402,53.83902-177.86182,64.83198-72.5117,12.68299-147.3651,11.99264-219.6094-2.16262-61.3109-12.08178-120.9898-34.09558-173.9895-67.43177-43.8386-27.53835-82.8793-63.12839-112.6757-105.57753-25.986-36.87829-44.8128-78.75048-55.3637-122.60252-10.9583-48.75502-17.2782-98.79455-15.4924-148.82521 1.2114-34.86316 6.4231-69.61201 15.9405-103.18546zm761.98496,101.59799h-609.58786c-.0414,43.61016 7.159,87.54256 23.8966,127.94783 15.0905,36.70744 38.161,70.13553 67.3649,97.03404 34.4165,31.87048 76.8843,54.55343 121.9428,67.23644 65.2151,18.37082 136.0196,16.64147 200.1507-5.3019 42.6625-14.58395 82.325-38.50952 114.0212-70.69197 27.771-28.03924 49.12266-62.27099 62.62002-99.32688 13.69849-37.32615 19.61521-77.22436 19.59164-116.89756z"/>
<path d="m-12009.954,291.20096 9728.0087-406.392c91.0849-.31806 183.8449,20.61973 261.2581,69.90215 75.3147,47.17706 132.9389,119.67106 167.54,201.07654 11.8874,28.10635 22.0305,57.12703 28.6711,86.91585 9.7541,83.48265 11.3283,168.31344-.278,251.69356-32.2193,95.14364-96.9738,178.74145-180.1597,234.86648-71.4097,48.27681-158.407,74.18348-244.7107,69.25556l-9760.3295-354.92114c-43.686-.47093-87.996-6.6583-128.57-23.44462-18.554-8.2637-38.439-19.48613-46.653-39.13637-5.161-14.32418-2.203-30.67662 4.383-44.04529 11.753-22.19363 36.762-32.57199 60.023-37.92252 36.306-8.11574 73.826-7.71294 110.817-7.8482zm9982.0038,50.79901h-6299.0762c-.6224,25.25597 13.3076,49.07865 33.4697,63.64825 31.5096,23.12516 70.9249,32.01208 109.1309,36.18773 24.3182,2.25848 48.7743,1.82364 73.1635,2.74819l5829.317,151.41086c59.7559.29844 121.0882-16.61425 167.7452-55.017 44.171-35.63484 72.1508-88.76528 81.5867-144.30955 3.195-18.03434 4.6636-36.35866 4.6632-54.66848z"/>
<path d="m9473.6455,291.20096-9728.01006-406.392c-91.08488-.31806-183.84486,20.61973-261.25797,69.90215-75.31468,47.17707-132.93886,119.67108-167.53996,201.07654-11.88736,28.10636-22.03051,57.12703-28.67101,86.91585-9.75392,83.48267-11.32794,168.3134.27795,251.69356 32.21934,95.14362 96.97376,178.74144 180.15968,234.86648 71.40964,48.27682 158.40694,74.18348 244.71065,69.25556l9760.33072-354.92114c43.6863-.47093 87.9959-6.65829 128.5701-23.44462 18.5537-8.2637 38.4384-19.48612 46.6527-39.13637 5.1617-14.32417 2.2033-30.67661-4.3826-44.04529-11.7529-22.19364-36.7618-32.57199-60.0231-37.92252-36.3063-8.11573-73.8256-7.71293-110.8171-7.8482zm-9982.00506,50.79901h6299.07736c.6224,25.25598-13.3076,49.07866-33.4698,63.64825-31.5096,23.1252-70.925,32.01209-109.1311,36.18773-24.3183,2.25848-48.7744,1.82364-73.1637,2.74819l-5829.31776,151.41086c-59.75584.29844-121.08811-16.61426-167.74513-55.017-44.17102-35.63484-72.15073-88.76529-81.58668-144.30955-3.19494-18.03434-4.66361-36.35866-4.66319-54.66848z"/>
</g>
</svg>
