<?xml version="1.0" encoding="UTF-8" standalone="no"?>
<svg
   xmlns:dc="http://purl.org/dc/elements/1.1/"
   xmlns:cc="http://creativecommons.org/ns#"
   xmlns:rdf="http://www.w3.org/1999/02/22-rdf-syntax-ns#"
   xmlns:svg="http://www.w3.org/2000/svg"
   xmlns="http://www.w3.org/2000/svg"
   version="1.1"
   id="svg5193"
   viewBox="0 0 100.266 100.266"
   height="28.297293mm"
   width="28.297293mm">
  <defs
     id="defs5195" />
  <metadata
     id="metadata5198">
    <rdf:RDF>
      <cc:Work
         rdf:about="">
        <dc:format>image/svg+xml</dc:format>
        <dc:type
           rdf:resource="http://purl.org/dc/dcmitype/StillImage" />
        <dc:title></dc:title>
      </cc:Work>
    </rdf:RDF>
  </metadata>
  <g
     transform="translate(-418.43843,-216.51492)"
     id="layer1">
    <g
       id="g773"
       transform="translate(95.185442,178.39492)">
      <g
         id="Layer_1_1_">
        <g
           id="g776">
          <circle
             id="circle778"
             r="50.132999"
             cy="88.252998"
             cx="373.38599"
             style="fill:#f8d489" />
        </g>
        <g
           id="g780"
           style="opacity:0.2">
          <path
             id="path782"
             d="m 404.719,88.252 c 0,-15.573 -14.027,-28.199 -31.332,-28.199 -17.305,0 -31.333,12.626 -31.333,28.199 0,14.99 13.008,27.217 29.414,28.11 1.077,5.726 1.919,9.489 1.919,9.489 0,0 7.903,-4.77 15.102,-12.895 9.674,-4.798 16.23,-14.058 16.23,-24.704 z"
             style="fill:#2b2523" />
        </g>
        <g
           id="g784">
          <path
             id="path786"
             d="m 400.019,83.239 c 0,23.443 -26.633,39.479 -26.633,39.479 0,0 -14.709,-65.8 0,-65.8 14.709,0 26.633,11.785 26.633,26.321 z"
             style="fill:#ffffff" />
        </g>
        <g
           id="g788">
          <ellipse
             id="ellipse790"
             ry="28.198999"
             rx="31.332001"
             cy="85.117996"
             cx="373.38599"
             style="fill:#ffffff" />
        </g>
        <g
           id="g792">
          <circle
             id="circle794"
             r="3.1329999"
             cy="85.119003"
             cx="373.38599"
             style="fill:#82cee6" />
        </g>
        <g
           id="g796">
          <circle
             id="circle798"
             r="3.1329999"
             cy="85.119003"
             cx="385.92099"
             style="fill:#82cee6" />
        </g>
        <g
           id="g800">
          <circle
             id="circle802"
             r="3.1329999"
             cy="85.119003"
             cx="360.85199"
             style="fill:#82cee6" />
        </g>
      </g>
      <g
         id="Layer_2" />
    </g>
  </g>
</svg>
