<?xml version="1.0" encoding="UTF-8" standalone="no"?>
<svg
   xmlns:dc="http://purl.org/dc/elements/1.1/"
   xmlns:cc="http://creativecommons.org/ns#"
   xmlns:rdf="http://www.w3.org/1999/02/22-rdf-syntax-ns#"
   xmlns:svg="http://www.w3.org/2000/svg"
   xmlns="http://www.w3.org/2000/svg"
   viewBox="0 0 0.056249998 0.056249995"
   height="60"
   width="60"
   id="svg2"
   version="1.1">
  <metadata
     id="metadata22">
    <rdf:RDF>
      <cc:Work
         rdf:about="">
        <dc:format>image/svg+xml</dc:format>
        <dc:type
           rdf:resource="http://purl.org/dc/dcmitype/StillImage" />
        <dc:title></dc:title>
      </cc:Work>
    </rdf:RDF>
  </metadata>
  <defs
     id="defs20">
    <defs
       id="defs8">
      <path
         d="m 70.4,364.6 373.6,0 0,264.2 -373.5,0 z"
         id="a" />
    </defs>
    <defs
       id="defs16">
      <path
         d="m 50,17.3 72.6,0 0,71 -72.6,0 z"
         id="c" />
    </defs>
  </defs>
  <path
     style="fill:#7986cb;fill-opacity:1"
     id="path14"
     clip-path="url(#b)"
     d="m 0.028125,0.0515625 c -0.01349544,0 -0.0234375,-0.01004191 -0.0234375,-0.0234375 0,-0.01385741 0.01039193,-0.0234375 0.0234375,-0.0234375 0.01349546,0 0.0234375,0.01004208 0.0234375,0.0234375 0,0.01385741 -0.01039192,0.0234375 -0.0234375,0.0234375 M 0,0.05625 l 0.05625,0 L 0.05625,0 0,0 Z" />
  <g
     id="g19"
     transform="translate(56.201947,-556.53142)">
    <defs
       id="defs21">
      <path
         d="m 161.6,647 225.4,0 0,172.4 -225.5,0 z"
         id="d" />
    </defs>
  </g>
  <g
     id="g24"
     transform="translate(56.201947,-556.53142)">
    <defs
       id="defs26">
      <path
         d="m 352.4,660 148.4,0 0,153.2 -148.4,0 z"
         id="e" />
    </defs>
  </g>
</svg>
