<?xml version="1.0" encoding="UTF-8" standalone="no"?>
<svg
   xmlns:dc="http://purl.org/dc/elements/1.1/"
   xmlns:cc="http://creativecommons.org/ns#"
   xmlns:rdf="http://www.w3.org/1999/02/22-rdf-syntax-ns#"
   xmlns:svg="http://www.w3.org/2000/svg"
   xmlns="http://www.w3.org/2000/svg"
   xmlns:sodipodi="http://sodipodi.sourceforge.net/DTD/sodipodi-0.dtd"
   xmlns:inkscape="http://www.inkscape.org/namespaces/inkscape"
   version="1.1"
   id="svg3398"
   viewBox="0 0 118.7848 118.59765"
   height="33.470894mm"
   width="33.523708mm"
   inkscape:version="0.91 r13725"
   sodipodi:docname="carga.svg">
  <sodipodi:namedview
     pagecolor="#ffffff"
     bordercolor="#666666"
     borderopacity="1"
     objecttolerance="10"
     gridtolerance="10"
     guidetolerance="10"
     inkscape:pageopacity="0"
     inkscape:pageshadow="2"
     inkscape:window-width="961"
     inkscape:window-height="760"
     id="namedview30"
     showgrid="false"
     inkscape:zoom="1.9899213"
     inkscape:cx="23.421882"
     inkscape:cy="77.641262"
     inkscape:window-x="567"
     inkscape:window-y="223"
     inkscape:window-maximized="0"
     inkscape:current-layer="g3356" />
  <defs
     id="defs3400" />
  <metadata
     id="metadata3403">
    <rdf:RDF>
      <cc:Work
         rdf:about="">
        <dc:format>image/svg+xml</dc:format>
        <dc:type
           rdf:resource="http://purl.org/dc/dcmitype/StillImage" />
        <dc:title></dc:title>
      </cc:Work>
    </rdf:RDF>
  </metadata>
  <path
     inkscape:connector-curvature="0"
     style="fill:#000000"
     d=""
     id="path3438" />
  <g
     id="g3356"
     style="fill:#7986cb;fill-opacity:1"
     transform="translate(-17.752557,-15.920517)">
    <g
       id="g4182">
      <path
         style="color:#000000;font-style:normal;font-variant:normal;font-weight:normal;font-stretch:normal;font-size:medium;line-height:normal;font-family:sans-serif;text-indent:0;text-align:start;text-decoration:none;text-decoration-line:none;text-decoration-style:solid;text-decoration-color:#000000;letter-spacing:normal;word-spacing:normal;text-transform:none;direction:ltr;block-progression:tb;writing-mode:lr-tb;baseline-shift:baseline;text-anchor:start;white-space:normal;clip-rule:nonzero;display:inline;overflow:visible;visibility:visible;opacity:1;isolation:auto;mix-blend-mode:normal;color-interpolation:sRGB;color-interpolation-filters:linearRGB;solid-color:#000000;solid-opacity:1;fill:#7986cb;fill-opacity:1;fill-rule:nonzero;stroke:none;stroke-width:1;stroke-linecap:butt;stroke-linejoin:miter;stroke-miterlimit:4;stroke-dasharray:none;stroke-dashoffset:0;stroke-opacity:1;color-rendering:auto;image-rendering:auto;shape-rendering:auto;text-rendering:auto;enable-background:accumulate"
         d="m 77.138957,15.920513 -2.0195,0.12696 -2.0254,0 -1.916,0.2539 -2.0079,0.25196 -1.9023,0.25195 -1.9004,0.38086 -1.8984,0.37891 -1.9024,0.50586 -1.7578,0.50195 -1.9004,0.5039 -1.791,0.64063 -1.7793,0.75977 -1.6308,0.75195 -1.7735,0.75976 -1.6523,0.88672 -1.6446,0.88477 -1.6523,1.01562 -1.5,0.99805 -0.8789,0.50195 -0.7813,0.51953 -1.5253,1.14258 -1.3809,1.12696 -1.5176,1.13671 -1.4082,1.2793 -1.2637,1.25977 -1.3906,1.38867 -1.2637,1.38867 -1.2636,1.38867 -1.1446,1.39649 -1.1367,1.51367 -1.1386,1.51562 -1.0118,1.51563 -1.0058,1.50391 0.1953,-0.10352 0.2207,0.88281 0.2676,0 0.08,-0.12109 1.5293,-0.82227 1.4922,-0.86914 1.6035,-0.73828 1.4922,-0.62109 1.625,-0.625 1.6055,-0.61328 1.4727,-0.36914 1.6328,-0.375 1.4707,-0.36719 1.4687,-0.12305 1.3614,-0.12305 1.3574,0 1.332,0 0.5879,0.11719 0.748,0.125 1.0684,0.23633 1.0859,0.48047 1.0957,0.48828 0.9278,0.57812 0.3613,0.36133 0.4863,0.36328 0.7071,0.82422 0.7168,0.95508 0.2207,0.44141 0.2441,0.60742 0.4824,1.20703 0.2442,1.32617 0.123,0.74805 0.1192,0.71094 0,0.71093 0,0.86133 -0.1231,1.72266 -0.25,1.99414 -0.1211,0.97266 -0.2441,0.98046 -0.5,2.24024 -0.7422,2.34765 -1,2.61915 0.8359,0.51757 2.7598,-3.00781 1.8809,-2.00391 2.0097,-2.1289 2.25,-2.3711 2.3711,-2.24414 2.5059,-2.25195 2.4941,-2.24023 1.3594,-0.98828 1.3906,-1.00782 1.2305,-0.98437 1.3672,-0.74414 1.2402,-0.86719 1.3477,-0.61133 1.246,-0.62109 1.2149,-0.48633 1.2129,-0.36328 0.6035,-0.1211 0.6074,-0.11914 1.0801,-0.12109 0.5391,0 0.5039,0.125 0.6269,0 0.4434,0.11133 0.4687,0.11719 0.5762,0.23046 0.9316,0.46485 0.8184,0.69922 0.4629,0.46289 0.3398,0.45312 0.3438,0.57032 0.2305,0.57421 0.2304,0.69727 0.1211,0.83203 0.1211,0.8418 0,0.84375 0,0.9707 -0.123,0.9707 -0.127,1.00782 -0.123,1.12109 -0.3731,2.34766 -0.6211,2.48632 0.8555,0.45508 2.2519,-2.49609 1.1211,-1.11914 1.1192,-1.11914 1.1426,-1.01172 0.9941,-1.11719 1.0937,-0.85156 0.6543,-0.51953 0.5,-0.5 1.089903,-0.84571 1.1133,-0.74218 2.123,-1.3711 2.0879,-1.22461 0.9551,-0.35937 1.1308,-0.37695 0.9571,-0.35743 0.9511,-0.11914 0.8477,-0.12109 0.9375,0 0.9707,0.12109 0.8399,0.11914 0.789,0.22657 0.8125,0.46289 0.3867,0.25781 0.4785,0.23828 0.6915,0.57617 0.3613,0.35938 0.3613,0.36328 0.7305,0.85156 0.7246,0.96094 0.6152,1.10547 0.7422,1.23828 0.5938,1.30469 0.2441,1.09179 0.5,1.7461 0.373,1.98828 0.502,2.38086 2.0078,11.64844 1.0039,5.89453 0.5039,2.76562 0.5078,2.5332 0.6348,2.15039 0.5078,1.77735 0.2598,0.65234 0.2715,0.67578 0.3066,0.45899 0.5254,0.52343 1.2031,-0.51367 0.7676,-0.38281 0.7813,-0.39063 0.7968,-0.52929 0.6465,-0.51563 0.6484,-0.51758 0.5215,-0.52148 0.5469,-0.54492 0.4063,-0.67969 0.3964,-0.6582 0.6485,-1.55664 0.2695,-0.80664 0.1289,-0.76172 0.252,-0.88477 0.1347,-0.94531 0,-1.79101 0,-1.52539 -0.1269,-1.5254 -0.125,-1.5039 -0.125,-1.50586 -0.1289,-1.40039 -0.25,-1.50195 -0.1289,-1.5293 -0.3809,-1.40039 -0.2519,-1.50391 -0.3829,-1.4043 -0.3769,-1.3789 -0.3828,-1.39844 -0.5098,-1.39844 -0.5019,-1.38281 -1.0098,-2.64648 -1.1445,-2.66407 -1.3887,-2.52148 -0.6309,-1.26172 -0.7656,-1.27539 -1.5195,-2.40039 -1.6465,-2.27539 -1.7734,-2.27539 -1.9043,-2.15625 -2.0196,-2.01758 -2.0215,-2.01562 -2.164,-1.90625 -2.2735,-1.64063 -2.2714,-1.76367 -2.4278,-1.53125 -1.2597,-0.62891 -1.2579,-0.75195 -2.5273,-1.26367 -1.2656,-0.63086 -1.4024,-0.63672 -2.656203,-1.00977 -2.7852,-1.01172 -2.7832,-0.75781 -1.4062,-0.38281 -1.5293,-0.25391 -2.8848,-0.5 -1.4023,-0.25586 -1.5313,-0.12695 -3.0234,-0.25195 -3.0508,-0.12696 z m 0.012,1.00196 2.9766,0.12304 3.0039,0.25 1.4824,0.12305 1.3594,0.24805 2.8925,0.50195 1.4825,0.2461 1.3574,0.36914 2.7422,0.74804 2.7402,0.99414 2.6191,0.9961 1.357503,0.61523 1.248,0.62305 2.4942,1.24609 1.2558,0.75196 1.25,0.625 2.3457,1.47851 2.2461,1.74414 2.2481,1.6211 2.1054,1.85351 1.9981,1.99609 1.998,1.99415 1.8633,2.10937 1.7422,2.23633 1.6172,2.23828 1.498,2.36328 0.7403,1.23242 0.623,1.24414 1.3731,2.4961 1.1191,2.59961 0.998,2.62109 0.5,1.375 0.4961,1.35938 0.3711,1.35937 0.377,1.37891 0.3711,1.35547 0.25,1.5039 0.3711,1.35938 0.123,1.47851 0.252,1.50781 0.125,1.35743 0.125,1.50195 0.125,1.50586 0.123,1.48242 0,1.48438 0,1.7207 -0.1152,0.80664 -0.25,0.87304 -0.1231,0.74024 -0.2324,0.69726 -0.6074,1.45508 -0.3574,0.59571 -0.3457,0.57421 -0.459,0.45704 -0.4824,0.48242 -0.6055,0.48437 -0.6113,0.48828 -0.709,0.47266 -0.7266,0.36133 -0.7402,0.36914 -0.5488,0.23633 -0.1778,-0.26758 -0.2324,-0.57813 -0.2402,-0.60156 -0.4961,-1.73437 -0.6231,-2.11133 -0.4961,-2.48047 -0.5,-2.75195 -1.0058,-5.89063 -2.0098,-11.66797 -0.5039,-2.38671 -0.3789,-2.02344 -0.5059,-1.76172 -0.2597,-1.16406 -0.6602,-1.45313 -0.7637,-1.27148 -0.6406,-1.15039 -0.7832,-1.04297 -0.7773,-0.90625 -0.3907,-0.38867 -0.3925,-0.39258 -0.8145,-0.67774 -0.5273,-0.26367 -0.3653,-0.24219 -0.9453,-0.54101 -0.9707,-0.27734 -0.916,-0.12891 -1.041,-0.13086 -1.0723,0 -0.9082,0.13086 -1.0586,0.13086 -1.0508,0.39453 -1.1308,0.37695 -1.0528,0.39453 -2.1816,1.2793 -2.1465,1.38672 -1.148403,0.76562 -1.1699,0.90625 -0.5039,0.50391 -0.6036,0.48242 -1.164,0.9043 -1.0156,1.14062 -1.1192,0.99219 -1.1406,1.14063 -1.1387,1.13672 -0.9258,1.02539 0.1465,-0.58008 0.3809,-2.41602 0.1269,-1.13672 0.125,-1 0.1309,-1.0332 0,-1.0332 0,-0.91406 -0.1309,-0.91407 -0.1328,-0.92187 -0.2695,-0.8086 -0.2715,-0.67773 -0.4121,-0.68359 -0.4141,-0.55079 -0.541,-0.53906 -0.9394,-0.80469 -1.0782,-0.53906 -0.6777,-0.27148 -0.5371,-0.13281 -0.5606,-0.14063 -0.6269,0 -0.5039,-0.125 -0.7168,0 -1.1797,0.13086 -0.6484,0.12891 -0.6504,0.13086 -1.2989,0.38867 -1.2968,0.51758 -1.2657,0.63281 -1.414,0.64258 -1.2715,0.88671 -1.3965,0.75977 -1.2812,1.02344 -1.3711,0.99609 -1.4024,1.01758 -2.5312,2.27539 -2.5156,2.26172 -2.4004,2.26953 -2.2696,2.39258 -2.0117,2.13281 -1.8848,2.00781 -0.998,1.08789 0.078,-0.20703 0.7657,-2.41601 0.5058,-2.27344 0.2559,-1.02539 0.1289,-1.0332 0.2539,-2.01954 0.1269,-1.78515 0,-0.89649 0,-0.79296 -0.1328,-0.79297 -0.125,-0.75586 -0.2617,-1.43164 -0.5215,-1.30078 -0.2578,-0.64649 -0.2812,-0.56055 -0.7911,-1.05078 -0.7988,-0.93359 -0.5176,-0.38672 -0.3925,-0.39062 -1.0821,-0.67579 -1.1621,-0.51757 -1.1758,-0.52149 -1.1914,-0.26367 -0.7597,-0.125 -0.668,-0.13477 -1.4316,0 -1.4043,0 -1.4004,0.12696 -1.545,0.1289 -1.5429,0.38477 -1.6328,0.375 -1.5391,0.38672 -1.6641,0.63476 -1.6386,0.63086 -1.5215,0.63282 -1.6641,0.76562 -1.3691,0.80078 0.8808,-1.32031 1.1211,-1.49414 1.125,-1.4961 1.1153,-1.35937 1.2461,-1.36914 1.248,-1.37109 1.3711,-1.3711 1.2481,-1.24414 1.3554,-1.23047 1.4981,-1.12109 1.3808,-1.12891 1.4864,-1.11328 0.7285,-0.48437 0.8789,-0.50196 1.5136,-1.00586 1.6114,-0.99218 1.6211,-0.8711 1.6133,-0.86523 1.7441,-0.74805 1.6309,-0.75195 1.7382,-0.74219 1.7227,-0.61523 1.8691,-0.49805 1.7578,-0.50195 1.8633,-0.49414 1.8672,-0.37305 1.8692,-0.375 1.8652,-0.24805 2.0098,-0.25 1.8535,-0.24609 1.9902,0 2,-0.125 z m -33.3242,29.71289 -0.8321,0.13867 -0.7675,0.25586 -1.6328,0.375 -1.9219,0.64062 -2.1621,0.88868 -2.166,1.01953 -2.1504,1.25976 -2.2852,1.26758 -1.0215,0.76563 -1.1445,0.76367 -1.0156,0.88476 -1.0039,0.75391 -1.045,0.91016 -0.8886,1.01562 -0.8809,0.87891 -0.9023,1.02929 -0.7637,1.01758 -0.7656,1.02149 -0.6524,1.04101 -0.5176,1.03321 -0.5253,1.17968 -0.1387,0.55274 -0.1309,0.64648 -0.3789,2.2793 -0.2539,2.28516 -0.1269,2.41015 0,1.76953 0,0 0,2.00391 0,1.52539 0.1269,1.52344 0.127,1.52539 0.2519,1.50586 0.125,1.50781 0.2559,1.39844 0.2539,1.52539 0.3828,1.39843 0.377,1.50391 0.3769,1.38672 0.3828,1.39844 0.502,1.3789 0.3808,1.39258 1.1426,2.66406 1.1367,2.646487 1.2715,2.53906 0.7637,1.26953 0.7558,1.25781 1.5176,2.40039 1.6465,2.27735 1.7734,2.27539 1.8985,2.14844 1.9004,2.02343 2.1582,2.02735 2.1465,1.76562 2.1523,1.76953 2.4121,1.64844 2.3867,1.50586 1.1367,0.75391 1.2872,0.77148 2.6543,1.26172 1.2519,0.625 1.2793,0.64063 2.7969,1.01367 2.6504,0.88281 2.9218,0.88672 1.3868,0.2539 1.3847,0.375 2.9121,0.50586 1.5293,0.25391 1.5274,0.12891 3.0351,0.25195 3.0332,0 2.4004,0 2.4121,-0.12695 2.4121,-0.25391 2.2754,-0.37891 2.2735,-0.37695 2.2871,-0.50781 2.2598,-0.62696 1.1425,-0.2539 1.1582,-0.38477 2.1524,-0.75976 2.150403,-0.88281 2.0254,-0.88672 2.0214,-1.00782 2.0196,-1.00781 2.0371,-1.14453 1.9062,-1.26758 1.7676,-1.26172 1.9004,-1.39062 1.6465,-1.39063 0.8789,-0.7539 0.8867,-0.75782 1.6543,-1.52539 1.5195,-1.64453 1.5137,-1.63476 1.5195,-1.77149 1.3946,-1.77148 1.2676,-1.77149 1.2695,-1.90429 1.1367,-2.01563 1.1367,-1.89062 0.5117,-1.01953 0.5059,-1.00977 1.0078,-2.142577 0.8906,-2.02734 1.0782,-3.05078 -2.2813,0.62109 -1.3164,0.24024 -0.625,0 -0.7324,0.12109 -1.416,-0.11719 -0.5996,-0.11914 -0.584,-0.11719 -0.584,-0.23242 -0.6094,-0.24414 -0.4433,-0.2207 -0.4668,-0.34961 -0.9766,-0.73047 -0.9531,-0.95313 -0.3399,-0.45312 -0.3633,-0.60352 -0.7324,-1.2207 -0.2461,-0.60937 -0.3808,-0.76172 -0.6114,-1.3418 -0.4941,-1.60352 -0.2383,-0.71679 -0.123,-0.86524 -0.5059,-1.76172 -0.6211,-3.60156 -0.2519,-1.88672 -0.375,-1.87695 -0.8789,-7.50586 -0.502,-3.64258 -0.5059,-3.41211 -0.3828,-1.52929 -0.3808,-1.51563 -0.3809,-1.26367 -0.3847,-1.28516 -0.5293,-1.18945 -0.6641,-1.06055 -0.6797,-0.81445 -0.9277,-0.77148 -0.8789,0 -0.9766,0.27734 -0.9219,0.39453 -0.5429,0.27149 -0.4024,0.26953 -1.1562,0.76953 -1.0215,0.89258 -1.2695,1.01367 -1.1485,1.14648 -1.2558,1.25391 -1.263703,1.26172 -2.7793,3.02734 -2.7754,3.40039 -2.7676,3.51563 -2.8926,3.76758 -2.7695,3.76953 -2.7656,3.89257 -2.5176,3.64258 -2.3887,3.64258 -2.1328,3.25586 -2.0156,3.01758 -1.5215,2.53515 -0.098,0.19336 -0.1269,0.12696 -0.25,0.50195 -0.3047,0.30078 -0.7149,0.5957 -0.2988,0.19922 -0.3477,0.11524 -0.4277,0.21484 -0.3008,0 -0.7168,0.11914 -0.8379,-0.11914 -0.2617,0 -0.3066,-0.20508 -0.4414,-0.14648 -0.3125,-0.10352 -0.2793,-0.18554 -0.1817,-0.18164 -0.2793,-0.41797 -0.3476,-0.23243 -0.3027,-0.60156 -0.1153,-0.3418 -0.1094,-0.33398 -0.1132,-0.79687 0,-0.3418 0,-0.41992 0.1054,-0.31836 0.1153,-0.46485 0.4707,-0.9375 1.8808,-3.1289 1.0098,-1.89258 1.1308,-2.13086 1.2637,-2.39648 1.1348,-2.52149 2.3887,-5.27148 2.2656,-5.40039 1.1308,-2.76563 1.0098,-2.64062 1.0117,-2.77735 0.7559,-2.51953 0.7519,-2.50195 0.3829,-1.14453 0.2558,-1.15039 0.5078,-2.15235 0.3711,-2.79101 -1.9844,0.88086 -1.1757,0.7832 -1.3887,1.00781 -1.3945,1.01172 -1.5196,1.26563 -1.5176,1.26172 -3.2773,3.02148 -3.5273,3.39453 -3.5235,3.64453 -1.7558,1.87696 -1.8907,1.88671 -3.5214,4.01954 -3.6426,3.88867 -3.3965,4.02148 -6.2773,7.27344 -8.5274,10.26562 -0.3594,0.35938 -0.3769,0.375 -0.3418,0.3418 -0.2969,0.19726 -0.7812,0.33398 -0.6895,0.11524 -0.7969,0.11328 -0.6386,-0.10547 -0.6641,-0.22265 -0.5527,-0.33008 -0.5567,-0.44532 -0.4551,-0.5664 -0.2011,-0.30274 -0.1035,-0.31054 -0.127,-0.37891 -0.1113,-0.33203 -0.1133,-0.79688 0,-0.27929 0.1055,-0.42383 0.1269,-0.375 0.1152,-0.4668 0.4668,-0.93359 1.6231,-2.61719 3.1445,-5.27539 3.9004,-6.9082 2.0117,-3.89258 2.1387,-4.01758 1.8926,-3.90234 0.8808,-2.00977 0.8848,-1.89257 1.3887,-3.65821 0.6328,-1.76953 0.5098,-1.6582 0.3828,-1.6582 0.2597,-1.41407 0.1289,-1.42383 0,-1.21093 -0.125,-0.50196 0,-0.55859 -0.289,-0.57617 -0.1348,-0.40625 -0.3164,-0.4707 -0.25,-0.25196 -0.3223,-0.47851 -0.5371,-0.17774 -0.3769,-0.12695 -0.4531,-0.15039 -0.709,0 -0.545,0 z m 0.084,1 0.4609,0 0.5469,0 0.2988,0.0996 0.377,0.125 0.2148,0.0723 0.1836,0.27344 0.25,0.25195 0.1875,0.2793 0.1152,0.3457 0.2149,0.42773 0,0.44532 0.125,0.50195 0,1.04297 -0.1211,1.33398 -0.2461,1.34571 -0.3711,1.60156 -0.4922,1.60156 -0.623,1.74023 -1.3711,3.61329 -0.875,1.87109 -0.877,2.00195 -1.8769,3.86914 -2.1309,4.00586 -2.0059,3.88087 -3.8867,6.88281 -3.1328,5.25781 -1.6426,2.64844 -0.5371,1.07226 -0.1328,0.53516 -0.127,0.375 -0.1445,0.58203 0,0.47266 0.1367,0.95703 0.1407,0.41797 0.125,0.37695 0.1464,0.44141 0.3008,0.44922 0.5508,0.6875 0.6973,0.556637 0.7031,0.42187 0.8418,0.2793 0.8691,0.14453 0.961,-0.13672 0.8183,-0.13476 0.9766,-0.41797 0.457,-0.304687 0.4121,-0.41016 0.375,-0.37695 0.3946,-0.39258 8.5488,-10.29297 6.2773,-7.26953 3.3809,-4.00781 3.6387,-3.88282 3.5097,-4.0039 1.8789,-1.87696 1.7618,-1.88281 3.5058,-3.62695 3.5078,-3.375 3.25,-2.9961 1.4961,-1.24609 1.4961,-1.24414 1.3672,-0.99219 1.3731,-0.99609 1.0859,-0.72461 0.2754,-0.12109 -0.1289,0.9707 -0.4981,2.11133 -0.2461,1.10547 -0.373,1.11132 -0.7539,2.51368 -0.75,2.49414 -0.9981,2.74218 -1.0019,2.62305 -1.125,2.75 -2.2578,5.38281 -2.3828,5.25977 -1.125,2.49414 -1.2481,2.36719 -1.1289,2.13086 -0.998,1.86914 -1.8868,3.13867 -0.5371,1.07031 -0.1328,0.53516 -0.1445,0.43555 0,0.58203 0,0.41211 0.1348,0.95703 0.1406,0.41992 0.1367,0.41016 0.4531,0.90234 0.4024,0.26953 0.2246,0.33399 0.3203,0.32031 0.4726,0.31641 0.4414,0.14453 0.3145,0.10547 0.4453,0.29687 0.4942,0 0.9199,0.13086 0.789,-0.13086 0.4512,0 0.5762,-0.28711 0.4062,-0.13476 0.4551,-0.30469 0.793,-0.6582 0.4492,-0.44922 0.25,-0.5 0.127,-0.12696 0.1543,-0.30468 1.4882,-2.48243 2.0059,-3 2.1348,-3.26171 2.3828,-3.63086 2.5058,-3.62696 2.7578,-3.88086 2.7579,-3.75391 2.8828,-3.75586 2.7597,-3.5039 2.75,-3.36914 2.744203,-2.99024 1.25,-1.24609 1.2558,-1.25391 1.1094,-1.10937 1.2422,-0.99219 0.9883,-0.86328 1.1035,-0.73438 0.3516,-0.23437 0.4609,-0.23047 0.8359,-0.35742 0.7813,-0.22266 0.3769,0 0.5801,0.48242 0.5762,0.69141 0.5918,0.94336 0.4746,1.06836 0.3672,1.22266 0.373,1.24218 0.375,1.49414 0.3711,1.48047 0.4981,3.35742 0.5,3.62891 0.8808,7.53711 0.3789,1.88281 0.25,1.87501 0.6348,3.67187 0.5,1.74805 0.125,0.88867 0.2656,0.78906 0.5098,1.65625 0.6445,1.41602 0.3711,0.74219 0.2598,0.64453 0.7734,1.28906 0.3906,0.64648 0.4121,0.55078 1.0547,1.05469 1.0332,0.77344 0.5391,0.40234 0.5605,0.28125 0.6485,0.25782 0.6699,0.26757 0.6719,0.13477 0.6562,0.13086 1.5977,0.13281 0.7734,-0.1289 0.6328,0 1.4473,-0.26368 0.4805,-0.13086 -0.4297,1.21485 -0.8692,1.98242 -0.998,2.121087 -0.5,0.9961 -0.4941,0.98632 -1.1231,1.86915 -1.125,1.99609 -1.2402,1.85937 -1.2442,1.73829 -1.3672,1.73828 -1.4941,1.74023 -1.5019,1.62305 -1.4922,1.61523 -1.6114,1.48438 -0.8711,0.74609 -0.8789,0.75195 -1.6171,1.36524 -1.8672,1.36719 -1.75,1.24804 -1.8614,1.23828 -1.9824,1.11329 -1.998,0.99804 -1.9981,0.99805 -1.990203,0.86914 -2.1192,0.87109 -2.1191,0.7461 -1.1016,0.36719 -1.1171,0.24804 -2.2598,0.62696 -2.2344,0.49609 -2.248,0.37305 -2.2461,0.37304 -2.3574,0.24805 -2.3594,0.125 -2.3731,0 -2.9922,0 -2.9941,-0.24805 -1.4844,-0.125 -1.4863,-0.24804 -2.8633,-0.4961 -1.3789,-0.375 -1.375,-0.25 -2.8535,-0.86719 -2.625,-0.87304 -2.7285,-0.99219 -1.2305,-0.61328 -1.2598,-0.62891 -2.6191,-1.24609 -1.2266,-0.73438 -1.125,-0.74804 -2.3828,-1.50196 -2.3593,-1.61328 -2.1192,-1.74218 -2.1211,-1.74415 -2.1113,-1.98437 -1.8672,-1.98828 -1.8691,-2.11328 -1.7442,-2.23828 -1.6172,-2.23633 -1.4961,-2.36524 -0.75,-1.24804 -0.7421,-1.23633 -1.2403,-2.47656 -1.125,-2.621097 -1.1152,-2.59961 -0.375,-1.36523 -0.502,-1.37891 -0.3711,-1.35937 -0.375,-1.375 -0.3769,-1.50391 -0.3711,-1.35937 -0.2481,-1.48438 -0.248,-1.35937 -0.125,-1.5 -0.252,-1.50391 -0.123,-1.48438 -0.1231,-1.48242 0,-1.48438 0,-1.0039 0,0 0,-0.5 0,-2.24414 0.1231,-2.35352 0.248,-2.22851 0.3731,-2.23633 0.123,-0.60742 0.1114,-0.44727 0.4804,-1.07812 0.4864,-0.97071 0.6035,-0.96484 0.7422,-0.98633 0.7402,-0.98828 0.8555,-0.97656 0.8789,-0.87696 0.8691,-0.99023 0.9649,-0.84375 1.0058,-0.75195 0.9942,-0.86914 1.1132,-0.74219 0.9883,-0.74024 2.2363,-1.24023 2.1211,-1.24414 2.1016,-0.98828 2.1074,-0.86719 1.8457,-0.61328 1.6328,-0.37695 0.7364,-0.2461 0.6758,-0.11133 z"
         id="path17"
         inkscape:connector-curvature="0" />
      <path
         style="fill:#7986cb;fill-opacity:1;stroke:none;stroke-width:1px;stroke-linecap:butt;stroke-linejoin:miter;stroke-opacity:1"
         d="m 127.71243,82.965528 c -0.4357,-1.498784 -1.69578,-7.961447 -2.80016,-14.361481 -2.81343,-16.304143 -3.30881,-18.243506 -5.543,-21.700228 -2.48104,-3.838646 -4.58278,-5.154869 -8.2313,-5.154869 -5.10093,0 -9.80533,2.489686 -16.222496,8.58537 l -3.767748,3.578993 0.237426,-2.16784 c 0.130582,-1.192313 0.326618,-2.605253 0.435628,-3.139868 0.109016,-0.534615 -0.03041,-2.037974 -0.309803,-3.340799 -0.937326,-4.370605 -4.945404,-6.623557 -9.834351,-5.527921 -5.288258,1.185124 -10.849528,5.060573 -19.862399,13.841392 -4.474791,4.35958 -6.166239,5.740486 -5.926217,4.83819 0.18474,-0.69448 0.564272,-3.006626 0.843403,-5.138103 0.930592,-7.106107 -1.005709,-11.659659 -5.913439,-13.906492 -2.477964,-1.134449 -3.27896,-1.252123 -7.160527,-1.051949 -3.14865,0.162377 -5.635963,0.666715 -8.897223,1.804038 -2.489721,0.868258 -4.599814,1.505603 -4.689096,1.416321 -0.342319,-0.342319 3.918609,-5.248174 7.496192,-8.630804 15.766342,-14.907187 39.304591,-19.648327 59.80344,-12.045775 13.02791,4.831752 25.31712,15.691482 31.51255,27.84701 3.73845,7.334896 6.13861,16.949584 6.26849,25.11058 0.0692,4.350394 -0.0761,5.346036 -1.04788,7.180144 -0.97148,1.833463 -4.16707,4.689149 -5.2473,4.689149 -0.19359,0 -0.70848,-1.226275 -1.14419,-2.725058 z"
         id="path3412"
         inkscape:connector-curvature="0" />
      <path
         style="fill:#7986cb;fill-opacity:1;stroke:none;stroke-width:1px;stroke-linecap:butt;stroke-linejoin:miter;stroke-opacity:1"
         d="M 66.64423,132.41772 C 45.755849,128.07715 28.669242,113.40784 22.155927,94.223314 18.507355,83.476697 17.883592,69.285212 20.807871,63.553151 23.919223,57.454399 34.406874,50.0411 42.479134,48.234607 c 2.508013,-0.561269 2.803534,-0.532492 3.437677,0.33475 1.089291,1.489694 0.822724,4.511436 -0.839825,9.520071 -1.744724,5.256201 -8.289706,18.491209 -13.399565,27.096081 -5.68898,9.580097 -5.972643,10.244969 -5.274042,12.36175 0.737789,2.23552 2.576778,3.508791 4.969793,3.440961 2.138352,-0.0606 3.315384,-1.222664 13.469412,-13.297949 13.873763,-16.49884 27.370903,-30.567554 33.661204,-35.086687 3.112851,-2.236359 3.141221,-1.871565 0.483817,6.221127 -3.194213,9.72746 -9.283726,23.478807 -13.491922,30.467478 -2.818851,4.681346 -2.14858,8.439039 1.694576,9.500186 3.347284,0.924229 4.695934,-0.23981 10.205649,-8.808641 C 89.32084,71.43782 103.24621,54.419866 108.16365,52.382993 c 1.49419,-0.618914 1.74839,-0.590082 2.63765,0.299172 1.44608,1.446082 2.78494,6.926667 3.99194,16.340904 2.12027,16.537476 4.06351,22.392995 8.4463,25.451067 1.78487,1.245385 2.62412,1.486334 5.17703,1.486334 1.67576,0 3.04684,0.08514 3.04684,0.189208 0,0.724079 -4.32399,8.771832 -6.35422,11.826372 -3.00033,4.51412 -9.82935,11.46874 -14.50345,14.77022 -4.78404,3.37913 -12.811948,7.09006 -18.790819,8.68612 -4.282324,1.14316 -6.318686,1.37526 -13.384521,1.52552 -5.863329,0.12468 -9.357179,-0.0355 -11.78617,-0.54019 z"
         id="path3414"
         inkscape:connector-curvature="0" />
      <path
         style="fill:#7986cb;fill-opacity:1;stroke:none;stroke-width:1px;stroke-linecap:butt;stroke-linejoin:miter;stroke-opacity:1"
         d="m 75.399943,132.54042 c -11.222299,-0.42705 -12.121831,-0.50062 -12.121831,-0.99128 0,-0.3186 -3.008685,-1.12409 -4.293148,-1.14936 -0.277792,-0.005 -0.618719,-0.15284 -0.757615,-0.32749 -0.138896,-0.17465 -1.843528,-0.99358 -3.788072,-1.81983 -14.528621,-6.17336 -27.558966,-19.91803 -31.8507,-33.59677 -0.501158,-1.597304 -1.110386,-2.904189 -1.353842,-2.904189 -0.243455,0 -0.321151,-0.196583 -0.172657,-0.436852 0.323771,-0.523872 -0.795036,-6.12914 -1.223371,-6.12914 -0.164665,0 -0.206522,-0.795495 -0.09302,-1.767766 0.113508,-0.972272 0.01105,-1.767731 -0.227688,-1.767686 -0.469029,8.8e-5 -0.43141,-12.545464 0.03903,-13.015904 0.156486,-0.156485 0.28452,-0.770223 0.28452,-1.363862 0,-2.202346 2.623692,-6.32486 6.030193,-9.475024 5.497016,-5.083371 14.646211,-9.74696 18.404437,-9.381232 1.549886,0.150826 1.581108,0.207322 1.829336,3.310244 0.138896,1.736239 0.126812,3.156766 -0.02685,3.156726 -0.153665,-4e-5 -0.773908,1.534097 -1.378319,3.409193 -1.453401,4.508967 -7.938156,17.604875 -13.693015,27.652926 -4.901648,8.558336 -5.445596,9.825347 -4.824148,11.236818 0.214311,0.486757 0.409286,1.003989 0.433277,1.149405 0.08134,0.492974 2.316465,2.706803 2.316465,2.294383 0,-0.22529 0.331617,-0.1344 0.736927,0.20198 1.975729,1.6397 5.233769,-1.014374 13.92919,-11.347052 8.597261,-10.216036 15.026712,-17.356782 22.439685,-24.9222 6.830485,-6.970954 13.214715,-12.705983 14.144288,-12.705983 0.401349,0 0.156341,3.663142 -0.270251,4.040611 -0.377292,0.333841 -3.616513,9.633382 -3.694497,10.606601 -0.03338,0.416688 -0.357887,1.071026 -0.721102,1.454084 -0.363216,0.383058 -0.540811,1.00809 -0.394662,1.38896 0.146154,0.380869 0.08207,0.69249 -0.142416,0.69249 -0.582596,0 -1.649675,2.509835 -1.304521,3.068306 0.158821,0.256976 0.09016,0.467228 -0.152574,0.467228 -0.590272,0 -2.231543,3.489797 -1.896344,4.032159 0.14523,0.234988 0.07868,0.503484 -0.147886,0.596658 -0.569191,0.234078 -6.707142,12.036845 -6.264665,12.046434 0.196272,0.0042 0.04398,0.205916 -0.338437,0.448138 -0.446121,0.282576 -0.717628,1.48996 -0.757614,3.369085 -0.05942,2.792595 0.01743,2.982993 1.65387,4.097548 0.943905,0.642877 2.21879,1.168868 2.833078,1.168868 1.273878,0 5.956794,-3.891133 5.524575,-4.590481 -0.156458,-0.253155 -0.07916,-0.460282 0.171771,-0.460282 0.250937,0 2.456944,-3.011517 4.902235,-6.69226 11.956509,-17.997362 25.425605,-34.049537 29.409315,-35.049386 2.31343,-0.580635 3.54012,1.759237 4.80438,9.164227 0.33199,1.944543 0.72567,3.649176 0.87485,3.788072 0.14918,0.138896 0.31504,1.048033 0.36859,2.020305 0.10642,1.932549 0.41498,4.459446 0.8326,6.81853 0.14753,0.833375 0.37173,2.197081 0.49821,3.030457 0.72188,4.756265 1.00072,6.141078 1.38263,6.866663 0.23326,0.443161 0.53387,1.411069 0.66803,2.150906 0.41162,2.269941 0.85948,3.3568 1.38324,3.3568 0.27547,0 0.38442,0.188389 0.24211,0.418642 -0.38443,0.622033 2.59423,4.033737 4.28519,4.908165 0.80838,0.418027 1.46977,0.595113 1.46977,0.393525 0,-0.201588 0.27274,-0.09378 0.6061,0.239568 0.33335,0.33335 1.58341,0.606091 2.77791,0.606091 1.19451,0 2.17183,0.119317 2.17183,0.265147 0,0.646639 -3.86663,7.878556 -5.88863,11.013726 -2.8488,4.41717 -10.99204,12.5469 -15.67416,15.64818 -4.44634,2.9451 -9.845431,5.47785 -15.405498,7.22683 -2.307486,0.72584 -4.536352,1.44054 -4.95304,1.58822 -0.416688,0.14768 -1.299859,0.2144 -1.962605,0.14828 -0.662746,-0.0661 -1.344599,0.0705 -1.515229,0.30371 -0.17063,0.23316 -4.742282,0.25528 -10.159225,0.0491 z"
         id="path3416"
         inkscape:connector-curvature="0" />
      <path
         style="fill:#7986cb;fill-opacity:1;stroke:none;stroke-width:1px;stroke-linecap:butt;stroke-linejoin:miter;stroke-opacity:1"
         d="m 127.73431,83.038935 c -0.42367,-1.458407 -1.81177,-8.561043 -3.08466,-15.783633 -1.27289,-7.222591 -2.63468,-14.211308 -3.02619,-15.530482 -1.02129,-3.44118 -3.92039,-7.554975 -6.24486,-8.861398 -2.22946,-1.253025 -5.92478,-1.47859 -8.71483,-0.531959 -2.7854,0.945055 -8.150128,4.627748 -11.914552,8.178915 l -3.508149,3.309409 0.223764,-4.263235 c 0.249654,-4.756579 -0.303112,-6.749784 -2.309598,-8.328084 -2.185384,-1.719025 -4.626317,-2.090944 -7.984261,-1.216543 -5.352879,1.39388 -10.372593,4.920683 -19.290086,13.55303 -3.129705,3.02963 -5.787518,5.411272 -5.906252,5.292539 -0.118733,-0.118734 0.01595,-1.232496 0.299297,-2.475027 0.791325,-3.470109 0.69952,-9.572841 -0.174546,-11.603059 -0.878774,-2.041152 -2.992472,-4.273606 -5.185146,-5.476468 -1.142301,-0.626645 -2.795018,-0.831928 -6.576489,-0.816861 -4.348628,0.01733 -5.680054,0.2423 -9.577528,1.61833 -2.489721,0.879012 -4.599814,1.525155 -4.689096,1.435873 -0.342319,-0.342319 3.918609,-5.248174 7.496192,-8.630804 17.860566,-16.887291 45.997347,-20.541599 67.12705,-8.718231 18.68718,10.456629 30.13077,29.103831 30.45743,49.630046 0.0692,4.350394 -0.0761,5.346036 -1.04788,7.180144 -0.97148,1.833463 -4.16707,4.689149 -5.2473,4.689149 -0.19359,0 -0.69863,-1.193243 -1.12231,-2.651651 z"
         id="path3418"
         inkscape:connector-curvature="0" />
      <path
         style="fill:#7986cb;fill-opacity:1;stroke:none;stroke-width:1px;stroke-linecap:butt;stroke-linejoin:miter;stroke-opacity:1"
         d="m 127.95764,84.049088 c -0.31576,-0.902824 -1.82151,-8.453073 -3.34611,-16.778326 -2.96858,-16.210394 -3.7882,-18.828021 -7.01304,-22.397526 -5.20008,-5.755873 -13.40131,-3.494988 -23.800073,6.561119 l -2.562192,2.477764 0.220102,-4.193559 c 0.373171,-7.109853 -1.780641,-9.98417 -7.484336,-9.988027 -5.416603,-0.0037 -11.857116,4.009777 -21.844122,13.612279 -3.271656,3.145697 -6.072457,5.595458 -6.224001,5.443913 -0.151545,-0.151544 -0.03295,-1.149164 0.263542,-2.216933 0.810068,-2.917327 0.675901,-9.487983 -0.238502,-11.680338 -2.770388,-6.642225 -10.488186,-8.323086 -21.312148,-4.641576 -2.395984,0.814936 -4.455137,1.3829 -4.575896,1.262141 -0.832853,-0.832854 10.086713,-11.481831 15.097229,-14.723117 11.059695,-7.154481 24.683712,-10.568401 37.187193,-9.318404 11.686884,1.16836 20.870924,4.747288 29.945224,11.669351 13.37615,10.203602 21.02759,24.061957 22.73003,41.16881 0.81979,8.237587 -0.25589,11.877627 -4.23713,14.338166 -0.93064,0.575166 -1.81348,1.045761 -1.96186,1.045761 -0.14838,0 -0.52814,-0.738674 -0.84391,-1.641498 z"
         id="path3420"
         inkscape:connector-curvature="0" />
      <path
         style="fill:#7986cb;fill-opacity:1;stroke:none;stroke-width:1px;stroke-linecap:butt;stroke-linejoin:miter;stroke-opacity:1"
         d="m 127.70948,83.038935 c -0.41343,-1.458407 -1.78645,-8.333758 -3.05116,-15.278557 -1.2647,-6.944799 -2.74449,-14.117903 -3.28842,-15.940232 -2.33389,-7.819233 -7.50468,-11.35603 -13.96009,-9.548628 -2.97703,0.833517 -8.603502,4.531753 -12.816969,8.424497 l -3.282996,3.033098 0,-4.85366 c 0,-3.849731 -0.188939,-5.131951 -0.913461,-6.199106 -1.437401,-2.117165 -4.069308,-3.117065 -7.407817,-2.81434 -5.294891,0.480124 -11.323614,4.405681 -21.118199,13.750955 -3.13549,2.991654 -5.813966,5.326298 -5.952167,5.188097 -0.138202,-0.138202 -0.02166,-1.24723 0.258974,-2.464508 0.664287,-2.88137 0.668158,-8.279287 0.0076,-10.657575 -0.679896,-2.448072 -2.622761,-4.713655 -5.218339,-6.085126 -3.213205,-1.697819 -9.666938,-1.468084 -15.950477,0.567791 -2.626835,0.851098 -4.870256,1.453258 -4.985381,1.338133 -0.756772,-0.756772 9.670436,-11.07782 14.51654,-14.368747 9.923458,-6.738892 24.631039,-10.793962 35.856401,-9.886075 15.738581,1.272909 28.346331,7.131795 38.715981,17.991513 9.4126,9.857432 14.44811,20.958949 15.90168,35.057537 0.68293,6.623904 0.25072,9.477221 -1.85413,12.240387 -1.06157,1.393582 -3.54248,3.156197 -4.44241,3.156197 -0.14493,0 -0.60177,-1.193243 -1.0152,-2.651651 z"
         id="path3422"
         inkscape:connector-curvature="0" />
      <path
         style="fill:#7986cb;fill-opacity:1;stroke:none;stroke-width:1px;stroke-linecap:butt;stroke-linejoin:miter;stroke-opacity:1"
         d="m 127.70169,83.038935 c -0.41772,-1.458407 -1.78469,-8.220116 -3.03773,-15.026019 -2.89557,-15.727374 -3.45923,-17.846969 -5.61229,-21.104648 -5.14627,-7.786525 -12.83224,-6.603729 -24.344965,3.746456 l -3.445297,3.097397 0.02424,-4.612626 c 0.02859,-5.444548 -0.736603,-7.302696 -3.558752,-8.641894 -3.88434,-1.843241 -9.934295,-0.0196 -16.561648,4.99219 -1.634613,1.23614 -5.679748,4.791021 -8.989187,7.899736 -3.30944,3.108714 -6.119365,5.550006 -6.244278,5.425092 -0.124914,-0.124913 0.02373,-1.572483 0.33032,-3.216822 0.306589,-1.644339 0.452867,-4.651494 0.325061,-6.682567 -0.191326,-3.040131 -0.492195,-4.062506 -1.702213,-5.784151 -2.755847,-3.921091 -6.62263,-5.180634 -13.384591,-4.359816 -2.116148,0.256873 -5.506962,1.031449 -7.535143,1.721277 -2.02818,0.689829 -3.787668,1.154168 -3.909972,1.031864 -0.785418,-0.785418 9.505587,-11.011978 14.473115,-14.382481 9.934963,-6.740943 24.400309,-10.775163 35.603567,-9.929429 15.910272,1.201067 28.635823,7.1353 39.257853,18.306894 9.65863,10.158353 14.67122,21.716259 15.87169,36.596505 0.4811,5.963395 -0.47196,9.275059 -3.38745,11.770611 -1.15922,0.992242 -2.40133,1.804082 -2.76026,1.804082 -0.35892,0 -0.99436,-1.193243 -1.41207,-2.651651 z"
         id="path3424"
         inkscape:connector-curvature="0" />
      <path
         style="fill:#7986cb;fill-opacity:1;stroke:none;stroke-width:1px;stroke-linecap:butt;stroke-linejoin:miter;stroke-opacity:1"
         d="m 127.68249,83.038935 c -0.43428,-1.458407 -1.57732,-6.970052 -2.54009,-12.248099 -0.96278,-5.278047 -2.23191,-11.902528 -2.82029,-14.721068 -3.41012,-16.335399 -12.59769,-18.512996 -26.52644,-6.287177 l -4.605548,4.042472 0.05036,-4.751072 c 0.04288,-4.045019 -0.103692,-4.961095 -0.986192,-6.164326 -3.531614,-4.815114 -10.327436,-3.885931 -18.934255,2.588851 -1.920369,1.444665 -6.117037,5.083082 -9.325931,8.085372 -3.208893,3.002289 -5.948635,5.344425 -6.088314,5.204746 -0.139678,-0.139678 0.01336,-1.789003 0.340075,-3.665166 0.735768,-4.225153 0.365702,-8.742483 -0.92013,-11.23173 -0.537029,-1.039637 -1.941112,-2.572103 -3.120185,-3.405479 -1.950396,-1.378552 -2.572476,-1.531006 -6.896515,-1.69014 -3.928411,-0.144574 -5.519843,0.04598 -9.175467,1.09863 -2.432495,0.700447 -4.820467,1.428506 -5.306603,1.617909 -1.807335,0.704151 -0.786774,-0.89917 3.282996,-5.157648 5.573451,-5.831884 10.36331,-9.578995 15.899993,-12.438579 C 73.68064,11.691 101.09235,16.275287 119.38978,35.519388 c 9.69682,10.198517 14.66152,21.646672 15.87077,36.596505 0.48232,5.963011 -0.47044,9.274539 -3.38653,11.770611 -1.15922,0.992242 -2.39887,1.804082 -2.7548,1.804082 -0.35592,0 -1.00245,-1.193243 -1.43673,-2.651651 z"
         id="path3426"
         inkscape:connector-curvature="0" />
      <path
         style="fill:#7986cb;fill-opacity:1;stroke:none;stroke-width:1px;stroke-linecap:butt;stroke-linejoin:miter;stroke-opacity:1"
         d="M 65.803493,132.21184 C 45.638256,127.7621 29.589911,114.10693 22.55267,95.410701 20.143342,89.009704 19.187202,83.44537 19.146645,75.58906 c -0.04252,-8.236287 0.389646,-10.324904 2.890944,-13.971714 3.623616,-5.283114 13.6028,-11.852295 20.271937,-13.344782 2.694006,-0.602893 2.965768,-0.580533 3.607285,0.296793 1.092541,1.49414 0.821211,4.519538 -0.85368,9.518754 -1.829116,5.459547 -8.294559,18.505613 -13.979747,28.208537 -5.553169,9.477608 -5.859027,10.69991 -3.314236,13.2447 1.446559,1.446562 3.978828,1.740762 5.768313,0.670182 0.580413,-0.347241 4.83702,-5.063391 9.459127,-10.480334 15.971173,-18.717637 27.424272,-30.810471 34.342746,-36.261025 4.446727,-3.503248 4.53112,-3.106612 1.340367,6.299367 -2.772005,8.171554 -6.738374,17.353596 -11.398815,26.387951 -1.966144,3.81141 -3.497698,7.422275 -3.497698,8.246342 0,3.522293 4.842626,5.667179 7.707404,3.413742 0.702707,-0.552744 3.445387,-4.286567 6.094851,-8.297381 10.396136,-15.737904 21.564661,-29.985041 27.148387,-34.631864 3.54814,-2.952796 4.76128,-3.420679 5.98882,-2.309771 1.27429,1.153213 2.85979,7.059893 3.80405,14.171668 1.32555,9.983666 2.32514,15.721773 3.29911,18.9386 2.10857,6.964098 5.52943,10.17544 10.83934,10.17544 1.53904,0 2.79826,0.1256 2.79826,0.279111 0,0.747783 -4.31771,8.768624 -6.43537,11.954754 -2.91401,4.38425 -9.79451,11.39825 -14.34254,14.62081 -4.73054,3.35188 -13.118487,7.22726 -18.9528,8.75654 -6.867608,1.80012 -19.484681,2.15843 -25.929207,0.73636 z"
         id="path3428"
         inkscape:connector-curvature="0" />
      <path
         style="fill:#7986cb;fill-opacity:1;stroke:none;stroke-width:1px;stroke-linecap:butt;stroke-linejoin:miter;stroke-opacity:1"
         d="M 66.30857,132.44844 C 44.627903,127.91908 27.084442,111.84053 21.115117,91.028694 18.360459,81.424681 18.235435,68.595542 20.84662,63.477198 23.955095,57.384083 34.347977,50.05428 42.449635,48.241209 c 2.540362,-0.568508 2.831685,-0.540936 3.467176,0.328148 2.526909,3.455755 -2.372216,15.977471 -14.711635,37.601599 -5.507347,9.651313 -5.871795,11.152891 -3.243651,13.364331 2.256932,1.899083 4.399844,1.751623 6.676489,-0.459427 1.00069,-0.971858 5.169611,-5.688008 9.264268,-10.480333 14.614635,-17.104748 26.400966,-29.515015 33.158811,-34.914146 4.615261,-3.687326 4.736161,-3.405006 2.07155,4.837451 -2.378874,7.358595 -6.20365,16.393097 -11.265698,26.610701 -2.246067,4.533623 -4.083757,8.80485 -4.083757,9.491616 0,1.873747 2.574529,4.20142 4.64699,4.20142 0.93183,0 2.171303,-0.334149 2.754383,-0.742553 0.583075,-0.408405 3.863884,-4.897271 7.290675,-9.975258 11.158165,-16.534706 21.475525,-29.53246 26.754644,-33.705366 6.03024,-4.76663 7.01222,-3.271777 9.60639,14.623677 2.24391,15.479219 3.6683,20.383253 6.94968,23.927059 1.80174,1.945834 4.06259,2.841983 7.16989,2.841983 2.4349,0 2.55709,0.06209 2.23616,1.136422 -0.18672,0.625032 -1.33181,2.97748 -2.54464,5.227657 -6.055,11.2339 -14.52405,19.46206 -25.72076,24.98917 -8.917481,4.402 -13.980386,5.59106 -24.748738,5.81243 -5.9156,0.1216 -9.607445,-0.0368 -11.869292,-0.50935 z"
         id="path3430"
         inkscape:connector-curvature="0" />
      <path
         style="fill:#9c2d3e;fill-opacity:1;stroke:none;stroke-width:1px;stroke-linecap:butt;stroke-linejoin:miter;stroke-opacity:1"
         d="M 65.298417,132.2093 C 44.078571,127.51842 27.121054,111.70777 21.127687,91.025918 18.361391,81.480006 18.230044,68.60611 20.84662,63.477198 c 2.400711,-4.705783 8.334546,-9.646695 15.769718,-13.130935 5.348028,-2.50617 8.352304,-3.073604 9.313499,-1.759091 2.508141,3.430087 -2.800661,16.950404 -14.948222,38.069745 -4.981675,8.660973 -5.414528,10.392746 -3.160927,12.646348 1.084332,1.084335 2.024918,1.539605 3.180773,1.539605 2.071358,0 4.768905,-2.706382 17.368224,-17.425127 13.941988,-16.287276 31.133932,-33.18779 32.435781,-31.885943 1.080964,1.080964 -5.066415,17.334548 -11.848807,31.328082 -3.211696,6.626426 -4.870425,10.629588 -4.870425,11.754247 0,2.210738 1.502336,3.702914 4.075626,4.048063 2.685966,0.360266 3.452763,-0.454932 11.291244,-12.003894 13.430074,-19.787436 23.431106,-31.716567 28.701496,-34.23484 1.65289,-0.789773 1.71902,-0.777826 2.82745,0.510806 1.44725,1.682524 2.47684,5.826456 3.80918,15.33119 1.86515,13.305779 2.80288,17.481596 4.82043,21.465742 2.16864,4.282514 4.92483,6.060915 9.39329,6.060915 2.3834,0 2.50741,0.06438 2.18897,1.136422 -0.18566,0.625032 -1.25754,2.841054 -2.38197,4.924497 -6.36333,11.79058 -14.85197,20.00738 -26.44697,25.60004 -8.493439,4.09667 -13.710952,5.28671 -24.187118,5.51674 -7.046258,0.15472 -9.356316,0.0183 -12.879445,-0.76051 z"
         id="path3432"
         inkscape:connector-curvature="0" />
      <path
         style="fill:#7986cb;fill-opacity:1"
         d="m 128.2614,85.311779 c -0.29802,-0.488354 -1.22166,-3.982249 -1.56887,-5.934647 -0.14821,-0.833376 -0.38443,-2.083439 -0.52493,-2.777919 -0.14051,-0.69448 -0.95293,-5.126524 -1.80539,-9.848988 -2.77703,-15.384218 -3.89775,-18.793956 -7.29329,-22.189504 -4.79863,-4.798623 -11.72935,-3.017836 -21.546395,5.536153 l -4.21268,3.670678 -0.252538,-5.213507 c -0.223623,-4.616538 -0.391166,-5.360782 -1.463231,-6.499719 -4.879542,-5.183914 -14.146694,-1.3097 -27.479308,11.487965 -2.167695,2.080719 -4.506694,4.153611 -5.197776,4.606425 l -1.256512,0.823298 0.399551,-2.676886 c 0.219753,-1.472287 0.384298,-4.390255 0.365655,-6.484373 -0.04068,-4.569607 -1.315283,-7.284928 -4.433036,-9.443823 -1.908044,-1.32123 -2.315308,-1.39537 -7.613309,-1.385958 -4.732085,0.0084 -6.252471,0.225291 -9.834538,1.402909 -2.33041,0.766131 -4.337562,1.292512 -4.460338,1.169736 -0.598488,-0.598487 2.292903,-3.752335 10.725882,-11.699487 3.796083,-3.577391 14.307098,-8.966685 20.699998,-10.613474 0.833376,-0.214675 1.628871,-0.422999 1.767767,-0.462944 4.008895,-1.152899 7.366619,-1.50443 14.142136,-1.480588 9.136718,0.03215 14.275041,1.000728 21.810855,4.111366 4.142877,1.710098 12.285137,6.578797 14.589257,8.723704 5.38887,5.016494 7.247,6.97326 9.94114,10.468819 4.38502,5.689419 7.55598,11.950897 9.27793,18.320528 0.33795,1.250064 0.68334,2.500128 0.76755,2.77792 0.0842,0.277792 0.52009,2.777919 0.96862,5.555839 1.05834,6.554668 0.78195,11.45617 -0.8011,14.20678 -1.62457,2.82276 -4.96583,5.074224 -5.7131,3.849697 z"
         id="path3434"
         inkscape:connector-curvature="0" />
      <path
         style="fill:#7986cb;fill-opacity:1"
         d="m 128.10178,86.816388 c -0.50037,-0.534384 -0.7912,-1.230353 -1.47189,-3.522383 -0.90001,-3.030477 -1.05506,-3.829231 -3.35214,-17.268227 -1.37149,-8.023879 -2.05712,-11.577952 -2.65512,-13.763329 -0.50232,-1.835739 -0.69051,-2.276833 -1.69342,-3.969274 -1.37691,-2.323562 -2.47415,-3.523526 -4.14325,-4.531146 -1.40234,-0.846583 -1.96666,-0.972985 -4.26139,-0.954515 l -1.89404,0.01525 -1.63216,0.590249 c -0.89768,0.324636 -2.16917,0.906299 -2.82552,1.292582 -1.94817,1.14656 -4.814947,3.114048 -5.88719,4.040421 -1.911105,1.651113 -5.401038,5.033118 -6.784769,6.574945 -0.765241,0.852673 -1.417502,1.550314 -1.449468,1.550314 -0.03197,0 -0.220431,-0.08393 -0.418808,-0.186518 l -0.360688,-0.18652 0.239423,-0.918334 c 0.55628,-2.133689 1.125464,-6.151773 1.125696,-7.946729 2.53e-4,-2.360848 -0.60809,-4.115325 -1.826728,-5.267861 -1.933206,-1.828347 -4.904286,-2.23902 -8.27607,-1.143945 -1.011028,0.328357 -3.966582,1.70562 -4.481137,2.088171 -0.208343,0.154896 -0.804965,0.533178 -1.325825,0.840625 -2.320547,1.369751 -7.064774,5.279365 -11.222993,9.248625 -0.977104,0.932701 -4.80253,4.945095 -8.392633,8.802823 l -1.494026,1.605398 -0.335881,-0.209789 c -0.184734,-0.115385 -0.34966,-0.21709 -0.366499,-0.226012 -0.01684,-0.0089 0.190457,-0.583501 0.46066,-1.27684 1.380119,-3.541382 2.188069,-7.283864 2.481843,-11.496068 0.162926,-2.336076 -0.641996,-5.589373 -1.77836,-7.187692 -1.0861,-1.527624 -2.154664,-2.356293 -4.111812,-3.188706 -1.538311,-0.654272 -2.892454,-0.90286 -4.895911,-0.89877 -2.333934,0.0048 -3.729058,0.175694 -6.20052,0.75969 -3.383262,0.799448 -7.066792,2.250565 -10.223548,4.027539 -0.932856,0.525116 -1.728351,0.945742 -1.767766,0.934725 -0.03942,-0.01102 -0.119366,-0.221729 -0.177667,-0.468252 -0.100607,-0.425408 -0.0456,-0.536861 1.080632,-2.189679 1.538647,-2.258057 3.396911,-4.671809 4.883133,-6.342841 1.748098,-1.965473 5.240579,-5.388067 6.394147,-6.266197 0.553488,-0.421331 1.574553,-1.211203 2.269033,-1.755272 0.69448,-0.544069 1.546796,-1.172805 1.894036,-1.397191 4.613075,-2.980965 6.528039,-4.043989 10.200866,-5.662649 3.134808,-1.381549 4.122059,-1.732964 7.339842,-2.612634 3.265348,-0.892673 5.896629,-1.4139 9.496128,-1.881073 2.686579,-0.348686 3.431027,-0.396765 6.313454,-0.407743 4.115049,-0.01567 7.022766,0.237181 11.222691,0.975921 3.864251,0.679697 6.353866,1.355761 9.964739,2.70596 3.663286,1.369797 9.075496,4.089104 11.894856,5.976443 1.18614,0.794022 3.90701,2.808804 5.5375,4.10046 1.03249,0.817929 5.00535,4.710328 6.53836,6.405943 2.65303,2.934421 5.66639,7.261092 7.64063,10.970634 1.64628,3.093298 2.00502,3.898781 3.45955,7.767798 1.24543,3.312799 2.3762,7.495252 2.76858,10.240319 0.9225,6.453727 1.10691,11.462207 0.50605,13.744475 -0.6113,2.321962 -1.45509,3.974926 -2.56463,5.024033 -1.31036,1.238985 -2.53545,2.032077 -4.44013,2.874417 l -0.68617,0.303455 -0.31369,-0.335021 z m 1.65768,-1.264191 c 1.28259,-0.626768 1.99395,-1.121084 3.05846,-2.125284 1.11063,-1.047713 1.84933,-2.482558 2.39171,-4.645601 0.33527,-1.337099 0.37935,-1.727204 0.37935,-3.357655 0,-1.619077 -0.43421,-7.728957 -0.56422,-7.939317 -0.0267,-0.04315 -0.11319,-0.67308 -0.19229,-1.399851 -0.0791,-0.726771 -0.25375,-1.744056 -0.38813,-2.260634 -0.13438,-0.516577 -0.24432,-1.060082 -0.24432,-1.207788 0,-0.600408 -1.44116,-5.345458 -2.37758,-7.828236 -1.18968,-3.154266 -1.85219,-4.675753 -2.66663,-6.12405 -0.33196,-0.590308 -0.7893,-1.442624 -1.01631,-1.894036 -0.52263,-1.039221 -2.07519,-3.527411 -3.07274,-4.924494 -2.18709,-3.06304 -3.36594,-4.431726 -6.64355,-7.713444 -3.08361,-3.087476 -3.57104,-3.519701 -6.06774,-5.380532 -4.00138,-2.982287 -5.05436,-3.624461 -9.78585,-5.96801 -2.55768,-1.266839 -2.806314,-1.371852 -6.187189,-2.613215 -5.924472,-2.175303 -14.14063,-3.451357 -20.89753,-3.245602 -2.565105,0.07811 -7.434392,0.673206 -10.224873,1.249624 -2.269926,0.468889 -7.023646,1.750565 -8.33668,2.247696 -1.671233,0.63275 -5.799328,2.527435 -7.50894,3.446402 -0.970033,0.521422 -2.475792,1.407188 -3.346131,1.968369 -0.870338,0.561181 -1.95177,1.258565 -2.403182,1.54974 -0.451411,0.291176 -1.388959,0.980381 -2.083439,1.531568 -0.69448,0.551186 -1.632028,1.283731 -2.08344,1.627878 -2.059545,1.570156 -6.567189,6.33236 -8.855022,9.355091 -1.421195,1.877711 -2.435771,3.333395 -2.323296,3.333395 0.03797,0 0.537274,-0.251202 1.10956,-0.558227 1.127249,-0.604757 2.825239,-1.346731 4.824687,-2.108256 1.337559,-0.509433 1.511062,-0.672224 0.244643,-0.22954 -1.144392,0.400029 -3.84565,1.128256 -4.185112,1.128256 -0.541243,0 -0.228117,-0.588337 1.25017,-2.348956 0.982583,-1.170244 6.916848,-7.054736 9.052421,-8.976497 2.5356,-2.281736 5.664519,-4.284419 10.3093,-6.59853 4.315695,-2.150155 7.265895,-3.315113 11.022052,-4.352326 5.287791,-1.460153 8.310875,-1.837052 14.736838,-1.837296 9.431696,-3.54e-4 14.872183,0.972725 22.14795,3.961378 3.679413,1.511386 10.253283,5.272788 13.562873,7.76033 1.50312,1.129769 6.04633,5.442967 7.95658,7.553754 7.76977,8.585434 12.18006,17.60372 14.02742,28.683601 0.81896,4.911927 0.89493,5.676585 0.88631,8.921365 -0.006,2.443132 -0.0492,3.095613 -0.26885,4.109969 -0.29907,1.38095 -0.71228,2.47177 -1.32016,3.485034 -0.5516,0.919454 -2.27449,2.643978 -3.18195,3.184968 -0.79005,0.470991 -1.72902,0.652808 -2.03972,0.394958 -0.21013,-0.174395 -0.6359,-1.487983 -1.14601,-3.53565 -0.31357,-1.258778 -1.261,-6.174848 -2.46598,-12.795621 -0.30127,-1.655373 -0.5654,-2.956874 -0.58695,-2.892223 -0.0427,0.128108 1.6562,10.077915 2.1861,12.803112 0.54264,2.790756 1.86811,7.051611 2.19361,7.051611 0.0697,0 0.57541,-0.219252 1.12378,-0.487228 z m -5.57814,-20.1286 c -0.0346,-0.08549 -0.0608,0.01503 -0.0582,0.223374 0.003,0.208343 0.0309,0.278289 0.0629,0.155433 0.032,-0.122856 0.0299,-0.293319 -0.005,-0.378807 l 1e-5,0 z m -0.12547,-0.628943 c -0.035,-0.08681 -0.0637,-0.01578 -0.0637,0.157837 0,0.17362 0.0287,0.244646 0.0637,0.157836 0.035,-0.08681 0.035,-0.228863 0,-0.315673 z m -0.12627,-0.631345 c -0.035,-0.08681 -0.0637,-0.01578 -0.0637,0.157836 0,0.17362 0.0287,0.244647 0.0637,0.157837 0.035,-0.08681 0.035,-0.228863 0,-0.315673 z m -0.12627,-0.757614 c -0.035,-0.08681 -0.0637,-0.01578 -0.0637,0.157836 0,0.17362 0.0287,0.244646 0.0637,0.157836 0.035,-0.08681 0.035,-0.228862 0,-0.315672 z m -0.12627,-0.631346 c -0.035,-0.08681 -0.0637,-0.01578 -0.0637,0.157837 0,0.17362 0.0287,0.244646 0.0637,0.157836 0.035,-0.08681 0.035,-0.228863 0,-0.315673 z m -0.12627,-0.757614 c -0.035,-0.08681 -0.0637,-0.01578 -0.0637,0.157836 0,0.17362 0.0287,0.244646 0.0637,0.157836 0.035,-0.08681 0.035,-0.228862 0,-0.315672 z m -0.12627,-0.631346 c -0.035,-0.08681 -0.0637,-0.01578 -0.0637,0.157837 0,0.17362 0.0287,0.244646 0.0637,0.157836 0.035,-0.08681 0.035,-0.228863 0,-0.315673 z M 55.499618,60.501506 c 1.627965,-1.727211 5.171485,-5.504272 5.834239,-6.218752 0.673694,-0.726274 0.663603,-0.720476 -0.243942,0.140184 -2.456508,2.329603 -5.090685,4.470494 -5.274445,4.286733 -0.02648,-0.02648 0.04149,-0.651552 0.151056,-1.389041 0.271692,-1.828792 0.234734,-1.905092 -0.12932,-0.266982 -0.254667,1.145911 -0.887515,3.386961 -1.148491,4.067056 -0.120677,0.314477 0.06326,0.174026 0.810903,-0.619198 z m 67.798612,0.252538 c -0.035,-0.08681 -0.0637,-0.01578 -0.0637,0.157836 0,0.17362 0.0287,0.244647 0.0637,0.157837 0.035,-0.08681 0.035,-0.228863 0,-0.315673 z m -0.12627,-0.631345 c -0.035,-0.08681 -0.0637,-0.01578 -0.0637,0.157836 0,0.17362 0.0287,0.244646 0.0637,0.157836 0.035,-0.08681 0.035,-0.228862 0,-0.315672 z m -0.12626,-0.631346 c -0.035,-0.08681 -0.0637,-0.01578 -0.0637,0.157837 0,0.17362 0.0287,0.244646 0.0637,0.157836 0.035,-0.08681 0.035,-0.228863 0,-0.315673 z m -0.12627,-0.631345 c -0.035,-0.08681 -0.0637,-0.01578 -0.0637,0.157836 0,0.17362 0.0287,0.244647 0.0637,0.157837 0.035,-0.08681 0.035,-0.228863 0,-0.315673 z m -0.13361,-0.69185 c -0.042,-0.04196 -0.0718,0.03262 -0.0663,0.165729 0.006,0.147097 0.036,0.177016 0.0763,0.07629 0.0365,-0.09115 0.032,-0.200059 -0.01,-0.242017 l -1e-5,0 z M 95.168546,50.379832 c 0.02684,-0.06317 -0.797062,0.629217 -1.830901,1.538634 -2.154768,1.895441 -2.020827,1.901753 -2.078585,-0.09796 C 91.24,51.16075 91.20535,50.876644 91.18205,51.18916 c -0.04701,0.630431 -0.378639,2.879838 -0.500534,3.395027 -0.05748,0.242938 0.517244,-0.252622 2.180085,-1.879798 1.241979,-1.21534 2.280106,-2.261392 2.306948,-2.324559 z M 66.677633,49.436697 c 0.746566,-0.650088 1.357393,-1.208629 1.357393,-1.241203 0,-0.136047 -4.714492,4.051006 -5.303301,4.709989 -0.17362,0.194312 0.33777,-0.240729 1.136421,-0.966757 0.798652,-0.726027 2.062921,-1.851941 2.809487,-2.502029 z m 53.686407,-0.0051 c -0.49484,-1.236339 -1.62539,-3.153142 -2.1658,-3.672005 -0.30456,-0.292424 -0.30131,-0.278474 0.0442,0.189403 0.84532,1.144703 1.7684,2.837165 2.25695,4.138127 0.12447,0.331427 0.2491,0.579792 0.27697,0.551922 0.0279,-0.02787 -0.15768,-0.57122 -0.41232,-1.207447 z M 68.540102,47.843032 c 0.163108,-0.17362 0.268149,-0.315673 0.233425,-0.315673 -0.03472,0 -0.196586,0.142053 -0.359694,0.315673 -0.163108,0.17362 -0.268149,0.315673 -0.233425,0.315673 0.03472,0 0.196586,-0.142053 0.359694,-0.315673 z m 48.676728,-3.219861 c -0.41234,-0.416688 -0.77812,-0.757615 -0.81285,-0.757615 -0.0347,0 0.27424,0.340927 0.68658,0.757615 0.41234,0.416688 0.77812,0.757614 0.81284,0.757614 0.0347,0 -0.27423,-0.340926 -0.68657,-0.757614 z m -0.94702,-0.805289 c 0,-0.02622 -0.0994,-0.125657 -0.22097,-0.220971 -0.20027,-0.157062 -0.20474,-0.152596 -0.0477,0.04767 0.16496,0.210333 0.26865,0.277222 0.26865,0.173297 z m -0.69448,-0.534624 c -0.37869,-0.293096 -1.31025,-0.750343 -2.01228,-0.987707 -1.42819,-0.482886 -3.53746,-0.502002 -5.34773,-0.04847 -0.85761,0.21486 -0.54165,0.245038 0.42392,0.04049 1.14941,-0.243494 3.44956,-0.243596 4.41575,-2.53e-4 0.41391,0.104275 1.17873,0.41042 1.69959,0.680326 1.06093,0.549764 1.18497,0.597453 0.82075,0.315553 l 0,5.9e-5 z M 90.205763,42.749469 c -0.288073,-0.557071 -1.658662,-1.755952 -2.483401,-2.172279 -1.126343,-0.568576 -2.012618,-0.754224 -3.519857,-0.737305 -0.731975,0.0082 -1.501327,0.05483 -1.709671,0.103573 -0.208344,0.04875 0.287994,0.06255 1.102974,0.03067 2.61529,-0.102311 4.174496,0.471029 5.77869,2.124899 0.52086,0.536988 0.962683,0.983673 0.981828,0.992631 0.01915,0.009 -0.04861,-0.145025 -0.150563,-0.342185 z m 16.088787,0.232204 c 0.10418,-0.06732 0.13259,-0.122402 0.0631,-0.122402 -0.0695,0 -0.2115,0.05508 -0.31567,0.122402 -0.10418,0.06732 -0.13259,0.122401 -0.0631,0.122401 0.0695,0 0.2115,-0.05508 0.31567,-0.122401 z M 54.293022,42.381895 c -0.368744,-0.461057 -1.034114,-1.110967 -1.652457,-1.614065 -0.16792,-0.136622 0.201417,0.271885 0.820749,0.907794 0.619331,0.63591 1.145035,1.161505 1.168234,1.167989 0.0232,0.0065 -0.128239,-0.201288 -0.336526,-0.461718 z m -2.14273,-1.957171 c -0.07261,-0.08681 -0.321059,-0.266111 -0.552105,-0.398444 -0.49525,-0.283664 -0.412708,-0.165136 0.173799,0.249564 0.477337,0.33751 0.564914,0.371976 0.378306,0.14888 z M 81.82203,40.117498 c -0.09115,-0.03648 -0.200059,-0.03199 -0.242017,0.01 -0.04196,0.04196 0.03262,0.0718 0.165729,0.06632 0.147097,-0.0061 0.177016,-0.03598 0.07629,-0.07629 l 0,5e-6 z M 36.530893,39.826391 c 0.416688,-0.136216 0.560777,-0.213487 0.320197,-0.171716 -0.479167,0.0832 -1.406577,0.400679 -1.20408,0.412196 0.06945,0.004 0.467195,-0.104266 0.883883,-0.24048 z M 50.933,39.631527 c -0.134807,-0.101963 -0.30527,-0.183374 -0.378807,-0.180913 -0.07354,0.0025 0.0083,0.08568 0.18197,0.184928 0.409017,0.233817 0.508593,0.231785 0.196837,-0.004 z M 37.627856,39.486152 c -0.09115,-0.03647 -0.200058,-0.03199 -0.242016,0.01 -0.04196,0.04196 0.03262,0.0718 0.165728,0.06632 0.147096,-0.0061 0.177017,-0.03598 0.07629,-0.07629 l 0,5e-6 z m 0.631345,-0.126269 c -0.09115,-0.03648 -0.200058,-0.03199 -0.242016,0.01 -0.04196,0.04196 0.03262,0.0718 0.165728,0.06632 0.147097,-0.0061 0.177017,-0.03598 0.07629,-0.07629 l 0,5e-6 z m 11.971886,-0.04001 c -0.104172,-0.06732 -0.274635,-0.119279 -0.378807,-0.115461 -0.124888,0.0046 -0.103382,0.04391 0.06313,0.115461 0.347125,0.149164 0.546489,0.149164 0.315673,0 z m -0.860208,-0.212525 c -0.09115,-0.03648 -0.200058,-0.03199 -0.242016,0.01 -0.04196,0.04196 0.03262,0.0718 0.165728,0.06632 0.147097,-0.0061 0.177017,-0.03598 0.07629,-0.07629 l 0,5e-6 z"
         id="path3436"
         inkscape:connector-curvature="0" />
      <path
         style="fill:#7986cb;fill-opacity:1"
         d="m 54.94568,60.7455 c 0.04524,-0.126233 0.207102,-0.659162 0.359684,-1.184286 0.16636,-0.572546 0.306327,-0.872366 0.349626,-0.748927 0.06614,0.188542 0.106046,0.187258 0.474778,-0.01527 0.221415,-0.121613 0.860469,-0.604657 1.42012,-1.073431 0.559651,-0.468773 1.054025,-0.852316 1.098608,-0.852316 0.04458,0 -0.226113,0.326721 -0.601546,0.726047 -2.66575,2.835397 -3.174133,3.35147 -3.10127,3.148183 z"
         id="path3440"
         inkscape:connector-curvature="0" />
      <path
         style="fill:#7986cb;fill-opacity:1"
         d="m 128.01799,86.720491 c -0.49783,-0.566997 -0.65345,-0.952185 -1.39747,-3.458985 -0.94499,-3.183909 -0.87624,-2.829596 -3.40584,-17.551401 -1.6968,-9.875032 -2.50364,-13.758653 -3.18732,-15.341692 -0.35546,-0.823058 -1.53089,-2.84366 -2.16688,-3.724937 -1.17132,-1.623065 -3.08451,-3.137924 -4.58254,-3.628448 -0.43946,-0.143899 -1.14653,-0.201311 -2.56397,-0.208185 l -1.95717,-0.0095 -1.51523,0.550005 c -1.85787,0.67438 -2.35421,0.921274 -4.35628,2.166954 -2.10055,1.306952 -3.148031,2.054145 -4.701604,3.353771 -1.436829,1.201964 -4.898072,4.566271 -6.861677,6.669506 l -1.272349,1.362827 -0.38827,-0.200783 -0.388271,-0.200782 0.30219,-1.171182 c 0.411266,-1.593929 0.927906,-5.13657 1.017862,-6.97956 0.135742,-2.781037 -0.385845,-4.549135 -1.743346,-5.909675 -1.882873,-1.887087 -4.893128,-2.329082 -8.245014,-1.21061 -1.408819,0.4701 -3.954054,1.679719 -4.942333,2.348835 -0.410184,0.277715 -0.941721,0.605666 -1.181195,0.728778 -0.901592,0.463505 -4.958376,3.648001 -7.330141,5.754017 -2.854296,2.534483 -5.654096,5.316573 -9.461204,9.40136 -1.488194,1.596739 -3.012084,3.229781 -3.386422,3.628982 -0.698014,0.744377 -0.709942,0.747885 -1.26772,0.372858 -0.126898,-0.08532 -0.05303,-0.390524 0.336317,-1.389592 1.371188,-3.518462 2.174109,-7.226591 2.480972,-11.457865 0.165672,-2.284416 -0.647469,-5.562823 -1.793506,-7.231019 -1.212758,-1.765317 -3.700597,-3.318122 -6.113972,-3.816086 -2.408612,-0.496981 -5.693702,-0.293706 -9.259209,0.572942 -3.368864,0.818851 -6.639741,2.110224 -9.914114,3.914185 -1.045943,0.576244 -1.923277,1.010796 -1.94963,0.965671 -0.02635,-0.04512 -0.08727,-0.26556 -0.135369,-0.489857 -0.0791,-0.36888 0.02947,-0.579822 1.137408,-2.209708 2.522828,-3.711339 5.436817,-7.160354 8.688603,-10.283877 2.112342,-2.029024 5.700561,-4.843505 7.841109,-6.150305 0.488979,-0.298522 1.428854,-0.884777 2.08861,-1.30279 1.868727,-1.184002 4.020748,-2.313582 6.565992,-3.446441 3.340939,-1.487015 4.255826,-1.817266 7.513009,-2.712005 3.615841,-0.993262 5.989212,-1.469723 9.785853,-1.964539 2.628373,-0.342556 3.349543,-0.387957 6.313453,-0.397459 4.17599,-0.01339 6.936871,0.2267 11.174813,0.971769 3.887412,0.683443 6.377064,1.359354 9.966849,2.705881 3.391276,1.272065 8.974366,4.040947 11.625166,5.765391 1.2657,0.823392 5.22824,3.824099 6.50285,4.924413 1.50246,1.297006 5.71379,5.566594 6.89903,6.994476 3.34417,4.028775 6.46943,9.016283 8.4126,13.425427 1.55875,3.536854 3.43861,9.207192 3.87955,11.702117 0.0798,0.451412 0.22412,1.104855 0.32075,1.452095 0.0966,0.34724 0.23904,1.225976 0.31646,1.952747 0.0774,0.726771 0.16072,1.353679 0.1851,1.393128 0.0244,0.03945 0.16771,1.489224 0.31851,3.221721 0.36351,4.176214 0.31359,6.779876 -0.16376,8.540768 -0.39143,1.443942 -0.84292,2.560639 -1.42526,3.525163 -0.92729,1.535863 -3.23942,3.270566 -5.7634,4.32405 l -0.46808,0.195372 -0.38451,-0.437931 z m 1.99437,-1.310277 c 1.36215,-0.702333 2.86513,-1.896172 3.58354,-2.846459 0.6614,-0.874873 1.31261,-2.459969 1.68088,-4.091373 0.3785,-1.676767 0.41021,-3.56984 0.11997,-7.162796 -0.51326,-6.353607 -1.36154,-10.416131 -3.27613,-15.68984 -0.91598,-2.523029 -2.0949,-5.387169 -2.52534,-6.135216 -0.15984,-0.277792 -0.6882,-1.250157 -1.17411,-2.160812 -2.50584,-4.696183 -5.28849,-8.429407 -9.42911,-12.650145 -2.97445,-3.031994 -4.16389,-4.078515 -7.19138,-6.327272 -2.7202,-2.020512 -3.43546,-2.485078 -5.99426,-3.893286 -3.03035,-1.667718 -5.52651,-2.822702 -8.488765,-3.927786 -3.385302,-1.262902 -6.18348,-2.014174 -9.900327,-2.658102 -3.940276,-0.682635 -6.840529,-0.930772 -10.732871,-0.918272 -2.729841,0.0088 -3.564177,0.06196 -6.16973,0.393326 -3.620313,0.460426 -6.558301,1.040287 -9.607161,1.896134 -1.246355,0.349865 -2.314232,0.636118 -2.373059,0.636118 -0.257079,0 -2.756372,1.005629 -5.071124,2.040444 -2.724829,1.218142 -4.840439,2.326975 -6.750029,3.537824 -0.669546,0.424552 -1.670144,1.052819 -2.22355,1.396149 -0.553404,0.34333 -1.206847,0.779102 -1.452094,0.968382 -0.245246,0.18928 -1.326628,1.022223 -2.403072,1.850984 -2.040984,1.571368 -5.288352,4.675993 -7.387882,7.063138 -1.78847,2.033472 -5.177049,6.502857 -4.930309,6.502857 0.03513,0 0.592422,-0.282411 1.238427,-0.62758 0.646004,-0.345168 2.167367,-1.031961 3.380806,-1.526206 2.441251,-0.994343 2.441134,-1.005594 -0.0027,-0.26036 -0.937138,0.285775 -1.980545,0.55629 -2.318683,0.601144 -0.604332,0.08017 -0.613197,0.07641 -0.520823,-0.220709 0.273432,-0.879493 1.877832,-2.669072 6.232564,-6.951918 2.126668,-2.09156 4.406469,-4.253581 5.066225,-4.804489 4.498476,-3.756307 13.353923,-8.24035 19.888761,-10.07087 5.863317,-1.642415 8.791649,-2.025479 15.464423,-2.02295 9.244868,0.0035 14.447806,0.908132 21.5213,3.741876 4.185483,1.676766 11.090983,5.603426 14.422573,8.201074 1.43157,1.116202 5.74398,5.232432 7.53604,7.193207 5.41306,5.922695 9.47364,12.59662 11.82211,19.430711 0.81256,2.364577 1.73392,5.874378 2.13984,8.151466 0.92584,5.19372 1.21653,8.10563 1.10926,11.111678 -0.14677,4.112735 -0.91937,6.224892 -3.06554,8.380549 -1.22719,1.23262 -2.22194,1.862363 -3.07064,1.943911 -0.5296,0.05089 -0.63461,0.02039 -0.81462,-0.236622 -0.25738,-0.367462 -0.26193,-0.275707 -0.0156,0.31394 0.1051,0.251549 0.25201,0.457362 0.32647,0.457362 0.0745,0 0.68451,-0.283144 1.35569,-0.629211 z m -2.05326,-1.086446 c -0.0996,-0.271728 -0.18501,-0.431504 -0.18991,-0.355057 -0.0124,0.193175 0.26181,0.958214 0.32188,0.898147 0.027,-0.02697 -0.0324,-0.271361 -0.13197,-0.54309 z m -0.27096,-0.990109 c -0.0464,-0.185048 -0.10879,-0.3121 -0.13856,-0.282337 -0.0298,0.02976 -0.0161,0.205519 0.0303,0.390568 0.0465,0.185048 0.1088,0.3121 0.13856,0.282337 0.0298,-0.02976 0.0161,-0.205519 -0.0303,-0.390568 z m -0.48613,-1.852325 c -0.27147,-1.152008 -1.82126,-9.303043 -2.43169,-12.789353 -0.1202,-0.686477 -0.23778,-1.190415 -0.2613,-1.11986 -0.0485,0.145489 1.45248,8.99039 1.93394,11.396236 0.327,1.634053 0.93934,3.955621 1.02162,3.873337 0.0258,-0.02582 -0.0923,-0.637979 -0.26257,-1.36036 z m -2.76815,-14.668778 c -0.0346,-0.08549 -0.0608,0.01503 -0.0582,0.223374 0.003,0.208344 0.0309,0.27829 0.0629,0.155434 0.032,-0.122856 0.0299,-0.29332 -0.005,-0.378808 l 1e-5,0 z m -0.13281,-0.563177 c -0.042,-0.04196 -0.0718,0.03262 -0.0663,0.165728 0.006,0.147097 0.036,0.177017 0.0763,0.07629 0.0365,-0.09115 0.032,-0.200058 -0.01,-0.242016 l 0,0 z m -0.12627,-0.757615 c -0.042,-0.04196 -0.0718,0.03262 -0.0663,0.165729 0.006,0.147097 0.036,0.177016 0.0763,0.07629 0.0365,-0.09115 0.032,-0.200059 -0.01,-0.242017 l -1e-5,0 z M 57.500931,58.354932 c 4.08177,-4.334748 4.170332,-4.43843 2.459212,-2.879139 -1.748175,1.593056 -3.249757,2.818459 -3.806412,3.106316 -0.445471,0.230363 -0.444192,0.240361 -0.177501,-1.386947 0.101692,-0.620513 0.163911,-1.149189 0.138263,-1.174837 -0.02565,-0.02565 -0.140658,0.396814 -0.25558,0.938801 -0.188403,0.888543 -0.93457,3.556458 -1.149657,4.110591 -0.04717,0.121534 -0.06034,0.220971 -0.02926,0.220971 0.03108,0 1.300502,-1.32109 2.820934,-2.935756 z m 35.53537,-5.851848 1.957171,-1.985436 -1.375445,1.188073 c -0.756496,0.65344 -1.559854,1.343241 -1.785242,1.532889 l -0.409796,0.344817 -0.0755,-0.281682 c -0.04153,-0.154925 -0.08207,-0.679429 -0.09009,-1.165565 l -0.01459,-0.883883 -0.22376,1.41164 c -0.123067,0.776402 -0.261162,1.56067 -0.306879,1.742819 -0.07283,0.290196 -0.05527,0.315747 0.141918,0.206471 0.123771,-0.06859 1.105764,-1.018154 2.182208,-2.110143 z M 63.36307,52.388718 c 0.23559,-0.243068 0.399936,-0.441941 0.365212,-0.441941 -0.03472,0 -0.255891,0.198873 -0.491481,0.441941 -0.23559,0.243068 -0.399936,0.441942 -0.365212,0.441942 0.03472,0 0.255891,-0.198874 0.491481,-0.441942 z m 1.767767,-1.69275 c 0,-0.03472 -0.227284,0.158803 -0.505076,0.43006 -0.277792,0.271256 -0.505076,0.521605 -0.505076,0.556329 0,0.03472 0.227284,-0.158804 0.505076,-0.43006 0.277792,-0.271257 0.505076,-0.521605 0.505076,-0.556329 z m 1.136422,-1.010153 c 0,-0.03472 -0.227285,0.158804 -0.505077,0.43006 -0.277792,0.271256 -0.505076,0.521605 -0.505076,0.556329 0,0.03472 0.227284,-0.158804 0.505076,-0.43006 0.277792,-0.271256 0.505077,-0.521605 0.505077,-0.556329 z m 53.567001,-1.308197 c -0.4262,-0.849606 -0.91882,-1.715202 -1.0947,-1.923546 -0.17589,-0.208344 -0.0477,0.08031 0.28485,0.641457 0.33256,0.561145 0.79923,1.452678 1.03706,1.981185 0.23783,0.528505 0.45835,0.934983 0.49005,0.903282 0.0317,-0.0317 -0.29107,-0.752771 -0.71726,-1.602378 z m -52.935656,0.854374 c 0.23559,-0.243068 0.399936,-0.441942 0.365212,-0.441942 -0.03472,0 -0.255891,0.198874 -0.491481,0.441942 -0.23559,0.243068 -0.399936,0.441941 -0.365212,0.441941 0.03472,0 0.255891,-0.198873 0.491481,-0.441941 z m 0.820749,-0.69448 c 0.1257,-0.138896 0.200134,-0.252538 0.16541,-0.252538 -0.03472,0 -0.16598,0.113642 -0.291679,0.252538 -0.1257,0.138896 -0.200134,0.252538 -0.16541,0.252538 0.03472,0 0.165979,-0.113642 0.291679,-0.252538 z m 0.820749,-0.69448 c 0.08646,-0.104172 0.12878,-0.189404 0.09406,-0.189404 -0.03472,0 -0.13387,0.08523 -0.220325,0.189404 -0.08646,0.104172 -0.128781,0.189403 -0.09406,0.189403 0.03472,0 0.133871,-0.08523 0.220326,-0.189403 z m 49.876278,-1.878576 c 0,-0.02622 -0.0994,-0.125656 -0.22097,-0.220971 -0.20027,-0.157062 -0.20473,-0.152596 -0.0477,0.04767 0.16495,0.210332 0.26864,0.277221 0.26864,0.173296 z m -1.19955,-1.341285 c -0.27126,-0.277792 -0.52161,-0.505077 -0.55633,-0.505077 -0.0347,0 0.1588,0.227285 0.43006,0.505077 0.27125,0.277792 0.5216,0.505076 0.55633,0.505076 0.0347,0 -0.15881,-0.227284 -0.43006,-0.505076 z m -1.8309,-1.458729 c 0,-0.125697 -1.56146,-0.799823 -2.33598,-1.00851 -0.81426,-0.219391 -3.1827,-0.269007 -3.97748,-0.08332 -0.26665,0.0623 0.2595,0.08174 1.32656,0.04901 1.9806,-0.06074 2.835,0.08857 4.16615,0.728038 0.89481,0.429863 0.82075,0.401458 0.82075,0.31478 z m -9.09138,-0.182769 c 0.10418,-0.06732 0.13259,-0.122402 0.0631,-0.122402 -0.0695,0 -0.2115,0.05508 -0.31567,0.122402 -0.10418,0.06732 -0.13259,0.122401 -0.0631,0.122401 0.0695,0 0.2115,-0.05508 0.31567,-0.122401 z M 90.01013,42.482617 c -0.408215,-0.573286 -1.489304,-1.469963 -2.281086,-1.891977 -1.0108,-0.538751 -2.107002,-0.765335 -3.594712,-0.743025 l -1.262691,0.01893 1.452094,0.08405 c 2.347745,0.135897 3.481995,0.59803 4.961795,2.021617 0.500344,0.481337 0.927791,0.876965 0.949882,0.879171 0.02209,0.0022 -0.07929,-0.163741 -0.225282,-0.368774 z m 18.54674,-0.213188 c 0.12671,-0.10927 -0.45031,-0.02872 -0.62082,0.08667 -0.13832,0.0936 -0.0872,0.105318 0.1894,0.04344 0.20835,-0.0466 0.40249,-0.10515 0.43142,-0.130105 z m -54.411442,-0.08222 c 0,-0.02026 -0.2699,-0.290165 -0.599778,-0.599778 l -0.599778,-0.562934 0.562934,0.599778 c 0.523254,0.557502 0.636622,0.657747 0.636622,0.562934 z m -17.906532,-2.32225 c -0.09115,-0.03647 -0.200058,-0.03199 -0.242016,0.01 -0.04196,0.04196 0.03262,0.0718 0.165728,0.06632 0.147097,-0.0061 0.177017,-0.03598 0.07629,-0.07629 l 0,5e-6 z m 14.560402,-0.292551 c -0.04292,-0.06945 -0.145712,-0.125399 -0.228423,-0.124336 -0.09036,0.0011 -0.07479,0.05079 0.03902,0.124336 0.242578,0.156767 0.28629,0.156767 0.189404,0 z"
         id="path3442"
         inkscape:connector-curvature="0" />
      <path
         style="fill:#7986cb;fill-opacity:1"
         d="m 127.98445,86.674197 c -0.48995,-0.575893 -0.7714,-1.295115 -1.53311,-3.917768 -0.70526,-2.428254 -0.8434,-3.143126 -2.79891,-14.484235 -2.50381,-14.520943 -2.98235,-16.71111 -4.11877,-18.850799 -1.506,-2.835541 -2.92541,-4.518782 -4.76523,-5.650956 -1.34884,-0.83004 -1.99428,-0.973242 -4.307,-0.955569 l -1.8309,0.01399 -1.56204,0.578277 c -1.79187,0.663357 -2.56089,1.066313 -4.86472,2.549051 -3.188669,2.05221 -4.951943,3.556337 -9.00909,7.685023 l -3.183283,3.239415 -0.370774,-0.191735 -0.370774,-0.191734 0.177846,-0.66526 c 0.525808,-1.966862 1.190321,-6.570585 1.188541,-8.234168 -0.0028,-2.589147 -0.77603,-4.434014 -2.366127,-5.645198 -1.913584,-1.457586 -4.607618,-1.723544 -7.572734,-0.747591 -1.393546,0.458678 -4.080913,1.725874 -5.046606,2.379668 -0.403744,0.273342 -0.909534,0.587124 -1.123979,0.697293 -0.214444,0.11017 -1.095171,0.724869 -1.957171,1.365998 -4.965296,3.693039 -9.123269,7.613413 -16.522632,15.578483 -2.372561,2.553952 -2.415584,2.594193 -2.637357,2.46687 -0.554466,-0.318328 -0.552049,-0.309139 -0.269492,-1.024866 2.176539,-5.513229 3.178559,-11.921689 2.416794,-15.4567 -0.713923,-3.312994 -2.232759,-5.350892 -4.986242,-6.690288 -2.005909,-0.975748 -2.77946,-1.128435 -5.706038,-1.126277 -1.872494,0.0014 -2.848858,0.06041 -3.776593,0.228338 -4.241211,0.767684 -8.451796,2.294883 -12.478607,4.526048 -0.953841,0.528501 -1.756859,0.922307 -1.784485,0.875124 -0.02763,-0.04718 -0.089,-0.266644 -0.136384,-0.487688 -0.07663,-0.357455 0.02888,-0.573889 0.954039,-1.957171 1.336654,-1.998531 3.004856,-4.209193 4.451824,-5.899452 1.626479,-1.899951 5.755842,-5.997167 7.024963,-6.970275 0.590308,-0.452623 1.620257,-1.251487 2.288775,-1.775254 1.486868,-1.164924 5.474973,-3.709933 7.671285,-4.89543 1.670766,-0.901824 5.61727,-2.708414 7.401937,-3.388383 1.0385,-0.395674 4.079697,-1.282125 6.313453,-1.840252 2.145249,-0.536011 4.422742,-0.946007 7.497673,-1.349734 2.621274,-0.344165 3.328572,-0.38888 6.313454,-0.399134 4.201056,-0.01443 7.073886,0.235086 11.253283,0.977401 3.85906,0.685419 6.361194,1.367494 9.904348,2.699898 3.472813,1.305952 8.455753,3.764814 11.371993,5.611574 1.33005,0.842283 5.25794,3.784534 6.69226,5.012951 1.76304,1.509956 6.19482,6.074597 7.53085,7.756631 4.00894,5.047173 6.92677,10.090836 8.99839,15.554302 1.968,5.190207 2.95177,8.916486 3.47749,13.171911 0.64467,5.218234 0.81261,9.520627 0.44173,11.316184 -0.47821,2.315144 -1.35025,4.319684 -2.35971,5.424191 -1.1489,1.257086 -3.10636,2.566543 -5.04829,3.377087 l -0.47032,0.19631 -0.41356,-0.486102 z m 1.78122,-1.13234 c 1.17694,-0.591754 2.83618,-1.81452 3.52666,-2.598951 0.90979,-1.033581 1.80351,-3.26675 2.18572,-5.461531 0.25707,-1.476199 -0.0446,-7.052342 -0.59243,-10.950521 -0.85958,-6.116515 -3.18848,-13.138465 -6.21758,-18.74682 -2.7756,-5.138993 -5.36902,-8.673684 -9.45476,-12.886307 -2.67887,-2.762071 -4.2135,-4.129426 -6.91219,-6.158758 -3.64128,-2.73814 -5.01408,-3.577645 -9.54207,-5.835267 -2.46135,-1.227207 -5.527894,-2.477408 -8.144355,-3.320372 -1.573292,-0.506879 -4.858618,-1.354552 -5.202176,-1.342256 -0.125067,0.0045 0.628654,0.223565 1.674937,0.486863 4.744692,1.194007 9.108494,2.962312 13.807724,5.59518 3.2707,1.832491 6.25233,3.743807 7.96539,5.106054 1.3353,1.061839 4.98361,4.520412 6.79281,6.43953 5.58035,5.919403 9.82236,12.723963 12.26662,19.676744 1.8548,5.27605 3.20789,12.359685 3.37673,17.67767 0.11572,3.644564 -0.27758,6.082805 -1.29259,8.013384 -1.44362,2.745807 -4.86208,5.168464 -5.66844,4.017216 -0.10811,-0.154348 -0.19657,-0.241508 -0.19657,-0.193687 0,0.184749 0.43105,0.979397 0.53127,0.979397 0.0581,0 0.55101,-0.223905 1.0953,-0.497568 z m -1.76687,-1.1299 c -0.0778,-0.22315 -0.16353,-0.383631 -0.19054,-0.356623 -0.027,0.02701 0.0145,0.231682 0.0923,0.454832 0.0778,0.223151 0.16354,0.383631 0.19055,0.356623 0.027,-0.02701 -0.0145,-0.231682 -0.0923,-0.454832 z m -0.31066,-1.078298 c -0.0464,-0.185048 -0.10879,-0.3121 -0.13856,-0.282337 -0.0298,0.02976 -0.0161,0.205519 0.0303,0.390568 0.0465,0.185048 0.1088,0.3121 0.13856,0.282337 0.0298,-0.02976 0.0161,-0.205519 -0.0303,-0.390568 z m -0.48616,-1.852325 c -0.28621,-1.214479 -1.6405,-8.295779 -2.16858,-11.339101 -0.12532,-0.722214 -0.24789,-1.253009 -0.27238,-1.179545 -0.0514,0.154127 1.0597,6.733183 1.62579,9.626862 0.36773,1.879746 0.9936,4.336316 1.0822,4.247715 0.0234,-0.02338 -0.0968,-0.63355 -0.26703,-1.355931 z m -2.51479,-13.151146 c -0.035,-0.08681 -0.0637,-0.01578 -0.0637,0.157837 0,0.17362 0.0287,0.244646 0.0637,0.157836 0.035,-0.08681 0.035,-0.228863 0,-0.315673 z m -0.1336,-0.691849 c -0.042,-0.04196 -0.0718,0.03262 -0.0663,0.165728 0.006,0.147097 0.036,0.177016 0.0763,0.07629 0.0365,-0.09115 0.032,-0.200059 -0.01,-0.242016 l 0,0 z m -0.12627,-0.757615 c -0.042,-0.04196 -0.0718,0.03262 -0.0663,0.165728 0.006,0.147097 0.036,0.177017 0.0763,0.07629 0.0365,-0.09115 0.032,-0.200058 -0.01,-0.242016 l 0,0 z M 57.316543,58.544335 c 3.72619,-3.961601 3.910111,-4.178789 2.384724,-2.816062 -1.62348,1.450359 -3.05238,2.597781 -3.565462,2.863106 l -0.384733,0.198954 0.08712,-0.675426 c 0.04792,-0.371485 0.114061,-0.90271 0.146991,-1.180502 0.03293,-0.277792 -0.136246,0.233598 -0.375945,1.136421 -0.2397,0.902824 -0.553474,1.977115 -0.697274,2.387313 -0.273618,0.780503 -0.287371,0.832549 -0.220014,0.832549 0.02279,0 1.203862,-1.235859 2.624596,-2.746353 z m 35.585409,-5.920177 1.965251,-1.974268 -1.702985,1.460318 c -0.936641,0.803175 -1.730212,1.433089 -1.76349,1.399811 -0.03328,-0.03328 -0.09084,-0.515646 -0.127917,-1.071931 l -0.06741,-1.011425 -0.254127,1.585881 c -0.145107,0.905544 -0.202743,1.585883 -0.134349,1.585883 0.06588,0 1.004141,-0.888422 2.085028,-1.974269 z M 63.426205,52.325584 c 0.125699,-0.138896 0.200134,-0.252538 0.16541,-0.252538 -0.03472,0 -0.16598,0.113642 -0.291679,0.252538 -0.1257,0.138896 -0.200134,0.252538 -0.16541,0.252538 0.03472,0 0.165979,-0.113642 0.291679,-0.252538 z m 1.325825,-1.199556 c 0.163108,-0.17362 0.268149,-0.315673 0.233425,-0.315673 -0.03472,0 -0.196586,0.142053 -0.359694,0.315673 -0.163108,0.17362 -0.268149,0.315672 -0.233425,0.315672 0.03472,0 0.196586,-0.142052 0.359694,-0.315672 z m 1.38896,-1.309938 c 0,-0.03472 -0.170464,0.100179 -0.378808,0.299785 -0.208344,0.199606 -0.378807,0.391331 -0.378807,0.426055 0,0.03472 0.170463,-0.10018 0.378807,-0.299786 0.208344,-0.199606 0.378808,-0.39133 0.378808,-0.426054 z m 0.694479,-0.520964 c 0.1257,-0.138896 0.200134,-0.252538 0.16541,-0.252538 -0.03472,0 -0.165979,0.113642 -0.291679,0.252538 -0.125699,0.138896 -0.200134,0.252538 -0.16541,0.252538 0.03472,0 0.16598,-0.113642 0.291679,-0.252538 z m 52.834001,-1.257342 c -0.36647,-0.700753 -0.73854,-1.334051 -0.82684,-1.40733 -0.0883,-0.07328 0.0786,0.286334 0.3708,0.79914 0.29224,0.512808 0.63909,1.171328 0.77079,1.463377 0.1317,0.29205 0.26467,0.505778 0.29549,0.474953 0.0308,-0.03083 -0.24379,-0.629388 -0.61024,-1.33014 z M 33.029899,41.033629 c 0.852373,-0.337415 1.533947,-0.629304 1.514609,-0.648642 -0.01934,-0.01934 -0.773248,0.187554 -1.675355,0.459761 -1.867308,0.563453 -2.841117,0.735993 -2.841117,0.503393 0,-0.52855 1.139125,-1.905959 3.910884,-4.728975 3.214333,-3.273772 7.129965,-6.986897 8.336491,-7.905346 3.754162,-2.857801 10.069851,-6.194438 15.62467,-8.25466 2.982052,-1.10601 7.919367,-2.361747 10.703155,-2.722197 1.971367,-0.255256 4.717256,-0.385422 8.144355,-0.386076 3.939466,-7.45e-4 6.761862,0.149637 9.584081,0.510676 1.069642,0.136837 1.965175,0.228422 1.990074,0.203523 0.102788,-0.102788 -4.215301,-0.733626 -6.207719,-0.906897 -1.181025,-0.102708 -3.579293,-0.186962 -5.331742,-0.187311 -2.791574,-5.55e-4 -3.556127,0.04622 -6.187184,0.378549 -3.775923,0.476935 -6.159278,0.945307 -9.757412,1.917508 -3.217791,0.869433 -4.058192,1.170844 -7.277427,2.610055 -3.541066,1.58309 -6.013123,2.963108 -9.895167,5.523944 -1.42698,0.941325 -4.803828,3.668015 -6.380255,5.151839 -1.410765,1.327895 -4.030871,4.135186 -5.373082,5.756944 -1.156384,1.397228 -3.52522,4.621358 -3.52522,4.798038 0,0.04632 0.696058,-0.263378 1.546796,-0.688214 0.850738,-0.424838 2.244192,-1.048498 3.096565,-1.385912 z m 82.103491,2.014421 c 0,-0.07659 -0.71224,-0.446906 -0.84605,-0.439891 -0.0555,0.0029 0.0979,0.114171 0.34097,0.247245 0.49769,0.272472 0.50508,0.27529 0.50508,0.192646 z M 90.011786,42.487701 C 89.8357,42.15868 88.669044,41.139691 88.038583,40.76425 87.041555,40.170518 86.118922,39.932542 84.639408,39.8875 l -1.38896,-0.04229 1.262691,0.09653 c 0.69448,0.05309 1.518386,0.167435 1.830902,0.254099 0.993452,0.275493 2.194243,0.99445 2.969651,1.778034 0.41106,0.415394 0.765364,0.755261 0.787343,0.755261 0.02198,0 -0.01818,-0.108646 -0.08925,-0.241434 z m 23.733384,-0.09748 c -0.24266,-0.105625 -0.64041,-0.215804 -0.88389,-0.244842 -0.30309,-0.03615 -0.22582,0.0089 0.24504,0.14297 0.37825,0.107673 0.71444,0.222487 0.74709,0.255142 0.0327,0.03266 0.12093,0.05474 0.19617,0.04907 0.0752,-0.0057 -0.0618,-0.09672 -0.30441,-0.202345 z m -5.28037,-0.126149 c -0.0911,-0.03648 -0.20006,-0.03199 -0.24201,0.01 -0.042,0.04196 0.0326,0.0718 0.16572,0.06632 0.1471,-0.0061 0.17702,-0.03598 0.0763,-0.07629 l 0,5e-6 z M 54.019159,42.056665 c 0,-0.02262 -0.156258,-0.178876 -0.34724,-0.34724 l -0.34724,-0.306116 0.306116,0.34724 c 0.286111,0.324548 0.388364,0.405146 0.388364,0.306116 z M 111.62942,42.0043 c -0.43405,-0.02466 -1.14431,-0.02466 -1.57836,0 -0.43405,0.02466 -0.0789,0.04483 0.78918,0.04483 0.8681,0 1.22323,-0.02017 0.78918,-0.04483 z M 88.961721,18.145432 c -0.122856,-0.03202 -0.293319,-0.02991 -0.378807,0.0047 -0.08549,0.03459 0.01503,0.06078 0.223373,0.05821 0.208344,-0.0026 0.27829,-0.03087 0.155434,-0.06289 z"
         id="path3444"
         inkscape:connector-curvature="0" />
      <path
         style="fill:#7986cb;fill-opacity:1"
         d="m 127.98667,86.676791 c -0.49281,-0.579237 -0.77549,-1.299217 -1.53921,-3.920362 -0.66685,-2.288678 -0.99136,-3.965014 -2.78661,-14.394674 -1.83152,-10.640372 -2.47945,-14.019552 -3.15436,-16.451011 -0.88947,-3.204462 -3.30998,-6.648367 -5.68877,-8.093997 -1.16738,-0.70943 -1.55455,-0.836887 -2.89935,-0.954462 -3.53297,-0.308884 -5.903,0.528643 -10.73771,3.794517 -2.474342,1.671429 -3.959359,2.96959 -7.732643,6.75967 -1.891721,1.900138 -3.470504,3.454798 -3.508409,3.454798 -0.03791,0 -0.200866,-0.08646 -0.362136,-0.192123 l -0.293217,-0.192124 0.236347,-0.975865 c 0.346862,-1.432185 0.818014,-4.396829 1.003803,-6.316282 0.337711,-3.489001 -0.369683,-5.793381 -2.215611,-7.217506 -1.942649,-1.498742 -4.715448,-1.744892 -7.837019,-0.695715 -1.097988,0.369041 -3.617534,1.572587 -4.840802,2.312372 -1.240833,0.75041 -4.100496,2.812141 -5.701911,4.110909 -3.505502,2.843008 -7.626127,6.829661 -12.871083,12.452613 -3.43719,3.684905 -3.419107,3.667388 -3.649241,3.535226 -0.553881,-0.318083 -0.552035,-0.2919 -0.103471,-1.467334 1.633007,-4.279209 2.411802,-8.162942 2.415637,-12.046431 0.002,-2.015279 -0.03685,-2.489862 -0.282949,-3.456867 -0.781382,-3.070381 -2.36576,-5.034878 -5.079209,-6.297801 -1.864513,-0.867802 -2.640445,-1.018227 -5.304691,-1.02838 -2.719128,-0.01037 -3.828877,0.128296 -6.604812,0.825244 -3.24363,0.81437 -6.26694,2.01335 -9.557629,3.790349 -1.006995,0.543786 -1.887722,0.99428 -1.95717,1.0011 -0.06945,0.0068 -0.174586,-0.191906 -0.23364,-0.441612 -0.100473,-0.424845 -0.05211,-0.537117 0.752855,-1.747737 3.945022,-5.933077 8.896438,-11.161069 14.50886,-15.319296 1.471772,-1.090432 5.175345,-3.418297 7.069012,-4.443199 1.741792,-0.942703 5.902301,-2.844805 7.558613,-3.455646 0.908584,-0.335083 3.528321,-1.104593 5.889043,-1.729823 3.266479,-0.865116 8.571761,-1.641481 12.248099,-1.792363 4.309937,-0.176885 8.172324,0.09446 12.879445,0.904816 5.933605,1.021504 10.467972,2.542402 16.185519,5.428874 4.04812,2.043674 5.69675,3.062619 9.07163,5.606783 2.28946,1.725916 3.31103,2.602993 5.28754,4.539677 3.12068,3.0578 4.60443,4.702151 6.40437,7.097597 3.33202,4.434406 5.9056,9.045734 7.77298,13.927548 1.73159,4.526831 2.98231,9.045246 3.38159,12.216533 0.0721,0.572946 0.18674,1.482083 0.25468,2.020305 0.50562,4.00557 0.64606,8.708049 0.3094,10.359387 -0.84419,4.140656 -2.53034,6.369036 -6.22373,8.225153 -1.67203,0.840278 -1.5859,0.82913 -2.06404,0.267139 z m 2.0889,-1.312479 c 1.18261,-0.623338 2.86659,-1.941475 3.3971,-2.659087 0.58012,-0.784716 1.31618,-2.427339 1.68054,-3.750348 0.58992,-2.142067 0.52109,-6.09423 -0.2065,-11.855812 -1.09328,-8.657381 -4.93363,-18.325704 -10.17237,-25.609538 -2.52411,-3.509472 -6.40399,-7.731486 -9.739,-10.597804 -1.19067,-1.02334 -5.04598,-3.894803 -6.37704,-4.749663 -2.67341,-1.71698 -7.86829,-4.304809 -11.020296,-5.489762 -2.699993,-1.015025 -7.06718,-2.317685 -7.655043,-2.283375 -0.09159,0.0053 0.572153,0.203623 1.474977,0.440615 5.457408,1.43258 10.128312,3.473683 15.973032,6.979934 1.92809,1.15666 3.91347,2.473349 5.17704,3.433379 1.12202,0.852485 4.54527,4.045473 6.50805,6.070286 5.90004,6.086522 10.48219,13.402445 12.96135,20.69425 1.76793,5.199905 3.05482,12.046281 3.216,17.109459 0.1197,3.760097 -0.18097,5.786371 -1.16167,7.828682 -1.38877,2.892123 -4.67134,5.386636 -5.77455,4.388241 -0.24028,-0.217449 -0.24053,-0.213851 -0.0177,0.253483 0.26723,0.560399 0.29369,0.557306 1.73605,-0.20294 z m -2.11272,-1.058456 c -0.042,-0.04196 -0.0718,0.03262 -0.0663,0.165728 0.006,0.147097 0.036,0.177016 0.0763,0.07629 0.0365,-0.09115 0.032,-0.200058 -0.01,-0.242016 l -1e-5,0 z m -0.8163,-3.024565 c -0.25983,-1.112689 -1.93072,-9.895494 -2.10957,-11.088634 -0.052,-0.34724 -0.11668,-0.566598 -0.14363,-0.487463 -0.0469,0.137834 0.43347,3.051492 1.23582,7.495396 0.40061,2.218802 1.12741,5.344024 1.22104,5.250396 0.031,-0.03097 -0.0607,-0.557337 -0.20366,-1.169695 z m -2.33309,-12.193488 c -0.035,-0.08681 -0.0637,-0.01578 -0.0637,0.157836 0,0.17362 0.0287,0.244646 0.0637,0.157836 0.035,-0.08681 0.035,-0.228862 0,-0.315672 z M 57.748496,58.070826 c 3.004067,-3.209166 3.059931,-3.280723 1.510829,-1.93526 -1.475106,1.281195 -3.212045,2.62974 -3.387131,2.62974 -0.05795,0 -0.07256,-0.383542 -0.03246,-0.852316 l 0.07291,-0.852316 -0.369707,1.325825 c -0.203339,0.729204 -0.487323,1.661442 -0.631074,2.07164 -0.143752,0.410198 -0.261367,0.7787 -0.261367,0.818891 0,0.08994 0.400771,-0.324833 3.097992,-3.206204 z m 35.792881,-6.105055 1.073288,-1.064776 -1.182008,0.996399 c -2.15897,1.819954 -2.003789,1.709244 -2.088046,1.489673 -0.04184,-0.109039 -0.08285,-0.548739 -0.09113,-0.977109 l -0.01505,-0.778854 -0.163067,0.820749 c -0.08969,0.451412 -0.202273,1.133265 -0.250189,1.515229 l -0.08712,0.69448 0.865018,-0.815507 c 0.475761,-0.448529 1.347999,-1.294657 1.938306,-1.880284 z M 64.75203,51.126028 c 0.08646,-0.104172 0.12878,-0.189404 0.09406,-0.189404 -0.03472,0 -0.13387,0.08523 -0.220325,0.189404 -0.08646,0.104172 -0.128781,0.189403 -0.09406,0.189403 0.03472,0 0.133871,-0.08523 0.220326,-0.189403 z m 1.073287,-0.947018 c 0.1257,-0.138896 0.200134,-0.252538 0.16541,-0.252538 -0.03472,0 -0.16598,0.113642 -0.291679,0.252538 -0.1257,0.138896 -0.200134,0.252538 -0.16541,0.252538 0.03472,0 0.165979,-0.113642 0.291679,-0.252538 z m 53.986473,-1.881259 c -0.21389,-0.423715 -0.41595,-0.770392 -0.44903,-0.770392 -0.0331,0 0.12109,0.367511 0.34259,0.816693 0.22151,0.449181 0.42357,0.795857 0.44904,0.770392 0.0255,-0.02547 -0.12871,-0.392977 -0.3426,-0.816693 z m -90.128471,-5.77741 c 0.641006,-0.323179 1.960961,-0.923365 2.933233,-1.333745 1.950847,-0.82342 1.941694,-0.828873 -0.294204,-0.175269 -1.632886,0.477331 -2.294635,0.563093 -2.29384,0.297281 0.0018,-0.612086 1.624955,-2.447284 5.890989,-6.660694 4.950979,-4.889905 5.843788,-5.673475 8.45782,-7.422965 3.523846,-2.3584 9.383964,-5.276368 13.830827,-6.886875 1.478523,-0.535473 6.100977,-1.84866 7.212686,-2.049043 0.263668,-0.04753 0.453095,-0.112712 0.420949,-0.144858 -0.152522,-0.152521 -5.63355,1.217231 -8.034548,2.007897 -2.269556,0.747381 -7.058289,2.958874 -9.661687,4.46188 -7.335969,4.235237 -13.009367,9.294637 -18.118911,16.158014 -1.364401,1.832726 -1.706719,2.335978 -1.588959,2.335978 0.0441,0 0.604639,-0.26442 1.245645,-0.587601 z m 85.134401,0.335063 c -0.0429,-0.06945 -0.14572,-0.125399 -0.22843,-0.124336 -0.0904,0.0011 -0.0748,0.05079 0.039,0.124336 0.24258,0.156767 0.28629,0.156767 0.18941,0 z M 89.853645,42.31876 c -0.458407,-0.605211 -1.960259,-1.702746 -2.72173,-1.989008 -0.36532,-0.137335 -0.90512,-0.278721 -1.199556,-0.314189 -0.445295,-0.05364 -0.4126,-0.03297 0.194385,0.122894 1.188006,0.30506 2.115247,0.831045 3.057424,1.734349 0.486646,0.466568 0.906297,0.85011 0.93256,0.852316 0.02626,0.0022 -0.09212,-0.180656 -0.263083,-0.406362 z M 113.3893,42.26407 c -0.0911,-0.03648 -0.20006,-0.03199 -0.24202,0.01 -0.042,0.04196 0.0326,0.0718 0.16573,0.06632 0.1471,-0.0061 0.17702,-0.03598 0.0763,-0.07629 l 0,5e-6 z m -3.15673,-0.252538 c -0.0911,-0.03648 -0.20006,-0.03199 -0.24202,0.01 -0.0419,0.04196 0.0326,0.0718 0.16573,0.06632 0.1471,-0.0061 0.17702,-0.03598 0.0763,-0.07629 l 0,5e-6 z M 84.986648,39.862103 c -0.156258,-0.0301 -0.411953,-0.0301 -0.568211,0 -0.156258,0.0301 -0.02841,0.05472 0.284106,0.05472 0.312516,0 0.440363,-0.02463 0.284105,-0.05472 z m 4.664064,-21.589155 c -0.09115,-0.03647 -0.200058,-0.03199 -0.242016,0.01 -0.04196,0.04196 0.03262,0.0718 0.165728,0.06632 0.147097,-0.0061 0.177016,-0.03598 0.07629,-0.07629 z m -0.757615,-0.126269 c -0.09115,-0.03647 -0.200058,-0.03199 -0.242016,0.01 -0.04196,0.04196 0.03262,0.0718 0.165728,0.06632 0.147098,-0.0061 0.177017,-0.03598 0.07629,-0.07629 z M 66.961739,17.980397 c 0.337897,-0.08598 0.344715,-0.09639 0.06313,-0.09639 -0.17362,0 -0.486136,0.04338 -0.69448,0.09639 -0.337897,0.08598 -0.344716,0.09639 -0.06313,0.09639 0.17362,0 0.486136,-0.04338 0.69448,-0.09639 z m 20.977421,-0.0039 c -0.610072,-0.182754 -4.842021,-0.742436 -6.639555,-0.878091 -3.914809,-0.295441 -9.339962,-0.0761 -12.44383,0.503114 l -0.631346,0.117815 0.69448,-0.05789 c 3.3835,-0.282043 5.31177,-0.337717 9.407046,-0.271603 4.434159,0.07158 6.207755,0.181743 8.396893,0.521534 1.26655,0.19659 1.739756,0.221925 1.216312,0.06512 z M 68.003458,17.767088 c -0.121534,-0.03176 -0.320407,-0.03176 -0.441941,0 -0.121534,0.03176 -0.0221,0.05775 0.220971,0.05775 0.243067,0 0.342504,-0.02599 0.22097,-0.05775 z"
         id="path3446"
         inkscape:connector-curvature="0" />
      <path
         style="fill:#7986cb;fill-opacity:1"
         d="m 28.721402,42.715061 c 0.294308,-0.462381 1.152232,-1.642399 1.228255,-1.689383 0.04178,-0.02582 0.04892,0.09721 0.01586,0.273401 -0.04722,0.25169 -0.02869,0.332398 0.08646,0.376584 0.08061,0.03093 0.649273,-0.0941 1.263708,-0.277847 0.614435,-0.183747 1.138495,-0.312745 1.164577,-0.286662 0.02608,0.02608 -0.04601,0.07605 -0.160198,0.111028 -0.404338,0.123868 -2.625434,1.155927 -3.109407,1.444822 -0.598653,0.357351 -0.691954,0.366515 -0.489253,0.04806 z"
         id="path3448"
         inkscape:connector-curvature="0" />
      <path
         style="fill:#9c2d3e;fill-opacity:1"
         d="m 128.0439,86.824002 c -0.45738,-0.520926 -0.83593,-1.450182 -1.47006,-3.608672 -0.8592,-2.924608 -0.99567,-3.613195 -2.81085,-14.183305 -2.37601,-13.83603 -3.04708,-17.08783 -3.90769,-18.935363 -1.51517,-3.252725 -3.54774,-5.586663 -5.89965,-6.774373 -0.54443,-0.274936 -1.39643,-0.437874 -2.64678,-0.506173 -1.51162,-0.08257 -2.67362,0.06931 -3.9638,0.518104 -1.89709,0.659903 -2.91422,1.194121 -5.53804,2.908692 -1.75813,1.148876 -2.183873,1.464243 -3.757089,2.783069 -1.174865,0.984889 -6.065581,5.77968 -7.279144,7.136373 -0.687147,0.768191 -0.719697,0.791821 -0.935142,0.678873 -0.600859,-0.315004 -0.587179,-0.24252 -0.287129,-1.521447 0.148884,-0.634604 0.354292,-1.656059 0.456463,-2.269898 0.804911,-4.835924 0.767692,-7.330527 -0.136907,-9.176218 -0.481425,-0.982272 -1.502803,-1.988493 -2.536582,-2.498941 -2.099355,-1.036594 -4.793417,-0.954894 -7.674416,0.232735 -1.45335,0.599111 -3.133114,1.431593 -3.880887,1.923345 -0.39453,0.259451 -0.978488,0.627837 -1.297685,0.818633 -0.759778,0.454149 -3.774196,2.712356 -5.133928,3.846006 -3.895076,3.247444 -7.824026,7.131555 -14.322662,14.159207 -1.358615,1.469213 -1.379188,1.486704 -1.607143,1.36641 -0.601813,-0.317583 -0.600959,-0.21436 -0.01482,-1.790781 0.682745,-1.836232 1.17569,-3.48177 1.563628,-5.219682 0.547675,-2.453501 0.690233,-3.64284 0.738444,-6.160714 0.0414,-2.161955 0.03252,-2.330823 -0.17597,-3.348214 -0.702939,-3.430173 -2.474362,-5.640522 -5.566412,-6.945665 -1.597098,-0.67413 -2.192437,-0.788333 -4.390634,-0.842242 -2.829793,-0.0694 -4.256209,0.09493 -7.183708,0.827588 -2.210331,0.553174 -4.900699,1.518033 -7.088122,2.542047 -0.977607,0.457654 -3.39045,1.736039 -3.981942,2.109732 -0.183099,0.115679 -0.367335,0.210325 -0.409414,0.210325 -0.04208,0 -0.137106,-0.217717 -0.211171,-0.483817 L 26.56,44.13582 27.519943,42.708461 c 0.963698,-1.432941 2.914884,-4.072124 3.873221,-5.238936 1.758174,-2.140647 6.162703,-6.564914 7.817491,-7.852527 3.71143,-2.887912 3.764922,-2.925187 7.732648,-5.388575 1.190964,-0.739417 3.818441,-2.110262 5.436995,-2.836667 4.071848,-1.827441 4.598028,-2.020204 8.235468,-3.017023 3.444768,-0.944018 6.08866,-1.472186 9.621675,-1.922111 2.443239,-0.311144 3.076768,-0.359291 5.401785,-0.410522 4.278187,-0.09427 7.470991,0.155592 12.008929,0.939791 4.454605,0.769798 7.167073,1.546223 11.736804,3.359579 2.301041,0.913097 7.078231,3.341391 9.423911,4.790274 1.5946,0.984954 5.78646,4.130325 7.41071,5.560649 1.55974,1.373512 4.60449,4.433277 5.94424,5.97356 4.06439,4.672763 7.66526,10.558573 9.88696,16.160715 1.40671,3.547077 2.54912,7.21045 3.14504,10.085144 0.15222,0.73433 0.296,1.366254 0.3195,1.404277 0.0235,0.03802 0.0996,0.562207 0.16909,1.164856 0.0695,0.602647 0.18611,1.537687 0.25913,2.077866 0.31352,2.319382 0.53893,5.540117 0.54052,7.723214 0.002,2.088882 -0.01,2.23379 -0.24653,3.214286 -0.43875,1.815738 -0.84871,2.878916 -1.60757,4.168987 -0.78687,1.337694 -2.45139,2.689086 -4.66038,3.783655 -0.78571,0.389327 -1.47463,0.707914 -1.53092,0.70797 -0.0563,5.6e-5 -0.23394,-0.149759 -0.39476,-0.332921 z m 1.46296,-1.177057 c 1.41753,-0.676558 3.20519,-1.996277 3.9073,-2.884522 0.72047,-0.911451 1.43245,-2.565147 1.83675,-4.266112 0.47987,-2.01892 0.33131,-6.706126 -0.37497,-11.830358 -1.05637,-7.664267 -4.16226,-15.980497 -8.52959,-22.838567 -2.23905,-3.516004 -4.55019,-6.326948 -8.20278,-9.976715 -2.4334,-2.431505 -3.3017,-3.183254 -6.10314,-5.283852 -2.57658,-1.931994 -3.59833,-2.608742 -5.73156,-3.79625 -3.65946,-2.037116 -6.562214,-3.366667 -10.087864,-4.62056 -1.927521,-0.68552 -5.658382,-1.757448 -6.044388,-1.736636 -0.06476,0.0035 0.565287,0.186736 1.400108,0.40721 3.382757,0.893375 6.965688,2.235344 10.089284,3.778892 3.65996,1.808595 8.62732,4.809712 11.05104,6.676675 1.58305,1.219411 6.47969,5.95894 8.28048,8.014803 5.21505,5.953746 8.97404,12.335512 11.20188,19.017858 1.12335,3.369467 1.7564,6.055776 2.45126,10.401785 1.12044,7.007721 0.91894,11.677677 -0.62767,14.546627 -1.4216,2.637059 -4.64993,5.032242 -5.61107,4.163004 l -0.19272,-0.174298 0.0991,0.260658 c 0.11652,0.306478 0.25605,0.489724 0.37288,0.489724 0.046,0 0.41307,-0.157215 0.81567,-0.349366 z m -2.42852,-4.619816 c -0.25865,-1.183867 -1.60361,-8.253353 -1.94232,-10.20939 -0.0893,-0.515625 -0.17558,-0.870669 -0.19177,-0.788988 -0.0673,0.339848 1.526,9.147999 1.95974,10.833631 0.15163,0.589286 0.2957,1.16352 0.32017,1.276076 0.0245,0.112556 0.0624,0.186692 0.0844,0.164746 0.022,-0.02194 -0.0816,-0.596179 -0.23018,-1.276075 z m -2.27284,-11.92814 c -0.0248,-0.06138 -0.045,-0.01116 -0.045,0.111607 0,0.122768 0.0203,0.172991 0.045,0.111607 0.0248,-0.06138 0.0248,-0.16183 0,-0.223214 z M 57.336625,58.49376 c 1.4362,-1.523724 2.696057,-2.879751 2.799684,-3.013393 0.187823,-0.242224 0.187392,-0.242147 -0.137514,0.02487 -0.179261,0.147322 -0.781487,0.665036 -1.338284,1.150475 -1.059969,0.92413 -2.022605,1.669297 -2.609962,2.020349 l -0.347607,0.207758 0.05384,-0.305362 c 0.02961,-0.167949 0.07568,-0.566523 0.102364,-0.88572 0.04627,-0.553368 0.0342,-0.528454 -0.259521,0.535714 -0.169425,0.61384 -0.446259,1.547992 -0.615188,2.075893 -0.168929,0.527902 -0.29633,0.959822 -0.283113,0.959822 0.01322,0 1.199102,-1.246683 2.635301,-2.770408 z m 35.044658,-5.457197 1.516872,-1.531177 -1.261396,1.080081 -1.261397,1.080079 -0.05459,-0.330153 c -0.03002,-0.181585 -0.05503,-0.608056 -0.05557,-0.947714 -5.36e-4,-0.339657 -0.01855,-0.599995 -0.04001,-0.578528 -0.02147,0.02147 -0.121754,0.540439 -0.222861,1.153273 -0.101108,0.612834 -0.203075,1.224735 -0.226595,1.359779 -0.02352,0.135045 -0.01319,0.245536 0.02295,0.245536 0.03615,0 0.74831,-0.689029 1.58259,-1.531176 z m 1.784729,-1.68311 c 0.08888,-0.09821 0.141516,-0.178571 0.116963,-0.178571 -0.02455,0 -0.117365,0.08036 -0.206249,0.178571 -0.08888,0.09821 -0.141516,0.178572 -0.116962,0.178572 0.02455,0 0.117365,-0.08036 0.206248,-0.178572 z M 65.773155,50.192739 c 0.08888,-0.09821 0.141516,-0.178571 0.116962,-0.178571 -0.02455,0 -0.117365,0.08036 -0.206248,0.178571 -0.08888,0.09821 -0.141516,0.178572 -0.116962,0.178572 0.02455,0 0.117365,-0.08036 0.206248,-0.178572 z m 53.736165,-2.459208 c -0.0291,-0.07578 -0.072,-0.11863 -0.0954,-0.09523 -0.0234,0.0234 -0.0161,0.08541 0.0163,0.13778 0.088,0.142451 0.1395,0.114777 0.0791,-0.04255 z M 32.755428,41.121262 c 0.697393,-0.286289 1.255649,-0.532863 1.240569,-0.547943 -0.01508,-0.01508 -0.712525,0.171349 -1.549877,0.414287 -1.868218,0.54202 -2.318745,0.621209 -2.395547,0.421068 -0.189103,-0.492796 1.126983,-2.036133 5.224983,-6.127188 4.075886,-4.068976 5.940063,-5.806891 7.373908,-6.874461 3.776769,-2.811998 10.485813,-6.279555 15.802262,-8.167371 1.461781,-0.519064 2.987284,-0.962905 5.669643,-1.649568 2.028418,-0.519259 2.019789,-0.589492 -0.01655,-0.134722 -2.17726,0.486242 -6.329484,1.674456 -7.572733,2.167038 -2.806361,1.111897 -6.674221,2.976323 -8.839286,4.260804 -5.075581,3.01122 -9.016848,6.120955 -12.744122,10.055356 -1.632767,1.7235 -2.91315,3.212524 -4.199779,4.88414 -1.016214,1.320286 -2.341814,3.162369 -2.341814,3.254236 0,0.02739 0.693081,-0.284307 1.540179,-0.692671 0.847098,-0.408364 2.110773,-0.976716 2.808166,-1.263005 z m 57.17645,1.313364 c -0.716135,-1.005721 -2.664405,-2.234979 -3.762109,-2.373698 -0.385909,-0.04877 -0.38336,-0.0464 0.09446,0.08788 1.211864,0.340571 2.736859,1.292932 3.435405,2.145415 0.366171,0.446864 0.514183,0.536341 0.232247,0.140399 z m 23.402662,-0.160022 c -0.0645,-0.02579 -0.14146,-0.02262 -0.17113,0.007 -0.0297,0.02967 0.0231,0.05077 0.11719,0.04689 0.10401,-0.0043 0.12516,-0.02544 0.0539,-0.05394 l 0,3e-6 z M 84.768691,39.86575 c -0.06138,-0.02477 -0.161831,-0.02477 -0.223215,0 -0.06138,0.02477 -0.01116,0.04503 0.111608,0.04503 0.122767,0 0.172991,-0.02027 0.111607,-0.04503 z m 4.101562,-21.698289 c -0.06445,-0.02579 -0.141462,-0.02262 -0.171131,0.007 -0.02967,0.02967 0.02307,0.05077 0.117188,0.04689 0.104013,-0.0043 0.125169,-0.02544 0.05394,-0.05394 z M 66.933869,17.960596 c 0.23893,-0.0608 0.243751,-0.06816 0.04464,-0.06816 -0.122768,0 -0.34375,0.03067 -0.491071,0.06816 -0.23893,0.0608 -0.243751,0.06816 -0.04464,0.06816 0.122768,0 0.34375,-0.03067 0.491071,-0.06816 z m 21.108632,0.05332 c -0.07475,-0.07226 -3.466044,-0.586107 -4.724703,-0.715888 -2.68111,-0.276452 -4.385912,-0.343467 -7.366072,-0.289559 -2.853057,0.05161 -3.465786,0.09883 -6.6323,0.511158 -1.32643,0.172721 -0.891454,0.191919 0.794688,0.03508 2.087352,-0.194164 8.301537,-0.272297 11.10547,-0.139634 2.246346,0.106283 4.389503,0.293345 5.669642,0.494866 0.802338,0.126305 1.214841,0.163497 1.153275,0.103981 z M 67.709539,17.810318 c -0.06445,-0.02579 -0.141463,-0.02262 -0.171131,0.007 -0.02967,0.02967 0.02307,0.05077 0.117187,0.04689 0.104014,-0.0043 0.12517,-0.02544 0.05394,-0.05394 z"
         id="path3450"
         inkscape:connector-curvature="0" />
      <path
         style="fill:#7986cb;fill-opacity:1"
         d="m 90.877902,54.15998 c 0.0298,-0.193143 0.106953,-0.632419 0.17145,-0.976169 l 0.117267,-0.625 -0.0199,0.691964 c -0.01094,0.38058 -0.0012,0.691964 0.0216,0.691964 0.02282,0 0.153763,-0.107562 0.290982,-0.239026 0.13722,-0.131465 0.269005,-0.219513 0.292856,-0.195662 0.02385,0.02385 -0.175291,0.259305 -0.442537,0.523232 l -0.485902,0.479866 0.05418,-0.351169 z"
         id="path3452"
         inkscape:connector-curvature="0" />
    </g>
  </g>
  <path
     inkscape:connector-curvature="0"
     style="fill:#000000"
     d=""
     id="path3454" />
</svg>
