<?xml version="1.0" encoding="UTF-8" standalone="no"?>
<svg
   xmlns:dc="http://purl.org/dc/elements/1.1/"
   xmlns:cc="http://creativecommons.org/ns#"
   xmlns:rdf="http://www.w3.org/1999/02/22-rdf-syntax-ns#"
   xmlns:svg="http://www.w3.org/2000/svg"
   xmlns="http://www.w3.org/2000/svg"
   version="1.1"
   id="svg2"
   viewBox="0 0 798.54272 799.1661"
   height="225.54243mm"
   width="225.3665mm">
  <defs
     id="defs4">
    <filter
       id="filter3361"
       style="color-interpolation-filters:sRGB">
      <feFlood
         flood-color="rgb(251,192,45)"
         id="feFlood3363" />
    </filter>
  </defs>
  <metadata
     id="metadata7">
    <rdf:RDF>
      <cc:Work
         rdf:about="">
        <dc:format>image/svg+xml</dc:format>
        <dc:type
           rdf:resource="http://purl.org/dc/dcmitype/StillImage" />
        <dc:title></dc:title>
      </cc:Work>
    </rdf:RDF>
  </metadata>
  <g
     transform="translate(7.8422714,-144.41465)"
     id="layer1">
    <path
       style="fill:#fafbfd"
       d="m -1297.1429,626.6479 0,-400 400.00004,0 400,0 0,400 0,400 -400,0 -400.00004,0 0,-400 z"
       id="path3357" />
    <path
       style="fill:#65acb0;fill-opacity:1"
       d="m 365.17857,942.96186 c -32.0789,-3.144 -50.9518,-6.2604 -74.1895,-12.2503 C 144.14523,892.85987 29.914829,772.47825 -0.24887143,623.79076 c -6.10139997,-30.07599 -7.59339997,-45.7946 -7.59339997,-80 0,-33.90726 1.4578,-49.49389 7.42939997,-79.4351 C 11.748629,403.37893 40.616129,342.20335 80.957929,291.91576 130.44773,230.22468 203.78573,181.7533 281.42853,159.41827 c 17.78864,-5.11713 40.54964,-9.78393 61.87504,-12.68655 22.698,-3.08943 73.5521,-3.08943 96.25,0 48.8629,6.65075 88.7816,18.79458 130.7938,39.78931 38.4502,19.21466 73.044,44.16733 103.6138,74.73717 53.4224,53.42238 90.571,120.56816 107.3105,193.96248 7.116,31.20038 9.4288,52.92593 9.4288,88.57008 0,26.28571 -0.4928,35.382 -2.8105,51.875 -9.9414,70.74276 -35.2981,132.63587 -77.2441,188.54484 -75.3013,100.36746 -196.3622,160.44896 -321.0923,159.35546 -11,-0.096 -21.9687,-0.3683 -24.375,-0.6042 z M 255.75163,788.12677 c 18.0568,-4.7032 35.23454,-18.67229 43.58214,-35.44146 7.6561,-15.37998 13.0814,-13.89161 -50.71774,-13.91369 -30.4218,-0.01 -56.0545,-0.48966 -56.9615,-1.06474 -1.0332,-0.65516 -1.5,-2.8651 -1.25,-5.91836 l 0.399,-4.87276 57.2338,-0.625 c 49.04884,-0.53562 57.40324,-0.89314 58.41844,-2.5 1.9174,-3.03491 1.5362,-28.18384 -0.4522,-29.83407 -1.162,-0.96432 -19.06344,-1.48986 -58.43754,-1.71555 l -56.7625,-0.32538 0,-5.625 0,-5.625 57.4342,-0.32528 c 44.04024,-0.24942 57.66364,-0.68667 58.41834,-1.875 1.2819,-2.01835 1.2819,-27.3311 0,-29.34945 -0.7547,-1.18832 -14.3781,-1.62557 -58.41834,-1.875 l -57.4342,-0.32527 0,-5.625 0,-5.625 56.2333,-0.625 c 63.75204,-0.70856 59.20314,0.2511 54.00464,-11.39329 -6.4333,-14.41022 -18.38834,-26.75186 -33.02644,-34.09467 -12.623,-6.33198 -18.5895,-6.97509 -64.7115,-6.97509 -47.8436,0 -52.4028,0.56978 -67.3316,8.41466 -15.4565,8.12215 -26.159,20.68244 -33.1455,38.89893 -3.142001,8.19249 -3.177901,8.70789 -3.624601,52.02446 -0.5053,49.01359 0.167,55.37633 7.434001,70.35154 5.0562,10.41942 18.7936,24.70397 28.5427,29.67964 15.3696,7.84416 16.2776,7.95307 66.9249,8.0266 37.7051,0.0548 47.664,-0.28808 53.6482,-1.84677 z m 215.51434,0.0258 c 81.3919,-11.5687 150.6366,-61.97649 187.1473,-136.23676 47.3842,-96.37646 26.3852,-212.83375 -51.7863,-287.19938 -33.9564,-32.30317 -80.0252,-55.64303 -126.4484,-64.06268 -15.9795,-2.89815 -55.1072,-3.90602 -72.4121,-1.8652 -41.9031,4.94172 -83.5675,21.619 -117.9653,47.21871 -11.90664,8.86119 -35.87264,30.81036 -35.87264,32.8538 0,0.52406 3.4291,4.23826 7.6201,8.2538 23.2341,22.26099 38.66524,55.27624 43.72514,93.55095 2.2852,17.2862 0.7943,49.27783 -3.0583,65.625 -1.7013,7.21875 -3.9591,15.52554 -5.0174,18.45951 -1.0582,2.93399 -1.6336,6.02774 -1.2785,6.875 0.3551,0.84728 3.3861,3.65843 6.7357,6.247 12.9243,9.98821 24.3983,29.54025 28.1231,47.92282 1.7529,8.65094 1.9846,18.00494 1.6255,65.60508 -0.4029,53.40271 -0.524,55.82481 -3.1809,63.64059 -1.5192,4.46875 -2.7694,8.30211 -2.7782,8.51859 -0.01,0.21647 4.6245,2.55866 10.2963,5.20486 19.3616,9.03314 47.4151,17.04994 69.6875,19.91454 13.7713,1.7712 50.7876,1.47077 64.8374,-0.52622 z m -35.2238,-103.14839 c -18.4414,-2.90023 -37.8239,-12.23892 -54.2768,-26.15111 -9.9168,-8.38552 -21.5868,-21.99246 -21.5868,-25.16987 0,-1.75641 11.1421,-9.89244 13.5475,-9.89244 0.4847,0 4.7776,4.30204 9.5398,9.56007 41.5269,45.85079 95.6132,44.28838 136.57,-3.94515 l 5.2823,-6.22073 5.7321,3.1154 c 3.1527,1.71347 6.6224,4.0931 7.7105,5.28806 1.8183,1.99683 1.6987,2.57627 -1.4781,7.16041 -4.8517,7.00099 -22.3896,23.51538 -31.0385,29.22703 -9.948,6.56959 -24.1025,12.94201 -33.6811,15.16344 -10.488,2.43232 -27.2427,3.29259 -36.3209,1.86489 z m -85.2175,-136.17187 c -1.7303,-3.41464 -3.1461,-7.07308 -3.1461,-8.12985 0,-1.23516 7.3665,-5.59664 20.625,-12.21149 11.3438,-5.65954 20.625,-10.91021 20.625,-11.66816 0,-0.75795 -8.5781,-5.19425 -19.0625,-9.85842 -10.4843,-4.66419 -19.8389,-9.20789 -20.7879,-10.0971 -1.4608,-1.36875 -1.2721,-2.71078 1.2303,-8.74827 1.6257,-3.92231 3.6041,-7.38025 4.3965,-7.68431 0.7924,-0.30405 15.4262,5.67551 32.5196,13.28794 36.4159,16.21747 40.3464,19.31171 34.7251,27.33716 -2.0018,2.85795 -62.5566,33.98095 -66.1154,33.98095 -1.0249,0 -3.2793,-2.7938 -5.0096,-6.20845 z m 161.8459,0.0405 c -17.5978,-5.353 -27.629,-23.98433 -22.0144,-40.88824 4.4855,-13.50456 16.1216,-21.71526 30.7054,-21.66639 18.4788,0.0619 31.8271,13.49283 31.6913,31.88727 -0.1533,20.76445 -20.9692,36.57256 -40.3823,30.66736 z m -309.36704,9.29295 c 31.625,0 59.8982,0.47259 62.8292,1.05019 5.2476,1.03411 5.3568,0.98433 7.1254,-3.24854 0.9878,-2.36431 3.0575,-10.1494 4.5993,-17.3002 3.6684,-17.01465 3.989,-48.52408 0.6636,-65.22005 -9.2666,-46.52471 -35.4727,-79.58648 -67.2582,-84.8535 -19.9916,-3.31273 -41.2536,6.18422 -57.3612,25.62111 -8.2258,9.92593 -19.0582,32.00111 -23.0084,46.88831 -7.9909,30.11514 -6.9645,72.31842 2.2978,94.48632 1.9469,4.65946 1.9738,4.67286 7.2833,3.62655 2.9311,-0.5776 31.2042,-1.05019 62.8292,-1.05019 z"
       id="path3355" />
  </g>
</svg>
