<?xml version="1.0" encoding="UTF-8" standalone="no"?>
<!-- Created with Inkscape (http://www.inkscape.org/) -->

<svg
   xmlns:dc="http://purl.org/dc/elements/1.1/"
   xmlns:cc="http://creativecommons.org/ns#"
   xmlns:rdf="http://www.w3.org/1999/02/22-rdf-syntax-ns#"
   xmlns:svg="http://www.w3.org/2000/svg"
   xmlns="http://www.w3.org/2000/svg"
   xmlns:sodipodi="http://sodipodi.sourceforge.net/DTD/sodipodi-0.dtd"
   xmlns:inkscape="http://www.inkscape.org/namespaces/inkscape"
   width="227.47226mm"
   height="229.65382mm"
   viewBox="0 0 806.00407 813.73402"
   id="svg4281"
   version="1.1"
   inkscape:version="0.91 r13725"
   sodipodi:docname="planificacion.svg">
  <defs
     id="defs4283" />
  <sodipodi:namedview
     id="base"
     pagecolor="#ffffff"
     bordercolor="#666666"
     borderopacity="1.0"
     inkscape:pageopacity="0.0"
     inkscape:pageshadow="2"
     inkscape:zoom="0.35"
     inkscape:cx="1829.4299"
     inkscape:cy="398.29538"
     inkscape:document-units="px"
     inkscape:current-layer="layer1"
     showgrid="false"
     fit-margin-top="0"
     fit-margin-left="0"
     fit-margin-right="0"
     fit-margin-bottom="0"
     inkscape:window-width="1920"
     inkscape:window-height="1027"
     inkscape:window-x="-8"
     inkscape:window-y="-8"
     inkscape:window-maximized="1" />
  <metadata
     id="metadata4286">
    <rdf:RDF>
      <cc:Work
         rdf:about="">
        <dc:format>image/svg+xml</dc:format>
        <dc:type
           rdf:resource="http://purl.org/dc/dcmitype/StillImage" />
        <dc:title></dc:title>
      </cc:Work>
    </rdf:RDF>
  </metadata>
  <g
     inkscape:label="Capa 1"
     inkscape:groupmode="layer"
     id="layer1"
     transform="translate(1454.43,-116.92378)">
    <path
       inkscape:connector-curvature="0"
       style="fill:#ffeac7"
       d="m -1232.8476,331.98978 c -0.887,0 -1.766,-0.392 -2.357,-1.143 -1.026,-1.301 -0.803,-3.188 0.498,-4.213 l 228.773,-180.34001 c 1.303,-1.024 3.188,-0.802 4.214,0.499 1.025,1.301 0.802,3.188 -0.499,4.213 l -228.774,180.34001 c -0.55,0.434 -1.205,0.644 -1.855,0.644 z"
       id="path7" />
    <path
       inkscape:connector-curvature="0"
       style="fill:#ffeac7"
       d="m -1371.3616,929.65778 c -0.852,0 -1.698,-0.36 -2.291,-1.062 -1.071,-1.265 -0.914,-3.157 0.351,-4.229 l 405.39495,-343.242 185.341,-154.426 c -2.657,-3.411 -8.011,-10.103 -13.549,-15.985 -3.089,-3.283 -21.863,-26.406 -45.633,-55.682 -37.102,-45.696 -87.911,-108.277 -93.614,-113.08 -9.66,-8.135 -84.27095,-109.21501 -87.44295,-113.51401 -0.983,-1.333 -0.7,-3.211 0.633,-4.195 1.333,-0.983 3.212,-0.701 4.195,0.633 21.48695,29.125 78.90895,106.11101 86.47895,112.48601 5.677,4.78 46.115,54.405 94.408,113.887 22.754,28.025 42.404,52.229 45.345,55.352 8.022,8.524 15.405,18.342 15.716,18.756 0.958,1.277 0.746,3.082 -0.48,4.104 l -187.54,156.259 -405.37495,343.228 c -0.565,0.477 -1.253,0.71 -1.938,0.71 z"
       id="path9" />
    <path
       inkscape:connector-curvature="0"
       style="fill:#ffeac7"
       d="m -1013.7556,626.63878 c -0.773,0 -1.546,-0.295 -2.129,-0.886 -1.158,-1.173 -1.166,-3.048 0,-4.215 0.352,-0.353 1.561,-1.425 7.966,-6.839 40.30595,-34.064 221.48695,-184.981 227.61695,-189.885 7.663,-6.131 115.569,-45.507 127.848,-49.976 1.556,-0.568 3.279,0.235 3.846,1.792 0.567,1.557 -0.237,3.279 -1.793,3.845 -47.85,17.418 -120.933,44.848 -126.152,49.024 -6.122,4.897 -187.2,155.729 -227.49295,189.781 -6.07,5.132 -7.365,6.276 -7.598,6.502 -0.587,0.572 -1.349,0.857 -2.11,0.857 z"
       id="path11" />
    <path
       inkscape:connector-curvature="0"
       style="fill:#ffeac7"
       d="m -1081.9296,636.15778 c -0.782,0 -1.563,-0.304 -2.152,-0.91 -1.154,-1.188 -1.127,-3.087 0.062,-4.242 46.268,-44.946 284.88695,-223.945 287.28895,-225.748 0.163,-0.121 0.336,-0.226 0.518,-0.312 37.143,-17.568 142.75,-53.763 143.811,-54.126 1.57,-0.537 3.274,0.299 3.811,1.867 0.537,1.567 -0.299,3.273 -1.866,3.81 -1.058,0.362 -105.833,36.271 -142.915,53.745 -8.87,6.654 -241.12095,181.02 -286.46695,225.069 -0.583,0.565 -1.337,0.847 -2.091,0.847 z"
       id="path13" />
    <path
       inkscape:connector-curvature="0"
       style="fill:#ffeac7"
       d="m -788.80265,165.92877 c -1.062,0 -2.091,-0.565 -2.636,-1.562 l -19.624,-35.937 c -0.794,-1.454 -0.259,-3.277 1.195,-4.071 1.455,-0.796 3.277,-0.259 4.07,1.195 l 19.624,35.937 c 0.794,1.454 0.259,3.277 -1.195,4.071 -0.456,0.248 -0.95,0.367 -1.434,0.367 z"
       id="path15" />
    <path
       inkscape:connector-curvature="0"
       style="fill:#ffeac7"
       d="m -865.58665,206.21177 c -1.095,0 -2.149,-0.601 -2.679,-1.645 -0.11,-0.22 -11.215,-22.117 -17.929,-33.743 -2.947,-5.104 -3.75,-9.593 -2.388,-13.345 1.421,-3.914 4.663,-5.509 5.582,-5.892 l 54.052,-27.275 c 1.479,-0.745 3.283,-0.153 4.03,1.327 0.746,1.479 0.152,3.284 -1.327,4.03 l -54.166,27.333 c -0.104,0.053 -0.212,0.1 -0.323,0.14 -0.021,0.01 -1.623,0.679 -2.232,2.456 -0.679,1.977 0.002,4.821 1.967,8.226 6.797,11.768 17.976,33.81 18.086,34.031 0.75,1.478 0.159,3.283 -1.32,4.032 -0.434,0.221 -0.897,0.325 -1.353,0.325 z"
       id="path17" />
    <path
       inkscape:connector-curvature="0"
       style="fill:#ffeac7"
       d="m -1188.4276,930.65778 c -0.893,0 -1.775,-0.396 -2.367,-1.155 l -263,-337.167 c -1.02,-1.306 -0.787,-3.191 0.52,-4.21 1.309,-1.019 3.191,-0.786 4.211,0.521 l 263,337.167 c 1.02,1.306 0.786,3.191 -0.52,4.21 -0.549,0.427 -1.2,0.634 -1.844,0.634 z"
       id="path19" />
    <g
       transform="translate(-1592.2226,30.638772)"
       id="g21">
      <path
         style="fill:#ffeac7"
         inkscape:connector-curvature="0"
         d="m 579.995,899.019 c -0.872,0 -1.737,-0.378 -2.329,-1.106 -1.046,-1.285 -0.852,-3.175 0.434,-4.221 2.913,-2.37 291.507,-237.164 307.837,-250.029 1.862,-1.467 3.755,-2.998 5.676,-4.55 15.519,-12.545 33.106,-26.764 50.226,-20.406 1.553,0.577 2.345,2.304 1.768,3.857 -0.577,1.553 -2.304,2.345 -3.857,1.768 -13.906,-5.168 -30.092,7.909 -44.364,19.447 -1.939,1.568 -3.854,3.114 -5.734,4.597 -16.294,12.837 -304.851,247.601 -307.763,249.971 -0.559,0.451 -1.229,0.672 -1.894,0.672 z"
         id="path23" />
      <path
         style="fill:#ffeac7"
         inkscape:connector-curvature="0"
         d="m 850.859,678.866 c -0.862,0 -1.717,-0.369 -2.311,-1.084 L 696.234,494.325 c -1.058,-1.275 -0.883,-3.167 0.393,-4.225 1.275,-1.06 3.166,-0.882 4.225,0.392 L 853.166,673.95 c 1.057,1.274 0.883,3.166 -0.393,4.225 -0.558,0.464 -1.239,0.691 -1.914,0.691 z"
         id="path25" />
      <path
         style="fill:#ffeac7"
         inkscape:connector-curvature="0"
         d="m 708.232,794.726 c -0.883,0 -1.758,-0.388 -2.35,-1.132 L 593.363,652.22 c -1.031,-1.296 -0.817,-3.184 0.479,-4.216 1.297,-1.031 3.186,-0.815 4.217,0.479 l 112.52,141.374 c 1.031,1.296 0.817,3.184 -0.479,4.216 -0.553,0.44 -1.213,0.653 -1.868,0.653 z"
         id="path27" />
    </g>
    <path
       inkscape:connector-curvature="0"
       style="fill:none;stroke:#ffffff;stroke-width:6;stroke-linecap:round;stroke-linejoin:round;stroke-miterlimit:10"
       stroke-miterlimit="10"
       d="M -808.42965,126.99177"
       id="path311" />
    <path
       inkscape:connector-curvature="0"
       style="fill:none"
       d="M -650.09765,126.99177"
       id="path313" />
    <path
       inkscape:connector-curvature="0"
       style="fill:none;stroke:#42ab34;stroke-miterlimit:10"
       stroke-miterlimit="10"
       d="M -737.26365,471.82478"
       id="path315" />
    <path
       inkscape:connector-curvature="0"
       style="fill:#3b4863"
       d="m -1231.3636,926.65778 -60,0 0,-207 c 0,-16.568 13.432,-30 30,-30 l 210.972,0 0,-322 -346.305,0 c -16.569,0 -30,-13.432 -30,-30 l 0,-211.00001 60,0 0,181.00001 346.305,0 c 16.568,0 29.99995,13.432 29.99995,30 l 0,382 c 0,16.568 -13.43195,30 -29.99995,30 l -210.972,0 0,177 z"
       id="path317" />
    <path
       inkscape:connector-curvature="0"
       style="fill:#fefefe"
       d="m -1261.3636,928.65778 c -1.104,0 -2,-0.896 -2,-2 l 0,-10 c 0,-1.104 0.896,-2 2,-2 1.104,0 2,0.896 2,2 l 0,10 c 0,1.105 -0.895,2 -2,2 z m 0,-20 c -1.104,0 -2,-0.896 -2,-2 l 0,-10 c 0,-1.104 0.896,-2 2,-2 1.104,0 2,0.896 2,2 l 0,10 c 0,1.105 -0.895,2 -2,2 z m 0,-20 c -1.104,0 -2,-0.896 -2,-2 l 0,-10 c 0,-1.104 0.896,-2 2,-2 1.104,0 2,0.896 2,2 l 0,10 c 0,1.105 -0.895,2 -2,2 z m 0,-20 c -1.104,0 -2,-0.896 -2,-2 l 0,-10 c 0,-1.104 0.896,-2 2,-2 1.104,0 2,0.896 2,2 l 0,10 c 0,1.105 -0.895,2 -2,2 z m 0,-20 c -1.104,0 -2,-0.896 -2,-2 l 0,-10 c 0,-1.104 0.896,-2 2,-2 1.104,0 2,0.896 2,2 l 0,10 c 0,1.105 -0.895,2 -2,2 z m 0,-20 c -1.104,0 -2,-0.896 -2,-2 l 0,-10 c 0,-1.104 0.896,-2 2,-2 1.104,0 2,0.896 2,2 l 0,10 c 0,1.105 -0.895,2 -2,2 z m 0,-20 c -1.104,0 -2,-0.896 -2,-2 l 0,-10 c 0,-1.104 0.896,-2 2,-2 1.104,0 2,0.896 2,2 l 0,10 c 0,1.105 -0.895,2 -2,2 z m 0,-20 c -1.104,0 -2,-0.896 -2,-2 l 0,-10 c 0,-1.104 0.896,-2 2,-2 1.104,0 2,0.896 2,2 l 0,10 c 0,1.105 -0.895,2 -2,2 z m 0,-20 c -1.104,0 -2,-0.896 -2,-2 l 0,-10 c 0,-1.104 0.896,-2 2,-2 1.104,0 2,0.896 2,2 l 0,10 c 0,1.105 -0.895,2 -2,2 z m 0,-20 c -1.104,0 -2,-0.896 -2,-2 l 0,-10 c 0,-1.104 0.896,-2 2,-2 1.104,0 2,0.896 2,2 l 0,10 c 0,1.105 -0.895,2 -2,2 z m 0,-20 c -1.104,0 -2,-0.896 -2,-2 l 0,-7 c 0,-1.104 0.896,-2 2,-2 l 3,0 c 1.104,0 2,0.896 2,2 0,1.104 -0.896,2 -2,2 l -1,0 0,5 c 0,1.105 -0.895,2 -2,2 z m 240.972,-7 -7.972,0 c -1.104,0 -2,-0.896 -2,-2 0,-1.104 0.896,-2 2,-2 l 5.972,-0.028 c 0,-1.104 0.896,-2 2,-2 1.104,0 2,0.896 2,2 l 0,2.028 c 0,1.105 -0.895,2 -2,2 z m -17.972,0 -10,0 c -1.104,0 -2,-0.896 -2,-2 0,-1.104 0.896,-2 2,-2 l 10,0 c 1.105,0 2,0.896 2,2 0,1.104 -0.894,2 -2,2 z m -20,0 -10,0 c -1.104,0 -2,-0.896 -2,-2 0,-1.104 0.896,-2 2,-2 l 10,0 c 1.105,0 2,0.896 2,2 0,1.104 -0.894,2 -2,2 z m -20,0 -10,0 c -1.104,0 -2,-0.896 -2,-2 0,-1.104 0.896,-2 2,-2 l 10,0 c 1.105,0 2,0.896 2,2 0,1.104 -0.894,2 -2,2 z m -20,0 -10,0 c -1.104,0 -2,-0.896 -2,-2 0,-1.104 0.896,-2 2,-2 l 10,0 c 1.105,0 2,0.896 2,2 0,1.104 -0.894,2 -2,2 z m -20,0 -10,0 c -1.104,0 -2,-0.896 -2,-2 0,-1.104 0.896,-2 2,-2 l 10,0 c 1.105,0 2,0.896 2,2 0,1.104 -0.894,2 -2,2 z m -20,0 -10,0 c -1.104,0 -2,-0.896 -2,-2 0,-1.104 0.896,-2 2,-2 l 10,0 c 1.105,0 2,0.896 2,2 0,1.104 -0.894,2 -2,2 z m -20,0 -10,0 c -1.104,0 -2,-0.896 -2,-2 0,-1.104 0.896,-2 2,-2 l 10,0 c 1.105,0 2,0.896 2,2 0,1.104 -0.894,2 -2,2 z m -20,0 -10,0 c -1.104,0 -2,-0.896 -2,-2 0,-1.104 0.896,-2 2,-2 l 10,0 c 1.105,0 2,0.896 2,2 0,1.104 -0.894,2 -2,2 z m -20,0 -10,0 c -1.104,0 -2,-0.896 -2,-2 0,-1.104 0.896,-2 2,-2 l 10,0 c 1.105,0 2,0.896 2,2 0,1.104 -0.894,2 -2,2 z m -20,0 -10,0 c -1.104,0 -2,-0.896 -2,-2 0,-1.104 0.896,-2 2,-2 l 10,0 c 1.105,0 2,0.896 2,2 0,1.104 -0.894,2 -2,2 z m -20,0 -10,0 c -1.104,0 -2,-0.896 -2,-2 0,-1.104 0.896,-2 2,-2 l 10,0 c 1.105,0 2,0.896 2,2 0,1.104 -0.894,2 -2,2 z m 217.972,-12.028 c -1.104,0 -2,-0.896 -2,-2 l 0,-10 c 0,-1.104 0.896,-2 2,-2 1.104,0 2,0.896 2,2 l 0,10 c 0,1.104 -0.895,2 -2,2 z m 0,-20 c -1.104,0 -2,-0.896 -2,-2 l 0,-10 c 0,-1.104 0.896,-2 2,-2 1.104,0 2,0.896 2,2 l 0,10 c 0,1.104 -0.895,2 -2,2 z m 0,-20 c -1.104,0 -2,-0.896 -2,-2 l 0,-10 c 0,-1.104 0.896,-2 2,-2 1.104,0 2,0.896 2,2 l 0,10 c 0,1.104 -0.895,2 -2,2 z m 0,-20 c -1.104,0 -2,-0.896 -2,-2 l 0,-10 c 0,-1.104 0.896,-2 2,-2 1.104,0 2,0.896 2,2 l 0,10 c 0,1.104 -0.895,2 -2,2 z m 0,-20 c -1.104,0 -2,-0.896 -2,-2 l 0,-10 c 0,-1.104 0.896,-2 2,-2 1.104,0 2,0.896 2,2 l 0,10 c 0,1.104 -0.895,2 -2,2 z m 0,-20 c -1.104,0 -2,-0.896 -2,-2 l 0,-10 c 0,-1.104 0.896,-2 2,-2 1.104,0 2,0.896 2,2 l 0,10 c 0,1.104 -0.895,2 -2,2 z m 0,-20 c -1.104,0 -2,-0.896 -2,-2 l 0,-10 c 0,-1.104 0.896,-2 2,-2 1.104,0 2,0.896 2,2 l 0,10 c 0,1.104 -0.895,2 -2,2 z m 0,-20 c -1.104,0 -2,-0.896 -2,-2 l 0,-10 c 0,-1.104 0.896,-2 2,-2 1.104,0 2,0.896 2,2 l 0,10 c 0,1.104 -0.895,2 -2,2 z m 0,-20 c -1.104,0 -2,-0.896 -2,-2 l 0,-10 c 0,-1.104 0.896,-2 2,-2 1.104,0 2,0.896 2,2 l 0,10 c 0,1.104 -0.895,2 -2,2 z m 0,-20 c -1.104,0 -2,-0.896 -2,-2 l 0,-10 c 0,-1.104 0.896,-2 2,-2 1.104,0 2,0.896 2,2 l 0,10 c 0,1.104 -0.895,2 -2,2 z m 0,-20 c -1.104,0 -2,-0.896 -2,-2 l 0,-10 c 0,-1.104 0.896,-2 2,-2 1.104,0 2,0.896 2,2 l 0,10 c 0,1.104 -0.895,2 -2,2 z m 0,-20 c -1.104,0 -2,-0.896 -2,-2 l 0,-10 c 0,-1.104 0.896,-2 2,-2 1.104,0 2,0.896 2,2 l 0,10 c 0,1.104 -0.895,2 -2,2 z m 0,-20 c -1.104,0 -2,-0.896 -2,-2 l 0,-10 c 0,-1.104 0.896,-2 2,-2 1.104,0 2,0.896 2,2 l 0,10 c 0,1.104 -0.895,2 -2,2 z m 0,-20 c -1.104,0 -2,-0.896 -2,-2 l 0,-10 c 0,-1.104 0.896,-2 2,-2 1.104,0 2,0.896 2,2 l 0,10 c 0,1.104 -0.895,2 -2,2 z m 0,-20 c -1.104,0 -2,-0.896 -2,-2 l 0,-10 c 0,-1.104 0.896,-2 2,-2 1.104,0 2,0.896 2,2 l 0,10 c 0,1.104 -0.895,2 -2,2 z m 0,-20 c -1.104,0 -2,-0.896 -2,-2 l 0,-10 c 0,-1.104 0.896,-2 2,-2 1.104,0 2,0.896 2,2 l 0,10 c 0,1.104 -0.895,2 -2,2 z m 0,-20 c -1.104,0 -2,-0.896 -2,-2 l 0,-10 c 0,-1.104 0.896,-2 2,-2 1.104,0 2,0.896 2,2 l 0,10 c 0,1.104 -0.895,2 -2,2 z m 0,-20 c -1.104,0 -2,-0.896 -2,-2 l 0,-10 c 0,-1.104 0.896,-2 2,-2 1.104,0 2,0.896 2,2 l 0,10 c 0,1.104 -0.895,2 -2,2 z m 0,-20 c -1.104,0 -2,-0.896 -2,-2 l 0,-9.735 c -0.011,-0.078 -0.014,-0.157 -0.014,-0.237 0,-1.104 0.881,-2 1.985,-2 1.104,0 2.028,0.896 2.028,2 l 0,9.972 c 10e-4,1.104 -0.894,2 -1.999,2 z m -10.028,-9.972 -10,0 c -1.104,0 -2,-0.896 -2,-2 0,-1.104 0.896,-2 2,-2 l 10,0 c 1.104,0 2,0.896 2,2 0,1.104 -0.896,2 -2,2 z m -20,0 -10,0 c -1.104,0 -2,-0.896 -2,-2 0,-1.104 0.896,-2 2,-2 l 10,0 c 1.104,0 2,0.896 2,2 0,1.104 -0.896,2 -2,2 z m -20,0 -10,0 c -1.104,0 -2,-0.896 -2,-2 0,-1.104 0.896,-2 2,-2 l 10,0 c 1.104,0 2,0.896 2,2 0,1.104 -0.896,2 -2,2 z m -20,0 -10,0 c -1.104,0 -2,-0.896 -2,-2 0,-1.104 0.896,-2 2,-2 l 10,0 c 1.104,0 2,0.896 2,2 0,1.104 -0.896,2 -2,2 z m -20,0 -10,0 c -1.104,0 -2,-0.896 -2,-2 0,-1.104 0.896,-2 2,-2 l 10,0 c 1.104,0 2,0.896 2,2 0,1.104 -0.896,2 -2,2 z m -20,0 -10,0 c -1.104,0 -2,-0.896 -2,-2 0,-1.104 0.896,-2 2,-2 l 10,0 c 1.104,0 2,0.896 2,2 0,1.104 -0.896,2 -2,2 z m -20,0 -10,0 c -1.104,0 -2,-0.896 -2,-2 0,-1.104 0.896,-2 2,-2 l 10,0 c 1.104,0 2,0.896 2,2 0,1.104 -0.896,2 -2,2 z m -20,0 -10,0 c -1.104,0 -2,-0.896 -2,-2 0,-1.104 0.896,-2 2,-2 l 10,0 c 1.104,0 2,0.896 2,2 0,1.104 -0.896,2 -2,2 z m -20,0 -10,0 c -1.104,0 -2,-0.896 -2,-2 0,-1.104 0.896,-2 2,-2 l 10,0 c 1.104,0 2,0.896 2,2 0,1.104 -0.896,2 -2,2 z m -20,0 -10,0 c -1.104,0 -2,-0.896 -2,-2 0,-1.104 0.896,-2 2,-2 l 10,0 c 1.104,0 2,0.896 2,2 0,1.104 -0.896,2 -2,2 z m -20,0 -10,0 c -1.104,0 -2,-0.896 -2,-2 0,-1.104 0.896,-2 2,-2 l 10,0 c 1.104,0 2,0.896 2,2 0,1.104 -0.896,2 -2,2 z m -20,0 -10,0 c -1.104,0 -2,-0.896 -2,-2 0,-1.104 0.896,-2 2,-2 l 10,0 c 1.104,0 2,0.896 2,2 0,1.104 -0.896,2 -2,2 z m -20,0 -10,0 c -1.104,0 -2,-0.896 -2,-2 0,-1.104 0.896,-2 2,-2 l 10,0 c 1.104,0 2,0.896 2,2 0,1.104 -0.896,2 -2,2 z m -20,0 -10,0 c -1.104,0 -2,-0.896 -2,-2 0,-1.104 0.896,-2 2,-2 l 10,0 c 1.104,0 2,0.896 2,2 0,1.104 -0.896,2 -2,2 z m -20,0 -10,0 c -1.104,0 -2,-0.896 -2,-2 0,-1.104 0.896,-2 2,-2 l 10,0 c 1.104,0 2,0.896 2,2 0,1.104 -0.896,2 -2,2 z m -20,0 -10,0 c -1.104,0 -2,-0.896 -2,-2 0,-1.104 0.896,-2 2,-2 l 10,0 c 1.104,0 2,0.896 2,2 0,1.104 -0.896,2 -2,2 z m -20,0 -10,0 c -1.104,0 -2,-0.896 -2,-2 0,-1.104 0.896,-2 2,-2 l 10,0 c 1.104,0 2,0.896 2,2 0,1.104 -0.896,2 -2,2 z m -20,0 -10,0 c -1.104,0 -2,-0.896 -2,-2 0,-1.104 0.896,-2 2,-2 l 10,0 c 1.104,0 2,0.896 2,2 0,1.104 -0.896,2 -2,2 z m -20,0 -6.276,0 c -1.104,0 -2,-0.896 -2,-2 l 0,-3.724 c 0,-1.104 0.896,-2 2,-2 1.104,0 2,0.896 2,2 l 0,1.724 4.276,0 c 1.104,0 2,0.896 2,2 0,1.104 -0.896,2 -2,2 z m -6.277,-13.724 c -1.104,0 -2,-0.896 -2,-2 l 0,-10 c 0,-1.104 0.896,-2 2,-2 1.104,0 2,0.896 2,2 l 0,10 c 0,1.105 -0.895,2 -2,2 z m 0,-20 c -1.104,0 -2,-0.896 -2,-2 l 0,-10 c 0,-1.104 0.896,-2 2,-2 1.104,0 2,0.896 2,2 l 0,10 c 0,1.105 -0.895,2 -2,2 z m 0,-20 c -1.104,0 -2,-0.896 -2,-2 l 0,-10 c 0,-1.104 0.896,-2 2,-2 1.104,0 2,0.896 2,2 l 0,10 c 0,1.105 -0.895,2 -2,2 z m 0,-20 c -1.104,0 -2,-0.896 -2,-2 l 0,-10 c 0,-1.104 0.896,-2 2,-2 1.104,0 2,0.896 2,2 l 0,10 c 0,1.105 -0.895,2 -2,2 z m 0,-20 c -1.104,0 -2,-0.896 -2,-2 l 0,-10 c 0,-1.104 0.896,-2 2,-2 1.104,0 2,0.896 2,2 l 0,10 c 0,1.105 -0.895,2 -2,2 z m 0,-20 c -1.104,0 -2,-0.896 -2,-2 l 0,-10.00001 c 0,-1.104 0.896,-2 2,-2 1.104,0 2,0.896 2,2 l 0,10.00001 c 0,1.105 -0.895,2 -2,2 z m 0,-20.00001 c -1.104,0 -2,-0.896 -2,-2 l 0,-10 c 0,-1.104 0.896,-2 2,-2 1.104,0 2,0.896 2,2 l 0,10 c 0,1.105 -0.895,2 -2,2 z m 0,-20 c -1.104,0 -2,-0.896 -2,-2 l 0,-10 c 0,-1.104 0.896,-2 2,-2 1.104,0 2,0.896 2,2 l 0,10 c 0,1.105 -0.895,2 -2,2 z m 0,-20 c -1.104,0 -2,-0.896 -2,-2 l 0,-10 c 0,-1.104 0.896,-2 2,-2 1.104,0 2,0.896 2,2 l 0,10 c 0,1.105 -0.895,2 -2,2 z m 0,-20 c -1.104,0 -2,-0.896 -2,-2 l 0,-10 c 0,-1.104 0.896,-2 2,-2 1.104,0 2,0.896 2,2 l 0,10 c 0,1.105 -0.895,2 -2,2 z"
       id="path319" />
    <polygon
       transform="translate(-1592.2226,30.638772)"
       style="fill:#b7cd00"
       points="137.793,883.019 137.793,577.686 285.459,762.352 "
       id="polygon321" />
    <polygon
       transform="translate(-1592.2226,30.638772)"
       style="fill:#b7cd00"
       points="899.293,96.353 940.793,96.019 940.793,303.019 803.417,357.686 678.793,212.019 "
       id="polygon323" />
    <rect
       style="fill:#dcdcdc"
       x="-390.05173"
       y="888.703"
       transform="matrix(0.63472876,0.77273501,-0.77273501,0.63472876,0,0)"
       width="131.69403"
       height="35.998367"
       id="rect325" />
    <rect
       style="fill:#dcdcdc"
       x="-20.051735"
       y="1225.0784"
       transform="matrix(0.62750809,0.77861004,-0.77861004,0.62750809,0,0)"
       width="39.052498"
       height="33.999561"
       id="rect327" />
    <rect
       style="fill:#dcdcdc"
       x="32.090355"
       y="1225.1849"
       transform="matrix(0.62750809,0.77861004,-0.77861004,0.62750809,0,0)"
       width="39.052498"
       height="33.999561"
       id="rect329" />
    <rect
       style="fill:#dcdcdc"
       x="-137.87215"
       y="1039.8381"
       transform="matrix(0.62939095,0.77708882,-0.77708882,0.62939095,0,0)"
       width="36.001518"
       height="91.57132"
       id="rect331" />
    <rect
       style="fill:#dcdcdc"
       x="-215.45772"
       y="893.18524"
       transform="matrix(0.6142867,0.78908292,-0.78908292,0.6142867,0,0)"
       width="31.946692"
       height="116.93153"
       id="rect333" />
    <polygon
       transform="translate(-1592.2226,30.638772)"
       style="fill:#dcdcdc"
       points="558.506,198.3 537.782,171.347 566.734,149.086 568.742,147.543 585.762,134.458 638.408,202.932 619.383,217.561 587.459,176.04 "
       id="polygon335" />
    <polygon
       transform="translate(-1592.2226,30.638772)"
       style="fill:#dcdcdc"
       points="465.768,754.867 441.156,728.593 396.84,770.106 392.166,774.484 370.566,794.718 416.457,843.708 442.73,819.095 421.451,796.379 "
       id="polygon337" />
    <polygon
       transform="translate(-1592.2226,30.638772)"
       style="fill:#dcdcdc"
       points="418.725,193.317 440.688,221.842 488.802,184.797 493.875,180.89 517.326,162.834 476.375,109.647 447.85,131.609 466.84,156.272 "
       id="polygon339" />
    <rect
       style="fill:#dcdcdc"
       x="-1006.5964"
       y="-56.233536"
       transform="matrix(0.77682318,-0.62971879,0.62971879,0.77682318,0,0)"
       width="18.665443"
       height="116.92651"
       id="rect341" />
    <path
       inkscape:connector-curvature="0"
       style="fill:none"
       d="m -651.42965,926.65778 0,-0.083 c -1.025,-0.014 -2.006,0.02 -2.957,0.083 l 2.957,0 z"
       id="path343" />
    <path
       inkscape:connector-curvature="0"
       style="fill:#28bbdd"
       d="m -651.42965,926.57478 0,-225.16 c -15.421,32.336 -24.228,75.69 -54,96.378 -26.938,18.718 -77.984,-2.219 -105,16.243 -25.876,17.684 -13.856,57.322 -38,76.893 -20.009,16.219 -64.869,31.851 -90.333,35.729 l 284.376,0 c 0.951,-0.063 1.932,-0.097 2.957,-0.083 z"
       id="path345" />
    <path
       inkscape:connector-curvature="0"
       style="fill:#dcdcdc"
       d="m -732.47165,517.65778 c 0,48.245 35.03,88.304 81.042,96.142 l 0,-192.284 c -46.012,7.839 -81.042,47.896 -81.042,96.142 z"
       id="path347" />
    <path
       inkscape:connector-curvature="0"
       style="fill:#dcdcdc"
       d="m -1373.3876,471.66278 c 0,-48.245 -35.03,-88.304 -81.042,-96.142 l 0,192.284 c 46.012,-7.838 81.042,-47.896 81.042,-96.142 z"
       id="path349" />
    <circle
       style="fill:#b7cd00"
       cx="-953.81366"
       cy="162.92778"
       r="15.417"
       id="circle351" />
    <circle
       style="fill:#b7cd00"
       cx="-922.97662"
       cy="199.31978"
       r="15.417"
       id="circle353" />
    <circle
       style="fill:#92b223"
       cx="-819.42462"
       cy="223.86678"
       r="15.416"
       id="circle355" />
    <circle
       style="fill:#92b223"
       cx="-867.08557"
       cy="251.39677"
       r="15.417"
       id="circle357" />
    <circle
       style="fill:#92b223"
       cx="-675.67157"
       cy="322.24176"
       r="15.417"
       id="circle359" />
    <circle
       style="fill:#92b223"
       cx="-675.67157"
       cy="279.29279"
       r="15.417"
       id="circle361" />
    <circle
       style="fill:#92b223"
       cx="-675.67157"
       cy="227.34477"
       r="15.417"
       id="circle363" />
    <circle
       style="fill:#92b223"
       cx="-675.67157"
       cy="184.39578"
       r="15.417"
       id="circle365" />
    <circle
       style="fill:#92b223"
       cx="-782.42957"
       cy="200.97278"
       r="15.417"
       id="circle367" />
    <circle
       style="fill:#92b223"
       cx="-1424.0547"
       cy="852.88373"
       r="15.417"
       id="circle369" />
    <circle
       style="fill:#92b223"
       cx="-1384.2876"
       cy="822.36481"
       r="15.416"
       id="circle371" />
    <circle
       style="fill:#92b223"
       cx="-1382.4886"
       cy="748.67877"
       r="15.417"
       id="circle373" />
    <circle
       style="fill:#92b223"
       cx="-1344.4297"
       cy="790.15778"
       r="15.417"
       id="circle375" />
    <circle
       style="fill:#92b223"
       cx="-1419.3636"
       cy="705.8338"
       r="15.417"
       id="circle377" />
    <circle
       style="fill:#b7cd00"
       cx="-1063.5967"
       cy="287.89377"
       r="13.287"
       id="circle379" />
    <circle
       style="fill:#b7cd00"
       cx="-1023.1066"
       cy="275.99677"
       r="13.287"
       id="circle381" />
    <circle
       style="fill:#b7cd00"
       cx="-1085.5676"
       cy="782.06281"
       r="15.416"
       id="circle383" />
    <circle
       style="fill:#b7cd00"
       cx="-1030.6807"
       cy="782.27081"
       r="15.417"
       id="circle385" />
    <circle
       style="fill:#b7cd00"
       cx="-788.68262"
       cy="498.59976"
       r="15.416"
       id="circle387" />
    <circle
       style="fill:#b7cd00"
       cx="-828.17657"
       cy="536.71576"
       r="15.416"
       id="circle389" />
    <circle
       style="fill:#b7cd00"
       cx="-812.75757"
       cy="668.05573"
       r="15.417"
       id="circle391" />
    <circle
       style="fill:#b7cd00"
       cx="-779.67657"
       cy="704.68378"
       r="15.416"
       id="circle393" />
    <circle
       style="fill:#b7cd00"
       cx="-909.27258"
       cy="750.67877"
       r="15.417"
       id="circle395" />
    <circle
       style="fill:#b7cd00"
       cx="-882.10059"
       cy="783.74078"
       r="15.417"
       id="circle397" />
    <rect
       style="fill:#dcdcdc"
       x="-19.977453"
       y="1073.7775"
       transform="matrix(0.63741625,0.77051964,-0.77051964,0.63741625,0,0)"
       width="79.673973"
       height="80.998932"
       id="rect399" />
    <rect
       style="fill:#dcdcdc"
       x="-486.72299"
       y="1229.556"
       transform="matrix(0.62939095,0.77708882,-0.77708882,0.62939095,0,0)"
       width="36.001518"
       height="91.572319"
       id="rect401" />
    <circle
       style="fill:#b7cd00"
       cx="-1179.7206"
       cy="516.37781"
       r="15.417"
       id="circle403" />
    <circle
       style="fill:#b7cd00"
       cx="-1146.6396"
       cy="553.0058"
       r="15.416"
       id="circle405" />
    <circle
       style="fill:#b7cd00"
       cx="-1276.2356"
       cy="598.99982"
       r="15.416"
       id="circle407" />
    <circle
       style="fill:#b7cd00"
       cx="-1249.0626"
       cy="632.06281"
       r="15.416"
       id="circle409" />
    <rect
       style="fill:#dcdcdc"
       x="-370.73721"
       y="1259.8361"
       transform="matrix(0.63741625,0.77051964,-0.77051964,0.63741625,0,0)"
       width="79.673973"
       height="80.997932"
       id="rect411" />
    <path
       inkscape:connector-curvature="0"
       style="fill:none;stroke:#ffffff;stroke-width:2;stroke-linecap:round;stroke-linejoin:round;stroke-miterlimit:10"
       stroke-miterlimit="10"
       d="M -877.60765,223.86678"
       id="path413" />
    <path
       inkscape:connector-curvature="0"
       style="fill:#92b223"
       d="m -745.32565,315.36078 c 0,-12.979 -10.522,-23.5 -23.5,-23.5 l -102.042,0 82.528,96.463 43.014,-17.117 0,-55.846 z"
       id="path415" />
    <g
       transform="translate(-1592.2226,30.638772)"
       id="g417">
      <polygon
         style="fill:#ef842e;stroke:#000000;stroke-width:2;stroke-miterlimit:10"
         stroke-miterlimit="10"
         points="435.225,249.43 422.679,222.667 403.158,222.667 403.158,259.188 435.225,259.188 "
         id="polygon419" />
      <polyline
         style="fill:none;stroke:#000000;stroke-width:2;stroke-linecap:round;stroke-linejoin:round;stroke-miterlimit:10"
         stroke-miterlimit="10"
         points="   362.84,255.123 405.041,187.975 293.43,118.34  "
         id="polyline421" />
      <rect
         style="fill:#4db8a3;stroke:#000000;stroke-width:2;stroke-miterlimit:10"
         x="262.375"
         y="87.285004"
         stroke-miterlimit="10"
         width="31.055"
         height="31.055"
         id="rect423" />
      <line
         style="fill:none;stroke:#000000;stroke-width:2;stroke-miterlimit:10"
         stroke-miterlimit="10"
         x1="293.42999"
         y1="102.813"
         x2="262.375"
         y2="102.813"
         id="line425" />
      <rect
         style="fill:#ef842e;stroke:#000000;stroke-width:2;stroke-miterlimit:10"
         x="341.66501"
         y="253.92"
         stroke-miterlimit="10"
         width="93.630997"
         height="30.563999"
         id="rect427" />
      <circle
         style="fill:#ffffff;stroke:#000000;stroke-width:2;stroke-miterlimit:10"
         stroke-miterlimit="10"
         cx="412.82199"
         cy="285.095"
         r="9.8559999"
         id="circle429" />
      <circle
         style="fill:#ffffff;stroke:#000000;stroke-width:2;stroke-miterlimit:10"
         stroke-miterlimit="10"
         cx="359.95499"
         cy="285.095"
         r="9.8559999"
         id="circle431" />
    </g>
    <g
       transform="translate(-1592.2226,30.638772)"
       id="g433">
      <path
         style="fill:#9d6330"
         inkscape:connector-curvature="0"
         d="m 650.756,438.829 c 1.598,7.573 -3.684,13.256 -3.684,13.256 l -82.619,27.77 -9.233,-42.656 85.876,-15.431 c 0,0 6.949,4.227 9.66,17.061 z"
         id="path435" />
      <path
         style="fill:#794d26"
         inkscape:connector-curvature="0"
         d="m 586.233,463.879 c 3.675,-1.944 7.442,-3.754 11.299,-5.375 3.882,-1.632 7.989,-2.53 11.925,-3.996 0.439,-0.165 0.158,-0.7 -0.25,-0.64 -4.328,0.627 -8.544,2.356 -12.646,3.794 -3.845,1.346 -7.557,2.94 -11.215,4.682 -1.152,0.549 -0.239,2.131 0.887,1.535 l 0,0 z"
         id="path437" />
      <path
         style="fill:#83512d"
         inkscape:connector-curvature="0"
         d="m 557.404,447.298 c 26.213,-7.615 52.776,-17.179 78.509,-14.295 8.454,0.296 11.949,9.976 11.968,18.066 1.41,-1.957 4.07,-6.568 2.875,-12.241 -2.711,-12.834 -9.66,-17.061 -9.66,-17.061 l -85.876,15.431 2.184,10.1 z"
         id="path439" />
      <path
         style="fill:#794d26"
         inkscape:connector-curvature="0"
         d="m 621.225,435.752 c 2.143,-0.753 5.129,-0.931 6.942,-2.265 0.36,-0.265 0.142,-0.844 -0.316,-0.824 -1.278,0.056 -2.534,0.615 -3.753,0.993 -1.15,0.356 -2.293,0.719 -3.41,1.166 -0.731,0.295 -0.176,1.182 0.537,0.93 l 0,0 z"
         id="path441" />
      <path
         style="fill:#cd812f"
         inkscape:connector-curvature="0"
         d="m 564.522,479.84 c 4.908,-0.996 6.996,-11.389 4.665,-23.211 -2.33,-11.824 -8.199,-20.6 -13.104,-19.605 -4.909,0.997 -6.999,11.389 -4.666,23.212 2.331,11.824 8.198,20.601 13.105,19.604 z"
         id="path443" />
      <polygon
         style="fill:#794d26"
         points="562.941,451.953 567.117,449.157 576.663,445.032 566.315,447.133 563.941,450.529 "
         id="polygon445" />
      <polygon
         style="fill:#794d26"
         points="569.758,471.231 577.857,470.082 569.334,473.33 566.258,468.769 "
         id="polygon447" />
    </g>
    <g
       transform="translate(-1592.2226,30.638772)"
       id="g449">
      <polygon
         style="fill:#4b4235"
         points="382.391,667.401 396.077,665.003 398.333,658.663 383.294,661.747 "
         id="polygon451" />
      <polygon
         style="fill:#6c6459"
         points="404.049,622.681 399.085,613.428 392.618,649.239 400.438,663.803 403.296,652.837 "
         id="polygon453" />
      <path
         style="fill:#4b4235"
         inkscape:connector-curvature="0"
         d="m 447.062,623.023 -3.76,-8.91 -39.253,8.567 -0.903,37.867 c 0,0 43.916,-20.904 43.766,-21.417 -0.151,-0.514 0.15,-16.107 0.15,-16.107 z"
         id="path455" />
      <polygon
         style="fill:#6c6459"
         points="444.088,648.372 439.978,675.403 406.908,670.934 408.029,634.324 "
         id="polygon457" />
      <path
         style="fill:#827c72"
         inkscape:connector-curvature="0"
         d="m 464.564,623.528 c -0.844,-0.438 -1.689,-0.872 -2.537,-1.299 -1.927,-0.97 -3.865,-1.905 -5.823,-2.788 -1.179,-0.531 -2.364,-1.042 -3.557,-1.531 l -34.161,2.942 0.883,9.299 -11.34,4.172 36.059,14.048 16.44,-5.534 7.188,-8.62 -0.802,-2.513 -4.963,-1.057 c -0.142,-0.067 2.749,-7.048 2.613,-7.119 z"
         id="path459" />
      <polygon
         style="fill:#605749"
         points="465.013,672.423 439.978,675.403 444.088,648.372 460.528,642.837 "
         id="polygon461" />
      <path
         style="fill:#4b4235"
         inkscape:connector-curvature="0"
         d="m 473.396,657.277 c 0.031,-0.655 0.052,-1.303 0.069,-1.949 -0.045,-0.9 -0.065,-1.803 -0.09,-2.706 -0.215,-0.951 -0.395,-1.933 -0.469,-2.91 -0.155,-2.042 -0.949,-4.349 -1.321,-6.381 -0.363,-1.979 -1.714,-3.676 -2.46,-5.527 -1.722,-4.286 -0.594,-1.63 -2.211,-6.099 l -6.386,11.132 4.484,29.586 8.757,-11.501 c -0.409,-1.158 -0.431,-2.378 -0.373,-3.645 z"
         id="path463" />
      <polygon
         style="fill:#605749"
         points="383.294,661.747 375.322,653.351 393.939,642.333 402.092,657.463 399.085,659.177 "
         id="polygon465" />
      <polygon
         style="fill:#4b4235"
         points="421.107,658.801 409.897,666.251 407.095,680.938 429.141,674.126 "
         id="polygon467" />
      <polygon
         style="fill:#6c6459"
         points="395.324,667.315 407.095,680.938 409.897,666.251 400.183,654.119 "
         id="polygon469" />
      <polygon
         style="fill:#827c72"
         points="435.48,609.316 408.408,610.858 399.085,613.428 404.049,622.681 443.302,614.113 "
         id="polygon471" />
      <polygon
         style="fill:#6c6459"
         points="442.449,635.246 418.486,620.853 419.369,630.152 443.251,641.871 "
         id="polygon473" />
      <polygon
         style="fill:#605749"
         points="442.449,635.246 443.251,641.871 462.503,634.104 464.564,623.528 "
         id="polygon475" />
      <path
         style="fill:#6c6459"
         inkscape:connector-curvature="0"
         d="m 403.121,634.277 c -0.396,2.169 0.109,4.392 -0.077,6.566 -0.012,0.128 0.137,0.139 0.189,0.059 0.489,-0.738 0.378,-1.799 0.367,-2.669 -0.018,-1.311 0.106,-2.664 -0.131,-3.955 -0.035,-0.196 -0.311,-0.196 -0.348,-10e-4 l 0,0 z"
         id="path477" />
      <polygon
         style="fill:#6c6459"
         points="373.667,657.063 382.391,667.401 383.294,661.747 375.322,653.351 "
         id="polygon479" />
      <polygon
         style="fill:#827c72"
         points="409.897,666.251 400.183,654.119 407.586,645.932 421.107,658.801 "
         id="polygon481" />
      <polygon
         style="fill:#4b4235"
         points="432.28,671.268 429.82,675.283 430.771,680.141 435.845,674.812 "
         id="polygon483" />
      <polygon
         style="fill:#6c6459"
         points="422.215,676.155 430.771,680.141 429.82,675.283 424.572,671.407 "
         id="polygon485" />
      <polygon
         style="fill:#827c72"
         points="429.82,675.283 424.572,671.407 427.129,669.077 432.28,671.268 "
         id="polygon487" />
      <polygon
         style="fill:#6c6459"
         points="375.322,653.351 383.294,661.747 393.939,642.333 "
         id="polygon489" />
    </g>
    <g
       transform="translate(-1592.2226,30.638772)"
       id="g491">
      <path
         style="fill:#ea5832"
         inkscape:connector-curvature="0"
         d="m 545.913,354.522 -23.652,55.619 c -0.748,1.758 0.543,3.708 2.452,3.708 l 47.306,0 c 1.908,0 3.199,-1.95 2.45,-3.708 l -23.653,-55.619 c -0.919,-2.161 -3.983,-2.161 -4.903,0 z"
         id="path493" />
      <path
         style="fill:#e0311a"
         inkscape:connector-curvature="0"
         d="m 550.815,354.522 c -0.495,-1.164 -1.608,-1.681 -2.677,-1.59 l 0,60.917 23.88,0 c 1.908,0 3.199,-1.95 2.45,-3.708 l -23.653,-55.619 z"
         id="path495" />
      <path
         style="fill:#e84123"
         inkscape:connector-curvature="0"
         d="m 576.025,416.576 -55.775,0 c -2.245,0 -4.081,-1.836 -4.081,-4.081 l 0,0 c 0,-2.244 1.836,-4.082 4.081,-4.082 l 55.775,0 c 2.246,0 4.082,1.838 4.082,4.082 l 0,0 c 0,2.245 -1.836,4.081 -4.082,4.081 z"
         id="path497" />
      <polygon
         style="fill:#fdd29b"
         points="561.387,379.382 556.603,368.126 540.128,368.126 535.342,379.382 "
         id="polygon499" />
      <polygon
         style="fill:#fdd29b"
         points="570.439,400.664 565.653,389.409 531.079,389.409 526.291,400.664 "
         id="polygon501" />
      <path
         style="fill:#e0311a"
         inkscape:connector-curvature="0"
         d="m 520.25,416.576 55.775,0 c 2.246,0 4.082,-1.836 4.082,-4.081 l -63.938,0 c 0,2.245 1.836,4.081 4.081,4.081 z"
         id="path503" />
      <polygon
         style="fill:#f4c491"
         points="570.439,400.664 565.653,389.409 548.139,389.409 548.139,400.664 "
         id="polygon505" />
      <polygon
         style="fill:#f4c491"
         points="561.387,379.382 556.603,368.126 548.139,368.126 548.139,379.382 "
         id="polygon507" />
    </g>
  </g>
</svg>
