<?xml version="1.0" encoding="UTF-8" standalone="no"?>
<svg
   xmlns:dc="http://purl.org/dc/elements/1.1/"
   xmlns:cc="http://creativecommons.org/ns#"
   xmlns:rdf="http://www.w3.org/1999/02/22-rdf-syntax-ns#"
   xmlns:svg="http://www.w3.org/2000/svg"
   xmlns="http://www.w3.org/2000/svg"
   version="1.1"
   id="svg4835"
   viewBox="0 0 485.60003 281.29998"
   height="79.389107mm"
   width="137.04712mm">
  <defs
     id="defs4837" />
  <metadata
     id="metadata4840">
    <rdf:RDF>
      <cc:Work
         rdf:about="">
        <dc:format>image/svg+xml</dc:format>
        <dc:type
           rdf:resource="http://purl.org/dc/dcmitype/StillImage" />
        <dc:title></dc:title>
      </cc:Work>
    </rdf:RDF>
  </metadata>
  <g
     transform="translate(482.8,-1017.4265)"
     id="layer1">
    <g
       id="g4606"
       transform="translate(-545.5,972.1265)">
      <rect
         style="fill:#b1daf6"
         id="rect8"
         height="174.60001"
         width="485.60001"
         y="45.299999"
         x="62.700001" />
      <rect
         style="fill:#424143"
         id="rect10"
         height="111.7"
         width="485.60001"
         y="214.89999"
         x="62.700001" />
      <path
         style="clip-rule:evenodd;fill:#24b096;fill-rule:evenodd"
         id="path12"
         d="m 271,114.5 c 5,0 10.1,0 15.1,0 0.9,0 1.2,0.2 1.2,1.2 -0.1,2.6 -0.1,5.1 0,7.7 0,0.8 -0.3,1.1 -1.1,1.1 -10.2,0 -20.4,0 -30.7,0 -0.9,0 -1,-0.3 -1,-1.1 0,-2.6 0,-5.2 0,-7.8 0,-0.8 0.2,-1 1,-1 5.2,-0.1 10.3,-0.1 15.5,-0.1 l 0,0 z" />
      <path
         style="clip-rule:evenodd;fill:#ffffff;fill-rule:evenodd"
         id="path14"
         d="m 271,117.7 c 4.4,0 8.9,0 13.3,0 0.8,0 1.1,0.1 1.1,0.4 -0.1,0.9 0,1.8 0,2.7 0,0.3 -0.2,0.4 -0.9,0.4 -9,0 -18,0 -26.9,0 -0.8,0 -0.9,-0.1 -0.9,-0.4 0,-0.9 0,-1.8 0,-2.7 0,-0.3 0.2,-0.4 0.9,-0.4 4.3,0 8.9,0 13.4,0 l 0,0 z" />
      <path
         style="clip-rule:evenodd;fill:#24b096;fill-rule:evenodd"
         id="path16"
         d="m 268.6,85.4 c 1.1,0 1,0.7 0.8,3 -0.1,0.6 -0.4,2.9 0.6,3.6 2.3,1.5 3.5,-2.1 4,-1.4 0.5,0.6 -0.2,2.2 -0.6,2.7 -1.2,1.4 -4.2,1.6 -5.4,0 -0.9,-1.5 -0.8,-7.9 0.6,-7.9" />
      <path
         style="clip-rule:evenodd;fill:#24b096;fill-rule:evenodd"
         id="path18"
         d="m 285.3,112.2 c 0,0.3 -0.2,0.4 -0.3,0.4 -0.3,0.2 -0.5,0 -0.6,-0.2 -0.5,-0.7 -1,-1.5 -1.5,-2.2 -3.1,-4.5 -6.1,-9 -9.2,-13.4 -0.2,-0.3 -0.9,-0.6 -0.2,-1.1 0.6,-0.4 0.6,0.2 0.8,0.5 3.5,5.1 7,10.1 10.5,15.2 0.2,0.3 0.4,0.6 0.5,0.8" />
      <path
         style="clip-rule:evenodd;fill:#24b096;fill-rule:evenodd"
         id="path20"
         d="m 256.1,112.2 c 0,0.3 0.2,0.4 0.3,0.4 0.3,0.2 0.5,0 0.6,-0.2 0.5,-0.7 1,-1.5 1.5,-2.2 3.1,-4.5 6.1,-9 9.2,-13.4 0.2,-0.3 0.9,-0.6 0.2,-1.1 -0.6,-0.4 -0.6,0.2 -0.8,0.5 -3.5,5.1 -7,10.1 -10.5,15.2 -0.1,0.3 -0.3,0.6 -0.5,0.8" />
      <polygon
         style="clip-rule:evenodd;fill:#24b096;fill-rule:evenodd"
         id="polygon22"
         points="204.6,98.6 208.5,98.6 208.5,86.4 270.9,86.4 265.6,76.8 208.5,76.8 208.5,71 205,70.6 205,59.4 193.7,59.4 193.7,71 188.1,71.1 188.1,77 171.8,77 177.2,86.4 187.2,86.4 187.3,98.6 192.6,98.6 192.9,210.9 204,210.9 " />
      <path
         style="clip-rule:evenodd;fill:#ffffff;fill-rule:evenodd"
         id="path24"
         d="m 202.3,209.2 c -3,-1.7 -5.8,-3.4 -8.8,-5.1 3,-1.7 5.8,-3.3 8.8,-5 l 0,10.1 z" />
      <path
         style="clip-rule:evenodd;fill:#ffffff;fill-rule:evenodd"
         id="path26"
         d="m 193.5,197.5 c 3,-1.7 5.8,-3.4 8.8,-5.1 -3,-1.7 -5.8,-3.3 -8.8,-5 l 0,10.1 z" />
      <path
         style="clip-rule:evenodd;fill:#ffffff;fill-rule:evenodd"
         id="path28"
         d="m 202.3,185.9 c -3,-1.7 -5.8,-3.4 -8.8,-5.1 3,-1.7 5.8,-3.3 8.8,-5 l 0,10.1 z" />
      <path
         style="clip-rule:evenodd;fill:#ffffff;fill-rule:evenodd"
         id="path30"
         d="m 193.5,174.3 c 3,-1.7 5.8,-3.4 8.8,-5.1 -3,-1.7 -5.8,-3.3 -8.8,-5.1 l 0,10.2 z" />
      <path
         style="clip-rule:evenodd;fill:#ffffff;fill-rule:evenodd"
         id="path32"
         d="m 202.3,162.6 c -3,-1.7 -5.8,-3.4 -8.8,-5.1 3,-1.7 5.8,-3.3 8.8,-5 l 0,10.1 z" />
      <path
         style="clip-rule:evenodd;fill:#ffffff;fill-rule:evenodd"
         id="path34"
         d="m 193.5,151 c 3,-1.7 5.8,-3.4 8.8,-5.1 -3,-1.7 -5.8,-3.3 -8.8,-5 l 0,10.1 z" />
      <path
         style="clip-rule:evenodd;fill:#ffffff;fill-rule:evenodd"
         id="path36"
         d="m 202.3,139.4 c -3,-1.7 -5.8,-3.4 -8.8,-5.1 3,-1.7 5.8,-3.3 8.8,-5.1 l 0,10.2 z" />
      <path
         style="clip-rule:evenodd;fill:#ffffff;fill-rule:evenodd"
         id="path38"
         d="m 193.5,127.8 c 3,-1.7 5.8,-3.4 8.8,-5.1 -3,-1.7 -5.8,-3.3 -8.8,-5 l 0,10.1 z" />
      <path
         style="clip-rule:evenodd;fill:#ffffff;fill-rule:evenodd"
         id="path40"
         d="m 202.3,116.1 c -3,-1.7 -5.8,-3.4 -8.8,-5.1 3,-1.7 5.8,-3.3 8.8,-5.1 l 0,10.2 z" />
      <path
         style="clip-rule:evenodd;fill:#ffffff;fill-rule:evenodd"
         id="path42"
         d="m 266.5,85.4 c -1.5,-2.5 -2.9,-4.9 -4.3,-7.5 -1.5,2.5 -2.8,4.9 -4.3,7.5 l 8.6,0 z" />
      <path
         style="clip-rule:evenodd;fill:#ffffff;fill-rule:evenodd"
         id="path44"
         d="m 256.6,78 c -1.5,2.5 -2.9,4.9 -4.3,7.5 C 250.8,83 249.5,80.6 248,78 l 8.6,0 z" />
      <path
         style="clip-rule:evenodd;fill:#ffffff;fill-rule:evenodd"
         id="path46"
         d="m 246.7,85.4 c -1.5,-2.5 -2.9,-4.9 -4.3,-7.5 -1.5,2.5 -2.8,4.9 -4.3,7.5 l 8.6,0 z" />
      <path
         style="clip-rule:evenodd;fill:#ffffff;fill-rule:evenodd"
         id="path48"
         d="m 236.8,78 c -1.5,2.5 -2.9,4.9 -4.3,7.5 C 231,83 229.7,80.6 228.2,78 l 8.6,0 z" />
      <path
         style="clip-rule:evenodd;fill:#ffffff;fill-rule:evenodd"
         id="path50"
         d="m 227,85.4 c -1.5,-2.5 -2.9,-4.9 -4.3,-7.5 -1.5,2.5 -2.8,4.9 -4.3,7.5 l 8.6,0 z" />
      <path
         style="clip-rule:evenodd;fill:#ffffff;fill-rule:evenodd"
         id="path52"
         d="m 217.1,78 c -1.5,2.5 -2.9,4.9 -4.3,7.5 C 211.3,83 210,80.6 208.5,78 l 8.6,0 z" />
      <path
         style="fill:#ffffff"
         id="path54"
         d="m 205.5,84.9 c 0,4.2 -3.4,7.6 -7.6,7.6 -4.2,0 -7.6,-3.4 -7.6,-7.6 0,-4.2 3.4,-7.6 7.6,-7.6 4.2,0 7.6,3.4 7.6,7.6" />
      <rect
         style="fill:#045670"
         id="rect56"
         height="39.299999"
         width="39.599998"
         y="166.10001"
         x="232.5" />
      <rect
         style="fill:#ffeac7"
         id="rect58"
         height="30.6"
         width="32"
         y="174.8"
         x="257.20001" />
      <rect
         style="fill:#ffffff"
         id="rect60"
         height="18.6"
         width="19.4"
         y="187.3"
         x="227.10001" />
      <polygon
         style="fill:#932a36"
         id="polygon62"
         points="131.9,101.3 131.9,113.4 120.8,204.6 137,204.6 153.2,204.6 142.1,113.4 142.1,101.3 " />
      <polygon
         style="fill:#ed6a67"
         id="polygon64"
         points="142.1,101.3 136.7,101.3 136.7,204.6 153.2,204.6 142.1,113.4 " />
      <rect
         style="fill:#ffffff"
         id="rect66"
         height="4.5999999"
         width="16"
         y="108.5"
         x="129" />
      <polygon
         style="fill:#932a36"
         id="polygon68"
         points="163.3,132.6 163.3,141.1 155.5,204.9 166.8,204.9 178.2,204.9 170.4,141.1 170.4,132.6 " />
      <polygon
         style="fill:#ed6a67"
         id="polygon70"
         points="170.4,132.6 166.6,132.6 166.6,204.9 178.2,204.9 170.4,141.1 " />
      <rect
         style="fill:#ffffff"
         id="rect72"
         height="3.2"
         width="11.2"
         y="137.60001"
         x="161.2" />
      <path
         style="fill:#ed6a67"
         id="path74"
         d="m 100.8,119.9 c -9.1,-0.8 -9.1,6.4 -9.1,6.4 l 0,79.5 8.9,0 0.3,0 8.9,0 0,-79.5 c 0.1,0 0.1,-7.2 -9,-6.4" />
      <path
         style="fill:#932a36"
         id="path76"
         d="m 100.8,119.9 c -0.1,0 -0.2,0 -0.3,0 l 0,85.9 9.4,0 0,-79.5 c 0,0 0,-7.2 -9.1,-6.4" />
      <rect
         style="fill:#ffffff"
         id="rect78"
         height="1.9"
         width="9.5"
         y="157.60001"
         x="95.699997" />
      <rect
         style="fill:#ffffff"
         id="rect80"
         height="1.9"
         width="9.5"
         y="162.3"
         x="95.699997" />
      <rect
         style="fill:#ffffff"
         id="rect82"
         height="1.9"
         width="9.5"
         y="166.89999"
         x="95.699997" />
      <rect
         style="fill:#ffffff"
         id="rect84"
         height="1.9"
         width="9.5"
         y="171.60001"
         x="95.699997" />
      <rect
         style="fill:#ffffff"
         id="rect86"
         height="1.9"
         width="9.5"
         y="176.2"
         x="95.699997" />
      <rect
         style="fill:#ffffff"
         id="rect88"
         height="1.9"
         width="9.5"
         y="180.8"
         x="95.699997" />
      <rect
         style="fill:#ffffff"
         id="rect90"
         height="1.9"
         width="9.5"
         y="185.5"
         x="95.699997" />
      <rect
         style="fill:#ffffff"
         id="rect92"
         height="1.9"
         width="9.5"
         y="190.10001"
         x="95.699997" />
      <rect
         style="fill:#ffffff"
         id="rect94"
         height="1.9"
         width="9.5"
         y="194.8"
         x="95.699997" />
      <rect
         style="fill:#ffffff"
         id="rect96"
         height="1.9"
         width="9.5"
         y="199.39999"
         x="95.699997" />
      <rect
         style="fill:#ffffff"
         id="rect98"
         height="3.5"
         width="24.700001"
         y="144.7"
         x="88.099998" />
      <rect
         style="fill:#ffffff"
         id="rect100"
         height="3.5"
         width="24.700001"
         y="150.39999"
         x="88.099998" />
      <path
         style="fill:#ffffff"
         id="path102"
         d="m 104.6,126.7 c 0,2.2 -1.8,4 -4,4 -2.2,0 -4,-1.8 -4,-4 0,-2.2 1.8,-4 4,-4 2.2,0 4,1.8 4,4" />
      <path
         style="fill:#ffffff"
         id="path104"
         d="m 104.3,137.2 c 0,2.2 -1.8,4 -4,4 -2.2,0 -4,-1.8 -4,-4 0,-2.2 1.8,-4 4,-4 2.2,0 4,1.7 4,4" />
      <rect
         style="fill:#24b096"
         id="rect106"
         height="11"
         width="213.3"
         y="203.89999"
         x="82.199997" />
      <path
         style="fill:#ed6a67"
         id="path108"
         d="m 343.5,215.4 0,-3.3 -1.6,0 -8.6,-26 c 1,-0.8 1.6,-2 1.6,-3.3 0,-2.4 -1.9,-4.3 -4.3,-4.3 -2.4,0 -4.3,1.9 -4.3,4.3 0,1.3 0.6,2.5 1.6,3.3 l -8.6,26.1 -1.7,0 0,3.3 25.9,0 z m -17.6,-3.3 4.7,-4.7 4.6,4.7 -9.3,0 z m 13.8,0 -1.2,0 -6.4,-6.2 4.1,-4.1 3.5,10.3 z m -6.3,-19.1 1,3.1 -2.1,-2.1 1.1,-1 z m -3.6,-6 c 0.3,0.1 0.5,0.1 0.8,0.1 0.3,0 0.5,0 0.7,-0.1 l 1.2,3.8 -1.9,1.8 -2.1,-2.1 1.3,-3.5 z m -1.8,5.6 1.4,1.4 -2.7,2.7 1.3,-4.1 z m 2.9,2.9 4.4,4.3 -4.6,4.6 -4.5,-4.4 4.7,-4.5 z m -5.9,6.2 4.2,4.2 -6.1,6.2 -1.6,0 3.5,-10.4 z" />
      <path
         style="fill:#ed6a67"
         id="path110"
         d="m 352.6,214.8 0,-1.8 -0.9,0 -4.8,-14.5 c 0.6,-0.4 0.9,-1.1 0.9,-1.9 0,-1.3 -1.1,-2.4 -2.4,-2.4 -1.3,0 -2.4,1.1 -2.4,2.4 0,0.7 0.3,1.4 0.9,1.8 l -4.8,14.5 -0.9,0 0,1.8 14.4,0 z m -9.8,-1.8 2.6,-2.6 2.6,2.6 -5.2,0 z m 7.7,0 -0.7,0 -3.5,-3.5 2.3,-2.3 1.9,5.8 z m -3.5,-10.6 0.6,1.7 -1.2,-1.2 0.6,-0.5 z m -2,-3.4 c 0.2,0 0.3,0 0.5,0 0.1,0 0.3,0 0.4,0 l 0.7,2.1 -1,1 -1.2,-1.2 0.6,-1.9 z m -1,3.1 0.8,0.8 -1.5,1.5 0.7,-2.3 z m 1.6,1.6 2.4,2.4 -2.6,2.6 -2.5,-2.5 2.7,-2.5 z m -3.3,3.5 2.3,2.4 -3.4,3.4 -0.9,0 2,-5.8 z" />
      <path
         style="fill:none;stroke:#b1daf6;stroke-width:0.45519999;stroke-miterlimit:10"
         id="path112"
         d="m 535.6,225.2 c 0,0 -0.7,3.4 -3.6,3.4 -2.7,0 -3.6,-3.3 -3.6,-3.4 l -0.1,0 -0.1,0 c 0,0 -0.7,3.4 -3.6,3.4 -2.7,0 -3.6,-3.3 -3.6,-3.4 l -0.1,0 -0.1,0 c 0,0 -0.7,3.4 -3.6,3.4 -2.7,0 -3.6,-3.3 -3.6,-3.4 l -0.1,0 -0.1,0 c 0,0 -0.7,3.4 -3.6,3.4 -2.7,0 -3.6,-3.3 -3.6,-3.4 l -0.1,0 -0.1,0 c 0,0 -0.7,3.4 -3.6,3.4 -2.7,0 -3.6,-3.3 -3.6,-3.4 l -0.1,0 -0.1,0 c 0,0 -0.7,3.4 -3.6,3.4 -2.7,0 -3.6,-3.3 -3.6,-3.4 l -0.1,0 -0.1,0 c 0,0 -0.7,3.4 -3.6,3.4 -2.7,0 -3.6,-3.3 -3.6,-3.4 l -0.1,0 -0.1,0 c 0,0 -0.7,3.4 -3.6,3.4 -2.7,0 -3.6,-3.3 -3.6,-3.4 l -0.1,0 -0.1,0 c 0,0 -0.7,3.4 -3.6,3.4 -2.7,0 -3.6,-3.3 -3.6,-3.4 l -0.2,0.1 c 0,0 1,3.6 3.9,3.6 2.5,0 3.5,-2.2 3.8,-3.2 0.4,0.9 1.5,3.2 3.8,3.2 2.5,0 3.5,-2.2 3.8,-3.2 0.4,0.9 1.5,3.2 3.8,3.2 2.5,0 3.5,-2.2 3.8,-3.2 0.4,0.9 1.5,3.2 3.8,3.2 2.5,0 3.5,-2.2 3.8,-3.2 0.4,0.9 1.5,3.2 3.8,3.2 2.5,0 3.5,-2.2 3.8,-3.2 0.4,0.9 1.5,3.2 3.8,3.2 2.5,0 3.5,-2.2 3.8,-3.2 0.4,0.9 1.5,3.2 3.8,3.2 2.5,0 3.5,-2.2 3.8,-3.2 0.4,0.9 1.5,3.2 3.8,3.2 2.5,0 3.5,-2.2 3.8,-3.2 0.4,0.9 1.5,3.2 3.8,3.2 3.1,0 3.9,-3.6 3.9,-3.6 l -2,-0.1 z"
         stroke-miterlimit="10" />
      <path
         style="fill:none;stroke:#b1daf6;stroke-width:0.45519999;stroke-miterlimit:10"
         id="path114"
         d="m 331.1,242.6 c 0,0 -0.7,3.4 -3.6,3.4 -2.7,0 -3.6,-3.3 -3.6,-3.4 l -0.1,0 -0.1,0 c 0,0 -0.7,3.4 -3.6,3.4 -2.7,0 -3.6,-3.3 -3.6,-3.4 l -0.1,0 -0.1,0 c 0,0 -0.7,3.4 -3.6,3.4 -2.7,0 -3.6,-3.3 -3.6,-3.4 l -0.1,0 -0.1,0 c 0,0 -0.7,3.4 -3.6,3.4 -2.7,0 -3.6,-3.3 -3.6,-3.4 l -0.1,0 -0.1,0 c 0,0 -0.7,3.4 -3.6,3.4 -2.7,0 -3.6,-3.3 -3.6,-3.4 l -0.1,0 -0.1,0 c 0,0 -0.7,3.4 -3.6,3.4 -2.7,0 -3.6,-3.3 -3.6,-3.4 l -0.1,0 -0.1,0 c 0,0 -0.7,3.4 -3.6,3.4 -2.7,0 -3.6,-3.3 -3.6,-3.4 l -0.1,0 -0.1,0 c 0,0 -0.7,3.4 -3.6,3.4 -2.7,0 -3.6,-3.3 -3.6,-3.4 l -0.1,0 -0.1,0 c 0,0 -0.7,3.4 -3.6,3.4 -2.7,0 -3.6,-3.3 -3.6,-3.4 l -0.3,0.1 c 0,0 1,3.6 3.9,3.6 2.5,0 3.5,-2.2 3.8,-3.2 0.4,0.9 1.5,3.2 3.8,3.2 2.5,0 3.5,-2.2 3.8,-3.2 0.4,0.9 1.5,3.2 3.8,3.2 2.5,0 3.5,-2.2 3.8,-3.2 0.4,0.9 1.5,3.2 3.8,3.2 2.5,0 3.5,-2.2 3.8,-3.2 0.4,0.9 1.5,3.2 3.8,3.2 2.5,0 3.5,-2.2 3.8,-3.2 0.4,0.9 1.5,3.2 3.8,3.2 2.5,0 3.5,-2.2 3.8,-3.2 0.4,0.9 1.5,3.2 3.8,3.2 2.5,0 3.5,-2.2 3.8,-3.2 0.4,0.9 1.5,3.2 3.8,3.2 2.5,0 3.5,-2.2 3.8,-3.2 0.4,0.9 1.5,3.2 3.8,3.2 3.1,0 3.9,-3.6 3.9,-3.6 l -1.9,-0.1 z"
         stroke-miterlimit="10" />
      <path
         style="fill:none;stroke:#b1daf6;stroke-width:0.45519999;stroke-miterlimit:10"
         id="path116"
         d="m 172.4,298.1 c 0,0 -0.7,3.4 -3.6,3.4 -2.7,0 -3.6,-3.3 -3.6,-3.4 l -0.1,0 -0.1,0 c 0,0 -0.7,3.4 -3.6,3.4 -2.7,0 -3.6,-3.3 -3.6,-3.4 l -0.1,0 -0.1,0 c 0,0 -0.7,3.4 -3.6,3.4 -2.7,0 -3.6,-3.3 -3.6,-3.4 l -0.1,0 -0.1,0 c 0,0 -0.7,3.4 -3.6,3.4 -2.7,0 -3.6,-3.3 -3.6,-3.4 l -0.1,0 -0.1,0 c 0,0 -0.7,3.4 -3.6,3.4 -2.7,0 -3.6,-3.3 -3.6,-3.4 l -0.1,0 -0.1,0 c 0,0 -0.7,3.4 -3.6,3.4 -2.7,0 -3.6,-3.3 -3.6,-3.4 l -0.1,0 -0.1,0 c 0,0 -0.7,3.4 -3.6,3.4 -2.7,0 -3.6,-3.3 -3.6,-3.4 l -0.1,0 -0.1,0 c 0,0 -0.7,3.4 -3.6,3.4 -2.7,0 -3.6,-3.3 -3.6,-3.4 l -0.1,0 -0.1,0 c 0,0 -0.7,3.4 -3.6,3.4 -2.7,0 -3.6,-3.3 -3.6,-3.4 l -0.3,0.1 c 0,0 1,3.6 3.9,3.6 2.5,0 3.5,-2.2 3.8,-3.2 0.4,0.9 1.5,3.2 3.8,3.2 2.5,0 3.5,-2.2 3.8,-3.2 0.4,0.9 1.5,3.2 3.8,3.2 2.5,0 3.5,-2.2 3.8,-3.2 0.4,0.9 1.5,3.2 3.8,3.2 2.5,0 3.5,-2.2 3.8,-3.2 0.4,0.9 1.5,3.2 3.8,3.2 2.5,0 3.5,-2.2 3.8,-3.2 0.4,0.9 1.5,3.2 3.8,3.2 2.5,0 3.5,-2.2 3.8,-3.2 0.4,0.9 1.5,3.2 3.8,3.2 2.5,0 3.5,-2.2 3.8,-3.2 0.4,0.9 1.5,3.2 3.8,3.2 2.5,0 3.5,-2.2 3.8,-3.2 0.4,0.9 1.5,3.2 3.8,3.2 3.1,0 3.9,-3.6 3.9,-3.6 l -1.9,-0.1 z"
         stroke-miterlimit="10" />
      <path
         style="fill:none;stroke:#b1daf6;stroke-width:0.45519999;stroke-miterlimit:10"
         id="path118"
         d="m 399.2,307.4 c 0,0 -0.7,3.4 -3.6,3.4 -2.7,0 -3.6,-3.3 -3.6,-3.4 l -0.1,0 -0.1,0 c 0,0 -0.7,3.4 -3.6,3.4 -2.7,0 -3.6,-3.3 -3.6,-3.4 l -0.1,0 -0.1,0 c 0,0 -0.7,3.4 -3.6,3.4 -2.7,0 -3.6,-3.3 -3.6,-3.4 l -0.1,0 -0.1,0 c 0,0 -0.7,3.4 -3.6,3.4 -2.7,0 -3.6,-3.3 -3.6,-3.4 l -0.1,0 -0.1,0 c 0,0 -0.7,3.4 -3.6,3.4 -2.7,0 -3.6,-3.3 -3.6,-3.4 l -0.1,0 -0.1,0 c 0,0 -0.7,3.4 -3.6,3.4 -2.7,0 -3.6,-3.3 -3.6,-3.4 l -0.1,0 -0.1,0 c 0,0 -0.7,3.4 -3.6,3.4 -2.7,0 -3.6,-3.3 -3.6,-3.4 l -0.1,0 -0.1,0 c 0,0 -0.7,3.4 -3.6,3.4 -2.7,0 -3.6,-3.3 -3.6,-3.4 l -0.1,0 -0.1,0 c 0,0 -0.7,3.4 -3.6,3.4 -2.7,0 -3.6,-3.3 -3.6,-3.4 l -0.3,0.1 c 0,0 1,3.6 3.9,3.6 2.5,0 3.5,-2.2 3.8,-3.2 0.4,0.9 1.5,3.2 3.8,3.2 2.5,0 3.5,-2.2 3.8,-3.2 0.4,0.9 1.5,3.2 3.8,3.2 2.5,0 3.5,-2.2 3.8,-3.2 0.4,0.9 1.5,3.2 3.8,3.2 2.5,0 3.5,-2.2 3.8,-3.2 0.4,0.9 1.5,3.2 3.8,3.2 2.5,0 3.5,-2.2 3.8,-3.2 0.4,0.9 1.5,3.2 3.8,3.2 2.5,0 3.5,-2.2 3.8,-3.2 0.4,0.9 1.5,3.2 3.8,3.2 2.5,0 3.5,-2.2 3.8,-3.2 0.4,0.9 1.5,3.2 3.8,3.2 2.5,0 3.5,-2.2 3.8,-3.2 0.4,0.9 1.5,3.2 3.8,3.2 3.1,0 3.9,-3.6 3.9,-3.6 l -1.9,-0.1 z"
         stroke-miterlimit="10" />
      <path
         style="fill:none;stroke:#b1daf6;stroke-width:0.45519999;stroke-miterlimit:10"
         id="path120"
         d="m 212.5,256.4 c 0,0 -0.7,3.4 -3.6,3.4 -2.7,0 -3.6,-3.3 -3.6,-3.4 l -0.1,0 -0.1,0 c 0,0 -0.7,3.4 -3.6,3.4 -2.7,0 -3.6,-3.3 -3.6,-3.4 l -0.1,0 -0.1,0 c 0,0 -0.7,3.4 -3.6,3.4 -2.7,0 -3.6,-3.3 -3.6,-3.4 l -0.1,0 -0.1,0 c 0,0 -0.7,3.4 -3.6,3.4 -2.7,0 -3.6,-3.3 -3.6,-3.4 l -0.1,0 -0.1,0 c 0,0 -0.7,3.4 -3.6,3.4 -2.7,0 -3.6,-3.3 -3.6,-3.4 l -0.1,0 -0.1,0 c 0,0 -0.7,3.4 -3.6,3.4 -2.7,0 -3.6,-3.3 -3.6,-3.4 l -0.1,0 -0.1,0 c 0,0 -0.7,3.4 -3.6,3.4 -2.7,0 -3.6,-3.3 -3.6,-3.4 l -0.1,0 -0.1,0 c 0,0 -0.7,3.4 -3.6,3.4 -2.7,0 -3.6,-3.3 -3.6,-3.4 l -0.1,0 -0.1,0 c 0,0 -0.7,3.4 -3.6,3.4 -2.7,0 -3.6,-3.3 -3.6,-3.4 l -0.2,0.1 c 0,0 1,3.6 3.9,3.6 2.5,0 3.5,-2.2 3.8,-3.2 0.4,0.9 1.5,3.2 3.8,3.2 2.5,0 3.5,-2.2 3.8,-3.2 0.4,0.9 1.5,3.2 3.8,3.2 2.5,0 3.5,-2.2 3.8,-3.2 0.4,0.9 1.5,3.2 3.8,3.2 2.5,0 3.5,-2.2 3.8,-3.2 0.4,0.9 1.5,3.2 3.8,3.2 2.5,0 3.5,-2.2 3.8,-3.2 0.4,0.9 1.5,3.2 3.8,3.2 2.5,0 3.5,-2.2 3.8,-3.2 0.4,0.9 1.5,3.2 3.8,3.2 2.5,0 3.5,-2.2 3.8,-3.2 0.4,0.9 1.5,3.2 3.8,3.2 2.5,0 3.5,-2.2 3.8,-3.2 0.4,0.9 1.5,3.2 3.8,3.2 3.1,0 3.9,-3.6 3.9,-3.6 l -2,-0.1 z"
         stroke-miterlimit="10" />
      <path
         style="fill:#afdad2"
         id="path122"
         d="m 257.5,292.3 c 0.1,-0.1 1.4,-1.4 3.6,-1.3 1.7,0.1 3.2,1.1 3.3,1.3 l 1.8,-1.3 c 0.5,0.4 -0.2,1.2 -0.3,1.3 0.1,0.1 0.8,0.9 0.3,1.3 l -1.8,-1.3 c -0.2,0.2 -1.6,1.2 -3.3,1.3 -2.2,0.1 -3.4,-1.1 -3.6,-1.3" />
      <path
         style="fill:#afdad2"
         id="path124"
         d="m 249.2,288 c 0.1,-0.1 1.4,-1.4 3.6,-1.3 1.7,0.1 3.2,1.1 3.3,1.3 l 1.8,-1.3 c 0.5,0.4 -0.2,1.2 -0.3,1.3 0.1,0.1 0.8,0.9 0.3,1.3 l -1.8,-1.3 c -0.2,0.2 -1.6,1.2 -3.3,1.3 -2.2,0.1 -3.5,-1.2 -3.6,-1.3" />
      <path
         style="fill:#c0dba6"
         id="path126"
         d="m 258.5,283.8 c 0.1,-0.1 1.4,-1.4 3.6,-1.3 1.7,0.1 3.2,1.1 3.3,1.3 l 1.8,-1.3 c 0.5,0.4 -0.2,1.2 -0.3,1.3 0.1,0.1 0.8,0.9 0.3,1.3 l -1.8,-1.3 c -0.2,0.2 -1.6,1.2 -3.3,1.3 -2.2,0.2 -3.5,-1.1 -3.6,-1.3" />
      <path
         style="fill:#c0dba6"
         id="path128"
         d="m 271.9,284.7 c 0.1,-0.1 1.4,-1.4 3.6,-1.3 1.7,0.1 3.2,1.1 3.3,1.3 l 1.8,-1.3 c 0.5,0.4 -0.2,1.2 -0.3,1.3 0.1,0.1 0.8,0.9 0.3,1.3 l -1.8,-1.3 c -0.2,0.2 -1.6,1.2 -3.3,1.3 -2.2,0.1 -3.4,-1.2 -3.6,-1.3" />
      <path
         style="fill:#c0dba6"
         id="path130"
         d="m 265.8,296.9 c 0.1,-0.1 1.4,-1.4 3.6,-1.3 1.7,0.1 3.2,1.1 3.3,1.3 l 1.8,-1.3 c 0.5,0.4 -0.2,1.2 -0.3,1.3 0.1,0.1 0.8,0.9 0.3,1.3 l -1.8,-1.3 c -0.2,0.2 -1.6,1.2 -3.3,1.3 -2.2,0.1 -3.5,-1.2 -3.6,-1.3" />
      <path
         style="fill:#b1daf6"
         id="path132"
         d="m 262.1,288 c 0.1,-0.1 1.4,-1.4 3.6,-1.3 1.7,0.1 3.2,1.1 3.3,1.3 l 1.8,-1.3 c 0.5,0.4 -0.2,1.2 -0.3,1.3 0.1,0.1 0.8,0.9 0.3,1.3 L 269,288 c -0.2,0.2 -1.6,1.2 -3.3,1.3 -2.2,0.1 -3.5,-1.2 -3.6,-1.3" />
      <path
         style="fill:#b1daf6"
         id="path134"
         d="m 270.2,292.3 c 0.1,-0.1 1.4,-1.4 3.6,-1.3 1.7,0.1 3.2,1.1 3.3,1.3 l 1.8,-1.3 c 0.5,0.4 -0.2,1.2 -0.3,1.3 0.1,0.1 0.8,0.9 0.3,1.3 l -1.8,-1.3 c -0.2,0.2 -1.6,1.2 -3.3,1.3 -2.2,0.2 -3.5,-1.1 -3.6,-1.3" />
      <path
         style="fill:#b1daf6"
         id="path136"
         d="m 264.1,280 c 0.1,-0.1 1.4,-1.4 3.6,-1.3 1.7,0.1 3.2,1.1 3.3,1.3 l 1.8,-1.3 c 0.5,0.4 -0.2,1.2 -0.3,1.3 0.1,0.1 0.8,0.9 0.3,1.3 L 271,280 c -0.2,0.2 -1.6,1.2 -3.3,1.3 -2.2,0.2 -3.5,-1.1 -3.6,-1.3" />
      <path
         style="fill:#afdad2"
         id="path138"
         d="m 435.6,287.4 c 0.3,-0.3 3.1,-3.2 8,-2.9 3.9,0.2 7.1,2.6 7.5,2.9 l 4,-2.9 c 1.1,0.9 -0.5,2.8 -0.7,2.9 0.1,0.2 1.8,2 0.7,2.9 l -4,-2.9 c -0.4,0.3 -3.6,2.6 -7.5,2.9 -4.9,0.3 -7.8,-2.6 -8,-2.9" />
      <path
         style="fill:#afdad2"
         id="path140"
         d="m 416.8,277.7 c 0.3,-0.3 3.1,-3.2 8,-2.9 3.9,0.2 7.1,2.6 7.5,2.9 l 4,-2.9 c 1.1,0.9 -0.5,2.8 -0.7,2.9 0.1,0.2 1.8,2 0.7,2.9 l -4,-2.9 c -0.4,0.3 -3.6,2.6 -7.5,2.9 -4.9,0.3 -7.8,-2.6 -8,-2.9" />
      <path
         style="fill:#c0dba6"
         id="path142"
         d="m 437.6,268.4 c 0.3,-0.3 3.1,-3.2 8,-2.9 3.9,0.2 7.1,2.6 7.5,2.9 l 4,-2.9 c 1.1,0.9 -0.5,2.8 -0.7,2.9 0.1,0.2 1.8,2 0.7,2.9 l -4,-2.9 c -0.4,0.3 -3.6,2.6 -7.5,2.9 -4.9,0.3 -7.7,-2.6 -8,-2.9" />
      <path
         style="fill:#c0dba6"
         id="path144"
         d="m 467.8,270.4 c 0.3,-0.3 3.1,-3.2 8,-2.9 3.9,0.2 7.1,2.6 7.5,2.9 l 4,-2.9 c 1.1,0.9 -0.5,2.8 -0.7,2.9 0.1,0.2 1.8,2 0.7,2.9 l -4,-2.9 c -0.5,0.3 -3.6,2.6 -7.5,2.9 -4.9,0.3 -7.8,-2.6 -8,-2.9" />
      <path
         style="fill:#c0dba6"
         id="path146"
         d="m 453.9,297.6 c 0.3,-0.3 3.1,-3.2 8,-2.9 3.9,0.2 7.1,2.6 7.5,2.9 l 4,-2.9 c 1.1,0.9 -0.5,2.8 -0.7,2.9 0.1,0.2 1.8,2 0.7,2.9 l -4,-2.9 c -0.4,0.3 -3.6,2.6 -7.5,2.9 -4.8,0.2 -7.7,-2.7 -8,-2.9" />
      <path
         style="fill:#b1daf6"
         id="path148"
         d="m 445.8,277.7 c 0.3,-0.3 3.1,-3.2 8,-2.9 3.9,0.2 7.1,2.6 7.5,2.9 l 4,-2.9 c 1.1,0.9 -0.5,2.8 -0.7,2.9 0.1,0.2 1.8,2 0.7,2.9 l -4,-2.9 c -0.4,0.3 -3.6,2.6 -7.5,2.9 -4.9,0.3 -7.8,-2.6 -8,-2.9" />
      <path
         style="fill:#b1daf6"
         id="path150"
         d="m 463.9,287.4 c 0.3,-0.3 3.1,-3.2 8,-2.9 3.9,0.2 7.1,2.6 7.5,2.9 l 4,-2.9 c 1.1,0.9 -0.5,2.8 -0.7,2.9 0.1,0.2 1.8,2 0.7,2.9 l -4,-2.9 c -0.4,0.3 -3.6,2.6 -7.5,2.9 -4.9,0.3 -7.8,-2.6 -8,-2.9" />
      <path
         style="fill:#b1daf6"
         id="path152"
         d="m 450.3,259.9 c 0.3,-0.3 3.1,-3.2 8,-2.9 3.9,0.2 7.1,2.6 7.5,2.9 l 4,-2.9 c 1.1,0.9 -0.5,2.8 -0.7,2.9 0.1,0.2 1.8,2.1 0.7,2.9 l -4,-2.9 c -0.5,0.3 -3.6,2.6 -7.5,2.9 -4.9,0.3 -7.7,-2.6 -8,-2.9" />
      <path
         style="fill:#afdad2"
         id="path154"
         d="m 109.6,255.5 c -0.2,-0.2 -2,-2 -5.1,-1.8 -2.5,0.1 -4.5,1.6 -4.8,1.8 l -2.6,-1.8 c -0.7,0.5 0.3,1.8 0.4,1.9 -0.1,0.1 -1.1,1.3 -0.4,1.9 l 2.6,-1.8 c 0.3,0.2 2.3,1.7 4.8,1.8 3.1,0.1 5,-1.8 5.1,-2" />
      <path
         style="fill:#afdad2"
         id="path156"
         d="m 121.6,249.3 c -0.2,-0.2 -2,-2 -5.1,-1.8 -2.5,0.1 -4.5,1.6 -4.8,1.8 l -2.6,-1.8 c -0.7,0.6 0.3,1.8 0.4,1.9 -0.1,0.1 -1.1,1.3 -0.4,1.9 l 2.6,-1.8 c 0.3,0.2 2.3,1.7 4.8,1.8 3.1,0.1 5,-1.8 5.1,-2" />
      <path
         style="fill:#c0dba6"
         id="path158"
         d="m 108.3,243.4 c -0.2,-0.2 -2,-2 -5.1,-1.8 -2.5,0.1 -4.5,1.6 -4.8,1.8 l -2.6,-1.8 c -0.7,0.6 0.3,1.8 0.4,1.9 -0.1,0.1 -1.1,1.3 -0.4,1.9 l 2.6,-1.8 c 0.3,0.2 2.3,1.7 4.8,1.8 3.1,0 5,-1.9 5.1,-2" />
      <path
         style="fill:#c0dba6"
         id="path160"
         d="m 89,244.7 c -0.2,-0.2 -2,-2 -5.1,-1.8 -2.5,0.1 -4.5,1.6 -4.8,1.8 l -2.6,-1.8 c -0.7,0.5 0.3,1.8 0.4,1.9 -0.1,0.1 -1.1,1.3 -0.4,1.9 l 2.6,-1.8 c 0.3,0.2 2.3,1.7 4.8,1.8 3.1,0 5,-1.9 5.1,-2" />
      <path
         style="fill:#c0dba6"
         id="path162"
         d="m 97.9,262 c -0.2,-0.2 -2,-2 -5.1,-1.8 -2.5,0.1 -4.5,1.6 -4.8,1.8 l -2.6,-1.8 c -0.7,0.5 0.3,1.8 0.4,1.9 -0.1,0.1 -1.1,1.3 -0.4,1.9 l 2.6,-2 c 0.3,0.2 2.3,1.7 4.8,1.8 3.1,0.3 4.9,-1.6 5.1,-1.8" />
      <path
         style="fill:#b1daf6"
         id="path164"
         d="m 103.1,249.3 c -0.2,-0.2 -2,-2 -5.1,-1.8 -2.5,0.1 -4.5,1.6 -4.8,1.8 l -2.6,-1.8 c -0.7,0.6 0.3,1.8 0.4,1.9 -0.1,0.1 -1.1,1.3 -0.4,1.9 l 2.6,-1.8 c 0.3,0.2 2.3,1.7 4.8,1.8 3.1,0.1 4.9,-1.8 5.1,-2" />
      <path
         style="fill:#b1daf6"
         id="path166"
         d="m 91.5,255.5 c -0.2,-0.2 -2,-2 -5.1,-1.8 -2.5,0.1 -4.5,1.6 -4.8,1.8 L 79,253.7 c -0.7,0.5 0.3,1.8 0.4,1.9 -0.1,0.1 -1.1,1.3 -0.4,1.9 l 2.6,-1.8 c 0.3,0.2 2.3,1.7 4.8,1.8 3.1,0.1 5,-1.8 5.1,-2" />
      <path
         style="fill:#b1daf6"
         id="path168"
         d="m 100.2,238 c -0.2,-0.2 -2,-2 -5.1,-1.8 -2.5,0.1 -4.5,1.6 -4.8,1.8 l -2.6,-1.8 c -0.7,0.5 0.3,1.8 0.4,1.9 -0.1,0.1 -1.1,1.3 -0.4,1.9 l 2.6,-1.8 c 0.3,0.2 2.3,1.7 4.8,1.8 3.1,0 4.9,-1.9 5.1,-2" />
      <rect
         style="fill:#ffffff"
         id="rect170"
         height="12.3"
         width="13.9"
         y="179.2"
         x="375.5" />
      <rect
         style="fill:#afdad2"
         id="rect172"
         height="12.3"
         width="13.9"
         y="179.2"
         x="389.5" />
      <rect
         style="fill:#ffffff"
         id="rect174"
         height="12.3"
         width="13.9"
         y="179.2"
         x="403.39999" />
      <rect
         style="fill:#afdad2"
         id="rect176"
         height="12.3"
         width="13.9"
         y="179.2"
         x="417.39999" />
      <rect
         style="fill:#ffffff"
         id="rect178"
         height="12.3"
         width="13.9"
         y="179.2"
         x="431.29999" />
      <rect
         style="fill:#afdad2"
         id="rect180"
         height="12.3"
         width="13.9"
         y="179.2"
         x="445.29999" />
      <rect
         style="fill:#ffffff"
         id="rect182"
         height="12.3"
         width="13.9"
         y="179.2"
         x="459.20001" />
      <rect
         style="fill:#afdad2"
         id="rect184"
         height="12.3"
         width="13.9"
         y="179.2"
         x="473.20001" />
      <rect
         style="fill:#ffffff"
         id="rect186"
         height="12.3"
         width="13.9"
         y="179.2"
         x="487.10001" />
      <rect
         style="fill:#ed6a67"
         id="rect188"
         height="12.3"
         width="13.9"
         y="166.89999"
         x="375.5" />
      <rect
         style="fill:#ffffff"
         id="rect190"
         height="12.3"
         width="13.9"
         y="166.89999"
         x="389.5" />
      <rect
         style="fill:#ed6a67"
         id="rect192"
         height="12.3"
         width="13.9"
         y="166.89999"
         x="403.39999" />
      <rect
         style="fill:#ffffff"
         id="rect194"
         height="12.3"
         width="13.9"
         y="166.89999"
         x="417.39999" />
      <rect
         style="fill:#ed6a67"
         id="rect196"
         height="12.3"
         width="13.9"
         y="166.89999"
         x="431.29999" />
      <rect
         style="fill:#ffffff"
         id="rect198"
         height="12.3"
         width="13.9"
         y="166.89999"
         x="445.29999" />
      <rect
         style="fill:#ed6a67"
         id="rect200"
         height="12.3"
         width="13.9"
         y="166.89999"
         x="459.20001" />
      <rect
         style="fill:#ffffff"
         id="rect202"
         height="12.3"
         width="13.9"
         y="166.89999"
         x="473.20001" />
      <rect
         style="fill:#ed6a67"
         id="rect204"
         height="12.3"
         width="13.9"
         y="166.89999"
         x="487.10001" />
      <rect
         style="fill:#ffffff"
         id="rect206"
         height="12.3"
         width="13.9"
         y="154.7"
         x="375.5" />
      <rect
         style="fill:#932a36"
         id="rect208"
         height="12.3"
         width="13.9"
         y="154.7"
         x="389.5" />
      <rect
         style="fill:#ffffff"
         id="rect210"
         height="12.3"
         width="13.9"
         y="154.7"
         x="403.39999" />
      <rect
         style="fill:#932a36"
         id="rect212"
         height="12.3"
         width="13.9"
         y="154.7"
         x="417.39999" />
      <rect
         style="fill:#ffffff"
         id="rect214"
         height="12.3"
         width="13.9"
         y="154.7"
         x="431.29999" />
      <rect
         style="fill:#932a36"
         id="rect216"
         height="12.3"
         width="13.9"
         y="154.7"
         x="445.29999" />
      <rect
         style="fill:#ffffff"
         id="rect218"
         height="12.3"
         width="13.9"
         y="154.7"
         x="459.20001" />
      <rect
         style="fill:#932a36"
         id="rect220"
         height="12.3"
         width="13.9"
         y="154.7"
         x="473.20001" />
      <rect
         style="fill:#ffffff"
         id="rect222"
         height="12.3"
         width="13.9"
         y="154.7"
         x="487.10001" />
      <polygon
         style="fill:#24b096"
         id="polygon224"
         points="510.8,183.3 501,191.5 371.2,191.5 378.7,214.9 508.4,214.9 541.9,183.3 533.4,183.3 533.4,179.2 518.4,179.2 518.4,183.3 " />
    </g>
  </g>
</svg>
