<?xml version="1.0" encoding="UTF-8" standalone="no"?>
<svg
   xmlns:dc="http://purl.org/dc/elements/1.1/"
   xmlns:cc="http://creativecommons.org/ns#"
   xmlns:rdf="http://www.w3.org/1999/02/22-rdf-syntax-ns#"
   xmlns:svg="http://www.w3.org/2000/svg"
   xmlns="http://www.w3.org/2000/svg"
   xml:space="preserve"
   enable-background="new 0 0 966 672"
   viewBox="0 0 400.38 453.37"
   height="453.37"
   width="400.38"
   y="0px"
   x="0px"
   id="Capa_1"
   version="1.1"><metadata
   id="metadata568"><rdf:RDF><cc:Work
       rdf:about=""><dc:format>image/svg+xml</dc:format><dc:type
         rdf:resource="http://purl.org/dc/dcmitype/StillImage" /><dc:title></dc:title></cc:Work></rdf:RDF></metadata><defs
   id="defs566" />














<g
   transform="translate(-252.74001,-123.64)"
   id="g5004"><rect
     style="fill:#f2e3c5"
     x="358.73001"
     y="498.84"
     width="194.25999"
     height="78.169998"
     id="rect3" /><g
     id="g4696"><g
       id="g5">
	
		<linearGradient
   gradientTransform="matrix(-1,0,0,1,13260.309,0)"
   y2="208.6494"
   x2="12766.355"
   y1="200.9346"
   x1="12766.355"
   gradientUnits="userSpaceOnUse"
   id="SVGID_1_">
		<stop
   id="stop8"
   style="stop-color:#1F1F1F"
   offset="0" />
		<stop
   id="stop10"
   style="stop-color:#010101"
   offset="1" />
	</linearGradient>
	<rect
   style="fill:url(#SVGID_1_)"
   id="rect12"
   height="7.71"
   width="15.94"
   y="200.92999"
   x="485.98001" />
	
		<linearGradient
   gradientTransform="matrix(-1,0,0,1,13260.309,0)"
   y2="241.8203"
   x2="12766.355"
   y1="234.10741"
   x1="12766.355"
   gradientUnits="userSpaceOnUse"
   id="SVGID_2_">
		<stop
   id="stop15"
   style="stop-color:#1F1F1F"
   offset="0" />
		<stop
   id="stop17"
   style="stop-color:#010101"
   offset="1" />
	</linearGradient>
	<rect
   style="fill:url(#SVGID_2_)"
   id="rect19"
   height="7.71"
   width="15.94"
   y="234.11"
   x="485.98001" />
	
		<linearGradient
   gradientTransform="matrix(-1,0,0,1,13260.309,0)"
   y2="403.22751"
   x2="12729.238"
   y1="292.47949"
   x1="12729.238"
   gradientUnits="userSpaceOnUse"
   id="SVGID_3_">
		<stop
   id="stop22"
   style="stop-color:#1F1F1F"
   offset="0" />
		<stop
   id="stop24"
   style="stop-color:#010101"
   offset="1" />
	</linearGradient>
	<path
   style="fill:url(#SVGID_3_)"
   id="path26"
   d="m 523.7,397.06 c 0,3.41 2.76,6.17 6.17,6.17 l 2.4,0 c 3.41,0 6.17,-2.76 6.17,-6.17 l 0,-98.41 c 0,-3.41 -2.77,-6.17 -6.17,-6.17 l -2.4,0 c -3.41,0 -6.17,2.77 -6.17,6.17 l 0,98.41 z" />
	
		<linearGradient
   gradientTransform="matrix(-1,0,0,1,13260.309,0)"
   y2="407.51559"
   x2="12749.471"
   y1="197.6748"
   x1="12749.471"
   gradientUnits="userSpaceOnUse"
   id="SVGID_4_">
		<stop
   id="stop29"
   style="stop-color:#1F1F1F"
   offset="0" />
		<stop
   id="stop31"
   style="stop-color:#010101"
   offset="1" />
	</linearGradient>
	<path
   style="fill:url(#SVGID_4_)"
   id="path33"
   d="m 497.81,401.34 c 0,3.41 2.77,6.17 6.17,6.17 l 13.72,0 c 3.41,0 6.17,-2.77 6.17,-6.17 l 0,-197.5 c 0,-3.41 -2.76,-6.17 -6.17,-6.17 l -13.72,0 c -3.41,0 -6.17,2.76 -6.17,6.17 l 0,197.5 z" />
	
		<linearGradient
   gradientTransform="matrix(-1,0,0,1,13260.309,0)"
   y2="404.77051"
   x2="12670.523"
   y1="384.17679"
   x1="12670.523"
   gradientUnits="userSpaceOnUse"
   id="SVGID_5_">
		<stop
   id="stop36"
   style="stop-color:#1F1F1F"
   offset="0" />
		<stop
   id="stop38"
   style="stop-color:#010101"
   offset="1" />
	</linearGradient>
	<path
   style="fill:url(#SVGID_5_)"
   id="path40"
   d="m 541.36,384.18 c 1.8,0 3.25,1.46 3.25,3.26 l 0,10.82 93.61,0 c 1.8,0 3.26,1.46 3.26,3.26 0,1.8 -1.46,3.26 -3.26,3.26 l -96.69,0 c -0.23,0 -0.46,-0.03 -0.67,-0.07 -1.56,-0.24 -2.76,-1.58 -2.76,-3.21 l 0,-14.06 c 0,-1.81 1.45,-3.26 3.26,-3.26 z" />
	
		<linearGradient
   gradientTransform="matrix(-1,0,0,1,13260.309,0)"
   y2="241.9072"
   x2="12774.842"
   y1="200.9346"
   x1="12774.842"
   gradientUnits="userSpaceOnUse"
   id="SVGID_6_">
		<stop
   id="stop43"
   style="stop-color:#1F1F1F"
   offset="0" />
		<stop
   id="stop45"
   style="stop-color:#010101"
   offset="1" />
	</linearGradient>
	<rect
   style="fill:url(#SVGID_6_)"
   id="rect47"
   height="40.970001"
   width="5.1399999"
   y="200.92999"
   x="482.89999" />
	
		<linearGradient
   gradientTransform="matrix(-1,0,0,1,13260.309,0)"
   y2="368.4736"
   x2="12749.297"
   y1="205.00101"
   x1="12749.297"
   gradientUnits="userSpaceOnUse"
   id="SVGID_7_">
		<stop
   id="stop50"
   style="stop-color:#616161"
   offset="0" />
		<stop
   id="stop52"
   style="stop-color:#000000"
   offset="1" />
	</linearGradient>
	<path
   style="fill:url(#SVGID_7_)"
   id="path54"
   d="m 504.67,366.57 c 0,1.05 0.79,1.91 1.77,1.91 l 9.15,0 c 0.98,0 1.77,-0.85 1.77,-1.91 l 0,-159.66 c 0,-1.05 -0.79,-1.91 -1.77,-1.91 l -9.15,0 c -0.98,0 -1.77,0.85 -1.77,1.91 l 0,159.66 z" />
	
		<linearGradient
   gradientTransform="matrix(-1,0,0,1,13260.309,0)"
   y2="399.28421"
   x2="12728.898"
   y1="299.51071"
   x1="12728.898"
   gradientUnits="userSpaceOnUse"
   id="SVGID_8_">
		<stop
   id="stop57"
   style="stop-color:#383838"
   offset="0" />
		<stop
   id="stop59"
   style="stop-color:#000000"
   offset="1" />
	</linearGradient>
	<path
   style="fill:url(#SVGID_8_)"
   id="path61"
   d="m 529.01,397.23 c 0,1.14 0.92,2.06 2.06,2.06 l 0.68,0 c 1.14,0 2.06,-0.92 2.06,-2.06 l 0,-95.66 c 0,-1.14 -0.92,-2.06 -2.06,-2.06 l -0.68,0 c -1.14,0 -2.06,0.92 -2.06,2.06 l 0,95.66 z" />
	
		<linearGradient
   gradientTransform="matrix(-0.8764,0.4815,0.4815,0.8764,13132.607,-1772.2971)"
   y2="-4255.1216"
   x2="12113.73"
   y1="-4328.668"
   x1="12113.73"
   gradientUnits="userSpaceOnUse"
   id="SVGID_9_">
		<stop
   id="stop64"
   style="stop-color:#1F1F1F"
   offset="0" />
		<stop
   id="stop66"
   style="stop-color:#010101"
   offset="1" />
	</linearGradient>
	<path
   style="fill:url(#SVGID_9_)"
   id="path68"
   d="M 444.17,300.94 429.64,274.5 c -1.5,-2.74 -0.5,-6.18 2.23,-7.68 2.74,-1.51 6.18,-0.51 7.68,2.23 l 16.96,30.85 -12.34,1.04 z" />
	
		<linearGradient
   gradientTransform="matrix(-0.8764,0.4815,0.4815,0.8764,13132.609,-1772.2971)"
   y2="-4324.2812"
   x2="12113.734"
   y1="-4331.5156"
   x1="12113.734"
   gradientUnits="userSpaceOnUse"
   id="SVGID_10_">
		<stop
   id="stop71"
   style="stop-color:#1F1F1F"
   offset="0" />
		<stop
   id="stop73"
   style="stop-color:#010101"
   offset="1" />
	</linearGradient>
	<path
   style="fill:url(#SVGID_10_)"
   id="path75"
   d="m 413.67,278.74 c 0.72,1.31 2.2,1.89 3.31,1.28 l 34.03,-18.7 c 1.11,-0.61 1.42,-2.17 0.7,-3.48 l -0.87,-1.59 c -0.72,-1.31 -2.2,-1.89 -3.31,-1.28 l -34.03,18.7 c -1.1,0.61 -1.42,2.16 -0.7,3.48 l 0.87,1.59 z" />
	
		<linearGradient
   gradientTransform="matrix(1,0,0,-1,6421.0723,-1210.041)"
   y2="-1545.6846"
   x2="-5965.2109"
   y1="-1491.1997"
   x1="-5965.2109"
   gradientUnits="userSpaceOnUse"
   id="SVGID_11_">
		<stop
   id="stop78"
   style="stop-color:#1F1F1F"
   offset="0" />
		<stop
   id="stop80"
   style="stop-color:#010101"
   offset="1" />
	</linearGradient>
	<path
   style="fill:url(#SVGID_11_)"
   id="path82"
   d="m 461.81,300.19 c -0.38,-3.1 -5.13,-19.41 -8.23,-19.03 l -6.69,2.57 c -4.11,3.6 0,8.23 1.07,12.85 -3.34,0.26 -6.31,1.36 -4.91,5.57 l 9.64,28.53 c 1.33,2.67 3.21,5.31 6.31,4.92 l 0,0 c 3.1,-0.38 10.39,-2.99 10.01,-6.1 l -7.2,-29.31 z" />
	
		<linearGradient
   gradientTransform="matrix(-0.9558,-0.2939,-0.2939,0.9558,12940.785,979.9521)"
   y2="3071.1213"
   x2="12111.712"
   y1="3041.2109"
   x1="12120.91"
   gradientUnits="userSpaceOnUse"
   id="SVGID_12_">
		<stop
   id="stop85"
   style="stop-color:#1F1F1F"
   offset="0" />
		<stop
   id="stop87"
   style="stop-color:#010101"
   offset="1" />
	</linearGradient>
	<path
   style="fill:url(#SVGID_12_)"
   id="path89"
   d="m 448.99,344.99 c -1,3.26 0.83,6.71 4.08,7.71 l 8.85,2.72 c 3.26,1 6.71,-0.83 7.71,-4.09 l 4.99,-16.22 c 1.01,-3.26 -0.82,-6.71 -4.08,-7.71 l -8.85,-2.72 c -3.26,-1 -6.71,0.83 -7.71,4.09 l -4.99,16.22 z" />
	
		<linearGradient
   gradientTransform="matrix(-1,0,0,1,13260.309,0)"
   y2="354.68491"
   x2="12822.16"
   y1="342.37009"
   x1="12822.16"
   gradientUnits="userSpaceOnUse"
   id="SVGID_13_">
		<stop
   id="stop92"
   style="stop-color:#1F1F1F"
   offset="0" />
		<stop
   id="stop94"
   style="stop-color:#010101"
   offset="1" />
	</linearGradient>
	<path
   style="fill:url(#SVGID_13_)"
   id="path96"
   d="m 412.95,351.63 0,-3.09 c 0,-3.41 2.77,-6.17 6.17,-6.17 l 38.06,0 c 3.41,0 6.17,2.76 6.17,6.17 l 0,3.09 -50.4,0 z" />
	
		<linearGradient
   gradientTransform="matrix(-1,0,0,1,13260.309,0)"
   y2="335.85599"
   x2="12883.535"
   y1="308.42581"
   x1="12883.535"
   gradientUnits="userSpaceOnUse"
   id="SVGID_14_">
		<stop
   id="stop99"
   style="stop-color:#616161"
   offset="0" />
		<stop
   id="stop101"
   style="stop-color:#000000"
   offset="1" />
	</linearGradient>
	<path
   style="fill:url(#SVGID_14_)"
   id="path103"
   d="m 330.83,351.63 0,-40.12 71.32,0 c 11.36,0 12.69,1.37 15.09,11.66 l 5.48,28.46 -91.89,0 z" />
	
		<linearGradient
   gradientTransform="matrix(-1,0,0,1,13260.309,0)"
   y2="326.93799"
   x2="12886.373"
   y1="383.5166"
   x1="12886.373"
   gradientUnits="userSpaceOnUse"
   id="SVGID_15_">
		<stop
   id="stop106"
   style="stop-color:#1F1F1F"
   offset="0" />
		<stop
   id="stop108"
   style="stop-color:#010101"
   offset="1" />
	</linearGradient>
	<path
   style="fill:url(#SVGID_15_)"
   id="path110"
   d="m 334.18,351.63 0,-30.35 61.71,0 c 9.83,0 10.98,1.04 13.06,8.82 l 4.75,21.53 -79.52,0 z" />
	
		<linearGradient
   gradientTransform="matrix(-1,0,0,1,13260.309,0)"
   y2="299.74799"
   x2="12895.186"
   y1="260.53421"
   x1="12895.186"
   gradientUnits="userSpaceOnUse"
   id="SVGID_16_">
		<stop
   id="stop113"
   style="stop-color:#1F1F1F"
   offset="0" />
		<stop
   id="stop115"
   style="stop-color:#010101"
   offset="1" />
	</linearGradient>
	<path
   style="fill:url(#SVGID_16_)"
   id="path117"
   d="m 357.96,294.78 c 0.38,3.11 3.21,5.31 6.31,4.93 l 0,0 c 3.1,-0.38 13.54,1.52 11.14,-5.68 l -9.65,-28.53 c -1.32,-2.67 -3.2,-5.31 -6.3,-4.92 l 0,0 c -3.11,0.38 -5.31,3.2 -4.93,6.3 l 3.43,27.9 z" />
	
		<linearGradient
   gradientTransform="matrix(-1,0,0,1,13260.309,0)"
   y2="305.33691"
   x2="12899.645"
   y1="297.1084"
   x1="12899.645"
   gradientUnits="userSpaceOnUse"
   id="SVGID_17_">
		<stop
   id="stop120"
   style="stop-color:#1F1F1F"
   offset="0" />
		<stop
   id="stop122"
   style="stop-color:#010101"
   offset="1" />
	</linearGradient>
	<path
   style="fill:url(#SVGID_17_)"
   id="path124"
   d="m 356.21,301.22 c 0,2.27 1.84,4.11 4.11,4.11 l 0.68,0 c 2.27,0 4.12,-1.84 4.12,-4.11 l 0,0 c 0,-2.27 -1.84,-4.12 -4.12,-4.12 l -0.69,0 c -2.26,0.01 -4.1,1.85 -4.1,4.12 l 0,0 z" />
	
		<linearGradient
   gradientTransform="matrix(-1,0,0,1,13260.309,0)"
   y2="311.33301"
   x2="12873.074"
   y1="298.31149"
   x1="12873.074"
   gradientUnits="userSpaceOnUse"
   id="SVGID_18_">
		<stop
   id="stop127"
   style="stop-color:#1F1F1F"
   offset="0" />
		<stop
   id="stop129"
   style="stop-color:#010101"
   offset="1" />
	</linearGradient>
	<path
   style="fill:url(#SVGID_18_)"
   id="path131"
   d="m 361.35,304.82 c 0,3.6 2.92,6.51 6.51,6.51 l 38.75,0 c 3.6,0 6.51,-2.91 6.51,-6.51 l 0,0 c 0,-3.6 -2.91,-6.51 -6.51,-6.51 l -38.75,0 c -3.6,0 -6.51,2.92 -6.51,6.51 l 0,0 z" />
	
		<linearGradient
   gradientTransform="matrix(-1,0,0,1,13260.309,0)"
   y2="400.92661"
   x2="12802.785"
   y1="299.52249"
   x1="12802.785"
   gradientUnits="userSpaceOnUse"
   id="SVGID_19_">
		<stop
   id="stop134"
   style="stop-color:#000000"
   offset="0" />
		<stop
   id="stop136"
   style="stop-color:#D07928"
   offset="1" />
	</linearGradient>
	<path
   style="fill:url(#SVGID_19_)"
   id="path138"
   d="m 450.7,349.81 c 0.25,-0.79 0.94,-1.29 1.23,-1.96 l 32.17,0 -25.01,53.07 -28.14,0 c 0,0.01 17.71,-44.4 19.75,-51.11 z" />
	
		<linearGradient
   gradientTransform="matrix(-0.6134,-0.7898,-0.7898,0.6134,11512.742,2324.8718)"
   y2="7463.0928"
   x2="8297.6748"
   y1="7463.0928"
   x1="8360.7021"
   gradientUnits="userSpaceOnUse"
   id="SVGID_20_">
		<stop
   id="stop141"
   style="stop-color:#383838"
   offset="0" />
		<stop
   id="stop143"
   style="stop-color:#000000"
   offset="1" />
	</linearGradient>
	<polygon
   style="fill:url(#SVGID_20_)"
   id="polygon145"
   points="505.16,296.83 483.63,313.56 488.05,319.24 509.58,302.52 " />
	
		<linearGradient
   gradientTransform="matrix(-0.6134,-0.7898,-0.7898,0.6134,11512.742,2324.8718)"
   y2="7463.0947"
   x2="8272.1934"
   y1="7463.0947"
   x1="8348.3545"
   gradientUnits="userSpaceOnUse"
   id="SVGID_21_">
		<stop
   id="stop148"
   style="stop-color:#B8B8B8"
   offset="0" />
		<stop
   id="stop150"
   style="stop-color:#3D3D3D"
   offset="1" />
	</linearGradient>
	<polygon
   style="fill:url(#SVGID_21_)"
   id="polygon152"
   points="506.27,298.25 484.73,314.98 486.95,317.82 508.47,301.1 " />
	
		<linearGradient
   gradientTransform="matrix(-0.6134,-0.7898,-0.7898,0.6134,11512.742,2324.8718)"
   y2="7480.9648"
   x2="8345.5273"
   y1="7480.9648"
   x1="8356.3262"
   gradientUnits="userSpaceOnUse"
   id="SVGID_22_">
		<stop
   id="stop155"
   style="stop-color:#1F1F1F"
   offset="0" />
		<stop
   id="stop157"
   style="stop-color:#010101"
   offset="1" />
	</linearGradient>
	<path
   style="fill:url(#SVGID_22_)"
   id="path159"
   d="m 468.01,321.95 c -0.9,0.7 -1.06,1.99 -0.37,2.88 l 5.52,7.11 c 0.69,0.9 1.99,1.06 2.88,0.36 l 20.92,-16.25 c 0.89,-0.7 1.06,-1.99 0.36,-2.89 l -5.52,-7.11 c -0.7,-0.89 -1.99,-1.06 -2.88,-0.36 l -20.91,16.26 z" />
	
		<linearGradient
   gradientTransform="matrix(-0.6134,-0.7898,-0.7898,0.6134,11512.742,2324.8718)"
   y2="7452.2915"
   x2="8342.5059"
   y1="7441.75"
   x1="8353.0469"
   gradientUnits="userSpaceOnUse"
   id="SVGID_23_">
		<stop
   id="stop162"
   style="stop-color:#383838"
   offset="0" />
		<stop
   id="stop164"
   style="stop-color:#000000"
   offset="1" />
	</linearGradient>
	<path
   style="fill:url(#SVGID_23_)"
   id="path166"
   d="m 506.11,290.72 c -3.42,2.66 -4.04,7.58 -1.38,11.01 2.66,3.42 7.58,4.04 11.01,1.38 3.42,-2.66 4.04,-7.58 1.38,-11.01 -2.66,-3.42 -7.59,-4.03 -11.01,-1.38 z" />
	
		<linearGradient
   gradientTransform="matrix(-0.6134,-0.7898,-0.7898,0.6134,11512.742,2324.8718)"
   y2="7444.9658"
   x2="8166.9248"
   y1="7444.9658"
   x1="8346.3506"
   gradientUnits="userSpaceOnUse"
   id="SVGID_24_">
		<stop
   id="stop169"
   style="stop-color:#B8B8B8"
   offset="0" />
		<stop
   id="stop171"
   style="stop-color:#3D3D3D"
   offset="1" />
	</linearGradient>
	<path
   style="fill:url(#SVGID_24_)"
   id="path173"
   d="m 508.32,293.56 c -1.85,1.44 -2.19,4.11 -0.75,5.96 1.44,1.85 4.11,2.19 5.95,0.75 1.85,-1.44 2.19,-4.1 0.75,-5.95 -1.44,-1.86 -4.1,-2.19 -5.95,-0.76 z" />
	
		<radialGradient
   gradientUnits="userSpaceOnUse"
   gradientTransform="matrix(-1,0,0,1,13260.309,0)"
   r="78.271103"
   cy="351.29099"
   cx="12908.633"
   id="SVGID_25_">
		<stop
   id="stop176"
   style="stop-color:#FEBF10"
   offset="0" />
		<stop
   id="stop178"
   style="stop-color:#FEBD11"
   offset="0.3901" />
		<stop
   id="stop180"
   style="stop-color:#FDB714"
   offset="0.601" />
		<stop
   id="stop182"
   style="stop-color:#FBAD18"
   offset="0.7686" />
		<stop
   id="stop184"
   style="stop-color:#FAA51A"
   offset="0.8587" />
		<stop
   id="stop186"
   style="stop-color:#F9A11B"
   offset="0.9837" />
	</radialGradient>
	<path
   style="fill:url(#SVGID_25_)"
   id="path188"
   d="m 264.03,307.83 c 2.34,-2.49 7.74,-6.17 17.49,-6.17 0,0 19.31,0 32.17,0 12.86,0 14.66,8.31 14.66,14.4 0,6.09 -0.26,32.92 -0.26,32.92 l 122.52,0 -20.59,51.96 -168.05,0 c -3.41,0 -5.14,-2.76 -5.14,-6.17 0,0 -3.82,-47.48 -4.08,-59.85 -0.26,-12.1 8.86,-24.53 11.28,-27.09 z" />
	
		<linearGradient
   gradientTransform="matrix(-1,0,0,1,13260.309,0)"
   y2="349.05371"
   x2="12854.73"
   y1="181.90331"
   x1="12854.73"
   gradientUnits="userSpaceOnUse"
   id="SVGID_26_">
		<stop
   id="stop191"
   style="stop-color:#1F1F1F"
   offset="0" />
		<stop
   id="stop193"
   style="stop-color:#010101"
   offset="1" />
	</linearGradient>
	<path
   style="fill:url(#SVGID_26_)"
   id="path195"
   d="m 364.43,181.9 45.26,0 c 9.84,-0.04 18.18,4.67 24.11,11.28 6,6.62 10.07,15.13 12.67,24.02 l 37.28,129.09 0,0.87 c 0,0.55 -0.04,1.09 -0.1,1.63 l -12.71,0 c 0.2,-0.4 0.33,-0.74 0.39,-1.02 L 434.62,220.64 c -2.19,-7.55 -5.67,-14.48 -9.95,-19.16 -4.35,-4.71 -9.05,-7.2 -14.98,-7.24 l -45.26,0 c -13.63,0.02 -24.66,11.06 -24.68,24.69 l 0,97.21 19.08,32.91 -10.06,0 c 0.36,-3.84 -1.95,-7.97 -6.92,-7.97 -4.98,0 -7.28,4.14 -6.93,7.97 l -7.49,0 c -0.02,-0.65 -0.03,-1.5 -0.03,-1.89 l 0,-128.23 c 0.01,-20.45 16.58,-37.02 37.03,-37.03 z" />
	
		<linearGradient
   gradientTransform="matrix(-1,0,0,1,13260.309,0)"
   y2="348.1976"
   x2="12787.871"
   y1="313.91019"
   x1="12787.871"
   gradientUnits="userSpaceOnUse"
   id="SVGID_27_">
		<stop
   id="stop198"
   style="stop-color:#1F1F1F"
   offset="0" />
		<stop
   id="stop200"
   style="stop-color:#010101"
   offset="1" />
	</linearGradient>
	<path
   style="fill:url(#SVGID_27_)"
   id="path202"
   d="m 461.61,314.08 12.84,0 9.3,32.21 0,0.87 c 0,0.55 -0.04,1.09 -0.1,1.63 l -22.53,0 c 0.2,-0.4 0.33,-0.74 0.39,-1.02 l 0.1,-33.69 z" />
	
		<linearGradient
   gradientTransform="matrix(-1,0,0,1,13260.309,0)"
   y2="385.22501"
   x2="12917.242"
   y1="309.4512"
   x1="12917.242"
   gradientUnits="userSpaceOnUse"
   id="SVGID_28_">
		<stop
   id="stop205"
   style="stop-color:#1F1F1F"
   offset="0" />
		<stop
   id="stop207"
   style="stop-color:#010101"
   offset="1" />
	</linearGradient>
	<path
   style="fill:url(#SVGID_28_)"
   id="path209"
   d="m 348.78,348.88 c 0.27,-3.79 -2.03,-7.8 -6.93,-7.8 -4.91,0 -7.21,4.01 -6.94,7.8 l -7.49,0 c -0.01,-0.62 -0.02,-1.36 -0.02,-1.71 l 0,-32.57 12.35,0 0,1.55 18.98,32.74 -9.95,0 z" />
	
		<linearGradient
   gradientTransform="matrix(-1,0,0,1,13260.309,0)"
   y2="422.3407"
   x2="12961.021"
   y1="361.65329"
   x1="12961.021"
   gradientUnits="userSpaceOnUse"
   id="SVGID_29_">
		<stop
   id="stop212"
   style="stop-color:#000000"
   offset="0" />
		<stop
   id="stop214"
   style="stop-color:#D07928"
   offset="1" />
	</linearGradient>
	<path
   style="fill:url(#SVGID_29_)"
   id="path216"
   d="m 259.84,400.49 c -0.02,-4.87 -0.03,-9.91 -0.03,-15.17 0,-15.27 6.9,-27.65 18.9,-27.65 l 32.4,0 c 13.88,0 27.64,10.67 27.64,27.65 0,5.47 -0.02,10.65 -0.05,15.61 l -76.74,0 c -0.79,-0.01 -1.5,-0.17 -2.12,-0.44 z" />
	<polygon
   style="fill:#a7a9ac"
   id="polygon218"
   points="511.15,332.34 511.22,338.51 511.22,338.51 491.37,338.76 456.94,349.75 436.68,400.87 430.04,400.87 452.28,344.76 490.37,332.6 " />
	
		<linearGradient
   gradientTransform="matrix(-1,0,0,1,13260.309,0)"
   y2="422.64359"
   x2="12959.221"
   y1="362.2139"
   x1="12959.221"
   gradientUnits="userSpaceOnUse"
   id="SVGID_30_">
		<stop
   id="stop221"
   style="stop-color:#141414"
   offset="0" />
		<stop
   id="stop223"
   style="stop-color:#010101"
   offset="1" />
	</linearGradient>
	<circle
   style="fill:url(#SVGID_30_)"
   id="circle225"
   r="30.209999"
   cy="392.42999"
   cx="301.09" />
	
		<linearGradient
   gradientTransform="matrix(-1,0,0,1,13260.309,0)"
   y2="439.35971"
   x2="12959.223"
   y1="387.41211"
   x1="12959.223"
   gradientUnits="userSpaceOnUse"
   id="SVGID_31_">
		<stop
   id="stop228"
   style="stop-color:#EBEBEB"
   offset="0" />
		<stop
   id="stop230"
   style="stop-color:#5C5C5C"
   offset="1" />
	</linearGradient>
	<path
   style="fill:url(#SVGID_31_)"
   id="path232"
   d="m 284.76,392.43 c 0,9.02 7.31,16.33 16.33,16.33 9.02,0 16.33,-7.31 16.33,-16.33 0,-9.02 -7.31,-16.33 -16.33,-16.33 -9.02,0 -16.33,7.31 -16.33,16.33 z" />
	
		<linearGradient
   gradientTransform="matrix(-1,0,0,1,13260.309,0)"
   y2="422.64359"
   x2="12959.65"
   y1="362.55469"
   x1="12959.65"
   gradientUnits="userSpaceOnUse"
   id="SVGID_32_">
		<stop
   id="stop235"
   style="stop-color:#141414"
   offset="0" />
		<stop
   id="stop237"
   style="stop-color:#010101"
   offset="1" />
	</linearGradient>
	<path
   style="fill:url(#SVGID_32_)"
   id="path239"
   d="m 270.62,392.6 c 0,16.59 13.45,30.05 30.04,30.05 16.6,0 30.04,-13.45 30.04,-30.05 0,-16.59 -13.45,-30.04 -30.04,-30.04 -16.59,-0.01 -30.04,13.45 -30.04,30.04 z" />
	<g
   id="g241">
		
			<linearGradient
   gradientTransform="matrix(-1,0,0,1,13260.309,0)"
   y2="415.99771"
   x2="12959.648"
   y1="367.98239"
   x1="12959.648"
   gradientUnits="userSpaceOnUse"
   id="SVGID_33_">
			<stop
   id="stop244"
   style="stop-color:#616161"
   offset="0" />
			<stop
   id="stop246"
   style="stop-color:#5D5D5D"
   offset="0.0307" />
			<stop
   id="stop248"
   style="stop-color:#2B2B2B"
   offset="0.4754" />
			<stop
   id="stop250"
   style="stop-color:#0C0C0C"
   offset="0.8124" />
			<stop
   id="stop252"
   style="stop-color:#000000"
   offset="1" />
		</linearGradient>
		<path
   style="fill:url(#SVGID_33_)"
   id="path254"
   d="m 326.84,392.6 c 0,14.46 -11.72,26.19 -26.18,26.19 l 0,0 c -14.47,0 -26.19,-11.72 -26.19,-26.19 l 0,0 c 0,-14.46 11.72,-26.18 26.19,-26.19 l 0,0 c 14.46,0.01 26.18,11.73 26.18,26.19 l 0,0 z m -4.28,0 c -0.02,-12.09 -9.81,-21.88 -21.9,-21.9 l 0,0 c -12.1,0.02 -21.88,9.81 -21.9,21.9 l 0,0 c 0.02,12.09 9.81,21.88 21.9,21.9 l 0,0 c 12.09,-0.03 21.88,-9.81 21.9,-21.9 l 0,0 z" />
	</g>
	
		<linearGradient
   gradientTransform="matrix(-1,0,0,1,13260.309,0)"
   y2="372.87271"
   x2="12959.648"
   y1="410.59769"
   x1="12959.648"
   gradientUnits="userSpaceOnUse"
   id="SVGID_34_">
		<stop
   id="stop257"
   style="stop-color:#616161"
   offset="0" />
		<stop
   id="stop259"
   style="stop-color:#5D5D5D"
   offset="0.0307" />
		<stop
   id="stop261"
   style="stop-color:#2B2B2B"
   offset="0.4754" />
		<stop
   id="stop263"
   style="stop-color:#0C0C0C"
   offset="0.8124" />
		<stop
   id="stop265"
   style="stop-color:#000000"
   offset="1" />
	</linearGradient>
	<path
   style="fill:url(#SVGID_34_)"
   id="path267"
   d="m 282.05,393.63 c 0,10.28 8.33,18.61 18.61,18.61 10.28,0 18.61,-8.33 18.61,-18.61 0,-10.28 -8.33,-18.61 -18.61,-18.61 -10.28,0 -18.61,8.33 -18.61,18.61 z" />
	
		<linearGradient
   gradientTransform="matrix(-1,0,0,1,13260.309,0)"
   y2="385.4191"
   x2="12959.648"
   y1="409.42581"
   x1="12959.648"
   gradientUnits="userSpaceOnUse"
   id="SVGID_35_">
		<stop
   id="stop270"
   style="stop-color:#1F1F1F"
   offset="0" />
		<stop
   id="stop272"
   style="stop-color:#010101"
   offset="1" />
	</linearGradient>
	<path
   style="fill:url(#SVGID_35_)"
   id="path274"
   d="m 283.46,392.6 c 0,9.5 7.7,17.2 17.2,17.2 9.5,0 17.21,-7.7 17.21,-17.2 0,-9.5 -7.7,-17.2 -17.21,-17.2 -9.5,0 -17.2,7.7 -17.2,17.2 z" />
	
		<linearGradient
   gradientTransform="matrix(-1,0,0,1,13260.309,0)"
   y2="409.97131"
   x2="12959.648"
   y1="380.33691"
   x1="12959.648"
   gradientUnits="userSpaceOnUse"
   id="SVGID_36_">
		<stop
   id="stop277"
   style="stop-color:#616161"
   offset="0" />
		<stop
   id="stop279"
   style="stop-color:#000000"
   offset="1" />
	</linearGradient>
	<path
   style="fill:url(#SVGID_36_)"
   id="path281"
   d="m 290.91,392.6 c 0,5.39 4.37,9.75 9.75,9.75 5.39,0 9.76,-4.37 9.76,-9.75 0,-5.38 -4.37,-9.75 -9.76,-9.75 -5.39,0 -9.75,4.36 -9.75,9.75 z" />
	<g
   id="g283">
		
			<linearGradient
   gradientTransform="matrix(-1,0,0,1,13260.309,0)"
   y2="394.56451"
   x2="12959.65"
   y1="389.4209"
   x1="12959.65"
   gradientUnits="userSpaceOnUse"
   id="SVGID_37_">
			<stop
   id="stop286"
   style="stop-color:#7A7A7A"
   offset="0" />
			<stop
   id="stop288"
   style="stop-color:#3D3D3D"
   offset="1" />
		</linearGradient>
		<path
   style="fill:url(#SVGID_37_)"
   id="path290"
   d="m 307.23,392.6 c 0,3.63 -2.95,6.57 -6.58,6.57 l 0,0 c -3.63,0 -6.57,-2.94 -6.57,-6.57 l 0,0 c 0.01,-3.63 2.95,-6.57 6.57,-6.57 l 0,0 c 3.64,0 6.58,2.94 6.58,6.57 l 0,0 z m -2.57,0 c 0,-2.21 -1.79,-4 -4,-4 l 0,0 c -2.21,0 -3.99,1.79 -4,4 l 0,0 c 0.01,2.21 1.79,4 4,4 l 0,0 c 2.21,0 4,-1.79 4,-4 l 0,0 z" />
	</g>
	
		<linearGradient
   gradientTransform="matrix(-1,0,0,1,13260.309,0)"
   y2="422.64359"
   x2="12770.34"
   y1="350.55371"
   x1="12770.34"
   gradientUnits="userSpaceOnUse"
   id="SVGID_38_">
		<stop
   id="stop293"
   style="stop-color:#141414"
   offset="0" />
		<stop
   id="stop295"
   style="stop-color:#010101"
   offset="1" />
	</linearGradient>
	<circle
   style="fill:url(#SVGID_38_)"
   id="circle297"
   r="36.040001"
   cy="386.60001"
   cx="489.97" />
	<g
   id="g299">
		
			<linearGradient
   gradientTransform="matrix(-1,0,0,1,13260.309,0)"
   y2="414.6723"
   x2="12770.342"
   y1="357.06839"
   x1="12770.342"
   gradientUnits="userSpaceOnUse"
   id="SVGID_39_">
			<stop
   id="stop302"
   style="stop-color:#616161"
   offset="0" />
			<stop
   id="stop304"
   style="stop-color:#5D5D5D"
   offset="0.0307" />
			<stop
   id="stop306"
   style="stop-color:#2B2B2B"
   offset="0.4754" />
			<stop
   id="stop308"
   style="stop-color:#0C0C0C"
   offset="0.8124" />
			<stop
   id="stop310"
   style="stop-color:#000000"
   offset="1" />
		</linearGradient>
		<path
   style="fill:url(#SVGID_39_)"
   id="path312"
   d="m 521.38,386.6 c 0,17.35 -14.06,31.41 -31.42,31.42 l 0,0 c -17.35,0 -31.42,-14.07 -31.42,-31.42 l 0,0 c 0,-17.35 14.07,-31.42 31.42,-31.42 l 0,0 c 17.36,0 31.42,14.07 31.42,31.42 l 0,0 z m -5.14,0 c -0.03,-14.51 -11.77,-26.25 -26.28,-26.27 l 0,0 c -14.51,0.03 -26.24,11.77 -26.27,26.27 l 0,0 c 0.03,14.51 11.77,26.25 26.27,26.27 l 0,0 c 14.51,-0.03 26.25,-11.76 26.28,-26.27 l 0,0 z" />
	</g>
	
		<linearGradient
   gradientTransform="matrix(-1,0,0,1,13260.309,0)"
   y2="362.72601"
   x2="12770.344"
   y1="407.9863"
   x1="12770.344"
   gradientUnits="userSpaceOnUse"
   id="SVGID_40_">
		<stop
   id="stop315"
   style="stop-color:#616161"
   offset="0" />
		<stop
   id="stop317"
   style="stop-color:#5D5D5D"
   offset="0.0307" />
		<stop
   id="stop319"
   style="stop-color:#2B2B2B"
   offset="0.4754" />
		<stop
   id="stop321"
   style="stop-color:#0C0C0C"
   offset="0.8124" />
		<stop
   id="stop323"
   style="stop-color:#000000"
   offset="1" />
	</linearGradient>
	<path
   style="fill:url(#SVGID_40_)"
   id="path325"
   d="m 467.63,387.63 c 0,12.34 10,22.33 22.33,22.33 12.33,0 22.33,-10 22.33,-22.33 0,-12.33 -10,-22.33 -22.33,-22.33 -12.32,0 -22.33,9.99 -22.33,22.33 z" />
	
		<linearGradient
   gradientTransform="matrix(-1,0,0,1,13260.309,0)"
   y2="377.98471"
   x2="12770.34"
   y1="406.78711"
   x1="12770.34"
   gradientUnits="userSpaceOnUse"
   id="SVGID_41_">
		<stop
   id="stop328"
   style="stop-color:#1F1F1F"
   offset="0" />
		<stop
   id="stop330"
   style="stop-color:#010101"
   offset="1" />
	</linearGradient>
	<path
   style="fill:url(#SVGID_41_)"
   id="path332"
   d="m 469.33,386.6 c 0,11.4 9.24,20.64 20.64,20.64 11.4,0 20.64,-9.24 20.64,-20.64 0,-11.4 -9.24,-20.64 -20.64,-20.64 -11.41,0 -20.64,9.24 -20.64,20.64 z" />
	
		<linearGradient
   gradientTransform="matrix(-1,0,0,1,13260.309,0)"
   y2="407.43869"
   x2="12770.34"
   y1="371.88571"
   x1="12770.34"
   gradientUnits="userSpaceOnUse"
   id="SVGID_42_">
		<stop
   id="stop335"
   style="stop-color:#616161"
   offset="0" />
		<stop
   id="stop337"
   style="stop-color:#000000"
   offset="1" />
	</linearGradient>
	<circle
   style="fill:url(#SVGID_42_)"
   id="circle339"
   r="11.7"
   cy="386.60001"
   cx="489.97" />
	<g
   id="g341">
		
			<linearGradient
   gradientTransform="matrix(-1,0,0,1,13260.309,0)"
   y2="388.95581"
   x2="12770.34"
   y1="382.78421"
   x1="12770.34"
   gradientUnits="userSpaceOnUse"
   id="SVGID_43_">
			<stop
   id="stop344"
   style="stop-color:#7A7A7A"
   offset="0" />
			<stop
   id="stop346"
   style="stop-color:#3D3D3D"
   offset="1" />
		</linearGradient>
		<path
   style="fill:url(#SVGID_43_)"
   id="path348"
   d="m 497.86,386.6 c 0,4.36 -3.53,7.88 -7.89,7.88 l 0,0 c -4.35,0 -7.89,-3.53 -7.89,-7.88 l 0,0 c 0,-4.36 3.53,-7.89 7.89,-7.89 l 0,0 c 4.35,0 7.89,3.53 7.89,7.89 l 0,0 z m -3.09,0 c -0.01,-2.65 -2.15,-4.8 -4.8,-4.8 l 0,0 c -2.65,0 -4.8,2.15 -4.8,4.8 l 0,0 c 0,2.65 2.14,4.8 4.8,4.8 l 0,0 c 2.65,0 4.8,-2.15 4.8,-4.8 l 0,0 z" />
	</g>
	
		<linearGradient
   gradientTransform="matrix(-1,0,0,1,13260.309,0)"
   y2="325.91119"
   x2="12970.281"
   y1="336.06839"
   x1="12970.281"
   gradientUnits="userSpaceOnUse"
   id="SVGID_44_">
		<stop
   id="stop351"
   style="stop-color:#FFFFFF"
   offset="0" />
		<stop
   id="stop353"
   style="stop-color:#FBF5E8"
   offset="0.1387" />
		<stop
   id="stop355"
   style="stop-color:#F0DAAC"
   offset="0.4307" />
		<stop
   id="stop357"
   style="stop-color:#DFAF4C"
   offset="0.8486" />
		<stop
   id="stop359"
   style="stop-color:#D99F28"
   offset="1" />
	</linearGradient>
	<rect
   style="fill:url(#SVGID_44_)"
   id="rect361"
   height="1.3"
   width="74.57"
   y="333.92001"
   x="252.74001" />
	
		<linearGradient
   gradientTransform="matrix(-1,0,0,1,13260.309,0)"
   y2="331.04831"
   x2="12970.281"
   y1="319.02151"
   x1="12970.281"
   gradientUnits="userSpaceOnUse"
   id="SVGID_45_">
		<stop
   id="stop364"
   style="stop-color:#000000"
   offset="0" />
		<stop
   id="stop366"
   style="stop-color:#D07928"
   offset="1" />
	</linearGradient>
	<rect
   style="fill:url(#SVGID_45_)"
   id="rect368"
   height="1.3"
   width="74.57"
   y="332.79999"
   x="252.74001" />
	
		<linearGradient
   gradientTransform="matrix(0,-1,-1,0,8400.0488,7138.9902)"
   y2="8024.1831"
   x2="6967.4316"
   y1="8038.8105"
   x1="6967.4316"
   gradientUnits="userSpaceOnUse"
   id="SVGID_46_">
		<stop
   id="stop371"
   style="stop-color:#F04C25"
   offset="0" />
		<stop
   id="stop373"
   style="stop-color:#F47A20"
   offset="1" />
	</linearGradient>
	<path
   style="fill:url(#SVGID_46_)"
   id="path375"
   d="m 378.01,171.28 0,4.32 -15.7,0 0,-4.32 c 0,-2.08 1.69,-3.77 3.77,-3.77 l 8.16,0 c 2.08,0 3.77,1.69 3.77,3.77 z" />
	
		<linearGradient
   gradientTransform="matrix(0,-1,-1,0,8400.0488,7138.9902)"
   y2="8045.8281"
   x2="6959.8174"
   y1="8024.4219"
   x1="6959.8174"
   gradientUnits="userSpaceOnUse"
   id="SVGID_47_">
		<stop
   id="stop378"
   style="stop-color:#6E6E6E"
   offset="0" />
		<stop
   id="stop380"
   style="stop-color:#010101"
   offset="1" />
	</linearGradient>
	<path
   style="fill:url(#SVGID_47_)"
   id="path382"
   d="m 378.01,175.13 0,4.32 c 0,2.08 -1.69,3.77 -3.77,3.77 l -8.16,0 c -2.08,0 -3.77,-1.69 -3.77,-3.77 l 0,-4.32 15.7,0 z" />
	
		<linearGradient
   gradientTransform="matrix(-1,0,0,1,13260.309,0)"
   y2="398.8111"
   x2="12657.816"
   y1="302.99219"
   x1="12657.816"
   gradientUnits="userSpaceOnUse"
   id="SVGID_48_">
		<stop
   id="stop385"
   style="stop-color:#CB905B"
   offset="0" />
		<stop
   id="stop387"
   style="stop-color:#C98E5A"
   offset="0.5142" />
		<stop
   id="stop389"
   style="stop-color:#C28853"
   offset="0.6994" />
		<stop
   id="stop391"
   style="stop-color:#B87F4A"
   offset="0.8309" />
		<stop
   id="stop393"
   style="stop-color:#B27944"
   offset="0.8846" />
		<stop
   id="stop395"
   style="stop-color:#955F27"
   offset="0.9861" />
		<stop
   id="stop397"
   style="stop-color:#915C25"
   offset="1" />
	</linearGradient>
	<path
   style="fill:url(#SVGID_48_)"
   id="path399"
   d="m 551.86,391.73 c 0,3.65 2.97,6.62 6.62,6.62 l 88.03,0 c 3.65,0 6.61,-2.96 6.61,-6.62 l 0,-88.03 c 0,-3.66 -2.96,-6.62 -6.61,-6.62 l -88.03,0 c -3.65,0 -6.62,2.96 -6.62,6.62 l 0,88.03 z" />
	
		<linearGradient
   gradientTransform="matrix(-1,0,0,1,13260.309,0)"
   y2="339.6312"
   x2="12657.865"
   y1="318.13089"
   x1="12657.865"
   gradientUnits="userSpaceOnUse"
   id="SVGID_49_">
		<stop
   id="stop402"
   style="stop-color:#D7BA87"
   offset="5.154640e-03" />
		<stop
   id="stop404"
   style="stop-color:#DBB58A"
   offset="1" />
	</linearGradient>
	<path
   style="fill:url(#SVGID_49_)"
   id="path406"
   d="m 646.31,301.38 -87.75,0 c -1.52,0 -2.91,0.52 -4.02,1.38 1.07,-2 3.18,-3.36 5.61,-3.36 l 84.58,0 c 2.43,0 4.54,1.36 5.61,3.36 -1.11,-0.87 -2.51,-1.38 -4.03,-1.38 z" />
	
		<linearGradient
   gradientTransform="matrix(-1,0,0,1,13260.309,0)"
   y2="289.40439"
   x2="12657.865"
   y1="282.3457"
   x1="12657.865"
   gradientUnits="userSpaceOnUse"
   id="SVGID_50_">
		<stop
   id="stop409"
   style="stop-color:#CFB774"
   offset="5.154640e-03" />
		<stop
   id="stop411"
   style="stop-color:#D0B379"
   offset="1" />
	</linearGradient>
	<path
   style="fill:url(#SVGID_50_)"
   id="path413"
   d="m 591.79,318.12 c 0,0.56 0.45,1.01 1.02,1.01 l 19.29,0 c 0.56,0 1.02,-0.45 1.02,-1.01 l 0,-21 -21.32,0 0,21 z" />
	
		<linearGradient
   gradientTransform="matrix(-1,0,0,1,13260.309,0)"
   y2="398.2467"
   x2="12657.865"
   y1="297.89059"
   x1="12657.865"
   gradientUnits="userSpaceOnUse"
   id="SVGID_51_">
		<stop
   id="stop416"
   style="stop-color:#CCA45F"
   offset="5.154640e-03" />
		<stop
   id="stop418"
   style="stop-color:#C9A15F"
   offset="0.504" />
		<stop
   id="stop420"
   style="stop-color:#BE985C"
   offset="0.7066" />
		<stop
   id="stop422"
   style="stop-color:#AF8A59"
   offset="0.855" />
		<stop
   id="stop424"
   style="stop-color:#997854"
   offset="0.9768" />
		<stop
   id="stop426"
   style="stop-color:#957452"
   offset="1" />
	</linearGradient>
	<path
   style="fill:url(#SVGID_51_)"
   id="path428"
   d="m 591.79,377.39 c 0,-0.56 0.45,-1.01 1.02,-1.01 l 19.29,0 c 0.56,0 1.02,0.45 1.02,1.01 l 0,20.7 -21.32,0 0,-20.7 z" />
	
		<linearGradient
   gradientTransform="matrix(-1,0,0,1,13260.309,0)"
   y2="323.7739"
   x2="12657.865"
   y1="328.9053"
   x1="12657.865"
   gradientUnits="userSpaceOnUse"
   id="SVGID_52_">
		<stop
   id="stop431"
   style="stop-color:#CCBB76"
   offset="5.154640e-03" />
		<stop
   id="stop433"
   style="stop-color:#D1C38E"
   offset="1" />
	</linearGradient>
	<rect
   style="fill:url(#SVGID_52_)"
   id="rect435"
   height="1.99"
   width="21.23"
   y="299.39001"
   x="591.83002" />
	<rect
   style="fill:#ffffff"
   id="rect437"
   height="25.48"
   width="43.02"
   y="311.67999"
   x="559.44" />
	
		<linearGradient
   gradientTransform="matrix(-1,0,0,1,13260.309,0)"
   y2="402.34009"
   x2="12663.184"
   y1="271.09961"
   x1="12663.184"
   gradientUnits="userSpaceOnUse"
   id="SVGID_53_">
		<stop
   id="stop440"
   style="stop-color:#CAAD62"
   offset="5.154640e-03" />
		<stop
   id="stop442"
   style="stop-color:#FFFFFF"
   offset="1" />
	</linearGradient>
	<path
   style="fill:url(#SVGID_53_)"
   id="path444"
   d="m 591.79,318.12 -0.01,-6.44 10.67,0 0,7.44 -9.66,0 c -0.55,0.01 -1,-0.44 -1,-1 z" />
	<rect
   style="fill:#231f20"
   id="rect446"
   height="20.299999"
   width="0.66000003"
   y="315.01999"
   x="568.28003" />
	<rect
   style="fill:#231f20"
   id="rect448"
   height="20.299999"
   width="0.99000001"
   y="315.01999"
   x="572.09998" />
	<rect
   style="fill:#231f20"
   id="rect450"
   height="20.299999"
   width="2.6500001"
   y="315.01999"
   x="576.26001" />
	<rect
   style="fill:#231f20"
   id="rect452"
   height="20.299999"
   width="1.3200001"
   y="315.01999"
   x="581.57001" />
	<rect
   style="fill:#231f20"
   id="rect454"
   height="20.299999"
   width="1.99"
   y="315.01999"
   x="585.21997" />
	<rect
   style="fill:#231f20"
   id="rect456"
   height="20.299999"
   width="0.99000001"
   y="315.01999"
   x="589.71002" />
	<rect
   style="fill:#231f20"
   id="rect458"
   height="20.299999"
   width="2.3599999"
   y="315.01999"
   x="593.66998" />
	<rect
   style="fill:#231f20"
   id="rect460"
   height="20.299999"
   width="2.3599999"
   y="315.01999"
   x="563.45001" />
	<path
   style="fill:#4e4841"
   id="path462"
   d="m 627.12,386.27 1.75,0 0,-13.12 -0.27,0 c -2.98,0 -5.4,-2.42 -5.4,-5.4 l 0,-14.05 13.24,0 0,14.04 c 0,2.98 -2.42,5.4 -5.4,5.4 l -0.27,0 0,13.12 2.29,0 c 2.49,0 4.03,0.38 4.58,2.7 l -15.64,0 c 0.55,-2.31 2.63,-2.69 5.12,-2.69 z" />
	<g
   id="g464">
		<path
   style="fill:#4e4841"
   id="path466"
   d="m 583.41,375.42 c 0.78,-1.43 2.29,-2.4 4.03,-2.4 2.03,0 4,1.32 4.61,3.15 l 0.02,0 c 0.61,-1.83 2.41,-3.15 4.61,-3.15 2.26,0.01 4.13,1.32 4.74,3.15 l 0.03,0 c 0.61,-1.83 2.46,-3.17 4.65,-3.15 1.89,0.03 3.52,1.15 4.22,2.78 -0.22,-6.27 -6.16,-11.29 -13.46,-11.29 -7.16,0 -13.01,4.82 -13.45,10.91 z m 15.09,-9.78 c 0.16,-0.13 0.4,-0.09 0.52,0.07 0,0.01 0.01,0.01 0.02,0.03 1.06,1.34 2.26,3.62 2.63,7.28 0.03,0.13 -0.03,0.28 -0.14,0.37 -0.16,0.12 -0.39,0.09 -0.52,-0.08 -0.05,-0.06 -0.07,-0.13 -0.08,-0.21 -0.36,-3.56 -1.52,-5.71 -2.5,-6.93 l 0,0 0,0 c -0.13,-0.17 -0.09,-0.41 0.07,-0.53 z m -6.63,7.38 c 0.38,-3.66 1.58,-5.94 2.63,-7.28 0,0 0.01,-0.02 0.02,-0.03 0.12,-0.17 0.35,-0.2 0.52,-0.07 0.17,0.13 0.2,0.35 0.07,0.52 l 0,0.01 0,0 c -0.98,1.23 -2.14,3.37 -2.5,6.93 -0.01,0.07 -0.03,0.14 -0.07,0.21 -0.12,0.16 -0.36,0.2 -0.52,0.08 -0.12,-0.09 -0.17,-0.24 -0.15,-0.37 z" />
		<path
   style="fill:#4e4841"
   id="path468"
   d="m 596.24,375.03 c 0.01,-0.35 0.29,-0.63 0.63,-0.63 0.35,0 0.63,0.28 0.63,0.63 l 0,0 0,11.15 c 0,0.85 0.68,1.53 1.53,1.53 0.83,0 1.51,-0.67 1.53,-1.5 l 0,0 c 0,-0.35 0.28,-0.63 0.63,-0.63 0.35,0 0.63,0.28 0.63,0.63 0,0.02 0,0.04 0,0.04 -0.05,1.52 -1.28,2.72 -2.79,2.72 -1.54,0 -2.79,-1.25 -2.79,-2.79 l 0,-11.15 0,0 z" />
		<path
   style="fill:#5a624e"
   id="path470"
   d="m 597.5,376.32 0,9.86 c 0,0.85 0.68,1.53 1.53,1.53 0.83,0 1.51,-0.67 1.53,-1.5 l 0,0 c 0,-0.35 0.28,-0.63 0.63,-0.63 0.35,0 0.63,0.28 0.63,0.63 0,0.02 0,0.04 0,0.04 -0.05,1.52 -1.28,2.72 -2.79,2.72 -1.54,0 -2.79,-1.25 -2.79,-2.79 l 0,-9.86 1.26,0 z" />
	</g>
	<g
   id="g472">
		<path
   style="fill:#4e4841"
   id="path474"
   d="m 594.41,356.78 c 0,1.39 1.29,2.47 2.69,2.47 1.4,0 2.7,-1.15 2.68,-2.48 -0.01,-1.39 -1.54,-3.2 -2.73,-5.23 -1.09,2.06 -2.64,3.85 -2.64,5.24 z m 0.55,-0.08 c 0,0 0,-0.02 0,-0.03 l 0,0 0,-0.01 0,0 0,0 c 0.01,-0.17 0.14,-0.3 0.31,-0.3 0.16,0 0.3,0.13 0.3,0.3 l 0,0 0,0 0,0.01 0,0 c 0,0.01 0,0.02 0,0.02 0,0.38 0.17,0.71 0.45,0.96 0.28,0.25 0.66,0.4 1.05,0.4 l 0.01,0 0,0 0.01,0 0,0 0,0 c 0.16,0 0.3,0.13 0.3,0.3 0,0.17 -0.14,0.3 -0.3,0.3 l 0,0 -0.02,0 c -0.55,0 -1.07,-0.21 -1.46,-0.56 -0.39,-0.33 -0.65,-0.82 -0.65,-1.39 z" />
		<path
   style="fill:#4e4841"
   id="path476"
   d="m 584.53,362.09 c 0,1.3 1.2,2.31 2.51,2.31 1.31,0 2.53,-1.08 2.51,-2.32 -0.02,-1.3 -1.45,-2.99 -2.56,-4.89 -1.01,1.93 -2.46,3.61 -2.46,4.9 z m 0.52,-0.06 0,-0.03 0,0 0,0 0,0 0,0 c 0,-0.16 0.13,-0.28 0.28,-0.28 0.16,0 0.28,0.12 0.28,0.28 l 0.01,0 0,0 0,0 -0.01,0 0,0.02 c 0,0.35 0.16,0.66 0.42,0.89 0.26,0.23 0.62,0.37 0.98,0.37 l 0.01,0 0.01,0 0,0 0,0 0,0 c 0.15,0 0.28,0.13 0.28,0.28 0,0.16 -0.13,0.28 -0.28,0.29 l 0,0 -0.01,0 c -0.51,0 -1,-0.2 -1.37,-0.52 -0.36,-0.31 -0.6,-0.78 -0.6,-1.3 z" />
		<path
   style="fill:#4e4841"
   id="path478"
   d="m 605.1,361.19 c 0,1.06 0.97,1.88 2.04,1.88 1.07,0 2.06,-0.88 2.05,-1.89 -0.02,-1.06 -1.18,-2.44 -2.08,-3.98 -0.83,1.56 -2.01,2.93 -2.01,3.99 z m 0.42,-0.05 0,-0.03 0,0 0,0 0,0 0,0 c 0,-0.13 0.1,-0.23 0.23,-0.23 0.13,0 0.23,0.1 0.23,0.23 l 0,0 0,0 0,0 0,0 0,0.02 c 0,0.28 0.13,0.53 0.34,0.72 0.21,0.19 0.51,0.31 0.8,0.31 l 0.01,0 0,0 0.01,0 0,0 0,0 c 0.12,0 0.23,0.11 0.23,0.23 0,0.13 -0.11,0.23 -0.23,0.23 l 0,0 -0.01,0 c -0.42,0 -0.81,-0.16 -1.11,-0.42 -0.3,-0.26 -0.5,-0.64 -0.5,-1.06 z" />
	</g>
</g><g
       id="g480">
	<g
   id="g482">
		
			<line
   style="fill:none;stroke:#000000;stroke-width:1.54649997;stroke-miterlimit:10"
   id="line484"
   y2="443.32999"
   x2="599.03003"
   y1="132.46001"
   x1="599.03003"
   stroke-miterlimit="10" />
		<g
   id="g486">
			<polygon
   id="polygon488"
   points="591.32,441.07 599.03,454.43 606.74,441.07 " />
		</g>
	</g>
</g><line
       style="fill:none;stroke:#000000;stroke-width:1.54649997;stroke-miterlimit:10"
       id="line490"
       y2="454.42999"
       x2="489.97"
       y1="132.46001"
       x1="489.97"
       stroke-miterlimit="10" /><g
       id="g492">
	<g
   id="g494">
		
			<line
   style="fill:none;stroke:#000000;stroke-width:1.54649997;stroke-miterlimit:10"
   id="line496"
   y2="443.32999"
   x2="299.29001"
   y1="132.46001"
   x1="299.29001"
   stroke-miterlimit="10" />
		<g
   id="g498">
			<polygon
   id="polygon500"
   points="291.58,441.07 299.29,454.43 307,441.07 " />
		</g>
	</g>
</g><line
       style="fill:none;stroke:#000000;stroke-width:1.54649997;stroke-miterlimit:10"
       id="line502"
       y2="152.00999"
       x2="633.08002"
       y1="152.00999"
       x1="271.10999"
       stroke-miterlimit="10" /><g
       id="g504">
	<path
   id="path506"
   d="m 599.2,475.04 c 0,0.19 -0.05,0.22 -0.22,0.22 l -0.9,0 c -0.13,0 -0.19,-0.06 -0.19,-0.19 l 0,-10.58 c 0,-0.13 0.06,-0.19 0.19,-0.19 l 4.98,0 c 0.18,0 0.21,0.05 0.21,0.11 l -0.05,0.19 -0.22,0.67 c -0.02,0.03 -0.02,0.06 -0.08,0.11 -0.05,0.03 -0.08,0.03 -0.16,0.03 l -3.55,0 0,3.55 3.14,0 c 0.18,0 0.21,0.03 0.21,0.21 l 0,0.71 c 0,0.18 -0.03,0.21 -0.21,0.21 l -3.14,0 0,4.95 z" />
</g><g
       id="g508">
	<path
   id="path510"
   d="m 493.89,474.89 c 0.03,0.11 0.06,0.19 0.08,0.27 0,0.08 -0.06,0.1 -0.22,0.1 l -0.99,0 c -0.19,0 -0.26,-0.06 -0.29,-0.18 l -0.9,-3.09 -3.28,0 -0.82,3.09 c -0.03,0.11 -0.1,0.18 -0.29,0.18 l -0.99,0 c -0.16,0 -0.22,-0.02 -0.22,-0.1 0.02,-0.08 0.03,-0.16 0.08,-0.27 l 3.2,-10.42 c 0.05,-0.16 0.06,-0.18 0.24,-0.18 l 0.94,0 c 0.13,0 0.18,0 0.24,0.18 l 3.22,10.42 z m -3.58,-7.55 c -0.13,-0.5 -0.29,-1.07 -0.37,-1.52 l -0.03,0 c -0.06,0.38 -0.22,1.09 -0.34,1.52 l -0.98,3.54 2.67,0 -0.95,-3.54 z" />
</g><g
       id="g512">
	<path
   id="path514"
   d="m 393.55,133.48 c 0.11,0 0.19,0.03 0.19,0.13 0,0.06 -0.05,0.13 -0.06,0.21 l -0.22,0.61 c -0.05,0.13 -0.14,0.18 -0.26,0.18 l -4.83,0 c -0.13,0 -0.19,-0.06 -0.19,-0.19 l 0,-10.58 c 0,-0.13 0.06,-0.19 0.19,-0.19 l 0.93,0 c 0.13,0 0.19,0.06 0.19,0.19 l 0,9.65 4.06,0 z" />
</g><g
       id="g516">
	<path
   id="path518"
   d="m 547.77,134.41 c 0,0.13 -0.06,0.19 -0.19,0.19 l -4.23,0 c -0.13,0 -0.19,-0.06 -0.19,-0.19 l 0,-0.66 c 0,-0.13 0.06,-0.19 0.19,-0.19 l 1.46,0 0,-8.88 -1.46,0 c -0.13,0 -0.19,-0.06 -0.19,-0.19 l 0,-0.66 c 0,-0.13 0.06,-0.19 0.19,-0.19 l 4.23,0 c 0.13,0 0.19,0.06 0.19,0.19 l 0,0.66 c 0,0.13 -0.06,0.19 -0.19,0.19 l -1.46,0 0,8.88 1.46,0 c 0.13,0 0.19,0.06 0.19,0.19 l 0,0.66 z" />
</g><g
       id="g520">
	<path
   id="path522"
   d="m 292.08,475.04 c 0,0.19 -0.05,0.22 -0.22,0.22 l -0.9,0 c -0.13,0 -0.19,-0.06 -0.19,-0.19 l 0,-10.58 c 0,-0.13 0.06,-0.19 0.19,-0.19 l 4.98,0 c 0.18,0 0.21,0.05 0.21,0.11 l -0.05,0.19 -0.22,0.67 c -0.02,0.03 -0.02,0.06 -0.08,0.11 -0.05,0.03 -0.08,0.03 -0.16,0.03 l -3.55,0 0,3.55 3.14,0 c 0.18,0 0.21,0.03 0.21,0.21 l 0,0.71 c 0,0.18 -0.03,0.21 -0.21,0.21 l -3.14,0 0,4.95 z" />
</g><g
       id="g524">
	<path
   id="path526"
   d="m 306.55,485.26 c 0,0.13 -0.06,0.19 -0.19,0.19 l -0.93,0 c -0.13,0 -0.19,-0.06 -0.19,-0.19 l -0.26,-8.23 c -0.02,-0.32 0,-0.72 0.02,-0.99 l -0.03,-0.03 c -0.02,0.35 -0.06,0.75 -0.19,1.14 l -1.94,5.57 c -0.06,0.14 -0.1,0.18 -0.24,0.18 l -0.48,0 c -0.14,0 -0.19,-0.03 -0.24,-0.18 l -1.86,-5.57 c -0.13,-0.38 -0.18,-0.79 -0.19,-1.14 l -0.03,0.03 c 0.02,0.27 0.03,0.67 0.02,0.99 l -0.24,8.23 c 0,0.13 -0.06,0.19 -0.19,0.19 l -0.93,0 c -0.13,0 -0.19,-0.06 -0.19,-0.19 l 0.61,-10.58 c 0,-0.13 0.06,-0.19 0.19,-0.19 l 1.04,0 c 0.13,0 0.13,0.03 0.18,0.16 l 1.89,5.52 c 0.08,0.24 0.14,0.64 0.21,0.99 l 0.03,0 c 0.08,-0.34 0.14,-0.75 0.22,-0.99 l 1.89,-5.52 c 0.05,-0.13 0.05,-0.16 0.18,-0.16 l 1.04,0 c 0.13,0 0.19,0.06 0.19,0.19 l 0.61,10.58 z" />
</g><g
       id="g528">
	<g
   id="g530">
		<g
   id="g532">
			<path
   id="path534"
   d="m 393.18,542.26 c 0,0.37 -0.06,0.44 -0.42,0.44 l -1.96,0 c -0.35,0 -0.44,-0.06 -0.44,-0.44 l 0,-13.37 c 0,-0.37 0.08,-0.44 0.44,-0.44 l 6.82,0 c 0.42,0 0.52,0.04 0.52,0.23 0,0.1 -0.02,0.15 -0.06,0.29 l -0.39,1.39 c -0.08,0.31 -0.31,0.33 -0.48,0.33 l -4.04,0 0,3.43 3.54,0 c 0.37,0 0.44,0.06 0.44,0.44 l 0,1.37 c 0,0.37 -0.08,0.44 -0.44,0.44 l -3.54,0 0,5.89 z" />
			<path
   id="path536"
   d="m 413.71,541.61 c 0.06,0.1 0.17,0.23 0.17,0.29 0,0.15 -0.04,0.17 -0.27,0.27 l -1.58,0.6 c -0.1,0.04 -0.27,0.1 -0.35,0.1 -0.08,0 -0.17,-0.17 -0.31,-0.38 l -1.35,-1.91 c -0.25,-0.35 -0.6,-0.96 -0.81,-1.27 -0.21,0.31 -0.56,0.92 -0.81,1.27 l -1.35,1.91 c -0.15,0.21 -0.23,0.38 -0.31,0.38 -0.08,0 -0.25,-0.06 -0.35,-0.1 l -1.58,-0.6 c -0.23,-0.08 -0.27,-0.12 -0.27,-0.27 0,-0.06 0.1,-0.19 0.17,-0.29 l 3.04,-4.12 -2.75,-3.99 c -0.06,-0.1 -0.17,-0.23 -0.17,-0.29 0,-0.15 0.04,-0.17 0.27,-0.27 l 1.58,-0.6 c 0.1,-0.02 0.27,-0.1 0.35,-0.1 0.1,0 0.17,0.17 0.31,0.37 l 1.08,1.81 c 0.29,0.48 0.46,0.81 0.73,1.27 0.27,-0.48 0.52,-0.77 0.85,-1.27 l 1.21,-1.81 c 0.15,-0.21 0.21,-0.37 0.31,-0.37 0.08,0 0.25,0.08 0.35,0.1 l 1.58,0.6 c 0.23,0.1 0.27,0.12 0.27,0.27 0,0.06 -0.1,0.19 -0.17,0.29 l -2.83,4.01 2.99,4.1 z" />
			<path
   id="path538"
   d="m 427,542.26 c 0,0.37 -0.08,0.44 -0.44,0.44 l -5.1,0 c -0.35,0 -0.44,-0.06 -0.44,-0.44 l 0,-1.12 c 0,-0.38 0.08,-0.44 0.44,-0.44 l 1.14,0 0,-10.25 -1.14,0 c -0.35,0 -0.44,-0.06 -0.44,-0.44 l 0,-1.12 c 0,-0.37 0.08,-0.44 0.44,-0.44 l 5.1,0 c 0.35,0 0.44,0.06 0.44,0.44 l 0,1.12 c 0,0.37 -0.08,0.44 -0.44,0.44 l -1.14,0 0,10.25 1.14,0 c 0.35,0 0.44,0.06 0.44,0.44 l 0,1.12 z" />
			<path
   id="path540"
   d="m 444.54,536.39 c 0,0.29 -0.06,0.35 -0.35,0.35 l -8.74,0 c -0.29,0 -0.35,-0.06 -0.35,-0.35 l 0,-1.37 c 0,-0.29 0.08,-0.35 0.35,-0.35 l 8.74,0 c 0.29,0 0.35,0.06 0.35,0.35 l 0,1.37 z m 0,3.31 c 0,0.29 -0.06,0.35 -0.35,0.35 l -8.74,0 c -0.29,0 -0.35,-0.06 -0.35,-0.35 l 0,-1.37 c 0,-0.29 0.08,-0.35 0.35,-0.35 l 8.74,0 c 0.29,0 0.35,0.06 0.35,0.35 l 0,1.37 z" />
		</g>
	</g>
	<g
   id="g542">
		<path
   id="path544"
   d="m 503.42,541.61 c 0.06,0.1 0.17,0.23 0.17,0.29 0,0.15 -0.04,0.17 -0.27,0.27 l -1.58,0.6 c -0.1,0.04 -0.27,0.1 -0.35,0.1 -0.08,0 -0.17,-0.17 -0.31,-0.38 l -1.35,-1.91 c -0.25,-0.35 -0.6,-0.96 -0.81,-1.27 -0.21,0.31 -0.56,0.92 -0.81,1.27 l -1.35,1.91 c -0.15,0.21 -0.23,0.38 -0.31,0.38 -0.08,0 -0.25,-0.06 -0.35,-0.1 l -1.58,-0.6 c -0.23,-0.08 -0.27,-0.12 -0.27,-0.27 0,-0.06 0.1,-0.19 0.17,-0.29 l 3.04,-4.12 -2.72,-3.99 c -0.06,-0.1 -0.17,-0.23 -0.17,-0.29 0,-0.15 0.04,-0.17 0.27,-0.27 l 1.58,-0.6 c 0.1,-0.02 0.27,-0.1 0.35,-0.1 0.1,0 0.17,0.17 0.31,0.37 l 1.08,1.81 c 0.29,0.48 0.46,0.81 0.73,1.27 0.27,-0.48 0.52,-0.77 0.85,-1.27 l 1.21,-1.81 c 0.15,-0.21 0.21,-0.37 0.31,-0.37 0.08,0 0.25,0.08 0.35,0.1 l 1.58,0.6 c 0.23,0.1 0.27,0.12 0.27,0.27 0,0.06 -0.1,0.19 -0.17,0.29 l -2.83,4.01 2.96,4.1 z" />
		<path
   id="path546"
   d="m 519.44,542.32 c -0.08,0.33 -0.15,0.37 -0.46,0.37 l -6.86,0 c -0.35,0 -0.44,-0.06 -0.44,-0.44 l 0,-13.37 c 0,-0.37 0.08,-0.44 0.44,-0.44 l 1.93,0 c 0.35,0 0.44,0.06 0.44,0.44 l 0,11.31 5.01,0 c 0.29,0 0.38,0.1 0.38,0.27 0,0.06 -0.02,0.19 -0.04,0.27 l -0.4,1.59 z" />
	</g>
	<g
   id="g548">
		<g
   id="g550">
			<path
   id="path552"
   d="m 458.64,542.26 c 0,0.37 -0.06,0.44 -0.42,0.44 l -1.96,0 c -0.35,0 -0.44,-0.06 -0.44,-0.44 l 0,-13.37 c 0,-0.37 0.08,-0.44 0.44,-0.44 l 6.82,0 c 0.42,0 0.52,0.04 0.52,0.23 0,0.1 -0.02,0.15 -0.06,0.29 l -0.39,1.39 c -0.08,0.31 -0.31,0.33 -0.48,0.33 l -4.04,0 0,3.43 3.54,0 c 0.37,0 0.44,0.06 0.44,0.44 l 0,1.37 c 0,0.37 -0.08,0.44 -0.44,0.44 l -3.54,0 0,5.89 z" />
		</g>
	</g>
	<g
   id="g554">
		<g
   id="g556">
			<path
   id="path558"
   d="m 479.95,557.59 c 0,0.37 -0.08,0.44 -0.44,0.44 l -1.83,0 c -0.35,0 -0.44,-0.06 -0.44,-0.44 l -0.17,-7.05 c -0.02,-0.75 -0.04,-2.58 -0.04,-3.33 l -0.04,0 c -0.12,0.75 -0.5,2.52 -0.73,3.26 l -1.27,4.06 c -0.08,0.29 -0.1,0.35 -0.46,0.35 l -1.29,0 c -0.35,0 -0.37,-0.06 -0.46,-0.35 l -1.21,-4.06 c -0.23,-0.75 -0.6,-2.52 -0.73,-3.26 l -0.04,0 c 0,0.75 -0.02,2.58 -0.04,3.33 l -0.21,7.05 c -0.02,0.37 -0.08,0.44 -0.44,0.44 l -1.52,0 c -0.35,0 -0.46,-0.06 -0.44,-0.44 l 0.58,-13.37 c 0,-0.37 0.08,-0.44 0.44,-0.44 l 2,0 c 0.33,0 0.35,0.02 0.46,0.33 l 1.68,5.24 c 0.27,0.83 0.5,1.68 0.62,2.5 l 0.07,0 c 0.12,-0.81 0.21,-1.12 0.67,-2.5 l 1.77,-5.24 c 0.1,-0.29 0.12,-0.33 0.5,-0.33 l 2,0 c 0.35,0 0.4,0.1 0.44,0.67 l 0.57,13.14 z" />
		</g>
	</g>
</g><circle
       id="circle560"
       r="8.9799995"
       cy="333.39001"
       cx="299.01001" /><polygon
       id="polygon562"
       points="478.47,444.47 489.97,424.56 501.46,444.47 " /></g></g>
</svg>