<?xml version="1.0" encoding="UTF-8" standalone="no"?>
<svg
   xmlns:dc="http://purl.org/dc/elements/1.1/"
   xmlns:cc="http://creativecommons.org/ns#"
   xmlns:rdf="http://www.w3.org/1999/02/22-rdf-syntax-ns#"
   xmlns:svg="http://www.w3.org/2000/svg"
   xmlns="http://www.w3.org/2000/svg"
   width="275.40094mm"
   height="49.968086mm"
   viewBox="0 0 975.8301 177.05227"
   id="svg5428"
   version="1.1">
  <defs
     id="defs5430" />
  <metadata
     id="metadata5433">
    <rdf:RDF>
      <cc:Work
         rdf:about="">
        <dc:format>image/svg+xml</dc:format>
        <dc:type
           rdf:resource="http://purl.org/dc/dcmitype/StillImage" />
        <dc:title></dc:title>
      </cc:Work>
    </rdf:RDF>
  </metadata>
  <g
     style="fill:#bdbbde;fill-opacity:1"
     transform="translate(-547.77002,-44.771832)"
     id="g3">
    <path
       style="fill:#bdbbde;fill-opacity:1"
       id="path5"
       d="m 646.53,134.75 c 0.08,0.64 0.32,1.23 0.67,1.72 -1.07,0.38 -1.84,1.38 -1.84,2.58 0,1.52 1.23,2.75 2.74,2.75 l 0.46,0 c 0.08,0 0.16,-0.02 0.25,-0.02 0.16,2.25 2.04,4.03 4.33,4.03 l 25.87,0 c 2.4,0 4.35,-1.95 4.35,-4.35 0,-2.4 -1.95,-4.35 -4.35,-4.35 l -21.32,0 c 0.68,-0.55 0.95,-1.44 0.48,-2.86 l -6.44,-19.05 c -0.88,-1.78 -2.14,-3.54 -4.21,-3.29 -2.07,0.25 -3.54,2.14 -3.29,4.21 l 2.3,18.63 z" />
    <path
       style="fill:#bdbbde;fill-opacity:1"
       id="path7"
       d="m 839.21,136.28 -58.78,0 c -2.44,0 -4.42,1.98 -4.42,4.42 l 0,58.78 c 0,2.21 1.62,4.03 3.73,4.36 l -8.58,0 0,-7.22 c 0,-1.2 -0.97,-2.18 -2.17,-2.18 -0.86,0 -1.59,0.5 -1.95,1.22 l 0,-58.33 c 0,-2.27 -1.85,-4.12 -4.12,-4.12 l -1.6,0 c -1.95,0 -3.58,1.36 -4,3.17 l 0,-62.35 c 0,-2.28 -1.84,-4.12 -4.12,-4.12 l -9.16,0 c -1.57,0 -2.94,0.88 -3.63,2.18 l -7.01,0 -1.37,0 -2.06,0 0,27.36 3.43,0 0,-0.06 6.53,0 0,40.55 -3.63,2.82 -0.37,-0.48 c -0.47,-0.6 -1.33,-0.71 -1.92,-0.24 l -9.22,7.16 -19.13,-66.25 c -1.74,-5.94 -4.46,-11.62 -8.46,-16.04 -3.96,-4.41 -9.53,-7.56 -16.1,-7.53 l -21.78,0 c 0.38,-0.44 0.62,-1.01 0.62,-1.64 l 0,-2.57 0,-0.32 0,-2.57 c 0,-1.39 -1.13,-2.52 -2.51,-2.52 l -5.45,0 c -1.39,0 -2.51,1.13 -2.51,2.52 l 0,2.57 0,0.32 0,2.57 c 0,0.64 0.25,1.22 0.64,1.66 -13.29,0.42 -23.94,11.31 -23.95,24.71 l 0,60.56 c -0.99,-2.85 -3.43,-5.32 -9.16,-5.32 -8.58,0 -21.48,0 -21.48,0 -6.51,0 -10.11,2.46 -11.68,4.12 -1.52,1.61 -7.01,9.07 -7.5,16.68 l -0.03,0 0,0.74 0,0.13 0,0.74 0.01,0 c 0.21,8.55 2.72,39.76 2.72,39.76 0,2.27 1.16,4.12 3.43,4.12 l 6.56,0 c 2.41,8.37 10.13,14.5 19.27,14.5 0.05,0 0.1,0 0.14,0 0.05,0 0.1,0 0.14,0 9.17,0 16.91,-6.12 19.36,-14.5 l 66.73,0 0.01,-0.04 0.62,0 c -0.01,0.02 -0.02,0.04 -0.02,0.04 l 17.32,0 c 3.7,8.53 12.2,14.5 22.09,14.5 8.16,0 15.37,-4.07 19.72,-10.28 1.69,-0.52 2.91,-2.09 2.91,-3.94 l 0,-1.65 c 0.01,-0.04 0.02,-0.08 0.04,-0.11 0.48,1.74 2.07,3.03 3.97,3.03 l 1.6,0 c 1.81,0 3.33,-1.16 3.89,-2.77 l 0,1.62 c 0,1.09 0.8,1.98 1.84,2.14 0.14,0.03 0.29,0.05 0.45,0.05 l 64.56,0 c 1.2,0 2.18,-0.97 2.18,-2.17 0,-1.03 -0.73,-1.9 -1.69,-2.12 l 5.06,0 c 2.44,0 4.42,-1.98 4.42,-4.42 l 0,-58.82 c -0.02,-2.44 -2,-4.42 -4.43,-4.42 z M 709.49,126 l -3.17,1.22 -5.3,-9.65 c -0.14,-0.26 -0.31,-0.49 -0.49,-0.7 l 5.46,-3 3.5,12.13 z m 30.42,46.57 c -1.69,-0.37 -3.44,-0.58 -5.24,-0.58 -1.72,0 -3.4,0.18 -5.02,0.53 l 0.8,-1.7 0,0 c 0,0 0,0 0,-0.01 l 0.29,-0.62 -0.26,0 c 0.01,-0.15 0.03,-0.3 0.03,-0.46 l 0,-0.58 -0.9,-3.12 5.98,-1.91 4.3,-0.05 0,8.5 z m -6.53,-78.33 0,-17 6.53,0 0,17 -6.53,0 z m 5.97,54.72 c 0.6,-0.46 0.71,-1.33 0.24,-1.93 l -0.37,-0.47 0.69,-0.54 0,13.92 -4.97,0.06 -6.46,2.06 -1.1,-3.81 11.97,-9.29 z m -88.5,-81.34 30.22,0 c 3.96,0.03 7.1,1.69 10,4.83 2.86,3.13 5.18,7.75 6.64,12.8 l 6.89,23.87 -21,11.54 c -0.74,0.41 -0.95,1.44 -0.47,2.32 l 0.58,1.06 c 0.48,0.88 1.47,1.26 2.21,0.85 l 8.14,-4.47 c 0.08,0.27 0.18,0.53 0.32,0.79 l 8.92,16.24 c -0.26,0.54 -0.29,1.25 0.03,2.22 l 6.44,19.05 c 0.09,0.19 0.19,0.37 0.29,0.55 l -2.23,7.25 -19.27,0 -2.47,-12.82 c -1.6,-6.87 -2.49,-7.78 -10.07,-7.78 l -41.67,0 0,-61.81 c 0.03,-9.1 7.4,-16.47 16.5,-16.49 z" />
  </g>
  <line
     style="fill:none;stroke:#000000;stroke-width:1.33800006;stroke-miterlimit:10"
     id="line512"
     y2="175.35817"
     x2="313.16998"
     y1="175.35817"
     x1="-3.7353516e-007"
     stroke-miterlimit="10" />
  <polygon
     transform="translate(-547.77002,-44.771832)"
     id="polygon524"
     points="746.41,220.13 723.29,220.13 734.85,200.11 " />
  <rect
     id="rect526"
     height="10.2"
     width="253.23"
     y="145.13817"
     x="60.469963" />
  <g
     style="fill:#bdbbde;fill-opacity:1"
     transform="translate(-235.63288,-235.69066)"
     id="g528">
    <path
       style="fill:#bdbbde;fill-opacity:1"
       id="path530"
       d="m 646.7,321.79 c 0.05,0.65 0.26,1.24 0.58,1.75 -1.08,0.32 -1.9,1.3 -1.96,2.49 -0.07,1.52 1.1,2.8 2.61,2.87 l 0.46,0.02 c 0.08,0 0.16,-0.01 0.25,-0.01 0.06,2.26 1.85,4.12 4.14,4.23 l 25.85,1.22 c 2.4,0.11 4.43,-1.74 4.55,-4.14 0.11,-2.4 -1.74,-4.44 -4.14,-4.55 l -21.29,-1.01 c 0.7,-0.52 1.02,-1.39 0.61,-2.84 l -5.53,-19.33 c -0.8,-1.82 -1.97,-3.64 -4.05,-3.48 -2.08,0.16 -3.64,1.97 -3.48,4.05 l 1.4,18.73 z" />
    <path
       style="fill:#bdbbde;fill-opacity:1"
       id="path532"
       d="m 839.09,332.42 -58.72,-2.77 c -2.44,-0.12 -4.51,1.77 -4.62,4.2 l -2.77,58.72 c -0.11,2.2 1.43,4.1 3.52,4.53 l -8.57,-0.41 0.34,-7.22 c 0.06,-1.2 -0.87,-2.22 -2.07,-2.28 -0.86,-0.04 -1.61,0.43 -2,1.13 l 2.75,-58.26 c 0.11,-2.27 -1.65,-4.2 -3.92,-4.31 l -1.6,-0.08 c -1.95,-0.09 -3.64,1.19 -4.15,2.98 l 2.94,-62.29 c 0.11,-2.27 -1.65,-4.2 -3.92,-4.31 l -9.15,-0.43 c -1.57,-0.07 -2.98,0.74 -3.73,2 l -7.01,-0.33 -1.37,-0.06 -2.06,-0.1 -1.29,27.33 3.43,0.16 0,-0.06 6.52,0.31 -1.91,40.5 -3.76,2.65 -0.35,-0.49 c -0.44,-0.62 -1.29,-0.77 -1.91,-0.33 l -9.54,6.72 -15.98,-67.08 c -1.46,-6.01 -3.9,-11.81 -7.7,-16.42 -3.75,-4.6 -9.16,-8 -15.72,-8.28 l -21.76,-1.03 c 0.4,-0.42 0.67,-0.98 0.7,-1.61 l 0.12,-2.57 0.02,-0.32 0.12,-2.56 c 0.07,-1.39 -1.01,-2.57 -2.39,-2.63 l -5.45,-0.26 c -1.39,-0.07 -2.56,1.01 -2.63,2.39 l -0.12,2.56 -0.01,0.32 -0.12,2.56 c -0.03,0.64 0.19,1.23 0.56,1.69 -13.3,-0.21 -24.45,10.17 -25.09,23.55 l -2.86,60.49 c -0.86,-2.89 -3.18,-5.47 -8.9,-5.75 -8.57,-0.4 -21.46,-1.01 -21.46,-1.01 -6.5,-0.31 -10.22,1.98 -11.86,3.56 -1.6,1.54 -7.43,8.73 -8.28,16.31 l -0.03,0 -0.04,0.74 -0.01,0.13 -0.03,0.74 0.01,0 c -0.2,8.55 0.84,39.84 0.84,39.84 -0.11,2.27 0.96,4.17 3.24,4.28 l 6.55,0.31 c 2.02,8.48 9.43,14.96 18.57,15.39 0.05,0 0.1,0 0.15,0 0.05,0 0.09,0.01 0.14,0.01 9.16,0.43 17.18,-5.32 20.03,-13.57 l 66.66,3.15 0.02,-0.04 0.62,0.03 c -0.01,0.02 -0.02,0.04 -0.02,0.04 l 17.3,0.82 c 3.29,8.7 11.5,15.06 21.38,15.53 8.15,0.39 15.54,-3.34 20.19,-9.34 1.71,-0.44 3.01,-1.95 3.1,-3.8 l 0.08,-1.65 c 0.02,-0.04 0.03,-0.07 0.04,-0.11 0.4,1.77 1.92,3.12 3.82,3.21 l 1.6,0.08 c 1.8,0.08 3.38,-1 4.02,-2.59 l -0.08,1.61 c -0.05,1.08 0.71,2.02 1.74,2.22 0.14,0.04 0.29,0.06 0.45,0.07 l 64.49,3.05 c 1.2,0.06 2.22,-0.87 2.28,-2.07 0.05,-1.03 -0.64,-1.93 -1.59,-2.2 l 5.05,0.24 c 2.44,0.12 4.5,-1.77 4.62,-4.2 l 2.78,-58.72 c 0.08,-2.42 -1.8,-4.49 -4.24,-4.61 z M 710,316.03 l -3.22,1.07 -4.84,-9.89 c -0.13,-0.26 -0.29,-0.5 -0.46,-0.72 l 5.6,-2.74 2.92,12.28 z m 28.19,47.95 c -1.67,-0.45 -3.41,-0.74 -5.2,-0.83 -1.72,-0.08 -3.4,0.03 -5.04,0.29 l 0.88,-1.66 0,0 c 0,0 0,0 0,0 l 0.32,-0.61 -0.26,-0.01 c 0.02,-0.16 0.04,-0.3 0.05,-0.46 l 0.03,-0.58 -0.75,-3.16 6.07,-1.63 4.3,0.15 -0.4,8.5 z m -2.81,-78.55 0.8,-16.98 6.52,0.31 -0.8,16.98 -6.52,-0.31 z m 3.37,54.94 c 0.62,-0.44 0.77,-1.29 0.33,-1.91 l -0.35,-0.49 0.71,-0.5 -0.66,13.91 -4.97,-0.17 -6.55,1.75 -0.92,-3.86 12.41,-8.73 z m -84.56,-85.43 30.19,1.43 c 3.95,0.21 7.01,2.03 9.76,5.3 2.71,3.26 4.81,7.99 6.04,13.09 l 5.76,24.17 -21.53,10.54 c -0.76,0.37 -1.01,1.4 -0.58,2.3 l 0.53,1.08 c 0.44,0.9 1.41,1.33 2.17,0.96 l 8.34,-4.08 c 0.06,0.27 0.16,0.54 0.28,0.8 l 8.15,16.64 c -0.29,0.52 -0.35,1.24 -0.07,2.22 l 5.53,19.33 c 0.08,0.19 0.17,0.38 0.27,0.57 l -2.57,7.13 -19.25,-0.91 -1.86,-12.92 c -1.28,-6.94 -2.12,-7.89 -9.7,-8.25 l -41.62,-1.97 2.92,-61.75 c 0.44,-9.08 8.15,-16.09 17.24,-15.68 z" />
  </g>
  <line
     style="fill:none;stroke:#000000;stroke-width:1.33800006;stroke-miterlimit:10"
     id="line534"
     y2="175.05934"
     x2="625.30713"
     y1="175.05934"
     x1="312.13712"
     stroke-miterlimit="10" />
  <polygon
     transform="translate(-235.63288,-235.69066)"
     id="polygon536"
     points="723.29,410.75 734.85,390.73 746.41,410.75 " />
  <rect
     id="rect538"
     height="10.200148"
     width="253.23367"
     transform="matrix(0.99888549,0.04719931,-0.04719931,0.99888549,0,0)"
     y="121.57163"
     x="422.77499" />
  <g
     style="fill:#bdbbde;fill-opacity:1"
     transform="translate(114.89005,-432.67041)"
     id="g540">
    <path
       style="fill:#bdbbde;fill-opacity:1"
       id="path542"
       d="m 646.82,516.88 c 0.02,0.65 0.21,1.25 0.51,1.77 -1.1,0.28 -1.95,1.22 -2.06,2.41 -0.13,1.51 0.99,2.84 2.49,2.98 l 0.46,0.04 c 0.08,0.01 0.16,0 0.25,0 -0.03,2.26 1.68,4.19 3.96,4.39 l 25.78,2.25 c 2.39,0.21 4.5,-1.56 4.71,-3.95 0.21,-2.39 -1.56,-4.5 -3.95,-4.71 l -21.24,-1.86 c 0.72,-0.49 1.08,-1.35 0.73,-2.81 l -4.76,-19.54 c -0.73,-1.85 -1.82,-3.72 -3.91,-3.64 -2.09,0.07 -3.72,1.82 -3.64,3.91 l 0.67,18.76 z" />
    <path
       style="fill:#bdbbde;fill-opacity:1"
       id="path544"
       d="m 838.63,535.2 -58.56,-5.12 c -2.43,-0.21 -4.58,1.58 -4.79,4.02 l -5.12,58.56 c -0.19,2.2 1.26,4.16 3.34,4.67 l -8.54,-0.75 0.63,-7.2 c 0.1,-1.2 -0.78,-2.25 -1.98,-2.36 -0.85,-0.07 -1.63,0.36 -2.04,1.05 l 5.08,-58.11 c 0.2,-2.27 -1.48,-4.26 -3.75,-4.46 l -1.6,-0.14 c -1.94,-0.17 -3.68,1.04 -4.27,2.81 l 5.44,-62.12 c 0.2,-2.27 -1.48,-4.26 -3.74,-4.46 l -9.12,-0.8 c -1.56,-0.14 -3,0.62 -3.81,1.85 l -6.99,-0.61 -1.37,-0.12 -2.05,-0.18 -2.39,27.25 3.42,0.3 0,-0.06 6.5,0.57 -3.53,40.39 -3.87,2.5 -0.33,-0.51 c -0.41,-0.63 -1.26,-0.82 -1.9,-0.41 l -9.8,6.33 -13.28,-67.66 c -1.22,-6.07 -3.42,-11.96 -7.03,-16.72 -3.56,-4.74 -8.83,-8.36 -15.38,-8.91 l -21.7,-1.9 c 0.42,-0.41 0.71,-0.95 0.76,-1.58 l 0.22,-2.56 0.03,-0.32 0.22,-2.56 c 0.12,-1.38 -0.9,-2.6 -2.29,-2.72 l -5.43,-0.48 c -1.38,-0.12 -2.6,0.9 -2.72,2.29 l -0.22,2.56 -0.03,0.32 -0.22,2.56 c -0.06,0.64 0.14,1.23 0.49,1.71 -13.28,-0.74 -24.84,9.18 -26.01,22.53 l -5.28,60.32 c -0.74,-2.92 -2.96,-5.6 -8.66,-6.1 -8.55,-0.75 -21.4,-1.87 -21.4,-1.87 -6.48,-0.57 -10.29,1.57 -11.99,3.09 -1.66,1.48 -7.78,8.43 -8.93,15.96 l -0.03,0 -0.06,0.74 -0.01,0.13 -0.06,0.74 0.01,0 c -0.54,8.54 -0.75,39.85 -0.75,39.85 -0.2,2.26 0.8,4.2 3.06,4.4 l 6.54,0.57 c 1.67,8.55 8.82,15.33 17.93,16.13 0.05,0 0.1,0 0.15,0.01 0.05,0 0.09,0.01 0.14,0.02 9.14,0.8 17.38,-4.62 20.55,-12.76 l 66.48,5.82 0.02,-0.04 0.62,0.05 c -0.01,0.02 -0.02,0.04 -0.02,0.04 l 17.26,1.51 c 2.94,8.82 10.88,15.51 20.74,16.37 8.13,0.71 15.67,-2.71 20.54,-8.52 1.73,-0.37 3.08,-1.83 3.25,-3.67 l 0.14,-1.65 c 0.02,-0.04 0.03,-0.07 0.05,-0.11 0.33,1.78 1.8,3.2 3.69,3.36 l 1.6,0.14 c 1.8,0.16 3.42,-0.87 4.12,-2.43 l -0.14,1.61 c -0.09,1.08 0.62,2.04 1.65,2.29 0.14,0.04 0.29,0.08 0.44,0.09 l 64.32,5.63 c 1.2,0.1 2.25,-0.78 2.36,-1.98 0.09,-1.03 -0.56,-1.95 -1.5,-2.26 l 5.04,0.44 c 2.43,0.21 4.57,-1.59 4.78,-4.02 l 5.12,-58.56 c 0.19,-2.43 -1.61,-4.58 -4.04,-4.79 z m -128.33,-21.55 -3.26,0.94 -4.44,-10.07 c -0.12,-0.27 -0.27,-0.51 -0.43,-0.74 l 5.7,-2.51 2.43,12.38 z m 26.25,49.05 c -1.65,-0.52 -3.38,-0.88 -5.17,-1.03 -1.71,-0.15 -3.4,-0.11 -5.04,0.09 l 0.95,-1.62 0,0 c 0,0 0,0 0,0 l 0.35,-0.6 -0.26,-0.02 c 0.02,-0.15 0.05,-0.3 0.07,-0.46 l 0.05,-0.58 -0.63,-3.19 6.13,-1.38 4.29,0.32 -0.74,8.47 z m 0.33,-78.61 1.48,-16.93 6.5,0.57 -1.48,16.94 -6.5,-0.58 z m 1.17,55.03 c 0.63,-0.41 0.82,-1.26 0.41,-1.9 l -0.33,-0.5 0.73,-0.47 -1.21,13.87 -4.96,-0.37 -6.62,1.49 -0.76,-3.89 12.74,-8.23 z m -81.07,-88.74 30.11,2.63 c 3.94,0.37 6.92,2.3 9.54,5.69 2.58,3.37 4.49,8.18 5.5,13.33 l 4.79,24.38 -21.93,9.67 c -0.77,0.34 -1.07,1.36 -0.67,2.27 l 0.49,1.1 c 0.41,0.92 1.35,1.38 2.13,1.04 l 8.5,-3.75 c 0.05,0.28 0.13,0.55 0.25,0.82 l 7.47,16.96 c -0.31,0.51 -0.4,1.22 -0.16,2.22 l 4.75,19.54 c 0.08,0.19 0.16,0.39 0.24,0.58 l -2.85,7.03 -19.2,-1.68 -1.34,-12.99 c -1,-6.98 -1.8,-7.97 -9.36,-8.63 l -41.51,-3.63 5.39,-61.58 c 0.81,-9.08 8.79,-15.77 17.86,-15 z" />
  </g>
  <line
     style="fill:none;stroke:#000000;stroke-width:1.33800006;stroke-miterlimit:10"
     id="line546"
     y2="173.89958"
     x2="975.83014"
     y1="173.89958"
     x1="662.6601"
     stroke-miterlimit="10" />
  <polygon
     transform="translate(114.89005,-432.67041)"
     id="polygon548"
     points="734.85,588.54 746.41,608.57 723.29,608.57 " />
  <rect
     id="rect550"
     height="10.200093"
     width="253.23232"
     transform="matrix(0.9961909,0.0871992,-0.0871992,0.9961909,0,0)"
     y="72.663673"
     x="727.8418" />
  <line
     style="fill:none;stroke:#b91319;stroke-width:10.66559982;stroke-miterlimit:10"
     id="line552"
     y2="171.89934"
     x2="559.24713"
     y1="28.719324"
     x1="416.06711"
     stroke-miterlimit="10" />
  <line
     style="fill:none;stroke:#b91319;stroke-width:10.66559982;stroke-miterlimit:10"
     id="line554"
     y2="28.719324"
     x2="559.24713"
     y1="171.89934"
     x1="416.06711"
     stroke-miterlimit="10" />
  <line
     style="fill:none;stroke:#b91319;stroke-width:10.66559982;stroke-miterlimit:10"
     id="line556"
     y2="169.65959"
     x2="909.77008"
     y1="26.489618"
     x1="766.59009"
     stroke-miterlimit="10" />
  <line
     style="fill:none;stroke:#b91319;stroke-width:10.66559982;stroke-miterlimit:10"
     id="line558"
     y2="26.489618"
     x2="909.77008"
     y1="169.65959"
     x1="766.59009"
     stroke-miterlimit="10" />
  <g
     transform="translate(114.89005,-432.67041)"
     id="g560">
    <path
       id="path562"
       d="m 784.25,561.42 c 0,0.18 -0.03,0.22 -0.22,0.22 l -4.91,0 c -0.19,0 -0.22,-0.05 -0.22,-0.22 l 0,-1.04 c 0,-0.18 0.03,-0.22 0.22,-0.22 l 1.62,0 0,-6.79 -1.7,1.06 c -0.08,0.05 -0.14,0.1 -0.22,0.1 -0.1,0 -0.16,-0.1 -0.22,-0.21 l -0.42,-0.72 c -0.05,-0.06 -0.06,-0.13 -0.06,-0.21 0,-0.1 0.08,-0.18 0.19,-0.26 l 3.03,-2.18 1.12,0 c 0.29,0 0.32,0.06 0.32,0.32 l 0,8.88 1.26,0 c 0.19,0 0.22,0.05 0.22,0.22 l 0,1.05 z" />
    <path
       id="path564"
       d="m 790.07,561.91 c -2.48,0 -3.79,-1.99 -3.79,-5.62 0,-3.63 1.28,-5.62 3.79,-5.62 2.46,0 3.79,1.97 3.79,5.62 0.01,3.66 -1.31,5.62 -3.79,5.62 z m 1.76,-5.62 c 0,-2.14 -0.32,-3.89 -1.76,-3.89 -1.42,0 -1.76,1.74 -1.76,3.89 0,2.15 0.34,3.89 1.76,3.89 1.44,0.01 1.76,-1.74 1.76,-3.89 z" />
    <path
       id="path566"
       d="m 798.97,561.91 c -2.48,0 -3.79,-1.99 -3.79,-5.62 0,-3.63 1.28,-5.62 3.79,-5.62 2.46,0 3.79,1.97 3.79,5.62 0,3.66 -1.31,5.62 -3.79,5.62 z m 1.76,-5.62 c 0,-2.14 -0.32,-3.89 -1.76,-3.89 -1.42,0 -1.76,1.74 -1.76,3.89 0,2.15 0.34,3.89 1.76,3.89 1.44,0.01 1.76,-1.74 1.76,-3.89 z" />
    <path
       id="path568"
       d="m 807.86,561.91 c -2.48,0 -3.79,-1.99 -3.79,-5.62 0,-3.63 1.28,-5.62 3.79,-5.62 2.47,0 3.79,1.97 3.79,5.62 0.01,3.66 -1.3,5.62 -3.79,5.62 z m 1.77,-5.62 c 0,-2.14 -0.32,-3.89 -1.76,-3.89 -1.42,0 -1.76,1.74 -1.76,3.89 0,2.15 0.34,3.89 1.76,3.89 1.44,0.01 1.76,-1.74 1.76,-3.89 z" />
    <path
       id="path570"
       d="m 824.95,560.71 c 0.08,0.08 0.14,0.18 0.14,0.24 0,0.06 -0.02,0.11 -0.08,0.14 l -1.36,0.75 c -0.06,0.03 -0.13,0.06 -0.19,0.06 -0.06,0 -0.14,-0.1 -0.19,-0.16 l -2.93,-3.83 -0.03,0 0,3.49 c 0,0.18 -0.03,0.22 -0.22,0.22 l -1.58,0 c -0.19,0 -0.22,-0.05 -0.22,-0.22 l 0,-10.76 c 0,-0.22 0.11,-0.26 0.3,-0.29 l 1.35,-0.27 c 0.05,-0.02 0.21,-0.05 0.26,-0.05 0.1,0 0.13,0.06 0.13,0.34 l 0,6.34 3.07,-3.1 c 0.05,-0.06 0.18,-0.16 0.22,-0.16 0.1,0 0.16,0.08 0.29,0.18 l 0.8,0.66 c 0.06,0.06 0.08,0.11 0.08,0.18 0,0.07 -0.06,0.13 -0.14,0.21 l -2.59,2.53 2.89,3.5 z" />
    <path
       id="path572"
       d="m 832.42,558.54 c 0,1.06 0.08,2.71 0.08,3.6 0,1.75 -0.86,2.9 -3.09,2.9 -1.25,0 -3.31,-0.51 -3.31,-0.85 0,-0.11 0.02,-0.18 0.06,-0.32 l 0.3,-0.98 c 0.03,-0.11 0.1,-0.16 0.18,-0.16 0.19,0 1.17,0.62 2.59,0.62 1.12,0 1.31,-0.46 1.31,-1.36 0,-0.56 -0.05,-0.95 -0.05,-1.06 -0.24,0.16 -0.85,0.61 -1.94,0.61 -1.79,0 -2.74,-1.5 -2.74,-3.9 0,-2.58 1.12,-4.18 3.03,-4.18 1.14,0 1.6,0.5 1.9,0.75 0.05,-0.14 0.34,-0.75 0.56,-0.75 0.05,0 0.11,0.02 0.16,0.03 l 1.25,0.46 c 0.06,0.03 0.14,0.08 0.14,0.14 0,0.21 -0.45,0.78 -0.45,2.05 l 0,2.4 z m -1.92,-2.92 c -0.21,-0.16 -0.54,-0.48 -1.26,-0.48 -0.96,0 -1.38,0.9 -1.38,2.43 0,1.46 0.32,2.37 1.28,2.37 0.82,0 1.2,-0.4 1.36,-0.54 l 0,-3.78 z" />
  </g>
</svg>
