<?xml version="1.0" encoding="UTF-8" standalone="no"?>
<svg
   xmlns:dc="http://purl.org/dc/elements/1.1/"
   xmlns:cc="http://creativecommons.org/ns#"
   xmlns:rdf="http://www.w3.org/1999/02/22-rdf-syntax-ns#"
   xmlns:svg="http://www.w3.org/2000/svg"
   xmlns="http://www.w3.org/2000/svg"
   xml:space="preserve"
   enable-background="new 0 0 966 672"
   viewBox="0 0 548.16998 259.44"
   height="259.44"
   width="548.16998"
   y="0px"
   x="0px"
   id="Capa_1"
   version="1.1"><metadata
   id="metadata211"><rdf:RDF><cc:Work
       rdf:about=""><dc:format>image/svg+xml</dc:format><dc:type
         rdf:resource="http://purl.org/dc/dcmitype/StillImage" /><dc:title></dc:title></cc:Work></rdf:RDF></metadata><defs
   id="defs209" />
















<g
   transform="translate(-282.11,-218.31)"
   id="g4442"><polygon
     style="fill:none;stroke:#000000;stroke-miterlimit:10"
     stroke-miterlimit="10"
     points="779.46,298.81 779.46,283.48 759.62,275.36 633.38,275.36 633.38,265.44 511.65,265.44 511.65,275.36 323.19,275.36 282.61,322.25 282.61,336 282.61,339.19 282.61,352.94 323.19,399.83 511.65,399.83 511.65,409.74 633.38,409.74 633.38,399.83 759.62,399.83 779.46,391.71 779.46,376.38 763.22,372.87 634.28,372.87 634.28,339.19 634.28,336 634.28,302.31 763.22,302.31 "
     id="polygon143" /><g
     id="g4339"><g
       id="g3">
	<path
   id="path5"
   d="m 361.18,345.88 c 0.04,0.13 0.08,0.23 0.1,0.33 0,0.1 -0.08,0.12 -0.27,0.12 l -1.19,0 c -0.23,0 -0.31,-0.08 -0.35,-0.21 l -1.08,-3.71 -3.93,0 -0.98,3.71 c -0.04,0.13 -0.12,0.21 -0.35,0.21 l -1.19,0 c -0.19,0 -0.27,-0.02 -0.27,-0.12 0.02,-0.1 0.04,-0.19 0.1,-0.33 l 3.84,-12.5 c 0.06,-0.19 0.08,-0.21 0.29,-0.21 l 1.13,0 c 0.15,0 0.21,0 0.29,0.21 l 3.86,12.5 z m -4.3,-9.06 c -0.15,-0.59 -0.35,-1.29 -0.44,-1.82 l -0.04,0 c -0.08,0.46 -0.27,1.3 -0.4,1.82 l -1.17,4.24 3.21,0 -1.16,-4.24 z" />
</g><g
       id="g7">
	<path
   id="path9"
   d="m 571.73,233.95 c 1.44,0 3.82,0.15 3.82,3.13 0,2.02 -1.27,2.8 -1.9,3.13 0.98,0.29 2.36,0.92 2.36,3.26 0,1.59 -0.81,2.5 -1.27,2.9 -0.75,0.63 -1.82,0.73 -3.36,0.73 l -2.8,0 c -0.15,0 -0.23,-0.08 -0.23,-0.23 l 0,-12.69 c 0,-0.15 0.08,-0.23 0.23,-0.23 l 3.15,0 z m -0.44,5.79 c 1.11,0 2.53,-0.25 2.53,-2.5 0,-1.71 -1,-1.96 -2.13,-1.96 l -1.77,0 0,4.45 1.37,0 z m 0.5,6.01 c 1.25,0 2.5,-0.44 2.5,-2.34 0,-1.86 -1.27,-2.38 -2.59,-2.38 l -1.77,0 0,4.72 1.86,0 z" />
</g><g
       id="g11">
	<path
   id="path13"
   d="m 658.97,230.74 c 0.08,0.1 0.12,0.17 0.12,0.27 0,0.31 -1.38,1.48 -3.07,1.48 -3.26,0 -4.42,-2.99 -4.42,-6.97 0,-3.65 0.94,-6.72 4.28,-6.72 1.69,0 3.07,1.17 3.07,1.48 0,0.1 -0.04,0.17 -0.11,0.27 l -0.4,0.52 c -0.06,0.08 -0.12,0.15 -0.19,0.15 -0.13,0 -1.21,-1.13 -2.32,-1.13 -2.07,0 -2.59,1.98 -2.59,5.24 0,3.55 0.77,5.87 2.73,5.87 1.11,0 2.19,-1.13 2.32,-1.13 0.06,0 0.13,0.1 0.19,0.15 l 0.39,0.52 z" />
	<path
   id="path15"
   d="m 667.32,231.33 c 0.02,0.06 0.06,0.1 0.06,0.15 0,0.21 -1.61,1 -3.03,1 -2.55,-0.02 -4.05,-1.96 -4.05,-4.88 0,-2.82 1.42,-4.88 3.8,-4.88 3.21,0 3.49,3.11 3.49,4.76 0,0.27 0,0.42 -0.21,0.42 l -5.51,0 c 0,1.17 0.46,3.28 2.65,3.28 1.25,0 2.25,-0.79 2.36,-0.79 0.06,0 0.08,0.06 0.12,0.12 l 0.32,0.82 z m -1.3,-4.6 c 0,-1 -0.33,-2.8 -2,-2.8 -1.77,0 -2.15,1.84 -2.15,2.8 l 4.15,0 z" />
	<path
   id="path17"
   d="m 676.75,231.99 c 0,0.15 -0.08,0.23 -0.23,0.23 l -1,0 c -0.15,0 -0.23,-0.08 -0.23,-0.23 l 0,-6.41 c 0,-0.83 -0.21,-1.55 -1.25,-1.55 -1.25,0 -2.05,0.75 -2.53,1.17 l 0,6.79 c 0,0.15 -0.08,0.23 -0.23,0.23 l -1,0 c -0.15,0 -0.23,-0.08 -0.23,-0.23 l 0,-6.62 c 0,-0.63 0,-0.84 -0.08,-1.13 -0.15,-0.58 -0.31,-0.71 -0.31,-0.81 0,-0.04 0.02,-0.08 0.1,-0.13 l 0.86,-0.48 c 0.04,-0.02 0.1,-0.08 0.15,-0.08 0.35,0 0.58,1.15 0.59,1.3 0.63,-0.5 1.63,-1.3 3.09,-1.3 2.13,0 2.28,1.5 2.28,2.88 l 0,6.37 z" />
	<path
   id="path19"
   d="m 685.04,231.51 c 0.02,0.08 0.04,0.13 0.04,0.19 0,0.25 -1.44,0.79 -2.48,0.79 -0.83,0 -1.52,-0.31 -1.8,-0.67 -0.56,-0.59 -0.56,-1.46 -0.56,-2.17 l 0,-5.45 -1.44,0 c -0.13,0 -0.13,-0.13 -0.13,-0.23 l 0,-0.73 c 0,-0.13 0,-0.23 0.13,-0.23 l 1.44,0 0,-2.63 c 0,-0.12 0.08,-0.19 0.21,-0.23 l 1.02,-0.29 c 0.06,0 0.1,-0.02 0.13,-0.02 0.1,0 0.1,0.1 0.1,0.21 l 0,2.95 2.84,0 c 0.12,0 0.21,0.02 0.21,0.13 0,0.04 -0.02,0.08 -0.02,0.13 l -0.25,0.75 c -0.04,0.1 -0.13,0.17 -0.25,0.17 l -2.53,0 0,5.45 c 0,0.77 0,1.55 1.15,1.55 0.9,0 1.67,-0.52 1.84,-0.52 0.08,0 0.13,0.06 0.13,0.11 l 0.22,0.74 z" />
	<path
   id="path21"
   d="m 688.19,231.99 c 0,0.15 -0.08,0.23 -0.23,0.23 l -1,0 c -0.15,0 -0.23,-0.08 -0.23,-0.23 l 0,-6.58 c 0,-0.35 -0.06,-0.98 -0.33,-1.46 -0.15,-0.27 -0.21,-0.42 -0.21,-0.48 0.02,-0.12 0.1,-0.17 0.13,-0.19 l 0.71,-0.44 c 0.08,-0.06 0.15,-0.1 0.19,-0.1 0.35,0 0.67,1.19 0.75,1.61 0.5,-0.54 1.19,-1.61 2.3,-1.61 0.44,0 0.94,0.15 0.94,0.33 0,0.04 -0.04,0.1 -0.06,0.15 l -0.42,0.98 c -0.02,0.04 -0.04,0.13 -0.12,0.13 -0.1,0 -0.27,-0.17 -0.63,-0.17 -0.67,0 -1.34,1 -1.8,1.5 l 0,6.33 z" />
	<path
   id="path23"
   d="m 695.83,232.49 c -2.59,0 -3.71,-2.09 -3.71,-4.84 0,-2.65 1.11,-4.91 3.9,-4.91 2.63,0 3.74,2.11 3.74,4.82 0.01,2.68 -1.12,4.93 -3.93,4.93 z m 2.37,-4.96 c 0,-1.88 -0.52,-3.61 -2.25,-3.61 -1.73,0 -2.25,1.65 -2.25,3.55 0,2.19 0.5,3.82 2.27,3.82 1.71,0.01 2.23,-1.55 2.23,-3.76 z" />
	<path
   id="path25"
   d="m 714.44,229.18 c 0,0.86 0,1.44 0.21,1.92 0.1,0.23 0.35,0.59 0.35,0.71 0,0.08 -0.1,0.12 -0.17,0.15 l -0.75,0.46 c -0.08,0.04 -0.12,0.06 -0.15,0.06 -0.27,0 -0.61,-0.83 -0.69,-1.13 -0.46,0.33 -1.4,1.13 -2.82,1.13 -2.05,0 -3,-2.3 -3,-4.68 0,-2.76 0.98,-5.07 3.21,-5.07 1.19,0 1.84,0.33 2.36,0.65 l 0,-4.57 c 0,-0.13 0.06,-0.21 0.13,-0.23 l 0.94,-0.23 c 0.15,-0.04 0.1,-0.02 0.23,-0.04 0.15,0 0.15,0.15 0.15,0.25 l 0,10.62 z m -1.46,-4.53 c -0.61,-0.33 -1.23,-0.63 -2.19,-0.63 -1.65,0 -1.8,1.88 -1.8,3.74 0,1.61 0.13,3.44 1.69,3.44 1,0 1.84,-0.84 2.3,-1.13 l 0,-5.42 z" />
	<path
   id="path27"
   d="m 723.86,231.33 c 0.02,0.06 0.06,0.1 0.06,0.15 0,0.21 -1.61,1 -3.03,1 -2.55,-0.02 -4.05,-1.96 -4.05,-4.88 0,-2.82 1.42,-4.88 3.8,-4.88 3.21,0 3.49,3.11 3.49,4.76 0,0.27 0,0.42 -0.21,0.42 l -5.51,0 c 0,1.17 0.46,3.28 2.65,3.28 1.25,0 2.25,-0.79 2.36,-0.79 0.06,0 0.08,0.06 0.12,0.12 l 0.32,0.82 z m -1.3,-4.6 c 0,-1 -0.33,-2.8 -2,-2.8 -1.77,0 -2.15,1.84 -2.15,2.8 l 4.15,0 z" />
	<path
   id="path29"
   d="m 738.53,228.51 c 0,1.08 0.13,3.32 0.13,4.36 0,1.75 -0.79,3.38 -3.38,3.38 -1.44,0 -3.22,-0.65 -3.22,-1.02 0,-0.1 0.02,-0.13 0.08,-0.25 l 0.31,-0.65 c 0.02,-0.06 0.06,-0.12 0.13,-0.12 0.15,0 1.3,0.75 2.63,0.75 1.79,0 2,-1.04 2,-2.07 0,-0.96 -0.06,-1.75 -0.06,-1.98 -0.44,0.37 -1.32,1.06 -2.61,1.06 -1.75,0 -2.96,-1.54 -2.96,-4.24 0,-3.01 1.17,-4.99 3.61,-4.99 1.27,0 2.02,0.63 2.26,0.83 0.17,-0.48 0.38,-0.83 0.56,-0.83 0.08,0 0.13,0.02 0.17,0.04 l 0.86,0.54 c 0.08,0.06 0.08,0.08 0.08,0.11 0,0.15 -0.17,0.25 -0.34,0.71 -0.17,0.48 -0.25,0.73 -0.25,1.42 l 0,2.95 z m -1.46,-3.97 c -0.33,-0.15 -1,-0.52 -1.77,-0.52 -1.46,0 -2.15,1.29 -2.15,3.34 0,2.04 0.37,3.32 1.67,3.32 1,0 1.8,-0.65 2.25,-0.96 l 0,-5.18 z" />
	<path
   id="path31"
   d="m 743.29,231.99 c 0,0.15 -0.08,0.23 -0.23,0.23 l -1,0 c -0.15,0 -0.23,-0.08 -0.23,-0.23 l 0,-6.58 c 0,-0.35 -0.06,-0.98 -0.33,-1.46 -0.15,-0.27 -0.21,-0.42 -0.21,-0.48 0.02,-0.12 0.1,-0.17 0.13,-0.19 l 0.71,-0.44 c 0.08,-0.06 0.15,-0.1 0.19,-0.1 0.35,0 0.67,1.19 0.75,1.61 0.5,-0.54 1.19,-1.61 2.3,-1.61 0.44,0 0.94,0.15 0.94,0.33 0,0.04 -0.04,0.1 -0.06,0.15 l -0.42,0.98 c -0.02,0.04 -0.04,0.13 -0.12,0.13 -0.1,0 -0.27,-0.17 -0.63,-0.17 -0.67,0 -1.34,1 -1.8,1.5 l 0,6.33 z" />
	<path
   id="path33"
   d="m 753.62,229.18 c 0,1.21 0.06,1.38 0.23,1.92 0.08,0.23 0.35,0.59 0.35,0.71 0,0.08 -0.1,0.12 -0.17,0.15 l -0.75,0.46 c -0.08,0.04 -0.12,0.06 -0.15,0.06 -0.29,0 -0.63,-1.02 -0.73,-1.29 -0.23,0.21 -1.17,1.29 -2.76,1.29 -1.52,0 -2.5,-1 -2.5,-2.71 0,-3.24 3.84,-3.3 5.03,-3.34 l 0,-0.69 c 0,-1.11 -0.35,-1.73 -1.71,-1.73 -1.29,0 -2.17,0.61 -2.34,0.61 -0.06,0 -0.12,-0.04 -0.13,-0.1 l -0.25,-0.67 c -0.04,-0.1 -0.06,-0.15 -0.06,-0.25 0,-0.33 1.77,-0.88 2.99,-0.88 2.21,0 2.96,1.08 2.96,2.69 l 0,3.77 z m -1.46,-1.55 c -0.84,0.02 -3.59,0.02 -3.59,2.04 0,0.77 0.42,1.63 1.4,1.63 1,0 1.88,-0.92 2.19,-1.19 l 0,-2.48 z" />
	<path
   id="path35"
   d="m 760.02,232.18 c -0.06,0.13 -0.08,0.17 -0.25,0.17 l -0.75,0 c -0.17,0 -0.19,-0.08 -0.23,-0.17 l -3.23,-8.75 c 0,-0.04 -0.04,-0.08 -0.04,-0.13 0,-0.08 0.04,-0.1 0.17,-0.13 l 0.94,-0.25 c 0.06,0 0.12,-0.04 0.19,-0.04 0.08,0 0.08,0.08 0.13,0.15 l 2.13,6.24 c 0.13,0.4 0.25,0.84 0.35,1.21 l 0.04,0 c 0.1,-0.46 0.17,-0.73 0.35,-1.19 l 2.27,-6.26 c 0.06,-0.08 0.06,-0.15 0.13,-0.15 0.08,0 0.13,0.04 0.19,0.04 l 0.94,0.25 c 0.13,0.04 0.17,0.06 0.17,0.13 0,0.06 -0.04,0.1 -0.04,0.13 l -3.46,8.75 z" />
	<path
   id="path37"
   d="m 771.5,231.33 c 0.02,0.06 0.06,0.1 0.06,0.15 0,0.21 -1.61,1 -3.03,1 -2.55,-0.02 -4.05,-1.96 -4.05,-4.88 0,-2.82 1.42,-4.88 3.8,-4.88 3.21,0 3.49,3.11 3.49,4.76 0,0.27 0,0.42 -0.21,0.42 l -5.51,0 c 0,1.17 0.46,3.28 2.65,3.28 1.25,0 2.25,-0.79 2.36,-0.79 0.06,0 0.08,0.06 0.12,0.12 l 0.32,0.82 z m -1.31,-4.6 c 0,-1 -0.33,-2.8 -2,-2.8 -1.77,0 -2.15,1.84 -2.15,2.8 l 4.15,0 z" />
	<path
   id="path39"
   d="m 780.56,229.18 c 0,0.86 0,1.44 0.21,1.92 0.1,0.23 0.35,0.59 0.35,0.71 0,0.08 -0.1,0.12 -0.17,0.15 l -0.75,0.46 c -0.08,0.04 -0.12,0.06 -0.15,0.06 -0.27,0 -0.61,-0.83 -0.69,-1.13 -0.46,0.33 -1.4,1.13 -2.82,1.13 -2.05,0 -3,-2.3 -3,-4.68 0,-2.76 0.98,-5.07 3.21,-5.07 1.19,0 1.84,0.33 2.36,0.65 l 0,-4.57 c 0,-0.13 0.06,-0.21 0.13,-0.23 l 0.94,-0.23 c 0.15,-0.04 0.1,-0.02 0.23,-0.04 0.15,0 0.15,0.15 0.15,0.25 l 0,10.62 z m -1.46,-4.53 c -0.61,-0.33 -1.23,-0.63 -2.19,-0.63 -1.65,0 -1.8,1.88 -1.8,3.74 0,1.61 0.13,3.44 1.69,3.44 1,0 1.84,-0.84 2.3,-1.13 l 0,-5.42 z" />
	<path
   id="path41"
   d="m 789.53,229.18 c 0,1.21 0.06,1.38 0.23,1.92 0.08,0.23 0.35,0.59 0.35,0.71 0,0.08 -0.1,0.12 -0.17,0.15 l -0.75,0.46 c -0.08,0.04 -0.12,0.06 -0.15,0.06 -0.29,0 -0.63,-1.02 -0.73,-1.29 -0.23,0.21 -1.17,1.29 -2.76,1.29 -1.52,0 -2.5,-1 -2.5,-2.71 0,-3.24 3.84,-3.3 5.03,-3.34 l 0,-0.69 c 0,-1.11 -0.35,-1.73 -1.71,-1.73 -1.29,0 -2.17,0.61 -2.34,0.61 -0.06,0 -0.12,-0.04 -0.13,-0.1 l -0.25,-0.67 c -0.04,-0.1 -0.06,-0.15 -0.06,-0.25 0,-0.33 1.77,-0.88 2.99,-0.88 2.21,0 2.96,1.08 2.96,2.69 l 0,3.77 z m -1.46,-1.55 c -0.84,0.02 -3.59,0.02 -3.59,2.04 0,0.77 0.42,1.63 1.4,1.63 1,0 1.88,-0.92 2.19,-1.19 l 0,-2.48 z" />
	<path
   id="path43"
   d="m 799.05,229.18 c 0,0.86 0,1.44 0.21,1.92 0.1,0.23 0.35,0.59 0.35,0.71 0,0.08 -0.1,0.12 -0.17,0.15 l -0.75,0.46 c -0.08,0.04 -0.12,0.06 -0.15,0.06 -0.27,0 -0.61,-0.83 -0.69,-1.13 -0.46,0.33 -1.4,1.13 -2.82,1.13 -2.05,0 -3,-2.3 -3,-4.68 0,-2.76 0.98,-5.07 3.21,-5.07 1.19,0 1.84,0.33 2.36,0.65 l 0,-4.57 c 0,-0.13 0.06,-0.21 0.13,-0.23 l 0.94,-0.23 c 0.15,-0.04 0.1,-0.02 0.23,-0.04 0.15,0 0.15,0.15 0.15,0.25 l 0,10.62 z m -1.46,-4.53 c -0.61,-0.33 -1.23,-0.63 -2.19,-0.63 -1.65,0 -1.8,1.88 -1.8,3.74 0,1.61 0.13,3.44 1.69,3.44 1,0 1.84,-0.84 2.3,-1.13 l 0,-5.42 z" />
	<path
   id="path45"
   d="m 656.57,237.88 c 0.06,0.04 0.13,0.1 0.13,0.17 0,0.29 -0.31,0.29 -1.09,1.73 -1.32,2.42 -1.84,3.95 -1.84,6.93 0,5.8 2.94,8.1 2.94,8.64 0,0.21 -0.67,0.54 -0.83,0.54 -0.4,0 -3.69,-3.97 -3.69,-9.18 0,-5.36 3.28,-9.19 3.69,-9.19 0.08,0 0.13,0.04 0.21,0.08 l 0.48,0.28 z" />
	<path
   id="path47"
   d="m 665.23,239.9 c -0.08,0.15 -0.08,0.25 -0.21,0.25 -0.08,0 -0.17,-0.04 -0.27,-0.1 -0.37,-0.19 -1.34,-0.67 -2.44,-0.67 -1.15,0 -2.03,0.59 -2.03,1.88 0,2.02 2.51,2.38 4.05,3.65 1.04,0.84 1.56,1.75 1.56,3.01 0,2.34 -1.73,3.76 -4.07,3.76 -1.79,0 -3.21,-0.83 -3.49,-0.96 -0.1,-0.04 -0.15,-0.12 -0.15,-0.21 0,-0.06 0.06,-0.15 0.08,-0.23 l 0.25,-0.63 c 0.06,-0.15 0.1,-0.25 0.21,-0.25 0.08,0 0.17,0.04 0.27,0.1 0.38,0.17 1.55,0.81 2.9,0.81 1.44,0 2.29,-0.9 2.29,-2.19 0,-3.19 -5.61,-2.71 -5.61,-6.68 0,-2.21 1.82,-3.44 3.82,-3.44 1.54,0 2.76,0.69 3.03,0.83 0.1,0.06 0.15,0.15 0.15,0.21 0,0.06 -0.06,0.15 -0.08,0.23 l -0.26,0.63 z" />
	<path
   id="path49"
   d="m 670.24,251.19 c 0,0.15 -0.08,0.23 -0.23,0.23 l -1,0 c -0.15,0 -0.23,-0.08 -0.23,-0.23 l 0,-7.79 -1.5,0 c -0.15,0 -0.23,-0.08 -0.23,-0.23 l 0,-0.73 c 0,-0.15 0.08,-0.23 0.23,-0.23 l 2.71,0 c 0.21,0 0.25,0.12 0.25,0.29 l 0,8.69 z M 669.42,240 c -0.65,0 -1.17,-0.52 -1.17,-1.17 0,-0.65 0.52,-1.17 1.17,-1.17 0.65,0 1.17,0.54 1.17,1.17 0,0.63 -0.52,1.17 -1.17,1.17 z" />
	<path
   id="path51"
   d="m 680.3,251.19 c 0,0.15 -0.08,0.23 -0.23,0.23 l -1,0 c -0.15,0 -0.23,-0.08 -0.23,-0.23 l 0,-6.41 c 0,-0.83 -0.21,-1.55 -1.25,-1.55 -1.25,0 -2.05,0.75 -2.53,1.17 l 0,6.79 c 0,0.15 -0.08,0.23 -0.23,0.23 l -1,0 c -0.15,0 -0.23,-0.08 -0.23,-0.23 l 0,-6.62 c 0,-0.63 0,-0.84 -0.08,-1.13 -0.15,-0.58 -0.31,-0.71 -0.31,-0.81 0,-0.04 0.02,-0.08 0.1,-0.13 l 0.86,-0.48 c 0.04,-0.02 0.1,-0.08 0.15,-0.08 0.35,0 0.58,1.15 0.59,1.3 0.63,-0.5 1.63,-1.3 3.09,-1.3 2.13,0 2.28,1.5 2.28,2.88 l 0,6.37 z" />
	<path
   id="path53"
   d="m 695.22,250.54 c 0.02,0.06 0.06,0.1 0.06,0.15 0,0.21 -1.61,1 -3.03,1 -2.28,0 -3.61,-1.79 -3.61,-4.59 0,-3.21 1.54,-5.16 3.9,-5.16 1.29,0 2.76,0.9 2.76,1.19 0,0.06 -0.04,0.1 -0.06,0.15 l -0.44,0.81 c -0.04,0.06 -0.06,0.12 -0.12,0.12 -0.08,0 -0.9,-0.98 -2.04,-0.98 -1.88,0 -2.44,1.4 -2.44,3.59 0,1.75 0.35,3.59 2.21,3.59 1.25,0 2.25,-0.79 2.36,-0.79 0.06,0 0.08,0.06 0.12,0.12 l 0.33,0.8 z" />
	<path
   id="path55"
   d="m 703.13,248.38 c 0,1.21 0.06,1.38 0.23,1.92 0.08,0.23 0.35,0.59 0.35,0.71 0,0.08 -0.1,0.12 -0.17,0.15 l -0.75,0.46 c -0.08,0.04 -0.12,0.06 -0.15,0.06 -0.29,0 -0.63,-1.02 -0.73,-1.29 -0.23,0.21 -1.17,1.29 -2.76,1.29 -1.52,0 -2.5,-1 -2.5,-2.71 0,-3.24 3.84,-3.3 5.03,-3.34 l 0,-0.69 c 0,-1.11 -0.35,-1.73 -1.71,-1.73 -1.29,0 -2.17,0.61 -2.34,0.61 -0.06,0 -0.12,-0.04 -0.13,-0.1 l -0.25,-0.67 c -0.04,-0.1 -0.06,-0.15 -0.06,-0.25 0,-0.33 1.77,-0.88 2.99,-0.88 2.21,0 2.96,1.08 2.96,2.69 l 0,3.77 z m -1.46,-1.55 c -0.84,0.02 -3.59,0.02 -3.59,2.04 0,0.77 0.42,1.63 1.4,1.63 1,0 1.88,-0.92 2.19,-1.19 l 0,-2.48 z" />
	<path
   id="path57"
   d="m 707.74,251.19 c 0,0.15 -0.08,0.23 -0.23,0.23 l -1,0 c -0.15,0 -0.23,-0.08 -0.23,-0.23 l 0,-6.58 c 0,-0.35 -0.06,-0.98 -0.33,-1.46 -0.15,-0.27 -0.21,-0.42 -0.21,-0.48 0.02,-0.12 0.1,-0.17 0.13,-0.19 l 0.71,-0.44 c 0.08,-0.06 0.15,-0.1 0.19,-0.1 0.35,0 0.67,1.19 0.75,1.61 0.5,-0.54 1.19,-1.61 2.3,-1.61 0.44,0 0.94,0.15 0.94,0.33 0,0.04 -0.04,0.1 -0.06,0.15 l -0.42,0.98 c -0.02,0.04 -0.04,0.13 -0.12,0.13 -0.1,0 -0.27,-0.17 -0.63,-0.17 -0.67,0 -1.34,1 -1.8,1.5 l 0,6.33 z" />
	<path
   id="path59"
   d="m 718.62,247.71 c 0,1.08 0.13,3.32 0.13,4.36 0,1.75 -0.79,3.38 -3.38,3.38 -1.44,0 -3.22,-0.65 -3.22,-1.02 0,-0.1 0.02,-0.13 0.08,-0.25 l 0.31,-0.65 c 0.02,-0.06 0.06,-0.12 0.13,-0.12 0.15,0 1.3,0.75 2.63,0.75 1.79,0 2,-1.04 2,-2.07 0,-0.96 -0.06,-1.75 -0.06,-1.98 -0.44,0.37 -1.33,1.06 -2.61,1.06 -1.75,0 -2.96,-1.54 -2.96,-4.24 0,-3.01 1.17,-4.99 3.61,-4.99 1.27,0 2.02,0.63 2.26,0.83 0.17,-0.48 0.38,-0.83 0.56,-0.83 0.08,0 0.13,0.02 0.17,0.04 l 0.86,0.54 c 0.08,0.06 0.08,0.08 0.08,0.12 0,0.15 -0.17,0.25 -0.34,0.71 -0.17,0.48 -0.25,0.73 -0.25,1.42 l 0,2.94 z m -1.46,-3.97 c -0.33,-0.15 -1,-0.52 -1.77,-0.52 -1.46,0 -2.15,1.29 -2.15,3.34 0,2.04 0.37,3.32 1.67,3.32 1,0 1.8,-0.65 2.25,-0.96 l 0,-5.18 z" />
	<path
   id="path61"
   d="m 727.67,248.38 c 0,1.21 0.06,1.38 0.23,1.92 0.08,0.23 0.35,0.59 0.35,0.71 0,0.08 -0.1,0.12 -0.17,0.15 l -0.75,0.46 c -0.08,0.04 -0.12,0.06 -0.15,0.06 -0.29,0 -0.63,-1.02 -0.73,-1.29 -0.23,0.21 -1.17,1.29 -2.76,1.29 -1.52,0 -2.5,-1 -2.5,-2.71 0,-3.24 3.84,-3.3 5.03,-3.34 l 0,-0.69 c 0,-1.11 -0.35,-1.73 -1.71,-1.73 -1.29,0 -2.17,0.61 -2.34,0.61 -0.06,0 -0.12,-0.04 -0.13,-0.1 l -0.25,-0.67 c -0.04,-0.1 -0.06,-0.15 -0.06,-0.25 0,-0.33 1.77,-0.88 2.99,-0.88 2.21,0 2.96,1.08 2.96,2.69 l 0,3.77 z m -1.46,-1.55 c -0.84,0.02 -3.59,0.02 -3.59,2.04 0,0.77 0.42,1.63 1.4,1.63 1,0 1.88,-0.92 2.19,-1.19 l 0,-2.48 z" />
	<path
   id="path63"
   d="m 730.32,255.53 c -0.06,-0.04 -0.13,-0.1 -0.13,-0.17 0,-0.29 0.31,-0.29 1.09,-1.73 1.32,-2.42 1.84,-3.95 1.84,-6.93 0,-5.8 -2.94,-8.1 -2.94,-8.64 0,-0.21 0.67,-0.54 0.83,-0.54 0.4,0 3.69,3.97 3.69,9.18 0,5.36 -3.28,9.19 -3.69,9.19 -0.08,0 -0.13,-0.04 -0.21,-0.08 l -0.48,-0.28 z" />
</g><g
       id="g65">
	<path
   id="path67"
   d="m 689.64,433.41 c 0.08,0.1 0.12,0.17 0.12,0.27 0,0.31 -1.38,1.48 -3.07,1.48 -3.26,0 -4.42,-2.99 -4.42,-6.97 0,-3.65 0.94,-6.72 4.28,-6.72 1.69,0 3.07,1.17 3.07,1.48 0,0.1 -0.04,0.17 -0.11,0.27 l -0.4,0.52 c -0.06,0.08 -0.12,0.15 -0.19,0.15 -0.13,0 -1.21,-1.13 -2.32,-1.13 -2.07,0 -2.59,1.98 -2.59,5.24 0,3.55 0.77,5.87 2.73,5.87 1.11,0 2.19,-1.13 2.32,-1.13 0.06,0 0.13,0.1 0.19,0.15 l 0.39,0.52 z" />
	<path
   id="path69"
   d="m 697.99,434 c 0.02,0.06 0.06,0.1 0.06,0.15 0,0.21 -1.61,1 -3.03,1 -2.55,-0.02 -4.05,-1.96 -4.05,-4.88 0,-2.82 1.42,-4.88 3.8,-4.88 3.21,0 3.49,3.11 3.49,4.76 0,0.27 0,0.42 -0.21,0.42 l -5.51,0 c 0,1.17 0.46,3.28 2.65,3.28 1.25,0 2.25,-0.79 2.36,-0.79 0.06,0 0.08,0.06 0.12,0.12 l 0.32,0.82 z m -1.31,-4.6 c 0,-1 -0.33,-2.8 -2,-2.8 -1.77,0 -2.15,1.84 -2.15,2.8 l 4.15,0 z" />
	<path
   id="path71"
   d="m 707.42,434.66 c 0,0.15 -0.08,0.23 -0.23,0.23 l -1,0 c -0.15,0 -0.23,-0.08 -0.23,-0.23 l 0,-6.41 c 0,-0.83 -0.21,-1.55 -1.25,-1.55 -1.25,0 -2.05,0.75 -2.53,1.17 l 0,6.79 c 0,0.15 -0.08,0.23 -0.23,0.23 l -1,0 c -0.15,0 -0.23,-0.08 -0.23,-0.23 l 0,-6.62 c 0,-0.63 0,-0.84 -0.08,-1.13 -0.15,-0.58 -0.31,-0.71 -0.31,-0.81 0,-0.04 0.02,-0.08 0.1,-0.13 l 0.86,-0.48 c 0.04,-0.02 0.1,-0.08 0.15,-0.08 0.35,0 0.58,1.15 0.59,1.3 0.63,-0.5 1.63,-1.3 3.09,-1.3 2.13,0 2.28,1.5 2.28,2.88 l 0,6.37 z" />
	<path
   id="path73"
   d="m 715.71,434.18 c 0.02,0.08 0.04,0.13 0.04,0.19 0,0.25 -1.44,0.79 -2.48,0.79 -0.83,0 -1.52,-0.31 -1.8,-0.67 -0.56,-0.59 -0.56,-1.46 -0.56,-2.17 l 0,-5.45 -1.44,0 c -0.13,0 -0.13,-0.13 -0.13,-0.23 l 0,-0.73 c 0,-0.13 0,-0.23 0.13,-0.23 l 1.44,0 0,-2.63 c 0,-0.12 0.08,-0.19 0.21,-0.23 l 1.02,-0.29 c 0.06,0 0.1,-0.02 0.13,-0.02 0.1,0 0.1,0.1 0.1,0.21 l 0,2.96 2.84,0 c 0.12,0 0.21,0.02 0.21,0.13 0,0.04 -0.02,0.08 -0.02,0.13 l -0.25,0.75 c -0.04,0.1 -0.13,0.17 -0.25,0.17 l -2.53,0 0,5.45 c 0,0.77 0,1.55 1.15,1.55 0.9,0 1.67,-0.52 1.84,-0.52 0.08,0 0.13,0.06 0.13,0.11 l 0.22,0.73 z" />
	<path
   id="path75"
   d="m 718.86,434.66 c 0,0.15 -0.08,0.23 -0.23,0.23 l -1,0 c -0.15,0 -0.23,-0.08 -0.23,-0.23 l 0,-6.58 c 0,-0.35 -0.06,-0.98 -0.33,-1.46 -0.15,-0.27 -0.21,-0.42 -0.21,-0.48 0.02,-0.12 0.1,-0.17 0.13,-0.19 l 0.71,-0.44 c 0.08,-0.06 0.15,-0.1 0.19,-0.1 0.35,0 0.67,1.19 0.75,1.61 0.5,-0.54 1.19,-1.61 2.3,-1.61 0.44,0 0.94,0.15 0.94,0.33 0,0.04 -0.04,0.1 -0.06,0.15 l -0.42,0.98 c -0.02,0.04 -0.04,0.13 -0.12,0.13 -0.1,0 -0.27,-0.17 -0.63,-0.17 -0.67,0 -1.34,1 -1.8,1.5 l 0,6.33 z" />
	<path
   id="path77"
   d="m 726.5,435.15 c -2.59,0 -3.71,-2.09 -3.71,-4.84 0,-2.65 1.11,-4.91 3.9,-4.91 2.63,0 3.74,2.11 3.74,4.82 0.01,2.69 -1.13,4.93 -3.93,4.93 z m 2.36,-4.95 c 0,-1.88 -0.52,-3.61 -2.25,-3.61 -1.73,0 -2.25,1.65 -2.25,3.55 0,2.19 0.5,3.82 2.27,3.82 1.71,0 2.23,-1.55 2.23,-3.76 z" />
	<path
   id="path79"
   d="m 745.1,431.85 c 0,0.86 0,1.44 0.21,1.92 0.1,0.23 0.35,0.59 0.35,0.71 0,0.08 -0.1,0.12 -0.17,0.15 l -0.75,0.46 c -0.08,0.04 -0.12,0.06 -0.15,0.06 -0.27,0 -0.61,-0.83 -0.69,-1.13 -0.46,0.33 -1.4,1.13 -2.82,1.13 -2.05,0 -3,-2.3 -3,-4.68 0,-2.76 0.98,-5.07 3.21,-5.07 1.19,0 1.84,0.33 2.36,0.65 l 0,-4.57 c 0,-0.13 0.06,-0.21 0.13,-0.23 l 0.94,-0.23 c 0.15,-0.04 0.1,-0.02 0.23,-0.04 0.15,0 0.15,0.15 0.15,0.25 l 0,10.62 z m -1.46,-4.53 c -0.61,-0.33 -1.23,-0.63 -2.19,-0.63 -1.65,0 -1.8,1.88 -1.8,3.74 0,1.61 0.13,3.44 1.69,3.44 1,0 1.84,-0.84 2.3,-1.13 l 0,-5.42 z" />
	<path
   id="path81"
   d="m 754.53,434 c 0.02,0.06 0.06,0.1 0.06,0.15 0,0.21 -1.61,1 -3.03,1 -2.55,-0.02 -4.05,-1.96 -4.05,-4.88 0,-2.82 1.42,-4.88 3.8,-4.88 3.21,0 3.49,3.11 3.49,4.76 0,0.27 0,0.42 -0.21,0.42 l -5.51,0 c 0,1.17 0.46,3.28 2.65,3.28 1.25,0 2.25,-0.79 2.36,-0.79 0.06,0 0.08,0.06 0.12,0.12 l 0.32,0.82 z m -1.31,-4.6 c 0,-1 -0.33,-2.8 -2,-2.8 -1.77,0 -2.15,1.84 -2.15,2.8 l 4.15,0 z" />
	<path
   id="path83"
   d="m 769.2,431.18 c 0,1.08 0.13,3.32 0.13,4.36 0,1.75 -0.79,3.38 -3.38,3.38 -1.44,0 -3.22,-0.65 -3.22,-1.02 0,-0.1 0.02,-0.13 0.08,-0.25 l 0.31,-0.65 c 0.02,-0.06 0.06,-0.12 0.13,-0.12 0.15,0 1.3,0.75 2.63,0.75 1.79,0 2,-1.04 2,-2.07 0,-0.96 -0.06,-1.75 -0.06,-1.98 -0.44,0.37 -1.32,1.06 -2.61,1.06 -1.75,0 -2.96,-1.54 -2.96,-4.24 0,-3.01 1.17,-4.99 3.61,-4.99 1.27,0 2.02,0.63 2.26,0.83 0.17,-0.48 0.38,-0.83 0.56,-0.83 0.08,0 0.13,0.02 0.17,0.04 l 0.86,0.54 c 0.08,0.06 0.08,0.08 0.08,0.11 0,0.15 -0.17,0.25 -0.34,0.71 -0.17,0.48 -0.25,0.73 -0.25,1.42 l 0,2.95 z m -1.46,-3.97 c -0.33,-0.15 -1,-0.52 -1.77,-0.52 -1.46,0 -2.15,1.29 -2.15,3.34 0,2.04 0.37,3.32 1.67,3.32 1,0 1.8,-0.65 2.25,-0.96 l 0,-5.18 z" />
	<path
   id="path85"
   d="m 773.96,434.66 c 0,0.15 -0.08,0.23 -0.23,0.23 l -1,0 c -0.15,0 -0.23,-0.08 -0.23,-0.23 l 0,-6.58 c 0,-0.35 -0.06,-0.98 -0.33,-1.46 -0.15,-0.27 -0.21,-0.42 -0.21,-0.48 0.02,-0.12 0.1,-0.17 0.13,-0.19 l 0.71,-0.44 c 0.08,-0.06 0.15,-0.1 0.19,-0.1 0.35,0 0.67,1.19 0.75,1.61 0.5,-0.54 1.19,-1.61 2.3,-1.61 0.44,0 0.94,0.15 0.94,0.33 0,0.04 -0.04,0.1 -0.06,0.15 l -0.42,0.98 c -0.02,0.04 -0.04,0.13 -0.12,0.13 -0.1,0 -0.27,-0.17 -0.63,-0.17 -0.67,0 -1.34,1 -1.8,1.5 l 0,6.33 z" />
	<path
   id="path87"
   d="m 784.29,431.85 c 0,1.21 0.06,1.38 0.23,1.92 0.08,0.23 0.35,0.59 0.35,0.71 0,0.08 -0.1,0.12 -0.17,0.15 l -0.75,0.46 c -0.08,0.04 -0.12,0.06 -0.15,0.06 -0.29,0 -0.63,-1.02 -0.73,-1.29 -0.23,0.21 -1.17,1.29 -2.76,1.29 -1.52,0 -2.5,-1 -2.5,-2.71 0,-3.24 3.84,-3.3 5.03,-3.34 l 0,-0.69 c 0,-1.11 -0.35,-1.73 -1.71,-1.73 -1.29,0 -2.17,0.61 -2.34,0.61 -0.06,0 -0.12,-0.04 -0.13,-0.1 l -0.25,-0.67 c -0.04,-0.1 -0.06,-0.15 -0.06,-0.25 0,-0.33 1.77,-0.88 2.99,-0.88 2.21,0 2.96,1.08 2.96,2.69 l 0,3.77 z m -1.46,-1.55 c -0.84,0.02 -3.59,0.02 -3.59,2.04 0,0.77 0.42,1.63 1.4,1.63 1,0 1.88,-0.92 2.19,-1.19 l 0,-2.48 z" />
	<path
   id="path89"
   d="m 790.68,434.85 c -0.06,0.13 -0.08,0.17 -0.25,0.17 l -0.75,0 c -0.17,0 -0.19,-0.08 -0.23,-0.17 l -3.23,-8.75 c 0,-0.04 -0.04,-0.08 -0.04,-0.13 0,-0.08 0.04,-0.1 0.17,-0.13 l 0.94,-0.25 c 0.06,0 0.12,-0.04 0.19,-0.04 0.08,0 0.08,0.08 0.13,0.15 l 2.13,6.24 c 0.13,0.4 0.25,0.84 0.35,1.21 l 0.04,0 c 0.1,-0.46 0.17,-0.73 0.35,-1.19 l 2.27,-6.26 c 0.06,-0.08 0.06,-0.15 0.13,-0.15 0.08,0 0.13,0.04 0.19,0.04 l 0.94,0.25 c 0.13,0.04 0.17,0.06 0.17,0.13 0,0.06 -0.04,0.1 -0.04,0.13 l -3.46,8.75 z" />
	<path
   id="path91"
   d="m 802.16,434 c 0.02,0.06 0.06,0.1 0.06,0.15 0,0.21 -1.61,1 -3.03,1 -2.55,-0.02 -4.05,-1.96 -4.05,-4.88 0,-2.82 1.42,-4.88 3.8,-4.88 3.21,0 3.49,3.11 3.49,4.76 0,0.27 0,0.42 -0.21,0.42 l -5.51,0 c 0,1.17 0.46,3.28 2.65,3.28 1.25,0 2.25,-0.79 2.36,-0.79 0.06,0 0.08,0.06 0.12,0.12 l 0.32,0.82 z m -1.3,-4.6 c 0,-1 -0.33,-2.8 -2,-2.8 -1.77,0 -2.15,1.84 -2.15,2.8 l 4.15,0 z" />
	<path
   id="path93"
   d="m 811.23,431.85 c 0,0.86 0,1.44 0.21,1.92 0.1,0.23 0.35,0.59 0.35,0.71 0,0.08 -0.1,0.12 -0.17,0.15 l -0.75,0.46 c -0.08,0.04 -0.12,0.06 -0.15,0.06 -0.27,0 -0.61,-0.83 -0.69,-1.13 -0.46,0.33 -1.4,1.13 -2.82,1.13 -2.05,0 -3,-2.3 -3,-4.68 0,-2.76 0.98,-5.07 3.21,-5.07 1.19,0 1.84,0.33 2.36,0.65 l 0,-4.57 c 0,-0.13 0.06,-0.21 0.13,-0.23 l 0.94,-0.23 c 0.15,-0.04 0.1,-0.02 0.23,-0.04 0.15,0 0.15,0.15 0.15,0.25 l 0,10.62 z m -1.46,-4.53 c -0.61,-0.33 -1.23,-0.63 -2.19,-0.63 -1.65,0 -1.8,1.88 -1.8,3.74 0,1.61 0.13,3.44 1.69,3.44 1,0 1.84,-0.84 2.3,-1.13 l 0,-5.42 z" />
	<path
   id="path95"
   d="m 820.19,431.85 c 0,1.21 0.06,1.38 0.23,1.92 0.08,0.23 0.35,0.59 0.35,0.71 0,0.08 -0.1,0.12 -0.17,0.15 l -0.75,0.46 c -0.08,0.04 -0.12,0.06 -0.15,0.06 -0.29,0 -0.63,-1.02 -0.73,-1.29 -0.23,0.21 -1.17,1.29 -2.76,1.29 -1.52,0 -2.5,-1 -2.5,-2.71 0,-3.24 3.84,-3.3 5.03,-3.34 l 0,-0.69 c 0,-1.11 -0.35,-1.73 -1.71,-1.73 -1.29,0 -2.17,0.61 -2.34,0.61 -0.06,0 -0.12,-0.04 -0.13,-0.1 l -0.25,-0.67 c -0.04,-0.1 -0.06,-0.15 -0.06,-0.25 0,-0.33 1.77,-0.88 2.99,-0.88 2.21,0 2.96,1.08 2.96,2.69 l 0,3.77 z m -1.46,-1.55 c -0.84,0.02 -3.59,0.02 -3.59,2.04 0,0.77 0.42,1.63 1.4,1.63 1,0 1.88,-0.92 2.19,-1.19 l 0,-2.48 z" />
	<path
   id="path97"
   d="m 829.72,431.85 c 0,0.86 0,1.44 0.21,1.92 0.1,0.23 0.35,0.59 0.35,0.71 0,0.08 -0.1,0.12 -0.17,0.15 l -0.75,0.46 c -0.08,0.04 -0.12,0.06 -0.15,0.06 -0.27,0 -0.61,-0.83 -0.69,-1.13 -0.46,0.33 -1.4,1.13 -2.82,1.13 -2.05,0 -3,-2.3 -3,-4.68 0,-2.76 0.98,-5.07 3.21,-5.07 1.19,0 1.84,0.33 2.36,0.65 l 0,-4.57 c 0,-0.13 0.06,-0.21 0.13,-0.23 l 0.94,-0.23 c 0.15,-0.04 0.1,-0.02 0.23,-0.04 0.15,0 0.15,0.15 0.15,0.25 l 0,10.62 z m -1.46,-4.53 c -0.61,-0.33 -1.23,-0.63 -2.19,-0.63 -1.65,0 -1.8,1.88 -1.8,3.74 0,1.61 0.13,3.44 1.69,3.44 1,0 1.84,-0.84 2.3,-1.13 l 0,-5.42 z" />
	<path
   id="path99"
   d="m 687.24,440.55 c 0.06,0.04 0.13,0.1 0.13,0.17 0,0.29 -0.31,0.29 -1.09,1.73 -1.32,2.42 -1.84,3.95 -1.84,6.93 0,5.8 2.94,8.1 2.94,8.64 0,0.21 -0.67,0.54 -0.83,0.54 -0.4,0 -3.69,-3.97 -3.69,-9.18 0,-5.36 3.28,-9.19 3.69,-9.19 0.08,0 0.13,0.04 0.21,0.08 l 0.48,0.28 z" />
	<path
   id="path101"
   d="m 699.73,453.86 c 0,0.15 -0.08,0.23 -0.23,0.23 l -1.11,0 c -0.15,0 -0.23,-0.08 -0.23,-0.23 l -0.31,-9.87 c -0.02,-0.38 0,-0.86 0.02,-1.19 l -0.04,-0.04 c -0.02,0.42 -0.08,0.9 -0.23,1.36 l -2.32,6.68 c -0.08,0.17 -0.12,0.21 -0.29,0.21 l -0.58,0 c -0.17,0 -0.23,-0.04 -0.29,-0.21 l -2.23,-6.68 c -0.15,-0.46 -0.21,-0.94 -0.23,-1.36 l -0.04,0.04 c 0.02,0.33 0.04,0.81 0.02,1.19 l -0.29,9.87 c 0,0.15 -0.08,0.23 -0.23,0.23 l -1.11,0 c -0.15,0 -0.23,-0.08 -0.23,-0.23 l 0.73,-12.69 c 0,-0.15 0.08,-0.23 0.23,-0.23 l 1.26,0 c 0.15,0 0.15,0.04 0.21,0.19 l 2.27,6.62 c 0.1,0.29 0.17,0.77 0.25,1.19 l 0.04,0 c 0.1,-0.4 0.17,-0.9 0.27,-1.19 l 2.26,-6.62 c 0.06,-0.15 0.06,-0.19 0.21,-0.19 l 1.25,0 c 0.15,0 0.23,0.08 0.23,0.23 l 0.74,12.69 z" />
	<path
   id="path103"
   d="m 708.55,451.05 c 0,1.21 0.06,1.38 0.23,1.92 0.08,0.23 0.35,0.59 0.35,0.71 0,0.08 -0.1,0.12 -0.17,0.15 l -0.75,0.46 c -0.08,0.04 -0.12,0.06 -0.15,0.06 -0.29,0 -0.63,-1.02 -0.73,-1.29 -0.23,0.21 -1.17,1.29 -2.76,1.29 -1.52,0 -2.5,-1 -2.5,-2.71 0,-3.24 3.84,-3.3 5.03,-3.34 l 0,-0.69 c 0,-1.11 -0.35,-1.73 -1.71,-1.73 -1.29,0 -2.17,0.61 -2.34,0.61 -0.06,0 -0.12,-0.04 -0.13,-0.1 l -0.25,-0.67 c -0.04,-0.1 -0.06,-0.15 -0.06,-0.25 0,-0.33 1.77,-0.88 2.99,-0.88 2.21,0 2.96,1.08 2.96,2.69 l 0,3.77 z m -1.46,-1.55 c -0.84,0.02 -3.59,0.02 -3.59,2.04 0,0.77 0.42,1.63 1.4,1.63 1,0 1.88,-0.92 2.19,-1.19 l 0,-2.48 z m -2.8,-6.03 c -0.06,0.04 -0.12,0.06 -0.19,0.06 -0.06,0 -0.12,-0.06 -0.17,-0.15 l -0.17,-0.27 c -0.04,-0.06 -0.1,-0.13 -0.1,-0.19 0,-0.06 0.08,-0.1 0.15,-0.17 l 2.78,-2.15 c 0.04,-0.02 0.12,-0.1 0.19,-0.1 0.08,0 0.13,0.1 0.19,0.15 l 0.56,0.83 c 0.04,0.06 0.08,0.12 0.08,0.19 0,0.08 -0.08,0.13 -0.17,0.17 l -3.15,1.63 z" />
	<path
   id="path105"
   d="m 717.21,454.14 c -0.1,0.04 -0.15,0.08 -0.23,0.08 -0.15,0 -0.19,-0.06 -0.25,-0.15 l -1.9,-2.88 c -0.17,-0.27 -0.38,-0.59 -0.5,-0.81 -0.17,0.29 -0.31,0.48 -0.52,0.79 l -2.05,2.9 c -0.08,0.1 -0.1,0.15 -0.25,0.15 -0.08,0 -0.13,-0.04 -0.23,-0.08 l -0.81,-0.33 c -0.08,-0.04 -0.15,-0.06 -0.15,-0.15 0,-0.06 0.04,-0.12 0.08,-0.15 l 3.19,-4.13 -2.78,-3.93 c -0.04,-0.04 -0.08,-0.1 -0.08,-0.15 0,-0.1 0.08,-0.12 0.15,-0.15 l 0.81,-0.33 c 0.1,-0.04 0.15,-0.08 0.23,-0.08 0.15,0 0.17,0.06 0.25,0.15 l 1.59,2.48 c 0.21,0.33 0.42,0.67 0.58,0.92 0.21,-0.31 0.42,-0.63 0.61,-0.92 l 1.67,-2.48 c 0.06,-0.1 0.1,-0.15 0.25,-0.15 0.08,0 0.13,0.04 0.23,0.08 l 0.81,0.33 c 0.08,0.04 0.15,0.06 0.15,0.15 0,0.06 -0.06,0.12 -0.08,0.15 l -2.88,3.78 2.99,4.28 c 0.02,0.04 0.08,0.1 0.08,0.15 0,0.1 -0.08,0.11 -0.15,0.15 l -0.81,0.33 z" />
	<path
   id="path107"
   d="m 722.24,453.86 c 0,0.15 -0.08,0.23 -0.23,0.23 l -1,0 c -0.15,0 -0.23,-0.08 -0.23,-0.23 l 0,-7.79 -1.5,0 c -0.15,0 -0.23,-0.08 -0.23,-0.23 l 0,-0.73 c 0,-0.15 0.08,-0.23 0.23,-0.23 l 2.71,0 c 0.21,0 0.25,0.12 0.25,0.29 l 0,8.69 z m -0.83,-11.19 c -0.65,0 -1.17,-0.52 -1.17,-1.17 0,-0.65 0.52,-1.17 1.17,-1.17 0.65,0 1.17,0.54 1.17,1.17 0,0.63 -0.51,1.17 -1.17,1.17 z" />
	<path
   id="path109"
   d="m 725.58,447.27 c 0,-0.44 -0.02,-0.9 -0.11,-1.34 -0.1,-0.44 -0.25,-0.56 -0.25,-0.65 0,-0.04 0.02,-0.08 0.1,-0.13 l 0.83,-0.46 c 0.04,-0.02 0.12,-0.08 0.17,-0.08 0.29,0 0.5,1 0.52,1.13 0.5,-0.46 1.69,-1.13 2.5,-1.13 1.25,0 1.79,0.38 2.04,1.15 0.58,-0.42 1.61,-1.15 2.53,-1.15 2.13,0 2.28,1.5 2.28,2.88 l 0,6.37 c 0,0.15 -0.08,0.23 -0.23,0.23 l -1,0 c -0.15,0 -0.23,-0.08 -0.23,-0.23 l 0,-6.41 c 0,-0.83 -0.21,-1.55 -1.23,-1.55 -0.92,0 -1.5,0.52 -1.88,0.79 l 0,7.18 c 0,0.15 -0.08,0.23 -0.23,0.23 l -1,0 c -0.15,0 -0.23,-0.08 -0.23,-0.23 l 0,-6.41 c 0,-0.83 -0.21,-1.55 -1.25,-1.55 -0.86,0 -1.54,0.54 -1.86,0.81 l 0,7.16 c 0,0.15 -0.08,0.23 -0.23,0.23 l -1,0 c -0.15,0 -0.23,-0.08 -0.23,-0.23 l 0,-6.61 z" />
	<path
   id="path111"
   d="m 745.16,451.05 c 0,1.21 0.06,1.38 0.23,1.92 0.08,0.23 0.35,0.59 0.35,0.71 0,0.08 -0.1,0.12 -0.17,0.15 l -0.75,0.46 c -0.08,0.04 -0.12,0.06 -0.15,0.06 -0.29,0 -0.63,-1.02 -0.73,-1.29 -0.23,0.21 -1.17,1.29 -2.76,1.29 -1.52,0 -2.5,-1 -2.5,-2.71 0,-3.24 3.84,-3.3 5.03,-3.34 l 0,-0.69 c 0,-1.11 -0.35,-1.73 -1.71,-1.73 -1.29,0 -2.17,0.61 -2.34,0.61 -0.06,0 -0.12,-0.04 -0.13,-0.1 l -0.25,-0.67 c -0.04,-0.1 -0.06,-0.15 -0.06,-0.25 0,-0.33 1.77,-0.88 2.99,-0.88 2.21,0 2.96,1.08 2.96,2.69 l 0,3.77 z m -1.46,-1.55 c -0.84,0.02 -3.59,0.02 -3.59,2.04 0,0.77 0.42,1.63 1.4,1.63 1,0 1.88,-0.92 2.19,-1.19 l 0,-2.48 z" />
	<path
   id="path113"
   d="m 760,453.2 c 0.02,0.06 0.06,0.1 0.06,0.15 0,0.21 -1.61,1 -3.03,1 -2.28,0 -3.61,-1.79 -3.61,-4.59 0,-3.21 1.54,-5.16 3.9,-5.16 1.29,0 2.76,0.9 2.76,1.19 0,0.06 -0.04,0.1 -0.06,0.15 l -0.44,0.81 c -0.04,0.06 -0.06,0.12 -0.12,0.12 -0.08,0 -0.9,-0.98 -2.04,-0.98 -1.88,0 -2.44,1.4 -2.44,3.59 0,1.75 0.35,3.59 2.21,3.59 1.25,0 2.25,-0.79 2.36,-0.79 0.06,0 0.08,0.06 0.12,0.12 l 0.33,0.8 z" />
	<path
   id="path115"
   d="m 767.91,451.05 c 0,1.21 0.06,1.38 0.23,1.92 0.08,0.23 0.35,0.59 0.35,0.71 0,0.08 -0.1,0.12 -0.17,0.15 l -0.75,0.46 c -0.08,0.04 -0.12,0.06 -0.15,0.06 -0.29,0 -0.63,-1.02 -0.73,-1.29 -0.23,0.21 -1.17,1.29 -2.76,1.29 -1.52,0 -2.5,-1 -2.5,-2.71 0,-3.24 3.84,-3.3 5.03,-3.34 l 0,-0.69 c 0,-1.11 -0.35,-1.73 -1.71,-1.73 -1.29,0 -2.17,0.61 -2.34,0.61 -0.06,0 -0.12,-0.04 -0.13,-0.1 l -0.25,-0.67 c -0.04,-0.1 -0.06,-0.15 -0.06,-0.25 0,-0.33 1.77,-0.88 2.99,-0.88 2.21,0 2.96,1.08 2.96,2.69 l 0,3.77 z m -1.46,-1.55 c -0.84,0.02 -3.59,0.02 -3.59,2.04 0,0.77 0.42,1.63 1.4,1.63 1,0 1.88,-0.92 2.19,-1.19 l 0,-2.48 z" />
	<path
   id="path117"
   d="m 772.52,453.86 c 0,0.15 -0.08,0.23 -0.23,0.23 l -1,0 c -0.15,0 -0.23,-0.08 -0.23,-0.23 l 0,-6.58 c 0,-0.35 -0.06,-0.98 -0.33,-1.46 -0.15,-0.27 -0.21,-0.42 -0.21,-0.48 0.02,-0.12 0.1,-0.17 0.13,-0.19 l 0.71,-0.44 c 0.08,-0.06 0.15,-0.1 0.19,-0.1 0.35,0 0.67,1.19 0.75,1.61 0.5,-0.54 1.19,-1.61 2.3,-1.61 0.44,0 0.94,0.15 0.94,0.33 0,0.04 -0.04,0.1 -0.06,0.15 l -0.42,0.98 c -0.02,0.04 -0.04,0.13 -0.12,0.13 -0.1,0 -0.27,-0.17 -0.63,-0.17 -0.67,0 -1.34,1 -1.8,1.5 l 0,6.33 z" />
	<path
   id="path119"
   d="m 783.41,450.38 c 0,1.08 0.13,3.32 0.13,4.36 0,1.75 -0.79,3.38 -3.38,3.38 -1.44,0 -3.22,-0.65 -3.22,-1.02 0,-0.1 0.02,-0.13 0.08,-0.25 l 0.31,-0.65 c 0.02,-0.06 0.06,-0.12 0.13,-0.12 0.15,0 1.3,0.75 2.63,0.75 1.79,0 2,-1.04 2,-2.07 0,-0.96 -0.06,-1.75 -0.06,-1.98 -0.44,0.37 -1.32,1.06 -2.61,1.06 -1.75,0 -2.96,-1.54 -2.96,-4.24 0,-3.01 1.17,-4.99 3.61,-4.99 1.27,0 2.02,0.63 2.26,0.83 0.17,-0.48 0.38,-0.83 0.56,-0.83 0.08,0 0.13,0.02 0.17,0.04 l 0.86,0.54 c 0.08,0.06 0.08,0.08 0.08,0.12 0,0.15 -0.17,0.25 -0.34,0.71 -0.17,0.48 -0.25,0.73 -0.25,1.42 l 0,2.94 z m -1.46,-3.97 c -0.33,-0.15 -1,-0.52 -1.77,-0.52 -1.46,0 -2.15,1.29 -2.15,3.34 0,2.04 0.37,3.32 1.67,3.32 1,0 1.8,-0.65 2.25,-0.96 l 0,-5.18 z" />
	<path
   id="path121"
   d="m 792.45,451.05 c 0,1.21 0.06,1.38 0.23,1.92 0.08,0.23 0.35,0.59 0.35,0.71 0,0.08 -0.1,0.12 -0.17,0.15 l -0.75,0.46 c -0.08,0.04 -0.12,0.06 -0.15,0.06 -0.29,0 -0.63,-1.02 -0.73,-1.29 -0.23,0.21 -1.17,1.29 -2.76,1.29 -1.52,0 -2.5,-1 -2.5,-2.71 0,-3.24 3.84,-3.3 5.03,-3.34 l 0,-0.69 c 0,-1.11 -0.35,-1.73 -1.71,-1.73 -1.29,0 -2.17,0.61 -2.34,0.61 -0.06,0 -0.12,-0.04 -0.13,-0.1 l -0.25,-0.67 c -0.04,-0.1 -0.06,-0.15 -0.06,-0.25 0,-0.33 1.77,-0.88 2.99,-0.88 2.21,0 2.96,1.08 2.96,2.69 l 0,3.77 z m -1.46,-1.55 c -0.84,0.02 -3.59,0.02 -3.59,2.04 0,0.77 0.42,1.63 1.4,1.63 1,0 1.88,-0.92 2.19,-1.19 l 0,-2.48 z" />
	<path
   id="path123"
   d="m 687.97,472.58 c 0.02,0.08 0.04,0.13 0.04,0.19 0,0.25 -1.44,0.79 -2.48,0.79 -0.83,0 -1.52,-0.31 -1.8,-0.67 -0.56,-0.59 -0.56,-1.46 -0.56,-2.17 l 0,-5.45 -1.44,0 c -0.13,0 -0.13,-0.13 -0.13,-0.23 l 0,-0.73 c 0,-0.13 0,-0.23 0.13,-0.23 l 1.44,0 0,-2.63 c 0,-0.12 0.08,-0.19 0.21,-0.23 l 1.02,-0.29 c 0.06,0 0.1,-0.02 0.13,-0.02 0.1,0 0.1,0.1 0.1,0.21 l 0,2.96 2.84,0 c 0.12,0 0.21,0.02 0.21,0.13 0,0.04 -0.02,0.08 -0.02,0.13 l -0.25,0.75 c -0.04,0.1 -0.13,0.17 -0.25,0.17 l -2.53,0 0,5.45 c 0,0.77 0,1.55 1.15,1.55 0.9,0 1.67,-0.52 1.84,-0.52 0.08,0 0.13,0.06 0.13,0.11 l 0.22,0.73 z" />
	<path
   id="path125"
   d="m 695.86,472.4 c 0.02,0.06 0.06,0.1 0.06,0.15 0,0.21 -1.61,1 -3.03,1 -2.55,-0.02 -4.05,-1.96 -4.05,-4.88 0,-2.82 1.42,-4.88 3.8,-4.88 3.21,0 3.49,3.11 3.49,4.76 0,0.27 0,0.42 -0.21,0.42 l -5.51,0 c 0,1.17 0.46,3.28 2.65,3.28 1.25,0 2.25,-0.79 2.36,-0.79 0.06,0 0.08,0.06 0.12,0.12 l 0.32,0.82 z m -1.31,-4.6 c 0,-1 -0.33,-2.8 -2,-2.8 -1.77,0 -2.15,1.84 -2.15,2.8 l 4.15,0 z" />
	<path
   id="path127"
   d="m 701.6,473.55 c -2.59,0 -3.71,-2.09 -3.71,-4.84 0,-2.65 1.11,-4.91 3.9,-4.91 2.63,0 3.74,2.11 3.74,4.82 0,2.69 -1.13,4.93 -3.93,4.93 z m 2.36,-4.95 c 0,-1.88 -0.52,-3.61 -2.25,-3.61 -1.73,0 -2.25,1.65 -2.25,3.55 0,2.19 0.5,3.82 2.27,3.82 1.71,0 2.23,-1.55 2.23,-3.76 z m -3.59,-5.93 c -0.06,0.04 -0.12,0.06 -0.19,0.06 -0.06,0 -0.12,-0.06 -0.17,-0.15 l -0.17,-0.27 c -0.04,-0.06 -0.1,-0.13 -0.1,-0.19 0,-0.06 0.08,-0.1 0.15,-0.17 l 2.78,-2.15 c 0.04,-0.02 0.12,-0.1 0.19,-0.1 0.08,0 0.13,0.1 0.19,0.15 l 0.56,0.83 c 0.04,0.06 0.08,0.12 0.08,0.19 0,0.08 -0.08,0.13 -0.17,0.17 l -3.15,1.63 z" />
	<path
   id="path129"
   d="m 709.6,473.06 c 0,0.15 -0.08,0.23 -0.23,0.23 l -1,0 c -0.15,0 -0.23,-0.08 -0.23,-0.23 l 0,-6.58 c 0,-0.35 -0.06,-0.98 -0.33,-1.46 -0.15,-0.27 -0.21,-0.42 -0.21,-0.48 0.02,-0.12 0.1,-0.17 0.13,-0.19 l 0.71,-0.44 c 0.08,-0.06 0.15,-0.1 0.19,-0.1 0.35,0 0.67,1.19 0.75,1.61 0.5,-0.54 1.19,-1.61 2.3,-1.61 0.44,0 0.94,0.15 0.94,0.33 0,0.04 -0.04,0.1 -0.06,0.15 l -0.42,0.98 c -0.02,0.04 -0.04,0.13 -0.12,0.13 -0.1,0 -0.27,-0.17 -0.63,-0.17 -0.67,0 -1.34,1 -1.8,1.5 l 0,6.33 z" />
	<path
   id="path131"
   d="m 716.21,473.06 c 0,0.15 -0.08,0.23 -0.23,0.23 l -1,0 c -0.15,0 -0.23,-0.08 -0.23,-0.23 l 0,-7.79 -1.5,0 c -0.15,0 -0.23,-0.08 -0.23,-0.23 l 0,-0.73 c 0,-0.15 0.08,-0.23 0.23,-0.23 l 2.71,0 c 0.21,0 0.25,0.12 0.25,0.29 l 0,8.69 z m -0.83,-11.19 c -0.65,0 -1.17,-0.52 -1.17,-1.17 0,-0.65 0.52,-1.17 1.17,-1.17 0.65,0 1.17,0.54 1.17,1.17 0,0.63 -0.51,1.17 -1.17,1.17 z" />
	<path
   id="path133"
   d="m 725.54,472.4 c 0.02,0.06 0.06,0.1 0.06,0.15 0,0.21 -1.61,1 -3.03,1 -2.28,0 -3.61,-1.79 -3.61,-4.59 0,-3.21 1.54,-5.16 3.9,-5.16 1.29,0 2.76,0.9 2.76,1.19 0,0.06 -0.04,0.1 -0.06,0.15 l -0.44,0.81 c -0.04,0.06 -0.06,0.12 -0.12,0.12 -0.08,0 -0.9,-0.98 -2.04,-0.98 -1.88,0 -2.44,1.4 -2.44,3.59 0,1.75 0.35,3.59 2.21,3.59 1.25,0 2.25,-0.79 2.36,-0.79 0.06,0 0.08,0.06 0.12,0.12 l 0.33,0.8 z" />
	<path
   id="path135"
   d="m 730.76,473.55 c -2.59,0 -3.71,-2.09 -3.71,-4.84 0,-2.65 1.11,-4.91 3.9,-4.91 2.63,0 3.74,2.11 3.74,4.82 0.01,2.69 -1.13,4.93 -3.93,4.93 z m 2.36,-4.95 c 0,-1.88 -0.52,-3.61 -2.25,-3.61 -1.73,0 -2.25,1.65 -2.25,3.55 0,2.19 0.5,3.82 2.27,3.82 1.71,0 2.23,-1.55 2.23,-3.76 z" />
	<path
   id="path137"
   d="m 736.81,477.39 c -0.06,-0.04 -0.13,-0.1 -0.13,-0.17 0,-0.29 0.31,-0.29 1.09,-1.73 1.32,-2.42 1.84,-3.95 1.84,-6.93 0,-5.8 -2.94,-8.1 -2.94,-8.64 0,-0.21 0.67,-0.54 0.83,-0.54 0.4,0 3.69,3.97 3.69,9.18 0,5.36 -3.28,9.19 -3.69,9.19 -0.08,0 -0.13,-0.04 -0.21,-0.08 l -0.48,-0.28 z" />
</g><g
       id="g139">
	<path
   id="path141"
   d="m 574.88,437.28 c 0.08,0.1 0.12,0.17 0.12,0.27 0,0.31 -1.38,1.48 -3.07,1.48 -3.26,0 -4.42,-2.99 -4.42,-6.97 0,-3.65 0.94,-6.72 4.28,-6.72 1.69,0 3.07,1.17 3.07,1.48 0,0.1 -0.04,0.17 -0.11,0.27 l -0.4,0.52 c -0.06,0.08 -0.12,0.15 -0.19,0.15 -0.13,0 -1.21,-1.13 -2.32,-1.13 -2.07,0 -2.59,1.98 -2.59,5.24 0,3.55 0.77,5.87 2.73,5.87 1.11,0 2.19,-1.13 2.32,-1.13 0.06,0 0.13,0.1 0.19,0.15 l 0.39,0.52 z" />
</g><g
       id="g145">
	<g
   id="g147">
		<line
   style="fill:none;stroke:#000000;stroke-miterlimit:10"
   id="line149"
   y2="277.85999"
   x2="376.39001"
   y1="275.35999"
   x1="376.39001"
   stroke-miterlimit="10" />
		
			<line
   style="fill:none;stroke:#000000;stroke-miterlimit:10;stroke-dasharray:5.1941, 5.1941"
   id="line151"
   y2="394.73001"
   x2="376.39001"
   y1="283.04999"
   x1="376.39001"
   stroke-miterlimit="10" />
		<line
   style="fill:none;stroke:#000000;stroke-miterlimit:10"
   id="line153"
   y2="399.82999"
   x2="376.39001"
   y1="397.32999"
   x1="376.39001"
   stroke-miterlimit="10" />
	</g>
</g><g
       id="g155">
	<g
   id="g157">
		<line
   style="fill:none;stroke:#000000;stroke-miterlimit:10"
   id="line159"
   y2="277.85999"
   x2="389.92001"
   y1="275.35999"
   x1="389.92001"
   stroke-miterlimit="10" />
		
			<line
   style="fill:none;stroke:#000000;stroke-miterlimit:10;stroke-dasharray:5.1941, 5.1941"
   id="line161"
   y2="394.73001"
   x2="389.92001"
   y1="283.04999"
   x1="389.92001"
   stroke-miterlimit="10" />
		<line
   style="fill:none;stroke:#000000;stroke-miterlimit:10"
   id="line163"
   y2="399.82999"
   x2="389.92001"
   y1="397.32999"
   x1="389.92001"
   stroke-miterlimit="10" />
	</g>
</g><polygon
       style="fill:none;stroke:#000000;stroke-miterlimit:10"
       id="polygon165"
       points="389.92,339.19 572.87,404.78 572.87,269.4 "
       stroke-miterlimit="10" /><rect
       style="fill:#99b5cd;stroke:#000000;stroke-miterlimit:10"
       id="rect167"
       height="9.9200001"
       width="65.830002"
       stroke-miterlimit="10"
       y="265.44"
       x="351.14001" /><rect
       style="fill:#99b5cd;stroke:#000000;stroke-miterlimit:10"
       id="rect169"
       height="9.9200001"
       width="88.660004"
       stroke-miterlimit="10"
       y="260.48001"
       x="533" /><rect
       style="fill:#99b5cd;stroke:#000000;stroke-miterlimit:10"
       id="rect171"
       height="9.9200001"
       width="88.660004"
       stroke-miterlimit="10"
       y="404.78"
       x="533" /><rect
       style="fill:#99b5cd;stroke:#000000;stroke-miterlimit:10"
       id="rect173"
       height="9.9200001"
       width="65.830002"
       stroke-miterlimit="10"
       y="399.82999"
       x="351.14001" /><circle
       style="fill:#99b5cd;stroke:#000000;stroke-miterlimit:10"
       id="circle175"
       r="13.07"
       cy="338.92999"
       cx="483.23999"
       stroke-miterlimit="10" /><circle
       style="fill:#99b5cd;stroke:#000000;stroke-miterlimit:10"
       id="circle177"
       r="13.07"
       cy="338.92999"
       cx="572.87"
       stroke-miterlimit="10" /><g
       id="g179">
	<g
   id="g181">
		<line
   style="fill:none;stroke:#000000;stroke-miterlimit:10"
   id="line183"
   y2="362.48001"
   x2="592.53998"
   y1="360.64999"
   x1="590.84003"
   stroke-miterlimit="10" />
		
			<line
   style="fill:none;stroke:#000000;stroke-miterlimit:10;stroke-dasharray:5.0578, 5.0578"
   id="line185"
   y2="438.39001"
   x2="663.16998"
   y1="366.19"
   x1="595.98999"
   stroke-miterlimit="10" />
		<line
   style="fill:none;stroke:#000000;stroke-miterlimit:10"
   id="line187"
   y2="442.07001"
   x2="666.59998"
   y1="440.23999"
   x1="664.90002"
   stroke-miterlimit="10" />
		<g
   id="g189">
			<polygon
   id="polygon191"
   points="588.18,365.12 585.95,355.4 595.48,358.33 " />
		</g>
	</g>
</g><g
       id="g193">
	<g
   id="g195">
		<line
   style="fill:none;stroke:#000000;stroke-miterlimit:10"
   id="line197"
   y2="322.39001"
   x2="508.29001"
   y1="323.79999"
   x1="506.23001"
   stroke-miterlimit="10" />
		
			<line
   style="fill:none;stroke:#000000;stroke-miterlimit:10;stroke-dasharray:5.0091, 5.0091"
   id="line199"
   y2="236.02"
   x2="634.32001"
   y1="319.54999"
   x1="512.41998"
   stroke-miterlimit="10" />
		<line
   style="fill:none;stroke:#000000;stroke-miterlimit:10"
   id="line201"
   y2="233.2"
   x2="638.44"
   y1="234.61"
   x1="636.38"
   stroke-miterlimit="10" />
		<g
   id="g203">
			<polygon
   id="polygon205"
   points="510.25,327.09 500.31,327.86 504.61,318.86 " />
		</g>
	</g>
</g></g></g>
</svg>