<?xml version="1.0" encoding="UTF-8" standalone="no"?>
<svg
   xmlns:dc="http://purl.org/dc/elements/1.1/"
   xmlns:cc="http://creativecommons.org/ns#"
   xmlns:rdf="http://www.w3.org/1999/02/22-rdf-syntax-ns#"
   xmlns:svg="http://www.w3.org/2000/svg"
   xmlns="http://www.w3.org/2000/svg"
   xml:space="preserve"
   enable-background="new 0 0 966 672"
   viewBox="0 0 863.53003 341.28"
   height="341.28"
   width="863.53003"
   y="0px"
   x="0px"
   id="Capa_1"
   version="1.1"><metadata
   id="metadata732"><rdf:RDF><cc:Work
       rdf:about=""><dc:format>image/svg+xml</dc:format><dc:type
         rdf:resource="http://purl.org/dc/dcmitype/StillImage" /><dc:title></dc:title></cc:Work></rdf:RDF></metadata><defs
   id="defs730" />
<polyline
   transform="translate(-62.049999,-141.93)"
   style="fill:none;stroke:#0092c0;stroke-width:11.31529999;stroke-miterlimit:10"
   id="polyline3"
   points="621.96,278.87 621.96,362.79   869.77,362.79 "
   stroke-miterlimit="10" />
<g
   transform="translate(-62.049999,-141.93)"
   id="g5">
	<path
   id="path7"
   d="m 340.03,409.84 c -0.06,-0.05 -0.1,-0.1 -0.1,-0.14 0,-0.18 1.06,-1.46 2.72,-1.46 1.5,0 2.72,0.98 2.72,2.59 0,1.54 -0.99,2.08 -1.65,2.37 0.61,0.19 2,0.69 2,2.69 0,1.83 -1.31,3.09 -3.43,3.09 -0.88,0 -2.59,-0.35 -2.59,-0.7 0,-0.05 0.02,-0.08 0.03,-0.13 l 0.32,-0.72 c 0.02,-0.05 0.05,-0.1 0.13,-0.1 0.13,0 0.9,0.53 2.13,0.53 1.36,0 2.1,-0.78 2.1,-2.02 0,-1.73 -1.39,-1.97 -2.32,-1.97 l -0.54,0 c -0.19,0 -0.22,-0.03 -0.22,-0.21 l 0,-0.64 c 0,-0.18 0.05,-0.22 0.22,-0.22 l 0.54,0 c 0.88,0 2.06,-0.43 2.06,-1.94 0,-0.93 -0.66,-1.5 -1.57,-1.5 -1.15,0 -1.7,0.98 -1.92,0.98 -0.03,0 -0.08,-0.02 -0.11,-0.05 l -0.52,-0.45 z" />
	<path
   id="path9"
   d="m 350.97,408.24 c 2.42,0 3.18,2.46 3.18,5.25 0,3.07 -0.88,5.49 -3.31,5.49 -2.24,0 -3.25,-2.27 -3.25,-5.3 0.01,-3.1 1.13,-5.44 3.38,-5.44 z m -2.06,5.34 c 0,2.46 0.51,4.27 1.97,4.27 1.57,0 1.97,-1.89 1.97,-4.37 0,-2.05 -0.38,-4.13 -1.9,-4.13 -1.48,0.01 -2.04,1.96 -2.04,4.23 z" />
	<path
   id="path11"
   d="m 358.97,408.24 c 2.42,0 3.18,2.46 3.18,5.25 0,3.07 -0.88,5.49 -3.31,5.49 -2.24,0 -3.25,-2.27 -3.25,-5.3 0.01,-3.1 1.13,-5.44 3.38,-5.44 z m -2.06,5.34 c 0,2.46 0.51,4.27 1.97,4.27 1.57,0 1.97,-1.89 1.97,-4.37 0,-2.05 -0.38,-4.13 -1.9,-4.13 -1.48,0.01 -2.04,1.96 -2.04,4.23 z" />
	<path
   id="path13"
   d="m 368.99,413.07 c 0,-0.37 -0.02,-0.75 -0.1,-1.12 -0.08,-0.37 -0.21,-0.46 -0.21,-0.54 0,-0.03 0.02,-0.06 0.08,-0.11 l 0.69,-0.38 c 0.03,-0.02 0.1,-0.06 0.14,-0.06 0.24,0 0.42,0.83 0.43,0.94 0.42,-0.38 1.41,-0.94 2.08,-0.94 1.04,0 1.49,0.32 1.7,0.96 0.48,-0.35 1.34,-0.96 2.11,-0.96 1.78,0 1.91,1.25 1.91,2.4 l 0,5.31 c 0,0.13 -0.06,0.19 -0.19,0.19 l -0.83,0 c -0.13,0 -0.19,-0.06 -0.19,-0.19 l 0,-5.35 c 0,-0.69 -0.18,-1.3 -1.02,-1.3 -0.77,0 -1.25,0.43 -1.57,0.66 l 0,5.99 c 0,0.13 -0.06,0.19 -0.19,0.19 l -0.83,0 c -0.13,0 -0.19,-0.06 -0.19,-0.19 l 0,-5.35 c 0,-0.69 -0.18,-1.3 -1.04,-1.3 -0.72,0 -1.28,0.45 -1.55,0.67 l 0,5.97 c 0,0.13 -0.06,0.19 -0.19,0.19 l -0.83,0 c -0.13,0 -0.19,-0.06 -0.19,-0.19 l 0,-5.49 z" />
	<path
   id="path15"
   d="m 380.54,413.07 c 0,-0.37 -0.02,-0.75 -0.1,-1.12 -0.08,-0.37 -0.21,-0.46 -0.21,-0.54 0,-0.03 0.02,-0.06 0.08,-0.11 l 0.69,-0.38 c 0.03,-0.02 0.1,-0.06 0.14,-0.06 0.24,0 0.42,0.83 0.43,0.94 0.42,-0.38 1.41,-0.94 2.08,-0.94 1.04,0 1.49,0.32 1.7,0.96 0.48,-0.35 1.35,-0.96 2.11,-0.96 1.78,0 1.9,1.25 1.9,2.4 l 0,5.31 c 0,0.13 -0.06,0.19 -0.19,0.19 l -0.83,0 c -0.13,0 -0.19,-0.06 -0.19,-0.19 l 0,-5.35 c 0,-0.69 -0.18,-1.3 -1.02,-1.3 -0.77,0 -1.25,0.43 -1.57,0.66 l 0,5.99 c 0,0.13 -0.06,0.19 -0.19,0.19 l -0.83,0 c -0.13,0 -0.19,-0.06 -0.19,-0.19 l 0,-5.35 c 0,-0.69 -0.18,-1.3 -1.04,-1.3 -0.72,0 -1.28,0.45 -1.55,0.67 l 0,5.97 c 0,0.13 -0.06,0.19 -0.19,0.19 l -0.83,0 c -0.13,0 -0.19,-0.06 -0.19,-0.19 l 0,-5.49 z" />
</g>
<g
   transform="translate(-62.049999,-141.93)"
   id="g17">
	<path
   id="path19"
   d="m 428.31,428.46 c 0,-0.08 0.06,-0.13 0.16,-0.13 0.14,0 0.45,0.13 1.07,0.13 2.46,0 2.79,-2.58 2.96,-3.55 l -0.03,-0.03 c -0.19,0.34 -0.74,1.23 -2.07,1.23 -1.57,0 -2.69,-1.36 -2.69,-3.55 0,-2.13 1.22,-3.71 3.11,-3.71 2.14,0 2.96,1.75 2.96,4.4 0,2.58 -0.79,6.34 -4.02,6.34 -0.64,0 -1.27,-0.16 -1.42,-0.22 -0.1,-0.03 -0.11,-0.16 -0.1,-0.26 l 0.07,-0.65 z m 0.72,-5.97 c 0,1.41 0.54,2.51 1.68,2.51 1.28,0 1.76,-1.12 1.76,-2.59 0,-1.58 -0.61,-2.45 -1.67,-2.45 -0.97,0 -1.77,0.8 -1.77,2.53 z" />
	<path
   id="path21"
   d="m 438.95,418.84 c 2.42,0 3.19,2.46 3.19,5.25 0,3.07 -0.88,5.49 -3.31,5.49 -2.24,0 -3.25,-2.27 -3.25,-5.3 0,-3.1 1.12,-5.44 3.37,-5.44 z m -2.06,5.35 c 0,2.46 0.51,4.27 1.97,4.27 1.57,0 1.97,-1.89 1.97,-4.37 0,-2.05 -0.38,-4.13 -1.9,-4.13 -1.48,0 -2.04,1.95 -2.04,4.23 z" />
	<path
   id="path23"
   d="m 446.95,418.84 c 2.42,0 3.19,2.46 3.19,5.25 0,3.07 -0.88,5.49 -3.31,5.49 -2.24,0 -3.25,-2.27 -3.25,-5.3 0,-3.1 1.12,-5.44 3.37,-5.44 z m -2.06,5.35 c 0,2.46 0.51,4.27 1.97,4.27 1.57,0 1.97,-1.89 1.97,-4.37 0,-2.05 -0.38,-4.13 -1.9,-4.13 -1.48,0 -2.04,1.95 -2.04,4.23 z" />
	<path
   id="path25"
   d="m 462.28,428.8 c 0.03,0.05 0.11,0.11 0.11,0.19 0,0.06 -0.06,0.08 -0.1,0.11 l -0.56,0.38 c -0.06,0.03 -0.13,0.1 -0.19,0.1 -0.08,0 -0.14,-0.08 -0.18,-0.13 l -3.26,-4.03 -0.03,0 0,3.75 c 0,0.13 -0.06,0.19 -0.19,0.19 l -0.83,0 c -0.13,0 -0.19,-0.06 -0.19,-0.19 l 0,-10.98 c 0,-0.11 0.05,-0.18 0.11,-0.19 l 0.8,-0.19 c 0.13,-0.03 0.08,-0.02 0.19,-0.03 0.11,0 0.11,0.13 0.11,0.21 l 0,7.22 3.19,-3.62 c 0.05,-0.05 0.1,-0.13 0.18,-0.13 0.06,0 0.13,0.06 0.19,0.1 l 0.56,0.38 c 0.03,0.03 0.1,0.05 0.1,0.11 0,0.08 -0.06,0.14 -0.11,0.19 l -2.71,2.99 2.81,3.57 z" />
	<path
   id="path27"
   d="m 469.31,426.27 c 0,0.9 0.11,2.77 0.11,3.63 0,1.46 -0.66,2.82 -2.82,2.82 -1.2,0 -2.69,-0.54 -2.69,-0.85 0,-0.08 0.02,-0.11 0.06,-0.21 l 0.26,-0.54 c 0.02,-0.05 0.05,-0.1 0.11,-0.1 0.13,0 1.09,0.62 2.19,0.62 1.49,0 1.66,-0.86 1.66,-1.73 0,-0.8 -0.05,-1.46 -0.05,-1.65 -0.37,0.3 -1.1,0.88 -2.18,0.88 -1.46,0 -2.46,-1.28 -2.46,-3.54 0,-2.51 0.98,-4.16 3.01,-4.16 1.06,0 1.68,0.53 1.89,0.69 0.14,-0.4 0.32,-0.69 0.46,-0.69 0.06,0 0.11,0.02 0.14,0.03 l 0.72,0.45 c 0.06,0.05 0.06,0.06 0.06,0.1 0,0.13 -0.14,0.21 -0.29,0.59 -0.14,0.4 -0.21,0.61 -0.21,1.19 l 0,2.47 z m -1.22,-3.32 c -0.27,-0.13 -0.83,-0.43 -1.47,-0.43 -1.22,0 -1.79,1.07 -1.79,2.79 0,1.7 0.3,2.77 1.39,2.77 0.83,0 1.5,-0.54 1.87,-0.8 l 0,-4.33 z" />
</g>
<g
   transform="translate(-62.049999,-141.93)"
   id="g29">
	<path
   id="path31"
   d="m 566.16,348.59 c 0.57,0 1.1,0.15 1.22,0.22 0.05,0.03 0.1,0.07 0.1,0.12 0,0.03 -0.01,0.07 -0.03,0.11 l -0.19,0.5 c -0.03,0.05 -0.07,0.11 -0.14,0.11 -0.12,0 -0.38,-0.15 -0.91,-0.15 -2.09,0 -2.36,2.23 -2.51,3.06 l 0.03,0.03 c 0.16,-0.29 0.62,-1.05 1.75,-1.05 1.33,0 2.28,1.15 2.28,3.01 0,1.81 -1.03,3.15 -2.63,3.15 -1.82,0 -2.51,-1.48 -2.51,-3.74 -0.01,-2.18 0.75,-5.37 3.54,-5.37 z m 0.49,6.01 c 0,-1.18 -0.46,-2.12 -1.43,-2.12 -1.09,0 -1.49,0.95 -1.49,2.19 0,1.34 0.52,2.08 1.41,2.08 0.83,0 1.51,-0.68 1.51,-2.15 z" />
	<path
   id="path33"
   d="m 572.04,348.59 c 2.05,0 2.7,2.09 2.7,4.45 0,2.61 -0.75,4.66 -2.81,4.66 -1.9,0 -2.76,-1.93 -2.76,-4.5 0,-2.63 0.95,-4.61 2.87,-4.61 z m -1.75,4.53 c 0,2.09 0.43,3.63 1.67,3.63 1.33,0 1.67,-1.6 1.67,-3.71 0,-1.74 -0.33,-3.5 -1.62,-3.5 -1.25,0 -1.72,1.65 -1.72,3.58 z" />
	<path
   id="path35"
   d="m 578.83,348.59 c 2.05,0 2.7,2.09 2.7,4.45 0,2.61 -0.75,4.66 -2.81,4.66 -1.9,0 -2.76,-1.93 -2.76,-4.5 0,-2.63 0.95,-4.61 2.87,-4.61 z m -1.76,4.53 c 0,2.09 0.43,3.63 1.67,3.63 1.33,0 1.67,-1.6 1.67,-3.71 0,-1.74 -0.33,-3.5 -1.62,-3.5 -1.24,0 -1.72,1.65 -1.72,3.58 z" />
	<path
   id="path37"
   d="m 591.83,357.03 c 0.03,0.04 0.09,0.1 0.09,0.16 0,0.05 -0.05,0.07 -0.08,0.09 l -0.48,0.33 c -0.05,0.03 -0.11,0.08 -0.16,0.08 -0.07,0 -0.12,-0.07 -0.15,-0.11 l -2.77,-3.42 -0.03,0 0,3.18 c 0,0.11 -0.05,0.16 -0.16,0.16 l -0.71,0 c -0.11,0 -0.16,-0.05 -0.16,-0.16 l 0,-9.32 c 0,-0.09 0.04,-0.15 0.09,-0.16 l 0.68,-0.16 c 0.11,-0.03 0.07,-0.01 0.16,-0.03 0.09,0 0.09,0.11 0.09,0.18 l 0,6.12 2.7,-3.07 c 0.04,-0.04 0.08,-0.11 0.15,-0.11 0.05,0 0.11,0.05 0.16,0.08 l 0.47,0.33 c 0.03,0.03 0.08,0.04 0.08,0.1 0,0.07 -0.05,0.12 -0.1,0.16 l -2.29,2.54 2.42,3.03 z" />
	<path
   id="path39"
   d="m 597.79,354.89 c 0,0.76 0.1,2.35 0.1,3.08 0,1.24 -0.56,2.39 -2.39,2.39 -1.02,0 -2.28,-0.46 -2.28,-0.72 0,-0.07 0.01,-0.09 0.05,-0.18 l 0.22,-0.46 c 0.01,-0.04 0.04,-0.08 0.09,-0.08 0.11,0 0.92,0.53 1.86,0.53 1.26,0 1.41,-0.73 1.41,-1.47 0,-0.68 -0.04,-1.24 -0.04,-1.4 -0.31,0.26 -0.94,0.75 -1.85,0.75 -1.24,0 -2.09,-1.09 -2.09,-3 0,-2.13 0.83,-3.53 2.55,-3.53 0.9,0 1.43,0.45 1.6,0.58 0.12,-0.34 0.27,-0.58 0.39,-0.58 0.05,0 0.09,0.01 0.12,0.03 l 0.61,0.38 c 0.05,0.04 0.05,0.05 0.05,0.08 0,0.11 -0.12,0.18 -0.24,0.5 -0.12,0.34 -0.18,0.52 -0.18,1.01 l 0,2.09 z m -1.03,-2.81 c -0.23,-0.11 -0.71,-0.37 -1.25,-0.37 -1.03,0 -1.52,0.91 -1.52,2.36 0,1.44 0.26,2.35 1.18,2.35 0.71,0 1.28,-0.46 1.59,-0.68 l 0,-3.66 z" />
</g>
<g
   transform="translate(-62.049999,-141.93)"
   id="g41">
	<path
   id="path43"
   d="m 695.32,419.05 c -0.05,-0.04 -0.08,-0.08 -0.08,-0.12 0,-0.15 0.9,-1.24 2.31,-1.24 1.28,0 2.31,0.83 2.31,2.2 0,1.3 -0.84,1.77 -1.4,2.01 0.52,0.16 1.7,0.58 1.7,2.28 0,1.55 -1.11,2.62 -2.91,2.62 -0.75,0 -2.2,-0.3 -2.2,-0.6 0,-0.04 0.01,-0.07 0.03,-0.11 l 0.27,-0.61 c 0.01,-0.04 0.04,-0.08 0.11,-0.08 0.11,0 0.76,0.45 1.81,0.45 1.15,0 1.78,-0.67 1.78,-1.71 0,-1.47 -1.18,-1.67 -1.97,-1.67 l -0.46,0 c -0.16,0 -0.19,-0.03 -0.19,-0.18 l 0,-0.54 c 0,-0.15 0.04,-0.19 0.19,-0.19 l 0.46,0 c 0.75,0 1.75,-0.37 1.75,-1.64 0,-0.79 -0.56,-1.28 -1.33,-1.28 -0.98,0 -1.44,0.83 -1.63,0.83 -0.03,0 -0.07,-0.01 -0.1,-0.04 l -0.45,-0.38 z" />
	<path
   id="path45"
   d="m 704.61,417.69 c 2.05,0 2.7,2.09 2.7,4.45 0,2.61 -0.75,4.66 -2.81,4.66 -1.9,0 -2.76,-1.93 -2.76,-4.5 0,-2.62 0.95,-4.61 2.87,-4.61 z m -1.76,4.54 c 0,2.09 0.43,3.63 1.67,3.63 1.33,0 1.67,-1.6 1.67,-3.71 0,-1.74 -0.33,-3.5 -1.62,-3.5 -1.24,-0.01 -1.72,1.65 -1.72,3.58 z" />
	<path
   id="path47"
   d="m 711.4,417.69 c 2.05,0 2.7,2.09 2.7,4.45 0,2.61 -0.75,4.66 -2.81,4.66 -1.9,0 -2.76,-1.93 -2.76,-4.5 0,-2.62 0.95,-4.61 2.87,-4.61 z m -1.76,4.54 c 0,2.09 0.43,3.63 1.67,3.63 1.33,0 1.67,-1.6 1.67,-3.71 0,-1.74 -0.33,-3.5 -1.62,-3.5 -1.24,-0.01 -1.72,1.65 -1.72,3.58 z" />
	<path
   id="path49"
   d="m 724.4,426.14 c 0.03,0.04 0.09,0.1 0.09,0.16 0,0.05 -0.05,0.07 -0.08,0.09 l -0.48,0.33 c -0.05,0.03 -0.11,0.08 -0.16,0.08 -0.07,0 -0.12,-0.07 -0.15,-0.11 l -2.77,-3.42 -0.03,0 0,3.18 c 0,0.11 -0.05,0.16 -0.16,0.16 l -0.71,0 c -0.11,0 -0.16,-0.05 -0.16,-0.16 l 0,-9.32 c 0,-0.09 0.04,-0.15 0.09,-0.16 l 0.68,-0.16 c 0.11,-0.03 0.07,-0.01 0.16,-0.03 0.09,0 0.09,0.11 0.09,0.18 l 0,6.12 2.7,-3.07 c 0.04,-0.04 0.08,-0.11 0.15,-0.11 0.05,0 0.11,0.05 0.16,0.08 l 0.47,0.33 c 0.03,0.03 0.08,0.04 0.08,0.1 0,0.07 -0.05,0.12 -0.1,0.16 l -2.29,2.54 2.42,3.03 z" />
	<path
   id="path51"
   d="m 730.36,424 c 0,0.76 0.1,2.35 0.1,3.08 0,1.24 -0.56,2.39 -2.39,2.39 -1.02,0 -2.28,-0.46 -2.28,-0.72 0,-0.07 0.01,-0.09 0.05,-0.18 l 0.22,-0.46 c 0.01,-0.04 0.04,-0.08 0.09,-0.08 0.11,0 0.92,0.53 1.86,0.53 1.26,0 1.41,-0.73 1.41,-1.47 0,-0.68 -0.04,-1.24 -0.04,-1.4 -0.31,0.26 -0.94,0.75 -1.85,0.75 -1.24,0 -2.09,-1.09 -2.09,-3 0,-2.13 0.83,-3.53 2.55,-3.53 0.9,0 1.43,0.45 1.6,0.58 0.12,-0.34 0.27,-0.58 0.39,-0.58 0.05,0 0.09,0.01 0.12,0.03 l 0.61,0.38 c 0.05,0.04 0.05,0.05 0.05,0.08 0,0.11 -0.12,0.18 -0.24,0.5 -0.12,0.34 -0.18,0.52 -0.18,1.01 l 0,2.09 z m -1.03,-2.82 c -0.23,-0.11 -0.71,-0.37 -1.25,-0.37 -1.03,0 -1.52,0.91 -1.52,2.36 0,1.44 0.26,2.35 1.18,2.35 0.71,0 1.28,-0.46 1.59,-0.68 l 0,-3.66 z" />
</g>
<g
   transform="translate(-62.049999,-141.93)"
   id="g53">
	<path
   id="path55"
   d="m 733.56,384.4 c 0.33,-0.23 0.8,-0.58 1.63,-0.58 1.37,0 2.31,1.07 2.31,2.65 0,1.77 -1.07,3.15 -3.14,3.15 -0.83,0 -1.83,-0.18 -1.83,-0.39 0,-0.04 0,-0.07 0.01,-0.11 l 0.15,-0.61 c 0,-0.04 0.05,-0.09 0.11,-0.09 0.12,0 0.64,0.26 1.47,0.26 1.54,0 2.12,-0.87 2.12,-2.17 0,-1.06 -0.49,-1.72 -1.4,-1.72 -1.14,0 -1.51,0.84 -1.71,0.84 -0.04,0 -0.08,0 -0.11,-0.01 l -0.48,-0.16 c -0.09,-0.03 -0.15,-0.04 -0.15,-0.12 0,-0.04 0.03,-0.16 0.03,-0.22 l 0.41,-4.22 c 0.01,-0.15 0.04,-0.18 0.19,-0.18 l 3.53,0 c 0.16,0 0.19,0.03 0.19,0.19 l 0,0.58 c 0,0.15 -0.04,0.18 -0.19,0.18 l -2.84,0 -0.3,2.73 z" />
	<path
   id="path57"
   d="m 741.83,380.5 c 2.05,0 2.7,2.09 2.7,4.45 0,2.61 -0.75,4.66 -2.81,4.66 -1.9,0 -2.76,-1.93 -2.76,-4.5 0,-2.62 0.96,-4.61 2.87,-4.61 z m -1.75,4.54 c 0,2.09 0.43,3.63 1.67,3.63 1.33,0 1.67,-1.6 1.67,-3.71 0,-1.74 -0.33,-3.5 -1.62,-3.5 -1.25,-0.01 -1.72,1.65 -1.72,3.58 z" />
	<path
   id="path59"
   d="m 748.62,380.5 c 2.05,0 2.7,2.09 2.7,4.45 0,2.61 -0.75,4.66 -2.81,4.66 -1.9,0 -2.76,-1.93 -2.76,-4.5 0,-2.62 0.95,-4.61 2.87,-4.61 z m -1.75,4.54 c 0,2.09 0.43,3.63 1.67,3.63 1.33,0 1.67,-1.6 1.67,-3.71 0,-1.74 -0.33,-3.5 -1.62,-3.5 -1.25,-0.01 -1.72,1.65 -1.72,3.58 z" />
	<path
   id="path61"
   d="m 761.63,388.95 c 0.03,0.04 0.09,0.1 0.09,0.16 0,0.05 -0.05,0.07 -0.08,0.1 l -0.48,0.33 c -0.05,0.03 -0.11,0.08 -0.16,0.08 -0.07,0 -0.12,-0.07 -0.15,-0.11 l -2.77,-3.42 -0.03,0 0,3.18 c 0,0.11 -0.05,0.16 -0.16,0.16 l -0.71,0 c -0.11,0 -0.16,-0.05 -0.16,-0.16 l 0,-9.32 c 0,-0.09 0.04,-0.15 0.09,-0.16 l 0.68,-0.16 c 0.11,-0.03 0.07,-0.01 0.16,-0.03 0.09,0 0.09,0.11 0.09,0.18 l 0,6.12 2.7,-3.07 c 0.04,-0.04 0.08,-0.11 0.15,-0.11 0.05,0 0.11,0.05 0.16,0.08 l 0.47,0.33 c 0.03,0.03 0.08,0.04 0.08,0.09 0,0.07 -0.05,0.12 -0.1,0.16 l -2.29,2.54 2.42,3.03 z" />
	<path
   id="path63"
   d="m 767.59,386.8 c 0,0.76 0.1,2.35 0.1,3.08 0,1.24 -0.56,2.39 -2.39,2.39 -1.02,0 -2.28,-0.46 -2.28,-0.72 0,-0.07 0.01,-0.09 0.05,-0.18 l 0.22,-0.46 c 0.01,-0.04 0.04,-0.08 0.09,-0.08 0.11,0 0.92,0.53 1.86,0.53 1.26,0 1.41,-0.73 1.41,-1.47 0,-0.68 -0.04,-1.24 -0.04,-1.4 -0.31,0.26 -0.94,0.75 -1.85,0.75 -1.24,0 -2.09,-1.09 -2.09,-3 0,-2.13 0.83,-3.53 2.55,-3.53 0.9,0 1.43,0.45 1.6,0.58 0.12,-0.34 0.27,-0.58 0.39,-0.58 0.05,0 0.09,0.01 0.12,0.03 l 0.61,0.38 c 0.05,0.04 0.05,0.05 0.05,0.08 0,0.11 -0.12,0.18 -0.24,0.5 -0.12,0.34 -0.18,0.52 -0.18,1.01 l 0,2.09 z m -1.04,-2.81 c -0.23,-0.11 -0.71,-0.37 -1.25,-0.37 -1.03,0 -1.52,0.91 -1.52,2.36 0,1.44 0.26,2.35 1.18,2.35 0.71,0 1.28,-0.46 1.59,-0.68 l 0,-3.66 z" />
</g>
<g
   transform="translate(-62.049999,-141.93)"
   id="g65">
	<path
   id="path67"
   d="m 810.66,401.31 c 0,-1.2 0.94,-2.19 2.47,-2.19 1.64,0 2.46,1 2.46,2.06 0,1.4 -0.99,1.93 -1.54,2.21 0.69,0.29 1.93,0.92 1.93,2.38 0,1.19 -0.95,2.46 -2.84,2.46 -1.79,0 -2.87,-1 -2.87,-2.44 0,-1.52 1.21,-2.12 1.98,-2.36 -0.59,-0.27 -1.59,-0.79 -1.59,-2.12 z m 2.44,2.63 c -0.39,0.18 -1.71,0.61 -1.71,1.9 0,1 0.86,1.48 1.76,1.48 0.91,0 1.71,-0.54 1.71,-1.48 0.01,-1.22 -1.32,-1.72 -1.76,-1.9 z m 0.07,-0.96 c 0.41,-0.19 1.36,-0.6 1.36,-1.68 0,-0.77 -0.58,-1.26 -1.41,-1.26 -0.76,0 -1.4,0.45 -1.4,1.24 0,1.02 1.07,1.51 1.45,1.7 z" />
	<path
   id="path69"
   d="m 820,399.12 c 2.05,0 2.7,2.09 2.7,4.45 0,2.61 -0.75,4.66 -2.81,4.66 -1.9,0 -2.76,-1.93 -2.76,-4.5 0,-2.63 0.95,-4.61 2.87,-4.61 z m -1.75,4.54 c 0,2.09 0.43,3.63 1.67,3.63 1.33,0 1.67,-1.6 1.67,-3.71 0,-1.74 -0.33,-3.5 -1.62,-3.5 -1.25,-0.01 -1.72,1.65 -1.72,3.58 z" />
	<path
   id="path71"
   d="m 826.79,399.12 c 2.05,0 2.7,2.09 2.7,4.45 0,2.61 -0.75,4.66 -2.81,4.66 -1.9,0 -2.76,-1.93 -2.76,-4.5 0,-2.63 0.95,-4.61 2.87,-4.61 z m -1.75,4.54 c 0,2.09 0.43,3.63 1.67,3.63 1.33,0 1.67,-1.6 1.67,-3.71 0,-1.74 -0.33,-3.5 -1.62,-3.5 -1.25,-0.01 -1.72,1.65 -1.72,3.58 z" />
	<path
   id="path73"
   d="m 839.8,407.57 c 0.03,0.04 0.09,0.1 0.09,0.16 0,0.05 -0.05,0.07 -0.08,0.09 l -0.48,0.33 c -0.05,0.03 -0.11,0.08 -0.16,0.08 -0.07,0 -0.12,-0.07 -0.15,-0.11 l -2.77,-3.42 -0.03,0 0,3.18 c 0,0.11 -0.05,0.16 -0.16,0.16 l -0.71,0 c -0.11,0 -0.16,-0.05 -0.16,-0.16 l 0,-9.32 c 0,-0.09 0.04,-0.15 0.09,-0.16 l 0.68,-0.16 c 0.11,-0.03 0.07,-0.01 0.16,-0.03 0.09,0 0.09,0.11 0.09,0.18 l 0,6.12 2.7,-3.07 c 0.04,-0.04 0.08,-0.11 0.15,-0.11 0.05,0 0.11,0.05 0.16,0.08 l 0.47,0.33 c 0.03,0.03 0.08,0.04 0.08,0.1 0,0.07 -0.05,0.12 -0.1,0.16 l -2.29,2.54 2.42,3.03 z" />
	<path
   id="path75"
   d="m 845.76,405.42 c 0,0.76 0.1,2.35 0.1,3.08 0,1.24 -0.56,2.39 -2.39,2.39 -1.02,0 -2.28,-0.46 -2.28,-0.72 0,-0.07 0.01,-0.09 0.05,-0.18 l 0.22,-0.46 c 0.01,-0.04 0.04,-0.08 0.09,-0.08 0.11,0 0.92,0.53 1.86,0.53 1.26,0 1.41,-0.73 1.41,-1.47 0,-0.68 -0.04,-1.24 -0.04,-1.4 -0.31,0.26 -0.94,0.75 -1.85,0.75 -1.24,0 -2.09,-1.09 -2.09,-3 0,-2.13 0.83,-3.53 2.55,-3.53 0.9,0 1.43,0.45 1.6,0.58 0.12,-0.34 0.27,-0.58 0.39,-0.58 0.05,0 0.09,0.01 0.12,0.03 l 0.61,0.38 c 0.05,0.04 0.05,0.05 0.05,0.08 0,0.11 -0.12,0.18 -0.24,0.5 -0.12,0.34 -0.18,0.52 -0.18,1.01 l 0,2.09 z m -1.04,-2.81 c -0.23,-0.11 -0.71,-0.37 -1.25,-0.37 -1.03,0 -1.52,0.91 -1.52,2.36 0,1.44 0.26,2.35 1.18,2.35 0.71,0 1.28,-0.46 1.59,-0.68 l 0,-3.66 z" />
</g>
<g
   transform="translate(-62.049999,-141.93)"
   id="g77">
	<path
   id="path79"
   d="m 848.62,389.26 c 0,0.11 -0.05,0.16 -0.16,0.16 l -3.64,0 c -0.11,0 -0.16,-0.05 -0.16,-0.16 l 0,-0.56 c 0,-0.11 0.05,-0.16 0.16,-0.16 l 1.39,0 0,-6.64 -1.87,1.09 c -0.05,0.04 -0.1,0.05 -0.14,0.05 -0.04,0 -0.08,-0.03 -0.12,-0.12 l -0.15,-0.29 c -0.03,-0.04 -0.05,-0.09 -0.05,-0.14 0,-0.05 0.04,-0.07 0.11,-0.12 l 2.4,-1.68 0.68,0 c 0.15,0 0.18,0.03 0.18,0.19 l 0,7.66 1.22,0 c 0.11,0 0.16,0.05 0.16,0.16 l 0,0.56 z" />
	<path
   id="path81"
   d="m 853.11,380.5 c 2.05,0 2.7,2.09 2.7,4.45 0,2.61 -0.75,4.66 -2.81,4.66 -1.9,0 -2.76,-1.93 -2.76,-4.5 0.01,-2.62 0.96,-4.61 2.87,-4.61 z m -1.75,4.54 c 0,2.09 0.43,3.63 1.67,3.63 1.33,0 1.67,-1.6 1.67,-3.71 0,-1.74 -0.33,-3.5 -1.62,-3.5 -1.24,-0.01 -1.72,1.65 -1.72,3.58 z" />
	<path
   id="path83"
   d="m 859.9,380.5 c 2.05,0 2.7,2.09 2.7,4.45 0,2.61 -0.75,4.66 -2.81,4.66 -1.9,0 -2.76,-1.93 -2.76,-4.5 0.01,-2.62 0.96,-4.61 2.87,-4.61 z m -1.75,4.54 c 0,2.09 0.43,3.63 1.67,3.63 1.33,0 1.67,-1.6 1.67,-3.71 0,-1.74 -0.33,-3.5 -1.62,-3.5 -1.24,-0.01 -1.72,1.65 -1.72,3.58 z" />
	<path
   id="path85"
   d="m 866.69,380.5 c 2.05,0 2.7,2.09 2.7,4.45 0,2.61 -0.75,4.66 -2.81,4.66 -1.9,0 -2.76,-1.93 -2.76,-4.5 0.01,-2.62 0.96,-4.61 2.87,-4.61 z m -1.75,4.54 c 0,2.09 0.43,3.63 1.67,3.63 1.33,0 1.67,-1.6 1.67,-3.71 0,-1.74 -0.33,-3.5 -1.62,-3.5 -1.24,-0.01 -1.72,1.65 -1.72,3.58 z" />
	<path
   id="path87"
   d="m 879.7,388.95 c 0.03,0.04 0.09,0.1 0.09,0.16 0,0.05 -0.05,0.07 -0.08,0.1 l -0.48,0.33 c -0.05,0.03 -0.11,0.08 -0.16,0.08 -0.07,0 -0.12,-0.07 -0.15,-0.11 l -2.77,-3.42 -0.03,0 0,3.18 c 0,0.11 -0.05,0.16 -0.16,0.16 l -0.71,0 c -0.11,0 -0.16,-0.05 -0.16,-0.16 l 0,-9.32 c 0,-0.09 0.04,-0.15 0.09,-0.16 l 0.68,-0.16 c 0.11,-0.03 0.07,-0.01 0.16,-0.03 0.09,0 0.09,0.11 0.09,0.18 l 0,6.12 2.7,-3.07 c 0.04,-0.04 0.08,-0.11 0.15,-0.11 0.05,0 0.11,0.05 0.16,0.08 l 0.47,0.33 c 0.03,0.03 0.08,0.04 0.08,0.09 0,0.07 -0.05,0.12 -0.1,0.16 l -2.29,2.54 2.42,3.03 z" />
	<path
   id="path89"
   d="m 885.66,386.8 c 0,0.76 0.1,2.35 0.1,3.08 0,1.24 -0.56,2.39 -2.39,2.39 -1.02,0 -2.28,-0.46 -2.28,-0.72 0,-0.07 0.01,-0.09 0.05,-0.18 l 0.22,-0.46 c 0.01,-0.04 0.04,-0.08 0.09,-0.08 0.11,0 0.92,0.53 1.86,0.53 1.26,0 1.41,-0.73 1.41,-1.47 0,-0.68 -0.04,-1.24 -0.04,-1.4 -0.31,0.26 -0.94,0.75 -1.85,0.75 -1.24,0 -2.09,-1.09 -2.09,-3 0,-2.13 0.83,-3.53 2.55,-3.53 0.9,0 1.43,0.45 1.6,0.58 0.12,-0.34 0.27,-0.58 0.39,-0.58 0.05,0 0.09,0.01 0.12,0.03 l 0.61,0.38 c 0.05,0.04 0.05,0.05 0.05,0.08 0,0.11 -0.12,0.18 -0.24,0.5 -0.12,0.34 -0.18,0.52 -0.18,1.01 l 0,2.09 z m -1.03,-2.81 c -0.23,-0.11 -0.71,-0.37 -1.25,-0.37 -1.03,0 -1.52,0.91 -1.52,2.36 0,1.44 0.26,2.35 1.18,2.35 0.71,0 1.28,-0.46 1.59,-0.68 l 0,-3.66 z" />
</g>
<g
   transform="translate(-62.049999,-141.93)"
   id="g91">
	<path
   id="path93"
   d="m 888.14,407.88 c 0,0.11 -0.05,0.16 -0.16,0.16 l -3.64,0 c -0.11,0 -0.16,-0.05 -0.16,-0.16 l 0,-0.56 c 0,-0.11 0.05,-0.16 0.16,-0.16 l 1.39,0 0,-6.64 -1.87,1.09 c -0.05,0.04 -0.1,0.05 -0.14,0.05 -0.04,0 -0.08,-0.03 -0.12,-0.12 l -0.15,-0.29 c -0.03,-0.04 -0.05,-0.09 -0.05,-0.14 0,-0.05 0.04,-0.07 0.11,-0.12 l 2.4,-1.68 0.68,0 c 0.15,0 0.18,0.03 0.18,0.19 l 0,7.66 1.22,0 c 0.11,0 0.16,0.05 0.16,0.16 l 0,0.56 z" />
	<path
   id="path95"
   d="m 895,407.85 c 0,0.16 -0.03,0.19 -0.18,0.19 l -4.55,0 c -0.15,0 -0.18,-0.04 -0.18,-0.18 0,-2.28 0.99,-3.31 1.91,-4.03 0.95,-0.75 1.89,-1 1.89,-2.31 0,-0.79 -0.42,-1.45 -1.32,-1.45 -1.37,0 -1.4,1.48 -1.66,1.48 -0.03,0 -0.07,-0.01 -0.1,-0.03 l -0.6,-0.18 c -0.05,-0.01 -0.11,-0.05 -0.11,-0.12 0,-0.41 0.67,-2.1 2.53,-2.1 1.47,0 2.36,0.98 2.36,2.46 0,1.79 -1.33,2.19 -2.42,3.12 -1.04,0.91 -1.19,1.68 -1.3,2.39 l 3.53,0 c 0.15,0 0.18,0.04 0.18,0.19 l 0,0.57 z" />
	<path
   id="path97"
   d="m 899.42,399.12 c 2.05,0 2.7,2.09 2.7,4.45 0,2.61 -0.75,4.66 -2.81,4.66 -1.9,0 -2.76,-1.93 -2.76,-4.5 0.01,-2.63 0.96,-4.61 2.87,-4.61 z m -1.75,4.54 c 0,2.09 0.43,3.63 1.67,3.63 1.33,0 1.67,-1.6 1.67,-3.71 0,-1.74 -0.33,-3.5 -1.62,-3.5 -1.24,-0.01 -1.72,1.65 -1.72,3.58 z" />
	<path
   id="path99"
   d="m 906.21,399.12 c 2.05,0 2.7,2.09 2.7,4.45 0,2.61 -0.75,4.66 -2.81,4.66 -1.9,0 -2.76,-1.93 -2.76,-4.5 0.01,-2.63 0.96,-4.61 2.87,-4.61 z m -1.75,4.54 c 0,2.09 0.43,3.63 1.67,3.63 1.33,0 1.67,-1.6 1.67,-3.71 0,-1.74 -0.33,-3.5 -1.62,-3.5 -1.24,-0.01 -1.72,1.65 -1.72,3.58 z" />
	<path
   id="path101"
   d="m 919.22,407.57 c 0.03,0.04 0.09,0.1 0.09,0.16 0,0.05 -0.05,0.07 -0.08,0.09 l -0.48,0.33 c -0.05,0.03 -0.11,0.08 -0.16,0.08 -0.07,0 -0.12,-0.07 -0.15,-0.11 l -2.77,-3.42 -0.03,0 0,3.18 c 0,0.11 -0.05,0.16 -0.16,0.16 l -0.71,0 c -0.11,0 -0.16,-0.05 -0.16,-0.16 l 0,-9.32 c 0,-0.09 0.04,-0.15 0.09,-0.16 l 0.68,-0.16 c 0.11,-0.03 0.07,-0.01 0.16,-0.03 0.09,0 0.09,0.11 0.09,0.18 l 0,6.12 2.7,-3.07 c 0.04,-0.04 0.08,-0.11 0.15,-0.11 0.05,0 0.11,0.05 0.16,0.08 l 0.47,0.33 c 0.03,0.03 0.08,0.04 0.08,0.1 0,0.07 -0.05,0.12 -0.1,0.16 l -2.29,2.54 2.42,3.03 z" />
	<path
   id="path103"
   d="m 925.18,405.42 c 0,0.76 0.1,2.35 0.1,3.08 0,1.24 -0.56,2.39 -2.39,2.39 -1.02,0 -2.28,-0.46 -2.28,-0.72 0,-0.07 0.01,-0.09 0.05,-0.18 l 0.22,-0.46 c 0.01,-0.04 0.04,-0.08 0.09,-0.08 0.11,0 0.92,0.53 1.86,0.53 1.26,0 1.41,-0.73 1.41,-1.47 0,-0.68 -0.04,-1.24 -0.04,-1.4 -0.31,0.26 -0.94,0.75 -1.85,0.75 -1.24,0 -2.09,-1.09 -2.09,-3 0,-2.13 0.83,-3.53 2.55,-3.53 0.9,0 1.43,0.45 1.6,0.58 0.12,-0.34 0.27,-0.58 0.39,-0.58 0.05,0 0.09,0.01 0.12,0.03 l 0.61,0.38 c 0.05,0.04 0.05,0.05 0.05,0.08 0,0.11 -0.12,0.18 -0.24,0.5 -0.12,0.34 -0.18,0.52 -0.18,1.01 l 0,2.09 z m -1.03,-2.81 c -0.23,-0.11 -0.71,-0.37 -1.25,-0.37 -1.03,0 -1.52,0.91 -1.52,2.36 0,1.44 0.26,2.35 1.18,2.35 0.71,0 1.28,-0.46 1.59,-0.68 l 0,-3.66 z" />
</g>
<g
   transform="translate(-62.049999,-141.93)"
   id="g105">
	<path
   id="path107"
   d="m 562.7,281.97 c 0,-1.2 0.94,-2.19 2.47,-2.19 1.64,0 2.46,1 2.46,2.06 0,1.4 -0.99,1.93 -1.54,2.21 0.69,0.29 1.93,0.92 1.93,2.38 0,1.19 -0.95,2.46 -2.84,2.46 -1.79,0 -2.87,-1 -2.87,-2.44 0,-1.52 1.21,-2.12 1.98,-2.36 -0.59,-0.27 -1.59,-0.79 -1.59,-2.12 z m 2.44,2.63 c -0.39,0.18 -1.71,0.61 -1.71,1.9 0,1 0.86,1.48 1.76,1.48 0.91,0 1.71,-0.54 1.71,-1.48 0.01,-1.22 -1.33,-1.72 -1.76,-1.9 z m 0.07,-0.96 c 0.41,-0.19 1.36,-0.6 1.36,-1.68 0,-0.77 -0.58,-1.26 -1.41,-1.26 -0.76,0 -1.4,0.45 -1.4,1.24 -0.01,1.02 1.07,1.51 1.45,1.7 z" />
	<path
   id="path109"
   d="m 572.04,279.78 c 2.05,0 2.7,2.09 2.7,4.45 0,2.61 -0.75,4.66 -2.81,4.66 -1.9,0 -2.76,-1.93 -2.76,-4.5 0,-2.63 0.95,-4.61 2.87,-4.61 z m -1.75,4.54 c 0,2.09 0.43,3.63 1.67,3.63 1.33,0 1.67,-1.6 1.67,-3.71 0,-1.74 -0.33,-3.5 -1.62,-3.5 -1.25,-0.01 -1.72,1.65 -1.72,3.58 z" />
	<path
   id="path111"
   d="m 578.83,279.78 c 2.05,0 2.7,2.09 2.7,4.45 0,2.61 -0.75,4.66 -2.81,4.66 -1.9,0 -2.76,-1.93 -2.76,-4.5 0,-2.63 0.95,-4.61 2.87,-4.61 z m -1.76,4.54 c 0,2.09 0.43,3.63 1.67,3.63 1.33,0 1.67,-1.6 1.67,-3.71 0,-1.74 -0.33,-3.5 -1.62,-3.5 -1.24,-0.01 -1.72,1.65 -1.72,3.58 z" />
	<path
   id="path113"
   d="m 591.83,288.23 c 0.03,0.04 0.09,0.1 0.09,0.16 0,0.05 -0.05,0.07 -0.08,0.09 l -0.48,0.33 c -0.05,0.03 -0.11,0.08 -0.16,0.08 -0.07,0 -0.12,-0.07 -0.15,-0.11 l -2.77,-3.42 -0.03,0 0,3.18 c 0,0.11 -0.05,0.16 -0.16,0.16 l -0.71,0 c -0.11,0 -0.16,-0.05 -0.16,-0.16 l 0,-9.32 c 0,-0.09 0.04,-0.15 0.09,-0.16 l 0.68,-0.16 c 0.11,-0.03 0.07,-0.01 0.16,-0.03 0.09,0 0.09,0.11 0.09,0.18 l 0,6.12 2.7,-3.07 c 0.04,-0.04 0.08,-0.11 0.15,-0.11 0.05,0 0.11,0.05 0.16,0.08 l 0.47,0.33 c 0.03,0.03 0.08,0.04 0.08,0.1 0,0.07 -0.05,0.12 -0.1,0.16 l -2.29,2.54 2.42,3.03 z" />
	<path
   id="path115"
   d="m 597.79,286.08 c 0,0.76 0.1,2.35 0.1,3.08 0,1.24 -0.56,2.39 -2.39,2.39 -1.02,0 -2.28,-0.46 -2.28,-0.72 0,-0.07 0.01,-0.09 0.05,-0.18 l 0.22,-0.46 c 0.01,-0.04 0.04,-0.08 0.09,-0.08 0.11,0 0.92,0.53 1.86,0.53 1.26,0 1.41,-0.73 1.41,-1.47 0,-0.68 -0.04,-1.24 -0.04,-1.4 -0.31,0.26 -0.94,0.75 -1.85,0.75 -1.24,0 -2.09,-1.09 -2.09,-3 0,-2.13 0.83,-3.53 2.55,-3.53 0.9,0 1.43,0.45 1.6,0.58 0.12,-0.34 0.27,-0.58 0.39,-0.58 0.05,0 0.09,0.01 0.12,0.03 l 0.61,0.38 c 0.05,0.04 0.05,0.05 0.05,0.08 0,0.11 -0.12,0.18 -0.24,0.5 -0.12,0.34 -0.18,0.52 -0.18,1.01 l 0,2.09 z m -1.03,-2.81 c -0.23,-0.11 -0.71,-0.37 -1.25,-0.37 -1.03,0 -1.52,0.91 -1.52,2.36 0,1.44 0.26,2.35 1.18,2.35 0.71,0 1.28,-0.46 1.59,-0.68 l 0,-3.66 z" />
</g>
<g
   transform="translate(-62.049999,-141.93)"
   id="g117">
	<path
   id="path119"
   d="m 563.01,264.09 c 0,-0.07 0.05,-0.11 0.14,-0.11 0.12,0 0.38,0.11 0.91,0.11 2.09,0 2.36,-2.19 2.51,-3.01 l -0.03,-0.03 c -0.16,0.29 -0.62,1.05 -1.75,1.05 -1.33,0 -2.28,-1.15 -2.28,-3.01 0,-1.81 1.03,-3.15 2.63,-3.15 1.82,0 2.51,1.48 2.51,3.73 0,2.19 -0.67,5.38 -3.41,5.38 -0.54,0 -1.07,-0.14 -1.21,-0.19 -0.08,-0.03 -0.09,-0.14 -0.08,-0.22 l 0.06,-0.55 z m 0.61,-5.06 c 0,1.2 0.46,2.13 1.43,2.13 1.09,0 1.49,-0.95 1.49,-2.2 0,-1.34 -0.52,-2.08 -1.41,-2.08 -0.83,0 -1.51,0.68 -1.51,2.15 z" />
	<path
   id="path121"
   d="m 572.04,255.93 c 2.05,0 2.7,2.09 2.7,4.45 0,2.61 -0.75,4.66 -2.81,4.66 -1.9,0 -2.76,-1.93 -2.76,-4.5 0,-2.62 0.95,-4.61 2.87,-4.61 z m -1.75,4.54 c 0,2.09 0.43,3.63 1.67,3.63 1.33,0 1.67,-1.6 1.67,-3.71 0,-1.74 -0.33,-3.5 -1.62,-3.5 -1.25,-0.01 -1.72,1.65 -1.72,3.58 z" />
	<path
   id="path123"
   d="m 578.83,255.93 c 2.05,0 2.7,2.09 2.7,4.45 0,2.61 -0.75,4.66 -2.81,4.66 -1.9,0 -2.76,-1.93 -2.76,-4.5 0,-2.62 0.95,-4.61 2.87,-4.61 z m -1.76,4.54 c 0,2.09 0.43,3.63 1.67,3.63 1.33,0 1.67,-1.6 1.67,-3.71 0,-1.74 -0.33,-3.5 -1.62,-3.5 -1.24,-0.01 -1.72,1.65 -1.72,3.58 z" />
	<path
   id="path125"
   d="m 591.83,264.38 c 0.03,0.04 0.09,0.1 0.09,0.16 0,0.05 -0.05,0.07 -0.08,0.1 l -0.48,0.33 c -0.05,0.03 -0.11,0.08 -0.16,0.08 -0.07,0 -0.12,-0.07 -0.15,-0.11 l -2.77,-3.42 -0.03,0 0,3.18 c 0,0.11 -0.05,0.16 -0.16,0.16 l -0.71,0 c -0.11,0 -0.16,-0.05 -0.16,-0.16 l 0,-9.32 c 0,-0.09 0.04,-0.15 0.09,-0.16 l 0.68,-0.16 c 0.11,-0.03 0.07,-0.01 0.16,-0.03 0.09,0 0.09,0.11 0.09,0.18 l 0,6.12 2.7,-3.07 c 0.04,-0.04 0.08,-0.11 0.15,-0.11 0.05,0 0.11,0.05 0.16,0.08 l 0.47,0.33 c 0.03,0.03 0.08,0.04 0.08,0.09 0,0.07 -0.05,0.12 -0.1,0.16 l -2.29,2.54 2.42,3.03 z" />
	<path
   id="path127"
   d="m 597.79,262.23 c 0,0.76 0.1,2.35 0.1,3.08 0,1.24 -0.56,2.39 -2.39,2.39 -1.02,0 -2.28,-0.46 -2.28,-0.72 0,-0.07 0.01,-0.09 0.05,-0.18 l 0.22,-0.46 c 0.01,-0.04 0.04,-0.08 0.09,-0.08 0.11,0 0.92,0.53 1.86,0.53 1.26,0 1.41,-0.73 1.41,-1.47 0,-0.68 -0.04,-1.24 -0.04,-1.4 -0.31,0.26 -0.94,0.75 -1.85,0.75 -1.24,0 -2.09,-1.09 -2.09,-3 0,-2.13 0.83,-3.53 2.55,-3.53 0.9,0 1.43,0.45 1.6,0.58 0.12,-0.34 0.27,-0.58 0.39,-0.58 0.05,0 0.09,0.01 0.12,0.03 l 0.61,0.38 c 0.05,0.04 0.05,0.05 0.05,0.08 0,0.11 -0.12,0.18 -0.24,0.5 -0.12,0.34 -0.18,0.52 -0.18,1.01 l 0,2.09 z m -1.03,-2.81 c -0.23,-0.11 -0.71,-0.37 -1.25,-0.37 -1.03,0 -1.52,0.91 -1.52,2.36 0,1.44 0.26,2.35 1.18,2.35 0.71,0 1.28,-0.46 1.59,-0.68 l 0,-3.66 z" />
</g>
<g
   transform="translate(-62.049999,-141.93)"
   id="g129">
	<path
   id="path131"
   d="m 560.75,238.5 c 0,0.11 -0.05,0.16 -0.16,0.16 l -3.64,0 c -0.11,0 -0.16,-0.05 -0.16,-0.16 l 0,-0.56 c 0,-0.11 0.05,-0.16 0.16,-0.16 l 1.39,0 0,-6.64 -1.87,1.09 c -0.05,0.04 -0.1,0.05 -0.14,0.05 -0.04,0 -0.08,-0.03 -0.12,-0.12 l -0.15,-0.29 c -0.03,-0.04 -0.05,-0.09 -0.05,-0.14 0,-0.05 0.04,-0.07 0.11,-0.12 l 2.4,-1.68 0.68,0 c 0.15,0 0.18,0.03 0.18,0.19 l 0,7.66 1.22,0 c 0.11,0 0.16,0.05 0.16,0.16 l 0,0.56 z" />
	<path
   id="path133"
   d="m 565.25,229.74 c 2.05,0 2.7,2.09 2.7,4.45 0,2.61 -0.75,4.66 -2.81,4.66 -1.9,0 -2.76,-1.93 -2.76,-4.5 0,-2.62 0.95,-4.61 2.87,-4.61 z m -1.75,4.54 c 0,2.09 0.43,3.63 1.67,3.63 1.33,0 1.67,-1.6 1.67,-3.71 0,-1.74 -0.33,-3.5 -1.62,-3.5 -1.25,-0.01 -1.72,1.65 -1.72,3.58 z" />
	<path
   id="path135"
   d="m 572.04,229.74 c 2.05,0 2.7,2.09 2.7,4.45 0,2.61 -0.75,4.66 -2.81,4.66 -1.9,0 -2.76,-1.93 -2.76,-4.5 0,-2.62 0.95,-4.61 2.87,-4.61 z m -1.75,4.54 c 0,2.09 0.43,3.63 1.67,3.63 1.33,0 1.67,-1.6 1.67,-3.71 0,-1.74 -0.33,-3.5 -1.62,-3.5 -1.25,-0.01 -1.72,1.65 -1.72,3.58 z" />
	<path
   id="path137"
   d="m 578.83,229.74 c 2.05,0 2.7,2.09 2.7,4.45 0,2.61 -0.75,4.66 -2.81,4.66 -1.9,0 -2.76,-1.93 -2.76,-4.5 0,-2.62 0.95,-4.61 2.87,-4.61 z m -1.76,4.54 c 0,2.09 0.43,3.63 1.67,3.63 1.33,0 1.67,-1.6 1.67,-3.71 0,-1.74 -0.33,-3.5 -1.62,-3.5 -1.24,-0.01 -1.72,1.65 -1.72,3.58 z" />
	<path
   id="path139"
   d="m 591.83,238.19 c 0.03,0.04 0.09,0.1 0.09,0.16 0,0.05 -0.05,0.07 -0.08,0.1 l -0.48,0.33 c -0.05,0.03 -0.11,0.08 -0.16,0.08 -0.07,0 -0.12,-0.07 -0.15,-0.11 l -2.77,-3.42 -0.03,0 0,3.18 c 0,0.11 -0.05,0.16 -0.16,0.16 l -0.71,0 c -0.11,0 -0.16,-0.05 -0.16,-0.16 l 0,-9.32 c 0,-0.09 0.04,-0.15 0.09,-0.16 l 0.68,-0.16 c 0.11,-0.03 0.07,-0.01 0.16,-0.03 0.09,0 0.09,0.11 0.09,0.18 l 0,6.12 2.7,-3.07 c 0.04,-0.04 0.08,-0.11 0.15,-0.11 0.05,0 0.11,0.05 0.16,0.08 l 0.47,0.33 c 0.03,0.03 0.08,0.04 0.08,0.09 0,0.07 -0.05,0.12 -0.1,0.16 l -2.29,2.54 2.42,3.03 z" />
	<path
   id="path141"
   d="m 597.79,236.04 c 0,0.76 0.1,2.35 0.1,3.08 0,1.24 -0.56,2.39 -2.39,2.39 -1.02,0 -2.28,-0.46 -2.28,-0.72 0,-0.07 0.01,-0.09 0.05,-0.18 l 0.22,-0.46 c 0.01,-0.04 0.04,-0.08 0.09,-0.08 0.11,0 0.92,0.53 1.86,0.53 1.26,0 1.41,-0.73 1.41,-1.47 0,-0.68 -0.04,-1.24 -0.04,-1.4 -0.31,0.26 -0.94,0.75 -1.85,0.75 -1.24,0 -2.09,-1.09 -2.09,-3 0,-2.13 0.83,-3.53 2.55,-3.53 0.9,0 1.43,0.45 1.6,0.58 0.12,-0.34 0.27,-0.58 0.39,-0.58 0.05,0 0.09,0.01 0.12,0.03 l 0.61,0.38 c 0.05,0.04 0.05,0.05 0.05,0.08 0,0.11 -0.12,0.18 -0.24,0.5 -0.12,0.34 -0.18,0.52 -0.18,1.01 l 0,2.09 z m -1.03,-2.81 c -0.23,-0.11 -0.71,-0.37 -1.25,-0.37 -1.03,0 -1.52,0.91 -1.52,2.36 0,1.44 0.26,2.35 1.18,2.35 0.71,0 1.28,-0.46 1.59,-0.68 l 0,-3.66 z" />
</g>
<g
   transform="translate(-62.049999,-141.93)"
   id="g143">
	<path
   id="path145"
   d="m 318.33,478.82 c 0.05,0.1 0.08,0.16 0.08,0.24 0,0.27 -1.09,1.02 -2.66,1.02 -2.8,0 -4.15,-1.82 -4.15,-5.67 0,-3.68 1.38,-5.84 4.15,-5.84 1.2,0 2.62,0.88 2.62,1.18 0,0.06 0,0.13 -0.08,0.24 l -0.59,0.9 c -0.06,0.1 -0.13,0.16 -0.19,0.16 -0.27,0 -0.8,-0.75 -1.65,-0.75 -1.38,0 -1.99,0.94 -1.99,3.7 0,2.72 0.34,4.35 1.99,4.35 0.9,0 1.47,-0.59 1.79,-0.59 0.06,0 0.11,0.05 0.18,0.16 l 0.5,0.9 z" />
	<path
   id="path147"
   d="m 325.88,478.96 c 0.03,0.05 0.05,0.11 0.05,0.18 0,0.42 -1.6,0.94 -2.87,0.94 -2.11,0 -3.59,-1.2 -3.59,-4.14 0,-2.54 1.36,-4.31 3.51,-4.31 2.72,0 3.2,2.43 3.2,4.37 0,0.3 -0.06,0.4 -0.37,0.4 l -4.3,0 c 0,0.9 0.26,2 1.76,2 1.15,0 1.81,-0.53 2.03,-0.53 0.08,0 0.14,0.06 0.18,0.13 l 0.4,0.96 z m -1.85,-4.05 c 0,-0.66 -0.05,-1.79 -1.15,-1.79 -1.25,0 -1.31,1.35 -1.36,1.79 l 2.51,0 z" />
	<path
   id="path149"
   d="m 334.3,479.59 c 0,0.18 -0.03,0.22 -0.22,0.22 l -1.58,0 c -0.19,0 -0.22,-0.05 -0.22,-0.22 l 0,-4.93 c 0,-0.61 -0.08,-1.34 -0.9,-1.34 -0.67,0 -1.2,0.46 -1.41,0.66 l 0,5.62 c 0,0.18 -0.03,0.22 -0.22,0.22 l -1.58,0 c -0.19,0 -0.22,-0.05 -0.22,-0.22 l 0,-4.83 c 0,-2.26 -0.3,-2.13 -0.3,-2.5 0,-0.08 0.06,-0.14 0.18,-0.18 l 1.22,-0.4 c 0.1,-0.03 0.18,-0.05 0.24,-0.05 0.21,0 0.34,0.35 0.51,1.11 0.46,-0.42 1.18,-1.11 2.45,-1.11 0.88,0 2.08,0.4 2.08,2.34 l 0,5.61 z" />
	<path
   id="path151"
   d="m 341.28,479.35 c 0.02,0.08 0.03,0.08 0.03,0.13 0,0.3 -1.17,0.61 -2.26,0.61 -2.06,0 -2.06,-1.62 -2.06,-3.09 l 0,-3.6 -1.14,0 c -0.19,0 -0.22,-0.05 -0.22,-0.22 l 0,-1.04 c 0,-0.18 0.03,-0.22 0.22,-0.22 l 1.14,0 0,-2.02 c 0,-0.21 0.03,-0.26 0.26,-0.29 l 1.41,-0.19 c 0.05,0 0.11,-0.02 0.21,-0.02 0.14,0 0.16,0.08 0.16,0.27 l 0,2.24 1.82,0 c 0.14,0 0.27,0 0.27,0.18 0,0.03 0,0.06 -0.02,0.13 l -0.21,0.95 c -0.05,0.22 -0.1,0.24 -0.29,0.24 l -1.58,0 0,3.87 c 0,0.51 0,0.98 0.54,0.98 0.64,0 1.04,-0.3 1.26,-0.3 0.06,0 0.11,0.03 0.13,0.1 l 0.33,1.29 z" />
	<path
   id="path153"
   d="m 344.49,479.59 c 0,0.18 -0.03,0.22 -0.22,0.22 l -1.58,0 c -0.19,0 -0.22,-0.05 -0.22,-0.22 l 0,-4.83 c 0,-1.76 -0.42,-2.05 -0.42,-2.42 0,-0.06 0.06,-0.11 0.14,-0.14 l 1.22,-0.5 c 0.06,-0.02 0.14,-0.06 0.21,-0.06 0.19,0 0.51,0.72 0.59,1.27 0.3,-0.37 0.9,-1.27 1.98,-1.27 0.46,0 0.93,0.16 0.93,0.37 0,0.06 -0.02,0.13 -0.03,0.16 l -0.5,1.34 c -0.02,0.05 -0.06,0.14 -0.13,0.14 -0.1,0 -0.38,-0.18 -0.75,-0.18 -0.5,0 -1.01,0.54 -1.22,0.77 l 0,5.35 z" />
	<path
   id="path155"
   d="m 351.11,480.08 c -2.16,0 -3.47,-1.65 -3.47,-4.22 0,-2.58 1.31,-4.23 3.47,-4.23 2.14,0 3.47,1.65 3.47,4.23 0.01,2.57 -1.3,4.22 -3.47,4.22 z m 1.32,-4.22 c 0,-1.49 -0.21,-2.62 -1.31,-2.62 -1.1,0 -1.31,1.14 -1.31,2.62 0,1.49 0.19,2.62 1.31,2.62 1.12,0 1.31,-1.12 1.31,-2.62 z" />
	<path
   id="path157"
   d="m 366.2,480.02 c -0.06,0.02 -0.14,0.06 -0.21,0.06 -0.14,0 -0.38,-0.56 -0.46,-0.96 -0.26,0.24 -0.96,0.96 -2.11,0.96 -1.82,0 -2.74,-1.47 -2.74,-3.9 0,-3.03 1.09,-4.55 3.07,-4.55 0.86,0 1.23,0.3 1.49,0.48 l 0,-3.28 c 0,-0.24 0.11,-0.24 0.3,-0.29 l 1.35,-0.27 c 0.05,0 0.19,-0.05 0.22,-0.05 0.13,0 0.16,0.06 0.16,0.34 l 0,8.74 c 0,1.55 0.29,1.76 0.29,2.08 0,0.06 -0.06,0.11 -0.14,0.14 l -1.22,0.5 z m -0.96,-6.47 c -0.14,-0.08 -0.42,-0.32 -1.09,-0.32 -1.2,0 -1.44,0.9 -1.44,2.67 0,1.81 0.3,2.58 1.34,2.58 0.72,0 0.99,-0.35 1.18,-0.56 l 0,-4.37 z" />
	<path
   id="path159"
   d="m 375.37,478.96 c 0.03,0.05 0.05,0.11 0.05,0.18 0,0.42 -1.6,0.94 -2.87,0.94 -2.11,0 -3.58,-1.2 -3.58,-4.14 0,-2.54 1.36,-4.31 3.5,-4.31 2.72,0 3.2,2.43 3.2,4.37 0,0.3 -0.06,0.4 -0.37,0.4 l -4.3,0 c 0,0.9 0.26,2 1.76,2 1.15,0 1.81,-0.53 2.03,-0.53 0.08,0 0.14,0.06 0.18,0.13 l 0.4,0.96 z m -1.86,-4.05 c 0,-0.66 -0.05,-1.79 -1.15,-1.79 -1.25,0 -1.31,1.35 -1.36,1.79 l 2.51,0 z" />
	<path
   id="path161"
   d="m 387.47,479.07 c 0.02,0.05 0.05,0.11 0.05,0.16 0,0.38 -1.3,0.85 -2.26,0.85 -2.22,0 -3.55,-1.36 -3.55,-4.06 0,-2.7 1.36,-4.39 3.73,-4.39 0.86,0 2.27,0.48 2.27,0.98 0,0.05 -0.03,0.1 -0.05,0.14 l -0.59,1.04 c -0.03,0.03 -0.06,0.08 -0.11,0.08 -0.16,0 -0.69,-0.64 -1.52,-0.64 -1.09,0 -1.57,0.83 -1.57,2.67 0,1.76 0.42,2.58 1.65,2.58 0.82,0 1.14,-0.54 1.42,-0.54 0.05,0 0.08,0.03 0.11,0.08 l 0.42,1.05 z" />
	<path
   id="path163"
   d="m 393.58,480.02 c -0.06,0.02 -0.14,0.06 -0.21,0.06 -0.14,0 -0.38,-0.56 -0.46,-0.96 -0.32,0.32 -0.88,0.96 -2.08,0.96 -1.47,0 -2.4,-0.96 -2.4,-2.46 0,-2.71 2.91,-2.71 4.18,-2.71 l 0,-0.5 c 0,-0.72 -0.13,-1.18 -1.14,-1.18 -0.9,0 -1.78,0.48 -1.98,0.48 -0.08,0 -0.14,-0.1 -0.16,-0.16 l -0.32,-0.98 c -0.03,-0.06 -0.05,-0.13 -0.05,-0.19 0,-0.37 1.58,-0.75 2.82,-0.75 2,0 2.75,0.91 2.75,2.58 l 0,3.09 c 0,1.55 0.42,1.76 0.42,2.08 0,0.06 -0.06,0.11 -0.14,0.14 l -1.23,0.5 z m -0.98,-3.8 c -0.4,0 -2.26,-0.13 -2.26,1.28 0,0.62 0.45,1.09 1.06,1.09 0.59,0 1.01,-0.42 1.2,-0.61 l 0,-1.76 z" />
	<path
   id="path165"
   d="m 398.71,479.59 c 0,0.18 -0.03,0.22 -0.22,0.22 l -1.58,0 c -0.19,0 -0.22,-0.05 -0.22,-0.22 l 0,-4.83 c 0,-1.76 -0.42,-2.05 -0.42,-2.42 0,-0.06 0.06,-0.11 0.14,-0.14 l 1.22,-0.5 c 0.06,-0.02 0.14,-0.06 0.21,-0.06 0.19,0 0.51,0.72 0.59,1.27 0.3,-0.37 0.9,-1.27 1.99,-1.27 0.46,0 0.93,0.16 0.93,0.37 0,0.06 -0.02,0.13 -0.03,0.16 l -0.5,1.34 c -0.02,0.05 -0.06,0.14 -0.13,0.14 -0.1,0 -0.38,-0.18 -0.75,-0.18 -0.5,0 -1.01,0.54 -1.22,0.77 l 0,5.35 z" />
	<path
   id="path167"
   d="m 408.27,476.71 c 0,1.06 0.08,2.71 0.08,3.6 0,1.74 -0.86,2.9 -3.09,2.9 -1.25,0 -3.31,-0.51 -3.31,-0.85 0,-0.11 0.02,-0.18 0.06,-0.32 l 0.3,-0.98 c 0.03,-0.11 0.1,-0.16 0.18,-0.16 0.19,0 1.17,0.62 2.59,0.62 1.12,0 1.31,-0.46 1.31,-1.36 0,-0.56 -0.05,-0.94 -0.05,-1.06 -0.24,0.16 -0.85,0.61 -1.94,0.61 -1.79,0 -2.74,-1.5 -2.74,-3.91 0,-2.58 1.12,-4.18 3.03,-4.18 1.14,0 1.6,0.5 1.91,0.75 0.05,-0.14 0.34,-0.75 0.56,-0.75 0.05,0 0.11,0.02 0.16,0.03 l 1.25,0.46 c 0.06,0.03 0.14,0.08 0.14,0.14 0,0.21 -0.45,0.78 -0.45,2.05 l 0,2.41 z m -1.92,-2.92 c -0.21,-0.16 -0.54,-0.48 -1.27,-0.48 -0.96,0 -1.38,0.9 -1.38,2.43 0,1.46 0.32,2.37 1.28,2.37 0.82,0 1.2,-0.4 1.36,-0.54 l 0,-3.78 z" />
	<path
   id="path169"
   d="m 414.91,480.02 c -0.06,0.02 -0.14,0.06 -0.21,0.06 -0.14,0 -0.38,-0.56 -0.46,-0.96 -0.32,0.32 -0.88,0.96 -2.08,0.96 -1.47,0 -2.4,-0.96 -2.4,-2.46 0,-2.71 2.91,-2.71 4.18,-2.71 l 0,-0.5 c 0,-0.72 -0.13,-1.18 -1.14,-1.18 -0.9,0 -1.78,0.48 -1.99,0.48 -0.08,0 -0.14,-0.1 -0.16,-0.16 l -0.32,-0.98 c -0.03,-0.06 -0.05,-0.13 -0.05,-0.19 0,-0.37 1.58,-0.75 2.82,-0.75 2,0 2.75,0.91 2.75,2.58 l 0,3.09 c 0,1.55 0.42,1.76 0.42,2.08 0,0.06 -0.06,0.11 -0.14,0.14 l -1.22,0.5 z m -0.98,-3.8 c -0.4,0 -2.26,-0.13 -2.26,1.28 0,0.62 0.45,1.09 1.06,1.09 0.59,0 1.01,-0.42 1.2,-0.61 l 0,-1.76 z" />
</g>
<g
   transform="translate(-62.049999,-141.93)"
   id="g171">
	<path
   id="path173"
   d="m 654.91,441.98 c 0.05,0.11 0.09,0.18 0.09,0.27 0,0.31 -1.23,1.16 -3,1.16 -3.17,0 -4.69,-2.06 -4.69,-6.41 0,-4.16 1.56,-6.61 4.69,-6.61 1.36,0 2.97,1 2.97,1.34 0,0.07 0,0.15 -0.09,0.27 l -0.67,1.01 c -0.07,0.11 -0.14,0.18 -0.22,0.18 -0.31,0 -0.9,-0.85 -1.86,-0.85 -1.56,0 -2.24,1.07 -2.24,4.18 0,3.08 0.38,4.92 2.24,4.92 1.01,0 1.67,-0.67 2.03,-0.67 0.07,0 0.13,0.05 0.2,0.18 l 0.55,1.03 z" />
	<path
   id="path175"
   d="m 663.46,442.15 c 0.04,0.05 0.05,0.13 0.05,0.2 0,0.47 -1.81,1.07 -3.24,1.07 -2.39,0 -4.05,-1.36 -4.05,-4.69 0,-2.88 1.54,-4.87 3.96,-4.87 3.08,0 3.62,2.75 3.62,4.94 0,0.34 -0.07,0.45 -0.42,0.45 l -4.87,0 c 0,1.01 0.29,2.26 1.99,2.26 1.3,0 2.04,-0.6 2.3,-0.6 0.09,0 0.16,0.07 0.2,0.14 l 0.46,1.1 z m -2.1,-4.58 c 0,-0.74 -0.05,-2.03 -1.3,-2.03 -1.41,0 -1.48,1.52 -1.54,2.03 l 2.84,0 z" />
	<path
   id="path177"
   d="m 672.98,442.85 c 0,0.2 -0.04,0.25 -0.25,0.25 l -1.79,0 c -0.22,0 -0.25,-0.05 -0.25,-0.25 l 0,-5.57 c 0,-0.69 -0.09,-1.52 -1.01,-1.52 -0.76,0 -1.36,0.53 -1.59,0.74 l 0,6.35 c 0,0.2 -0.04,0.25 -0.25,0.25 l -1.79,0 c -0.22,0 -0.25,-0.05 -0.25,-0.25 l 0,-5.47 c 0,-2.55 -0.34,-2.41 -0.34,-2.82 0,-0.09 0.07,-0.16 0.2,-0.2 l 1.38,-0.45 c 0.11,-0.04 0.2,-0.05 0.27,-0.05 0.24,0 0.38,0.4 0.58,1.25 0.52,-0.47 1.34,-1.25 2.77,-1.25 1,0 2.35,0.45 2.35,2.64 l 0,6.35 z" />
	<path
   id="path179"
   d="m 680.87,442.58 c 0.02,0.09 0.04,0.09 0.04,0.14 0,0.34 -1.32,0.69 -2.55,0.69 -2.33,0 -2.33,-1.83 -2.33,-3.49 l 0,-4.07 -1.29,0 c -0.22,0 -0.25,-0.05 -0.25,-0.25 l 0,-1.18 c 0,-0.2 0.04,-0.25 0.25,-0.25 l 1.29,0 0,-2.28 c 0,-0.24 0.04,-0.29 0.29,-0.33 l 1.59,-0.22 c 0.05,0 0.13,-0.02 0.24,-0.02 0.16,0 0.18,0.09 0.18,0.31 l 0,2.53 2.06,0 c 0.16,0 0.31,0 0.31,0.2 0,0.04 0,0.07 -0.02,0.15 l -0.24,1.07 c -0.05,0.25 -0.11,0.27 -0.33,0.27 l -1.79,0 0,4.38 c 0,0.58 0,1.1 0.62,1.1 0.72,0 1.18,-0.34 1.43,-0.34 0.07,0 0.13,0.04 0.14,0.11 l 0.36,1.48 z" />
	<path
   id="path181"
   d="m 684.51,442.85 c 0,0.2 -0.04,0.25 -0.25,0.25 l -1.79,0 c -0.22,0 -0.25,-0.05 -0.25,-0.25 l 0,-5.47 c 0,-1.99 -0.47,-2.32 -0.47,-2.73 0,-0.07 0.07,-0.13 0.16,-0.16 l 1.38,-0.56 c 0.07,-0.02 0.16,-0.07 0.23,-0.07 0.22,0 0.58,0.81 0.67,1.43 0.34,-0.42 1.01,-1.43 2.24,-1.43 0.52,0 1.05,0.18 1.05,0.42 0,0.07 -0.02,0.14 -0.04,0.18 l -0.56,1.52 c -0.02,0.05 -0.07,0.16 -0.14,0.16 -0.11,0 -0.43,-0.2 -0.85,-0.2 -0.56,0 -1.14,0.62 -1.38,0.87 l 0,6.04 z" />
	<path
   id="path183"
   d="m 692.01,443.41 c -2.44,0 -3.93,-1.86 -3.93,-4.78 0,-2.91 1.48,-4.78 3.93,-4.78 2.42,0 3.93,1.86 3.93,4.78 0,2.92 -1.49,4.78 -3.93,4.78 z m 1.48,-4.77 c 0,-1.68 -0.24,-2.97 -1.48,-2.97 -1.25,0 -1.48,1.28 -1.48,2.97 0,1.68 0.22,2.97 1.48,2.97 1.27,-0.01 1.48,-1.27 1.48,-2.97 z" />
	<path
   id="path185"
   d="m 646.4,459.18 c -0.07,0.02 -0.16,0.07 -0.24,0.07 -0.16,0 -0.43,-0.63 -0.53,-1.09 -0.29,0.27 -1.09,1.09 -2.39,1.09 -2.06,0 -3.09,-1.67 -3.09,-4.42 0,-3.42 1.23,-5.14 3.47,-5.14 0.98,0 1.39,0.34 1.68,0.54 l 0,-3.71 c 0,-0.27 0.13,-0.27 0.34,-0.33 l 1.52,-0.31 c 0.05,0 0.22,-0.05 0.25,-0.05 0.14,0 0.18,0.07 0.18,0.38 l 0,9.88 c 0,1.75 0.33,1.99 0.33,2.35 0,0.07 -0.07,0.13 -0.16,0.16 l -1.36,0.58 z m -1.09,-7.31 c -0.16,-0.09 -0.47,-0.36 -1.23,-0.36 -1.36,0 -1.63,1.01 -1.63,3.02 0,2.04 0.34,2.91 1.52,2.91 0.81,0 1.12,-0.4 1.34,-0.63 l 0,-4.94 z" />
	<path
   id="path187"
   d="m 656.77,457.99 c 0.04,0.05 0.05,0.13 0.05,0.2 0,0.47 -1.81,1.07 -3.24,1.07 -2.39,0 -4.05,-1.36 -4.05,-4.69 0,-2.88 1.54,-4.87 3.96,-4.87 3.08,0 3.62,2.75 3.62,4.94 0,0.34 -0.07,0.45 -0.42,0.45 l -4.87,0 c 0,1.01 0.29,2.26 1.99,2.26 1.3,0 2.04,-0.6 2.3,-0.6 0.09,0 0.16,0.07 0.2,0.14 l 0.46,1.1 z m -2.1,-4.58 c 0,-0.74 -0.05,-2.03 -1.3,-2.03 -1.41,0 -1.48,1.52 -1.54,2.03 l 2.84,0 z" />
	<path
   id="path189"
   d="m 670.46,458.12 c 0.02,0.05 0.05,0.13 0.05,0.18 0,0.43 -1.47,0.96 -2.55,0.96 -2.52,0 -4.02,-1.54 -4.02,-4.6 0,-3.06 1.54,-4.96 4.22,-4.96 0.98,0 2.57,0.54 2.57,1.1 0,0.05 -0.04,0.11 -0.05,0.16 l -0.67,1.18 c -0.04,0.04 -0.07,0.09 -0.13,0.09 -0.18,0 -0.78,-0.72 -1.72,-0.72 -1.23,0 -1.77,0.94 -1.77,3.02 0,1.99 0.47,2.91 1.86,2.91 0.92,0 1.29,-0.62 1.61,-0.62 0.05,0 0.09,0.04 0.13,0.09 l 0.47,1.21 z" />
	<path
   id="path191"
   d="m 677.37,459.18 c -0.07,0.02 -0.16,0.07 -0.24,0.07 -0.16,0 -0.43,-0.63 -0.53,-1.09 -0.36,0.36 -1,1.09 -2.35,1.09 -1.67,0 -2.71,-1.09 -2.71,-2.79 0,-3.06 3.29,-3.06 4.72,-3.06 l 0,-0.56 c 0,-0.81 -0.14,-1.34 -1.28,-1.34 -1.01,0 -2.01,0.54 -2.24,0.54 -0.09,0 -0.16,-0.11 -0.18,-0.18 l -0.36,-1.1 c -0.04,-0.07 -0.05,-0.14 -0.05,-0.22 0,-0.42 1.79,-0.85 3.19,-0.85 2.26,0 3.11,1.03 3.11,2.91 l 0,3.49 c 0,1.75 0.47,1.99 0.47,2.35 0,0.07 -0.07,0.13 -0.16,0.16 l -1.39,0.58 z m -1.1,-4.29 c -0.45,0 -2.55,-0.14 -2.55,1.45 0,0.71 0.51,1.23 1.19,1.23 0.67,0 1.14,-0.47 1.36,-0.69 l 0,-1.99 z" />
	<path
   id="path193"
   d="m 683.18,458.69 c 0,0.2 -0.04,0.25 -0.25,0.25 l -1.79,0 c -0.22,0 -0.25,-0.05 -0.25,-0.25 l 0,-5.47 c 0,-1.99 -0.47,-2.32 -0.47,-2.73 0,-0.07 0.07,-0.13 0.16,-0.16 l 1.38,-0.56 c 0.07,-0.02 0.16,-0.07 0.23,-0.07 0.22,0 0.58,0.81 0.67,1.43 0.34,-0.42 1.01,-1.43 2.24,-1.43 0.52,0 1.05,0.18 1.05,0.42 0,0.07 -0.02,0.14 -0.04,0.18 l -0.56,1.52 c -0.02,0.05 -0.07,0.16 -0.14,0.16 -0.11,0 -0.43,-0.2 -0.85,-0.2 -0.56,0 -1.14,0.62 -1.38,0.87 l 0,6.04 z" />
	<path
   id="path195"
   d="m 693.99,455.44 c 0,1.19 0.09,3.06 0.09,4.07 0,1.97 -0.98,3.28 -3.49,3.28 -1.41,0 -3.75,-0.58 -3.75,-0.96 0,-0.13 0.02,-0.2 0.07,-0.36 l 0.34,-1.1 c 0.04,-0.13 0.11,-0.18 0.2,-0.18 0.22,0 1.32,0.71 2.93,0.71 1.27,0 1.48,-0.53 1.48,-1.54 0,-0.63 -0.05,-1.07 -0.05,-1.19 -0.27,0.18 -0.96,0.69 -2.19,0.69 -2.03,0 -3.09,-1.7 -3.09,-4.42 0,-2.91 1.27,-4.72 3.42,-4.72 1.29,0 1.81,0.56 2.15,0.85 0.05,-0.16 0.38,-0.85 0.63,-0.85 0.05,0 0.13,0.02 0.18,0.04 l 1.41,0.52 c 0.07,0.04 0.16,0.09 0.16,0.16 0,0.24 -0.51,0.89 -0.51,2.32 l 0,2.68 z m -2.17,-3.3 c -0.24,-0.18 -0.62,-0.54 -1.43,-0.54 -1.09,0 -1.56,1.01 -1.56,2.75 0,1.65 0.36,2.68 1.45,2.68 0.92,0 1.36,-0.45 1.54,-0.62 l 0,-4.27 z" />
	<path
   id="path197"
   d="m 701.5,459.18 c -0.07,0.02 -0.16,0.07 -0.24,0.07 -0.16,0 -0.43,-0.63 -0.53,-1.09 -0.36,0.36 -1,1.09 -2.35,1.09 -1.67,0 -2.71,-1.09 -2.71,-2.79 0,-3.06 3.29,-3.06 4.72,-3.06 l 0,-0.56 c 0,-0.81 -0.14,-1.34 -1.28,-1.34 -1.01,0 -2.01,0.54 -2.24,0.54 -0.09,0 -0.16,-0.11 -0.18,-0.18 l -0.36,-1.1 c -0.04,-0.07 -0.05,-0.14 -0.05,-0.22 0,-0.42 1.79,-0.85 3.19,-0.85 2.26,0 3.11,1.03 3.11,2.91 l 0,3.49 c 0,1.75 0.47,1.99 0.47,2.35 0,0.07 -0.07,0.13 -0.16,0.16 l -1.39,0.58 z m -1.1,-4.29 c -0.45,0 -2.55,-0.14 -2.55,1.45 0,0.71 0.51,1.23 1.19,1.23 0.67,0 1.14,-0.47 1.36,-0.69 l 0,-1.99 z" />
</g>
<g
   transform="translate(-62.049999,-141.93)"
   id="g199">
	
		<linearGradient
   gradientTransform="matrix(-1,0,0,1,5661.4746,0)"
   y2="183.06351"
   x2="5358.2109"
   y1="175.3486"
   x1="5358.2109"
   gradientUnits="userSpaceOnUse"
   id="SVGID_1_">
		<stop
   id="stop202"
   style="stop-color:#1F1F1F"
   offset="0" />
		<stop
   id="stop204"
   style="stop-color:#010101"
   offset="1" />
	</linearGradient>
	<rect
   style="fill:url(#SVGID_1_)"
   id="rect206"
   height="7.71"
   width="15.94"
   y="175.35001"
   x="295.29001" />
	
		<linearGradient
   gradientTransform="matrix(-1,0,0,1,5661.4746,0)"
   y2="216.23441"
   x2="5358.2109"
   y1="208.5215"
   x1="5358.2109"
   gradientUnits="userSpaceOnUse"
   id="SVGID_2_">
		<stop
   id="stop209"
   style="stop-color:#1F1F1F"
   offset="0" />
		<stop
   id="stop211"
   style="stop-color:#010101"
   offset="1" />
	</linearGradient>
	<rect
   style="fill:url(#SVGID_2_)"
   id="rect213"
   height="7.71"
   width="15.94"
   y="208.52"
   x="295.29001" />
	
		<linearGradient
   gradientTransform="matrix(-1,0,0,1,5661.4746,0)"
   y2="377.6416"
   x2="5321.0938"
   y1="266.89359"
   x1="5321.0938"
   gradientUnits="userSpaceOnUse"
   id="SVGID_3_">
		<stop
   id="stop216"
   style="stop-color:#1F1F1F"
   offset="0" />
		<stop
   id="stop218"
   style="stop-color:#010101"
   offset="1" />
	</linearGradient>
	<path
   style="fill:url(#SVGID_3_)"
   id="path220"
   d="m 333.01,371.47 c 0,3.41 2.76,6.17 6.17,6.17 l 2.4,0 c 3.41,0 6.17,-2.76 6.17,-6.17 l 0,-98.41 c 0,-3.41 -2.77,-6.17 -6.17,-6.17 l -2.4,0 c -3.41,0 -6.17,2.77 -6.17,6.17 l 0,98.41 z" />
	
		<linearGradient
   gradientTransform="matrix(-1,0,0,1,5661.4746,0)"
   y2="381.92969"
   x2="5341.3252"
   y1="172.0889"
   x1="5341.3252"
   gradientUnits="userSpaceOnUse"
   id="SVGID_4_">
		<stop
   id="stop223"
   style="stop-color:#1F1F1F"
   offset="0" />
		<stop
   id="stop225"
   style="stop-color:#010101"
   offset="1" />
	</linearGradient>
	<path
   style="fill:url(#SVGID_4_)"
   id="path227"
   d="m 307.12,375.76 c 0,3.41 2.77,6.17 6.17,6.17 l 13.72,0 c 3.41,0 6.17,-2.77 6.17,-6.17 l 0,-197.5 c 0,-3.41 -2.76,-6.17 -6.17,-6.17 l -13.72,0 c -3.41,0 -6.17,2.76 -6.17,6.17 l 0,197.5 z" />
	
		<linearGradient
   gradientTransform="matrix(-1,0,0,1,5661.4746,0)"
   y2="379.1846"
   x2="5262.377"
   y1="358.59079"
   x1="5262.377"
   gradientUnits="userSpaceOnUse"
   id="SVGID_5_">
		<stop
   id="stop230"
   style="stop-color:#1F1F1F"
   offset="0" />
		<stop
   id="stop232"
   style="stop-color:#010101"
   offset="1" />
	</linearGradient>
	<path
   style="fill:url(#SVGID_5_)"
   id="path234"
   d="m 350.67,358.59 c 1.8,0 3.25,1.46 3.25,3.26 l 0,10.82 93.61,0 c 1.8,0 3.26,1.46 3.26,3.26 0,1.8 -1.46,3.26 -3.26,3.26 l -96.69,0 c -0.23,0 -0.46,-0.03 -0.67,-0.07 -1.56,-0.24 -2.76,-1.58 -2.76,-3.21 l 0,-14.06 c 0,-1.8 1.46,-3.26 3.26,-3.26 z" />
	
		<linearGradient
   gradientTransform="matrix(-1,0,0,1,5661.4746,0)"
   y2="216.3213"
   x2="5366.6963"
   y1="175.3486"
   x1="5366.6963"
   gradientUnits="userSpaceOnUse"
   id="SVGID_6_">
		<stop
   id="stop237"
   style="stop-color:#1F1F1F"
   offset="0" />
		<stop
   id="stop239"
   style="stop-color:#010101"
   offset="1" />
	</linearGradient>
	<rect
   style="fill:url(#SVGID_6_)"
   id="rect241"
   height="40.970001"
   width="5.1399999"
   y="175.35001"
   x="292.20999" />
	
		<linearGradient
   gradientTransform="matrix(-1,0,0,1,5661.4746,0)"
   y2="342.8877"
   x2="5341.1504"
   y1="179.41499"
   x1="5341.1504"
   gradientUnits="userSpaceOnUse"
   id="SVGID_7_">
		<stop
   id="stop244"
   style="stop-color:#616161"
   offset="0" />
		<stop
   id="stop246"
   style="stop-color:#000000"
   offset="1" />
	</linearGradient>
	<path
   style="fill:url(#SVGID_7_)"
   id="path248"
   d="m 313.98,340.98 c 0,1.05 0.79,1.91 1.77,1.91 l 9.15,0 c 0.98,0 1.77,-0.85 1.77,-1.91 l 0,-159.66 c 0,-1.05 -0.79,-1.91 -1.77,-1.91 l -9.15,0 c -0.98,0 -1.77,0.85 -1.77,1.91 l 0,159.66 z" />
	
		<linearGradient
   gradientTransform="matrix(-1,0,0,1,5661.4746,0)"
   y2="373.69821"
   x2="5320.752"
   y1="273.9248"
   x1="5320.752"
   gradientUnits="userSpaceOnUse"
   id="SVGID_8_">
		<stop
   id="stop251"
   style="stop-color:#383838"
   offset="0" />
		<stop
   id="stop253"
   style="stop-color:#000000"
   offset="1" />
	</linearGradient>
	<path
   style="fill:url(#SVGID_8_)"
   id="path255"
   d="m 338.32,371.64 c 0,1.14 0.92,2.06 2.06,2.06 l 0.68,0 c 1.14,0 2.06,-0.92 2.06,-2.06 l 0,-95.66 c 0,-1.14 -0.92,-2.06 -2.06,-2.06 l -0.68,0 c -1.14,0 -2.06,0.92 -2.06,2.06 l 0,95.66 z" />
	
		<linearGradient
   gradientTransform="matrix(-0.8764,0.4815,0.4815,0.8764,6003.3809,57.1223)"
   y2="-2539.8049"
   x2="5139.0469"
   y1="-2613.3511"
   x1="5139.0469"
   gradientUnits="userSpaceOnUse"
   id="SVGID_9_">
		<stop
   id="stop258"
   style="stop-color:#1F1F1F"
   offset="0" />
		<stop
   id="stop260"
   style="stop-color:#010101"
   offset="1" />
	</linearGradient>
	<path
   style="fill:url(#SVGID_9_)"
   id="path262"
   d="m 253.48,275.36 -14.53,-26.44 c -1.5,-2.74 -0.5,-6.18 2.23,-7.68 2.74,-1.51 6.18,-0.51 7.68,2.23 l 16.96,30.85 -12.34,1.04 z" />
	
		<linearGradient
   gradientTransform="matrix(-0.8764,0.4815,0.4815,0.8764,6003.3828,57.1223)"
   y2="-2608.9644"
   x2="5139.0508"
   y1="-2616.1978"
   x1="5139.0508"
   gradientUnits="userSpaceOnUse"
   id="SVGID_10_">
		<stop
   id="stop265"
   style="stop-color:#1F1F1F"
   offset="0" />
		<stop
   id="stop267"
   style="stop-color:#010101"
   offset="1" />
	</linearGradient>
	<path
   style="fill:url(#SVGID_10_)"
   id="path269"
   d="m 222.98,253.15 c 0.72,1.31 2.2,1.89 3.31,1.28 l 34.03,-18.7 c 1.11,-0.61 1.42,-2.17 0.7,-3.48 l -0.87,-1.59 c -0.72,-1.31 -2.2,-1.89 -3.31,-1.28 l -34.03,18.7 c -1.1,0.61 -1.42,2.16 -0.7,3.48 l 0.87,1.59 z" />
	
		<linearGradient
   gradientTransform="matrix(1,0,0,-1,6421.0723,-1210.041)"
   y2="-1520.0986"
   x2="-6155.9004"
   y1="-1465.6138"
   x1="-6155.9004"
   gradientUnits="userSpaceOnUse"
   id="SVGID_11_">
		<stop
   id="stop272"
   style="stop-color:#1F1F1F"
   offset="0" />
		<stop
   id="stop274"
   style="stop-color:#010101"
   offset="1" />
	</linearGradient>
	<path
   style="fill:url(#SVGID_11_)"
   id="path276"
   d="m 271.12,274.61 c -0.38,-3.1 -5.13,-19.41 -8.23,-19.03 l -6.69,2.57 c -4.11,3.6 0,8.23 1.07,12.85 -3.34,0.26 -6.31,1.36 -4.91,5.57 L 262,305.1 c 1.33,2.67 3.21,5.31 6.31,4.92 l 0,0 c 3.1,-0.38 10.39,-2.99 10.01,-6.1 l -7.2,-29.31 z" />
	
		<linearGradient
   gradientTransform="matrix(-0.9558,-0.2939,-0.2939,0.9558,5509.8857,-136.6965)"
   y2="1985.9852"
   x2="4870.3525"
   y1="1956.0752"
   x1="4879.5508"
   gradientUnits="userSpaceOnUse"
   id="SVGID_12_">
		<stop
   id="stop279"
   style="stop-color:#1F1F1F"
   offset="0" />
		<stop
   id="stop281"
   style="stop-color:#010101"
   offset="1" />
	</linearGradient>
	<path
   style="fill:url(#SVGID_12_)"
   id="path283"
   d="m 258.3,319.4 c -1,3.26 0.83,6.71 4.08,7.71 l 8.85,2.72 c 3.26,1 6.71,-0.83 7.71,-4.09 l 4.99,-16.22 c 1.01,-3.26 -0.82,-6.71 -4.08,-7.71 L 271,299.09 c -3.26,-1 -6.71,0.83 -7.71,4.09 l -4.99,16.22 z" />
	
		<linearGradient
   gradientTransform="matrix(-1,0,0,1,5661.4746,0)"
   y2="329.099"
   x2="5414.0146"
   y1="316.78421"
   x1="5414.0146"
   gradientUnits="userSpaceOnUse"
   id="SVGID_13_">
		<stop
   id="stop286"
   style="stop-color:#1F1F1F"
   offset="0" />
		<stop
   id="stop288"
   style="stop-color:#010101"
   offset="1" />
	</linearGradient>
	<path
   style="fill:url(#SVGID_13_)"
   id="path290"
   d="m 222.26,326.04 0,-3.09 c 0,-3.41 2.77,-6.17 6.17,-6.17 l 38.06,0 c 3.41,0 6.17,2.76 6.17,6.17 l 0,3.09 -50.4,0 z" />
	
		<linearGradient
   gradientTransform="matrix(-1,0,0,1,5661.4746,0)"
   y2="310.26999"
   x2="5475.3896"
   y1="282.83981"
   x1="5475.3896"
   gradientUnits="userSpaceOnUse"
   id="SVGID_14_">
		<stop
   id="stop293"
   style="stop-color:#616161"
   offset="0" />
		<stop
   id="stop295"
   style="stop-color:#000000"
   offset="1" />
	</linearGradient>
	<path
   style="fill:url(#SVGID_14_)"
   id="path297"
   d="m 140.14,326.04 0,-40.12 71.32,0 c 11.36,0 12.69,1.37 15.09,11.66 l 5.48,28.46 -91.89,0 z" />
	
		<linearGradient
   gradientTransform="matrix(-1,0,0,1,5661.4746,0)"
   y2="301.35199"
   x2="5478.2275"
   y1="357.93069"
   x1="5478.2275"
   gradientUnits="userSpaceOnUse"
   id="SVGID_15_">
		<stop
   id="stop300"
   style="stop-color:#1F1F1F"
   offset="0" />
		<stop
   id="stop302"
   style="stop-color:#010101"
   offset="1" />
	</linearGradient>
	<path
   style="fill:url(#SVGID_15_)"
   id="path304"
   d="m 143.49,326.04 0,-30.35 61.71,0 c 9.83,0 10.98,1.04 13.06,8.82 l 4.75,21.53 -79.52,0 z" />
	
		<linearGradient
   gradientTransform="matrix(-1,0,0,1,5661.4746,0)"
   y2="274.16211"
   x2="5487.04"
   y1="234.9482"
   x1="5487.04"
   gradientUnits="userSpaceOnUse"
   id="SVGID_16_">
		<stop
   id="stop307"
   style="stop-color:#1F1F1F"
   offset="0" />
		<stop
   id="stop309"
   style="stop-color:#010101"
   offset="1" />
	</linearGradient>
	<path
   style="fill:url(#SVGID_16_)"
   id="path311"
   d="m 167.27,269.19 c 0.38,3.11 3.21,5.31 6.31,4.93 l 0,0 c 3.1,-0.38 13.54,1.52 11.14,-5.68 l -9.65,-28.53 c -1.32,-2.67 -3.2,-5.31 -6.3,-4.92 l 0,0 c -3.11,0.38 -5.31,3.2 -4.93,6.3 l 3.43,27.9 z" />
	
		<linearGradient
   gradientTransform="matrix(-1,0,0,1,5661.4746,0)"
   y2="279.75101"
   x2="5491.5"
   y1="271.52249"
   x1="5491.5"
   gradientUnits="userSpaceOnUse"
   id="SVGID_17_">
		<stop
   id="stop314"
   style="stop-color:#1F1F1F"
   offset="0" />
		<stop
   id="stop316"
   style="stop-color:#010101"
   offset="1" />
	</linearGradient>
	<path
   style="fill:url(#SVGID_17_)"
   id="path318"
   d="m 165.52,275.64 c 0,2.27 1.84,4.11 4.11,4.11 l 0.69,0 c 2.27,0 4.12,-1.84 4.12,-4.11 l 0,0 c 0,-2.27 -1.84,-4.12 -4.12,-4.12 l -0.69,0 c -2.27,0 -4.11,1.84 -4.11,4.12 l 0,0 z" />
	
		<linearGradient
   gradientTransform="matrix(-1,0,0,1,5661.4746,0)"
   y2="285.7471"
   x2="5464.9287"
   y1="272.72559"
   x1="5464.9287"
   gradientUnits="userSpaceOnUse"
   id="SVGID_18_">
		<stop
   id="stop321"
   style="stop-color:#1F1F1F"
   offset="0" />
		<stop
   id="stop323"
   style="stop-color:#010101"
   offset="1" />
	</linearGradient>
	<path
   style="fill:url(#SVGID_18_)"
   id="path325"
   d="m 170.66,279.24 c 0,3.6 2.92,6.51 6.51,6.51 l 38.75,0 c 3.6,0 6.51,-2.91 6.51,-6.51 l 0,0 c 0,-3.6 -2.91,-6.51 -6.51,-6.51 l -38.75,0 c -3.59,0 -6.51,2.91 -6.51,6.51 l 0,0 z" />
	
		<linearGradient
   gradientTransform="matrix(-1,0,0,1,5661.4746,0)"
   y2="375.34061"
   x2="5394.6396"
   y1="273.93649"
   x1="5394.6396"
   gradientUnits="userSpaceOnUse"
   id="SVGID_19_">
		<stop
   id="stop328"
   style="stop-color:#000000"
   offset="0" />
		<stop
   id="stop330"
   style="stop-color:#D07928"
   offset="1" />
	</linearGradient>
	<path
   style="fill:url(#SVGID_19_)"
   id="path332"
   d="m 260.01,324.23 c 0.25,-0.79 0.94,-1.29 1.23,-1.96 l 32.17,0 -25.01,53.07 -28.14,0 c 0,0 17.71,-44.41 19.75,-51.11 z" />
	
		<linearGradient
   gradientTransform="matrix(-0.6134,-0.7898,-0.7898,0.6134,5382.7632,-675.9078)"
   y2="4597.3506"
   x2="2304.9678"
   y1="4597.3506"
   x1="2367.9951"
   gradientUnits="userSpaceOnUse"
   id="SVGID_20_">
		<stop
   id="stop335"
   style="stop-color:#383838"
   offset="0" />
		<stop
   id="stop337"
   style="stop-color:#000000"
   offset="1" />
	</linearGradient>
	<polygon
   style="fill:url(#SVGID_20_)"
   id="polygon339"
   points="314.47,271.25 292.94,287.97 297.36,293.66 318.89,276.93 " />
	
		<linearGradient
   gradientTransform="matrix(-0.6134,-0.7898,-0.7898,0.6134,5382.7632,-675.9078)"
   y2="4597.3516"
   x2="2279.4854"
   y1="4597.3516"
   x1="2355.6465"
   gradientUnits="userSpaceOnUse"
   id="SVGID_21_">
		<stop
   id="stop342"
   style="stop-color:#B8B8B8"
   offset="0" />
		<stop
   id="stop344"
   style="stop-color:#3D3D3D"
   offset="1" />
	</linearGradient>
	<polygon
   style="fill:url(#SVGID_21_)"
   id="polygon346"
   points="315.58,272.67 294.04,289.39 296.26,292.23 317.78,275.51 " />
	
		<linearGradient
   gradientTransform="matrix(-0.6134,-0.7898,-0.7898,0.6134,5382.7632,-675.9078)"
   y2="4615.2227"
   x2="2352.8191"
   y1="4615.2227"
   x1="2363.6182"
   gradientUnits="userSpaceOnUse"
   id="SVGID_22_">
		<stop
   id="stop349"
   style="stop-color:#1F1F1F"
   offset="0" />
		<stop
   id="stop351"
   style="stop-color:#010101"
   offset="1" />
	</linearGradient>
	<path
   style="fill:url(#SVGID_22_)"
   id="path353"
   d="m 277.32,296.36 c -0.9,0.7 -1.06,1.99 -0.37,2.88 l 5.52,7.11 c 0.69,0.9 1.99,1.06 2.88,0.36 l 20.92,-16.25 c 0.89,-0.7 1.06,-1.99 0.36,-2.89 l -5.52,-7.11 c -0.7,-0.89 -1.99,-1.06 -2.88,-0.36 l -20.91,16.26 z" />
	
		<linearGradient
   gradientTransform="matrix(-0.6134,-0.7898,-0.7898,0.6134,5382.7632,-675.9078)"
   y2="4586.5474"
   x2="2349.7974"
   y1="4576.0059"
   x1="2360.3389"
   gradientUnits="userSpaceOnUse"
   id="SVGID_23_">
		<stop
   id="stop356"
   style="stop-color:#383838"
   offset="0" />
		<stop
   id="stop358"
   style="stop-color:#000000"
   offset="1" />
	</linearGradient>
	<path
   style="fill:url(#SVGID_23_)"
   id="path360"
   d="m 315.42,265.14 c -3.42,2.66 -4.04,7.58 -1.38,11.01 2.66,3.42 7.58,4.04 11.01,1.38 3.42,-2.66 4.04,-7.58 1.38,-11.01 -2.66,-3.42 -7.59,-4.04 -11.01,-1.38 z" />
	
		<linearGradient
   gradientTransform="matrix(-0.6134,-0.7898,-0.7898,0.6134,5382.7632,-675.9078)"
   y2="4579.2236"
   x2="2174.2385"
   y1="4579.2236"
   x1="2353.6436"
   gradientUnits="userSpaceOnUse"
   id="SVGID_24_">
		<stop
   id="stop363"
   style="stop-color:#B8B8B8"
   offset="0" />
		<stop
   id="stop365"
   style="stop-color:#3D3D3D"
   offset="1" />
	</linearGradient>
	<path
   style="fill:url(#SVGID_24_)"
   id="path367"
   d="m 317.63,267.98 c -1.85,1.44 -2.19,4.11 -0.75,5.96 1.44,1.85 4.11,2.19 5.95,0.75 1.85,-1.44 2.19,-4.1 0.75,-5.95 -1.43,-1.86 -4.1,-2.2 -5.95,-0.76 z" />
	
		<radialGradient
   gradientUnits="userSpaceOnUse"
   gradientTransform="matrix(-1,0,0,1,5661.4746,0)"
   r="78.2705"
   cy="325.70511"
   cx="5500.4873"
   id="SVGID_25_">
		<stop
   id="stop370"
   style="stop-color:#FEBF10"
   offset="0" />
		<stop
   id="stop372"
   style="stop-color:#FEBD11"
   offset="0.3901" />
		<stop
   id="stop374"
   style="stop-color:#FDB714"
   offset="0.601" />
		<stop
   id="stop376"
   style="stop-color:#FBAD18"
   offset="0.7686" />
		<stop
   id="stop378"
   style="stop-color:#FAA51A"
   offset="0.8587" />
		<stop
   id="stop380"
   style="stop-color:#F9A11B"
   offset="0.9837" />
	</radialGradient>
	<path
   style="fill:url(#SVGID_25_)"
   id="path382"
   d="m 73.34,282.24 c 2.34,-2.49 7.74,-6.17 17.49,-6.17 0,0 19.31,0 32.17,0 12.86,0 14.66,8.31 14.66,14.4 0,6.09 -0.26,32.92 -0.26,32.92 l 122.52,0 -20.59,51.96 -168.05,0 c -3.41,0 -5.14,-2.76 -5.14,-6.17 0,0 -3.82,-47.48 -4.08,-59.85 -0.26,-12.09 8.86,-24.52 11.28,-27.09 z" />
	
		<linearGradient
   gradientTransform="matrix(-1,0,0,1,5661.4746,0)"
   y2="323.4678"
   x2="5446.585"
   y1="156.3174"
   x1="5446.585"
   gradientUnits="userSpaceOnUse"
   id="SVGID_26_">
		<stop
   id="stop385"
   style="stop-color:#1F1F1F"
   offset="0" />
		<stop
   id="stop387"
   style="stop-color:#010101"
   offset="1" />
	</linearGradient>
	<path
   style="fill:url(#SVGID_26_)"
   id="path389"
   d="m 173.74,156.32 45.26,0 c 9.84,-0.04 18.18,4.67 24.11,11.28 6,6.62 10.07,15.13 12.67,24.02 l 37.28,129.09 0,0.87 c 0,0.55 -0.04,1.09 -0.1,1.63 l -12.71,0 c 0.2,-0.4 0.33,-0.74 0.39,-1.02 L 243.93,195.06 c -2.19,-7.55 -5.67,-14.48 -9.95,-19.16 -4.35,-4.71 -9.05,-7.2 -14.98,-7.24 l -45.26,0 c -13.63,0.02 -24.66,11.06 -24.68,24.69 l 0,97.21 19.08,32.91 -10.06,0 c 0.36,-3.84 -1.95,-7.97 -6.92,-7.97 -4.98,0 -7.28,4.14 -6.93,7.97 l -7.49,0 c -0.02,-0.65 -0.03,-1.5 -0.03,-1.89 l 0,-128.23 c 0.01,-20.45 16.58,-37.03 37.03,-37.03 z" />
	
		<linearGradient
   gradientTransform="matrix(-1,0,0,1,5661.4746,0)"
   y2="322.6116"
   x2="5379.7246"
   y1="288.32419"
   x1="5379.7246"
   gradientUnits="userSpaceOnUse"
   id="SVGID_27_">
		<stop
   id="stop392"
   style="stop-color:#1F1F1F"
   offset="0" />
		<stop
   id="stop394"
   style="stop-color:#010101"
   offset="1" />
	</linearGradient>
	<path
   style="fill:url(#SVGID_27_)"
   id="path396"
   d="m 270.92,288.5 12.84,0 9.3,32.21 0,0.87 c 0,0.55 -0.04,1.09 -0.1,1.63 l -22.53,0 c 0.2,-0.4 0.33,-0.74 0.39,-1.02 l 0.1,-33.69 z" />
	
		<linearGradient
   gradientTransform="matrix(-1,0,0,1,5661.4746,0)"
   y2="359.6391"
   x2="5509.0967"
   y1="283.8652"
   x1="5509.0967"
   gradientUnits="userSpaceOnUse"
   id="SVGID_28_">
		<stop
   id="stop399"
   style="stop-color:#1F1F1F"
   offset="0" />
		<stop
   id="stop401"
   style="stop-color:#010101"
   offset="1" />
	</linearGradient>
	<path
   style="fill:url(#SVGID_28_)"
   id="path403"
   d="m 158.09,323.3 c 0.27,-3.79 -2.03,-7.8 -6.93,-7.8 -4.91,0 -7.21,4.01 -6.94,7.8 l -7.49,0 c -0.01,-0.62 -0.02,-1.36 -0.02,-1.71 l 0,-32.57 12.35,0 0,1.55 18.98,32.74 -9.95,0 z" />
	
		<linearGradient
   gradientTransform="matrix(-1,0,0,1,5661.4746,0)"
   y2="396.75479"
   x2="5552.876"
   y1="336.06741"
   x1="5552.876"
   gradientUnits="userSpaceOnUse"
   id="SVGID_29_">
		<stop
   id="stop406"
   style="stop-color:#000000"
   offset="0" />
		<stop
   id="stop408"
   style="stop-color:#D07928"
   offset="1" />
	</linearGradient>
	<path
   style="fill:url(#SVGID_29_)"
   id="path410"
   d="m 69.16,374.9 c -0.02,-4.87 -0.03,-9.91 -0.03,-15.17 0,-15.27 6.9,-27.65 18.9,-27.65 l 32.4,0 c 13.88,0 27.64,10.67 27.64,27.65 0,5.47 -0.02,10.65 -0.05,15.61 l -76.74,0 c -0.8,-0.01 -1.51,-0.16 -2.12,-0.44 z" />
	<polygon
   style="fill:#a7a9ac"
   id="polygon412"
   points="320.46,306.75 320.53,312.92 320.53,312.92 300.68,313.18 266.25,324.16 245.99,375.28 239.35,375.28 261.59,319.17 299.68,307.02 " />
	
		<linearGradient
   gradientTransform="matrix(-1,0,0,1,5661.4746,0)"
   y2="397.05759"
   x2="5551.0752"
   y1="336.6279"
   x1="5551.0752"
   gradientUnits="userSpaceOnUse"
   id="SVGID_30_">
		<stop
   id="stop415"
   style="stop-color:#141414"
   offset="0" />
		<stop
   id="stop417"
   style="stop-color:#010101"
   offset="1" />
	</linearGradient>
	<circle
   style="fill:url(#SVGID_30_)"
   id="circle419"
   r="30.209999"
   cy="366.84"
   cx="110.4" />
	
		<linearGradient
   gradientTransform="matrix(-1,0,0,1,5661.4746,0)"
   y2="413.7738"
   x2="5551.0762"
   y1="361.8262"
   x1="5551.0762"
   gradientUnits="userSpaceOnUse"
   id="SVGID_31_">
		<stop
   id="stop422"
   style="stop-color:#EBEBEB"
   offset="0" />
		<stop
   id="stop424"
   style="stop-color:#5C5C5C"
   offset="1" />
	</linearGradient>
	<path
   style="fill:url(#SVGID_31_)"
   id="path426"
   d="m 94.07,366.84 c 0,9.02 7.31,16.33 16.33,16.33 9.02,0 16.33,-7.31 16.33,-16.33 0,-9.02 -7.31,-16.33 -16.33,-16.33 -9.02,0 -16.33,7.31 -16.33,16.33 z" />
	
		<linearGradient
   gradientTransform="matrix(-1,0,0,1,5661.4746,0)"
   y2="397.05759"
   x2="5551.5049"
   y1="336.96881"
   x1="5551.5049"
   gradientUnits="userSpaceOnUse"
   id="SVGID_32_">
		<stop
   id="stop429"
   style="stop-color:#141414"
   offset="0" />
		<stop
   id="stop431"
   style="stop-color:#010101"
   offset="1" />
	</linearGradient>
	<path
   style="fill:url(#SVGID_32_)"
   id="path433"
   d="m 79.93,367.01 c 0,16.59 13.45,30.05 30.04,30.05 16.6,0 30.04,-13.45 30.04,-30.05 0,-16.59 -13.45,-30.04 -30.04,-30.04 -16.59,0 -30.04,13.45 -30.04,30.04 z" />
	<g
   id="g435">
		
			<linearGradient
   gradientTransform="matrix(-1,0,0,1,5661.4746,0)"
   y2="390.4118"
   x2="5551.5039"
   y1="342.39651"
   x1="5551.5039"
   gradientUnits="userSpaceOnUse"
   id="SVGID_33_">
			<stop
   id="stop438"
   style="stop-color:#616161"
   offset="0" />
			<stop
   id="stop440"
   style="stop-color:#5D5D5D"
   offset="0.0307" />
			<stop
   id="stop442"
   style="stop-color:#2B2B2B"
   offset="0.4754" />
			<stop
   id="stop444"
   style="stop-color:#0C0C0C"
   offset="0.8124" />
			<stop
   id="stop446"
   style="stop-color:#000000"
   offset="1" />
		</linearGradient>
		<path
   style="fill:url(#SVGID_33_)"
   id="path448"
   d="m 136.16,367.01 c 0,14.46 -11.72,26.19 -26.18,26.19 l 0,0 c -14.47,0 -26.19,-11.72 -26.19,-26.19 l 0,0 c 0,-14.46 11.72,-26.18 26.19,-26.19 l 0,0 c 14.45,0.01 26.18,11.73 26.18,26.19 l 0,0 z m -4.29,0 c -0.02,-12.09 -9.81,-21.88 -21.9,-21.9 l 0,0 c -12.1,0.02 -21.88,9.81 -21.9,21.9 l 0,0 c 0.02,12.09 9.81,21.88 21.9,21.9 l 0,0 c 12.09,-0.02 21.88,-9.81 21.9,-21.9 l 0,0 z" />
	</g>
	
		<linearGradient
   gradientTransform="matrix(-1,0,0,1,5661.4746,0)"
   y2="347.2868"
   x2="5551.5039"
   y1="385.01169"
   x1="5551.5039"
   gradientUnits="userSpaceOnUse"
   id="SVGID_34_">
		<stop
   id="stop451"
   style="stop-color:#616161"
   offset="0" />
		<stop
   id="stop453"
   style="stop-color:#5D5D5D"
   offset="0.0307" />
		<stop
   id="stop455"
   style="stop-color:#2B2B2B"
   offset="0.4754" />
		<stop
   id="stop457"
   style="stop-color:#0C0C0C"
   offset="0.8124" />
		<stop
   id="stop459"
   style="stop-color:#000000"
   offset="1" />
	</linearGradient>
	<path
   style="fill:url(#SVGID_34_)"
   id="path461"
   d="m 91.36,368.04 c 0,10.28 8.33,18.61 18.61,18.61 10.28,0 18.61,-8.33 18.61,-18.61 0,-10.28 -8.33,-18.61 -18.61,-18.61 -10.28,0 -18.61,8.33 -18.61,18.61 z" />
	
		<linearGradient
   gradientTransform="matrix(-1,0,0,1,5661.4746,0)"
   y2="359.83319"
   x2="5551.5039"
   y1="383.83981"
   x1="5551.5039"
   gradientUnits="userSpaceOnUse"
   id="SVGID_35_">
		<stop
   id="stop464"
   style="stop-color:#1F1F1F"
   offset="0" />
		<stop
   id="stop466"
   style="stop-color:#010101"
   offset="1" />
	</linearGradient>
	<path
   style="fill:url(#SVGID_35_)"
   id="path468"
   d="m 92.77,367.01 c 0,9.5 7.7,17.2 17.2,17.2 9.5,0 17.21,-7.7 17.21,-17.2 0,-9.5 -7.7,-17.2 -17.21,-17.2 -9.5,0 -17.2,7.7 -17.2,17.2 z" />
	
		<linearGradient
   gradientTransform="matrix(-1,0,0,1,5661.4746,0)"
   y2="384.38531"
   x2="5551.5039"
   y1="354.75101"
   x1="5551.5039"
   gradientUnits="userSpaceOnUse"
   id="SVGID_36_">
		<stop
   id="stop471"
   style="stop-color:#616161"
   offset="0" />
		<stop
   id="stop473"
   style="stop-color:#000000"
   offset="1" />
	</linearGradient>
	<path
   style="fill:url(#SVGID_36_)"
   id="path475"
   d="m 100.22,367.01 c 0,5.39 4.37,9.75 9.75,9.75 5.39,0 9.76,-4.37 9.76,-9.75 0,-5.38 -4.37,-9.75 -9.76,-9.75 -5.39,0 -9.75,4.37 -9.75,9.75 z" />
	<g
   id="g477">
		
			<linearGradient
   gradientTransform="matrix(-1,0,0,1,5661.4746,0)"
   y2="368.97861"
   x2="5551.5049"
   y1="363.83499"
   x1="5551.5049"
   gradientUnits="userSpaceOnUse"
   id="SVGID_37_">
			<stop
   id="stop480"
   style="stop-color:#7A7A7A"
   offset="0" />
			<stop
   id="stop482"
   style="stop-color:#3D3D3D"
   offset="1" />
		</linearGradient>
		<path
   style="fill:url(#SVGID_37_)"
   id="path484"
   d="m 116.55,367.01 c 0,3.63 -2.95,6.57 -6.58,6.57 l 0,0 c -3.63,0 -6.57,-2.94 -6.57,-6.57 l 0,0 c 0.01,-3.63 2.95,-6.57 6.57,-6.57 l 0,0 c 3.63,0 6.58,2.94 6.58,6.57 l 0,0 z m -2.58,0 c 0,-2.21 -1.79,-4 -4,-4 l 0,0 c -2.21,0 -3.99,1.79 -4,4 l 0,0 c 0.01,2.21 1.79,4 4,4 l 0,0 c 2.21,0 4,-1.79 4,-4 l 0,0 z" />
	</g>
	
		<linearGradient
   gradientTransform="matrix(-1,0,0,1,5661.4746,0)"
   y2="397.05759"
   x2="5362.1953"
   y1="324.9678"
   x1="5362.1953"
   gradientUnits="userSpaceOnUse"
   id="SVGID_38_">
		<stop
   id="stop487"
   style="stop-color:#141414"
   offset="0" />
		<stop
   id="stop489"
   style="stop-color:#010101"
   offset="1" />
	</linearGradient>
	<circle
   style="fill:url(#SVGID_38_)"
   id="circle491"
   r="36.040001"
   cy="361.01001"
   cx="299.28" />
	<g
   id="g493">
		
			<linearGradient
   gradientTransform="matrix(-1,0,0,1,5661.4746,0)"
   y2="389.0864"
   x2="5362.1963"
   y1="331.48239"
   x1="5362.1963"
   gradientUnits="userSpaceOnUse"
   id="SVGID_39_">
			<stop
   id="stop496"
   style="stop-color:#616161"
   offset="0" />
			<stop
   id="stop498"
   style="stop-color:#5D5D5D"
   offset="0.0307" />
			<stop
   id="stop500"
   style="stop-color:#2B2B2B"
   offset="0.4754" />
			<stop
   id="stop502"
   style="stop-color:#0C0C0C"
   offset="0.8124" />
			<stop
   id="stop504"
   style="stop-color:#000000"
   offset="1" />
		</linearGradient>
		<path
   style="fill:url(#SVGID_39_)"
   id="path506"
   d="m 330.69,361.01 c 0,17.35 -14.06,31.41 -31.42,31.42 l 0,0 c -17.35,0 -31.42,-14.07 -31.42,-31.42 l 0,0 c 0,-17.35 14.07,-31.42 31.42,-31.42 l 0,0 c 17.36,0.01 31.42,14.07 31.42,31.42 l 0,0 z m -5.14,0 c -0.03,-14.51 -11.77,-26.25 -26.28,-26.27 l 0,0 c -14.51,0.03 -26.24,11.77 -26.27,26.27 l 0,0 c 0.03,14.51 11.77,26.25 26.27,26.27 l 0,0 c 14.52,-0.02 26.25,-11.76 26.28,-26.27 l 0,0 z" />
	</g>
	
		<linearGradient
   gradientTransform="matrix(-1,0,0,1,5661.4746,0)"
   y2="337.14001"
   x2="5362.1982"
   y1="382.40039"
   x1="5362.1982"
   gradientUnits="userSpaceOnUse"
   id="SVGID_40_">
		<stop
   id="stop509"
   style="stop-color:#616161"
   offset="0" />
		<stop
   id="stop511"
   style="stop-color:#5D5D5D"
   offset="0.0307" />
		<stop
   id="stop513"
   style="stop-color:#2B2B2B"
   offset="0.4754" />
		<stop
   id="stop515"
   style="stop-color:#0C0C0C"
   offset="0.8124" />
		<stop
   id="stop517"
   style="stop-color:#000000"
   offset="1" />
	</linearGradient>
	<path
   style="fill:url(#SVGID_40_)"
   id="path519"
   d="m 276.95,362.04 c 0,12.34 10,22.33 22.33,22.33 12.33,0 22.33,-10 22.33,-22.33 0,-12.33 -10,-22.33 -22.33,-22.33 -12.33,0 -22.33,10 -22.33,22.33 z" />
	
		<linearGradient
   gradientTransform="matrix(-1,0,0,1,5661.4746,0)"
   y2="352.3988"
   x2="5362.1953"
   y1="381.2012"
   x1="5362.1953"
   gradientUnits="userSpaceOnUse"
   id="SVGID_41_">
		<stop
   id="stop522"
   style="stop-color:#1F1F1F"
   offset="0" />
		<stop
   id="stop524"
   style="stop-color:#010101"
   offset="1" />
	</linearGradient>
	<path
   style="fill:url(#SVGID_41_)"
   id="path526"
   d="m 278.64,361.01 c 0,11.4 9.24,20.64 20.64,20.64 11.4,0 20.64,-9.24 20.64,-20.64 0,-11.4 -9.24,-20.64 -20.64,-20.64 -11.4,0 -20.64,9.25 -20.64,20.64 z" />
	
		<linearGradient
   gradientTransform="matrix(-1,0,0,1,5661.4746,0)"
   y2="381.85269"
   x2="5362.1953"
   y1="346.2998"
   x1="5362.1953"
   gradientUnits="userSpaceOnUse"
   id="SVGID_42_">
		<stop
   id="stop529"
   style="stop-color:#616161"
   offset="0" />
		<stop
   id="stop531"
   style="stop-color:#000000"
   offset="1" />
	</linearGradient>
	<circle
   style="fill:url(#SVGID_42_)"
   id="circle533"
   r="11.7"
   cy="361.01001"
   cx="299.28" />
	<g
   id="g535">
		
			<linearGradient
   gradientTransform="matrix(-1,0,0,1,5661.4746,0)"
   y2="363.36981"
   x2="5362.1953"
   y1="357.19821"
   x1="5362.1953"
   gradientUnits="userSpaceOnUse"
   id="SVGID_43_">
			<stop
   id="stop538"
   style="stop-color:#7A7A7A"
   offset="0" />
			<stop
   id="stop540"
   style="stop-color:#3D3D3D"
   offset="1" />
		</linearGradient>
		<path
   style="fill:url(#SVGID_43_)"
   id="path542"
   d="m 307.17,361.01 c 0,4.36 -3.53,7.88 -7.89,7.88 l 0,0 c -4.35,0 -7.89,-3.53 -7.89,-7.88 l 0,0 c 0,-4.36 3.53,-7.89 7.89,-7.89 l 0,0 c 4.36,0.01 7.89,3.54 7.89,7.89 l 0,0 z m -3.09,0 c -0.01,-2.65 -2.15,-4.8 -4.8,-4.8 l 0,0 c -2.65,0 -4.8,2.15 -4.8,4.8 l 0,0 c 0,2.65 2.14,4.8 4.8,4.8 l 0,0 c 2.65,0 4.8,-2.15 4.8,-4.8 l 0,0 z" />
	</g>
	
		<linearGradient
   gradientTransform="matrix(-1,0,0,1,5661.4746,0)"
   y2="300.32529"
   x2="5562.1348"
   y1="310.48239"
   x1="5562.1348"
   gradientUnits="userSpaceOnUse"
   id="SVGID_44_">
		<stop
   id="stop545"
   style="stop-color:#FFFFFF"
   offset="0" />
		<stop
   id="stop547"
   style="stop-color:#FBF5E8"
   offset="0.1387" />
		<stop
   id="stop549"
   style="stop-color:#F0DAAC"
   offset="0.4307" />
		<stop
   id="stop551"
   style="stop-color:#DFAF4C"
   offset="0.8486" />
		<stop
   id="stop553"
   style="stop-color:#D99F28"
   offset="1" />
	</linearGradient>
	<rect
   style="fill:url(#SVGID_44_)"
   id="rect555"
   height="1.3"
   width="74.57"
   y="308.32999"
   x="62.049999" />
	
		<linearGradient
   gradientTransform="matrix(-1,0,0,1,5661.4746,0)"
   y2="305.4624"
   x2="5562.1348"
   y1="293.43549"
   x1="5562.1348"
   gradientUnits="userSpaceOnUse"
   id="SVGID_45_">
		<stop
   id="stop558"
   style="stop-color:#000000"
   offset="0" />
		<stop
   id="stop560"
   style="stop-color:#D07928"
   offset="1" />
	</linearGradient>
	<rect
   style="fill:url(#SVGID_45_)"
   id="rect562"
   height="1.3"
   width="74.57"
   y="307.22"
   x="62.049999" />
	
		<linearGradient
   gradientTransform="matrix(0,-1,-1,0,4600.6318,3339.5732)"
   y2="4415.4536"
   x2="3193.6006"
   y1="4430.0811"
   x1="3193.6006"
   gradientUnits="userSpaceOnUse"
   id="SVGID_46_">
		<stop
   id="stop565"
   style="stop-color:#F04C25"
   offset="0" />
		<stop
   id="stop567"
   style="stop-color:#F47A20"
   offset="1" />
	</linearGradient>
	<path
   style="fill:url(#SVGID_46_)"
   id="path569"
   d="m 187.32,145.7 0,4.32 -15.7,0 0,-4.32 c 0,-2.08 1.69,-3.77 3.77,-3.77 l 8.16,0 c 2.08,0 3.77,1.69 3.77,3.77 z" />
	
		<linearGradient
   gradientTransform="matrix(0,-1,-1,0,4600.6318,3339.5732)"
   y2="4437.1006"
   x2="3185.9863"
   y1="4415.6943"
   x1="3185.9863"
   gradientUnits="userSpaceOnUse"
   id="SVGID_47_">
		<stop
   id="stop572"
   style="stop-color:#6E6E6E"
   offset="0" />
		<stop
   id="stop574"
   style="stop-color:#010101"
   offset="1" />
	</linearGradient>
	<path
   style="fill:url(#SVGID_47_)"
   id="path576"
   d="m 187.32,149.54 0,4.32 c 0,2.08 -1.69,3.77 -3.77,3.77 l -8.16,0 c -2.08,0 -3.77,-1.69 -3.77,-3.77 l 0,-4.32 15.7,0 z" />
	
		<linearGradient
   gradientTransform="matrix(-1,0,0,1,5661.4746,0)"
   y2="373.22519"
   x2="5249.6699"
   y1="277.40619"
   x1="5249.6699"
   gradientUnits="userSpaceOnUse"
   id="SVGID_48_">
		<stop
   id="stop579"
   style="stop-color:#CB905B"
   offset="0" />
		<stop
   id="stop581"
   style="stop-color:#C98E5A"
   offset="0.5142" />
		<stop
   id="stop583"
   style="stop-color:#C28853"
   offset="0.6994" />
		<stop
   id="stop585"
   style="stop-color:#B87F4A"
   offset="0.8309" />
		<stop
   id="stop587"
   style="stop-color:#B27944"
   offset="0.8846" />
		<stop
   id="stop589"
   style="stop-color:#955F27"
   offset="0.9861" />
		<stop
   id="stop591"
   style="stop-color:#915C25"
   offset="1" />
	</linearGradient>
	<path
   style="fill:url(#SVGID_48_)"
   id="path593"
   d="m 361.17,366.14 c 0,3.65 2.97,6.62 6.62,6.62 l 88.03,0 c 3.65,0 6.61,-2.96 6.61,-6.62 l 0,-88.03 c 0,-3.66 -2.96,-6.62 -6.61,-6.62 l -88.03,0 c -3.65,0 -6.62,2.96 -6.62,6.62 l 0,88.03 z" />
	
		<linearGradient
   gradientTransform="matrix(-1,0,0,1,5661.4746,0)"
   y2="314.04529"
   x2="5249.7197"
   y1="292.54489"
   x1="5249.7197"
   gradientUnits="userSpaceOnUse"
   id="SVGID_49_">
		<stop
   id="stop596"
   style="stop-color:#D7BA87"
   offset="5.154640e-03" />
		<stop
   id="stop598"
   style="stop-color:#DBB58A"
   offset="1" />
	</linearGradient>
	<path
   style="fill:url(#SVGID_49_)"
   id="path600"
   d="m 455.62,275.79 -87.75,0 c -1.52,0 -2.91,0.52 -4.02,1.38 1.07,-2 3.18,-3.36 5.61,-3.36 l 84.58,0 c 2.43,0 4.54,1.36 5.61,3.36 -1.11,-0.86 -2.51,-1.38 -4.03,-1.38 z" />
	
		<linearGradient
   gradientTransform="matrix(-1,0,0,1,5661.4746,0)"
   y2="263.81851"
   x2="5249.7197"
   y1="256.7598"
   x1="5249.7197"
   gradientUnits="userSpaceOnUse"
   id="SVGID_50_">
		<stop
   id="stop603"
   style="stop-color:#CFB774"
   offset="5.154640e-03" />
		<stop
   id="stop605"
   style="stop-color:#D0B379"
   offset="1" />
	</linearGradient>
	<path
   style="fill:url(#SVGID_50_)"
   id="path607"
   d="m 401.1,292.54 c 0,0.56 0.45,1.01 1.02,1.01 l 19.29,0 c 0.56,0 1.02,-0.45 1.02,-1.01 l 0,-21 -21.33,0 0,21 z" />
	
		<linearGradient
   gradientTransform="matrix(-1,0,0,1,5661.4746,0)"
   y2="372.6608"
   x2="5249.7197"
   y1="272.30469"
   x1="5249.7197"
   gradientUnits="userSpaceOnUse"
   id="SVGID_51_">
		<stop
   id="stop610"
   style="stop-color:#CCA45F"
   offset="5.154640e-03" />
		<stop
   id="stop612"
   style="stop-color:#C9A15F"
   offset="0.504" />
		<stop
   id="stop614"
   style="stop-color:#BE985C"
   offset="0.7066" />
		<stop
   id="stop616"
   style="stop-color:#AF8A59"
   offset="0.855" />
		<stop
   id="stop618"
   style="stop-color:#997854"
   offset="0.9768" />
		<stop
   id="stop620"
   style="stop-color:#957452"
   offset="1" />
	</linearGradient>
	<path
   style="fill:url(#SVGID_51_)"
   id="path622"
   d="m 401.1,351.8 c 0,-0.56 0.45,-1.01 1.02,-1.01 l 19.29,0 c 0.56,0 1.02,0.45 1.02,1.01 l 0,20.7 -21.33,0 0,-20.7 z" />
	
		<linearGradient
   gradientTransform="matrix(-1,0,0,1,5661.4746,0)"
   y2="298.18799"
   x2="5249.7197"
   y1="303.31931"
   x1="5249.7197"
   gradientUnits="userSpaceOnUse"
   id="SVGID_52_">
		<stop
   id="stop625"
   style="stop-color:#CCBB76"
   offset="5.154640e-03" />
		<stop
   id="stop627"
   style="stop-color:#D1C38E"
   offset="1" />
	</linearGradient>
	<rect
   style="fill:url(#SVGID_52_)"
   id="rect629"
   height="1.99"
   width="21.23"
   y="273.81"
   x="401.14001" />
	<rect
   style="fill:#ffffff"
   id="rect631"
   height="25.48"
   width="43.02"
   y="286.10001"
   x="368.75" />
	
		<linearGradient
   gradientTransform="matrix(-1,0,0,1,5661.4746,0)"
   y2="376.75421"
   x2="5255.0371"
   y1="245.5137"
   x1="5255.0371"
   gradientUnits="userSpaceOnUse"
   id="SVGID_53_">
		<stop
   id="stop634"
   style="stop-color:#CAAD62"
   offset="5.154640e-03" />
		<stop
   id="stop636"
   style="stop-color:#FFFFFF"
   offset="1" />
	</linearGradient>
	<path
   style="fill:url(#SVGID_53_)"
   id="path638"
   d="m 401.11,292.54 -0.01,-6.44 10.67,0 0,7.44 -9.66,0 c -0.56,0 -1,-0.45 -1,-1 z" />
	<rect
   style="fill:#231f20"
   id="rect640"
   height="20.299999"
   width="0.66000003"
   y="289.42999"
   x="377.59" />
	<rect
   style="fill:#231f20"
   id="rect642"
   height="20.299999"
   width="0.99000001"
   y="289.42999"
   x="381.42001" />
	<rect
   style="fill:#231f20"
   id="rect644"
   height="20.299999"
   width="2.6500001"
   y="289.42999"
   x="385.57001" />
	<rect
   style="fill:#231f20"
   id="rect646"
   height="20.299999"
   width="1.3200001"
   y="289.42999"
   x="390.88" />
	<rect
   style="fill:#231f20"
   id="rect648"
   height="20.299999"
   width="1.99"
   y="289.42999"
   x="394.53" />
	<rect
   style="fill:#231f20"
   id="rect650"
   height="20.299999"
   width="0.99000001"
   y="289.42999"
   x="399.01999" />
	<rect
   style="fill:#231f20"
   id="rect652"
   height="20.299999"
   width="2.3599999"
   y="289.42999"
   x="402.98001" />
	<rect
   style="fill:#231f20"
   id="rect654"
   height="20.299999"
   width="2.3599999"
   y="289.42999"
   x="372.76001" />
	<path
   style="fill:#4e4841"
   id="path656"
   d="m 436.43,360.68 1.75,0 0,-13.12 -0.27,0 c -2.98,0 -5.4,-2.42 -5.4,-5.4 l 0,-14.04 13.24,0 0,14.04 c 0,2.98 -2.42,5.4 -5.4,5.4 l -0.27,0 0,13.12 2.29,0 c 2.49,0 4.03,0.38 4.58,2.7 l -15.64,0 c 0.55,-2.32 2.63,-2.7 5.12,-2.7 z" />
	<g
   id="g658">
		<path
   style="fill:#4e4841"
   id="path660"
   d="m 392.72,349.83 c 0.78,-1.43 2.29,-2.4 4.03,-2.4 2.03,0 4,1.32 4.61,3.15 l 0.02,0 c 0.61,-1.83 2.41,-3.15 4.61,-3.15 2.26,0.01 4.13,1.32 4.74,3.15 l 0.03,0 c 0.61,-1.83 2.46,-3.17 4.65,-3.15 1.89,0.03 3.52,1.15 4.22,2.78 -0.22,-6.27 -6.16,-11.29 -13.46,-11.29 -7.16,0.01 -13.01,4.83 -13.45,10.91 z m 15.09,-9.77 c 0.16,-0.13 0.4,-0.09 0.52,0.07 0,0.01 0.01,0.01 0.02,0.03 1.06,1.34 2.26,3.62 2.63,7.28 0.03,0.13 -0.03,0.28 -0.14,0.37 -0.16,0.12 -0.39,0.09 -0.52,-0.08 -0.05,-0.06 -0.07,-0.13 -0.08,-0.21 -0.36,-3.56 -1.52,-5.71 -2.5,-6.93 l 0,0 0,0 c -0.13,-0.18 -0.09,-0.41 0.07,-0.53 z m -6.63,7.37 c 0.38,-3.66 1.58,-5.94 2.63,-7.28 0,0 0.01,-0.02 0.02,-0.03 0.12,-0.17 0.35,-0.2 0.52,-0.07 0.17,0.13 0.2,0.35 0.07,0.52 l 0,0.01 0,0 c -0.98,1.23 -2.14,3.37 -2.5,6.93 -0.01,0.07 -0.03,0.14 -0.07,0.21 -0.12,0.16 -0.36,0.2 -0.52,0.08 -0.12,-0.09 -0.17,-0.23 -0.15,-0.37 z" />
		<path
   style="fill:#4e4841"
   id="path662"
   d="m 405.55,349.45 c 0.01,-0.35 0.29,-0.63 0.63,-0.63 0.35,0 0.63,0.28 0.63,0.63 l 0,0 0,11.15 c 0,0.85 0.68,1.53 1.53,1.53 0.83,0 1.51,-0.67 1.53,-1.5 l 0,0 c 0,-0.35 0.28,-0.63 0.63,-0.63 0.35,0 0.63,0.28 0.63,0.63 0,0.02 0,0.04 0,0.04 -0.05,1.52 -1.28,2.72 -2.79,2.72 -1.54,0 -2.79,-1.25 -2.79,-2.79 l 0,-11.15 0,0 z" />
		<path
   style="fill:#5a624e"
   id="path664"
   d="m 406.81,350.74 0,9.86 c 0,0.85 0.68,1.53 1.53,1.53 0.83,0 1.51,-0.67 1.53,-1.5 l 0,0 c 0,-0.35 0.28,-0.63 0.63,-0.63 0.35,0 0.63,0.28 0.63,0.63 0,0.02 0,0.04 0,0.04 -0.05,1.52 -1.28,2.72 -2.79,2.72 -1.54,0 -2.79,-1.25 -2.79,-2.79 l 0,-9.86 1.26,0 z" />
	</g>
	<g
   id="g666">
		<path
   style="fill:#4e4841"
   id="path668"
   d="m 403.72,331.19 c 0,1.39 1.29,2.47 2.69,2.47 1.4,0 2.7,-1.15 2.68,-2.48 -0.01,-1.39 -1.54,-3.2 -2.73,-5.23 -1.09,2.06 -2.64,3.85 -2.64,5.24 z m 0.55,-0.07 c 0,0 0,-0.02 0,-0.03 l 0,0 0,-0.01 0,0 0,0 c 0.01,-0.17 0.14,-0.3 0.31,-0.3 0.16,0 0.3,0.13 0.3,0.3 l 0,0 0,0 0,0.01 0,0 c 0,0.01 0,0.02 0,0.02 0,0.38 0.17,0.71 0.45,0.96 0.28,0.25 0.66,0.4 1.05,0.4 l 0.01,0 0,0 0.01,0 0,0 0,0 c 0.16,0 0.3,0.13 0.3,0.3 0,0.17 -0.14,0.3 -0.3,0.3 l 0,0 -0.02,0 c -0.55,0 -1.07,-0.21 -1.46,-0.56 -0.39,-0.33 -0.65,-0.83 -0.65,-1.39 z" />
		<path
   style="fill:#4e4841"
   id="path670"
   d="m 393.84,336.51 c 0,1.3 1.2,2.31 2.51,2.31 1.31,0 2.53,-1.08 2.51,-2.32 -0.02,-1.3 -1.45,-2.99 -2.56,-4.89 -1.01,1.93 -2.46,3.6 -2.46,4.9 z m 0.52,-0.07 0,-0.03 0,0 0,0 0,0 0,0 c 0,-0.16 0.13,-0.28 0.28,-0.28 0.16,0 0.28,0.12 0.28,0.28 l 0.01,0 0,0 0,0 -0.01,0 0,0.02 c 0,0.35 0.16,0.66 0.42,0.89 0.26,0.23 0.62,0.37 0.98,0.37 l 0.01,0 0.01,0 0,0 0,0 0,0 c 0.15,0 0.28,0.13 0.28,0.28 0,0.16 -0.13,0.28 -0.28,0.29 l 0,0 -0.01,0 c -0.51,0 -1,-0.2 -1.37,-0.52 -0.36,-0.31 -0.6,-0.77 -0.6,-1.3 z" />
		<path
   style="fill:#4e4841"
   id="path672"
   d="m 414.41,335.6 c 0,1.06 0.97,1.88 2.04,1.88 1.07,0 2.06,-0.88 2.05,-1.89 -0.02,-1.06 -1.18,-2.44 -2.08,-3.98 -0.83,1.57 -2.01,2.94 -2.01,3.99 z m 0.42,-0.05 0,-0.03 0,0 0,0 0,0 0,0 c 0,-0.13 0.1,-0.23 0.23,-0.23 0.13,0 0.23,0.1 0.23,0.23 l 0,0 0,0 0,0 0,0 0,0.02 c 0,0.28 0.13,0.53 0.34,0.72 0.21,0.19 0.51,0.31 0.8,0.31 l 0.01,0 0,0 0.01,0 0,0 0,0 c 0.12,0 0.23,0.11 0.23,0.23 0,0.13 -0.11,0.23 -0.23,0.23 l 0,0 -0.01,0 c -0.42,0 -0.81,-0.16 -1.11,-0.42 -0.3,-0.25 -0.5,-0.63 -0.5,-1.06 z" />
	</g>
</g>
<line
   style="fill:none;stroke:#000000;stroke-width:2;stroke-miterlimit:10"
   id="line674"
   y2="219.08002"
   x2="257.87003"
   y1="316.91"
   x1="257.87003"
   stroke-miterlimit="10" />
<line
   style="fill:none;stroke:#000000;stroke-width:2;stroke-miterlimit:10"
   id="line676"
   y2="169.64999"
   x2="346.77002"
   y1="316.91"
   x1="346.77002"
   stroke-miterlimit="10" />
<line
   style="fill:none;stroke:#000000;stroke-width:1.92270005;stroke-miterlimit:10"
   id="line678"
   y2="295.17001"
   x2="268.23001"
   y1="295.17001"
   x1="340.81"
   stroke-miterlimit="10" />
<polygon
   transform="translate(-62.049999,-141.93)"
   id="polygon680"
   points="396.63,429.91 409.09,437.1 396.63,444.3 " />
<polygon
   transform="translate(-62.049999,-141.93)"
   id="polygon682"
   points="419.83,389.38 408.34,409.29 396.84,389.38 " />
<polygon
   transform="translate(-62.049999,-141.93)"
   id="polygon684"
   points="333.91,444.66 320.83,437.1 333.91,429.55 " />
<line
   style="fill:none;stroke:#000000;stroke-width:2.1573;stroke-miterlimit:10"
   id="line686"
   y2="252.64999"
   x2="573.01001"
   y1="252.64999"
   x1="645.84003"
   stroke-miterlimit="10" />
<polygon
   transform="translate(-62.049999,-141.93)"
   id="polygon688"
   points="642.69,403.2 628.35,394.92 642.69,386.63 " />
<polygon
   transform="translate(-62.049999,-141.93)"
   id="polygon690"
   points="700.12,386.63 714.47,394.92 700.12,403.2 " />
<circle
   id="circle692"
   r="10.94"
   cy="178.74002"
   cx="346.87003" />
<path
   id="path694"
   d="m 664.57,119.53 c 0,6.53 -5.29,11.83 -11.83,11.83 -6.54,0 -11.83,-5.29 -11.83,-11.83 0,-6.54 5.29,-11.83 11.83,-11.83 6.54,0 11.83,5.3 11.83,11.83 z" />
<line
   style="fill:none;stroke:#000000;stroke-width:1.96130002;stroke-miterlimit:10"
   id="line696"
   y2="270.89001"
   x2="566.29999"
   y1="69.840004"
   x1="566.29999"
   stroke-miterlimit="10" />
<line
   style="fill:none;stroke:#000000;stroke-width:1.96130002;stroke-miterlimit:10"
   id="line698"
   y2="270.89001"
   x2="652.73999"
   y1="99.969994"
   x1="652.73999"
   stroke-miterlimit="10" />
<line
   style="fill:none;stroke:#000000;stroke-width:1.96130002;stroke-miterlimit:10"
   id="line700"
   y2="232.12"
   x2="689.64001"
   y1="69.840004"
   x1="689.64001"
   stroke-miterlimit="10" />
<line
   style="fill:none;stroke:#000000;stroke-width:1.96130002;stroke-miterlimit:10"
   id="line702"
   y2="250.23001"
   x2="765.54999"
   y1="157.39001"
   x1="765.54999"
   stroke-miterlimit="10" />
<line
   style="fill:none;stroke:#000000;stroke-width:1.96130002;stroke-miterlimit:10"
   id="line704"
   y2="232.12"
   x2="801.39001"
   y1="182.33002"
   x1="801.39001"
   stroke-miterlimit="10" />
<line
   style="fill:none;stroke:#000000;stroke-width:1.96130002;stroke-miterlimit:10"
   id="line706"
   y2="250.23001"
   x2="839.34003"
   y1="208.69"
   x1="839.34003"
   stroke-miterlimit="10" />
<path
   style="fill:none;stroke:#000000;stroke-width:1.96130002;stroke-miterlimit:10"
   id="path708"
   d="m 689.64,94.56 c 0,0 43.22,46.33 63.25,62.83 20.03,16.5 37.96,33.83 54.82,45.41 16.86,11.58 45.33,23.81 45.33,23.81"
   stroke-miterlimit="10" />
<line
   style="fill:none;stroke:#000000;stroke-width:1.96130002;stroke-miterlimit:10"
   id="line710"
   y2="154.95001"
   x2="749.23999"
   y1="154.95001"
   x1="566.29999"
   stroke-miterlimit="10" />
<line
   style="fill:none;stroke:#000000;stroke-width:1.96130002;stroke-miterlimit:10"
   id="line712"
   y2="190.46002"
   x2="811.65002"
   y1="190.46002"
   x1="543.66998"
   stroke-miterlimit="10" />
<line
   style="fill:none;stroke:#000000;stroke-width:1.96130002;stroke-miterlimit:10"
   id="line714"
   y2="202.30002"
   x2="807.72003"
   y1="202.30002"
   x1="566.29999"
   stroke-miterlimit="10" />
<line
   style="fill:none;stroke:#000000;stroke-width:1.96130002;stroke-miterlimit:10"
   id="line716"
   y2="166.79001"
   x2="778.54004"
   y1="166.79001"
   x1="543.66998"
   stroke-miterlimit="10" />
<line
   style="fill:none;stroke:#000000;stroke-width:1.96130002;stroke-miterlimit:10"
   id="line718"
   y2="178.62"
   x2="778.54004"
   y1="178.62"
   x1="566.29999"
   stroke-miterlimit="10" />
<line
   style="fill:none;stroke:#000000;stroke-width:1.96130002;stroke-miterlimit:10"
   id="line720"
   y2="143.11002"
   x2="749.23999"
   y1="143.11002"
   x1="543.66998"
   stroke-miterlimit="10" />
<line
   style="fill:none;stroke:#000000;stroke-width:1.96130002;stroke-miterlimit:10"
   id="line722"
   y2="119.24999"
   x2="724.29999"
   y1="119.24999"
   x1="543.66998"
   stroke-miterlimit="10" />
<line
   style="fill:none;stroke:#000000;stroke-width:1.96130002;stroke-miterlimit:10"
   id="line724"
   y2="94.560005"
   x2="689.64001"
   y1="94.560005"
   x1="543.66998"
   stroke-miterlimit="10" />
<line
   style="fill:none;stroke:#000000;stroke-width:1.96130002;stroke-miterlimit:10"
   id="line726"
   y2="214.14001"
   x2="846.54999"
   y1="214.14001"
   x1="543.66998"
   stroke-miterlimit="10" />
</svg>