<?xml version="1.0" encoding="UTF-8" standalone="no"?>
<svg
   xmlns:dc="http://purl.org/dc/elements/1.1/"
   xmlns:cc="http://creativecommons.org/ns#"
   xmlns:rdf="http://www.w3.org/1999/02/22-rdf-syntax-ns#"
   xmlns:svg="http://www.w3.org/2000/svg"
   xmlns="http://www.w3.org/2000/svg"
   xml:space="preserve"
   enable-background="new 0 0 966 672"
   viewBox="0 0 400.37546 393.51001"
   height="393.51001"
   width="400.37546"
   y="0px"
   x="0px"
   id="Capa_1"
   version="1.1"><metadata
   id="metadata678"><rdf:RDF><cc:Work
       rdf:about=""><dc:format>image/svg+xml</dc:format><dc:type
         rdf:resource="http://purl.org/dc/dcmitype/StillImage" /><dc:title></dc:title></cc:Work></rdf:RDF></metadata><defs
   id="defs676" />
<g
   transform="translate(-249.64455,-107.7)"
   id="g3">
	<path
   id="path5"
   d="m 542.73,390.11 c 0.43,-0.45 1.3,-0.82 2.03,-0.82 1.94,0 2.59,1.62 2.59,3.59 0,2.3 -0.61,4.54 -2.74,4.54 -1.12,0 -1.71,-0.29 -2.22,-0.78 -0.08,0.22 -0.34,0.78 -0.51,0.78 -0.06,0 -0.16,-0.06 -0.22,-0.11 l -0.4,-0.26 c -0.13,-0.08 -0.24,-0.13 -0.24,-0.21 0,-0.08 0.13,-0.19 0.24,-0.46 0.14,-0.26 0.26,-0.62 0.26,-1.14 l 0,-9.22 c 0,-0.11 0.05,-0.18 0.11,-0.19 l 0.8,-0.19 c 0.13,-0.03 0.08,-0.02 0.19,-0.03 0.11,0 0.11,0.13 0.11,0.21 l 0,4.29 z m 0,5.64 c 0.37,0.26 0.96,0.61 1.67,0.61 1.5,0 1.65,-1.84 1.65,-3.51 0,-1.23 -0.13,-2.48 -1.42,-2.48 -0.93,0 -1.23,0.35 -1.89,0.8 l 0,4.58 z" />
</g>
<g
   transform="translate(-249.64455,-107.7)"
   id="g7">
	<path
   id="path9"
   d="m 620.78,392.41 c 0.06,-0.32 0.16,-0.32 0.24,-0.32 0.1,0 0.18,0.02 0.24,0.03 l 1.2,0.24 c 0.13,0.03 0.3,0.06 0.3,0.16 0,0.08 -0.05,0.24 -0.08,0.35 l -2.34,10.18 c -0.06,0.22 -0.11,0.29 -0.35,0.29 l -1.38,0 c -0.29,0 -0.3,-0.05 -0.35,-0.29 l -1.06,-5.38 c -0.14,-0.72 -0.29,-1.71 -0.37,-2.77 l -0.03,0 c -0.08,1.07 -0.22,2.03 -0.4,2.77 l -1.3,5.38 c -0.06,0.24 -0.06,0.29 -0.35,0.29 l -1.38,0 c -0.24,0 -0.3,-0.06 -0.35,-0.29 l -2.08,-10.2 c -0.02,-0.11 -0.06,-0.26 -0.06,-0.35 0,-0.09 0.18,-0.13 0.3,-0.16 l 1.25,-0.22 c 0.06,-0.02 0.14,-0.03 0.24,-0.03 0.08,0 0.18,0 0.24,0.32 l 0.96,5.19 c 0.16,0.88 0.29,2.21 0.35,3.03 l 0.03,0 c 0.1,-0.91 0.32,-2.21 0.51,-3.03 l 1.14,-4.88 c 0.08,-0.34 0.1,-0.48 0.48,-0.48 l 1.09,0 c 0.26,0 0.27,0.14 0.35,0.48 l 1.14,4.88 c 0.19,0.82 0.35,2.11 0.45,3.03 l 0.03,0 c 0.06,-0.82 0.21,-2.14 0.37,-3.03 l 0.97,-5.19 z" />
</g>
<g
   transform="translate(-249.64455,-107.7)"
   id="g11">
	<path
   id="path13"
   d="m 354.4,402.86 c 0,0.29 -0.06,0.34 -0.34,0.34 l -1.49,0 c -0.27,0 -0.34,-0.05 -0.34,-0.34 l 0,-10.29 c 0,-0.29 0.06,-0.34 0.34,-0.34 l 2.59,0 c 1.3,0 3.73,0 3.73,3.01 0,2.64 -1.97,3.57 -3.65,3.57 l -0.85,0 0,4.05 z m 0.5,-5.73 c 0.94,0 1.84,-0.16 1.84,-1.78 0,-1.39 -0.85,-1.44 -1.68,-1.44 l -0.66,0 0,3.22 0.5,0 z" />
</g>
<g
   transform="translate(-249.64455,-107.7)"
   id="g15">
	<path
   id="path17"
   d="m 555.6,119.22 c 0.05,0.11 0.09,0.18 0.09,0.27 0,0.31 -1.22,1.15 -2.99,1.15 -3.15,0 -4.66,-2.05 -4.66,-6.37 0,-4.14 1.55,-6.57 4.66,-6.57 1.35,0 2.95,0.99 2.95,1.33 0,0.07 0,0.14 -0.09,0.27 l -0.67,1.01 c -0.07,0.11 -0.14,0.18 -0.22,0.18 -0.31,0 -0.9,-0.85 -1.85,-0.85 -1.55,0 -2.23,1.06 -2.23,4.16 0,3.06 0.38,4.9 2.23,4.9 1.01,0 1.66,-0.67 2.02,-0.67 0.07,0 0.13,0.05 0.2,0.18 l 0.56,1.01 z" />
	<path
   id="path19"
   d="m 564.1,119.38 c 0.04,0.05 0.05,0.12 0.05,0.2 0,0.47 -1.8,1.06 -3.22,1.06 -2.38,0 -4.03,-1.35 -4.03,-4.66 0,-2.86 1.53,-4.84 3.94,-4.84 3.06,0 3.6,2.74 3.6,4.92 0,0.34 -0.07,0.45 -0.41,0.45 l -4.84,0 c 0,1.01 0.29,2.25 1.98,2.25 1.3,0 2.03,-0.59 2.29,-0.59 0.09,0 0.16,0.07 0.2,0.14 l 0.44,1.07 z m -2.09,-4.55 c 0,-0.74 -0.05,-2.02 -1.3,-2.02 -1.4,0 -1.48,1.51 -1.53,2.02 l 2.83,0 z" />
	<path
   id="path21"
   d="m 573.57,120.09 c 0,0.2 -0.04,0.25 -0.25,0.25 l -1.78,0 c -0.22,0 -0.25,-0.05 -0.25,-0.25 l 0,-5.54 c 0,-0.68 -0.09,-1.51 -1.01,-1.51 -0.76,0 -1.35,0.52 -1.58,0.74 l 0,6.32 c 0,0.2 -0.04,0.25 -0.25,0.25 l -1.78,0 c -0.22,0 -0.25,-0.05 -0.25,-0.25 l 0,-5.44 c 0,-2.54 -0.34,-2.39 -0.34,-2.81 0,-0.09 0.07,-0.16 0.2,-0.2 l 1.37,-0.45 c 0.11,-0.04 0.2,-0.05 0.27,-0.05 0.23,0 0.38,0.4 0.58,1.24 0.52,-0.47 1.33,-1.24 2.76,-1.24 0.99,0 2.34,0.45 2.34,2.63 l 0,6.31 z" />
	<path
   id="path23"
   d="m 581.42,119.82 c 0.02,0.09 0.04,0.09 0.04,0.14 0,0.34 -1.31,0.68 -2.54,0.68 -2.32,0 -2.32,-1.82 -2.32,-3.47 l 0,-4.05 -1.28,0 c -0.22,0 -0.25,-0.05 -0.25,-0.25 l 0,-1.17 c 0,-0.2 0.04,-0.25 0.25,-0.25 l 1.28,0 0,-2.27 c 0,-0.23 0.04,-0.29 0.29,-0.32 l 1.58,-0.22 c 0.05,0 0.13,-0.02 0.23,-0.02 0.16,0 0.18,0.09 0.18,0.31 l 0,2.52 2.05,0 c 0.16,0 0.31,0 0.31,0.2 0,0.04 0,0.07 -0.02,0.14 l -0.23,1.06 c -0.05,0.25 -0.11,0.27 -0.32,0.27 l -1.78,0 0,4.36 c 0,0.58 0,1.1 0.61,1.1 0.72,0 1.17,-0.34 1.42,-0.34 0.07,0 0.13,0.04 0.14,0.11 l 0.36,1.47 z" />
	<path
   id="path25"
   d="m 585.03,120.09 c 0,0.2 -0.04,0.25 -0.25,0.25 l -1.78,0 c -0.22,0 -0.25,-0.05 -0.25,-0.25 l 0,-5.44 c 0,-1.98 -0.47,-2.3 -0.47,-2.72 0,-0.07 0.07,-0.13 0.16,-0.16 l 1.37,-0.56 c 0.07,-0.02 0.16,-0.07 0.23,-0.07 0.22,0 0.58,0.81 0.67,1.42 0.34,-0.41 1.01,-1.42 2.23,-1.42 0.52,0 1.04,0.18 1.04,0.41 0,0.07 -0.02,0.14 -0.04,0.18 l -0.56,1.51 c -0.02,0.05 -0.07,0.16 -0.14,0.16 -0.11,0 -0.43,-0.2 -0.85,-0.2 -0.56,0 -1.13,0.61 -1.37,0.86 l 0,6.03 z" />
	<path
   id="path27"
   d="m 592.49,120.64 c -2.43,0 -3.91,-1.85 -3.91,-4.75 0,-2.9 1.48,-4.75 3.91,-4.75 2.41,0 3.91,1.85 3.91,4.75 -0.01,2.9 -1.48,4.75 -3.91,4.75 z m 1.47,-4.75 c 0,-1.67 -0.23,-2.95 -1.48,-2.95 -1.24,0 -1.48,1.28 -1.48,2.95 0,1.67 0.21,2.95 1.48,2.95 1.27,0 1.48,-1.26 1.48,-2.95 z" />
	<path
   id="path29"
   d="m 547.13,138.57 c -0.07,0.02 -0.16,0.07 -0.23,0.07 -0.16,0 -0.43,-0.63 -0.52,-1.08 -0.29,0.27 -1.08,1.08 -2.38,1.08 -2.05,0 -3.08,-1.66 -3.08,-4.39 0,-3.4 1.22,-5.11 3.46,-5.11 0.97,0 1.39,0.34 1.67,0.54 l 0,-3.69 c 0,-0.27 0.13,-0.27 0.34,-0.32 l 1.51,-0.31 c 0.05,0 0.22,-0.05 0.25,-0.05 0.14,0 0.18,0.07 0.18,0.38 l 0,9.83 c 0,1.75 0.32,1.98 0.32,2.34 0,0.07 -0.07,0.13 -0.16,0.16 l -1.36,0.55 z m -1.08,-7.27 c -0.16,-0.09 -0.47,-0.36 -1.22,-0.36 -1.35,0 -1.62,1.01 -1.62,3.01 0,2.03 0.34,2.9 1.51,2.9 0.81,0 1.12,-0.4 1.33,-0.63 l 0,-4.92 z" />
	<path
   id="path31"
   d="m 557.45,137.38 c 0.04,0.05 0.05,0.12 0.05,0.2 0,0.47 -1.8,1.06 -3.22,1.06 -2.38,0 -4.03,-1.35 -4.03,-4.66 0,-2.86 1.53,-4.84 3.94,-4.84 3.06,0 3.6,2.74 3.6,4.92 0,0.34 -0.07,0.45 -0.42,0.45 l -4.84,0 c 0,1.01 0.29,2.25 1.98,2.25 1.3,0 2.03,-0.59 2.29,-0.59 0.09,0 0.16,0.07 0.2,0.14 l 0.45,1.07 z m -2.09,-4.55 c 0,-0.74 -0.05,-2.02 -1.3,-2.02 -1.4,0 -1.48,1.51 -1.53,2.02 l 2.83,0 z" />
	<path
   id="path33"
   d="m 571.06,137.51 c 0.02,0.05 0.05,0.13 0.05,0.18 0,0.43 -1.46,0.96 -2.54,0.96 -2.5,0 -4,-1.53 -4,-4.57 0,-3.04 1.53,-4.93 4.2,-4.93 0.97,0 2.56,0.54 2.56,1.1 0,0.05 -0.04,0.11 -0.05,0.16 l -0.67,1.17 c -0.04,0.04 -0.07,0.09 -0.13,0.09 -0.18,0 -0.77,-0.72 -1.71,-0.72 -1.22,0 -1.76,0.94 -1.76,3.01 0,1.98 0.47,2.9 1.85,2.9 0.92,0 1.28,-0.61 1.6,-0.61 0.05,0 0.09,0.04 0.13,0.09 l 0.47,1.17 z" />
	<path
   id="path35"
   d="m 577.93,138.57 c -0.07,0.02 -0.16,0.07 -0.23,0.07 -0.16,0 -0.43,-0.63 -0.52,-1.08 -0.36,0.36 -0.99,1.08 -2.34,1.08 -1.66,0 -2.7,-1.08 -2.7,-2.77 0,-3.04 3.28,-3.04 4.7,-3.04 l 0,-0.56 c 0,-0.81 -0.14,-1.33 -1.28,-1.33 -1.01,0 -2,0.54 -2.23,0.54 -0.09,0 -0.16,-0.11 -0.18,-0.18 l -0.36,-1.1 c -0.04,-0.07 -0.05,-0.14 -0.05,-0.21 0,-0.41 1.78,-0.85 3.17,-0.85 2.25,0 3.1,1.03 3.1,2.9 l 0,3.47 c 0,1.75 0.47,1.98 0.47,2.34 0,0.07 -0.07,0.13 -0.16,0.16 l -1.39,0.56 z m -1.1,-4.27 c -0.45,0 -2.54,-0.14 -2.54,1.44 0,0.7 0.5,1.22 1.19,1.22 0.67,0 1.13,-0.47 1.35,-0.69 l 0,-1.97 z" />
	<path
   id="path37"
   d="m 583.71,138.09 c 0,0.2 -0.04,0.25 -0.25,0.25 l -1.78,0 c -0.22,0 -0.25,-0.05 -0.25,-0.25 l 0,-5.44 c 0,-1.98 -0.47,-2.3 -0.47,-2.72 0,-0.07 0.07,-0.13 0.16,-0.16 l 1.37,-0.56 c 0.07,-0.02 0.16,-0.07 0.23,-0.07 0.22,0 0.58,0.81 0.67,1.42 0.34,-0.41 1.01,-1.42 2.23,-1.42 0.52,0 1.04,0.18 1.04,0.41 0,0.07 -0.02,0.14 -0.04,0.18 l -0.56,1.51 c -0.02,0.05 -0.07,0.16 -0.14,0.16 -0.11,0 -0.43,-0.2 -0.85,-0.2 -0.56,0 -1.13,0.61 -1.37,0.86 l 0,6.03 z" />
	<path
   id="path39"
   d="m 594.46,134.85 c 0,1.19 0.09,3.04 0.09,4.05 0,1.96 -0.97,3.26 -3.47,3.26 -1.4,0 -3.73,-0.58 -3.73,-0.96 0,-0.13 0.02,-0.2 0.07,-0.36 l 0.34,-1.1 c 0.04,-0.12 0.11,-0.18 0.2,-0.18 0.22,0 1.31,0.7 2.92,0.7 1.26,0 1.48,-0.52 1.48,-1.53 0,-0.63 -0.05,-1.06 -0.05,-1.19 -0.27,0.18 -0.96,0.68 -2.18,0.68 -2.02,0 -3.08,-1.69 -3.08,-4.39 0,-2.9 1.26,-4.7 3.4,-4.7 1.28,0 1.8,0.56 2.14,0.85 0.05,-0.16 0.38,-0.85 0.63,-0.85 0.05,0 0.13,0.02 0.18,0.04 l 1.4,0.52 c 0.07,0.04 0.16,0.09 0.16,0.16 0,0.23 -0.5,0.88 -0.5,2.3 l 0,2.7 z m -2.16,-3.28 c -0.23,-0.18 -0.61,-0.54 -1.42,-0.54 -1.08,0 -1.55,1.01 -1.55,2.74 0,1.64 0.36,2.66 1.44,2.66 0.92,0 1.35,-0.45 1.53,-0.61 l 0,-4.25 z" />
	<path
   id="path41"
   d="m 601.92,138.57 c -0.07,0.02 -0.16,0.07 -0.23,0.07 -0.16,0 -0.43,-0.63 -0.52,-1.08 -0.36,0.36 -0.99,1.08 -2.34,1.08 -1.66,0 -2.7,-1.08 -2.7,-2.77 0,-3.04 3.28,-3.04 4.7,-3.04 l 0,-0.56 c 0,-0.81 -0.14,-1.33 -1.28,-1.33 -1.01,0 -2,0.54 -2.23,0.54 -0.09,0 -0.16,-0.11 -0.18,-0.18 l -0.36,-1.1 c -0.04,-0.07 -0.05,-0.14 -0.05,-0.21 0,-0.41 1.78,-0.85 3.17,-0.85 2.25,0 3.1,1.03 3.1,2.9 l 0,3.47 c 0,1.75 0.47,1.98 0.47,2.34 0,0.07 -0.07,0.13 -0.16,0.16 l -1.39,0.56 z m -1.09,-4.27 c -0.45,0 -2.54,-0.14 -2.54,1.44 0,0.7 0.5,1.22 1.19,1.22 0.67,0 1.13,-0.47 1.35,-0.69 l 0,-1.97 z" />
</g>
<g
   transform="translate(-249.64455,-107.7)"
   id="g43">
	<path
   id="path45"
   d="m 383.31,464.68 c 0,0.14 -0.07,0.21 -0.22,0.21 l -1.04,0 c -0.14,0 -0.22,-0.07 -0.22,-0.21 l -0.29,-9.26 c -0.02,-0.36 0,-0.81 0.02,-1.12 l -0.04,-0.04 c -0.02,0.4 -0.07,0.85 -0.22,1.28 l -2.18,6.27 c -0.07,0.16 -0.11,0.2 -0.27,0.2 l -0.54,0 c -0.16,0 -0.22,-0.04 -0.27,-0.2 l -2.09,-6.27 c -0.14,-0.43 -0.2,-0.88 -0.22,-1.28 l -0.04,0.04 c 0.02,0.3 0.04,0.76 0.02,1.12 l -0.27,9.26 c 0,0.14 -0.07,0.21 -0.22,0.21 l -1.04,0 c -0.14,0 -0.22,-0.07 -0.22,-0.21 l 0.68,-11.9 c 0,-0.14 0.07,-0.22 0.22,-0.22 l 1.17,0 c 0.14,0 0.14,0.04 0.2,0.18 l 2.12,6.21 c 0.09,0.27 0.16,0.72 0.23,1.12 l 0.04,0 c 0.09,-0.38 0.16,-0.85 0.25,-1.12 l 2.12,-6.21 c 0.05,-0.14 0.05,-0.18 0.2,-0.18 l 1.17,0 c 0.14,0 0.22,0.07 0.22,0.22 l 0.73,11.9 z" />
	<path
   id="path47"
   d="m 389.05,465.15 c -2.43,0 -3.48,-1.96 -3.48,-4.54 0,-2.48 1.04,-4.61 3.66,-4.61 2.47,0 3.51,1.98 3.51,4.52 0,2.52 -1.06,4.63 -3.69,4.63 z m 2.21,-4.65 c 0,-1.76 -0.49,-3.38 -2.11,-3.38 -1.62,0 -2.11,1.55 -2.11,3.33 0,2.05 0.47,3.58 2.12,3.58 1.62,0 2.1,-1.46 2.1,-3.53 z" />
	<path
   id="path49"
   d="m 395.21,458.5 c 0,-0.41 -0.02,-0.85 -0.11,-1.26 -0.09,-0.41 -0.23,-0.52 -0.23,-0.61 0,-0.04 0.02,-0.07 0.09,-0.13 l 0.77,-0.43 c 0.04,-0.02 0.11,-0.07 0.16,-0.07 0.27,0 0.47,0.94 0.49,1.06 0.47,-0.43 1.58,-1.06 2.34,-1.06 1.17,0 1.67,0.36 1.91,1.08 0.54,-0.4 1.51,-1.08 2.38,-1.08 2,0 2.14,1.4 2.14,2.7 l 0,5.98 c 0,0.14 -0.07,0.21 -0.22,0.21 l -0.94,0 c -0.14,0 -0.22,-0.07 -0.22,-0.21 l 0,-6.01 c 0,-0.77 -0.2,-1.46 -1.15,-1.46 -0.86,0 -1.4,0.49 -1.76,0.74 l 0,6.73 c 0,0.14 -0.07,0.21 -0.22,0.21 l -0.94,0 c -0.14,0 -0.22,-0.07 -0.22,-0.21 l 0,-6.01 c 0,-0.77 -0.2,-1.46 -1.17,-1.46 -0.81,0 -1.44,0.5 -1.75,0.76 l 0,6.72 c 0,0.14 -0.07,0.21 -0.22,0.21 l -0.94,0 c -0.14,0 -0.22,-0.07 -0.22,-0.21 l 0,-6.19 z" />
	<path
   id="path51"
   d="m 414,464.07 c 0.02,0.05 0.05,0.09 0.05,0.14 0,0.2 -1.51,0.94 -2.85,0.94 -2.39,-0.02 -3.8,-1.84 -3.8,-4.57 0,-2.65 1.33,-4.57 3.56,-4.57 3.01,0 3.28,2.92 3.28,4.47 0,0.25 0,0.4 -0.2,0.4 l -5.17,0 c 0,1.1 0.43,3.08 2.48,3.08 1.17,0 2.11,-0.74 2.21,-0.74 0.05,0 0.07,0.05 0.11,0.11 l 0.33,0.74 z m -1.23,-4.32 c 0,-0.94 -0.31,-2.63 -1.87,-2.63 -1.66,0 -2.02,1.73 -2.02,2.63 l 3.89,0 z" />
	<path
   id="path53"
   d="m 422.84,464.68 c 0,0.14 -0.07,0.21 -0.22,0.21 l -0.94,0 c -0.14,0 -0.22,-0.07 -0.22,-0.21 l 0,-6.01 c 0,-0.77 -0.2,-1.46 -1.17,-1.46 -1.17,0 -1.93,0.7 -2.38,1.1 l 0,6.38 c 0,0.14 -0.07,0.21 -0.22,0.21 l -0.94,0 c -0.14,0 -0.22,-0.07 -0.22,-0.21 l 0,-6.21 c 0,-0.59 0,-0.79 -0.07,-1.06 -0.14,-0.54 -0.29,-0.67 -0.29,-0.76 0,-0.04 0.02,-0.07 0.09,-0.13 l 0.81,-0.45 c 0.04,-0.02 0.09,-0.07 0.14,-0.07 0.32,0 0.54,1.08 0.56,1.22 0.59,-0.47 1.53,-1.22 2.9,-1.22 2,0 2.14,1.4 2.14,2.7 l 0,5.97 z" />
	<path
   id="path55"
   d="m 430.61,464.23 c 0.02,0.07 0.04,0.13 0.04,0.18 0,0.23 -1.35,0.74 -2.32,0.74 -0.77,0 -1.42,-0.29 -1.69,-0.63 -0.52,-0.56 -0.52,-1.37 -0.52,-2.04 l 0,-5.11 -1.35,0 c -0.13,0 -0.13,-0.13 -0.13,-0.22 l 0,-0.68 c 0,-0.13 0,-0.22 0.13,-0.22 l 1.35,0 0,-2.47 c 0,-0.11 0.07,-0.18 0.2,-0.21 l 0.95,-0.27 c 0.05,0 0.09,-0.02 0.13,-0.02 0.09,0 0.09,0.09 0.09,0.2 l 0,2.77 2.67,0 c 0.11,0 0.2,0.02 0.2,0.13 0,0.04 -0.02,0.07 -0.02,0.12 l -0.23,0.7 c -0.04,0.09 -0.13,0.16 -0.23,0.16 l -2.38,0 0,5.11 c 0,0.72 0,1.46 1.08,1.46 0.85,0 1.57,-0.49 1.73,-0.49 0.07,0 0.13,0.05 0.13,0.11 l 0.17,0.68 z" />
	<path
   id="path57"
   d="m 435.06,465.15 c -2.43,0 -3.47,-1.96 -3.47,-4.54 0,-2.48 1.04,-4.61 3.65,-4.61 2.47,0 3.51,1.98 3.51,4.52 0,2.52 -1.06,4.63 -3.69,4.63 z m 2.21,-4.65 c 0,-1.76 -0.49,-3.38 -2.11,-3.38 -1.62,0 -2.11,1.55 -2.11,3.33 0,2.05 0.47,3.58 2.12,3.58 1.62,0 2.1,-1.46 2.1,-3.53 z" />
	<path
   id="path59"
   d="m 452.5,462.05 c 0,0.81 0,1.35 0.2,1.8 0.09,0.22 0.32,0.56 0.32,0.67 0,0.07 -0.09,0.11 -0.16,0.14 l -0.7,0.43 c -0.07,0.04 -0.11,0.05 -0.14,0.05 -0.25,0 -0.58,-0.77 -0.65,-1.06 -0.43,0.31 -1.31,1.06 -2.65,1.06 -1.93,0 -2.81,-2.16 -2.81,-4.39 0,-2.59 0.92,-4.75 3.01,-4.75 1.12,0 1.73,0.31 2.21,0.61 l 0,-4.29 c 0,-0.13 0.05,-0.2 0.13,-0.22 l 0.88,-0.22 c 0.14,-0.04 0.09,-0.02 0.22,-0.04 0.14,0 0.14,0.14 0.14,0.23 l 0,9.98 z m -1.37,-4.25 c -0.58,-0.31 -1.15,-0.59 -2.05,-0.59 -1.55,0 -1.69,1.76 -1.69,3.51 0,1.51 0.13,3.22 1.58,3.22 0.94,0 1.73,-0.79 2.16,-1.06 l 0,-5.08 z" />
	<path
   id="path61"
   d="m 461.34,464.07 c 0.02,0.05 0.05,0.09 0.05,0.14 0,0.2 -1.51,0.94 -2.84,0.94 -2.39,-0.02 -3.8,-1.84 -3.8,-4.57 0,-2.65 1.33,-4.57 3.56,-4.57 3.01,0 3.28,2.92 3.28,4.47 0,0.25 0,0.4 -0.2,0.4 l -5.17,0 c 0,1.1 0.43,3.08 2.49,3.08 1.17,0 2.11,-0.74 2.21,-0.74 0.05,0 0.07,0.05 0.11,0.11 l 0.31,0.74 z m -1.23,-4.32 c 0,-0.94 -0.31,-2.63 -1.87,-2.63 -1.66,0 -2.02,1.73 -2.02,2.63 l 3.89,0 z" />
	<path
   id="path63"
   d="m 475,464.07 c 0.02,0.05 0.05,0.09 0.05,0.14 0,0.2 -1.51,0.94 -2.84,0.94 -2.39,-0.02 -3.8,-1.84 -3.8,-4.57 0,-2.65 1.33,-4.57 3.57,-4.57 3.01,0 3.28,2.92 3.28,4.47 0,0.25 0,0.4 -0.2,0.4 l -5.17,0 c 0,1.1 0.43,3.08 2.48,3.08 1.17,0 2.11,-0.74 2.21,-0.74 0.05,0 0.07,0.05 0.11,0.11 l 0.31,0.74 z m -1.22,-4.32 c 0,-0.94 -0.31,-2.63 -1.87,-2.63 -1.66,0 -2.02,1.73 -2.02,2.63 l 3.89,0 z" />
	<path
   id="path65"
   d="m 481.61,457.44 c -0.07,0.14 -0.11,0.21 -0.22,0.21 -0.13,0 -0.88,-0.49 -1.82,-0.49 -0.72,0 -1.33,0.36 -1.33,1.19 0,1.98 4,1.42 4,4.23 0,1.69 -1.33,2.56 -2.88,2.56 -0.86,0 -2.74,-0.5 -2.74,-0.86 0,-0.09 0.04,-0.14 0.07,-0.22 l 0.25,-0.56 c 0.05,-0.13 0.11,-0.16 0.16,-0.16 0.16,0 1.1,0.63 2.32,0.63 0.77,0 1.44,-0.43 1.44,-1.3 0,-1.87 -4,-1.46 -4,-4.18 0,-1.46 1.13,-2.5 2.72,-2.5 0.61,0 1.66,0.29 2.12,0.54 0.14,0.07 0.2,0.14 0.2,0.23 0,0.05 -0.05,0.11 -0.07,0.18 l -0.22,0.5 z" />
	<path
   id="path67"
   d="m 489.27,464.23 c 0.02,0.07 0.04,0.13 0.04,0.18 0,0.23 -1.35,0.74 -2.32,0.74 -0.77,0 -1.42,-0.29 -1.69,-0.63 -0.52,-0.56 -0.52,-1.37 -0.52,-2.04 l 0,-5.11 -1.35,0 c -0.13,0 -0.13,-0.13 -0.13,-0.22 l 0,-0.68 c 0,-0.13 0,-0.22 0.13,-0.22 l 1.35,0 0,-2.47 c 0,-0.11 0.07,-0.18 0.2,-0.21 l 0.96,-0.27 c 0.05,0 0.09,-0.02 0.13,-0.02 0.09,0 0.09,0.09 0.09,0.2 l 0,2.77 2.67,0 c 0.11,0 0.2,0.02 0.2,0.13 0,0.04 -0.02,0.07 -0.02,0.12 l -0.23,0.7 c -0.04,0.09 -0.12,0.16 -0.23,0.16 l -2.38,0 0,5.11 c 0,0.72 0,1.46 1.08,1.46 0.85,0 1.57,-0.49 1.73,-0.49 0.07,0 0.12,0.05 0.12,0.11 l 0.17,0.68 z" />
	<path
   id="path69"
   d="m 496.24,462.05 c 0,1.13 0.05,1.3 0.22,1.8 0.07,0.22 0.32,0.56 0.32,0.67 0,0.07 -0.09,0.11 -0.16,0.14 l -0.7,0.43 c -0.07,0.04 -0.11,0.05 -0.14,0.05 -0.27,0 -0.59,-0.95 -0.68,-1.21 -0.22,0.2 -1.1,1.21 -2.59,1.21 -1.42,0 -2.34,-0.94 -2.34,-2.54 0,-3.04 3.6,-3.1 4.72,-3.13 l 0,-0.65 c 0,-1.04 -0.32,-1.62 -1.6,-1.62 -1.21,0 -2.03,0.58 -2.2,0.58 -0.05,0 -0.11,-0.04 -0.13,-0.09 l -0.23,-0.63 c -0.04,-0.09 -0.05,-0.14 -0.05,-0.23 0,-0.31 1.66,-0.83 2.81,-0.83 2.07,0 2.77,1.01 2.77,2.52 l 0,3.53 z m -1.37,-1.46 c -0.79,0.02 -3.37,0.02 -3.37,1.91 0,0.72 0.4,1.53 1.31,1.53 0.94,0 1.76,-0.87 2.05,-1.12 l 0,-2.32 z" />
	<path
   id="path71"
   d="m 500.54,456.92 c 0.49,-0.5 1.46,-0.92 2.29,-0.92 2.18,0 2.92,1.82 2.92,4.03 0,2.59 -0.68,5.11 -3.08,5.11 -1.26,0 -1.93,-0.32 -2.5,-0.88 -0.09,0.25 -0.38,0.88 -0.58,0.88 -0.07,0 -0.18,-0.07 -0.25,-0.12 l -0.45,-0.29 c -0.14,-0.09 -0.27,-0.14 -0.27,-0.23 0,-0.09 0.14,-0.22 0.27,-0.52 0.16,-0.29 0.29,-0.7 0.29,-1.28 l 0,-10.37 c 0,-0.13 0.05,-0.2 0.13,-0.22 l 0.9,-0.22 c 0.14,-0.04 0.09,-0.02 0.22,-0.04 0.12,0 0.12,0.14 0.12,0.23 l 0,4.84 z m 0,6.34 c 0.41,0.29 1.08,0.69 1.87,0.69 1.69,0 1.85,-2.07 1.85,-3.94 0,-1.39 -0.14,-2.79 -1.6,-2.79 -1.04,0 -1.39,0.4 -2.12,0.9 l 0,5.14 z" />
	<path
   id="path73"
   d="m 510.08,464.68 c 0,0.14 -0.07,0.21 -0.22,0.21 l -0.94,0 c -0.14,0 -0.22,-0.07 -0.22,-0.21 l 0,-7.31 -1.4,0 c -0.14,0 -0.22,-0.07 -0.22,-0.22 l 0,-0.68 c 0,-0.14 0.07,-0.22 0.22,-0.22 l 2.54,0 c 0.2,0 0.23,0.11 0.23,0.27 l 0,8.16 z m -0.77,-10.5 c -0.61,0 -1.1,-0.49 -1.1,-1.1 0,-0.61 0.49,-1.1 1.1,-1.1 0.61,0 1.1,0.5 1.1,1.1 0,0.6 -0.49,1.1 -1.1,1.1 z" />
	<path
   id="path75"
   d="m 516.45,464.57 c 0.02,0.04 0.04,0.09 0.04,0.13 0,0.2 -0.86,0.45 -1.53,0.45 -0.88,0 -1.48,-0.36 -1.69,-0.86 -0.25,-0.59 -0.25,-1.98 -0.25,-2.61 l 0,-9.34 c 0,-0.13 0.05,-0.2 0.12,-0.22 l 0.9,-0.22 c 0.14,-0.04 0.09,-0.02 0.22,-0.04 0.12,0 0.12,0.14 0.12,0.23 l 0,9.61 c 0,0.56 0.02,1.48 0.05,1.69 0.04,0.2 0.2,0.63 0.72,0.63 0.47,0 0.81,-0.23 0.94,-0.23 0.11,0 0.11,0.05 0.13,0.11 l 0.23,0.67 z" />
	<path
   id="path77"
   d="m 519.75,464.68 c 0,0.14 -0.07,0.21 -0.22,0.21 l -0.94,0 c -0.14,0 -0.22,-0.07 -0.22,-0.21 l 0,-7.31 -1.4,0 c -0.14,0 -0.22,-0.07 -0.22,-0.22 l 0,-0.68 c 0,-0.14 0.07,-0.22 0.22,-0.22 l 2.54,0 c 0.2,0 0.23,0.11 0.23,0.27 l 0,8.16 z m -0.78,-10.5 c -0.61,0 -1.1,-0.49 -1.1,-1.1 0,-0.61 0.49,-1.1 1.1,-1.1 0.61,0 1.1,0.5 1.1,1.1 0,0.6 -0.49,1.1 -1.1,1.1 z" />
	<path
   id="path79"
   d="m 528.84,462.05 c 0,0.81 0,1.35 0.2,1.8 0.09,0.22 0.32,0.56 0.32,0.67 0,0.07 -0.09,0.11 -0.16,0.14 l -0.7,0.43 c -0.07,0.04 -0.11,0.05 -0.14,0.05 -0.25,0 -0.58,-0.77 -0.65,-1.06 -0.43,0.31 -1.31,1.06 -2.65,1.06 -1.93,0 -2.81,-2.16 -2.81,-4.39 0,-2.59 0.92,-4.75 3.01,-4.75 1.12,0 1.73,0.31 2.21,0.61 l 0,-4.29 c 0,-0.13 0.05,-0.2 0.13,-0.22 l 0.88,-0.22 c 0.14,-0.04 0.09,-0.02 0.22,-0.04 0.14,0 0.14,0.14 0.14,0.23 l 0,9.98 z m -1.37,-4.25 c -0.58,-0.31 -1.15,-0.59 -2.05,-0.59 -1.55,0 -1.69,1.76 -1.69,3.51 0,1.51 0.13,3.22 1.58,3.22 0.94,0 1.73,-0.79 2.16,-1.06 l 0,-5.08 z" />
	<path
   id="path81"
   d="m 537.24,462.05 c 0,1.13 0.05,1.3 0.22,1.8 0.07,0.22 0.32,0.56 0.32,0.67 0,0.07 -0.09,0.11 -0.16,0.14 l -0.7,0.43 c -0.07,0.04 -0.11,0.05 -0.14,0.05 -0.27,0 -0.59,-0.95 -0.68,-1.21 -0.22,0.2 -1.1,1.21 -2.59,1.21 -1.42,0 -2.34,-0.94 -2.34,-2.54 0,-3.04 3.6,-3.1 4.72,-3.13 l 0,-0.65 c 0,-1.04 -0.32,-1.62 -1.6,-1.62 -1.21,0 -2.04,0.58 -2.2,0.58 -0.05,0 -0.11,-0.04 -0.13,-0.09 l -0.23,-0.63 c -0.04,-0.09 -0.05,-0.14 -0.05,-0.23 0,-0.31 1.66,-0.83 2.81,-0.83 2.07,0 2.77,1.01 2.77,2.52 l 0,3.53 z m -1.36,-1.46 c -0.79,0.02 -3.37,0.02 -3.37,1.91 0,0.72 0.4,1.53 1.31,1.53 0.94,0 1.76,-0.87 2.05,-1.12 l 0,-2.32 z" />
	<path
   id="path83"
   d="m 546.17,462.05 c 0,0.81 0,1.35 0.2,1.8 0.09,0.22 0.32,0.56 0.32,0.67 0,0.07 -0.09,0.11 -0.16,0.14 l -0.7,0.43 c -0.07,0.04 -0.11,0.05 -0.14,0.05 -0.25,0 -0.58,-0.77 -0.65,-1.06 -0.43,0.31 -1.31,1.06 -2.65,1.06 -1.93,0 -2.81,-2.16 -2.81,-4.39 0,-2.59 0.92,-4.75 3.01,-4.75 1.12,0 1.73,0.31 2.21,0.61 l 0,-4.29 c 0,-0.13 0.05,-0.2 0.13,-0.22 l 0.88,-0.22 c 0.14,-0.04 0.09,-0.02 0.22,-0.04 0.14,0 0.14,0.14 0.14,0.23 l 0,9.98 z m -1.37,-4.25 c -0.58,-0.31 -1.15,-0.59 -2.05,-0.59 -1.55,0 -1.69,1.76 -1.69,3.51 0,1.51 0.13,3.22 1.58,3.22 0.94,0 1.73,-0.79 2.16,-1.06 l 0,-5.08 z" />
	<path
   id="path85"
   d="m 550.33,458.77 c -0.7,0 -1.26,-0.56 -1.26,-1.26 0,-0.7 0.58,-1.26 1.26,-1.26 0.7,0 1.26,0.58 1.26,1.26 0,0.7 -0.56,1.26 -1.26,1.26 z m 0,6.38 c -0.68,0 -1.26,-0.56 -1.26,-1.26 0,-0.7 0.58,-1.26 1.26,-1.26 0.7,0 1.26,0.56 1.26,1.26 0,0.7 -0.56,1.26 -1.26,1.26 z" />
	<path
   id="path87"
   d="m 562.12,464.52 c 0,0.32 -0.07,0.38 -0.38,0.38 l -1.67,0 c -0.31,0 -0.38,-0.05 -0.38,-0.38 l 0,-11.58 c 0,-0.32 0.07,-0.38 0.38,-0.38 l 2.92,0 c 1.46,0 4.2,0 4.2,3.38 0,2.97 -2.21,4.01 -4.11,4.01 l -0.95,0 0,4.57 z m 0.56,-6.45 c 1.06,0 2.07,-0.18 2.07,-2 0,-1.57 -0.95,-1.62 -1.89,-1.62 l -0.74,0 0,3.62 0.56,0 z" />
	<path
   id="path89"
   d="m 581.06,463.96 c 0.05,0.09 0.14,0.2 0.14,0.25 0,0.13 -0.04,0.14 -0.23,0.23 l -1.37,0.52 c -0.09,0.04 -0.23,0.09 -0.31,0.09 -0.08,0 -0.14,-0.14 -0.27,-0.32 l -1.17,-1.66 c -0.22,-0.31 -0.52,-0.83 -0.7,-1.1 -0.18,0.27 -0.49,0.79 -0.7,1.1 l -1.17,1.66 c -0.13,0.18 -0.2,0.32 -0.27,0.32 -0.07,0 -0.22,-0.05 -0.31,-0.09 l -1.37,-0.52 c -0.2,-0.07 -0.23,-0.11 -0.23,-0.23 0,-0.05 0.09,-0.16 0.14,-0.25 l 2.63,-3.57 -2.36,-3.46 c -0.05,-0.09 -0.14,-0.2 -0.14,-0.25 0,-0.13 0.04,-0.14 0.23,-0.23 l 1.37,-0.52 c 0.09,-0.02 0.23,-0.09 0.31,-0.09 0.09,0 0.14,0.14 0.27,0.32 l 0.94,1.57 c 0.25,0.41 0.4,0.7 0.63,1.1 0.23,-0.41 0.45,-0.67 0.74,-1.1 l 1.04,-1.57 c 0.13,-0.18 0.18,-0.32 0.27,-0.32 0.07,0 0.22,0.07 0.31,0.09 l 1.37,0.52 c 0.2,0.09 0.23,0.11 0.23,0.23 0,0.05 -0.09,0.16 -0.14,0.25 l -2.45,3.48 2.57,3.55 z" />
	<path
   id="path91"
   d="m 593.08,465.13 c -0.07,0.02 -0.16,0.07 -0.23,0.07 -0.16,0 -0.43,-0.63 -0.52,-1.08 -0.36,0.36 -0.99,1.08 -2.34,1.08 -1.66,0 -2.7,-1.08 -2.7,-2.77 0,-3.04 3.28,-3.04 4.7,-3.04 l 0,-0.56 c 0,-0.81 -0.14,-1.33 -1.28,-1.33 -1.01,0 -2,0.54 -2.23,0.54 -0.09,0 -0.16,-0.11 -0.18,-0.18 l -0.36,-1.1 c -0.04,-0.07 -0.05,-0.14 -0.05,-0.21 0,-0.41 1.78,-0.85 3.17,-0.85 2.25,0 3.1,1.03 3.1,2.9 l 0,3.47 c 0,1.75 0.47,1.98 0.47,2.34 0,0.07 -0.07,0.13 -0.16,0.16 l -1.39,0.56 z m -1.1,-4.27 c -0.45,0 -2.54,-0.14 -2.54,1.44 0,0.7 0.5,1.22 1.19,1.22 0.67,0 1.13,-0.47 1.35,-0.69 l 0,-1.97 z" />
	<path
   id="path93"
   d="m 383.31,482.68 c 0,0.14 -0.07,0.21 -0.22,0.21 l -1.04,0 c -0.14,0 -0.22,-0.07 -0.22,-0.21 l -0.29,-9.26 c -0.02,-0.36 0,-0.81 0.02,-1.12 l -0.04,-0.04 c -0.02,0.4 -0.07,0.85 -0.22,1.28 l -2.18,6.27 c -0.07,0.16 -0.11,0.2 -0.27,0.2 l -0.54,0 c -0.16,0 -0.22,-0.04 -0.27,-0.2 l -2.09,-6.27 c -0.14,-0.43 -0.2,-0.88 -0.22,-1.28 l -0.04,0.04 c 0.02,0.3 0.04,0.76 0.02,1.12 l -0.27,9.26 c 0,0.14 -0.07,0.21 -0.22,0.21 l -1.04,0 c -0.14,0 -0.22,-0.07 -0.22,-0.21 l 0.68,-11.9 c 0,-0.14 0.07,-0.22 0.22,-0.22 l 1.17,0 c 0.14,0 0.14,0.04 0.2,0.18 l 2.12,6.21 c 0.09,0.27 0.16,0.72 0.23,1.12 l 0.04,0 c 0.09,-0.38 0.16,-0.85 0.25,-1.12 l 2.12,-6.21 c 0.05,-0.14 0.05,-0.18 0.2,-0.18 l 1.17,0 c 0.14,0 0.22,0.07 0.22,0.22 l 0.73,11.9 z" />
	<path
   id="path95"
   d="m 389.05,483.15 c -2.43,0 -3.48,-1.96 -3.48,-4.54 0,-2.48 1.04,-4.61 3.66,-4.61 2.47,0 3.51,1.98 3.51,4.52 0,2.52 -1.06,4.63 -3.69,4.63 z m 2.21,-4.65 c 0,-1.76 -0.49,-3.38 -2.11,-3.38 -1.62,0 -2.11,1.55 -2.11,3.33 0,2.05 0.47,3.58 2.12,3.58 1.62,0 2.1,-1.46 2.1,-3.53 z" />
	<path
   id="path97"
   d="m 395.21,476.5 c 0,-0.41 -0.02,-0.85 -0.11,-1.26 -0.09,-0.41 -0.23,-0.52 -0.23,-0.61 0,-0.04 0.02,-0.07 0.09,-0.13 l 0.77,-0.43 c 0.04,-0.02 0.11,-0.07 0.16,-0.07 0.27,0 0.47,0.94 0.49,1.06 0.47,-0.43 1.58,-1.06 2.34,-1.06 1.17,0 1.67,0.36 1.91,1.08 0.54,-0.4 1.51,-1.08 2.38,-1.08 2,0 2.14,1.4 2.14,2.7 l 0,5.98 c 0,0.14 -0.07,0.21 -0.22,0.21 l -0.94,0 c -0.14,0 -0.22,-0.07 -0.22,-0.21 l 0,-6.01 c 0,-0.77 -0.2,-1.46 -1.15,-1.46 -0.86,0 -1.4,0.49 -1.76,0.74 l 0,6.73 c 0,0.14 -0.07,0.21 -0.22,0.21 l -0.94,0 c -0.14,0 -0.22,-0.07 -0.22,-0.21 l 0,-6.01 c 0,-0.77 -0.2,-1.46 -1.17,-1.46 -0.81,0 -1.44,0.5 -1.75,0.76 l 0,6.72 c 0,0.14 -0.07,0.21 -0.22,0.21 l -0.94,0 c -0.14,0 -0.22,-0.07 -0.22,-0.21 l 0,-6.19 z" />
	<path
   id="path99"
   d="m 414,482.07 c 0.02,0.05 0.05,0.09 0.05,0.14 0,0.2 -1.51,0.94 -2.85,0.94 -2.39,-0.02 -3.8,-1.84 -3.8,-4.57 0,-2.65 1.33,-4.57 3.56,-4.57 3.01,0 3.28,2.92 3.28,4.47 0,0.25 0,0.4 -0.2,0.4 l -5.17,0 c 0,1.1 0.43,3.08 2.48,3.08 1.17,0 2.11,-0.74 2.21,-0.74 0.05,0 0.07,0.05 0.11,0.11 l 0.33,0.74 z m -1.23,-4.32 c 0,-0.94 -0.31,-2.63 -1.87,-2.63 -1.66,0 -2.02,1.73 -2.02,2.63 l 3.89,0 z" />
	<path
   id="path101"
   d="m 422.84,482.68 c 0,0.14 -0.07,0.21 -0.22,0.21 l -0.94,0 c -0.14,0 -0.22,-0.07 -0.22,-0.21 l 0,-6.01 c 0,-0.77 -0.2,-1.46 -1.17,-1.46 -1.17,0 -1.93,0.7 -2.38,1.1 l 0,6.38 c 0,0.14 -0.07,0.21 -0.22,0.21 l -0.94,0 c -0.14,0 -0.22,-0.07 -0.22,-0.21 l 0,-6.21 c 0,-0.59 0,-0.79 -0.07,-1.06 -0.14,-0.54 -0.29,-0.67 -0.29,-0.76 0,-0.04 0.02,-0.07 0.09,-0.13 l 0.81,-0.45 c 0.04,-0.02 0.09,-0.07 0.14,-0.07 0.32,0 0.54,1.08 0.56,1.22 0.59,-0.47 1.53,-1.22 2.9,-1.22 2,0 2.14,1.4 2.14,2.7 l 0,5.97 z" />
	<path
   id="path103"
   d="m 430.61,482.23 c 0.02,0.07 0.04,0.13 0.04,0.18 0,0.23 -1.35,0.74 -2.32,0.74 -0.77,0 -1.42,-0.29 -1.69,-0.63 -0.52,-0.56 -0.52,-1.37 -0.52,-2.04 l 0,-5.11 -1.35,0 c -0.13,0 -0.13,-0.13 -0.13,-0.22 l 0,-0.68 c 0,-0.13 0,-0.22 0.13,-0.22 l 1.35,0 0,-2.47 c 0,-0.11 0.07,-0.18 0.2,-0.21 l 0.95,-0.27 c 0.05,0 0.09,-0.02 0.13,-0.02 0.09,0 0.09,0.09 0.09,0.2 l 0,2.77 2.67,0 c 0.11,0 0.2,0.02 0.2,0.13 0,0.04 -0.02,0.07 -0.02,0.12 l -0.23,0.7 c -0.04,0.09 -0.13,0.16 -0.23,0.16 l -2.38,0 0,5.11 c 0,0.72 0,1.46 1.08,1.46 0.85,0 1.57,-0.49 1.73,-0.49 0.07,0 0.13,0.05 0.13,0.11 l 0.17,0.68 z" />
	<path
   id="path105"
   d="m 435.06,483.15 c -2.43,0 -3.47,-1.96 -3.47,-4.54 0,-2.48 1.04,-4.61 3.65,-4.61 2.47,0 3.51,1.98 3.51,4.52 0,2.52 -1.06,4.63 -3.69,4.63 z m 2.21,-4.65 c 0,-1.76 -0.49,-3.38 -2.11,-3.38 -1.62,0 -2.11,1.55 -2.11,3.33 0,2.05 0.47,3.58 2.12,3.58 1.62,0 2.1,-1.46 2.1,-3.53 z" />
	<path
   id="path107"
   d="m 452.5,480.05 c 0,0.81 0,1.35 0.2,1.8 0.09,0.22 0.32,0.56 0.32,0.67 0,0.07 -0.09,0.11 -0.16,0.14 l -0.7,0.43 c -0.07,0.04 -0.11,0.05 -0.14,0.05 -0.25,0 -0.58,-0.77 -0.65,-1.06 -0.43,0.31 -1.31,1.06 -2.65,1.06 -1.93,0 -2.81,-2.16 -2.81,-4.39 0,-2.59 0.92,-4.75 3.01,-4.75 1.12,0 1.73,0.31 2.21,0.61 l 0,-4.29 c 0,-0.13 0.05,-0.2 0.13,-0.22 l 0.88,-0.22 c 0.14,-0.04 0.09,-0.02 0.22,-0.04 0.14,0 0.14,0.14 0.14,0.23 l 0,9.98 z m -1.37,-4.25 c -0.58,-0.31 -1.15,-0.59 -2.05,-0.59 -1.55,0 -1.69,1.76 -1.69,3.51 0,1.51 0.13,3.22 1.58,3.22 0.94,0 1.73,-0.79 2.16,-1.06 l 0,-5.08 z" />
	<path
   id="path109"
   d="m 461.34,482.07 c 0.02,0.05 0.05,0.09 0.05,0.14 0,0.2 -1.51,0.94 -2.84,0.94 -2.39,-0.02 -3.8,-1.84 -3.8,-4.57 0,-2.65 1.33,-4.57 3.56,-4.57 3.01,0 3.28,2.92 3.28,4.47 0,0.25 0,0.4 -0.2,0.4 l -5.17,0 c 0,1.1 0.43,3.08 2.49,3.08 1.17,0 2.11,-0.74 2.21,-0.74 0.05,0 0.07,0.05 0.11,0.11 l 0.31,0.74 z m -1.23,-4.32 c 0,-0.94 -0.31,-2.63 -1.87,-2.63 -1.66,0 -2.02,1.73 -2.02,2.63 l 3.89,0 z" />
	<path
   id="path111"
   d="m 472.23,482.86 c -0.05,0.12 -0.07,0.16 -0.23,0.16 l -0.7,0 c -0.16,0 -0.18,-0.07 -0.22,-0.16 l -3.03,-8.21 c 0,-0.04 -0.04,-0.07 -0.04,-0.13 0,-0.07 0.04,-0.09 0.16,-0.13 l 0.88,-0.23 c 0.05,0 0.11,-0.04 0.18,-0.04 0.07,0 0.07,0.07 0.13,0.14 l 2,5.85 c 0.13,0.38 0.23,0.79 0.32,1.13 l 0.04,0 c 0.09,-0.43 0.16,-0.68 0.32,-1.12 l 2.12,-5.87 c 0.05,-0.07 0.05,-0.14 0.13,-0.14 0.08,0 0.13,0.04 0.18,0.04 l 0.88,0.23 c 0.13,0.04 0.16,0.05 0.16,0.13 0,0.05 -0.04,0.09 -0.04,0.13 l -3.24,8.22 z" />
	<path
   id="path113"
   d="m 481.86,474.47 c 0,-0.13 0.05,-0.2 0.13,-0.22 l 0.9,-0.21 c 0.14,-0.04 0.09,-0.02 0.22,-0.04 0.13,0 0.13,0.14 0.13,0.23 l 0,6.41 c 0,0.41 0.02,0.81 0.2,1.19 0.11,0.22 0.34,0.58 0.34,0.69 0,0.07 -0.09,0.11 -0.16,0.14 l -0.7,0.43 c -0.07,0.04 -0.11,0.05 -0.14,0.05 -0.27,0 -0.47,-0.65 -0.67,-1.06 -0.5,0.41 -1.48,1.06 -2.5,1.06 -2.43,0 -2.63,-1.4 -2.63,-2.7 l 0,-5.98 c 0,-0.13 0.05,-0.2 0.13,-0.22 l 0.9,-0.21 c 0.14,-0.04 0.09,-0.02 0.22,-0.04 0.13,0 0.13,0.14 0.13,0.23 l 0,6.25 c 0,0.77 0.31,1.46 1.48,1.46 0.56,0 1.71,-0.59 2.05,-0.92 l 0,-6.54 z" />
	<path
   id="path115"
   d="m 491.99,482.07 c 0.02,0.05 0.05,0.09 0.05,0.14 0,0.2 -1.51,0.94 -2.85,0.94 -2.39,-0.02 -3.8,-1.84 -3.8,-4.57 0,-2.65 1.33,-4.57 3.57,-4.57 3.01,0 3.28,2.92 3.28,4.47 0,0.25 0,0.4 -0.2,0.4 l -5.17,0 c 0,1.1 0.43,3.08 2.48,3.08 1.17,0 2.11,-0.74 2.21,-0.74 0.05,0 0.07,0.05 0.11,0.11 l 0.32,0.74 z m -1.22,-4.32 c 0,-0.94 -0.31,-2.63 -1.87,-2.63 -1.66,0 -2.02,1.73 -2.02,2.63 l 3.89,0 z" />
	<path
   id="path117"
   d="m 497.77,482.57 c 0.02,0.04 0.04,0.09 0.04,0.13 0,0.2 -0.86,0.45 -1.53,0.45 -0.88,0 -1.48,-0.36 -1.69,-0.86 -0.25,-0.59 -0.25,-1.98 -0.25,-2.61 l 0,-9.34 c 0,-0.13 0.05,-0.2 0.13,-0.22 l 0.9,-0.22 c 0.14,-0.04 0.09,-0.02 0.22,-0.04 0.13,0 0.13,0.14 0.13,0.23 l 0,9.61 c 0,0.56 0.02,1.48 0.05,1.69 0.04,0.2 0.2,0.63 0.72,0.63 0.47,0 0.81,-0.23 0.94,-0.23 0.11,0 0.11,0.05 0.12,0.11 l 0.22,0.67 z" />
	<path
   id="path119"
   d="m 504.81,482.07 c 0.02,0.05 0.05,0.09 0.05,0.14 0,0.2 -1.51,0.94 -2.84,0.94 -2.14,0 -3.38,-1.67 -3.38,-4.3 0,-3.01 1.44,-4.84 3.65,-4.84 1.21,0 2.59,0.85 2.59,1.12 0,0.05 -0.04,0.09 -0.05,0.14 l -0.41,0.76 c -0.04,0.05 -0.05,0.11 -0.11,0.11 -0.07,0 -0.85,-0.92 -1.91,-0.92 -1.76,0 -2.29,1.31 -2.29,3.37 0,1.64 0.32,3.37 2.07,3.37 1.17,0 2.11,-0.74 2.21,-0.74 0.05,0 0.07,0.05 0.11,0.11 l 0.31,0.74 z" />
	<path
   id="path121"
   d="m 509.7,483.15 c -2.43,0 -3.47,-1.96 -3.47,-4.54 0,-2.48 1.04,-4.61 3.65,-4.61 2.47,0 3.51,1.98 3.51,4.52 0,2.52 -1.06,4.63 -3.69,4.63 z m 2.22,-4.65 c 0,-1.76 -0.49,-3.38 -2.11,-3.38 -1.62,0 -2.11,1.55 -2.11,3.33 0,2.05 0.47,3.58 2.12,3.58 1.61,0 2.1,-1.46 2.1,-3.53 z" />
	<path
   id="path123"
   d="m 516.97,476.77 c -0.7,0 -1.26,-0.56 -1.26,-1.26 0,-0.7 0.58,-1.26 1.26,-1.26 0.7,0 1.26,0.58 1.26,1.26 0,0.7 -0.55,1.26 -1.26,1.26 z m 0,6.38 c -0.68,0 -1.26,-0.56 -1.26,-1.26 0,-0.7 0.58,-1.26 1.26,-1.26 0.7,0 1.26,0.56 1.26,1.26 0,0.7 -0.55,1.26 -1.26,1.26 z" />
	<path
   id="path125"
   d="m 536.58,470.76 c 0.07,-0.36 0.18,-0.36 0.27,-0.36 0.11,0 0.2,0.02 0.27,0.04 l 1.35,0.27 c 0.14,0.04 0.34,0.07 0.34,0.18 0,0.09 -0.05,0.27 -0.09,0.4 l -2.63,11.45 c -0.07,0.25 -0.13,0.32 -0.4,0.32 l -1.55,0 c -0.32,0 -0.34,-0.05 -0.4,-0.32 l -1.19,-6.05 c -0.16,-0.81 -0.32,-1.93 -0.41,-3.12 l -0.04,0 c -0.09,1.21 -0.25,2.29 -0.45,3.12 l -1.46,6.05 c -0.07,0.27 -0.07,0.32 -0.4,0.32 l -1.55,0 c -0.27,0 -0.34,-0.07 -0.4,-0.32 l -2.34,-11.47 c -0.02,-0.13 -0.07,-0.29 -0.07,-0.4 0,-0.11 0.2,-0.14 0.34,-0.18 l 1.4,-0.25 c 0.07,-0.02 0.16,-0.04 0.27,-0.04 0.09,0 0.2,0 0.27,0.36 l 1.08,5.83 c 0.18,0.99 0.32,2.48 0.4,3.4 l 0.04,0 c 0.11,-1.03 0.36,-2.48 0.58,-3.4 l 1.28,-5.49 c 0.09,-0.38 0.11,-0.54 0.54,-0.54 l 1.22,0 c 0.29,0 0.31,0.16 0.4,0.54 l 1.28,5.49 c 0.22,0.92 0.4,2.38 0.5,3.4 l 0.04,0 c 0.07,-0.92 0.23,-2.41 0.41,-3.4 l 1.1,-5.83 z" />
	<path
   id="path127"
   d="m 552.69,481.96 c 0.05,0.09 0.14,0.2 0.14,0.25 0,0.13 -0.04,0.14 -0.23,0.23 l -1.37,0.52 c -0.09,0.04 -0.23,0.09 -0.31,0.09 -0.08,0 -0.14,-0.14 -0.27,-0.32 l -1.17,-1.66 c -0.22,-0.31 -0.52,-0.83 -0.7,-1.1 -0.18,0.27 -0.49,0.79 -0.7,1.1 l -1.17,1.66 c -0.13,0.18 -0.2,0.32 -0.27,0.32 -0.07,0 -0.22,-0.05 -0.31,-0.09 l -1.37,-0.52 c -0.2,-0.07 -0.23,-0.11 -0.23,-0.23 0,-0.05 0.09,-0.16 0.14,-0.25 l 2.63,-3.57 -2.36,-3.46 c -0.05,-0.09 -0.14,-0.2 -0.14,-0.25 0,-0.13 0.04,-0.14 0.23,-0.23 l 1.37,-0.52 c 0.09,-0.02 0.23,-0.09 0.31,-0.09 0.09,0 0.14,0.14 0.27,0.32 l 0.94,1.57 c 0.25,0.41 0.4,0.7 0.63,1.1 0.23,-0.41 0.45,-0.67 0.74,-1.1 l 1.04,-1.57 c 0.13,-0.18 0.18,-0.32 0.27,-0.32 0.07,0 0.22,0.07 0.31,0.09 l 1.37,0.52 c 0.2,0.09 0.23,0.11 0.23,0.23 0,0.05 -0.09,0.16 -0.14,0.25 l -2.45,3.48 2.57,3.55 z" />
	<path
   id="path129"
   d="m 561.96,474.49 c 0.36,-0.27 1.01,-0.79 2,-0.79 2.45,0 3.15,2.16 3.15,4.5 0,3.06 -1.31,5.01 -3.73,5.01 -1.03,0 -1.42,-0.5 -1.71,-0.79 -0.07,0.2 -0.25,0.79 -0.52,0.79 -0.09,0 -0.18,-0.02 -0.25,-0.04 l -1.44,-0.36 c -0.09,-0.02 -0.18,-0.07 -0.18,-0.14 0,-0.16 0.2,-0.32 0.32,-0.94 0.07,-0.36 0.07,-0.74 0.07,-1.12 l 0,-10.07 c 0,-0.27 0.13,-0.27 0.34,-0.32 l 1.51,-0.31 c 0.05,0 0.22,-0.05 0.25,-0.05 0.14,0 0.18,0.07 0.18,0.38 l 0,4.25 z m 0,6.53 c 0.11,0.09 0.41,0.38 0.9,0.38 1.64,0 1.96,-1.67 1.96,-3.08 0,-1.44 -0.25,-2.83 -1.62,-2.83 -0.61,0 -1.01,0.41 -1.24,0.61 l 0,4.92 z" />
	<path
   id="path131"
   d="m 380.38,500.64 c 0,0.22 -0.05,0.25 -0.25,0.25 l -5.55,0 c -0.14,0 -0.22,-0.07 -0.22,-0.21 l 0,-11.9 c 0,-0.14 0.07,-0.22 0.22,-0.22 l 5.6,0 c 0.2,0 0.23,0.05 0.23,0.11 0,0.05 -0.04,0.16 -0.05,0.23 l -0.25,0.76 c -0.05,0.16 -0.11,0.16 -0.27,0.16 l -4,0 0,4 3.53,0 c 0.2,0 0.23,0.04 0.23,0.23 l 0,0.79 c 0,0.2 -0.04,0.23 -0.23,0.23 l -3.53,0 0,4.56 4.32,0 c 0.14,0 0.22,0.07 0.22,0.2 l 0,0.81 z" />
	<path
   id="path133"
   d="m 386.6,493.44 c -0.07,0.14 -0.11,0.21 -0.22,0.21 -0.13,0 -0.88,-0.49 -1.82,-0.49 -0.72,0 -1.33,0.36 -1.33,1.19 0,1.98 4,1.42 4,4.23 0,1.69 -1.33,2.56 -2.88,2.56 -0.86,0 -2.74,-0.5 -2.74,-0.86 0,-0.09 0.04,-0.14 0.07,-0.22 l 0.25,-0.56 c 0.05,-0.13 0.11,-0.16 0.16,-0.16 0.16,0 1.1,0.63 2.32,0.63 0.77,0 1.44,-0.43 1.44,-1.3 0,-1.87 -4,-1.46 -4,-4.18 0,-1.46 1.13,-2.5 2.72,-2.5 0.61,0 1.66,0.29 2.12,0.54 0.14,0.07 0.2,0.14 0.2,0.23 0,0.05 -0.05,0.11 -0.07,0.18 l -0.22,0.5 z" />
	<path
   id="path135"
   d="m 400.66,500.07 c 0.02,0.05 0.05,0.09 0.05,0.14 0,0.2 -1.51,0.94 -2.85,0.94 -2.39,-0.02 -3.8,-1.84 -3.8,-4.57 0,-2.65 1.33,-4.57 3.56,-4.57 3.01,0 3.28,2.92 3.28,4.47 0,0.25 0,0.4 -0.2,0.4 l -5.17,0 c 0,1.1 0.43,3.08 2.48,3.08 1.17,0 2.11,-0.74 2.21,-0.74 0.05,0 0.07,0.05 0.11,0.11 l 0.33,0.74 z m -1.22,-4.32 c 0,-0.94 -0.31,-2.63 -1.87,-2.63 -1.66,0 -2.02,1.73 -2.02,2.63 l 3.89,0 z" />
	<path
   id="path137"
   d="m 407.27,493.44 c -0.07,0.14 -0.11,0.21 -0.22,0.21 -0.13,0 -0.88,-0.49 -1.82,-0.49 -0.72,0 -1.33,0.36 -1.33,1.19 0,1.98 4,1.42 4,4.23 0,1.69 -1.33,2.56 -2.88,2.56 -0.87,0 -2.74,-0.5 -2.74,-0.86 0,-0.09 0.04,-0.14 0.07,-0.22 l 0.25,-0.56 c 0.05,-0.13 0.11,-0.16 0.16,-0.16 0.16,0 1.1,0.63 2.32,0.63 0.77,0 1.44,-0.43 1.44,-1.3 0,-1.87 -4,-1.46 -4,-4.18 0,-1.46 1.13,-2.5 2.72,-2.5 0.61,0 1.66,0.29 2.12,0.54 0.14,0.07 0.2,0.14 0.2,0.23 0,0.05 -0.05,0.11 -0.07,0.18 l -0.22,0.5 z" />
	<path
   id="path139"
   d="m 414.93,500.23 c 0.02,0.07 0.04,0.13 0.04,0.18 0,0.23 -1.35,0.74 -2.32,0.74 -0.77,0 -1.42,-0.29 -1.69,-0.63 -0.52,-0.56 -0.52,-1.37 -0.52,-2.04 l 0,-5.11 -1.35,0 c -0.13,0 -0.13,-0.13 -0.13,-0.22 l 0,-0.68 c 0,-0.13 0,-0.22 0.13,-0.22 l 1.35,0 0,-2.47 c 0,-0.11 0.07,-0.18 0.2,-0.21 l 0.95,-0.27 c 0.05,0 0.09,-0.02 0.13,-0.02 0.09,0 0.09,0.09 0.09,0.2 l 0,2.77 2.67,0 c 0.11,0 0.2,0.02 0.2,0.13 0,0.04 -0.02,0.07 -0.02,0.12 l -0.23,0.7 c -0.04,0.09 -0.13,0.16 -0.23,0.16 l -2.38,0 0,5.11 c 0,0.72 0,1.46 1.08,1.46 0.85,0 1.57,-0.49 1.73,-0.49 0.07,0 0.13,0.05 0.13,0.11 l 0.17,0.68 z" />
	<path
   id="path141"
   d="m 421.9,498.05 c 0,1.13 0.05,1.3 0.22,1.8 0.07,0.22 0.32,0.56 0.32,0.67 0,0.07 -0.09,0.11 -0.16,0.14 l -0.7,0.43 c -0.07,0.04 -0.11,0.05 -0.14,0.05 -0.27,0 -0.59,-0.95 -0.68,-1.21 -0.22,0.2 -1.1,1.21 -2.59,1.21 -1.42,0 -2.34,-0.94 -2.34,-2.54 0,-3.04 3.6,-3.1 4.72,-3.13 l 0,-0.65 c 0,-1.04 -0.32,-1.62 -1.6,-1.62 -1.21,0 -2.04,0.58 -2.2,0.58 -0.05,0 -0.11,-0.04 -0.13,-0.09 l -0.23,-0.63 c -0.04,-0.09 -0.05,-0.14 -0.05,-0.23 0,-0.31 1.66,-0.83 2.81,-0.83 2.07,0 2.77,1.01 2.77,2.52 l 0,3.53 z m -1.37,-1.46 c -0.79,0.02 -3.37,0.02 -3.37,1.91 0,0.72 0.4,1.53 1.31,1.53 0.94,0 1.76,-0.87 2.05,-1.12 l 0,-2.32 z" />
	<path
   id="path143"
   d="m 426.2,492.92 c 0.49,-0.5 1.46,-0.92 2.29,-0.92 2.18,0 2.92,1.82 2.92,4.03 0,2.59 -0.68,5.11 -3.08,5.11 -1.26,0 -1.93,-0.32 -2.5,-0.88 -0.09,0.25 -0.38,0.88 -0.58,0.88 -0.07,0 -0.18,-0.07 -0.25,-0.12 l -0.45,-0.29 c -0.14,-0.09 -0.27,-0.14 -0.27,-0.23 0,-0.09 0.14,-0.22 0.27,-0.52 0.16,-0.29 0.29,-0.7 0.29,-1.28 l 0,-10.37 c 0,-0.13 0.05,-0.2 0.13,-0.22 l 0.9,-0.22 c 0.14,-0.04 0.09,-0.02 0.22,-0.04 0.13,0 0.13,0.14 0.13,0.23 l 0,4.84 z m 0,6.34 c 0.41,0.29 1.08,0.69 1.87,0.69 1.69,0 1.85,-2.07 1.85,-3.94 0,-1.39 -0.14,-2.79 -1.6,-2.79 -1.04,0 -1.39,0.4 -2.12,0.9 l 0,5.14 z" />
	<path
   id="path145"
   d="m 437.11,500.57 c 0.02,0.04 0.04,0.09 0.04,0.13 0,0.2 -0.86,0.45 -1.53,0.45 -0.88,0 -1.48,-0.36 -1.69,-0.86 -0.25,-0.59 -0.25,-1.98 -0.25,-2.61 l 0,-9.34 c 0,-0.13 0.05,-0.2 0.13,-0.22 l 0.9,-0.22 c 0.14,-0.04 0.09,-0.02 0.22,-0.04 0.13,0 0.13,0.14 0.13,0.23 l 0,9.61 c 0,0.56 0.02,1.48 0.05,1.69 0.04,0.2 0.2,0.63 0.72,0.63 0.47,0 0.81,-0.23 0.94,-0.23 0.11,0 0.11,0.05 0.13,0.11 l 0.21,0.67 z" />
	<path
   id="path147"
   d="m 444.33,500.07 c 0.02,0.05 0.05,0.09 0.05,0.14 0,0.2 -1.51,0.94 -2.84,0.94 -2.39,-0.02 -3.8,-1.84 -3.8,-4.57 0,-2.65 1.33,-4.57 3.56,-4.57 3.01,0 3.28,2.92 3.28,4.47 0,0.25 0,0.4 -0.2,0.4 l -5.17,0 c 0,1.1 0.43,3.08 2.49,3.08 1.17,0 2.11,-0.74 2.21,-0.74 0.05,0 0.07,0.05 0.11,0.11 l 0.31,0.74 z m -1.23,-4.32 c 0,-0.94 -0.31,-2.63 -1.87,-2.63 -1.66,0 -2.02,1.73 -2.02,2.63 l 3.89,0 z" />
	<path
   id="path149"
   d="m 447.98,494.77 c -0.7,0 -1.26,-0.56 -1.26,-1.26 0,-0.7 0.58,-1.26 1.26,-1.26 0.7,0 1.26,0.58 1.26,1.26 0,0.7 -0.56,1.26 -1.26,1.26 z m 0,6.38 c -0.68,0 -1.26,-0.56 -1.26,-1.26 0,-0.7 0.58,-1.26 1.26,-1.26 0.7,0 1.26,0.56 1.26,1.26 0,0.7 -0.56,1.26 -1.26,1.26 z" />
	<path
   id="path151"
   d="m 462.4,501.13 c -0.07,0.02 -0.16,0.07 -0.23,0.07 -0.16,0 -0.43,-0.63 -0.52,-1.08 -0.36,0.36 -0.99,1.08 -2.34,1.08 -1.66,0 -2.7,-1.08 -2.7,-2.77 0,-3.04 3.28,-3.04 4.7,-3.04 l 0,-0.56 c 0,-0.81 -0.14,-1.33 -1.28,-1.33 -1.01,0 -2,0.54 -2.23,0.54 -0.09,0 -0.16,-0.11 -0.18,-0.18 l -0.36,-1.1 c -0.04,-0.07 -0.05,-0.14 -0.05,-0.21 0,-0.41 1.78,-0.85 3.17,-0.85 2.25,0 3.1,1.03 3.1,2.9 l 0,3.47 c 0,1.75 0.47,1.98 0.47,2.34 0,0.07 -0.07,0.13 -0.16,0.16 l -1.39,0.56 z m -1.1,-4.27 c -0.45,0 -2.54,-0.14 -2.54,1.44 0,0.7 0.5,1.22 1.19,1.22 0.67,0 1.13,-0.47 1.35,-0.69 l 0,-1.97 z" />
	<path
   id="path153"
   d="m 468.43,500.52 c 0,0.32 -0.07,0.38 -0.38,0.38 l -1.67,0 c -0.31,0 -0.38,-0.05 -0.38,-0.38 l 0,-11.58 c 0,-0.32 0.07,-0.38 0.38,-0.38 l 2.92,0 c 1.46,0 4.2,0 4.2,3.38 0,2.97 -2.21,4.01 -4.11,4.01 l -0.95,0 0,4.57 z m 0.56,-6.45 c 1.06,0 2.07,-0.18 2.07,-2 0,-1.57 -0.96,-1.62 -1.89,-1.62 l -0.74,0 0,3.62 0.56,0 z" />
	<path
   id="path155"
   d="m 480.36,494.54 c -0.14,-0.04 -0.14,-0.14 -0.14,-0.22 0,-0.05 0.02,-0.14 0.02,-0.14 l 0.31,-1.08 c 0.05,-0.18 0.07,-0.18 0.16,-0.18 0.04,0 0.13,0.04 0.14,0.04 l 7.33,2.43 c 0.16,0.05 0.2,0.09 0.2,0.32 l 0,1.13 c 0,0.2 -0.05,0.23 -0.2,0.27 l -7.33,2.43 c -0.04,0.02 -0.11,0.04 -0.14,0.04 -0.03,0 -0.11,0 -0.16,-0.18 l -0.31,-1.08 c 0,-0.04 -0.02,-0.09 -0.02,-0.14 0,-0.09 0,-0.16 0.14,-0.22 l 5.33,-1.69 0,-0.04 -5.33,-1.69 z" />
	<path
   id="path157"
   d="m 498.31,492.49 c 0.36,-0.27 1.01,-0.79 2,-0.79 2.45,0 3.15,2.16 3.15,4.5 0,3.06 -1.31,5.01 -3.73,5.01 -1.03,0 -1.42,-0.5 -1.71,-0.79 -0.07,0.2 -0.25,0.79 -0.52,0.79 -0.09,0 -0.18,-0.02 -0.25,-0.04 l -1.44,-0.36 c -0.09,-0.02 -0.18,-0.07 -0.18,-0.14 0,-0.16 0.2,-0.32 0.32,-0.94 0.07,-0.36 0.07,-0.74 0.07,-1.12 l 0,-10.07 c 0,-0.27 0.13,-0.27 0.34,-0.32 l 1.51,-0.31 c 0.05,0 0.22,-0.05 0.25,-0.05 0.14,0 0.18,0.07 0.18,0.38 l 0,4.25 z m 0,6.53 c 0.11,0.09 0.41,0.38 0.9,0.38 1.64,0 1.96,-1.67 1.96,-3.08 0,-1.44 -0.25,-2.83 -1.62,-2.83 -0.61,0 -1.01,0.41 -1.24,0.61 l 0,4.92 z" />
	<path
   id="path159"
   d="m 515.91,488.76 c 0.07,-0.36 0.18,-0.36 0.27,-0.36 0.11,0 0.2,0.02 0.27,0.04 l 1.35,0.27 c 0.14,0.04 0.34,0.07 0.34,0.18 0,0.09 -0.05,0.27 -0.09,0.4 l -2.63,11.45 c -0.07,0.25 -0.12,0.32 -0.4,0.32 l -1.55,0 c -0.32,0 -0.34,-0.05 -0.4,-0.32 l -1.19,-6.05 c -0.16,-0.81 -0.32,-1.93 -0.41,-3.12 l -0.04,0 c -0.09,1.21 -0.25,2.29 -0.45,3.12 l -1.46,6.05 c -0.07,0.27 -0.07,0.32 -0.4,0.32 l -1.55,0 c -0.27,0 -0.34,-0.07 -0.4,-0.32 l -2.34,-11.47 c -0.02,-0.13 -0.07,-0.29 -0.07,-0.4 0,-0.11 0.2,-0.14 0.34,-0.18 l 1.4,-0.25 c 0.07,-0.02 0.16,-0.04 0.27,-0.04 0.09,0 0.2,0 0.27,0.36 l 1.08,5.83 c 0.18,0.99 0.32,2.48 0.4,3.4 l 0.04,0 c 0.11,-1.03 0.36,-2.48 0.58,-3.4 l 1.28,-5.49 c 0.09,-0.38 0.11,-0.54 0.54,-0.54 l 1.22,0 c 0.29,0 0.31,0.16 0.4,0.54 l 1.28,5.49 c 0.22,0.92 0.4,2.38 0.5,3.4 l 0.04,0 c 0.07,-0.92 0.23,-2.41 0.41,-3.4 l 1.1,-5.83 z" />
</g>
<g
   transform="translate(-249.64455,-107.7)"
   id="g161">
	
		<linearGradient
   gradientTransform="matrix(-1,0,0,1,595.584,0)"
   y2="156.9023"
   x2="104.7266"
   y1="149.1875"
   x1="104.7266"
   gradientUnits="userSpaceOnUse"
   id="SVGID_1_">
		<stop
   id="stop164"
   style="stop-color:#1F1F1F"
   offset="0" />
		<stop
   id="stop166"
   style="stop-color:#010101"
   offset="1" />
	</linearGradient>
	<rect
   style="fill:url(#SVGID_1_)"
   id="rect168"
   height="7.71"
   width="15.94"
   y="149.19"
   x="482.89001" />
	
		<linearGradient
   gradientTransform="matrix(-1,0,0,1,595.584,0)"
   y2="190.0732"
   x2="104.7266"
   y1="182.3604"
   x1="104.7266"
   gradientUnits="userSpaceOnUse"
   id="SVGID_2_">
		<stop
   id="stop171"
   style="stop-color:#1F1F1F"
   offset="0" />
		<stop
   id="stop173"
   style="stop-color:#010101"
   offset="1" />
	</linearGradient>
	<rect
   style="fill:url(#SVGID_2_)"
   id="rect175"
   height="7.71"
   width="15.94"
   y="182.36"
   x="482.89001" />
	
		<linearGradient
   gradientTransform="matrix(-1,0,0,1,595.584,0)"
   y2="351.4805"
   x2="67.609398"
   y1="240.73241"
   x1="67.609398"
   gradientUnits="userSpaceOnUse"
   id="SVGID_3_">
		<stop
   id="stop178"
   style="stop-color:#1F1F1F"
   offset="0" />
		<stop
   id="stop180"
   style="stop-color:#010101"
   offset="1" />
	</linearGradient>
	<path
   style="fill:url(#SVGID_3_)"
   id="path182"
   d="m 520.6,345.31 c 0,3.41 2.76,6.17 6.17,6.17 l 2.4,0 c 3.41,0 6.17,-2.76 6.17,-6.17 l 0,-98.41 c 0,-3.41 -2.77,-6.17 -6.17,-6.17 l -2.4,0 c -3.41,0 -6.17,2.77 -6.17,6.17 l 0,98.41 z" />
	
		<linearGradient
   gradientTransform="matrix(-1,0,0,1,595.584,0)"
   y2="355.76859"
   x2="87.840797"
   y1="145.9277"
   x1="87.840797"
   gradientUnits="userSpaceOnUse"
   id="SVGID_4_">
		<stop
   id="stop185"
   style="stop-color:#1F1F1F"
   offset="0" />
		<stop
   id="stop187"
   style="stop-color:#010101"
   offset="1" />
	</linearGradient>
	<path
   style="fill:url(#SVGID_4_)"
   id="path189"
   d="m 494.71,349.59 c 0,3.41 2.77,6.17 6.17,6.17 l 13.72,0 c 3.41,0 6.17,-2.77 6.17,-6.17 l 0,-197.49 c 0,-3.41 -2.76,-6.17 -6.17,-6.17 l -13.72,0 c -3.41,0 -6.17,2.76 -6.17,6.17 l 0,197.49 z" />
	
		<linearGradient
   gradientTransform="matrix(-1,0,0,1,595.584,0)"
   y2="353.02341"
   x2="8.8926001"
   y1="332.42969"
   x1="8.8926001"
   gradientUnits="userSpaceOnUse"
   id="SVGID_5_">
		<stop
   id="stop192"
   style="stop-color:#1F1F1F"
   offset="0" />
		<stop
   id="stop194"
   style="stop-color:#010101"
   offset="1" />
	</linearGradient>
	<path
   style="fill:url(#SVGID_5_)"
   id="path196"
   d="m 538.26,332.43 c 1.8,0 3.25,1.46 3.25,3.26 l 0,10.82 93.61,0 c 1.8,0 3.26,1.46 3.26,3.26 0,1.8 -1.46,3.26 -3.26,3.26 l -96.69,0 c -0.23,0 -0.46,-0.03 -0.67,-0.07 -1.56,-0.24 -2.76,-1.58 -2.76,-3.21 l 0,-14.06 c 0,-1.8 1.46,-3.26 3.26,-3.26 z" />
	
		<linearGradient
   gradientTransform="matrix(-1,0,0,1,595.584,0)"
   y2="190.1602"
   x2="113.2119"
   y1="149.1875"
   x1="113.2119"
   gradientUnits="userSpaceOnUse"
   id="SVGID_6_">
		<stop
   id="stop199"
   style="stop-color:#1F1F1F"
   offset="0" />
		<stop
   id="stop201"
   style="stop-color:#010101"
   offset="1" />
	</linearGradient>
	<rect
   style="fill:url(#SVGID_6_)"
   id="rect203"
   height="40.970001"
   width="5.1399999"
   y="149.19"
   x="479.79999" />
	
		<linearGradient
   gradientTransform="matrix(-1,0,0,1,595.584,0)"
   y2="316.72659"
   x2="87.666"
   y1="153.25391"
   x1="87.666"
   gradientUnits="userSpaceOnUse"
   id="SVGID_7_">
		<stop
   id="stop206"
   style="stop-color:#616161"
   offset="0" />
		<stop
   id="stop208"
   style="stop-color:#000000"
   offset="1" />
	</linearGradient>
	<path
   style="fill:url(#SVGID_7_)"
   id="path210"
   d="m 501.58,314.82 c 0,1.05 0.79,1.91 1.77,1.91 l 9.15,0 c 0.98,0 1.77,-0.85 1.77,-1.91 l 0,-159.66 c 0,-1.05 -0.79,-1.91 -1.77,-1.91 l -9.15,0 c -0.98,0 -1.77,0.85 -1.77,1.91 l 0,159.66 z" />
	
		<linearGradient
   gradientTransform="matrix(-1,0,0,1,595.584,0)"
   y2="347.53711"
   x2="67.267601"
   y1="247.7637"
   x1="67.267601"
   gradientUnits="userSpaceOnUse"
   id="SVGID_8_">
		<stop
   id="stop213"
   style="stop-color:#383838"
   offset="0" />
		<stop
   id="stop215"
   style="stop-color:#000000"
   offset="1" />
	</linearGradient>
	<path
   style="fill:url(#SVGID_8_)"
   id="path217"
   d="m 525.92,345.48 c 0,1.14 0.92,2.06 2.06,2.06 l 0.68,0 c 1.14,0 2.06,-0.92 2.06,-2.06 l 0,-95.66 c 0,-1.14 -0.92,-2.06 -2.06,-2.06 l -0.68,0 c -1.14,0 -2.06,0.92 -2.06,2.06 l 0,95.66 z" />
	
		<linearGradient
   gradientTransform="matrix(-0.8764,0.4815,0.4815,0.8764,1250.5625,1276.7354)"
   y2="-1252.6904"
   x2="209.0303"
   y1="-1326.2349"
   x1="209.0303"
   gradientUnits="userSpaceOnUse"
   id="SVGID_9_">
		<stop
   id="stop220"
   style="stop-color:#1F1F1F"
   offset="0" />
		<stop
   id="stop222"
   style="stop-color:#010101"
   offset="1" />
	</linearGradient>
	<path
   style="fill:url(#SVGID_9_)"
   id="path224"
   d="m 441.08,249.19 -14.53,-26.44 c -1.5,-2.74 -0.5,-6.18 2.23,-7.68 2.74,-1.51 6.18,-0.51 7.68,2.23 l 16.96,30.85 -12.34,1.04 z" />
	
		<linearGradient
   gradientTransform="matrix(-0.8764,0.4815,0.4815,0.8764,1250.5645,1276.7354)"
   y2="-1321.8491"
   x2="209.03419"
   y1="-1329.0835"
   x1="209.03419"
   gradientUnits="userSpaceOnUse"
   id="SVGID_10_">
		<stop
   id="stop227"
   style="stop-color:#1F1F1F"
   offset="0" />
		<stop
   id="stop229"
   style="stop-color:#010101"
   offset="1" />
	</linearGradient>
	<path
   style="fill:url(#SVGID_10_)"
   id="path231"
   d="m 410.57,226.99 c 0.72,1.31 2.2,1.89 3.31,1.28 l 34.03,-18.7 c 1.11,-0.61 1.42,-2.17 0.7,-3.48 l -0.87,-1.59 c -0.72,-1.31 -2.2,-1.89 -3.31,-1.28 l -34.03,18.7 c -1.1,0.61 -1.42,2.16 -0.7,3.48 l 0.87,1.59 z" />
	
		<linearGradient
   gradientTransform="matrix(1,0,0,-1,6421.0723,-1210.041)"
   y2="-1493.9355"
   x2="-5968.3062"
   y1="-1439.4507"
   x1="-5968.3062"
   gradientUnits="userSpaceOnUse"
   id="SVGID_11_">
		<stop
   id="stop234"
   style="stop-color:#1F1F1F"
   offset="0" />
		<stop
   id="stop236"
   style="stop-color:#010101"
   offset="1" />
	</linearGradient>
	<path
   style="fill:url(#SVGID_11_)"
   id="path238"
   d="m 458.72,248.44 c -0.38,-3.1 -5.13,-19.41 -8.23,-19.03 l -6.69,2.57 c -4.11,3.6 0,8.23 1.07,12.85 -3.34,0.26 -6.31,1.36 -4.91,5.57 l 9.64,28.53 c 1.33,2.67 3.21,5.31 6.31,4.92 l 0,0 c 3.1,-0.38 10.39,-2.99 10.01,-6.1 l -7.2,-29.31 z" />
	
		<linearGradient
   gradientTransform="matrix(-0.9558,-0.2939,-0.2939,0.9558,555.9512,-881.1292)"
   y2="1161.3568"
   x2="-255.3743"
   y1="1131.4463"
   x1="-246.1758"
   gradientUnits="userSpaceOnUse"
   id="SVGID_12_">
		<stop
   id="stop241"
   style="stop-color:#1F1F1F"
   offset="0" />
		<stop
   id="stop243"
   style="stop-color:#010101"
   offset="1" />
	</linearGradient>
	<path
   style="fill:url(#SVGID_12_)"
   id="path245"
   d="m 445.9,293.24 c -1,3.26 0.83,6.71 4.08,7.71 l 8.85,2.72 c 3.26,1 6.71,-0.83 7.71,-4.09 l 4.99,-16.22 c 1.01,-3.26 -0.82,-6.71 -4.08,-7.71 l -8.85,-2.72 c -3.26,-1 -6.71,0.83 -7.71,4.09 l -4.99,16.22 z" />
	
		<linearGradient
   gradientTransform="matrix(-1,0,0,1,595.584,0)"
   y2="302.9379"
   x2="160.5303"
   y1="290.62299"
   x1="160.5303"
   gradientUnits="userSpaceOnUse"
   id="SVGID_13_">
		<stop
   id="stop248"
   style="stop-color:#1F1F1F"
   offset="0" />
		<stop
   id="stop250"
   style="stop-color:#010101"
   offset="1" />
	</linearGradient>
	<path
   style="fill:url(#SVGID_13_)"
   id="path252"
   d="m 409.85,299.88 0,-3.09 c 0,-3.41 2.77,-6.17 6.17,-6.17 l 38.06,0 c 3.41,0 6.17,2.76 6.17,6.17 l 0,3.09 -50.4,0 z" />
	
		<linearGradient
   gradientTransform="matrix(-1,0,0,1,595.584,0)"
   y2="284.10889"
   x2="221.9053"
   y1="256.67871"
   x1="221.9053"
   gradientUnits="userSpaceOnUse"
   id="SVGID_14_">
		<stop
   id="stop255"
   style="stop-color:#616161"
   offset="0" />
		<stop
   id="stop257"
   style="stop-color:#000000"
   offset="1" />
	</linearGradient>
	<path
   style="fill:url(#SVGID_14_)"
   id="path259"
   d="m 327.74,299.88 0,-40.12 71.32,0 c 11.36,0 12.69,1.37 15.09,11.66 l 5.48,28.46 -91.89,0 z" />
	
		<linearGradient
   gradientTransform="matrix(-1,0,0,1,595.584,0)"
   y2="275.1889"
   x2="224.74319"
   y1="331.76761"
   x1="224.74319"
   gradientUnits="userSpaceOnUse"
   id="SVGID_15_">
		<stop
   id="stop262"
   style="stop-color:#1F1F1F"
   offset="0" />
		<stop
   id="stop264"
   style="stop-color:#010101"
   offset="1" />
	</linearGradient>
	<path
   style="fill:url(#SVGID_15_)"
   id="path266"
   d="m 331.08,299.88 0,-30.35 61.71,0 c 9.83,0 10.98,1.04 13.06,8.82 l 4.75,21.53 -79.52,0 z" />
	
		<linearGradient
   gradientTransform="matrix(-1,0,0,1,595.584,0)"
   y2="248.00101"
   x2="233.55569"
   y1="208.78709"
   x1="233.55569"
   gradientUnits="userSpaceOnUse"
   id="SVGID_16_">
		<stop
   id="stop269"
   style="stop-color:#1F1F1F"
   offset="0" />
		<stop
   id="stop271"
   style="stop-color:#010101"
   offset="1" />
	</linearGradient>
	<path
   style="fill:url(#SVGID_16_)"
   id="path273"
   d="m 354.87,243.03 c 0.38,3.11 3.21,5.31 6.31,4.93 l 0,0 c 3.1,-0.38 13.54,1.52 11.14,-5.68 l -9.65,-28.53 c -1.32,-2.67 -3.2,-5.31 -6.3,-4.92 l 0,0 c -3.11,0.38 -5.31,3.2 -4.93,6.3 l 3.43,27.9 z" />
	
		<linearGradient
   gradientTransform="matrix(-1,0,0,1,595.584,0)"
   y2="253.5898"
   x2="238.01559"
   y1="245.3613"
   x1="238.01559"
   gradientUnits="userSpaceOnUse"
   id="SVGID_17_">
		<stop
   id="stop276"
   style="stop-color:#1F1F1F"
   offset="0" />
		<stop
   id="stop278"
   style="stop-color:#010101"
   offset="1" />
	</linearGradient>
	<path
   style="fill:url(#SVGID_17_)"
   id="path280"
   d="m 353.11,249.48 c 0,2.27 1.84,4.11 4.11,4.11 l 0.69,0 c 2.27,0 4.12,-1.84 4.12,-4.11 l 0,0 c 0,-2.27 -1.84,-4.12 -4.12,-4.12 l -0.69,0 c -2.27,0 -4.11,1.84 -4.11,4.12 l 0,0 z" />
	
		<linearGradient
   gradientTransform="matrix(-1,0,0,1,595.584,0)"
   y2="259.58591"
   x2="211.44431"
   y1="246.5645"
   x1="211.44431"
   gradientUnits="userSpaceOnUse"
   id="SVGID_18_">
		<stop
   id="stop283"
   style="stop-color:#1F1F1F"
   offset="0" />
		<stop
   id="stop285"
   style="stop-color:#010101"
   offset="1" />
	</linearGradient>
	<path
   style="fill:url(#SVGID_18_)"
   id="path287"
   d="m 358.25,253.08 c 0,3.6 2.92,6.51 6.51,6.51 l 38.75,0 c 3.6,0 6.51,-2.91 6.51,-6.51 l 0,0 c 0,-3.6 -2.91,-6.51 -6.51,-6.51 l -38.75,0 c -3.59,-0.01 -6.51,2.91 -6.51,6.51 l 0,0 z" />
	
		<linearGradient
   gradientTransform="matrix(-1,0,0,1,595.584,0)"
   y2="349.1795"
   x2="141.1553"
   y1="247.77541"
   x1="141.1553"
   gradientUnits="userSpaceOnUse"
   id="SVGID_19_">
		<stop
   id="stop290"
   style="stop-color:#000000"
   offset="0" />
		<stop
   id="stop292"
   style="stop-color:#D07928"
   offset="1" />
	</linearGradient>
	<path
   style="fill:url(#SVGID_19_)"
   id="path294"
   d="m 447.6,298.07 c 0.25,-0.79 0.94,-1.29 1.23,-1.96 l 32.17,0 -25.01,53.07 -28.14,0 c 0,0 17.72,-44.41 19.75,-51.11 z" />
	
		<linearGradient
   gradientTransform="matrix(-0.6134,-0.7898,-0.7898,0.6134,1296.1094,-2676.428)"
   y2="2432.7158"
   x2="-1876.0215"
   y1="2432.7158"
   x1="-1812.9941"
   gradientUnits="userSpaceOnUse"
   id="SVGID_20_">
		<stop
   id="stop297"
   style="stop-color:#383838"
   offset="0" />
		<stop
   id="stop299"
   style="stop-color:#000000"
   offset="1" />
	</linearGradient>
	<polygon
   style="fill:url(#SVGID_20_)"
   id="polygon301"
   points="502.06,245.09 480.54,261.81 484.95,267.49 506.48,250.77 " />
	
		<linearGradient
   gradientTransform="matrix(-0.6134,-0.7898,-0.7898,0.6134,1296.1094,-2676.428)"
   y2="2432.7168"
   x2="-1901.5039"
   y1="2432.7168"
   x1="-1825.3428"
   gradientUnits="userSpaceOnUse"
   id="SVGID_21_">
		<stop
   id="stop304"
   style="stop-color:#B8B8B8"
   offset="0" />
		<stop
   id="stop306"
   style="stop-color:#3D3D3D"
   offset="1" />
	</linearGradient>
	<polygon
   style="fill:url(#SVGID_21_)"
   id="polygon308"
   points="503.17,246.51 481.64,263.23 483.85,266.07 505.38,249.35 " />
	
		<linearGradient
   gradientTransform="matrix(-0.6134,-0.7898,-0.7898,0.6134,1296.1094,-2676.428)"
   y2="2450.5869"
   x2="-1828.1709"
   y1="2450.5869"
   x1="-1817.3701"
   gradientUnits="userSpaceOnUse"
   id="SVGID_22_">
		<stop
   id="stop311"
   style="stop-color:#1F1F1F"
   offset="0" />
		<stop
   id="stop313"
   style="stop-color:#010101"
   offset="1" />
	</linearGradient>
	<path
   style="fill:url(#SVGID_22_)"
   id="path315"
   d="m 464.92,270.2 c -0.9,0.7 -1.06,1.99 -0.37,2.88 l 5.52,7.11 c 0.69,0.9 1.99,1.06 2.88,0.36 l 20.92,-16.25 c 0.89,-0.7 1.06,-1.99 0.36,-2.89 l -5.52,-7.11 c -0.7,-0.89 -1.99,-1.06 -2.88,-0.36 l -20.91,16.26 z" />
	
		<linearGradient
   gradientTransform="matrix(-0.6134,-0.7898,-0.7898,0.6134,1296.1094,-2676.428)"
   y2="2421.9136"
   x2="-1831.1919"
   y1="2411.3721"
   x1="-1820.6504"
   gradientUnits="userSpaceOnUse"
   id="SVGID_23_">
		<stop
   id="stop318"
   style="stop-color:#383838"
   offset="0" />
		<stop
   id="stop320"
   style="stop-color:#000000"
   offset="1" />
	</linearGradient>
	<path
   style="fill:url(#SVGID_23_)"
   id="path322"
   d="m 503.02,238.97 c -3.42,2.66 -4.04,7.58 -1.38,11.01 2.66,3.42 7.58,4.04 11.01,1.38 3.42,-2.66 4.04,-7.58 1.38,-11.01 -2.67,-3.42 -7.6,-4.03 -11.01,-1.38 z" />
	
		<linearGradient
   gradientTransform="matrix(-0.6134,-0.7898,-0.7898,0.6134,1296.1094,-2676.428)"
   y2="2414.5889"
   x2="-2006.7712"
   y1="2414.5889"
   x1="-1827.3457"
   gradientUnits="userSpaceOnUse"
   id="SVGID_24_">
		<stop
   id="stop325"
   style="stop-color:#B8B8B8"
   offset="0" />
		<stop
   id="stop327"
   style="stop-color:#3D3D3D"
   offset="1" />
	</linearGradient>
	<path
   style="fill:url(#SVGID_24_)"
   id="path329"
   d="m 505.22,241.81 c -1.85,1.44 -2.19,4.11 -0.75,5.96 1.44,1.85 4.11,2.19 5.95,0.75 1.85,-1.44 2.19,-4.1 0.75,-5.95 -1.43,-1.85 -4.09,-2.19 -5.95,-0.76 z" />
	
		<radialGradient
   gradientUnits="userSpaceOnUse"
   gradientTransform="matrix(-1,0,0,1,595.584,0)"
   r="78.2705"
   cy="299.543"
   cx="247.0029"
   id="SVGID_25_">
		<stop
   id="stop332"
   style="stop-color:#FEBF10"
   offset="0" />
		<stop
   id="stop334"
   style="stop-color:#FEBD11"
   offset="0.3901" />
		<stop
   id="stop336"
   style="stop-color:#FDB714"
   offset="0.601" />
		<stop
   id="stop338"
   style="stop-color:#FBAD18"
   offset="0.7686" />
		<stop
   id="stop340"
   style="stop-color:#FAA51A"
   offset="0.8587" />
		<stop
   id="stop342"
   style="stop-color:#F9A11B"
   offset="0.9837" />
	</radialGradient>
	<path
   style="fill:url(#SVGID_25_)"
   id="path344"
   d="m 260.93,256.08 c 2.34,-2.49 7.74,-6.17 17.49,-6.17 0,0 19.31,0 32.17,0 12.86,0 14.66,8.31 14.66,14.4 0,6.09 -0.26,32.92 -0.26,32.92 l 122.52,0 -20.59,51.96 -168.05,0 c -3.41,0 -5.14,-2.76 -5.14,-6.17 0,0 -3.82,-47.48 -4.08,-59.85 -0.26,-12.09 8.86,-24.53 11.28,-27.09 z" />
	
		<linearGradient
   gradientTransform="matrix(-1,0,0,1,595.584,0)"
   y2="297.30661"
   x2="193.1006"
   y1="130.1562"
   x1="193.1006"
   gradientUnits="userSpaceOnUse"
   id="SVGID_26_">
		<stop
   id="stop347"
   style="stop-color:#1F1F1F"
   offset="0" />
		<stop
   id="stop349"
   style="stop-color:#010101"
   offset="1" />
	</linearGradient>
	<path
   style="fill:url(#SVGID_26_)"
   id="path351"
   d="m 361.34,130.16 45.26,0 c 9.84,-0.04 18.18,4.67 24.11,11.28 6,6.62 10.07,15.13 12.67,24.02 l 37.28,129.09 0,0.87 c 0,0.55 -0.04,1.09 -0.1,1.63 l -12.71,0 c 0.2,-0.4 0.33,-0.74 0.39,-1.02 L 431.53,168.9 c -2.19,-7.55 -5.67,-14.48 -9.95,-19.16 -4.35,-4.71 -9.05,-7.2 -14.98,-7.24 l -45.26,0 c -13.63,0.02 -24.66,11.06 -24.68,24.69 l 0,97.21 19.08,32.91 -10.06,0 c 0.36,-3.84 -1.95,-7.97 -6.92,-7.97 -4.98,0 -7.28,4.14 -6.93,7.97 l -7.49,0 c -0.02,-0.65 -0.03,-1.5 -0.03,-1.89 l 0,-128.24 c 0,-20.45 16.58,-37.02 37.03,-37.02 z" />
	
		<linearGradient
   gradientTransform="matrix(-1,0,0,1,595.584,0)"
   y2="296.4505"
   x2="126.2402"
   y1="262.16309"
   x1="126.2402"
   gradientUnits="userSpaceOnUse"
   id="SVGID_27_">
		<stop
   id="stop354"
   style="stop-color:#1F1F1F"
   offset="0" />
		<stop
   id="stop356"
   style="stop-color:#010101"
   offset="1" />
	</linearGradient>
	<path
   style="fill:url(#SVGID_27_)"
   id="path358"
   d="m 458.51,262.33 12.84,0 9.3,32.21 0,0.87 c 0,0.55 -0.04,1.09 -0.1,1.63 l -22.53,0 c 0.2,-0.4 0.33,-0.74 0.39,-1.02 l 0.1,-33.69 z" />
	
		<linearGradient
   gradientTransform="matrix(-1,0,0,1,595.584,0)"
   y2="333.47791"
   x2="255.6123"
   y1="257.7041"
   x1="255.6123"
   gradientUnits="userSpaceOnUse"
   id="SVGID_28_">
		<stop
   id="stop361"
   style="stop-color:#1F1F1F"
   offset="0" />
		<stop
   id="stop363"
   style="stop-color:#010101"
   offset="1" />
	</linearGradient>
	<path
   style="fill:url(#SVGID_28_)"
   id="path365"
   d="m 345.69,297.13 c 0.27,-3.79 -2.03,-7.8 -6.93,-7.8 -4.91,0 -7.21,4.01 -6.94,7.8 l -7.49,0 c -0.01,-0.62 -0.02,-1.36 -0.02,-1.71 l 0,-32.57 12.35,0 0,1.55 18.98,32.74 -9.95,0 z" />
	
		<linearGradient
   gradientTransform="matrix(-1,0,0,1,595.584,0)"
   y2="370.5936"
   x2="299.3916"
   y1="309.90619"
   x1="299.3916"
   gradientUnits="userSpaceOnUse"
   id="SVGID_29_">
		<stop
   id="stop368"
   style="stop-color:#000000"
   offset="0" />
		<stop
   id="stop370"
   style="stop-color:#D07928"
   offset="1" />
	</linearGradient>
	<path
   style="fill:url(#SVGID_29_)"
   id="path372"
   d="m 256.75,348.74 c -0.02,-4.87 -0.03,-9.91 -0.03,-15.17 0,-15.27 6.9,-27.65 18.9,-27.65 l 32.4,0 c 13.88,0 27.64,10.67 27.64,27.65 0,5.47 -0.02,10.65 -0.05,15.61 l -76.74,0 c -0.8,-0.01 -1.5,-0.17 -2.12,-0.44 z" />
	<polygon
   style="fill:#a7a9ac"
   id="polygon374"
   points="508.05,280.59 508.13,286.76 508.13,286.76 488.27,287.01 453.84,298 433.58,349.12 426.95,349.12 449.19,293.01 487.27,280.85 " />
	
		<linearGradient
   gradientTransform="matrix(-1,0,0,1,595.584,0)"
   y2="370.89651"
   x2="297.59079"
   y1="310.4668"
   x1="297.59079"
   gradientUnits="userSpaceOnUse"
   id="SVGID_30_">
		<stop
   id="stop377"
   style="stop-color:#141414"
   offset="0" />
		<stop
   id="stop379"
   style="stop-color:#010101"
   offset="1" />
	</linearGradient>
	<circle
   style="fill:url(#SVGID_30_)"
   id="circle381"
   r="30.209999"
   cy="340.67999"
   cx="297.98999" />
	
		<linearGradient
   gradientTransform="matrix(-1,0,0,1,595.584,0)"
   y2="387.61261"
   x2="297.5918"
   y1="335.66501"
   x1="297.5918"
   gradientUnits="userSpaceOnUse"
   id="SVGID_31_">
		<stop
   id="stop384"
   style="stop-color:#EBEBEB"
   offset="0" />
		<stop
   id="stop386"
   style="stop-color:#5C5C5C"
   offset="1" />
	</linearGradient>
	<path
   style="fill:url(#SVGID_31_)"
   id="path388"
   d="m 281.66,340.68 c 0,9.02 7.31,16.33 16.33,16.33 9.02,0 16.33,-7.31 16.33,-16.33 0,-9.02 -7.31,-16.33 -16.33,-16.33 -9.01,0 -16.33,7.31 -16.33,16.33 z" />
	
		<linearGradient
   gradientTransform="matrix(-1,0,0,1,595.584,0)"
   y2="370.89651"
   x2="298.02051"
   y1="310.80759"
   x1="298.02051"
   gradientUnits="userSpaceOnUse"
   id="SVGID_32_">
		<stop
   id="stop391"
   style="stop-color:#141414"
   offset="0" />
		<stop
   id="stop393"
   style="stop-color:#010101"
   offset="1" />
	</linearGradient>
	<path
   style="fill:url(#SVGID_32_)"
   id="path395"
   d="m 267.52,340.85 c 0,16.59 13.45,30.05 30.04,30.05 16.6,0 30.04,-13.45 30.04,-30.05 0,-16.59 -13.45,-30.04 -30.04,-30.04 -16.59,0 -30.04,13.45 -30.04,30.04 z" />
	<g
   id="g397">
		
			<linearGradient
   gradientTransform="matrix(-1,0,0,1,595.584,0)"
   y2="364.25061"
   x2="298.0195"
   y1="316.23541"
   x1="298.0195"
   gradientUnits="userSpaceOnUse"
   id="SVGID_33_">
			<stop
   id="stop400"
   style="stop-color:#616161"
   offset="0" />
			<stop
   id="stop402"
   style="stop-color:#5D5D5D"
   offset="0.0307" />
			<stop
   id="stop404"
   style="stop-color:#2B2B2B"
   offset="0.4754" />
			<stop
   id="stop406"
   style="stop-color:#0C0C0C"
   offset="0.8124" />
			<stop
   id="stop408"
   style="stop-color:#000000"
   offset="1" />
		</linearGradient>
		<path
   style="fill:url(#SVGID_33_)"
   id="path410"
   d="m 323.75,340.85 c 0,14.46 -11.72,26.19 -26.18,26.19 l 0,0 c -14.47,0 -26.19,-11.72 -26.19,-26.19 l 0,0 c 0,-14.46 11.72,-26.18 26.19,-26.19 l 0,0 c 14.46,0.01 26.18,11.73 26.18,26.19 l 0,0 z m -4.29,0 c -0.02,-12.09 -9.81,-21.88 -21.9,-21.9 l 0,0 c -12.1,0.02 -21.88,9.81 -21.9,21.9 l 0,0 c 0.02,12.09 9.81,21.88 21.9,21.9 l 0,0 c 12.1,-0.02 21.88,-9.81 21.9,-21.9 l 0,0 z" />
	</g>
	
		<linearGradient
   gradientTransform="matrix(-1,0,0,1,595.584,0)"
   y2="321.12369"
   x2="298.0195"
   y1="358.8486"
   x1="298.0195"
   gradientUnits="userSpaceOnUse"
   id="SVGID_34_">
		<stop
   id="stop413"
   style="stop-color:#616161"
   offset="0" />
		<stop
   id="stop415"
   style="stop-color:#5D5D5D"
   offset="0.0307" />
		<stop
   id="stop417"
   style="stop-color:#2B2B2B"
   offset="0.4754" />
		<stop
   id="stop419"
   style="stop-color:#0C0C0C"
   offset="0.8124" />
		<stop
   id="stop421"
   style="stop-color:#000000"
   offset="1" />
	</linearGradient>
	<path
   style="fill:url(#SVGID_34_)"
   id="path423"
   d="m 278.95,341.88 c 0,10.28 8.33,18.61 18.61,18.61 10.28,0 18.61,-8.33 18.61,-18.61 0,-10.28 -8.33,-18.61 -18.61,-18.61 -10.28,0 -18.61,8.33 -18.61,18.61 z" />
	
		<linearGradient
   gradientTransform="matrix(-1,0,0,1,595.584,0)"
   y2="333.6701"
   x2="298.0195"
   y1="357.67679"
   x1="298.0195"
   gradientUnits="userSpaceOnUse"
   id="SVGID_35_">
		<stop
   id="stop426"
   style="stop-color:#1F1F1F"
   offset="0" />
		<stop
   id="stop428"
   style="stop-color:#010101"
   offset="1" />
	</linearGradient>
	<path
   style="fill:url(#SVGID_35_)"
   id="path430"
   d="m 280.36,340.85 c 0,9.5 7.7,17.2 17.2,17.2 9.5,0 17.21,-7.7 17.21,-17.2 0,-9.5 -7.7,-17.2 -17.21,-17.2 -9.5,0 -17.2,7.7 -17.2,17.2 z" />
	
		<linearGradient
   gradientTransform="matrix(-1,0,0,1,595.584,0)"
   y2="358.22421"
   x2="298.0195"
   y1="328.58981"
   x1="298.0195"
   gradientUnits="userSpaceOnUse"
   id="SVGID_36_">
		<stop
   id="stop433"
   style="stop-color:#616161"
   offset="0" />
		<stop
   id="stop435"
   style="stop-color:#000000"
   offset="1" />
	</linearGradient>
	<path
   style="fill:url(#SVGID_36_)"
   id="path437"
   d="m 287.81,340.85 c 0,5.39 4.37,9.75 9.75,9.75 5.39,0 9.76,-4.37 9.76,-9.75 0,-5.38 -4.37,-9.75 -9.76,-9.75 -5.38,0 -9.75,4.37 -9.75,9.75 z" />
	<g
   id="g439">
		
			<linearGradient
   gradientTransform="matrix(-1,0,0,1,595.584,0)"
   y2="342.81741"
   x2="298.02051"
   y1="337.6738"
   x1="298.02051"
   gradientUnits="userSpaceOnUse"
   id="SVGID_37_">
			<stop
   id="stop442"
   style="stop-color:#7A7A7A"
   offset="0" />
			<stop
   id="stop444"
   style="stop-color:#3D3D3D"
   offset="1" />
		</linearGradient>
		<path
   style="fill:url(#SVGID_37_)"
   id="path446"
   d="m 304.14,340.85 c 0,3.63 -2.95,6.57 -6.58,6.57 l 0,0 c -3.63,0 -6.57,-2.94 -6.57,-6.57 l 0,0 c 0.01,-3.63 2.95,-6.57 6.57,-6.57 l 0,0 c 3.63,0 6.58,2.94 6.58,6.57 l 0,0 z m -2.58,0 c 0,-2.21 -1.79,-4 -4,-4 l 0,0 c -2.21,0 -3.99,1.79 -4,4 l 0,0 c 0.01,2.21 1.79,4 4,4 l 0,0 c 2.21,0 4,-1.79 4,-4 l 0,0 z" />
	</g>
	
		<linearGradient
   gradientTransform="matrix(-1,0,0,1,595.584,0)"
   y2="370.89651"
   x2="108.7109"
   y1="298.80661"
   x1="108.7109"
   gradientUnits="userSpaceOnUse"
   id="SVGID_38_">
		<stop
   id="stop449"
   style="stop-color:#141414"
   offset="0" />
		<stop
   id="stop451"
   style="stop-color:#010101"
   offset="1" />
	</linearGradient>
	<circle
   style="fill:url(#SVGID_38_)"
   id="circle453"
   r="36.040001"
   cy="334.85001"
   cx="486.87" />
	<g
   id="g455">
		
			<linearGradient
   gradientTransform="matrix(-1,0,0,1,595.584,0)"
   y2="362.92529"
   x2="108.7119"
   y1="305.32129"
   x1="108.7119"
   gradientUnits="userSpaceOnUse"
   id="SVGID_39_">
			<stop
   id="stop458"
   style="stop-color:#616161"
   offset="0" />
			<stop
   id="stop460"
   style="stop-color:#5D5D5D"
   offset="0.0307" />
			<stop
   id="stop462"
   style="stop-color:#2B2B2B"
   offset="0.4754" />
			<stop
   id="stop464"
   style="stop-color:#0C0C0C"
   offset="0.8124" />
			<stop
   id="stop466"
   style="stop-color:#000000"
   offset="1" />
		</linearGradient>
		<path
   style="fill:url(#SVGID_39_)"
   id="path468"
   d="m 518.29,334.85 c 0,17.35 -14.06,31.41 -31.42,31.42 l 0,0 c -17.35,0 -31.42,-14.07 -31.42,-31.42 l 0,0 c 0,-17.35 14.07,-31.42 31.42,-31.42 l 0,0 c 17.35,0 31.41,14.07 31.42,31.42 l 0,0 z m -5.14,0 c -0.03,-14.51 -11.77,-26.25 -26.28,-26.27 l 0,0 c -14.51,0.03 -26.24,11.77 -26.27,26.27 l 0,0 c 0.03,14.51 11.77,26.25 26.27,26.27 l 0,0 c 14.51,-0.02 26.25,-11.76 26.28,-26.27 l 0,0 z" />
	</g>
	
		<linearGradient
   gradientTransform="matrix(-1,0,0,1,595.584,0)"
   y2="310.9769"
   x2="108.7139"
   y1="356.2373"
   x1="108.7139"
   gradientUnits="userSpaceOnUse"
   id="SVGID_40_">
		<stop
   id="stop471"
   style="stop-color:#616161"
   offset="0" />
		<stop
   id="stop473"
   style="stop-color:#5D5D5D"
   offset="0.0307" />
		<stop
   id="stop475"
   style="stop-color:#2B2B2B"
   offset="0.4754" />
		<stop
   id="stop477"
   style="stop-color:#0C0C0C"
   offset="0.8124" />
		<stop
   id="stop479"
   style="stop-color:#000000"
   offset="1" />
	</linearGradient>
	<path
   style="fill:url(#SVGID_40_)"
   id="path481"
   d="m 464.54,335.88 c 0,12.34 10,22.33 22.33,22.33 12.33,0 22.33,-10 22.33,-22.33 0,-12.33 -10,-22.33 -22.33,-22.33 -12.33,0 -22.33,10 -22.33,22.33 z" />
	
		<linearGradient
   gradientTransform="matrix(-1,0,0,1,595.584,0)"
   y2="326.23569"
   x2="108.7109"
   y1="355.03809"
   x1="108.7109"
   gradientUnits="userSpaceOnUse"
   id="SVGID_41_">
		<stop
   id="stop484"
   style="stop-color:#1F1F1F"
   offset="0" />
		<stop
   id="stop486"
   style="stop-color:#010101"
   offset="1" />
	</linearGradient>
	<path
   style="fill:url(#SVGID_41_)"
   id="path488"
   d="m 466.23,334.85 c 0,11.4 9.24,20.64 20.64,20.64 11.4,0 20.64,-9.24 20.64,-20.64 0,-11.4 -9.24,-20.64 -20.64,-20.64 -11.4,0 -20.64,9.24 -20.64,20.64 z" />
	
		<linearGradient
   gradientTransform="matrix(-1,0,0,1,595.584,0)"
   y2="355.69159"
   x2="108.7109"
   y1="320.1387"
   x1="108.7109"
   gradientUnits="userSpaceOnUse"
   id="SVGID_42_">
		<stop
   id="stop491"
   style="stop-color:#616161"
   offset="0" />
		<stop
   id="stop493"
   style="stop-color:#000000"
   offset="1" />
	</linearGradient>
	<circle
   style="fill:url(#SVGID_42_)"
   id="circle495"
   r="11.7"
   cy="334.85001"
   cx="486.87" />
	<g
   id="g497">
		
			<linearGradient
   gradientTransform="matrix(-1,0,0,1,595.584,0)"
   y2="337.20871"
   x2="108.7109"
   y1="331.03711"
   x1="108.7109"
   gradientUnits="userSpaceOnUse"
   id="SVGID_43_">
			<stop
   id="stop500"
   style="stop-color:#7A7A7A"
   offset="0" />
			<stop
   id="stop502"
   style="stop-color:#3D3D3D"
   offset="1" />
		</linearGradient>
		<path
   style="fill:url(#SVGID_43_)"
   id="path504"
   d="m 494.76,334.85 c 0,4.36 -3.53,7.88 -7.89,7.88 l 0,0 c -4.35,0 -7.89,-3.53 -7.89,-7.88 l 0,0 c 0,-4.36 3.53,-7.89 7.89,-7.89 l 0,0 c 4.36,0 7.89,3.53 7.89,7.89 l 0,0 z m -3.08,0 c -0.01,-2.65 -2.15,-4.8 -4.8,-4.8 l 0,0 c -2.65,0 -4.8,2.15 -4.8,4.8 l 0,0 c 0,2.65 2.14,4.8 4.8,4.8 l 0,0 c 2.65,0 4.79,-2.15 4.8,-4.8 l 0,0 z" />
	</g>
	
		<linearGradient
   gradientTransform="matrix(-1,0,0,1,595.584,0)"
   y2="274.1622"
   x2="308.65039"
   y1="284.31931"
   x1="308.65039"
   gradientUnits="userSpaceOnUse"
   id="SVGID_44_">
		<stop
   id="stop507"
   style="stop-color:#FFFFFF"
   offset="0" />
		<stop
   id="stop509"
   style="stop-color:#FBF5E8"
   offset="0.1387" />
		<stop
   id="stop511"
   style="stop-color:#F0DAAC"
   offset="0.4307" />
		<stop
   id="stop513"
   style="stop-color:#DFAF4C"
   offset="0.8486" />
		<stop
   id="stop515"
   style="stop-color:#D99F28"
   offset="1" />
	</linearGradient>
	<rect
   style="fill:url(#SVGID_44_)"
   id="rect517"
   height="1.3"
   width="74.57"
   y="282.17001"
   x="249.64999" />
	
		<linearGradient
   gradientTransform="matrix(-1,0,0,1,595.584,0)"
   y2="279.3013"
   x2="308.65039"
   y1="267.27441"
   x1="308.65039"
   gradientUnits="userSpaceOnUse"
   id="SVGID_45_">
		<stop
   id="stop520"
   style="stop-color:#000000"
   offset="0" />
		<stop
   id="stop522"
   style="stop-color:#D07928"
   offset="1" />
	</linearGradient>
	<rect
   style="fill:url(#SVGID_45_)"
   id="rect524"
   height="1.3"
   width="74.57"
   y="281.06"
   x="249.64999" />
	
		<linearGradient
   gradientTransform="matrix(0,-1,-1,0,2067.6865,806.6279)"
   y2="1694.9143"
   x2="686.81641"
   y1="1709.542"
   x1="686.81641"
   gradientUnits="userSpaceOnUse"
   id="SVGID_46_">
		<stop
   id="stop527"
   style="stop-color:#F04C25"
   offset="0" />
		<stop
   id="stop529"
   style="stop-color:#F47A20"
   offset="1" />
	</linearGradient>
	<path
   style="fill:url(#SVGID_46_)"
   id="path531"
   d="m 374.91,119.54 0,4.32 -15.7,0 0,-4.32 c 0,-2.08 1.69,-3.77 3.77,-3.77 l 8.16,0 c 2.08,0 3.77,1.68 3.77,3.77 z" />
	
		<linearGradient
   gradientTransform="matrix(0,-1,-1,0,2067.6865,806.6279)"
   y2="1716.5616"
   x2="679.2041"
   y1="1695.1553"
   x1="679.2041"
   gradientUnits="userSpaceOnUse"
   id="SVGID_47_">
		<stop
   id="stop534"
   style="stop-color:#6E6E6E"
   offset="0" />
		<stop
   id="stop536"
   style="stop-color:#010101"
   offset="1" />
	</linearGradient>
	<path
   style="fill:url(#SVGID_47_)"
   id="path538"
   d="m 374.91,123.38 0,4.32 c 0,2.08 -1.69,3.77 -3.77,3.77 l -8.16,0 c -2.08,0 -3.77,-1.69 -3.77,-3.77 l 0,-4.32 15.7,0 z" />
	
		<linearGradient
   gradientTransform="matrix(-1,0,0,1,595.584,0)"
   y2="347.064"
   x2="-3.8145001"
   y1="251.2451"
   x1="-3.8145001"
   gradientUnits="userSpaceOnUse"
   id="SVGID_48_">
		<stop
   id="stop541"
   style="stop-color:#CB905B"
   offset="0" />
		<stop
   id="stop543"
   style="stop-color:#C98E5A"
   offset="0.5142" />
		<stop
   id="stop545"
   style="stop-color:#C28853"
   offset="0.6994" />
		<stop
   id="stop547"
   style="stop-color:#B87F4A"
   offset="0.8309" />
		<stop
   id="stop549"
   style="stop-color:#B27944"
   offset="0.8846" />
		<stop
   id="stop551"
   style="stop-color:#955F27"
   offset="0.9861" />
		<stop
   id="stop553"
   style="stop-color:#915C25"
   offset="1" />
	</linearGradient>
	<path
   style="fill:url(#SVGID_48_)"
   id="path555"
   d="m 548.76,339.98 c 0,3.65 2.97,6.62 6.62,6.62 l 88.03,0 c 3.65,0 6.61,-2.96 6.61,-6.62 l 0,-88.03 c 0,-3.66 -2.96,-6.62 -6.61,-6.62 l -88.03,0 c -3.65,0 -6.62,2.96 -6.62,6.62 l 0,88.03 z" />
	
		<linearGradient
   gradientTransform="matrix(-1,0,0,1,595.584,0)"
   y2="287.88409"
   x2="-3.7646"
   y1="266.38379"
   x1="-3.7646"
   gradientUnits="userSpaceOnUse"
   id="SVGID_49_">
		<stop
   id="stop558"
   style="stop-color:#D7BA87"
   offset="5.154640e-03" />
		<stop
   id="stop560"
   style="stop-color:#DBB58A"
   offset="1" />
	</linearGradient>
	<path
   style="fill:url(#SVGID_49_)"
   id="path562"
   d="m 643.22,249.63 -87.75,0 c -1.52,0 -2.91,0.52 -4.02,1.38 1.07,-2 3.18,-3.36 5.61,-3.36 l 84.58,0 c 2.43,0 4.54,1.36 5.61,3.36 -1.12,-0.86 -2.51,-1.38 -4.03,-1.38 z" />
	
		<linearGradient
   gradientTransform="matrix(-1,0,0,1,595.584,0)"
   y2="237.6573"
   x2="-3.7646"
   y1="230.5986"
   x1="-3.7646"
   gradientUnits="userSpaceOnUse"
   id="SVGID_50_">
		<stop
   id="stop565"
   style="stop-color:#CFB774"
   offset="5.154640e-03" />
		<stop
   id="stop567"
   style="stop-color:#D0B379"
   offset="1" />
	</linearGradient>
	<path
   style="fill:url(#SVGID_50_)"
   id="path569"
   d="m 588.69,266.37 c 0,0.56 0.45,1.01 1.02,1.01 l 19.29,0 c 0.56,0 1.02,-0.45 1.02,-1.01 l 0,-21 -21.32,0 0,21 z" />
	
		<linearGradient
   gradientTransform="matrix(-1,0,0,1,595.584,0)"
   y2="346.4996"
   x2="-3.7646999"
   y1="246.1436"
   x1="-3.7646"
   gradientUnits="userSpaceOnUse"
   id="SVGID_51_">
		<stop
   id="stop572"
   style="stop-color:#CCA45F"
   offset="5.154640e-03" />
		<stop
   id="stop574"
   style="stop-color:#C9A15F"
   offset="0.504" />
		<stop
   id="stop576"
   style="stop-color:#BE985C"
   offset="0.7066" />
		<stop
   id="stop578"
   style="stop-color:#AF8A59"
   offset="0.855" />
		<stop
   id="stop580"
   style="stop-color:#997854"
   offset="0.9768" />
		<stop
   id="stop582"
   style="stop-color:#957452"
   offset="1" />
	</linearGradient>
	<path
   style="fill:url(#SVGID_51_)"
   id="path584"
   d="m 588.69,325.64 c 0,-0.56 0.45,-1.01 1.02,-1.01 l 19.29,0 c 0.56,0 1.02,0.45 1.02,1.01 l 0,20.7 -21.32,0 0,-20.7 z" />
	
		<linearGradient
   gradientTransform="matrix(-1,0,0,1,595.584,0)"
   y2="272.0249"
   x2="-3.7646"
   y1="277.15619"
   x1="-3.7646"
   gradientUnits="userSpaceOnUse"
   id="SVGID_52_">
		<stop
   id="stop587"
   style="stop-color:#CCBB76"
   offset="5.154640e-03" />
		<stop
   id="stop589"
   style="stop-color:#D1C38E"
   offset="1" />
	</linearGradient>
	<rect
   style="fill:url(#SVGID_52_)"
   id="rect591"
   height="1.99"
   width="21.23"
   y="247.64"
   x="588.72998" />
	<rect
   style="fill:#ffffff"
   id="rect593"
   height="25.48"
   width="43.02"
   y="259.94"
   x="556.34003" />
	
		<linearGradient
   gradientTransform="matrix(-1,0,0,1,595.584,0)"
   y2="350.59311"
   x2="1.5527"
   y1="219.35249"
   x1="1.5527"
   gradientUnits="userSpaceOnUse"
   id="SVGID_53_">
		<stop
   id="stop596"
   style="stop-color:#CAAD62"
   offset="5.154640e-03" />
		<stop
   id="stop598"
   style="stop-color:#FFFFFF"
   offset="1" />
	</linearGradient>
	<path
   style="fill:url(#SVGID_53_)"
   id="path600"
   d="m 588.7,266.37 -0.01,-6.44 10.67,0 0,7.44 -9.66,0 c -0.55,0.01 -1,-0.44 -1,-1 z" />
	<rect
   style="fill:#231f20"
   id="rect602"
   height="20.299999"
   width="0.66000003"
   y="263.26999"
   x="565.19" />
	<rect
   style="fill:#231f20"
   id="rect604"
   height="20.299999"
   width="0.99000001"
   y="263.26999"
   x="569.01001" />
	<rect
   style="fill:#231f20"
   id="rect606"
   height="20.299999"
   width="2.6500001"
   y="263.26999"
   x="573.15997" />
	<rect
   style="fill:#231f20"
   id="rect608"
   height="20.299999"
   width="1.3200001"
   y="263.26999"
   x="578.46997" />
	<rect
   style="fill:#231f20"
   id="rect610"
   height="20.299999"
   width="1.99"
   y="263.26999"
   x="582.13" />
	<rect
   style="fill:#231f20"
   id="rect612"
   height="20.299999"
   width="0.99000001"
   y="263.26999"
   x="586.60999" />
	<rect
   style="fill:#231f20"
   id="rect614"
   height="20.299999"
   width="2.3599999"
   y="263.26999"
   x="590.58002" />
	<rect
   style="fill:#231f20"
   id="rect616"
   height="20.299999"
   width="2.3599999"
   y="263.26999"
   x="560.34998" />
	<path
   style="fill:#4e4841"
   id="path618"
   d="m 624.03,334.52 1.75,0 0,-13.12 -0.27,0 c -2.98,0 -5.4,-2.42 -5.4,-5.4 l 0,-14.04 13.24,0 0,14.04 c 0,2.98 -2.42,5.4 -5.4,5.4 l -0.27,0 0,13.12 2.29,0 c 2.49,0 4.03,0.38 4.58,2.7 l -15.64,0 c 0.54,-2.32 2.62,-2.7 5.12,-2.7 z" />
	<g
   id="g620">
		<path
   style="fill:#4e4841"
   id="path622"
   d="m 580.32,323.67 c 0.78,-1.43 2.29,-2.4 4.03,-2.4 2.03,0 4,1.32 4.61,3.15 l 0.02,0 c 0.61,-1.83 2.41,-3.15 4.61,-3.15 2.26,0.01 4.13,1.32 4.74,3.15 l 0.03,0 c 0.61,-1.83 2.46,-3.17 4.65,-3.15 1.89,0.03 3.52,1.15 4.22,2.78 -0.22,-6.27 -6.16,-11.29 -13.46,-11.29 -7.16,0 -13.01,4.82 -13.45,10.91 z m 15.09,-9.78 c 0.16,-0.13 0.4,-0.09 0.52,0.07 0,0.01 0.01,0.01 0.02,0.03 1.06,1.34 2.26,3.62 2.63,7.28 0.03,0.13 -0.03,0.28 -0.14,0.37 -0.16,0.12 -0.39,0.09 -0.52,-0.08 -0.05,-0.06 -0.07,-0.13 -0.08,-0.21 -0.36,-3.56 -1.52,-5.71 -2.5,-6.93 l 0,0 0,0 c -0.13,-0.17 -0.1,-0.4 0.07,-0.53 z m -6.63,7.38 c 0.38,-3.66 1.58,-5.94 2.63,-7.28 0,0 0.01,-0.02 0.02,-0.03 0.12,-0.17 0.35,-0.2 0.52,-0.07 0.17,0.13 0.2,0.35 0.07,0.52 l 0,0.01 0,0 c -0.98,1.23 -2.14,3.37 -2.5,6.93 -0.01,0.07 -0.03,0.14 -0.07,0.21 -0.12,0.16 -0.36,0.2 -0.52,0.08 -0.13,-0.09 -0.18,-0.23 -0.15,-0.37 z" />
		<path
   style="fill:#4e4841"
   id="path624"
   d="m 593.14,323.28 c 0.01,-0.35 0.29,-0.63 0.63,-0.63 0.35,0 0.63,0.28 0.63,0.63 l 0,0 0,11.15 c 0,0.85 0.68,1.53 1.53,1.53 0.83,0 1.51,-0.67 1.53,-1.5 l 0,0 c 0,-0.35 0.28,-0.63 0.63,-0.63 0.35,0 0.63,0.28 0.63,0.63 0,0.02 0,0.04 0,0.04 -0.05,1.52 -1.28,2.72 -2.79,2.72 -1.54,0 -2.79,-1.25 -2.79,-2.79 l 0,-11.15 0,0 z" />
		<path
   style="fill:#5a624e"
   id="path626"
   d="m 594.41,324.58 0,9.86 c 0,0.85 0.68,1.53 1.53,1.53 0.83,0 1.51,-0.67 1.53,-1.5 l 0,0 c 0,-0.35 0.28,-0.63 0.63,-0.63 0.35,0 0.63,0.28 0.63,0.63 0,0.02 0,0.04 0,0.04 -0.05,1.52 -1.28,2.72 -2.79,2.72 -1.54,0 -2.79,-1.25 -2.79,-2.79 l 0,-9.86 1.26,0 z" />
	</g>
	<g
   id="g628">
		<path
   style="fill:#4e4841"
   id="path630"
   d="m 591.31,305.03 c 0,1.39 1.29,2.47 2.69,2.47 1.4,0 2.7,-1.15 2.68,-2.48 -0.01,-1.39 -1.54,-3.2 -2.73,-5.23 -1.09,2.06 -2.64,3.85 -2.64,5.24 z m 0.56,-0.07 c 0,0 0,-0.02 0,-0.03 l 0,0 0,-0.01 0,0 0,0 c 0.01,-0.17 0.14,-0.3 0.31,-0.3 0.16,0 0.3,0.13 0.3,0.3 l 0,0 0,0 0,0.01 0,0 c 0,0.01 0,0.02 0,0.02 0,0.38 0.17,0.71 0.45,0.96 0.28,0.25 0.66,0.4 1.05,0.4 l 0.01,0 0,0 0.01,0 0,0 0,0 c 0.16,0 0.3,0.13 0.3,0.3 0,0.17 -0.14,0.3 -0.3,0.3 l 0,0 -0.02,0 c -0.55,0 -1.07,-0.21 -1.46,-0.56 -0.39,-0.33 -0.65,-0.83 -0.65,-1.39 z" />
		<path
   style="fill:#4e4841"
   id="path632"
   d="m 581.44,310.35 c 0,1.3 1.2,2.31 2.51,2.31 1.31,0 2.53,-1.08 2.51,-2.32 -0.02,-1.3 -1.45,-2.99 -2.56,-4.89 -1.01,1.93 -2.46,3.6 -2.46,4.9 z m 0.51,-0.07 0,-0.03 0,0 0,0 0,0 0,0 c 0,-0.16 0.13,-0.28 0.28,-0.28 0.16,0 0.28,0.12 0.28,0.28 l 0.01,0 0,0 0,0 -0.01,0 0,0.02 c 0,0.35 0.16,0.66 0.42,0.89 0.26,0.23 0.62,0.37 0.98,0.37 l 0.01,0 0.01,0 0,0 0,0 0,0 c 0.15,0 0.28,0.13 0.28,0.28 0,0.16 -0.13,0.28 -0.28,0.29 l 0,0 -0.01,0 c -0.51,0 -1,-0.2 -1.37,-0.52 -0.35,-0.31 -0.6,-0.77 -0.6,-1.3 z" />
		<path
   style="fill:#4e4841"
   id="path634"
   d="m 602.01,309.44 c 0,1.06 0.97,1.88 2.04,1.88 1.07,0 2.06,-0.88 2.05,-1.89 -0.02,-1.06 -1.18,-2.44 -2.08,-3.98 -0.84,1.57 -2.01,2.93 -2.01,3.99 z m 0.42,-0.05 0,-0.03 0,0 0,0 0,0 0,0 c 0,-0.13 0.1,-0.23 0.23,-0.23 0.13,0 0.23,0.1 0.23,0.23 l 0,0 0,0 0,0 0,0 0,0.02 c 0,0.28 0.13,0.53 0.34,0.72 0.21,0.19 0.51,0.31 0.8,0.31 l 0.01,0 0,0 0.01,0 0,0 0,0 c 0.12,0 0.23,0.11 0.23,0.23 0,0.13 -0.11,0.23 -0.23,0.23 l 0,0 -0.01,0 c -0.42,0 -0.81,-0.16 -1.11,-0.42 -0.31,-0.26 -0.5,-0.64 -0.5,-1.06 z" />
	</g>
</g>
<line
   style="fill:none;stroke:#000000;stroke-width:2;stroke-miterlimit:10"
   id="line636"
   y2="46.370007"
   x2="299.11545"
   y1="240.2"
   x1="299.11545"
   stroke-miterlimit="10" />
<line
   style="fill:none;stroke:#000000;stroke-width:2;stroke-miterlimit:10"
   id="line638"
   y2="46.370007"
   x2="346.76541"
   y1="319.97998"
   x1="346.76541"
   stroke-miterlimit="10" />
<line
   style="fill:none;stroke:#000000;stroke-width:1.92270005;stroke-miterlimit:10"
   id="line640"
   y2="303.23999"
   x2="248.22545"
   y1="303.23999"
   x1="340.81546"
   stroke-miterlimit="10" />
<polygon
   transform="translate(-249.64455,-107.7)"
   id="polygon642"
   points="584.23,403.75 596.69,410.94 584.23,418.13 " />
<polygon
   transform="translate(-249.64455,-107.7)"
   id="polygon644"
   points="607.43,363.22 595.93,383.13 584.44,363.22 " />
<polygon
   transform="translate(-249.64455,-107.7)"
   id="polygon646"
   points="386.17,363.22 374.68,383.13 363.18,363.22 " />
<polygon
   transform="translate(-249.64455,-107.7)"
   id="polygon648"
   points="501.21,418.49 488.13,410.94 501.21,403.39 " />
<line
   style="fill:none;stroke:#000000;stroke-width:1.92270005;stroke-miterlimit:10"
   id="line650"
   y2="61.969997"
   x2="305.21542"
   y1="61.969997"
   x1="337.80545"
   stroke-miterlimit="10" />
<polygon
   transform="translate(-249.64455,-107.7)"
   id="polygon652"
   points="584.23,162.48 596.69,169.67 584.23,176.87 " />
<polygon
   transform="translate(-249.64455,-107.7)"
   id="polygon654"
   points="561.2,177.23 548.12,169.67 561.2,162.12 " />
<g
   transform="translate(-249.64455,-107.7)"
   id="g656">
	<path
   id="path658"
   d="m 433.35,394.67 c 0,1.01 0.05,1.15 0.19,1.6 0.06,0.19 0.29,0.5 0.29,0.59 0,0.06 -0.08,0.1 -0.14,0.13 l -0.62,0.38 c -0.06,0.03 -0.1,0.05 -0.13,0.05 -0.24,0 -0.53,-0.85 -0.61,-1.07 -0.19,0.18 -0.98,1.07 -2.3,1.07 -1.26,0 -2.08,-0.83 -2.08,-2.26 0,-2.71 3.2,-2.75 4.19,-2.79 l 0,-0.58 c 0,-0.93 -0.29,-1.44 -1.42,-1.44 -1.07,0 -1.81,0.51 -1.95,0.51 -0.05,0 -0.1,-0.03 -0.11,-0.08 l -0.21,-0.56 c -0.03,-0.08 -0.05,-0.13 -0.05,-0.21 0,-0.27 1.47,-0.74 2.5,-0.74 1.84,0 2.46,0.9 2.46,2.24 l 0,3.16 z m -1.21,-1.29 c -0.71,0.02 -2.99,0.02 -2.99,1.7 0,0.64 0.35,1.36 1.17,1.36 0.83,0 1.57,-0.77 1.82,-0.99 l 0,-2.07 z" />
</g>
<line
   style="fill:none;stroke:#000000;stroke-width:1.92270005;stroke-miterlimit:10"
   id="line660"
   y2="303.23999"
   x2="135.97545"
   y1="303.23999"
   x1="228.55547"
   stroke-miterlimit="10" />
<polygon
   transform="translate(-249.64455,-107.7)"
   id="polygon662"
   points="471.97,403.75 484.43,410.94 471.97,418.13 " />
<polygon
   transform="translate(-249.64455,-107.7)"
   id="polygon664"
   points="388.96,418.49 375.88,410.94 388.96,403.39 " />
<circle
   id="circle666"
   r="10.94"
   cy="186.81001"
   cx="346.86545" />
<circle
   id="circle668"
   r="5.75"
   cy="210.87999"
   cx="125.26545" />
<line
   style="fill:none;stroke:#000000;stroke-width:2;stroke-miterlimit:10"
   id="line670"
   y2="210.87999"
   x2="125.26545"
   y1="324.70999"
   x1="125.26545"
   stroke-miterlimit="10" />
<line
   style="fill:none;stroke:#000000;stroke-width:2;stroke-miterlimit:10"
   id="line672"
   y2="224.87999"
   x2="237.22545"
   y1="324.70999"
   x1="237.22545"
   stroke-miterlimit="10" />
</svg>