<?xml version="1.0" encoding="UTF-8" standalone="no"?>
<svg
   xmlns:dc="http://purl.org/dc/elements/1.1/"
   xmlns:cc="http://creativecommons.org/ns#"
   xmlns:rdf="http://www.w3.org/1999/02/22-rdf-syntax-ns#"
   xmlns:svg="http://www.w3.org/2000/svg"
   xmlns="http://www.w3.org/2000/svg"
   xmlns:xlink="http://www.w3.org/1999/xlink"
   xml:space="preserve"
   enable-background="new 0 0 792 612"
   viewBox="0 0 85 85"
   height="85"
   width="85"
   y="0px"
   x="0px"
   id="Layer_1"
   version="1.1"><metadata
   id="metadata485"><rdf:RDF><cc:Work
       rdf:about=""><dc:format>image/svg+xml</dc:format><dc:type
         rdf:resource="http://purl.org/dc/dcmitype/StillImage" /><dc:title></dc:title></cc:Work></rdf:RDF></metadata><defs
   id="defs483" />
<g
   transform="translate(-232.737,-190.59599)"
   id="g3">
	<g
   id="g5">
		<rect
   style="fill:#fff200"
   id="rect7"
   height="85"
   width="85"
   y="190.59599"
   x="232.737" />
	</g>
</g>
<g
   transform="translate(-232.737,-190.59599)"
   id="g9">
	<rect
   style="fill:#a87d50"
   id="rect11"
   height="85"
   width="85"
   y="280.59601"
   x="232.737" />
</g>
<g
   transform="translate(-232.737,-190.59599)"
   id="g13">
	<path
   style="fill:#ffffff"
   id="path15"
   d="m 293.548,267.154 c 0,0.716 -0.58,1.296 -1.297,1.296 l -25.851,0 c -0.716,0 -1.296,-0.581 -1.296,-1.296 l 0,0 c 0,-0.717 0.58,-1.298 1.296,-1.298 l 25.851,0 c 0.717,0.001 1.297,0.582 1.297,1.298 l 0,0 z" />
	<g
   id="g17">
		<polygon
   style="fill:#e8e2c3"
   id="polygon19"
   points="255.034,220.794 311.437,220.794 311.437,198.525 255.034,198.525 255.034,208.453 250.77,210.972 255.034,210.972 " />
	</g>
	<g
   id="g21">
		<path
   style="fill:#e3693e"
   id="path23"
   d="m 267.712,264.26 -20.997,0 c -1.488,0 -2.699,-1.212 -2.699,-2.7 0,-1.489 1.211,-2.7 2.699,-2.7 l 15.727,0 c 0.649,0 1.178,-0.528 1.178,-1.178 0,-0.649 -0.528,-1.179 -1.178,-1.179 l -11.414,0 c -1.02,0 -1.848,-0.828 -1.848,-1.848 0,-1.019 0.829,-1.848 1.848,-1.848 l 5.03,0.001 c 0,0.001 0.534,0.026 0.869,-0.292 0.209,-0.197 0.315,-0.512 0.315,-0.934 l 0,-9.84 1.147,0 0,9.84 c 0,0.758 -0.231,1.355 -0.686,1.779 -0.657,0.611 -1.522,0.604 -1.704,0.593 l -4.972,0 c -0.387,0 -0.701,0.315 -0.701,0.701 0,0.386 0.314,0.701 0.701,0.701 l 11.414,0 c 1.282,0 2.325,1.043 2.325,2.326 0,1.283 -1.043,2.326 -2.325,2.326 l -15.727,0 c -0.855,0 -1.552,0.696 -1.552,1.552 0,0.856 0.696,1.552 1.552,1.552 l 20.997,0 0,1.148 10e-4,0 z" />
	</g>
	<g
   id="g25">
		<g
   id="g27">
			<g
   id="g29">
				<rect
   style="fill:#e3693e"
   id="rect31"
   height="2.355"
   width="25.830999"
   y="264.79901"
   x="266.41101" />
			</g>
		</g>
		<g
   id="g33">
			<g
   id="g35">
				<g
   id="g37">
					<polygon
   style="fill:#f1a74b"
   id="polygon39"
   points="269.848,243.841 288.805,243.841 292.241,264.799 266.411,264.799 " />
				</g>
			</g>
		</g>
		<g
   id="g41">
			<g
   id="g43">
				<g
   id="g45">
					<path
   style="fill:#fdfeff"
   id="path47"
   d="m 279.326,245.447 c -4.9,0 -8.872,3.972 -8.872,8.872 0,4.9 3.972,8.873 8.872,8.873 4.9,0 8.873,-3.973 8.873,-8.873 -0.001,-4.9 -3.973,-8.872 -8.873,-8.872 z m 0,14.171 c -2.926,0 -5.298,-2.373 -5.298,-5.299 0,-2.926 2.372,-5.298 5.298,-5.298 2.926,0 5.298,2.373 5.298,5.298 0,2.927 -2.372,5.299 -5.298,5.299 z" />
				</g>
			</g>
		</g>
		<g
   id="g49">
			<g
   id="g51">
				<g
   id="g53">
					<path
   style="fill:#e3693e"
   id="path55"
   d="m 280.341,262.553 c -0.615,0 -1.144,-0.46 -1.231,-1.068 -0.048,-0.33 0.036,-0.657 0.235,-0.924 0.198,-0.267 0.49,-0.439 0.82,-0.487 0.06,-0.009 0.12,-0.013 0.178,-0.013 0.614,0 1.144,0.459 1.232,1.069 0.098,0.678 -0.375,1.311 -1.055,1.409 -0.06,0.009 -0.119,0.014 -0.179,0.014 l 0,0 z m -3.31,-0.311 -0.002,0 c -0.137,0 -0.272,-0.022 -0.404,-0.067 -0.315,-0.107 -0.569,-0.332 -0.715,-0.631 -0.146,-0.299 -0.167,-0.636 -0.059,-0.951 0.173,-0.503 0.646,-0.841 1.178,-0.841 0.137,0 0.273,0.023 0.405,0.067 l 0.017,0.008 c 0.307,0.11 0.554,0.331 0.697,0.625 0.146,0.298 0.167,0.636 0.058,0.95 -0.171,0.502 -0.645,0.84 -1.175,0.84 l 0,0 z m -2.801,-1.792 0,0 c -0.343,0 -0.663,-0.136 -0.899,-0.383 -0.23,-0.24 -0.353,-0.558 -0.346,-0.89 0.006,-0.332 0.143,-0.643 0.383,-0.872 0.233,-0.224 0.54,-0.347 0.861,-0.347 0.343,0 0.663,0.136 0.9,0.383 0.229,0.241 0.354,0.556 0.345,0.889 -0.006,0.332 -0.143,0.642 -0.382,0.872 -0.234,0.225 -0.539,0.348 -0.862,0.348 l 0,0 z m -1.673,-2.874 c -0.547,0 -1.038,-0.366 -1.194,-0.892 -0.094,-0.319 -0.06,-0.656 0.1,-0.948 0.158,-0.292 0.421,-0.505 0.741,-0.6 0.116,-0.034 0.235,-0.052 0.354,-0.052 0.546,0 1.039,0.366 1.193,0.892 0.195,0.659 -0.182,1.353 -0.839,1.547 -0.116,0.036 -0.235,0.053 -0.355,0.053 l 0,0 z m -0.167,-3.321 c -0.077,0 -0.155,-0.008 -0.23,-0.021 -0.676,-0.127 -1.121,-0.779 -0.995,-1.454 0.11,-0.589 0.624,-1.015 1.222,-1.015 0.078,0 0.155,0.006 0.232,0.021 0.674,0.126 1.121,0.779 0.995,1.453 -0.111,0.589 -0.627,1.016 -1.224,1.016 l 0,0 z m 12.852,-2.543 c -0.422,0 -0.812,-0.211 -1.044,-0.565 -0.374,-0.575 -0.212,-1.349 0.363,-1.723 0.203,-0.134 0.438,-0.203 0.68,-0.203 0.423,0 0.813,0.21 1.044,0.564 0.375,0.575 0.213,1.349 -0.362,1.723 -0.203,0.134 -0.439,0.204 -0.681,0.204 l 0,0 z m -11.484,-0.487 c -0.279,0 -0.545,-0.092 -0.765,-0.264 -0.262,-0.204 -0.429,-0.499 -0.469,-0.829 -0.041,-0.331 0.049,-0.656 0.253,-0.919 0.239,-0.304 0.596,-0.479 0.983,-0.479 0.28,0 0.544,0.091 0.766,0.263 0.263,0.205 0.429,0.5 0.469,0.83 0.042,0.33 -0.049,0.656 -0.254,0.918 -0.238,0.305 -0.596,0.48 -0.983,0.48 l 0,0 z m 9.06,-1.794 c -0.214,0 -0.427,-0.057 -0.615,-0.164 -0.289,-0.166 -0.497,-0.434 -0.584,-0.754 -0.088,-0.32 -0.045,-0.656 0.12,-0.945 0.222,-0.387 0.636,-0.629 1.084,-0.629 0.214,0 0.428,0.057 0.616,0.164 0.596,0.341 0.804,1.103 0.464,1.7 -0.222,0.386 -0.637,0.628 -1.085,0.628 l 0,0 z m -6.455,-0.275 c -0.483,0 -0.928,-0.283 -1.13,-0.722 -0.141,-0.301 -0.155,-0.64 -0.039,-0.952 0.114,-0.313 0.343,-0.562 0.646,-0.701 0.165,-0.076 0.341,-0.116 0.522,-0.116 0.483,0 0.928,0.283 1.131,0.722 0.288,0.625 0.017,1.365 -0.606,1.653 -0.167,0.077 -0.342,0.116 -0.524,0.116 l 0,0 z m 3.262,-0.644 c -0.017,0 -0.036,0 -0.053,-0.001 -0.332,-0.013 -0.638,-0.156 -0.864,-0.4 -0.225,-0.244 -0.342,-0.562 -0.327,-0.896 0.028,-0.688 0.601,-1.221 1.296,-1.193 0.686,0.03 1.22,0.61 1.192,1.296 -0.028,0.67 -0.573,1.194 -1.244,1.194 l 0,0 z" />
				</g>
			</g>
		</g>
		<g
   id="g57">
			<g
   id="g59">
				<polygon
   style="fill:#e3693e"
   id="polygon61"
   points="282.081,259.139 283.046,258.495 285.264,261.398 283.914,262.3 " />
			</g>
		</g>
		<g
   id="g63">
			<g
   id="g65">
				<g
   id="g67">
					<rect
   style="fill:#f1a74b"
   id="rect69"
   height="3.5829999"
   width="2.1989999"
   y="241.86501"
   x="272.811" />
				</g>
			</g>
			<g
   id="g71">
				<g
   id="g73">
					<rect
   style="fill:#f1a74b"
   id="rect75"
   height="3.5829999"
   width="2.2"
   y="241.86501"
   x="283.642" />
				</g>
			</g>
		</g>
	</g>
	<g
   id="g77">
		<g
   id="g79">
			<path
   style="fill:#f1a74b"
   id="path81"
   d="m 239.925,219.591 c 0.712,2.646 2.246,5.975 4.582,9.929 2.335,3.954 4.509,6.903 6.484,8.805 5.688,5.974 8.694,3.727 9.698,3.133 l 0.923,-0.545 c 0.737,-0.436 0.98,-1.385 0.546,-2.121 l -2.915,-4.933 c -0.435,-0.737 -1.385,-0.981 -2.121,-0.546 l -0.98,0.583 c -1.355,0.805 -2.312,0.608 -3,-0.179 l 0,10e-4 c -1.222,-1.443 -2.733,-3.547 -4.545,-6.615 -1.812,-3.067 -2.924,-5.406 -3.599,-7.173 l 0.001,0 c -0.359,-0.982 -0.069,-1.915 1.29,-2.714 l 0.985,-0.578 c 0.736,-0.435 0.98,-1.384 0.545,-2.121 l -2.914,-4.934 c -0.435,-0.736 -1.385,-0.98 -2.121,-0.545 l -0.923,0.545 c -1.003,0.595 -4.422,2.143 -1.936,10.008 z" />
		</g>
	</g>
	<g
   id="g83">
		<polygon
   style="fill:#fdfeff"
   id="polygon85"
   points="254.249,220.01 310.652,220.01 310.652,197.74 254.249,197.74 254.249,207.668 249.986,210.188 254.249,210.188 " />
	</g>
	<g
   id="g87">
		<path
   style="fill:#e3693e"
   id="path89"
   d="m 260.807,203.516 1.132,0 0,4.751 5.768,0 0,-4.751 1.132,0 0,11.329 -1.132,0 0,-5.469 -5.768,0 0,5.468 -1.132,0 0,-11.328 z" />
		<path
   style="fill:#e3693e"
   id="path91"
   d="m 278.474,212.063 0.909,0.478 c -0.298,0.585 -0.643,1.058 -1.033,1.417 -0.391,0.36 -0.83,0.633 -1.319,0.821 -0.487,0.188 -1.04,0.281 -1.656,0.281 -1.367,0 -2.436,-0.448 -3.206,-1.344 -0.771,-0.896 -1.157,-1.909 -1.157,-3.039 0,-1.062 0.327,-2.01 0.979,-2.842 0.827,-1.058 1.935,-1.586 3.322,-1.586 1.429,0 2.569,0.542 3.423,1.625 0.606,0.765 0.914,1.72 0.925,2.865 l -7.54,0 c 0.02,0.973 0.332,1.771 0.933,2.394 0.601,0.622 1.344,0.933 2.229,0.933 0.427,0 0.841,-0.074 1.246,-0.222 0.403,-0.148 0.746,-0.345 1.029,-0.591 0.281,-0.245 0.587,-0.642 0.916,-1.19 z m 0,-2.255 c -0.145,-0.575 -0.354,-1.035 -0.628,-1.379 -0.276,-0.344 -0.639,-0.621 -1.091,-0.832 -0.453,-0.21 -0.928,-0.316 -1.427,-0.316 -0.822,0 -1.529,0.266 -2.121,0.794 -0.432,0.385 -0.758,0.963 -0.979,1.733 l 6.246,0 0,0 z" />
		<path
   style="fill:#e3693e"
   id="path93"
   d="m 281.508,203.23 1.078,0 0,11.614 -1.078,0 0,-11.614 z" />
		<path
   style="fill:#e3693e"
   id="path95"
   d="m 284.666,203.23 1.078,0 0,11.614 -1.078,0 0,-11.614 z" />
		<path
   style="fill:#e3693e"
   id="path97"
   d="m 291.952,206.25 c 1.291,0 2.36,0.467 3.209,1.402 0.771,0.853 1.157,1.861 1.157,3.026 0,1.17 -0.408,2.193 -1.223,3.069 -0.815,0.875 -1.864,1.313 -3.144,1.313 -1.286,0 -2.336,-0.438 -3.152,-1.313 -0.814,-0.875 -1.222,-1.898 -1.222,-3.069 0,-1.161 0.385,-2.167 1.157,-3.019 0.849,-0.94 1.921,-1.409 3.218,-1.409 z m -0.005,1.055 c -0.896,0 -1.667,0.331 -2.312,0.993 -0.643,0.662 -0.965,1.463 -0.965,2.403 0,0.606 0.146,1.17 0.44,1.694 0.293,0.523 0.69,0.928 1.189,1.213 0.5,0.285 1.049,0.427 1.646,0.427 0.597,0 1.146,-0.142 1.646,-0.427 0.5,-0.285 0.896,-0.689 1.191,-1.213 0.293,-0.524 0.44,-1.088 0.44,-1.694 0,-0.939 -0.323,-1.741 -0.97,-2.403 -0.645,-0.662 -1.413,-0.993 -2.305,-0.993 z" />
		<path
   style="fill:#e3693e"
   id="path99"
   d="m 299.437,213.15 c 0.262,0 0.485,0.092 0.67,0.276 0.185,0.186 0.277,0.411 0.277,0.678 0,0.262 -0.092,0.487 -0.277,0.675 -0.185,0.188 -0.408,0.281 -0.67,0.281 -0.261,0 -0.485,-0.094 -0.67,-0.281 -0.185,-0.188 -0.277,-0.412 -0.277,-0.675 0,-0.267 0.093,-0.492 0.277,-0.678 0.185,-0.184 0.409,-0.276 0.67,-0.276 z m 0.546,-9.92 0,8.779 -1.116,0 0,-8.779 1.116,0 z" />
		<path
   style="fill:#e3693e"
   id="path101"
   d="m 304.089,213.15 c 0.262,0 0.484,0.092 0.67,0.276 0.185,0.186 0.277,0.411 0.277,0.678 0,0.262 -0.093,0.487 -0.277,0.675 -0.186,0.188 -0.408,0.281 -0.67,0.281 -0.262,0 -0.485,-0.094 -0.67,-0.281 -0.185,-0.188 -0.277,-0.412 -0.277,-0.675 0,-0.267 0.093,-0.492 0.277,-0.678 0.184,-0.184 0.408,-0.276 0.67,-0.276 z m 0.547,-9.92 0,8.779 -1.117,0 0,-8.779 1.117,0 z" />
	</g>
</g>
<g
   transform="translate(-232.737,-190.59599)"
   id="g103">
	<rect
   style="fill:#00a79d"
   id="rect105"
   height="85"
   width="85"
   y="370.42599"
   x="233.33299" />
</g>
<g
   transform="translate(-232.737,-190.59599)"
   id="g107">
	<g
   id="g109">
		<g
   id="g111">
			
				<linearGradient
   gradientTransform="matrix(0.7356,0.6774,0.6774,-0.7356,2427.7477,-317.13569)"
   y2="-1927.3271"
   x2="-830.96881"
   y1="-1927.3271"
   x1="-842.35742"
   gradientUnits="userSpaceOnUse"
   id="SVGID_1_">
				<stop
   id="stop114"
   style="stop-color:#6E6F71"
   offset="0" />
				<stop
   id="stop116"
   style="stop-color:#59595B"
   offset="1" />
			</linearGradient>
			<path
   style="fill:url(#SVGID_1_)"
   id="path118"
   d="m 277.985,347.319 c -0.302,0.327 -0.812,0.349 -1.141,0.048 l -7.19,-6.621 c -0.328,-0.303 -0.349,-0.812 -0.047,-1.141 l 0.385,-0.418 c 0.302,-0.328 0.812,-0.35 1.14,-0.048 l 7.19,6.621 c 0.328,0.302 0.349,0.812 0.047,1.14 l -0.384,0.419 z" />
			
				<radialGradient
   gradientUnits="userSpaceOnUse"
   gradientTransform="matrix(0.7356,0.6774,0.6774,-0.7356,2427.7477,-317.13569)"
   r="4.1001"
   cy="-1927.0381"
   cx="-836.66357"
   id="SVGID_2_">
				<stop
   id="stop121"
   style="stop-color:#929496"
   offset="0" />
				<stop
   id="stop123"
   style="stop-color:#949698"
   offset="0.4202" />
				<stop
   id="stop125"
   style="stop-color:#9A9D9F"
   offset="0.6443" />
				<stop
   id="stop127"
   style="stop-color:#A6A8AA"
   offset="0.8221" />
				<stop
   id="stop129"
   style="stop-color:#B7BABC"
   offset="0.9748" />
				<stop
   id="stop131"
   style="stop-color:#BBBEC0"
   offset="1" />
			</radialGradient>
			<path
   style="fill:url(#SVGID_2_)"
   id="path133"
   d="m 278.181,347.107 c -0.547,0.594 -0.812,0.348 -1.14,0.047 l -7.19,-6.621 c -0.328,-0.303 -0.349,-0.812 -0.047,-1.141 l 0.385,-0.418 c 0.302,-0.328 0.812,-0.349 1.141,-0.047 l 7.19,6.621 c 0.328,0.302 0.349,0.812 0.047,1.14 l -0.386,0.419 z" />
			
				<radialGradient
   gradientUnits="userSpaceOnUse"
   gradientTransform="matrix(0.0412,0.9992,0.9992,-0.0412,2766.4465,-723.78219)"
   r="12.1609"
   cy="-2317.5537"
   cx="1155.8398"
   id="SVGID_3_">
				<stop
   id="stop136"
   style="stop-color:#929496"
   offset="0" />
				<stop
   id="stop138"
   style="stop-color:#949698"
   offset="0.4657" />
				<stop
   id="stop140"
   style="stop-color:#999B9D"
   offset="0.638" />
				<stop
   id="stop142"
   style="stop-color:#A3A5A8"
   offset="0.7616" />
				<stop
   id="stop144"
   style="stop-color:#B2B5B7"
   offset="0.8614" />
				<stop
   id="stop146"
   style="stop-color:#BBBEC0"
   offset="0.9016" />
				<stop
   id="stop148"
   style="stop-color:#BEC0C2"
   offset="0.904" />
				<stop
   id="stop150"
   style="stop-color:#D3D5D6"
   offset="0.9248" />
				<stop
   id="stop152"
   style="stop-color:#E3E5E5"
   offset="0.9469" />
				<stop
   id="stop154"
   style="stop-color:#EDEFEF"
   offset="0.9708" />
				<stop
   id="stop156"
   style="stop-color:#F1F2F2"
   offset="1" />
			</radialGradient>
			<circle
   style="fill:url(#SVGID_3_)"
   id="circle158"
   r="12.162"
   cy="336.021"
   cx="265.63" />
		</g>
		<circle
   style="fill:#8b5f3d"
   id="circle160"
   r="9.625"
   cy="336.021"
   cx="265.63" />
		<circle
   style="fill:#a87d50"
   id="circle162"
   r="8.441"
   cy="336.021"
   cx="265.63" />
		<g
   id="g164">
			<path
   style="fill:#8b5f3d"
   id="path166"
   d="m 266.562,345.494 c 0.144,-0.013 0.286,-0.03 0.427,-0.049 0.002,0 0.004,0 0.005,0 0.002,-10e-4 0.004,-10e-4 0.007,-10e-4 0.14,-0.02 0.278,-0.041 0.416,-0.066 0.016,-0.003 0.032,-0.005 0.047,-0.008 0.13,-0.024 0.258,-0.052 0.386,-0.08 0.023,-0.005 0.046,-0.01 0.069,-0.015 0.122,-0.029 0.244,-0.061 0.364,-0.094 0.027,-0.009 0.055,-0.016 0.082,-0.023 0.117,-0.033 0.233,-0.069 0.348,-0.107 0.03,-0.01 0.06,-0.019 0.089,-0.029 0.112,-0.038 0.224,-0.078 0.334,-0.12 0.031,-0.011 0.062,-0.023 0.092,-0.036 0.108,-0.042 0.217,-0.087 0.323,-0.133 0.031,-0.014 0.062,-0.027 0.093,-0.042 0.106,-0.047 0.21,-0.095 0.313,-0.146 0.031,-0.016 0.062,-0.03 0.092,-0.047 0.104,-0.052 0.205,-0.104 0.306,-0.16 0.029,-0.017 0.058,-0.032 0.088,-0.05 0.101,-0.057 0.2,-0.114 0.298,-0.175 0.028,-0.017 0.055,-0.034 0.082,-0.052 0.099,-0.062 0.197,-0.125 0.293,-0.191 0.024,-0.016 0.047,-0.032 0.07,-0.05 0.099,-0.067 0.197,-0.138 0.292,-0.209 0.018,-0.013 0.034,-0.027 0.052,-0.04 0.101,-0.076 0.201,-0.155 0.299,-0.235 0.005,-0.005 0.01,-0.009 0.015,-0.013 0.436,-0.36 0.839,-0.76 1.205,-1.189 0.007,-0.009 0.015,-0.017 0.021,-0.025 0.068,-0.081 0.134,-0.165 0.2,-0.248 0.027,-0.035 0.055,-0.068 0.082,-0.104 0.057,-0.074 0.112,-0.151 0.168,-0.228 0.032,-0.046 0.065,-0.091 0.098,-0.136 0.05,-0.072 0.098,-0.146 0.146,-0.22 0.034,-0.052 0.07,-0.104 0.103,-0.157 0.044,-0.071 0.087,-0.143 0.13,-0.215 0.035,-0.059 0.069,-0.115 0.102,-0.175 0.04,-0.07 0.078,-0.142 0.115,-0.213 0.033,-0.062 0.066,-0.124 0.099,-0.188 0.035,-0.07 0.068,-0.142 0.103,-0.212 0.031,-0.066 0.062,-0.133 0.092,-0.199 0.031,-0.07 0.062,-0.141 0.091,-0.212 0.029,-0.07 0.058,-0.14 0.085,-0.21 0.027,-0.071 0.054,-0.141 0.08,-0.212 0.026,-0.073 0.052,-0.146 0.077,-0.221 0.022,-0.069 0.046,-0.14 0.068,-0.211 0.023,-0.076 0.045,-0.153 0.067,-0.23 0.021,-0.07 0.04,-0.14 0.058,-0.211 0.021,-0.079 0.039,-0.159 0.058,-0.239 0.016,-0.07 0.032,-0.14 0.047,-0.21 0.017,-0.083 0.031,-0.166 0.046,-0.25 0.012,-0.069 0.026,-0.138 0.037,-0.207 0.014,-0.087 0.024,-0.175 0.035,-0.263 0.009,-0.067 0.019,-0.134 0.026,-0.201 0.01,-0.093 0.017,-0.187 0.024,-0.28 0.005,-0.063 0.012,-0.127 0.015,-0.19 0.007,-0.105 0.009,-0.211 0.011,-0.317 10e-4,-0.053 0.004,-0.106 0.005,-0.159 10e-4,-0.16 -0.001,-0.32 -0.008,-0.481 -0.006,-0.147 -0.017,-0.294 -0.03,-0.438 -0.002,-0.025 -0.003,-0.051 -0.006,-0.074 l 0.001,0.001 c -0.362,-3.847 -2.969,-6.997 -6.456,-8.195 l 0,0.001 c -0.271,-0.094 -0.549,-0.176 -0.831,-0.244 -0.009,-0.003 -0.018,-0.005 -0.026,-0.007 -0.13,-0.032 -0.261,-0.061 -0.394,-0.087 -0.023,-0.006 -0.048,-0.01 -0.072,-0.014 -0.12,-0.022 -0.24,-0.044 -0.36,-0.062 -0.041,-0.006 -0.082,-0.011 -0.122,-0.016 -0.106,-0.016 -0.214,-0.029 -0.322,-0.041 -0.06,-0.006 -0.119,-0.01 -0.179,-0.015 -0.092,-0.008 -0.184,-0.017 -0.276,-0.021 -0.085,-0.005 -0.171,-0.007 -0.257,-0.009 -0.069,-0.003 -0.138,-0.006 -0.208,-0.007 -0.158,-10e-4 -0.316,0.001 -0.476,0.008 -0.147,0.006 -0.295,0.017 -0.441,0.029 -0.042,0.004 -0.084,0.008 -0.126,0.013 -0.112,0.011 -0.224,0.023 -0.335,0.039 -0.037,0.005 -0.074,0.01 -0.111,0.015 -0.139,0.021 -0.276,0.044 -0.413,0.069 -0.041,0.008 -0.082,0.018 -0.123,0.025 -0.099,0.021 -0.197,0.043 -0.294,0.065 -0.052,0.013 -0.104,0.025 -0.157,0.038 -0.098,0.025 -0.194,0.053 -0.291,0.08 -0.067,0.02 -0.133,0.04 -0.199,0.061 -0.093,0.028 -0.184,0.059 -0.275,0.09 -0.063,0.023 -0.127,0.046 -0.19,0.07 -0.063,0.022 -0.126,0.047 -0.188,0.072 -0.067,0.027 -0.135,0.053 -0.202,0.082 -0.049,0.021 -0.098,0.043 -0.146,0.064 -0.133,0.059 -0.264,0.12 -0.394,0.185 -0.039,0.02 -0.078,0.038 -0.117,0.059 -0.08,0.041 -0.158,0.082 -0.236,0.125 -0.025,0.015 -0.05,0.028 -0.074,0.043 -0.265,0.149 -0.521,0.309 -0.77,0.481 -1.91,1.325 -3.309,3.32 -3.871,5.632 0,-0.001 10e-4,-0.001 0.002,-0.001 -0.077,0.317 -0.14,0.641 -0.186,0.969 -10e-4,0.008 -0.002,0.014 -0.003,0.021 -0.014,0.106 -0.026,0.214 -0.039,0.321 -10e-4,0.022 -0.003,0.045 -0.005,0.068 -0.014,0.146 -0.024,0.294 -0.031,0.442 -0.004,0.092 -0.008,0.184 -0.01,0.276 -0.001,0.049 -0.002,0.099 -0.002,0.148 0,0.143 10e-4,0.286 0.007,0.431 0.006,0.161 0.017,0.321 0.032,0.48 0.005,0.052 0.012,0.104 0.018,0.157 0.012,0.105 0.022,0.211 0.038,0.314 0.008,0.062 0.02,0.123 0.03,0.186 0.015,0.094 0.03,0.188 0.047,0.28 0.013,0.064 0.028,0.13 0.041,0.194 0.02,0.088 0.037,0.176 0.059,0.263 0.016,0.065 0.034,0.132 0.051,0.196 0.022,0.085 0.044,0.169 0.069,0.252 0.02,0.066 0.041,0.132 0.062,0.197 0.026,0.081 0.052,0.162 0.08,0.242 0.023,0.065 0.047,0.13 0.07,0.194 0.029,0.079 0.06,0.158 0.091,0.236 0.026,0.063 0.052,0.128 0.08,0.19 0.032,0.077 0.066,0.154 0.102,0.23 0.028,0.062 0.057,0.123 0.087,0.186 0.036,0.074 0.074,0.15 0.113,0.224 0.031,0.06 0.062,0.12 0.095,0.18 0.04,0.074 0.082,0.146 0.124,0.22 0.033,0.058 0.066,0.115 0.102,0.172 0.044,0.073 0.09,0.145 0.136,0.216 0.035,0.056 0.07,0.11 0.107,0.165 0.048,0.072 0.099,0.143 0.149,0.213 0.037,0.053 0.073,0.104 0.111,0.154 0.054,0.073 0.11,0.145 0.166,0.216 0.037,0.046 0.073,0.094 0.109,0.139 0.064,0.077 0.13,0.153 0.196,0.229 0.033,0.037 0.063,0.074 0.096,0.111 0.1,0.111 0.201,0.219 0.306,0.325 0,10e-4 10e-4,10e-4 10e-4,10e-4 0.105,0.105 0.213,0.21 0.323,0.311 0.037,0.034 0.074,0.066 0.111,0.099 0.074,0.067 0.148,0.134 0.225,0.198 0.045,0.039 0.092,0.074 0.138,0.112 0.07,0.056 0.14,0.113 0.211,0.168 0.05,0.039 0.103,0.075 0.153,0.113 0.07,0.052 0.139,0.103 0.209,0.151 0.054,0.037 0.11,0.073 0.165,0.109 0.07,0.047 0.14,0.094 0.211,0.138 0.057,0.036 0.115,0.07 0.173,0.104 0.071,0.043 0.143,0.085 0.214,0.126 0.059,0.033 0.119,0.065 0.179,0.098 0.072,0.038 0.146,0.077 0.219,0.114 0.061,0.031 0.123,0.061 0.184,0.09 0.074,0.036 0.149,0.07 0.226,0.104 0.062,0.028 0.125,0.055 0.188,0.082 0.076,0.031 0.153,0.062 0.23,0.093 0.064,0.025 0.128,0.051 0.192,0.073 0.078,0.028 0.158,0.056 0.237,0.082 0.065,0.022 0.13,0.044 0.196,0.064 0.082,0.025 0.164,0.049 0.245,0.072 0.065,0.019 0.13,0.037 0.196,0.054 0.084,0.022 0.169,0.043 0.255,0.062 0.064,0.016 0.129,0.03 0.194,0.044 0.09,0.019 0.18,0.035 0.271,0.052 0.062,0.011 0.123,0.023 0.186,0.032 0.101,0.017 0.203,0.029 0.304,0.043 0.053,0.006 0.105,0.014 0.159,0.021 0.15,0.016 0.301,0.029 0.453,0.038 0.005,0 0.011,0.002 0.016,0.002 0.034,0.002 0.069,0.002 0.103,0.003 0.053,0.002 0.105,0.004 0.158,0.006 0.077,0.003 0.152,0.008 0.229,0.008 0.164,0.002 0.329,-10e-4 0.495,-0.008 0.15,-0.004 0.301,-0.015 0.45,-0.028 z m -0.666,-0.319 c -0.732,-0.318 -1.224,-0.819 -1.982,-1.131 -0.582,-0.239 -1.184,-0.22 -1.799,-0.272 -0.41,-0.034 -0.839,-0.035 -1.227,-0.176 -0.567,-0.201 -0.914,-0.775 -1.276,-1.244 -0.688,-0.888 -1.481,-1.61 -2.063,-2.597 -0.275,-0.468 -0.354,-1.046 -0.588,-1.535 -0.401,-0.834 -0.449,-1.685 -0.446,-2.607 0.003,-0.914 0.093,-1.847 0.194,-2.77 0.074,-0.118 0.14,-0.503 0.198,-0.618 0.139,-0.277 0.208,-0.363 0.321,-0.645 0.19,-0.474 0.535,-0.93 0.81,-1.33 0.156,-0.229 0.346,-0.44 0.522,-0.614 0.194,-0.191 0.433,-0.349 0.626,-0.521 0.168,-0.148 0.504,-0.406 0.751,-0.686 0.945,-0.227 1.911,-0.895 2.704,-1.09 0.277,-0.068 0.553,-0.123 0.828,-0.168 0.055,-0.06 0.134,-0.1 0.223,-0.104 0.065,-0.002 0.128,0.016 0.18,0.047 0.132,-0.016 0.263,-0.031 0.396,-0.043 0.032,-0.023 0.071,-0.038 0.113,-0.04 0.036,-0.001 0.069,0.007 0.099,0.021 0.238,-0.019 0.477,-0.032 0.716,-0.042 0.035,-0.032 0.082,-0.055 0.134,-0.057 0.053,-0.002 0.102,0.017 0.14,0.048 0.086,-0.002 0.173,-0.004 0.259,-0.006 0.026,-0.014 0.055,-0.022 0.086,-0.023 0.035,-10e-4 0.067,0.007 0.096,0.021 0.351,-0.006 0.705,-0.008 1.066,-0.01 0.686,-0.006 1.289,0.117 1.947,0.18 0.018,0.002 0.037,0.003 0.054,0.004 0.304,0.143 0.776,0.131 1.069,0.339 0.365,0.259 0.775,0.501 1.172,0.722 0.352,0.195 0.682,0.328 0.917,0.649 0.237,0.323 0.475,0.488 0.786,0.747 0.262,0.218 0.503,0.539 0.656,0.848 0.11,0.224 0.16,0.523 0.29,0.738 0.107,0.177 0.292,0.33 0.417,0.543 0.373,0.639 0.498,1.044 0.691,1.778 0.155,0.998 0.088,1.738 0.01,2.426 -0.083,0.734 -0.379,1.403 -0.537,2.126 -0.152,0.696 -0.281,1.166 -0.671,1.778 -0.302,0.475 -0.745,0.78 -1.033,1.288 -0.467,0.821 -0.51,1.477 -1.37,2.016 -0.613,0.385 -1.058,0.809 -1.675,1.156 -0.895,0.503 -1.75,0.769 -2.877,0.928 -0.499,0.06 -0.767,-0.006 -0.927,-0.074 z" />
		</g>
		<g
   style="opacity:0.3"
   id="g168">
			<g
   style="opacity:0.9"
   id="g170">
				<path
   style="fill:#a87d50"
   id="path172"
   d="m 269.276,343.423 c -0.078,0.042 -0.157,0.084 -0.236,0.125 0.061,0.075 0.096,0.177 0.092,0.309 -0.099,0.144 0.074,0.099 0.384,-0.085 0.31,-0.181 0.749,-0.506 1.166,-0.902 -0.056,-0.088 -0.175,-0.091 -0.393,0.004 -0.221,0.091 -0.535,0.285 -1.013,0.549 z" />
				<path
   style="fill:#a87d50"
   id="path174"
   d="m 265.338,342.731 c -0.09,0.045 -0.18,0.089 -0.267,0.132 0.01,0.006 0.021,0.013 0.031,0.021 0.08,-0.051 0.159,-0.103 0.236,-0.153 z" />
				<path
   style="fill:#a87d50"
   id="path176"
   d="m 266.403,344.076 c 0.306,-0.037 0.544,-0.121 0.756,-0.211 0.106,-0.045 0.204,-0.098 0.302,-0.146 0.098,-0.049 0.192,-0.105 0.295,-0.154 -0.134,0.007 -0.253,0.01 -0.363,-0.008 -0.109,-0.017 -0.205,-0.044 -0.283,-0.083 -0.196,-0.074 -0.444,-0.12 -0.716,-0.168 -0.079,0.041 -0.18,0.078 -0.287,0.116 -0.108,0.038 -0.227,0.062 -0.338,0.076 0.125,0.026 0.125,0.026 0.281,-0.034 -0.079,0.031 -0.196,0.076 -0.294,0.115 -0.1,0.032 -0.181,0.059 -0.181,0.059 0.022,0.029 0.083,0.051 0.17,0.066 0.086,0.012 0.198,0.012 0.322,0.008 0.124,-0.008 0.258,-0.027 0.39,-0.052 0.13,-0.031 0.26,-0.061 0.368,-0.104 -0.251,0.137 -0.623,0.314 -0.943,0.423 0.095,0.027 0.197,0.054 0.306,0.076 0.13,-0.015 0.267,-0.029 0.382,-0.055 0,0 -0.041,0.021 -0.083,0.038 -0.042,0.021 -0.084,0.038 -0.084,0.038 z" />
				<path
   style="fill:#a87d50"
   id="path178"
   d="m 273.325,341.312 c -0.042,0.057 -0.089,0.108 -0.133,0.157 -0.062,0.253 -0.162,0.532 -0.281,0.813 0.085,-0.081 0.165,-0.168 0.248,-0.254 0.083,-0.086 0.165,-0.176 0.243,-0.27 0.045,-0.143 0.103,-0.311 0.15,-0.48 0.03,-0.01 0.06,-0.019 0.09,-0.031 0.017,0.037 0.027,0.09 -0.009,0.232 0.006,-0.008 0.011,-0.015 0.017,-0.021 0.085,-0.112 0.172,-0.225 0.256,-0.345 -0.043,0.028 -0.089,0.052 -0.132,0.073 0.094,-0.189 0.191,-0.38 0.26,-0.541 0.062,-0.161 0.095,-0.291 0.055,-0.359 -0.071,0.03 -0.176,0.188 -0.309,0.386 -0.066,0.099 -0.139,0.207 -0.215,0.318 -0.079,0.111 -0.161,0.22 -0.24,0.322 z" />
				<path
   style="fill:#a87d50"
   id="path180"
   d="m 274.259,334.727 c -0.104,0.08 -0.228,0.101 -0.377,0.034 0.049,0.112 0.085,0.242 0.107,0.383 0.024,0.141 0.044,0.288 0.052,0.438 0.025,0.298 0.028,0.593 0.086,0.828 -0.173,-0.115 -0.297,0.026 -0.404,0.296 -0.103,0.27 -0.207,0.67 -0.33,1.091 -0.126,0.42 -0.286,0.859 -0.456,1.218 -0.175,0.359 -0.355,0.637 -0.501,0.758 -0.319,0.328 -0.676,0.823 -1.093,1.278 -0.205,0.23 -0.43,0.446 -0.65,0.638 -0.228,0.187 -0.452,0.348 -0.669,0.463 -0.091,0.175 0.017,0.229 -0.262,0.51 0.223,-0.099 0.437,-0.275 0.611,-0.53 0.034,-0.05 0.066,-0.098 0.097,-0.149 -0.031,0.052 -0.063,0.101 -0.097,0.149 -0.062,0.095 -0.132,0.181 -0.21,0.269 -0.039,0.044 -0.078,0.089 -0.121,0.134 -0.044,0.044 -0.089,0.09 -0.137,0.137 0.073,-0.054 0.133,-0.08 0.142,-0.036 -0.021,0.053 -0.056,0.103 -0.1,0.151 0.433,-0.2 0.841,-0.435 1.182,-0.604 0.342,-0.167 0.63,-0.263 0.825,-0.16 0.064,-0.079 0.128,-0.157 0.191,-0.234 0.38,-0.484 0.611,-0.83 0.794,-1.023 0.174,-0.198 0.292,-0.249 0.375,-0.186 0.331,-0.722 0.551,-1.541 0.705,-2.104 0.078,-0.228 0.136,-0.453 0.202,-0.677 0.055,-0.224 0.116,-0.446 0.159,-0.669 0.099,-0.445 0.163,-0.891 0.205,-1.355 -0.049,-0.15 -0.097,-0.299 -0.149,-0.438 -0.056,-0.14 -0.113,-0.273 -0.17,-0.394 0,-0.072 -0.004,-0.143 -0.007,-0.216 z" />
				<path
   style="fill:#a87d50"
   id="path182"
   d="m 265.119,344.032 c -0.128,-0.338 -0.681,-0.658 -1.312,-1.05 -0.641,-0.388 -1.353,-0.849 -2.048,-1.346 -0.347,-0.275 -0.664,-0.587 -0.931,-0.936 -0.139,-0.172 -0.256,-0.358 -0.372,-0.543 -0.108,-0.19 -0.214,-0.382 -0.298,-0.584 -0.354,-0.799 -0.5,-1.688 -0.425,-2.589 -0.15,0.122 -0.311,0.142 -0.454,0.011 -0.074,-0.064 -0.137,-0.167 -0.189,-0.312 -0.028,-0.073 -0.048,-0.155 -0.063,-0.249 -0.009,-0.047 -0.017,-0.096 -0.022,-0.148 -0.004,-0.053 -0.007,-0.107 -0.009,-0.164 -0.011,-0.237 0.106,-0.545 0.233,-0.804 0.123,-0.262 0.259,-0.475 0.248,-0.587 0.121,-0.535 0.208,-0.898 0.346,-1.279 0.143,-0.378 0.34,-0.781 0.844,-1.301 -0.124,0.044 -0.227,0.032 -0.328,0.033 -0.102,0.004 -0.2,0.022 -0.317,0.123 -0.363,0.218 -0.741,0.534 -1.053,0.972 -0.311,0.437 -0.567,0.987 -0.664,1.62 -0.031,0.178 -0.176,0.417 -0.301,0.514 -0.117,0.097 -0.229,0.043 -0.144,-0.4 -0.208,0.523 -0.282,0.995 -0.307,1.429 -0.021,0.435 0.01,0.834 0.039,1.25 0.007,0.073 0.013,0.144 0.019,0.21 0.008,0.066 0.015,0.129 0.022,0.188 0.012,0.118 0.021,0.223 0.033,0.315 0.011,0.093 0.016,0.173 0.018,0.243 0.005,0.071 0.006,0.131 0.003,0.184 -0.013,0.207 -0.078,0.278 -0.174,0.303 -0.189,0.053 -0.494,-0.107 -0.554,0.356 -0.029,0.082 -0.045,0.177 -0.046,0.282 -0.001,0.104 0.004,0.225 0.028,0.35 0.46,0.847 1.068,1.545 1.735,2.108 0.676,0.558 1.409,0.989 2.178,1.303 0.089,0.039 0.183,0.09 0.276,0.153 0.093,0.064 0.19,0.132 0.289,0.199 0.097,0.07 0.199,0.133 0.299,0.187 0.051,0.026 0.101,0.052 0.15,0.072 0.05,0.019 0.099,0.033 0.147,0.044 0.689,0.23 1.542,0.307 2.168,0.223 0.079,-0.011 0.154,-0.02 0.224,-0.031 0.071,-0.015 0.138,-0.029 0.2,-0.045 0.124,-0.027 0.229,-0.062 0.313,-0.101 0.165,-0.069 0.243,-0.14 0.199,-0.203 z" />
				<path
   style="fill:#a87d50"
   id="path184"
   d="m 264.006,332.078 c -0.292,0.141 -0.593,0.28 -0.896,0.437 0.26,-0.026 0.515,-0.034 0.763,-0.021 0.25,0.018 0.491,0.045 0.727,0.096 0.061,-0.04 0.125,-0.068 0.189,-0.104 0.064,-0.036 0.129,-0.069 0.19,-0.099 -0.371,-0.069 -0.703,-0.147 -0.973,-0.309 z" />
				<path
   style="fill:#a87d50"
   id="path186"
   d="m 256.309,337.795 c 0.17,0.108 0.246,-0.029 0.315,-0.255 0.039,-0.113 0.074,-0.25 0.118,-0.391 0.05,-0.142 0.105,-0.287 0.179,-0.418 -0.062,-0.62 0.01,-1.158 0.16,-1.594 0.151,-0.437 0.385,-0.771 0.662,-1.017 -0.026,-0.041 0.027,-0.168 0.093,-0.309 0.073,-0.138 0.156,-0.291 0.191,-0.386 0.045,0.084 0.381,-0.214 0.243,0.157 0.034,-0.092 0.081,-0.18 0.132,-0.264 0.052,-0.084 0.114,-0.16 0.169,-0.235 0.11,-0.149 0.219,-0.276 0.244,-0.412 0.235,-0.211 0.201,-0.075 0.16,0.075 -0.04,0.153 -0.08,0.326 0.095,0.202 0.219,-0.489 0.546,-0.896 0.887,-1.189 0.341,-0.297 0.7,-0.479 0.994,-0.568 0.294,-0.093 0.53,-0.085 0.655,-0.024 0.129,0.068 0.149,0.189 0.052,0.369 -0.032,0.075 -0.082,0.148 -0.134,0.23 -0.053,0.08 -0.11,0.165 -0.167,0.252 -0.054,0.091 -0.106,0.182 -0.149,0.273 -0.04,0.096 -0.069,0.193 -0.082,0.29 -0.023,0.195 -0.217,0.392 -0.453,0.614 -0.238,0.22 -0.519,0.471 -0.729,0.716 0.123,-0.026 0.332,-0.204 0.497,-0.299 0.167,-0.096 0.278,-0.116 0.193,0.116 -0.207,0.416 -0.343,0.907 -0.315,1.234 0.231,-0.516 0.568,-1.065 0.96,-1.494 0.194,-0.214 0.396,-0.4 0.594,-0.538 0.095,-0.074 0.194,-0.126 0.281,-0.179 0.09,-0.046 0.174,-0.083 0.248,-0.109 0.24,-0.061 0.475,-0.105 0.707,-0.131 0.303,-0.155 0.604,-0.296 0.896,-0.436 0.271,0.161 0.604,0.239 0.975,0.308 0.152,-0.08 0.29,-0.149 0.368,-0.233 0.101,-0.07 0.092,-0.129 0.008,-0.184 -0.041,-0.027 -0.101,-0.053 -0.173,-0.08 -0.072,-0.023 -0.157,-0.042 -0.25,-0.064 -0.093,-0.02 -0.191,-0.031 -0.292,-0.051 -0.1,-0.015 -0.201,-0.024 -0.298,-0.04 -0.096,-0.011 -0.188,-0.022 -0.269,-0.04 -0.081,-0.018 -0.15,-0.031 -0.204,-0.058 0.398,-0.108 0.726,-0.191 0.983,-0.274 0.129,-0.042 0.24,-0.08 0.334,-0.128 0.094,-0.043 0.172,-0.087 0.233,-0.136 0.242,-0.197 0.212,-0.453 -0.111,-0.703 -0.451,-0.295 -1.001,-0.494 -1.922,-0.531 -0.119,0.012 -0.25,0.026 -0.389,0.05 -0.136,0.029 -0.282,0.058 -0.426,0.104 -0.143,0.048 -0.29,0.097 -0.428,0.165 -0.069,0.033 -0.138,0.066 -0.204,0.104 -0.065,0.038 -0.129,0.078 -0.19,0.119 0.157,-0.117 0.675,-0.415 0.528,-0.41 -0.555,0.11 -0.975,0.175 -1.421,0.32 -0.113,0.034 -0.224,0.08 -0.339,0.132 -0.117,0.051 -0.233,0.113 -0.354,0.188 -0.244,0.146 -0.5,0.348 -0.771,0.629 -0.01,-0.098 -0.164,-0.033 0.117,-0.362 -0.07,0.082 -0.129,0.144 -0.181,0.19 -0.05,0.049 -0.092,0.081 -0.13,0.103 -0.077,0.045 -0.135,0.048 -0.193,0.052 -0.059,0.002 -0.116,0.008 -0.192,0.057 -0.074,0.053 -0.173,0.14 -0.29,0.329 -0.222,0.082 -0.396,0.028 -0.609,0.08 -0.106,0.026 -0.228,0.076 -0.358,0.193 -0.066,0.059 -0.138,0.131 -0.213,0.224 -0.073,0.094 -0.15,0.208 -0.232,0.345 -0.082,0.162 -0.158,0.3 -0.227,0.426 -0.066,0.127 -0.13,0.239 -0.192,0.348 -0.273,0.885 -0.492,1.844 -0.584,2.978 -0.062,0.818 0.016,1.598 0.205,2.319 -0.029,-0.185 -0.043,-0.358 -0.049,-0.492 -10e-4,-0.134 0.012,-0.23 0.044,-0.257 z" />
				<path
   style="fill:#a87d50"
   id="path188"
   d="m 256.957,339.494 c 0.061,-0.465 0.364,-0.304 0.554,-0.357 0.096,-0.024 0.161,-0.096 0.174,-0.303 0.002,-0.053 10e-4,-0.113 -0.003,-0.183 -0.002,-0.071 -0.008,-0.152 -0.018,-0.244 -0.011,-0.093 -0.021,-0.197 -0.034,-0.315 -0.007,-0.059 -0.014,-0.121 -0.021,-0.188 -0.006,-0.066 -0.012,-0.136 -0.02,-0.21 -0.028,-0.416 -0.061,-0.814 -0.038,-1.25 0.024,-0.434 0.098,-0.906 0.307,-1.429 -0.086,0.443 0.026,0.497 0.143,0.4 0.125,-0.097 0.27,-0.336 0.3,-0.514 0.097,-0.634 0.354,-1.184 0.664,-1.62 0.312,-0.438 0.69,-0.755 1.054,-0.972 0.117,-0.101 0.216,-0.119 0.316,-0.123 0.103,-10e-4 0.206,0.011 0.329,-0.033 -0.503,0.52 -0.702,0.924 -0.844,1.301 -0.137,0.382 -0.225,0.743 -0.346,1.279 0.011,0.112 -0.125,0.324 -0.248,0.587 -0.126,0.259 -0.243,0.567 -0.233,0.804 0.002,0.057 0.005,0.112 0.008,0.164 0.007,0.052 0.015,0.102 0.022,0.148 0.016,0.095 0.036,0.177 0.064,0.249 0.052,0.145 0.114,0.247 0.188,0.312 0.144,0.131 0.304,0.111 0.455,-0.011 0.055,-0.634 0.223,-1.261 0.513,-1.853 0.025,-0.055 0.046,-0.112 0.074,-0.167 -0.026,-0.327 0.108,-0.818 0.315,-1.235 0.085,-0.232 -0.026,-0.212 -0.193,-0.115 -0.165,0.095 -0.374,0.272 -0.497,0.299 0.211,-0.245 0.491,-0.496 0.729,-0.716 0.237,-0.223 0.43,-0.42 0.454,-0.614 0.013,-0.097 0.042,-0.194 0.082,-0.29 0.042,-0.093 0.094,-0.184 0.149,-0.273 0.058,-0.087 0.115,-0.173 0.168,-0.252 0.052,-0.082 0.101,-0.155 0.134,-0.231 0.097,-0.179 0.077,-0.301 -0.052,-0.368 -0.125,-0.061 -0.361,-0.068 -0.656,0.023 -0.293,0.091 -0.653,0.271 -0.994,0.569 -0.342,0.294 -0.668,0.699 -0.888,1.189 -0.174,0.123 -0.134,-0.05 -0.094,-0.203 0.041,-0.15 0.075,-0.285 -0.161,-0.074 -0.025,0.135 -0.134,0.262 -0.243,0.412 -0.055,0.074 -0.117,0.151 -0.169,0.234 -0.051,0.084 -0.098,0.173 -0.132,0.265 0.137,-0.371 -0.199,-0.073 -0.243,-0.157 -0.036,0.095 -0.119,0.248 -0.192,0.386 -0.066,0.14 -0.118,0.268 -0.093,0.309 -0.276,0.245 -0.512,0.579 -0.662,1.017 -0.149,0.436 -0.221,0.973 -0.159,1.594 -0.074,0.131 -0.13,0.276 -0.18,0.417 -0.044,0.142 -0.08,0.278 -0.118,0.392 -0.069,0.226 -0.145,0.362 -0.315,0.254 -0.032,0.028 -0.045,0.124 -0.044,0.258 0.006,0.135 0.021,0.308 0.049,0.492 0.148,0.568 0.362,1.098 0.625,1.581 -0.023,-0.125 -0.028,-0.244 -0.027,-0.35 10e-4,-0.106 0.018,-0.204 0.047,-0.285 z" />
				<path
   style="fill:#a87d50"
   id="path190"
   d="m 257.112,332.474 c 0.082,-0.137 0.159,-0.251 0.231,-0.345 0.075,-0.094 0.147,-0.165 0.213,-0.224 0.131,-0.116 0.252,-0.167 0.358,-0.193 0.213,-0.052 0.388,0.002 0.608,-0.08 0.117,-0.189 0.217,-0.277 0.29,-0.329 0.076,-0.05 0.133,-0.055 0.192,-0.057 0.059,-0.004 0.116,-0.007 0.193,-0.052 0.038,-0.021 0.081,-0.054 0.13,-0.103 0.052,-0.047 0.111,-0.108 0.182,-0.19 -0.28,0.329 -0.127,0.265 -0.117,0.362 0.271,-0.281 0.527,-0.483 0.771,-0.629 0.122,-0.074 0.238,-0.137 0.354,-0.188 0.115,-0.052 0.226,-0.098 0.339,-0.132 0.447,-0.146 0.867,-0.21 1.421,-0.32 0.148,-0.005 -0.371,0.293 -0.527,0.41 0.062,-0.041 0.125,-0.081 0.19,-0.119 0.065,-0.037 0.135,-0.07 0.204,-0.104 0.138,-0.068 0.285,-0.117 0.428,-0.165 0.144,-0.047 0.289,-0.075 0.426,-0.104 0.139,-0.023 0.27,-0.038 0.389,-0.05 0.921,0.037 1.472,0.236 1.922,0.531 0.323,0.25 0.353,0.506 0.11,0.703 -0.061,0.049 -0.138,0.094 -0.232,0.136 -0.094,0.048 -0.206,0.086 -0.334,0.128 -0.258,0.083 -0.585,0.166 -0.983,0.274 0.053,0.026 0.123,0.04 0.204,0.058 0.081,0.018 0.172,0.029 0.268,0.04 0.097,0.016 0.198,0.025 0.298,0.04 0.101,0.019 0.2,0.031 0.292,0.051 0.092,0.022 0.177,0.041 0.25,0.064 0.072,0.027 0.132,0.053 0.173,0.08 0.083,0.055 0.093,0.113 -0.008,0.184 -0.079,0.084 -0.216,0.153 -0.368,0.233 0.222,0.037 0.462,0.079 0.714,0.121 0.25,0.042 0.509,0.096 0.769,0.168 0.26,0.071 0.521,0.158 0.771,0.265 0.251,0.107 0.487,0.238 0.7,0.379 0.097,-0.069 0.134,-0.167 0.024,-0.299 -0.192,-0.27 -0.31,-0.458 -0.367,-0.624 -0.056,-0.167 -0.061,-0.298 -0.053,-0.433 0.006,-0.135 0.021,-0.269 -0.026,-0.424 -0.023,-0.077 -0.061,-0.163 -0.124,-0.257 -0.065,-0.09 -0.153,-0.195 -0.28,-0.302 -0.052,-0.043 -0.131,-0.095 -0.225,-0.148 -0.095,-0.049 -0.204,-0.102 -0.31,-0.15 -0.108,-0.045 -0.214,-0.087 -0.299,-0.121 -0.086,-0.032 -0.153,-0.059 -0.183,-0.075 -0.132,-0.106 -0.19,-0.195 -0.21,-0.28 -0.019,-0.084 0.003,-0.164 0.026,-0.244 0.043,-0.16 0.098,-0.321 -0.222,-0.521 0.016,-0.019 -0.045,-0.031 -0.147,-0.041 -0.103,-0.011 -0.246,-0.021 -0.393,-0.021 -0.148,-0.003 -0.3,-0.006 -0.421,-0.009 -0.122,-0.006 -0.212,-0.021 -0.237,-0.051 -0.2,-0.099 -0.253,-0.23 -0.367,-0.341 -0.057,-0.056 -0.129,-0.101 -0.246,-0.132 -0.117,-0.031 -0.278,-0.048 -0.508,-0.024 -0.632,0.051 -1.159,0.134 -1.617,0.211 -0.459,0.076 -0.844,0.157 -1.197,0.22 -0.699,0.14 -1.252,0.228 -1.868,0.427 -0.499,0.54 -0.886,1.108 -1.207,1.699 -0.32,0.593 -0.575,1.207 -0.788,1.867 0.062,-0.108 0.126,-0.221 0.192,-0.348 0.074,-0.123 0.15,-0.26 0.232,-0.422 z" />
				<path
   style="fill:#a87d50"
   id="path192"
   d="m 267.93,339.213 c -0.092,0.214 -0.212,0.396 -0.348,0.553 0.213,-0.131 0.401,-0.259 0.577,-0.375 0.091,-0.057 0.17,-0.115 0.257,-0.167 0.08,-0.056 0.163,-0.105 0.24,-0.155 0.312,-0.198 0.61,-0.356 0.91,-0.517 0.103,-0.047 0.25,-0.571 0.292,-1.133 0.061,-0.563 0.013,-1.146 0.188,-1.333 0.043,0.01 0.088,0.041 0.133,0.092 0.043,0.051 0.083,0.122 0.126,0.208 0.043,0.087 0.073,0.19 0.108,0.306 0.029,0.115 0.058,0.244 0.074,0.38 0.116,-0.524 0.187,-0.946 0.267,-1.311 0.072,-0.364 0.149,-0.675 0.213,-0.979 0.033,-0.153 0.056,-0.303 0.079,-0.461 0.014,-0.156 0.03,-0.321 0.022,-0.495 -0.01,-0.351 -0.086,-0.752 -0.31,-1.24 -0.225,-0.486 -0.482,-0.952 -0.751,-1.384 -0.269,-0.432 -0.547,-0.827 -0.8,-1.186 -0.508,-0.714 -0.922,-1.275 -0.901,-1.673 0.014,-0.083 -0.078,-0.198 -0.251,-0.326 -0.172,-0.133 -0.428,-0.274 -0.737,-0.415 -0.619,-0.281 -1.464,-0.514 -2.249,-0.648 -0.625,0.073 -1.233,0.202 -1.816,0.373 0.887,0.049 1.587,0.258 1.767,0.474 0.235,0.368 0.605,0.671 1.192,1.028 0.581,0.364 1.397,0.767 2.382,1.511 0.309,0.263 0.247,0.449 0.154,0.612 -0.094,0.161 -0.217,0.302 -0.091,0.468 0.229,0.345 0.387,0.664 0.493,0.97 0.057,0.146 0.094,0.299 0.13,0.438 0.032,0.143 0.056,0.279 0.073,0.412 0.062,0.534 0.02,1.014 -0.083,1.504 -0.067,0.209 -0.109,0.573 -0.185,0.961 0.09,0.283 0.163,0.573 0.198,0.869 0.035,0.295 0.032,0.603 -0.027,0.894 -0.004,0.429 -0.119,0.705 -0.24,0.882 -0.066,0.086 -0.13,0.152 -0.2,0.2 -0.07,0.048 -0.137,0.083 -0.204,0.112 -0.139,0.055 -0.261,0.091 -0.376,0.161 -0.109,0.072 -0.209,0.18 -0.306,0.39 z" />
				<path
   style="fill:#a87d50"
   id="path194"
   d="m 263.37,328.822 c 0.23,-0.023 0.391,-0.007 0.508,0.024 0.116,0.031 0.188,0.075 0.246,0.132 0.114,0.11 0.167,0.242 0.367,0.341 0.024,0.03 0.115,0.045 0.236,0.051 0.122,0.003 0.273,0.006 0.421,0.01 0.147,0 0.291,0.01 0.393,0.021 0.102,0.01 0.164,0.022 0.148,0.042 0.319,0.199 0.265,0.36 0.221,0.521 -0.022,0.08 -0.044,0.16 -0.026,0.244 0.02,0.085 0.078,0.174 0.21,0.28 0.029,0.018 0.096,0.043 0.182,0.075 0.085,0.034 0.19,0.076 0.299,0.121 0.106,0.049 0.215,0.102 0.31,0.15 0.093,0.055 0.173,0.105 0.225,0.148 0.127,0.106 0.215,0.212 0.28,0.302 0.063,0.094 0.101,0.18 0.124,0.257 0.046,0.155 0.031,0.289 0.026,0.424 -0.007,0.136 -0.003,0.266 0.053,0.433 0.057,0.166 0.173,0.355 0.366,0.625 0.109,0.132 0.087,0.207 -0.025,0.301 0.002,10e-4 0.006,0.003 0.008,0.005 -0.151,0.069 -0.073,0.157 0.023,0.28 0.099,0.12 0.234,0.254 0.288,0.308 0.264,0.276 0.401,0.511 0.502,0.735 0.097,0.229 0.157,0.45 0.223,0.737 0.04,0.104 0.072,0.211 0.109,0.316 0.075,-0.388 0.116,-0.752 0.184,-0.961 0.103,-0.49 0.146,-0.97 0.083,-1.505 -0.017,-0.133 -0.042,-0.269 -0.073,-0.412 -0.037,-0.138 -0.073,-0.29 -0.131,-0.438 -0.105,-0.305 -0.264,-0.624 -0.492,-0.969 -0.126,-0.166 -0.003,-0.307 0.091,-0.468 0.094,-0.163 0.155,-0.35 -0.153,-0.613 -0.985,-0.744 -1.801,-1.146 -2.382,-1.511 -0.587,-0.356 -0.957,-0.658 -1.193,-1.028 -0.18,-0.216 -0.879,-0.426 -1.767,-0.473 -0.494,0.14 -0.967,0.322 -1.417,0.512 -0.115,0.057 -0.251,0.099 -0.385,0.142 -0.135,0.043 -0.272,0.078 -0.396,0.106 -0.244,0.064 -0.436,0.1 -0.436,0.1 -0.795,0.431 -1.421,0.948 -1.931,1.493 0.615,-0.198 1.169,-0.286 1.868,-0.427 0.353,-0.062 0.738,-0.144 1.197,-0.22 0.457,-0.077 0.984,-0.16 1.616,-0.211 z" />
				<path
   style="fill:#a87d50"
   id="path196"
   d="m 267.031,340.215 c -0.041,0.049 -0.086,0.103 -0.134,0.154 -0.051,0.045 -0.102,0.095 -0.153,0.129 -0.292,0.226 -0.321,0.05 -0.472,0.105 l 0.082,0.014 c -0.035,0.011 -0.071,0.023 -0.106,0.034 0.108,0.05 0.211,0.11 0.296,0.178 0.084,0.065 0.152,0.145 0.193,0.242 0.113,-0.05 0.214,-0.101 0.309,-0.128 0.091,-0.034 0.174,-0.047 0.24,-0.032 0.455,0.089 0.896,0.203 1.464,0.079 0.283,-0.064 0.6,-0.191 0.938,-0.449 0.166,-0.131 0.344,-0.289 0.513,-0.494 0.174,-0.201 0.34,-0.447 0.495,-0.742 0.029,-0.061 0.059,-0.111 0.087,-0.154 0.027,-0.045 0.052,-0.08 0.079,-0.109 0.053,-0.059 0.106,-0.09 0.161,-0.104 0.108,-0.028 0.219,0.012 0.341,0.04 0.121,0.028 0.251,0.043 0.397,-0.055 0.071,-0.049 0.154,-0.125 0.228,-0.247 0.037,-0.061 0.076,-0.132 0.115,-0.216 0.038,-0.084 0.071,-0.182 0.106,-0.292 0.09,-0.296 0.154,-0.748 0.181,-1.15 0.012,-0.101 0.015,-0.198 0.024,-0.29 0.008,-0.091 0.022,-0.177 0.03,-0.253 0.021,-0.152 0.056,-0.269 0.113,-0.323 0.158,-0.089 0.361,0.101 0.531,0.155 0.085,0.025 0.162,0.015 0.22,-0.093 0.029,-0.053 0.056,-0.132 0.071,-0.242 0.013,-0.109 0.021,-0.252 0.014,-0.434 -0.032,-0.453 -0.096,-0.896 -0.179,-1.328 -0.087,-0.431 -0.199,-0.845 -0.324,-1.241 -0.259,-0.79 -0.581,-1.5 -0.899,-2.114 -0.318,-0.614 -0.634,-1.131 -0.865,-1.557 -0.114,-0.217 -0.213,-0.404 -0.278,-0.574 -0.064,-0.171 -0.103,-0.316 -0.101,-0.438 -0.354,-0.27 -0.763,-0.498 -1.199,-0.7 -0.441,-0.195 -0.915,-0.356 -1.409,-0.472 -0.495,-0.11 -1.007,-0.187 -1.524,-0.21 -0.517,-0.021 -1.037,-0.01 -1.546,0.053 0.786,0.134 1.631,0.366 2.249,0.647 0.31,0.141 0.565,0.282 0.738,0.415 0.173,0.128 0.264,0.243 0.251,0.326 -0.021,0.397 0.393,0.959 0.901,1.672 0.254,0.359 0.532,0.756 0.8,1.188 0.269,0.431 0.526,0.896 0.752,1.383 0.224,0.488 0.299,0.89 0.309,1.24 0.008,0.174 -0.008,0.34 -0.022,0.495 -0.023,0.159 -0.045,0.308 -0.079,0.461 -0.063,0.305 -0.141,0.614 -0.213,0.979 -0.08,0.365 -0.15,0.786 -0.266,1.311 -0.017,-0.136 -0.046,-0.264 -0.074,-0.38 -0.036,-0.115 -0.065,-0.22 -0.108,-0.306 -0.042,-0.086 -0.083,-0.157 -0.126,-0.208 -0.045,-0.052 -0.09,-0.082 -0.134,-0.092 -0.175,0.188 -0.128,0.771 -0.188,1.333 -0.042,0.562 -0.189,1.086 -0.292,1.133 -0.299,0.16 -0.597,0.318 -0.909,0.517 -0.078,0.05 -0.161,0.099 -0.24,0.155 -0.087,0.052 -0.166,0.11 -0.257,0.167 -0.176,0.116 -0.364,0.244 -0.577,0.374 -0.168,0.186 -0.356,0.335 -0.554,0.448 z" />
				<path
   style="fill:#a87d50"
   id="path198"
   d="m 273.396,335.537 c 0.007,0.182 0,0.323 -0.014,0.434 -0.015,0.11 -0.042,0.188 -0.071,0.242 -0.058,0.107 -0.135,0.117 -0.22,0.092 -0.171,-0.054 -0.373,-0.243 -0.531,-0.154 -0.058,0.055 -0.093,0.171 -0.113,0.322 -0.008,0.076 -0.022,0.162 -0.03,0.254 -0.009,0.092 -0.012,0.189 -0.024,0.289 -0.027,0.402 -0.091,0.854 -0.181,1.15 -0.035,0.111 -0.068,0.208 -0.106,0.293 -0.039,0.083 -0.078,0.154 -0.115,0.216 -0.073,0.121 -0.157,0.198 -0.228,0.247 -0.146,0.098 -0.276,0.082 -0.397,0.055 -0.122,-0.029 -0.232,-0.069 -0.341,-0.041 -0.055,0.016 -0.108,0.047 -0.161,0.105 -0.026,0.029 -0.052,0.064 -0.079,0.108 -0.029,0.043 -0.058,0.095 -0.087,0.154 -0.154,0.295 -0.32,0.542 -0.495,0.743 -0.169,0.204 -0.347,0.363 -0.513,0.494 -0.338,0.258 -0.656,0.385 -0.938,0.448 -0.568,0.124 -1.009,0.011 -1.464,-0.079 -0.066,-0.014 -0.15,-0.002 -0.24,0.032 -0.094,0.027 -0.196,0.079 -0.309,0.128 0.031,0.077 0.048,0.166 0.036,0.273 0.003,0.043 0.052,0.068 0.133,0.077 0.04,0.005 0.089,0.007 0.144,0.007 0.054,-0.002 0.112,-0.01 0.175,-0.016 0.25,-0.032 0.555,-0.115 0.761,-0.166 0.187,0.055 0.221,0.198 0.162,0.4 -0.029,0.104 -0.088,0.21 -0.157,0.33 -0.075,0.113 -0.159,0.24 -0.256,0.354 -0.051,0.079 -0.104,0.164 -0.163,0.243 -0.014,-0.003 -0.026,-0.006 -0.039,-0.007 -0.055,0.059 -0.105,0.123 -0.157,0.178 0.21,-0.018 0.417,-0.041 0.613,-0.066 0.062,-0.031 0.126,-0.066 0.203,-0.096 -0.024,0.023 -0.054,0.053 -0.087,0.084 0.275,-0.035 0.53,-0.064 0.739,-0.051 0.087,0.015 0.188,0.013 0.297,-0.004 0.11,-0.016 0.226,-0.053 0.352,-0.1 0.08,-0.074 0.158,-0.156 0.25,-0.234 -0.08,0.082 -0.125,0.144 -0.155,0.195 0.445,-0.191 0.943,-0.565 1.388,-0.983 0.447,-0.417 0.833,-0.881 1.179,-1.179 0.075,-0.055 0.165,-0.146 0.26,-0.267 0.09,-0.122 0.198,-0.271 0.292,-0.442 0.202,-0.341 0.388,-0.764 0.545,-1.17 0.162,-0.406 0.284,-0.796 0.414,-1.055 0.124,-0.258 0.257,-0.39 0.421,-0.263 -0.034,-0.237 -0.022,-0.528 -0.021,-0.823 -0.003,-0.147 -0.003,-0.296 -0.018,-0.436 -0.016,-0.14 -0.04,-0.271 -0.077,-0.387 0.142,0.076 0.266,0.066 0.377,-0.006 0.022,-0.533 -0.066,-1.178 10e-4,-1.31 0.073,0.03 0.13,0.157 0.171,0.331 0.022,0.087 0.041,0.185 0.061,0.287 0.017,0.104 0.036,0.211 0.054,0.318 0.021,-0.045 0.041,-0.092 0.062,-0.14 -0.001,-0.052 -0.003,-0.103 -0.004,-0.154 -0.077,-0.253 -0.169,-0.503 -0.281,-0.715 -0.168,-0.228 -0.363,-0.471 -0.524,-0.651 0.07,0.021 0.153,0.096 0.244,0.209 0.093,0.112 0.192,0.265 0.28,0.442 0.089,0.118 0.177,0.228 0.25,0.32 -0.059,-0.58 -0.185,-1.202 -0.421,-1.858 -0.076,-0.12 -0.148,-0.238 -0.227,-0.341 0.067,0.089 0.137,0.19 0.21,0.296 -0.033,-0.088 -0.064,-0.18 -0.103,-0.27 -0.313,-0.451 -1.009,-1.302 -1.837,-1.969 -0.23,-0.705 -0.766,-1.412 -1.536,-1.977 -10e-4,0.123 0.037,0.268 0.101,0.439 0.065,0.17 0.164,0.357 0.278,0.573 0.231,0.427 0.547,0.943 0.865,1.558 0.319,0.614 0.641,1.323 0.899,2.113 0.125,0.397 0.237,0.812 0.324,1.241 0.084,0.439 0.147,0.883 0.179,1.336 z" />
			</g>
		</g>
	</g>
</g>
<rect
   style="fill:none"
   id="rect200"
   height="22.782"
   width="37.463001"
   y="138.364"
   x="48.11499" />
<g
   transform="translate(-232.737,-190.59599)"
   id="g202"
   enable-background="new    ">
	<path
   style="fill:#ffffff"
   id="path204"
   d="m 283.084,335.92 c -0.072,0.024 0,0.168 0,0.168 0.768,1.272 1.2,2.376 2.136,4.705 0.312,0.84 0.625,1.512 0.888,1.992 0.216,0.407 -0.408,0.743 -0.624,0.336 -0.264,-0.505 -0.576,-1.2 -0.912,-2.064 -1.104,-2.856 -1.8,-4.368 -2.16,-4.729 -0.024,-0.024 -0.048,-0.024 -0.072,-0.072 -0.024,0.168 -0.096,0.48 -0.096,0.744 -0.024,0.433 -0.024,0.84 -0.048,1.248 0,0.192 -0.024,0.576 -0.048,1.152 -0.072,1.176 -0.072,1.512 -0.072,2.424 0,0.456 0.024,0.889 0.048,1.248 0.024,0.192 -0.12,0.36 -0.312,0.36 -0.192,0.024 -0.36,-0.12 -0.36,-0.312 -0.048,-0.36 -0.072,-0.792 -0.072,-1.272 0,-0.937 0,-1.32 0.072,-2.496 0.024,-0.576 0.048,-0.96 0.072,-1.152 0.144,-3.288 0.096,-6.145 -0.096,-8.545 -0.024,-0.216 -0.144,-0.384 -0.096,-0.6 0.024,-0.048 0.024,-0.072 0.048,-0.12 0.024,-0.072 0.096,-0.145 0.192,-0.168 1.896,-0.456 3.36,0.048 4.2,1.2 0.84,1.08 0.768,2.76 -0.312,4.104 -0.648,0.84 -1.44,1.439 -2.328,1.824 l -0.048,0.025 z m -0.264,-0.648 c 0.168,-0.072 0.192,-0.072 0.312,-0.145 1.44,-0.72 2.424,-2.088 2.496,-3.24 0.024,-0.6 -0.12,-1.104 -0.432,-1.512 -0.504,-0.769 -1.464,-1.2 -2.64,-1.104 -0.288,0.024 -0.432,0.24 -0.432,0.528 0.12,1.416 0.168,3.096 0.144,5.04 0,0.36 0.072,0.504 0.192,0.504 0.192,10e-4 0.36,-0.071 0.36,-0.071 z" />
	<path
   style="fill:#ffffff"
   id="path206"
   d="m 289.013,330.664 c 0.168,0.432 0.264,0.768 0.336,1.031 0.072,0.288 1.368,6.001 2.041,8.018 l 0.024,0.048 c 0.12,0.432 0.528,1.368 0.528,0.983 l 0,-1.056 c 0,-0.624 -0.024,-1.704 -0.072,-3.265 -0.096,-3.072 -0.072,-5.185 0.216,-7.296 0.024,-0.192 0.192,-0.312 0.384,-0.288 0.192,0.023 0.312,0.191 0.288,0.384 -0.288,2.04 -0.288,4.128 -0.192,7.177 0.024,1.536 0.048,2.64 0.048,3.288 l 0,1.896 c 0,0.432 -0.024,0.768 -0.048,1.008 -0.024,0.168 -0.048,0.288 -0.072,0.384 -0.024,0.072 -0.048,0.12 -0.072,0.168 -0.096,0.12 -0.216,0.192 -0.36,0.168 -0.072,0 -0.144,-0.023 -0.216,-0.072 -0.024,-0.023 -0.024,-0.048 -0.048,-0.071 -0.024,-0.024 -0.024,-0.024 -0.024,-0.048 l -0.048,-0.12 c -0.024,-0.072 -0.072,-0.145 -0.12,-0.265 l -0.264,-0.888 -0.624,-1.896 c -0.336,-1.032 -0.696,-2.376 -1.08,-4.032 -0.552,-2.328 -0.864,-3.672 -0.96,-4.032 -0.024,-0.12 -0.12,-0.432 -0.168,-0.552 -0.024,-0.097 -0.096,1.08 -0.096,1.08 -0.048,0.815 -0.072,1.344 -0.072,1.607 0,0.625 -0.024,1.656 -0.072,3.097 -0.096,2.88 -0.144,3.696 0.072,6.192 0.024,0.192 -0.096,0.36 -0.288,0.384 -0.192,0.024 -0.36,-0.096 -0.384,-0.287 -0.12,-0.816 -0.168,-1.776 -0.168,-2.881 0,-1.08 0.024,-2.304 0.096,-3.624 0.048,-1.32 0.072,-2.28 0.072,-2.881 0,-0.359 0.024,-0.911 0.048,-1.632 0.048,-0.72 0.072,-1.248 0.072,-1.608 -0.096,-1.536 -0.072,-1.752 0.12,-1.872 0.096,-0.048 0.216,-0.048 0.336,-0.023 0.192,0.071 0.312,0.24 0.384,0.479 l 0.383,1.297 z" />
	<path
   style="fill:#ffffff"
   id="path208"
   d="m 295.421,329.151 c 0.072,1.776 0.048,4.465 -0.096,8.041 -0.024,0.792 -0.024,1.848 0.048,3.168 0.072,1.656 0.12,2.736 0.12,3.217 0,0.191 -0.144,0.336 -0.336,0.336 -0.192,0 -0.336,-0.145 -0.336,-0.336 0,-0.553 -0.048,-1.608 -0.12,-3.192 -0.072,-1.465 -0.096,-2.545 -0.048,-3.24 0.144,-3.265 0.168,-5.905 0.096,-7.945 -0.024,-0.191 0.12,-0.359 0.312,-0.384 0.192,-10e-4 0.36,0.143 0.36,0.335 z" />
	<path
   style="fill:#ffffff"
   id="path210"
   d="m 298.181,330.664 c 0.168,0.432 0.264,0.768 0.336,1.031 0.072,0.288 1.368,6.001 2.041,8.018 l 0.024,0.048 c 0.12,0.432 0.528,1.368 0.528,0.983 l 0,-1.056 c 0,-0.624 -0.024,-1.704 -0.072,-3.265 -0.096,-3.072 -0.072,-5.185 0.216,-7.296 0.024,-0.192 0.192,-0.312 0.384,-0.288 0.192,0.023 0.312,0.191 0.288,0.384 -0.288,2.04 -0.288,4.128 -0.192,7.177 0.024,1.536 0.048,2.64 0.048,3.288 l 0,1.896 c 0,0.432 -0.024,0.768 -0.048,1.008 -0.024,0.168 -0.048,0.288 -0.072,0.384 -0.024,0.072 -0.048,0.12 -0.072,0.168 -0.096,0.12 -0.216,0.192 -0.36,0.168 -0.072,0 -0.144,-0.023 -0.216,-0.072 -0.024,-0.023 -0.024,-0.048 -0.048,-0.071 -0.024,-0.024 -0.024,-0.024 -0.024,-0.048 l -0.048,-0.12 c -0.024,-0.072 -0.072,-0.145 -0.12,-0.265 l -0.264,-0.888 -0.624,-1.896 c -0.336,-1.032 -0.696,-2.376 -1.08,-4.032 -0.552,-2.328 -0.864,-3.672 -0.96,-4.032 -0.024,-0.12 -0.12,-0.432 -0.168,-0.552 -0.024,-0.097 -0.096,1.08 -0.096,1.08 -0.048,0.815 -0.072,1.344 -0.072,1.607 0,0.625 -0.024,1.656 -0.072,3.097 -0.096,2.88 -0.144,3.696 0.072,6.192 0.024,0.192 -0.096,0.36 -0.288,0.384 -0.192,0.024 -0.36,-0.096 -0.384,-0.287 -0.12,-0.816 -0.168,-1.776 -0.168,-2.881 0,-1.08 0.024,-2.304 0.096,-3.624 0.048,-1.32 0.072,-2.28 0.072,-2.881 0,-0.359 0.024,-0.911 0.048,-1.632 0.048,-0.72 0.072,-1.248 0.072,-1.608 -0.096,-1.536 -0.072,-1.752 0.12,-1.872 0.096,-0.048 0.216,-0.048 0.336,-0.023 0.192,0.071 0.312,0.24 0.384,0.479 l 0.383,1.297 z" />
	<path
   style="fill:#ffffff"
   id="path212"
   d="m 306.078,338.656 c -0.192,0 -0.336,-0.144 -0.336,-0.336 0,-0.192 0.144,-0.336 0.336,-0.336 l 0.36,-0.024 0.456,0 c 0.888,0.097 1.248,0.576 1.176,2.112 -0.072,1.464 -0.552,3.12 -1.488,3.624 -1.176,0.648 -2.448,-0.456 -3.048,-3.312 -0.504,-2.521 -0.648,-6.265 -0.192,-8.641 0.264,-1.417 0.696,-2.329 1.272,-2.736 0.936,-0.576 1.776,-0.408 2.376,0.264 0.6,0.6 0.792,1.512 0.48,2.376 -0.168,0.408 -0.816,0.168 -0.624,-0.288 0.216,-0.552 0.048,-1.2 -0.36,-1.607 -0.888,-0.984 -1.992,-0.36 -2.472,2.111 -0.408,2.377 -0.312,5.881 0.192,8.377 0.264,1.296 0.6,2.137 0.984,2.496 0.84,0.792 1.392,0.408 1.848,-0.815 0.384,-1.152 0.432,-2.713 0.216,-3.097 -0.12,-0.192 -0.504,-0.192 -0.792,-0.168 l -0.384,0 z" />
</g>
<rect
   style="fill:none"
   id="rect214"
   height="19.275"
   width="10.152"
   y="138.364"
   x="9.8070078" />
<g
   transform="translate(-232.737,-190.59599)"
   id="g216"
   enable-background="new    ">
	<path
   style="fill:#ffffff"
   id="path218"
   d="m 242.712,329.632 c -0.024,-0.024 -0.024,-0.072 -0.048,-0.12 -0.168,-0.601 0.408,-0.912 0.864,-0.504 0.024,0.023 0.072,0.071 0.096,0.12 0.072,0.071 0.144,0.168 0.288,0.336 0.192,0.264 0.384,0.576 0.6,0.96 0.48,0.983 0.696,1.32 1.128,1.848 0.336,0.408 0.288,0.576 0.624,0.024 0.792,-1.296 1.464,-2.256 2.041,-2.904 0.024,0 0.024,0 0.024,-0.024 0,0 0,-0.023 0.024,-0.048 0.024,-0.023 0.048,-0.072 0.072,-0.12 0.096,-0.191 0.312,-0.432 0.624,-0.264 0.072,0.023 0.12,0.072 0.168,0.144 l 0.048,0.097 c 0,0.023 0,0.071 0.024,0.144 0.024,0.073 0.024,0.192 0.048,0.336 0.072,0.456 0.072,0.721 0.168,2.545 0.072,1.224 0.12,2.376 0.144,3.432 0.12,2.977 0.24,5.28 0.504,7.417 0.024,0.191 -0.096,0.384 -0.288,0.384 -0.192,0.024 -0.384,-0.096 -0.384,-0.288 -0.288,-2.136 -0.408,-4.488 -0.504,-7.488 -0.072,-1.488 -0.12,-2.616 -0.144,-3.408 -0.072,-0.912 -0.096,-1.44 -0.096,-1.584 0,-0.12 -0.024,-0.217 -0.024,-0.337 0,-0.144 -0.336,0.049 -0.6,0.408 -0.36,0.504 -0.792,1.152 -1.248,1.896 l -0.192,0.312 c -0.264,0.433 -0.216,0.288 0.072,0.673 0.432,0.576 0.816,1.056 1.056,1.416 0.264,0.384 -0.312,0.768 -0.576,0.384 -0.192,-0.288 -0.456,-0.624 -0.768,-1.032 -0.36,-0.456 -0.36,-0.456 -0.672,0.024 -0.312,0.456 -0.552,0.84 -0.816,1.176 -0.264,0.36 -0.816,-0.048 -0.528,-0.432 0.288,-0.408 0.6,-0.889 0.984,-1.44 0.24,-0.36 0.264,-0.264 -0.048,-0.696 -0.696,-0.84 -0.888,-1.128 -1.488,-2.256 -0.072,-0.145 -0.144,-0.288 -0.192,-0.36 -0.192,-0.384 -0.168,0.384 -0.168,0.864 0.024,0.336 0.024,0.72 0.024,1.128 0,0.864 -0.024,2.16 -0.072,3.889 -0.072,1.728 -0.096,3.024 -0.096,3.888 0,0.192 0,0.456 0,0.793 -0.024,0.336 -0.024,0.6 -0.024,0.792 0,0.407 0.048,1.032 0.144,1.487 0.024,0.169 -0.072,0.385 -0.24,0.408 -0.192,0.024 -0.408,-0.071 -0.432,-0.264 -0.168,-0.648 -0.168,-1.225 -0.144,-2.305 0.024,-0.527 0.024,-0.84 0.024,-0.912 0,-0.863 0.024,-2.16 0.096,-3.888 0.048,-1.729 0.072,-3.024 0.072,-3.889 0,-1.08 -0.048,-1.944 -0.12,-2.64 0,-0.024 0,-0.024 -0.024,-0.049 l -0.025,-0.073 z" />
</g>
<g
   transform="translate(-232.737,-190.59599)"
   id="g220">
	<g
   id="g222">
		<path
   style="fill:#ffffff"
   id="path224"
   d="m 252.647,309.084 c 2.336,-0.459 3.508,-0.657 5.858,-0.996 0.428,2.969 0.643,4.451 1.071,7.42 0.54,3.744 -1.051,6.109 -4.674,6.833 -3.624,0.724 -6.015,-0.845 -6.956,-4.509 -1.223,-4.763 -1.834,-7.145 -3.057,-11.906 -0.941,-3.664 0.808,-6.406 5.275,-7.298 4.467,-0.892 7.116,0.97 7.656,4.713 0.131,0.909 0.197,1.364 0.328,2.272 -1.621,0.234 -2.431,0.365 -4.045,0.655 -0.179,-0.998 -0.268,-1.497 -0.447,-2.494 -0.298,-1.662 -1.301,-2.139 -2.71,-1.859 -1.41,0.28 -2.156,1.105 -1.796,2.754 1.089,4.989 1.634,7.483 2.723,12.473 0.361,1.65 1.25,2.073 2.463,1.832 1.213,-0.242 1.871,-0.972 1.573,-2.634 -0.308,-1.716 -0.461,-2.573 -0.769,-4.289 -0.738,0.132 -1.107,0.202 -1.844,0.347 -0.258,-1.325 -0.388,-1.988 -0.649,-3.314 z" />
		<path
   style="fill:#ffffff"
   id="path226"
   d="m 260.285,303.012 c -0.463,-3.754 1.732,-6.26 6.256,-6.568 4.524,-0.308 7.031,1.876 7.082,5.658 0.065,4.917 0.098,7.377 0.163,12.293 0.051,3.782 -1.932,5.925 -5.601,6.175 -3.669,0.25 -5.93,-1.604 -6.394,-5.357 -0.602,-4.881 -0.904,-7.321 -1.506,-12.201 z m 5.47,12.02 c 0.146,1.683 0.972,2.25 2.2,2.167 1.228,-0.084 1.969,-0.759 1.886,-2.445 -0.251,-5.1 -0.377,-7.65 -0.628,-12.751 -0.084,-1.687 -1.015,-2.288 -2.442,-2.19 -1.427,0.098 -2.268,0.819 -2.123,2.501 0.443,5.087 0.664,7.631 1.107,12.718 z" />
		<path
   style="fill:#ffffff"
   id="path228"
   d="m 276.103,302.094 c 0.027,-3.783 2.521,-5.982 7.046,-5.702 4.525,0.28 6.736,2.771 6.296,6.528 -0.572,4.885 -0.858,7.326 -1.431,12.21 -0.44,3.757 -2.688,5.624 -6.359,5.397 -3.671,-0.228 -5.666,-2.357 -5.639,-6.139 0.035,-4.917 0.052,-7.377 0.087,-12.294 z m 3.861,12.629 c -0.073,1.687 0.672,2.356 1.9,2.433 1.228,0.075 2.051,-0.497 2.188,-2.181 0.41,-5.089 0.615,-7.635 1.026,-12.724 0.135,-1.683 -0.709,-2.4 -2.137,-2.488 -1.428,-0.088 -2.354,0.519 -2.427,2.206 -0.22,5.101 -0.33,7.652 -0.55,12.754 z" />
		<path
   style="fill:#ffffff"
   id="path230"
   d="m 293.06,297.666 c 2.894,0.408 4.336,0.653 7.209,1.227 4.54,0.907 6.228,3.533 5.287,7.197 -1.189,4.632 -1.784,6.947 -2.974,11.58 -0.94,3.663 -3.245,5.145 -6.944,4.405 -2.341,-0.468 -3.517,-0.667 -5.875,-0.999 1.098,-7.805 2.198,-15.607 3.297,-23.41 z m 3.972,4.053 c -0.986,5.541 -1.973,11.083 -2.958,16.625 0.864,0.154 1.295,0.235 2.157,0.406 1.215,0.242 2.071,-0.189 2.431,-1.839 1.049,-4.804 1.574,-7.206 2.624,-12.011 0.36,-1.649 -0.351,-2.433 -1.758,-2.712 -0.998,-0.198 -1.497,-0.292 -2.496,-0.469 z" />
	</g>
</g>
<g
   transform="translate(-232.737,-190.59599)"
   id="XMLID_190_">
	<g
   id="XMLID_187_">
		<path
   style="fill:#d1d2d2"
   d="m 300.384,428.821 c -2.576,0 -5.764,-0.605 -9.662,-2.276 l 1.512,-3.528 c 5.861,2.511 10.802,2.601 13.554,0.239 1.722,-1.477 2.422,-3.838 1.825,-6.164 -1.229,-4.792 -6.062,-4.473 -6.27,-4.455 l -0.299,-3.826 c 2.854,-0.225 8.669,1.022 10.287,7.326 0.963,3.754 -0.203,7.6 -3.044,10.035 -1.394,1.195 -3.913,2.648 -7.903,2.649 z"
   id="XMLID_194_" />
	</g>
	<path
   style="fill:#e7e7e7"
   d="m 303.22,407.109 -28.482,0 -28.481,0 c 0,17.027 11.454,23.838 11.454,23.838 l -0.23,0 0,3.861 34.515,0 0,-3.861 -0.229,0 c -0.002,0 11.453,-6.81 11.453,-23.838 z"
   id="XMLID_189_" />
	<g
   id="XMLID_191_">
		<rect
   style="fill:#6b0e20"
   height="6.2600002"
   width="0.76800001"
   y="407.10901"
   x="281.82599"
   id="XMLID_192_" />
	</g>
	<path
   style="fill:#cdcccc"
   d="m 274.737,432.764 -34.735,0 c 0,0 3.127,6.242 15.992,9.639 l 0,2.498 36.031,0 0,-2.123 c 14.115,-3.287 17.447,-10.014 17.447,-10.014 l -34.735,0 0,0 z"
   id="XMLID_196_" />
	<polygon
   style="fill:#c1293e"
   points="282.21,412.336 276.981,416.07 276.981,427.514 282.21,427.514 287.438,427.514 287.438,416.07 "
   id="XMLID_193_" />
	<g
   id="XMLID_188_">
		<path
   style="fill:#bdbec0"
   d="m 266.799,401.703 c -3.739,0 -6.78,-3.041 -6.78,-6.781 0,-3.738 3.042,-6.779 6.78,-6.779 3.738,0 6.78,3.041 6.78,6.779 0,3.74 -3.042,6.781 -6.78,6.781 z m 0,-11.256 c -2.469,0 -4.477,2.008 -4.477,4.475 0,2.47 2.008,4.477 4.477,4.477 2.468,0 4.477,-2.008 4.477,-4.477 -0.001,-2.467 -2.009,-4.475 -4.477,-4.475 z"
   id="XMLID_204_" />
	</g>
	<g
   id="XMLID_195_">
		<path
   style="fill:#bdbec0"
   d="m 276.981,389.643 c -2.396,0 -4.346,-1.95 -4.346,-4.347 0,-2.396 1.949,-4.345 4.346,-4.345 2.397,0 4.346,1.949 4.346,4.345 0,2.396 -1.949,4.347 -4.346,4.347 z m 0,-6.389 c -1.126,0 -2.042,0.916 -2.042,2.042 0,1.126 0.916,2.042 2.042,2.042 1.126,0 2.042,-0.916 2.042,-2.042 0,-1.126 -0.916,-2.042 -2.042,-2.042 z"
   id="XMLID_201_" />
	</g>
	<g
   id="XMLID_197_">
		<path
   style="fill:#bdbec0"
   d="m 281.826,403.79 c -2.744,0 -4.977,-2.231 -4.977,-4.977 0,-2.744 2.232,-4.978 4.977,-4.978 2.745,0 4.977,2.233 4.977,4.978 0,2.746 -2.233,4.977 -4.977,4.977 z m 0,-7.649 c -1.474,0 -2.674,1.199 -2.674,2.673 0,1.474 1.199,2.674 2.674,2.674 1.474,0 2.673,-1.199 2.673,-2.674 0,-1.474 -1.199,-2.673 -2.673,-2.673 z"
   id="XMLID_198_" />
	</g>
</g>
<rect
   style="fill:none"
   id="rect246"
   height="19"
   width="63.5"
   y="229.65102"
   x="94.84201" />
<g
   transform="translate(-232.737,-190.59599)"
   id="g248"
   enable-background="new    ">
	<path
   id="path250"
   d="m 330.518,421.604 c -0.012,0.21 -0.024,0.443 -0.024,0.798 l 0,1.685 c 0,0.666 -0.132,1.073 -0.414,1.325 -0.282,0.264 -0.689,0.348 -1.055,0.348 -0.348,0 -0.732,-0.084 -0.966,-0.239 l 0.132,-0.402 c 0.192,0.12 0.492,0.229 0.852,0.229 0.54,0 0.935,-0.282 0.935,-1.014 l 0,-0.324 -0.012,0 c -0.162,0.271 -0.474,0.486 -0.923,0.486 -0.72,0 -1.235,-0.612 -1.235,-1.415 0,-0.984 0.642,-1.542 1.307,-1.542 0.504,0 0.78,0.265 0.905,0.504 l 0.012,0 0.024,-0.438 0.462,0 z m -0.546,1.146 c 0,-0.09 -0.006,-0.168 -0.03,-0.24 -0.096,-0.306 -0.354,-0.558 -0.738,-0.558 -0.503,0 -0.863,0.426 -0.863,1.098 0,0.569 0.288,1.043 0.857,1.043 0.324,0 0.618,-0.203 0.731,-0.539 0.03,-0.09 0.042,-0.192 0.042,-0.282 l 0,-0.522 z" />
	<path
   id="path252"
   d="m 333.998,423.031 c 0,1.074 -0.744,1.542 -1.445,1.542 -0.786,0 -1.391,-0.576 -1.391,-1.493 0,-0.972 0.636,-1.542 1.439,-1.542 0.833,0 1.397,0.607 1.397,1.493 z m -2.303,0.031 c 0,0.636 0.366,1.115 0.881,1.115 0.504,0 0.881,-0.474 0.881,-1.127 0,-0.492 -0.246,-1.115 -0.869,-1.115 -0.624,0 -0.893,0.575 -0.893,1.127 z" />
	<path
   id="path254"
   d="m 337.292,423.031 c 0,1.074 -0.744,1.542 -1.445,1.542 -0.786,0 -1.391,-0.576 -1.391,-1.493 0,-0.972 0.636,-1.542 1.439,-1.542 0.833,0 1.397,0.607 1.397,1.493 z m -2.303,0.031 c 0,0.636 0.366,1.115 0.881,1.115 0.504,0 0.881,-0.474 0.881,-1.127 0,-0.492 -0.246,-1.115 -0.869,-1.115 -0.624,0 -0.893,0.575 -0.893,1.127 z" />
	<path
   id="path256"
   d="m 340.465,420.249 0,3.508 c 0,0.258 0.006,0.552 0.024,0.75 l -0.474,0 -0.024,-0.504 -0.012,0 c -0.162,0.324 -0.516,0.57 -0.989,0.57 -0.702,0 -1.241,-0.594 -1.241,-1.476 -0.006,-0.966 0.594,-1.56 1.301,-1.56 0.444,0 0.744,0.21 0.875,0.444 l 0.012,0 0,-1.733 0.528,0 z m -0.527,2.537 c 0,-0.066 -0.006,-0.156 -0.024,-0.223 -0.078,-0.335 -0.366,-0.611 -0.761,-0.611 -0.546,0 -0.87,0.479 -0.87,1.121 0,0.588 0.288,1.074 0.857,1.074 0.354,0 0.678,-0.234 0.773,-0.63 0.018,-0.072 0.024,-0.145 0.024,-0.229 l 0,-0.502 z" />
	<path
   id="path258"
   d="m 344.222,424.507 -0.042,-0.366 -0.018,0 c -0.162,0.229 -0.474,0.433 -0.888,0.433 -0.587,0 -0.887,-0.414 -0.887,-0.834 0,-0.701 0.624,-1.085 1.745,-1.079 l 0,-0.061 c 0,-0.239 -0.066,-0.671 -0.66,-0.671 -0.27,0 -0.552,0.083 -0.756,0.216 l -0.12,-0.349 c 0.24,-0.155 0.587,-0.258 0.953,-0.258 0.888,0 1.104,0.606 1.104,1.188 l 0,1.086 c 0,0.252 0.012,0.497 0.048,0.695 l -0.479,0 z m -0.078,-1.482 c -0.576,-0.012 -1.229,0.09 -1.229,0.654 0,0.342 0.228,0.503 0.498,0.503 0.378,0 0.618,-0.239 0.702,-0.485 0.018,-0.054 0.03,-0.114 0.03,-0.168 l 0,-0.504 z" />
	<path
   id="path260"
   d="m 345.561,424.507 0,-2.501 -0.408,0 0,-0.401 0.408,0 0,-0.138 c 0,-0.408 0.09,-0.78 0.336,-1.014 0.198,-0.192 0.461,-0.27 0.708,-0.27 0.186,0 0.348,0.042 0.45,0.084 l -0.072,0.407 c -0.078,-0.036 -0.186,-0.065 -0.336,-0.065 -0.45,0 -0.563,0.396 -0.563,0.839 l 0,0.156 0.701,0 0,0.401 -0.701,0 0,2.501 -0.523,0 z" />
	<path
   id="path262"
   d="m 347.96,420.771 0,0.834 0.756,0 0,0.401 -0.756,0 0,1.565 c 0,0.36 0.102,0.563 0.396,0.563 0.138,0 0.24,-0.018 0.306,-0.036 l 0.024,0.396 c -0.102,0.042 -0.264,0.071 -0.468,0.071 -0.246,0 -0.443,-0.077 -0.569,-0.222 -0.15,-0.155 -0.204,-0.413 -0.204,-0.756 l 0,-1.583 -0.45,0 0,-0.401 0.45,0 0,-0.695 0.515,-0.137 z" />
	<path
   id="path264"
   d="m 349.568,423.151 c 0.012,0.714 0.468,1.008 0.996,1.008 0.378,0 0.605,-0.066 0.804,-0.15 l 0.09,0.378 c -0.186,0.084 -0.504,0.18 -0.965,0.18 -0.894,0 -1.427,-0.587 -1.427,-1.463 0,-0.875 0.516,-1.565 1.361,-1.565 0.947,0 1.199,0.834 1.199,1.367 0,0.108 -0.012,0.192 -0.018,0.246 l -2.04,0 z m 1.548,-0.378 c 0.006,-0.336 -0.138,-0.857 -0.731,-0.857 -0.534,0 -0.768,0.492 -0.81,0.857 l 1.541,0 z" />
	<path
   id="path266"
   d="m 352.281,422.51 c 0,-0.342 -0.006,-0.636 -0.024,-0.905 l 0.462,0 0.018,0.569 0.024,0 c 0.132,-0.39 0.45,-0.636 0.804,-0.636 0.06,0 0.102,0.007 0.15,0.019 l 0,0.497 c -0.054,-0.012 -0.108,-0.018 -0.18,-0.018 -0.372,0 -0.635,0.282 -0.708,0.678 -0.012,0.072 -0.024,0.156 -0.024,0.246 l 0,1.547 -0.521,0 0,-1.997 z" />
	<path
   id="path268"
   d="m 354.267,422.39 c 0,-0.3 -0.006,-0.545 -0.024,-0.785 l 0.468,0 0.03,0.479 0.012,0 c 0.144,-0.275 0.48,-0.546 0.959,-0.546 0.402,0 1.025,0.24 1.025,1.235 l 0,1.733 -0.527,0 0,-1.673 c 0,-0.468 -0.174,-0.857 -0.672,-0.857 -0.348,0 -0.618,0.245 -0.708,0.539 -0.024,0.066 -0.036,0.156 -0.036,0.246 l 0,1.745 -0.527,0 0,-2.116 z" />
	<path
   id="path270"
   d="m 360.223,423.031 c 0,1.074 -0.744,1.542 -1.445,1.542 -0.786,0 -1.391,-0.576 -1.391,-1.493 0,-0.972 0.636,-1.542 1.439,-1.542 0.833,0 1.397,0.607 1.397,1.493 z m -2.303,0.031 c 0,0.636 0.366,1.115 0.881,1.115 0.504,0 0.881,-0.474 0.881,-1.127 0,-0.492 -0.246,-1.115 -0.869,-1.115 -0.623,0 -0.893,0.575 -0.893,1.127 z" />
	<path
   id="path272"
   d="m 363.517,423.031 c 0,1.074 -0.744,1.542 -1.445,1.542 -0.786,0 -1.391,-0.576 -1.391,-1.493 0,-0.972 0.636,-1.542 1.439,-1.542 0.833,0 1.397,0.607 1.397,1.493 z m -2.303,0.031 c 0,0.636 0.366,1.115 0.881,1.115 0.504,0 0.881,-0.474 0.881,-1.127 0,-0.492 -0.246,-1.115 -0.869,-1.115 -0.623,0 -0.893,0.575 -0.893,1.127 z" />
	<path
   id="path274"
   d="m 364.185,422.39 c 0,-0.3 -0.006,-0.545 -0.024,-0.785 l 0.468,0 0.03,0.479 0.012,0 c 0.144,-0.275 0.48,-0.546 0.959,-0.546 0.402,0 1.025,0.24 1.025,1.235 l 0,1.733 -0.527,0 0,-1.673 c 0,-0.468 -0.174,-0.857 -0.672,-0.857 -0.348,0 -0.618,0.245 -0.708,0.539 -0.024,0.066 -0.036,0.156 -0.036,0.246 l 0,1.745 -0.527,0 0,-2.116 z" />
</g>
<g
   transform="translate(-232.737,-190.59599)"
   id="g276">
	<rect
   style="fill:#f2edcc"
   id="rect278"
   height="85"
   width="85"
   y="189.563"
   x="393.23099" />
</g>
<rect
   style="fill:none"
   id="rect280"
   height="41"
   width="63.5"
   y="14.650998"
   x="257.34201" />
<g
   transform="translate(-232.737,-190.59599)"
   id="g282"
   enable-background="new    ">
	<path
   id="path284"
   d="m 493.018,206.604 c -0.012,0.21 -0.024,0.444 -0.024,0.797 l 0,1.685 c 0,0.666 -0.132,1.074 -0.413,1.325 -0.282,0.264 -0.69,0.348 -1.056,0.348 -0.348,0 -0.731,-0.084 -0.966,-0.24 l 0.132,-0.402 c 0.192,0.12 0.492,0.228 0.852,0.228 0.54,0 0.936,-0.282 0.936,-1.013 l 0,-0.324 -0.012,0 c -0.162,0.27 -0.474,0.485 -0.924,0.485 -0.72,0 -1.235,-0.611 -1.235,-1.415 0,-0.983 0.642,-1.541 1.308,-1.541 0.504,0 0.779,0.264 0.905,0.503 l 0.013,0 0.023,-0.438 0.461,0 z m -0.546,1.146 c 0,-0.09 -0.006,-0.168 -0.03,-0.24 -0.096,-0.306 -0.354,-0.558 -0.737,-0.558 -0.504,0 -0.863,0.426 -0.863,1.098 0,0.569 0.288,1.043 0.857,1.043 0.324,0 0.617,-0.204 0.731,-0.54 0.03,-0.09 0.042,-0.192 0.042,-0.282 l 0,-0.521 z" />
	<path
   id="path286"
   d="m 496.497,208.032 c 0,1.073 -0.744,1.541 -1.445,1.541 -0.785,0 -1.392,-0.576 -1.392,-1.493 0,-0.971 0.636,-1.541 1.439,-1.541 0.835,0 1.398,0.605 1.398,1.493 z m -2.303,0.03 c 0,0.636 0.365,1.116 0.882,1.116 0.503,0 0.881,-0.474 0.881,-1.127 0,-0.492 -0.246,-1.116 -0.869,-1.116 -0.624,-0.001 -0.894,0.575 -0.894,1.127 z" />
	<path
   id="path288"
   d="m 499.791,208.032 c 0,1.073 -0.744,1.541 -1.445,1.541 -0.785,0 -1.392,-0.576 -1.392,-1.493 0,-0.971 0.636,-1.541 1.439,-1.541 0.835,0 1.398,0.605 1.398,1.493 z m -2.303,0.03 c 0,0.636 0.365,1.116 0.882,1.116 0.503,0 0.881,-0.474 0.881,-1.127 0,-0.492 -0.246,-1.116 -0.869,-1.116 -0.624,-0.001 -0.894,0.575 -0.894,1.127 z" />
	<path
   id="path290"
   d="m 502.966,205.249 0,3.508 c 0,0.258 0.006,0.552 0.024,0.75 l -0.475,0 -0.023,-0.504 -0.012,0 c -0.162,0.324 -0.516,0.57 -0.99,0.57 -0.701,0 -1.241,-0.594 -1.241,-1.475 -0.006,-0.965 0.594,-1.559 1.302,-1.559 0.443,0 0.743,0.21 0.875,0.444 l 0.013,0 0,-1.733 0.527,0 z m -0.528,2.537 c 0,-0.066 -0.006,-0.156 -0.024,-0.222 -0.078,-0.336 -0.365,-0.612 -0.762,-0.612 -0.546,0 -0.869,0.48 -0.869,1.122 0,0.587 0.288,1.073 0.857,1.073 0.354,0 0.678,-0.234 0.773,-0.629 0.019,-0.072 0.024,-0.144 0.024,-0.228 l 0,-0.504 z" />
	<path
   id="path292"
   d="m 505.408,208.151 c 0.012,0.714 0.468,1.008 0.996,1.008 0.377,0 0.605,-0.066 0.803,-0.15 l 0.09,0.377 c -0.186,0.084 -0.503,0.18 -0.965,0.18 -0.894,0 -1.428,-0.588 -1.428,-1.463 0,-0.875 0.516,-1.565 1.361,-1.565 0.947,0 1.199,0.833 1.199,1.367 0,0.108 -0.012,0.192 -0.018,0.246 l -2.038,0 z m 1.547,-0.377 c 0.007,-0.336 -0.138,-0.858 -0.731,-0.858 -0.533,0 -0.768,0.492 -0.81,0.858 l 1.541,0 z" />
	<path
   id="path294"
   d="m 508.324,206.604 0.569,1.631 c 0.097,0.264 0.174,0.504 0.234,0.744 l 0.018,0 c 0.066,-0.24 0.15,-0.479 0.246,-0.744 l 0.563,-1.631 0.552,0 -1.139,2.902 -0.504,0 -1.104,-2.902 0.565,0 z" />
	<path
   id="path296"
   d="m 511.24,208.151 c 0.012,0.714 0.468,1.008 0.996,1.008 0.377,0 0.605,-0.066 0.803,-0.15 l 0.09,0.377 c -0.186,0.084 -0.503,0.18 -0.965,0.18 -0.894,0 -1.428,-0.588 -1.428,-1.463 0,-0.875 0.516,-1.565 1.361,-1.565 0.947,0 1.199,0.833 1.199,1.367 0,0.108 -0.012,0.192 -0.018,0.246 l -2.038,0 z m 1.547,-0.377 c 0.007,-0.336 -0.138,-0.858 -0.731,-0.858 -0.533,0 -0.768,0.492 -0.81,0.858 l 1.541,0 z" />
	<path
   id="path298"
   d="m 513.952,207.39 c 0,-0.3 -0.006,-0.546 -0.023,-0.786 l 0.468,0 0.029,0.479 0.013,0 c 0.144,-0.276 0.479,-0.545 0.959,-0.545 0.402,0 1.025,0.24 1.025,1.235 l 0,1.733 -0.527,0 0,-1.673 c 0,-0.468 -0.174,-0.858 -0.672,-0.858 -0.348,0 -0.617,0.246 -0.708,0.54 -0.023,0.066 -0.035,0.156 -0.035,0.246 l 0,1.745 -0.528,0 0,-2.116 z" />
	<path
   id="path300"
   d="m 517.87,205.789 c 0.006,0.18 -0.126,0.324 -0.336,0.324 -0.186,0 -0.317,-0.144 -0.317,-0.324 0,-0.186 0.138,-0.33 0.329,-0.33 0.198,0 0.324,0.144 0.324,0.33 z m -0.588,3.718 0,-2.902 0.528,0 0,2.902 -0.528,0 z" />
	<path
   id="path302"
   d="m 518.687,207.39 c 0,-0.3 -0.006,-0.546 -0.023,-0.786 l 0.468,0 0.029,0.479 0.013,0 c 0.144,-0.276 0.479,-0.545 0.959,-0.545 0.402,0 1.025,0.24 1.025,1.235 l 0,1.733 -0.527,0 0,-1.673 c 0,-0.468 -0.174,-0.858 -0.672,-0.858 -0.348,0 -0.617,0.246 -0.708,0.54 -0.023,0.066 -0.035,0.156 -0.035,0.246 l 0,1.745 -0.528,0 0,-2.116 z" />
	<path
   id="path304"
   d="m 524.518,206.604 c -0.012,0.21 -0.024,0.444 -0.024,0.797 l 0,1.685 c 0,0.666 -0.132,1.074 -0.413,1.325 -0.282,0.264 -0.69,0.348 -1.056,0.348 -0.348,0 -0.731,-0.084 -0.966,-0.24 l 0.132,-0.402 c 0.192,0.12 0.492,0.228 0.852,0.228 0.54,0 0.936,-0.282 0.936,-1.013 l 0,-0.324 -0.012,0 c -0.162,0.27 -0.474,0.485 -0.924,0.485 -0.72,0 -1.235,-0.611 -1.235,-1.415 0,-0.983 0.642,-1.541 1.308,-1.541 0.504,0 0.779,0.264 0.905,0.503 l 0.013,0 0.023,-0.438 0.461,0 z m -0.546,1.146 c 0,-0.09 -0.006,-0.168 -0.03,-0.24 -0.096,-0.306 -0.354,-0.558 -0.737,-0.558 -0.504,0 -0.863,0.426 -0.863,1.098 0,0.569 0.288,1.043 0.857,1.043 0.324,0 0.617,-0.204 0.731,-0.54 0.03,-0.09 0.042,-0.192 0.042,-0.282 l 0,-0.521 z" />
</g>
<rect
   style="fill:none"
   id="rect306"
   height="41"
   width="63.5"
   y="125.15102"
   x="257.34201" />
<g
   transform="translate(-232.737,-190.59599)"
   id="g308"
   enable-background="new    ">
	<path
   id="path310"
   d="m 493.018,317.104 c -0.012,0.21 -0.024,0.443 -0.024,0.798 l 0,1.685 c 0,0.666 -0.132,1.073 -0.413,1.325 -0.282,0.264 -0.69,0.348 -1.056,0.348 -0.348,0 -0.731,-0.084 -0.966,-0.239 l 0.132,-0.402 c 0.192,0.12 0.492,0.229 0.852,0.229 0.54,0 0.936,-0.282 0.936,-1.014 l 0,-0.324 -0.012,0 c -0.162,0.271 -0.474,0.486 -0.924,0.486 -0.72,0 -1.235,-0.612 -1.235,-1.415 0,-0.984 0.642,-1.542 1.308,-1.542 0.504,0 0.779,0.265 0.905,0.504 l 0.013,0 0.023,-0.438 0.461,0 z m -0.546,1.146 c 0,-0.09 -0.006,-0.168 -0.03,-0.24 -0.096,-0.306 -0.354,-0.558 -0.737,-0.558 -0.504,0 -0.863,0.426 -0.863,1.098 0,0.569 0.288,1.043 0.857,1.043 0.324,0 0.617,-0.203 0.731,-0.539 0.03,-0.09 0.042,-0.192 0.042,-0.282 l 0,-0.522 z" />
	<path
   id="path312"
   d="m 496.497,318.531 c 0,1.074 -0.744,1.542 -1.445,1.542 -0.785,0 -1.392,-0.576 -1.392,-1.493 0,-0.972 0.636,-1.542 1.439,-1.542 0.835,0 1.398,0.607 1.398,1.493 z m -2.303,0.031 c 0,0.636 0.365,1.115 0.882,1.115 0.503,0 0.881,-0.474 0.881,-1.127 0,-0.492 -0.246,-1.115 -0.869,-1.115 -0.624,0 -0.894,0.575 -0.894,1.127 z" />
	<path
   id="path314"
   d="m 499.791,318.531 c 0,1.074 -0.744,1.542 -1.445,1.542 -0.785,0 -1.392,-0.576 -1.392,-1.493 0,-0.972 0.636,-1.542 1.439,-1.542 0.835,0 1.398,0.607 1.398,1.493 z m -2.303,0.031 c 0,0.636 0.365,1.115 0.882,1.115 0.503,0 0.881,-0.474 0.881,-1.127 0,-0.492 -0.246,-1.115 -0.869,-1.115 -0.624,0 -0.894,0.575 -0.894,1.127 z" />
	<path
   id="path316"
   d="m 502.966,315.749 0,3.508 c 0,0.258 0.006,0.552 0.024,0.75 l -0.475,0 -0.023,-0.504 -0.012,0 c -0.162,0.324 -0.516,0.57 -0.99,0.57 -0.701,0 -1.241,-0.594 -1.241,-1.476 -0.006,-0.966 0.594,-1.56 1.302,-1.56 0.443,0 0.743,0.21 0.875,0.444 l 0.013,0 0,-1.733 0.527,0 z m -0.528,2.537 c 0,-0.066 -0.006,-0.156 -0.024,-0.223 -0.078,-0.335 -0.365,-0.611 -0.762,-0.611 -0.546,0 -0.869,0.479 -0.869,1.121 0,0.588 0.288,1.074 0.857,1.074 0.354,0 0.678,-0.234 0.773,-0.63 0.019,-0.072 0.024,-0.145 0.024,-0.229 l 0,-0.502 z" />
	<path
   id="path318"
   d="m 505.114,317.89 c 0,-0.3 -0.006,-0.545 -0.023,-0.785 l 0.468,0 0.029,0.479 0.013,0 c 0.144,-0.275 0.479,-0.546 0.959,-0.546 0.402,0 1.025,0.24 1.025,1.235 l 0,1.733 -0.527,0 0,-1.673 c 0,-0.468 -0.174,-0.857 -0.672,-0.857 -0.348,0 -0.617,0.245 -0.708,0.539 -0.023,0.066 -0.035,0.156 -0.035,0.246 l 0,1.745 -0.528,0 0,-2.116 z" />
	<path
   id="path320"
   d="m 509.032,316.289 c 0.006,0.18 -0.126,0.323 -0.336,0.323 -0.186,0 -0.317,-0.144 -0.317,-0.323 0,-0.187 0.138,-0.33 0.329,-0.33 0.198,0 0.324,0.144 0.324,0.33 z m -0.588,3.718 0,-2.902 0.528,0 0,2.902 -0.528,0 z" />
	<path
   id="path322"
   d="m 512.35,317.104 c -0.012,0.21 -0.024,0.443 -0.024,0.798 l 0,1.685 c 0,0.666 -0.132,1.073 -0.413,1.325 -0.282,0.264 -0.69,0.348 -1.056,0.348 -0.348,0 -0.731,-0.084 -0.966,-0.239 l 0.132,-0.402 c 0.192,0.12 0.492,0.229 0.852,0.229 0.54,0 0.936,-0.282 0.936,-1.014 l 0,-0.324 -0.012,0 c -0.162,0.271 -0.474,0.486 -0.924,0.486 -0.72,0 -1.235,-0.612 -1.235,-1.415 0,-0.984 0.642,-1.542 1.308,-1.542 0.504,0 0.779,0.265 0.905,0.504 l 0.013,0 0.023,-0.438 0.461,0 z m -0.546,1.146 c 0,-0.09 -0.006,-0.168 -0.03,-0.24 -0.096,-0.306 -0.354,-0.558 -0.737,-0.558 -0.504,0 -0.863,0.426 -0.863,1.098 0,0.569 0.288,1.043 0.857,1.043 0.324,0 0.617,-0.203 0.731,-0.539 0.03,-0.09 0.042,-0.192 0.042,-0.282 l 0,-0.522 z" />
	<path
   id="path324"
   d="m 513.202,315.749 0.528,0 0,1.812 0.012,0 c 0.084,-0.15 0.216,-0.282 0.378,-0.372 0.155,-0.09 0.342,-0.15 0.539,-0.15 0.391,0 1.014,0.24 1.014,1.241 l 0,1.728 -0.527,0 0,-1.667 c 0,-0.468 -0.174,-0.863 -0.672,-0.863 -0.342,0 -0.611,0.239 -0.708,0.527 -0.029,0.072 -0.035,0.15 -0.035,0.252 l 0,1.751 -0.528,0 0,-4.259 z" />
	<path
   id="path326"
   d="m 517.144,316.271 0,0.834 0.756,0 0,0.401 -0.756,0 0,1.565 c 0,0.36 0.103,0.563 0.396,0.563 0.139,0 0.24,-0.018 0.307,-0.036 l 0.023,0.396 c -0.102,0.042 -0.264,0.071 -0.468,0.071 -0.246,0 -0.443,-0.077 -0.569,-0.222 -0.15,-0.155 -0.204,-0.413 -0.204,-0.756 l 0,-1.583 -0.449,0 0,-0.401 0.449,0 0,-0.695 0.515,-0.137 z" />
</g>
<rect
   style="fill:none"
   id="rect328"
   height="41"
   width="63.5"
   y="131.15102"
   x="91.34201" />
<g
   transform="translate(-232.737,-190.59599)"
   id="g330"
   enable-background="new    ">
	<path
   id="path332"
   d="m 327.018,323.104 c -0.012,0.21 -0.024,0.443 -0.024,0.798 l 0,1.685 c 0,0.666 -0.132,1.073 -0.414,1.325 -0.282,0.264 -0.689,0.348 -1.055,0.348 -0.348,0 -0.732,-0.084 -0.966,-0.239 l 0.132,-0.402 c 0.192,0.12 0.492,0.229 0.852,0.229 0.54,0 0.935,-0.282 0.935,-1.014 l 0,-0.324 -0.012,0 c -0.162,0.271 -0.474,0.486 -0.923,0.486 -0.72,0 -1.235,-0.612 -1.235,-1.415 0,-0.984 0.642,-1.542 1.307,-1.542 0.504,0 0.78,0.265 0.905,0.504 l 0.012,0 0.024,-0.438 0.462,0 z m -0.546,1.146 c 0,-0.09 -0.006,-0.168 -0.03,-0.24 -0.096,-0.306 -0.354,-0.558 -0.738,-0.558 -0.503,0 -0.863,0.426 -0.863,1.098 0,0.569 0.288,1.043 0.857,1.043 0.324,0 0.618,-0.203 0.731,-0.539 0.03,-0.09 0.042,-0.192 0.042,-0.282 l 0,-0.522 z" />
	<path
   id="path334"
   d="m 330.498,324.531 c 0,1.074 -0.744,1.542 -1.445,1.542 -0.786,0 -1.391,-0.576 -1.391,-1.493 0,-0.972 0.636,-1.542 1.439,-1.542 0.833,0 1.397,0.607 1.397,1.493 z m -2.303,0.031 c 0,0.636 0.366,1.115 0.881,1.115 0.504,0 0.881,-0.474 0.881,-1.127 0,-0.492 -0.246,-1.115 -0.869,-1.115 -0.624,0 -0.893,0.575 -0.893,1.127 z" />
	<path
   id="path336"
   d="m 333.792,324.531 c 0,1.074 -0.744,1.542 -1.445,1.542 -0.786,0 -1.391,-0.576 -1.391,-1.493 0,-0.972 0.636,-1.542 1.439,-1.542 0.833,0 1.397,0.607 1.397,1.493 z m -2.303,0.031 c 0,0.636 0.366,1.115 0.881,1.115 0.504,0 0.881,-0.474 0.881,-1.127 0,-0.492 -0.246,-1.115 -0.869,-1.115 -0.624,0 -0.893,0.575 -0.893,1.127 z" />
	<path
   id="path338"
   d="m 336.965,321.749 0,3.508 c 0,0.258 0.006,0.552 0.024,0.75 l -0.474,0 -0.024,-0.504 -0.012,0 c -0.162,0.324 -0.516,0.57 -0.989,0.57 -0.702,0 -1.241,-0.594 -1.241,-1.476 -0.006,-0.966 0.594,-1.56 1.301,-1.56 0.444,0 0.744,0.21 0.875,0.444 l 0.012,0 0,-1.733 0.528,0 z m -0.527,2.537 c 0,-0.066 -0.006,-0.156 -0.024,-0.223 -0.078,-0.335 -0.366,-0.611 -0.761,-0.611 -0.546,0 -0.87,0.479 -0.87,1.121 0,0.588 0.288,1.074 0.857,1.074 0.354,0 0.678,-0.234 0.773,-0.63 0.018,-0.072 0.024,-0.145 0.024,-0.229 l 0,-0.502 z" />
	<path
   id="path340"
   d="m 339.115,323.89 c 0,-0.3 -0.006,-0.545 -0.024,-0.785 l 0.462,0 0.024,0.468 0.018,0 c 0.162,-0.276 0.432,-0.534 0.912,-0.534 0.396,0 0.695,0.24 0.821,0.582 l 0.012,0 c 0.09,-0.162 0.204,-0.288 0.324,-0.378 0.174,-0.132 0.366,-0.204 0.642,-0.204 0.384,0 0.954,0.252 0.954,1.26 l 0,1.709 -0.516,0 0,-1.644 c 0,-0.558 -0.204,-0.893 -0.63,-0.893 -0.3,0 -0.534,0.222 -0.624,0.479 -0.024,0.071 -0.042,0.168 -0.042,0.264 l 0,1.793 -0.516,0 0,-1.739 c 0,-0.462 -0.204,-0.797 -0.606,-0.797 -0.33,0 -0.569,0.264 -0.653,0.527 -0.03,0.078 -0.042,0.168 -0.042,0.258 l 0,1.751 -0.516,0 0,-2.117 z" />
	<path
   id="path342"
   d="m 346.745,324.531 c 0,1.074 -0.744,1.542 -1.445,1.542 -0.786,0 -1.391,-0.576 -1.391,-1.493 0,-0.972 0.635,-1.542 1.439,-1.542 0.833,0 1.397,0.607 1.397,1.493 z m -2.303,0.031 c 0,0.636 0.366,1.115 0.881,1.115 0.504,0 0.881,-0.474 0.881,-1.127 0,-0.492 -0.246,-1.115 -0.869,-1.115 -0.623,0 -0.893,0.575 -0.893,1.127 z" />
	<path
   id="path344"
   d="m 347.413,324.01 c 0,-0.342 -0.006,-0.636 -0.024,-0.905 l 0.462,0 0.018,0.569 0.024,0 c 0.132,-0.39 0.45,-0.636 0.804,-0.636 0.06,0 0.102,0.007 0.15,0.019 l 0,0.497 c -0.054,-0.012 -0.108,-0.018 -0.18,-0.018 -0.372,0 -0.636,0.282 -0.708,0.678 -0.012,0.072 -0.024,0.156 -0.024,0.246 l 0,1.547 -0.521,0 0,-1.997 z" />
	<path
   id="path346"
   d="m 349.399,323.89 c 0,-0.3 -0.006,-0.545 -0.024,-0.785 l 0.468,0 0.03,0.479 0.012,0 c 0.144,-0.275 0.48,-0.546 0.959,-0.546 0.402,0 1.025,0.24 1.025,1.235 l 0,1.733 -0.527,0 0,-1.673 c 0,-0.468 -0.174,-0.857 -0.672,-0.857 -0.348,0 -0.618,0.245 -0.708,0.539 -0.024,0.066 -0.036,0.156 -0.036,0.246 l 0,1.745 -0.527,0 0,-2.116 z" />
	<path
   id="path348"
   d="m 353.316,322.289 c 0.006,0.18 -0.126,0.323 -0.336,0.323 -0.186,0 -0.318,-0.144 -0.318,-0.323 0,-0.187 0.138,-0.33 0.33,-0.33 0.198,0 0.324,0.144 0.324,0.33 z m -0.587,3.718 0,-2.902 0.527,0 0,2.902 -0.527,0 z" />
	<path
   id="path350"
   d="m 354.133,323.89 c 0,-0.3 -0.006,-0.545 -0.024,-0.785 l 0.468,0 0.03,0.479 0.012,0 c 0.144,-0.275 0.48,-0.546 0.959,-0.546 0.402,0 1.025,0.24 1.025,1.235 l 0,1.733 -0.527,0 0,-1.673 c 0,-0.468 -0.174,-0.857 -0.672,-0.857 -0.348,0 -0.618,0.245 -0.708,0.539 -0.024,0.066 -0.036,0.156 -0.036,0.246 l 0,1.745 -0.527,0 0,-2.116 z" />
	<path
   id="path352"
   d="m 359.963,323.104 c -0.012,0.21 -0.024,0.443 -0.024,0.798 l 0,1.685 c 0,0.666 -0.132,1.073 -0.414,1.325 -0.282,0.264 -0.689,0.348 -1.055,0.348 -0.348,0 -0.732,-0.084 -0.965,-0.239 l 0.132,-0.402 c 0.192,0.12 0.492,0.229 0.852,0.229 0.54,0 0.936,-0.282 0.936,-1.014 l 0,-0.324 -0.012,0 c -0.162,0.271 -0.474,0.486 -0.923,0.486 -0.72,0 -1.235,-0.612 -1.235,-1.415 0,-0.984 0.642,-1.542 1.307,-1.542 0.504,0 0.78,0.265 0.905,0.504 l 0.012,0 0.024,-0.438 0.46,0 z m -0.546,1.146 c 0,-0.09 -0.006,-0.168 -0.03,-0.24 -0.096,-0.306 -0.354,-0.558 -0.738,-0.558 -0.503,0 -0.863,0.426 -0.863,1.098 0,0.569 0.288,1.043 0.857,1.043 0.324,0 0.618,-0.203 0.731,-0.539 0.03,-0.09 0.042,-0.192 0.042,-0.282 l 0,-0.522 z" />
</g>
<rect
   style="fill:none"
   id="rect354"
   height="41"
   width="63.5"
   y="38.150997"
   x="97.34201" />
<g
   transform="translate(-232.737,-190.59599)"
   id="g356"
   enable-background="new    ">
	<path
   id="path358"
   d="m 330.517,228.749 0.527,0 0,1.811 0.012,0 c 0.084,-0.15 0.216,-0.282 0.378,-0.372 0.156,-0.09 0.342,-0.15 0.54,-0.15 0.39,0 1.013,0.24 1.013,1.241 l 0,1.727 -0.527,0 0,-1.667 c 0,-0.468 -0.174,-0.864 -0.672,-0.864 -0.342,0 -0.612,0.24 -0.708,0.528 -0.03,0.072 -0.036,0.15 -0.036,0.252 l 0,1.751 -0.527,0 0,-4.257 z" />
	<path
   id="path360"
   d="m 334.141,231.651 c 0.012,0.714 0.468,1.008 0.996,1.008 0.378,0 0.605,-0.066 0.804,-0.15 l 0.09,0.377 c -0.186,0.084 -0.504,0.18 -0.965,0.18 -0.894,0 -1.427,-0.588 -1.427,-1.463 0,-0.875 0.516,-1.565 1.361,-1.565 0.947,0 1.199,0.833 1.199,1.367 0,0.108 -0.012,0.192 -0.018,0.246 l -2.04,0 z m 1.547,-0.377 c 0.006,-0.336 -0.138,-0.858 -0.731,-0.858 -0.534,0 -0.768,0.492 -0.81,0.858 l 1.541,0 z" />
	<path
   id="path362"
   d="m 336.853,228.749 0.527,0 0,4.258 -0.527,0 0,-4.258 z" />
	<path
   id="path364"
   d="m 338.269,228.749 0.527,0 0,4.258 -0.527,0 0,-4.258 z" />
	<path
   id="path366"
   d="m 342.312,231.532 c 0,1.073 -0.744,1.541 -1.445,1.541 -0.786,0 -1.391,-0.576 -1.391,-1.493 0,-0.971 0.635,-1.541 1.439,-1.541 0.833,0 1.397,0.605 1.397,1.493 z m -2.303,0.03 c 0,0.636 0.366,1.116 0.881,1.116 0.504,0 0.881,-0.474 0.881,-1.127 0,-0.492 -0.246,-1.116 -0.869,-1.116 -0.624,-0.001 -0.893,0.575 -0.893,1.127 z" />
	<path
   id="path368"
   d="m 342.535,233.247 1.673,-4.348 0.408,0 -1.679,4.348 -0.402,0 z" />
	<path
   id="path370"
   d="m 345.037,228.749 0.527,0 0,1.811 0.012,0 c 0.084,-0.15 0.216,-0.282 0.378,-0.372 0.156,-0.09 0.342,-0.15 0.54,-0.15 0.39,0 1.013,0.24 1.013,1.241 l 0,1.727 -0.527,0 0,-1.667 c 0,-0.468 -0.174,-0.864 -0.672,-0.864 -0.342,0 -0.612,0.24 -0.708,0.528 -0.03,0.072 -0.036,0.15 -0.036,0.252 l 0,1.751 -0.527,0 0,-4.257 z" />
	<path
   id="path372"
   d="m 348.954,229.289 c 0.006,0.18 -0.126,0.324 -0.336,0.324 -0.186,0 -0.318,-0.144 -0.318,-0.324 0,-0.186 0.138,-0.33 0.33,-0.33 0.198,0 0.324,0.144 0.324,0.33 z m -0.587,3.718 0,-2.902 0.527,0 0,2.902 -0.527,0 z" />
	<path
   id="path374"
   d="m 349.327,233.247 1.673,-4.348 0.408,0 -1.679,4.348 -0.402,0 z" />
	<path
   id="path376"
   d="m 351.829,228.749 0.527,0 0,1.811 0.012,0 c 0.084,-0.15 0.216,-0.282 0.378,-0.372 0.156,-0.09 0.342,-0.15 0.54,-0.15 0.39,0 1.013,0.24 1.013,1.241 l 0,1.727 -0.527,0 0,-1.667 c 0,-0.468 -0.174,-0.864 -0.672,-0.864 -0.342,0 -0.612,0.24 -0.708,0.528 -0.03,0.072 -0.036,0.15 -0.036,0.252 l 0,1.751 -0.527,0 0,-4.257 z" />
	<path
   id="path378"
   d="m 355.452,231.651 c 0.012,0.714 0.468,1.008 0.996,1.008 0.378,0 0.605,-0.066 0.804,-0.15 l 0.09,0.377 c -0.186,0.084 -0.504,0.18 -0.965,0.18 -0.894,0 -1.427,-0.588 -1.427,-1.463 0,-0.875 0.516,-1.565 1.361,-1.565 0.947,0 1.199,0.833 1.199,1.367 0,0.108 -0.012,0.192 -0.018,0.246 l -2.04,0 z M 357,231.274 c 0.006,-0.336 -0.138,-0.858 -0.731,-0.858 -0.534,0 -0.768,0.492 -0.81,0.858 l 1.541,0 z" />
	<path
   id="path380"
   d="m 358.356,230.104 0.635,1.715 c 0.066,0.192 0.138,0.42 0.186,0.594 l 0.012,0 c 0.054,-0.174 0.114,-0.396 0.186,-0.605 l 0.576,-1.703 0.558,0 -0.792,2.069 c -0.377,0.996 -0.635,1.505 -0.995,1.817 -0.258,0.228 -0.516,0.318 -0.648,0.342 l -0.132,-0.444 c 0.132,-0.042 0.306,-0.126 0.462,-0.258 0.144,-0.114 0.324,-0.318 0.444,-0.587 0.024,-0.054 0.042,-0.096 0.042,-0.126 0,-0.03 -0.012,-0.072 -0.036,-0.138 l -1.073,-2.674 0.575,0 z" />
</g>
<g
   transform="translate(-232.737,-190.59599)"
   id="g382">
	<g
   id="g384">
		<path
   style="fill:#f79226"
   id="path386"
   d="m 430.215,261.604 -0.705,-0.672 0.804,-7.817 c 0.192,-1.86 -0.081,-3.402 -0.612,-3.441 l -0.026,-0.003 c -0.53,-0.039 -1.116,1.438 -1.308,3.297 l -0.834,8.084 -0.575,0.334 c -1.843,1.065 -3.089,2.224 -2.782,2.586 l 0.014,0.019 c 0.266,0.315 1.604,-0.071 3.153,-0.87 -0.063,1.533 0.202,2.722 0.665,2.735 l 0.026,0 c 0.474,0.015 0.989,-1.143 1.231,-2.714 1.305,1.132 2.537,1.811 2.89,1.552 l 0.019,-0.013 c 0.399,-0.29 -0.477,-1.667 -1.96,-3.077 z" />
		<path
   style="fill:#f79226"
   id="path388"
   d="m 445.201,261.292 -0.57,-0.344 -0.677,-8.024 c -0.157,-1.864 -0.711,-3.288 -1.241,-3.253 l -0.027,0.001 c -0.53,0.035 -0.84,1.494 -0.683,3.358 l 0.656,7.762 -0.72,0.66 c -1.508,1.38 -2.41,2.741 -2.016,3.039 l 0.021,0.016 c 0.349,0.262 1.593,-0.393 2.917,-1.499 0.211,1.588 0.706,2.77 1.184,2.743 l 0.024,-0.009 c 0.462,-0.026 0.751,-1.192 0.716,-2.722 1.533,0.828 2.865,1.238 3.134,0.929 l 0.017,-0.019 c 0.311,-0.357 -0.913,-1.539 -2.735,-2.638 z" />
	</g>
	<path
   style="fill:#9575b4"
   id="path390"
   d="m 411.947,200.457 c 1.457,-1.214 8.013,1.7 8.013,1.7 0,0 7.528,-3.886 16.269,-3.886 8.742,0 14.812,3.886 14.812,3.886 0,0 7.527,-3.643 8.984,-2.429 1.456,1.215 -1.467,11.273 -1.457,15.056 0.031,12.252 9.227,42.735 -23.554,42.979 -32.78,0.242 -22.773,-30.878 -22.339,-42.979 0.13,-3.585 -2.184,-13.113 -0.728,-14.327 z" />
	<path
   style="fill:#b794c5"
   id="path392"
   d="m 458.568,214.783 c 0,-0.097 0.003,-0.2 0.007,-0.304 -1.996,-4.049 -6.163,-6.835 -10.981,-6.835 -5.699,0 -10.488,3.895 -11.85,9.168 -1.362,-5.273 -6.15,-9.168 -11.85,-9.168 -5.027,0 -9.346,3.033 -11.229,7.37 -0.09,2 -0.422,4.492 -0.774,7.261 1.114,5.613 6.063,9.845 12.003,9.845 5.699,0 10.488,-3.896 11.85,-9.169 1.362,5.273 6.15,9.169 11.85,9.169 5.455,0 10.074,-3.57 11.654,-8.501 -0.322,-3.395 -0.674,-6.46 -0.68,-8.836 z" />
	<path
   style="fill:#b794c5"
   id="path394"
   d="m 436.107,233.966 c -10.393,0 -18.817,8.208 -18.817,18.333 0,0.084 0.005,0.168 0.007,0.252 3.659,3.246 9.262,5.273 17.719,5.211 10.072,-0.075 16.178,-3.007 19.808,-7.387 -0.988,-9.221 -8.99,-16.409 -18.717,-16.409 z" />
	<circle
   style="fill:#ffffff"
   id="circle396"
   r="8.7419996"
   cy="218.425"
   cx="423.117" />
	<circle
   style="fill:#010101"
   id="circle398"
   r="4.8080001"
   cy="215.908"
   cx="423.18201" />
	<circle
   style="fill:#ffffff"
   id="circle400"
   r="0.87400001"
   cy="214.787"
   cx="423.181" />
	<circle
   style="fill:#ffffff"
   id="circle402"
   r="8.7410002"
   cy="218.425"
   cx="448.37" />
	<circle
   style="fill:#010101"
   id="circle404"
   r="4.8070002"
   cy="215.907"
   cx="448.43399" />
	<circle
   style="fill:#ffffff"
   id="circle406"
   r="0.875"
   cy="214.787"
   cx="448.43399" />
	<path
   style="fill:#f89627"
   id="path408"
   d="m 438.657,224.096 c -2.177,-2.552 -5.613,-0.957 -5.842,0 -0.229,0.957 3.164,5.741 3.164,5.741 0,0 2.664,-4.784 2.678,-5.741 z" />
	<g
   id="g410">
		<path
   style="fill:#673090"
   id="path412"
   d="m 453.251,240.928 c 1.343,-5.598 3.34,-8.033 4.946,-8.958 2.904,-1.514 6.172,5.924 7.502,10.572 1.492,5.222 1.531,9.81 0.082,10.248 -1.043,0.314 -2.575,-1.615 -3.907,-4.676 -0.515,3.394 -1.505,5.628 -2.61,5.464 -1.057,-0.158 -1.945,-2.467 -2.385,-5.753 -1.198,3.051 -2.572,4.876 -3.545,4.421 -1.387,-0.651 -1.426,-5.718 -0.083,-11.318 z" />
		<path
   style="fill:#673090"
   id="path414"
   d="m 418.504,241.246 c -1.152,-5.641 -3.066,-8.142 -4.639,-9.121 -2.853,-1.612 -6.371,5.711 -7.857,10.312 -1.669,5.168 -1.861,9.753 -0.43,10.24 1.033,0.35 2.629,-1.527 4.064,-4.54 0.398,3.408 1.312,5.675 2.424,5.548 1.061,-0.122 2.029,-2.399 2.578,-5.669 1.094,3.09 2.406,4.961 3.393,4.539 1.408,-0.605 1.619,-5.667 0.467,-11.309 z" />
	</g>
	<g
   id="g416">
		<g
   id="g418">
			<g
   id="g420">
				<path
   style="fill:#d0b7d8"
   id="path422"
   d="m 435.674,244.983 c -0.011,0 -0.021,0 -0.032,0 -1.438,0 -2.552,-0.886 -2.836,-2.288 -0.056,-0.273 0.084,-0.525 0.312,-0.592 0.227,-0.065 0.455,0.112 0.51,0.385 0.23,1.136 1.232,1.553 2.021,1.562 0.894,0.004 1.95,-0.474 2.186,-1.562 0.06,-0.271 0.291,-0.433 0.518,-0.362 0.227,0.071 0.361,0.305 0.303,0.576 -0.351,1.61 -1.745,2.281 -2.982,2.281 z" />
			</g>
			<g
   id="g424">
				<path
   style="fill:#d0b7d8"
   id="path426"
   d="m 426.645,244.983 c -0.01,0 -0.021,0 -0.031,0 -1.439,0 -2.553,-0.886 -2.837,-2.288 -0.056,-0.273 0.085,-0.525 0.312,-0.592 0.227,-0.065 0.455,0.112 0.511,0.385 0.229,1.136 1.232,1.553 2.021,1.562 0.895,0.004 1.951,-0.474 2.187,-1.562 0.06,-0.271 0.29,-0.433 0.517,-0.362 0.227,0.071 0.361,0.305 0.303,0.576 -0.353,1.61 -1.745,2.281 -2.983,2.281 z" />
			</g>
			<g
   id="g428">
				<path
   style="fill:#d0b7d8"
   id="path430"
   d="m 444.703,244.983 c -0.01,0 -0.021,0 -0.031,0 -1.439,0 -2.553,-0.886 -2.837,-2.288 -0.056,-0.273 0.084,-0.525 0.312,-0.592 0.227,-0.065 0.456,0.112 0.512,0.385 0.229,1.136 1.231,1.553 2.021,1.562 0.894,0.004 1.95,-0.474 2.187,-1.562 0.059,-0.271 0.289,-0.433 0.516,-0.362 0.227,0.071 0.361,0.305 0.303,0.576 -0.352,1.61 -1.745,2.281 -2.983,2.281 z" />
			</g>
		</g>
		<g
   id="g432">
			<g
   id="g434">
				<path
   style="fill:#d0b7d8"
   id="path436"
   d="m 440.048,252.211 c -0.011,0 -0.021,0 -0.032,0 -1.439,0 -2.553,-0.944 -2.836,-2.346 -0.055,-0.273 0.084,-0.554 0.311,-0.621 0.228,-0.065 0.457,0.098 0.512,0.37 0.229,1.136 1.232,1.546 2.021,1.554 0.894,0.004 1.951,-0.477 2.187,-1.565 0.059,-0.272 0.289,-0.434 0.516,-0.364 0.227,0.071 0.363,0.363 0.303,0.634 -0.352,1.609 -1.745,2.338 -2.982,2.338 z" />
			</g>
			<g
   id="g438">
				<path
   style="fill:#d0b7d8"
   id="path440"
   d="m 431.3,252.211 c -0.011,0 -0.021,0 -0.031,0 -1.439,0 -2.552,-0.944 -2.837,-2.346 -0.055,-0.273 0.084,-0.554 0.312,-0.621 0.228,-0.065 0.456,0.098 0.511,0.37 0.23,1.136 1.232,1.546 2.021,1.554 0.894,0.004 1.95,-0.477 2.187,-1.565 0.059,-0.272 0.29,-0.434 0.517,-0.364 0.226,0.071 0.362,0.363 0.303,0.634 -0.351,1.609 -1.745,2.338 -2.983,2.338 z" />
			</g>
		</g>
	</g>
</g>
<g
   transform="translate(-232.737,-190.59599)"
   id="g442">
	<rect
   style="fill:#3c2415"
   id="rect444"
   height="85"
   width="85"
   y="292.56299"
   x="393.23099" />
</g>
<g
   transform="translate(-232.737,-190.59599)"
   id="g446">
	<g
   id="g448">
		<defs
   id="defs450">
			<rect
   height="85"
   width="85"
   y="292.56299"
   x="393.23099"
   id="SVGID_4_" />
		</defs>
		<clipPath
   id="SVGID_5_">
			<use
   height="100%"
   width="100%"
   y="0"
   x="0"
   style="overflow:visible"
   id="use454"
   overflow="visible"
   xlink:href="#SVGID_4_" />
		</clipPath>
		<g
   clip-path="url(#SVGID_5_)"
   id="XMLID_69_">
			<path
   style="fill:#a0d8d3"
   d="m 407.195,315.059 c 0,0 -3.363,-2.112 -4.416,0 -1.211,2.425 3.271,3.599 3.271,3.599 0,0 1.724,8.798 7.509,15.495 0,0 -4.994,2.76 -2.926,5.087 1.963,2.208 4.986,-3.081 4.986,-3.081 0,0 21.427,-7.933 29.359,-14.639 0,0 5.071,1.963 6.053,-0.736 0.98,-2.699 -4.989,-1.799 -4.989,-1.799 0,0 -3.189,-13.904 -6.052,-17.42 0,0 2.044,-3.435 -0.164,-4.58 -2.208,-1.146 -3.68,2.208 -3.598,3.517 10e-4,-0.001 -12.594,2.535 -29.033,14.557 z"
   id="XMLID_20_" />
			<polygon
   style="fill:#feddca"
   points="427.46,337.373 426.253,328.013 432.495,324.653 432.495,335.08 "
   id="XMLID_66_" />
			<path
   style="fill:#ef3c2a"
   d="m 419.559,302.91 c -5.021,1.673 -7.252,6.276 -8.158,10.739 -0.906,4.462 -2.51,5.299 -2.092,6.066 0.418,0.767 1.031,-0.698 3.723,-1.674 2.692,-0.977 9.735,-8.577 9.735,-8.368 0,0.209 13.807,0.698 13.667,0.907 -0.14,0.209 1.674,-0.559 1.674,-0.559 l -5.857,15.271 -1.186,13.318 c 0,0 6.973,0 13.598,-5.16 0,0 -0.121,-19.334 -7.043,-26.357 -5.375,-5.452 -11.485,-6.375 -18.061,-4.183 z"
   id="XMLID_24_" />
			<path
   style="fill:#ef3c2a"
   d="m 418.617,325.502 c 0,0 -1.708,7.843 0,14.276 l 9.519,-3.677 -0.958,-8.717 c 0,10e-4 -4.311,1.012 -8.561,-1.882 z"
   id="XMLID_67_" />
			<path
   style="fill:#feddca"
   d="m 412.655,318.265 c 0,0 1.271,7.446 8.507,10.026 7.237,2.581 13.249,-3.416 15.411,-7.6 2.161,-4.184 1.743,-8.438 1.743,-8.438 0,0 3.486,-1.813 2.58,-3.836 -0.907,-2.021 -4.254,0.35 -4.254,0.35 0,0 -6.973,2.132 -16.178,-1.166 10e-4,10e-4 -0.626,6.563 -7.809,10.664 z"
   id="XMLID_19_" />
			<path
   style="fill:none;stroke:#595239;stroke-linecap:round;stroke-linejoin:round;stroke-miterlimit:10"
   d="m 418.513,316.508 0.977,2.858 -2.79,1.465 c 0,0 1.395,1.743 3.836,1.324"
   stroke-miterlimit="10"
   id="XMLID_53_" />
			<path
   style="fill:none;stroke:#595239;stroke-linecap:round;stroke-linejoin:round;stroke-miterlimit:10"
   d="m 423.394,312.951 c 0,0 1.255,2.501 3.138,1.704 1.883,-0.798 0.319,-4.673 0.319,-4.673"
   stroke-miterlimit="10"
   id="XMLID_25_" />
			<path
   style="fill:none;stroke:#595239;stroke-linecap:round;stroke-linejoin:round;stroke-miterlimit:10"
   d="m 416.699,316.229 c 0,0 1.047,2.296 0,3.136 -1.046,0.839 -2.649,-1.099 -2.649,-1.099"
   stroke-miterlimit="10"
   id="XMLID_59_" />
			<path
   style="fill:#595239"
   d="m 423.742,323.55 c 1.483,-0.753 3.219,-1.395 3.108,-0.558 -0.109,0.837 -0.413,3.695 -1.552,3.068 -1.137,-0.627 -2.974,-1.789 -1.556,-2.51 z"
   id="XMLID_65_" />
			<path
   style="fill:#f7adb2"
   d="m 431.273,315.321 c 0.738,0.661 -2.467,4.184 -3.813,3.208 -1.347,-0.976 2.488,-4.393 3.813,-3.208 z"
   id="XMLID_64_" />
			<path
   style="fill:#f7ac2a"
   d="m 451.962,322.598 c -3.284,-1.076 -6.011,2.475 -12.216,4.219 -6.207,1.743 -13.751,8.27 -18.047,9.594 -4.296,1.325 -7.842,1.574 -6.912,6.525 0.93,4.95 9.792,14.573 13.349,21.756 3.556,7.182 7.81,12.899 14.155,14.922 6.346,2.023 9.971,0.768 15.551,-1.742 5.577,-2.512 7.043,-4.812 9.344,-11.018 2.301,-6.207 2.371,-11.924 -0.488,-16.875 -2.859,-4.951 -6.068,-11.924 -8.154,-16.004 -2.737,-5.354 -4.28,-10.623 -6.582,-11.377 z"
   id="XMLID_68_" />
			<g
   id="XMLID_62_">
				<g
   id="XMLID_70_">
					<path
   style="fill:#ffffff"
   id="path470"
   d="m 449.055,334.986 c 0,0 -0.245,0.301 -0.694,0.804 -0.448,0.504 -1.097,1.216 -1.903,2.038 -0.4,0.412 -0.835,0.859 -1.309,1.316 -0.471,0.461 -0.963,0.952 -1.49,1.438 -0.527,0.487 -1.053,1.011 -1.633,1.495 -0.572,0.492 -1.153,0.993 -1.734,1.493 -0.592,0.488 -1.184,0.977 -1.766,1.457 -0.582,0.48 -1.176,0.929 -1.738,1.376 -1.135,0.886 -2.212,1.687 -3.152,2.352 -0.936,0.672 -1.736,1.202 -2.301,1.568 -0.565,0.366 -0.898,0.561 -0.898,0.561 0,0 0.252,-0.298 0.712,-0.794 0.46,-0.496 1.122,-1.197 1.944,-2.003 0.815,-0.813 1.786,-1.736 2.848,-2.698 0.535,-0.477 1.075,-0.983 1.646,-1.473 0.571,-0.488 1.149,-0.986 1.729,-1.482 1.183,-0.969 2.365,-1.936 3.475,-2.843 0.553,-0.459 1.104,-0.881 1.623,-1.286 0.516,-0.408 1.018,-0.78 1.48,-1.123 0.922,-0.689 1.713,-1.237 2.271,-1.615 0.56,-0.378 0.89,-0.581 0.89,-0.581 z" />
				</g>
				<g
   id="XMLID_71_">
					<path
   style="fill:#ffffff"
   id="path473"
   d="m 453.099,338.054 c 0,0 -0.216,0.321 -0.62,0.86 -0.403,0.539 -0.988,1.302 -1.73,2.181 -0.367,0.442 -0.77,0.919 -1.21,1.407 -0.436,0.494 -0.896,1.014 -1.392,1.533 -0.494,0.521 -0.998,1.067 -1.532,1.598 -0.536,0.53 -1.081,1.068 -1.627,1.606 -1.112,1.056 -2.255,2.08 -3.365,2.998 -0.554,0.462 -1.093,0.901 -1.627,1.295 -0.527,0.402 -1.026,0.778 -1.513,1.096 -0.481,0.325 -0.916,0.625 -1.332,0.855 -0.409,0.237 -0.76,0.448 -1.069,0.594 -0.618,0.288 -0.972,0.433 -0.972,0.433 0,0 0.293,-0.262 0.807,-0.682 0.257,-0.209 0.543,-0.505 0.892,-0.806 0.349,-0.301 0.714,-0.683 1.134,-1.065 0.418,-0.384 0.848,-0.83 1.324,-1.273 0.469,-0.455 0.963,-0.934 1.475,-1.429 0.52,-0.485 1.027,-1.021 1.574,-1.53 0.541,-0.518 1.09,-1.044 1.638,-1.57 0.554,-0.521 1.106,-1.044 1.651,-1.558 0.537,-0.523 1.096,-1.007 1.615,-1.497 0.518,-0.491 1.043,-0.943 1.528,-1.384 0.483,-0.442 0.956,-0.846 1.39,-1.222 0.864,-0.754 1.605,-1.364 2.129,-1.786 0.522,-0.423 0.832,-0.654 0.832,-0.654 z" />
				</g>
				<g
   id="XMLID_72_">
					<path
   style="fill:#ffffff"
   id="path476"
   d="m 454.981,346.282 c 0,0 -0.116,0.239 -0.351,0.636 -0.232,0.398 -0.58,0.955 -1.035,1.593 -0.448,0.644 -1.006,1.367 -1.64,2.11 -0.635,0.743 -1.341,1.511 -2.091,2.238 -0.373,0.365 -0.76,0.719 -1.146,1.06 -0.378,0.347 -0.783,0.658 -1.163,0.968 -0.385,0.308 -0.779,0.579 -1.145,0.842 -0.371,0.259 -0.745,0.476 -1.081,0.682 -0.333,0.211 -0.669,0.364 -0.954,0.512 -0.28,0.154 -0.547,0.256 -0.763,0.34 -0.433,0.169 -0.684,0.247 -0.684,0.247 0,0 0.188,-0.193 0.524,-0.5 0.17,-0.15 0.371,-0.338 0.597,-0.559 0.226,-0.217 0.481,-0.461 0.76,-0.727 1.094,-1.074 2.552,-2.507 4.008,-3.938 1.468,-1.425 2.96,-2.836 4.142,-3.848 0.581,-0.515 1.09,-0.926 1.447,-1.213 0.36,-0.287 0.575,-0.443 0.575,-0.443 z" />
				</g>
				<g
   id="XMLID_73_">
					<path
   style="fill:#ffffff"
   id="path479"
   d="m 455.958,353.534 c 0,0 0.005,0.159 -0.029,0.428 -0.031,0.27 -0.104,0.646 -0.231,1.086 -0.133,0.436 -0.322,0.934 -0.587,1.437 -0.124,0.256 -0.28,0.506 -0.438,0.76 -0.162,0.252 -0.346,0.495 -0.529,0.739 -0.203,0.229 -0.39,0.472 -0.609,0.68 -0.219,0.212 -0.428,0.421 -0.662,0.595 -0.23,0.178 -0.447,0.351 -0.683,0.483 -0.233,0.133 -0.442,0.268 -0.661,0.356 -0.216,0.093 -0.418,0.166 -0.594,0.229 -0.178,0.062 -0.349,0.087 -0.48,0.115 -0.268,0.054 -0.422,0.064 -0.422,0.064 0,0 0.099,-0.13 0.277,-0.324 0.088,-0.094 0.195,-0.209 0.318,-0.341 0.115,-0.138 0.244,-0.292 0.389,-0.446 0.146,-0.15 0.284,-0.343 0.445,-0.518 0.164,-0.172 0.312,-0.381 0.484,-0.573 0.174,-0.189 0.328,-0.414 0.508,-0.616 0.172,-0.211 0.345,-0.427 0.52,-0.641 0.349,-0.437 0.697,-0.873 1.025,-1.282 0.336,-0.41 0.65,-0.8 0.939,-1.129 0.287,-0.33 0.539,-0.605 0.723,-0.799 0.182,-0.192 0.297,-0.303 0.297,-0.303 z" />
				</g>
			</g>
		</g>
	</g>
</g>
</svg>