<?xml version="1.0" encoding="UTF-8" standalone="no"?>
<svg
   xmlns:ns="&amp;ns_sfw;"
   xmlns:dc="http://purl.org/dc/elements/1.1/"
   xmlns:cc="http://creativecommons.org/ns#"
   xmlns:rdf="http://www.w3.org/1999/02/22-rdf-syntax-ns#"
   xmlns:svg="http://www.w3.org/2000/svg"
   xmlns="http://www.w3.org/2000/svg"
   xmlns:xlink="http://www.w3.org/1999/xlink"
   xml:space="preserve"
   enable-background="new 0 0 595.275 841.89"
   viewBox="0 0 106 77.243009"
   height="77.243011"
   width="106"
   y="0px"
   x="0px"
   id="Capa_1"
   version="1.1"><defs
   id="defs451" />
<metadata
   id="metadata3">
	<ns:sfw>
		<ns:slices />
		<ns:sliceSourceBounds
   x="-16.358"
   y="-946.048"
   bottomLeftOrigin="true"
   width="1255.262"
   height="883.078" />
	</ns:sfw>
<rdf:RDF><cc:Work
     rdf:about=""><dc:format>image/svg+xml</dc:format><dc:type
       rdf:resource="http://purl.org/dc/dcmitype/StillImage" /><dc:title></dc:title></cc:Work></rdf:RDF></metadata>
























































<g
   transform="translate(-45.863998,-465.25699)"
   id="g303">
	<defs
   id="defs305">
		<ellipse
   ry="53.143002"
   rx="53"
   cy="501.12799"
   cx="98.863998"
   id="SVGID_3_" />
	</defs>
	<clipPath
   id="SVGID_4_">
		<use
   height="100%"
   width="100%"
   y="0"
   x="0"
   style="overflow:visible"
   id="use309"
   overflow="visible"
   xlink:href="#SVGID_3_" />
	</clipPath>
	<g
   id="g311"
   clip-path="url(#SVGID_4_)">
		<g
   id="g313">
			<rect
   style="fill:#ffffff"
   id="rect315"
   height="38.523998"
   width="23.521"
   y="465.25699"
   x="40.702" />
			<polygon
   style="fill:#ffffff"
   id="polygon317"
   points="64.223,465.257 64.223,503.782 40.702,465.257 " />
		</g>
		<g
   id="g319">
			<path
   style="fill:#ffffff"
   id="path321"
   d="m 162.284,492.582 -98.061,0 0,-17.718 85.605,0 12.456,17.718 z m -95.563,-2.498 90.756,0 -8.946,-12.724 -81.81,0 0,12.724 z" />
		</g>
		<g
   id="g323">
			<polygon
   style="fill:#ffffff"
   id="polygon325"
   points="72.114,475.867 78.963,486.731 85.709,476.03 92.45,486.731 99.196,476.03 105.938,486.731 112.683,476.03 119.424,486.73 126.167,476.03 132.913,486.731 139.655,476.03 145.819,485.815 147.959,475.851 150.401,476.375 146.973,492.332 139.655,480.713 132.913,491.415 126.167,480.713 119.424,491.416 112.682,480.713 105.938,491.415 99.196,480.713 92.45,491.415 85.708,480.713 78.963,491.415 72.322,480.877 66.58,491.909 64.364,490.755 " />
		</g>
		<rect
   style="fill:#ffffff"
   id="rect327"
   height="5.4089999"
   width="17.656"
   y="492.582"
   x="89.783997" />
		<rect
   style="fill:#ffffff"
   id="rect329"
   height="5.4089999"
   width="8.8280001"
   y="492.582"
   x="98.612" />
		<g
   id="g331">
			
				<rect
   style="fill:#ffffff"
   id="rect333"
   height="1.069"
   width="27.719"
   transform="matrix(0.1178,0.993,-0.993,0.1178,589.309,360.1537)"
   y="511.22"
   x="78.091003" />
		</g>
		<g
   id="g335">
			
				<rect
   style="fill:#ffffff"
   id="rect337"
   height="27.719"
   width="1.0700001"
   transform="matrix(0.9929,0.1186,-0.1186,0.9929,61.4588,-8.8751)"
   y="497.89499"
   x="104.736" />
		</g>
		<g
   id="g339">
			<path
   style="fill:#ffffff"
   id="path341"
   d="m 98.969,542.5 -0.334,0 c -0.799,0 -1.57,-0.333 -2.12,-0.913 -0.619,-0.656 -0.903,-1.545 -0.781,-2.439 0.122,-0.894 0.638,-1.673 1.411,-2.138 l 0.807,-0.483 0,-2.679 c 0,-0.31 0.25,-0.56 0.559,-0.56 0.308,0 0.558,0.25 0.558,0.56 l 0,3.311 -1.349,0.81 c -0.482,0.289 -0.803,0.775 -0.879,1.332 -0.078,0.557 0.101,1.11 0.486,1.521 0.338,0.358 0.815,0.563 1.309,0.563 l 0.334,0 c 0.535,0 0.797,-0.166 1.025,-0.413 0.316,-0.342 0.457,-0.815 0.392,-1.3 -0.043,-0.305 0.17,-0.586 0.476,-0.629 0.307,-0.043 0.587,0.172 0.629,0.477 0.113,0.815 -0.134,1.62 -0.676,2.209 -0.486,0.525 -1.073,0.771 -1.847,0.771 z" />
		</g>
		<path
   style="fill:#ffffff"
   id="path343"
   d="m 104.172,525.517 -4.65,8.057 c -0.404,0.701 -1.417,0.701 -1.821,0 l -4.651,-8.057 c -0.404,-0.7 0.102,-1.577 0.911,-1.577 l 9.303,0 c 0.809,0 1.315,0.877 0.908,1.577 z" />
	</g>
</g>



</svg>