<?xml version="1.0" encoding="UTF-8" standalone="no"?>
<svg
   xmlns:dc="http://purl.org/dc/elements/1.1/"
   xmlns:cc="http://creativecommons.org/ns#"
   xmlns:rdf="http://www.w3.org/1999/02/22-rdf-syntax-ns#"
   xmlns:svg="http://www.w3.org/2000/svg"
   xmlns="http://www.w3.org/2000/svg"
   width="23.819555mm"
   height="15.183556mm"
   viewBox="0 0 84.399999 53.8"
   id="svg4200"
   version="1.1">
  <defs
     id="defs4202" />
  <metadata
     id="metadata4205">
    <rdf:RDF>
      <cc:Work
         rdf:about="">
        <dc:format>image/svg+xml</dc:format>
        <dc:type
           rdf:resource="http://purl.org/dc/dcmitype/StillImage" />
        <dc:title></dc:title>
      </cc:Work>
    </rdf:RDF>
  </metadata>
  <g
     style="fill:#ffffff"
     id="layer1"
     transform="translate(205.05714,-694.03363)">
    <g
       transform="translate(-345.35714,593.53363)"
       id="g7"
       style="fill:#ffffff;fill-opacity:1">
      <path
         style="fill:#ffffff;fill-opacity:1"
         d="m 162.4,127.3 c 0,0.2 0.1,0.4 0.2,0.5 -0.3,0.1 -0.6,0.4 -0.6,0.8 0,0.5 0.4,0.9 0.9,0.9 l 0.1,0 c 0,0 0.1,0 0.1,0 0.1,0.7 0.6,1.3 1.4,1.3 l 8.2,0 c 0.8,0 1.4,-0.6 1.4,-1.4 0,-0.8 -0.6,-1.4 -1.4,-1.4 l -6.7,0 c 0.2,-0.2 0.3,-0.5 0.2,-0.9 l -2,-6 c -0.3,-0.6 -0.7,-1.1 -1.3,-1 -0.7,0.1 -1.1,0.7 -1,1.3 l 0.5,5.9 z"
         id="path9" />
      <path
         style="fill:#ffffff;fill-opacity:1"
         d="m 223.3,127.8 -18.6,0 c -0.8,0 -1.4,0.6 -1.4,1.4 l 0,18.6 c 0,0.7 0.5,1.3 1.2,1.4 l -2.7,0 0,-2.3 c 0,-0.4 -0.3,-0.7 -0.7,-0.7 -0.3,0 -0.5,0.2 -0.6,0.4 l 0,-18.5 c 0,-0.7 -0.6,-1.3 -1.3,-1.3 l -0.5,0 c -0.6,0 -1.1,0.4 -1.3,1 l 0,-19.7 c 0,-0.7 -0.6,-1.3 -1.3,-1.3 l -2.9,0 c -0.5,0 -0.9,0.3 -1.1,0.7 l -2.2,0 -0.4,0 -0.7,0 0,8.7 1.1,0 0,0 2.1,0 0,12.8 -1.1,0.9 -0.1,-0.2 c -0.1,-0.2 -0.4,-0.2 -0.6,-0.1 l -2.9,2.3 -6,-20.9 c -0.6,-1.9 -1.4,-3.7 -2.7,-5.1 -1.3,-1.4 -3,-2.4 -5.1,-2.4 l -6.9,0 c 0.1,-0.1 0.2,-0.3 0.2,-0.5 l 0,-0.8 0,-0.1 0,-0.8 c 0,-0.4 -0.4,-0.8 -0.8,-0.8 l -1.7,0 c -0.4,0 -0.8,0.4 -0.8,0.8 l 0,0.8 0,0.1 0,0.8 c 0,0.2 0.1,0.4 0.2,0.5 -4.2,0.1 -7.6,3.6 -7.6,7.8 l 0,19.2 c -0.3,-0.9 -1.1,-1.7 -2.9,-1.7 -2.7,0 -6.8,0 -6.8,0 -2.1,0 -3.2,0.8 -3.7,1.3 -0.5,0.5 -2.2,2.9 -2.4,5.3 l 0,0 0,0.2 0,0 0,0.2 0,0 c 0.1,2.7 0.9,12.6 0.9,12.6 0,0.5 0.2,1 0.6,1.2 l 0,0 c 0,0 0,0 0,0 0.1,0 0.3,0.1 0.4,0.1 l 2.1,0 c 0.8,2.6 3.2,4.6 6.1,4.6 0,0 0,0 0,0 0,0 0,0 0,0 2.9,0 5.3,-1.9 6.1,-4.6 l 21.1,0 0,0 0.2,0 c 0,0 0,0 0,0 l 5.5,0 c 1.2,2.7 3.9,4.6 7,4.6 2.6,0 4.9,-1.3 6.2,-3.3 0.5,-0.2 0.9,-0.7 0.9,-1.2 l 0,-0.5 c 0,0 0,0 0,0 0.1,0.6 0.7,1 1.3,1 l 0.5,0 c 0.6,0 1.1,-0.4 1.2,-0.9 l 0,0.5 c 0,0.3 0.3,0.6 0.6,0.7 0,0 0.1,0 0.1,0 l 20.4,0 c 0.4,0 0.7,-0.3 0.7,-0.7 0,-0.3 -0.3,-0.6 -0.6,-0.7 l 1.7,0 c 0.8,0 1.4,-0.6 1.4,-1.4 l 0,-18.6 c 0,-0.7 -0.6,-1.4 -1.4,-1.4 z m -41,-3.2 -1,0.4 -1.7,-3.1 c 0,-0.1 -0.1,-0.2 -0.2,-0.2 l 1.7,-0.9 1.2,3.8 z m 9.6,14.7 c -0.5,-0.1 -1.1,-0.2 -1.7,-0.2 -0.5,0 -1.1,0.1 -1.6,0.2 l 0.3,-0.5 0,0 c 0,0 0,0 0,0 l 0.1,-0.2 -0.1,0 c 0,0 0,-0.1 0,-0.1 l 0,-0.2 -0.3,-1 1.9,-0.6 1.4,0 0,2.6 z m -2.1,-24.8 0,-5.4 2.1,0 0,5.4 -2.1,0 z m 1.9,17.3 c 0.2,-0.1 0.2,-0.4 0.1,-0.6 l -0.1,-0.2 0.2,-0.2 0,4.4 -1.6,0 -2,0.7 -0.3,-1.2 3.7,-2.9 z m -28,-25.7 9.6,0 c 1.3,0 2.2,0.5 3.2,1.5 0.9,1 1.6,2.5 2.1,4 l 2.2,7.5 -6.6,3.6 c -0.2,0.1 -0.3,0.5 -0.1,0.7 l 0.2,0.3 c 0.2,0.3 0.5,0.4 0.7,0.3 l 2.6,-1.4 c 0,0.1 0.1,0.2 0.1,0.3 l 2.8,5.1 c -0.1,0.2 -0.1,0.4 0,0.7 l 2,6 c 0,0.1 0.1,0.1 0.1,0.2 l -0.7,2.3 -6.1,0 -0.8,-4.1 c -0.5,-2.2 -0.8,-2.5 -3.2,-2.5 l -13.2,0 0,-19.5 c -0.1,-2.6 2.3,-5 5.1,-5 z"
         id="path11" />
    </g>
  </g>
</svg>
