<svg xmlns="http://www.w3.org/2000/svg" width="3.95224mm" height="19.756403mm" viewBox="0 0 14.004 70.003002"><g transform="translate(-275.85516,-480.21784)"><path style="fill:#ffffff" d="m 288.35816,494.21784 -1.601,0 3.101,3.1 0,1.8 -4.9,-4.9 -1.601,0 6.501,6.5 0,1.8 -8.301,-8.3 -1.5,0 9.801,9.801 0,1.8 -11.601,-11.601 -1.601,0 13.201,13.201 0,2.4 -0.5,0.5 0.399,0.5 0.101,-0.1 0,2.5 -0.5,0.5 0.399,0.4 0.101,0 0,2.5 -0.5,0.5 0.399,0.4 0.101,0 0,2.5 -0.5,0.5 0.399,0.4 0.101,0 0,2.5 -5.801,5.801 -2.5,0 7.301,-7.4 -0.4,-0.4 -0.8,0.799 0.1,0 -0.1,0 -7,7.002 -2.501,0 7.4,-7.4 -0.5,-0.4 -0.8,0.799 0.101,0 -0.101,0 -7,7.002 -1.4,0 0,-1.102 6.301,-6.299 -0.5,-0.4 -0.801,0.799 0.101,0 -0.101,0 -5,5.002 0,-2.502 2.9,-2.898 -0.4,-0.4 -0.8,0.799 -0.101,0 -1.6,1.602 0,-3.301 0.4,0.4 0.8,-0.801 -0.4,-0.4 -0.8,0.701 0,-3.301 0.4,0.4 0.8,-0.801 -0.4,-0.4 -0.8,0.701 0,-3.301 0.4,0.4 0.8,-0.801 -0.4,-0.399 -0.8,0.8 0,-3.4 0.4,0.5 0.8,-0.8 -0.4,-0.5 -0.8,0.8 0,-3.3 1.2,1.2 0.9,0 -0.4,0.4 0.4,0.5 0.8,-0.8 -2.9,-2.9 0,-1.8 4.601,4.601 0.899,0 -0.5,0.4 0.5,0.5 0.801,-0.8 -6.301,-6.301 0,-1.8 8,8 0.801,0 -0.4,0.4 0.5,0.5 0.8,-0.8 -9.7,-9.701 0,-1.8 11.4,11.401 0.801,0 -0.4,0.4 0.5,0.5 0.7,-0.8 -13.001,-13.101 0,-15.001 14.001,0 0,15.501 -1.499,-1.501 z m -12.501,42.003 14.001,0 0,14 -14.001,0 0,-14 z m 2.901,-24.502 -0.4,-0.5 -0.8,0.801 0.4,0.5 0.8,-0.801 z m 0,3.301 -0.4,-0.4 -0.8,0.801 0.4,0.398 0.8,-0.799 z m 0,3.4 -0.4,-0.4 -0.8,0.799 0.4,0.4 0.8,-0.799 z m 1.7,-8.401 -0.5,-0.5 -0.801,0.8 0.5,0.5 0.801,-0.8 z m 0,3.299 -0.5,-0.399 -0.801,0.8 0.5,0.4 0.801,-0.801 z m 0,3.401 -0.5,-0.4 -0.801,0.801 0.5,0.4 0.801,-0.801 z m 0,3.4 -0.5,-0.4 -0.801,0.801 0.5,0.4 0.801,-0.801 z m 1.7,-8.4 -0.5,-0.5 -0.801,0.801 0.5,0.5 0.801,-0.801 z m 0,3.301 -0.5,-0.4 -0.801,0.801 0.5,0.398 0.801,-0.799 z m 0,3.4 -0.5,-0.4 -0.801,0.799 0.5,0.4 0.801,-0.799 z m 1.699,-8.401 -0.5,-0.5 -0.8,0.8 0.5,0.5 0.8,-0.8 z m 0,3.299 -0.5,-0.399 -0.8,0.8 0.5,0.4 0.8,-0.801 z m 0,3.401 -0.5,-0.4 -0.8,0.801 0.5,0.4 0.8,-0.801 z m 0,3.4 -0.5,-0.4 -0.8,0.801 0.5,0.4 0.8,-0.801 z m 1.701,-8.4 -0.5,-0.5 -0.8,0.801 0.5,0.5 0.8,-0.801 z m 0,3.301 -0.5,-0.4 -0.8,0.801 0.5,0.398 0.8,-0.799 z m 0,3.4 -0.5,-0.4 -0.8,0.799 0.5,0.4 0.8,-0.799 z m -0.7,10.801 5,-5.002 0,2.502 -2.5,2.5 -2.5,0 z m 2.4,-19.202 -0.5,-0.5 -0.8,0.8 0.5,0.5 0.8,-0.8 z m 0,3.299 -0.5,-0.399 -0.8,0.8 0.5,0.4 0.8,-0.801 z m 0,3.401 -0.5,-0.4 -0.8,0.801 0.5,0.4 0.8,-0.801 z m 0,3.4 -0.5,-0.4 -0.8,0.801 0.5,0.4 0.8,-0.801 z m 1.6,-8.4 -0.4,-0.5 -0.8,0.801 0.5,0.5 0.7,-0.801 z m 0,3.301 -0.4,-0.4 -0.8,0.801 0.5,0.398 0.7,-0.799 z m 0,3.4 -0.4,-0.4 -0.8,0.799 0.5,0.4 0.7,-0.799 z m -0.6,10.801 1.601,-1.602 0,1.602 -1.601,0 z"/></g></svg>