<?xml version="1.0" encoding="UTF-8" standalone="no"?>
<svg
   xmlns:dc="http://purl.org/dc/elements/1.1/"
   xmlns:cc="http://creativecommons.org/ns#"
   xmlns:rdf="http://www.w3.org/1999/02/22-rdf-syntax-ns#"
   xmlns:svg="http://www.w3.org/2000/svg"
   xmlns="http://www.w3.org/2000/svg"
   xml:space="preserve"
   enable-background="new 0 0 951.84 857.956"
   viewBox="0 0 330.79098 46.096001"
   height="46.096001"
   width="330.79099"
   y="0px"
   x="0px"
   id="Layer_1"
   version="1.1"><metadata
   id="metadata777"><rdf:RDF><cc:Work
       rdf:about=""><dc:format>image/svg+xml</dc:format><dc:type
         rdf:resource="http://purl.org/dc/dcmitype/StillImage" /><dc:title></dc:title></cc:Work></rdf:RDF></metadata><defs
   id="defs775" />
<circle
   style="fill:#fff200"
   id="circle3"
   r="45.851002"
   cy="-332.35501"
   cx="230.27397" />
<path
   style="fill:#cb4d5e"
   id="path5"
   d="m 276.652,134.68 0,-43.036 c 0,-5.513 -4.471,-9.985 -9.985,-9.985 l -187.861,0 c -5.514,0 -9.984,4.473 -9.984,9.985 l 0,50.715 c 0,0 -0.094,4.825 3.984,7.001 l 0,24.91 -8.874,0 c -0.722,0 -1.308,0.586 -1.308,1.308 l 0,33.428 c 0,0.722 0.586,1.307 1.308,1.307 l 9.586,0 c 1.469,3.686 5.062,6.297 9.273,6.297 l 0.445,0 c -0.396,-1.614 -0.629,-3.297 -0.629,-5.039 0,-11.187 8.669,-20.253 19.362,-20.253 10.695,0 19.362,9.066 19.362,20.253 0,1.742 -0.233,3.425 -0.628,5.039 l 81.755,0 c -0.396,-1.614 -0.629,-3.297 -0.629,-5.039 0,-11.187 8.669,-20.253 19.362,-20.253 10.695,0 19.362,9.066 19.362,20.253 0,1.742 -0.233,3.425 -0.628,5.039 l 30.726,0 c 5.515,0 9.983,-4.47 9.983,-9.983 l 0,-63.978 c 0.002,-3.26 -1.566,-6.145 -3.982,-7.969 z" />
<path
   style="fill:#ffffff"
   id="path7"
   d="m 110.877,105.326 c 0,2.516 -2.041,4.559 -4.559,4.559 l -19.878,0 c -2.517,0 -4.558,-2.043 -4.558,-4.559 l 0,-8.737 c 0,-2.517 2.041,-4.558 4.558,-4.558 l 19.878,0 c 2.518,0 4.559,2.041 4.559,4.558 l 0,8.737 z" />
<path
   style="fill:#ffffff"
   id="path9"
   d="m 150.36,105.326 c 0,2.516 -2.041,4.559 -4.559,4.559 l -19.878,0 c -2.516,0 -4.557,-2.043 -4.557,-4.559 l 0,-8.737 c 0,-2.517 2.041,-4.558 4.557,-4.558 l 19.878,0 c 2.518,0 4.559,2.041 4.559,4.558 l 0,8.737 z" />
<path
   style="fill:#ffffff"
   id="path11"
   d="m 189.845,105.326 c 0,2.516 -2.041,4.559 -4.56,4.559 l -19.877,0 c -2.517,0 -4.559,-2.043 -4.559,-4.559 l 0,-8.737 c 0,-2.517 2.042,-4.558 4.559,-4.558 l 19.877,0 c 2.519,0 4.56,2.041 4.56,4.558 l 0,8.737 z" />
<path
   style="fill:#ffffff"
   id="path13"
   d="m 229.326,105.326 c 0,2.516 -2.04,4.559 -4.559,4.559 l -19.877,0 c -2.515,0 -4.557,-2.043 -4.557,-4.559 l 0,-8.737 c 0,-2.517 2.042,-4.558 4.557,-4.558 l 19.877,0 c 2.519,0 4.559,2.041 4.559,4.558 l 0,8.737 z" />
<path
   style="fill:#ffffff"
   id="path15"
   d="m 264.252,109.884 -19.877,0 c -2.518,0 -4.558,-2.043 -4.558,-4.559 l 0,-8.737 c 0,-2.517 2.04,-4.558 4.558,-4.558 0,0 11.673,-2.126 17.198,4.759 3.118,4.145 5.197,13.095 2.679,13.095 z" />
<path
   style="fill:#ffffff"
   id="path17"
   d="m 110.877,167.324 c 0,2.518 -2.041,4.555 -4.559,4.555 l -19.878,0 c -2.517,0 -4.558,-2.037 -4.558,-4.555 l 0,-8.734 c 0,-2.52 2.041,-4.56 4.558,-4.56 l 19.878,0 c 2.518,0 4.559,2.04 4.559,4.56 l 0,8.734 z" />
<path
   style="fill:#ffffff"
   id="path19"
   d="m 150.36,167.324 c 0,2.518 -2.041,4.555 -4.559,4.555 l -19.878,0 c -2.516,0 -4.557,-2.037 -4.557,-4.555 l 0,-8.734 c 0,-2.52 2.041,-4.56 4.557,-4.56 l 19.878,0 c 2.518,0 4.559,2.04 4.559,4.56 l 0,8.734 z" />
<path
   style="fill:#ffffff"
   id="path21"
   d="m 189.845,167.324 c 0,2.518 -2.041,4.555 -4.56,4.555 l -19.877,0 c -2.517,0 -4.559,-2.037 -4.559,-4.555 l 0,-8.734 c 0,-2.52 2.042,-4.56 4.559,-4.56 l 19.877,0 c 2.519,0 4.56,2.04 4.56,4.56 l 0,8.734 z" />
<path
   style="fill:#ffffff"
   id="path23"
   d="m 229.326,167.324 c 0,2.518 -2.04,4.555 -4.559,4.555 l -19.877,0 c -2.515,0 -4.557,-2.037 -4.557,-4.555 l 0,-8.734 c 0,-2.52 2.042,-4.56 4.557,-4.56 l 19.877,0 c 2.519,0 4.559,2.04 4.559,4.56 l 0,8.734 z" />
<path
   style="fill:#ffffff"
   id="path25"
   d="m 268.81,202.355 c 0,2.518 -2.04,4.558 -4.56,4.558 l -19.876,0 c -2.517,0 -4.558,-2.04 -4.558,-4.558 l 0,-43.766 c 0,-2.52 2.041,-4.56 4.558,-4.56 l 19.876,0 c 2.52,0 4.56,2.04 4.56,4.56 l 0,43.766 z" />
<ellipse
   style="fill:#cb4d5e"
   id="ellipse27"
   ry="15.587"
   rx="14.902"
   cy="211.57001"
   cx="101.97002" />
<ellipse
   style="fill:#ffffff"
   id="ellipse29"
   ry="4.5640001"
   rx="4.362"
   cy="211.57001"
   cx="101.97002" />
<ellipse
   style="fill:#cb4d5e"
   id="ellipse31"
   ry="15.587"
   rx="14.902"
   cy="211.57001"
   cx="221.19298" />
<ellipse
   style="fill:#ffffff"
   id="ellipse33"
   ry="4.5640001"
   rx="4.3629999"
   cy="211.57001"
   cx="221.19298" />
<rect
   style="fill:#ffffff"
   id="rect35"
   height="31.613001"
   width="0.74800003"
   y="176.09698"
   x="64.564018" />
<rect
   style="fill:#ffffff"
   id="rect37"
   height="31.613001"
   width="0.74699998"
   y="176.09698"
   x="66.116997" />
<rect
   style="fill:#ffffff"
   id="rect39"
   height="31.613001"
   width="0.74800003"
   y="176.09698"
   x="67.668022" />
<g
   transform="translate(-563.503,-583.685)"
   id="g41">
	<polygon
   style="fill:#3c4063"
   id="polygon43"
   points="563.503,589.284 563.503,602.874 587.034,602.874 " />
	<polygon
   style="fill:#3c4063"
   id="polygon45"
   points="563.503,610.592 563.503,623.867 586.501,610.592 " />
	<polygon
   style="fill:#3c4063"
   id="polygon47"
   points="594.456,583.685 567.194,583.685 594.456,599.422 " />
	<polygon
   style="fill:#3c4063"
   id="polygon49"
   points="566.657,629.781 594.456,629.781 594.456,613.735 " />
	<polygon
   style="fill:#cb4d5e"
   id="polygon51"
   points="563.503,629.781 563.981,629.781 594.456,612.185 594.456,610.592 593.468,610.592 563.503,627.892 " />
	<polygon
   style="fill:#cb4d5e"
   id="polygon53"
   points="563.503,585.574 563.503,587.739 589.714,602.874 593.466,602.874 " />
	<polygon
   style="fill:#e1ddbe"
   id="polygon55"
   points="594.456,610.592 594.456,612.185 563.981,629.781 566.657,629.781 594.456,613.735 594.456,629.781 596.466,629.781 596.466,609.26 563.503,609.26 563.503,610.592 586.501,610.592 563.503,623.867 563.503,627.892 593.468,610.592 " />
	<polygon
   style="fill:#e1ddbe"
   id="polygon57"
   points="593.466,602.874 589.714,602.874 563.503,587.739 563.503,589.284 587.034,602.874 563.503,602.874 563.503,604.206 596.466,604.206 596.466,583.685 594.456,583.685 594.456,599.422 567.194,583.685 563.503,583.685 563.503,585.574 " />
	<polygon
   style="fill:#cb4d5e"
   id="polygon59"
   points="596.466,609.26 596.466,629.781 600.284,629.781 600.284,583.685 596.466,583.685 596.466,604.206 563.503,604.206 563.503,609.26 " />
	<polygon
   style="fill:#3c4063"
   id="polygon61"
   points="863.345,629.781 890.331,629.781 863.345,614.198 " />
	<polygon
   style="fill:#3c4063"
   id="polygon63"
   points="890.87,583.685 863.345,583.685 863.345,599.573 " />
	<polygon
   style="fill:#3c4063"
   id="polygon65"
   points="894.294,602.874 894.294,589.441 871.036,602.874 " />
	<polygon
   style="fill:#3c4063"
   id="polygon67"
   points="894.294,624.33 894.294,610.592 870.493,610.592 " />
	<polygon
   style="fill:#cb4d5e"
   id="polygon69"
   points="864.06,602.874 894.294,585.417 894.294,583.685 893.546,583.685 863.345,601.12 863.345,602.874 " />
	<polygon
   style="fill:#cb4d5e"
   id="polygon71"
   points="894.294,628.049 894.294,625.878 867.81,610.592 864.06,610.592 " />
	<polygon
   style="fill:#e1ddbe"
   id="polygon73"
   points="864.06,610.592 867.81,610.592 894.294,625.878 894.294,624.33 870.493,610.592 894.294,610.592 894.294,609.26 861.333,609.26 861.333,629.781 863.345,629.781 863.345,614.198 890.331,629.781 894.294,629.781 894.294,628.049 " />
	<polygon
   style="fill:#e1ddbe"
   id="polygon75"
   points="861.333,604.206 894.294,604.206 894.294,602.874 871.036,602.874 894.294,589.441 894.294,585.417 864.06,602.874 863.345,602.874 863.345,601.12 893.546,583.685 890.87,583.685 863.345,599.573 863.345,583.685 861.333,583.685 " />
	<polygon
   style="fill:#cb4d5e"
   id="polygon77"
   points="861.333,609.26 894.294,609.26 894.294,604.206 861.333,604.206 861.333,583.685 857.513,583.685 857.513,629.781 861.333,629.781 " />
	<polygon
   style="fill:#e1ddbe"
   id="polygon79"
   points="857.513,629.781 857.513,583.685 853.694,583.685 851.681,583.685 824.421,583.685 820.728,583.685 637.069,583.685 636.321,583.685 633.642,583.685 606.114,583.685 604.106,583.685 600.284,583.685 600.284,629.781 604.106,629.781 606.114,629.781 633.106,629.781 637.069,629.781 820.728,629.781 821.206,629.781 823.886,629.781 851.681,629.781 853.694,629.781 " />
</g>
<g
   transform="translate(-563.503,-583.685)"
   id="g81">
	<path
   style="fill:#3c4063"
   id="path83"
   d="m 609.284,597.554 2.492,0 3.455,15.915 0.051,0 3.689,-15.915 3.021,0 3.33,15.915 0.053,0 3.732,-15.915 2.441,0 -4.854,18.353 -2.848,0 -3.484,-15.912 -0.049,0 -3.709,15.912 -2.85,0 -4.47,-18.353 z" />
	<path
   style="fill:#3c4063"
   id="path85"
   d="m 633.8,615.906 0,-18.353 9.455,0 0,2.034 -7.117,0 0,5.899 6.609,0 0,2.034 -6.609,0 0,6.354 7.27,0 0,2.031 -9.608,0 z" />
	<path
   style="fill:#3c4063"
   id="path87"
   d="m 646.517,615.906 0,-18.353 2.338,0 0,16.321 6.734,0 0,2.031 -9.072,0 z" />
	<path
   style="fill:#3c4063"
   id="path89"
   d="m 665.89,602.613 c 0.025,-1.042 -0.051,-2.083 -0.531,-2.671 -0.484,-0.581 -1.578,-0.784 -2.061,-0.784 -1.932,0 -2.697,1.169 -2.773,1.42 -0.072,0.209 -0.533,0.66 -0.533,3.815 l 0,4.909 c 0,4.496 1.475,5.032 3.279,5.032 0.713,0 2.871,-0.258 2.898,-3.843 l 2.416,0 c 0.098,5.799 -3.99,5.799 -5.186,5.799 -2.283,0 -5.797,-0.151 -5.797,-7.271 l 0,-5.19 c 0,-5.184 2.293,-6.655 5.898,-6.655 3.635,0 5.033,1.884 4.803,5.438 l -2.413,0 z" />
	<path
   style="fill:#3c4063"
   id="path91"
   d="m 671.87,609.196 0,-6.02 c 0,-3.661 1.885,-6.002 5.77,-6.002 3.889,0 5.771,2.341 5.771,6.002 l 0,6.02 c 0,5.084 -1.883,7.095 -5.771,7.095 -3.885,0 -5.77,-2.011 -5.77,-7.095 z m 9.152,0.107 0,-6.205 c 0,-3.843 -2.645,-3.967 -3.383,-3.967 -0.736,0 -3.379,0.124 -3.379,3.967 l 0,6.205 c 0,4.012 1.168,5.032 3.379,5.032 2.214,0 3.383,-1.021 3.383,-5.032 z" />
	<path
   style="fill:#3c4063"
   id="path93"
   d="m 689.7,615.906 -2.189,0 0,-18.353 3.789,0 4.627,15.406 0.047,0 4.68,-15.406 3.863,0 0,18.353 -2.338,0 0,-16.318 -0.051,0 -5.137,16.318 -2.209,0 -5.033,-16.318 -0.049,0 0,16.318 z" />
	<path
   style="fill:#3c4063"
   id="path95"
   d="m 708.675,615.906 0,-18.353 9.453,0 0,2.034 -7.119,0 0,5.899 6.609,0 0,2.034 -6.609,0 0,6.354 7.273,0 0,2.031 -9.607,0 z" />
	<path
   style="fill:#3c4063"
   id="path97"
   d="m 737.325,597.554 0,2.034 -4.83,0 0,16.318 -2.334,0 0,-16.318 -4.83,0 0,-2.034 11.994,0 z" />
	<path
   style="fill:#3c4063"
   id="path99"
   d="m 739.675,609.196 0,-6.02 c 0,-3.661 1.881,-6.002 5.77,-6.002 3.891,0 5.768,2.341 5.768,6.002 l 0,6.02 c 0,5.084 -1.877,7.095 -5.768,7.095 -3.889,0 -5.77,-2.011 -5.77,-7.095 z m 9.148,0.107 0,-6.205 c 0,-3.843 -2.645,-3.967 -3.379,-3.967 -0.74,0 -3.381,0.124 -3.381,3.967 l 0,6.205 c 0,4.012 1.17,5.032 3.381,5.032 2.209,0 3.379,-1.021 3.379,-5.032 z" />
	<path
   style="fill:#3c4063"
   id="path101"
   d="m 760.935,615.906 0,-18.353 2.338,0 0,16.321 6.734,0 0,2.031 -9.072,0 z" />
	<path
   style="fill:#3c4063"
   id="path103"
   d="m 772.151,609.196 0,-6.02 c 0,-3.661 1.881,-6.002 5.768,-6.002 3.893,0 5.77,2.341 5.77,6.002 l 0,6.02 c 0,5.084 -1.877,7.095 -5.77,7.095 -3.887,0 -5.768,-2.011 -5.768,-7.095 z m 9.149,0.107 0,-6.205 c 0,-3.843 -2.645,-3.967 -3.381,-3.967 -0.734,0 -3.375,0.124 -3.375,3.967 l 0,6.205 c 0,4.012 1.166,5.032 3.375,5.032 2.211,0 3.381,-1.021 3.381,-5.032 z" />
	<path
   style="fill:#3c4063"
   id="path105"
   d="m 800.476,597.554 0,18.353 -3.203,0 -7.244,-15.912 -0.051,0 0,15.912 -2.086,0 0,-18.353 3.307,0 7.143,15.712 0.051,0 0,-15.712 2.083,0 z" />
	<path
   style="fill:#3c4063"
   id="path107"
   d="m 804.782,597.554 5.641,0 c 2.338,0 4.016,0.839 4.93,2.801 0.736,1.544 0.814,5.208 0.814,5.792 0,3.916 -0.357,6.178 -1.117,7.395 -0.99,1.578 -2.85,2.365 -6.051,2.365 l -4.217,0 0,-18.353 z m 2.334,16.321 2.213,0 c 3.256,0 4.449,-1.224 4.449,-5.49 l 0,-3.709 c 0,-3.713 -1.143,-5.088 -3.582,-5.088 l -3.08,0 0,14.287 z" />
	<path
   style="fill:#3c4063"
   id="path109"
   d="m 820.194,609.196 0,-6.02 c 0,-3.661 1.877,-6.002 5.768,-6.002 3.889,0 5.77,2.341 5.77,6.002 l 0,6.02 c 0,5.084 -1.881,7.095 -5.77,7.095 -3.891,0 -5.768,-2.011 -5.768,-7.095 z m 9.149,0.107 0,-6.205 c 0,-3.843 -2.645,-3.967 -3.381,-3.967 -0.738,0 -3.379,0.124 -3.379,3.967 l 0,6.205 c 0,4.012 1.166,5.032 3.379,5.032 2.211,0 3.381,-1.021 3.381,-5.032 z" />
	<path
   style="fill:#3c4063"
   id="path111"
   d="m 848.517,597.554 0,18.353 -3.207,0 -7.24,-15.912 -0.053,0 0,15.912 -2.082,0 0,-18.353 3.307,0 7.141,15.712 0.047,0 0,-15.712 2.087,0 z" />
</g>
<g
   transform="translate(-563.503,-583.685)"
   id="g113">
	<path
   style="fill:#414042"
   id="path115"
   d="m 673.011,129.296 c -2.467,-8.608 -5.224,-19.597 -6.665,-25.447 l 0,-1.163 c 0.549,-0.104 0.927,-0.323 0.927,-0.578 0,-0.254 -0.378,-0.475 -0.927,-0.578 l 0,-6.262 2.155,0 0,-1.41 -2.155,0 0,-1.439 c 0.366,-0.236 0.62,-0.627 0.62,-1.094 0,-0.731 -0.592,-1.325 -1.322,-1.325 -0.732,0 -1.325,0.594 -1.325,1.325 0,0.467 0.257,0.858 0.619,1.094 l 0,1.439 -2.153,0 0,1.41 2.153,0 0,6.262 c -0.544,0.103 -0.921,0.324 -0.921,0.578 0,0.254 0.377,0.473 0.921,0.578 l 0,1.168 c -1.438,5.85 -4.194,16.837 -6.664,25.442 -3.53,12.327 -9.931,20.34 -9.931,20.34 l 17.253,0 0.097,0 17.254,0 c -10e-4,0.001 -6.403,-8.013 -9.936,-20.34 z m -18.688,17.108 c -0.146,0 -0.276,-0.075 -0.35,-0.189 -0.075,0.114 -0.205,0.189 -0.353,0.189 -0.227,0 -0.415,-0.186 -0.415,-0.417 0,-0.215 0.166,-0.39 0.373,-0.412 -0.015,-0.044 -0.023,-0.089 -0.023,-0.134 0,-0.23 0.188,-0.418 0.418,-0.418 0.234,0 0.414,0.188 0.414,0.418 0,0.045 -0.008,0.09 -0.021,0.134 0.209,0.021 0.374,0.196 0.374,0.412 0,0.232 -0.188,0.417 -0.417,0.417 z m 3.893,-9.158 c -0.148,0 -0.276,-0.077 -0.354,-0.191 -0.072,0.114 -0.2,0.191 -0.349,0.191 -0.229,0 -0.418,-0.188 -0.418,-0.418 0,-0.215 0.167,-0.39 0.374,-0.412 -0.014,-0.042 -0.021,-0.087 -0.021,-0.135 0,-0.229 0.186,-0.417 0.414,-0.417 0.233,0 0.42,0.188 0.42,0.417 0,0.048 -0.01,0.093 -0.025,0.135 0.211,0.022 0.374,0.197 0.374,0.412 0,0.23 -0.189,0.418 -0.415,0.418 z m 3.887,9.158 c -0.144,0 -0.275,-0.075 -0.348,-0.189 -0.072,0.114 -0.205,0.189 -0.353,0.189 -0.231,0 -0.415,-0.186 -0.415,-0.417 0,-0.215 0.163,-0.39 0.376,-0.412 -0.015,-0.044 -0.029,-0.089 -0.029,-0.134 0,-0.23 0.19,-0.418 0.421,-0.418 0.229,0 0.417,0.188 0.417,0.418 0,0.045 -0.012,0.09 -0.029,0.134 0.216,0.021 0.378,0.196 0.378,0.412 0,0.232 -0.186,0.417 -0.418,0.417 z m 0,-18.319 c -0.144,0 -0.275,-0.075 -0.35,-0.191 -0.07,0.116 -0.203,0.191 -0.351,0.191 -0.231,0 -0.415,-0.188 -0.415,-0.417 0,-0.216 0.163,-0.39 0.376,-0.415 -0.015,-0.041 -0.026,-0.084 -0.026,-0.131 0,-0.229 0.188,-0.417 0.416,-0.417 0.23,0 0.419,0.188 0.419,0.417 0,0.047 -0.012,0.091 -0.022,0.131 0.209,0.025 0.373,0.199 0.373,0.415 -10e-4,0.23 -0.188,0.417 -0.42,0.417 z m 3.892,9.161 c -0.148,0 -0.275,-0.077 -0.352,-0.191 -0.074,0.114 -0.205,0.191 -0.349,0.191 -0.229,0 -0.417,-0.188 -0.417,-0.418 0,-0.215 0.162,-0.39 0.373,-0.412 -0.018,-0.042 -0.023,-0.087 -0.023,-0.135 0,-0.229 0.184,-0.417 0.416,-0.417 0.229,0 0.418,0.188 0.418,0.417 0,0.048 -0.01,0.093 -0.023,0.135 0.211,0.022 0.373,0.197 0.373,0.412 0,0.23 -0.183,0.418 -0.416,0.418 z m 0,-18.322 c -0.148,0 -0.275,-0.078 -0.352,-0.19 -0.074,0.112 -0.205,0.19 -0.349,0.19 -0.229,0 -0.417,-0.185 -0.417,-0.418 0,-0.216 0.162,-0.391 0.373,-0.412 -0.018,-0.041 -0.023,-0.087 -0.023,-0.134 0,-0.231 0.184,-0.417 0.416,-0.417 0.229,0 0.418,0.186 0.418,0.417 0,0.047 -0.01,0.094 -0.023,0.134 0.211,0.021 0.373,0.196 0.373,0.412 0,0.233 -0.183,0.418 -0.416,0.418 z m 3.889,27.48 c -0.146,0 -0.275,-0.075 -0.35,-0.189 -0.074,0.114 -0.201,0.189 -0.35,0.189 -0.229,0 -0.416,-0.186 -0.416,-0.417 0,-0.215 0.165,-0.39 0.371,-0.412 -0.013,-0.044 -0.022,-0.089 -0.022,-0.134 0,-0.23 0.186,-0.418 0.417,-0.418 0.232,0 0.418,0.188 0.418,0.418 0,0.045 -0.012,0.09 -0.023,0.134 0.207,0.021 0.373,0.196 0.373,0.412 0,0.232 -0.191,0.417 -0.418,0.417 z m 0,-18.319 c -0.146,0 -0.275,-0.075 -0.35,-0.191 -0.074,0.116 -0.201,0.191 -0.35,0.191 -0.229,0 -0.416,-0.188 -0.416,-0.417 0,-0.216 0.165,-0.39 0.371,-0.415 -0.013,-0.041 -0.022,-0.084 -0.022,-0.131 0,-0.229 0.186,-0.417 0.417,-0.417 0.232,0 0.418,0.188 0.418,0.417 0,0.047 -0.012,0.091 -0.023,0.131 0.207,0.025 0.373,0.199 0.373,0.415 0,0.23 -0.191,0.417 -0.418,0.417 z m 3.89,9.161 c -0.146,0 -0.273,-0.077 -0.348,-0.191 -0.076,0.114 -0.204,0.191 -0.353,0.191 -0.23,0 -0.412,-0.188 -0.412,-0.418 0,-0.215 0.16,-0.39 0.369,-0.412 -0.014,-0.042 -0.023,-0.087 -0.023,-0.135 0,-0.229 0.186,-0.417 0.419,-0.417 0.229,0 0.415,0.188 0.415,0.417 0,0.048 -0.009,0.093 -0.023,0.135 0.209,0.022 0.377,0.197 0.377,0.412 0,0.23 -0.191,0.418 -0.421,0.418 z m 3.89,9.158 c -0.147,0 -0.274,-0.075 -0.352,-0.189 -0.074,0.114 -0.2,0.189 -0.347,0.189 -0.229,0 -0.416,-0.186 -0.416,-0.417 0,-0.215 0.162,-0.39 0.367,-0.412 -0.011,-0.044 -0.021,-0.089 -0.021,-0.134 0,-0.23 0.19,-0.418 0.416,-0.418 0.232,0 0.416,0.188 0.416,0.418 0,0.045 -0.008,0.09 -0.018,0.134 0.207,0.021 0.37,0.196 0.37,0.412 0.002,0.232 -0.183,0.417 -0.415,0.417 z" />
	<rect
   style="fill:#414042"
   id="rect117"
   height="16.212999"
   width="1.605"
   y="149.63699"
   x="648.354" />
	<rect
   style="fill:#414042"
   id="rect119"
   height="16.212999"
   width="1.6"
   y="149.63699"
   x="651.66699" />
	<rect
   style="fill:#414042"
   id="rect121"
   height="16.212999"
   width="1.604"
   y="149.63699"
   x="654.97803" />
	<rect
   style="fill:#414042"
   id="rect123"
   height="16.212999"
   width="1.604"
   y="149.63699"
   x="658.28699" />
	<rect
   style="fill:#414042"
   id="rect125"
   height="16.212999"
   width="1.605"
   y="149.63699"
   x="661.59497" />
	<rect
   style="fill:#414042"
   id="rect127"
   height="16.212999"
   width="1.604"
   y="149.63699"
   x="664.90503" />
	<rect
   style="fill:#414042"
   id="rect129"
   height="16.212999"
   width="1.608"
   y="149.63699"
   x="668.21198" />
	<rect
   style="fill:#414042"
   id="rect131"
   height="16.212999"
   width="1.6059999"
   y="149.63699"
   x="671.52802" />
	<rect
   style="fill:#414042"
   id="rect133"
   height="16.212999"
   width="1.605"
   y="149.63699"
   x="674.83698" />
	<rect
   style="fill:#414042"
   id="rect135"
   height="16.212999"
   width="1.61"
   y="149.63699"
   x="678.14502" />
	<rect
   style="fill:#414042"
   id="rect137"
   height="16.212999"
   width="1.608"
   y="149.63699"
   x="681.45599" />
	<g
   id="g139">
		<rect
   style="fill:#414042"
   id="rect141"
   height="5.6059999"
   width="6.0029998"
   y="298.64999"
   x="615.54401" />
		<rect
   style="fill:#414042"
   id="rect143"
   height="5.6059999"
   width="6.0029998"
   y="298.64999"
   x="623.31" />
		<rect
   style="fill:#414042"
   id="rect145"
   height="5.6059999"
   width="6.0019999"
   y="298.64999"
   x="631.07501" />
		<rect
   style="fill:#414042"
   id="rect147"
   height="5.6059999"
   width="6.0029998"
   y="298.64999"
   x="638.836" />
		<rect
   style="fill:#414042"
   id="rect149"
   height="5.6059999"
   width="6.0019999"
   y="298.64999"
   x="646.60199" />
		<rect
   style="fill:#414042"
   id="rect151"
   height="5.6059999"
   width="6.0040002"
   y="298.64999"
   x="654.36603" />
		<rect
   style="fill:#414042"
   id="rect153"
   height="5.6059999"
   width="6.0040002"
   y="298.64999"
   x="662.12598" />
		<rect
   style="fill:#414042"
   id="rect155"
   height="5.6059999"
   width="6.0009999"
   y="298.64999"
   x="669.89398" />
		<rect
   style="fill:#414042"
   id="rect157"
   height="5.6059999"
   width="6.0009999"
   y="298.64999"
   x="677.65997" />
		<rect
   style="fill:#414042"
   id="rect159"
   height="5.6059999"
   width="6.0019999"
   y="298.64999"
   x="685.41901" />
		<rect
   style="fill:#414042"
   id="rect161"
   height="5.6059999"
   width="6.0040002"
   y="298.64999"
   x="693.18402" />
		<rect
   style="fill:#414042"
   id="rect163"
   height="5.6059999"
   width="6.006"
   y="298.64999"
   x="700.94897" />
		<rect
   style="fill:#414042"
   id="rect165"
   height="5.6059999"
   width="6.0050001"
   y="298.64999"
   x="708.71503" />
	</g>
	<path
   style="fill:#414042"
   id="path167"
   d="m 614.753,294.365 0,3.545 100.758,0 0,-3.545 -100.758,0 z m 1.612,2.842 c -0.589,0 -1.067,-0.476 -1.067,-1.065 0,-0.591 0.479,-1.071 1.067,-1.071 0.592,0 1.068,0.479 1.068,1.071 10e-4,0.588 -0.476,1.065 -1.068,1.065 z m 4.062,0 c -0.589,0 -1.067,-0.476 -1.067,-1.065 0,-0.591 0.479,-1.071 1.067,-1.071 0.595,0 1.071,0.479 1.071,1.071 0,0.588 -0.477,1.065 -1.071,1.065 z m 4.065,0 c -0.589,0 -1.065,-0.476 -1.065,-1.065 0,-0.591 0.477,-1.071 1.065,-1.071 0.592,0 1.07,0.479 1.07,1.071 0,0.588 -0.478,1.065 -1.07,1.065 z m 4.065,0 c -0.591,0 -1.069,-0.476 -1.069,-1.065 0,-0.591 0.479,-1.071 1.069,-1.071 0.589,0 1.07,0.479 1.07,1.071 0,0.588 -0.481,1.065 -1.07,1.065 z m 4.06,0 c -0.587,0 -1.065,-0.476 -1.065,-1.065 0,-0.591 0.479,-1.071 1.065,-1.071 0.591,0 1.072,0.479 1.072,1.071 0,0.588 -0.481,1.065 -1.072,1.065 z m 4.066,0 c -0.589,0 -1.066,-0.476 -1.066,-1.065 0,-0.591 0.478,-1.071 1.066,-1.071 0.592,0 1.068,0.479 1.068,1.071 0,0.588 -0.477,1.065 -1.068,1.065 z m 4.064,0 c -0.59,0 -1.068,-0.476 -1.068,-1.065 0,-0.591 0.479,-1.071 1.068,-1.071 0.592,0 1.07,0.479 1.07,1.071 0,0.588 -0.478,1.065 -1.07,1.065 z m 4.064,0 c -0.591,0 -1.065,-0.476 -1.065,-1.065 0,-0.591 0.475,-1.071 1.065,-1.071 0.59,0 1.071,0.479 1.071,1.071 0,0.588 -0.482,1.065 -1.071,1.065 z m 4.064,0 c -0.591,0 -1.065,-0.476 -1.065,-1.065 0,-0.591 0.475,-1.071 1.065,-1.071 0.59,0 1.067,0.479 1.067,1.071 0,0.588 -0.477,1.065 -1.067,1.065 z m 4.06,0 c -0.586,0 -1.062,-0.476 -1.062,-1.065 0,-0.591 0.477,-1.071 1.062,-1.071 0.595,0 1.072,0.479 1.072,1.071 0,0.588 -0.478,1.065 -1.072,1.065 z m 4.066,0 c -0.59,0 -1.068,-0.476 -1.068,-1.065 0,-0.591 0.479,-1.071 1.068,-1.071 0.589,0 1.066,0.479 1.066,1.071 0,0.588 -0.476,1.065 -1.066,1.065 z m 4.064,0 c -0.588,0 -1.069,-0.476 -1.069,-1.065 0,-0.591 0.481,-1.071 1.069,-1.071 0.593,0 1.068,0.479 1.068,1.071 10e-4,0.588 -0.475,1.065 -1.068,1.065 z m 4.064,0 c -0.591,0 -1.067,-0.476 -1.067,-1.065 0,-0.591 0.477,-1.071 1.067,-1.071 0.59,0 1.071,0.479 1.071,1.071 0,0.588 -0.48,1.065 -1.071,1.065 z m 4.065,0 c -0.593,0 -1.066,-0.476 -1.066,-1.065 0,-0.591 0.474,-1.071 1.066,-1.071 0.59,0 1.068,0.479 1.068,1.071 0.001,0.588 -0.478,1.065 -1.068,1.065 z m 4.059,0 c -0.587,0 -1.064,-0.476 -1.064,-1.065 0,-0.591 0.478,-1.071 1.064,-1.071 0.596,0 1.074,0.479 1.074,1.071 0,0.588 -0.478,1.065 -1.074,1.065 z m 4.066,0 c -0.591,0 -1.067,-0.476 -1.067,-1.065 0,-0.591 0.477,-1.071 1.067,-1.071 0.59,0 1.071,0.479 1.071,1.071 10e-4,0.588 -0.48,1.065 -1.071,1.065 z m 4.065,0 c -0.59,0 -1.067,-0.476 -1.067,-1.065 0,-0.591 0.478,-1.071 1.067,-1.071 0.592,0 1.069,0.479 1.069,1.071 0,0.588 -0.477,1.065 -1.069,1.065 z m 4.066,0 c -0.593,0 -1.069,-0.476 -1.069,-1.065 0,-0.591 0.477,-1.071 1.069,-1.071 0.59,0 1.066,0.479 1.066,1.071 0.001,0.588 -0.476,1.065 -1.066,1.065 z m 4.061,0 c -0.591,0 -1.065,-0.476 -1.065,-1.065 0,-0.591 0.475,-1.071 1.065,-1.071 0.59,0 1.071,0.479 1.071,1.071 0,0.588 -0.481,1.065 -1.071,1.065 z m 4.066,0 c -0.592,0 -1.069,-0.476 -1.069,-1.065 0,-0.591 0.478,-1.071 1.069,-1.071 0.59,0 1.069,0.479 1.069,1.071 0,0.588 -0.479,1.065 -1.069,1.065 z m 4.064,0 c -0.59,0 -1.068,-0.476 -1.068,-1.065 0,-0.591 0.479,-1.071 1.068,-1.071 0.592,0 1.067,0.479 1.067,1.071 0,0.588 -0.476,1.065 -1.067,1.065 z m 4.064,0 c -0.591,0 -1.071,-0.476 -1.071,-1.065 0,-0.591 0.48,-1.071 1.071,-1.071 0.591,0 1.068,0.479 1.068,1.071 0,0.588 -0.477,1.065 -1.068,1.065 z m 4.061,0 c -0.59,0 -1.067,-0.476 -1.067,-1.065 0,-0.591 0.478,-1.071 1.067,-1.071 0.594,0 1.073,0.479 1.073,1.071 0,0.588 -0.48,1.065 -1.073,1.065 z m 4.068,0 c -0.594,0 -1.071,-0.476 -1.071,-1.065 0,-0.591 0.478,-1.071 1.071,-1.071 0.589,0 1.067,0.479 1.067,1.071 0,0.588 -0.478,1.065 -1.067,1.065 z m 4.063,0 c -0.591,0 -1.07,-0.476 -1.07,-1.065 0,-0.591 0.479,-1.071 1.07,-1.071 0.591,0 1.068,0.479 1.068,1.071 10e-4,0.588 -0.477,1.065 -1.068,1.065 z" />
	<path
   style="fill:#414042"
   id="path169"
   d="m 634.355,232.054 0,62.516 62.521,0 0,-62.516 -62.521,0 z m 59.222,59.222 -55.927,0 0,-55.926 55.927,0 0,55.926 z" />
	<path
   style="fill:#414042"
   id="path171"
   d="m 639.282,236.982 0,52.663 52.665,0 0,-52.663 -52.665,0 z m 51.038,51.038 -49.415,0 0,-49.416 49.415,0 0,49.416 z" />
	<path
   style="fill:#414042"
   id="path173"
   d="m 665.616,239.195 c -13.301,0 -24.119,10.82 -24.119,24.118 0,13.299 10.818,24.116 24.119,24.116 13.296,0 24.114,-10.817 24.114,-24.116 0,-13.298 -10.818,-24.118 -24.114,-24.118 z m 0,45.284 c -11.671,0 -21.169,-9.495 -21.169,-21.166 0,-11.67 9.498,-21.165 21.169,-21.165 11.668,0 21.165,9.495 21.165,21.165 0,11.671 -9.497,21.166 -21.165,21.166 z" />
	<g
   id="g175">
		<path
   style="fill:#414042"
   id="path177"
   d="m 665.968,242.747 0,12.803 c 3.938,0.177 7.117,3.291 7.397,7.204 l 10.072,0 0,1.118 -10.072,0 c -0.289,4.03 -3.649,7.222 -7.749,7.222 -4.291,0 -7.785,-3.489 -7.785,-7.781 0,-4.17 3.303,-7.575 7.431,-7.763 l 0,-12.803 c -11.187,0.19 -20.224,9.338 -20.224,20.565 0,11.344 9.228,20.576 20.578,20.576 11.344,0 20.572,-9.231 20.572,-20.576 0,-11.227 -9.039,-20.376 -20.22,-20.565 z" />
		<path
   style="fill:#414042"
   id="path179"
   d="m 665.262,262.493 0,-6.351 c -3.801,0.186 -6.839,3.326 -6.839,7.171 0,3.965 3.227,7.19 7.193,7.19 3.771,0 6.871,-2.927 7.16,-6.631 l -6.482,0 c -0.164,0.198 -0.402,0.334 -0.678,0.334 -0.495,0 -0.895,-0.402 -0.895,-0.894 10e-4,-0.367 0.223,-0.681 0.541,-0.819 z" />
		<path
   style="fill:#414042"
   id="path181"
   d="m 665.968,256.142 0,6.351 c 0.131,0.058 0.236,0.151 0.326,0.261 l 6.482,0 c -0.279,-3.588 -3.198,-6.437 -6.808,-6.612 z" />
	</g>
	<path
   style="fill:#414042"
   id="path183"
   d="m 692.686,185.297 c -6.771,-8.759 -12.028,-16.065 -12.028,-16.065 l -29.853,0 c 0,0 -5.257,7.306 -12.024,16.065 l -8.122,10.647 70.092,0 c -2.659,-3.557 -5.558,-7.404 -8.065,-10.647 z m -47.675,7.743 c -0.268,0 -0.501,-0.139 -0.637,-0.347 -0.137,0.208 -0.371,0.347 -0.637,0.347 -0.42,0 -0.756,-0.339 -0.756,-0.761 0,-0.39 0.295,-0.708 0.675,-0.75 -0.024,-0.077 -0.046,-0.159 -0.046,-0.243 0,-0.421 0.344,-0.761 0.764,-0.761 0.418,0 0.758,0.34 0.758,0.761 0,0.084 -0.018,0.166 -0.044,0.243 0.382,0.04 0.682,0.36 0.682,0.75 0,0.422 -0.345,0.761 -0.759,0.761 z m 7.078,-14.296 c -0.268,0 -0.501,-0.138 -0.637,-0.346 -0.137,0.208 -0.369,0.346 -0.635,0.346 -0.419,0 -0.76,-0.34 -0.76,-0.759 0,-0.392 0.297,-0.71 0.682,-0.751 -0.028,-0.076 -0.045,-0.158 -0.045,-0.243 0,-0.42 0.339,-0.76 0.758,-0.76 0.42,0 0.759,0.339 0.759,0.76 0,0.085 -0.016,0.167 -0.038,0.243 0.377,0.041 0.673,0.359 0.673,0.751 0,0.419 -0.335,0.759 -0.757,0.759 z m 7.078,14.296 c -0.266,0 -0.498,-0.139 -0.632,-0.347 -0.139,0.208 -0.372,0.347 -0.638,0.347 -0.415,0 -0.762,-0.339 -0.762,-0.761 0,-0.39 0.299,-0.708 0.684,-0.75 -0.029,-0.077 -0.047,-0.159 -0.047,-0.243 0,-0.421 0.342,-0.761 0.763,-0.761 0.419,0 0.756,0.34 0.756,0.761 0,0.084 -0.013,0.166 -0.043,0.243 0.384,0.04 0.683,0.36 0.683,0.75 0,0.422 -0.342,0.761 -0.764,0.761 z m 7.084,-14.296 c -0.266,0 -0.5,-0.138 -0.635,-0.346 -0.138,0.208 -0.371,0.346 -0.637,0.346 -0.422,0 -0.759,-0.34 -0.759,-0.759 0,-0.392 0.298,-0.71 0.677,-0.751 -0.027,-0.076 -0.041,-0.158 -0.041,-0.243 0,-0.42 0.338,-0.76 0.76,-0.76 0.419,0 0.756,0.339 0.756,0.76 0,0.085 -0.017,0.167 -0.044,0.243 0.384,0.041 0.683,0.359 0.683,0.751 0,0.419 -0.344,0.759 -0.76,0.759 z m 7.081,14.296 c -0.266,0 -0.502,-0.139 -0.638,-0.347 -0.138,0.208 -0.368,0.347 -0.634,0.347 -0.419,0 -0.762,-0.339 -0.762,-0.761 0,-0.39 0.3,-0.708 0.681,-0.75 -0.025,-0.077 -0.044,-0.159 -0.044,-0.243 0,-0.421 0.338,-0.761 0.759,-0.761 0.42,0 0.758,0.34 0.758,0.761 0,0.084 -0.014,0.166 -0.039,0.243 0.377,0.04 0.674,0.36 0.674,0.75 0,0.422 -0.337,0.761 -0.755,0.761 z m 7.08,-14.296 c -0.269,0 -0.502,-0.138 -0.637,-0.346 -0.136,0.208 -0.371,0.346 -0.636,0.346 -0.419,0 -0.763,-0.34 -0.763,-0.759 0,-0.392 0.299,-0.71 0.684,-0.751 -0.027,-0.076 -0.047,-0.158 -0.047,-0.243 0,-0.42 0.34,-0.76 0.762,-0.76 0.421,0 0.759,0.339 0.759,0.76 0,0.085 -0.018,0.167 -0.044,0.243 0.381,0.041 0.682,0.359 0.682,0.751 0,0.419 -0.344,0.759 -0.76,0.759 z m 7.081,14.296 c -0.268,0 -0.503,-0.139 -0.637,-0.347 -0.139,0.208 -0.371,0.347 -0.636,0.347 -0.42,0 -0.761,-0.339 -0.761,-0.761 0,-0.39 0.299,-0.708 0.679,-0.75 -0.027,-0.077 -0.042,-0.159 -0.042,-0.243 0,-0.421 0.341,-0.761 0.76,-0.761 0.421,0 0.759,0.34 0.759,0.761 0,0.084 -0.021,0.166 -0.043,0.243 0.381,0.04 0.678,0.36 0.678,0.75 0,0.422 -0.341,0.761 -0.757,0.761 z" />
	<g
   id="g185">
		<path
   style="fill:#414042"
   id="path187"
   d="m 706.345,203.33 c -0.584,-0.777 -1.232,-1.646 -1.937,-2.579 l 0,5.105 1.937,0 0,-2.526 z" />
		<rect
   style="fill:#414042"
   id="rect189"
   height="8.5629997"
   width="1.934"
   y="197.293"
   x="640.78998" />
		<rect
   style="fill:#414042"
   id="rect191"
   height="8.5629997"
   width="1.9349999"
   y="197.293"
   x="696.45898" />
		<path
   style="fill:#414042"
   id="path193"
   d="m 702.369,205.856 0,-7.814 c -0.184,-0.246 -0.372,-0.496 -0.565,-0.749 l -1.369,0 0,8.563 1.934,0 z" />
		<rect
   style="fill:#414042"
   id="rect195"
   height="8.5629997"
   width="1.9349999"
   y="197.293"
   x="644.76599" />
		<rect
   style="fill:#414042"
   id="rect197"
   height="8.5629997"
   width="1.936"
   y="197.293"
   x="632.83698" />
		<path
   style="fill:#414042"
   id="path199"
   d="m 626.817,201.005 c -0.705,0.94 -1.355,1.807 -1.934,2.577 l 0,2.274 1.934,0 0,-4.851 z" />
		<rect
   style="fill:#414042"
   id="rect201"
   height="8.5629997"
   width="1.9349999"
   y="197.293"
   x="692.479" />
		<rect
   style="fill:#414042"
   id="rect203"
   height="8.5629997"
   width="1.936"
   y="197.293"
   x="636.81" />
		<path
   style="fill:#414042"
   id="path205"
   d="m 628.857,205.856 1.94,0 0,-8.563 -1.188,0 c -0.251,0.339 -0.503,0.672 -0.753,1.002 l 0,7.561 z" />
		<rect
   style="fill:#414042"
   id="rect207"
   height="8.5629997"
   width="1.941"
   y="197.293"
   x="648.737" />
		<rect
   style="fill:#414042"
   id="rect209"
   height="8.5629997"
   width="1.937"
   y="197.293"
   x="660.66901" />
		<rect
   style="fill:#414042"
   id="rect211"
   height="8.5629997"
   width="1.933"
   y="197.293"
   x="664.646" />
		<rect
   style="fill:#414042"
   id="rect213"
   height="8.5629997"
   width="1.936"
   y="197.293"
   x="652.71802" />
		<rect
   style="fill:#414042"
   id="rect215"
   height="8.5629997"
   width="1.9400001"
   y="197.293"
   x="656.69" />
		<rect
   style="fill:#414042"
   id="rect217"
   height="8.5629997"
   width="1.938"
   y="197.293"
   x="688.505" />
		<rect
   style="fill:#414042"
   id="rect219"
   height="8.5629997"
   width="1.937"
   y="197.293"
   x="668.62201" />
		<rect
   style="fill:#414042"
   id="rect221"
   height="8.5629997"
   width="1.9349999"
   y="197.293"
   x="672.599" />
		<rect
   style="fill:#414042"
   id="rect223"
   height="8.5629997"
   width="1.942"
   y="197.293"
   x="684.52399" />
		<rect
   style="fill:#414042"
   id="rect225"
   height="8.5629997"
   width="1.936"
   y="197.293"
   x="680.55103" />
		<rect
   style="fill:#414042"
   id="rect227"
   height="8.5629997"
   width="1.938"
   y="197.293"
   x="676.573" />
	</g>
	<polygon
   style="fill:#414042"
   id="polygon229"
   points="643.069,311.195 643.823,311.195 643.823,320.25 644.941,320.25 644.941,311.195 645.699,311.195 645.699,320.25 655.977,320.25 655.977,311.195 656.729,311.195 656.729,320.25 657.848,320.25 657.848,311.195 658.601,311.195 658.601,320.25 659.722,320.25 659.722,311.195 660.478,311.195 660.478,320.25 670.75,320.25 670.75,311.195 671.509,311.195 671.509,320.25 672.626,320.25 672.626,311.195 673.383,311.195 673.383,320.25 674.5,320.25 674.5,311.195 675.253,311.195 675.253,320.25 685.528,320.25 685.528,311.195 686.284,311.195 686.284,320.25 687.406,320.25 687.406,311.195 688.161,311.195 688.161,320.25 689.279,320.25 689.279,311.195 690.031,311.195 690.031,320.25 700.313,320.25 700.313,311.195 701.066,311.195 701.066,320.25 702.186,320.25 702.186,311.195 702.939,311.195 702.939,320.25 704.057,320.25 704.057,311.195 704.809,311.195 704.809,320.25 706.947,320.25 706.947,311.195 715.511,311.195 715.511,304.996 614.753,304.996 614.753,311.195 624.282,311.195 624.282,320.25 626.417,320.25 626.417,311.195 627.17,311.195 627.17,320.25 628.292,320.25 628.292,311.195 629.046,311.195 629.046,320.25 630.164,320.25 630.164,311.195 630.917,311.195 630.917,320.25 641.194,320.25 641.194,311.195 641.952,311.195 641.952,320.25 643.069,320.25 " />
	<rect
   style="fill:#414042"
   id="rect231"
   height="50.089001"
   width="10.282"
   y="382.742"
   x="690.03101" />
	<rect
   style="fill:#414042"
   id="rect233"
   height="50.089001"
   width="10.277"
   y="382.742"
   x="645.69897" />
	<rect
   style="fill:#414042"
   id="rect235"
   height="1.1799999"
   width="1.122"
   y="323.59698"
   x="686.284" />
	<rect
   style="fill:#414042"
   id="rect237"
   height="1.179"
   width="1.119"
   y="379.88501"
   x="701.06598" />
	<rect
   style="fill:#414042"
   id="rect239"
   height="1.1799999"
   width="1.119"
   y="323.59698"
   x="701.06598" />
	<rect
   style="fill:#414042"
   id="rect241"
   height="1.1799999"
   width="10.282"
   y="323.59698"
   x="690.03101" />
	<rect
   style="fill:#414042"
   id="rect243"
   height="50.088001"
   width="1.119"
   y="326.45099"
   x="701.06598" />
	<rect
   style="fill:#414042"
   id="rect245"
   height="1.1799999"
   width="1.118"
   y="323.59698"
   x="688.16101" />
	<rect
   style="fill:#414042"
   id="rect247"
   height="50.089001"
   width="1.118"
   y="382.742"
   x="688.16101" />
	<rect
   style="fill:#414042"
   id="rect249"
   height="50.089001"
   width="10.272"
   y="382.742"
   x="660.47803" />
	<rect
   style="fill:#414042"
   id="rect251"
   height="50.089001"
   width="1.122"
   y="382.742"
   x="686.284" />
	<rect
   style="fill:#414042"
   id="rect253"
   height="50.089001"
   width="1.119"
   y="382.742"
   x="656.729" />
	<rect
   style="fill:#414042"
   id="rect255"
   height="50.089001"
   width="1.1210001"
   y="382.742"
   x="658.60101" />
	<rect
   style="fill:#414042"
   id="rect257"
   height="50.089001"
   width="10.275"
   y="382.742"
   x="675.25299" />
	<rect
   style="fill:#414042"
   id="rect259"
   height="50.089001"
   width="1.117"
   y="382.742"
   x="671.50897" />
	<rect
   style="fill:#414042"
   id="rect261"
   height="50.089001"
   width="1.117"
   y="382.742"
   x="673.383" />
	<rect
   style="fill:#414042"
   id="rect263"
   height="50.089001"
   width="1.119"
   y="382.742"
   x="701.06598" />
	<rect
   style="fill:#414042"
   id="rect265"
   height="1.1799999"
   width="1.118"
   y="323.59698"
   x="629.04602" />
	<rect
   style="fill:#414042"
   id="rect267"
   height="1.1799999"
   width="10.277"
   y="323.59698"
   x="630.91699" />
	<rect
   style="fill:#414042"
   id="rect269"
   height="1.1799999"
   width="10.275"
   y="323.59698"
   x="675.25299" />
	<rect
   style="fill:#414042"
   id="rect271"
   height="50.089001"
   width="1.122"
   y="382.742"
   x="627.16998" />
	<rect
   style="fill:#414042"
   id="rect273"
   height="1.1799999"
   width="1.117"
   y="323.59698"
   x="641.95203" />
	<rect
   style="fill:#414042"
   id="rect275"
   height="50.088001"
   width="1.122"
   y="326.45099"
   x="627.16998" />
	<rect
   style="fill:#414042"
   id="rect277"
   height="1.179"
   width="1.122"
   y="379.88501"
   x="627.16998" />
	<rect
   style="fill:#414042"
   id="rect279"
   height="1.1799999"
   width="1.122"
   y="323.59698"
   x="627.16998" />
	<rect
   style="fill:#414042"
   id="rect281"
   height="1.1799999"
   width="10.272"
   y="323.59698"
   x="660.47803" />
	<rect
   style="fill:#414042"
   id="rect283"
   height="1.1799999"
   width="1.117"
   y="323.59698"
   x="671.50897" />
	<rect
   style="fill:#414042"
   id="rect285"
   height="1.1799999"
   width="1.117"
   y="323.59698"
   x="673.383" />
	<rect
   style="fill:#414042"
   id="rect287"
   height="1.1799999"
   width="1.118"
   y="323.59698"
   x="643.823" />
	<rect
   style="fill:#414042"
   id="rect289"
   height="1.1799999"
   width="10.277"
   y="323.59698"
   x="645.69897" />
	<rect
   style="fill:#414042"
   id="rect291"
   height="1.1799999"
   width="1.1210001"
   y="323.59698"
   x="658.60101" />
	<rect
   style="fill:#414042"
   id="rect293"
   height="1.1799999"
   width="1.119"
   y="323.59698"
   x="656.729" />
	<rect
   style="fill:#414042"
   id="rect295"
   height="1.179"
   width="1.118"
   y="379.88501"
   x="643.823" />
	<rect
   style="fill:#414042"
   id="rect297"
   height="50.089001"
   width="1.118"
   y="382.742"
   x="643.823" />
	<rect
   style="fill:#414042"
   id="rect299"
   height="1.179"
   width="10.272"
   y="379.88501"
   x="660.47803" />
	<rect
   style="fill:#414042"
   id="rect301"
   height="1.179"
   width="1.117"
   y="379.88501"
   x="673.383" />
	<rect
   style="fill:#414042"
   id="rect303"
   height="1.179"
   width="1.117"
   y="379.88501"
   x="671.50897" />
	<rect
   style="fill:#414042"
   id="rect305"
   height="1.179"
   width="1.122"
   y="379.88501"
   x="686.284" />
	<rect
   style="fill:#414042"
   id="rect307"
   height="50.088001"
   width="10.282"
   y="326.45099"
   x="690.03101" />
	<rect
   style="fill:#414042"
   id="rect309"
   height="1.179"
   width="10.282"
   y="379.88501"
   x="690.03101" />
	<rect
   style="fill:#414042"
   id="rect311"
   height="1.179"
   width="1.118"
   y="379.88501"
   x="688.16101" />
	<rect
   style="fill:#414042"
   id="rect313"
   height="1.179"
   width="1.117"
   y="379.88501"
   x="641.95203" />
	<rect
   style="fill:#414042"
   id="rect315"
   height="50.088001"
   width="1.118"
   y="326.45099"
   x="688.16101" />
	<rect
   style="fill:#414042"
   id="rect317"
   height="1.179"
   width="10.277"
   y="379.88501"
   x="630.91699" />
	<rect
   style="fill:#414042"
   id="rect319"
   height="1.179"
   width="1.119"
   y="379.88501"
   x="656.729" />
	<rect
   style="fill:#414042"
   id="rect321"
   height="1.186"
   width="1.122"
   y="436.173"
   x="627.16998" />
	<rect
   style="fill:#414042"
   id="rect323"
   height="1.179"
   width="1.1210001"
   y="379.88501"
   x="658.60101" />
	<rect
   style="fill:#414042"
   id="rect325"
   height="1.179"
   width="10.277"
   y="379.88501"
   x="645.69897" />
	<rect
   style="fill:#414042"
   id="rect327"
   height="1.179"
   width="10.275"
   y="379.88501"
   x="675.25299" />
	<rect
   style="fill:#414042"
   id="rect329"
   height="1.179"
   width="1.118"
   y="379.88501"
   x="629.04602" />
	<rect
   style="fill:#414042"
   id="rect331"
   height="50.088001"
   width="10.277"
   y="326.45099"
   x="630.91699" />
	<rect
   style="fill:#414042"
   id="rect333"
   height="50.088001"
   width="1.118"
   y="326.45099"
   x="629.04602" />
	<rect
   style="fill:#414042"
   id="rect335"
   height="50.088001"
   width="1.117"
   y="326.45099"
   x="641.95203" />
	<rect
   style="fill:#414042"
   id="rect337"
   height="50.088001"
   width="1.118"
   y="326.45099"
   x="643.823" />
	<rect
   style="fill:#414042"
   id="rect339"
   height="50.089001"
   width="1.117"
   y="382.742"
   x="641.95203" />
	<rect
   style="fill:#414042"
   id="rect341"
   height="50.089001"
   width="1.118"
   y="382.742"
   x="629.04602" />
	<rect
   style="fill:#414042"
   id="rect343"
   height="50.089001"
   width="10.277"
   y="382.742"
   x="630.91699" />
	<rect
   style="fill:#414042"
   id="rect345"
   height="50.088001"
   width="10.272"
   y="326.45099"
   x="660.47803" />
	<rect
   style="fill:#414042"
   id="rect347"
   height="50.088001"
   width="1.117"
   y="326.45099"
   x="673.383" />
	<rect
   style="fill:#414042"
   id="rect349"
   height="50.088001"
   width="1.117"
   y="326.45099"
   x="671.50897" />
	<rect
   style="fill:#414042"
   id="rect351"
   height="50.088001"
   width="10.275"
   y="326.45099"
   x="675.25299" />
	<rect
   style="fill:#414042"
   id="rect353"
   height="50.088001"
   width="1.122"
   y="326.45099"
   x="686.284" />
	<rect
   style="fill:#414042"
   id="rect355"
   height="50.088001"
   width="1.119"
   y="326.45099"
   x="656.729" />
	<rect
   style="fill:#414042"
   id="rect357"
   height="50.088001"
   width="1.1210001"
   y="326.45099"
   x="658.60101" />
	<rect
   style="fill:#414042"
   id="rect359"
   height="50.088001"
   width="10.277"
   y="326.45099"
   x="645.69897" />
	<rect
   style="fill:#414042"
   id="rect361"
   height="1.186"
   width="1.117"
   y="436.173"
   x="671.50897" />
	<rect
   style="fill:#414042"
   id="rect363"
   height="1.1799999"
   width="2.135"
   y="323.59698"
   x="624.28198" />
	<rect
   style="fill:#414042"
   id="rect365"
   height="1.186"
   width="2.135"
   y="436.173"
   x="624.28198" />
	<rect
   style="fill:#414042"
   id="rect367"
   height="50.089001"
   width="2.135"
   y="382.742"
   x="624.28198" />
	<rect
   style="fill:#414042"
   id="rect369"
   height="50.088001"
   width="2.135"
   y="326.45099"
   x="624.28198" />
	<rect
   style="fill:#414042"
   id="rect371"
   height="1.179"
   width="2.135"
   y="379.88501"
   x="624.28198" />
	<rect
   style="fill:#414042"
   id="rect373"
   height="1.186"
   width="2.1389999"
   y="436.173"
   x="704.80902" />
	<rect
   style="fill:#414042"
   id="rect375"
   height="1.179"
   width="2.1389999"
   y="379.88501"
   x="704.80902" />
	<rect
   style="fill:#414042"
   id="rect377"
   height="50.089001"
   width="2.1389999"
   y="382.742"
   x="704.80902" />
	<rect
   style="fill:#414042"
   id="rect379"
   height="1.1799999"
   width="2.1389999"
   y="323.59698"
   x="704.80902" />
	<rect
   style="fill:#414042"
   id="rect381"
   height="50.088001"
   width="2.1389999"
   y="326.45099"
   x="704.80902" />
	<rect
   style="fill:#414042"
   id="rect383"
   height="1.186"
   width="10.272"
   y="436.173"
   x="660.47803" />
	<rect
   style="fill:#414042"
   id="rect385"
   height="1.186"
   width="1.117"
   y="436.173"
   x="673.383" />
	<rect
   style="fill:#414042"
   id="rect387"
   height="1.186"
   width="1.122"
   y="436.173"
   x="686.284" />
	<rect
   style="fill:#414042"
   id="rect389"
   height="1.186"
   width="1.118"
   y="436.173"
   x="688.16101" />
	<rect
   style="fill:#414042"
   id="rect391"
   height="1.186"
   width="10.275"
   y="436.173"
   x="675.25299" />
	<rect
   style="fill:#414042"
   id="rect393"
   height="1.186"
   width="10.282"
   y="436.173"
   x="690.03101" />
	<rect
   style="fill:#414042"
   id="rect395"
   height="1.186"
   width="1.119"
   y="436.173"
   x="701.06598" />
	<rect
   style="fill:#414042"
   id="rect397"
   height="50.089001"
   width="1.117"
   y="382.742"
   x="702.93903" />
	<rect
   style="fill:#414042"
   id="rect399"
   height="1.179"
   width="1.117"
   y="379.88501"
   x="702.93903" />
	<rect
   style="fill:#414042"
   id="rect401"
   height="1.186"
   width="1.117"
   y="436.173"
   x="702.93903" />
	<rect
   style="fill:#414042"
   id="rect403"
   height="1.186"
   width="1.118"
   y="436.173"
   x="629.04602" />
	<rect
   style="fill:#414042"
   id="rect405"
   height="1.186"
   width="1.118"
   y="436.173"
   x="643.823" />
	<rect
   style="fill:#414042"
   id="rect407"
   height="1.186"
   width="10.277"
   y="436.173"
   x="630.91699" />
	<rect
   style="fill:#414042"
   id="rect409"
   height="1.186"
   width="1.117"
   y="436.173"
   x="641.95203" />
	<rect
   style="fill:#414042"
   id="rect411"
   height="1.186"
   width="10.277"
   y="436.173"
   x="645.69897" />
	<rect
   style="fill:#414042"
   id="rect413"
   height="1.186"
   width="1.1210001"
   y="436.173"
   x="658.60101" />
	<rect
   style="fill:#414042"
   id="rect415"
   height="1.186"
   width="1.119"
   y="436.173"
   x="656.729" />
	<rect
   style="fill:#414042"
   id="rect417"
   height="50.088001"
   width="1.117"
   y="326.45099"
   x="702.93903" />
	<rect
   style="fill:#414042"
   id="rect419"
   height="1.1799999"
   width="1.117"
   y="323.59698"
   x="702.93903" />
	<path
   style="fill:#414042"
   id="path421"
   d="m 714.853,223.639 0,-0.723 c 0.182,-0.12 0.312,-0.313 0.312,-0.55 0,-0.365 -0.296,-0.663 -0.666,-0.663 -0.368,0 -0.663,0.298 -0.663,0.663 0,0.236 0.13,0.431 0.311,0.55 l 0,0.723 -1.077,0 0,0.706 1.077,0 0,7.71 -2.274,0 -0.709,0 -2.102,0 0,-24.848 -0.012,0 0,-5.876 1.082,0 0,-0.707 -1.082,0 0,-0.722 c 0.185,-0.119 0.312,-0.317 0.312,-0.549 0,-0.367 -0.296,-0.664 -0.667,-0.664 -0.367,0 -0.663,0.297 -0.663,0.664 0,0.232 0.13,0.43 0.312,0.549 l 0,0.722 -1.081,0 0,0.707 1.081,0 0,5.876 -85.445,0 0,-5.876 1.085,0 0,-0.707 -1.085,0 0,-0.722 c 0.182,-0.119 0.309,-0.317 0.309,-0.549 0,-0.367 -0.294,-0.664 -0.661,-0.664 -0.368,0 -0.667,0.297 -0.667,0.664 0,0.232 0.133,0.43 0.314,0.549 l 0,0.722 -1.082,0 0,0.707 1.082,0 0,5.876 -0.022,0 0,24.848 -2.104,0 -0.707,0 -2.377,0 0,-7.71 1.083,0 0,-0.706 -1.083,0 0,-0.723 c 0.186,-0.12 0.316,-0.313 0.316,-0.55 0,-0.365 -0.299,-0.663 -0.667,-0.663 -0.369,0 -0.665,0.298 -0.665,0.663 0,0.236 0.131,0.431 0.312,0.55 l 0,0.723 -1.08,0 0,0.706 1.08,0 0,70.021 0.703,0 0,-61.457 2.377,0 0,61.457 0.707,0 0,-61.457 2.373,0 0,61.457 0.709,0 0,-61.457 2.371,0 0,61.457 0.709,0 0,-61.457 2.372,0 0,61.457 0.705,0 0,-61.457 2.377,0 0,61.457 0.705,0 0,-61.457 66.454,0 0,61.457 0.708,0 0,-61.457 2.371,0 0,61.457 0.709,0 0,-61.457 2.373,0 0,61.457 0.703,0 0,-61.457 2.376,0 0,61.457 0.708,0 0,-61.457 2.372,0 0,61.457 0.709,0 0,-61.457 2.274,0 0,61.457 0.707,0 0,-70.021 1.082,0 0,-0.706 -1.081,0 z m -74.207,7.143 -5.602,0 0,-13.187 5.602,0 0,13.187 z m 0,-15.352 -5.602,0 0,-4.329 5.602,0 0,4.329 z m 7.936,15.352 -5.604,0 0,-13.187 5.604,0 0,13.187 z m 0,-15.352 -5.604,0 0,-4.329 5.604,0 0,4.329 z m 7.935,15.352 -5.605,0 0,-13.187 5.605,0 0,13.187 z m 0,-15.352 -5.605,0 0,-4.329 5.605,0 0,4.329 z m 7.933,15.352 -5.604,0 0,-13.187 5.604,0 0,13.187 z m 0,-15.352 -5.604,0 0,-4.329 5.604,0 0,4.329 z m 7.934,15.352 -5.604,0 0,-13.187 5.604,0 0,13.187 z m 0,-15.352 -5.604,0 0,-4.329 5.604,0 0,4.329 z m 7.932,15.352 -5.602,0 0,-13.187 5.602,0 0,13.187 z m 0,-15.352 -5.602,0 0,-4.329 5.602,0 0,4.329 z m 7.934,15.352 -5.601,0 0,-13.187 5.601,0 0,13.187 z m 0,-15.352 -5.601,0 0,-4.329 5.601,0 0,4.329 z m 7.935,15.352 -5.603,0 0,-13.187 5.603,0 0,13.187 z m 0,-15.352 -5.603,0 0,-4.329 5.603,0 0,4.329 z" />
	<rect
   style="fill:#414042"
   id="rect423"
   height="26.889999"
   width="1.119"
   y="439.02899"
   x="701.06598" />
	<rect
   style="fill:#414042"
   id="rect425"
   height="26.889999"
   width="10.282"
   y="439.02899"
   x="690.03101" />
	<rect
   style="fill:#414042"
   id="rect427"
   height="26.889999"
   width="10.277"
   y="439.02899"
   x="645.69897" />
	<rect
   style="fill:#414042"
   id="rect429"
   height="26.889999"
   width="1.122"
   y="439.02899"
   x="686.284" />
	<rect
   style="fill:#414042"
   id="rect431"
   height="26.889999"
   width="1.1210001"
   y="439.02899"
   x="658.60101" />
	<rect
   style="fill:#414042"
   id="rect433"
   height="26.889999"
   width="1.119"
   y="439.02899"
   x="656.729" />
	<rect
   style="fill:#414042"
   id="rect435"
   height="26.889999"
   width="10.272"
   y="439.02899"
   x="660.47803" />
	<rect
   style="fill:#414042"
   id="rect437"
   height="26.889999"
   width="10.275"
   y="439.02899"
   x="675.25299" />
	<rect
   style="fill:#414042"
   id="rect439"
   height="26.889999"
   width="1.117"
   y="439.02899"
   x="673.383" />
	<rect
   style="fill:#414042"
   id="rect441"
   height="26.889999"
   width="1.117"
   y="439.02899"
   x="671.50897" />
	<rect
   style="fill:#414042"
   id="rect443"
   height="26.889999"
   width="1.118"
   y="439.02899"
   x="688.16101" />
	<rect
   style="fill:#414042"
   id="rect445"
   height="26.889999"
   width="1.117"
   y="439.02899"
   x="702.93903" />
	<rect
   style="fill:#414042"
   id="rect447"
   height="26.889999"
   width="2.1389999"
   y="439.02899"
   x="704.80902" />
	<rect
   style="fill:#414042"
   id="rect449"
   height="26.889999"
   width="1.122"
   y="439.02899"
   x="627.16998" />
	<rect
   style="fill:#414042"
   id="rect451"
   height="26.889999"
   width="2.135"
   y="439.02899"
   x="624.28198" />
	<rect
   style="fill:#414042"
   id="rect453"
   height="26.889999"
   width="1.118"
   y="439.02899"
   x="629.04602" />
	<rect
   style="fill:#414042"
   id="rect455"
   height="26.889999"
   width="1.117"
   y="439.02899"
   x="641.95203" />
	<rect
   style="fill:#414042"
   id="rect457"
   height="26.889999"
   width="10.277"
   y="439.02899"
   x="630.91699" />
	<rect
   style="fill:#414042"
   id="rect459"
   height="26.889999"
   width="1.118"
   y="439.02899"
   x="643.823" />
</g>
<g
   transform="translate(-563.503,-583.685)"
   id="g461">
	<rect
   style="fill:#1c75bc"
   id="rect463"
   height="25.527"
   width="47.403"
   y="790.47302"
   x="121.344" />
	<rect
   style="fill:#1c75bc"
   id="rect465"
   height="25.527"
   width="47.405998"
   y="790.47302"
   x="270.888" />
	<rect
   style="fill:#1c75bc"
   id="rect467"
   height="25.527"
   width="47.405998"
   y="790.47302"
   x="488.095" />
	<path
   style="fill:#1c75bc"
   id="path469"
   d="m 127.019,734.562 0,25.525 36.054,0 0,-25.525 -36.054,0 z m 22.285,21.269 -8.519,0 0,-17.017 8.519,0 0,17.017 z" />
	<path
   style="fill:#1c75bc"
   id="path471"
   d="m 127.019,706.604 0,25.525 36.054,0 0,-25.525 -36.054,0 z m 22.285,21.271 -8.519,0 0,-17.015 8.519,0 0,17.015 z" />
	<path
   style="fill:#1c75bc"
   id="path473"
   d="m 276.562,734.562 0,25.525 36.059,0 0,-25.525 -36.059,0 z m 22.289,21.269 -8.52,0 0,-17.017 8.52,0 0,17.017 z" />
	<path
   style="fill:#1c75bc"
   id="path475"
   d="m 310.491,666.646 c -1.172,0 -2.127,0.957 -2.127,2.128 l 0,9.874 -5.19,0 0,-12.002 -6.456,0 0,-7.293 c 0,-1.17 -0.953,-2.124 -2.129,-2.124 -1.171,0 -2.125,0.954 -2.125,2.124 l 0,7.293 -6.459,0 0,12.002 -5.188,0 0,-9.874 c 0,-1.171 -0.955,-2.128 -2.127,-2.128 -1.176,0 -2.129,0.957 -2.129,2.128 l 0,9.874 0,4.711 0,12.31 -113.489,0 0,-12.31 0,-4.711 0,-9.874 c 0,-1.171 -0.953,-2.128 -2.125,-2.128 -1.176,0 -2.13,0.957 -2.13,2.128 l 0,9.874 -5.188,0 0,-12.002 -6.457,0 0,-7.293 c 0,-1.17 -0.954,-2.124 -2.128,-2.124 -1.171,0 -2.127,0.954 -2.127,2.124 l 0,7.293 -6.455,0 0,12.002 -5.192,0 0,-9.874 c 0,-1.171 -0.954,-2.128 -2.126,-2.128 -1.172,0 -2.125,0.957 -2.125,2.128 l 0,9.874 0,4.711 0,20.815 36.054,0 113.489,0 0.363,0 35.695,0 0,-20.815 0,-4.711 0,-9.874 c 0,-1.171 -0.957,-2.128 -2.129,-2.128 z m -161.187,33.273 -8.519,0 0,-17.017 8.519,0 0,17.017 z m 149.547,0 -8.52,0 0,-17.017 8.52,0 0,17.017 z" />
	<path
   style="fill:#1c75bc"
   id="path477"
   d="m 529.826,760.087 0,-25.525 -36.058,0 0,7.253 c -2.137,1.923 -5.39,4.614 -9.773,7.593 -1.435,0.973 -2.985,1.976 -4.656,2.988 -2.779,1.687 -5.885,3.401 -9.323,5.076 -1.484,0.725 -3.046,1.438 -4.658,2.139 -2.906,1.263 -6.01,2.479 -9.318,3.604 -1.509,0.514 -3.066,1.009 -4.657,1.482 -2.963,0.882 -6.07,1.687 -9.32,2.396 -1.522,0.335 -3.073,0.641 -4.658,0.93 -2.994,0.542 -6.1,0.992 -9.32,1.349 -1.525,0.17 -3.08,0.313 -4.658,0.436 -3.016,0.232 -6.119,0.375 -9.32,0.416 -1.533,0.02 -3.082,0.023 -4.658,-0.004 -1.639,-0.03 -3.289,-0.073 -4.977,-0.16 -1.469,-0.069 -2.905,-0.197 -4.344,-0.33 -1.571,-0.144 -3.122,-0.332 -4.657,-0.546 -3.186,-0.443 -6.294,-1.021 -9.319,-1.732 -1.574,-0.37 -3.129,-0.77 -4.66,-1.203 -3.199,-0.914 -6.312,-1.953 -9.318,-3.118 -1.579,-0.611 -3.133,-1.252 -4.658,-1.925 -3.23,-1.422 -6.334,-2.973 -9.32,-4.616 -1.588,-0.877 -3.14,-1.779 -4.656,-2.704 -3.271,-1.99 -6.383,-4.079 -9.322,-6.23 -1.601,-1.173 -3.158,-2.359 -4.658,-3.558 -3.36,-2.683 -6.472,-5.41 -9.319,-8.1 -1.644,-1.551 -3.188,-3.082 -4.656,-4.59 -5.646,-5.791 -9.991,-11.131 -12.96,-15.086 l 0,-9.716 -36.059,0 0,25.525 36.059,0 0,-9.877 c 3.314,4.128 7.639,9.09 12.96,14.302 l 0,41.803 -12.96,0 0,-15.84 -35.695,0 -0.363,0 -113.495,0 -36.054,0 0,25.526 36.054,0 0,-17.017 113.489,0 0,17.017 36.059,0 0,-6.238 181.148,0 0,6.238 36.058,0 0,-25.526 -36.058,0 0,15.84 -9.773,0 0,-24.632 c 4.051,-2.618 7.303,-5.089 9.773,-7.13 l 0,13.491 36.058,0 z m -22.287,-21.273 8.518,0 0,17.017 -8.518,0 0,-17.017 z m -208.688,-10.939 -8.52,0 0,-17.015 8.52,0 0,17.015 z m -149.547,55.913 -8.519,0 0,-17.016 8.519,0 0,17.016 z m 149.547,0 -8.52,0 0,-17.016 8.52,0 0,17.016 z m 40.705,-5.431 -9.319,0 0,-37.421 c 2.876,2.6 5.981,5.215 9.319,7.776 l 0,29.645 z m 13.98,0 -9.322,0 0,-26.229 c 2.953,2.08 6.059,4.097 9.322,6.011 l 0,20.218 z m 13.977,0 -9.32,0 0,-17.622 c 2.992,1.586 6.099,3.079 9.32,4.445 l 0,13.177 z m 13.976,0 -9.318,0 0,-11.318 c 3.014,1.123 6.119,2.135 9.318,3.015 l 0,8.303 z m 13.98,0 -9.319,0 0,-7.143 c 3.03,0.691 6.134,1.263 9.319,1.688 l 0,5.455 z m 13.977,0 -9.32,0 0,-4.945 c 1.375,0.124 2.761,0.226 4.166,0.295 1.742,0.08 3.455,0.126 5.154,0.155 l 0,4.495 z m 13.979,0 -9.32,0 0,-4.504 c 3.193,-0.043 6.305,-0.175 9.32,-0.404 l 0,4.908 z m 13.978,0 -9.32,0 0,-5.335 c 3.215,-0.347 6.323,-0.791 9.32,-1.323 l 0,6.658 z m 13.979,0 -9.32,0 0,-7.566 c 3.248,-0.691 6.347,-1.483 9.32,-2.345 l 0,9.911 z m 13.975,0 -9.318,0 0,-11.355 c 3.289,-1.088 6.402,-2.252 9.318,-3.479 l 0,14.834 z m 13.982,0 -9.323,0 0,-16.91 c 3.397,-1.593 6.51,-3.237 9.323,-4.868 l 0,21.778 z m 28.2,-11.585 8.518,0 0,17.016 -8.518,0 0,-17.016 z" />
	<path
   style="fill:#1c75bc"
   id="path479"
   d="m 527.699,693.857 c -1.173,0 -2.127,0.957 -2.127,2.129 l 0,9.874 -5.191,0 0,-12.003 -6.456,0 0,-7.291 c 0,-1.173 -0.954,-2.128 -2.129,-2.128 -1.172,0 -2.126,0.955 -2.126,2.128 l 0,7.291 -6.458,0 0,12.003 -5.188,0 0,-9.874 c 0,-1.172 -0.953,-2.129 -2.126,-2.129 -1.175,0 -2.129,0.957 -2.129,2.129 l 0,9.874 0,4.711 0,20.814 36.058,0 0,-20.814 0,-4.711 0,-9.874 c -10e-4,-1.172 -0.958,-2.129 -2.128,-2.129 z m -11.642,34.018 -8.518,0 0,-17.015 8.518,0 0,17.015 z" />
</g>
<polygon
   transform="translate(-563.503,-583.685)"
   style="fill:#594844"
   id="polygon481"
   points="206.018,733.845 203.32,732.371 206.018,730.897 207.492,728.2 208.969,730.897 211.664,732.371 208.969,733.845 207.492,736.543 " />
<polygon
   transform="translate(-563.503,-583.685)"
   style="fill:#594844"
   id="polygon483"
   points="186.579,657.146 183.431,655.423 186.579,653.7 188.304,650.55 190.026,653.7 193.175,655.423 190.026,657.146 188.304,660.296 " />
<polygon
   transform="translate(-563.503,-583.685)"
   style="fill:#594844"
   id="polygon485"
   points="211.608,684.384 207.802,682.303 211.608,680.222 213.69,676.415 215.772,680.222 219.577,682.303 215.772,684.384 213.69,688.19 " />
<polygon
   transform="translate(-563.503,-583.685)"
   style="fill:#594844"
   id="polygon487"
   points="258.28,639.669 255.749,638.284 258.28,636.9 259.663,634.368 261.048,636.9 263.579,638.284 261.048,639.669 259.663,642.2 " />
<polygon
   transform="translate(-563.503,-583.685)"
   style="fill:#594844"
   id="polygon489"
   points="247.336,727.388 245.006,726.112 247.336,724.837 248.613,722.506 249.889,724.837 252.219,726.112 249.889,727.388 248.613,729.72 " />
<polygon
   transform="translate(-563.503,-583.685)"
   style="fill:#594844"
   id="polygon491"
   points="324.885,622.47 319.986,619.792 324.885,617.113 327.564,612.215 330.244,617.113 335.143,619.792 330.244,622.47 327.564,627.369 " />
<polygon
   transform="translate(-563.503,-583.685)"
   style="fill:#594844"
   id="polygon493"
   points="335.726,710.675 333.378,709.391 335.726,708.107 337.011,705.758 338.296,708.107 340.646,709.391 338.296,710.675 337.011,713.024 " />
<polygon
   transform="translate(-563.503,-583.685)"
   style="fill:#594844"
   id="polygon495"
   points="382.902,658.13 378.914,655.95 382.902,653.771 385.084,649.78 387.266,653.771 391.254,655.95 387.266,658.13 385.084,662.12 " />
<polygon
   transform="translate(-563.503,-583.685)"
   style="fill:#594844"
   id="polygon497"
   points="460.152,668.125 457.074,666.441 460.152,664.759 461.834,661.681 463.518,664.759 466.596,666.441 463.518,668.125 461.834,671.202 " />
<polygon
   transform="translate(-563.503,-583.685)"
   style="fill:#594844"
   id="polygon499"
   points="446.06,734.574 442.073,732.395 446.06,730.214 448.241,726.226 450.423,730.214 454.409,732.395 450.423,734.574 448.241,738.562 " />
<polygon
   transform="translate(-563.503,-583.685)"
   style="fill:#594844"
   id="polygon501"
   points="410.728,676.408 407.651,674.726 410.728,673.042 412.413,669.963 414.099,673.042 417.175,674.726 414.099,676.408 412.413,679.487 " />
<g
   transform="translate(-563.503,-583.685)"
   id="g503">
	<path
   style="fill:#f79226"
   id="path505"
   d="m 325.626,148.325 c 0,2.253 1.826,4.08 4.078,4.08 2.252,0 4.08,-1.826 4.08,-4.08 0,-2.252 -4.08,-7.433 -4.08,-7.433 0,0 -4.078,5.181 -4.078,7.433 z" />
</g>
<g
   transform="translate(-563.503,-583.685)"
   id="g507">
	<path
   style="fill:#f79226"
   id="path509"
   d="m 338.964,162.501 c 0,2.253 1.826,4.08 4.078,4.08 2.253,0 4.08,-1.826 4.08,-4.08 0,-2.252 -4.08,-7.433 -4.08,-7.433 0,0 -4.078,5.182 -4.078,7.433 z" />
</g>
<g
   transform="translate(-563.503,-583.685)"
   id="g511">
	<path
   style="fill:#f79226"
   id="path513"
   d="m 325.626,173.115 c 0,2.253 1.826,4.08 4.078,4.08 2.252,0 4.08,-1.826 4.08,-4.08 0,-2.252 -4.08,-7.433 -4.08,-7.433 0,0 -4.078,5.181 -4.078,7.433 z" />
</g>
<path
   style="fill:#00a295"
   id="path515"
   d="m 254.381,-494.561 c 0.001,-0.002 0.002,-0.005 0.003,-0.008 0.099,-0.303 0.192,-0.607 0.284,-0.914 0.003,-0.014 0.008,-0.029 0.012,-0.044 0.337,-1.139 0.617,-2.291 0.834,-3.454 0.002,-0.009 0.004,-0.019 0.005,-0.027 0.05,-0.263 0.095,-0.526 0.137,-0.789 0.004,-0.023 0.008,-0.048 0.012,-0.072 0.039,-0.247 0.075,-0.494 0.107,-0.741 0.006,-0.04 0.012,-0.08 0.018,-0.121 0.029,-0.23 0.055,-0.46 0.079,-0.692 0.007,-0.056 0.016,-0.112 0.021,-0.168 0.022,-0.224 0.042,-0.448 0.059,-0.672 0.006,-0.062 0.012,-0.123 0.017,-0.186 0.021,-0.285 0.037,-0.57 0.05,-0.854 0.769,-17.582 -10.056,-29.279 -24.15,-30.292 -0.024,-10e-4 -0.049,-0.004 -0.073,-0.005 -0.233,-0.016 -0.466,-0.03 -0.701,-0.04 -0.234,-0.01 -0.468,-0.017 -0.701,-0.021 -0.023,0 -0.046,0 -0.069,0 -14.131,-0.223 -25.938,10.484 -26.707,28.067 -0.013,0.285 -0.02,0.571 -0.023,0.856 -0.002,0.057 -0.001,0.114 -0.002,0.171 -0.002,0.23 -0.003,0.46 0,0.69 0.002,0.051 0.004,0.101 0.004,0.151 0.006,0.239 0.012,0.478 0.021,0.717 0.003,0.032 0.005,0.063 0.006,0.095 0.013,0.258 0.025,0.517 0.045,0.775 10e-4,0.014 10e-4,0.027 0.003,0.041 0.104,1.464 0.308,2.922 0.6,4.367 0.003,0.015 0.007,0.028 0.009,0.042 0.064,0.314 0.132,0.625 0.203,0.938 0.001,0.002 0.001,0.005 0.002,0.007 l 0,0 c 0.193,0.838 0.416,1.67 0.665,2.496 l 0,0 c 0,10e-4 10e-4,0.002 0.002,0.003 0.489,1.621 1.081,3.212 1.759,4.757 0,10e-4 -0.001,10e-4 -0.001,0.002 0,0 0,0 0.001,0 0.182,0.415 0.369,0.826 0.562,1.234 0.001,0.003 0.003,0.004 0.003,0.007 3.163,6.669 7.851,12.387 12.504,15.861 l 0,0.001 c 0.011,0.008 0.021,0.015 0.031,0.022 0.452,0.337 0.905,0.652 1.354,0.946 0.038,0.024 0.075,0.047 0.112,0.072 0.156,0.101 0.313,0.199 0.47,0.294 l -0.534,-0.023 c -0.317,-0.014 -0.585,0.231 -0.6,0.549 -0.014,0.317 0.232,0.585 0.549,0.599 l 1.179,0.052 c -0.056,0.262 -0.097,0.529 -0.108,0.806 l -0.054,1.233 c -0.049,1.105 0.283,2.137 0.873,2.977 l -0.488,11.165 -3.1,-0.135 -0.06,1.38 1.1,0.048 -0.386,8.837 -1.101,-0.048 -0.061,1.38 15.688,0.686 0.061,-1.38 -1.102,-0.048 0.387,-8.837 1.102,0.048 0.061,-1.38 -2.855,-0.125 0.488,-11.165 c 0.661,-0.785 1.081,-1.784 1.129,-2.889 l 0.054,-1.234 c 0.013,-0.276 -0.004,-0.546 -0.036,-0.812 l 1.179,0.052 c 0.316,0.014 0.585,-0.231 0.599,-0.549 0.014,-0.318 -0.231,-0.585 -0.549,-0.599 l -0.613,-0.027 c 0.158,-0.079 0.317,-0.16 0.478,-0.244 0.047,-0.025 0.094,-0.049 0.142,-0.074 0.472,-0.251 0.946,-0.526 1.424,-0.819 0.012,-0.007 0.022,-0.013 0.032,-0.02 l 0,-0.001 c 4.327,-2.676 8.829,-7.065 12.39,-12.394 0.038,-0.056 0.075,-0.111 0.112,-0.167 0.212,-0.321 0.423,-0.645 0.627,-0.973 0.011,-0.015 0.02,-0.03 0.029,-0.045 0.196,-0.315 0.39,-0.633 0.579,-0.955 0.031,-0.052 0.062,-0.104 0.093,-0.157 0.423,-0.72 0.827,-1.453 1.211,-2.2 0.009,-0.019 0.02,-0.038 0.028,-0.057 0.202,-0.396 0.4,-0.795 0.591,-1.198 0,-0.002 0.001,-0.004 0.002,-0.005 0.003,-0.005 0.004,-0.009 0.007,-0.014 0.132,-0.28 0.262,-0.562 0.388,-0.846 0.01,-0.021 0.02,-0.042 0.029,-0.062 0.124,-0.281 0.245,-0.563 0.364,-0.846 0.003,-0.008 0.006,-0.015 0.01,-0.023 l 0,0 c 0.399,-0.976 0.769,-1.968 1.095,-2.973 l 0,0 z m -22.934,41.251 -7.644,-0.334 0.444,-10.159 c 0.762,0.589 1.702,0.958 2.735,1.004 l 2.094,0.091 c 1.035,0.045 2.005,-0.241 2.814,-0.761 l -0.443,10.159 z" />
<g
   transform="translate(-563.503,-583.685)"
   id="g517">
	<g
   id="g519">
		<polygon
   style="fill:#71b7af"
   id="polygon521"
   points="335.431,335.6 329.355,349.913 323.28,335.6 " />
		<polygon
   style="fill:#e84f25"
   id="polygon523"
   points="353.159,335.6 347.084,349.913 341.01,335.6 " />
		<polygon
   style="fill:#e1ddbe"
   id="polygon525"
   points="370.889,335.6 364.813,349.913 358.738,335.6 " />
		<polygon
   style="fill:#71b7af"
   id="polygon527"
   points="388.617,335.6 382.543,349.913 376.468,335.6 " />
		<polygon
   style="fill:#e84f25"
   id="polygon529"
   points="406.347,335.6 400.271,349.913 394.196,335.6 " />
		<polygon
   style="fill:#e1ddbe"
   id="polygon531"
   points="424.075,335.6 418,349.913 411.925,335.6 " />
		<polygon
   style="fill:#71b7af"
   id="polygon533"
   points="441.804,335.6 435.729,349.913 429.653,335.6 " />
		<polygon
   style="fill:#e84f25"
   id="polygon535"
   points="459.532,335.6 453.457,349.913 447.383,335.6 " />
		<polygon
   style="fill:#e1ddbe"
   id="polygon537"
   points="477.263,335.6 471.187,349.913 465.112,335.6 " />
		<polygon
   style="fill:#71b7af"
   id="polygon539"
   points="494.99,335.6 488.915,349.913 482.841,335.6 " />
		<polygon
   style="fill:#e84f25"
   id="polygon541"
   points="512.719,335.6 506.644,349.913 500.569,335.6 " />
		<rect
   style="fill:#71b7af"
   id="rect543"
   height="2.3629999"
   width="216.52299"
   y="331.47601"
   x="309.73801" />
	</g>
	<g
   id="g545">
		<polygon
   style="fill:#71b7af"
   id="polygon547"
   points="335.431,357.695 329.355,372.008 323.28,357.695 " />
		<polygon
   style="fill:#e84f25"
   id="polygon549"
   points="353.159,357.695 347.084,372.008 341.01,357.695 " />
		<polygon
   style="fill:#e1ddbe"
   id="polygon551"
   points="370.889,357.695 364.813,372.008 358.738,357.695 " />
		<polygon
   style="fill:#71b7af"
   id="polygon553"
   points="388.617,357.695 382.543,372.008 376.468,357.695 " />
		<polygon
   style="fill:#e84f25"
   id="polygon555"
   points="406.347,357.695 400.271,372.008 394.196,357.695 " />
		<polygon
   style="fill:#e1ddbe"
   id="polygon557"
   points="424.075,357.695 418,372.008 411.925,357.695 " />
		<polygon
   style="fill:#71b7af"
   id="polygon559"
   points="441.804,357.695 435.729,372.008 429.653,357.695 " />
		<polygon
   style="fill:#e84f25"
   id="polygon561"
   points="459.532,357.695 453.457,372.008 447.383,357.695 " />
		<polygon
   style="fill:#e1ddbe"
   id="polygon563"
   points="477.263,357.695 471.187,372.008 465.112,357.695 " />
		<polygon
   style="fill:#71b7af"
   id="polygon565"
   points="494.99,357.695 488.915,372.008 482.841,357.695 " />
		<polygon
   style="fill:#e84f25"
   id="polygon567"
   points="512.719,357.695 506.644,372.008 500.569,357.695 " />
		<rect
   style="fill:#71b7af"
   id="rect569"
   height="2.3629999"
   width="216.52299"
   y="353.57101"
   x="309.73801" />
	</g>
	<g
   id="g571">
		<g
   id="g573">
			<path
   style="fill:#594844"
   id="path575"
   d="m 338.03,454.627 -0.136,-24.209 c -0.004,-0.654 -0.423,-1.237 -1.039,-1.455 -0.62,-0.211 -1.31,-0.016 -1.718,0.498 l -5.502,6.875 -0.008,-45.815 c 0,-0.854 -0.692,-1.547 -1.547,-1.547 -0.857,0 -1.55,0.693 -1.55,1.547 l 0.01,50.231 c 0,0.655 0.416,1.239 1.038,1.459 0.617,0.218 1.311,0.02 1.719,-0.494 l 5.525,-6.906 0.126,22.55 c 0.737,-1.188 1.801,-2.141 3.082,-2.734 z" />
			<path
   style="fill:#e1ddbe"
   id="path577"
   d="m 361.974,451.109 c 1.201,-0.812 2.26,-1.891 3.134,-3.167 -2.518,1.342 -5.392,2.108 -8.441,2.108 -3.054,0 -5.926,-0.765 -8.441,-2.106 0.87,1.274 1.933,2.354 3.13,3.163 l 0,2.844 10.623,-0.002 -0.005,-2.84 z" />
			<path
   style="fill:#594844"
   id="path579"
   d="m 365.107,447.942 c 5.663,-3.025 9.521,-8.994 9.519,-15.859 l -0.004,-19.826 c -0.002,-9.918 -8.046,-17.96 -17.966,-17.958 -9.92,0.002 -17.964,8.046 -17.962,17.964 l 0.004,19.826 c 0.002,6.867 3.859,12.834 9.526,15.855 2.516,1.342 5.388,2.106 8.441,2.106 3.051,10e-4 5.925,-0.766 8.442,-2.108 z m -19.495,-8.782 c -0.002,-7.53 4.945,-10.248 11.05,-10.248 6.103,-0.002 11.052,2.714 11.054,10.244 0,7.527 -8.385,7.486 -11.05,7.486 -2.669,0.003 -11.054,0.046 -11.054,-7.482 z" />
			<path
   style="fill:#e1ddbe"
   id="path581"
   d="m 367.716,439.156 c -0.002,-7.53 -4.951,-10.246 -11.054,-10.244 -6.104,0 -11.052,2.718 -11.05,10.248 0,7.527 8.385,7.484 11.054,7.482 2.665,10e-4 11.05,0.042 11.05,-7.486 z" />
			<path
   style="fill:#e84f25"
   id="path583"
   d="m 372.308,453.947 -10.33,0.002 -10.623,0.002 -10.334,0.002 c -1.07,0 -2.078,0.255 -2.99,0.674 -1.281,0.593 -2.346,1.546 -3.081,2.733 -0.677,1.095 -1.086,2.373 -1.086,3.754 l 0.008,51.378 c 0.002,3.957 3.208,7.165 7.163,7.163 l 31.285,-0.006 c 3.957,0 7.165,-3.208 7.163,-7.165 l -0.01,-51.378 c 0,-3.956 -3.208,-7.161 -7.165,-7.159 z m -15.63,53.541 c -1.14,0 -2.065,-0.926 -2.065,-2.062 0,-1.142 0.924,-2.067 2.065,-2.067 1.136,0 2.062,0.924 2.062,2.065 0.003,1.138 -0.923,2.064 -2.062,2.064 z m -0.002,-9.98 c -1.14,0 -2.063,-0.922 -2.067,-2.062 0,-1.139 0.926,-2.064 2.067,-2.064 1.138,0 2.063,0.924 2.063,2.062 0,1.142 -0.926,2.064 -2.063,2.064 z m -0.002,-9.976 c -1.14,0 -2.065,-0.919 -2.065,-2.062 0,-1.142 0.924,-2.064 2.065,-2.064 1.138,0 2.062,0.921 2.062,2.062 0.003,1.143 -0.923,2.064 -2.062,2.064 z m -0.002,-9.978 c -1.14,0 -2.063,-0.922 -2.067,-2.062 0,-1.138 0.926,-2.063 2.067,-2.063 1.138,0 2.063,0.924 2.063,2.062 0,1.139 -0.923,2.063 -2.063,2.063 z m -0.002,-9.977 c -1.14,0 -2.065,-0.922 -2.065,-2.062 0,-1.139 0.924,-2.066 2.065,-2.066 1.138,0 2.062,0.926 2.062,2.064 0.003,1.142 -0.922,2.064 -2.062,2.064 z" />
			<circle
   style="fill:#ffffff"
   id="circle585"
   r="2.0639999"
   cy="465.513"
   cx="356.67001" />
			<path
   style="fill:#ffffff"
   id="path587"
   d="m 356.672,473.428 c -1.142,0 -2.067,0.926 -2.067,2.063 0.004,1.141 0.928,2.062 2.067,2.062 1.139,0 2.063,-0.924 2.063,-2.064 0,-1.137 -0.925,-2.061 -2.063,-2.061 z" />
			<path
   style="fill:#ffffff"
   id="path589"
   d="m 356.674,483.405 c -1.142,0 -2.065,0.923 -2.065,2.064 0,1.144 0.926,2.062 2.065,2.062 1.139,0 2.065,-0.921 2.062,-2.064 -10e-4,-1.141 -0.924,-2.062 -2.062,-2.062 z" />
			<path
   style="fill:#ffffff"
   id="path591"
   d="m 356.676,493.382 c -1.142,0 -2.067,0.926 -2.067,2.064 0.004,1.14 0.928,2.062 2.067,2.062 1.138,0 2.063,-0.922 2.063,-2.063 0,-1.139 -0.926,-2.063 -2.063,-2.063 z" />
			<path
   style="fill:#ffffff"
   id="path593"
   d="m 356.678,503.358 c -1.142,0 -2.065,0.926 -2.065,2.067 0,1.137 0.926,2.062 2.065,2.062 1.139,0 2.065,-0.926 2.062,-2.064 -0.001,-1.141 -0.927,-2.065 -2.062,-2.065 z" />
		</g>
		<g
   id="g595">
			<path
   style="fill:#594844"
   id="path597"
   d="m 403.022,454.627 -0.135,-24.209 c -0.004,-0.654 -0.424,-1.237 -1.039,-1.455 -0.619,-0.211 -1.311,-0.016 -1.717,0.498 l -5.504,6.875 -0.008,-45.815 c 0,-0.854 -0.691,-1.547 -1.547,-1.547 -0.856,0 -1.549,0.693 -1.549,1.547 l 0.01,50.231 c 0,0.655 0.416,1.239 1.037,1.459 0.618,0.218 1.312,0.02 1.721,-0.494 l 5.525,-6.906 0.125,22.55 c 0.738,-1.188 1.802,-2.141 3.081,-2.734 z" />
			<path
   style="fill:#e1ddbe"
   id="path599"
   d="m 426.967,451.109 c 1.201,-0.812 2.26,-1.891 3.133,-3.167 -2.518,1.342 -5.391,2.108 -8.441,2.108 -3.052,0 -5.925,-0.765 -8.44,-2.106 0.871,1.274 1.934,2.354 3.129,3.163 l 0,2.844 10.624,-0.002 -0.005,-2.84 z" />
			<path
   style="fill:#594844"
   id="path601"
   d="m 430.1,447.942 c 5.664,-3.025 9.521,-8.994 9.52,-15.859 l -0.004,-19.826 c -0.002,-9.918 -8.047,-17.96 -17.967,-17.958 -9.919,0.002 -17.962,8.046 -17.96,17.964 l 0.004,19.826 c 0.002,6.867 3.859,12.834 9.525,15.855 2.516,1.342 5.389,2.106 8.44,2.106 3.051,10e-4 5.924,-0.766 8.442,-2.108 z m -19.494,-8.782 c -0.002,-7.53 4.945,-10.248 11.048,-10.248 6.104,-0.002 11.053,2.714 11.055,10.244 0,7.527 -8.385,7.486 -11.051,7.486 -2.667,0.003 -11.052,0.046 -11.052,-7.482 z" />
			<path
   style="fill:#e1ddbe"
   id="path603"
   d="m 432.709,439.156 c -0.002,-7.53 -4.951,-10.246 -11.055,-10.244 -6.103,0 -11.05,2.718 -11.048,10.248 0,7.527 8.385,7.484 11.052,7.482 2.666,10e-4 11.051,0.042 11.051,-7.486 z" />
			<path
   style="fill:#e84f25"
   id="path605"
   d="m 437.301,453.947 -10.33,0.002 -10.624,0.002 -10.334,0.002 c -1.07,0 -2.078,0.255 -2.99,0.674 -1.279,0.593 -2.344,1.546 -3.08,2.733 -0.676,1.095 -1.086,2.373 -1.086,3.754 l 0.008,51.378 c 0.002,3.957 3.209,7.165 7.164,7.163 l 31.284,-0.006 c 3.957,0 7.164,-3.208 7.162,-7.165 l -0.01,-51.378 c 0,-3.956 -3.207,-7.161 -7.164,-7.159 z m -15.631,53.541 c -1.139,0 -2.064,-0.926 -2.064,-2.062 0,-1.142 0.924,-2.067 2.064,-2.067 1.137,0 2.062,0.924 2.062,2.065 0.004,1.138 -0.921,2.064 -2.062,2.064 z m -0.002,-9.98 c -1.139,0 -2.062,-0.922 -2.066,-2.062 0,-1.139 0.926,-2.064 2.066,-2.064 1.139,0 2.064,0.924 2.064,2.062 0,1.142 -0.925,2.064 -2.064,2.064 z m -0.002,-9.976 c -1.139,0 -2.064,-0.919 -2.064,-2.062 0,-1.142 0.924,-2.064 2.064,-2.064 1.139,0 2.062,0.921 2.062,2.062 0.004,1.143 -0.921,2.064 -2.062,2.064 z m -0.002,-9.978 c -1.139,0 -2.062,-0.922 -2.066,-2.062 0,-1.138 0.926,-2.063 2.066,-2.063 1.139,0 2.064,0.924 2.064,2.062 10e-4,1.139 -0.923,2.063 -2.064,2.063 z m -0.002,-9.977 c -1.139,0 -2.064,-0.922 -2.064,-2.062 0,-1.139 0.924,-2.066 2.064,-2.066 1.139,0 2.062,0.926 2.062,2.064 0.005,1.142 -0.921,2.064 -2.062,2.064 z" />
			<circle
   style="fill:#ffffff"
   id="circle607"
   r="2.0639999"
   cy="465.513"
   cx="421.66199" />
			<path
   style="fill:#ffffff"
   id="path609"
   d="m 421.664,473.428 c -1.141,0 -2.066,0.926 -2.066,2.063 0.004,1.141 0.928,2.062 2.066,2.062 1.141,0 2.064,-0.924 2.064,-2.064 10e-4,-1.137 -0.925,-2.061 -2.064,-2.061 z" />
			<path
   style="fill:#ffffff"
   id="path611"
   d="m 421.666,483.405 c -1.141,0 -2.064,0.923 -2.064,2.064 0,1.144 0.926,2.062 2.064,2.062 1.141,0 2.066,-0.921 2.062,-2.064 10e-4,-1.141 -0.923,-2.062 -2.062,-2.062 z" />
			<path
   style="fill:#ffffff"
   id="path613"
   d="m 421.668,493.382 c -1.141,0 -2.066,0.926 -2.066,2.064 0.004,1.14 0.928,2.062 2.066,2.062 1.138,0 2.064,-0.922 2.064,-2.063 0,-1.139 -0.925,-2.063 -2.064,-2.063 z" />
			<path
   style="fill:#ffffff"
   id="path615"
   d="m 421.67,503.358 c -1.141,0 -2.064,0.926 -2.064,2.067 0,1.137 0.926,2.062 2.064,2.062 1.141,0 2.066,-0.926 2.062,-2.064 0,-1.141 -0.925,-2.065 -2.062,-2.065 z" />
		</g>
		<g
   id="g617">
			<path
   style="fill:#594844"
   id="path619"
   d="m 468.016,454.627 -0.135,-24.209 c -0.004,-0.654 -0.424,-1.237 -1.039,-1.455 -0.619,-0.211 -1.311,-0.016 -1.717,0.498 l -5.504,6.875 -0.008,-45.815 c 0,-0.854 -0.691,-1.547 -1.547,-1.547 -0.857,0 -1.549,0.693 -1.549,1.547 l 0.01,50.231 c 0,0.655 0.416,1.239 1.037,1.459 0.617,0.218 1.312,0.02 1.721,-0.494 l 5.525,-6.906 0.125,22.55 c 0.737,-1.188 1.801,-2.141 3.081,-2.734 z" />
			<path
   style="fill:#e1ddbe"
   id="path621"
   d="m 491.961,451.109 c 1.199,-0.812 2.258,-1.891 3.133,-3.167 -2.518,1.342 -5.393,2.108 -8.441,2.108 -3.053,0 -5.926,-0.765 -8.441,-2.106 0.871,1.274 1.934,2.354 3.129,3.163 l 0,2.844 10.625,-0.002 -0.005,-2.84 z" />
			<path
   style="fill:#594844"
   id="path623"
   d="m 495.094,447.942 c 5.664,-3.025 9.521,-8.994 9.52,-15.859 l -0.004,-19.826 c -0.002,-9.918 -8.047,-17.96 -17.967,-17.958 -9.92,0.002 -17.963,8.046 -17.961,17.964 l 0.004,19.826 c 0.002,6.867 3.859,12.834 9.525,15.855 2.516,1.342 5.389,2.106 8.441,2.106 3.049,10e-4 5.924,-0.766 8.442,-2.108 z M 475.6,439.16 c -0.002,-7.53 4.945,-10.248 11.049,-10.248 6.102,-0.002 11.051,2.714 11.055,10.244 0,7.527 -8.385,7.486 -11.051,7.486 -2.669,0.003 -11.053,0.046 -11.053,-7.482 z" />
			<path
   style="fill:#e1ddbe"
   id="path625"
   d="m 497.703,439.156 c -0.004,-7.53 -4.953,-10.246 -11.055,-10.244 -6.104,0 -11.051,2.718 -11.049,10.248 0,7.527 8.385,7.484 11.053,7.482 2.666,10e-4 11.051,0.042 11.051,-7.486 z" />
			<path
   style="fill:#e84f25"
   id="path627"
   d="m 502.295,453.947 -10.33,0.002 -10.625,0.002 -10.334,0.002 c -1.07,0 -2.078,0.255 -2.99,0.674 -1.279,0.593 -2.344,1.546 -3.08,2.733 -0.676,1.095 -1.086,2.373 -1.086,3.754 l 0.008,51.378 c 0.002,3.957 3.209,7.165 7.164,7.163 l 31.285,-0.006 c 3.957,0 7.164,-3.208 7.162,-7.165 l -0.01,-51.378 c 0,-3.956 -3.207,-7.161 -7.164,-7.159 z m -15.631,53.541 c -1.139,0 -2.064,-0.926 -2.064,-2.062 0,-1.142 0.924,-2.067 2.064,-2.067 1.135,0 2.061,0.924 2.061,2.065 0.004,1.138 -0.922,2.064 -2.061,2.064 z m -0.002,-9.98 c -1.139,0 -2.062,-0.922 -2.066,-2.062 0,-1.139 0.926,-2.064 2.066,-2.064 1.137,0 2.062,0.924 2.062,2.062 0.001,1.142 -0.925,2.064 -2.062,2.064 z m -0.002,-9.976 c -1.139,0 -2.064,-0.919 -2.064,-2.062 0,-1.142 0.924,-2.064 2.064,-2.064 1.137,0 2.061,0.921 2.061,2.062 0.004,1.143 -0.922,2.064 -2.061,2.064 z m -0.002,-9.978 c -1.139,0 -2.062,-0.922 -2.066,-2.062 0,-1.138 0.926,-2.063 2.066,-2.063 1.137,0 2.062,0.924 2.062,2.062 10e-4,1.139 -0.923,2.063 -2.062,2.063 z m -0.002,-9.977 c -1.139,0 -2.064,-0.922 -2.064,-2.062 0,-1.139 0.924,-2.066 2.064,-2.066 1.137,0 2.061,0.926 2.061,2.064 0.004,1.142 -0.922,2.064 -2.061,2.064 z" />
			<circle
   style="fill:#ffffff"
   id="circle629"
   r="2.0639999"
   cy="465.513"
   cx="486.65601" />
			<path
   style="fill:#ffffff"
   id="path631"
   d="m 486.658,473.428 c -1.141,0 -2.066,0.926 -2.066,2.063 0.004,1.141 0.928,2.062 2.066,2.062 1.138,0 2.062,-0.924 2.062,-2.064 10e-4,-1.137 -0.925,-2.061 -2.062,-2.061 z" />
			<path
   style="fill:#ffffff"
   id="path633"
   d="m 486.66,483.405 c -1.141,0 -2.064,0.923 -2.064,2.064 0,1.144 0.926,2.062 2.064,2.062 1.138,0 2.064,-0.921 2.061,-2.064 0,-1.141 -0.924,-2.062 -2.061,-2.062 z" />
			<path
   style="fill:#ffffff"
   id="path635"
   d="m 486.662,493.382 c -1.141,0 -2.066,0.926 -2.066,2.064 0.004,1.14 0.928,2.062 2.066,2.062 1.137,0 2.062,-0.922 2.062,-2.063 0.001,-1.139 -0.925,-2.063 -2.062,-2.063 z" />
			<path
   style="fill:#ffffff"
   id="path637"
   d="m 486.664,503.358 c -1.141,0 -2.064,0.926 -2.064,2.067 0,1.137 0.926,2.062 2.064,2.062 1.138,0 2.064,-0.926 2.061,-2.064 0,-1.141 -0.926,-2.065 -2.061,-2.065 z" />
		</g>
	</g>
</g>
<g
   transform="translate(-563.503,-583.685)"
   id="g639">
	<path
   style="fill:#3c2415"
   id="path641"
   d="m 326.313,223.131 12.504,0 1.39,0 12.5,0 c 13.89,-6.945 13.89,-42.603 13.89,-42.603 l -26.39,0 -1.39,0 -26.396,0 c 0,0 0,35.659 13.892,42.603 z" />
	<rect
   style="fill:#3c2415"
   id="rect643"
   height="2.951"
   width="39.939999"
   y="224.696"
   x="319.54001" />
	<path
   style="fill:#3c2415"
   id="path645"
   d="m 367.988,180.528 c 0,0 0,1.701 -0.146,4.428 0.05,-0.003 0.096,-0.012 0.146,-0.012 4.022,0 7.288,3.257 7.288,7.286 0,4.026 -3.266,7.291 -7.288,7.291 -0.61,0 -1.185,-0.099 -1.747,-0.238 -0.254,1.438 -0.555,2.887 -0.893,4.334 0.852,0.198 1.729,0.312 2.64,0.312 6.458,0 11.693,-5.238 11.693,-11.699 0.001,-6.461 -5.235,-11.702 -11.693,-11.702 z" />
</g>
<g
   transform="translate(-563.503,-583.685)"
   id="g647">
	<path
   style="fill:#f79226"
   id="path649"
   d="m 318.948,132.22 c 0.75,-2.393 -6.755,-2.791 -9.938,-7.516 -4.307,-1.79 -11.251,5.686 -18.608,5.246 4.294,-14.31 -1.36,-31.911 -14.862,-44.987 0.641,-0.229 1.189,-0.594 1.582,-1.113 1.644,-2.173 0.095,-6.123 -3.462,-8.812 -3.562,-2.693 -7.774,-3.101 -9.417,-0.928 -0.394,0.519 -0.594,1.146 -0.639,1.826 -20.221,-11.732 -43.896,-9.9 -55.395,5.302 -8.406,11.116 -8.139,26.567 -0.822,40.437 l 39.445,29.833 c 5.674,1.211 11.291,1.42 16.553,0.652 2.934,1.834 10.501,5.194 21.898,0.58 7.576,-2.491 9.722,-8.675 16.539,-13.224 6.813,-4.549 15.661,-3.126 17.126,-7.296 z" />
	<path
   style="fill:#f79226"
   id="path651"
   d="m 203.343,67.889 c 5.505,-7.279 15.854,-8.717 23.132,-3.214 0.933,0.705 1.775,1.504 2.517,2.355 3.023,-0.387 6.164,-0.454 9.36,-0.196 -1.634,-3.239 -3.982,-6.18 -7.069,-8.515 -10.785,-8.156 -26.143,-6.028 -34.301,4.759 -7.672,10.143 -6.232,24.327 2.938,32.767 0.309,-3.352 1.082,-6.585 2.363,-9.626 -3.292,-5.598 -3.091,-12.843 1.06,-18.33 z" />
</g>
<path
   style="fill:#414042"
   id="path653"
   d="m 242.62,-326.722 -1.275,0 -9.632,-6.644 c 0,0 0.341,-6.747 -0.048,-7.333 -0.389,-0.586 -1.901,-0.483 -1.901,-0.483 0,0 -1.515,-0.103 -1.906,0.483 -0.389,0.586 -0.049,7.333 -0.049,7.333 l -9.631,6.644 -1.272,0 c -1.075,0 -1.949,0.875 -1.949,1.953 0,1.075 0.874,1.952 1.949,1.952 l 0.61,0 9.516,25.238 0,118.882 c 0,0 -0.777,4.812 -2.152,8.074 -1.373,3.261 -4.816,6.51 -4.23,7.42 0.583,0.914 3.125,-0.133 3.647,0.45 l 0,39.909 c 0,0 -4.946,0.188 -5.86,1.494 -0.911,1.3 -1.108,3.583 -1.108,3.583 l 12.437,0 12.435,0 c 0,0 -0.197,-2.283 -1.111,-3.583 -0.911,-1.306 -5.857,-1.494 -5.857,-1.494 l 0,-39.909 c 0.525,-0.583 3.061,0.464 3.646,-0.45 0.583,-0.91 -2.857,-4.159 -4.232,-7.42 -1.376,-3.262 -2.149,-8.074 -2.149,-8.074 l 0,-118.882 9.516,-25.238 0.61,0 c 1.075,0 1.949,-0.877 1.949,-1.952 -0.004,-1.079 -0.878,-1.953 -1.953,-1.953 z m -14.107,25.153 -6.34,-18.922 6.34,0 0,18.922 z m 2.499,0 0,-18.922 6.334,0 -6.334,18.922 z" />
<g
   transform="translate(-563.503,-583.685)"
   id="g655">
	<rect
   style="fill:#be1e2d"
   id="rect657"
   height="163.76199"
   width="71.397003"
   y="391.05701"
   x="124.831" />
</g>
<g
   transform="translate(-563.503,-583.685)"
   id="g659">
	<rect
   style="fill:#ffffff"
   id="rect661"
   height="161.064"
   width="68.700996"
   y="392.405"
   x="126.179" />
</g>
<g
   transform="translate(-563.503,-583.685)"
   id="g663">
	<rect
   style="fill:#be1e2d"
   id="rect665"
   height="158.72701"
   width="66.366997"
   y="393.57599"
   x="127.347" />
</g>
<g
   transform="translate(-563.503,-583.685)"
   id="g667">
	<rect
   style="fill:#ffffff"
   id="rect669"
   height="124.708"
   width="54.265999"
   y="400.82101"
   x="133.397" />
</g>
<g
   transform="translate(-563.503,-583.685)"
   id="g671">
	<rect
   style="fill:#be1e2d"
   id="rect673"
   height="122.01"
   width="51.571999"
   y="402.17001"
   x="134.743" />
</g>
<g
   transform="translate(-563.503,-583.685)"
   id="g675">
	<rect
   style="fill:#be1e2d"
   id="rect677"
   height="11.678"
   width="52.830002"
   y="532.95697"
   x="134.11501" />
</g>
<g
   transform="translate(-563.503,-583.685)"
   id="g679">
	<path
   style="fill:#ffffff"
   id="path681"
   d="m 186.226,533.674 0,10.242 -51.394,0 0,-10.242 51.394,0 m 1.437,-1.435 -54.266,0 0,13.117 54.266,0 0,-13.117 0,0 z" />
</g>
<g
   transform="translate(-563.503,-583.685)"
   id="g683">
	<rect
   style="fill:#be1e2d"
   id="rect685"
   height="10.18"
   width="77.628998"
   y="554.81799"
   x="121.714" />
</g>
<g
   transform="translate(-563.503,-583.685)"
   id="g687">
	<rect
   style="fill:#be1e2d"
   id="rect689"
   height="13.957"
   width="62.771"
   y="377.10001"
   x="129.144" />
</g>
<g
   transform="translate(-563.503,-583.685)"
   id="g691">
	<path
   style="fill:#be1e2d"
   id="path693"
   d="m 191.915,377.133 0,-0.004 c 0,-9.483 -14.053,-17.172 -31.385,-17.172 -17.334,0 -31.387,7.689 -31.387,17.172 l 0,0.004 62.772,0 z" />
</g>
<path
   style="fill:#be1e2d"
   id="path695"
   d="m -374.434,-207.332 0,0 c 0,-7.52 -13.658,-14.346 -28.539,-14.583 -15.812,0 -28.539,7.246 -28.539,14.583 l 0,0 57.078,0 z" />
<path
   style="fill:#ffffff"
   id="path697"
   d="m -374.434,-206.792 -57.619,0 0,-0.54 c 0,-8.055 13.588,-15.123 29.08,-15.123 15.494,0.246 29.077,7.312 29.077,15.123 l 0,0.54 -0.538,0 z m -56.513,-1.08 55.948,0 c -0.651,-6.914 -13.694,-13.279 -27.983,-13.508 -15.583,0.001 -27.34,7.022 -27.965,13.508 z" />
<g
   transform="translate(-563.503,-583.685)"
   id="g699">
	<rect
   style="fill:#ffffff"
   id="rect701"
   height="11.022"
   width="54.324001"
   y="378.569"
   x="133.368" />
</g>
<g
   transform="translate(-563.503,-583.685)"
   id="g703">
	<g
   id="g705">
		<rect
   style="fill:#ffffff"
   id="rect707"
   height="19.646"
   width="12.494"
   y="412.138"
   x="140.528" />
	</g>
	<g
   id="g709">
		<rect
   style="fill:#ffffff"
   id="rect711"
   height="19.646"
   width="12.49"
   y="412.138"
   x="154.284" />
	</g>
	<g
   id="g713">
		<rect
   style="fill:#ffffff"
   id="rect715"
   height="19.646"
   width="12.494"
   y="412.138"
   x="168.036" />
	</g>
	<g
   id="g717">
		<rect
   style="fill:#ffffff"
   id="rect719"
   height="19.650999"
   width="12.494"
   y="432.74301"
   x="140.528" />
	</g>
	<g
   id="g721">
		<rect
   style="fill:#ffffff"
   id="rect723"
   height="19.650999"
   width="12.49"
   y="432.74301"
   x="154.284" />
	</g>
	<g
   id="g725">
		<rect
   style="fill:#ffffff"
   id="rect727"
   height="19.650999"
   width="12.494"
   y="432.74301"
   x="168.036" />
	</g>
	<g
   id="g729">
		<rect
   style="fill:#ffffff"
   id="rect731"
   height="19.643999"
   width="12.494"
   y="453.354"
   x="140.528" />
	</g>
	<g
   id="g733">
		<rect
   style="fill:#ffffff"
   id="rect735"
   height="19.643999"
   width="12.49"
   y="453.354"
   x="154.284" />
	</g>
	<g
   id="g737">
		<rect
   style="fill:#ffffff"
   id="rect739"
   height="19.643999"
   width="12.494"
   y="453.354"
   x="168.036" />
	</g>
	<g
   id="g741">
		<rect
   style="fill:#ffffff"
   id="rect743"
   height="19.646"
   width="12.494"
   y="473.95599"
   x="140.528" />
	</g>
	<g
   id="g745">
		<rect
   style="fill:#ffffff"
   id="rect747"
   height="19.646"
   width="12.49"
   y="473.95599"
   x="154.284" />
	</g>
	<g
   id="g749">
		<rect
   style="fill:#ffffff"
   id="rect751"
   height="19.646"
   width="12.494"
   y="473.95599"
   x="168.036" />
	</g>
	<g
   id="g753">
		<rect
   style="fill:#ffffff"
   id="rect755"
   height="19.646"
   width="12.494"
   y="494.56201"
   x="140.528" />
	</g>
	<g
   id="g757">
		<rect
   style="fill:#ffffff"
   id="rect759"
   height="19.646"
   width="12.49"
   y="494.56201"
   x="154.284" />
	</g>
	<g
   id="g761">
		<rect
   style="fill:#ffffff"
   id="rect763"
   height="19.646"
   width="12.494"
   y="494.56201"
   x="168.036" />
	</g>
</g>
<g
   transform="translate(-563.503,-583.685)"
   id="g765">
	<path
   style="fill:#e2b628"
   id="path767"
   d="m 79.979,273.358 -1.716,-3.425 c -0.271,-0.54 -0.054,-1.197 0.489,-1.468 0.539,-0.271 1.194,-0.053 1.466,0.488 l 1.715,3.425 c -0.329,0.157 -0.662,0.3 -0.988,0.464 -0.329,0.164 -0.643,0.347 -0.966,0.516 z" />
	<path
   style="fill:#e2b628"
   id="path769"
   d="m 102.011,312.806 18.553,37.036 c 0.075,0.148 0.152,0.308 0.234,0.473 0.623,1.28 1.473,3.036 2.83,3.494 0.727,0.247 1.569,0.122 2.578,-0.384 0.822,-0.411 1.318,-0.969 1.52,-1.703 0.432,-1.589 -0.631,-3.719 -1.074,-4.401 -0.283,-0.432 -0.162,-1.014 0.271,-1.299 0.437,-0.285 1.015,-0.161 1.3,0.273 0.082,0.127 2.051,3.178 1.313,5.908 -0.339,1.269 -1.177,2.242 -2.489,2.899 -1.459,0.73 -2.811,0.894 -4.021,0.484 -2.097,-0.71 -3.191,-2.963 -3.917,-4.451 l -18.856,-37.657 c 1.225,1.049 2.264,2.351 3.031,3.882 -0.736,-1.468 -1.146,-3.013 -1.273,-4.554 z" />
	<path
   style="fill:#e2b628"
   id="path771"
   d="m 79.979,273.358 c 0.322,-0.169 0.637,-0.353 0.966,-0.516 0.326,-0.164 0.659,-0.307 0.988,-0.464 24.402,-11.572 53.692,-1.579 65.85,22.689 -3.078,-6.145 -10.554,-8.632 -16.696,-5.554 -6.147,3.079 -8.633,10.555 -5.555,16.7 -3.078,-6.146 -10.555,-8.631 -16.697,-5.554 -4.675,2.342 -7.223,7.23 -6.824,12.145 0.127,1.541 0.537,3.086 1.272,4.555 -0.768,-1.531 -1.807,-2.833 -3.031,-3.882 -3.688,-3.155 -9.055,-3.981 -13.668,-1.67 -6.144,3.078 -8.63,10.555 -5.552,16.698 -3.078,-6.144 -10.555,-8.63 -16.698,-5.552 -6.146,3.078 -8.63,10.554 -5.552,16.698 l -0.061,0.029 C 46.565,315.418 56.099,285.974 79.979,273.358 Z" />
</g>
</svg>