<?xml version="1.0" encoding="UTF-8" standalone="no"?>
<!-- Generator: Adobe Illustrator 16.0.0, SVG Export Plug-In . SVG Version: 6.00 Build 0)  -->

<svg
   xmlns:ns="&amp;ns_sfw;"
   xmlns:dc="http://purl.org/dc/elements/1.1/"
   xmlns:cc="http://creativecommons.org/ns#"
   xmlns:rdf="http://www.w3.org/1999/02/22-rdf-syntax-ns#"
   xmlns:svg="http://www.w3.org/2000/svg"
   xmlns="http://www.w3.org/2000/svg"
   xmlns:sodipodi="http://sodipodi.sourceforge.net/DTD/sodipodi-0.dtd"
   xmlns:inkscape="http://www.inkscape.org/namespaces/inkscape"
   version="1.1"
   x="0px"
   y="0px"
   width="498.68594"
   height="625.30353"
   viewBox="0 0 498.68594 625.30353"
   enable-background="new 0 0 1920 1080"
   xml:space="preserve"
   id="svg3926"
   inkscape:version="0.91 r13725"
   sodipodi:docname="APPCC3.svg"><defs
   id="defs4326">
	
	
	
	
	
	
	
	
	
	
	
	
	
	
</defs><sodipodi:namedview
   pagecolor="#ffffff"
   bordercolor="#666666"
   borderopacity="1"
   objecttolerance="10"
   gridtolerance="10"
   guidetolerance="10"
   inkscape:pageopacity="0"
   inkscape:pageshadow="2"
   inkscape:window-width="1920"
   inkscape:window-height="1027"
   id="namedview4324"
   showgrid="false"
   fit-margin-top="0"
   fit-margin-left="0"
   fit-margin-right="0"
   fit-margin-bottom="0"
   inkscape:zoom="0.25337993"
   inkscape:cx="-134.78329"
   inkscape:cy="230.09028"
   inkscape:window-x="-8"
   inkscape:window-y="-8"
   inkscape:window-maximized="1"
   inkscape:current-layer="svg3926" />
<metadata
   id="metadata3928">
	<ns:sfw>
		<ns:slices />
		<ns:sliceSourceBounds
   width="12464.3"
   height="10106.4"
   y="-6982.3"
   x="-5344.5"
   bottomLeftOrigin="true" />
	</ns:sfw>
<rdf:RDF><cc:Work
     rdf:about=""><dc:format>image/svg+xml</dc:format><dc:type
       rdf:resource="http://purl.org/dc/dcmitype/StillImage" /><dc:title></dc:title></cc:Work></rdf:RDF></metadata>
<g
   id="Capa_2"
   transform="translate(-1307.814,-88.796479)">
</g>
<g
   id="g4142"
   transform="translate(-1307.814,-88.796479)">
		<path
   inkscape:connector-curvature="0"
   id="path4144"
   d="m 1317.9,654.1 -1.2,-0.1 -1.7,-0.6 -0.6,-0.5 -0.6,-0.3 -0.6,-0.5 -1.2,-1.7 -0.6,-1.4 -0.4,-1.3 -0.1,-0.8 -0.2,-0.8 -0.1,-0.8 -0.2,-0.8 -0.1,-0.9 -0.3,-5.4 0.1,-1.3 -0.1,-1 0.1,-2.5 0,-0.7 0.1,-1.6 0.2,-0.8 0,-0.8 0,-0.6 0.4,-1.6 0,-0.7 1.2,-3.1 0.4,-0.7 0.6,-0.4 0.3,-0.6 0.7,-0.6 0.7,-0.5 1.2,-0.5 0.8,-0.2 1.5,-0.2 3.2,0.1 1.4,0.4 1.1,0.5 0.9,0.5 0.3,0.8 0,0.8 -0.4,0.5 -0.7,0.2 -0.8,-0.1 -0.7,-0.3 -0.6,-0.3 -0.7,-0.3 -0.7,-0.1 -2.4,0 -1.3,0.4 -0.5,0.3 -1,0.9 -0.5,0.7 -0.3,0.7 -0.4,1.3 -0.3,1.7 0,0.7 -0.1,0.9 -0.2,2.4 0,0.8 -0.1,0.7 0,0.9 0,0.8 0.2,6.8 -0.1,0.8 0.3,1.6 0.2,0.6 0,0.9 0.5,1.4 0.1,0.7 0.3,0.5 1,1.2 0.6,0.6 0.7,0.3 0.6,0.2 1.2,0.1 1.1,-0.1 1.3,-0.8 0.6,-0.5 0.5,-0.6 0.4,-0.6 0.2,-0.8 0.6,-2.8 -0.1,-0.9 0.1,-2.4 -0.1,-1 0,-1.2 0,-0.7 -0.4,-0.8 -0.7,-0.3 -0.9,0.2 -0.7,0 -0.9,-0.2 -0.6,0.1 -0.8,0 -0.7,-0.4 -0.4,-0.8 0.3,-1 0.8,-0.3 1.5,0 0.9,0 0.7,-0.1 0.8,0 0.8,0.1 1.5,0 0.9,-0.1 0.7,0.6 0.4,0.6 0.1,1.6 -0.1,1.6 0,0.8 0,0.7 0,3.1 -0.1,0.9 -0.1,0.5 -0.2,1.6 -0.7,2.2 -0.2,0.6 -0.5,0.6 -1,1.3 -0.5,0.5 -0.7,0.3 -0.7,0.5 -0.6,0.2 -0.8,0.1 -0.7,0.3 -1.2,0 -0.9,0.1 z" />
		<path
   inkscape:connector-curvature="0"
   id="path4146"
   d="m 1336.3,654 -0.7,-0.1 -0.6,-0.2 -1.6,-1 -0.8,-1.1 -0.5,-1.4 -0.1,-0.6 -0.2,-2.4 0,-1.1 0,-0.5 0,-5.8 0,-0.6 0,-1.3 0,-1.7 0,-0.6 0,-0.6 -0.1,-0.7 0,-0.7 -0.1,-1.9 0.2,-0.7 0.5,-0.3 0.6,0 0.7,0 0.6,0.4 0.5,0.6 0,0.7 0,0.6 0,0.7 0,3.5 0,0.7 0,0.7 0,0.5 0,0.8 -0.1,2.4 0,0.7 0,0.6 0,0.7 0,0.7 0.1,2 0,1.1 0.1,0.6 0.3,1.4 0.3,0.5 0.5,0.6 0.5,0.2 0.6,0.2 2.1,0 0.7,-0.3 0.6,-0.1 1.2,-0.7 0.5,-0.5 0.5,-0.5 0.5,-0.8 0.2,-1 0,-0.6 0,-1.3 -0.1,-1.8 0.1,-2.4 -0.1,-0.6 0.1,-0.6 0,-0.8 0,-0.7 0,-0.8 0,-0.6 0,-0.7 0,-0.7 -0.1,-1.3 0.1,-0.8 0,-1.3 0,-0.7 0.3,-0.7 0.7,-0.3 0.6,0 0.6,0 0.6,0.2 0.3,1.1 0,0.6 0,2.4 0,2.8 -0.1,1.2 0.1,0.7 0,11.5 0.1,1.2 -0.1,0.7 -0.6,0.3 -1.2,0 -0.7,-0.3 -0.5,-0.5 0,-0.7 -0.3,-0.2 -0.4,0.1 -1.6,1.1 -1.2,0.5 -0.6,0.2 -0.6,0.2 -1.7,0.1 -0.7,-0.2 z" />
		<path
   inkscape:connector-curvature="0"
   id="path4148"
   d="m 1351.8,627.2 0,-0.6 0.6,-1.2 0.4,-0.6 0.3,-0.6 0.8,-0.6 0.9,-0.4 0.8,0 0.4,0.5 0,0.6 -0.4,0.6 -0.5,0.7 -0.4,0.5 -0.4,0.6 -0.8,0.8 -1,0.2 -0.7,-0.5 z m 0.4,24.9 -0.2,-3.5 0,-0.7 0,-3.8 0,-0.7 0,-0.7 0,-0.6 0,-0.8 0,-0.7 0,-0.6 0,-1 0,-1 0,-1 0,-0.7 0,-0.7 0,-1.4 0,-0.7 -0.1,-0.6 0,-1.3 0.1,-0.7 0.6,-0.2 1,0 1,0.3 0.3,0.5 0.1,1.3 0,0.8 0,0.7 0,0.8 0,0.6 0,2.5 -0.1,1.7 0,2.4 0,0.8 0,5.3 0,0.7 0.1,0.7 0,0.5 0,0.7 0.1,1.4 -0.1,0.7 -0.8,0.2 -1,0 -0.7,-0.3 -0.4,-0.5 0,-0.4 z" />
		<path
   inkscape:connector-curvature="0"
   id="path4150"
   d="m 1364.7,653.9 -0.7,-0.1 -0.6,-0.2 -0.6,-0.2 -0.5,-0.3 -0.5,-0.4 -0.5,-0.4 -0.7,-1.1 -0.3,-0.7 -0.3,-1.2 0,-0.7 0,-2.1 0.1,-0.7 0.1,-0.6 0.2,-0.7 0.2,-0.5 0.2,-0.7 0.4,-0.6 0.3,-0.5 0.4,-0.5 0.5,-0.4 0.6,-0.6 0.6,-0.3 1.9,-0.9 0.7,-0.1 1.3,-0.2 1,0 0.9,-0.1 0.6,0.1 0.7,-0.2 0.4,-0.6 -0.1,-1.4 -0.1,-0.7 -0.1,-0.6 -0.2,-0.8 -0.2,-0.5 -0.4,-0.5 -0.5,-0.4 -0.5,-0.4 -0.6,-0.1 -1,0 -1,-0.1 -1.1,0.2 -0.9,0.3 -1.2,0.8 -0.7,0.1 -0.6,-0.4 -0.3,-0.4 -0.1,-0.8 0.4,-0.7 0.5,-0.4 0.6,-0.3 0.6,-0.3 1.2,-0.5 0.6,0 0.7,-0.2 0.7,0 2,0 0.7,0.2 1,0.2 0.9,0.4 0.5,0.3 0.5,0.4 0.8,1.2 0.3,0.6 0.3,0.7 0.3,1.3 0.2,1.3 0,1.1 0.1,1 0,1.3 0,0.6 0,0.7 0,2.1 -0.1,1.4 0.1,0.5 -0.1,2.4 0.1,1.6 0,0.7 0,0.7 0.1,1.2 -0.2,0.8 -1,0.3 -1.2,-0.3 -0.5,-0.6 -0.1,-0.7 -0.3,-0.2 -0.4,0.2 -0.9,0.8 -0.6,0.4 -1.1,0.4 -1.2,0.4 -2.3,0.2 z m 2.5,-2.6 0.6,-0.2 1.2,-0.6 1,-0.6 0.5,-0.5 0.4,-0.8 0.2,-0.9 0,-0.6 0,-0.7 0,-3.4 0,-0.5 -0.3,-0.8 -0.6,-0.2 -2.5,-0.1 -0.7,0.2 -1.2,0.3 -1.1,0.8 -0.4,0.5 -0.4,0.6 -0.3,0.5 -0.3,0.6 -0.1,0.6 -0.1,1.7 0,1.1 0.1,0.6 0.5,1.2 0.4,0.4 0.6,0.3 0.7,0.3 1,0.1 0.8,0.1 z" />
		<path
   inkscape:connector-curvature="0"
   id="path4152"
   d="m 1384.1,653.9 -0.6,-0.1 -0.6,-0.2 -0.7,-0.1 -0.6,-0.1 -0.6,-0.3 -1.2,-0.5 -0.5,-0.4 -0.6,-0.4 -0.3,-0.6 0.1,-0.9 0.3,-0.5 0.5,-0.3 0.7,0.1 0.6,0.3 1.9,1.1 1.3,0.3 1.7,0.2 1,-0.1 0.6,-0.2 0.6,-0.3 0.5,-0.5 0.6,-1 0.1,-0.7 0,-1 -0.1,-1.2 -0.2,-0.6 -0.4,-0.7 -0.5,-0.5 -0.9,-0.7 -0.9,-0.5 -0.5,-0.3 -1.1,-0.4 -0.9,-0.4 -1.2,-0.7 -1.7,-1.2 -1.2,-1.5 -0.3,-0.7 -0.2,-0.6 -0.1,-0.6 -0.1,-2 0.1,-0.7 0.1,-0.6 0.3,-0.6 0.3,-0.7 1,-0.9 0.5,-0.2 0.5,-0.4 2.3,-0.5 0.7,0 1.7,0 0.6,0.1 1.3,0.4 0.6,0.1 0.6,0.3 0.6,0.3 0.4,0.7 0,0.8 -0.2,0.5 -0.5,0.4 -0.7,-0.1 -0.7,-0.2 -1,-0.4 -1,-0.2 -0.7,-0.2 -2.1,0.1 -0.6,0.3 -0.6,0.5 -0.3,0.4 -0.1,0.6 -0.1,1 0,1.1 0.2,0.5 0.4,0.6 0.5,0.5 0.4,0.2 0.6,0.5 0.6,0.3 0.9,0.5 3.1,1.6 1,0.8 0.4,0.4 0.9,1.1 0.5,1.2 0.2,0.6 0.1,0.7 0,2 -0.1,0.6 -0.4,1.3 -0.3,0.6 -0.8,1.2 -0.5,0.5 -1.8,0.9 -0.7,0.2 -0.6,0.1 -1,0 -1,0 -0.1,0 z" />
		<path
   inkscape:connector-curvature="0"
   id="path4154"
   d="m 1409.4,653.9 -0.9,0 -0.7,0 -0.6,-0.1 -0.6,-0.4 -1.2,-0.6 -0.5,-0.4 -0.5,-0.5 -0.3,-0.6 -0.4,-0.6 -0.6,-1.1 -0.1,-0.6 -0.3,-0.6 -0.3,-1.5 -0.1,-0.8 -0.2,-1.2 -0.1,-1.4 0,-2 0.1,-0.7 0.1,-0.8 0,-0.6 0.1,-0.7 0.1,-0.7 0.1,-0.6 0.4,-1.4 0.8,-1.9 1.2,-1.6 0.5,-0.5 0.6,-0.3 0.5,-0.4 0.6,-0.3 0.6,-0.2 0.6,-0.1 0.7,-0.1 1,0 1.1,0 0.7,0.2 0.6,0.1 1.3,0.5 0.5,0.3 0.5,0 0.3,-0.5 0,-0.6 0.1,-1.1 -0.1,-4.3 0.1,-0.6 0,-0.7 0,-0.7 -0.1,-0.8 0,-0.6 -0.1,-0.7 0.2,-0.7 0.5,-0.3 1,0 0.9,0.3 0.4,0.6 0.2,1.2 0,0.7 0.1,0.6 0,0.7 0,1.6 0,2.7 0,0.6 0,1.7 0,0.7 0,1 0,0.6 0,1.8 0,1.9 0.1,0.8 -0.1,6.4 0,0.8 0,5.1 0.2,2.6 -0.3,0.7 -0.6,0.4 -0.7,-0.1 -0.8,-0.2 -0.5,-0.5 -0.1,-0.6 -0.3,-0.4 -0.4,0.1 -0.5,0.5 -0.5,0.3 -1.1,0.8 -0.6,0.1 -1.3,0.4 -1.3,-0.1 z m 0.6,-2.5 1,-0.1 0.6,-0.1 0.5,-0.2 0.6,-0.2 0.5,-0.3 0.5,-0.5 0.4,-0.6 0.4,-0.7 0.2,-0.9 0,-5.8 0,-0.7 -0.1,-1 0,-4.1 -0.2,-0.9 -0.4,-0.8 -1.7,-1.2 -1.3,-0.3 -1.1,0 -1,0 -1,0.3 -0.9,0.4 -0.9,1.1 -0.3,0.5 -0.3,0.7 -0.2,0.7 -0.5,2.7 0,0.6 -0.1,1.3 0,1.1 0.1,1.8 0,0.5 0,1.3 0.3,1.3 0.1,0.8 0.2,0.5 0.2,0.6 0.3,0.7 0.4,0.5 0.5,0.4 1.1,0.6 0.7,0.2 1.4,-0.2 z" />
		<path
   inkscape:connector-curvature="0"
   id="path4156"
   d="m 1429,653.9 -1.9,-0.6 -0.6,-0.4 -1,-0.9 -1.2,-1.6 -0.3,-0.6 -0.5,-1.2 -0.2,-0.6 0,-0.8 -0.2,-0.6 0,-0.7 -0.1,-0.7 -0.1,-0.7 0,-2.6 0.2,-2.7 0.2,-1.3 0.5,-2.1 0.2,-0.7 0.3,-0.6 0.7,-1.1 0.9,-1.2 0.5,-0.4 0.6,-0.4 1.8,-0.8 1.4,-0.2 1,0 1,0.1 1.2,0.2 1.8,1 1,1.1 0.7,1.2 0.2,0.6 0.2,1.7 -0.2,1.7 -0.1,0.6 -0.1,0.7 -0.3,0.7 -1,1.7 -1.4,1.4 -0.6,0.5 -1.7,1 -0.6,0.2 -0.7,0.2 -1.2,0.5 -0.7,0.1 -0.7,0 -0.7,0.2 -0.6,0.3 -0.3,0.7 0.3,1.1 0.4,1 1,1.7 1.1,0.8 0.6,0.1 1.1,0.1 1,0 0.7,-0.2 0.7,-0.1 0.6,-0.3 0.9,-0.5 0.9,-0.7 0.7,-0.3 0.6,0.3 0.3,0.6 0.1,0.8 -0.3,0.7 -0.5,0.5 -0.6,0.5 -0.6,0.3 -0.7,0.2 -0.7,0.3 -1.3,0.3 -0.6,0.1 -2.1,0 -1,-0.2 z m -1.4,-10.6 1.3,-0.4 0.6,-0.2 1.2,-0.6 1.7,-1.1 0.4,-0.5 0.3,-0.6 0.3,-0.7 0.2,-0.6 0.2,-0.6 0.1,-0.7 0,-1 0,-1 -0.1,-0.7 -0.9,-1.1 -0.5,-0.2 -0.7,-0.3 -0.9,0 -1.2,0.1 -1,0.2 -0.5,0.3 -0.4,0.4 -0.4,0.5 -0.4,0.7 -0.5,1.3 -0.6,3.3 0,1.3 -0.1,1.3 0.4,0.7 0.7,0.2 0.8,0 z" />
		<path
   inkscape:connector-curvature="0"
   id="path4158"
   d="m 1450.6,653.5 -0.8,-0.2 -0.5,-0.9 0.1,-4.5 -0.1,-0.7 0,-0.8 0,-0.9 0.1,-0.7 -0.1,-0.8 0.1,-0.8 -0.1,-0.8 0,-0.8 0.1,-1.1 0,-3 0,-1.2 0,-0.7 0.1,-2 0,-1.1 -0.1,-0.7 0.1,-0.9 -0.1,-0.8 0,-0.8 0,-0.7 0,-2.9 -0.1,-0.9 0,-0.8 0,-0.6 0.1,-0.8 0,-1.4 0.4,-0.9 0.8,-0.5 0.8,0.1 0.7,0 0.8,-0.1 1.5,0 0.9,0.1 1.2,-0.1 1.1,0.1 0.9,0 0.7,0.2 0.8,0.1 0.7,0.3 0.8,0.4 0.7,0.3 0.5,0.4 1.1,1.2 0.4,0.6 0.3,0.7 0.6,1.4 0.2,0.9 0.4,3.6 0,1.2 -0.2,0.8 0,0.8 -0.1,0.7 -0.7,2.1 -0.3,0.6 -0.9,1.2 -0.5,0.6 -0.6,0.5 -0.6,0.6 -1.3,0.7 -2.2,0.6 -4.6,0.3 -0.6,0.3 -0.4,0.8 0.1,0.7 0,5.4 -0.1,0.7 0,3.3 -0.4,1.1 -0.8,0.4 -0.9,0.1 z m 5.4,-15.2 1.5,-0.3 0.8,-0.3 0.7,-0.2 0.7,-0.4 1.2,-1.2 0.3,-0.7 0.4,-0.6 0.5,-1.6 0,-0.8 0.1,-0.8 0,-2.3 -0.1,-1.4 -0.1,-0.6 -0.3,-1.1 -0.5,-1.2 -0.5,-0.7 -1.1,-0.9 -0.7,-0.1 -0.9,-0.3 -1.8,-0.1 -1.1,0.1 -0.7,0 -0.8,-0.1 -0.7,0.5 -0.3,0.9 0,0.7 -0.1,3.6 0,1.1 0,0.8 0,0.8 0,0.7 0.1,1.5 -0.1,0.9 0.1,1.2 -0.2,1.8 0.4,0.8 0.8,0.4 1.2,0.1 1.2,-0.2 z" />
		<path
   inkscape:connector-curvature="0"
   id="path4160"
   d="m 1471.3,653.5 -0.9,-0.3 -0.3,-1 0,-2.3 0,-0.8 -0.1,-1.7 0,-4.2 0.1,-0.7 0,-0.7 -0.1,-9.4 -0.1,-0.8 0.2,-0.6 0.5,-0.3 1,0 1,0.2 0.5,0.7 0,0.5 0.3,0.5 0.4,-0.3 0.5,-0.5 0.5,-0.4 0.6,-0.3 1.2,-0.6 0.7,-0.2 1.3,-0.2 1.3,0.2 0.7,0.2 0.5,0.5 0.1,0.8 -0.2,0.7 -0.5,0.5 -0.7,0.1 -0.7,-0.2 -0.7,0 -0.6,0 -0.7,0.1 -0.6,0.2 -0.6,0.2 -0.6,0.3 -0.5,0.3 -1,1 -0.5,0.9 -0.2,0.9 0,0.6 0,1 0,0.8 0,1 -0.1,0.7 0.1,0.7 0,0.6 0,0.6 0,1.4 0,1.3 -0.1,1.3 0,2.1 0.1,0.7 0,2.2 -0.1,0.7 -0.3,0.7 -0.6,0.3 -0.8,0 z" />
		<path
   inkscape:connector-curvature="0"
   id="path4162"
   d="m 1488.8,653.9 -0.7,-0.1 -0.6,-0.2 -0.6,-0.2 -0.5,-0.3 -0.5,-0.4 -0.5,-0.4 -0.7,-1.1 -0.3,-0.7 -0.3,-1.2 0,-0.7 0,-2.1 0.1,-0.7 0.1,-0.6 0.2,-0.7 0.2,-0.5 0.2,-0.7 0.4,-0.6 0.3,-0.5 0.4,-0.5 0.5,-0.4 0.6,-0.6 0.6,-0.3 1.9,-0.9 0.7,-0.1 1.3,-0.2 1,0 0.9,-0.1 0.6,0.1 0.7,-0.2 0.4,-0.6 -0.1,-1.4 -0.1,-0.7 -0.1,-0.6 -0.2,-0.8 -0.2,-0.5 -0.4,-0.5 -0.5,-0.4 -0.5,-0.4 -0.6,-0.1 -1,0 -1,-0.1 -1.1,0.2 -0.9,0.3 -1.2,0.8 -0.7,0.1 -0.6,-0.4 -0.3,-0.4 -0.1,-0.8 0.4,-0.7 0.5,-0.4 0.6,-0.3 0.6,-0.3 1.2,-0.5 0.6,0 0.7,-0.2 0.7,0 2,0 0.7,0.2 1,0.2 0.9,0.4 0.5,0.3 0.5,0.4 0.8,1.2 0.3,0.6 0.3,0.7 0.3,1.3 0.2,1.3 0,1.1 0.1,1 0,1.3 0,0.6 0,0.7 0,2.1 -0.1,1.4 0.1,0.5 -0.1,2.4 0.1,1.6 0,0.7 0,0.7 0.1,1.2 -0.2,0.8 -1,0.3 -1.2,-0.3 -0.5,-0.6 -0.1,-0.7 -0.3,-0.2 -0.4,0.2 -0.9,0.8 -0.6,0.4 -1.1,0.4 -1.2,0.4 -2.3,0.2 z m 2.4,-2.6 0.6,-0.2 1.2,-0.6 1,-0.6 0.5,-0.5 0.4,-0.8 0.2,-0.9 0,-0.6 0,-0.7 0,-3.4 0,-0.5 -0.3,-0.8 -0.6,-0.2 -2.5,-0.1 -0.7,0.2 -1.2,0.3 -1.1,0.8 -0.4,0.5 -0.4,0.6 -0.3,0.5 -0.3,0.6 -0.1,0.6 -0.1,1.7 0,1.1 0.1,0.6 0.5,1.2 0.4,0.4 0.6,0.3 0.7,0.3 1,0.1 0.8,0.1 z m -1.5,-24.1 0,-0.6 0.6,-1.2 0.4,-0.6 0.3,-0.6 0.8,-0.6 0.9,-0.4 0.8,0 0.4,0.5 0,0.6 -0.4,0.6 -0.5,0.7 -0.4,0.5 -0.4,0.6 -0.8,0.8 -1,0.2 -0.7,-0.5 z" />
		<path
   inkscape:connector-curvature="0"
   id="path4164"
   d="m 1510,653.9 -1.4,-0.1 -1.2,-0.4 -0.6,-0.3 -1,-0.9 -0.5,-0.3 -0.4,-0.6 -0.6,-1.2 -0.2,-0.6 -0.4,-1.4 -0.2,-0.6 -0.4,-3.5 0,-1.7 0.1,-1.1 0,-0.6 0.2,-2.1 0.2,-0.6 0,-0.7 0.2,-0.7 0.2,-0.6 0.2,-0.7 0.2,-0.7 0.3,-0.4 0.3,-0.7 0.5,-0.5 0.4,-0.6 0.5,-0.4 0.5,-0.4 0.6,-0.3 1.9,-0.7 0.6,-0.1 1.1,-0.1 1,0 1.4,0.3 1.8,0.8 0.6,0.5 0.4,0.4 0.4,0.8 -0.1,0.8 -0.3,0.5 -0.6,0.3 -0.7,-0.2 -1.1,-0.8 -0.6,-0.4 -0.6,-0.2 -1.7,-0.2 -1,0.1 -0.6,0.1 -0.6,0.2 -0.5,0.4 -0.4,0.5 -0.4,0.5 -0.3,0.5 -0.2,0.6 -0.1,0.6 -0.2,0.6 -0.2,1.4 -0.1,0.5 -0.1,0.7 0,0.7 0,0.7 0,1.1 0,1.6 0.2,2.7 0.1,0.6 0.1,0.7 0.3,0.5 0.5,1.3 0.4,0.5 0.4,0.5 1.4,0.7 1.2,0.1 1,-0.1 1.3,-0.2 0.7,-0.2 0.8,-0.6 0.8,-0.7 0.7,-0.2 0.6,0.3 0.3,0.5 0.2,0.7 -0.3,0.9 -0.6,0.5 -0.5,0.3 -1.2,0.7 -0.6,0.1 -0.7,0.3 -0.6,0.1 -0.7,0 -2.1,0.2 z" />
		<path
   inkscape:connector-curvature="0"
   id="path4166"
   d="m 1527.6,653.9 -0.7,-0.2 -0.6,-0.3 -0.6,-0.1 -0.5,-0.4 -0.5,-0.3 -0.8,-1.1 -0.3,-0.6 -0.3,-0.6 -0.4,-1.3 -0.2,-1.9 0,-2.8 -0.1,-0.6 0,-0.8 0,-0.6 0,-0.7 0,-1.7 0,-0.6 -0.1,-1.8 0,-1.3 0,-1.4 0,-0.7 -0.4,-0.6 -1,-0.4 -1.2,-0.2 -0.3,-0.5 0,-0.7 0.4,-0.6 1.1,-0.3 1.1,0 0.3,-0.4 0,-0.8 0,-0.7 0,-0.7 0,-0.7 0,-2.1 -0.1,-1.3 0.2,-0.5 0.5,-0.5 1.2,0.1 0.7,0.3 0.4,0.5 0.1,1.3 0,1.4 0,0.5 -0.1,2.5 0.4,0.7 0.7,0.2 1.3,0 1.3,0 1.3,0 0.6,0.4 0.4,0.6 0,0.6 -0.3,0.5 -0.7,0.3 -0.6,0.1 -0.7,0 -1.3,0 -0.7,0 -0.6,0 -0.7,0.3 -0.3,0.7 0,0.7 0,0.7 0.1,0.7 -0.1,6.8 0.1,1 0,2.5 0.2,1.2 0.3,1.3 0.6,1.2 1,0.8 1,0.2 1.6,0 0.6,-0.1 0.7,-0.2 0.8,0 0.5,0.4 0.1,0.6 -0.2,0.8 -0.6,0.5 -1.3,0.4 -0.7,0.1 -0.7,0.2 -1,0.1 -0.9,-0.1 z" />
		<path
   inkscape:connector-curvature="0"
   id="path4168"
   d="m 1537.7,626.8 -0.6,-0.4 -0.3,-0.6 -0.2,-1 0.2,-0.9 0.4,-0.6 0.5,-0.4 1.1,0 1,0 0.5,0.4 0.5,0.6 0.1,1 -0.2,1.1 -0.4,0.4 -0.5,0.4 -1,0.1 -1.1,-0.1 z m 0,26.4 -0.4,-0.6 -0.1,-0.6 0,-0.6 -0.1,-0.7 0,-0.7 -0.1,-2.8 0,-1.1 0,-4 0,-1.1 0,-4.1 0,-0.7 0,-0.7 0,-0.5 0,-0.8 -0.1,-0.6 0,-0.7 0,-0.7 -0.1,-0.6 0.2,-0.8 0.5,-0.2 0.6,-0.1 0.6,0.1 0.7,0.2 0.4,0.7 0,1.3 0.1,0.6 0,2.2 0,1.1 0,1.7 0,0.7 0,3.1 0,0.6 -0.1,1.1 0,2.3 0,1 0,0.6 0.1,0.6 0,0.8 0,0.7 0,0.6 0,0.7 0,0.7 0,0.6 -0.1,0.7 -0.6,0.3 -1.2,0 -0.3,-0.3 z" />
		<path
   inkscape:connector-curvature="0"
   id="path4170"
   d="m 1552.3,653.9 -1.4,-0.1 -1.2,-0.4 -0.6,-0.3 -1,-0.9 -0.5,-0.3 -0.4,-0.6 -0.6,-1.2 -0.2,-0.6 -0.4,-1.4 -0.2,-0.6 -0.4,-3.5 0,-1.7 0.1,-1.1 0,-0.6 0.2,-2.1 0.2,-0.6 0,-0.7 0.2,-0.7 0.2,-0.6 0.2,-0.7 0.2,-0.7 0.3,-0.4 0.3,-0.7 0.5,-0.5 0.4,-0.6 0.5,-0.4 0.5,-0.4 0.6,-0.3 1.9,-0.7 0.6,-0.1 1.1,-0.1 1,0 1.4,0.3 1.8,0.8 0.6,0.5 0.4,0.4 0.4,0.8 -0.1,0.8 -0.3,0.5 -0.6,0.3 -0.7,-0.2 -1.1,-0.8 -0.6,-0.4 -0.6,-0.2 -1.7,-0.2 -1,0.1 -0.6,0.1 -0.6,0.2 -0.5,0.4 -0.4,0.5 -0.4,0.5 -0.3,0.5 -0.2,0.6 -0.1,0.6 -0.2,0.6 -0.2,1.4 -0.1,0.5 -0.1,0.7 0,0.7 0,0.7 0,1.1 0,1.6 0.2,2.7 0.1,0.6 0.1,0.7 0.3,0.5 0.5,1.3 0.4,0.5 0.4,0.5 1.4,0.7 1.2,0.1 1,-0.1 1.3,-0.2 0.7,-0.2 0.8,-0.6 0.8,-0.7 0.7,-0.2 0.6,0.3 0.3,0.5 0.2,0.7 -0.3,0.9 -0.6,0.5 -0.5,0.3 -1.2,0.7 -0.6,0.1 -0.7,0.3 -0.6,0.1 -0.7,0 -2.1,0.2 z" />
		<path
   inkscape:connector-curvature="0"
   id="path4172"
   d="m 1567.9,653.9 -0.7,-0.1 -0.6,-0.2 -0.6,-0.2 -0.5,-0.3 -0.5,-0.4 -0.5,-0.4 -0.7,-1.1 -0.3,-0.7 -0.3,-1.2 0,-0.7 0,-2.1 0.1,-0.7 0.1,-0.6 0.2,-0.7 0.2,-0.5 0.2,-0.7 0.4,-0.6 0.3,-0.5 0.4,-0.5 0.5,-0.4 0.6,-0.6 0.6,-0.3 1.9,-0.9 0.7,-0.1 1.3,-0.2 1,0 0.9,-0.1 0.6,0.1 0.7,-0.2 0.4,-0.6 -0.1,-1.4 -0.1,-0.7 -0.1,-0.6 -0.2,-0.8 -0.2,-0.5 -0.4,-0.5 -0.5,-0.4 -0.5,-0.4 -0.6,-0.1 -1,0 -1,-0.1 -1.1,0.2 -0.9,0.3 -1.2,0.8 -0.7,0.1 -0.6,-0.4 -0.3,-0.4 -0.1,-0.8 0.4,-0.7 0.5,-0.4 0.6,-0.3 0.6,-0.3 1.2,-0.5 0.6,0 0.7,-0.2 0.7,0 2,0 0.7,0.2 1,0.2 0.9,0.4 0.5,0.3 0.5,0.4 0.8,1.2 0.3,0.6 0.3,0.7 0.3,1.3 0.2,1.3 0,1.1 0.1,1 0,1.3 0,0.6 0,0.7 0,2.1 -0.1,1.4 0.1,0.5 -0.1,2.4 0.1,1.6 0,0.7 0,0.7 0.1,1.2 -0.2,0.8 -1,0.3 -1.2,-0.3 -0.5,-0.6 -0.1,-0.7 -0.3,-0.2 -0.4,0.2 -0.9,0.8 -0.6,0.4 -1.1,0.4 -1.2,0.4 -2.3,0.2 z m 2.4,-2.6 0.6,-0.2 1.2,-0.6 1,-0.6 0.5,-0.5 0.4,-0.8 0.2,-0.9 0,-0.6 0,-0.7 0,-3.4 0,-0.5 -0.3,-0.8 -0.6,-0.2 -2.5,-0.1 -0.7,0.2 -1.2,0.3 -1.1,0.8 -0.4,0.5 -0.4,0.6 -0.3,0.5 -0.3,0.6 -0.1,0.6 -0.1,1.7 0,1.1 0.1,0.6 0.5,1.2 0.4,0.4 0.6,0.3 0.7,0.3 1,0.1 0.8,0.1 z" />
		<path
   inkscape:connector-curvature="0"
   id="path4174"
   d="m 1587.3,653.9 -0.6,-0.1 -0.6,-0.2 -0.7,-0.1 -0.6,-0.1 -0.6,-0.3 -1.2,-0.5 -0.5,-0.4 -0.6,-0.4 -0.3,-0.6 0.1,-0.9 0.3,-0.5 0.5,-0.3 0.7,0.1 0.6,0.3 1.9,1.1 1.3,0.3 1.7,0.2 1,-0.1 0.6,-0.2 0.6,-0.3 0.5,-0.5 0.6,-1 0.1,-0.7 0,-1 -0.1,-1.2 -0.2,-0.6 -0.4,-0.7 -0.5,-0.5 -0.9,-0.7 -0.9,-0.5 -0.5,-0.3 -1.1,-0.4 -0.9,-0.4 -1.2,-0.7 -1.7,-1.2 -1.2,-1.5 -0.3,-0.7 -0.2,-0.6 -0.1,-0.6 -0.1,-2 0.1,-0.7 0.1,-0.6 0.3,-0.6 0.3,-0.7 1,-0.9 0.5,-0.2 0.5,-0.4 2.3,-0.5 0.7,0 1.7,0 0.6,0.1 1.3,0.4 0.6,0.1 0.6,0.3 0.6,0.3 0.4,0.7 0,0.8 -0.2,0.5 -0.5,0.4 -0.7,-0.1 -0.7,-0.2 -1,-0.4 -1,-0.2 -0.7,-0.2 -2.1,0.1 -0.6,0.3 -0.6,0.5 -0.3,0.4 -0.1,0.6 -0.1,1 0,1.1 0.2,0.5 0.4,0.6 0.5,0.5 0.4,0.2 0.6,0.5 0.6,0.3 0.9,0.5 3.1,1.6 1,0.8 0.4,0.4 0.9,1.1 0.5,1.2 0.2,0.6 0.1,0.7 0,2 -0.1,0.6 -0.4,1.3 -0.3,0.6 -0.8,1.2 -0.5,0.5 -1.8,0.9 -0.7,0.2 -0.6,0.1 -1,0 -1,0 -0.1,0 z" />
		<path
   inkscape:connector-curvature="0"
   id="path4176"
   d="m 1610.9,653.5 -1.3,-0.6 -1.1,-0.9 -0.6,-0.6 -0.3,-0.6 -0.4,-0.6 -0.4,-0.7 -0.5,-1.4 -0.1,-0.8 -0.2,-0.8 -0.2,-0.6 -0.5,-2.5 0.1,-0.8 -0.2,-2.3 0.1,-1 -0.1,-0.7 0,-0.7 -0.1,-1.2 0.1,-1.2 -0.1,-0.7 0.1,-1.2 0,-1 0.3,-2.4 0,-0.8 0.1,-0.6 0.1,-0.9 0.2,-0.8 0.3,-0.6 0.1,-0.8 0.3,-0.8 0.1,-0.6 0.3,-0.8 0.9,-1.3 0.4,-0.5 1.2,-1.2 0.6,-0.3 0.7,-0.2 0.8,-0.4 0.8,0 0.7,-0.1 2.3,0 1.6,0.3 1.4,0.6 0.8,0.2 0.7,0.5 0.4,0.8 -0.1,0.8 -0.4,0.6 -0.8,0.1 -0.7,-0.1 -0.7,-0.4 -0.8,-0.2 -0.7,-0.3 -0.7,-0.1 -1.2,-0.1 -1.2,0.2 -0.6,0 -0.6,0.3 -0.5,0.3 -0.6,0.5 -0.5,0.5 -0.2,0.8 -0.7,1.3 -0.1,0.7 -0.7,4 -0.2,7.2 0.1,0.8 0,0.7 0.1,0.6 0,0.9 -0.1,0.8 0.1,0.7 0.2,2.3 0.2,1.5 0.3,0.7 0.1,0.9 0.2,0.6 0.4,0.9 0.4,0.6 0.6,0.5 0.7,0.5 0.6,0.3 0.7,0.2 1.2,0 1.1,-0.1 1.2,-0.1 1,-0.2 1.3,-0.5 0.6,-0.5 0.9,0 0.7,0.6 0,1 -0.6,1 -3.2,1.3 -1.8,0.3 -1.2,-0.1 -1.2,0.1 -2,-0.8 z" />
		<path
   inkscape:connector-curvature="0"
   id="path4178"
   d="m 1630.7,653.8 -0.6,0 -1.2,-0.6 -0.6,-0.4 -0.6,-0.3 -0.9,-0.9 -0.4,-0.5 -0.7,-1.3 -0.5,-1.2 -0.3,-1.2 -0.4,-2.1 -0.1,-1.4 0,-2.7 0.1,-1.4 0.1,-1.3 0.1,-0.7 0.5,-2 0.3,-0.5 0.5,-1.3 0.4,-0.6 0.8,-1 0.6,-0.5 0.5,-0.3 0.8,-0.4 1,-0.4 1,-0.2 1.3,0 1,0 0.7,0.1 1.3,0.4 0.5,0.2 0.5,0.3 1,0.8 0.8,1.1 0.7,1.2 0.2,0.7 0.3,0.5 0.1,0.7 0.2,0.7 0.1,0.6 0.1,0.7 0.1,1.4 0.2,1.3 -0.1,2 0,0.8 0,0.7 -0.3,2.1 -0.1,0.5 -0.6,1.9 -0.3,0.7 -0.3,0.5 -0.3,0.7 -0.4,0.5 -0.5,0.5 -0.5,0.5 -0.5,0.4 -1.1,0.7 -1.2,0.3 -0.7,0.1 -2,0 -0.6,-0.4 z m 2.7,-2.5 0.6,-0.2 0.6,-0.2 0.6,-0.4 0.4,-0.5 0.4,-0.7 0.3,-0.6 0.2,-0.6 0.2,-0.7 0.1,-0.7 0,-0.6 0.1,-0.8 0.1,-0.6 0,-0.7 0,-0.8 0,-1.1 0.1,-0.9 -0.1,-2 -0.2,-1.3 -0.2,-0.7 -0.1,-0.6 -0.5,-1.2 -0.3,-0.6 -0.4,-0.5 -0.5,-0.5 -1.1,-0.7 -0.6,-0.1 -0.9,0 -1,0.1 -1.2,0.3 -0.6,0.6 -0.6,0.8 -0.6,1.1 -0.1,0.7 -0.2,0.7 -0.2,1.3 0,0.7 -0.1,0.6 -0.1,1.4 0.1,2 0,1.3 0,0.8 0.1,0.6 0.5,2.1 0.2,0.7 0.2,0.5 0.4,0.6 0.4,0.6 0.6,0.5 0.5,0.3 0.7,0.2 2.2,-0.2 z" />
		<path
   inkscape:connector-curvature="0"
   id="path4180"
   d="m 1646.4,653.5 -0.9,-0.3 -0.3,-1 0,-2.3 0,-0.8 -0.1,-1.7 0,-4.2 0.1,-0.7 0,-0.7 -0.1,-9.4 -0.1,-0.8 0.2,-0.6 0.5,-0.3 1,0 1,0.2 0.5,0.7 0,0.5 0.3,0.5 0.4,-0.3 0.5,-0.5 0.5,-0.4 0.6,-0.3 1.2,-0.6 0.7,-0.2 1.3,-0.2 1.3,0.2 0.7,0.2 0.5,0.5 0.1,0.8 -0.2,0.7 -0.5,0.5 -0.7,0.1 -0.7,-0.2 -0.7,0 -0.6,0 -0.7,0.1 -0.6,0.2 -0.6,0.2 -0.6,0.3 -0.5,0.3 -1,1 -0.5,0.9 -0.2,0.9 0,0.6 0,1 0,0.8 0,1 -0.1,0.7 0.1,0.7 0,0.6 0,0.6 0,1.4 0,1.3 -0.1,1.3 0,2.1 0.1,0.7 0,2.2 -0.1,0.7 -0.3,0.7 -0.6,0.3 -0.8,0 z" />
		<path
   inkscape:connector-curvature="0"
   id="path4182"
   d="m 1661,653.5 -0.9,-0.3 -0.3,-1 0,-2.3 0,-0.8 -0.1,-1.7 0,-4.2 0.1,-0.7 0,-0.7 -0.1,-9.4 -0.1,-0.8 0.2,-0.6 0.5,-0.3 1,0 1,0.2 0.5,0.7 0,0.5 0.3,0.5 0.4,-0.3 0.5,-0.5 0.5,-0.4 0.6,-0.3 1.2,-0.6 0.7,-0.2 1.3,-0.2 1.3,0.2 0.7,0.2 0.5,0.5 0.1,0.8 -0.2,0.7 -0.5,0.5 -0.7,0.1 -0.7,-0.2 -0.7,0 -0.6,0 -0.7,0.1 -0.6,0.2 -0.6,0.2 -0.6,0.3 -0.5,0.3 -1,1 -0.5,0.9 -0.2,0.9 0,0.6 0,1 0,0.8 0,1 -0.1,0.7 0.1,0.7 0,0.6 0,0.6 0,1.4 0,1.3 -0.1,1.3 0,2.1 0.1,0.7 0,2.2 -0.1,0.7 -0.3,0.7 -0.6,0.3 -0.8,0 z" />
		<path
   inkscape:connector-curvature="0"
   id="path4184"
   d="m 1679.9,653.9 -1.9,-0.6 -0.6,-0.4 -1,-0.9 -1.2,-1.6 -0.3,-0.6 -0.5,-1.2 -0.2,-0.6 0,-0.8 -0.2,-0.6 0,-0.7 -0.1,-0.7 -0.1,-0.7 0,-2.6 0.2,-2.7 0.2,-1.3 0.5,-2.1 0.2,-0.7 0.3,-0.6 0.7,-1.1 0.9,-1.2 0.5,-0.4 0.6,-0.4 1.8,-0.8 1.4,-0.2 1,0 1,0.1 1.2,0.2 1.8,1 1,1.1 0.7,1.2 0.2,0.6 0.2,1.7 -0.2,1.7 -0.1,0.6 -0.1,0.7 -0.3,0.7 -1,1.7 -1.4,1.4 -0.6,0.5 -1.7,1 -0.6,0.2 -0.7,0.2 -1.2,0.5 -0.7,0.1 -0.7,0 -0.7,0.2 -0.6,0.3 -0.3,0.7 0.3,1.1 0.4,1 1,1.7 1.1,0.8 0.6,0.1 1.1,0.1 1,0 0.7,-0.2 0.7,-0.1 0.6,-0.3 0.9,-0.5 0.9,-0.7 0.7,-0.3 0.6,0.3 0.3,0.6 0.1,0.8 -0.3,0.7 -0.5,0.5 -0.6,0.5 -0.6,0.3 -0.7,0.2 -0.7,0.3 -1.3,0.3 -0.6,0.1 -2.1,0 -1,-0.2 z m -1.4,-10.6 1.3,-0.4 0.6,-0.2 1.2,-0.6 1.7,-1.1 0.4,-0.5 0.3,-0.6 0.3,-0.7 0.2,-0.6 0.2,-0.6 0.1,-0.7 0,-1 0,-1 -0.1,-0.7 -0.9,-1.1 -0.5,-0.2 -0.7,-0.3 -0.9,0 -1.2,0.1 -1,0.2 -0.5,0.3 -0.4,0.4 -0.4,0.5 -0.4,0.7 -0.5,1.3 -0.6,3.3 0,1.3 -0.1,1.3 0.4,0.7 0.7,0.2 0.8,0 z" />
		<path
   inkscape:connector-curvature="0"
   id="path4186"
   d="m 1699.4,653.9 -1.4,-0.1 -1.2,-0.4 -0.6,-0.3 -1,-0.9 -0.5,-0.3 -0.4,-0.6 -0.6,-1.2 -0.2,-0.6 -0.4,-1.4 -0.2,-0.6 -0.4,-3.5 0,-1.7 0.1,-1.1 0,-0.6 0.2,-2.1 0.2,-0.6 0,-0.7 0.2,-0.7 0.2,-0.6 0.2,-0.7 0.2,-0.7 0.3,-0.4 0.3,-0.7 0.5,-0.5 0.4,-0.6 0.5,-0.4 0.5,-0.4 0.6,-0.3 1.9,-0.7 0.6,-0.1 1.1,-0.1 1,0 1.4,0.3 1.8,0.8 0.6,0.5 0.4,0.4 0.4,0.8 -0.1,0.8 -0.3,0.5 -0.6,0.3 -0.7,-0.2 -1.1,-0.8 -0.6,-0.4 -0.6,-0.2 -1.7,-0.2 -1,0.1 -0.6,0.1 -0.6,0.2 -0.5,0.4 -0.4,0.5 -0.4,0.5 -0.3,0.5 -0.2,0.6 -0.1,0.6 -0.2,0.6 -0.2,1.4 -0.1,0.5 -0.1,0.7 0,0.7 0,0.7 0,1.1 0,1.6 0.2,2.7 0.1,0.6 0.1,0.7 0.3,0.5 0.5,1.3 0.4,0.5 0.4,0.5 1.4,0.7 1.2,0.1 1,-0.1 1.3,-0.2 0.7,-0.2 0.8,-0.6 0.8,-0.7 0.7,-0.2 0.6,0.3 0.3,0.5 0.2,0.7 -0.3,0.9 -0.6,0.5 -0.5,0.3 -1.2,0.7 -0.6,0.1 -0.7,0.3 -0.6,0.1 -0.7,0 -2.1,0.2 z" />
		<path
   inkscape:connector-curvature="0"
   id="path4188"
   d="m 1717,653.9 -0.7,-0.2 -0.6,-0.3 -0.6,-0.1 -0.5,-0.4 -0.5,-0.3 -0.8,-1.1 -0.3,-0.6 -0.3,-0.6 -0.4,-1.3 -0.2,-1.9 0,-2.8 -0.1,-0.6 0,-0.8 0,-0.6 0,-0.7 0,-1.7 0,-0.6 -0.1,-1.8 0,-1.3 0,-1.4 0,-0.7 -0.4,-0.6 -1,-0.4 -1.2,-0.2 -0.3,-0.5 0,-0.7 0.4,-0.6 1.1,-0.3 1.1,0 0.3,-0.4 0,-0.8 0,-0.7 0,-0.7 0,-0.7 0,-2.1 -0.1,-1.3 0.2,-0.5 0.5,-0.5 1.2,0.1 0.7,0.3 0.4,0.5 0.1,1.3 0,1.4 0,0.5 -0.1,2.5 0.4,0.7 0.7,0.2 1.3,0 1.3,0 1.3,0 0.6,0.4 0.4,0.6 0,0.6 -0.3,0.5 -0.7,0.3 -0.6,0.1 -0.7,0 -1.3,0 -0.7,0 -0.6,0 -0.7,0.3 -0.3,0.7 0,0.7 0,0.7 0.1,0.7 -0.1,6.8 0.1,1 0,2.5 0.2,1.2 0.3,1.3 0.6,1.2 1,0.8 1,0.2 1.6,0 0.6,-0.1 0.7,-0.2 0.8,0 0.5,0.4 0.1,0.6 -0.2,0.8 -0.6,0.5 -1.3,0.4 -0.7,0.1 -0.7,0.2 -1,0.1 -0.9,-0.1 z" />
		<path
   inkscape:connector-curvature="0"
   id="path4190"
   d="m 1730.3,653.9 -0.7,-0.1 -0.6,-0.2 -0.6,-0.2 -0.5,-0.3 -0.5,-0.4 -0.5,-0.4 -0.7,-1.1 -0.3,-0.7 -0.3,-1.2 0,-0.7 0,-2.1 0.1,-0.7 0.1,-0.6 0.2,-0.7 0.2,-0.5 0.2,-0.7 0.4,-0.6 0.3,-0.5 0.4,-0.5 0.5,-0.4 0.6,-0.6 0.6,-0.3 1.9,-0.9 0.7,-0.1 1.3,-0.2 1,0 0.9,-0.1 0.6,0.1 0.7,-0.2 0.4,-0.6 -0.1,-1.4 -0.1,-0.7 -0.1,-0.6 -0.2,-0.8 -0.2,-0.5 -0.4,-0.5 -0.5,-0.4 -0.5,-0.4 -0.6,-0.1 -1,0 -1,-0.1 -1.1,0.2 -0.9,0.3 -1.2,0.8 -0.7,0.1 -0.6,-0.4 -0.3,-0.4 -0.1,-0.8 0.4,-0.7 0.5,-0.4 0.6,-0.3 0.6,-0.3 1.2,-0.5 0.6,0 0.7,-0.2 0.7,0 2,0 0.7,0.2 1,0.2 0.9,0.4 0.5,0.3 0.5,0.4 0.8,1.2 0.3,0.6 0.3,0.7 0.3,1.3 0.2,1.3 0,1.1 0.1,1 0,1.3 0,0.6 0,0.7 0,2.1 -0.1,1.4 0.1,0.5 -0.1,2.4 0.1,1.6 0,0.7 0,0.7 0.1,1.2 -0.2,0.8 -1,0.3 -1.2,-0.3 -0.5,-0.6 -0.1,-0.7 -0.3,-0.2 -0.4,0.2 -0.9,0.8 -0.6,0.4 -1.1,0.4 -1.2,0.4 -2.3,0.2 z m 2.5,-2.6 0.6,-0.2 1.2,-0.6 1,-0.6 0.5,-0.5 0.4,-0.8 0.2,-0.9 0,-0.6 0,-0.7 0,-3.4 0,-0.5 -0.3,-0.8 -0.6,-0.2 -2.5,-0.1 -0.7,0.2 -1.2,0.3 -1.1,0.8 -0.4,0.5 -0.4,0.6 -0.3,0.5 -0.3,0.6 -0.1,0.6 -0.1,1.7 0,1.1 0.1,0.6 0.5,1.2 0.4,0.4 0.6,0.3 0.7,0.3 1,0.1 0.8,0.1 z" />
		<path
   inkscape:connector-curvature="0"
   id="path4192"
   d="m 1749.8,653.9 -0.6,-0.1 -0.6,-0.2 -0.7,-0.1 -0.6,-0.1 -0.6,-0.3 -1.2,-0.5 -0.5,-0.4 -0.6,-0.4 -0.3,-0.6 0.1,-0.9 0.3,-0.5 0.5,-0.3 0.7,0.1 0.6,0.3 1.9,1.1 1.3,0.3 1.7,0.2 1,-0.1 0.6,-0.2 0.6,-0.3 0.5,-0.5 0.6,-1 0.1,-0.7 0,-1 -0.1,-1.2 -0.2,-0.6 -0.4,-0.7 -0.5,-0.5 -0.9,-0.7 -0.9,-0.5 -0.5,-0.3 -1.1,-0.4 -0.9,-0.4 -1.2,-0.7 -1.7,-1.2 -1.2,-1.5 -0.3,-0.7 -0.2,-0.6 -0.1,-0.6 -0.1,-2 0.1,-0.7 0.1,-0.6 0.3,-0.6 0.3,-0.7 1,-0.9 0.5,-0.2 0.5,-0.4 2.3,-0.5 0.7,0 1.7,0 0.6,0.1 1.3,0.4 0.6,0.1 0.6,0.3 0.6,0.3 0.4,0.7 0,0.8 -0.2,0.5 -0.5,0.4 -0.7,-0.1 -0.7,-0.2 -1,-0.4 -1,-0.2 -0.7,-0.2 -2.1,0.1 -0.6,0.3 -0.6,0.5 -0.3,0.4 -0.1,0.6 -0.1,1 0,1.1 0.2,0.5 0.4,0.6 0.5,0.5 0.4,0.2 0.6,0.5 0.6,0.3 0.9,0.5 3.1,1.6 1,0.8 0.4,0.4 0.9,1.1 0.5,1.2 0.2,0.6 0.1,0.7 0,2 -0.1,0.6 -0.4,1.3 -0.3,0.6 -0.8,1.2 -0.5,0.5 -1.8,0.9 -0.7,0.2 -0.6,0.1 -1,0 -1,0 -0.1,0 z" />
		<path
   inkscape:connector-curvature="0"
   id="path4194"
   d="m 1317.4,713.9 -0.9,0 -0.7,0 -0.6,-0.1 -0.6,-0.4 -1.2,-0.6 -0.5,-0.4 -0.5,-0.5 -0.3,-0.6 -0.4,-0.6 -0.6,-1.1 -0.1,-0.6 -0.3,-0.6 -0.3,-1.5 -0.1,-0.8 -0.2,-1.2 -0.1,-1.4 0,-2 0.1,-0.7 0.1,-0.8 0,-0.6 0.1,-0.7 0.1,-0.7 0.1,-0.6 0.4,-1.4 0.8,-1.9 1.2,-1.6 0.5,-0.5 0.6,-0.3 0.5,-0.4 0.6,-0.3 0.6,-0.2 0.6,-0.1 0.7,-0.1 1,0 1.1,0 0.7,0.2 0.6,0.1 1.3,0.5 0.5,0.3 0.5,0 0.3,-0.5 0,-0.6 0.1,-1.1 -0.1,-4.3 0.1,-0.6 0,-0.7 0,-0.7 -0.1,-0.8 0,-0.6 -0.1,-0.7 0.2,-0.7 0.5,-0.3 1,0 0.9,0.3 0.4,0.6 0.2,1.2 0,0.7 0.1,0.6 0,0.7 0,1.6 0,2.7 0,0.6 0,1.7 0,0.7 0,1 0,0.6 0,1.8 0,1.9 0.1,0.8 -0.1,6.4 0,0.8 0,5.1 0.2,2.6 -0.3,0.7 -0.6,0.4 -0.7,-0.1 -0.8,-0.2 -0.5,-0.5 -0.1,-0.6 -0.3,-0.4 -0.4,0.1 -0.5,0.5 -0.5,0.3 -1.1,0.8 -0.6,0.1 -1.3,0.4 -1.3,-0.1 z m 0.6,-2.5 1,-0.1 0.6,-0.1 0.5,-0.2 0.6,-0.2 0.5,-0.3 0.5,-0.5 0.4,-0.6 0.4,-0.7 0.2,-0.9 0,-5.8 0,-0.7 -0.1,-1 0,-4.1 -0.2,-0.9 -0.4,-0.8 -1.7,-1.2 -1.3,-0.3 -1.1,0 -1,0 -1,0.3 -0.9,0.4 -0.9,1.1 -0.3,0.5 -0.3,0.7 -0.2,0.7 -0.5,2.7 0,0.6 -0.1,1.3 0,1.1 0.1,1.8 0,0.5 0,1.3 0.3,1.3 0.1,0.8 0.2,0.5 0.2,0.6 0.3,0.7 0.4,0.5 0.5,0.4 1.1,0.6 0.7,0.2 1.4,-0.2 z" />
		<path
   inkscape:connector-curvature="0"
   id="path4196"
   d="m 1337,713.9 -1.9,-0.6 -0.6,-0.4 -1,-0.9 -1.2,-1.6 -0.3,-0.6 -0.5,-1.2 -0.2,-0.6 0,-0.8 -0.2,-0.6 0,-0.7 -0.1,-0.7 -0.1,-0.7 0,-2.6 0.2,-2.7 0.2,-1.3 0.5,-2.1 0.2,-0.7 0.3,-0.6 0.7,-1.1 0.9,-1.2 0.5,-0.4 0.6,-0.4 1.8,-0.8 1.4,-0.2 1,0 1,0.1 1.2,0.2 1.8,1 1,1.1 0.7,1.2 0.2,0.6 0.2,1.7 -0.2,1.7 -0.1,0.6 -0.1,0.7 -0.3,0.7 -1,1.7 -1.4,1.4 -0.6,0.5 -1.7,1 -0.6,0.2 -0.7,0.2 -1.2,0.5 -0.7,0.1 -0.7,0 -0.7,0.2 -0.6,0.3 -0.3,0.7 0.3,1.1 0.4,1 1,1.7 1.1,0.8 0.6,0.1 1.1,0.1 1,0 0.7,-0.2 0.7,-0.1 0.6,-0.3 0.9,-0.5 0.9,-0.7 0.7,-0.3 0.6,0.3 0.3,0.6 0.1,0.8 -0.3,0.7 -0.5,0.5 -0.6,0.5 -0.6,0.3 -0.7,0.2 -0.7,0.3 -1.3,0.3 -0.6,0.1 -2.1,0 -1,-0.2 z m -1.4,-10.6 1.3,-0.4 0.6,-0.2 1.2,-0.6 1.7,-1.1 0.4,-0.5 0.3,-0.6 0.3,-0.7 0.2,-0.6 0.2,-0.6 0.1,-0.7 0,-1 0,-1 -0.1,-0.7 -0.9,-1.1 -0.5,-0.2 -0.7,-0.3 -0.9,0 -1.2,0.1 -1,0.2 -0.5,0.3 -0.4,0.4 -0.4,0.5 -0.4,0.7 -0.5,1.3 -0.6,3.3 0,1.3 -0.1,1.3 0.4,0.7 0.7,0.2 0.8,0 z" />
		<path
   inkscape:connector-curvature="0"
   id="path4198"
   d="m 1358,713.1 -0.4,-0.7 0.1,-3 -0.1,-0.9 0,-0.9 0.1,-0.8 -0.1,-3 0.1,-0.7 0,-2.8 -0.1,-0.6 0.1,-2.8 0,-0.8 0.1,-1.5 0,-2.4 0.1,-1.9 -0.1,-5.1 0,-1.4 0,-0.7 0,-0.8 -0.1,-0.5 0,-0.8 0.4,-0.8 0.7,-0.3 0.8,-0.1 0.8,0.4 0.4,0.4 0.2,0.8 0,0.8 0.1,0.9 0,1.3 0,0.8 0,8.4 0.3,0.7 0.8,0.4 0.8,0.1 0.8,0 0.7,0 1.1,0 1.1,-0.1 0.7,0 0.8,-0.1 0.7,0 0.7,-0.1 0.9,0 0.7,-0.4 0.4,-0.6 0,-1.6 -0.1,-1.1 0.1,-2 -0.1,-6.3 0.1,-1.6 0.2,-0.7 0.8,-0.5 0.8,0.1 0.9,0.4 0.5,0.7 0,0.7 -0.1,0.8 0,3.2 0,0.7 0,2.4 -0.1,0.6 0.1,1.2 0,0.7 0.1,1.3 0,0.8 -0.1,0.7 0,0.9 0,0.8 0,0.7 0.1,1.5 -0.1,0.7 0,0.9 0,0.6 0.1,0.9 0,0.8 -0.1,0.9 0.1,1.5 0,1.8 0.1,1.1 -0.1,1.5 0,1.5 0.1,0.6 0,1 0.1,0.7 -0.3,0.6 -0.6,0.4 -0.9,0 -0.9,-0.4 -0.4,-0.6 0,-0.5 -0.2,-1.5 0.1,-1.6 -0.1,-0.8 0.1,-0.7 0,-1.2 -0.1,-1.1 0.1,-6.3 -0.4,-0.8 -0.8,-0.5 -0.7,0 -1.4,0.1 -1.2,-0.2 -4,0.1 -0.8,0.1 -0.8,0.4 -0.3,0.8 0,0.6 -0.1,1.5 0,0.9 -0.1,0.7 0,1.4 0.1,0.9 0,1.3 0.1,0.8 -0.1,1.6 0.1,0.8 -0.1,3 -0.4,0.7 -0.7,0.5 -0.8,0 -1.4,-0.3 z" />
		<path
   inkscape:connector-curvature="0"
   id="path4200"
   d="m 1381.6,686.8 -0.6,-0.4 -0.3,-0.6 -0.2,-1 0.2,-0.9 0.4,-0.6 0.5,-0.4 1.1,0 1,0 0.5,0.4 0.5,0.6 0.1,1 -0.2,1.1 -0.4,0.4 -0.5,0.4 -1,0.1 -1.1,-0.1 z m 0,26.4 -0.4,-0.6 -0.1,-0.6 0,-0.6 -0.1,-0.7 0,-0.7 -0.1,-2.8 0,-1.1 0,-4 0,-1.1 0,-4.1 0,-0.7 0,-0.7 0,-0.5 0,-0.8 -0.1,-0.6 0,-0.7 0,-0.7 -0.1,-0.6 0.2,-0.8 0.5,-0.2 0.6,-0.1 0.6,0.1 0.7,0.2 0.4,0.7 0,1.3 0.1,0.6 0,2.2 0,1.1 0,1.7 0,0.7 0,3.1 0,0.6 -0.1,1.1 0,2.3 0,1 0,0.6 0.1,0.6 0,0.8 0,0.7 0,0.6 0,0.7 0,0.7 0,0.6 -0.1,0.7 -0.6,0.3 -1.2,0 -0.3,-0.3 z" />
		<path
   inkscape:connector-curvature="0"
   id="path4202"
   d="m 1396,726 -0.7,0 -0.6,0 -0.7,-0.2 -0.6,-0.3 -0.6,-0.2 -1.6,-1.1 -0.3,-0.8 0.1,-0.7 0.3,-0.6 0.5,-0.2 0.6,0.1 0.5,0.4 0.6,0.4 0.7,0.3 1.2,0.4 1,0 0.6,0.1 1.1,-0.1 0.6,-0.2 1.2,-0.6 0.5,-0.4 0.3,-0.5 0.4,-0.7 0.3,-0.6 0.4,-1.2 0.1,-3.4 0,-0.6 0,-0.7 0,-0.9 0,-1 -0.2,-0.5 -0.5,0.1 -0.5,0.5 -1.4,0.9 -1,0.3 -0.7,0.1 -1,0 -1.1,-0.1 -1.6,-0.3 -1,-0.5 -0.5,-0.3 -0.5,-0.5 -0.5,-0.4 -0.4,-0.6 -0.4,-0.4 -0.3,-0.6 -0.3,-0.7 -0.2,-0.6 -0.4,-1.4 -0.1,-0.6 -0.2,-0.7 -0.1,-0.8 0,-0.7 -0.1,-1.3 0,-1.1 0,-1 0,-0.7 0.2,-1.2 0,-0.7 0.2,-1.5 0.6,-1.8 0.8,-1.9 0.4,-0.7 1.3,-1.3 0.5,-0.5 0.6,-0.2 1,-0.2 0.9,-0.2 2.1,0 1.3,0.3 0.7,0.3 0.6,0.3 0.6,0.5 0.5,0.3 0.4,0.2 0.4,-0.4 0.5,-0.7 0.8,-0.5 0.8,0 0.6,0.4 0.3,0.8 -0.1,3.3 0,1.6 0,1.7 0,1 0,1.6 0,0.7 0,0.7 0,0.6 0,1.7 0.1,0.9 0,0.7 -0.1,1.1 0,0.6 0,0.7 0,1 0,0.7 0,0.6 0,0.7 0,0.8 0,0.6 0,0.6 -0.1,0.7 0.1,0.7 0,2.8 0,0.5 -0.1,0.7 -0.6,1.9 -0.2,0.6 -0.3,0.6 -0.4,0.6 -0.4,0.5 -1,1 -1.1,0.8 -0.5,0.3 -0.7,0.2 -0.7,0.1 -0.6,0.3 -0.6,0 -1,0 -0.7,-0.3 z m 2.2,-14.7 0.6,-0.1 0.6,-0.2 0.6,-0.3 1.5,-1.2 0.4,-0.9 0.2,-0.9 0,-0.7 0,-0.7 0,-5.9 0,-0.6 0.1,-1.1 0,-1.8 -0.2,-1.3 -0.4,-0.8 -0.5,-0.5 -0.6,-0.4 -1.1,-0.7 -0.6,-0.2 -0.7,-0.1 -1,0 -1,0 -0.6,0.2 -0.6,0.3 -0.5,0.3 -0.5,0.4 -0.7,1.1 -0.4,1.3 -0.1,0.6 -0.1,0.8 0,0.5 -0.1,0.7 0,1.4 0,0.7 0,1.1 0,1 0,0.7 0.1,0.6 0,0.6 0.2,1.3 0.1,0.6 0.1,0.7 0.2,0.6 0.6,1.1 0.4,0.6 0.4,0.4 0.5,0.4 0.6,0.1 0.6,0.2 1,0 0.9,0.1 z" />
		<path
   inkscape:connector-curvature="0"
   id="path4204"
   d="m 1411.5,686.8 -0.6,-0.4 -0.3,-0.6 -0.2,-1 0.2,-0.9 0.4,-0.6 0.5,-0.4 1.1,0 1,0 0.5,0.4 0.5,0.6 0.1,1 -0.2,1.1 -0.4,0.4 -0.5,0.4 -1,0.1 -1.1,-0.1 z m 0,26.4 -0.4,-0.6 -0.1,-0.6 0,-0.6 -0.1,-0.7 0,-0.7 -0.1,-2.8 0,-1.1 0,-4 0,-1.1 0,-4.1 0,-0.7 0,-0.7 0,-0.5 0,-0.8 -0.1,-0.6 0,-0.7 0,-0.7 -0.1,-0.6 0.2,-0.8 0.5,-0.2 0.6,-0.1 0.6,0.1 0.7,0.2 0.4,0.7 0,1.3 0.1,0.6 0,2.2 0,1.1 0,1.7 0,0.7 0,3.1 0,0.6 -0.1,1.1 0,2.3 0,1 0,0.6 0.1,0.6 0,0.8 0,0.7 0,0.6 0,0.7 0,0.7 0,0.6 -0.1,0.7 -0.6,0.3 -1.2,0 -0.3,-0.3 z" />
		<path
   inkscape:connector-curvature="0"
   id="path4206"
   d="m 1425.2,713.9 -1.9,-0.6 -0.6,-0.4 -1,-0.9 -1.2,-1.6 -0.3,-0.6 -0.5,-1.2 -0.2,-0.6 0,-0.8 -0.2,-0.6 0,-0.7 -0.1,-0.7 -0.1,-0.7 0,-2.6 0.2,-2.7 0.2,-1.3 0.5,-2.1 0.2,-0.7 0.3,-0.6 0.7,-1.1 0.9,-1.2 0.5,-0.4 0.6,-0.4 1.8,-0.8 1.4,-0.2 1,0 1,0.1 1.2,0.2 1.8,1 1,1.1 0.7,1.2 0.2,0.6 0.2,1.7 -0.2,1.7 -0.1,0.6 -0.1,0.7 -0.3,0.7 -1,1.7 -1.4,1.4 -0.6,0.5 -1.7,1 -0.6,0.2 -0.7,0.2 -1.2,0.5 -0.7,0.1 -0.7,0 -0.7,0.2 -0.6,0.3 -0.3,0.7 0.3,1.1 0.4,1 1,1.7 1.1,0.8 0.6,0.1 1.1,0.1 1,0 0.7,-0.2 0.7,-0.1 0.6,-0.3 0.9,-0.5 0.9,-0.7 0.7,-0.3 0.6,0.3 0.3,0.6 0.1,0.8 -0.3,0.7 -0.5,0.5 -0.6,0.5 -0.6,0.3 -0.7,0.2 -0.7,0.3 -1.3,0.3 -0.6,0.1 -2.1,0 -1,-0.2 z m -1.4,-10.6 1.3,-0.4 0.6,-0.2 1.2,-0.6 1.7,-1.1 0.4,-0.5 0.3,-0.6 0.3,-0.7 0.2,-0.6 0.2,-0.6 0.1,-0.7 0,-1 0,-1 -0.1,-0.7 -0.9,-1.1 -0.5,-0.2 -0.7,-0.3 -0.9,0 -1.2,0.1 -1,0.2 -0.5,0.3 -0.4,0.4 -0.4,0.5 -0.4,0.7 -0.5,1.3 -0.6,3.3 0,1.3 -0.1,1.3 0.4,0.7 0.7,0.2 0.8,0 z" />
		<path
   inkscape:connector-curvature="0"
   id="path4208"
   d="m 1451.8,713.5 -0.6,0 -0.7,-0.2 -0.4,-0.5 0,-0.5 -0.1,-1.4 0,-0.9 0,-0.6 0,-0.7 0,-0.7 0.1,-0.8 0,-3.6 0,-0.8 0,-0.6 -0.1,-1.7 0.1,-4 -0.2,-1.9 -0.2,-0.7 -0.3,-0.5 -0.5,-0.3 -0.6,-0.2 -1,0 -1.5,0.1 -0.7,0.2 -0.6,0.3 -0.5,0.3 -1,0.8 -0.4,0.6 -0.5,0.8 -0.2,1.2 0,3.8 -0.1,0.6 0,2.4 0,0.6 0,0.8 0,0.6 0.1,2.8 0,0.6 0,1 -0.1,0.8 0.1,0.7 0,0.7 -0.4,0.6 -0.6,0.4 -0.7,0 -0.5,-0.1 -0.6,-0.3 -0.4,-0.7 0.1,-0.7 0,-0.6 0,-1.2 0,-0.8 0,-0.7 0,-0.7 0,-0.6 0,-0.7 0,-0.6 0,-1.3 0,-0.8 0,-0.7 0,-0.7 0,-1.1 0,-0.6 0,-1.1 0,-0.7 0,-0.6 0,-0.7 0,-0.7 0,-1 0,-1 0,-0.6 -0.2,-2.7 0.1,-0.6 0.9,-0.4 0.6,0 1.1,0.3 0.4,0.6 0,0.7 0.3,0.3 0.5,-0.2 0.6,-0.4 0.5,-0.2 0.6,-0.4 0.7,-0.4 0.6,-0.2 0.7,-0.3 0.7,-0.1 0.6,-0.1 1.7,0 1,0.1 0.7,0.2 1.1,0.7 0.4,0.4 0.7,1.3 0.2,0.6 0.1,0.5 0.1,2.7 0,1.3 0,0.7 -0.1,1.1 0,7.2 0.1,4.6 0.1,0.6 -0.3,0.8 -0.5,0.3 -1,0.2 z" />
		<path
   inkscape:connector-curvature="0"
   id="path4210"
   d="m 1463.9,713.9 -1.9,-0.6 -0.6,-0.4 -1,-0.9 -1.2,-1.6 -0.3,-0.6 -0.5,-1.2 -0.2,-0.6 0,-0.8 -0.2,-0.6 0,-0.7 -0.1,-0.7 -0.1,-0.7 0,-2.6 0.2,-2.7 0.2,-1.3 0.5,-2.1 0.2,-0.7 0.3,-0.6 0.7,-1.1 0.9,-1.2 0.5,-0.4 0.6,-0.4 1.8,-0.8 1.4,-0.2 1,0 1,0.1 1.2,0.2 1.8,1 1,1.1 0.7,1.2 0.2,0.6 0.2,1.7 -0.2,1.7 -0.1,0.6 -0.1,0.7 -0.3,0.7 -1,1.7 -1.4,1.4 -0.6,0.5 -1.7,1 -0.6,0.2 -0.7,0.2 -1.2,0.5 -0.7,0.1 -0.7,0 -0.7,0.2 -0.6,0.3 -0.3,0.7 0.3,1.1 0.4,1 1,1.7 1.1,0.8 0.6,0.1 1.1,0.1 1,0 0.7,-0.2 0.7,-0.1 0.6,-0.3 0.9,-0.5 0.9,-0.7 0.7,-0.3 0.6,0.3 0.3,0.6 0.1,0.8 -0.3,0.7 -0.5,0.5 -0.6,0.5 -0.6,0.3 -0.7,0.2 -0.7,0.3 -1.3,0.3 -0.6,0.1 -2.1,0 -1,-0.2 z m -1.4,-10.6 1.3,-0.4 0.6,-0.2 1.2,-0.6 1.7,-1.1 0.4,-0.5 0.3,-0.6 0.3,-0.7 0.2,-0.6 0.2,-0.6 0.1,-0.7 0,-1 0,-1 -0.1,-0.7 -0.9,-1.1 -0.5,-0.2 -0.7,-0.3 -0.9,0 -1.2,0.1 -1,0.2 -0.5,0.3 -0.4,0.4 -0.4,0.5 -0.4,0.7 -0.5,1.3 -0.6,3.3 0,1.3 -0.1,1.3 0.4,0.7 0.7,0.2 0.8,0 z" />
	</g><g
   id="g4224"
   transform="translate(-1307.814,-88.796479)">
		<path
   style="fill:#dca100"
   inkscape:connector-curvature="0"
   id="path4226"
   d="m 1349.7,543.3 -5,-0.6 -7.2,-2.6 -2.4,-2.2 -2.6,-1.4 -2.4,-2 -5,-7.2 -2.6,-5.8 -1.8,-5.6 -0.4,-3.2 -0.8,-3.2 -0.4,-3.4 -0.8,-3.2 -0.4,-3.8 -1.4,-22.6 0.4,-5.4 -0.4,-4.2 0.6,-10.4 -0.2,-2.8 0.6,-6.8 0.8,-3.4 0,-3.4 0.2,-2.6 1.6,-6.8 0.2,-2.8 4.8,-13 1.8,-3 2.4,-1.8 1.4,-2.4 3,-2.4 3,-2 5,-2 3.2,-1 6.2,-1 13.2,0.6 6,1.8 4.6,2.2 3.6,2.2 1.4,3.2 -0.2,3.4 -1.6,2.2 -3,1 -3.2,-0.4 -3,-1.4 -2.6,-1.4 -3,-1.2 -3,-0.6 -10,0 -5.4,1.8 -2.2,1.4 -4.2,3.8 -2.2,3 -1.2,3 -1.6,5.4 -1.4,7.2 -0.2,2.8 -0.6,3.6 -0.8,10.2 0.2,3.4 -0.6,2.8 0.2,3.6 -0.2,3.4 1,28.2 -0.4,3.4 1.2,6.8 0.8,2.6 0.2,3.8 2,6 0.6,3 1.4,2.2 4.2,4.8 2.6,2.6 2.8,1.4 2.6,0.8 5.2,0.4 4.6,-0.4 5.4,-3.2 2.4,-2 2.2,-2.4 1.8,-2.6 1,-3.2 2.4,-11.8 -0.4,-3.6 0.6,-9.8 -0.4,-4 0.2,-5.2 0.2,-2.8 -1.8,-3.2 -3,-1.4 -3.6,0.8 -3,-0.2 -3.6,-0.8 -2.6,0.4 -3.2,0 -3,-1.6 -1.8,-3.4 1.4,-4 3.2,-1.4 6.4,0.2 3.6,-0.2 3,-0.6 3.2,-0.2 3.2,0.6 6.4,0 3.6,-0.6 3,2.4 1.6,2.6 0.4,6.8 -0.6,6.8 0,3.4 0.2,2.8 0,12.8 -0.6,3.8 -0.4,2.2 -0.8,6.8 -2.8,9 -1,2.6 -2.2,2.4 -4,5.4 -2,2.2 -3,1.2 -2.8,2 -2.4,0.8 -3.4,0.4 -3,1.2 -4.8,0.2 -4.4,-0.2 z" />
		<path
   style="fill:#dca100"
   inkscape:connector-curvature="0"
   id="path4228"
   d="m 1414.5,540.9 -3.2,-1 -2,-3.6 0.4,-18.8 -0.4,-3 0.2,-3.2 -0.2,-3.6 0.4,-3 -0.4,-3.2 0.6,-3.2 -0.6,-3.2 -0.2,-3.4 0.4,-4.6 -0.2,-12.4 0.2,-5.2 -0.2,-3 0.6,-8.2 -0.2,-4.6 -0.4,-3 0.6,-3.6 -0.6,-3.4 0.2,-3.2 -0.2,-3 0.2,-12 -0.4,-3.8 0.2,-3.4 -0.2,-2.6 0.6,-3.2 -0.2,-6 1.8,-3.8 3.2,-2 3.2,0.6 3,0 3.4,-0.4 6.4,0 3.8,0.6 5,-0.6 4.6,0.6 3.6,-0.2 3,1 3.2,0.4 3,1.2 3.2,1.8 3,1.2 2,1.8 4.6,5.2 1.8,2.6 1.2,3 2.6,5.8 0.8,3.6 1.6,14.8 -0.2,4.8 -1,3.4 0,3.2 -0.6,3 -3,8.8 -1.4,2.6 -3.8,5.2 -2.2,2.4 -2.6,2 -2.6,2.6 -5.4,3 -9,2.6 -19,1.2 -2.6,1.4 -1.6,3.2 0.4,3 0,22.4 -0.4,2.8 0.2,13.8 -1.6,4.6 -3.2,1.8 -3.4,-0.6 z m 22.6,-63.4 6.4,-1.2 3.2,-1.4 3,-0.8 3,-1.6 4.8,-5 1.4,-3 1.8,-2.4 2,-6.8 0.2,-3.4 0.6,-3.2 -0.2,-9.6 -0.6,-6 -0.6,-2.6 -1.4,-4.4 -2.2,-4.8 -2,-3 -4.6,-3.8 -2.8,-0.6 -3.6,-1.2 -7.6,-0.6 -4.6,0.4 -3,-0.2 -3.2,-0.6 -3,2 -1.2,3.6 0,2.8 -0.4,15.2 0.2,4.6 -0.2,3.2 0.2,3.2 -0.2,3 0.4,6.4 -0.4,3.8 0.6,5.2 -0.8,7.4 1.6,3.4 3.4,1.8 5.2,0.4 4.6,-0.2 z" />
		<path
   style="fill:#dca100"
   inkscape:connector-curvature="0"
   id="path4230"
   d="m 1517.1,540.9 -5.4,-2.6 -4.4,-3.6 -2.4,-2.6 -1.4,-2.4 -1.8,-2.4 -1.6,-2.8 -2.2,-6 -0.4,-3.4 -0.8,-3.2 -0.8,-2.4 -2,-10.4 0.4,-3.4 -1,-9.4 0.4,-4 -0.6,-3 0.2,-3 -0.4,-5.2 0.4,-5.2 -0.4,-2.8 0.6,-5.2 -0.2,-4.2 1.2,-10 0,-3.2 0.6,-2.6 0.4,-3.6 0.8,-3.2 1.2,-2.6 0.6,-3.2 1.2,-3.4 0.6,-2.4 1.4,-3.4 3.8,-5.4 1.8,-2 5,-4.8 2.6,-1.4 2.8,-1 3.2,-1.6 3.2,-0.2 3,-0.4 9.6,-0.2 6.8,1.4 6,2.4 3.2,0.8 2.8,2 1.8,3.4 -0.6,3.4 -1.8,2.6 -3.4,0.4 -3,-0.6 -2.8,-1.8 -3.2,-0.8 -3,-1.2 -3,-0.6 -4.8,-0.4 -5.2,1 -2.6,0.2 -2.4,1.2 -2.2,1.4 -2.4,2.2 -2,2 -1,3.2 -3,5.4 -0.6,2.8 -2.8,16.6 -0.8,30 0.4,3.2 -0.2,2.8 0.4,2.6 0.2,3.8 -0.4,3.2 0.6,2.8 0.8,9.6 1,6.4 1.2,3 0.6,3.6 1,2.4 1.6,3.6 1.6,2.4 2.4,2 2.8,2 2.6,1.4 2.8,1 5,-0.2 4.4,-0.6 5,-0.4 4.2,-1 5.6,-2 2.6,-2 3.6,0 3,2.4 0.2,4.2 -2.4,4 -13.2,5.6 -7.4,1.2 -4.8,-0.6 -5,0.6 -9.4,-2.2 z" />
		<path
   style="fill:#dca100"
   inkscape:connector-curvature="0"
   id="path4232"
   d="m 1580.7,539.1 -1.6,-2.8 0.6,-12.4 -0.6,-3.6 0,-3.8 0.4,-3.2 -0.4,-12.6 0.4,-2.8 -0.2,-11.6 -0.4,-2.6 0.4,-11.8 -0.2,-3.2 0.4,-6.2 -0.2,-9.8 0.4,-8 -0.4,-21.2 0,-6 -0.2,-2.8 0,-3.2 -0.4,-2.2 -0.2,-3.4 1.6,-3.2 3,-1.2 3.4,-0.6 3.4,1.8 1.6,1.8 0.8,3.2 -0.2,3.4 0.6,3.6 -0.2,5.4 0.2,3.2 -0.2,35 1.4,3 3.4,1.8 3.2,0.6 3.4,0 3,-0.2 4.6,0.2 4.6,-0.4 3,0.2 3.2,-0.4 2.8,0.2 3,-0.4 3.6,0 3,-1.8 1.6,-2.6 0.2,-6.8 -0.4,-4.6 0.6,-8.2 -0.6,-26.2 0.6,-6.8 1,-2.8 3.4,-2.2 3.2,0.4 3.6,1.6 2,3 0,3 -0.4,3.2 0,13.2 0.2,3 0,10.2 -0.4,2.6 0.4,5.2 -0.2,3 0.4,5.4 -0.2,3.2 -0.4,3 0.2,3.6 -0.2,3.2 0,2.8 0.4,6.4 -0.4,3 0.2,3.6 -0.2,2.6 0.4,3.6 0,3.4 -0.4,3.8 0.4,6.2 -0.2,7.6 0.4,4.4 -0.6,6.2 0,6.2 0.4,2.6 0,4 0.4,3 -1.4,2.4 -2.4,1.6 -3.6,0.2 -3.6,-1.8 -1.8,-2.4 -0.2,-2.2 -1,-6.4 0.4,-6.8 -0.4,-3.2 0.6,-2.8 0,-5.2 -0.6,-4.4 0.4,-26.4 -1.8,-3.2 -3.2,-2 -3,-0.2 -6,0.4 -5.2,-0.8 -16.8,0.6 -3.2,0.4 -3.2,1.8 -1.4,3.2 0.2,2.6 -0.4,6.4 0.2,3.6 -0.4,3 0,5.8 0.4,3.8 -0.2,5.4 0.4,3.4 -0.6,6.6 0.6,3.2 -0.6,12.6 -1.8,2.8 -2.8,2.2 -3.2,0 -3.8,-2.2 z" />
	</g><g
   id="g4260"
   transform="translate(-1307.814,-88.796479)">
		<g
   id="g4262">
			<path
   style="fill:#a95318"
   inkscape:connector-curvature="0"
   id="path4264"
   d="m 1357.5,135.1 c 0,0 0.8,-28.1 -4.8,-42.2 0,0 2.3,-8.6 9.3,-0.9 1.2,19.5 1.8,28.8 -1.2,45 l -3.3,-1.9 z" />
			<path
   style="fill:#a3ac1f"
   inkscape:connector-curvature="0"
   id="path4266"
   d="m 1408.5,237.8 c -4.7,-28.6 -22.2,-44.3 -24.2,-60.5 -3.6,-30.7 -2,-49.8 -24.9,-50 -23,-0.1 -21.5,19 -25.6,49.6 -2.1,16.1 -19.9,31.7 -24.9,60.2 -4.7,26.7 4.8,60.4 49.4,60.6 44.1,0.4 54.6,-33.1 50.2,-59.9 z" />
		</g>
		<g
   id="g4268">
			<g
   id="g4270">
				<path
   style="clip-rule:evenodd;fill:#a3ac1f;fill-rule:evenodd"
   inkscape:connector-curvature="0"
   id="path4272"
   d="m 1434.6,226.8 c -4.8,-5.9 -19.6,-18.5 -21.4,-33.8 0,0 9.1,-5.1 16.9,5.3 0,0 4.5,-10 12.7,-14.9 0,0 9.4,11.6 7.3,21.7 0,0 8.5,-4.2 17.9,-0.2 0,0 4.1,12.5 -1.1,19.5 0,0 10.3,-2.7 18.1,3.8 0,0 -4.9,12.9 -12.3,12.9 0,0 1.5,7.3 -1.9,14.1 0,0.1 -21.4,-10.4 -36.2,-28.4 z" />
				<path
   style="fill:#d33117"
   inkscape:connector-curvature="0"
   id="path4274"
   d="m 1450.1,218.9 c -7.4,-7.7 -29.7,-27.8 -41.7,-7.4 -12,20.4 -27.7,47.4 -14.3,61.3 13.3,13.9 40.9,-0.7 61.8,-11.9 20.8,-11.2 1.6,-34.3 -5.8,-42 z" />
			</g>
			<g
   id="g4276">
				<path
   style="clip-rule:evenodd;fill:#ac2f18;fill-rule:evenodd"
   inkscape:connector-curvature="0"
   id="path4278"
   d="m 1403.4,250.6 c -3.1,1.7 -0.5,6.6 2.7,4.9 3.1,-1.8 0.5,-6.6 -2.7,-4.9 z" />
				<path
   style="clip-rule:evenodd;fill:#ac2f18;fill-rule:evenodd"
   inkscape:connector-curvature="0"
   id="path4280"
   d="m 1411,233.8 c -2.1,1.2 -0.3,4.4 1.8,3.2 2,-1.1 0.3,-4.3 -1.8,-3.2 z" />
				<path
   style="clip-rule:evenodd;fill:#ac2f18;fill-rule:evenodd"
   inkscape:connector-curvature="0"
   id="path4282"
   d="m 1423.3,212.5 c -2.2,1.2 -0.3,4.6 1.8,3.4 2.1,-1.2 0.3,-4.5 -1.8,-3.4 z" />
				<path
   style="clip-rule:evenodd;fill:#ac2f18;fill-rule:evenodd"
   inkscape:connector-curvature="0"
   id="path4284"
   d="m 1437.1,227.5 c -2.8,1.5 -0.4,5.8 2.3,4.3 2.9,-1.5 0.5,-5.8 -2.3,-4.3 z" />
				<path
   style="clip-rule:evenodd;fill:#ac2f18;fill-rule:evenodd"
   inkscape:connector-curvature="0"
   id="path4286"
   d="m 1424,241.3 c -2.6,1.5 -0.4,5.6 2.2,4.1 2.6,-1.4 0.4,-5.5 -2.2,-4.1 z" />
				<path
   style="clip-rule:evenodd;fill:#ac2f18;fill-rule:evenodd"
   inkscape:connector-curvature="0"
   id="path4288"
   d="m 1423.5,257.8 c -2.4,1.3 -0.4,5.1 2.1,3.8 2.4,-1.3 0.3,-5.1 -2.1,-3.8 z" />
				<path
   style="clip-rule:evenodd;fill:#ac2f18;fill-rule:evenodd"
   inkscape:connector-curvature="0"
   id="path4290"
   d="m 1441.2,247.9 c -2.6,1.4 -0.4,5.5 2.2,4 2.6,-1.4 0.4,-5.5 -2.2,-4 z" />
			</g>
		</g>
		<g
   id="g4292">
			<path
   style="fill:#abbd16"
   inkscape:connector-curvature="0"
   id="path4294"
   d="m 1553.9,236.6 c -0.3,-0.5 -1,-0.7 -1.5,-0.4 -2.2,1.6 -3.7,4 -5.9,5.6 -2.1,1.6 -4.4,2.9 -6.8,4 0.6,-1.2 1,-2.4 1,-3.7 0.1,-2 -0.9,-6.6 -4,-5.3 -2.1,0.9 -2.7,2.7 -4.3,4.2 -2,1.9 -4.4,3.5 -6.7,4.9 0.3,-2.2 0.1,-4.4 -0.8,-6.6 -0.8,-1.9 -4.2,-2.6 -4.6,0.1 -1.1,7.5 -10.4,17.4 -47.4,25.2 -6.5,1.4 -12.8,3.6 -19.1,5.4 -5.8,1.7 -12.6,2.9 -17.6,6.4 -3.6,2.5 -2.3,8.5 2.4,8.5 6.2,-0.1 12.3,-2.8 18.1,-4.6 7.1,-2.2 14.3,-4.3 21.4,-6.4 13.9,-4 28.1,-7.2 41.9,-11.4 8.4,-2.5 16.8,-5 24.5,-9.3 4.8,-2.6 13.5,-10.4 9.4,-16.6 z" />
			<path
   style="fill:#abbd16"
   inkscape:connector-curvature="0"
   id="path4296"
   d="m 1540,287.3 c -9.8,-8.7 -23.3,-11.2 -36,-11.8 -10.5,-0.4 -23.4,0.2 -33.2,5.1 -2,-0.1 -3.9,0.1 -5.6,0.7 -2.4,0.8 -2.1,4.5 0.1,5.3 4.3,1.5 14.8,-2.2 19.4,-1.9 25.3,1.8 32.8,19.6 40.1,13.9 0.6,-0.5 1,-1.2 1.2,-1.9 4.5,0.2 9,-0.6 13.3,-3.1 2.5,-1.4 2.9,-4.3 0.7,-6.3 z" />
			<path
   style="fill:#629930"
   inkscape:connector-curvature="0"
   id="path4298"
   d="m 1572.2,276.2 c -0.5,-0.4 -1.1,-0.7 -1.7,-1 2.5,-0.4 4.9,-1.1 6.9,-2.1 3.1,-1.4 2.2,-5.7 -0.9,-6.3 -2,-0.4 -3.8,-0.7 -5.7,-0.8 4.3,-1.5 8.1,-3.8 11.1,-8 1.7,-2.4 0.3,-5.9 -2.7,-6.3 -20,-2.3 -38.1,8 -57.3,11.2 -9.5,1.6 -20.9,2.3 -31.2,5.1 -8.8,0.4 -20.5,0.6 -28.1,5.1 -2.9,1.7 -3.3,7.4 1.1,7.5 8.8,0.2 18.1,-2.8 26.9,-3.5 10,-0.8 20,-0.7 29.9,-0.4 8.8,0.3 17.4,2.1 26.1,3.7 7.5,1.3 16.5,3.3 24.1,1.3 2.5,-0.5 3.9,-3.8 1.5,-5.5 z" />
			<path
   style="fill:#dca100"
   inkscape:connector-curvature="0"
   id="path4300"
   d="m 1486.5,274.1 c -2.3,-20.6 -15.1,-31.6 -56.2,-18.6 -41.1,13 -111.4,25.3 -110.4,34.5 1,9.2 72.8,10.7 115.7,14.5 43.1,3.7 53.2,-9.8 50.9,-30.4 z" />
		</g>
	</g><rect
   style="fill:#dca100"
   id="rect4322"
   height="30.9"
   width="495.79999"
   y="474.3035"
   x="2.8859553" />
</svg>