<?xml version="1.0" encoding="UTF-8" standalone="no"?>
<svg
   xmlns:ns="&amp;ns_sfw;"
   xmlns:dc="http://purl.org/dc/elements/1.1/"
   xmlns:cc="http://creativecommons.org/ns#"
   xmlns:rdf="http://www.w3.org/1999/02/22-rdf-syntax-ns#"
   xmlns:svg="http://www.w3.org/2000/svg"
   xmlns="http://www.w3.org/2000/svg"
   id="svg2"
   xml:space="preserve"
   enable-background="new 0 0 1920 1080"
   viewBox="0 0 495.79999 584.25525"
   height="584.25525"
   width="495.79999"
   y="0px"
   x="0px"
   version="1.1"><defs
   id="defs402">
	
	
	
	
	
	
	
	
	
	
	
	
	
	
</defs>
<metadata
   id="metadata4">
	<ns:sfw>
		<ns:slices />
		<ns:sliceSourceBounds
   bottomLeftOrigin="true"
   x="-5344.5"
   y="-6982.3"
   height="10106.4"
   width="12464.3" />
	</ns:sfw>
<rdf:RDF><cc:Work
     rdf:about=""><dc:format>image/svg+xml</dc:format><dc:type
       rdf:resource="http://purl.org/dc/dcmitype/StillImage" /><dc:title></dc:title></cc:Work></rdf:RDF></metadata>
<g
   transform="translate(-729.59998,-130.04478)"
   id="Capa_2">
</g>
<g
   transform="translate(-729.59998,-130.04478)"
   id="g110">
		<path
   d="m 733.9,369 -0.8,-0.2 -0.5,-0.9 0.1,-4.5 -0.1,-0.7 0,-0.8 0,-0.9 0.1,-0.7 -0.1,-0.8 0.1,-0.8 -0.1,-0.8 0,-0.8 0.1,-1.1 0,-3 0,-1.2 0,-0.7 0.1,-2 0,-1.1 -0.1,-0.7 0.1,-0.9 -0.1,-0.8 0,-0.8 0,-0.7 0,-2.9 -0.1,-0.9 0,-0.8 0,-0.6 0.1,-0.8 0,-1.4 0.4,-0.9 0.8,-0.5 0.8,0.1 0.7,0 0.8,-0.1 1.5,0 0.9,0.1 1.2,-0.1 1.1,0.1 0.9,0 0.7,0.2 0.8,0.1 0.7,0.3 0.8,0.4 0.7,0.3 0.5,0.4 1.1,1.2 0.4,0.6 0.3,0.7 0.6,1.4 0.2,0.9 0.4,3.6 0,1.2 -0.2,0.8 0,0.8 -0.1,0.7 -0.7,2.1 -0.3,0.6 -0.9,1.2 -0.5,0.6 -0.6,0.5 -0.6,0.6 -1.3,0.7 -2.2,0.6 -4.6,0.3 -0.6,0.3 -0.4,0.8 0.1,0.7 0,5.4 -0.1,0.7 0,3.3 -0.4,1.1 -0.8,0.4 -0.9,0.1 z m 5.5,-15.2 1.5,-0.3 0.8,-0.3 0.7,-0.2 0.7,-0.4 1.2,-1.2 0.3,-0.7 0.4,-0.6 0.5,-1.6 0,-0.8 0.1,-0.8 0,-2.3 -0.1,-1.4 -0.1,-0.6 -0.3,-1.1 -0.5,-1.2 -0.5,-0.7 -1.1,-0.9 -0.7,-0.1 -0.9,-0.3 -1.8,-0.1 -1.1,0.1 -0.7,0 -0.8,-0.3 -0.7,0.5 -0.3,0.9 0,0.7 -0.1,3.6 0,1.1 0,0.8 0,0.8 0,0.7 0.1,1.5 -0.1,0.9 0.1,1.2 -0.2,1.8 0.4,0.8 0.8,0.4 1.2,0.1 1.2,0 z"
   id="path112" />
		<path
   d="m 757.6,369 -0.8,0 -0.8,0 -0.8,0 -0.7,-0.4 -0.4,-0.7 -0.1,-0.9 0,-8.6 0,-0.6 -0.1,-0.8 0.1,-3.1 -0.1,-3.8 0.1,-1.6 -0.1,-0.9 0.1,-0.8 -0.1,-1.2 0,-4.8 0.1,-0.7 -0.1,-2.4 0,-0.7 0,-0.8 0.3,-0.8 0.6,-0.3 0.9,0.1 0.8,0.3 0.6,0.6 0,0.5 0,0.9 0.1,0.7 0,1.6 -0.1,0.8 0.1,0.8 0,1.1 0.1,1.2 0,0.6 0,2.1 -0.1,1.2 0.1,3 -0.1,0.7 0.1,3.8 -0.1,1.4 0.1,1.6 -0.1,1.8 0.1,1.1 -0.1,2.7 0,1.2 0.4,0.7 0.7,0.4 1.6,-0.1 0.7,0.1 5.3,0 0.8,0.3 0.5,0.8 0,0.7 -0.5,0.5 -0.8,0.3 -3.8,0.2 -1.5,-0.2 -0.8,0 -0.8,0.2 -1.4,0.2 z"
   id="path114" />
		<path
   d="m 769,368.6 -0.2,-0.8 0.9,-3.6 0.3,-0.7 0.1,-0.8 0.2,-0.7 1,-4.7 0.7,-2.2 0.1,-0.7 0.7,-3.2 0.1,-0.7 0.5,-1.4 0.1,-0.7 1,-3.8 0,-0.7 0.3,-0.8 0.2,-1.5 0.4,-1.5 0.2,-0.6 0.1,-0.8 0.1,-0.8 0.5,-1.5 0.5,-0.7 0.9,-0.4 0.8,-0.1 0.7,0.1 0.8,0.3 0.5,0.7 0.3,0.8 0.1,0.9 0.6,2.2 0.2,1.5 0.9,2.8 0.4,2.4 0.3,0.7 0.1,0.9 0.8,2.9 0.1,0.8 0.8,3 0.1,0.9 0.2,0.6 0,0.8 0.7,2.3 0.2,1.4 0.3,0.9 0,0.6 0.9,3 0.5,2.4 -0.2,0.8 -0.6,0.3 -0.9,0 -0.9,-0.5 -0.6,-0.6 -0.2,-1.5 -0.2,-0.8 -0.3,-0.7 -0.3,-1.7 -0.2,-0.8 -0.1,-0.8 -0.4,-1.4 -0.6,-0.9 -0.8,-0.4 -2.2,0 -1.2,-0.1 -1,0 -0.7,0.1 -1.6,0 -0.9,0.4 -0.5,0.9 -1.5,7 -0.3,0.6 -0.6,0.7 -0.8,0.5 -1,0 -0.4,-0.6 z m 10.8,-12.3 1.5,0 0.6,-0.2 0.1,-0.8 -0.4,-1.6 -0.1,-0.8 -0.2,-0.8 -0.1,-0.6 -0.3,-0.7 -0.1,-0.9 -0.2,-0.7 -0.3,-0.7 -0.2,-1.5 -0.3,-1.3 -0.1,-1.1 -0.5,-2.1 -0.2,-1.5 -0.4,-1.5 -0.1,-0.1 -0.3,1.5 -0.5,3.3 -0.2,0.5 -0.5,2.4 0,0.7 -0.2,0.8 -0.2,0.7 -0.4,1.4 0,0.9 -0.2,0.7 -0.5,1.3 0,0.9 -0.1,0.6 0.1,0.9 0.7,0.3 0.8,0 0.7,0 1.5,0.1 0.6,-0.1 z"
   id="path116" />
		<path
   d="m 805,368.6 -0.7,-0.7 -0.3,-0.7 -1,-2.9 -0.2,-0.8 -0.3,-0.7 -0.1,-0.7 -0.8,-2.3 -0.1,-0.6 -1.1,-2.8 -0.4,-1.7 -0.3,-0.8 -0.2,-0.8 -0.3,-0.5 -0.4,-1.6 -0.3,-0.7 -0.1,-0.8 -0.3,-0.7 -1.8,-5.9 -0.1,-0.7 -0.6,-2.2 -0.3,-0.6 -0.2,0 0,0.7 0,0.8 0.1,0.8 0,0.8 0.1,0.8 0,0.6 0.1,0.8 0,1.2 0.1,4.2 -0.1,0.7 0.1,3.1 0,0.8 0.1,0.9 0,0.7 -0.1,0.7 0,1.7 0.1,1.2 -0.1,1.1 0.1,0.9 0,0.6 0,0.8 0.1,0.9 -0.1,0.9 0.1,3 -0.4,0.7 -1.2,0.3 -1.1,-0.4 -0.4,-0.6 0,-3.8 0.1,-0.7 -0.1,-0.9 0,-3.1 -0.1,-1.9 0,-0.7 0,-1.2 0.1,-0.8 -0.1,-1.8 0,-2 0,-0.9 0,-0.6 0,-0.9 0.1,-0.7 -0.1,-0.7 0.1,-1.5 0,-0.9 -0.1,-0.6 0,-2.4 0,-0.8 0.1,-3.6 0,-0.9 0.4,-0.8 1.1,-0.4 1.2,0 0.8,-0.1 0.8,0.4 0.7,0.8 0.3,0.7 0.2,0.7 0.1,0.8 0.6,1.3 2.6,8.1 0.1,0.7 0.2,0.7 0.4,0.8 0.7,2.1 0.4,1.5 1.6,4.6 0.2,1.2 0.2,0.8 0.4,0.9 0.2,0.8 0.1,0.8 0.4,1.6 0.3,0.7 0.2,0 0,-2.4 -0.2,-1.4 0.1,-0.8 0,-0.9 -0.1,-1.1 0.1,-1.1 -0.1,-1.1 0.1,-1.9 -0.1,-0.6 0,-9.9 -0.1,-1.2 0.1,-1.1 -0.1,-0.6 0.1,-0.7 0,-0.8 0,-0.7 -0.1,-2.3 0.3,-0.7 0.6,-0.2 0.8,0 0.7,0.2 0.5,0.7 0.1,0.7 0.1,1.3 -0.1,0.8 0.1,0.9 -0.1,0.8 0.2,3.9 -0.1,0.6 0.1,1.8 0,0.8 -0.1,0.7 0.1,4 -0.1,0.7 0.1,0.8 0,3.2 0,0.8 -0.1,0.7 0.1,0.7 0,0.8 -0.1,0.8 0.1,3.1 -0.1,0.6 0,0.9 0.1,0.9 -0.1,0.7 0,0.7 -0.3,1 -0.7,0.3 -0.7,0 -0.9,0 -0.7,0.1 -1.3,-1.3 z"
   id="path118" />
	</g><g
   transform="translate(-729.59998,-130.04478)"
   id="g132">
		<path
   d="m 730.4,653.1 -0.2,-0.8 0.9,-3.6 0.3,-0.7 0.1,-0.8 0.2,-0.7 1,-4.7 0.7,-2.2 0.1,-0.7 0.7,-3.2 0.1,-0.7 0.5,-1.4 0.1,-0.7 1,-3.8 0,-0.7 0.3,-0.8 0.2,-1.5 0.4,-1.5 0.2,-0.6 0.1,-0.8 0.1,-0.8 0.5,-1.5 0.5,-0.7 0.9,-0.4 0.8,-0.1 0.7,0.1 0.8,0.3 0.5,0.7 0.3,0.8 0.1,0.9 0.6,2.2 0.2,1.5 0.9,2.8 0.4,2.4 0.3,0.7 0.1,0.9 0.8,2.9 0.1,0.8 0.8,3 0.1,0.9 0.2,0.6 0,0.8 0.7,2.3 0.2,1.4 0.3,0.9 0,0.6 0.9,3 0.5,2.4 -0.2,0.8 -0.6,0.3 -0.6,0 -0.9,-0.5 -0.6,-0.6 -0.2,-1.5 -0.2,-0.8 -0.3,-0.7 -0.3,-1.7 -0.2,-0.8 -0.1,-0.8 -0.4,-1.4 -0.6,-0.9 -0.8,-0.4 -2.2,0 -1.2,-0.1 -1,0 -0.7,0.1 -1.6,0 -0.9,0.4 -0.5,0.9 -1.5,7 -0.3,0.6 -0.6,0.7 -0.8,0.5 -1,0 -0.7,-0.6 z m 10.8,-12.3 1.5,0 0.6,-0.2 0.1,-0.8 -0.4,-1.6 -0.1,-0.8 -0.2,-0.8 -0.1,-0.6 -0.3,-0.7 -0.1,-0.9 -0.2,-0.7 -0.3,-0.7 -0.2,-1.5 -0.3,-1.3 -0.1,-1.1 -0.5,-2.1 -0.2,-1.6 -0.4,-1.5 -0.1,-0.1 -0.3,1.5 -0.5,3.3 -0.2,0.5 -0.5,2.4 0,0.7 -0.2,0.8 -0.2,0.7 -0.4,1.4 0,0.9 -0.2,0.7 -0.5,1.3 0,0.9 -0.1,0.6 0.1,0.9 0.7,0.3 0.8,0 0.7,0 1.5,0.1 0.6,0 z"
   id="path134" />
		<path
   d="m 766.6,653.5 -0.6,0 -0.7,-0.2 -0.4,-0.5 0,-0.5 -0.1,-1.4 0,-0.9 0,-0.6 0,-0.7 0,-0.7 0.1,-0.8 0,-3.6 0,-0.8 0,-0.6 -0.1,-1.7 0.1,-4 -0.2,-1.9 -0.2,-0.7 -0.3,-0.5 -0.5,-0.3 -0.6,-0.2 -1,0 -1.5,0.1 -0.7,0.2 -0.6,0.3 -0.5,0.3 -1,0.8 -0.4,0.6 -0.5,0.8 -0.2,1.2 0,3.8 -0.1,0.6 0,2.4 0,0.6 0,0.8 0,0.6 0.1,2.8 0,0.6 0,1 -0.1,0.8 0.1,0.7 0,0.7 -0.4,0.6 -0.6,0.4 -0.7,0 -0.5,-0.1 -0.6,-0.3 -0.4,-0.7 0.1,-0.7 0,-0.6 0,-1.2 0,-0.8 0,-0.7 0,-0.7 0,-0.6 0,-0.7 0,-0.6 0,-1.3 0,-0.8 0,-0.7 0,-0.7 0,-1.1 0,-0.6 0,-1.1 0,-0.7 0,-0.6 0,-0.7 0,-0.7 0,-1 0,-1 0,-0.6 -0.2,-2.7 0.1,-0.6 0.9,-0.4 0.6,0 1.1,0.3 0.4,0.6 0,0.7 0.3,0.3 0.5,-0.2 0.6,-0.4 0.5,-0.2 0.6,-0.4 0.7,-0.4 0.6,-0.2 0.7,-0.3 0.7,-0.1 0.6,-0.1 1.7,0 1,0.1 0.7,0.2 1.1,0.7 0.4,0.4 0.7,1.3 0.2,0.6 0.1,0.5 0.1,2.7 0,1.3 0,0.7 -0.1,1.1 0,7.2 0.1,4.6 0.1,0.6 -0.3,0.8 -0.5,0.3 -1,0.2 z"
   id="path136" />
		<path
   d="m 777.3,653.9 -0.7,-0.1 -0.6,-0.2 -0.6,-0.2 -0.5,-0.3 -0.5,-0.4 -0.5,-0.4 -0.7,-1.1 -0.3,-0.7 -0.3,-1.2 0,-0.7 0,-2.1 0.1,-0.7 0.1,-0.6 0.2,-0.7 0.2,-0.5 0.2,-0.7 0.4,-0.6 0.3,-0.5 0.4,-0.5 0.5,-0.4 0.6,-0.6 0.6,-0.3 1.9,-0.9 0.7,-0.1 1.3,-0.2 1,0 0.9,-0.1 0.6,0.1 0.7,-0.2 0.4,-0.6 -0.1,-1.4 -0.1,-0.7 -0.1,-0.6 -0.2,-0.8 -0.2,-0.5 -0.4,-0.5 -0.5,-0.4 -0.5,-0.4 -0.6,-0.1 -1,0 -1,-0.1 -1.1,0.2 -0.9,0.3 -1.2,0.8 -0.7,0.1 -0.6,-0.4 -0.3,-0.4 -0.1,-0.8 0.4,-0.7 0.5,-0.4 0.6,-0.3 0.6,-0.3 1.2,-0.5 0.6,0 0.7,-0.2 0.7,0 2,0 0.7,0.2 1,0.2 0.9,0.4 0.5,0.3 0.5,0.4 0.8,1.2 0.3,0.6 0.3,0.7 0.3,1.3 0.2,1.3 0,1.1 0.1,1 0,1.3 0,0.6 0,0.7 0,2.1 -0.1,1.4 0.1,0.5 -0.1,2.4 0.1,1.6 0,0.7 0,0.7 0.1,1.2 -0.2,0.8 -1,0.3 -1.2,-0.3 -0.5,-0.6 -0.1,-0.7 -0.3,-0.2 -0.4,0.2 -0.9,0.8 -0.6,0.4 -1.1,0.4 -1.2,0.4 -2.3,0.2 z m 2.5,-2.6 0.6,-0.2 1.2,-0.6 1,-0.6 0.5,-0.5 0.4,-0.8 0.2,-0.9 0,-0.6 0,-0.7 0,-3.4 0,-0.5 -0.3,-0.8 -0.6,-0.2 -2.5,-0.1 -0.7,0.2 -1.2,0.3 -1.1,0.8 -0.4,0.5 -0.4,0.6 -0.3,0.5 -0.3,0.6 -0.1,0.6 -0.1,1.7 0,1.1 0.1,0.6 0.5,1.2 0.4,0.4 0.6,0.3 0.7,0.3 1,0.1 0.8,0.1 z m -1.5,-24.1 0,-0.6 0.6,-1.2 0.4,-0.6 0.3,-0.6 0.8,-0.6 0.9,-0.4 0.8,0 0.4,0.5 0,0.6 -0.4,0.6 -0.5,0.7 -0.4,0.5 -0.4,0.6 -0.8,0.8 -1,0.2 -0.7,-0.5 z"
   id="path138" />
		<path
   d="m 793.1,653.3 -0.4,-0.6 -0.1,-0.6 -0.1,-1.2 0,-2.1 0,-0.7 0,-0.6 0,-1.1 0,-1.1 0.1,-1.2 -0.1,-0.7 0,-8.8 0,-0.8 0,-0.8 0.1,-0.6 -0.1,-4.2 0,-1 0,-3 -0.1,-0.7 0,-1.3 -0.1,-1.3 0.2,-0.7 0.5,-0.3 0.5,0 0.6,-0.1 0.7,0.4 0.5,0.5 0.1,3.5 0,0.6 0.1,0.7 -0.1,1.8 0,1.3 0,0.7 0,1.1 0,0.6 0,2.2 0.1,0.9 -0.1,1.1 0,0.6 0,0.7 0,0.6 0.1,0.7 0,9.6 0,0.7 0,1.3 0.1,0.6 0,0.6 0,0.8 0,1.3 -0.1,0.7 -0.5,0.2 -0.6,0 -0.7,0.1 -0.6,-0.4 z"
   id="path140" />
		<path
   d="m 802.1,626.8 -0.6,-0.4 -0.3,-0.6 -0.2,-1 0.2,-0.9 0.4,-0.6 0.5,-0.4 1.1,0 1,0 0.5,0.4 0.5,0.6 0.1,1 -0.2,1.1 -0.4,0.4 -0.5,0.4 -1,0.1 -1.1,-0.1 z m 0,26.4 -0.4,-0.6 -0.1,-0.6 0,-0.6 -0.1,-0.7 0,-0.7 -0.1,-2.8 0,-1.1 0,-4 0,-1.1 0,-4.1 0,-0.7 0,-0.7 0,-0.5 0,-0.8 -0.1,-0.6 0,-0.7 0,-0.7 -0.1,-0.6 0.2,-0.8 0.5,-0.2 0.6,-0.1 0.6,0.1 0.7,0.2 0.4,0.7 0,1.3 0.1,0.6 0,2.2 0,1.1 0,1.7 0,0.7 0,3.1 0,0.6 -0.1,1.1 0,2.3 0,1 0,0.6 0.1,0.6 0,0.8 0,0.7 0,0.6 0,0.7 0,0.7 0,0.6 -0.1,0.7 -0.6,0.3 -1.2,0 -0.3,-0.3 z"
   id="path142" />
		<path
   d="m 814.9,653.9 -0.6,-0.1 -0.6,-0.2 -0.7,-0.1 -0.6,-0.1 -0.6,-0.3 -1.2,-0.5 -0.5,-0.4 -0.6,-0.4 -0.3,-0.6 0.1,-0.9 0.3,-0.5 0.5,-0.3 0.7,0.1 0.6,0.3 1.9,1.1 1.3,0.3 1.7,0.2 1,-0.1 0.6,-0.2 0.6,-0.3 0.5,-0.5 0.6,-1 0.1,-0.7 0,-1 -0.1,-1.2 -0.2,-0.6 -0.4,-0.7 -0.5,-0.5 -0.9,-0.7 -0.9,-0.5 -0.5,-0.3 -1.1,-0.4 -0.9,-0.4 -1.2,-0.7 -1.7,-1.2 -1.2,-1.5 -0.3,-0.7 -0.2,-0.6 -0.1,-0.6 -0.1,-2 0.1,-0.7 0.1,-0.6 0.3,-0.6 0.3,-0.7 1,-0.9 0.5,-0.2 0.5,-0.4 2.3,-0.5 0.7,0 1.7,0 0.6,0.1 1.3,0.4 0.6,0.1 0.6,0.3 0.6,0.3 0.4,0.7 0,0.8 -0.2,0.5 -0.5,0.4 -0.7,-0.1 -0.7,-0.2 -1,-0.4 -1,-0.2 -0.7,-0.2 -2.1,0.1 -0.6,0.3 -0.6,0.5 -0.3,0.4 -0.1,0.6 -0.1,1 0,1.1 0.2,0.5 0.4,0.6 0.5,0.5 0.4,0.2 0.6,0.5 0.6,0.3 0.9,0.5 3.1,1.6 1,0.8 0.4,0.4 0.9,1.1 0.5,1.2 0.2,0.6 0.1,0.7 0,2 -0.1,0.6 -0.4,1.3 -0.3,0.6 -0.8,1.2 -0.5,0.5 -1.8,0.9 -0.7,0.2 -0.6,0.1 -1,0 -1,0 -0.1,0 z"
   id="path144" />
		<path
   d="m 827.5,626.8 -0.6,-0.4 -0.3,-0.6 -0.2,-1 0.2,-0.9 0.4,-0.6 0.5,-0.4 1.1,0 1,0 0.5,0.4 0.5,0.6 0.1,1 -0.2,1.1 -0.4,0.4 -0.5,0.4 -1,0.1 -1.1,-0.1 z m 0,26.4 -0.4,-0.6 -0.1,-0.6 0,-0.6 -0.1,-0.7 0,-0.7 -0.1,-2.8 0,-1.1 0,-4 0,-1.1 0,-4.1 0,-0.7 0,-0.7 0,-0.5 0,-0.8 -0.1,-0.6 0,-0.7 0,-0.7 -0.1,-0.6 0.2,-0.8 0.5,-0.2 0.6,-0.1 0.6,0.1 0.7,0.2 0.4,0.7 0,1.3 0.1,0.6 0,2.2 0,1.1 0,1.7 0,0.7 0,3.1 0,0.6 -0.1,1.1 0,2.3 0,1 0,0.6 0.1,0.6 0,0.8 0,0.7 0,0.6 0,0.7 0,0.7 0,0.6 -0.1,0.7 -0.6,0.3 -1.2,0 -0.3,-0.3 z"
   id="path146" />
		<path
   d="m 840.3,653.9 -0.6,-0.1 -0.6,-0.2 -0.7,-0.1 -0.6,-0.1 -0.6,-0.3 -1.2,-0.5 -0.5,-0.4 -0.6,-0.4 -0.3,-0.6 0.1,-0.9 0.3,-0.5 0.5,-0.3 0.7,0.1 0.6,0.3 1.9,1.1 1.3,0.3 1.7,0.2 1,-0.1 0.6,-0.2 0.6,-0.3 0.5,-0.5 0.6,-1 0.1,-0.7 0,-1 -0.1,-1.2 -0.2,-0.6 -0.4,-0.7 -0.5,-0.5 -0.9,-0.7 -0.9,-0.5 -0.5,-0.3 -1.1,-0.4 -0.9,-0.4 -1.2,-0.7 -1.7,-1.2 -1.2,-1.5 -0.3,-0.7 -0.2,-0.6 -0.1,-0.6 -0.1,-2 0.1,-0.7 0.1,-0.6 0.3,-0.6 0.3,-0.7 1,-0.9 0.5,-0.2 0.5,-0.4 2.3,-0.5 0.7,0 1.7,0 0.6,0.1 1.3,0.4 0.6,0.1 0.6,0.3 0.6,0.3 0.4,0.7 0,0.8 -0.2,0.5 -0.5,0.4 -0.7,-0.1 -0.7,-0.2 -1,-0.4 -1,-0.2 -0.7,-0.2 -1.6,0 -0.6,0.3 -0.6,0.5 -0.3,0.4 -0.1,0.6 -0.1,1 0,1.1 0.2,0.5 0.4,0.6 0.5,0.5 0.4,0.2 0.6,0.5 0.6,0.3 0.9,0.5 3.1,1.6 1,0.8 0.4,0.4 0.9,1.1 0.5,1.2 0.2,0.6 0.1,0.7 0,2 -0.1,0.6 -0.4,1.3 -0.3,0.6 -0.8,1.2 -0.5,0.5 -1.8,0.9 -0.7,0.2 -0.6,0.1 -1,0 -1,0 -0.6,0.1 z"
   id="path148" />
		<path
   d="m 865.5,653.9 -0.9,0 -0.7,0 -0.6,-0.1 -0.6,-0.4 -1.2,-0.6 -0.5,-0.4 -0.5,-0.5 -0.3,-0.6 -0.4,-0.6 -0.6,-1.1 -0.1,-0.6 -0.3,-0.6 -0.3,-1.5 -0.1,-0.8 -0.2,-1.2 -0.1,-1.4 0,-2 0.1,-0.7 0.1,-0.8 0,-0.6 0.1,-0.7 0.1,-0.7 0.1,-0.6 0.4,-1.4 0.8,-1.9 1.2,-1.6 0.5,-0.5 0.6,-0.3 0.5,-0.4 0.6,-0.3 0.6,-0.2 0.6,-0.1 0.7,-0.1 1,0 1.1,0 0.7,0.2 0.6,0.1 1.3,0.5 0.5,0.3 0.5,0 0.3,-0.5 0,-0.6 0.1,-1.1 -0.1,-4.3 0.1,-0.6 0,-0.7 0,-0.7 -0.1,-0.8 0,-0.6 -0.1,-0.7 0.2,-0.7 0.5,-0.3 1,0 0.9,0.3 0.4,0.6 0.2,1.2 0,0.7 0.1,0.6 0,0.7 0,1.6 0,2.7 0,0.6 0,1.7 0,0.7 0,1 0,0.6 0,1.8 0,1.9 0.1,0.8 -0.1,6.4 0,0.8 0,5.1 0.2,2.6 -0.3,0.7 -0.6,0.4 -0.7,-0.1 -0.8,-0.2 -0.5,-0.5 -0.1,-0.6 -0.3,-0.4 -0.4,0.1 -0.5,0.5 -0.5,0.3 -1.1,0.8 -0.6,0.1 -1.3,0.4 -1.3,-0.1 z m 0.6,-2.5 1,-0.1 0.6,-0.1 0.5,-0.2 0.6,-0.2 0.5,-0.3 0.5,-0.5 0.4,-0.6 0.4,-0.7 0.2,-0.9 0,-5.8 0,-0.7 -0.1,-1 0,-4.1 -0.2,-0.9 -0.4,-0.8 -1.7,-1.2 -1.3,-0.3 -1.1,0 -1,0 -1,0.3 -0.9,0.4 -0.9,1.1 -0.3,0.5 -0.3,0.7 -0.2,0.7 -0.5,2.7 0,0.6 -0.1,1.3 0,1.1 0.1,1.8 0,0.5 0,1.3 0.3,1.3 0.1,0.8 0.2,0.5 0.2,0.6 0.3,0.7 0.4,0.5 0.5,0.4 1.1,0.6 0.7,0.2 1.4,-0.2 z"
   id="path150" />
		<path
   d="m 885.2,653.9 -1.9,-0.6 -0.6,-0.4 -1,-0.9 -1.2,-1.6 -0.3,-0.6 -0.5,-1.2 -0.2,-0.6 0,-0.8 -0.2,-0.6 0,-0.7 -0.1,-0.7 -0.1,-0.7 0,-2.6 0.2,-2.7 0.2,-1.3 0.5,-2.1 0.2,-0.7 0.3,-0.6 0.7,-1.1 0.9,-1.2 0.5,-0.4 0.6,-0.4 1.8,-0.8 1.4,-0.2 1,0 1,0.1 1.2,0.2 1.8,1 1,1.1 0.7,1.2 0.2,0.6 0.2,1.7 -0.2,1.7 -0.1,0.6 -0.2,0.4 -0.3,0.7 -1,1.7 -1.4,1.4 -0.6,0.5 -1.7,1 -0.6,0.2 -0.7,0.2 -1.2,0.5 -0.7,0.1 -0.7,0 -0.7,0.2 -0.6,0.3 -0.3,0.7 0.3,1.1 0.4,1 1,1.7 1.1,0.8 0.6,0.1 1.1,0.1 1,0 0.7,-0.2 0.7,-0.1 0.6,-0.3 0.9,-0.5 0.9,-0.7 0.7,-0.3 0.6,0.3 0.3,0.6 0.1,0.8 -0.3,0.7 -0.5,0.5 -0.6,0.5 -0.6,0.3 -0.7,0.2 -0.7,0.3 -1.3,0.3 -0.8,0.3 -2.1,0 -0.7,-0.1 z m -1.4,-10.6 1.3,-0.4 0.6,-0.2 1.2,-0.6 1.7,-1.1 0.4,-0.5 0.3,-0.6 0.3,-0.7 0.2,-0.6 0.2,-0.6 0.1,-0.7 0,-1 0,-1 -0.1,-0.7 -0.9,-1.1 -0.5,-0.2 -0.7,-0.3 -0.9,0 -1.2,0.1 -1,0.2 -0.5,0.3 -0.3,0.4 -0.4,0.5 -0.4,0.7 -0.5,1.3 -0.6,3.3 0,1.3 -0.1,1.3 0.4,0.7 0.7,0.2 0.7,0 z"
   id="path152" />
		<path
   d="m 906.7,653.5 -0.8,-0.2 -0.5,-0.9 0.1,-4.5 -0.1,-0.7 0,-0.8 0,-0.9 0.1,-0.7 -0.1,-0.8 0.1,-0.8 -0.1,-0.8 0,-0.8 0.1,-1.1 0,-3 0,-1.2 0,-0.7 0.1,-2 0,-1.1 -0.1,-0.7 0.1,-0.9 -0.1,-0.8 0,-0.8 0,-0.7 0,-2.9 -0.1,-0.9 0,-0.8 0,-0.6 0.1,-0.8 0,-1.4 0.4,-0.9 0.8,-0.5 0.8,0.1 0.7,0 0.8,-0.1 1.5,0 0.9,0.1 1.2,-0.1 1.1,0.1 0.9,0 0.7,0.2 0.8,0.1 0.7,0.3 0.8,0.4 0.7,0.3 0.5,0.4 1.1,1.2 0.4,0.6 0.3,0.7 0.6,1.4 0.2,0.9 0.4,3.6 0,1.2 -0.2,0.8 0,0.8 -0.1,0.7 -0.7,2.1 -0.3,0.6 -0.9,1.2 -0.5,0.6 -0.6,0.5 -0.6,0.6 -1.3,0.7 -2.2,0.6 -4.6,0.3 -0.6,0.3 -0.4,0.8 0.1,0.7 0,5.4 -0.1,0.7 0,3.3 -0.4,1.1 -0.8,0.4 -0.9,0.1 z m 5.5,-15.2 1.5,-0.3 0.8,-0.3 0.7,-0.2 0.7,-0.4 1.2,-1.2 0.3,-0.7 0.4,-0.6 0.5,-1.6 0,-0.8 0.1,-0.8 0,-2.3 -0.1,-1.4 -0.1,-0.6 -0.3,-1.1 -0.5,-1.2 -0.5,-0.7 -1.1,-0.9 -0.8,-0.2 -0.9,-0.3 -1.8,-0.1 -1.1,0.1 -0.7,0 -0.8,-0.1 -0.7,0.4 -0.3,0.9 0,0.7 -0.1,3.6 0,1.1 0,0.8 0,0.8 0,0.7 0.1,1.5 -0.1,0.9 0.1,1.2 -0.2,1.8 0.4,0.8 0.8,0.4 1.2,0.1 1.3,0 z"
   id="path154" />
		<path
   d="m 931.6,653.9 -1.9,-0.6 -0.6,-0.4 -1,-0.9 -1.2,-1.6 -0.3,-0.6 -0.5,-1.2 -0.2,-0.6 0,-0.8 -0.2,-0.6 0,-0.7 -0.1,-0.7 -0.1,-0.7 0,-2.6 0.2,-2.7 0.2,-1.3 0.5,-2.1 0.2,-0.7 0.3,-0.6 0.7,-1.1 0.9,-1.2 0.5,-0.4 0.6,-0.4 1.8,-0.8 1.4,-0.2 1,0 1,0.1 1.2,0.2 1.8,1 1,1.1 0.7,1.2 0.2,0.6 0.2,1.7 -0.2,1.7 -0.1,0.6 -0.1,0.7 -0.3,0.7 -1,1.7 -1.4,1.4 -0.6,0.5 -1.7,1 -0.6,0.2 -0.7,0.2 -1.2,0.5 -0.7,0.1 -0.7,0 -0.7,0.2 -0.6,0.3 -0.3,0.7 0.3,1.1 0.4,1 1,1.7 1.1,0.8 0.6,0.1 1.1,0.1 1,0 0.7,-0.2 0.7,-0.1 0.6,-0.3 0.9,-0.5 0.9,-0.7 0.7,-0.3 0.6,0.3 0.3,0.6 0.1,0.8 -0.3,0.7 -0.5,0.5 -0.6,0.5 -0.6,0.3 -0.7,0.2 -0.7,0.3 -1.3,0.3 -0.6,0.1 -2.1,0 -1,-0.2 z m -1.4,-10.6 1.3,-0.4 0.6,-0.2 1.2,-0.6 1.7,-1.1 0.4,-0.5 0.3,-0.6 0.3,-0.7 0.2,-0.6 0.2,-0.6 0.1,-0.7 0,-1 0,-1 -0.1,-0.7 -0.9,-1.1 -0.5,-0.2 -0.7,-0.3 -0.9,0 -1.2,0.1 -1,0.2 -0.5,0.3 -0.4,0.4 -0.4,0.5 -0.4,0.7 -0.5,1.3 -0.6,3.3 0,1.3 -0.1,1.3 0.4,0.7 0.7,0.2 0.8,0 z"
   id="path156" />
		<path
   d="m 945.7,653.3 -0.4,-0.6 -0.1,-0.6 -0.1,-1.2 0,-2.1 0,-0.7 0,-0.6 0,-1.1 0,-1.1 0.1,-1.2 -0.1,-0.7 0,-8.8 0,-0.8 0,-0.8 0.1,-0.6 -0.1,-4.2 0,-1 0,-3 -0.1,-0.7 0,-1.3 -0.1,-1.3 0.2,-0.7 0.5,-0.3 0.5,0 0.6,-0.1 0.7,0.4 0.5,0.5 0.1,3.5 0,0.6 0.1,0.7 -0.1,1.8 0,1.3 0,0.7 0,1.1 0,0.6 0,2.2 0.1,0.9 -0.1,1.1 0,0.6 0,0.7 0,0.6 0.1,0.7 0,9.6 0,0.7 0,1.3 0.1,0.6 0,0.6 0,0.8 0,1.3 -0.1,0.7 -0.5,0.2 -0.6,0 -0.7,0.1 -0.6,-0.4 z"
   id="path158" />
		<path
   d="m 954.6,626.8 -0.6,-0.4 -0.3,-0.6 -0.2,-1 0.2,-0.9 0.4,-0.6 0.5,-0.4 1.1,0 1,0 0.5,0.4 0.5,0.6 0.1,1 -0.2,1.1 -0.4,0.4 -0.5,0.4 -1,0.1 -1.1,-0.1 z m 0.1,26.4 -0.4,-0.6 -0.1,-0.6 0,-0.6 -0.1,-0.7 0,-0.7 -0.1,-2.8 0,-1.1 0,-4 0,-1.1 0,-4.1 0,-0.7 0,-0.7 0,-0.5 0,-0.8 -0.1,-0.6 0,-0.7 0,-0.7 -0.1,-0.6 0.2,-0.8 0.5,-0.2 0.6,-0.1 0.6,0.1 0.7,0.2 0.4,0.7 0,1.3 0.1,0.6 0,2.2 0,1.1 0,1.7 0,0.7 0,3.1 0,0.6 -0.1,1.1 0,2.3 0,1 0,0.6 0.1,0.6 0,0.8 0,0.7 0,0.6 0,0.7 0,0.7 0,0.6 -0.1,0.7 -0.6,0.3 -1.2,0 -0.3,-0.3 z"
   id="path160" />
		<path
   d="m 969.1,666 -0.7,0 -0.6,0 -0.7,-0.2 -0.6,-0.3 -0.6,-0.2 -1.6,-1.1 -0.3,-0.8 0.1,-0.7 0.3,-0.6 0.5,-0.2 0.6,0.1 0.5,0.4 0.6,0.4 0.7,0.3 1.2,0.4 1,0 0.6,0.1 1.1,-0.1 0.6,-0.2 1.2,-0.6 0.5,-0.4 0.3,-0.5 0.4,-0.7 0.3,-0.6 0.4,-1.2 0.1,-3.4 0,-0.6 0,-0.7 0,-0.9 0,-1 -0.2,-0.5 -0.5,0.1 -0.5,0.5 -1.4,0.9 -1,0.3 -0.7,0.1 -1,0 -1.1,-0.1 -1.6,-0.3 -1,-0.5 -0.5,-0.3 -0.5,-0.5 -0.5,-0.4 -0.4,-0.6 -0.4,-0.4 -0.3,-0.6 -0.3,-0.7 -0.2,-0.6 -0.4,-1.4 -0.1,-0.6 -0.2,-0.7 -0.1,-0.8 0,-0.7 -0.1,-1.3 0,-1.1 0,-1 0,-0.7 0.2,-1.2 0,-0.7 0.2,-1.5 0.6,-1.8 0.8,-1.9 0.4,-0.7 1.3,-1.3 0.5,-0.5 0.6,-0.2 1,-0.2 0.9,-0.2 2.1,0 1.3,0.3 0.7,0.3 0.6,0.3 0.6,0.5 0.5,0.3 0.4,0.2 0.4,-0.4 0.5,-0.7 0.8,-0.5 0.8,0 0.6,0.4 0.3,0.8 -0.1,3.3 0,1.6 0,1.7 0,1 0,1.6 0,0.7 0,0.7 0,0.6 0,1.7 0.1,0.9 0,0.7 -0.1,1.1 0,0.6 0,0.7 0,1 0,0.7 0,0.6 0,0.7 0,0.8 0,0.6 0,0.6 -0.1,0.7 0.1,0.7 0,2.8 0,0.5 -0.1,0.7 -0.6,1.9 -0.2,0.6 -0.3,0.6 -0.4,0.6 -0.4,0.5 -1,1 -1.1,0.8 -0.5,0.3 -0.7,0.2 -0.7,0.1 -0.6,0.3 -0.6,0 -1,0 -0.7,-0.3 z m 2.1,-14.7 0.6,-0.1 0.6,-0.2 0.6,-0.3 1.5,-1.2 0.4,-0.9 0.2,-0.9 0,-0.7 0,-0.7 0,-5.9 0,-0.6 0.1,-1.1 0,-1.8 -0.2,-1.3 -0.4,-0.8 -0.5,-0.5 -0.6,-0.4 -1.1,-0.7 -0.6,-0.2 -0.8,0 -1,0 -1,0 -0.6,0.2 -0.6,0.3 -0.5,0.3 -0.5,0.4 -0.7,1.1 -0.4,1.3 -0.1,0.6 -0.1,0.8 0,0.5 -0.1,0.7 0,1.4 0,0.7 0,1.1 0,1 0,0.7 0.1,0.6 0,0.6 0.2,1.3 0.1,0.6 0.1,0.7 0.2,0.6 0.6,1.1 0.4,0.6 0.4,0.4 0.5,0.4 0.6,0.1 0.6,0.2 1,0 1,0 z"
   id="path162" />
		<path
   d="m 984.9,653.5 -0.9,-0.3 -0.3,-1 0,-2.3 0,-0.8 -0.1,-1.7 0,-4.2 0.1,-0.7 0,-0.7 -0.1,-9.4 -0.1,-0.8 0.2,-0.6 0.5,-0.3 1,0 1,0.2 0.5,0.7 0,0.5 0.3,0.5 0.4,-0.3 0.5,-0.5 0.5,-0.4 0.6,-0.3 1.2,-0.6 0.7,-0.2 1.3,-0.2 1.3,0.2 0.7,0.2 0.5,0.5 0.1,0.8 -0.2,0.7 -0.5,0.5 -0.7,0.1 -0.7,-0.2 -0.7,0 -0.6,0 -0.7,0.1 -0.6,0.2 -0.6,0.2 -0.6,0.3 -0.5,0.3 -1,1 -0.5,0.9 -0.2,0.9 0,0.6 0,1 0,0.8 0,1 -0.1,0.7 0.1,0.7 0,0.6 0,0.6 0,1.4 0,1.3 -0.1,1.3 0,2.1 0.1,0.7 0,2.2 -0.1,0.7 -0.3,0.7 -0.6,0.3 -0.8,0 z"
   id="path164" />
		<path
   d="m 1003.9,653.8 -0.6,0 -1.2,-0.6 -0.6,-0.4 -0.6,-0.3 -0.9,-0.9 -0.4,-0.5 -0.7,-1.3 -0.5,-1.2 -0.3,-1.2 -0.4,-2.1 -0.1,-1.4 0,-2.7 0.1,-1.4 0.1,-1.3 0.1,-0.7 0.5,-2 0.3,-0.5 0.5,-1.3 0.4,-0.6 0.8,-1 0.6,-0.5 0.5,-0.3 0.8,-0.4 1,-0.4 1,-0.2 1.3,0 1,0 0.7,0.1 1.3,0.4 0.5,0.2 0.5,0.3 1,0.8 0.8,1.1 0.7,1.2 0.2,0.7 0.3,0.5 0.1,0.7 0.2,0.7 0.1,0.6 0.1,0.7 0.1,1.4 0.2,1.3 -0.1,2 0,0.8 0,0.7 -0.3,2.1 -0.1,0.5 -0.6,1.9 -0.3,0.7 -0.3,0.5 -0.3,0.7 -0.4,0.5 -0.5,0.5 -0.5,0.5 -0.5,0.4 -1.1,0.7 -1.2,0.3 -0.7,0.1 -2,0 -0.6,-0.4 z m 2.7,-2.5 0.6,-0.2 0.6,-0.2 0.6,-0.4 0.4,-0.5 0.4,-0.7 0.3,-0.6 0.2,-0.6 0.2,-0.7 0.1,-0.7 0,-0.6 0.1,-0.8 0.1,-0.6 0,-0.7 0,-0.8 0,-1.1 0.1,-0.9 -0.1,-2 -0.2,-1.3 -0.2,-0.7 -0.1,-0.6 -0.5,-1.2 -0.3,-0.6 -0.4,-0.5 -0.5,-0.5 -1.1,-0.7 -0.6,-0.1 -0.9,0 -1,0.1 -1.2,0.3 -0.6,0.6 -0.6,0.8 -0.6,1.1 -0.1,0.7 -0.2,0.7 -0.2,1.3 0,0.7 -0.1,0.6 -0.1,1.4 0.1,2 0,1.3 0,0.8 0.1,0.6 0.5,2.1 0.2,0.7 0.2,0.5 0.4,0.6 0.4,0.6 0.6,0.5 0.5,0.3 0.7,0.2 2.2,-0.2 z"
   id="path166" />
		<path
   d="m 1022.8,653.9 -0.6,-0.1 -0.6,-0.2 -0.7,-0.1 -0.6,-0.1 -0.6,-0.3 -1.2,-0.5 -0.5,-0.4 -0.6,-0.4 -0.3,-0.6 0.1,-0.9 0.3,-0.5 0.5,-0.3 0.7,0.1 0.6,0.3 1.9,1.1 1.3,0.3 1.7,0.2 1,-0.1 0.6,-0.2 0.6,-0.3 0.5,-0.5 0.6,-1 0.1,-0.7 0,-1 -0.1,-1.2 -0.2,-0.6 -0.4,-0.7 -0.5,-0.5 -0.9,-0.7 -0.9,-0.5 -0.5,-0.3 -1.1,-0.4 -0.9,-0.4 -1.2,-0.7 -1.7,-1.2 -1.2,-1.5 -0.3,-0.7 -0.2,-0.6 -0.1,-0.6 -0.1,-2 0.1,-0.7 0.1,-0.6 0.3,-0.6 0.3,-0.7 1,-0.9 0.5,-0.2 0.5,-0.4 2.3,-0.5 0.7,0 1.7,0 0.6,0.1 1.3,0.4 0.6,0.1 0.6,0.3 0.6,0.3 0.4,0.7 0,0.8 -0.2,0.5 -0.5,0.4 -0.7,-0.1 -0.7,-0.2 -1,-0.4 -1,-0.2 -0.7,-0.2 -2.1,0.1 -0.6,0.3 -0.6,0.5 -0.3,0.4 -0.1,0.6 -0.1,1 0,1.1 0.2,0.5 0.4,0.6 0.5,0.5 0.4,0.2 0.6,0.5 0.6,0.3 0.9,0.5 3.1,1.6 1,0.8 0.4,0.4 0.9,1.1 0.5,1.2 0.2,0.6 0.1,0.7 0,2 -0.1,0.6 -0.4,1.3 -0.3,0.6 -0.8,1.2 -0.5,0.5 -1.8,0.9 -0.7,0.2 -0.6,0.1 -1,0 -1,0 -0.1,0 z"
   id="path168" />
		<path
   d="m 1042,665.6 -0.6,-0.4 -0.4,-0.7 0,-0.8 0.3,-0.7 0.6,-0.5 1.2,-1.4 0.3,-0.7 0.3,-0.5 1,-2.5 0.2,-0.7 0.2,-0.6 0.1,-0.8 0.2,-0.6 0,-1.1 -0.3,-1.9 -0.7,-2.2 -0.2,-0.6 -0.1,-0.7 -0.4,-1.3 -0.2,-0.5 -0.3,-1.3 -0.2,-0.7 -0.2,-0.6 -0.1,-0.6 -0.4,-1.3 -0.3,-0.6 -0.3,-1.3 -0.3,-0.8 -0.1,-0.5 -0.2,-0.6 -0.1,-0.7 -0.2,-0.7 -0.1,-0.6 -0.3,-0.6 -0.7,-2.5 -0.2,-0.6 -0.1,-0.7 0.1,-0.7 0.5,-0.2 1.1,-0.1 1.1,0.2 0.5,0.7 0.6,2 0.1,0.7 0.2,0.6 0.5,1.9 0.3,0.6 0.1,0.6 0.3,1 0.2,1 0.2,0.7 0.1,0.6 0.2,0.6 0.2,0.7 0.2,0.6 0.1,0.7 0.3,0.9 0.6,2.4 0.1,0.7 0.2,0.7 0.2,0 0.2,-0.7 1.5,-6.5 0.1,-0.8 0.4,-1.3 0.1,-0.7 0.9,-3.1 0.1,-0.7 0.4,-1.2 0.1,-0.7 0.2,-0.7 0.1,-0.5 0.6,-0.7 0.6,-0.3 1.1,0 0.9,0.3 0.1,0.7 -0.4,1.2 -0.1,0.7 -0.2,0.6 -0.1,0.6 -0.2,0.7 -0.1,0.7 -0.3,1.2 -0.2,0.7 -0.3,1.3 -0.2,0.6 -0.3,1.4 -0.3,0.6 -0.3,1.2 -0.2,1.3 -0.5,1.2 -0.1,0.7 -0.2,0.7 -0.2,0.6 -0.1,0.7 -0.2,0.6 -0.1,0.6 -0.2,0.7 -0.2,0.7 -0.4,1.5 -0.3,1.3 -0.4,1 -0.1,0.6 -0.2,0.5 -0.1,0.7 -0.2,0.7 -0.1,0.7 -0.2,0.6 -0.2,0.6 -0.2,0.6 -0.6,1.2 -0.3,0.6 -0.3,0.7 -1.6,2.1 -0.5,0.4 -0.5,0.3 -0.6,0.5 -1,0 z"
   id="path170" />
		<path
   d="m 1067.4,653.5 -0.8,-0.2 -0.5,-0.9 0.1,-4.5 -0.1,-0.7 0,-0.8 0,-0.9 0.1,-0.7 -0.1,-0.8 0.1,-0.8 -0.1,-0.8 0,-0.8 0.1,-1.1 0,-3 0,-1.2 0,-0.7 0.1,-2 0,-1.1 -0.1,-0.7 0.1,-0.9 -0.1,-0.8 0,-0.8 0,-0.7 0,-2.9 -0.1,-0.9 0,-0.8 0,-0.6 0.1,-0.8 0,-1.4 0.4,-0.9 0.8,-0.5 0.8,0.1 0.7,0 0.8,-0.1 1.5,0 0.9,0.1 1.2,-0.1 1.1,0.1 0.9,0 0.7,0.2 0.8,0.1 0.7,0.3 0.8,0.4 0.7,0.3 0.5,0.4 1.1,1.2 0.4,0.6 0.3,0.7 0.6,1.4 0.2,0.9 0.4,3.6 0,1.2 -0.2,0.8 0,0.8 -0.1,0.7 -0.7,2.1 -0.3,0.6 -0.9,1.2 -0.5,0.6 -0.6,0.5 -0.6,0.6 -1.3,0.7 -2.2,0.6 -4.6,0.3 -0.6,0.3 -0.4,0.8 0.1,0.7 0,5.4 -0.1,0.7 0,3.3 -0.4,1.1 -0.8,0.4 -0.9,0.1 z m 5.4,-15.2 1.5,-0.3 0.8,-0.3 0.7,-0.2 0.7,-0.4 1.2,-1.2 0.3,-0.7 0.4,-0.6 0.5,-1.6 0,-0.8 0.1,-0.8 0,-2.3 -0.1,-1.4 -0.1,-0.6 -0.3,-1.1 -0.5,-1.2 -0.5,-0.7 -1.1,-0.9 -0.7,-0.1 -0.9,-0.3 -1.8,-0.1 -1.1,0.1 -0.7,0 -0.8,-0.1 -0.7,0.5 -0.3,0.9 0,0.7 -0.1,3.6 0,1.1 0,0.8 0,0.8 0,0.7 0.1,1.5 -0.1,0.9 0.1,1.2 -0.2,1.8 0.4,0.8 0.8,0.4 1.2,0.1 1.2,-0.2 z"
   id="path172" />
		<path
   d="m 1091.3,654 -0.7,-0.1 -0.6,-0.2 -1.6,-1 -0.8,-1.1 -0.5,-1.4 -0.1,-0.6 -0.2,-2.4 0,-1.1 0,-0.5 0,-5.8 0,-0.6 0,-1.3 0,-1.7 0,-0.6 0,-0.6 -0.1,-0.7 0,-0.7 -0.1,-1.9 0.2,-0.7 0.5,-0.3 0.6,0 0.7,0 0.6,0.4 0.5,0.6 0,0.7 0,0.6 0,0.7 0,3.5 0,0.7 0,0.7 0,0.5 0,0.8 -0.1,2.4 0,0.7 0,0.6 0,0.7 0,0.7 0.1,2 0,1.1 0.1,0.6 0.3,1.4 0.3,0.5 0.5,0.6 0.5,0.2 0.6,0.2 2.1,0 0.7,-0.3 0.6,-0.1 1.2,-0.7 0.5,-0.5 0.5,-0.5 0.5,-0.8 0.2,-1 0,-0.6 0,-1.3 -0.1,-1.8 0.1,-2.4 -0.1,-0.6 0.1,-0.6 0,-0.8 0,-0.7 0,-0.8 0,-0.6 0,-0.7 0,-0.7 -0.1,-1.3 0.1,-0.8 0,-1.3 0,-0.7 0.3,-0.7 0.7,-0.3 0.6,0 0.6,0 0.6,0.2 0.3,1.1 0,0.6 0,2.4 0,2.8 -0.1,1.2 0.1,0.7 0,11.5 0.1,1.2 -0.1,0.7 -0.6,0.3 -1.2,0 -0.7,-0.3 -0.5,-0.5 0,-0.7 -0.3,-0.2 -0.4,0.1 -1.6,1.1 -1.2,0.5 -0.6,0.2 -0.6,0.2 -1.7,0.1 -0.7,-0.2 z"
   id="path174" />
		<path
   d="m 1120.6,653.5 -0.6,0 -0.7,-0.2 -0.4,-0.5 0,-0.5 -0.1,-1.4 0,-0.9 0,-0.6 0,-0.7 0,-0.7 0.1,-0.8 0,-3.6 0,-0.8 0,-0.6 -0.1,-1.7 0.1,-4 -0.2,-1.9 -0.2,-0.7 -0.3,-0.5 -0.5,-0.3 -0.6,-0.2 -1,0 -1.5,0.1 -0.7,0.2 -0.6,0.3 -0.5,0.3 -1,0.8 -0.4,0.6 -0.5,0.8 -0.2,1.2 0,3.8 -0.1,0.6 0,2.4 0,0.6 0,0.8 0,0.6 0.1,2.8 0,0.6 0,1 -0.1,0.8 0.1,0.7 0,0.7 -0.4,0.6 -0.6,0.4 -0.7,0 -0.5,-0.1 -0.6,-0.3 -0.4,-0.7 0.1,-0.7 0,-0.6 0,-1.2 0,-0.8 0,-0.7 0,-0.7 0,-0.6 0,-0.7 0,-0.6 0,-1.3 0,-0.8 0,-0.7 0,-0.7 0,-1.1 0,-0.6 0,-1.1 0,-0.7 0,-0.6 0,-0.7 0,-0.7 0,-1 0,-1 0,-0.6 -0.2,-2.7 0.1,-0.6 0.9,-0.4 0.6,0 1.1,0.3 0.4,0.6 0,0.7 0.3,0.3 0.5,-0.2 0.6,-0.4 0.5,-0.2 0.6,-0.4 0.7,-0.4 0.6,-0.2 0.7,-0.3 0.7,-0.1 0.6,-0.1 1.7,0 1,0.1 0.7,0.2 1.1,0.7 0.4,0.4 0.7,1.3 0.2,0.6 0.1,0.5 0.1,2.7 0,1.3 0,0.7 -0.1,1.1 0,7.2 0.1,4.6 0.1,0.6 -0.3,0.8 -0.5,0.3 -1,0.2 z"
   id="path176" />
		<path
   d="m 1133.3,653.9 -0.7,-0.2 -0.6,-0.3 -0.6,-0.1 -0.5,-0.4 -0.5,-0.3 -0.8,-1.1 -0.3,-0.6 -0.3,-0.6 -0.4,-1.3 -0.2,-1.9 0,-2.8 -0.1,-0.6 0,-0.8 0,-0.6 0,-0.7 0,-1.7 0,-0.6 -0.1,-1.8 0,-1.3 0,-1.4 0,-0.7 -0.4,-0.6 -1,-0.4 -1.2,-0.2 -0.3,-0.5 0,-0.7 0.4,-0.6 1.1,-0.3 1.1,0 0.3,-0.4 0,-0.8 0,-0.7 0,-0.7 0,-0.7 0,-2.1 -0.1,-1.3 0.2,-0.5 0.5,-0.5 1.2,0.1 0.7,0.3 0.4,0.5 0.1,1.3 0,1.4 0,0.5 -0.1,2.5 0.4,0.7 0.7,0.2 1.3,0 1.3,0 1.3,0 0.6,0.4 0.4,0.6 0,0.6 -0.3,0.5 -0.7,0.3 -0.6,0.1 -0.7,0 -1.3,0 -0.7,0 -0.6,0 -0.7,0.3 -0.3,0.7 0,0.7 0,0.7 0.1,0.7 -0.1,6.8 0.1,1 0,2.5 0.2,1.2 0.3,1.3 0.6,1.2 1,0.8 1,0.2 1.6,0 0.6,-0.1 0.7,-0.2 0.8,0 0.5,0.4 0.1,0.6 -0.2,0.8 -0.6,0.5 -1.3,0.4 -0.7,0.1 -0.7,0.2 -1,0.1 -0.9,-0.1 z"
   id="path178" />
		<path
   d="m 1148.1,653.8 -0.6,0 -1.2,-0.6 -0.6,-0.4 -0.6,-0.3 -0.9,-0.9 -0.4,-0.5 -0.7,-1.3 -0.5,-1.2 -0.3,-1.2 -0.4,-2.1 -0.1,-1.4 0,-2.7 0.1,-1.4 0.1,-1.3 0.1,-0.7 0.5,-2 0.3,-0.5 0.5,-1.3 0.4,-0.6 0.8,-1 0.6,-0.5 0.5,-0.3 0.8,-0.4 1,-0.4 1,-0.2 1.3,0 1,0 0.7,0.1 1.3,0.4 0.5,0.2 0.5,0.3 1,0.8 0.8,1.1 0.7,1.2 0.2,0.7 0.3,0.5 0.1,0.7 0.2,0.7 0.1,0.6 0.1,0.7 0.1,1.4 0.2,1.3 -0.1,2 0,0.8 0,0.7 -0.3,2.1 -0.1,0.5 -0.6,1.9 -0.3,0.7 -0.3,0.5 -0.3,0.7 -0.4,0.5 -0.5,0.5 -0.5,0.5 -0.5,0.4 -1.1,0.7 -1.2,0.3 -0.7,0.1 -2,0 -0.6,-0.4 z m 2.7,-2.5 0.6,-0.2 0.6,-0.2 0.6,-0.4 0.4,-0.5 0.4,-0.7 0.3,-0.6 0.2,-0.6 0.2,-0.7 0.1,-0.7 0,-0.6 0.1,-0.8 0.1,-0.6 0,-0.7 0,-0.8 0,-1.1 0.1,-0.9 -0.1,-2 -0.2,-1.3 -0.2,-0.7 -0.1,-0.6 -0.5,-1.2 -0.3,-0.6 -0.4,-0.5 -0.5,-0.5 -1.1,-0.7 -0.6,-0.1 -0.9,0 -1,0.1 -1.2,0.3 -0.6,0.6 -0.6,0.8 -0.6,1.1 -0.1,0.7 -0.2,0.7 -0.2,1.3 0,0.7 -0.1,0.6 -0.1,1.4 0.1,2 0,1.3 0,0.8 0.1,0.6 0.5,2.1 0.2,0.7 0.2,0.5 0.4,0.6 0.4,0.6 0.6,0.5 0.5,0.3 0.7,0.2 2.2,-0.2 z"
   id="path180" />
		<path
   d="m 1167,653.9 -0.6,-0.1 -0.6,-0.2 -0.7,-0.1 -0.6,-0.1 -0.6,-0.3 -1.2,-0.5 -0.5,-0.4 -0.6,-0.4 -0.3,-0.6 0.1,-0.9 0.3,-0.5 0.5,-0.3 0.7,0.1 0.6,0.3 1.9,1.1 1.3,0.3 1.7,0.2 1,-0.1 0.6,-0.2 0.6,-0.3 0.5,-0.5 0.6,-1 0.1,-0.7 0,-1 -0.1,-1.2 -0.2,-0.6 -0.4,-0.7 -0.5,-0.5 -0.9,-0.7 -0.9,-0.5 -0.5,-0.3 -1.1,-0.4 -0.9,-0.4 -1.2,-0.7 -1.7,-1.2 -1.2,-1.5 -0.3,-0.7 -0.2,-0.6 -0.1,-0.6 -0.1,-2 0.1,-0.7 0.1,-0.6 0.3,-0.6 0.3,-0.7 1,-0.9 0.5,-0.2 0.5,-0.4 2.3,-0.5 0.7,0 1.7,0 0.6,0.1 1.3,0.4 0.6,0.1 0.6,0.3 0.6,0.3 0.4,0.7 0,0.8 -0.2,0.5 -0.5,0.4 -0.7,-0.1 -0.7,-0.2 -1,-0.4 -1,-0.2 -0.7,-0.2 -2.1,0.1 -0.6,0.3 -0.6,0.5 -0.3,0.4 -0.1,0.6 -0.1,1 0,1.1 0.2,0.5 0.4,0.6 0.5,0.5 0.4,0.2 0.6,0.5 0.6,0.3 0.9,0.5 3.1,1.6 1,0.8 0.4,0.4 0.9,1.1 0.5,1.2 0.2,0.6 0.1,0.7 0,2 -0.1,0.6 -0.4,1.3 -0.3,0.6 -0.8,1.2 -0.5,0.5 -1.8,0.9 -0.7,0.2 -0.6,0.1 -1,0 -1,0 -0.1,0 z"
   id="path182" />
		<path
   d="m 1192.3,653.9 -0.9,0 -0.7,0 -0.6,-0.1 -0.6,-0.4 -1.2,-0.6 -0.5,-0.4 -0.5,-0.5 -0.3,-0.6 -0.4,-0.6 -0.6,-1.1 -0.1,-0.6 -0.3,-0.6 -0.3,-1.5 -0.1,-0.8 -0.2,-1.2 -0.1,-1.4 0,-2 0.1,-0.7 0.1,-0.8 0,-0.6 0.1,-0.7 0.1,-0.7 0.1,-0.6 0.4,-1.4 0.8,-1.9 1.2,-1.6 0.5,-0.5 0.6,-0.3 0.5,-0.4 0.6,-0.3 0.6,-0.2 0.6,-0.1 0.7,-0.1 1,0 1.1,0 0.7,0.2 0.6,0.1 1.3,0.5 0.5,0.3 0.5,0 0.3,-0.5 0,-0.6 0.1,-1.1 -0.1,-4.3 0.1,-0.6 0,-0.7 0,-0.7 -0.1,-0.8 0,-0.6 -0.1,-0.7 0.2,-0.7 0.5,-0.3 1,0 0.9,0.3 0.4,0.6 0.2,1.2 0,0.7 0.1,0.6 0,0.7 0,1.6 0,2.7 0,0.6 0,1.7 0,0.7 0,1 0,0.6 0,1.8 0,1.9 0.1,0.8 -0.1,6.4 0,0.8 0,5.1 0.2,2.6 -0.3,0.7 -0.6,0.4 -0.7,-0.1 -0.8,-0.2 -0.5,-0.5 -0.1,-0.6 -0.3,-0.4 -0.4,0.1 -0.5,0.5 -0.5,0.3 -1.1,0.8 -0.6,0.1 -1.3,0.4 -1.3,-0.1 z m 0.5,-2.5 1,-0.1 0.6,-0.1 0.5,-0.2 0.6,-0.2 0.5,-0.3 0.5,-0.5 0.4,-0.6 0.4,-0.7 0.2,-0.9 0,-5.8 0,-0.7 -0.1,-1 0,-4.1 -0.2,-0.9 -0.4,-0.8 -1.7,-1.2 -1.3,-0.3 -1.1,0 -1,0 -1,0.3 -0.9,0.4 -0.9,1.1 -0.3,0.5 -0.3,0.7 -0.2,0.7 -0.5,2.7 0,0.6 -0.1,1.3 0,1.1 0.1,1.8 0,0.5 0,1.3 0.3,1.3 0.1,0.8 0.2,0.5 0.2,0.6 0.3,0.7 0.4,0.5 0.5,0.4 1.1,0.6 0.7,0.2 1.4,-0.2 z"
   id="path184" />
		<path
   d="m 1211.9,653.9 -1.9,-0.6 -0.6,-0.4 -1,-0.9 -1.2,-1.6 -0.3,-0.6 -0.5,-1.2 -0.2,-0.6 0,-0.8 -0.2,-0.6 0,-0.7 -0.1,-0.7 -0.1,-0.7 0,-2.6 0.2,-2.7 0.2,-1.3 0.5,-2.1 0.2,-0.7 0.3,-0.6 0.7,-1.1 0.9,-1.2 0.5,-0.4 0.6,-0.4 1.8,-0.8 1.4,-0.2 1,0 1,0.1 1.2,0.2 1.8,1 1,1.1 0.7,1.2 0.2,0.6 0.2,1.7 -0.2,1.7 -0.1,0.6 -0.1,0.7 -0.3,0.7 -1,1.7 -1.4,1.4 -0.6,0.5 -1.7,1 -0.6,0.2 -0.7,0.2 -1.2,0.5 -0.7,0.1 -0.7,0 -0.7,0.2 -0.6,0.3 -0.3,0.7 0.3,1.1 0.4,1 1,1.7 1.1,0.8 0.6,0.1 1.1,0.1 1,0 0.7,-0.2 0.7,-0.1 0.6,-0.3 0.9,-0.5 0.9,-0.7 0.7,-0.3 0.6,0.3 0.3,0.6 0.1,0.8 -0.3,0.7 -0.5,0.5 -0.6,0.5 -0.6,0.3 -0.7,0.2 -0.7,0.3 -1.3,0.3 -0.6,0.1 -2.1,0 -1,-0.2 z m -1.4,-10.6 1.3,-0.4 0.6,-0.2 1.2,-0.6 1.7,-1.1 0.4,-0.5 0.3,-0.6 0.3,-0.7 0.2,-0.6 0.2,-0.6 0.1,-0.7 0,-1 0,-1 -0.1,-0.7 -0.9,-1.1 -0.5,-0.2 -0.7,-0.3 -0.9,0 -1.2,0.1 -1,0.2 -0.5,0.3 -0.4,0.4 -0.4,0.5 -0.4,0.7 -0.5,1.3 -0.6,3.3 0,1.3 -0.1,1.3 0.4,0.7 0.7,0.2 0.8,0 z"
   id="path186" />
		<path
   d="m 737.5,713.5 -1.3,-0.6 -1.1,-0.9 -0.6,-0.6 -0.3,-0.6 -0.4,-0.6 -0.4,-0.7 -0.5,-1.4 -0.1,-0.8 -0.2,-0.8 -0.2,-0.6 -0.5,-2.5 0.1,-0.8 -0.2,-2.3 0.1,-1 -0.1,-0.7 0,-0.7 -0.1,-1.2 0.1,-1.2 -0.1,-0.7 0.1,-1.2 0,-1 0.3,-2.4 0,-0.8 0.1,-0.6 0.1,-0.9 0.2,-0.8 0.3,-0.6 0.1,-0.8 0.3,-0.8 0.1,-0.6 0.3,-0.8 0.9,-1.3 0.4,-0.5 1.2,-1.2 0.6,-0.3 0.7,-0.2 0.8,-0.4 0.8,0 0.7,-0.1 2.3,0 1.6,0.3 1.4,0.6 0.8,0.2 0.7,0.5 0.4,0.8 -0.1,0.8 -0.4,0.6 -0.8,0.1 -0.7,-0.1 -0.7,-0.4 -0.8,-0.2 -0.7,-0.3 -0.7,-0.1 -1.2,-0.1 -1.2,0.2 -0.6,0 -0.6,0.3 -0.5,0.3 -0.6,0.5 -0.5,0.5 -0.2,0.8 -0.7,1.3 -0.1,0.7 -0.7,4 -0.2,7.2 0.1,0.8 0,0.7 0.1,0.6 0,0.9 -0.1,0.8 0.1,0.7 0.2,2.3 0.2,1.5 0.3,0.7 0.1,0.9 0.2,0.6 0.4,0.9 0.4,0.6 0.6,0.5 0.7,0.5 0.6,0.3 0.7,0.2 1.2,0 1.1,-0.1 1.2,-0.1 1,-0.2 1.3,-0.5 0.6,-0.5 0.9,0 0.7,0.6 0,1 -0.6,1 -3.2,1.3 -1.8,0.3 -1.2,-0.1 -1.2,0.1 -2,-0.8 z"
   id="path188" />
		<path
   d="m 757.3,713.8 -0.6,0 -1.2,-0.6 -0.6,-0.4 -0.6,-0.3 -0.9,-0.9 -0.4,-0.6 -0.7,-1.3 -0.5,-1.2 -0.3,-1.2 -0.4,-2.1 -0.1,-1.4 0,-2.7 0.1,-1.4 0.1,-1.3 0.1,-0.7 0.5,-2 0.3,-0.5 0.5,-1.3 0.4,-0.6 0.8,-1 0.6,-0.5 0.5,-0.3 0.8,-0.4 1,-0.4 1,-0.2 1.3,0 1,0 0.7,0.1 1.3,0.4 0.5,0.2 0.5,0.3 1,0.8 0.8,1.1 0.7,1.2 0.2,0.7 0.3,0.5 0.1,0.7 0.2,0.7 0.1,0.6 0.1,0.7 0.1,1.4 0.2,1.3 -0.1,2 0,0.8 0,0.7 -0.3,2.1 -0.1,0.5 -0.6,1.9 -0.3,0.7 -0.3,0.5 -0.3,0.7 -0.4,0.5 -0.4,0.4 -0.5,0.5 -0.5,0.4 -1.1,0.7 -1.2,0.3 -0.7,0.1 -2,0 -0.7,-0.2 z m 2.6,-2.5 0.6,-0.2 0.6,-0.2 0.6,-0.4 0.4,-0.5 0.4,-0.7 0.3,-0.6 0.2,-0.6 0.2,-0.7 0.1,-0.7 0,-0.6 0.1,-0.8 0.1,-0.6 0,-0.7 0,-0.8 0,-1.1 0.1,-0.9 -0.1,-2 -0.2,-1.3 -0.2,-0.7 -0.1,-0.6 -0.5,-1.2 -0.3,-0.6 -0.4,-0.5 -0.5,-0.5 -1.1,-0.7 -0.6,-0.1 -0.9,0 -1,0.1 -1.2,0.3 -0.6,0.6 -0.6,0.8 -0.6,1.1 -0.1,0.7 -0.2,0.7 -0.2,1.3 0,0.7 -0.1,0.6 -0.1,1.4 0.1,2 0,1.3 0,0.8 0.1,0.6 0.5,2.1 0.2,0.7 0.2,0.5 0.4,0.6 0.4,0.6 0.6,0.5 0.5,0.3 0.7,0.2 2.2,-0.2 z"
   id="path190" />
		<path
   d="m 785.1,713.5 -0.6,0 -0.7,-0.2 -0.4,-0.5 0,-0.5 -0.1,-1.4 0,-0.9 0,-0.6 0,-0.7 0,-0.7 0.1,-0.8 0,-3.6 0,-0.8 0,-0.6 -0.1,-1.7 0.1,-4 -0.2,-1.9 -0.2,-0.7 -0.3,-0.5 -0.5,-0.3 -0.6,-0.2 -1,0 -1.5,0.1 -0.7,0.2 -0.6,0.3 -0.5,0.3 -1,0.8 -0.4,0.6 -0.5,0.8 -0.2,1.2 0,3.8 -0.1,0.6 0,2.4 0,0.6 0,0.8 0,0.6 0.1,2.8 0,0.6 0,1 -0.1,0.8 0.1,0.7 0,0.7 -0.4,0.6 -0.6,0.4 -0.7,0 -0.5,-0.1 -0.6,-0.3 -0.4,-0.7 0.1,-0.7 0,-0.6 0,-1.2 0,-0.8 0,-0.7 0,-0.7 0,-0.6 0,-0.7 0,-0.6 0,-1.3 0,-0.8 0,-0.7 0,-0.7 0,-1.1 0,-0.6 0,-1.1 0,-0.7 0,-0.6 0,-0.7 0,-0.7 0,-1 0,-1 0,-0.6 -0.2,-2.7 0.1,-0.6 0.9,-0.4 0.6,0 1.1,0.3 0.4,0.6 0,0.7 0.3,0.3 0.5,-0.2 0.6,-0.4 0.5,-0.2 0.6,-0.4 0.7,-0.4 0.6,-0.2 0.7,-0.3 0.7,-0.1 0.6,-0.1 1.7,0 1,0.1 0.7,0.2 1.1,0.7 0.4,0.4 0.7,1.3 0.2,0.6 0.1,0.5 0.1,2.7 0,1.3 0,0.7 -0.1,1.1 0,7.2 0.1,4.6 0.1,0.6 -0.3,0.8 -0.5,0.3 -1,0.2 z"
   id="path192" />
		<path
   d="m 797.9,713.9 -0.7,-0.2 -0.6,-0.3 -0.6,-0.1 -0.5,-0.4 -0.5,-0.3 -0.8,-1.1 -0.3,-0.6 -0.3,-0.6 -0.4,-1.3 -0.2,-1.9 0,-2.8 -0.1,-0.6 0,-0.8 0,-0.6 0,-0.7 0,-1.7 0,-0.6 -0.1,-1.8 0,-1.3 0,-1.4 0,-0.7 -0.4,-0.6 -1,-0.4 -1.2,-0.2 -0.3,-0.5 0,-0.7 0.4,-0.6 1.1,-0.3 1.1,0 0.3,-0.4 0,-0.8 0,-0.7 0,-0.7 0,-0.7 0,-2.1 -0.1,-1.3 0.2,-0.5 0.5,-0.5 1.2,0.1 0.7,0.3 0.4,0.5 0.1,1.3 0,1.4 0,0.5 -0.1,2.5 0.4,0.7 0.7,0.2 1.3,0 1.3,0 1.3,0 0.6,0.4 0.4,0.6 0,0.6 -0.3,0.5 -0.7,0.3 -0.6,0.1 -0.7,0 -1.3,0 -0.7,0 -0.6,0 -0.7,0.3 -0.3,0.7 0,0.7 0,0.7 0.1,0.7 -0.1,6.8 0.1,1 0,2.5 0.2,1.2 0.3,1.3 0.6,1.2 1,0.8 1,0.2 1.6,0 0.6,-0.1 0.7,-0.2 0.8,0 0.5,0.4 0.1,0.6 -0.2,0.8 -0.6,0.5 -1.3,0.4 -0.7,0.1 -0.7,0.2 -1,0.1 -0.9,-0.1 z"
   id="path194" />
		<path
   d="m 808.3,713.5 -0.9,-0.3 -0.3,-1 0,-2.3 0,-0.8 -0.1,-1.7 0,-4.2 0.1,-0.7 0,-0.7 -0.1,-9.4 -0.1,-0.8 0.2,-0.6 0.5,-0.3 1,0 1,0.2 0.5,0.7 0,0.5 0.3,0.5 0.4,-0.3 0.5,-0.5 0.5,-0.4 0.6,-0.3 1.2,-0.6 0.7,-0.2 1.3,-0.2 1.3,0.2 0.7,0.2 0.5,0.5 0.1,0.8 -0.2,0.7 -0.5,0.5 -0.7,0.1 -0.7,-0.2 -0.7,0 -0.6,0 -0.7,0.1 -0.6,0.2 -0.6,0.2 -0.6,0.3 -0.5,0.3 -1,1 -0.5,0.9 -0.2,0.9 0,0.6 0,1 0,0.8 0,1 -0.1,0.7 0.1,0.7 0,0.6 0,0.6 0,1.4 0,1.3 -0.1,1.3 0,2.1 0.1,0.7 0,2.2 -0.1,0.7 -0.3,0.7 -0.6,0.3 -0.8,0 z"
   id="path196" />
		<path
   d="m 827.3,713.8 -0.6,0 -1.2,-0.6 -0.6,-0.4 -0.6,-0.3 -0.9,-0.9 -0.4,-0.5 -0.7,-1.3 -0.5,-1.2 -0.3,-1.2 -0.4,-2.1 -0.1,-1.4 0,-2.7 0.1,-1.4 0.1,-1.3 0.1,-0.7 0.5,-2 0.3,-0.5 0.5,-1.3 0.4,-0.6 0.8,-1 0.6,-0.5 0.5,-0.3 0.8,-0.4 1,-0.4 1,-0.2 1.3,0 1,0 0.7,0.1 1.3,0.4 0.5,0.2 0.5,0.3 1,0.8 0.8,1.1 0.7,1.2 0.2,0.7 0.3,0.5 0.1,0.7 0.2,0.7 0.1,0.6 0.1,0.7 0.1,1.4 0.2,1.3 -0.1,2 0,0.8 0,0.7 -0.3,2.1 -0.1,0.5 -0.6,1.9 -0.3,0.7 -0.3,0.5 -0.1,0.5 -0.4,0.5 -0.5,0.5 -0.5,0.5 -0.5,0.4 -1.1,0.7 -1.2,0.3 -0.8,0.1 -2,0 -0.7,-0.2 z m 2.7,-2.5 0.6,-0.2 0.6,-0.2 0.6,-0.4 0.4,-0.5 0.4,-0.7 0.3,-0.6 0.2,-0.6 0.2,-0.7 0.1,-0.7 0,-0.6 0.1,-0.8 0.1,-0.6 0,-0.7 0,-0.8 0,-1.1 0.1,-0.9 -0.1,-2 -0.2,-1.3 -0.2,-0.7 -0.1,-0.6 -0.5,-1.2 -0.3,-0.6 -0.4,-0.5 -0.5,-0.5 -1.1,-0.7 -0.6,-0.1 -0.9,0 -1,0.1 -1.2,0.3 -0.6,0.6 -0.6,0.8 -0.6,1.1 -0.1,0.7 -0.2,0.7 -0.2,1.3 0,0.7 -0.1,0.6 -0.1,1.4 0.1,2 0,1.3 0,0.8 0.1,0.6 0.5,2.1 0.2,0.7 0.2,0.5 0.4,0.6 0.4,0.6 0.6,0.5 0.5,0.3 0.7,0.2 2.2,-0.2 z"
   id="path198" />
		<path
   d="m 842.6,713.3 -0.4,-0.6 -0.1,-0.6 -0.1,-1.2 0,-2.1 0,-0.7 0,-0.6 0,-1.1 0,-1.1 0.1,-1.2 -0.1,-0.7 0,-8.8 0,-0.8 0,-0.8 0.1,-0.6 -0.1,-4.2 0,-1 0,-3 -0.1,-0.7 0,-1.3 -0.1,-1.3 0.2,-0.7 0.5,-0.3 0.5,0 0.6,-0.1 0.7,0.4 0.5,0.5 0.1,3.5 0,0.6 0.1,0.7 -0.1,1.8 0,1.3 0,0.7 0,1.1 0,0.6 0,2.2 0.1,0.9 -0.1,1.1 0,0.6 0,0.7 0,0.6 0.1,0.7 0,9.6 0,0.7 0,1.3 0.1,0.6 0,0.6 0,0.8 0,1.3 -0.1,0.7 -0.5,0.2 -0.6,0 -0.7,0.1 -0.6,-0.4 z"
   id="path200" />
		<path
   d="m 862.6,713.5 -1.3,-0.6 -1.1,-0.9 -0.6,-0.6 -0.3,-0.6 -0.4,-0.6 -0.4,-0.7 -0.5,-1.4 -0.1,-0.8 -0.2,-0.8 -0.2,-0.6 -0.5,-2.5 0.1,-0.8 -0.2,-2.3 0.1,-1 -0.1,-0.7 0,-0.7 -0.1,-1.2 0.1,-1.2 -0.1,-0.7 0.1,-1.2 0,-1 0.3,-2.4 0,-0.8 0.1,-0.6 0.1,-0.9 0.2,-0.8 0.3,-0.6 0.1,-0.8 0.3,-0.8 0.1,-0.6 0.3,-0.8 0.9,-1.3 0.4,-0.5 1.2,-1.2 0.6,-0.3 0.7,-0.2 0.8,-0.4 0.8,0 0.7,-0.1 2.3,0 1.6,0.3 1.4,0.6 0.8,0.2 0.7,0.5 0.4,0.8 -0.1,0.8 -0.4,0.6 -0.8,0.1 -0.7,-0.1 -0.7,-0.4 -0.8,-0.2 -0.7,-0.3 -0.7,-0.1 -1.2,-0.1 -1.2,0.2 -0.6,0 -0.6,0.3 -0.5,0.3 -0.6,0.5 -0.4,0.5 -0.2,0.8 -0.7,1.3 -0.1,0.7 -0.7,4 -0.2,7.2 0.1,0.8 0,0.7 0.1,0.6 0,0.9 -0.1,0.8 0.1,0.7 0.2,2.3 0.2,1.5 0.3,0.7 0.1,0.9 0.2,0.6 0.4,0.9 0.4,0.6 0.6,0.5 0.7,0.5 0.6,0.3 0.7,0.2 1.2,0 1.1,-0.1 1.2,-0.1 1,-0.2 1.3,-0.5 0.6,-0.5 0.9,0 0.7,0.6 0,1 -0.6,1 -3.2,1.3 -1.8,0.3 -1.2,-0.1 -1.2,0.1 -2.1,-0.8 z"
   id="path202" />
		<path
   d="m 878.1,713.5 -0.9,-0.3 -0.3,-1 0,-2.3 0,-0.8 -0.1,-1.7 0,-4.2 0.1,-0.7 0,-0.7 -0.1,-9.4 -0.1,-0.8 0.2,-0.6 0.5,-0.3 1,0 1,0.2 0.5,0.7 0,0.5 0.3,0.5 0.4,-0.3 0.5,-0.5 0.5,-0.4 0.6,-0.3 1.2,-0.6 0.7,-0.2 1.3,-0.2 1.3,0.2 0.7,0.2 0.5,0.5 0.1,0.8 -0.2,0.7 -0.5,0.5 -0.7,0.1 -0.7,-0.2 -0.7,0 -0.6,0 -0.7,0.1 -0.6,0.2 -0.6,0.2 -0.6,0.3 -0.5,0.3 -1,1 -0.5,0.9 -0.2,0.9 0,0.6 0,1 0,0.8 0,1 -0.1,0.7 0.1,0.7 0,0.6 0,0.6 0,1.4 0,1.3 -0.1,1.3 0,2.1 0.1,0.7 0,2.2 -0.1,0.7 -0.3,0.7 -0.6,0.3 -0.8,0 z"
   id="path204" />
		<path
   d="m 891.2,687.2 0,-0.6 0.6,-1.2 0.4,-0.6 0.3,-0.6 0.8,-0.6 0.9,-0.4 0.8,0 0.4,0.5 0,0.6 -0.4,0.6 -0.5,0.7 -0.4,0.5 -0.4,0.6 -0.8,0.8 -1,0.2 -0.7,-0.5 z m 0.5,24.9 -0.2,-3.5 0,-0.7 0,-3.8 0,-0.7 0,-0.7 0,-0.6 0,-0.8 0,-0.7 0,-0.6 0,-1 0,-1 0,-1 0,-0.7 0,-0.7 0,-1.4 0,-0.7 -0.1,-0.6 0,-1.3 0.1,-0.7 0.6,-0.2 1,0 1,0.3 0.3,0.5 0.1,1.3 0,0.8 0,0.7 0,0.8 0,0.6 0,2.5 -0.1,1.7 0,2.4 0,0.8 0,5.3 0,0.7 0.1,0.7 0,0.5 0,0.7 0.1,1.4 -0.1,0.7 -0.8,0.2 -1,0 -0.7,-0.3 -0.4,-0.5 0,-0.4 z"
   id="path206" />
		<path
   d="m 906.2,713.9 -0.7,-0.2 -0.6,-0.3 -0.6,-0.1 -0.5,-0.4 -0.5,-0.3 -0.8,-1.1 -0.3,-0.6 -0.3,-0.6 -0.4,-1.3 -0.2,-1.9 0,-2.8 -0.1,-0.6 0,-0.8 0,-0.6 0,-0.7 0,-1.7 0,-0.6 -0.1,-1.8 0,-1.3 0,-1.4 0,-0.7 -0.4,-0.6 -1,-0.4 -1.2,-0.2 -0.3,-0.5 0,-0.7 0.4,-0.6 1.1,-0.3 1.1,0 0.3,-0.4 0,-0.8 0,-0.7 0,-0.7 0,-0.7 0,-2.1 -0.1,-1.3 0.2,-0.5 0.5,-0.5 1.2,0.1 0.7,0.3 0.4,0.5 0.1,1.3 0,1.4 0,0.5 -0.1,2.5 0.4,0.7 0.7,0.2 1.3,0 1.3,0 1.3,0 0.6,0.4 0.4,0.6 0,0.6 -0.3,0.5 -0.7,0.3 -0.6,0.1 -0.7,0 -1.3,0 -0.7,0 -0.6,0 -0.7,0.3 -0.3,0.7 0,0.7 0,0.7 0.1,0.7 -0.1,6.8 0.1,1 0,2.5 0.2,1.2 0.3,1.3 0.6,1.2 1,0.8 1,0.2 1.6,0 0.6,-0.1 0.7,-0.2 0.8,0 0.5,0.4 0.1,0.6 -0.2,0.8 -0.6,0.5 -1.3,0.4 -0.7,0.1 -0.7,0.2 -1,0.1 -0.9,-0.1 z"
   id="path208" />
		<path
   d="m 916.2,686.8 -0.6,-0.4 -0.3,-0.6 -0.2,-1 0.2,-0.9 0.4,-0.6 0.5,-0.4 1.1,0 1,0 0.5,0.4 0.5,0.6 0.1,1 -0.2,1.1 -0.4,0.4 -0.5,0.4 -1,0.1 -1.1,-0.1 z m 0.1,26.4 -0.4,-0.6 -0.1,-0.6 0,-0.6 -0.1,-0.7 0,-0.7 -0.1,-2.8 0,-1.1 0,-4 0,-1.1 0,-4.1 0,-0.7 0,-0.7 0,-0.5 0,-0.8 -0.1,-0.6 0,-0.7 0,-0.7 -0.1,-0.6 0.2,-0.8 0.5,-0.2 0.6,-0.1 0.6,0.1 0.7,0.2 0.4,0.7 0,1.3 0.1,0.6 0,2.2 0,1.1 0,1.7 0,0.7 0,3.1 0,0.6 -0.1,1.1 0,2.3 0,1 0,0.6 0.1,0.6 0,0.8 0,0.7 0,0.6 0,0.7 0,0.7 0,0.6 -0.1,0.7 -0.6,0.3 -1.2,0 -0.3,-0.3 z"
   id="path210" />
		<path
   d="m 930.8,713.9 -1.4,-0.1 -1.2,-0.4 -0.6,-0.3 -1,-0.9 -0.5,-0.3 -0.4,-0.6 -0.6,-1.2 -0.2,-0.6 -0.4,-1.4 -0.2,-0.6 -0.4,-3.5 0,-1.7 0.1,-1.1 0,-0.6 0.2,-2.1 0.2,-0.6 0,-0.7 0.2,-0.7 0.2,-0.6 0.2,-0.7 0.2,-0.7 0.3,-0.4 0.3,-0.7 0.5,-0.5 0.4,-0.6 0.5,-0.4 0.5,-0.4 0.6,-0.3 1.9,-0.7 0.6,-0.1 1.1,-0.1 1,0 1.4,0.3 1.8,0.8 0.6,0.5 0.4,0.4 0.4,0.8 -0.1,0.8 -0.3,0.5 -0.6,0.3 -0.7,-0.2 -1.1,-0.8 -0.6,-0.4 -0.6,-0.2 -1.7,-0.2 -1,0.1 -0.6,0.1 -0.6,0.2 -0.5,0.4 -0.4,0.5 -0.4,0.5 -0.3,0.5 -0.2,0.6 -0.1,0.6 -0.2,0.6 -0.2,1.4 -0.1,0.5 -0.1,0.7 0,0.7 0,0.7 0,1.1 0,1.6 0.2,2.7 0.1,0.6 0.1,0.7 0.3,0.5 0.5,1.3 0.4,0.5 0.4,0.5 1.4,0.7 1.2,0.1 1,-0.1 1.3,-0.2 0.7,-0.2 0.8,-0.6 0.8,-0.7 0.7,-0.2 0.6,0.3 0.3,0.5 0.2,0.7 -0.3,0.9 -0.6,0.5 -0.5,0.3 -1.2,0.7 -0.6,0.1 -0.7,0.3 -0.6,0.1 -0.7,0 -2.1,0.2 z"
   id="path212" />
		<path
   d="m 947.9,713.8 -0.6,0 -1.2,-0.6 -0.6,-0.4 -0.6,-0.3 -0.9,-0.9 -0.4,-0.5 -0.7,-1.3 -0.5,-1.2 -0.3,-1.2 -0.4,-2.1 -0.1,-1.4 0,-2.7 0.1,-1.4 0.1,-1.3 0.1,-0.7 0.5,-2 0.3,-0.5 0.5,-1.3 0.4,-0.6 0.8,-1 0.6,-0.5 0.5,-0.3 0.8,-0.4 1,-0.4 1,-0.2 1.3,0 1,0 0.7,0.1 1.3,0.4 0.5,0.2 0.5,0.3 1,0.8 0.8,1.1 0.7,1.2 0.2,0.7 0.3,0.5 0.1,0.7 0.2,0.7 0.1,0.6 0.1,0.7 0.1,1.4 0.2,1.3 -0.1,2 0,0.8 0,0.7 -0.3,2.1 -0.1,0.5 -0.6,1.9 -0.3,0.7 -0.3,0.5 -0.3,0.7 -0.4,0.5 -0.5,0.5 -0.5,0.5 -0.5,0.4 -1.1,0.7 -1.2,0.3 -0.7,0.1 -2,0 -0.6,-0.4 z m 2.7,-2.5 0.6,-0.2 0.6,-0.2 0.6,-0.4 0.4,-0.5 0.4,-0.7 0.3,-0.6 0.2,-0.6 0.2,-0.7 0.1,-0.7 0,-0.6 0.1,-0.8 0.1,-0.6 0,-0.7 0,-0.8 0,-1.1 0.1,-0.9 -0.1,-2 -0.2,-1.3 -0.2,-0.7 -0.1,-0.6 -0.5,-1.2 -0.3,-0.6 -0.4,-0.5 -0.5,-0.5 -1.1,-0.7 -0.6,-0.1 -0.9,0 -1,0.1 -1.2,0.3 -0.6,0.6 -0.6,0.8 -0.6,1.1 -0.1,0.7 -0.2,0.7 -0.2,1.3 0,0.7 -0.1,0.6 -0.1,1.4 0.1,2 0,1.3 0,0.8 0.1,0.6 0.5,2.1 0.2,0.7 0.2,0.5 0.4,0.6 0.4,0.6 0.6,0.5 0.5,0.3 0.7,0.2 2.2,-0.2 z"
   id="path214" />
		<path
   d="m 966.8,713.9 -0.6,-0.1 -0.6,-0.2 -0.7,-0.1 -0.6,-0.1 -0.6,-0.3 -1.2,-0.5 -0.5,-0.4 -0.6,-0.4 -0.3,-0.6 0.1,-0.9 0.3,-0.5 0.5,-0.3 0.7,0.1 0.6,0.3 1.9,1.1 1.3,0.3 1.7,0.2 1,-0.1 0.6,-0.2 0.6,-0.3 0.5,-0.5 0.6,-1 0.1,-0.7 0,-1 -0.1,-1.2 -0.2,-0.6 -0.3,-0.9 -0.5,-0.5 -0.9,-0.7 -0.9,-0.5 -0.5,-0.3 -1.1,-0.4 -0.9,-0.4 -1.2,-0.7 -1.7,-1.2 -1.2,-1.5 -0.3,-0.7 -0.2,-0.6 -0.1,-0.6 -0.1,-2 0.1,-0.7 0.1,-0.6 0.3,-0.6 0.3,-0.7 1,-0.9 0.5,-0.2 0.5,-0.4 2.3,-0.5 0.7,0 1.7,0 0.6,0.1 1.3,0.4 0.6,0.1 0.6,0.3 0.6,0.3 0.4,0.7 0,0.8 -0.2,0.5 -0.5,0.4 -0.7,-0.1 -0.7,-0.2 -1,-0.4 -1,-0.2 -0.7,-0.2 -2.1,0.1 -0.6,0.3 -0.6,0.5 -0.3,0.4 -0.1,0.6 -0.1,1 0,1.1 0.2,0.5 0.4,0.6 0.5,0.5 0.4,0.2 0.6,0.5 0.6,0.3 0.9,0.5 3.1,1.6 1,0.8 0.4,0.4 0.9,1.1 0.5,1.2 0.2,0.6 0.1,0.7 0,2 -0.1,0.6 -0.4,1.3 -0.3,0.6 -0.8,1.2 -0.5,0.5 -1.8,0.9 -0.7,0.2 -0.6,0.1 -1,0 -1,0 -0.2,0.2 z"
   id="path216" />
	</g><g
   transform="translate(-729.59998,-130.04478)"
   id="g288">
		<path
   d="m 733,539.1 -0.8,-3.2 3.6,-15.2 1.2,-2.8 0.4,-3.2 1,-2.8 4,-19.4 2.8,-9 0.6,-3 3,-13.2 0.4,-2.8 2,-6 0.4,-2.8 4.2,-16 0.2,-2.8 1.4,-3.2 1,-6.4 1.8,-6.4 1,-2.4 0.6,-3.2 0.4,-3.2 2,-6.4 2,-3 3.6,-1.8 3.2,-0.4 3,0.6 3.2,1.4 2.2,2.8 1.2,3.4 0.6,3.6 2.6,9.2 1,6.2 3.6,11.6 1.8,9.8 1.2,2.8 0.4,3.6 3.4,12 0.4,3.2 3.2,12.6 0.6,3.6 1,2.6 0.2,3.2 3,9.4 0.8,6 1.2,3.8 0.2,2.4 3.6,12.4 2,9.8 -1,3.2 -2.6,1.2 -3.6,0 -3.8,-2 -2.6,-2.6 -1,-6.4 -0.8,-3.2 -1.2,-2.8 -1.2,-7 -1,-3.2 -0.6,-3.4 -1.6,-5.8 -2.4,-3.6 -3.2,-1.6 -9.2,0 -4.8,-0.6 -4.2,0 -3,0.4 -6.8,0 -3.6,1.6 -2,3.6 -6.4,29.2 -1.2,2.6 -2.4,3 -3.2,2.2 -4,0 -3,-2.2 z m 45,-51.2 6.2,0 2.6,-1 0.6,-3.2 -1.6,-6.6 -0.4,-3.4 -0.8,-3.2 -0.4,-2.4 -1.2,-2.8 -0.4,-3.6 -0.8,-3 -1.4,-2.8 -0.8,-6.4 -1.4,-5.4 -0.6,-4.6 -2,-8.8 -0.8,-6.6 -1.8,-6.4 -0.6,-0.6 -1.4,6.4 -2,13.8 -1,2.2 -2,10.2 -0.2,3 -1,3.2 -0.8,2.8 -1.8,5.8 -0.2,3.8 -0.8,3 -2,5.6 -0.2,3.8 -0.6,2.6 0.4,3.6 2.8,1.2 3.4,0 3,-0.2 6.4,0.4 3.6,-0.4 z"
   id="path290"
   style="fill:#48b9b2" />
		<path
   d="m 834.4,540.9 -3.2,-1 -2,-3.6 0.4,-18.8 -0.4,-3 0.2,-3.2 -0.2,-3.6 0.4,-3 -0.4,-3.2 0.6,-3.2 -0.6,-3.2 -0.2,-3.4 0.4,-4.6 -0.2,-12.4 0.2,-5.2 -0.2,-3 0.6,-8.2 -0.2,-4.6 -0.4,-3 0.6,-3.6 -0.6,-3.4 0.2,-3.2 -0.2,-3 0.2,-12 -0.4,-3.8 0.2,-3.4 -0.2,-2.6 0.6,-3.2 -0.2,-6 1.8,-3.8 3.2,-2 3.2,0.6 3,0 3.4,-0.4 6.4,0 3.8,0.6 5,-0.6 4.6,0.6 3.6,-0.2 3,1 3.2,0.4 3,1.2 3.2,1.8 3,1.2 2,1.8 4.6,5.2 1.8,2.6 1.2,3 2.6,5.8 0.8,3.6 1.6,14.8 -0.2,4.8 -1,3.4 0,3.2 -0.6,3 -3,8.8 -1.4,2.6 -3.8,5.2 -2.2,2.4 -2.6,2 -2.6,2.6 -5.4,3 -9,2.6 -19,1.2 -2.6,1.4 -1.6,3.2 0.4,3 0,22.4 -0.4,2.8 0.2,13.8 -1.6,4.6 -3.2,1.8 -3.4,-0.6 z m 22.6,-63.4 6.4,-1.2 3.2,-1.4 3,-0.8 3,-1.6 4.8,-5 1.4,-3 1.8,-2.4 2,-6.8 0.2,-3.4 0.6,-3.2 -0.2,-9.6 -0.6,-6 -0.6,-2.6 -1.4,-4.4 -2.2,-4.8 -2,-3 -4.6,-3.8 -2.8,-0.6 -3.6,-1.2 -7.6,-0.6 -4.6,0.4 -3,-0.2 -3.2,-0.6 -3,2 -1.2,3.6 0,2.8 -0.4,15.2 0.2,4.6 -0.2,3.2 0.2,3.2 -0.2,3 0.4,6.4 -0.4,3.8 0.6,5.2 -0.8,7.4 1.6,3.4 3.4,1.8 5.2,0.4 4.6,-0.2 z"
   id="path292"
   style="fill:#48b9b2" />
		<path
   d="m 922.2,540.9 -3.2,-1 -2,-3.6 0.4,-18.8 -0.4,-3 0.2,-3.2 -0.2,-3.6 0.4,-3 -0.4,-3.2 0.6,-3.2 -0.6,-3.2 -0.2,-3.4 0.4,-4.6 -0.2,-12.4 0.2,-5.2 -0.2,-3 0.6,-8.2 -0.2,-4.6 -0.4,-3 0.6,-3.6 -0.6,-3.4 0.2,-3.2 -0.2,-3 0.2,-12 -0.4,-3.8 0.2,-3.4 -0.2,-2.6 0.6,-3.2 -0.2,-6 1.8,-3.8 3.2,-2 3.2,0.6 3,0 3.4,-0.4 6.4,0 3.8,0.6 5,-0.6 4.6,0.6 3.6,-0.2 3,1 3.2,0.4 3,1.2 3.2,1.8 3,1.2 2,1.8 4.6,5.2 1.8,2.6 1.2,3 2.6,5.8 0.8,3.6 1.6,14.8 -0.2,4.8 -1,3.4 0,3.2 -0.6,3 -3,8.8 -1.4,2.6 -3.8,5.2 -2.2,2.4 -2.6,2 -2.6,2.6 -5.4,3 -9,2.6 -19,1.2 -2.6,1.4 -1.6,3.2 0.4,3 0,22.4 -0.4,2.8 0.2,13.8 -1.6,4.6 -3.2,1.8 -3.4,-0.6 z m 22.6,-63.4 6.4,-1.2 3.2,-1.4 3,-0.8 3,-1.6 4.8,-5 1.4,-3 1.8,-2.4 2,-6.8 0.2,-3.4 0.6,-3.2 -0.2,-9.6 -0.6,-6 -0.6,-2.6 -1.4,-4.4 -2.2,-4.8 -2,-3 -4.6,-3.8 -2.8,-0.6 -3.6,-1.2 -7.6,-0.6 -4.6,0.4 -3,-0.2 -3.2,-0.6 -3,2 -1.2,3.6 0,2.8 -0.4,15.2 0.2,4.6 -0.2,3.2 0.2,3.2 -0.2,3 0.4,6.4 -0.4,3.8 0.6,5.2 -0.8,7.4 1.6,3.4 3.4,1.8 5.2,0.4 4.6,-0.2 z"
   id="path294"
   style="fill:#48b9b2" />
		<path
   d="m 1024.8,540.9 -5.4,-2.6 -4.4,-3.6 -2.4,-2.6 -1.4,-2.4 -1.8,-2.4 -1.6,-2.8 -2.2,-6 -0.4,-3.4 -0.8,-3.2 -0.8,-2.4 -2,-10.4 0.4,-3.4 -1,-9.4 0.4,-4 -0.6,-3 0.2,-3 -0.4,-5.2 0.4,-5.2 -0.4,-2.8 0.6,-5.2 -0.2,-4.2 1.2,-10 0,-3.2 0.6,-2.6 0.4,-3.6 0.8,-3.2 1.2,-2.6 0.6,-3.2 1.2,-3.4 0.6,-2.4 1.4,-3.4 3.8,-5.4 1.8,-2 5,-4.8 2.6,-1.4 2.8,-1 3.2,-1.6 3.2,-0.2 3,-0.4 9.6,-0.2 6.8,1.4 6,2.4 3.2,0.8 2.8,2 1.8,3.4 -0.6,3.4 -1.8,2.6 -3.4,0.4 -3,-0.6 -2.8,-1.8 -3.2,-0.8 -3,-1.2 -3,-0.6 -4.8,-0.4 -5.2,1 -2.6,0.2 -2.4,1.2 -2.2,1.4 -2.4,2.2 -2,2 -1,3.2 -3,5.4 -0.6,2.8 -2.8,16.6 -0.8,30 0.4,3.2 -0.2,2.8 0.4,2.6 0.2,3.8 -0.4,3.2 0.6,2.8 0.8,9.6 1,6.4 1.2,3 0.6,3.6 1,2.4 1.6,3.6 1.6,2.4 2.4,2 2.8,2 2.6,1.4 2.8,1 5,-0.2 4.4,-0.6 5,-0.4 4.2,-1 5.6,-2 2.6,-2 3.6,0 3,2.4 0.2,4.2 -2.4,4 -13.2,5.6 -7.4,1.2 -4.8,-0.6 -5,0.6 -9.4,-2.2 z"
   id="path296"
   style="fill:#48b9b2" />
		<path
   d="m 1105.6,540.9 -5.4,-2.6 -4.4,-3.6 -2.4,-2.6 -1.4,-2.4 -1.8,-2.4 -1.6,-2.8 -2.2,-6 -0.4,-3.4 -0.8,-3.2 -0.8,-2.4 -2,-10.4 0.4,-3.4 -1,-9.4 0.4,-4 -0.6,-3 0.2,-3 -0.4,-5.2 0.4,-5.2 -0.4,-2.8 0.6,-5.2 -0.2,-4.2 1.2,-10 0,-3.2 0.6,-2.6 0.4,-3.6 0.8,-3.2 1.2,-2.6 0.6,-3.2 1.2,-3.4 0.6,-2.4 1.4,-3.4 3.8,-5.4 1.8,-2 5,-4.8 2.6,-1.4 2.8,-1 3.2,-1.6 3.2,-0.2 3,-0.4 9.6,-0.2 6.8,1.4 6,2.4 3.2,0.8 2.8,2 1.8,3.4 -0.6,3.4 -1.8,2.6 -3.4,0.4 -3,-0.6 -2.8,-1.8 -3.2,-0.8 -3,-1.2 -3,-0.6 -4.8,-0.4 -5.2,1 -2.6,0.2 -2.4,1.2 -2.2,1.4 -2.4,2.2 -2,2 -1,3.2 -3,5.4 -0.6,2.8 -2.8,16.6 -0.8,30 0.4,3.2 -0.2,2.8 0.4,2.6 0.2,3.8 -0.4,3.2 0.6,2.8 0.8,9.6 1,6.4 1.2,3 0.6,3.6 1,2.4 1.6,3.6 1.6,2.4 2.4,2 2.8,2 2.6,1.4 2.8,1 5,-0.2 4.4,-0.6 5,-0.4 4.2,-1 5.6,-2 2.6,-2 3.6,0 3,2.4 0.2,4.2 -2.4,4 -13.2,5.6 -7.4,1.2 -4.8,-0.6 -5,0.6 -9.4,-2.2 z"
   id="path298"
   style="fill:#48b9b2" />
	</g><g
   transform="translate(-729.59998,-130.04478)"
   id="g378">
		<g
   id="g380">
			<circle
   cx="804.20001"
   cy="230.5"
   r="74.599998"
   id="circle382"
   style="fill:#4b4e55" />
			<circle
   cx="804.20001"
   cy="230.5"
   r="62.799999"
   id="circle384"
   style="fill:#ffffff" />
			<path
   d="m 836.3,230.5 c 0,17.7 -14.4,32.1 -32.1,32.1 -17.7,0 -32.1,-14.4 -32.1,-32.1 0,-17.7 14.4,-32.1 32.1,-32.1 17.8,-0.1 32.1,14.3 32.1,32.1 z"
   id="path386"
   style="fill:#ed6e3d" />
		</g>
		<g
   id="g388">
			<path
   d="m 888.6,250 c 0,0 -0.5,-48 35.3,-73.2 0,0 -8.7,-44.9 9.2,-46.7 17.9,-1.8 3.7,41 3.7,41 0,0 26.6,-26.4 36.6,-10.5 10,15.9 -24.5,22.5 -31.4,23 l 4.9,70.9 -55.1,0"
   id="path390"
   style="fill:#48b9b2" />
			<rect
   x="846.79999"
   y="241.5"
   width="137"
   height="64"
   id="rect392"
   style="fill:#4b4e55" />
		</g>
	</g><rect
   x="0"
   y="433.05521"
   width="495.79999"
   height="30.9"
   id="rect396"
   style="fill:#48b9b2" />
</svg>