<?xml version="1.0" encoding="UTF-8" standalone="no"?>
<svg
   xmlns:ns="&amp;ns_sfw;"
   xmlns:dc="http://purl.org/dc/elements/1.1/"
   xmlns:cc="http://creativecommons.org/ns#"
   xmlns:rdf="http://www.w3.org/1999/02/22-rdf-syntax-ns#"
   xmlns:svg="http://www.w3.org/2000/svg"
   xmlns="http://www.w3.org/2000/svg"
   id="svg2"
   xml:space="preserve"
   enable-background="new 0 0 1920 1080"
   viewBox="0 0 1113.5 964.29999"
   height="964.29999"
   width="1113.5"
   y="0px"
   x="0px"
   version="1.1"><defs
   id="defs106" />
<metadata
   id="metadata4">
	<ns:sfw>
		<ns:slices />
		<ns:sliceSourceBounds
   bottomLeftOrigin="true"
   x="-5344.5"
   y="-6982.3"
   height="10106.4"
   width="12464.3" />
	</ns:sfw>
<rdf:RDF><cc:Work
     rdf:about=""><dc:format>image/svg+xml</dc:format><dc:type
       rdf:resource="http://purl.org/dc/dcmitype/StillImage" /><dc:title></dc:title></cc:Work></rdf:RDF></metadata>
<g
   transform="translate(-352.5,-50.1)"
   id="Capa_2">
</g>
<g
   transform="translate(-352.5,-50.1)"
   id="Capa_1">
	<g
   id="g8">
		<polygon
   style="fill:#65acb0;fill-opacity:1"
   id="polygon10"
   points="1213.4,576.8 909.2,50.1 605.1,576.8 " />
		<polygon
   style="fill:#65acb0;fill-opacity:1"
   id="polygon12"
   points="585.8,610.4 474.6,802.8 1343.9,802.8 1232.7,610.4 " />
		<polygon
   style="fill:#65acb0;fill-opacity:1"
   id="polygon14"
   points="1466,1014.4 1363.2,836.4 455.3,836.4 352.5,1014.4 " />
	</g>
	<g
   id="g16">
		<path
   id="path18"
   d="m 779.2,728.1 -0.8,-0.2 -0.4,-0.9 0.1,-4.5 -0.1,-0.7 0,-0.8 0,-0.9 0.1,-0.7 -0.1,-0.8 0.1,-0.8 -0.1,-0.8 0,-0.8 0.1,-1.1 0,-3 0,-1.2 0,-0.7 0.1,-2 0,-1.1 -0.1,-0.7 0.1,-0.9 -0.1,-0.8 0,-0.8 0,-0.7 0,-2.9 -0.1,-0.9 0,-0.8 0,-0.6 0.1,-0.8 0,-1.4 0.4,-0.9 0.8,-0.5 0.8,0.1 0.7,0 0.8,-0.1 1.5,0 0.9,0.1 1.2,-0.1 1.1,0.1 0.9,0 0.7,0.2 0.8,0.1 0.7,0.3 0.8,0.4 0.7,0.3 0.5,0.4 1.1,1.2 0.4,0.6 0.3,0.7 0.6,1.4 0.2,0.9 0.4,3.6 0,1.2 -0.2,0.8 0,0.8 -0.1,0.7 -0.7,2.1 -0.3,0.6 -0.9,1.2 -0.5,0.6 -0.6,0.5 -0.6,0.6 -1.3,0.7 -2.2,0.6 -4.6,0.3 -0.6,0.3 -0.4,0.8 0.1,0.7 0,5.4 -0.1,0.7 0,3.3 -0.4,1.1 -0.8,0.4 -1,0.1 z m 5.4,-15.2 1.5,-0.3 0.8,-0.3 0.7,-0.2 0.7,-0.4 1.2,-1.2 0.3,-0.7 0.4,-0.6 0.5,-1.6 0,-0.8 0.1,-0.8 0,-2.3 -0.1,-1.4 -0.1,-0.6 -0.3,-1.1 -0.5,-1.2 -0.5,-0.7 -1.1,-0.9 -0.7,-0.1 -0.9,-0.3 -1.8,-0.1 -1.1,0.1 -0.7,0 -0.8,-0.1 -0.7,0.5 -0.3,0.9 0,0.7 -0.1,3.6 0,1.1 0,0.8 0,0.8 0,0.7 0.1,1.5 -0.1,0.9 0.1,1.2 -0.2,1.8 0.4,0.8 0.8,0.4 1.2,0.1 1.2,-0.2 z" />
		<path
   id="path20"
   d="m 812.8,728.1 -0.9,-0.6 -0.5,-0.9 -0.5,-1.2 -0.2,-0.8 -0.3,-0.7 -0.2,-0.8 -0.3,-0.7 -0.2,-0.7 -0.6,-1.4 -0.2,-0.6 -0.6,-1.4 -0.3,-0.6 -0.4,-1.5 -0.3,-0.6 -0.5,-0.7 -0.6,-0.6 -0.9,0 -1.6,-0.1 -0.7,0 -0.6,0.6 -0.1,0.9 0.1,0.8 0,0.7 0,0.8 0,8.8 -0.2,0.7 -0.6,0.6 -0.8,0.1 -0.8,-0.2 -0.6,-0.5 -0.1,-0.8 0,-0.6 0.1,-1.7 -0.1,-1.4 0,-1.3 0.1,-1.8 0,-0.9 0,-0.9 -0.1,-2.6 0.1,-0.9 0,-0.8 -0.1,-0.8 0.1,-1.4 0,-3.8 -0.1,-0.8 0,-1.5 0.1,-0.8 0,-0.8 -0.2,-0.8 0,-0.7 0.1,-0.8 0,-1.2 -0.1,-1.1 0.1,-0.8 0,-0.7 -0.1,-1.5 0.1,-0.8 0.9,-0.6 1.3,0 0.9,-0.2 0.9,0 0.8,0.2 0.7,-0.2 1,0.1 1.2,0 1.1,0.1 0.6,-0.1 0.9,0.3 0.6,0.2 0.8,0.3 1.3,0.7 0.6,0.5 0.5,0.6 0.5,0.5 0.2,0.5 0.5,0.7 0.4,1.6 0.1,1.5 0.2,1 -0.1,1.2 -0.1,0.9 -0.1,0.7 0,0.8 -0.1,0.9 -0.5,1.4 -0.4,0.7 -0.5,0.7 -0.3,0.6 -0.6,0.5 -0.6,0.4 -0.7,0.4 -0.6,0.5 -0.3,0.8 0.1,0.9 1.1,3 0.3,0.6 0.2,0.7 0.2,0.6 0.3,0.7 0.2,0.6 0.3,0.9 0.8,1.8 0.3,1 0.6,1.3 0.3,0.8 0,0.7 -0.5,0.7 -0.6,0.2 -1.2,-0.1 z m -6.6,-16.6 0.7,-0.2 0.7,0 0.8,-0.2 0.8,-0.4 0.7,-0.3 0.6,-0.4 1.1,-1.9 0.3,-0.8 0,-0.8 0.2,-0.7 0,-1.2 -0.1,-3.1 -0.2,-0.7 -1.3,-1.9 -0.7,-0.6 -0.6,-0.3 -0.7,-0.2 -1.9,-0.4 -2.1,-0.1 -0.8,0.1 -0.7,0.2 -0.5,0.4 -0.3,0.9 0,0.6 0,1.6 -0.1,1 0,1.1 0.1,0.8 -0.1,1.9 0,1.1 0,0.9 0.1,0.6 0,0.8 0,0.7 0.2,0.8 0.6,0.6 1,0.1 2.2,0 z" />
		<path
   id="path22"
   d="m 832,728.1 -1.5,0 -0.8,0 -0.8,0.1 -0.7,-0.1 -1.5,0.1 -0.8,-0.1 -0.7,0.1 -0.7,-0.1 -1.5,0.2 -1.5,0 -0.8,-0.4 -0.4,-0.8 0.1,-5.5 -0.1,-2.4 0,-0.8 0.1,-0.7 -0.1,-0.9 0.1,-0.6 0,-0.8 -0.1,-0.9 0,-0.9 0,-1.3 0,-0.8 0,-0.9 0.1,-0.9 -0.1,-0.8 0.1,-2.2 0,-1 0,-0.7 0,-1.5 0,-0.9 -0.1,-1.1 0.1,-1.9 -0.1,-0.6 0,-0.8 0,-0.6 0,-0.9 0,-0.8 -0.1,-0.6 0.3,-0.9 0.7,-0.3 0.8,0.2 0.7,-0.2 0.8,0.2 2.3,-0.2 3.9,0.1 2.3,0 0.8,0 0.7,0.4 0.5,0.5 0,0.7 -0.5,0.7 -1.2,0.4 -1.1,-0.1 -0.8,-0.1 -0.9,0 -0.7,0.1 -0.8,-0.2 -1.6,0 -1.5,0.2 -0.8,0.4 -0.4,1.1 0,2.7 0.1,1.6 -0.1,0.7 0.1,2.3 -0.1,0.8 0.1,0.7 0,0.8 0.3,1 0.8,0.3 0.7,0 0.8,-0.1 1.2,0 1.4,0 1.2,0.1 1.4,0 0.8,-0.1 0.8,0.4 0.3,0.8 -0.4,1 -0.7,0.4 -1.4,0.1 -0.7,-0.2 -1.6,0 -0.7,-0.1 -0.8,0.1 -1.5,0 -0.8,-0.1 -0.7,0.5 -0.4,0.7 0.1,0.7 0,0.9 0.1,0.9 0,0.8 -0.1,0.6 0.1,0.9 -0.1,4.9 0,0.9 0.4,1.1 0.9,0.4 1.5,0 0.8,0.1 0.8,-0.1 1.6,0 0.8,0.1 0.7,-0.1 0.8,0 0.8,0 0.8,0.3 0.4,0.7 0,0.7 -0.3,0.7 -0.8,0.4 -1.1,0.5 z" />
		<path
   id="path24"
   d="m 853.1,728.1 -0.9,-0.6 -0.5,-0.9 -0.5,-1.2 -0.2,-0.8 -0.3,-0.7 -0.2,-0.8 -0.3,-0.7 -0.2,-0.7 -0.6,-1.4 -0.2,-0.6 -0.6,-1.4 -0.3,-0.6 -0.4,-1.5 -0.3,-0.6 -0.5,-0.7 -0.6,-0.6 -0.9,0 -1.6,-0.1 -0.7,0 -0.6,0.6 -0.1,0.9 0.1,0.8 0,0.7 0,0.8 0,8.8 -0.2,0.7 -0.6,0.6 -0.8,0.1 -0.8,-0.2 -0.6,-0.5 -0.1,-0.8 0,-0.6 0.1,-1.7 -0.1,-1.4 0,-1.3 0.1,-1.8 0,-0.9 0,-0.9 -0.1,-2.6 0.1,-0.9 0,-0.8 -0.1,-0.8 0.1,-1.4 0,-3.8 -0.1,-0.8 0,-1.5 0.1,-0.8 0,-0.8 -0.2,-0.8 0,-0.7 0.1,-0.8 0,-1.2 -0.1,-1.1 0.1,-0.8 0,-0.7 -0.1,-1.5 0.1,-0.8 0.9,-0.6 1.3,0 0.9,-0.2 0.9,0 0.8,0.2 0.7,-0.2 1,0.1 1.2,0 1.1,0.1 0.6,-0.1 0.9,0.3 0.6,0.2 0.8,0.3 1.3,0.7 0.6,0.5 0.5,0.6 0.5,0.5 0.2,0.5 0.5,0.7 0.4,1.6 0.1,1.5 0.2,1 -0.1,1.2 -0.1,0.9 -0.1,0.7 0,0.8 -0.1,0.9 -0.5,1.4 -0.4,0.7 -0.5,0.7 -0.3,0.6 -0.6,0.5 -0.6,0.4 -0.7,0.4 -0.6,0.5 -0.3,0.8 0.1,0.9 1.1,3 0.3,0.6 0.2,0.7 0.2,0.6 0.3,0.7 0.2,0.6 0.3,0.9 0.8,1.8 0.3,1 0.6,1.3 0.3,0.8 0,0.7 -0.5,0.7 -0.6,0.2 -1.2,-0.1 z m -6.6,-16.6 0.7,-0.2 0.7,0 0.8,-0.2 0.8,-0.4 0.7,-0.3 0.6,-0.4 1.1,-1.9 0.3,-0.8 0,-0.8 0.2,-0.7 0,-1.2 -0.1,-3.1 -0.2,-0.7 -1.3,-1.9 -0.7,-0.6 -0.6,-0.3 -0.7,-0.2 -1.9,-0.4 -2.1,-0.1 -0.8,0.1 -0.7,0.2 -0.5,0.4 -0.3,0.9 0,0.6 0,1.6 -0.1,1 0,1.1 0.1,0.8 -0.1,1.9 0,1.1 0,0.9 0.1,0.6 0,0.8 0,0.7 0.2,0.8 0.6,0.6 1,0.1 2.2,0 z" />
		<path
   id="path26"
   d="m 874.1,728.1 -0.9,-0.6 -0.5,-0.9 -0.5,-1.2 -0.2,-0.8 -0.3,-0.7 -0.2,-0.8 -0.3,-0.7 -0.2,-0.7 -0.6,-1.4 -0.2,-0.6 -0.6,-1.4 -0.3,-0.6 -0.4,-1.5 -0.3,-0.6 -0.5,-0.7 -0.6,-0.6 -0.9,0 -1.6,-0.1 -0.7,0 -0.6,0.6 -0.1,0.9 0.1,0.8 0,0.7 0,0.8 0,8.8 -0.2,0.7 -0.6,0.6 -0.8,0.1 -0.8,-0.2 -0.6,-0.5 -0.1,-0.8 0,-0.6 0.1,-1.7 -0.1,-1.4 0,-1.3 0.1,-1.8 0,-0.9 0,-0.9 -0.1,-2.6 0.1,-0.9 0,-0.8 -0.1,-0.8 0.1,-1.4 0,-3.8 -0.1,-0.8 0,-1.5 0.1,-0.8 0,-0.8 -0.2,-0.8 0,-0.7 0.1,-0.8 0,-1.2 -0.1,-1.1 0.1,-0.8 0,-0.7 -0.1,-1.5 0.1,-0.8 0.9,-0.6 1.3,0 0.9,-0.2 0.9,0 0.8,0.2 0.7,-0.2 1,0.1 1.2,0 1.1,0.1 0.6,-0.1 0.9,0.3 0.6,0.2 0.8,0.3 1.3,0.7 0.6,0.5 0.5,0.6 0.5,0.5 0.2,0.5 0.5,0.7 0.4,1.6 0.1,1.5 0.2,1 -0.1,1.2 -0.1,0.9 -0.1,0.7 0,0.8 -0.1,0.9 -0.5,1.4 -0.4,0.7 -0.5,0.7 -0.3,0.6 -0.6,0.5 -0.6,0.4 -0.7,0.4 -0.6,0.5 -0.3,0.8 0.1,0.9 1.1,3 0.3,0.6 0.2,0.7 0.2,0.6 0.3,0.7 0.2,0.6 0.3,0.9 0.8,1.8 0.3,1 0.6,1.3 0.3,0.8 0,0.7 -0.5,0.7 -0.6,0.2 -1.2,-0.1 z m -6.6,-16.6 0.7,-0.2 0.7,0 0.8,-0.2 0.8,-0.4 0.7,-0.3 0.6,-0.4 1.1,-1.9 0.3,-0.8 0,-0.8 0.2,-0.7 0,-1.2 -0.1,-3.1 -0.2,-0.7 -1.3,-1.9 -0.7,-0.6 -0.6,-0.3 -0.7,-0.2 -1.9,-0.4 -2.1,-0.1 -0.8,0.1 -0.7,0.2 -0.5,0.4 -0.3,0.9 0,0.6 0,1.6 -0.1,1 0,1.1 0.1,0.8 -0.1,1.9 0,1.1 0,0.9 0.1,0.6 0,0.8 0,0.7 0.2,0.8 0.6,0.6 1,0.1 2.2,0 z" />
		<path
   id="path28"
   d="m 893.3,728.1 -1.5,0 -0.8,0 -0.8,0.1 -0.7,-0.1 -1.5,0.1 -0.8,-0.1 -0.7,0.1 -0.7,-0.1 -1.5,0.2 -1.5,0 -0.8,-0.4 -0.4,-0.8 0.1,-5.5 -0.1,-2.4 0,-0.8 0.1,-0.7 -0.1,-0.9 0.1,-0.6 0,-0.8 -0.1,-0.9 0,-0.9 0,-1.3 0,-0.8 0,-0.9 0.1,-0.9 -0.1,-0.8 0.1,-2.2 0,-1 0,-0.7 0,-1.5 0,-0.9 -0.1,-1.1 0.1,-1.9 -0.1,-0.6 0,-0.8 0,-0.6 0,-0.9 0,-0.8 -0.1,-0.6 0.3,-0.9 0.7,-0.3 0.8,0.2 0.7,-0.2 0.8,0.2 2.3,-0.2 3.9,0.1 2.3,0 0.8,0 0.7,0.4 0.5,0.5 0,0.7 -0.5,0.7 -1.2,0.4 -1.1,-0.1 -0.8,-0.1 -0.9,0 -0.7,0.1 -0.8,-0.2 -1.6,0 -1.5,0.2 -0.8,0.4 -0.4,1.1 0,2.7 0.1,1.6 -0.1,0.7 0.1,2.3 -0.1,0.8 0.1,0.7 0,0.8 0.3,1 0.8,0.3 0.7,0 0.8,-0.1 1.2,0 1.4,0 1.2,0.1 1.4,0 0.8,-0.1 0.8,0.4 0.3,0.8 -0.4,1 -0.7,0.4 -1.4,0.1 -0.7,-0.2 -1.6,0 -0.7,-0.1 -0.8,0.1 -1.5,0 -0.8,-0.1 -0.7,0.5 -0.4,0.7 0.1,0.7 0,0.9 0.1,0.9 0,0.8 -0.1,0.6 0.1,0.9 -0.1,4.9 0,0.9 0.4,1.1 0.9,0.4 1.5,0 0.8,0.1 0.8,-0.1 1.6,0 0.8,0.1 0.7,-0.1 0.8,0 0.8,0 0.8,0.3 0.4,0.7 0,0.7 -0.3,0.7 -0.8,0.4 -1.1,0.5 z" />
		<path
   id="path30"
   d="m 915.6,731.7 -0.7,-0.4 -1.4,-0.9 -1,-0.4 -0.8,-0.8 -1,-0.3 -1.1,-0.2 -2.3,0.1 -0.8,-0.2 -0.6,-0.3 -0.7,-0.1 -1.3,-0.7 -0.4,-0.4 -1.5,-1.5 -0.4,-0.6 -0.2,-0.8 -0.3,-0.5 -0.7,-2.3 -0.1,-0.8 -0.4,-2.4 0,-0.8 0,-0.9 0,-0.6 -0.1,-1 -0.1,-3.9 0.1,-2.4 0.1,-3.1 0.1,-0.7 0,-0.9 0.1,-0.7 0,-0.7 0.3,-1.6 1.1,-2.8 0.4,-0.8 0.4,-0.6 1.6,-1.6 0.7,-0.3 2.2,-0.8 0.6,0 1.2,-0.1 1.2,0.1 2.1,0.4 1.3,0.6 0.6,0.3 0.5,0.4 1.7,2.4 0.3,0.8 1.1,5.5 0.3,3 0,1.7 0.1,0.9 -0.1,2.3 0,1.3 -0.1,0.8 0,0.8 0,0.7 0,0.8 -0.3,1.6 0,0.7 -0.7,3 -0.5,1.2 -0.2,0.8 -0.4,0.8 -0.4,0.5 -0.4,0.6 -0.3,0.7 0.3,0.7 1.1,0.9 0.7,0.3 0.6,0.4 0.7,0.2 0.5,0.8 0,0.8 -0.9,0.7 -0.9,0.1 -0.9,0.2 z m -5.9,-5.9 0.6,-0.2 0.7,-0.1 0.6,-0.3 0.5,-0.5 0.3,-0.5 0.5,-0.6 0.9,-3.1 0.1,-0.7 0,-0.8 0.1,-0.7 0.1,-1.6 0,-1.5 0.1,-1.9 0,-0.7 0,-1.1 -0.1,-1.3 0,-0.7 0,-0.6 -0.1,-2.4 -0.1,-0.7 0,-1.5 -0.6,-3.1 -0.5,-1.4 -0.4,-0.8 -1.4,-1.5 -1.4,-0.5 -1.2,-0.1 -1,0.1 -0.7,0.3 -0.7,0.2 -0.5,0.3 -0.5,0.4 -1,1.8 -0.6,1.6 -0.6,4.7 0,0.8 -0.1,2.9 0,2.6 0,2.3 0.1,0.7 0.3,3.9 0.2,0.7 0,0.7 0.4,1.6 0.4,0.8 0.2,0.6 0.5,0.7 0.5,0.6 1.3,0.7 0.7,0.1 2.4,-0.2 z" />
		<path
   id="path32"
   d="m 929.6,728.5 -0.8,0 -1.3,-0.5 -0.7,-0.4 -0.5,-0.5 -0.5,-0.6 -0.5,-0.5 -0.3,-0.7 -0.4,-0.7 -0.3,-1.5 -0.2,-0.6 0,-0.9 -0.1,-0.7 0,-1.6 0,-0.8 -0.1,-1.1 0,-1.2 0,-0.7 0,-3.9 0.1,-0.9 0,-1.6 0,-0.7 -0.1,-2.4 0.1,-3 -0.1,-2.2 0.1,-1 -0.1,-2.1 0,-0.8 -0.1,-0.8 0,-0.6 0.3,-0.8 0.7,-0.3 0.8,0 0.8,0.3 0.5,0.6 0.1,0.6 0,0.6 0,0.9 0.1,1.5 0,6.2 0.1,0.7 0,4.6 -0.1,0.8 0.1,0.7 0,0.9 -0.1,1.4 0.1,0.7 0,0.8 -0.1,2.4 0,1.6 0.1,0.7 0,0.7 0.4,1.6 0.5,1.4 0.4,0.6 0.6,0.5 0.7,0.1 0.7,0.2 1.1,0.1 1.1,0 0.8,-0.1 1.2,-0.7 0.5,-0.7 0.2,-0.5 0.5,-1.5 0.1,-0.9 0.2,-0.8 0,-0.8 0,-0.8 0.1,-0.7 0,-4.6 0.1,-0.8 0,-0.8 0.1,-3.2 -0.1,-0.7 0,-2.2 0,-0.8 0,-1.6 -0.1,-1.4 0.1,-0.9 -0.1,-0.6 0.1,-4.6 -0.1,-0.8 0.5,-0.6 0.8,-0.4 0.8,-0.1 0.7,0.4 0.5,0.9 0,0.8 -0.1,0.6 0,1.6 0,0.6 -0.1,5 0,1.2 0,0.7 0.1,2.4 -0.1,0.7 0.1,0.8 0,0.8 0,1.4 -0.1,1.5 0,0.8 0,0.8 0,0.9 0.1,1 -0.1,1.2 0,0.8 -0.1,0.8 0,0.8 -0.4,2.2 -0.7,2.3 -0.4,0.6 -0.4,0.6 -0.6,0.5 -0.5,0.5 -0.7,0.3 -1.3,0.5 -1.5,0.2 -2.3,0 -0.9,0.3 z" />
		<path
   id="path34"
   d="m 947.4,728.1 -0.9,-0.2 -0.5,-0.7 -0.1,-1.3 0,-0.8 0.1,-0.7 0,-0.7 0.1,-0.9 -0.1,-0.6 0,-1.2 -0.1,-1.1 0.1,-0.8 -0.1,-5.4 0.1,-0.7 -0.1,-1.6 0.1,-0.7 0,-0.8 0,-3.4 0,-1.2 0.1,-0.6 0,-3.7 -0.1,-0.9 0,-0.7 0.1,-0.8 0,-0.7 -0.1,-0.7 0,-0.9 -0.1,-0.6 0.3,-0.8 0.8,-0.4 0.7,0.1 0.9,0.3 0.5,0.6 0,0.7 0.1,2.3 0,0.8 0.1,0.8 0,1.7 -0.1,1.6 0.1,4.8 -0.1,0.8 0.1,7.7 -0.2,1.5 0,0.7 0.1,0.9 -0.1,1.1 0,1 0,0.8 0.2,2.9 0,0.8 0.1,0.6 -0.3,0.8 -0.8,0.3 -0.9,0 z" />
		<path
   id="path36"
   d="m 961,728.5 -0.8,0 -0.9,-0.2 -0.7,0 -0.8,-0.2 -0.9,-0.3 -1.3,-0.7 -0.7,-0.6 -0.4,-0.8 0.2,-1 0.8,-0.5 0.7,0.2 0.7,0.4 2.1,0.9 0.8,0.1 0.7,0 1.2,0.2 1.1,-0.2 1.4,-0.4 1.3,-0.9 0.5,-0.6 0.5,-0.6 0.3,-0.6 0.3,-0.8 0.2,-0.7 0.1,-0.7 0,-1.1 0,-1.2 0,-0.9 -0.2,-0.5 -0.3,-0.9 -0.3,-0.6 -0.9,-1.2 -1.7,-1.6 -0.7,-0.4 -0.6,-0.5 -2.6,-1.5 -1.2,-0.9 -0.7,-0.3 -0.5,-0.7 -1.2,-1.1 -1.1,-1.7 -0.6,-1.5 -0.2,-1.4 -0.1,-1.1 0.2,-1.9 0.8,-2.3 0.4,-0.6 0.6,-0.4 0.6,-0.6 0.7,-0.3 0.5,-0.5 0.7,-0.3 1.2,-0.4 1.1,0 1.2,-0.1 1.2,0 0.9,0.1 1.5,0.4 0.7,0.3 1.5,0.9 0.4,0.8 -0.2,1 -0.9,0.7 -1,-0.2 -0.6,-0.4 -0.8,-0.4 -0.8,0 -0.8,-0.2 -1.2,-0.1 -1.1,0.2 -1.3,0.6 -0.6,0.5 -0.5,0.5 -0.4,0.7 -0.4,0.5 -0.1,0.9 0,3 0.4,0.7 0.2,0.7 0.5,0.6 0.4,0.7 2,1.5 2.6,1.5 2.5,1.7 2.2,2 0.4,0.8 0.4,0.7 0.4,0.6 0.5,1.5 0,0.7 0.2,0.8 0,1.2 -0.1,1.2 -0.1,0.8 -0.1,0.7 -0.1,0.7 -0.2,0.7 -0.3,0.7 -0.2,0.6 -0.5,0.8 -0.6,0.5 -0.4,0.6 -0.6,0.5 -1.2,0.9 -0.7,0.2 -1.5,0.4 -2,0.2 -1.1,-0.5 z" />
		<path
   id="path38"
   d="m 977.6,728.1 -0.9,-0.2 -0.5,-0.7 -0.1,-1.3 0,-0.8 0.1,-0.7 0,-0.7 0.1,-0.9 -0.1,-0.6 0,-1.2 -0.1,-1.1 0.1,-0.8 -0.1,-5.4 0.1,-0.7 -0.1,-1.6 0.1,-0.7 0,-0.8 0,-3.4 0,-1.2 0.1,-0.6 0,-3.7 -0.1,-0.9 0,-0.7 0.1,-0.8 0,-0.7 -0.1,-0.7 0,-0.9 -0.1,-0.6 0.3,-0.8 0.8,-0.4 0.7,0.1 0.9,0.3 0.5,0.6 0,0.7 0.1,2.3 0,0.8 0.1,0.8 0,1.7 -0.1,1.6 0.1,4.8 -0.1,0.8 0.1,7.7 -0.2,1.5 0,0.7 0.1,0.9 -0.1,1.1 0,1 0,0.8 0.2,2.9 0,0.8 0.1,0.6 -0.3,0.8 -0.8,0.3 -0.9,0 z" />
		<path
   id="path40"
   d="m 991.9,728.1 -0.9,-0.2 -0.4,-0.6 -0.2,-1.3 0,-0.9 -0.1,-0.7 0.1,-1.5 0,-1.9 0.1,-2.7 -0.1,-0.7 0.1,-0.7 0,-0.8 0,-0.8 0,-0.7 0,-0.9 -0.1,-0.8 0,-1.3 0.1,-0.9 0,-0.7 -0.1,-0.8 0,-10.6 -0.4,-0.8 -0.7,-0.4 -1.5,0 -0.7,-0.1 -0.9,0.1 -1.4,-0.2 -0.8,-0.3 -0.3,-0.9 0.3,-0.7 0.8,-0.5 1.1,0 1.1,-0.1 0.8,0.1 1.7,-0.1 0.7,0.1 0.7,0 0.8,0 0.8,-0.1 0.8,0.1 0.8,-0.2 0.7,0.1 1.6,0 1.6,-0.2 1.5,0.2 0.8,0.3 0.3,1.1 -0.3,0.9 -1.1,0.3 -2,-0.1 -0.7,0 -0.7,-0.1 -0.9,0.1 -0.7,0.4 -0.4,0.8 0,0.6 0.1,0.8 -0.1,0.9 0.1,1.6 -0.1,0.5 0,1.7 -0.1,0.7 0.2,1.4 -0.1,0.7 0,0.8 0.1,0.8 0,0.9 0,0.8 0.1,0.9 -0.1,0.7 0,1 0,2.6 0.1,0.8 -0.1,0.8 0,0.7 0,1.5 0.1,1.2 0,1.1 0,0.9 0,0.7 0,0.6 0,0.7 -0.1,0.7 0.1,0.9 0,0.7 -0.2,0.7 -0.8,0.3 -1.1,0 z" />
		<path
   id="path42"
   d="m 1010.4,728.6 -0.8,-0.2 -0.7,-0.1 -0.6,-0.3 -1.2,-0.9 -1,-1 -0.4,-0.6 -0.3,-0.6 -0.5,-1.4 -0.4,-0.6 -0.4,-1.5 -0.7,-5.6 0.1,-0.9 -0.1,-0.8 0,-0.7 0.1,-0.7 0,-4.8 0.1,-0.6 0,-0.8 0,-0.8 0,-0.7 0.2,-0.8 0.3,-2.4 0.7,-2.3 0.3,-0.5 0.2,-0.8 0.4,-0.5 0.3,-0.8 0.5,-0.6 0.6,-0.4 0.5,-0.4 0.7,-0.4 0.6,-0.3 0.7,-0.3 0.7,-0.1 0.7,-0.1 1.2,-0.1 1.1,0.1 0.9,0.1 0.6,0.2 0.6,0.1 0.7,0.3 1.2,0.7 0.5,0.4 1,1.2 0.7,1.3 0.4,1.3 0.3,0.7 0.2,0.8 0.8,5.6 0,0.8 -0.1,0.8 0.1,4.7 -0.1,1.5 0,1.6 -0.2,0.8 -0.1,2.4 -0.2,1.4 -0.4,1.6 -0.9,2.2 -0.8,1.2 -0.5,0.7 -0.6,0.5 -1.2,0.8 -0.6,0.3 -0.7,0 -0.7,0.2 -0.8,0.1 -1.2,0 -1.1,0 -0.7,0 z m 3.5,-2.9 0.7,-0.2 0.5,-0.5 0.5,-0.4 0.8,-1.1 0.5,-1.4 0.3,-0.7 0.1,-0.8 0.1,-1 0.2,-1.5 0.2,-2.2 0,-0.9 0.1,-0.7 0,-4.2 0.1,-0.6 -0.1,-1.5 0,-0.9 -0.2,-2.9 -0.3,-1.5 0,-0.9 -0.3,-0.6 -0.2,-0.7 -0.2,-0.9 -0.3,-0.7 -0.4,-0.6 -1.1,-1 -0.7,-0.2 -0.8,-0.2 -1,0 -1.1,-0.1 -0.7,0.2 -0.6,0.2 -0.5,0.4 -1,1.1 -0.6,1.2 -0.6,2.4 -0.4,2.3 -0.1,1.7 0,0.7 -0.1,2.3 0.1,2.1 -0.1,1.2 0,0.7 0.1,0.8 0,3.1 0.1,0.6 0,1.5 0.6,2.5 0.4,1.3 0.3,0.7 1.1,1.1 0.6,0.3 0.6,0.4 0.7,0.2 2.2,0 0.5,-0.1 z" />
		<path
   id="path44"
   d="m 1031.9,728.5 -0.8,0 -0.9,-0.2 -0.7,0 -0.8,-0.2 -0.9,-0.3 -1.3,-0.7 -0.7,-0.6 -0.4,-0.8 0.2,-1 0.8,-0.5 0.7,0.2 0.7,0.4 2.1,0.9 0.8,0.1 0.7,0 1.2,0.2 1.1,-0.2 1.4,-0.4 1.3,-0.9 0.5,-0.6 0.5,-0.6 0.3,-0.6 0.3,-0.8 0.2,-0.7 0.1,-0.7 0,-1.1 0,-1.2 0,-0.9 -0.2,-0.5 -0.3,-0.9 -0.3,-0.6 -0.9,-1.2 -1.7,-1.6 -0.7,-0.4 -0.6,-0.5 -2.6,-1.5 -1.2,-0.9 -0.7,-0.3 -0.5,-0.7 -1.2,-1.1 -1.1,-1.7 -0.6,-1.5 -0.2,-1.4 -0.1,-1.1 0.2,-1.9 0.8,-2.3 0.4,-0.6 0.6,-0.4 0.6,-0.6 0.7,-0.3 0.5,-0.5 0.7,-0.3 1.2,-0.4 1.1,0 1.2,-0.1 1.2,0 0.9,0.1 1.5,0.4 0.7,0.3 1.5,0.9 0.4,0.8 -0.2,1 -0.9,0.7 -1,-0.2 -0.6,-0.4 -0.8,-0.4 -0.8,0 -0.8,-0.2 -1.2,-0.1 -1.1,0.2 -1.3,0.6 -0.6,0.5 -0.5,0.5 -0.4,0.7 -0.4,0.5 -0.1,0.9 0,3 0.4,0.7 0.2,0.7 0.5,0.6 0.4,0.7 2,1.5 2.6,1.5 2.5,1.7 2.2,2 0.4,0.8 0.4,0.7 0.4,0.6 0.5,1.5 0,0.7 0.2,0.8 0,1.2 -0.1,1.2 -0.1,0.8 -0.1,0.7 -0.1,0.7 -0.2,0.7 -0.3,0.7 -0.2,0.6 -0.5,0.8 -0.6,0.5 -0.4,0.6 -0.6,0.5 -1.2,0.9 -0.7,0.2 -1.5,0.4 -2,0.2 -1.1,-0.5 z" />
	</g>
	<g
   id="g46">
		<path
   id="path48"
   d="m 791.2,935.2 -0.9,-0.2 -0.5,-0.7 -0.1,-1.3 0,-0.8 0.1,-0.7 0,-0.7 0.1,-0.9 -0.1,-0.6 0,-1.2 -0.1,-1.1 0.1,-0.8 -0.1,-5.4 0.1,-0.7 -0.1,-1.6 0.1,-0.7 0,-0.8 0,-3.4 0,-1.2 0.1,-0.6 0,-3.7 -0.1,-0.9 0,-0.7 0.1,-0.8 0,-0.7 -0.1,-0.7 0,-0.9 -0.1,-0.6 0.3,-0.8 0.8,-0.4 0.7,0.1 0.9,0.3 0.5,0.6 0,0.7 0.1,2.3 0,0.8 0.1,0.8 0,1.7 -0.1,1.6 0.1,4.8 -0.1,0.8 0.1,7.7 -0.2,1.5 0,0.7 0.1,0.9 -0.1,1.1 0,1 0,0.8 0.2,2.9 0,0.8 0.1,0.6 -0.3,0.8 -0.8,0.3 -0.9,0 z" />
		<path
   id="path50"
   d="m 812.4,934.9 -0.7,-0.7 -0.3,-0.7 -1,-2.9 -0.2,-0.8 -0.2,-0.8 -0.1,-0.7 -0.9,-2.3 -0.1,-0.6 -1.1,-2.8 -0.4,-1.7 -0.3,-0.8 -0.2,-0.8 -0.3,-0.5 -0.4,-1.6 -0.3,-0.7 -0.1,-0.8 -0.3,-0.7 -1.8,-5.9 -0.1,-0.7 -0.6,-2.2 -0.3,-0.6 -0.2,0 0,0.7 0,0.8 0.1,0.8 0,0.8 0.1,0.8 0,0.6 0.1,0.8 0,1.2 0.1,4.2 -0.1,0.7 0.1,3.1 0,0.8 0.1,0.9 0,0.7 -0.1,0.7 0,1.7 0.1,1.2 -0.1,1.1 0.1,0.9 0,0.6 0,0.8 0.1,0.9 -0.1,0.9 0.1,3 -0.4,0.7 -1.2,0.3 -1.1,-0.4 -0.4,-0.6 0,-3.8 0.1,-0.7 -0.1,-0.9 0,-3.1 -0.1,-1.9 0,-0.7 0,-1.2 0.1,-0.8 -0.1,-1.8 0,-2 0,-0.9 0,-0.6 0,-0.9 0.1,-0.7 -0.1,-0.7 0.1,-1.5 0,-0.9 -0.1,-0.6 0,-2.4 0,-0.8 0.1,-3.6 0,-0.9 0.4,-0.8 1.1,-0.4 1.2,0 0.8,-0.1 0.8,0.4 0.7,0.8 0.3,0.7 0.2,0.7 0.1,0.8 0.6,1.3 2.6,8.1 0.1,0.7 0.2,0.7 0.4,0.8 0.7,2.1 0.4,1.5 1.6,4.6 0.2,1.2 0.2,0.8 0.4,0.9 0.2,0.8 0.1,0.8 0.4,1.6 0.3,0.7 0.2,0 0,-2.4 -0.2,-1.4 0.1,-0.8 0,-0.9 -0.1,-1.1 0.1,-1.1 -0.1,-1.1 0.1,-1.9 -0.1,-0.6 0,-9.9 -0.1,-1.2 0.1,-1.1 -0.1,-0.6 0.1,-0.7 0,-0.8 0,-0.7 -0.1,-2.3 0.3,-0.7 0.6,-0.2 0.8,0 0.7,0.2 0.5,0.7 0.1,0.7 0.1,1.3 -0.1,0.8 0.1,0.9 -0.1,0.8 0.2,3.9 -0.1,0.6 0.1,1.8 0,0.8 -0.1,0.7 0.1,4 -0.1,0.7 0.1,0.8 0,3.2 0,0.8 -0.1,0.7 0.1,0.7 0,0.8 -0.1,0.8 0.1,3.1 -0.1,0.6 0,0.9 0.1,0.9 -0.1,0.7 0,0.7 -0.3,1 -0.7,0.3 -0.7,0 -0.9,0 -0.7,0.1 -1.3,-1.2 z" />
		<path
   id="path52"
   d="m 828.3,935.6 -0.8,0 -0.9,-0.2 -0.7,0 -0.8,-0.2 -0.9,-0.3 -1.3,-0.7 -0.7,-0.6 -0.4,-0.8 0.2,-1 0.8,-0.5 0.7,0.2 0.7,0.4 2.1,0.9 0.8,0.1 0.7,0 1.2,0.2 1.1,-0.2 1.4,-0.4 1.3,-0.9 0.5,-0.6 0.5,-0.6 0.3,-0.6 0.3,-0.8 0.2,-0.7 0.1,-0.7 0,-1.1 0,-1.2 0,-0.9 -0.2,-0.5 -0.3,-0.9 -0.3,-0.6 -0.9,-1.2 -1.7,-1.6 -0.7,-0.4 -0.6,-0.5 -2.6,-1.5 -1.2,-0.9 -0.7,-0.3 -0.5,-0.7 -1.2,-1.1 -1.1,-1.7 -0.6,-1.5 -0.2,-1.4 -0.1,-1.1 0.2,-1.9 0.8,-2.3 0.4,-0.6 0.6,-0.4 0.6,-0.6 0.7,-0.3 0.5,-0.5 0.7,-0.3 1.2,-0.4 1.1,0 1.2,-0.1 1.2,0 0.9,0.1 1.5,0.4 0.7,0.3 1.5,0.9 0.4,0.8 -0.2,1 -0.9,0.7 -1,-0.2 -0.6,-0.4 -0.8,-0.4 -0.8,0 -0.8,-0.2 -1.2,-0.1 -1.1,0.2 -1.3,0.6 -0.6,0.5 -0.5,0.5 -0.4,0.7 -0.4,0.5 -0.1,0.9 0,3 0.4,0.7 0.2,0.7 0.5,0.6 0.4,0.7 2,1.5 2.6,1.5 2.5,1.7 2.2,2 0.4,0.8 0.4,0.7 0.4,0.6 0.5,1.5 0,0.7 0.2,0.8 0,1.2 -0.1,1.2 -0.1,0.8 -0.1,0.7 -0.1,0.7 -0.2,0.7 -0.3,0.7 -0.2,0.6 -0.5,0.8 -0.6,0.5 -0.4,0.6 -0.6,0.5 -1.2,0.9 -0.7,0.2 -1.5,0.4 -2,0.2 -1.1,-0.5 z" />
		<path
   id="path54"
   d="m 849.1,935.2 -0.9,-0.2 -0.4,-0.6 -0.2,-1.3 0,-0.9 -0.1,-0.7 0.1,-1.5 0,-1.9 0.1,-2.7 -0.1,-0.7 0.1,-0.7 0,-0.8 0,-0.8 0,-0.7 0,-0.9 -0.1,-0.8 0,-1.3 0.1,-0.9 0,-0.8 -0.1,-0.8 0,-10.6 -0.4,-0.8 -0.7,-0.4 -1.5,0 -0.7,-0.1 -0.9,0.1 -1.4,-0.2 -0.8,-0.3 -0.3,-0.9 0.3,-0.7 0.8,-0.5 1.1,0 1.1,-0.1 0.8,0.1 1.7,-0.1 0.7,0.1 0.7,0 0.8,0 0.8,-0.1 0.8,0.1 0.8,-0.2 0.7,0.1 1.6,0 1.6,-0.2 1.5,0.2 0.8,0.3 0.3,1.1 -0.3,0.9 -1.1,0.3 -2,-0.1 -0.7,0 -0.7,-0.1 -0.9,0.1 -0.7,0.4 -0.4,0.8 0,0.6 0.1,0.8 -0.1,0.9 0.1,1.6 -0.1,0.5 0,1.7 -0.1,0.7 0.2,1.4 -0.1,0.7 0,0.8 0.1,0.8 0,0.9 0,0.8 0.1,0.9 -0.1,0.7 0,1 0,2.6 0.1,0.8 -0.1,0.8 0,0.7 0,1.5 0.1,1.2 0,1.1 0,0.9 0,0.7 0,0.6 0,0.7 -0.1,0.7 0.1,0.9 0,0.7 -0.2,0.7 -0.8,0.3 -1.1,0.1 z" />
		<path
   id="path56"
   d="m 859.3,934.8 -0.2,-0.8 0.9,-3.6 0.3,-0.7 0.1,-0.8 0.2,-0.7 1,-4.7 0.7,-2.2 0.1,-0.7 0.7,-3.2 0.1,-0.7 0.5,-1.4 0.1,-0.7 1,-3.8 0,-0.7 0.3,-0.8 0.2,-1.5 0.4,-1.5 0.2,-0.6 0.1,-0.8 0.1,-0.8 0.5,-1.5 0.5,-0.7 0.9,-0.4 0.8,-0.1 0.7,0.1 0.8,0.3 0.5,0.7 0.3,0.8 0.1,0.9 0.6,2.2 0.2,1.5 0.9,2.8 0.4,2.4 0.3,0.7 0.1,0.9 0.8,2.9 0.1,0.8 0.8,3 0.1,0.9 0.2,0.6 0,0.8 0.7,2.3 0.2,1.4 0.3,0.9 0,0.6 0.9,3 0.5,2.4 -0.2,0.8 -0.6,0.3 -0.9,0 -0.9,-0.5 -0.6,-0.6 -0.2,-1.5 -0.2,-0.8 -0.3,-0.7 -0.3,-1.7 -0.2,-0.8 -0.1,-0.8 -0.4,-1.4 -0.6,-0.9 -0.8,-0.4 -2,0 -1.2,-0.1 -1,0 -0.7,0.1 -1.6,0 -0.9,0.4 -0.5,0.9 -1.5,7 -0.3,0.6 -0.6,0.7 -0.8,0.5 -1,0 -0.6,-0.6 z m 10.8,-12.3 1.5,0 0.6,-0.2 0.1,-0.8 -0.4,-1.6 -0.1,-0.8 -0.2,-0.8 -0.1,-0.6 -0.3,-0.7 -0.1,-0.9 -0.2,-0.7 -0.3,-0.7 -0.2,-1.5 -0.3,-1.3 -0.1,-1.1 -0.5,-2.1 -0.2,-1.6 -0.4,-1.5 -0.1,-0.1 -0.3,1.5 -0.5,3.3 -0.2,0.5 -0.5,2.4 0,0.7 -0.2,0.8 -0.2,0.7 -0.4,1.4 0,0.9 -0.2,0.7 -0.5,1.3 0,0.9 -0.1,0.6 0.1,0.9 0.7,0.3 0.8,0 0.7,0 1.5,0.1 0.6,0 z" />
		<path
   id="path58"
   d="m 886.2,935.2 -0.8,0 -0.8,0 -0.8,0 -0.7,-0.4 -0.4,-0.7 -0.1,-0.9 0,-8.6 0,-0.6 -0.1,-0.8 0.1,-3.1 -0.1,-3.8 0.1,-1.6 -0.1,-0.9 0.1,-0.8 -0.1,-1.2 0,-4.8 0.1,-0.7 -0.1,-2.4 0,-0.7 0,-0.8 0.3,-0.8 0.6,-0.3 0.9,0.1 0.8,0.3 0.6,0.6 0,0.5 0,0.9 0.1,0.7 0,1.6 -0.1,0.8 0.1,0.8 0,1.1 0.1,1.2 0,0.6 0,2.1 -0.1,1.2 0.1,3 -0.1,0.7 0.1,3.8 -0.1,1.4 0.1,1.6 -0.1,1.8 0.1,1.1 -0.1,2.7 0,1.2 0.4,0.7 0.7,0.4 1.6,-0.1 0.7,0.1 5.3,0 0.8,0.3 0.5,0.8 0,0.7 -0.5,0.5 -0.8,0.3 -3.8,0.2 -1.5,-0.2 -0.8,0 -0.8,0.2 -1.4,0.2 z" />
		<path
   id="path60"
   d="m 897.6,934.8 -0.2,-0.8 0.9,-3.6 0.3,-0.7 0.1,-0.8 0.2,-0.7 1,-4.7 0.7,-2.2 0.1,-0.7 0.7,-3.2 0.1,-0.7 0.5,-1.4 0.1,-0.7 1,-3.8 0,-0.7 0.3,-0.8 0.2,-1.5 0.4,-1.5 0.2,-0.6 0.1,-0.8 0.1,-0.8 0.5,-1.5 0.5,-0.7 0.9,-0.4 0.8,-0.1 0.7,0.1 0.8,0.3 0.5,0.7 0.3,0.8 0.1,0.9 0.6,2.2 0.2,1.5 0.9,2.8 0.4,2.4 0.3,0.7 0.1,0.9 0.8,2.9 0.1,0.8 0.8,3 0.1,0.9 0.2,0.6 0,0.8 0.7,2.3 0.2,1.4 0.3,0.9 0,0.6 0.9,3 0.5,2.4 -0.2,0.8 -0.6,0.3 -0.9,0 -0.9,-0.5 -0.6,-0.6 -0.2,-1.5 -0.2,-0.8 -0.3,-0.7 -0.3,-1.7 -0.2,-0.8 -0.1,-0.8 -0.4,-1.4 -0.6,-0.9 -0.8,-0.4 -2.2,0 -1.2,-0.1 -1,0 -0.7,0.1 -1.6,0 -0.9,0.4 -0.5,0.9 -1.5,7 -0.3,0.6 -0.6,0.7 -0.8,0.5 -1,0 -0.4,-0.6 z m 10.8,-12.3 1.5,0 0.6,-0.2 0.1,-0.8 -0.4,-1.6 -0.1,-0.8 -0.2,-0.8 -0.1,-0.6 -0.3,-0.7 -0.1,-0.9 -0.2,-0.7 -0.3,-0.7 -0.2,-1.5 -0.3,-1.3 -0.1,-1.1 -0.5,-2.1 -0.2,-1.6 -0.4,-1.5 -0.1,-0.1 -0.3,1.5 -0.5,3.3 -0.2,0.5 -0.5,2.4 0,0.7 -0.2,0.8 -0.2,0.7 -0.4,1.4 0,0.9 -0.2,0.7 -0.5,1.3 0,0.9 -0.1,0.6 0.1,0.9 0.7,0.3 0.8,0 0.7,0 1.5,0.1 0.6,0 z" />
		<path
   id="path62"
   d="m 925.4,935.2 -1.3,-0.6 -1.1,-0.9 -0.6,-0.6 -0.3,-0.6 -0.4,-0.6 -0.4,-0.7 -0.5,-1.4 -0.1,-0.8 -0.2,-0.8 -0.2,-0.6 -0.5,-2.5 0.1,-0.8 -0.2,-2.3 0.1,-1 -0.1,-0.7 0,-0.7 -0.1,-1.2 0.1,-1.2 -0.1,-0.7 0.1,-1.2 0,-1 0.3,-2.4 0,-0.8 0.1,-0.6 0.1,-0.9 0.2,-0.8 0.3,-0.6 0.1,-0.8 0.3,-0.8 0.1,-0.6 0.3,-0.8 0.9,-1.3 0.4,-0.5 1.2,-1.2 0.6,-0.3 0.7,-0.2 0.8,-0.4 0.8,0 0.7,-0.1 2.3,0 1.6,0.3 1.4,0.6 0.8,0.2 0.7,0.5 0.4,0.8 -0.1,0.8 -0.4,0.6 -0.8,0.1 -0.7,-0.1 -0.7,-0.4 -0.8,-0.2 -0.7,-0.3 -0.7,-0.1 -1.2,-0.1 -1.2,0.2 -0.6,0 -0.6,0.3 -0.5,0.3 -0.6,0.5 -0.5,0.5 -0.2,0.8 -0.7,1.3 -0.1,0.7 -0.7,4 -0.2,7.2 0.1,0.8 0,0.7 0.1,0.6 0,0.9 -0.1,0.8 0.1,0.7 0.2,2.3 0.2,1.5 0.3,0.7 0.1,0.9 0.2,0.6 0.4,0.9 0.4,0.6 0.6,0.5 0.7,0.5 0.6,0.3 0.7,0.2 1.2,0 1.1,-0.1 1.2,-0.1 1,-0.2 1.3,-0.5 0.6,-0.5 0.9,0 0.7,0.6 0,1 -0.6,1 -3.2,1.3 -1.8,0.3 -1.2,-0.1 -1.2,0.1 -2,-0.8 z" />
		<path
   id="path64"
   d="m 941.9,935.2 -0.9,-0.2 -0.5,-0.7 -0.1,-1.3 0,-0.8 0.1,-0.7 0,-0.7 0.1,-0.9 -0.1,-0.6 0,-1.2 -0.1,-1.1 0.1,-0.8 -0.1,-5.4 0.1,-0.7 -0.1,-1.6 0.1,-0.7 0,-0.8 0,-3.4 0,-1.2 0.1,-0.6 0,-3.7 -0.1,-0.9 0,-0.7 0.1,-0.8 0,-0.7 -0.1,-0.7 0,-0.9 -0.1,-0.6 0.3,-0.8 0.8,-0.4 0.7,0.1 0.9,0.3 0.5,0.6 0,0.7 0.1,2.3 0,0.8 0.1,0.8 0,1.7 -0.1,1.6 0.1,4.8 -0.1,0.8 0.1,7.7 -0.2,1.5 0,0.7 0.1,0.9 -0.1,1.1 0,1 0,0.8 0.2,2.9 0,0.8 0.1,0.6 -0.3,0.8 -0.8,0.3 -0.9,0 z" />
		<path
   id="path66"
   d="m 956.2,935.7 -0.8,-0.2 -0.7,-0.1 -0.6,-0.3 -1.2,-0.9 -1,-1 -0.4,-0.6 -0.3,-0.6 -0.5,-1.4 -0.4,-0.6 -0.4,-1.5 -0.7,-5.6 0.1,-0.9 -0.1,-0.8 0,-0.7 0.1,-0.7 0,-4.8 0.1,-0.6 0,-0.8 0,-0.8 0,-0.7 0.2,-0.8 0.3,-2.4 0.7,-2.3 0.3,-0.5 0.2,-0.8 0.4,-0.5 0.3,-0.8 0.5,-0.6 0.6,-0.4 0.5,-0.4 0.7,-0.4 0.6,-0.3 0.7,-0.3 0.7,-0.1 0.7,-0.1 1.2,-0.1 1.1,0.1 0.9,0.1 0.6,0.2 0.6,0.1 0.7,0.3 1.2,0.7 0.5,0.4 1,1.2 0.7,1.3 0.4,1.3 0.3,0.7 0.2,0.8 0.8,5.6 0,0.8 -0.1,0.8 0.1,4.7 -0.1,1.5 0,1.6 -0.2,0.8 -0.1,2.4 -0.2,1.4 -0.4,1.6 -0.9,2.2 -0.8,1.2 -0.5,0.7 -0.6,0.5 -1.2,0.7 -0.6,0.3 -0.7,0 -0.7,0.2 -0.8,0.1 -1.2,0 -1.1,0 -0.7,0.1 z m 3.6,-2.9 0.7,-0.2 0.5,-0.5 0.5,-0.4 0.8,-1.1 0.5,-1.4 0.3,-0.7 0.1,-0.8 0.1,-1 0.2,-1.5 0.2,-2.2 0,-0.9 0.1,-0.7 0,-4.2 0.1,-0.6 -0.1,-1.5 0,-0.9 -0.2,-2.9 -0.3,-1.5 0,-0.9 -0.3,-0.6 -0.2,-0.7 -0.2,-0.9 -0.3,-0.7 -0.4,-0.6 -1.1,-1 -0.7,-0.2 -0.8,-0.2 -1,0 -1.1,-0.1 -0.7,0.2 -0.6,0.2 -0.5,0.4 -1,1.1 -0.6,1.2 -0.6,2.4 -0.4,2.3 -0.1,1.7 0,0.7 -0.1,2.3 0.1,2.1 -0.1,1.2 0,0.7 0.1,0.8 0,3.1 0.1,0.6 0,1.5 0.6,2.5 0.4,1.3 0.3,0.7 1.1,1.1 0.6,0.3 0.6,0.4 0.7,0.2 2.2,0 0.5,-0.1 z" />
		<path
   id="path68"
   d="m 985.3,934.9 -0.7,-0.7 -0.3,-0.7 -1,-2.9 -0.2,-0.8 -0.3,-0.7 -0.1,-0.7 -0.8,-2.3 -0.1,-0.6 -1.1,-2.8 -0.4,-1.7 -0.3,-0.8 -0.2,-0.8 -0.3,-0.5 -0.4,-1.6 -0.3,-0.7 -0.1,-0.8 -0.3,-0.7 -1.8,-5.9 -0.1,-0.7 -0.6,-2.2 -0.3,-0.6 -0.2,0 0,0.7 0,0.8 0.1,0.8 0,0.8 0.1,0.8 0,0.6 0.1,0.8 0,1.2 0.1,4.2 -0.1,0.7 0.1,3.1 0,0.8 0.1,0.9 0,0.7 -0.1,0.7 0,1.7 0.1,1.2 -0.1,1.1 0.1,0.9 0,0.6 0,0.8 0.1,0.9 -0.1,0.9 0.1,3 -1,0.6 -1.2,0.3 -1.1,-0.4 -0.4,-0.6 0,-3.8 0.1,-0.7 -0.1,-0.9 0,-3.1 -0.1,-1.9 0,-0.7 0,-1.2 0.1,-0.8 -0.1,-1.8 0,-2 0,-0.9 0,-0.6 0,-0.9 0.1,-0.7 -0.1,-0.7 0.1,-1.5 0,-0.9 -0.1,-0.6 0,-2.4 0,-0.8 0.1,-3.6 0,-0.9 0.4,-0.8 1.1,-0.4 1.2,0 0.8,-0.1 0.8,0.4 0.7,0.8 0.3,0.7 0.2,0.7 0.1,0.8 0.6,1.3 2.6,8.1 0.1,0.7 0.2,0.7 0.4,0.8 0.7,2.1 0.4,1.5 1.6,4.6 0.2,1.2 0.2,0.8 0.4,0.9 0.2,0.8 0.1,0.8 0.4,1.6 0.3,0.7 0.2,0 0,-2.4 -0.2,-1.4 0.1,-0.8 0,-0.9 -0.1,-1.1 0.1,-1.1 -0.1,-1.1 0.1,-1.9 -0.1,-0.6 0,-9.9 -0.1,-1.2 0.1,-1.1 -0.1,-0.6 0.1,-0.7 0,-0.8 0,-0.7 -0.1,-2.3 0.3,-0.7 0.6,-0.2 0.8,0 0.7,0.2 0.5,0.7 0.1,0.7 0.1,1.3 -0.1,0.8 0.1,0.9 -0.1,0.8 0.2,3.9 -0.1,0.6 0.1,1.8 0,0.8 -0.1,0.7 0.1,4 -0.1,0.7 0.1,0.8 0,3.2 0,0.8 -0.1,0.7 0.1,0.7 0,0.8 -0.1,0.8 0.1,3.1 -0.1,0.6 0,0.9 0.1,0.9 -0.1,0.7 0,0.7 -0.3,1 -0.7,0.3 -0.7,0 -0.9,0 -0.7,0.1 -0.7,-1.2 z" />
		<path
   id="path70"
   d="m 1007.7,935.2 -1.5,0 -0.8,0 -0.8,0.1 -0.7,-0.1 -1.5,0.1 -0.8,-0.1 -0.7,0.1 -0.7,-0.1 -1.5,0.2 -1.5,0 -0.8,-0.4 -0.4,-0.8 0.1,-5.5 -0.1,-2.4 0,-0.8 0.1,-0.7 -0.1,-0.8 0.1,-0.6 0,-0.8 -0.1,-0.9 0,-0.9 0,-1.3 0,-0.8 0,-0.9 0.1,-0.9 -0.1,-0.8 0.1,-2.2 0,-1 0,-0.7 0,-1.5 0,-0.9 -0.1,-0.8 0.1,-1.9 -0.1,-0.6 0,-0.8 0,-0.6 0,-0.9 0,-0.8 -0.1,-0.6 0.3,-0.9 0.7,-0.3 0.8,0.2 0.7,-0.2 0.8,0.2 2.3,-0.2 3.9,0.1 2.3,0 0.8,0 0.7,0.4 0.5,0.5 0,0.7 -0.5,0.7 -1.2,0.4 -1.1,-0.1 -0.8,-0.1 -0.9,0 -0.7,0.1 -0.8,-0.2 -1.6,0 -1.5,0.2 -0.8,0.4 -0.4,1.1 0,2.7 0.1,1.6 -0.1,0.7 0.1,2.3 -0.1,0.8 0.1,0.7 0,0.8 0.3,1 0.8,0.3 0.7,0 0.8,-0.1 1.2,0 1.4,0 1.2,0.1 1.4,0 0.8,-0.1 0.8,0.4 0.3,0.8 -0.4,1 -0.7,0.4 -1.4,0.1 -0.7,-0.2 -1.6,0 -0.7,-0.1 -0.8,0.1 -1.5,0 -0.8,-0.1 -0.7,0.5 -0.4,0.7 0.1,0.7 0,0.9 0.1,0.9 0,0.8 -0.1,0.6 0.1,0.9 -0.1,4.9 0,0.9 0.4,1.1 0.9,0.4 1.5,0 0.8,0.1 0.8,-0.1 1.6,0 0.8,0.1 0.7,-0.1 0.8,0 0.8,0 0.8,0.3 0.4,0.7 0,0.7 -0.3,0.7 -0.8,0.4 -1.1,0.1 z" />
		<path
   id="path72"
   d="m 1020.5,935.6 -0.8,0 -0.9,-0.2 -0.7,0 -0.8,-0.2 -0.9,-0.3 -1.3,-0.7 -0.7,-0.6 -0.4,-0.8 0.2,-1 0.8,-0.5 0.7,0.2 0.7,0.4 2.1,0.9 0.8,0.1 0.7,0 1.2,0.2 1.1,-0.2 1.4,-0.4 1.3,-0.9 0.5,-0.6 0.5,-0.6 0.3,-0.6 0.3,-0.8 0.2,-0.7 0.1,-0.7 0,-1.1 0,-1.2 0,-0.9 -0.2,-0.5 -0.3,-0.9 -0.3,-0.6 -0.9,-1.2 -1.7,-1.6 -0.7,-0.4 -0.6,-0.5 -2.6,-1.5 -1.2,-0.9 -0.7,-0.3 -0.5,-0.7 -1.2,-1.1 -1.1,-1.7 -0.6,-1.5 -0.2,-1.4 -0.1,-1.1 0.2,-1.9 0.8,-2.3 0.4,-0.6 0.6,-0.4 0.6,-0.6 0.7,-0.3 0.5,-0.5 0.7,-0.3 1.2,-0.4 1.1,0 1.2,-0.1 1.2,0 0.9,0.1 1.5,0.4 0.7,0.3 1.5,0.9 0.4,0.8 -0.2,1 -0.9,0.7 -1,-0.2 -0.6,-0.4 -0.8,-0.4 -0.8,0 -0.8,-0.2 -1.2,-0.1 -1.1,0.2 -1.3,0.6 -0.6,0.5 -0.5,0.5 -0.4,0.7 -0.4,0.5 -0.1,0.9 0,3 0.4,0.7 0.2,0.7 0.5,0.6 0.4,0.7 2,1.5 2.6,1.5 2.5,1.7 2.2,2 0.4,0.8 0.4,0.7 0.4,0.6 0.5,1.5 0,0.7 0.2,0.8 0,1.2 -0.1,1.2 -0.1,0.8 -0.1,0.7 -0.1,0.7 -0.2,0.7 -0.3,0.7 -0.2,0.6 -0.5,0.8 -0.6,0.5 -0.4,0.6 -0.6,0.5 -1.2,0.9 -0.7,0.2 -1.5,0.4 -2,0.2 -1.1,-0.5 z" />
	</g>
	<g
   id="g74">
		<path
   id="path76"
   d="m 848.2,325.7 -0.8,0 -0.9,-0.2 -0.7,0 -0.8,-0.2 -0.9,-0.3 -1.3,-0.7 -0.7,-0.6 -0.4,-0.8 0.2,-1 0.8,-0.5 0.7,0.2 0.7,0.4 2.1,0.9 0.8,0.1 0.7,0 1.2,0.2 1.1,-0.2 1.4,-0.4 1.3,-0.9 0.5,-0.6 0.5,-0.6 0.3,-0.6 0.3,-0.8 0.2,-0.7 0.1,-0.7 0,-1.1 0,-1.2 0,-0.9 -0.2,-0.5 -0.3,-0.9 -0.3,-0.6 -0.9,-1.2 -1.7,-1.6 -0.7,-0.4 -0.6,-0.5 -2.6,-1.5 -1.2,-0.9 -0.7,-0.3 -0.5,-0.7 -1.2,-1.1 -1.1,-1.7 -0.6,-1.5 -0.2,-1.4 -0.1,-1.1 0.2,-1.9 0.8,-2.3 0.4,-0.6 0.6,-0.4 0.6,-0.6 0.7,-0.3 0.5,-0.5 0.7,-0.3 1.2,-0.4 1.1,0 1.2,-0.1 1.2,0 0.9,0.1 1.5,0.4 0.7,0.3 1.5,0.9 0.4,0.8 -0.2,1 -0.9,0.7 -1,-0.2 -0.6,-0.4 -0.8,-0.4 -0.8,0 -0.8,-0.2 -1.2,-0.1 -1.1,0.2 -1.3,0.6 -0.6,0.5 -0.5,0.5 -0.4,0.7 -0.4,0.5 -0.1,0.9 0,3 0.4,0.7 0.2,0.7 0.5,0.6 0.4,0.7 2,1.5 2.6,1.5 2.5,1.7 2.2,2 0.4,0.8 0.4,0.7 0.4,0.6 0.5,1.5 0,0.7 0.2,0.8 0,1.2 -0.1,1.2 -0.1,0.8 -0.1,0.7 -0.1,0.7 -0.2,0.7 -0.3,0.7 -0.2,0.6 -0.5,0.8 -0.6,0.5 -0.4,0.6 -0.6,0.5 -1.2,0.9 -0.7,0.2 -1.5,0.4 -2,0.2 -1.1,-0.5 z" />
		<path
   id="path78"
   d="m 864.9,325.4 -0.9,-0.2 -0.5,-0.7 -0.1,-1.3 0,-0.8 0.1,-0.7 0,-0.7 0.1,-0.9 -0.1,-0.6 0,-1.2 -0.1,-1.1 0.1,-0.8 -0.1,-5.4 0.1,-0.7 -0.1,-1.6 0.1,-0.7 0,-0.8 0,-3.4 0,-1.2 0.1,-0.6 0,-3.7 -0.1,-0.9 0,-0.7 0.1,-0.8 0,-0.7 -0.1,-0.7 0,-0.9 -0.1,-0.6 0.3,-0.8 0.8,-0.4 0.7,0.1 0.9,0.3 0.5,0.6 0,0.7 0.1,2.3 0,0.8 0.1,0.8 0,1.7 -0.1,1.6 0.1,4.8 -0.1,0.8 0.1,7.7 -0.2,1.5 0,0.7 0.1,0.9 -0.1,1.1 0,1 0,0.8 0.2,2.9 0,0.8 0.1,0.6 -0.3,0.8 -0.8,0.3 -0.9,0 z" />
		<path
   id="path80"
   d="m 878.5,325.7 -0.8,0 -0.9,-0.2 -0.7,0 -0.8,-0.2 -0.9,-0.3 -1.3,-0.7 -0.7,-0.6 -0.4,-0.8 0.2,-1 0.8,-0.5 0.7,0.2 0.7,0.4 2.1,0.9 0.8,0.1 0.7,0 1.2,0.2 1.1,-0.2 1.4,-0.4 1.3,-0.9 0.5,-0.6 0.5,-0.6 0.3,-0.6 0.3,-0.8 0.2,-0.7 0.1,-0.7 0,-1.1 0,-1.2 0,-0.9 -0.2,-0.5 -0.3,-0.9 -0.3,-0.6 -0.9,-1.2 -1.7,-1.6 -0.7,-0.4 -0.6,-0.5 -2.6,-1.5 -1.2,-0.9 -0.7,-0.3 -0.5,-0.7 -1.2,-1.1 -1.1,-1.7 -0.6,-1.5 -0.2,-1.4 -0.1,-1.1 0.2,-1.9 0.8,-2.3 0.4,-0.6 0.6,-0.4 0.6,-0.6 0.7,-0.3 0.5,-0.5 0.7,-0.3 1.2,-0.4 1.1,0 1.2,-0.1 1.2,0 0.9,0.1 1.5,0.4 0.7,0.3 1.5,0.9 0.4,0.8 -0.2,1 -0.9,0.7 -1,-0.2 -0.6,-0.4 -0.8,-0.4 -0.8,0 -0.8,-0.2 -1.2,-0.1 -1.1,0.2 -1.3,0.6 -0.6,0.5 -0.5,0.5 -0.4,0.7 -0.4,0.5 -0.1,0.9 0,3 0.4,0.7 0.2,0.7 0.5,0.6 0.4,0.7 2,1.5 2.6,1.5 2.5,1.7 2.2,2 0.4,0.8 0.4,0.7 0.4,0.6 0.5,1.5 0,0.7 0.2,0.8 0,1.2 -0.1,1.2 -0.1,0.8 -0.1,0.7 -0.1,0.7 -0.2,0.7 -0.3,0.7 -0.2,0.6 -0.5,0.8 -0.6,0.5 -0.4,0.6 -0.6,0.5 -1.2,0.9 -0.7,0.2 -1.5,0.4 -2,0.2 -1.1,-0.5 z" />
		<path
   id="path82"
   d="m 899.3,325.3 -0.9,-0.2 -0.4,-0.6 -0.2,-1.3 0,-0.9 -0.1,-0.7 0.1,-1.5 0,-1.9 0.1,-2.7 -0.1,-0.7 0.1,-0.7 0,-0.8 0,-0.8 0,-0.7 0,-0.9 -0.1,-0.8 0,-1.3 0.1,-0.9 0,-0.7 -0.1,-0.8 0,-10.6 -0.4,-0.8 -0.7,-0.4 -1.5,0 -0.7,-0.1 -0.9,0.1 -1.4,-0.2 -0.8,-0.3 -0.3,-0.9 0.3,-0.7 0.8,-0.5 1.1,0 1.1,-0.1 0.8,0.1 1.7,-0.1 0.7,0.1 0.7,0 0.8,0 0.8,-0.1 0.8,0.1 0.8,-0.2 0.7,0.1 1.6,0 1.6,-0.2 1.5,0.2 0.8,0.3 0.3,1.1 -0.3,0.9 -1.1,0.3 -2,-0.1 -0.7,0 -0.7,-0.1 -0.9,0.1 -0.7,0.4 -0.4,0.8 0,0.6 0.1,0.8 -0.1,0.9 0.1,1.6 -0.1,0.5 0,1.7 -0.1,0.7 0.2,1.4 -0.1,0.7 0,0.8 0.1,0.8 0,0.9 0,0.8 0.1,0.9 -0.1,0.7 0,1 0,2.6 0.1,0.8 -0.1,0.8 0,0.7 0,1.5 0.1,1.2 0,1.1 0,0.9 0,0.7 0,0.6 0,0.7 -0.1,0.7 0.1,0.9 0,0.7 -0.2,0.7 -0.8,0.3 -1.1,0 z" />
		<path
   id="path84"
   d="m 923.7,325.4 -1.5,0 -0.8,0 -0.8,0.1 -0.7,-0.1 -1.5,0.1 -0.8,-0.1 -0.7,0.1 -0.7,-0.1 -1.5,0.2 -1.5,0 -0.8,-0.4 -0.4,-0.8 0.1,-5.5 -0.1,-2.4 0,-0.8 0.1,-0.7 -0.1,-0.9 0.1,-0.6 0,-0.8 -0.1,-0.9 0,-0.9 0,-1.3 0,-0.8 0,-0.9 0.1,-0.9 -0.1,-0.8 0.1,-2.2 0,-1 0,-0.7 0,-1.5 0,-0.9 -0.1,-1.1 0.1,-1.9 -0.1,-0.6 0,-0.8 0,-0.6 0,-0.9 0,-0.8 -0.1,-0.6 0.3,-0.9 0.7,-0.3 0.8,0.2 0.7,-0.2 0.8,0.2 2.3,-0.2 3.9,0.1 2.3,0 0.8,0 0.7,0.4 0.5,0.5 0,0.7 -0.5,0.7 -1.2,0.4 -1.1,-0.1 -0.8,-0.1 -0.9,0 -0.7,0.1 -0.8,-0.2 -1.6,0 -1.5,0.2 -0.8,0.4 -0.4,1.1 0,2.7 0.1,1.6 -0.1,0.7 0.1,2.3 -0.1,0.8 0.1,0.7 0,0.8 0.3,1 0.8,0.3 0.7,0 0.8,-0.1 1.2,0 1.4,0 1.2,0.1 1.4,0 0.8,-0.1 0.8,0.4 0.3,0.8 -0.4,1 -0.7,0.4 -1.4,0.1 -0.7,-0.2 -1.6,0 -0.7,-0.1 -0.8,0.1 -1.5,0 -0.8,-0.1 -0.7,0.5 -0.4,0.7 0.1,0.7 0,0.9 0.1,0.9 0,0.8 -0.1,0.6 0.1,0.9 -0.1,4.9 0,0.9 0.4,1.1 0.9,0.4 1.5,0 0.8,0.1 0.8,-0.1 1.6,0 0.8,0.1 0.7,-0.1 0.8,0 0.8,0 0.8,0.3 0.4,0.7 0,0.7 -0.3,0.7 -0.8,0.4 -1.1,0.5 z" />
		<path
   id="path86"
   d="m 931.4,325.1 -0.4,-0.8 0.1,-5.4 -0.1,-0.7 0.1,-2.3 0,-0.8 0,-3.1 0,-0.8 0,-0.7 -0.1,-0.7 0.1,-6.2 -0.1,-0.8 0,-0.8 0,-2.2 0,-0.8 0,-0.8 0,-0.8 0,-1.4 0,-0.9 0,-1.8 0.4,-1.2 0.8,-0.4 0.8,0.1 0.9,0 0.8,0.1 0.9,0.3 0.6,0.7 2.4,8.8 0.3,1.5 0.3,0.9 0.1,0.7 0.5,1.4 0.1,0.8 0.3,0.8 1.8,7.4 0.2,1.3 0.3,1.2 0.4,0.3 1.9,-8.3 0.5,-1.5 0.1,-0.6 0.3,-0.7 0.2,-0.8 0.1,-0.9 1,-3.6 0.3,-0.7 1.1,-4.6 0.6,-1.4 0.2,-0.9 0.1,-0.7 0.2,-0.7 0.5,-0.7 1.3,-0.5 1.2,0 0.7,0.1 0.8,0.3 0.5,0.7 -0.1,5.5 0.1,0.8 -0.1,1.5 0,0.9 -0.1,4.5 0.1,0.9 0,0.8 0.1,1.5 -0.1,2.4 0.1,3.7 -0.1,0.9 0.1,0.8 -0.1,3.6 0.1,0.8 0,0.8 0.1,0.6 -0.1,0.6 0.1,0.9 -0.3,0.7 -0.6,0.4 -0.8,0.1 -0.8,-0.4 -0.5,-0.5 0,-0.3 0,-0.8 -0.1,-0.8 0,-0.8 -0.1,-0.7 0.1,-2.7 -0.1,-1.2 0.1,-0.9 0,-0.8 0,-0.8 0.1,-0.7 -0.1,-0.8 0,-0.8 0.1,-1.6 -0.1,-3.1 0.1,-3.2 0,-2.2 0,-0.7 0,-1 0.1,-0.7 -0.1,-1 0.1,-3 -0.2,0 -0.3,0.7 -0.1,0.7 -0.1,0.9 -0.2,0.6 -0.1,0.9 -2.8,10.3 -0.3,0.8 -0.1,0.8 -0.3,0.6 -0.1,0.7 -1.4,5.3 -0.3,0.7 -0.1,0.9 -0.2,0.6 -1.1,0.8 -0.9,0.2 -0.7,0 -0.9,-0.3 -0.6,-0.7 -0.5,-1.4 0,-0.8 -0.2,-0.9 -0.3,-0.7 -0.4,-1.4 -0.3,-0.6 -0.2,-1.1 -0.4,-1.2 -0.1,-0.8 -0.5,-1.5 -0.2,-0.6 -0.1,-0.8 -0.3,-0.6 -0.3,-1.5 -0.8,-2.3 -1.9,-8.3 -0.2,0.1 0,1.6 0,1.5 0,0.8 0.1,0.8 0,0.7 0.1,3.3 0,0.7 0,1.6 -0.1,0.8 0.1,0.8 0,0.6 0,2.4 0,0.7 0,0.8 0,11.5 -0.3,0.8 -0.8,0.4 -0.7,0 -1.2,-0.5 z" />
		<path
   id="path88"
   d="m 958.8,324.9 -0.2,-0.8 0.9,-3.6 0.3,-0.7 0.1,-0.8 0.2,-0.7 1,-4.7 0.7,-2.2 0.1,-0.7 0.7,-3.2 0.1,-0.7 0.5,-1.4 0.1,-0.7 1,-3.8 0,-0.7 0.3,-0.8 0.2,-1.5 0.4,-1.5 0.2,-0.6 0.1,-0.8 0.1,-0.8 0.5,-1.5 0.5,-0.7 0.9,-0.4 0.8,-0.1 0.7,0.1 0.8,0.3 0.5,0.7 0.3,0.8 0.1,0.9 0.6,2.2 0.2,1.5 0.9,2.8 0.4,2.4 0.3,0.7 0.1,0.9 0.8,2.9 0.1,0.8 0.8,3 0.1,0.9 0.2,0.6 0,0.8 0.7,2.3 0.2,1.4 0.3,0.9 0,0.6 0.9,3 0.5,2.4 -0.2,0.8 -0.6,0.3 -0.9,0 -0.9,-0.5 -0.6,-0.6 -0.2,-1.5 -0.2,-0.8 -0.3,-0.7 -0.3,-1.7 -0.2,-0.8 -0.1,-0.8 -0.4,-1.4 -0.6,-0.9 -0.8,-0.4 -2.2,0 -1.2,-0.1 -1,0 -0.7,0.1 -1.6,0 -0.9,0.4 -0.5,0.9 -1.5,7 -0.3,0.6 -0.6,0.7 -0.8,0.5 -1,0 -0.4,-0.6 z m 10.8,-12.3 1.5,0 0.6,-0.2 0.1,-0.8 -0.4,-1.6 -0.1,-0.8 -0.2,-0.8 -0.1,-0.6 -0.3,-0.7 -0.1,-0.9 -0.2,-0.7 -0.3,-0.7 -0.2,-1.5 -0.3,-1.3 -0.1,-1.1 -0.5,-2.1 -0.2,-1.6 -0.4,-1.5 -0.1,-0.1 -0.3,1.5 -0.5,3.3 -0.2,0.5 -0.5,2.4 0,0.7 -0.2,0.8 -0.2,0.7 -0.4,1.4 0,0.9 -0.2,0.7 -0.8,1.5 0,0.9 -0.1,0.6 0.1,0.9 0.7,0.3 0.8,0 0.7,0 1.5,0.1 0.9,-0.2 z" />
	</g>
	<g
   id="g90">
		<path
   style="fill:#cde4e5;fill-opacity:1"
   id="path92"
   d="m 742.4,464.3 -0.6,-2.6 2.9,-12.2 1,-2.2 0.3,-2.6 0.8,-2.2 3.2,-15.5 2.2,-7.2 0.5,-2.4 2.4,-10.6 0.3,-2.2 1.6,-4.8 0.3,-2.2 3.4,-12.8 0.2,-2.2 1.1,-2.6 0.8,-5.1 1.4,-5.1 0.8,-1.9 0.5,-2.6 0.3,-2.6 1.6,-5.1 1.6,-2.4 2.9,-1.4 2.6,-0.3 2.4,0.5 2.6,1.1 1.8,2.2 1,2.7 0.5,2.9 2.1,7.4 0.8,5 2.9,9.3 1.4,7.8 1,2.2 0.3,2.9 2.7,9.6 0.3,2.6 2.6,10.1 0.5,2.9 0.8,2.1 0.2,2.6 2.4,7.5 0.6,4.8 1,3 0.2,1.9 2.9,9.9 1.6,7.8 -0.8,2.6 -2.1,1 -2.9,0 -3,-1.6 -2.1,-2.1 -1.2,-5.2 -0.6,-2.6 -1,-2.2 -1,-5.6 -0.8,-2.6 -0.5,-2.7 -1.3,-4.6 -1.9,-2.9 -2.6,-1.3 -7.3,0 -3.8,-0.5 -3.4,0 -2.4,0.3 -5.4,0 -2.9,1.3 -1.6,2.9 -5.1,23.4 -1,2.1 -1.9,2.4 -2.6,1.8 -3.2,0 -2.3,-1.9 z m 36,-40.9 5,0 2.1,-0.8 0.5,-2.6 -1.3,-5.3 -0.3,-2.7 -0.6,-2.6 -0.3,-1.9 -1,-2.2 -0.3,-2.9 -0.6,-2.4 -1.1,-2.2 -0.6,-5.1 -1.1,-4.3 -0.5,-3.7 -1.6,-7 -0.6,-5.3 -1.4,-5.1 -0.5,-0.5 -1.1,5.1 -1.6,11 -0.8,1.8 -1.6,8.2 -0.2,2.4 -0.8,2.6 -0.6,2.2 -1.4,4.6 -0.2,3 -0.6,2.4 -1.6,4.5 -0.2,3 -0.5,2.1 0.3,2.9 2.2,1 2.7,0 2.4,-0.2 5.1,0.3 2.7,-0.3 z" />
		<path
   style="fill:#cde4e5;fill-opacity:1"
   id="path94"
   d="m 823.5,465.8 -2.6,-0.8 -1.6,-2.9 0.3,-15 -0.3,-2.4 0.2,-2.6 -0.2,-2.9 0.3,-2.4 -0.3,-2.6 0.5,-2.6 -0.5,-2.6 -0.2,-2.7 0.3,-3.7 -0.2,-9.9 0.2,-4.2 -0.2,-2.4 0.5,-6.6 -0.2,-3.7 -0.3,-2.4 0.5,-2.9 -0.5,-2.7 0.2,-2.6 -0.2,-2.4 0.2,-9.6 -0.3,-3 0.2,-2.7 -0.2,-2.1 0.5,-2.6 -0.2,-4.8 1.4,-3 2.6,-1.6 2.6,0.5 2.4,0 2.7,-0.3 5.1,0 3,0.5 4,-0.5 3.7,0.5 2.9,-0.2 2.4,0.8 2.6,0.3 2.4,1 2.6,1.4 2.4,1 1.6,1.4 3.7,4.2 1.4,2.1 1,2.4 2.1,4.6 0.6,2.9 1.3,11.8 -0.2,3.8 -0.8,2.7 0,2.6 -0.5,2.4 -2.4,7 -1.1,2.1 -3,4.2 -1.8,1.9 -2.1,1.6 -2.1,2.1 -4.3,2.4 -7.2,2.1 -15.2,1 -2.1,1.1 -1.3,2.6 0.3,2.4 0,17.9 -0.3,2.2 0.2,11 -1.3,3.7 -2.6,1.4 -2.6,-0.2 z m 18.1,-50.8 5.1,-1 2.6,-1.1 2.4,-0.6 2.4,-1.3 3.8,-4 1.1,-2.4 1.4,-1.9 1.6,-5.4 0.2,-2.7 0.5,-2.6 -0.2,-7.7 -0.5,-4.8 -0.5,-2.1 -1.1,-3.5 -1.8,-3.8 -1.6,-2.4 -3.7,-3 -2.2,-0.5 -2.9,-1 -6.1,-0.5 -3.7,0.3 -2.4,-0.2 -2.6,-0.5 -2.4,1.6 -1,2.9 0,2.2 -0.3,12.2 0.2,3.7 -0.2,2.6 0.2,2.6 -0.2,2.4 0.3,5.1 -0.3,3 0.5,4.2 -0.6,5.9 1.3,2.7 2.7,1.4 4.2,0.3 3.8,-0.1 z" />
		<path
   style="fill:#cde4e5;fill-opacity:1"
   id="path96"
   d="m 893.7,465.8 -2.6,-0.8 -1.6,-2.9 0.3,-15 -0.3,-2.4 0.2,-2.6 -0.2,-2.9 0.3,-2.4 -0.3,-2.6 0.5,-2.6 -0.5,-2.6 -0.2,-2.7 0.3,-3.7 -0.2,-9.9 0.2,-4.2 -0.2,-2.4 0.5,-6.6 -0.2,-3.7 -0.3,-2.4 0.5,-2.9 -0.5,-2.7 0.2,-2.6 -0.2,-2.4 0.2,-9.6 -0.3,-3 0.2,-2.7 -0.2,-2.1 0.5,-2.6 -0.2,-4.8 1.4,-3 2.6,-1.6 2.6,0.5 2.4,0 2.7,-0.3 5.1,0 3,0.5 4,-0.5 3.7,0.5 2.9,-0.2 2.4,0.8 2.6,0.3 2.4,1 2.6,1.4 2.4,1 1.6,1.4 3.7,4.2 1.4,2.1 1,2.4 2.1,4.6 0.6,2.9 1.3,11.8 -0.2,3.8 -0.8,2.7 0,2.6 -0.5,2.4 -2.4,7 -1.1,2.1 -3,4.2 -1.8,1.9 -2.1,1.6 -2.1,2.1 -4.3,2.4 -7.2,2.1 -15.2,1 -2.1,1.1 -1.3,2.6 0.3,2.4 0,17.9 -0.3,2.2 0.2,11 -1.3,3.7 -2.6,1.4 -2.6,-0.2 z m 18.1,-50.8 5.1,-1 2.6,-1.1 2.4,-0.6 2.4,-1.3 3.8,-4 1.1,-2.4 1.4,-1.9 1.6,-5.4 0.2,-2.7 0.5,-2.6 -0.2,-7.7 -0.5,-4.8 -0.5,-2.1 -1.1,-3.5 -1.8,-3.8 -1.6,-2.4 -3.7,-3 -2.2,-0.5 -2.9,-1 -6.1,-0.5 -3.7,0.3 -2.4,-0.2 -2.6,-0.5 -2.4,1.6 -1,2.9 0,2.2 -0.3,12.2 0.2,3.7 -0.2,2.6 0.2,2.6 -0.2,2.4 0.3,5.1 -0.3,3 0.5,4.2 -0.6,5.9 1.3,2.7 2.7,1.4 4.2,0.3 3.8,-0.1 z" />
		<path
   style="fill:#cde4e5;fill-opacity:1"
   id="path98"
   d="m 975.8,465.8 -4.3,-2.1 -3.5,-2.9 -1.9,-2.1 -1.1,-1.9 -1.4,-1.9 -1.3,-2.2 -1.8,-4.8 -0.3,-2.7 -0.6,-2.6 -0.6,-1.9 -1.6,-8.3 0.3,-2.7 -0.8,-7.5 0.3,-3.2 -0.5,-2.4 0.2,-2.4 -0.3,-4.2 0.3,-4.2 -0.3,-2.2 0.5,-4.2 -0.2,-3.4 1,-8 0,-2.6 0.5,-2.1 0.3,-2.9 0.6,-2.6 1,-2.1 0.5,-2.6 1,-2.7 0.5,-1.9 1.1,-2.7 3,-4.3 1.4,-1.6 4,-3.8 2.1,-1.1 2.2,-0.8 2.6,-1.3 2.6,-0.2 2.4,-0.3 7.7,-0.2 5.4,1.1 4.8,1.9 2.6,0.6 2.2,1.6 1.4,2.7 -0.5,2.7 -1.4,2.1 -2.7,0.3 -2.4,-0.5 -2.2,-1.4 -2.6,-0.6 -2.4,-1 -2.4,-0.5 -3.8,-0.3 -4.2,0.8 -2.1,0.2 -1.9,1 -1.8,1.1 -1.9,1.8 -1.6,1.6 -0.8,2.6 -2.4,4.3 -0.5,2.2 -2.2,13.3 -0.6,24 0.3,2.6 -0.2,2.2 0.3,2.1 0.2,3 -0.3,2.6 0.5,2.2 0.6,7.7 0.8,5.1 1,2.4 0.5,2.9 0.8,1.9 1.3,2.9 1.3,1.9 1.9,1.6 2.2,1.6 2.1,1.1 2.2,0.8 4,-0.2 3.5,-0.5 4,-0.3 3.4,-0.8 4.5,-1.6 2.1,-1.6 2.9,0 2.4,1.9 0.2,3.4 -1.9,3.2 -10.6,4.5 -5.9,1 -3.8,-0.5 -4,0.5 -7.9,-1.6 z" />
		<path
   style="fill:#cde4e5;fill-opacity:1"
   id="path100"
   d="m 1040.4,465.8 -4.3,-2.1 -3.5,-2.9 -1.9,-2.1 -1.1,-1.9 -1.4,-1.9 -1.3,-2.2 -1.8,-4.8 -0.3,-2.7 -0.6,-2.6 -0.6,-1.9 -1.6,-8.3 0.3,-2.7 -0.8,-7.5 0.3,-3.2 -0.5,-2.4 0.2,-2.4 -0.3,-4.2 0.3,-4.2 -0.3,-2.2 0.5,-4.2 -0.2,-3.4 1,-8 0,-2.6 0.5,-2.1 0.3,-2.9 0.6,-2.6 1,-2.1 0.5,-2.6 1,-2.7 0.5,-1.9 1.1,-2.7 3,-4.3 1.4,-1.6 4,-3.8 2.1,-1.1 2.2,-0.8 2.6,-1.3 2.6,-0.2 2.4,-0.3 7.7,-0.2 5.4,1.1 4.8,1.9 2.6,0.6 2.2,1.6 1.4,2.7 -0.5,2.7 -1.4,2.1 -2.7,0.3 -2.4,-0.5 -2.2,-1.4 -2.6,-0.6 -2.4,-1 -2.4,-0.5 -3.8,-0.3 -4.2,0.8 -2.1,0.2 -1.9,1 -1.8,1.1 -1.9,1.8 -1.6,1.6 -0.8,2.6 -2.4,4.3 -0.5,2.2 -2.2,13.3 -0.6,24 0.3,2.6 -0.2,2.2 0.3,2.1 0.2,3 -0.3,2.6 0.5,2.2 0.6,7.7 0.8,5.1 1,2.4 0.5,2.9 0.8,1.9 1.3,2.9 1.3,1.9 1.9,1.6 2.2,1.6 2.1,1.1 2.2,0.8 4,-0.2 3.5,-0.5 4,-0.3 3.4,-0.8 4.5,-1.6 2.1,-1.6 2.9,0 2.4,1.9 0.2,3.4 -1.9,3.2 -10.6,4.5 -5.9,1 -3.8,-0.5 -4,0.5 -7.9,-1.6 z" />
	</g>
	<rect
   style="fill:#cde4e5;fill-opacity:1"
   id="rect102"
   height="26.9"
   width="431.5"
   y="494.89999"
   x="693.5" />
</g>
</svg>