<?xml version="1.0" encoding="UTF-8" standalone="no"?>
<svg viewBox="0 0 128 128" xmlns="http://www.w3.org/2000/svg">
<path d="m106.87972,5.25439-33.27054,22.88146 47.35634,4.49343c-.57836-2.41083-1.32036-4.79591-2.16705-7.13851l-15.10558,2.35826-.19121-1.11539 14.34074-3.88794c-.64271-1.56447-1.40092-3.0778-2.16704-4.58904l-29.22326,7.07477-.47802-.6055 28.42654-8.98687c-.67534-1.19447-1.44278-2.32566-2.19891-3.47365l-14.50009,4.71651-.76484-.98792 13.76712-5.99125c-1.19118-1.6391-2.45807-3.23644-3.8242-4.74838zm-65.93557,17.01769c-4.13127-.01444-8.39045.75005-12.65173,2.29452l-18.29242,18.38803c20.39636,5.88913 41.12591,4.84987 60.13554,0l-17.33637-18.32429c-3.74125-1.57332-7.72375-2.34382-11.85502-2.35826zm29.35073,5.67256-11.31326,1.08352 9.08247,9.97479 5.06706-7.42532-2.83628-3.63299zm-60.29488,18.03747v69.28175c14.78705,7.88006 51.62192,7.39162 60.13554,0v-7.61654c-7.87253,2.19398-26.07705,4.77454-40.53651.73298l-.54176-49.01349v-1.46594c16.46732,2.27894 27.73108,2.67574 41.07828-.0956v-11.12205c-19.00963,4.15705-39.73917,4.49519-60.13554-.7011zm20.71441,14.21327v46.55963c16.26508,4.15703 26.62284,1.66008 39.42112-.76484v-5.60882c-2.38703-.89515-4.12537-1.53944-6.69235-2.48573-3.17262,1.22861-8.5597,3.31422-9.08247,3.50551 .05229.22851.21661.41898.19121.66924-.11215,1.10567-1.05604,1.94798-2.03957,1.84836s-1.6737-1.09327-1.56155-2.19891c.02213-.21818.17751-.31905.25495-.5099-.841-.23281-1.44018-1.03689-1.33847-2.03957 .11215-1.10564.96043-1.91612 1.94397-1.81649 .67447.06834 1.16277.5586 1.40221,1.211 .16083-.05217 4.39226-1.66052 5.95938-2.23078-1.56712-.57023-5.79855-2.14674-5.95938-2.19891-.23944.65241-.72774,1.14267-1.40221,1.211-.98353.09962-1.83182-.71086-1.94397-1.81649-.10171-1.00269.49747-1.80675 1.33847-2.03957-.07743-.19084-.23281-.29172-.25495-.50989-.11215-1.10564.57801-2.06742 1.56155-2.16705s1.92742.71083 2.03957,1.81649c.02539.25027-.13892.40886-.19121.63737 .52278.19129 5.90986,2.30877 9.08247,3.53738 2.56698-.94629 4.30531-1.59059 6.69235-2.48573v-8.85939c-.27187.2829-1.01979.90011-1.01979,1.01979 0,4.93915-2.58715,8.92313-5.80004,8.92313s-5.8319-3.98399-5.8319-8.92313c0-.6663-7.61653-5.22153-7.61653-7.93521 0-3.64263 5.83509-6.59674 13.00228-6.59674 2.76307,0 5.16291.52637 7.26598,1.27473v-11.02644c-12.79828,2.07851-25.92948,3.11777-39.42112,0zm27.78918,15.96603c-1.20483,0-2.23078.82503-2.23078,1.8165s1.02596,1.78463 2.23078,1.78463 2.16705-.79316 2.16705-1.78463-.96221-1.8165-2.16705-1.8165zm8.92313,0c-1.20482,0-2.16705.82503-2.16705,1.8165s.96222,1.78463 2.16705,1.78463 2.19893-.79316 2.19891-1.78463-.99411-1.8165-2.19891-1.8165zm2.70881,19.15287c-.70642.27286-1.4947.5747-2.64507,1.01979 1.15038.44512 1.93865.77879 2.64507,1.05165v-2.07144z"/>
</svg>
