<?xml version="1.0" encoding="UTF-8" standalone="no"?>
<svg
   xmlns:ns="&amp;ns_sfw;"
   xmlns:dc="http://purl.org/dc/elements/1.1/"
   xmlns:cc="http://creativecommons.org/ns#"
   xmlns:rdf="http://www.w3.org/1999/02/22-rdf-syntax-ns#"
   xmlns:svg="http://www.w3.org/2000/svg"
   xmlns="http://www.w3.org/2000/svg"
   id="svg2"
   xml:space="preserve"
   enable-background="new 0 0 1920 1080"
   viewBox="0 0 960.20001 511.30002"
   height="511.30002"
   width="960.20001"
   y="0px"
   x="0px"
   version="1.1"><defs
   id="defs240" />
<metadata
   id="metadata4">
	<ns:sfw>
		<ns:slices />
		<ns:sliceSourceBounds
   bottomLeftOrigin="true"
   x="-5344.5"
   y="-6982.3"
   height="10106.4"
   width="12464.3" />
	</ns:sfw>
<rdf:RDF><cc:Work
     rdf:about=""><dc:format>image/svg+xml</dc:format><dc:type
       rdf:resource="http://purl.org/dc/dcmitype/StillImage" /><dc:title></dc:title></cc:Work></rdf:RDF></metadata>
<g
   transform="translate(-455.39999,-279.9)"
   id="Capa_2">
</g>
<g
   transform="translate(-455.39999,-279.9)"
   id="Capa_1">
	<g
   id="g8">
		<path
   id="path10"
   d="m 679.5,332.4 -1.1,0 -1.1,0.1 -1,0 -0.9,-0.5 -0.4,-1 -0.1,-1.1 0.1,-11.2 0.1,-0.7 -0.1,-1.1 0.1,-4 -0.1,-4.9 0.1,-2.1 -0.1,-1.2 0.1,-1 -0.2,-1.5 0.1,-6.2 0.1,-0.9 -0.2,-3.1 0,-0.9 -0.1,-1 0.4,-1 0.8,-0.4 1.1,0.1 1,0.4 0.7,0.8 0.1,0.7 -0.1,1.1 0.1,0.9 0.1,2.1 -0.1,1 0.1,1 0,1.4 0.1,1.6 -0.1,0.7 0,2.7 -0.1,1.5 0.1,3.9 -0.1,0.9 0.2,5 -0.2,1.9 0.2,2.1 -0.1,2.5 0.1,1.4 -0.2,3.5 0.1,1.6 0.6,0.9 0.9,0.6 2.1,-0.2 0.9,0.1 6.9,0 1,0.4 0.6,1 0,0.9 -0.6,0.7 -1.1,0.4 -4.9,0.2 -1.9,-0.2 -1.1,0.1 -1,0.2 -1.9,-0.2 z" />
		<path
   id="path12"
   d="m 699.6,332.4 -1.1,-0.3 -0.7,-0.9 -0.2,-1.7 -0.1,-1 0.1,-0.9 -0.1,-0.9 0.1,-1.2 -0.1,-0.8 0.1,-1.6 -0.1,-1.4 0.2,-1 -0.2,-7 0.1,-0.9 -0.1,-2.1 0.1,-0.9 -0.1,-1.1 0.1,-4.4 -0.1,-1.6 0.1,-0.8 -0.1,-4.8 -0.1,-1.1 0,-1 0.2,-1.1 -0.1,-0.9 -0.1,-0.9 0,-1.1 -0.1,-0.8 0.4,-1 1,-0.6 0.9,0.1 1.1,0.4 0.7,0.8 0,0.9 0.2,2.9 -0.1,1.1 0.1,1.1 0,2.2 -0.2,2.1 0.2,6.2 -0.1,1.1 0.2,10 -0.2,2 0.1,0.9 0.2,1.1 -0.2,1.4 0.1,1.3 -0.1,1.1 0.2,3.8 -0.1,1 0.1,0.8 -0.4,1.1 -1,0.4 -0.8,0 z" />
		<path
   id="path14"
   d="m 710.7,332 -0.5,-1.1 0.1,-7 -0.2,-0.9 0.1,-3 -0.1,-1 0.1,-4 -0.1,-1.1 0.1,-0.9 -0.1,-0.9 0.2,-8.1 -0.1,-1 0.1,-1.1 -0.1,-2.9 0.1,-1 -0.1,-1 0.1,-1.1 -0.1,-1.8 0.1,-1.1 -0.1,-2.4 0.5,-1.6 1.1,-0.6 1,0.1 1.1,-0.1 1,0.1 1.2,0.4 0.8,0.9 3.2,11.5 0.4,1.9 0.4,1.1 0.2,0.9 0.7,1.8 0.1,1 0.4,1.1 2.3,9.7 0.2,1.7 0.4,1.6 0.5,0.4 2.4,-10.8 0.7,-1.9 0.1,-0.7 0.4,-0.9 0.2,-1 0.1,-1.1 1.3,-4.6 0.4,-0.9 1.4,-5.9 0.7,-1.9 0.2,-1.1 0.2,-0.9 0.3,-0.9 0.6,-0.9 1.7,-0.7 1.6,0.1 0.9,0.2 1,0.4 0.7,0.9 -0.2,7.2 0.2,1.1 -0.1,1.9 0.1,1.1 -0.1,5.9 0.1,1.1 -0.1,1 0.2,1.9 -0.2,3.1 0.2,4.9 -0.2,1.2 0.1,1.1 -0.2,4.7 0.1,1 0,1 0.1,0.8 -0.1,0.8 0.2,1.1 -0.4,0.9 -0.8,0.5 -1,0.1 -1.1,-0.6 -0.7,-0.7 0,-0.7 -0.1,-1 -0.2,-1 0.1,-1.1 -0.1,-0.9 0.2,-3.5 -0.2,-1.6 0.1,-1.1 0,-1.1 -0.1,-1 0.2,-0.9 -0.2,-1.1 0,-1.1 0.1,-2.1 -0.2,-4 0.2,-4.2 -0.1,-2.9 0.1,-0.9 -0.1,-1.2 0.1,-0.9 -0.1,-1.2 0.1,-3.9 -0.2,0 -0.4,0.9 -0.1,0.9 -0.1,1.2 -0.3,0.8 -0.2,1.1 -3.6,13.4 -0.4,1 -0.1,1 -0.4,0.8 -0.2,0.9 -1.9,6.9 -0.4,0.9 -0.2,1.1 -0.3,0.7 -0.9,1.1 -0.8,0.7 -1,0 -1.2,-0.4 -0.8,-0.9 -0.6,-1.9 -0.1,-1 -0.2,-1.1 -0.4,-0.9 -0.5,-1.9 -0.4,-0.8 -0.2,-1.4 -0.5,-1.5 -0.2,-1 -0.6,-1.9 -0.3,-0.8 -0.2,-1.1 -0.4,-0.8 -0.4,-2 -1.1,-2.9 -2.5,-10.8 -0.3,0.1 -0.1,2 0.1,1.9 -0.1,1.1 0.1,1 0,0.9 0.1,4.2 -0.1,0.9 0.1,2.1 -0.1,1.1 0.1,1 -0.1,0.7 0.1,3.1 -0.1,0.9 0.1,1 -0.1,15 -0.4,1.1 -1.1,0.6 -0.9,0.1 -1,-0.7 z" />
		<path
   id="path16"
   d="m 750.9,332.4 -1,-0.3 -0.6,-1.1 0.1,-5.9 -0.1,-0.9 0.1,-1 -0.1,-1.1 0.1,-0.9 -0.1,-1 0.2,-1 -0.2,-1 -0.1,-1.1 0.1,-1.4 -0.1,-3.9 0.1,-1.6 -0.1,-0.9 0.2,-2.6 -0.1,-1.4 -0.1,-0.9 0.2,-1.1 -0.2,-1.1 0.1,-1 -0.1,-0.9 0.1,-3.7 -0.1,-1.2 0.1,-1.1 -0.1,-0.8 0.2,-1 -0.1,-1.9 0.6,-1.2 1,-0.6 1,0.2 0.9,0 1.1,-0.1 2,0 1.2,0.2 1.6,-0.2 1.4,0.2 1.1,-0.1 0.9,0.3 1,0.1 0.9,0.4 1,0.6 0.9,0.4 0.6,0.6 1.4,1.6 0.6,0.8 0.4,0.9 0.8,1.8 0.2,1.1 0.5,4.6 -0.1,1.5 -0.3,1.1 0,1 -0.2,0.9 -0.9,2.7 -0.4,0.8 -1.2,1.6 -0.7,0.7 -0.8,0.6 -0.8,0.8 -1.7,0.9 -2.8,0.8 -5.9,0.4 -0.8,0.4 -0.5,1 0.1,0.9 0,7 -0.1,0.9 0.1,4.3 -0.5,1.4 -1,0.6 -1,-0.1 z m 7,-19.8 2,-0.4 1,-0.4 0.9,-0.2 0.9,-0.5 1.5,-1.6 0.4,-0.9 0.6,-0.7 0.6,-2.1 0.1,-1.1 0.2,-1 -0.1,-3 -0.2,-1.9 -0.2,-0.8 -0.4,-1.4 -0.7,-1.5 -0.6,-0.9 -1.4,-1.2 -0.9,-0.2 -1.1,-0.4 -2.4,-0.2 -1.4,0.1 -0.9,-0.1 -1,-0.2 -0.9,0.6 -0.4,1.1 0,0.9 -0.1,4.7 0.1,1.4 -0.1,1 0.1,1 -0.1,0.9 0.1,2 -0.1,1.2 0.2,1.6 -0.2,2.3 0.5,1.1 1.1,0.6 1.6,0.1 1.3,0.1 z" />
		<path
   id="path18"
   d="m 779.1,332.4 -1.1,-0.3 -0.7,-0.9 -0.2,-1.7 -0.1,-1 0.1,-0.9 -0.1,-0.9 0.1,-1.2 -0.1,-0.8 0.1,-1.6 -0.1,-1.4 0.2,-1 -0.2,-7 0.1,-0.9 -0.1,-2.1 0.1,-0.9 -0.1,-1.1 0.1,-4.4 -0.1,-1.6 0.1,-0.8 -0.1,-4.8 -0.1,-1.1 0,-1 0.2,-1.1 -0.1,-0.9 -0.1,-0.9 0,-1.1 -0.1,-0.8 0.4,-1 1,-0.6 0.9,0.1 1.1,0.4 0.7,0.8 0,0.9 0.2,2.9 -0.1,1.1 0.1,1.1 0,2.2 -0.2,2.1 0.2,6.2 -0.1,1.1 0.2,10 -0.2,2 0.1,0.9 0.2,1.1 -0.2,1.4 0.1,1.3 -0.1,1.1 0.2,3.8 -0.1,1 0.1,0.8 -0.3,1.1 -1,0.4 -0.9,0 z" />
		<path
   id="path20"
   d="m 805.3,332.4 -1.9,0 -1,-0.1 -1,0.2 -0.9,-0.1 -2,0.1 -1,-0.2 -0.9,0.1 -0.9,-0.1 -2,0.2 -1.9,-0.1 -1,-0.5 -0.6,-1 0.1,-7.1 -0.2,-3.1 0.1,-1.1 0.1,-0.9 -0.1,-1.1 0.1,-0.8 0.1,-1 -0.2,-1.1 -0.1,-1.1 0.1,-1.7 0.1,-1 -0.1,-1.1 0.2,-1.1 -0.1,-1.1 0.1,-2.8 -0.1,-1.2 0,-0.9 -0.1,-1.9 0.1,-1.1 -0.1,-1.4 0.2,-2.5 -0.2,-0.8 0,-1 0.1,-0.7 -0.1,-1.1 -0.2,-1.2 -0.1,-0.8 0.4,-1.1 0.9,-0.4 1.1,0.2 0.9,-0.2 1,0.2 3,-0.2 5.1,0.2 3,-0.1 1,0.1 0.9,0.5 0.6,0.7 0.1,0.9 -0.6,0.9 -1.6,0.6 -1.4,-0.1 -1,-0.1 -1.1,0.1 -0.9,0.1 -1.3,-0.5 -2.1,0.1 -2,0.2 -1.1,0.6 -0.6,1.4 -0.1,3.6 0.1,2.1 -0.1,0.9 0.1,3 -0.1,1.1 0.1,0.9 -0.1,1 0.4,1.2 1.1,0.4 0.9,0.1 1,-0.1 1.6,0.1 1.9,-0.1 1.6,0.1 1.8,0.1 1,-0.1 1.1,0.5 0.4,1.1 -0.5,1.2 -0.9,0.6 -1.9,0.2 -0.9,-0.2 -2.1,0.1 -0.9,-0.1 -1.1,0.1 -1.9,0.1 -1.1,-0.1 -0.9,0.7 -0.5,0.9 0.1,0.9 -0.1,1.1 0.1,1.1 0,1.1 -0.1,0.8 0.1,1.1 -0.2,6.4 0.1,1.1 0.5,1.4 1.1,0.5 2,-0.1 1.1,0.2 1.1,-0.1 2.1,0 1.1,0.2 0.9,-0.1 1,0.1 1,-0.1 1.1,0.4 0.6,0.9 -0.1,0.9 -0.4,0.9 -1,0.5 -1,-0.5 z" />
		<path
   id="path22"
   d="m 813.9,332 -0.6,-0.9 0.1,-0.8 0.3,-1.3 0.2,-1.5 0.7,-1.7 0.5,-0.9 0.3,-1 0.4,-1 0.3,-0.9 0.2,-0.9 0.5,-0.8 0.2,-1.1 0.9,-1.6 0.4,-1.1 0.4,-0.7 0.3,-1.1 0.9,-1.7 0.2,-1 0.4,-1.1 0.4,-0.7 1,-2.8 0.5,-0.9 0.3,-1 0.4,-0.8 0.2,-0.9 0.4,-0.8 0.6,-1.1 0.3,-1.1 0.3,-0.7 0.5,-0.9 0.7,-2 0.9,-1.7 0.2,-0.9 0.4,-1 -0.1,-1.1 -0.9,-0.2 -0.9,0 -1.1,-0.1 -1.1,0 -0.9,0.1 -1.1,-0.1 -1.1,0.1 -2.1,0.1 -1.9,-0.2 -1.1,0 -0.9,-0.3 -0.6,-1.4 0.6,-1.5 0.9,-0.4 1.1,0.2 5.3,-0.2 1.4,0.2 2.9,-0.1 1,-0.2 1,0.1 1,0.1 0.9,-0.1 1.1,0.1 1.1,0.4 0.5,0.8 0.1,0.9 -0.6,2.8 -0.8,1.7 -0.7,1.9 -0.4,0.9 -0.7,2 -1.2,2.7 -0.2,0.9 -0.4,0.7 -1.2,2.7 -0.6,2.1 -0.5,0.7 -0.2,1.1 -0.5,0.9 -0.2,1 -0.4,0.7 -0.8,1.9 -0.4,0.9 -0.2,1.1 -0.3,0.8 -0.5,0.8 -1.8,4.8 -0.4,0.7 -1.1,2.8 0.1,0.7 0.7,0.6 1.1,0.2 1.1,-0.2 1.4,0.1 1.4,-0.1 1.1,0.2 0.9,0 1.9,-0.2 1,0.2 0.9,-0.2 1.1,0.1 1.8,0.4 0.5,1.1 0,0.7 -0.6,1 -0.9,0.4 -2.6,0 -1.5,-0.1 -0.9,0.1 -1.1,0.1 -1,-0.1 -1.1,0.1 -2.3,-0.2 -1.1,0.1 -0.9,-0.1 -0.9,0.1 -1.6,-0.1 -0.9,0.1 -0.9,0.2 -1.4,-0.6 z" />
		<path
   id="path24"
   d="m 836.4,331.8 -0.2,-1 1.1,-4.7 0.4,-0.9 0.1,-1 0.3,-0.9 1.2,-6.1 0.9,-2.8 0.2,-0.9 0.9,-4.1 0.1,-0.9 0.6,-1.9 0.1,-0.9 1.3,-5 0.1,-0.9 0.4,-1 0.3,-2 0.6,-2 0.3,-0.7 0.2,-1 0.1,-1 0.6,-2 0.6,-0.9 1.1,-0.6 1,-0.1 0.9,0.2 1,0.4 0.7,0.9 0.4,1.1 0.2,1.1 0.8,2.9 0.3,1.9 1.1,3.6 0.6,3.1 0.4,0.9 0.1,1.1 1.1,3.7 0.1,1 1,3.9 0.2,1.1 0.3,0.8 0.1,1 0.9,2.9 0.2,1.9 0.4,1.2 0.1,0.7 1.1,3.9 0.6,3.1 -0.3,1 -0.8,0.4 -1.1,0 -1.2,-0.6 -0.8,-0.8 -0.3,-2 -0.2,-1 -0.4,-0.9 -0.4,-2.2 -0.3,-1 -0.2,-1.1 -0.5,-1.8 -0.7,-1.1 -1,-0.5 -2.9,0 -1.5,-0.2 -1.3,0 -0.9,0.1 -2.1,0 -1.1,0.5 -0.6,1.1 -2,9.1 -0.4,0.8 -0.7,0.9 -1,0.7 -1.2,0 -1,-0.5 z m 14,-16 1.9,0 0.8,-0.3 0.2,-1 -0.5,-2.1 -0.1,-1.1 -0.2,-1 -0.1,-0.7 -0.4,-0.9 -0.1,-1.1 -0.2,-0.9 -0.4,-0.9 -0.2,-2 -0.4,-1.7 -0.2,-1.4 -0.6,-2.7 -0.2,-2.1 -0.6,-2 -0.2,-0.2 -0.4,2 -0.6,4.3 -0.3,0.7 -0.6,3.2 -0.1,0.9 -0.3,1 -0.2,0.9 -0.6,1.8 -0.1,1.2 -0.2,0.9 -0.6,1.7 -0.1,1.2 -0.2,0.8 0.1,1.1 0.9,0.4 1.1,0 0.9,-0.1 2,0.1 0.8,0 z" />
		<path
   id="path26"
   d="m 883,332.2 -1,-0.4 -0.5,-0.9 -0.1,-3.9 0.1,-2.1 -0.1,-1.1 0.1,-1.4 -0.1,-1.4 0.1,-3.1 -0.2,-4.4 -0.7,-2.4 -0.4,-0.9 -0.5,-0.9 -0.5,-1.2 -0.7,-2.4 -0.4,-1 -0.9,-1.9 -0.2,-0.9 -0.4,-0.9 -0.6,-2 -0.4,-0.8 -0.3,-0.8 -0.9,-1.7 -0.9,-2.9 -0.8,-1.7 -0.3,-0.9 0.2,-0.9 0.9,-0.6 1.2,0.1 1.2,0.2 0.8,1.1 0.7,1.9 0.4,0.7 0.2,1.5 2.7,6.7 0.7,2.4 1,2.6 0.2,0.9 0.4,0.9 0.3,0.2 0.6,-1.8 0.4,-0.7 1.3,-3.7 0.5,-2.2 0.5,-1 0.6,-1.9 0.8,-2 0.2,-0.8 0.5,-1 0.6,-1.9 0.4,-0.9 0.8,-0.9 1.2,-0.7 1.2,0 0.8,0.7 0.2,0.9 -1.6,4.7 -0.4,0.8 -0.2,0.9 -1.5,3.6 -0.8,2.8 -0.5,0.9 -0.4,1.1 -0.2,0.9 -0.7,1.7 -0.6,2 -0.4,0.7 -0.7,2 -0.3,1.4 -0.2,7.4 0.1,1.7 -0.1,1.1 0,0.9 -0.1,2.1 0.2,1 0,0.9 -0.1,1.1 0,0.9 -0.5,1 -1.1,0.4 -0.8,0.2 z" />
		<path
   id="path28"
   d="m 908.9,332 -0.5,-1.1 -0.1,-0.9 0.1,-0.8 -0.1,-1.2 0.1,-0.9 0,-2.1 -0.2,-0.9 0,-3.1 0.2,-1.1 -0.1,-0.7 0.1,-1.1 -0.1,-1.1 0.1,-0.9 -0.1,-1.4 0.1,-1.5 -0.1,-0.9 0.1,-1.5 -0.1,-1.6 0,-1.4 -0.1,-1.7 0.1,-0.8 -0.1,-0.9 0.2,-1 -0.1,-1.2 0.1,-0.9 -0.2,-1.1 0.2,-4.8 -0.2,-2.1 0.2,-2.9 0.4,-0.9 0.9,-0.7 4.1,0.1 1.1,-0.2 1.4,0.2 2.6,0.1 0.9,0.1 1,0.1 1.9,0.6 1.7,0.8 2.1,2.2 0.4,0.7 0.4,0.8 0.4,0.7 1,2.9 0.2,1.1 0.2,0.9 0.3,0.9 0.1,1.1 0,1.1 0.2,1.2 -0.1,0.9 0.2,1 0,6.1 -0.1,1.1 0,2 -0.1,3.1 -0.2,0.9 -0.3,1.2 -0.2,1.7 -0.3,1.2 -0.2,1 -1.1,2.8 -0.6,0.7 -0.6,0.8 -0.7,0.7 -0.7,0.7 -0.7,0.4 -0.9,0.7 -0.8,0.4 -1.3,0.4 -1.5,0.3 -0.9,0.1 -1,-0.1 -3.9,0.2 -0.9,-0.1 -2.3,0.1 -1.6,-0.5 z m 9.5,-3.2 1,-0.3 1.7,-0.9 0.8,-0.2 0.7,-0.6 0.6,-0.9 0.6,-0.7 0.7,-1.7 0.6,-1.9 0.4,-2.1 0,-2.2 0.1,-0.8 0.2,-7.4 -0.4,-5.9 -0.1,-1.1 -0.1,-1 -0.3,-0.9 -0.1,-0.9 -0.5,-2 -0.8,-1.6 -0.7,-0.9 -0.8,-0.5 -0.6,-0.7 -0.9,-0.6 -0.8,-0.3 -1.1,-0.1 -0.8,-0.4 -2.9,-0.1 -1,0.2 -1.1,0.6 -0.4,0.8 0.1,0.9 -0.1,1.2 0,0.9 0.2,0.9 -0.2,1.2 0.1,2 0.1,0.7 -0.1,6.7 -0.1,1 0.1,1.4 0.1,0.8 0.1,5 -0.2,1 0.1,1.1 -0.1,3.2 0.2,0.8 0,1 -0.1,0.9 0,2.6 0.6,1.2 0.8,0.4 2.2,0.1 1.5,0.1 0.7,0 z" />
		<path
   id="path30"
   d="m 952.3,332.4 -1.9,0 -1,-0.1 -1,0.2 -0.9,-0.1 -2,0.1 -1,-0.2 -0.9,0.1 -0.9,-0.1 -2,0.2 -1.9,-0.1 -1,-0.5 -0.6,-1 0.1,-7.1 -0.2,-3.1 0.1,-1.1 0.1,-0.9 -0.1,-1.1 0.1,-0.8 0.1,-1 -0.2,-1.1 -0.1,-1.1 0.1,-1.7 0.1,-1 -0.1,-1.1 0.2,-1.1 -0.1,-1.1 0.1,-2.8 -0.1,-1.2 0,-0.9 -0.1,-1.9 0.1,-1.1 -0.1,-1.4 0.2,-2.5 -0.2,-0.8 0,-1 0.1,-0.7 -0.1,-1.1 -0.1,-1.1 -0.1,-0.8 0.4,-1.1 0.9,-0.4 1.1,0.2 0.9,-0.2 1,0.2 3,-0.2 5.1,0.2 3,-0.1 1,0.1 0.9,0.5 0.6,0.7 0.1,0.9 -0.6,0.9 -1.6,0.6 -1.4,-0.1 -1,-0.1 -1.1,0.1 -0.9,0.1 -1.4,-0.6 -2.1,0.1 -2,0.2 -1.1,0.6 -0.6,1.4 -0.1,3.6 0.1,2.1 -0.1,0.9 0.1,3 -0.1,1.1 0.1,0.9 -0.1,1 0.4,1.2 1.1,0.4 0.9,0.1 1,-0.1 1.6,0.1 1.9,-0.1 1.6,0.1 1.8,0.1 1,-0.1 1.1,0.5 0.4,1.1 -0.5,1.2 -0.9,0.6 -1.9,0.2 -0.9,-0.2 -2.1,0.1 -0.9,-0.1 -1.1,0.1 -1.9,0.1 -1.1,-0.1 -0.9,0.7 -0.5,0.9 0.1,0.9 -0.1,1.1 0.1,1.1 0,1.1 -0.1,0.8 0.1,1.1 -0.2,6.4 0.1,1.1 0.5,1.4 1.1,0.5 2,-0.1 1.1,0.2 1.1,-0.1 2.1,0 1.1,0.2 0.9,-0.1 1,0.1 1,-0.1 1.1,0.4 0.6,0.9 -0.1,0.9 -0.4,0.9 -1,0.5 -1,-0.5 z" />
		<path
   id="path32"
   d="m 968.9,332.9 -1,0.1 -1.1,-0.3 -0.9,-0.1 -1.1,-0.2 -1.1,-0.4 -1.7,-0.9 -0.9,-0.7 -0.5,-1 0.2,-1.2 1,-0.7 0.9,0.2 0.9,0.6 2.7,1.1 1.1,0.2 0.9,0.1 1.6,0.2 1.4,-0.2 1.9,-0.6 1.7,-1.1 0.7,-0.7 0.6,-0.7 0.4,-0.8 0.4,-1.1 0.2,-0.9 0.2,-0.9 0,-1.4 0.1,-1.5 -0.1,-1.2 -0.3,-0.7 -0.4,-1.1 -0.4,-0.7 -1.2,-1.5 -2.2,-2.1 -0.9,-0.5 -0.8,-0.6 -3.4,-1.9 -1.6,-1.2 -0.9,-0.4 -0.6,-0.9 -1.5,-1.4 -1.4,-2.2 -0.7,-2 -0.2,-1.9 -0.1,-1.4 0.2,-2.4 1.1,-2.9 0.5,-0.7 0.7,-0.5 0.8,-0.8 0.9,-0.4 0.6,-0.7 0.9,-0.4 1.5,-0.5 1.4,0 1.5,-0.1 1.6,-0.1 1.2,0.1 2,0.5 0.9,0.4 1.9,1.1 0.5,1 -0.2,1.2 -1.2,0.9 -1.3,-0.3 -0.7,-0.6 -1.1,-0.5 -1.1,0 -1,-0.3 -1.6,-0.1 -1.4,0.2 -1.7,0.7 -0.8,0.6 -0.6,0.6 -0.5,0.9 -0.6,0.7 -0.2,1.1 0.1,3.9 0.5,0.9 0.3,0.9 0.6,0.7 0.6,0.9 2.6,1.9 3.4,1.9 3.3,2.2 2.8,2.6 0.6,1 0.6,0.9 0.5,0.8 0.7,1.9 0,0.9 0.2,1.1 0.1,1.6 -0.1,1.5 -0.2,1.1 -0.2,0.9 -0.2,0.9 -0.2,0.5 -0.4,0.9 -0.3,0.8 -0.6,1 -0.8,0.6 -0.6,0.7 -0.7,0.7 -1.6,1.2 -0.9,0.3 -2,0.5 -2.6,0.2 -1.6,0 z" />
		<path
   id="path34"
   d="m 990.6,332.4 -1.1,-0.3 -0.7,-0.9 -0.2,-1.7 -0.1,-1 0.1,-0.9 -0.1,-0.9 0.1,-1.2 -0.1,-0.8 0.1,-1.6 -0.1,-1.4 0.2,-1 -0.2,-7 0.1,-0.9 -0.1,-2.1 0.1,-0.9 -0.1,-1.1 0.1,-4.4 -0.1,-1.6 0.1,-0.8 -0.1,-4.8 -0.1,-1.1 0,-1 0.2,-1.1 -0.1,-0.9 -0.1,-0.9 0,-1.1 -0.1,-0.8 0.4,-1 1,-0.6 0.9,0.1 1.1,0.4 0.7,0.8 0,0.9 0.2,2.9 -0.1,1.1 0.1,1.1 0,2.2 -0.2,2.1 0.2,6.2 -0.1,1.1 0.2,10 -0.2,2 0.1,0.9 0.2,1.1 -0.2,1.4 0.1,1.3 -0.1,1.1 0.2,3.8 -0.1,1 0.1,0.8 -0.4,1.1 -1,0.4 -0.8,0 z" />
		<path
   id="path36"
   d="m 1018.1,331.9 -0.9,-0.9 -0.4,-0.9 -1.2,-3.8 -0.2,-1.1 -0.4,-0.9 -0.2,-0.9 -1.1,-3 -0.2,-0.7 -1.4,-3.7 -0.5,-2.2 -0.4,-1 -0.2,-1 -0.4,-0.7 -0.6,-2.1 -0.4,-0.9 -0.1,-1 -0.4,-0.9 -2.4,-7.7 -0.1,-0.9 -0.8,-2.9 -0.4,-0.8 -0.2,-0.1 0.1,0.9 -0.1,1.1 0.1,1.1 -0.1,1 0.1,1 -0.1,0.8 0.1,1.1 -0.1,1.6 0.1,5.5 -0.2,0.9 0.2,4 -0.1,1.1 0.1,1.1 -0.1,0.9 -0.1,0.9 0.1,2.2 0.1,1.5 -0.2,1.4 0.1,1.2 -0.1,0.8 0,1 0.1,1.1 -0.2,1.1 0.1,3.9 -0.6,0.9 -1.5,0.4 -1.4,-0.5 -0.5,-0.8 -0.1,-5 0.1,-0.9 -0.1,-1.2 0.1,-4.1 -0.1,-2.5 0.1,-0.9 0,-1.4 0.1,-1 -0.2,-2.4 0.1,-2.6 -0.1,-1.1 0.1,-0.8 -0.1,-1.2 0.1,-0.9 -0.2,-0.9 0.2,-1.9 0,-1.2 -0.1,-0.8 0.1,-3.2 -0.1,-1 0.1,-4.7 -0.1,-1.1 0.5,-1.1 1.4,-0.5 1.6,0.1 1.1,-0.1 1,0.6 0.9,1 0.4,0.9 0.2,0.9 0.1,1.1 0.8,1.7 3.4,10.5 0.1,0.9 0.3,0.9 0.5,1 0.9,2.7 0.5,1.9 2.1,6 0.3,1.5 0.3,1 0.5,1.1 0.2,1 0.1,1 0.6,2.1 0.4,0.9 0.2,-0.1 0.1,-3.1 -0.3,-1.8 0.1,-1.1 0,-1.1 -0.2,-1.4 0.2,-1.4 -0.1,-1.4 0.1,-2.5 -0.1,-0.8 0.1,-12.9 -0.2,-1.6 0.1,-1.4 -0.1,-0.8 0.1,-0.9 -0.1,-1.1 0.1,-0.9 -0.2,-3 0.4,-0.9 0.8,-0.3 1.1,0.1 0.9,0.3 0.6,0.9 0.2,0.9 0.1,1.7 -0.1,1 0.1,1.1 -0.1,1 0.2,5.1 -0.1,0.7 0.1,2.3 -0.1,1 -0.1,0.9 0.1,5.2 -0.1,0.9 0.1,1.1 -0.1,4.2 0.1,1 -0.1,0.9 0.1,0.9 0,1 -0.1,1.1 0.1,4.1 -0.1,0.8 0,1.1 0.1,1.1 -0.1,0.9 0,0.9 -0.4,1.2 -0.9,0.4 -0.9,0 -1.1,-0.1 -0.9,0.1 -0.7,-0.7 z" />
		<path
   id="path38"
   d="m 1032.6,331.7 -0.5,-1 0.1,-14.8 -0.1,-1 0.2,-2 -0.1,-1.2 0.1,-0.7 -0.1,-1 0.1,-1 -0.1,-0.9 0.1,-1.1 -0.1,-1.1 0,-1.1 0.2,-1 -0.1,-0.9 0,-0.9 -0.1,-1.1 0.1,-0.8 0,-2.9 -0.2,-2.2 0.1,-0.9 0,-1.7 -0.2,-1.9 0.3,-1 0.9,-0.6 1.1,-0.1 4.8,0.2 1.4,-0.2 4.4,0.1 1.2,-0.1 1,0.1 0.9,-0.2 0.9,0.6 0.6,1.2 -0.6,1.2 -0.9,0.6 -1.6,0.1 -1.4,-0.2 -1,0.1 -1.2,0 -1,-0.1 -0.9,0.2 -1.1,-0.1 -2,0.1 -1.1,0.6 -0.4,0.9 0,0.9 -0.1,2 0.1,1.9 -0.1,1.2 0.1,0.8 -0.1,2.1 0.1,1 -0.1,1 -0.1,1.1 0.2,2 0.6,1 0.8,0.4 2.1,-0.2 3.9,0.2 0.9,-0.1 2.1,0.1 0.9,0.6 0.5,1 -0.6,1.3 -0.9,0.5 -1.1,0 -1.1,-0.1 -1,0.2 -0.8,-0.1 -1.2,0.1 -1.9,-0.2 -1.1,0 -1.8,0.6 -0.5,1.1 -0.1,0.9 0.1,1.1 -0.1,5.1 0.1,0.9 -0.2,0.9 0,1.2 0.2,2.1 -0.2,1.9 0.1,1.1 -0.1,0.9 0,0.9 -0.4,1 -1.1,0.6 -1,0 -0.8,-1.2 z" />
		<path
   id="path40"
   d="m 1072.1,332.4 -1.9,0 -1,-0.1 -1,0.2 -0.9,-0.1 -2,0.1 -1,-0.2 -0.9,0.1 -0.9,-0.1 -2,0.2 -1.9,-0.1 -1,-0.5 -0.6,-1 0.1,-7.1 -0.2,-3.1 0.1,-1.1 0.1,-0.9 -0.1,-1.1 0.1,-0.8 0.1,-1 -0.2,-1.1 -0.1,-1.1 0.1,-1.7 0.1,-1 -0.1,-1.1 0.2,-1.1 -0.1,-1.1 0.1,-2.8 -0.1,-1.2 0,-0.9 -0.1,-1.9 0.1,-1.1 -0.1,-1.4 0.2,-2.5 -0.2,-0.8 0,-1 0.1,-0.7 -0.1,-1.1 -0.1,-1.1 -0.1,-0.8 0.4,-1.1 0.9,-0.4 1.1,0.2 0.9,-0.2 1,0.2 3,-0.2 5.1,0.2 3,-0.1 1,0.1 0.9,0.5 0.6,0.7 0.1,0.9 -0.6,0.9 -1.6,0.6 -1.4,-0.1 -1,-0.1 -1.1,0.1 -0.9,0.1 -1.1,-0.2 -2.1,0.1 -2,0.2 -1.1,0.6 -0.6,1.4 -0.1,3.6 0.1,2.1 -0.1,0.9 0.1,3 -0.1,1.1 0.1,0.9 -0.1,1 0.4,1.2 1.1,0.4 0.9,0.1 1,-0.1 1.6,0.1 1.9,-0.1 1.6,0.1 1.8,0.1 1,-0.1 1.1,0.5 0.4,1.1 -0.5,1.2 -0.9,0.6 -1.9,0.2 -0.9,-0.2 -2.1,0.1 -0.9,-0.1 -1.1,0.1 -1.9,0.1 -1.1,-0.1 -0.9,0.7 -0.5,0.9 0.1,0.9 -0.1,1.1 0.1,1.1 0,1.1 -0.1,0.8 0.1,1.1 -0.2,6.4 0.1,1.1 0.5,1.4 1.1,0.5 2,-0.1 1.1,0.2 1.1,-0.1 2.1,0 1.1,0.2 0.9,-0.1 1,0.1 1,-0.1 1.1,0.4 0.6,0.9 -0.1,0.9 -0.4,0.9 -1,0.5 -1.3,-0.9 z" />
		<path
   id="path42"
   d="m 1088,332.4 -1.7,-0.8 -1.4,-1.1 -0.7,-0.8 -0.4,-0.7 -0.6,-0.7 -0.5,-0.9 -0.7,-1.9 -0.1,-1.1 -0.2,-1 -0.2,-0.7 -0.6,-3.2 0.1,-1.1 -0.3,-2.9 0.1,-1.2 -0.2,-0.9 0.1,-0.9 -0.1,-1.6 0.1,-1.6 -0.1,-0.9 0.2,-1.6 -0.1,-1.3 0.4,-3.1 0,-1 0.2,-0.8 0.1,-1.1 0.2,-1 0.4,-0.8 0.2,-1 0.4,-1.1 0.2,-0.7 0.4,-1.1 1.2,-1.7 0.6,-0.6 1.6,-1.5 0.8,-0.4 0.9,-0.3 1,-0.5 1,-0.1 0.9,-0.1 3,-0.1 2.1,0.4 1.9,0.7 1,0.2 0.9,0.6 0.6,1.1 -0.2,1.1 -0.6,0.8 -1.1,0.1 -0.9,-0.2 -0.9,-0.6 -1,-0.2 -0.9,-0.4 -0.9,-0.2 -1.5,-0.1 -1.6,0.3 -0.8,0.1 -0.7,0.4 -0.7,0.4 -0.7,0.7 -0.6,0.6 -0.3,1 -0.9,1.7 -0.2,0.9 -0.9,5.2 -0.2,9.4 0.1,1 -0.1,0.9 0.1,0.8 0.1,1.2 -0.1,1 0.2,0.9 0.2,3 0.3,2 0.4,0.9 0.2,1.1 0.3,0.7 0.5,1.1 0.5,0.7 0.7,0.6 0.9,0.6 0.8,0.4 0.9,0.3 1.6,-0.1 1.4,-0.2 1.6,-0.1 1.3,-0.3 1.7,-0.6 0.8,-0.6 1.1,0 0.9,0.7 0.1,1.3 -0.7,1.2 -4.1,1.7 -2.3,0.4 -1.5,-0.2 -1.6,0.2 -3.4,-0.7 z" />
		<path
   id="path44"
   d="m 1113.2,332.4 -1.7,-0.8 -1.4,-1.1 -0.7,-0.8 -0.4,-0.7 -0.6,-0.7 -0.5,-0.9 -0.7,-1.9 -0.1,-1.1 -0.2,-1 -0.2,-0.7 -0.6,-3.2 0.1,-1.1 -0.3,-2.9 0.1,-1.2 -0.2,-0.9 0.1,-0.9 -0.1,-1.6 0.1,-1.6 -0.1,-0.9 0.2,-1.6 -0.1,-1.3 0.4,-3.1 0,-1 0.2,-0.8 0.1,-1.1 0.2,-1 0.4,-0.8 0.2,-1 0.4,-1.1 0.2,-0.7 0.4,-1.1 1.2,-1.7 0.6,-0.6 1.6,-1.5 0.8,-0.4 0.9,-0.3 1,-0.5 1,-0.1 0.9,-0.1 3,-0.1 2.1,0.4 1.9,0.7 1,0.2 0.9,0.6 0.6,1.1 -0.2,1.1 -0.6,0.8 -1.1,0.1 -0.9,-0.2 -0.9,-0.6 -1,-0.2 -0.9,-0.4 -0.9,-0.2 -1.5,-0.1 -1.6,0.3 -0.8,0.1 -0.7,0.4 -0.7,0.4 -0.7,0.7 -0.6,0.6 -0.3,1 -0.9,1.7 -0.2,0.9 -0.9,5.2 -0.2,9.4 0.1,1 -0.1,0.9 0.1,0.8 0.1,1.2 -0.1,1 0.2,0.9 0.2,3 0.3,2 0.4,0.9 0.2,1.1 0.3,0.7 0.5,1.1 0.5,0.7 0.7,0.6 0.9,0.6 0.8,0.4 0.9,0.3 1.6,-0.1 1.4,-0.2 1.6,-0.1 1.3,-0.3 1.7,-0.6 0.8,-0.6 1.1,0 0.9,0.7 0.1,1.3 -0.7,1.2 -4.1,1.7 -2.3,0.4 -1.5,-0.2 -1.6,0.2 -3.4,-0.7 z" />
		<path
   id="path46"
   d="m 1134.6,332.4 -1.1,-0.3 -0.7,-0.9 -0.2,-1.7 -0.1,-1 0.1,-0.9 -0.1,-0.9 0.1,-1.2 -0.1,-0.8 0.1,-1.6 -0.1,-1.4 0.2,-1 -0.2,-7 0.1,-0.9 -0.1,-2.1 0.1,-0.9 -0.1,-1.1 0.1,-4.4 -0.1,-1.6 0.1,-0.8 -0.1,-4.8 -0.1,-1.1 0,-1 0.2,-1.1 -0.1,-0.9 -0.1,-0.9 0,-1.1 -0.1,-0.8 0.4,-1 1,-0.6 0.9,0.1 1.1,0.4 0.7,0.8 0,0.9 0.2,2.9 -0.1,1.1 0.1,1.1 0,2.2 -0.2,2.1 0.2,6.2 -0.1,1.1 0.2,10 -0.2,2 0.1,0.9 0.2,1.1 -0.2,1.4 0.1,1.3 -0.1,1.1 0.2,3.8 -0.1,1 0.1,0.8 -0.4,1.1 -1,0.4 -0.8,0 z" />
		<path
   id="path48"
   d="m 1153.2,333 -1,-0.3 -0.9,-0.2 -0.7,-0.4 -1.5,-1.1 -1.2,-1.2 -0.6,-0.8 -0.4,-0.7 -0.7,-1.9 -0.5,-0.8 -0.6,-1.9 -0.9,-7.2 0.1,-1.2 -0.2,-1.1 0,-0.9 0.1,-0.9 0,-6.2 0.1,-0.8 -0.1,-1.1 0.1,-1.1 0,-0.9 0.2,-1 0.4,-3.1 0.9,-3 0.4,-0.7 0.3,-1.1 0.6,-0.6 0.4,-1.1 0.7,-0.8 0.8,-0.5 0.7,-0.6 0.9,-0.6 0.8,-0.4 0.9,-0.4 0.9,-0.2 0.9,-0.1 1.5,-0.1 1.4,0.1 1.1,0.2 0.8,0.2 0.8,0.2 0.9,0.4 1.6,0.9 0.6,0.6 1.3,1.5 0.9,1.7 0.6,1.7 0.4,0.9 0.2,1.1 1,7.2 0,1 -0.1,1 0.2,6.1 -0.2,1.9 0,2.1 -0.2,1 -0.2,3.1 -0.3,1.9 -0.5,2.1 -1.1,2.9 -1,1.6 -0.7,0.9 -0.7,0.7 -1.6,1.1 -0.7,0.4 -0.9,0.1 -0.9,0.3 -1.1,0.1 -1.5,0 -1.4,0.1 -1.1,-0.1 z m 4.6,-3.8 0.9,-0.2 0.6,-0.6 0.7,-0.6 1.1,-1.4 0.6,-1.9 0.4,-0.9 0.1,-1 0.1,-1.2 0.3,-2 0.2,-2.9 -0.1,-1.1 0.1,-0.9 -0.1,-5.4 0.1,-0.8 -0.2,-2 0.1,-1.1 -0.2,-3.8 -0.4,-1.9 -0.1,-1.1 -0.4,-0.8 -0.3,-0.9 -0.2,-1.1 -0.4,-0.9 -0.6,-0.8 -1.4,-1.3 -0.9,-0.3 -1.1,-0.3 -1.3,0.1 -1.4,-0.1 -0.9,0.3 -0.8,0.2 -0.6,0.5 -1.2,1.4 -0.8,1.5 -0.8,3.2 -0.5,2.9 -0.1,2.2 -0.1,0.9 -0.1,3 0.1,2.7 -0.1,1.5 0,0.9 0.1,1 0.1,4.1 0.2,0.7 0.1,1.9 0.7,3.2 0.6,1.7 0.4,0.9 1.4,1.4 0.8,0.4 0.7,0.6 0.9,0.3 2.8,0.1 0.9,-0.3 z m -4.2,-44 0,-0.8 0.8,-1.6 0.5,-0.8 0.4,-0.8 1.1,-0.7 1.1,-0.6 1.1,0 0.5,0.6 0,0.7 -0.6,0.8 -0.6,0.9 -0.5,0.6 -0.6,0.8 -1.1,1 -1.3,0.3 -0.8,-0.4 z" />
		<path
   id="path50"
   d="m 1191,331.9 -0.9,-0.9 -0.4,-0.9 -1.2,-3.8 -0.2,-1.1 -0.4,-0.9 -0.2,-0.9 -1.1,-3 -0.2,-0.7 -1.4,-3.7 -0.5,-2.2 -0.4,-1 -0.2,-1 -0.4,-0.7 -0.6,-2.1 -0.4,-0.9 -0.1,-1 -0.4,-0.9 -2.4,-7.7 -0.1,-0.9 -0.8,-2.9 -0.4,-0.8 -0.2,-0.1 0.1,0.9 -0.1,1.1 0.1,1.1 -0.1,1 0.1,1 -0.1,0.8 0.1,1.1 -0.1,1.6 0.1,5.5 -0.2,0.9 0.2,4 -0.1,1.1 0.1,1.1 -0.1,0.9 -0.1,0.9 0.1,2.2 0.1,1.5 -0.2,1.4 0.1,1.2 -0.1,0.8 0,1 0.1,1.1 -0.2,1.1 0.1,3.9 -0.6,0.9 -1.5,0.4 -1.4,-0.5 -0.5,-0.8 -0.1,-5 0.1,-0.9 -0.1,-1.2 0.1,-4.1 -0.1,-2.5 0.1,-0.9 0,-1.4 0.1,-1 -0.2,-2.4 0.1,-2.6 -0.1,-1.1 0.1,-0.8 -0.1,-1.2 0.1,-0.9 -0.2,-0.9 0.2,-1.9 0,-1.2 -0.1,-0.8 0.1,-3.2 -0.1,-1 0.1,-4.7 -0.1,-1.1 0.5,-1.1 1.4,-0.5 1.6,0.1 1.1,-0.1 1,0.6 0.9,1 0.4,0.9 0.2,0.9 0.1,1.1 0.8,1.7 3.4,10.5 0.1,0.9 0.3,0.9 0.5,1 0.9,2.7 0.5,1.9 2.1,6 0.3,1.5 0.3,1 0.5,1.1 0.2,1 0.1,1 0.6,2.1 0.4,0.9 0.2,-0.1 0.1,-3.1 -0.3,-1.8 0.1,-1.1 0,-1.1 -0.2,-1.4 0.2,-1.4 -0.1,-1.4 0.1,-2.5 -0.1,-0.8 0.1,-12.9 -0.2,-1.6 0.1,-1.4 -0.1,-0.8 0.1,-0.9 -0.1,-1.1 0.1,-0.9 -0.2,-3 0.4,-0.9 0.8,-0.3 1.1,0.1 0.9,0.3 0.6,0.9 0.2,0.9 0.1,1.7 -0.1,1 0.1,1.1 -0.1,1 0.2,5.1 -0.1,0.7 0.1,2.3 -0.1,1 -0.1,0.9 0.1,5.2 -0.1,0.9 0.1,1.1 -0.1,4.2 0.1,1 -0.1,0.9 0.1,0.9 0,1 -0.1,1.1 0.1,4.1 -0.1,0.8 0,1.1 0.1,1.1 -0.1,0.9 0,0.9 -0.4,1.2 -0.9,0.4 -0.9,0 -1.1,-0.1 -0.9,0.1 -0.7,-0.7 z" />
	</g>
	<rect
   style="fill:#eaf5f7"
   id="rect52"
   height="379.20001"
   width="425.39999"
   y="412"
   x="990.20001" />
	<g
   id="g54">
		<g
   id="g56">
			<path
   id="path58"
   d="m 1111.9,626.3 0,-21.8 7.1,0 c 6.6,0 8.6,3.6 8.6,10.9 0,7.3 -2,10.9 -8.6,10.9 l -7.1,0 z m 7.2,-3.5 c 3.2,0 4.5,-1.8 4.5,-7.4 0,-5.6 -1.2,-7.4 -4.5,-7.4 l -3.3,0 0,14.7 3.3,0 z" />
			<path
   id="path60"
   d="m 1130.8,604.5 12,0 0,3.6 -8.1,0 0,5.2 8.1,0 0,3.6 -8.1,0 0,5.9 8.3,0 0,3.6 -12.1,0 0,-21.9 z" />
			<path
   id="path62"
   d="m 1147,621.8 c 0,0 2.4,1.6 4.5,1.6 2.7,0 3.7,-1.5 3.7,-2.9 0,-1.6 -2,-2.7 -4.2,-4 -3.8,-2.2 -5.3,-3.9 -5.3,-6.8 0,-2.7 2.2,-5.5 6.8,-5.5 3.1,0 5,0.8 5.9,1.4 l -1.5,3.1 c 0,0 -2.2,-1.2 -4,-1.2 -2.4,0 -3.1,1.2 -3.1,2.1 0,1.4 1.5,2.5 3.7,3.8 4.3,2.5 5.7,4.5 5.7,7.1 0,3.5 -2.9,6.2 -7.9,6.2 -2.6,0 -4.9,-1.1 -6.1,-1.9 l 1.8,-3 z" />
			<path
   id="path64"
   d="m 1162.2,604.5 3.9,0 0,21.8 -3.9,0 0,-21.8 z" />
			<path
   id="path66"
   d="m 1169.8,626.3 0,-21.8 3.6,0 7.8,14.4 0,-14.4 3.9,0 0,21.8 -3.7,0 -7.8,-14.3 0,14.3 -3.8,0 z" />
			<path
   id="path68"
   d="m 1200.8,604.5 0,3.6 -8.1,0 0,5.2 7.5,0 0,3.6 -7.5,0 0,9.5 -3.9,0 0,-21.8 12,0 z" />
			<path
   id="path70"
   d="m 1204.2,604.5 12,0 0,3.6 -8.1,0 0,5.2 8.1,0 0,3.6 -8.1,0 0,5.9 8.3,0 0,3.6 -12.1,0 0,-21.9 z" />
			<path
   id="path72"
   d="m 1233.1,625.4 c 0,0 -2.4,1.3 -5.2,1.3 -6.3,0 -8.4,-3.9 -8.4,-11.3 0,-7.4 2.2,-11.3 8.4,-11.3 1.8,0 3.9,0.5 4.9,1.1 l -1.6,3.2 c -0.7,-0.4 -2.1,-0.8 -3.3,-0.8 -3.2,0 -4.4,2.2 -4.4,7.8 0,5.5 1.2,7.8 4.4,7.8 2,0 3.6,-0.9 3.6,-0.9 l 1.6,3.1 z" />
			<path
   id="path74"
   d="m 1248.8,625.4 c 0,0 -2.4,1.3 -5.2,1.3 -6.3,0 -8.4,-3.9 -8.4,-11.3 0,-7.4 2.2,-11.3 8.4,-11.3 1.8,0 3.9,0.5 4.9,1.1 l -1.6,3.2 c -0.7,-0.4 -2.1,-0.8 -3.3,-0.8 -3.2,0 -4.4,2.2 -4.4,7.8 0,5.5 1.2,7.8 4.4,7.8 2,0 3.6,-0.9 3.6,-0.9 l 1.6,3.1 z" />
			<path
   id="path76"
   d="m 1251.3,604.5 3.9,0 0,21.8 -3.9,0 0,-21.8 z" />
			<path
   id="path78"
   d="m 1266.9,604.1 c 6.5,0 8.5,4.2 8.5,11.3 0,7.1 -2,11.3 -8.5,11.3 -6.5,0 -8.5,-4.2 -8.5,-11.3 0,-7.1 2,-11.3 8.5,-11.3 z m 0,19.1 c 3.5,0 4.5,-2.6 4.5,-7.8 0,-5.2 -1,-7.8 -4.5,-7.8 -3.5,0 -4.5,2.6 -4.5,7.8 0,5.2 1,7.8 4.5,7.8 z m 0,-25.8 3.7,0 -2.4,4.9 -2.6,0 1.3,-4.9 z" />
			<path
   id="path80"
   d="m 1278.7,626.3 0,-21.8 3.6,0 7.8,14.4 0,-14.4 3.9,0 0,21.8 -3.7,0 -7.8,-14.3 0,14.3 -3.8,0 z" />
			<path
   id="path82"
   d="m 1140.7,638.3 10.7,0 0,1.9 -8.6,0 0,7.6 8.6,0 0,1.9 -8.6,0 0,8.4 8.9,0 0,1.9 -11,0 0,-21.7 z" />
			<path
   id="path84"
   d="m 1161.4,660.2 c -0.4,0.1 -0.9,0.2 -1.4,0.2 -3,0 -4.7,-1.8 -4.7,-5.6 l 0,-16.4 2.1,0 0,16.1 c 0,3.1 0.9,4.2 2.7,4.2 0.3,0 0.7,0 1,-0.1 l 0.3,1.6 z" />
			<path
   id="path86"
   d="m 1164.8,638.6 c 0.8,0 1.6,0.7 1.6,1.6 0,0.9 -0.7,1.6 -1.6,1.6 -0.9,0 -1.6,-0.7 -1.6,-1.6 0,-0.9 0.8,-1.6 1.6,-1.6 z m -1,5.9 2.1,0 0,15.6 -2.1,0 0,-15.6 z" />
			<path
   id="path88"
   d="m 1179.2,649.2 c 0,-2.2 -0.9,-3.2 -2.8,-3.2 -2,0 -3.7,1.4 -4.2,1.8 l 0,12.2 -2.1,0 0,-15.6 1.6,0 0.4,1.6 c 1.1,-0.9 2.7,-1.8 4.6,-1.8 2.2,0 3.4,0.7 4,2.2 1.3,-1.2 3.1,-2.2 5,-2.2 3.5,0 4.5,1.9 4.5,5.1 l 0,10.7 -2.1,0 0,-10.8 c 0,-2.5 -1,-3.3 -2.9,-3.3 -1.7,0 -3.4,1.2 -4.2,1.9 0.1,0.4 0.1,0.9 0.1,1.5 l 0,10.6 -2.1,0 0,-10.7 z" />
			<path
   id="path90"
   d="m 1195.5,638.6 c 0.8,0 1.6,0.7 1.6,1.6 0,0.9 -0.7,1.6 -1.6,1.6 -0.9,0 -1.6,-0.7 -1.6,-1.6 0,-0.9 0.7,-1.6 1.6,-1.6 z m -1.1,5.9 2.1,0 0,15.6 -2.1,0 0,-15.6 z" />
			<path
   id="path92"
   d="m 1210.2,649.3 c 0,-2.5 -1,-3.3 -2.9,-3.3 -2,0 -3.8,1.4 -4.4,1.8 l 0,12.2 -2.1,0 0,-15.6 1.6,0 0.4,1.6 c 1.2,-0.9 3.1,-1.8 4.9,-1.8 3.5,0 4.5,1.9 4.5,5.1 l 0,10.7 -2.1,0 0,-10.7 z" />
			<path
   id="path94"
   d="m 1222,651 2,0 0,-2.2 c 0,-1.7 -0.8,-2.7 -2.8,-2.7 -2.2,0 -4.1,1 -4.1,1 l -0.5,-1.6 c 0,0 1.9,-1.1 4.7,-1.1 3.7,0 4.8,1.7 4.8,4.7 l 0,11.1 -1.6,0 -0.3,-1.2 c -1,0.7 -2.3,1.4 -4.3,1.4 -3,0 -4.5,-2.1 -4.5,-4.5 0,-2.5 1.8,-4.9 6.6,-4.9 z m 2,6.3 0,-4.7 -2.1,0 c -2.8,0 -4.4,1.4 -4.4,3.2 0,1.7 1.2,2.9 2.8,2.9 1.6,0 3.1,-0.8 3.7,-1.4 z" />
			<path
   id="path96"
   d="m 1242.1,660.2 c -0.4,0.1 -0.9,0.2 -1.4,0.2 -3,0 -4.7,-1.8 -4.7,-5.6 l 0,-16.4 2.1,0 0,16.1 c 0,3.1 0.9,4.2 2.7,4.2 0.3,0 0.7,0 1,-0.1 l 0.3,1.6 z" />
			<path
   id="path98"
   d="m 1250,651 2,0 0,-2.2 c 0,-1.7 -0.8,-2.7 -2.8,-2.7 -2.2,0 -4.1,1 -4.1,1 l -0.5,-1.6 c 0,0 1.9,-1.1 4.7,-1.1 3.7,0 4.8,1.7 4.8,4.7 l 0,11.1 -1.6,0 -0.3,-1.2 c -1,0.7 -2.3,1.4 -4.3,1.4 -3,0 -4.5,-2.1 -4.5,-4.5 0.1,-2.5 1.9,-4.9 6.6,-4.9 z m 2.1,6.3 0,-4.7 -2.1,0 c -2.8,0 -4.4,1.4 -4.4,3.2 0,1.7 1.2,2.9 2.8,2.9 1.6,0 3.1,-0.8 3.7,-1.4 z" />
			<path
   id="path100"
   d="m 1261.3,660.4 c -2.6,0 -4.4,-1.4 -4.4,-1.4 l 0.9,-1.5 c 0,0 1.6,1.2 3.4,1.2 2.2,0 2.9,-1.4 2.9,-2.6 0,-0.9 -0.9,-1.8 -3,-3 -2.8,-1.6 -4,-3 -4,-4.6 0,-2.7 2.2,-4.1 4.5,-4.1 2.5,0 4.1,1.2 4.1,1.2 l -0.8,1.5 c 0,0 -1.7,-0.9 -3.3,-0.9 -1.4,0 -2.5,0.8 -2.5,2.3 0,1.2 1.4,2.1 3.1,3.1 2.6,1.5 3.9,2.8 3.9,4.6 0.2,2.2 -1.7,4.2 -4.8,4.2 z" />
			<path
   id="path102"
   d="m 1151.1,679.6 c 0.4,-0.5 1.8,-1.4 3.7,-1.4 3.3,0 6,2 6,8 0,6 -2.6,8 -6.1,8 -1.7,0 -3,-0.8 -3.7,-1.6 l -0.4,1.3 -1.6,0 0,-21.8 2.1,0 0,7.5 z m 3.3,0.3 c -1.8,0 -2.9,1.2 -3.3,1.9 l 0,8.8 c 0.6,1.1 1.9,1.9 3.3,1.9 3.3,0 4.2,-2.5 4.2,-6.3 0,-3.8 -0.9,-6.3 -4.2,-6.3 z" />
			<path
   id="path104"
   d="m 1169.8,684.8 2,0 0,-2.2 c 0,-1.7 -0.8,-2.7 -2.8,-2.7 -2.2,0 -4.1,1 -4.1,1 l -0.5,-1.6 c 0,0 1.9,-1.1 4.7,-1.1 3.7,0 4.8,1.7 4.8,4.7 l 0,11.1 -1.6,0 -0.3,-1.2 c -1,0.7 -2.3,1.4 -4.3,1.4 -3,0 -4.5,-2.1 -4.5,-4.5 0.1,-2.5 1.9,-4.9 6.6,-4.9 z m 2.1,6.3 0,-4.7 -2.1,0 c -2.8,0 -4.4,1.4 -4.4,3.2 0,1.7 1.2,2.9 2.8,2.9 1.6,0 3.1,-0.8 3.7,-1.4 z" />
			<path
   id="path106"
   d="m 1186.6,693.4 c -0.2,0.1 -1.6,0.7 -3.3,0.7 -3.7,0 -6.2,-1.9 -6.2,-8 0,-6.1 2.6,-8 6.2,-8 1.2,0 2.4,0.3 3.2,0.8 l -0.7,1.6 c -0.1,0 -1.2,-0.6 -2.5,-0.6 -3.3,0 -4.2,2.5 -4.2,6.2 0,3.8 0.8,6.2 4.2,6.2 1.5,0 2.7,-0.6 2.7,-0.6 l 0.6,1.7 z" />
			<path
   id="path108"
   d="m 1192.5,678.3 3.7,0 0,1.8 -3.7,0 0,8.1 c 0,3.1 0.8,4.2 2.7,4.2 0.4,0 1.1,-0.2 1.4,-0.2 l 0.4,1.7 c -0.3,0.1 -1.1,0.3 -1.8,0.3 -3.1,0 -4.7,-1.8 -4.7,-5.6 l 0,-8.4 -1.9,0 0,-1.8 1.9,0 0,-4.1 2.1,0 0,4 z" />
			<path
   id="path110"
   d="m 1200.9,686.6 c 0.1,3.5 1,5.8 4.2,5.8 2.4,0 3.8,-1 3.8,-1 l 0.8,1.6 c 0,0 -1.8,1.2 -4.6,1.2 -3.7,0 -6.2,-1.9 -6.2,-8 0,-6.1 2.6,-8 5.9,-8 4.4,0 5.6,3.1 5.6,8.5 l -9.5,0 z m 0,-1.6 7.3,0 c -0.1,-3.6 -1.1,-5.1 -3.5,-5.1 -2.7,0 -3.6,2 -3.8,5.1 z" />
			<path
   id="path112"
   d="m 1220.2,680.1 c -0.3,-0.1 -0.6,-0.1 -1,-0.1 -2.1,0 -3.2,1.4 -3.5,1.8 l 0,12.2 -2.1,0 0,-15.6 1.6,0 0.4,1.6 c 0.9,-1 2.2,-1.8 3.9,-1.8 0.4,0 0.8,0 1.1,0.1 l -0.4,1.8 z" />
			<path
   id="path114"
   d="m 1224.1,672.4 c 0.8,0 1.6,0.7 1.6,1.6 0,0.9 -0.7,1.6 -1.6,1.6 -0.9,0 -1.6,-0.7 -1.6,-1.6 0,-0.9 0.7,-1.6 1.6,-1.6 z m -1.1,5.9 2.1,0 0,15.6 -2.1,0 0,-15.6 z" />
			<path
   id="path116"
   d="m 1235.2,684.8 2,0 0,-2.2 c 0,-1.7 -0.8,-2.7 -2.8,-2.7 -2.2,0 -4.1,1 -4.1,1 l -0.5,-1.6 c 0,0 1.9,-1.1 4.7,-1.1 3.7,0 4.8,1.7 4.8,4.7 l 0,11.1 -1.6,0 -0.3,-1.2 c -1,0.7 -2.3,1.4 -4.3,1.4 -3,0 -4.5,-2.1 -4.5,-4.5 0,-2.5 1.9,-4.9 6.6,-4.9 z m 2,6.3 0,-4.7 -2.1,0 c -2.8,0 -4.4,1.4 -4.4,3.2 0,1.7 1.2,2.9 2.8,2.9 1.7,0 3.1,-0.8 3.7,-1.4 z" />
			<path
   id="path118"
   d="m 1246.5,694.2 c -2.6,0 -4.4,-1.4 -4.4,-1.4 l 0.9,-1.5 c 0,0 1.6,1.2 3.4,1.2 2.2,0 2.9,-1.4 2.9,-2.6 0,-0.9 -0.9,-1.8 -3,-3 -2.8,-1.6 -4,-3 -4,-4.6 0,-2.7 2.2,-4.1 4.5,-4.1 2.5,0 4.1,1.2 4.1,1.2 l -0.8,1.5 c 0,0 -1.7,-0.9 -3.3,-0.9 -1.4,0 -2.5,0.8 -2.5,2.3 0,1.2 1.4,2.1 3.1,3.1 2.6,1.5 3.9,2.8 3.9,4.6 0.1,2.2 -1.7,4.2 -4.8,4.2 z" />
			<path
   id="path120"
   d="m 1255.7,690.8 c 0.9,0 1.7,0.7 1.7,1.7 0,0.9 -0.7,1.7 -1.7,1.7 -0.9,0 -1.7,-0.8 -1.7,-1.7 0,-0.9 0.8,-1.7 1.7,-1.7 z" />
		</g>
	</g>
	<rect
   style="fill:#fcfaf0"
   id="rect122"
   height="379.20001"
   width="425.39999"
   y="412"
   x="455.39999" />
	<g
   id="g124">
		<g
   id="g126">
			<path
   id="path128"
   d="m 610.2,604.5 3.9,0 0,18.3 7.8,0 0,3.6 -11.7,0 0,-21.9 z" />
			<path
   id="path130"
   d="m 624.5,604.5 3.9,0 0,21.8 -3.9,0 0,-21.8 z" />
			<path
   id="path132"
   d="m 641.1,620.6 -0.6,0 -4.6,-8.3 0,14 -3.9,0 0,-21.8 3.7,0 5.1,9.7 5.1,-9.7 3.7,0 0,21.8 -3.9,0 0,-14 -4.6,8.3 z" />
			<path
   id="path134"
   d="m 660.2,604.5 c 5.9,0 8.1,2.1 8.1,7.2 0,5.3 -2.6,7.2 -8.1,7.2 l -3,0 0,7.5 -3.9,0 0,-21.8 6.9,0 z m -3,3.5 0,7.4 3.1,0 c 2.9,0 4.1,-0.7 4.1,-3.7 0,-3 -1.2,-3.7 -4.1,-3.7 l -3.1,0 z" />
			<path
   id="path136"
   d="m 671.1,604.5 3.9,0 0,21.8 -3.9,0 0,-21.8 z" />
			<path
   id="path138"
   d="m 678.7,604.5 12,0 0,3.6 -8.1,0 0,5.2 8.1,0 0,3.6 -8.1,0 0,5.9 8.3,0 0,3.6 -12.1,0 0,-21.9 z" />
			<path
   id="path140"
   d="m 694.1,604.5 14.2,0 0,3.6 -10.2,14.7 10.2,0 0,3.6 -14.8,0 0,-3.6 10.2,-14.7 -9.6,0 0,-3.6 z" />
			<path
   id="path142"
   d="m 722.4,621.8 -7.5,0 -1.2,4.5 -4,0 6.1,-21.8 5.7,0 6.1,21.8 -4,0 -1.2,-4.5 z m -6.5,-3.6 5.5,0 -2.7,-10 -2.8,10 z" />
			<path
   id="path144"
   d="m 553.6,638.3 10.7,0 0,1.9 -8.6,0 0,7.6 8.6,0 0,1.9 -8.6,0 0,8.4 8.9,0 0,1.9 -11,0 0,-21.7 z" />
			<path
   id="path146"
   d="m 574.3,660.2 c -0.4,0.1 -0.9,0.2 -1.4,0.2 -3,0 -4.7,-1.8 -4.7,-5.6 l 0,-16.4 2.1,0 0,16.1 c 0,3.1 0.9,4.2 2.7,4.2 0.3,0 0.7,0 1,-0.1 l 0.3,1.6 z" />
			<path
   id="path148"
   d="m 577.7,638.6 c 0.8,0 1.6,0.7 1.6,1.6 0,0.9 -0.7,1.6 -1.6,1.6 -0.9,0 -1.6,-0.7 -1.6,-1.6 0,-0.9 0.7,-1.6 1.6,-1.6 z m -1,5.9 2.1,0 0,15.6 -2.1,0 0,-15.6 z" />
			<path
   id="path150"
   d="m 592.1,649.2 c 0,-2.2 -0.9,-3.2 -2.8,-3.2 -2,0 -3.7,1.4 -4.2,1.8 l 0,12.2 -2.1,0 0,-15.6 1.6,0 0.4,1.6 c 1.1,-0.9 2.7,-1.8 4.6,-1.8 2.2,0 3.4,0.7 4,2.2 1.3,-1.2 3.1,-2.2 5,-2.2 3.5,0 4.5,1.9 4.5,5.1 l 0,10.7 -2.1,0 0,-10.8 c 0,-2.5 -1,-3.3 -2.9,-3.3 -1.7,0 -3.4,1.2 -4.2,1.9 0.1,0.4 0.1,0.9 0.1,1.5 l 0,10.6 -2.1,0 0,-10.7 z" />
			<path
   id="path152"
   d="m 608.4,638.6 c 0.8,0 1.6,0.7 1.6,1.6 0,0.9 -0.7,1.6 -1.6,1.6 -0.9,0 -1.6,-0.7 -1.6,-1.6 0,-0.9 0.7,-1.6 1.6,-1.6 z m -1.1,5.9 2.1,0 0,15.6 -2.1,0 0,-15.6 z" />
			<path
   id="path154"
   d="m 623.1,649.3 c 0,-2.5 -1,-3.3 -2.9,-3.3 -2,0 -3.8,1.4 -4.4,1.8 l 0,12.2 -2.1,0 0,-15.6 1.6,0 0.4,1.6 c 1.2,-0.9 3.1,-1.8 4.9,-1.8 3.5,0 4.5,1.9 4.5,5.1 l 0,10.7 -2.1,0 0,-10.7 z" />
			<path
   id="path156"
   d="m 634.8,651 2,0 0,-2.2 c 0,-1.7 -0.8,-2.7 -2.8,-2.7 -2.2,0 -4.1,1 -4.1,1 l -0.5,-1.6 c 0,0 1.9,-1.1 4.7,-1.1 3.7,0 4.8,1.7 4.8,4.7 l 0,11.1 -1.6,0 -0.3,-1.2 c -1,0.7 -2.3,1.4 -4.3,1.4 -3,0 -4.5,-2.1 -4.5,-4.5 0.1,-2.5 1.9,-4.9 6.6,-4.9 z m 2.1,6.3 0,-4.7 -2.1,0 c -2.8,0 -4.4,1.4 -4.4,3.2 0,1.7 1.2,2.9 2.8,2.9 1.6,0 3.1,-0.8 3.7,-1.4 z" />
			<path
   id="path158"
   d="m 655,660.2 c -0.4,0.1 -0.9,0.2 -1.4,0.2 -3,0 -4.7,-1.8 -4.7,-5.6 l 0,-16.4 2.1,0 0,16.1 c 0,3.1 0.9,4.2 2.7,4.2 0.3,0 0.7,0 1,-0.1 l 0.3,1.6 z" />
			<path
   id="path160"
   d="m 662.9,651 2,0 0,-2.2 c 0,-1.7 -0.8,-2.7 -2.8,-2.7 -2.2,0 -4.1,1 -4.1,1 l -0.5,-1.6 c 0,0 1.9,-1.1 4.7,-1.1 3.7,0 4.8,1.7 4.8,4.7 l 0,11.1 -1.6,0 -0.3,-1.2 c -1,0.7 -2.3,1.4 -4.3,1.4 -3,0 -4.5,-2.1 -4.5,-4.5 0,-2.5 1.9,-4.9 6.6,-4.9 z m 2.1,6.3 0,-4.7 -2.1,0 c -2.8,0 -4.4,1.4 -4.4,3.2 0,1.7 1.2,2.9 2.8,2.9 1.6,0 3.1,-0.8 3.7,-1.4 z" />
			<path
   id="path162"
   d="m 680.3,660.4 c -2.6,0 -4.4,-1.4 -4.4,-1.4 l 0.9,-1.5 c 0,0 1.6,1.2 3.4,1.2 2.2,0 2.9,-1.4 2.9,-2.6 0,-0.9 -0.9,-1.8 -3,-3 -2.8,-1.6 -4,-3 -4,-4.6 0,-2.7 2.2,-4.1 4.5,-4.1 2.5,0 4.1,1.2 4.1,1.2 L 684,647 c 0,0 -1.7,-0.9 -3.3,-0.9 -1.4,0 -2.5,0.8 -2.5,2.3 0,1.2 1.4,2.1 3.1,3.1 2.6,1.5 3.9,2.8 3.9,4.6 0,2.3 -1.8,4.3 -4.9,4.3 z" />
			<path
   id="path164"
   d="m 690.3,655.4 c 0,2.5 1.1,3.3 3,3.3 2,0 3.8,-1.4 4.4,-1.9 l 0,-12.3 2.1,0 0,15.6 -1.6,0 -0.4,-1.6 c -1.2,0.9 -3.1,1.8 -4.9,1.8 -3.5,0 -4.6,-1.9 -4.6,-5.1 l 0,-10.8 2.1,0 0,11 z" />
			<path
   id="path166"
   d="m 712.5,659.6 c -0.2,0.1 -1.6,0.7 -3.3,0.7 -3.7,0 -6.2,-1.9 -6.2,-8 0,-6.1 2.6,-8 6.2,-8 1.2,0 2.4,0.3 3.2,0.8 l -0.7,1.6 c -0.1,0 -1.2,-0.6 -2.5,-0.6 -3.3,0 -4.2,2.5 -4.2,6.2 0,3.8 0.8,6.2 4.2,6.2 1.5,0 2.7,-0.6 2.7,-0.6 l 0.6,1.7 z" />
			<path
   id="path168"
   d="m 717,638.6 c 0.8,0 1.6,0.7 1.6,1.6 0,0.9 -0.7,1.6 -1.6,1.6 -0.9,0 -1.6,-0.7 -1.6,-1.6 0,-0.9 0.7,-1.6 1.6,-1.6 z m -1.1,5.9 2.1,0 0,15.6 -2.1,0 0,-15.6 z" />
			<path
   id="path170"
   d="m 723.7,652.8 c 0.1,3.5 1,5.8 4.2,5.8 2.4,0 3.8,-1 3.8,-1 l 0.8,1.6 c 0,0 -1.8,1.2 -4.6,1.2 -3.7,0 -6.2,-1.9 -6.2,-8 0,-6.1 2.6,-8 5.9,-8 4.4,0 5.6,3.1 5.6,8.5 l -9.5,0 z m 0,-1.6 7.3,0 c -0.1,-3.6 -1.1,-5.1 -3.5,-5.1 -2.7,0 -3.6,2 -3.8,5.1 z" />
			<path
   id="path172"
   d="m 745.4,638.3 2.1,0 0,21.8 -1.7,0 -0.3,-1.3 c -0.7,0.8 -2,1.6 -3.7,1.6 -3.4,0 -6.1,-2 -6.1,-8 0,-6 2.7,-8 6,-8 1.8,0 3.2,1 3.7,1.4 l 0,-7.5 z m -3.4,20.3 c 1.5,0 2.7,-0.8 3.4,-1.9 l 0,-8.7 c -0.4,-0.7 -1.6,-1.9 -3.4,-1.9 -3.3,0 -4.2,2.5 -4.2,6.3 -0.1,3.7 0.9,6.2 4.2,6.2 z" />
			<path
   id="path174"
   d="m 757.3,651 2,0 0,-2.2 c 0,-1.7 -0.8,-2.7 -2.8,-2.7 -2.2,0 -4.1,1 -4.1,1 l -0.5,-1.6 c 0,0 1.9,-1.1 4.7,-1.1 3.7,0 4.8,1.7 4.8,4.7 l 0,11.1 -1.6,0 -0.3,-1.2 c -1,0.7 -2.3,1.4 -4.3,1.4 -3,0 -4.5,-2.1 -4.5,-4.5 0,-2.5 1.8,-4.9 6.6,-4.9 z m 2,6.3 0,-4.7 -2.1,0 c -2.8,0 -4.4,1.4 -4.4,3.2 0,1.7 1.2,2.9 2.8,2.9 1.6,0 3.1,-0.8 3.7,-1.4 z" />
			<path
   id="path176"
   d="m 774.2,638.3 2.1,0 0,21.8 -1.7,0 -0.3,-1.3 c -0.7,0.8 -2,1.6 -3.7,1.6 -3.4,0 -6.1,-2 -6.1,-8 0,-6 2.7,-8 6,-8 1.8,0 3.2,1 3.7,1.4 l 0,-7.5 z m -3.4,20.3 c 1.5,0 2.7,-0.8 3.4,-1.9 l 0,-8.7 c -0.4,-0.7 -1.6,-1.9 -3.4,-1.9 -3.3,0 -4.2,2.5 -4.2,6.3 0,3.7 1,6.2 4.2,6.2 z" />
			<path
   id="path178"
   d="m 781.5,657 c 0.9,0 1.7,0.7 1.7,1.7 0,0.9 -0.7,1.7 -1.7,1.7 -0.9,0 -1.7,-0.8 -1.7,-1.7 0.1,-0.9 0.8,-1.7 1.7,-1.7 z" />
		</g>
	</g>
	<g
   id="g180">
		<path
   id="path182"
   d="m 640.4,546.2 -8.6,0 0,-132.1 c 0,-13.6 11.1,-24.7 24.7,-24.7 13.6,0 24.7,11.1 24.7,24.7 0,6.9 -1.5,13.7 -2.9,20.4 -1.4,6.5 -2.8,13.2 -2.8,19.7 0,17 14.6,22.9 15.2,23.1 l -3.1,8 c -0.8,-0.3 -20.7,-8.1 -20.7,-31.1 0,-7.4 1.5,-14.6 3,-21.5 1.4,-6.5 2.7,-12.6 2.7,-18.6 0,-8.9 -7.2,-16.1 -16.1,-16.1 -8.9,0 -16.1,7.2 -16.1,16.1 l 0,132.1 z" />
		<path
   style="fill:#7aab84"
   id="path184"
   d="m 726.3,463.9 -26.6,-4.6 c -4.9,-0.8 -9.5,2.5 -10.4,7.3 l -4.6,26.6 c -0.8,4.9 2.5,9.6 7.3,10.4 l 26.6,4.6 c 4.9,0.8 9.5,-2.5 10.4,-7.3 l 4.6,-26.6 c 0.8,-4.9 -2.5,-9.6 -7.3,-10.4 z" />
		<path
   style="fill:#8ec89a"
   id="path186"
   d="M 769.3,432.9 725,438 c -10.4,1.2 -20.4,10.6 -22.2,20.9 l -17.1,96.6 c -1.8,10.3 5.2,18.8 15.7,18.8 l 67.9,0 c 10.5,0 19,-8.6 19,-19 l 0,-105.6 c -0.1,-10.5 -8.6,-18 -19,-16.8 z" />
		<path
   id="path188"
   d="m 809.8,536.7 c 0,14.7 -11.9,26.6 -26.6,26.6 -14.7,0 -26.6,-11.9 -26.6,-26.6 0,-14.7 11.9,-26.6 26.6,-26.6 14.7,0 26.6,11.9 26.6,26.6 z" />
		<circle
   style="fill:#dadada"
   id="circle190"
   r="12.8"
   cy="536.70001"
   cx="783.20001" />
		<path
   style="fill:#b2b2b2"
   id="path192"
   d="m 660.1,553.3 0,-3.6 c 0,-3.2 -2.6,-5.8 -5.8,-5.8 l -36.5,0 c -3.2,0 -5.8,2.6 -5.8,5.8 l 0,3.6 48.1,0 z" />
		<path
   style="fill:#dadada"
   id="path194"
   d="m 674.4,553.3 -76.5,0 c -0.9,0 -1.6,0.7 -1.6,1.6 l 0,10.2 c 0,0.9 0.7,1.6 1.6,1.6 l 76.5,0 c 0.9,0 1.6,-0.7 1.6,-1.6 l 0,-10.2 c -0.1,-0.8 -0.8,-1.6 -1.6,-1.6 z" />
		<path
   style="fill:#b2b2b2"
   id="path196"
   d="m 604.1,562.3 c -1.2,0 -2.2,-1 -2.2,-2.2 0,-1.2 1,-2.2 2.2,-2.2 l 63.9,0 c 1.2,0 2.2,1 2.2,2.2 0,1.2 -1,2.2 -2.2,2.2 l -63.9,0 z" />
	</g>
	<g
   id="g198">
		<path
   style="fill:#cdae7d"
   id="path200"
   d="m 516.5,476.9 c -0.3,-2.2 -2.3,-3.8 -4.6,-3.5 -2.3,0.3 -3.8,2.3 -3.5,4.6 l 28.6,222.5 8.1,-1.1 -28.6,-222.5 z" />
		<polygon
   style="fill:#bb9c75"
   id="polygon202"
   points="593.9,704.3 601.2,717.6 487.4,732.2 491.1,717.5 " />
		<path
   style="fill:#c6c6c6"
   id="path204"
   d="m 560.7,705.9 -0.5,-3.8 c -0.6,-4.6 -4.9,-7.9 -9.5,-7.3 l -20.4,2.6 c -4.6,0.6 -7.9,4.9 -7.3,9.5 l 0.5,3.8 37.2,-4.8 z" />
		<path
   style="fill:#c6c6c6"
   id="path206"
   d="m 594,696.8 -104.9,13.5 c -1.1,0.1 -1.8,1.1 -1.7,2.2 l 0.5,4.2 c 0.1,1.1 1.1,1.8 2.2,1.7 L 595,705 c 1.1,-0.1 1.8,-1.1 1.7,-2.2 l -0.5,-4.2 c -0.1,-1.1 -1.1,-1.9 -2.2,-1.8 z" />
		<path
   style="fill:#a18866"
   id="path208"
   d="m 515.1,728.7 2.7,-0.3 -1.7,-8.8 -1,9.1 z m 73.8,-13.4 0,3.8 1.7,-0.2 -1.7,-3.6 z m -68.1,12.6 2.1,-0.3 -1.5,-4 -0.6,4.3 z" />
	</g>
	<g
   id="g210">
		<path
   style="fill:#a1daf8"
   id="path212"
   d="m 1159.2,477.5 c -26.9,0 -43.7,8 -43.7,41.2 0,59.6 5.7,63.1 43.7,63.1 38,0 43.7,-3.5 43.7,-63.1 0,-33.2 -16.8,-41.2 -43.7,-41.2 z m 33.3,50 c -11.8,-7.7 -20.1,-22.1 -21.5,-38.9 16.2,2.3 21.6,10.6 21.6,30.1 -0.1,3.1 -0.1,6 -0.1,8.8 z" />
		<path
   style="fill:#0086cd"
   id="path214"
   d="m 1140.6,492.5 c 13.5,0 15.7,17.1 25.7,29.8 10,12.7 30.7,23.3 21.1,39.6 -7.2,12.2 -37.1,14.4 -49.4,4.4 -5.7,-4.7 -11.7,-15.8 -11.7,-35.3 0,-28.7 5,-38.5 14.3,-38.5 z" />
		<rect
   style="fill:#0086cd"
   id="rect216"
   height="11.7"
   width="33.5"
   y="467.39999"
   x="1142.5" />
		<rect
   style="fill:#0086cd"
   id="rect218"
   height="10.3"
   width="23.1"
   y="457.10001"
   x="1147.7" />
		<polygon
   style="fill:#0086cd"
   id="polygon220"
   points="1168.1,457.1 1167.1,444.9 1151.3,444.9 1150.3,457.1 " />
	</g>
	<g
   id="g222">
		<path
   style="fill:#d20a11"
   id="path224"
   d="m 1234.6,395 c -3,0 -5.5,-2.5 -5.5,-5.5 0,-3 2.5,-5.5 5.5,-5.5 l 127.8,0 c 3,0 5.5,2.5 5.5,5.5 0,3 -2.5,5.5 -5.5,5.5 l -127.8,0 z" />
		<path
   style="fill:#e30613"
   id="path226"
   d="m 1360.9,399 0.2,-4 -125.3,0 0.2,4 -4.9,0 0,15.6 5.8,0 6.3,107.5 c 0.3,4.6 4.3,8.4 8.9,8.4 l 92.5,0 c 4.6,0 8.7,-3.8 8.9,-8.4 l 6.3,-107.5 5.8,0 0,-15.6 -4.7,0 z" />
		<path
   style="fill:#c6c6c6"
   id="path228"
   d="m 1298.5,504.3 c -10,0 -20,-0.2 -21.5,-0.7 -15.5,-4.5 -29.5,-14.2 -39.3,-27.1 -10.2,-13.4 -15.5,-29.3 -15.5,-46.2 l 0,-15.8 c 0,-5 4,-9 9,-9 l 0,2.7 c -3.5,0 -6.3,2.8 -6.3,6.3 l 0,15.8 c 0,32.5 21.8,61.5 52.9,70.6 2.7,0.8 38.7,0.8 41.4,0 31.1,-9.1 52.9,-38.2 52.9,-70.6 l 0,-15.8 c 0,-3.5 -2.8,-6.3 -6.3,-6.3 l 0,-2.7 c 5,0 9,4 9,9 l 0,15.8 c 0,16.8 -5.4,32.8 -15.5,46.2 -9.8,12.9 -23.8,22.6 -39.3,27.1 -1.6,0.5 -11.5,0.7 -21.5,0.7 z" />
		<rect
   style="fill:#ae0f0a"
   id="rect230"
   height="8.1999998"
   width="42.200001"
   y="499.29999"
   x="1277.4" />
	</g>
	<polygon
   style="fill:#402a16"
   id="polygon232"
   points="880.8,651.5 835.4,595.2 880.8,538.9 " />
	<polygon
   style="fill:#402a16"
   id="polygon234"
   points="989.2,538.9 1034.7,595.2 989.2,651.5 " />
	<rect
   style="fill:#402a16"
   id="rect236"
   height="31.9"
   width="150"
   y="581.79999"
   x="869.70001" />
</g>
</svg>