<?xml version="1.0" encoding="UTF-8" standalone="no"?>
<svg
   xmlns:dc="http://purl.org/dc/elements/1.1/"
   xmlns:cc="http://creativecommons.org/ns#"
   xmlns:rdf="http://www.w3.org/1999/02/22-rdf-syntax-ns#"
   xmlns:svg="http://www.w3.org/2000/svg"
   xmlns="http://www.w3.org/2000/svg"
   id="svg2"
   xml:space="preserve"
   enable-background="new 0 0 1920 1080"
   viewBox="0 0 507.39999 270.81262"
   height="270.81262"
   width="507.39999"
   y="0px"
   x="0px"
   version="1.1"><metadata
   id="metadata334"><rdf:RDF><cc:Work
       rdf:about=""><dc:format>image/svg+xml</dc:format><dc:type
         rdf:resource="http://purl.org/dc/dcmitype/StillImage" /><dc:title></dc:title></cc:Work></rdf:RDF></metadata><defs
   id="defs332">
	
	
	
	
	
	
	
	
	
	
	
	
	
	
	
	
	
	
	
	
	
	
	
	
	
	
	
	
	
	
	
	
	
	
	
	
	
	
	
	
	
	
	
	
	
	
	
	
	
	
	
	
	
	
	
	
	
	
	
	
	
	
	
	
	
</defs>
<g
   transform="translate(-202.8,-122.78737)"
   id="Capa_2">
</g>
<g
   transform="translate(-202.8,-122.78737)"
   id="g112">
		<g
   id="g114">
			<rect
   x="224"
   y="231.89999"
   width="50.700001"
   height="161.7"
   id="rect116"
   style="fill:#854f33" />
			<rect
   x="638.29999"
   y="231.89999"
   width="50.700001"
   height="161.7"
   id="rect118"
   style="fill:#854f33" />
		</g>
		<rect
   x="202.8"
   y="202.3"
   width="507.39999"
   height="35.900002"
   id="rect120"
   style="fill:#956650" />
	</g><g
   transform="translate(-202.8,-122.78737)"
   id="g122">
		<polygon
   points="213.1,202.3 217.7,166.3 236.7,166.3 241.3,202.3 "
   id="polygon124"
   style="fill:#93989c" />
		<path
   d="m 227.5,172.8 -0.5,0 c -4.7,0 -8.5,-3.8 -8.5,-8.5 l 0,0 c 0,-4.7 3.8,-8.5 8.5,-8.5 l 0.5,0 c 4.7,0 8.5,3.8 8.5,8.5 l 0,0 c 0,4.7 -3.9,8.5 -8.5,8.5 z"
   id="path126"
   style="fill:#93989c" />
		<rect
   x="215.5"
   y="164.2"
   width="23.4"
   height="3.3"
   id="rect128"
   style="fill:#4b5157" />
		<circle
   cx="222.60001"
   cy="160.60001"
   r="1.1"
   id="circle130"
   style="fill:#373e46" />
		<circle
   cx="227"
   cy="158"
   r="1.1"
   id="circle132"
   style="fill:#373e46" />
		<circle
   cx="231.10001"
   cy="160.39999"
   r="1.1"
   id="circle134"
   style="fill:#373e46" />
	</g><g
   transform="translate(-202.8,-122.78737)"
   id="g136">
		<polygon
   points="246.4,202.3 251,166.3 270,166.3 274.6,202.3 "
   id="polygon138"
   style="fill:#6e747a" />
		<path
   d="m 260.8,172.8 -0.5,0 c -4.7,0 -8.5,-3.8 -8.5,-8.5 l 0,0 c 0,-4.7 3.8,-8.5 8.5,-8.5 l 0.5,0 c 4.7,0 8.5,3.8 8.5,8.5 l 0,0 c 0,4.7 -3.9,8.5 -8.5,8.5 z"
   id="path140"
   style="fill:#6e747a" />
		<rect
   x="248.8"
   y="164.2"
   width="23.4"
   height="3.3"
   id="rect142"
   style="fill:#4b5157" />
		<circle
   cx="255.89999"
   cy="160.60001"
   r="1.1"
   id="circle144"
   style="fill:#373e46" />
		<circle
   cx="260.29999"
   cy="158"
   r="1.1"
   id="circle146"
   style="fill:#373e46" />
		<circle
   cx="264.39999"
   cy="160.39999"
   r="1.1"
   id="circle148"
   style="fill:#373e46" />
	</g><g
   transform="translate(-202.8,-122.78737)"
   id="g150">
		<rect
   x="391"
   y="192.8"
   width="41.400002"
   height="9.5"
   id="rect152"
   style="fill:#86c879" />
		<rect
   x="338.70001"
   y="192.8"
   width="17.4"
   height="9.5"
   id="rect154"
   style="fill:#86c879" />
		<rect
   x="359.89999"
   y="192.8"
   width="17.4"
   height="9.5"
   id="rect156"
   style="fill:#86c879" />
	</g><g
   transform="translate(-202.8,-122.78737)"
   id="g158">
		<path
   d="m 661.3,134.5 c 0,-3.3 -2.7,-6 -6,-6 -3.3,0 -6,2.7 -6,6 0,3.3 2.7,6 6,6 3.4,0 6,-2.6 6,-6 z"
   id="path160"
   style="fill:#5e6369" />
		<path
   d="m 690.2,202.3 -69.7,0 c -7.3,0 -17.6,-9.6 -17.6,-22 l 0,-28.5 c 0,-13.9 38,-15.4 52.8,-15.4 14.6,0 52,1.3 52,15.4 l 0,28.5 c 0.1,11.2 -10.3,22 -17.5,22 z"
   id="path162"
   style="fill:#787e82" />
		<rect
   x="603.20001"
   y="150.5"
   width="104.3"
   height="9.8000002"
   id="rect164"
   style="fill:#373e46" />
		<path
   d="m 673.6,176.7 -36.6,0 c -2.1,0 -3.8,-1.7 -3.8,-3.8 l 0,0 c 0,-2.1 1.7,-3.8 3.8,-3.8 l 36.6,0 c 2.1,0 3.8,1.7 3.8,3.8 l 0,0 c 0.1,2.1 -1.7,3.8 -3.8,3.8 z"
   id="path166"
   style="fill:#373e46" />
	</g><g
   transform="translate(-202.8,-122.78737)"
   id="g202">
		<g
   id="g204">
			<path
   d="m 477.8,187 c 0,0 -6.1,-55.8 43.5,-58.3 51.2,-2.5 51.5,58.5 51.5,58.5 l -95,-0.2 z"
   id="path206"
   style="fill:#a15437" />
			<g
   id="g208">
				<path
   d="m 557.3,142.6 c 1.8,-1.5 5.7,-4.6 7.5,-6.1 0.3,-0.3 0.6,-0.6 0.8,-1 0.1,-0.4 0.1,-0.9 0,-1.3 -0.4,-2.3 -0.3,-4.7 0.6,-6.9 0.9,-2.1 2.8,-4 5.1,-4.4 2.3,-0.5 4.9,0.7 5.8,2.9 0.8,1.9 0.1,4.1 -1,5.9 3.7,-1 7.4,1.7 8.4,5.4 0.4,1.3 0.1,3.1 -0.5,4.3 -1.3,2.5 -3.2,3.5 -6.7,3.3 -1.4,-0.1 -3.3,-0.9 -4.5,-1.7 -0.7,-0.5 -1.4,-1.2 -2.2,-1.3 -0.9,-0.1 -1.8,0.5 -2.5,1 -2.6,2 -4.9,4.2 -7.1,6.6 -0.9,-1.9 -2.2,-4.1 -3.3,-5.8"
   id="path210"
   style="fill:#ecc19a" />
				<g
   id="g212">
					
						<ellipse
   transform="matrix(0.8235,-0.5674,0.5674,0.8235,3.5764,334.8091)"
   cx="539.79999"
   cy="161.7"
   rx="24.200001"
   ry="19.799999"
   id="ellipse214"
   style="fill:#a9634a" />
					<path
   d="m 553.8,143.9 8.7,-5.9 c 0,0 2.1,0.9 3.5,3 1.4,2.1 1.1,3.1 1.1,3.1 l -7.4,7.4 -5.9,-7.6 z"
   id="path216"
   style="fill:#a9634a" />
				</g>
			</g>
		</g>
		<g
   id="g218">
			<path
   d="m 472.9,184.7 c 0,0.2 0,0.3 0,0.5 0,9.8 23.6,17.7 52.7,17.7 29.1,0 52.7,-7.9 52.7,-17.7 0,-0.2 0,-0.4 0,-0.5 l -105.4,0 z"
   id="path220"
   style="fill:#f7a39b" />
		</g>
	</g>
</svg>