<?xml version="1.0" encoding="UTF-8" standalone="no"?>
<svg
   xmlns:dc="http://purl.org/dc/elements/1.1/"
   xmlns:cc="http://creativecommons.org/ns#"
   xmlns:rdf="http://www.w3.org/1999/02/22-rdf-syntax-ns#"
   xmlns:svg="http://www.w3.org/2000/svg"
   xmlns="http://www.w3.org/2000/svg"
   xmlns:sodipodi="http://sodipodi.sourceforge.net/DTD/sodipodi-0.dtd"
   xmlns:inkscape="http://www.inkscape.org/namespaces/inkscape"
   version="1.1"
   id="Capa_1"
   x="0px"
   y="0px"
   width="321.90799"
   height="308.94699"
   viewBox="0 0 321.90797 308.94699"
   inkscape:version="0.91 r13725"
   sodipodi:docname="fondoEstrella.svg">
  <metadata
     id="metadata57">
    <rdf:RDF>
      <cc:Work
         rdf:about="">
        <dc:format>image/svg+xml</dc:format>
        <dc:type
           rdf:resource="http://purl.org/dc/dcmitype/StillImage" />
      </cc:Work>
    </rdf:RDF>
  </metadata>
  <defs
     id="defs55" />
  <sodipodi:namedview
     pagecolor="#ffffff"
     bordercolor="#666666"
     borderopacity="1"
     objecttolerance="10"
     gridtolerance="10"
     guidetolerance="10"
     inkscape:pageopacity="0"
     inkscape:pageshadow="2"
     inkscape:window-width="1920"
     inkscape:window-height="1017"
     id="namedview53"
     showgrid="false"
     inkscape:zoom="2.7448074"
     inkscape:cx="160.95399"
     inkscape:cy="154.4735"
     inkscape:window-x="-8"
     inkscape:window-y="-8"
     inkscape:window-maximized="1"
     inkscape:current-layer="Capa_1" />
  <path
     style="fill:#cccccc"
     d="m 132.40762,299.242 c -1.47516,-4.56402 -5.7282,-18.01827 -9.45122,-29.89833 -3.72301,-11.88006 -6.96831,-21.81415 -7.21176,-22.07573 -0.24345,-0.2616 -17.302616,4.36267 -37.909264,10.27617 -20.606647,5.91348 -37.744224,10.47419 -38.083506,10.13491 -0.339281,-0.33928 5.591043,-16.6161 13.178497,-36.1707 7.587455,-19.5546 13.795372,-36.01317 13.795372,-36.57459 0,-0.56142 -13.990979,-5.33437 -31.091064,-10.60658 -17.100085,-5.2722 -32.1363134,-9.96781 -33.4138415,-10.43467 -1.75061999,-0.63974 4.29557,-5.49899 24.5455755,-19.727 14.777596,-10.38299 26.868356,-19.226 26.868356,-19.65115 0,-0.42513 -8.220424,-12.80228 -18.267608,-27.50477 C 25.319972,92.307075 17.278942,80.098372 17.498201,79.879114 c 0.219258,-0.219258 14.183347,0.489231 31.031308,1.574422 16.84796,1.08519 32.503409,1.97875 34.789885,1.985688 l 4.157232,0.01261 -0.761209,-39.272923 C 86.296752,22.578809 86.359809,4.9059939 86.855541,4.9059939 c 0.495733,0 15.113239,10.5783761 32.483359,23.5075041 l 31.58201,23.507504 8.4006,-10.743804 c 4.62032,-5.909093 13.49926,-17.343596 19.73098,-25.410008 l 11.33039,-14.666203 6.93763,26.44808 c 3.81569,14.546444 7.18308,27.149967 7.4831,28.007828 0.3707,1.060002 11.7205,-2.171015 35.4236,-10.084261 26.98453,-9.008746 34.68297,-11.13939 34.01577,-9.414333 -6.39947,16.546173 -26.60477,79.469769 -25.69753,80.027559 0.66911,0.41138 16.58641,6.28244 35.37178,13.04679 18.78536,6.76436 34.15521,12.65856 34.15521,13.09824 0,0.43967 -10.89795,7.7747 -24.21767,16.30007 -15.44066,9.88287 -23.8902,16.04804 -23.31412,17.011 0.75749,1.26622 29.45105,39.84979 33.52859,45.08513 1.06564,1.36824 -5.96111,1.51333 -37.5066,0.77447 l -38.81792,-0.90919 -0.13065,15.58924 c -0.23156,27.63558 -1.80824,68.36882 -2.68002,69.23853 -0.46586,0.46476 -13.13137,-9.19972 -28.1456,-21.47659 -15.01422,-12.27689 -27.70518,-22.18173 -28.20213,-22.01076 -0.49696,0.17097 -7.76966,10.03089 -16.16155,21.91095 -8.39191,11.88006 -15.72534,22.09429 -16.29654,22.6983 -0.57118,0.604 -2.24547,-2.63601 -3.72062,-7.20004 l 1e-5,0 z"
     id="path3385"
     inkscape:connector-curvature="0" />
</svg>
