<?xml version="1.0" encoding="UTF-8" standalone="no"?>
<svg
   xmlns:ns="&amp;ns_sfw;"
   xmlns:dc="http://purl.org/dc/elements/1.1/"
   xmlns:cc="http://creativecommons.org/ns#"
   xmlns:rdf="http://www.w3.org/1999/02/22-rdf-syntax-ns#"
   xmlns:svg="http://www.w3.org/2000/svg"
   xmlns="http://www.w3.org/2000/svg"
   xml:space="preserve"
   enable-background="new 0 0 1920 1079.999"
   viewBox="0 0 944.48645 223.84031"
   height="223.84032"
   width="944.48645"
   y="0px"
   x="0px"
   id="Capa_1"
   version="1.1"><defs
   id="defs619" />
<metadata
   id="metadata3">
	<ns:sfw>
		<ns:slices />
		<ns:sliceSourceBounds
   x="-3929.9"
   y="-3708.787"
   bottomLeftOrigin="true"
   height="6537.133"
   width="10715.002" />
	</ns:sfw>
<rdf:RDF><cc:Work
     rdf:about=""><dc:format>image/svg+xml</dc:format><dc:type
       rdf:resource="http://purl.org/dc/dcmitype/StillImage" /><dc:title></dc:title></cc:Work></rdf:RDF></metadata>
<polygon
   transform="translate(-734.53977,-455.73001)"
   style="fill:#ef842e;stroke:#000000;stroke-width:2;stroke-miterlimit:10"
   id="polygon5"
   points="1496.228,592.112 1496.228,628.633 1464.162,628.633 1464.162,618.875 1476.708,592.112 "
   stroke-miterlimit="10" />
<polyline
   transform="translate(-734.53977,-455.73001)"
   style="fill:none;stroke:#000000;stroke-width:2;stroke-linecap:round;stroke-linejoin:round;stroke-miterlimit:10"
   id="polyline7"
   points="  1536.549,624.568 1494.346,557.42 1605.957,487.785 "
   stroke-miterlimit="10" />
<g
   transform="translate(-734.53977,-455.73001)"
   id="g9">
	<g
   id="g11">
		<path
   style="clip-rule:evenodd;fill:#8a8a8a;fill-rule:evenodd"
   id="path13"
   d="m 249.779,301.245 c 1.148,0 2.086,-0.937 2.086,-2.086 0,-1.147 -0.938,-2.085 -2.086,-2.085 -1.147,0 -2.085,0.938 -2.085,2.085 0,1.15 0.938,2.086 2.085,2.086 z" />
		<path
   style="fill:#ffeac7"
   id="path15"
   d="m 222.655,423.236 c 0,2.848 -2.309,5.154 -5.154,5.154 l 0,0 c -2.846,0 -5.155,-2.307 -5.155,-5.154 l 0,-8.246 c 0,-2.846 2.309,-5.154 5.155,-5.154 l 0,0 c 2.845,0 5.154,2.309 5.154,5.154 l 0,8.246 z" />
		<path
   style="fill:#ffeac7"
   id="path17"
   d="m 285.107,423.236 c 0,2.848 -2.306,5.154 -5.153,5.154 l 0,0 c -2.847,0 -5.155,-2.307 -5.155,-5.154 l 0,-8.246 c 0,-2.846 2.309,-5.154 5.155,-5.154 l 0,0 c 2.848,0 5.153,2.309 5.153,5.154 l 0,8.246 z" />
		<path
   style="clip-rule:evenodd;fill:#b3b4b6;fill-rule:evenodd"
   id="path19"
   d="m 275.57,353.671 c -4.558,-3.001 -14.771,-5.091 -26.645,-5.091 -11.82,0 -21.988,2.07 -26.58,5.047 -7.741,4.496 -11.273,18.96 -11.273,33.325 l 0,27.885 13.745,0 0,-27.885 c 0,-9.455 3.05,-15.346 4.961,-18.309 l 0,51.501 38.124,0 0,-50.692 c 2.102,3.17 5.123,8.838 5.123,17.5 l 0,27.885 13.746,0 0,-27.885 c 0,-14.321 -3.511,-28.735 -11.201,-33.281 z" />
		<ellipse
   style="clip-rule:evenodd;fill:#ffeac7;fill-rule:evenodd"
   id="ellipse21"
   ry="16.723"
   rx="16.264999"
   cy="327.832"
   cx="249.23" />
		<path
   style="clip-rule:evenodd;fill:#7e6055;fill-rule:evenodd"
   id="path23"
   d="m 235.629,323.146 c 1.669,-1.92 3.792,-3.26 5.652,-4.977 1.283,-1.184 3.449,-1.38 4.707,0 2.807,3.085 8.039,5.88 12.038,3.446 1.587,-0.961 3.61,-0.32 4.555,1.196 0.441,0.707 1.539,1.324 2.618,1.865 -1.434,-7.729 -8.037,-13.567 -15.972,-13.567 -8.749,0 -15.885,7.106 -16.246,16.012 1.032,-1.17 1.654,-2.823 2.648,-3.975 z" />
		<ellipse
   style="clip-rule:evenodd;fill:#ffeac7;fill-rule:evenodd"
   id="ellipse25"
   ry="4.3839998"
   rx="1.721"
   cy="328.37601"
   cx="265.776" />
		<ellipse
   style="clip-rule:evenodd;fill:#ffeac7;fill-rule:evenodd"
   id="ellipse27"
   ry="4.3839998"
   rx="1.722"
   cy="328.37601"
   cx="233.04601" />
		<path
   style="clip-rule:evenodd;fill:#b3b4b6;fill-rule:evenodd"
   id="path29"
   d="m 266.954,318.135 c -0.019,-0.133 -0.05,-0.268 -0.093,-0.404 -0.293,-0.933 -1.064,-3.709 -1.064,-4.72 0,-7.88 -7.375,-14.271 -16.473,-14.271 -9.098,0 -16.47,6.391 -16.47,14.271 0,0.889 -0.802,3.601 -1.363,5.124 l 35.463,0 z" />
		<path
   style="clip-rule:evenodd;fill:#8a8a8a;fill-rule:evenodd"
   id="path31"
   d="m 269.426,318.205 c 0,0.974 -0.788,1.763 -1.762,1.763 l -36.427,0 c -0.974,0 -1.763,-0.789 -1.763,-1.763 l 0,0 c 0,-0.974 0.789,-1.761 1.763,-1.761 l 36.427,0 c 0.974,0 1.762,0.787 1.762,1.761 l 0,0 z" />
		<path
   style="fill:#a5a6a8"
   id="path33"
   d="m 268.216,420.276 -0.294,-0.996 -38.144,0 0,3.478 c -9.079,22.455 -10.133,65.226 -9.728,79.415 l 17.174,-0.49 c -0.594,-20.809 3.579,-52.265 9.994,-68.042 l 5.562,0 c 6.193,15.991 9.653,47.434 9.065,68.042 l 17.171,0.49 c 0.423,-14.734 -0.728,-60.272 -10.8,-81.897 z" />
		<path
   style="fill:#524c40"
   id="path35"
   d="m 239.523,506.731 c 0.187,-0.577 0.29,-1.192 0.29,-1.834 0,-3.289 -2.663,-5.954 -5.954,-5.954 l -10.285,0 c -3.29,0 -5.958,2.665 -5.958,5.954 0,0.642 0.103,1.257 0.289,1.834 l 21.618,0 z" />
		<path
   style="fill:#524c40"
   id="path37"
   d="m 281.672,506.731 c 0.188,-0.577 0.291,-1.192 0.291,-1.834 0,-3.289 -2.667,-5.954 -5.957,-5.954 l -10.285,0 c -3.29,0 -5.955,2.665 -5.955,5.954 0,0.642 0.104,1.257 0.289,1.834 l 21.617,0 z" />
		<path
   style="fill:#8a8a8a"
   id="path39"
   d="m 279.27,478.162 c -0.393,-7.444 -1.038,-15.661 -2.076,-23.774 l -19.77,0 c 1.35,7.576 2.355,15.801 2.994,23.774 l 18.852,0 z" />
		<path
   style="fill:#8a8a8a"
   id="path41"
   d="m 238.849,478.162 c 0.743,-7.952 1.876,-16.186 3.354,-23.774 l -20.324,0 c -1.032,8.118 -1.681,16.339 -2.07,23.774 l 19.04,0 z" />
		<path
   style="clip-rule:evenodd;fill:#8a8a8a;fill-rule:evenodd"
   id="path43"
   d="m 225.506,396.779 0,-9.827 c 0,-2.578 0.24,-5.025 0.692,-7.354 l -15.495,0 c -0.216,2.485 -0.316,4.963 -0.316,7.354 l 0,9.827 15.119,0 z" />
		<path
   style="clip-rule:evenodd;fill:#8a8a8a;fill-rule:evenodd"
   id="path45"
   d="m 272.344,396.779 15.116,0 0,-9.827 c 0,-2.388 -0.104,-4.868 -0.319,-7.354 l -15.609,0 c 0.533,2.333 0.812,4.772 0.812,7.354 l 0,9.827 z" />
		<path
   style="clip-rule:evenodd;fill:#f4f5f4;fill-rule:evenodd"
   id="path47"
   d="m 260.572,349.297 c -3.574,-0.456 -7.503,-0.716 -11.646,-0.716 -3.906,0 -7.628,0.23 -11.035,0.639 l 0,66.114 22.682,0 0,-66.037 z" />
		<path
   style="fill:#ffeac7"
   id="path49"
   d="m 241.866,348.821 c -0.007,0.108 0.042,0.447 0.042,0.558 0,2.846 3.103,5.152 6.924,5.152 3.821,0 6.93,-2.831 6.93,-5.677 0,0 -3.41,-0.266 -6.836,-0.274 -3.464,-0.01 -6.944,0.232 -7.06,0.241 z" />
		<rect
   style="fill:#563b3f"
   id="rect51"
   height="7.3319998"
   width="40.775002"
   y="415.56"
   x="228.84" />
		<g
   id="g53">
			<g
   id="g55">
				<g
   id="g57">
					<path
   style="fill:#e0b28d"
   id="path59"
   d="m 254.53,424.211 -10.066,0 0,-10.284 10.066,0 0,10.284 z m -8.692,-1.376 7.317,0 0,-7.533 -7.317,0 0,7.533 z" />
				</g>
				<g
   id="g61">
					<rect
   style="fill:#e0b28d"
   id="rect63"
   height="2.243"
   width="4.5250001"
   y="417.948"
   x="250.873" />
				</g>
			</g>
		</g>
		<polygon
   style="fill:#8a8a8a"
   id="polygon65"
   points="263.088,348.217 263.548,416.062 258.965,415.604 255.762,348.217 " />
		<polygon
   style="fill:#8a8a8a"
   id="polygon67"
   points="234.225,348.217 233.311,415.794 237.891,415.334 241.556,348.217 " />
	</g>
	<g
   style="opacity:0.5"
   id="g69">
		<path
   style="clip-rule:evenodd;fill:#8a8a8a;fill-rule:evenodd"
   id="path71"
   d="m 249.779,297.074 c -0.412,0 -0.797,0.124 -1.124,0.336 l 0,3.499 c 0.327,0.211 0.712,0.336 1.124,0.336 1.148,0 2.086,-0.937 2.086,-2.086 0,-1.147 -0.937,-2.085 -2.086,-2.085 z" />
		<path
   style="fill:#ffeac7"
   id="path73"
   d="m 285.107,423.236 c 0,2.848 -2.306,5.154 -5.153,5.154 l 0,0 c -2.847,0 -5.155,-2.307 -5.155,-5.154 l 0,-8.246 c 0,-2.846 2.309,-5.154 5.155,-5.154 l 0,0 c 2.848,0 5.153,2.309 5.153,5.154 l 0,8.246 z" />
		<path
   style="clip-rule:evenodd;fill:#b3b4b6;fill-rule:evenodd"
   id="path75"
   d="m 275.57,353.671 c -4.558,-3.001 -14.771,-5.091 -26.645,-5.091 -0.091,0 -0.182,0.001 -0.271,0.003 l 0,71.562 19.247,0 0,-50.692 c 2.102,3.17 5.123,8.838 5.123,17.5 l 0,27.885 13.746,0 0,-27.885 c 0.001,-14.322 -3.51,-28.736 -11.2,-33.282 z" />
		<path
   style="clip-rule:evenodd;fill:#ffeac7;fill-rule:evenodd"
   id="path77"
   d="m 249.228,311.11 c -0.192,0 -0.38,0.008 -0.572,0.015 l 0,33.413 c 0.192,0.008 0.38,0.017 0.572,0.017 8.981,0 16.268,-7.486 16.268,-16.723 -10e-4,-9.235 -7.287,-16.722 -16.268,-16.722 z" />
		<path
   style="clip-rule:evenodd;fill:#7e6055;fill-rule:evenodd"
   id="path79"
   d="m 249.228,311.11 c -0.192,0 -0.38,0.008 -0.572,0.015 l 0,9.334 c 2.824,1.902 6.427,2.947 9.371,1.157 1.587,-0.961 3.61,-0.32 4.555,1.196 0.441,0.707 1.539,1.324 2.618,1.865 -1.434,-7.728 -8.038,-13.567 -15.972,-13.567 z" />
		<ellipse
   style="clip-rule:evenodd;fill:#ffeac7;fill-rule:evenodd"
   id="ellipse81"
   ry="4.3839998"
   rx="1.721"
   cy="328.37601"
   cx="265.776" />
		<path
   style="clip-rule:evenodd;fill:#b3b4b6;fill-rule:evenodd"
   id="path83"
   d="m 248.655,318.135 18.299,0 c -0.019,-0.133 -0.05,-0.268 -0.093,-0.404 -0.293,-0.933 -1.064,-3.709 -1.064,-4.72 0,-7.88 -7.375,-14.271 -16.473,-14.271 -0.223,0 -0.445,0.007 -0.669,0.014 l 0,19.381 z" />
		<path
   style="clip-rule:evenodd;fill:#8a8a8a;fill-rule:evenodd"
   id="path85"
   d="m 267.664,316.444 -19.009,0 0,3.523 19.009,0 c 0.974,0 1.762,-0.789 1.762,-1.763 0,-0.974 -0.788,-1.76 -1.762,-1.76 z" />
		<path
   style="fill:#a5a6a8"
   id="path87"
   d="m 268.216,420.276 -0.294,-0.996 -19.267,0 0,14.36 4.125,0 c 6.193,15.991 9.653,47.434 9.065,68.042 l 17.171,0.49 c 0.423,-14.733 -0.728,-60.271 -10.8,-81.896 z" />
		<path
   style="fill:#524c40"
   id="path89"
   d="m 281.672,506.731 c 0.188,-0.577 0.291,-1.192 0.291,-1.834 0,-3.289 -2.667,-5.954 -5.957,-5.954 l -10.285,0 c -3.29,0 -5.955,2.665 -5.955,5.954 0,0.642 0.104,1.257 0.289,1.834 l 21.617,0 z" />
		<path
   style="fill:#8a8a8a"
   id="path91"
   d="m 279.27,478.162 c -0.393,-7.444 -1.038,-15.661 -2.076,-23.774 l -19.77,0 c 1.35,7.576 2.355,15.801 2.994,23.774 l 18.852,0 z" />
		<path
   style="clip-rule:evenodd;fill:#8a8a8a;fill-rule:evenodd"
   id="path93"
   d="m 272.344,396.779 15.116,0 0,-9.827 c 0,-2.388 -0.104,-4.868 -0.319,-7.354 l -15.609,0 c 0.533,2.333 0.812,4.772 0.812,7.354 l 0,9.827 z" />
		<path
   style="clip-rule:evenodd;fill:#f4f5f4;fill-rule:evenodd"
   id="path95"
   d="m 248.926,348.581 c -0.091,0 -0.182,0.002 -0.271,0.002 l 0,66.751 11.917,0 0,-66.037 c -3.574,-0.456 -7.503,-0.716 -11.646,-0.716 z" />
		<path
   style="fill:#ffeac7"
   id="path97"
   d="m 248.926,348.58 c -0.091,0 -0.182,0.001 -0.271,0.001 l 0,5.942 c 0.06,0.002 0.117,0.008 0.177,0.008 3.821,0 6.93,-2.831 6.93,-5.677 0,0 -3.41,-0.265 -6.836,-0.274 z" />
		<rect
   style="fill:#563b3f"
   id="rect99"
   height="7.3319998"
   width="20.959999"
   y="415.56"
   x="248.655" />
		<g
   id="g101">
			<g
   id="g103">
				<g
   id="g105">
					<polygon
   style="fill:#e0b28d"
   id="polygon107"
   points="253.155,422.835 248.655,422.835 248.655,424.211 254.53,424.211 254.53,413.927 248.655,413.927 248.655,415.302 253.155,415.302 " />
				</g>
				<g
   id="g109">
					<rect
   style="fill:#e0b28d"
   id="rect111"
   height="2.243"
   width="4.5250001"
   y="417.948"
   x="250.873" />
				</g>
			</g>
		</g>
		<polygon
   style="fill:#8a8a8a"
   id="polygon113"
   points="263.088,348.217 263.548,416.062 258.965,415.604 255.762,348.217 " />
	</g>
</g>
<polygon
   transform="translate(-734.53977,-455.73001)"
   style="fill:none"
   id="polygon115"
   points="628.424,1033.251 628.092,1033.76 628.436,1033.257 628.43,1033.251 " />
<g
   transform="translate(-734.53977,-455.73001)"
   id="g117">
	<path
   id="path119"
   d="m 183.551,555.898 0.408,0 c 0.168,0 0.252,-0.096 0.264,-0.264 l 0.576,-7.173 1.235,0 1.991,4.486 c 0.204,0.455 0.42,1.067 0.42,1.067 l 0.024,0 c 0,0 0.216,-0.612 0.42,-1.067 l 1.991,-4.486 1.235,0 0.576,7.173 c 0.012,0.168 0.096,0.264 0.264,0.264 l 0.396,0 0,1.031 -1.067,0 c -0.54,0 -0.732,-0.228 -0.768,-0.768 l -0.348,-4.474 c -0.036,-0.504 -0.024,-1.247 -0.024,-1.247 l -0.024,0 c 0,0 -0.24,0.791 -0.444,1.247 l -1.715,3.718 -1.007,0 -1.715,-3.718 c -0.204,-0.443 -0.456,-1.259 -0.456,-1.259 l -0.024,0 c 0,0 0.012,0.755 -0.024,1.259 l -0.336,4.474 c -0.036,0.54 -0.228,0.768 -0.78,0.768 l -1.067,0 0,-1.031 z" />
	<path
   id="path121"
   d="m 197.29,550.717 c 1.811,0 3.274,1.332 3.274,3.167 0,1.847 -1.463,3.189 -3.274,3.189 -1.811,0 -3.262,-1.343 -3.262,-3.189 -0.001,-1.835 1.451,-3.167 3.262,-3.167 z m 0,5.349 c 1.151,0 2.087,-0.912 2.087,-2.183 0,-1.26 -0.936,-2.159 -2.087,-2.159 -1.139,0 -2.075,0.899 -2.075,2.159 0,1.271 0.935,2.183 2.075,2.183 z" />
	<path
   id="path123"
   d="m 204.19,550.717 c 1.403,0 1.871,0.936 1.871,0.936 l 0.024,0 c 0,0 -0.024,-0.18 -0.024,-0.407 l 0,-1.523 c 0,-0.18 -0.096,-0.264 -0.264,-0.264 l -0.492,0 0,-0.996 1.151,0 c 0.54,0 0.768,0.229 0.768,0.768 l 0,6.44 c 0,0.181 0.096,0.265 0.264,0.265 l 0.492,0 0,0.995 -1.115,0 c -0.528,0 -0.744,-0.24 -0.744,-0.647 0,-0.18 0.012,-0.312 0.012,-0.312 l -0.024,0 c 0,0 -0.504,1.104 -1.991,1.104 -1.643,0 -2.674,-1.295 -2.674,-3.178 -10e-4,-1.933 1.139,-3.181 2.746,-3.181 z m 1.907,3.167 c 0,-1.08 -0.563,-2.159 -1.727,-2.159 -0.947,0 -1.739,0.792 -1.739,2.171 0,1.319 0.708,2.171 1.715,2.171 0.899,-10e-4 1.751,-0.636 1.751,-2.183 z" />
	<path
   id="path125"
   d="m 209.099,555.694 1.188,0 0,1.235 -1.188,0 0,-1.235 z" />
	<path
   id="path127"
   d="m 219.128,550.765 c 0,-0.779 -0.576,-1.343 -1.487,-1.343 -0.756,0 -1.308,0.384 -1.308,0.804 l 0,0.371 -1.104,0 0,-0.719 c 0,-1.104 1.476,-1.56 2.459,-1.56 1.547,0 2.663,0.983 2.663,2.435 0,2.914 -4.294,2.963 -4.294,4.917 0,0.168 0.096,0.229 0.3,0.229 l 3.011,0 c 0.167,0 0.264,-0.096 0.264,-0.264 l 0,-0.54 1.104,0 0,1.067 c 0,0.54 -0.228,0.768 -0.768,0.768 l -4.342,0 c -0.66,0 -0.804,-0.288 -0.804,-0.972 0.001,-3.118 4.306,-2.902 4.306,-5.193 z" />
	<path
   id="path129"
   d="m 222.418,550.861 1.188,0 0,1.235 -1.188,0 0,-1.235 z m 0,4.833 1.188,0 0,1.235 -1.188,0 0,-1.235 z" />
	<path
   id="path131"
   d="m 232.688,548.318 c 2.027,0 3.022,1.044 3.022,1.044 l -0.684,0.875 c 0,0 -0.912,-0.815 -2.315,-0.815 -1.691,0 -3.046,1.355 -3.046,3.238 0,1.967 1.355,3.286 3.07,3.286 1.511,0 2.411,-1.056 2.411,-1.056 l 0,-0.852 c 0,-0.168 -0.096,-0.264 -0.264,-0.264 l -0.516,0 0,-1.031 1.115,0 c 0.54,0 0.768,0.228 0.768,0.768 l 0,3.418 -1.055,0 0,-0.527 c 0,-0.181 0.012,-0.36 0.012,-0.36 l -0.024,0 c 0,0 -0.948,1.031 -2.639,1.031 -2.255,0 -4.125,-1.774 -4.125,-4.413 0.001,-2.434 1.848,-4.342 4.27,-4.342 z" />
	<path
   id="path133"
   d="m 237.995,549.494 -0.78,0 0,-1.032 4.978,0 c 0.54,0 0.768,0.229 0.768,0.768 l 0,1.067 -1.091,0 0,-0.539 c 0,-0.18 -0.096,-0.264 -0.264,-0.264 l -2.411,0 0,2.65 2.962,0 0,1.031 -2.962,0 0,2.459 c 0,0.168 0.096,0.264 0.264,0.264 l 2.47,0 c 0.168,0 0.264,-0.096 0.264,-0.264 l 0,-0.54 1.104,0 0,1.067 c 0,0.54 -0.228,0.768 -0.768,0.768 l -3.766,0 c -0.54,0 -0.768,-0.228 -0.768,-0.768 l 0,-6.667 z" />
	<path
   id="path135"
   d="m 244.031,555.898 0.516,0 c 0.167,0 0.264,-0.096 0.264,-0.264 l 0,-7.173 1.091,0 3.766,5.361 c 0.312,0.456 0.708,1.151 0.708,1.151 l 0.024,0 c 0,0 -0.084,-0.672 -0.084,-1.151 l 0,-4.594 c 0,-0.539 0.228,-0.768 0.78,-0.768 l 1.199,0 0,1.032 -0.516,0 c -0.168,0 -0.264,0.084 -0.264,0.264 l 0,7.172 -1.079,0 -3.778,-5.361 c -0.312,-0.455 -0.696,-1.151 -0.696,-1.151 l -0.024,0 c 0,0 0.072,0.684 0.072,1.151 l 0,4.594 c 0,0.54 -0.228,0.768 -0.768,0.768 l -1.211,0 0,-1.031 z" />
	<path
   id="path137"
   d="m 253.991,549.494 -0.78,0 0,-1.032 4.978,0 c 0.54,0 0.768,0.229 0.768,0.768 l 0,1.067 -1.091,0 0,-0.539 c 0,-0.18 -0.096,-0.264 -0.264,-0.264 l -2.411,0 0,2.65 2.962,0 0,1.031 -2.962,0 0,2.459 c 0,0.168 0.096,0.264 0.264,0.264 l 2.47,0 c 0.168,0 0.264,-0.096 0.264,-0.264 l 0,-0.54 1.104,0 0,1.067 c 0,0.54 -0.228,0.768 -0.768,0.768 l -3.766,0 c -0.54,0 -0.768,-0.228 -0.768,-0.768 l 0,-6.667 z" />
	<path
   id="path139"
   d="m 260.807,549.494 -0.78,0 0,-1.032 3.694,0 c 1.487,0 2.53,0.936 2.53,2.483 0,1.415 -0.923,2.11 -1.523,2.242 l 0,0.024 c 0,0 0.216,0.107 0.36,0.384 l 1.02,2.026 c 0.12,0.252 0.312,0.276 0.6,0.276 l 0.156,0 0,1.031 -0.588,0 c -0.659,0 -0.899,-0.084 -1.175,-0.636 l -1.151,-2.278 c -0.216,-0.396 -0.372,-0.456 -0.839,-0.456 l -1.104,0 0,3.37 -1.199,0 0,-7.434 z m 2.758,3.034 c 0.912,0 1.451,-0.588 1.451,-1.535 0,-0.947 -0.54,-1.499 -1.427,-1.499 l -1.583,0 0,3.034 1.559,0 z" />
	<path
   id="path141"
   d="m 267.251,555.898 0.168,0 c 0.216,0 0.324,-0.048 0.396,-0.264 l 2.65,-7.173 1.26,0 2.65,7.173 c 0.072,0.216 0.192,0.264 0.396,0.264 l 0.18,0 0,1.031 -0.672,0 c -0.6,0 -0.792,-0.144 -0.983,-0.695 l -0.636,-1.739 -3.118,0 -0.636,1.739 c -0.204,0.552 -0.396,0.695 -0.995,0.695 l -0.66,0 0,-1.031 z m 5.109,-2.411 -0.923,-2.578 c -0.156,-0.444 -0.336,-1.188 -0.336,-1.188 l -0.024,0 c 0,0 -0.168,0.743 -0.324,1.188 l -0.923,2.578 2.53,0 z" />
	<path
   id="path143"
   d="m 276.322,549.758 c 0,-0.18 -0.096,-0.264 -0.264,-0.264 l -0.516,0 0,-1.032 1.211,0 c 0.54,0 0.768,0.229 0.768,0.768 l 0,6.405 c 0,0.168 0.096,0.264 0.264,0.264 l 2.338,0 c 0.168,0 0.264,-0.096 0.264,-0.264 l 0,-0.54 1.091,0 0,1.067 c 0,0.54 -0.228,0.768 -0.768,0.768 l -3.622,0 c -0.54,0 -0.768,-0.228 -0.768,-0.768 l 0,-6.404 z" />
	<path
   id="path145"
   d="m 282.107,555.898 0.827,0 0,-6.404 -0.827,0 0,-1.032 2.794,0 0,1.032 -0.828,0 0,6.404 0.828,0 0,1.031 -2.794,0 0,-1.031 z" />
	<path
   id="path147"
   d="m 286.642,549.494 -0.78,0 0,-1.032 3.43,0 c 2.579,0 4.282,1.548 4.282,4.222 0,2.687 -1.703,4.246 -4.282,4.246 l -1.883,0 c -0.54,0 -0.768,-0.228 -0.768,-0.768 l 0,-6.668 z m 1.463,6.404 1.103,0 c 1.883,0 3.119,-1.128 3.119,-3.215 0,-2.074 -1.248,-3.189 -3.119,-3.189 l -1.367,0 0,6.141 c 0,0.168 0.097,0.263 0.264,0.263 z" />
	<path
   id="path149"
   d="m 293.975,555.898 0.168,0 c 0.216,0 0.324,-0.048 0.396,-0.264 l 2.651,-7.173 1.259,0 2.65,7.173 c 0.072,0.216 0.192,0.264 0.396,0.264 l 0.18,0 0,1.031 -0.672,0 c -0.6,0 -0.792,-0.144 -0.983,-0.695 l -0.636,-1.739 -3.118,0 -0.636,1.739 c -0.204,0.552 -0.396,0.695 -0.995,0.695 l -0.66,0 0,-1.031 z m 5.109,-2.411 -0.923,-2.578 c -0.156,-0.444 -0.336,-1.188 -0.336,-1.188 l -0.024,0 c 0,0 -0.168,0.743 -0.324,1.188 l -0.923,2.578 2.53,0 z" />
	<path
   id="path151"
   d="m 303.046,549.494 -0.78,0 0,-1.032 3.43,0 c 2.579,0 4.282,1.548 4.282,4.222 0,2.687 -1.703,4.246 -4.282,4.246 l -1.883,0 c -0.54,0 -0.768,-0.228 -0.768,-0.768 l 0,-6.668 z m 1.464,6.404 1.103,0 c 1.883,0 3.119,-1.128 3.119,-3.215 0,-2.074 -1.248,-3.189 -3.119,-3.189 l -1.367,0 0,6.141 c 0,0.168 0.096,0.263 0.264,0.263 z" />
	<path
   id="path153"
   d="m 311.626,549.494 -0.78,0 0,-1.032 4.978,0 c 0.54,0 0.768,0.229 0.768,0.768 l 0,1.067 -1.092,0 0,-0.539 c 0,-0.18 -0.096,-0.264 -0.264,-0.264 l -2.411,0 0,2.65 2.962,0 0,1.031 -2.962,0 0,2.459 c 0,0.168 0.096,0.264 0.264,0.264 l 2.47,0 c 0.168,0 0.264,-0.096 0.264,-0.264 l 0,-0.54 1.104,0 0,1.067 c 0,0.54 -0.228,0.768 -0.768,0.768 l -3.766,0 c -0.54,0 -0.768,-0.228 -0.768,-0.768 l 0,-6.667 z" />
	<path
   id="path155"
   d="m 318.322,554.963 c 0,0 0.864,1.02 2.123,1.02 0.792,0 1.451,-0.479 1.451,-1.26 0,-1.774 -4.09,-1.499 -4.09,-4.138 0,-1.271 1.115,-2.267 2.71,-2.267 0.899,0 2.411,0.408 2.411,1.56 l 0,0.695 -1.103,0 0,-0.396 c 0,-0.444 -0.636,-0.768 -1.308,-0.768 -0.912,0 -1.487,0.503 -1.487,1.139 0,1.716 4.078,1.332 4.078,4.114 0,1.295 -1.007,2.41 -2.687,2.41 -1.799,0 -2.807,-1.259 -2.807,-1.259 l 0.709,-0.85 z" />
	<path
   id="path157"
   d="m 184.271,569.387 c 0,0 0.839,0.96 2.147,0.96 0.911,0 1.679,-0.636 1.679,-1.547 0,-0.948 -0.839,-1.512 -1.823,-1.512 l -0.6,0 -0.252,-0.636 1.763,-2.219 c 0.252,-0.359 0.492,-0.552 0.492,-0.552 l 0,-0.023 c 0,0 -0.252,0.036 -0.72,0.036 l -1.631,0 c -0.167,0 -0.264,0.084 -0.264,0.264 l 0,0.539 -1.104,0 0,-1.067 c 0,-0.539 0.192,-0.768 0.732,-0.768 l 4.461,0 0,0.756 -2.231,2.687 c 1.104,0.12 2.399,0.852 2.399,2.482 0,1.416 -1.14,2.687 -2.902,2.687 -1.763,0 -2.794,-1.187 -2.794,-1.187 l 0.648,-0.9 z" />
	<path
   id="path159"
   d="m 190.643,570.095 1.188,0 0,1.235 -1.188,0 0,-1.235 z" />
	<path
   id="path161"
   d="m 197.146,563.895 -0.78,0 0,-1.032 3.43,0 c 2.579,0 4.282,1.548 4.282,4.222 0,2.687 -1.703,4.246 -4.282,4.246 l -1.883,0 c -0.54,0 -0.768,-0.228 -0.768,-0.768 l 0,-6.668 z m 1.464,6.404 1.103,0 c 1.883,0 3.119,-1.128 3.119,-3.215 0,-2.074 -1.248,-3.189 -3.119,-3.189 l -1.367,0 0,6.141 c 0,0.167 0.096,0.263 0.264,0.263 z" />
	<path
   id="path163"
   d="m 208.029,565.117 c 1.703,0 2.615,1.271 2.615,2.843 0,0.156 -0.036,0.479 -0.036,0.479 l -4.425,0 c 0.072,1.296 1.007,2.027 2.086,2.027 1.043,0 1.775,-0.708 1.775,-0.708 l 0.503,0.828 c 0,0 -0.899,0.887 -2.338,0.887 -1.919,0 -3.227,-1.379 -3.227,-3.178 0.001,-1.93 1.32,-3.178 3.047,-3.178 z m 1.415,2.471 c -0.036,-1.007 -0.671,-1.547 -1.427,-1.547 -0.888,0 -1.607,0.54 -1.787,1.547 l 3.214,0 z" />
	<path
   id="path165"
   d="m 212.195,566.197 -0.756,0 0,-0.936 0.756,0 0,-0.204 c 0,-2.003 1.523,-2.255 2.291,-2.255 0.264,0 0.444,0.036 0.444,0.036 l 0,0.995 c 0,0 -0.132,-0.023 -0.324,-0.023 -0.456,0 -1.248,0.155 -1.248,1.283 l 0,0.168 3.059,0 c 0.54,0 0.768,0.228 0.768,0.768 l 0,4.041 c 0,0.181 0.096,0.265 0.264,0.265 l 0.492,0 0,0.995 -1.141,0 c -0.552,0 -0.78,-0.228 -0.78,-0.768 l 0,-4.102 c 0,-0.168 -0.096,-0.264 -0.264,-0.264 l -2.399,0 0,5.133 -1.163,0 0,-5.132 z m 3.849,-3.335 1.056,0 0,1.212 -1.056,0 0,-1.212 z" />
	<path
   id="path167"
   d="m 219.275,566.521 c 0,-0.18 -0.096,-0.264 -0.264,-0.264 l -0.492,0 0,-0.995 1.116,0 c 0.516,0 0.768,0.228 0.768,0.671 l 0,0.229 c 0,0.191 -0.024,0.348 -0.024,0.348 l 0.024,0 c 0.24,-0.527 0.959,-1.392 2.279,-1.392 1.439,0 2.086,0.78 2.086,2.327 l 0,2.626 c 0,0.181 0.096,0.265 0.264,0.265 l 0.492,0 0,0.995 -1.151,0 c -0.54,0 -0.768,-0.228 -0.768,-0.768 l 0,-2.854 c 0,-0.852 -0.168,-1.523 -1.14,-1.523 -0.935,0 -1.679,0.612 -1.919,1.487 -0.084,0.24 -0.108,0.516 -0.108,0.815 l 0,2.843 -1.163,0 0,-4.81 z" />
	<path
   id="path169"
   d="m 226.847,566.521 c 0,-0.18 -0.096,-0.264 -0.264,-0.264 l -0.492,0 0,-0.995 1.14,0 c 0.54,0 0.768,0.228 0.768,0.768 l 0,4.041 c 0,0.181 0.096,0.265 0.264,0.265 l 0.492,0 0,0.995 -1.139,0 c -0.54,0 -0.768,-0.228 -0.768,-0.768 l 0,-4.042 z m 0.024,-3.659 1.043,0 0,1.212 -1.043,0 0,-1.212 z" />
	<path
   id="path171"
   d="m 232.761,565.117 c 0.732,0 2.183,0.3 2.183,1.332 l 0,0.623 -1.056,0 0,-0.336 c 0,-0.432 -0.684,-0.623 -1.127,-0.623 -1.187,0 -2.075,0.887 -2.075,2.171 0,1.379 1.007,2.158 2.135,2.158 1.139,0 1.883,-0.84 1.883,-0.84 l 0.504,0.828 c 0,0 -0.864,1.043 -2.471,1.043 -1.907,0 -3.238,-1.354 -3.238,-3.178 0,-1.786 1.307,-3.178 3.262,-3.178 z" />
	<path
   id="path173"
   d="m 236.542,566.521 c 0,-0.18 -0.096,-0.264 -0.264,-0.264 l -0.492,0 0,-0.995 1.14,0 c 0.54,0 0.768,0.228 0.768,0.768 l 0,4.041 c 0,0.181 0.096,0.265 0.264,0.265 l 0.492,0 0,0.995 -1.139,0 c -0.54,0 -0.768,-0.228 -0.768,-0.768 l 0,-4.042 z m 0.024,-3.659 1.043,0 0,1.212 -1.043,0 0,-1.212 z" />
	<path
   id="path175"
   d="m 242.457,565.117 c 1.811,0 3.274,1.332 3.274,3.167 0,1.847 -1.463,3.189 -3.274,3.189 -1.811,0 -3.262,-1.343 -3.262,-3.189 -0.001,-1.835 1.451,-3.167 3.262,-3.167 z m 0,5.35 c 1.151,0 2.087,-0.912 2.087,-2.183 0,-1.26 -0.936,-2.159 -2.087,-2.159 -1.139,0 -2.075,0.899 -2.075,2.159 0,1.271 0.935,2.183 2.075,2.183 z m 0.407,-7.605 1.176,0 -1.14,1.523 -0.912,0 0.876,-1.523 z" />
	<path
   id="path177"
   d="m 247.186,566.521 c 0,-0.18 -0.096,-0.264 -0.264,-0.264 l -0.492,0 0,-0.995 1.116,0 c 0.516,0 0.768,0.228 0.768,0.671 l 0,0.229 c 0,0.191 -0.024,0.348 -0.024,0.348 l 0.024,0 c 0.24,-0.527 0.959,-1.392 2.279,-1.392 1.439,0 2.086,0.78 2.086,2.327 l 0,2.626 c 0,0.181 0.096,0.265 0.264,0.265 l 0.492,0 0,0.995 -1.151,0 c -0.54,0 -0.768,-0.228 -0.768,-0.768 l 0,-2.854 c 0,-0.852 -0.168,-1.523 -1.14,-1.523 -0.935,0 -1.679,0.612 -1.919,1.487 -0.084,0.24 -0.108,0.516 -0.108,0.815 l 0,2.843 -1.163,0 0,-4.81 z" />
	<path
   id="path179"
   d="m 259.257,562.515 1.02,0 c -0.888,1.487 -1.319,3.083 -1.319,4.785 0,1.775 0.468,3.574 1.379,5.17 l -1.032,0 c -0.899,-1.403 -1.403,-3.238 -1.403,-5.086 0,-1.786 0.444,-3.466 1.355,-4.869 z" />
	<path
   id="path181"
   d="m 261.37,570.299 0.827,0 0,-6.404 -0.827,0 0,-1.032 2.794,0 0,1.032 -0.828,0 0,6.404 0.828,0 0,1.031 -2.794,0 0,-1.031 z" />
	<path
   id="path183"
   d="m 266.577,567.3 c 0,-1.702 -0.432,-3.298 -1.319,-4.785 l 1.019,0 c 0.912,1.403 1.355,3.083 1.355,4.869 0,1.848 -0.504,3.683 -1.403,5.086 l -1.031,0 c 0.911,-1.596 1.379,-3.395 1.379,-5.17 z" />
	<path
   id="path185"
   d="m 184.427,598.163 c 0,0 0.864,1.02 2.123,1.02 0.792,0 1.451,-0.479 1.451,-1.26 0,-1.774 -4.09,-1.499 -4.09,-4.138 0,-1.271 1.115,-2.267 2.71,-2.267 0.899,0 2.411,0.408 2.411,1.56 l 0,0.695 -1.103,0 0,-0.396 c 0,-0.444 -0.636,-0.768 -1.308,-0.768 -0.912,0 -1.487,0.503 -1.487,1.139 0,1.716 4.078,1.332 4.078,4.114 0,1.295 -1.007,2.41 -2.687,2.41 -1.799,0 -2.807,-1.259 -2.807,-1.259 l 0.709,-0.85 z" />
	<path
   id="path187"
   d="m 190.943,592.694 -0.78,0 0,-1.032 4.978,0 c 0.54,0 0.768,0.229 0.768,0.768 l 0,1.067 -1.091,0 0,-0.539 c 0,-0.18 -0.096,-0.264 -0.264,-0.264 l -2.411,0 0,2.65 2.962,0 0,1.031 -2.962,0 0,2.459 c 0,0.168 0.096,0.264 0.264,0.264 l 2.47,0 c 0.168,0 0.264,-0.096 0.264,-0.264 l 0,-0.54 1.104,0 0,1.067 c 0,0.54 -0.228,0.768 -0.768,0.768 l -3.766,0 c -0.54,0 -0.768,-0.228 -0.768,-0.768 l 0,-6.667 z" />
	<path
   id="path189"
   d="m 204.489,591.519 c 2.471,0 4.366,1.883 4.366,4.33 0,1.055 -0.384,2.038 -0.996,2.782 l 0.972,0.947 -0.72,0.768 -0.971,-0.972 c -0.732,0.588 -1.655,0.899 -2.651,0.899 -2.447,0 -4.33,-1.954 -4.33,-4.425 0,-2.447 1.883,-4.329 4.33,-4.329 z m 0,7.627 c 1.116,0 1.787,-0.588 1.787,-0.588 l -0.936,-0.911 0.72,-0.779 0.923,0.947 c 0.384,-0.528 0.624,-1.235 0.624,-1.967 0,-1.835 -1.367,-3.203 -3.118,-3.203 -1.727,0 -3.082,1.368 -3.082,3.203 0,1.859 1.355,3.298 3.082,3.298 z" />
	<path
   id="path191"
   d="m 210.407,592.958 c 0,-0.18 -0.096,-0.264 -0.264,-0.264 l -0.516,0 0,-1.032 1.211,0 c 0.54,0 0.768,0.229 0.768,0.768 l 0,4.689 c 0,1.271 0.803,2.027 2.027,2.027 1.223,0 2.027,-0.756 2.027,-2.039 l 0,-4.678 c 0,-0.539 0.24,-0.768 0.779,-0.768 l 1.2,0 0,1.032 -0.516,0 c -0.167,0 -0.264,0.084 -0.264,0.264 l 0,4.21 c 0,1.847 -1.283,3.105 -3.214,3.105 -1.943,0 -3.238,-1.259 -3.238,-3.105 l 0,-4.209 z" />
	<path
   id="path193"
   d="m 218.507,599.099 0.827,0 0,-6.404 -0.827,0 0,-1.032 2.794,0 0,1.032 -0.828,0 0,6.404 0.828,0 0,1.031 -2.794,0 0,-1.031 z" />
	<path
   id="path195"
   d="m 225.021,592.694 -1.703,0 c -0.168,0 -0.264,0.084 -0.264,0.264 l 0,0.539 -1.068,0 0,-1.115 c 0,-0.539 0.18,-0.72 0.72,-0.72 l 5.829,0 c 0.54,0 0.719,0.181 0.719,0.72 l 0,1.115 -1.067,0 0,-0.539 c 0,-0.18 -0.096,-0.264 -0.264,-0.264 l -1.703,0 0,7.436 -1.199,0 0,-7.436 z" />
	<path
   id="path197"
   d="m 228.539,599.099 0.168,0 c 0.216,0 0.324,-0.048 0.396,-0.264 l 2.65,-7.173 1.26,0 2.65,7.173 c 0.072,0.216 0.192,0.264 0.396,0.264 l 0.18,0 0,1.031 -0.672,0 c -0.6,0 -0.792,-0.144 -0.983,-0.695 l -0.636,-1.739 -3.118,0 -0.636,1.739 c -0.204,0.552 -0.396,0.695 -0.995,0.695 l -0.66,0 0,-1.031 z m 5.109,-2.411 -0.923,-2.578 c -0.156,-0.444 -0.336,-1.188 -0.336,-1.188 l -0.024,0 c 0,0 -0.168,0.743 -0.324,1.188 l -0.923,2.578 2.53,0 z" />
	<path
   id="path199"
   d="m 236.831,599.099 0.516,0 c 0.167,0 0.264,-0.096 0.264,-0.264 l 0,-7.173 1.091,0 3.766,5.361 c 0.312,0.456 0.708,1.151 0.708,1.151 l 0.024,0 c 0,0 -0.084,-0.672 -0.084,-1.151 l 0,-4.594 c 0,-0.539 0.228,-0.768 0.78,-0.768 l 1.199,0 0,1.032 -0.516,0 c -0.168,0 -0.264,0.084 -0.264,0.264 l 0,7.172 -1.079,0 -3.778,-5.361 c -0.312,-0.455 -0.696,-1.151 -0.696,-1.151 l -0.024,0 c 0,0 0.072,0.684 0.072,1.151 l 0,4.594 c 0,0.54 -0.228,0.768 -0.768,0.768 l -1.211,0 0,-1.031 z" />
	<path
   id="path201"
   d="m 250.019,592.958 c 0,-0.18 -0.096,-0.264 -0.264,-0.264 l -0.516,0 0,-1.032 1.211,0 c 0.54,0 0.768,0.229 0.768,0.768 l 0,6.405 c 0,0.168 0.096,0.264 0.264,0.264 l 2.338,0 c 0.168,0 0.264,-0.096 0.264,-0.264 l 0,-0.54 1.091,0 0,1.067 c 0,0.54 -0.228,0.768 -0.768,0.768 l -3.622,0 c -0.54,0 -0.768,-0.228 -0.768,-0.768 l 0,-6.404 z" />
	<path
   id="path203"
   d="m 259.809,591.519 c 2.447,0 4.354,1.883 4.354,4.317 0,2.495 -1.907,4.438 -4.354,4.438 -2.447,0 -4.342,-1.942 -4.342,-4.438 0,-2.435 1.895,-4.317 4.342,-4.317 z m 0,7.627 c 1.715,0 3.106,-1.439 3.106,-3.311 0,-1.811 -1.391,-3.202 -3.106,-3.202 -1.715,0 -3.094,1.392 -3.094,3.202 0,1.872 1.379,3.311 3.094,3.311 z" />
	<path
   id="path205"
   d="m 265.691,598.163 c 0,0 0.864,1.02 2.123,1.02 0.792,0 1.451,-0.479 1.451,-1.26 0,-1.774 -4.09,-1.499 -4.09,-4.138 0,-1.271 1.115,-2.267 2.71,-2.267 0.899,0 2.411,0.408 2.411,1.56 l 0,0.695 -1.103,0 0,-0.396 c 0,-0.444 -0.636,-0.768 -1.308,-0.768 -0.911,0 -1.487,0.503 -1.487,1.139 0,1.716 4.078,1.332 4.078,4.114 0,1.295 -1.008,2.41 -2.687,2.41 -1.799,0 -2.807,-1.259 -2.807,-1.259 l 0.709,-0.85 z" />
	<path
   id="path207"
   d="m 278.949,591.519 c 2.446,0 4.354,1.883 4.354,4.317 0,2.495 -1.907,4.438 -4.354,4.438 -2.447,0 -4.342,-1.942 -4.342,-4.438 0,-2.435 1.895,-4.317 4.342,-4.317 z m 0,7.627 c 1.715,0 3.106,-1.439 3.106,-3.311 0,-1.811 -1.391,-3.202 -3.106,-3.202 -1.715,0 -3.094,1.392 -3.094,3.202 0,1.872 1.379,3.311 3.094,3.311 z" />
	<path
   id="path209"
   d="m 283.979,597.275 1.2,0 0,0.324 c 0,1.175 0.671,1.547 1.331,1.547 0.672,0 1.319,-0.396 1.319,-1.499 l 0,-4.689 c 0,-0.18 -0.096,-0.264 -0.264,-0.264 l -2.075,0 0,-1.032 2.771,0 c 0.54,0 0.768,0.229 0.768,0.768 l 0,5.266 c 0,1.835 -1.283,2.578 -2.531,2.578 -1.247,0 -2.519,-0.755 -2.519,-2.578 l 0,-0.421 z" />
	<path
   id="path211"
   d="m 294.729,591.519 c 2.447,0 4.354,1.883 4.354,4.317 0,2.495 -1.907,4.438 -4.354,4.438 -2.447,0 -4.342,-1.942 -4.342,-4.438 0,-2.435 1.895,-4.317 4.342,-4.317 z m 0,7.627 c 1.715,0 3.106,-1.439 3.106,-3.311 0,-1.811 -1.391,-3.202 -3.106,-3.202 -1.715,0 -3.094,1.392 -3.094,3.202 0,1.872 1.379,3.311 3.094,3.311 z" />
	<path
   id="path213"
   d="m 300.611,598.163 c 0,0 0.864,1.02 2.123,1.02 0.792,0 1.451,-0.479 1.451,-1.26 0,-1.774 -4.09,-1.499 -4.09,-4.138 0,-1.271 1.115,-2.267 2.71,-2.267 0.899,0 2.411,0.408 2.411,1.56 l 0,0.695 -1.103,0 0,-0.396 c 0,-0.444 -0.636,-0.768 -1.308,-0.768 -0.911,0 -1.487,0.503 -1.487,1.139 0,1.716 4.078,1.332 4.078,4.114 0,1.295 -1.008,2.41 -2.687,2.41 -1.799,0 -2.807,-1.259 -2.807,-1.259 l 0.709,-0.85 z" />
	<path
   id="path215"
   d="m 311.722,596.436 -2.147,-3.441 c -0.156,-0.252 -0.264,-0.3 -0.516,-0.3 l -0.24,0 0,-1.032 0.551,0 c 0.576,0 0.804,0.084 1.14,0.648 l 1.283,2.135 c 0.276,0.468 0.516,0.947 0.516,0.947 l 0.024,0 c 0,0 0.228,-0.479 0.516,-0.947 l 1.271,-2.135 c 0.336,-0.564 0.576,-0.648 1.14,-0.648 l 0.552,0 0,1.032 -0.228,0 c -0.252,0 -0.372,0.048 -0.528,0.3 l -2.135,3.441 0,3.694 -1.199,0 0,-3.694 z" />
	<path
   id="path217"
   d="m 319.859,598.163 c 0,0 0.864,1.02 2.123,1.02 0.792,0 1.451,-0.479 1.451,-1.26 0,-1.774 -4.09,-1.499 -4.09,-4.138 0,-1.271 1.115,-2.267 2.71,-2.267 0.899,0 2.411,0.408 2.411,1.56 l 0,0.695 -1.103,0 0,-0.396 c 0,-0.444 -0.636,-0.768 -1.308,-0.768 -0.911,0 -1.487,0.503 -1.487,1.139 0,1.716 4.078,1.332 4.078,4.114 0,1.295 -1.008,2.41 -2.687,2.41 -1.799,0 -2.807,-1.259 -2.807,-1.259 l 0.709,-0.85 z" />
	<path
   id="path219"
   d="m 326.375,592.694 -0.78,0 0,-1.032 4.978,0 c 0.54,0 0.768,0.229 0.768,0.768 l 0,1.067 -1.091,0 0,-0.539 c 0,-0.18 -0.096,-0.264 -0.264,-0.264 l -2.411,0 0,2.65 2.962,0 0,1.031 -2.962,0 0,2.459 c 0,0.168 0.096,0.264 0.264,0.264 l 2.47,0 c 0.168,0 0.264,-0.096 0.264,-0.264 l 0,-0.54 1.104,0 0,1.067 c 0,0.54 -0.228,0.768 -0.768,0.768 l -3.766,0 c -0.54,0 -0.768,-0.228 -0.768,-0.768 l 0,-6.667 z" />
	<path
   id="path221"
   d="m 184.547,607.095 -0.78,0 0,-1.032 3.73,0 c 1.547,0 2.651,1.044 2.651,2.651 0,1.606 -1.104,2.687 -2.651,2.687 l -1.751,0 0,3.13 -1.199,0 0,-7.436 z m 2.758,3.273 c 0.996,0 1.607,-0.635 1.607,-1.654 0,-1.019 -0.612,-1.619 -1.595,-1.619 l -1.571,0 0,3.273 1.559,0 z" />
	<path
   id="path223"
   d="m 195.165,605.919 c 2.446,0 4.354,1.883 4.354,4.317 0,2.495 -1.907,4.438 -4.354,4.438 -2.447,0 -4.342,-1.942 -4.342,-4.438 0,-2.434 1.895,-4.317 4.342,-4.317 z m 0,7.628 c 1.715,0 3.106,-1.439 3.106,-3.311 0,-1.811 -1.391,-3.202 -3.106,-3.202 -1.715,0 -3.094,1.392 -3.094,3.202 0,1.871 1.379,3.311 3.094,3.311 z" />
	<path
   id="path225"
   d="m 200.387,613.499 0.516,0 c 0.167,0 0.264,-0.096 0.264,-0.264 l 0,-7.173 1.091,0 3.766,5.361 c 0.312,0.456 0.708,1.151 0.708,1.151 l 0.024,0 c 0,0 -0.084,-0.672 -0.084,-1.151 l 0,-4.594 c 0,-0.539 0.228,-0.768 0.78,-0.768 l 1.199,0 0,1.032 -0.516,0 c -0.168,0 -0.264,0.084 -0.264,0.264 l 0,7.172 -1.079,0 -3.778,-5.361 c -0.312,-0.455 -0.696,-1.151 -0.696,-1.151 l -0.024,0 c 0,0 0.072,0.684 0.072,1.151 l 0,4.594 c 0,0.54 -0.228,0.768 -0.768,0.768 l -1.211,0 0,-1.031 z" />
	<path
   id="path227"
   d="m 210.347,607.095 -0.78,0 0,-1.032 4.978,0 c 0.54,0 0.768,0.229 0.768,0.768 l 0,1.067 -1.091,0 0,-0.539 c 0,-0.18 -0.096,-0.264 -0.264,-0.264 l -2.411,0 0,2.65 2.962,0 0,1.031 -2.962,0 0,2.459 c 0,0.168 0.096,0.264 0.264,0.264 l 2.47,0 c 0.168,0 0.264,-0.096 0.264,-0.264 l 0,-0.54 1.104,0 0,1.067 c 0,0.54 -0.228,0.768 -0.768,0.768 l -3.766,0 c -0.54,0 -0.768,-0.228 -0.768,-0.768 l 0,-6.667 z" />
	<path
   id="path229"
   d="m 220.391,607.095 -0.78,0 0,-1.032 4.978,0 c 0.54,0 0.768,0.229 0.768,0.768 l 0,1.067 -1.091,0 0,-0.539 c 0,-0.18 -0.096,-0.264 -0.264,-0.264 l -2.411,0 0,2.65 2.962,0 0,1.031 -2.962,0 0,2.459 c 0,0.168 0.096,0.264 0.264,0.264 l 2.47,0 c 0.168,0 0.264,-0.096 0.264,-0.264 l 0,-0.54 1.104,0 0,1.067 c 0,0.54 -0.228,0.768 -0.768,0.768 l -3.766,0 c -0.54,0 -0.768,-0.228 -0.768,-0.768 l 0,-6.667 z" />
	<path
   id="path231"
   d="m 227.207,607.358 c 0,-0.18 -0.096,-0.264 -0.264,-0.264 l -0.516,0 0,-1.032 1.211,0 c 0.54,0 0.768,0.229 0.768,0.768 l 0,6.405 c 0,0.168 0.096,0.264 0.264,0.264 l 2.338,0 c 0.168,0 0.264,-0.096 0.264,-0.264 l 0,-0.54 1.091,0 0,1.067 c 0,0.54 -0.228,0.768 -0.768,0.768 l -3.622,0 c -0.54,0 -0.768,-0.228 -0.768,-0.768 l 0,-6.404 z" />
	<path
   id="path233"
   d="m 236.951,607.095 -0.78,0 0,-1.032 3.73,0 c 1.547,0 2.651,1.044 2.651,2.651 0,1.606 -1.104,2.687 -2.651,2.687 l -1.751,0 0,3.13 -1.199,0 0,-7.436 z m 2.758,3.273 c 0.996,0 1.607,-0.635 1.607,-1.654 0,-1.019 -0.612,-1.619 -1.595,-1.619 l -1.571,0 0,3.273 1.559,0 z" />
	<path
   id="path235"
   d="m 244.055,607.095 -0.78,0 0,-1.032 4.978,0 c 0.54,0 0.768,0.229 0.768,0.768 l 0,1.067 -1.091,0 0,-0.539 c 0,-0.18 -0.096,-0.264 -0.264,-0.264 l -2.411,0 0,2.65 2.962,0 0,1.031 -2.962,0 0,2.459 c 0,0.168 0.096,0.264 0.264,0.264 l 2.47,0 c 0.168,0 0.264,-0.096 0.264,-0.264 l 0,-0.54 1.104,0 0,1.067 c 0,0.54 -0.228,0.768 -0.768,0.768 l -3.766,0 c -0.54,0 -0.768,-0.228 -0.768,-0.768 l 0,-6.667 z" />
	<path
   id="path237"
   d="m 250.871,607.095 -0.78,0 0,-1.032 3.694,0 c 1.487,0 2.53,0.936 2.53,2.483 0,1.415 -0.923,2.11 -1.523,2.242 l 0,0.024 c 0,0 0.216,0.107 0.36,0.384 l 1.02,2.026 c 0.12,0.252 0.312,0.276 0.6,0.276 l 0.156,0 0,1.031 -0.588,0 c -0.659,0 -0.899,-0.084 -1.175,-0.636 l -1.151,-2.278 c -0.216,-0.396 -0.372,-0.456 -0.839,-0.456 l -1.104,0 0,3.37 -1.199,0 0,-7.434 z m 2.758,3.034 c 0.912,0 1.451,-0.588 1.451,-1.535 0,-0.947 -0.54,-1.499 -1.427,-1.499 l -1.583,0 0,3.034 1.559,0 z" />
	<path
   id="path239"
   d="m 258.167,612.563 c 0,0 0.864,1.02 2.123,1.02 0.792,0 1.451,-0.479 1.451,-1.26 0,-1.774 -4.09,-1.499 -4.09,-4.138 0,-1.271 1.115,-2.267 2.71,-2.267 0.899,0 2.411,0.408 2.411,1.56 l 0,0.695 -1.103,0 0,-0.396 c 0,-0.444 -0.636,-0.768 -1.308,-0.768 -0.912,0 -1.487,0.503 -1.487,1.139 0,1.716 4.078,1.332 4.078,4.114 0,1.295 -1.007,2.41 -2.687,2.41 -1.799,0 -2.807,-1.259 -2.807,-1.259 l 0.709,-0.85 z" />
	<path
   id="path241"
   d="m 268.197,605.919 c 2.446,0 4.354,1.883 4.354,4.317 0,2.495 -1.907,4.438 -4.354,4.438 -2.447,0 -4.342,-1.942 -4.342,-4.438 0,-2.434 1.895,-4.317 4.342,-4.317 z m 0,7.628 c 1.715,0 3.106,-1.439 3.106,-3.311 0,-1.811 -1.391,-3.202 -3.106,-3.202 -1.715,0 -3.094,1.392 -3.094,3.202 0,1.871 1.379,3.311 3.094,3.311 z" />
	<path
   id="path243"
   d="m 273.419,613.499 0.516,0 c 0.167,0 0.264,-0.096 0.264,-0.264 l 0,-7.173 1.091,0 3.766,5.361 c 0.312,0.456 0.708,1.151 0.708,1.151 l 0.024,0 c 0,0 -0.084,-0.672 -0.084,-1.151 l 0,-4.594 c 0,-0.539 0.228,-0.768 0.78,-0.768 l 1.199,0 0,1.032 -0.516,0 c -0.168,0 -0.264,0.084 -0.264,0.264 l 0,7.172 -1.079,0 -3.778,-5.361 c -0.312,-0.455 -0.696,-1.151 -0.696,-1.151 l -0.024,0 c 0,0 0.072,0.684 0.072,1.151 l 0,4.594 c 0,0.54 -0.228,0.768 -0.768,0.768 l -1.211,0 0,-1.031 z" />
	<path
   id="path245"
   d="m 282.288,613.499 0.168,0 c 0.216,0 0.324,-0.048 0.396,-0.264 l 2.65,-7.173 1.26,0 2.65,7.173 c 0.072,0.216 0.192,0.264 0.396,0.264 l 0.18,0 0,1.031 -0.672,0 c -0.6,0 -0.792,-0.144 -0.983,-0.695 l -0.636,-1.739 -3.118,0 -0.636,1.739 c -0.204,0.552 -0.396,0.695 -0.995,0.695 l -0.66,0 0,-1.031 z m 5.109,-2.411 -0.923,-2.578 c -0.156,-0.444 -0.336,-1.188 -0.336,-1.188 l -0.024,0 c 0,0 -0.168,0.743 -0.324,1.188 l -0.923,2.578 2.53,0 z" />
	<path
   id="path247"
   d="m 290.388,611.676 1.2,0 0,0.324 c 0,1.175 0.671,1.547 1.331,1.547 0.672,0 1.319,-0.396 1.319,-1.499 l 0,-4.689 c 0,-0.18 -0.096,-0.264 -0.264,-0.264 l -2.075,0 0,-1.032 2.771,0 c 0.54,0 0.768,0.229 0.768,0.768 l 0,5.266 c 0,1.835 -1.283,2.578 -2.531,2.578 -1.247,0 -2.519,-0.755 -2.519,-2.578 l 0,-0.421 z" />
	<path
   id="path249"
   d="m 297.623,607.095 -0.78,0 0,-1.032 4.978,0 c 0.54,0 0.768,0.229 0.768,0.768 l 0,1.067 -1.091,0 0,-0.539 c 0,-0.18 -0.096,-0.264 -0.264,-0.264 l -2.411,0 0,2.65 2.962,0 0,1.031 -2.962,0 0,2.459 c 0,0.168 0.096,0.264 0.264,0.264 l 2.47,0 c 0.168,0 0.264,-0.096 0.264,-0.264 l 0,-0.54 1.104,0 0,1.067 c 0,0.54 -0.228,0.768 -0.768,0.768 l -3.766,0 c -0.54,0 -0.768,-0.228 -0.768,-0.768 l 0,-6.667 z" />
	<path
   id="path251"
   d="m 186.526,635.895 -1.703,0 c -0.168,0 -0.264,0.084 -0.264,0.264 l 0,0.539 -1.067,0 0,-1.115 c 0,-0.539 0.18,-0.72 0.72,-0.72 l 5.829,0 c 0.54,0 0.719,0.181 0.719,0.72 l 0,1.115 -1.067,0 0,-0.539 c 0,-0.18 -0.096,-0.264 -0.264,-0.264 l -1.703,0 0,7.436 -1.199,0 0,-7.436 z" />
	<path
   id="path253"
   d="m 191.447,642.299 0.827,0 0,-6.404 -0.827,0 0,-1.032 2.794,0 0,1.032 -0.828,0 0,6.404 0.828,0 0,1.031 -2.794,0 0,-1.031 z" />
	<path
   id="path255"
   d="m 195.982,635.895 -0.78,0 0,-1.032 3.73,0 c 1.547,0 2.651,1.044 2.651,2.651 0,1.606 -1.104,2.687 -2.651,2.687 l -1.751,0 0,3.13 -1.199,0 0,-7.436 z m 2.759,3.273 c 0.996,0 1.607,-0.636 1.607,-1.654 0,-1.02 -0.612,-1.619 -1.595,-1.619 l -1.571,0 0,3.273 1.559,0 z" />
	<path
   id="path257"
   d="m 206.601,634.719 c 2.446,0 4.354,1.883 4.354,4.317 0,2.495 -1.907,4.438 -4.354,4.438 -2.447,0 -4.342,-1.942 -4.342,-4.438 0,-2.434 1.895,-4.317 4.342,-4.317 z m 0,7.628 c 1.715,0 3.106,-1.439 3.106,-3.311 0,-1.811 -1.391,-3.202 -3.106,-3.202 -1.715,0 -3.094,1.392 -3.094,3.202 -0.001,1.871 1.378,3.311 3.094,3.311 z" />
	<path
   id="path259"
   d="m 216.057,634.719 c 2.027,0 3.022,1.044 3.022,1.044 l -0.684,0.875 c 0,0 -0.912,-0.815 -2.315,-0.815 -1.691,0 -3.046,1.355 -3.046,3.238 0,1.967 1.355,3.286 3.07,3.286 1.511,0 2.411,-1.056 2.411,-1.056 l 0,-0.852 c 0,-0.168 -0.096,-0.264 -0.264,-0.264 l -0.516,0 0,-1.031 1.115,0 c 0.54,0 0.768,0.228 0.768,0.768 l 0,3.418 -1.055,0 0,-0.527 c 0,-0.181 0.012,-0.36 0.012,-0.36 l -0.024,0 c 0,0 -0.948,1.031 -2.639,1.031 -2.255,0 -4.125,-1.774 -4.125,-4.413 0,-2.435 1.847,-4.342 4.27,-4.342 z" />
	<path
   id="path261"
   d="m 221.363,635.895 -0.78,0 0,-1.032 3.694,0 c 1.487,0 2.53,0.936 2.53,2.483 0,1.415 -0.923,2.11 -1.523,2.242 l 0,0.024 c 0,0 0.216,0.107 0.36,0.384 l 1.02,2.026 c 0.12,0.252 0.312,0.276 0.6,0.276 l 0.156,0 0,1.031 -0.588,0 c -0.66,0 -0.899,-0.084 -1.175,-0.636 l -1.151,-2.278 c -0.216,-0.396 -0.372,-0.456 -0.839,-0.456 l -1.104,0 0,3.37 -1.199,0 0,-7.434 z m 2.758,3.034 c 0.912,0 1.451,-0.588 1.451,-1.535 0,-0.947 -0.54,-1.499 -1.427,-1.499 l -1.583,0 0,3.034 1.559,0 z" />
	<path
   id="path263"
   d="m 227.807,642.299 0.168,0 c 0.216,0 0.324,-0.048 0.396,-0.264 l 2.651,-7.173 1.259,0 2.65,7.173 c 0.072,0.216 0.192,0.264 0.396,0.264 l 0.18,0 0,1.031 -0.672,0 c -0.6,0 -0.792,-0.144 -0.983,-0.695 l -0.636,-1.739 -3.118,0 -0.636,1.739 c -0.204,0.552 -0.396,0.695 -0.995,0.695 l -0.66,0 0,-1.031 z m 5.109,-2.411 -0.923,-2.578 c -0.156,-0.444 -0.336,-1.188 -0.336,-1.188 l -0.024,0 c 0,0 -0.168,0.743 -0.324,1.188 l -0.923,2.578 2.53,0 z" />
	<path
   id="path265"
   d="m 236.878,635.895 -0.78,0 0,-1.032 4.666,0 c 0.54,0 0.768,0.229 0.768,0.768 l 0,1.067 -1.091,0 0,-0.539 c 0,-0.18 -0.096,-0.264 -0.264,-0.264 l -2.099,0 0,2.782 2.891,0 0,1.031 -2.891,0 0,3.622 -1.199,0 0,-7.435 z" />
	<path
   id="path267"
   d="m 242.303,642.299 0.827,0 0,-6.404 -0.827,0 0,-1.032 2.794,0 0,1.032 -0.828,0 0,6.404 0.828,0 0,1.031 -2.794,0 0,-1.031 z m 1.799,-9.547 1.175,0 -1.139,1.523 -0.912,0 0.876,-1.523 z" />
	<path
   id="path269"
   d="m 245.747,642.299 0.168,0 c 0.216,0 0.324,-0.048 0.396,-0.264 l 2.651,-7.173 1.259,0 2.65,7.173 c 0.072,0.216 0.192,0.264 0.396,0.264 l 0.18,0 0,1.031 -0.672,0 c -0.6,0 -0.792,-0.144 -0.983,-0.695 l -0.636,-1.739 -3.118,0 -0.636,1.739 c -0.204,0.552 -0.396,0.695 -0.995,0.695 l -0.66,0 0,-1.031 z m 5.108,-2.411 -0.923,-2.578 c -0.156,-0.444 -0.336,-1.188 -0.336,-1.188 l -0.024,0 c 0,0 -0.168,0.743 -0.324,1.188 l -0.923,2.578 2.53,0 z" />
	<path
   id="path271"
   d="m 261.464,634.719 c 1.14,0 3.178,0.479 3.178,1.835 l 0,0.828 -1.103,0 0,-0.48 c 0,-0.707 -1.2,-1.067 -2.051,-1.067 -1.703,0 -3.022,1.283 -3.022,3.19 0,1.847 1.331,3.322 3.058,3.322 1.679,0 2.674,-1.151 2.674,-1.151 l 0.648,0.863 c 0,0 -1.199,1.415 -3.334,1.415 -2.53,0 -4.293,-1.954 -4.293,-4.449 -10e-4,-2.447 1.823,-4.306 4.245,-4.306 z" />
	<path
   id="path273"
   d="m 265.367,642.299 0.168,0 c 0.216,0 0.324,-0.048 0.396,-0.264 l 2.651,-7.173 1.259,0 2.65,7.173 c 0.072,0.216 0.192,0.264 0.396,0.264 l 0.18,0 0,1.031 -0.672,0 c -0.6,0 -0.792,-0.144 -0.983,-0.695 l -0.636,-1.739 -3.118,0 -0.636,1.739 c -0.204,0.552 -0.396,0.695 -0.995,0.695 l -0.66,0 0,-1.031 z m 5.109,-2.411 -0.923,-2.578 c -0.156,-0.444 -0.336,-1.188 -0.336,-1.188 l -0.024,0 c 0,0 -0.168,0.743 -0.324,1.188 l -0.923,2.578 2.53,0 z" />
	<path
   id="path275"
   d="m 273.442,642.299 0.408,0 c 0.168,0 0.252,-0.096 0.264,-0.264 l 0.576,-7.173 1.235,0 1.991,4.486 c 0.204,0.455 0.42,1.067 0.42,1.067 l 0.024,0 c 0,0 0.216,-0.612 0.42,-1.067 l 1.991,-4.486 1.235,0 0.576,7.173 c 0.012,0.168 0.096,0.264 0.264,0.264 l 0.396,0 0,1.031 -1.067,0 c -0.54,0 -0.732,-0.228 -0.768,-0.768 l -0.348,-4.474 c -0.036,-0.504 -0.024,-1.247 -0.024,-1.247 l -0.024,0 c 0,0 -0.24,0.791 -0.444,1.247 l -1.715,3.718 -1.007,0 -1.715,-3.718 c -0.204,-0.443 -0.456,-1.259 -0.456,-1.259 l -0.024,0 c 0,0 0.012,0.755 -0.024,1.259 l -0.336,4.474 c -0.036,0.54 -0.228,0.768 -0.78,0.768 l -1.067,0 0,-1.031 z" />
	<path
   id="path277"
   d="m 284.709,635.895 -0.779,0 0,-1.032 3.622,0 c 1.427,0 2.458,0.792 2.458,2.159 0,0.924 -0.492,1.547 -1.056,1.823 l 0,0.023 c 0.9,0.265 1.392,1.104 1.392,2.051 0,1.596 -1.224,2.411 -2.723,2.411 l -2.147,0 c -0.54,0 -0.768,-0.228 -0.768,-0.768 l 0,-6.667 z m 2.855,2.53 c 0.744,0 1.224,-0.54 1.224,-1.283 0,-0.744 -0.456,-1.247 -1.248,-1.247 l -1.631,0 0,2.53 1.655,0 z m -1.391,3.874 1.511,0 c 0.899,0 1.427,-0.576 1.427,-1.439 0,-0.863 -0.564,-1.451 -1.427,-1.451 l -1.775,0 0,2.627 c 0,0.167 0.096,0.263 0.264,0.263 z" />
	<path
   id="path279"
   d="m 291.394,642.299 0.827,0 0,-6.404 -0.827,0 0,-1.032 2.794,0 0,1.032 -0.828,0 0,6.404 0.828,0 0,1.031 -2.794,0 0,-1.031 z" />
	<path
   id="path281"
   d="m 294.838,642.299 0.168,0 c 0.216,0 0.324,-0.048 0.396,-0.264 l 2.65,-7.173 1.26,0 2.65,7.173 c 0.072,0.216 0.192,0.264 0.396,0.264 l 0.18,0 0,1.031 -0.672,0 c -0.6,0 -0.792,-0.144 -0.983,-0.695 l -0.636,-1.739 -3.118,0 -0.636,1.739 c -0.204,0.552 -0.396,0.695 -0.995,0.695 l -0.66,0 0,-1.031 z m 5.109,-2.411 -0.923,-2.578 c -0.156,-0.444 -0.336,-1.188 -0.336,-1.188 l -0.024,0 c 0,0 -0.168,0.743 -0.324,1.188 l -0.923,2.578 2.53,0 z" />
	<path
   id="path283"
   d="m 303.909,635.895 -0.78,0 0,-1.032 3.694,0 c 1.487,0 2.53,0.936 2.53,2.483 0,1.415 -0.923,2.11 -1.523,2.242 l 0,0.024 c 0,0 0.216,0.107 0.36,0.384 l 1.02,2.026 c 0.12,0.252 0.312,0.276 0.6,0.276 l 0.156,0 0,1.031 -0.588,0 c -0.659,0 -0.899,-0.084 -1.175,-0.636 l -1.151,-2.278 c -0.216,-0.396 -0.372,-0.456 -0.839,-0.456 l -1.104,0 0,3.37 -1.199,0 0,-7.434 z m 2.758,3.034 c 0.912,0 1.451,-0.588 1.451,-1.535 0,-0.947 -0.54,-1.499 -1.427,-1.499 l -1.583,0 0,3.034 1.559,0 z" />
	<path
   id="path285"
   d="m 311.325,636.158 c 0,-0.18 -0.096,-0.264 -0.264,-0.264 l -0.516,0 0,-1.032 1.211,0 c 0.54,0 0.768,0.229 0.768,0.768 l 0,6.405 c 0,0.168 0.096,0.264 0.264,0.264 l 2.338,0 c 0.168,0 0.264,-0.096 0.264,-0.264 l 0,-0.54 1.091,0 0,1.067 c 0,0.54 -0.228,0.768 -0.768,0.768 l -3.622,0 c -0.54,0 -0.768,-0.228 -0.768,-0.768 l 0,-6.404 z" />
	<path
   id="path287"
   d="m 316.87,642.299 0.168,0 c 0.216,0 0.324,-0.048 0.396,-0.264 l 2.65,-7.173 1.26,0 2.65,7.173 c 0.072,0.216 0.192,0.264 0.396,0.264 l 0.18,0 0,1.031 -0.672,0 c -0.6,0 -0.792,-0.144 -0.983,-0.695 l -0.636,-1.739 -3.118,0 -0.636,1.739 c -0.204,0.552 -0.396,0.695 -0.995,0.695 l -0.66,0 0,-1.031 z m 5.109,-2.411 -0.923,-2.578 c -0.156,-0.444 -0.336,-1.188 -0.336,-1.188 l -0.024,0 c 0,0 -0.168,0.743 -0.324,1.188 l -0.923,2.578 2.53,0 z" />
	<path
   id="path289"
   d="m 329.169,635.895 -0.78,0 0,-1.032 3.73,0 c 1.547,0 2.651,1.044 2.651,2.651 0,1.606 -1.104,2.687 -2.651,2.687 l -1.751,0 0,3.13 -1.199,0 0,-7.436 z m 2.759,3.273 c 0.996,0 1.607,-0.636 1.607,-1.654 0,-1.02 -0.612,-1.619 -1.595,-1.619 l -1.571,0 0,3.273 1.559,0 z" />
	<path
   id="path291"
   d="m 339.788,634.719 c 2.447,0 4.354,1.883 4.354,4.317 0,2.495 -1.907,4.438 -4.354,4.438 -2.447,0 -4.342,-1.942 -4.342,-4.438 0,-2.434 1.895,-4.317 4.342,-4.317 z m 0,7.628 c 1.715,0 3.106,-1.439 3.106,-3.311 0,-1.811 -1.391,-3.202 -3.106,-3.202 -1.715,0 -3.094,1.392 -3.094,3.202 -0.001,1.871 1.378,3.311 3.094,3.311 z" />
	<path
   id="path293"
   d="m 345.79,635.895 -0.78,0 0,-1.032 3.694,0 c 1.487,0 2.53,0.936 2.53,2.483 0,1.415 -0.923,2.11 -1.523,2.242 l 0,0.024 c 0,0 0.216,0.107 0.36,0.384 l 1.02,2.026 c 0.12,0.252 0.312,0.276 0.6,0.276 l 0.156,0 0,1.031 -0.588,0 c -0.66,0 -0.899,-0.084 -1.175,-0.636 l -1.151,-2.278 c -0.216,-0.396 -0.372,-0.456 -0.839,-0.456 l -1.104,0 0,3.37 -1.199,0 0,-7.434 z m 2.758,3.034 c 0.912,0 1.451,-0.588 1.451,-1.535 0,-0.947 -0.54,-1.499 -1.427,-1.499 l -1.583,0 0,3.034 1.559,0 z" />
	<path
   id="path295"
   d="m 184.547,650.558 c 0,-0.18 -0.096,-0.264 -0.264,-0.264 l -0.516,0 0,-1.032 1.211,0 c 0.54,0 0.768,0.229 0.768,0.768 l 0,6.405 c 0,0.168 0.096,0.264 0.264,0.264 l 2.338,0 c 0.168,0 0.264,-0.096 0.264,-0.264 l 0,-0.54 1.091,0 0,1.067 c 0,0.54 -0.228,0.768 -0.768,0.768 l -3.622,0 c -0.54,0 -0.768,-0.228 -0.768,-0.768 l 0,-6.404 z" />
	<path
   id="path297"
   d="m 190.092,656.698 0.168,0 c 0.216,0 0.324,-0.048 0.396,-0.264 l 2.65,-7.173 1.26,0 2.65,7.173 c 0.072,0.216 0.192,0.264 0.396,0.264 l 0.18,0 0,1.031 -0.672,0 c -0.6,0 -0.792,-0.144 -0.983,-0.695 l -0.636,-1.739 -3.118,0 -0.636,1.739 c -0.204,0.552 -0.396,0.695 -0.995,0.695 l -0.66,0 0,-1.031 z m 5.109,-2.411 -0.923,-2.578 c -0.156,-0.444 -0.336,-1.188 -0.336,-1.188 l -0.024,0 c 0,0 -0.168,0.743 -0.324,1.188 l -0.923,2.578 2.53,0 z" />
	<path
   id="path299"
   d="m 205.893,649.118 c 2.471,0 4.366,1.883 4.366,4.33 0,1.055 -0.384,2.038 -0.996,2.782 l 0.972,0.947 -0.72,0.768 -0.971,-0.972 c -0.732,0.588 -1.655,0.899 -2.651,0.899 -2.447,0 -4.33,-1.954 -4.33,-4.425 0,-2.446 1.883,-4.329 4.33,-4.329 z m 0,7.628 c 1.116,0 1.787,-0.588 1.787,-0.588 l -0.936,-0.911 0.72,-0.779 0.923,0.947 c 0.384,-0.528 0.624,-1.235 0.624,-1.967 0,-1.835 -1.367,-3.203 -3.118,-3.203 -1.727,0 -3.082,1.368 -3.082,3.203 0,1.859 1.355,3.298 3.082,3.298 z" />
	<path
   id="path301"
   d="m 211.811,650.558 c 0,-0.18 -0.096,-0.264 -0.264,-0.264 l -0.516,0 0,-1.032 1.211,0 c 0.54,0 0.768,0.229 0.768,0.768 l 0,4.689 c 0,1.271 0.803,2.027 2.027,2.027 1.223,0 2.027,-0.756 2.027,-2.039 l 0,-4.678 c 0,-0.539 0.24,-0.768 0.779,-0.768 l 1.2,0 0,1.032 -0.516,0 c -0.167,0 -0.264,0.084 -0.264,0.264 l 0,4.21 c 0,1.847 -1.283,3.105 -3.214,3.105 -1.943,0 -3.238,-1.259 -3.238,-3.105 l 0,-4.209 z" />
	<path
   id="path303"
   d="m 220.643,650.294 -0.78,0 0,-1.032 4.978,0 c 0.54,0 0.768,0.229 0.768,0.768 l 0,1.067 -1.091,0 0,-0.539 c 0,-0.18 -0.096,-0.264 -0.264,-0.264 l -2.411,0 0,2.65 2.962,0 0,1.031 -2.962,0 0,2.459 c 0,0.168 0.096,0.264 0.264,0.264 l 2.47,0 c 0.168,0 0.264,-0.096 0.264,-0.264 l 0,-0.54 1.104,0 0,1.067 c 0,0.54 -0.228,0.768 -0.768,0.768 l -3.766,0 c -0.54,0 -0.768,-0.228 -0.768,-0.768 l 0,-6.667 z" />
	<path
   id="path305"
   d="m 230.567,655.763 c 0,0 0.864,1.02 2.123,1.02 0.792,0 1.451,-0.479 1.451,-1.26 0,-1.774 -4.09,-1.499 -4.09,-4.138 0,-1.271 1.115,-2.267 2.71,-2.267 0.899,0 2.411,0.408 2.411,1.56 l 0,0.695 -1.103,0 0,-0.396 c 0,-0.444 -0.636,-0.768 -1.308,-0.768 -0.911,0 -1.487,0.503 -1.487,1.139 0,1.716 4.078,1.332 4.078,4.114 0,1.295 -1.008,2.41 -2.687,2.41 -1.799,0 -2.807,-1.259 -2.807,-1.259 l 0.709,-0.85 z" />
	<path
   id="path307"
   d="m 237.083,650.294 -0.78,0 0,-1.032 4.978,0 c 0.54,0 0.768,0.229 0.768,0.768 l 0,1.067 -1.091,0 0,-0.539 c 0,-0.18 -0.096,-0.264 -0.264,-0.264 l -2.411,0 0,2.65 2.962,0 0,1.031 -2.962,0 0,2.459 c 0,0.168 0.096,0.264 0.264,0.264 l 2.47,0 c 0.168,0 0.264,-0.096 0.264,-0.264 l 0,-0.54 1.104,0 0,1.067 c 0,0.54 -0.228,0.768 -0.768,0.768 l -3.766,0 c -0.54,0 -0.768,-0.228 -0.768,-0.768 l 0,-6.667 z" />
	<path
   id="path309"
   d="m 247.031,650.558 c 0,-0.18 -0.096,-0.264 -0.264,-0.264 l -0.516,0 0,-1.032 1.211,0 c 0.54,0 0.768,0.229 0.768,0.768 l 0,4.689 c 0,1.271 0.803,2.027 2.027,2.027 1.223,0 2.027,-0.756 2.027,-2.039 l 0,-4.678 c 0,-0.539 0.24,-0.768 0.779,-0.768 l 1.2,0 0,1.032 -0.516,0 c -0.167,0 -0.264,0.084 -0.264,0.264 l 0,4.21 c 0,1.847 -1.283,3.105 -3.214,3.105 -1.943,0 -3.238,-1.259 -3.238,-3.105 l 0,-4.209 z" />
	<path
   id="path311"
   d="m 255.743,655.763 c 0,0 0.864,1.02 2.123,1.02 0.792,0 1.451,-0.479 1.451,-1.26 0,-1.774 -4.09,-1.499 -4.09,-4.138 0,-1.271 1.115,-2.267 2.71,-2.267 0.899,0 2.411,0.408 2.411,1.56 l 0,0.695 -1.103,0 0,-0.396 c 0,-0.444 -0.636,-0.768 -1.308,-0.768 -0.911,0 -1.487,0.503 -1.487,1.139 0,1.716 4.078,1.332 4.078,4.114 0,1.295 -1.008,2.41 -2.687,2.41 -1.799,0 -2.807,-1.259 -2.807,-1.259 l 0.709,-0.85 z" />
	<path
   id="path313"
   d="m 261.167,656.698 0.168,0 c 0.216,0 0.324,-0.048 0.396,-0.264 l 2.651,-7.173 1.259,0 2.65,7.173 c 0.072,0.216 0.192,0.264 0.396,0.264 l 0.18,0 0,1.031 -0.672,0 c -0.6,0 -0.792,-0.144 -0.983,-0.695 l -0.636,-1.739 -3.118,0 -0.636,1.739 c -0.204,0.552 -0.396,0.695 -0.995,0.695 l -0.66,0 0,-1.031 z m 5.109,-2.411 -0.923,-2.578 c -0.156,-0.444 -0.336,-1.188 -0.336,-1.188 l -0.024,0 c 0,0 -0.168,0.743 -0.324,1.188 l -0.923,2.578 2.53,0 z" />
	<path
   id="path315"
   d="m 273.467,650.294 -0.78,0 0,-1.032 4.978,0 c 0.54,0 0.768,0.229 0.768,0.768 l 0,1.067 -1.091,0 0,-0.539 c 0,-0.18 -0.096,-0.264 -0.264,-0.264 l -2.411,0 0,2.65 2.962,0 0,1.031 -2.962,0 0,2.459 c 0,0.168 0.096,0.264 0.264,0.264 l 2.47,0 c 0.168,0 0.264,-0.096 0.264,-0.264 l 0,-0.54 1.104,0 0,1.067 c 0,0.54 -0.228,0.768 -0.768,0.768 l -3.766,0 c -0.54,0 -0.768,-0.228 -0.768,-0.768 l 0,-6.667 z" />
	<path
   id="path317"
   d="m 279.503,656.698 0.516,0 c 0.167,0 0.264,-0.096 0.264,-0.264 l 0,-7.173 1.091,0 3.766,5.361 c 0.312,0.456 0.708,1.151 0.708,1.151 l 0.024,0 c 0,0 -0.084,-0.672 -0.084,-1.151 l 0,-4.594 c 0,-0.539 0.228,-0.768 0.78,-0.768 l 1.199,0 0,1.032 -0.516,0 c -0.168,0 -0.264,0.084 -0.264,0.264 l 0,7.172 -1.079,0 -3.778,-5.361 c -0.312,-0.455 -0.696,-1.151 -0.696,-1.151 l -0.024,0 c 0,0 0.072,0.684 0.072,1.151 l 0,4.594 c 0,0.54 -0.228,0.768 -0.768,0.768 l -1.211,0 0,-1.031 z" />
	<path
   id="path319"
   d="m 292.691,650.294 -0.78,0 0,-1.032 4.978,0 c 0.54,0 0.768,0.229 0.768,0.768 l 0,1.067 -1.091,0 0,-0.539 c 0,-0.18 -0.096,-0.264 -0.264,-0.264 l -2.411,0 0,2.65 2.962,0 0,1.031 -2.962,0 0,2.459 c 0,0.168 0.096,0.264 0.264,0.264 l 2.47,0 c 0.168,0 0.264,-0.096 0.264,-0.264 l 0,-0.54 1.104,0 0,1.067 c 0,0.54 -0.228,0.768 -0.768,0.768 l -3.766,0 c -0.54,0 -0.768,-0.228 -0.768,-0.768 l 0,-6.667 z" />
	<path
   id="path321"
   d="m 299.507,650.558 c 0,-0.18 -0.096,-0.264 -0.264,-0.264 l -0.516,0 0,-1.032 1.211,0 c 0.54,0 0.768,0.229 0.768,0.768 l 0,6.405 c 0,0.168 0.096,0.264 0.264,0.264 l 2.338,0 c 0.168,0 0.264,-0.096 0.264,-0.264 l 0,-0.54 1.091,0 0,1.067 c 0,0.54 -0.228,0.768 -0.768,0.768 l -3.622,0 c -0.54,0 -0.768,-0.228 -0.768,-0.768 l 0,-6.404 z" />
	<path
   id="path323"
   d="m 310.99,650.294 -1.703,0 c -0.168,0 -0.264,0.084 -0.264,0.264 l 0,0.539 -1.067,0 0,-1.115 c 0,-0.539 0.18,-0.72 0.72,-0.72 l 5.829,0 c 0.54,0 0.719,0.181 0.719,0.72 l 0,1.115 -1.067,0 0,-0.539 c 0,-0.18 -0.096,-0.264 -0.264,-0.264 l -1.703,0 0,7.436 -1.199,0 0,-7.436 z" />
	<path
   id="path325"
   d="m 316.643,650.294 -0.78,0 0,-1.032 4.978,0 c 0.54,0 0.768,0.229 0.768,0.768 l 0,1.067 -1.091,0 0,-0.539 c 0,-0.18 -0.096,-0.264 -0.264,-0.264 l -2.411,0 0,2.65 2.962,0 0,1.031 -2.962,0 0,2.459 c 0,0.168 0.096,0.264 0.264,0.264 l 2.47,0 c 0.168,0 0.264,-0.096 0.264,-0.264 l 0,-0.54 1.104,0 0,1.067 c 0,0.54 -0.228,0.768 -0.768,0.768 l -3.766,0 c -0.54,0 -0.768,-0.228 -0.768,-0.768 l 0,-6.667 z" />
	<path
   id="path327"
   d="m 325.006,653.364 -1.703,-2.771 c -0.168,-0.276 -0.312,-0.3 -0.552,-0.3 l -0.312,0 0,-1.032 0.708,0 c 0.576,0 0.816,0.108 1.127,0.648 l 0.948,1.606 c 0.264,0.468 0.54,0.996 0.54,0.996 l 0.024,0 c 0,0 0.24,-0.528 0.516,-0.996 l 0.959,-1.606 c 0.312,-0.54 0.552,-0.648 1.14,-0.648 l 0.695,0 0,1.032 -0.3,0 c -0.252,0 -0.396,0.023 -0.563,0.3 l -1.715,2.771 2.675,4.365 -1.355,0 -1.535,-2.578 c -0.276,-0.468 -0.54,-0.96 -0.54,-0.96 l -0.024,0 c 0,0 -0.24,0.504 -0.516,0.972 l -1.523,2.566 -1.355,0 2.661,-4.365 z" />
	<path
   id="path329"
   d="m 332.529,650.294 -1.703,0 c -0.168,0 -0.264,0.084 -0.264,0.264 l 0,0.539 -1.068,0 0,-1.115 c 0,-0.539 0.18,-0.72 0.72,-0.72 l 5.829,0 c 0.54,0 0.719,0.181 0.719,0.72 l 0,1.115 -1.067,0 0,-0.539 c 0,-0.18 -0.096,-0.264 -0.264,-0.264 l -1.703,0 0,7.436 -1.199,0 0,-7.436 z" />
	<path
   id="path331"
   d="m 341.468,649.118 c 2.447,0 4.354,1.883 4.354,4.317 0,2.495 -1.907,4.438 -4.354,4.438 -2.447,0 -4.342,-1.942 -4.342,-4.438 0,-2.434 1.895,-4.317 4.342,-4.317 z m 0,7.628 c 1.715,0 3.106,-1.439 3.106,-3.311 0,-1.811 -1.391,-3.202 -3.106,-3.202 -1.715,0 -3.094,1.392 -3.094,3.202 0,1.872 1.379,3.311 3.094,3.311 z" />
	<path
   id="path333"
   d="m 188.001,663.519 c 2.027,0 3.022,1.044 3.022,1.044 l -0.684,0.875 c 0,0 -0.912,-0.815 -2.315,-0.815 -1.691,0 -3.046,1.355 -3.046,3.238 0,1.967 1.355,3.286 3.07,3.286 1.511,0 2.411,-1.056 2.411,-1.056 l 0,-0.852 c 0,-0.168 -0.096,-0.264 -0.264,-0.264 l -0.516,0 0,-1.031 1.115,0 c 0.54,0 0.768,0.228 0.768,0.768 l 0,3.418 -1.055,0 0,-0.527 c 0,-0.181 0.012,-0.36 0.012,-0.36 l -0.024,0 c 0,0 -0.948,1.031 -2.639,1.031 -2.255,0 -4.125,-1.774 -4.125,-4.413 0,-2.435 1.847,-4.342 4.27,-4.342 z" />
	<path
   id="path335"
   d="m 193.307,664.694 -0.78,0 0,-1.032 4.978,0 c 0.54,0 0.768,0.229 0.768,0.768 l 0,1.067 -1.091,0 0,-0.539 c 0,-0.18 -0.096,-0.264 -0.264,-0.264 l -2.411,0 0,2.65 2.962,0 0,1.031 -2.962,0 0,2.459 c 0,0.168 0.096,0.264 0.264,0.264 l 2.47,0 c 0.168,0 0.264,-0.096 0.264,-0.264 l 0,-0.54 1.104,0 0,1.067 c 0,0.54 -0.228,0.768 -0.768,0.768 l -3.766,0 c -0.54,0 -0.768,-0.228 -0.768,-0.768 l 0,-6.667 z" />
	<path
   id="path337"
   d="m 199.343,671.099 0.516,0 c 0.167,0 0.264,-0.096 0.264,-0.264 l 0,-7.173 1.091,0 3.766,5.361 c 0.312,0.456 0.708,1.151 0.708,1.151 l 0.024,0 c 0,0 -0.084,-0.672 -0.084,-1.151 l 0,-4.594 c 0,-0.539 0.228,-0.768 0.78,-0.768 l 1.199,0 0,1.032 -0.516,0 c -0.168,0 -0.264,0.084 -0.264,0.264 l 0,7.172 -1.079,0 -3.778,-5.361 c -0.312,-0.455 -0.696,-1.151 -0.696,-1.151 l -0.024,0 c 0,0 0.072,0.684 0.072,1.151 l 0,4.594 c 0,0.54 -0.228,0.768 -0.768,0.768 l -1.211,0 0,-1.031 z" />
	<path
   id="path339"
   d="m 209.303,664.694 -0.78,0 0,-1.032 4.978,0 c 0.54,0 0.768,0.229 0.768,0.768 l 0,1.067 -1.091,0 0,-0.539 c 0,-0.18 -0.096,-0.264 -0.264,-0.264 l -2.411,0 0,2.65 2.962,0 0,1.031 -2.962,0 0,2.459 c 0,0.168 0.096,0.264 0.264,0.264 l 2.47,0 c 0.168,0 0.264,-0.096 0.264,-0.264 l 0,-0.54 1.104,0 0,1.067 c 0,0.54 -0.228,0.768 -0.768,0.768 l -3.766,0 c -0.54,0 -0.768,-0.228 -0.768,-0.768 l 0,-6.667 z" />
	<path
   id="path341"
   d="m 216.119,664.694 -0.78,0 0,-1.032 3.694,0 c 1.487,0 2.53,0.936 2.53,2.483 0,1.415 -0.923,2.11 -1.523,2.242 l 0,0.024 c 0,0 0.216,0.107 0.36,0.384 l 1.02,2.026 c 0.12,0.252 0.312,0.276 0.6,0.276 l 0.156,0 0,1.031 -0.588,0 c -0.659,0 -0.899,-0.084 -1.175,-0.636 l -1.151,-2.278 c -0.216,-0.396 -0.372,-0.456 -0.839,-0.456 l -1.104,0 0,3.37 -1.199,0 0,-7.434 z m 2.758,3.035 c 0.912,0 1.451,-0.588 1.451,-1.535 0,-0.947 -0.54,-1.499 -1.427,-1.499 l -1.583,0 0,3.034 1.559,0 z" />
	<path
   id="path343"
   d="m 222.563,671.099 0.168,0 c 0.216,0 0.324,-0.048 0.396,-0.264 l 2.65,-7.173 1.26,0 2.65,7.173 c 0.072,0.216 0.192,0.264 0.396,0.264 l 0.18,0 0,1.031 -0.672,0 c -0.6,0 -0.792,-0.144 -0.983,-0.695 l -0.636,-1.739 -3.118,0 -0.636,1.739 c -0.204,0.552 -0.396,0.695 -0.995,0.695 l -0.66,0 0,-1.031 z m 5.109,-2.411 -0.923,-2.578 c -0.156,-0.444 -0.336,-1.188 -0.336,-1.188 l -0.024,0 c 0,0 -0.168,0.743 -0.324,1.188 l -0.923,2.578 2.53,0 z" />
	<path
   id="path345"
   d="m 231.635,664.958 c 0,-0.18 -0.096,-0.264 -0.264,-0.264 l -0.516,0 0,-1.032 1.211,0 c 0.54,0 0.768,0.229 0.768,0.768 l 0,6.405 c 0,0.168 0.096,0.264 0.264,0.264 l 2.338,0 c 0.168,0 0.264,-0.096 0.264,-0.264 l 0,-0.54 1.091,0 0,1.067 c 0,0.54 -0.228,0.768 -0.768,0.768 l -3.622,0 c -0.54,0 -0.768,-0.228 -0.768,-0.768 l 0,-6.404 z" />
	<path
   id="path347"
   d="m 241.379,664.694 -0.78,0 0,-1.032 4.978,0 c 0.54,0 0.768,0.229 0.768,0.768 l 0,1.067 -1.091,0 0,-0.539 c 0,-0.18 -0.096,-0.264 -0.264,-0.264 l -2.411,0 0,2.65 2.962,0 0,1.031 -2.962,0 0,2.459 c 0,0.168 0.096,0.264 0.264,0.264 l 2.47,0 c 0.168,0 0.264,-0.096 0.264,-0.264 l 0,-0.54 1.104,0 0,1.067 c 0,0.54 -0.228,0.768 -0.768,0.768 l -3.766,0 c -0.54,0 -0.768,-0.228 -0.768,-0.768 l 0,-6.667 z" />
	<path
   id="path349"
   d="m 247.415,671.099 0.516,0 c 0.167,0 0.264,-0.096 0.264,-0.264 l 0,-7.173 1.091,0 3.766,5.361 c 0.312,0.456 0.708,1.151 0.708,1.151 l 0.024,0 c 0,0 -0.084,-0.672 -0.084,-1.151 l 0,-4.594 c 0,-0.539 0.228,-0.768 0.78,-0.768 l 1.199,0 0,1.032 -0.516,0 c -0.168,0 -0.264,0.084 -0.264,0.264 l 0,7.172 -1.079,0 -3.778,-5.361 c -0.312,-0.455 -0.696,-1.151 -0.696,-1.151 l -0.024,0 c 0,0 0.072,0.684 0.072,1.151 l 0,4.594 c 0,0.54 -0.228,0.768 -0.768,0.768 l -1.211,0 0,-1.031 z" />
	<path
   id="path351"
   d="m 259.823,671.099 0.516,0 c 0.167,0 0.264,-0.096 0.264,-0.264 l 0,-7.173 1.091,0 3.766,5.361 c 0.312,0.456 0.708,1.151 0.708,1.151 l 0.024,0 c 0,0 -0.084,-0.672 -0.084,-1.151 l 0,-4.594 c 0,-0.539 0.228,-0.768 0.78,-0.768 l 1.199,0 0,1.032 -0.516,0 c -0.168,0 -0.264,0.084 -0.264,0.264 l 0,7.172 -1.079,0 -3.778,-5.361 c -0.312,-0.455 -0.696,-1.151 -0.696,-1.151 l -0.024,0 c 0,0 0.072,0.684 0.072,1.151 l 0,4.594 c 0,0.54 -0.228,0.768 -0.768,0.768 l -1.211,0 0,-1.031 z" />
	<path
   id="path353"
   d="m 269.783,664.694 -0.78,0 0,-1.032 4.978,0 c 0.54,0 0.768,0.229 0.768,0.768 l 0,1.067 -1.091,0 0,-0.539 c 0,-0.18 -0.096,-0.264 -0.264,-0.264 l -2.411,0 0,2.65 2.962,0 0,1.031 -2.962,0 0,2.459 c 0,0.168 0.096,0.264 0.264,0.264 l 2.47,0 c 0.168,0 0.264,-0.096 0.264,-0.264 l 0,-0.54 1.104,0 0,1.067 c 0,0.54 -0.228,0.768 -0.768,0.768 l -3.766,0 c -0.54,0 -0.768,-0.228 -0.768,-0.768 l 0,-6.667 z" />
	<path
   id="path355"
   d="m 280.053,663.519 c 2.027,0 3.022,1.044 3.022,1.044 l -0.684,0.875 c 0,0 -0.912,-0.815 -2.315,-0.815 -1.691,0 -3.046,1.355 -3.046,3.238 0,1.967 1.355,3.286 3.07,3.286 1.511,0 2.411,-1.056 2.411,-1.056 l 0,-0.852 c 0,-0.168 -0.096,-0.264 -0.264,-0.264 l -0.516,0 0,-1.031 1.115,0 c 0.54,0 0.768,0.228 0.768,0.768 l 0,3.418 -1.056,0 0,-0.527 c 0,-0.181 0.012,-0.36 0.012,-0.36 l -0.024,0 c 0,0 -0.947,1.031 -2.639,1.031 -2.255,0 -4.125,-1.774 -4.125,-4.413 0.002,-2.435 1.848,-4.342 4.271,-4.342 z" />
	<path
   id="path357"
   d="m 285.359,664.694 -0.78,0 0,-1.032 3.694,0 c 1.487,0 2.53,0.936 2.53,2.483 0,1.415 -0.923,2.11 -1.523,2.242 l 0,0.024 c 0,0 0.216,0.107 0.36,0.384 l 1.02,2.026 c 0.12,0.252 0.312,0.276 0.6,0.276 l 0.156,0 0,1.031 -0.588,0 c -0.659,0 -0.899,-0.084 -1.175,-0.636 l -1.151,-2.278 c -0.216,-0.396 -0.372,-0.456 -0.839,-0.456 l -1.104,0 0,3.37 -1.199,0 0,-7.434 z m 2.759,3.035 c 0.912,0 1.451,-0.588 1.451,-1.535 0,-0.947 -0.54,-1.499 -1.427,-1.499 l -1.583,0 0,3.034 1.559,0 z" />
	<path
   id="path359"
   d="m 292.044,671.099 0.827,0 0,-6.404 -0.827,0 0,-1.032 2.794,0 0,1.032 -0.828,0 0,6.404 0.828,0 0,1.031 -2.794,0 0,-1.031 z" />
	<path
   id="path361"
   d="m 298.558,664.694 -1.703,0 c -0.168,0 -0.264,0.084 -0.264,0.264 l 0,0.539 -1.067,0 0,-1.115 c 0,-0.539 0.18,-0.72 0.72,-0.72 l 5.829,0 c 0.54,0 0.719,0.181 0.719,0.72 l 0,1.115 -1.067,0 0,-0.539 c 0,-0.18 -0.096,-0.264 -0.264,-0.264 l -1.703,0 0,7.436 -1.199,0 0,-7.436 z" />
	<path
   id="path363"
   d="m 302.076,671.099 0.168,0 c 0.216,0 0.324,-0.048 0.396,-0.264 l 2.651,-7.173 1.259,0 2.65,7.173 c 0.072,0.216 0.192,0.264 0.396,0.264 l 0.18,0 0,1.031 -0.672,0 c -0.6,0 -0.792,-0.144 -0.983,-0.695 l -0.636,-1.739 -3.118,0 -0.636,1.739 c -0.204,0.552 -0.396,0.695 -0.995,0.695 l -0.66,0 0,-1.031 z m 5.109,-2.411 -0.923,-2.578 c -0.156,-0.444 -0.336,-1.188 -0.336,-1.188 l -0.024,0 c 0,0 -0.168,0.743 -0.324,1.188 l -0.923,2.578 2.53,0 z" />
	<path
   id="path365"
   d="m 314.279,664.958 c 0,-0.18 -0.096,-0.264 -0.264,-0.264 l -0.515,0 0,-1.032 1.211,0 c 0.54,0 0.768,0.229 0.768,0.768 l 0,4.689 c 0,1.271 0.803,2.027 2.027,2.027 1.223,0 2.027,-0.756 2.027,-2.039 l 0,-4.678 c 0,-0.539 0.24,-0.768 0.779,-0.768 l 1.2,0 0,1.032 -0.516,0 c -0.167,0 -0.264,0.084 -0.264,0.264 l 0,4.21 c 0,1.847 -1.283,3.105 -3.214,3.105 -1.943,0 -3.238,-1.259 -3.238,-3.105 l 0,-4.209 z" />
	<path
   id="path367"
   d="m 322.271,671.099 0.516,0 c 0.167,0 0.264,-0.096 0.264,-0.264 l 0,-7.173 1.091,0 3.766,5.361 c 0.312,0.456 0.708,1.151 0.708,1.151 l 0.024,0 c 0,0 -0.084,-0.672 -0.084,-1.151 l 0,-4.594 c 0,-0.539 0.228,-0.768 0.78,-0.768 l 1.199,0 0,1.032 -0.516,0 c -0.168,0 -0.264,0.084 -0.264,0.264 l 0,7.172 -1.079,0 -3.778,-5.361 c -0.312,-0.455 -0.696,-1.151 -0.696,-1.151 l -0.024,0 c 0,0 0.072,0.684 0.072,1.151 l 0,4.594 c 0,0.54 -0.228,0.768 -0.768,0.768 l -1.211,0 0,-1.031 z" />
	<path
   id="path369"
   d="m 184.547,679.095 -0.78,0 0,-1.032 3.73,0 c 1.547,0 2.651,1.044 2.651,2.651 0,1.606 -1.104,2.687 -2.651,2.687 l -1.751,0 0,3.13 -1.199,0 0,-7.436 z m 2.758,3.273 c 0.996,0 1.607,-0.635 1.607,-1.654 0,-1.019 -0.612,-1.619 -1.595,-1.619 l -1.571,0 0,3.273 1.559,0 z" />
	<path
   id="path371"
   d="m 195.165,677.919 c 2.446,0 4.354,1.883 4.354,4.317 0,2.495 -1.907,4.438 -4.354,4.438 -2.447,0 -4.342,-1.942 -4.342,-4.438 0,-2.434 1.895,-4.317 4.342,-4.317 z m 0,7.628 c 1.715,0 3.106,-1.439 3.106,-3.311 0,-1.811 -1.391,-3.202 -3.106,-3.202 -1.715,0 -3.094,1.392 -3.094,3.202 0,1.871 1.379,3.311 3.094,3.311 z" />
	<path
   id="path373"
   d="m 204.585,677.919 c 1.14,0 3.178,0.479 3.178,1.835 l 0,0.827 -1.103,0 0,-0.479 c 0,-0.707 -1.2,-1.067 -2.051,-1.067 -1.703,0 -3.022,1.283 -3.022,3.19 0,1.847 1.331,3.322 3.058,3.322 1.679,0 2.674,-1.151 2.674,-1.151 l 0.648,0.863 c 0,0 -1.199,1.415 -3.334,1.415 -2.53,0 -4.293,-1.954 -4.293,-4.449 -0.001,-2.447 1.823,-4.306 4.245,-4.306 z" />
	<path
   id="path375"
   d="m 213.033,677.919 c 2.446,0 4.354,1.883 4.354,4.317 0,2.495 -1.907,4.438 -4.354,4.438 -2.447,0 -4.342,-1.942 -4.342,-4.438 0,-2.434 1.895,-4.317 4.342,-4.317 z m 0,7.628 c 1.715,0 3.106,-1.439 3.106,-3.311 0,-1.811 -1.391,-3.202 -3.106,-3.202 -1.715,0 -3.094,1.392 -3.094,3.202 0,1.871 1.379,3.311 3.094,3.311 z" />
	<path
   id="path377"
   d="m 221.268,685.499 0.408,0 c 0.168,0 0.252,-0.096 0.264,-0.264 l 0.576,-7.173 1.235,0 1.991,4.486 c 0.204,0.455 0.42,1.067 0.42,1.067 l 0.024,0 c 0,0 0.216,-0.612 0.42,-1.067 l 1.991,-4.486 1.235,0 0.576,7.173 c 0.012,0.168 0.096,0.264 0.264,0.264 l 0.396,0 0,1.031 -1.067,0 c -0.54,0 -0.732,-0.228 -0.768,-0.768 l -0.348,-4.474 c -0.036,-0.504 -0.024,-1.247 -0.024,-1.247 l -0.024,0 c 0,0 -0.24,0.791 -0.444,1.247 l -1.715,3.718 -1.007,0 -1.715,-3.718 c -0.204,-0.443 -0.456,-1.259 -0.456,-1.259 l -0.024,0 c 0,0 0.012,0.755 -0.024,1.259 l -0.336,4.474 c -0.036,0.54 -0.228,0.768 -0.78,0.768 l -1.067,0 0,-1.031 z" />
	<path
   id="path379"
   d="m 231.456,685.499 0.168,0 c 0.216,0 0.324,-0.048 0.396,-0.264 l 2.65,-7.173 1.26,0 2.65,7.173 c 0.072,0.216 0.192,0.264 0.396,0.264 l 0.18,0 0,1.031 -0.672,0 c -0.6,0 -0.792,-0.144 -0.983,-0.695 l -0.636,-1.739 -3.118,0 -0.636,1.739 c -0.204,0.552 -0.396,0.695 -0.995,0.695 l -0.66,0 0,-1.031 z m 5.109,-2.411 -0.923,-2.578 c -0.156,-0.444 -0.336,-1.188 -0.336,-1.188 l -0.024,0 c 0,0 -0.168,0.743 -0.324,1.188 l -0.923,2.578 2.53,0 z" />
	<path
   id="path381"
   d="m 240.407,684.563 c 0,0 0.864,1.02 2.123,1.02 0.792,0 1.451,-0.479 1.451,-1.26 0,-1.774 -4.09,-1.499 -4.09,-4.138 0,-1.271 1.115,-2.267 2.71,-2.267 0.899,0 2.411,0.408 2.411,1.56 l 0,0.695 -1.103,0 0,-0.396 c 0,-0.444 -0.636,-0.768 -1.308,-0.768 -0.912,0 -1.487,0.503 -1.487,1.139 0,1.716 4.078,1.332 4.078,4.114 0,1.295 -1.007,2.41 -2.687,2.41 -1.799,0 -2.807,-1.259 -2.807,-1.259 l 0.709,-0.85 z" />
	<path
   id="path383"
   d="m 253.605,677.919 c 2.027,0 3.022,1.044 3.022,1.044 l -0.684,0.875 c 0,0 -0.912,-0.815 -2.315,-0.815 -1.691,0 -3.046,1.355 -3.046,3.238 0,1.967 1.355,3.286 3.07,3.286 1.511,0 2.411,-1.056 2.411,-1.056 l 0,-0.852 c 0,-0.168 -0.096,-0.264 -0.264,-0.264 l -0.516,0 0,-1.031 1.115,0 c 0.54,0 0.768,0.228 0.768,0.768 l 0,3.418 -1.055,0 0,-0.527 c 0,-0.181 0.012,-0.36 0.012,-0.36 l -0.023,0 c 0,0 -0.948,1.031 -2.639,1.031 -2.255,0 -4.125,-1.774 -4.125,-4.413 0,-2.435 1.847,-4.342 4.269,-4.342 z" />
	<path
   id="path385"
   d="m 258.912,679.095 -0.78,0 0,-1.032 3.694,0 c 1.487,0 2.53,0.936 2.53,2.483 0,1.415 -0.923,2.11 -1.523,2.242 l 0,0.024 c 0,0 0.216,0.107 0.36,0.384 l 1.02,2.026 c 0.12,0.252 0.312,0.276 0.6,0.276 l 0.156,0 0,1.031 -0.588,0 c -0.66,0 -0.899,-0.084 -1.175,-0.636 l -1.151,-2.278 c -0.216,-0.396 -0.372,-0.456 -0.839,-0.456 l -1.104,0 0,3.37 -1.199,0 0,-7.434 z m 2.758,3.034 c 0.912,0 1.451,-0.588 1.451,-1.535 0,-0.947 -0.54,-1.499 -1.427,-1.499 l -1.583,0 0,3.034 1.559,0 z" />
	<path
   id="path387"
   d="m 265.356,685.499 0.168,0 c 0.216,0 0.324,-0.048 0.396,-0.264 l 2.65,-7.173 1.26,0 2.65,7.173 c 0.072,0.216 0.192,0.264 0.396,0.264 l 0.18,0 0,1.031 -0.672,0 c -0.6,0 -0.792,-0.144 -0.983,-0.695 l -0.636,-1.739 -3.118,0 -0.636,1.739 c -0.204,0.552 -0.396,0.695 -0.995,0.695 l -0.66,0 0,-1.031 z m 5.109,-2.411 -0.923,-2.578 c -0.156,-0.444 -0.336,-1.188 -0.336,-1.188 l -0.024,0 c 0,0 -0.168,0.743 -0.324,1.188 l -0.923,2.578 2.53,0 z" />
	<path
   id="path389"
   d="m 273.648,685.499 0.516,0 c 0.167,0 0.264,-0.096 0.264,-0.264 l 0,-7.173 1.091,0 3.766,5.361 c 0.312,0.456 0.708,1.151 0.708,1.151 l 0.024,0 c 0,0 -0.084,-0.672 -0.084,-1.151 l 0,-4.594 c 0,-0.539 0.228,-0.768 0.78,-0.768 l 1.199,0 0,1.032 -0.516,0 c -0.168,0 -0.264,0.084 -0.264,0.264 l 0,7.172 -1.079,0 -3.778,-5.361 c -0.312,-0.455 -0.696,-1.151 -0.696,-1.151 l -0.024,0 c 0,0 0.072,0.684 0.072,1.151 l 0,4.594 c 0,0.54 -0.228,0.768 -0.768,0.768 l -1.211,0 0,-1.031 z" />
	<path
   id="path391"
   d="m 283.608,679.095 -0.78,0 0,-1.032 3.43,0 c 2.579,0 4.282,1.548 4.282,4.222 0,2.687 -1.703,4.246 -4.282,4.246 l -1.883,0 c -0.54,0 -0.768,-0.228 -0.768,-0.768 l 0,-6.668 z m 1.463,6.404 1.103,0 c 1.883,0 3.119,-1.128 3.119,-3.215 0,-2.074 -1.248,-3.189 -3.119,-3.189 l -1.367,0 0,6.141 c 0,0.167 0.096,0.263 0.264,0.263 z" />
	<path
   id="path393"
   d="m 292.188,679.095 -0.78,0 0,-1.032 4.978,0 c 0.54,0 0.768,0.229 0.768,0.768 l 0,1.067 -1.091,0 0,-0.539 c 0,-0.18 -0.096,-0.264 -0.264,-0.264 l -2.411,0 0,2.65 2.962,0 0,1.031 -2.962,0 0,2.459 c 0,0.168 0.096,0.264 0.264,0.264 l 2.47,0 c 0.168,0 0.264,-0.096 0.264,-0.264 l 0,-0.54 1.104,0 0,1.067 c 0,0.54 -0.228,0.768 -0.768,0.768 l -3.766,0 c -0.54,0 -0.768,-0.228 -0.768,-0.768 l 0,-6.667 z" />
</g>
<g
   transform="translate(-734.53977,-455.73001)"
   id="g395">
	<path
   id="path397"
   d="m 1062.175,735.741 0.408,0 c 0.168,0 0.252,-0.096 0.264,-0.264 l 0.576,-7.173 1.235,0 1.991,4.486 c 0.204,0.455 0.42,1.067 0.42,1.067 l 0.024,0 c 0,0 0.216,-0.612 0.42,-1.067 l 1.991,-4.486 1.235,0 0.576,7.173 c 0.012,0.168 0.096,0.264 0.264,0.264 l 0.396,0 0,1.031 -1.067,0 c -0.54,0 -0.732,-0.228 -0.768,-0.768 l -0.348,-4.474 c -0.036,-0.504 -0.024,-1.247 -0.024,-1.247 l -0.024,0 c 0,0 -0.24,0.791 -0.444,1.247 l -1.715,3.718 -1.007,0 -1.715,-3.718 c -0.204,-0.443 -0.456,-1.259 -0.456,-1.259 l -0.024,0 c 0,0 0.012,0.755 -0.024,1.259 l -0.336,4.474 c -0.036,0.54 -0.228,0.768 -0.78,0.768 l -1.067,0 0,-1.031 z" />
	<path
   id="path399"
   d="m 1075.913,730.56 c 1.811,0 3.274,1.332 3.274,3.167 0,1.847 -1.463,3.189 -3.274,3.189 -1.811,0 -3.262,-1.343 -3.262,-3.189 -10e-4,-1.835 1.451,-3.167 3.262,-3.167 z m 0,5.349 c 1.151,0 2.087,-0.912 2.087,-2.183 0,-1.26 -0.936,-2.159 -2.087,-2.159 -1.139,0 -2.075,0.899 -2.075,2.159 0,1.271 0.935,2.183 2.075,2.183 z" />
	<path
   id="path401"
   d="m 1082.813,730.56 c 1.403,0 1.871,0.936 1.871,0.936 l 0.024,0 c 0,0 -0.024,-0.18 -0.024,-0.407 l 0,-1.523 c 0,-0.18 -0.096,-0.264 -0.264,-0.264 l -0.492,0 0,-0.996 1.151,0 c 0.54,0 0.768,0.229 0.768,0.768 l 0,6.44 c 0,0.181 0.096,0.265 0.264,0.265 l 0.492,0 0,0.995 -1.115,0 c -0.528,0 -0.744,-0.24 -0.744,-0.647 0,-0.18 0.012,-0.312 0.012,-0.312 l -0.024,0 c 0,0 -0.504,1.104 -1.991,1.104 -1.643,0 -2.674,-1.295 -2.674,-3.178 -10e-4,-1.933 1.139,-3.181 2.746,-3.181 z m 1.907,3.167 c 0,-1.08 -0.563,-2.159 -1.727,-2.159 -0.947,0 -1.739,0.792 -1.739,2.171 0,1.319 0.708,2.171 1.715,2.171 0.899,-10e-4 1.751,-0.637 1.751,-2.183 z" />
	<path
   id="path403"
   d="m 1087.722,735.537 1.188,0 0,1.235 -1.188,0 0,-1.235 z" />
	<path
   id="path405"
   d="m 1097.751,730.607 c 0,-0.779 -0.576,-1.343 -1.487,-1.343 -0.756,0 -1.308,0.384 -1.308,0.804 l 0,0.371 -1.104,0 0,-0.719 c 0,-1.104 1.476,-1.56 2.459,-1.56 1.547,0 2.663,0.983 2.663,2.435 0,2.914 -4.294,2.963 -4.294,4.917 0,0.168 0.096,0.229 0.3,0.229 l 3.011,0 c 0.167,0 0.264,-0.096 0.264,-0.264 l 0,-0.54 1.104,0 0,1.067 c 0,0.54 -0.228,0.768 -0.768,0.768 l -4.342,0 c -0.66,0 -0.804,-0.288 -0.804,-0.972 10e-4,-3.117 4.306,-2.902 4.306,-5.193 z" />
	<path
   id="path407"
   d="m 1101.042,730.704 1.188,0 0,1.235 -1.188,0 0,-1.235 z m 0,4.833 1.188,0 0,1.235 -1.188,0 0,-1.235 z" />
	<path
   id="path409"
   d="m 1111.312,728.161 c 2.027,0 3.022,1.044 3.022,1.044 l -0.684,0.875 c 0,0 -0.912,-0.815 -2.315,-0.815 -1.691,0 -3.046,1.355 -3.046,3.238 0,1.967 1.355,3.286 3.07,3.286 1.511,0 2.411,-1.056 2.411,-1.056 l 0,-0.852 c 0,-0.168 -0.096,-0.264 -0.264,-0.264 l -0.516,0 0,-1.031 1.115,0 c 0.54,0 0.768,0.228 0.768,0.768 l 0,3.418 -1.055,0 0,-0.527 c 0,-0.181 0.012,-0.36 0.012,-0.36 l -0.024,0 c 0,0 -0.948,1.031 -2.639,1.031 -2.255,0 -4.125,-1.774 -4.125,-4.413 0,-2.435 1.847,-4.342 4.27,-4.342 z" />
	<path
   id="path411"
   d="m 1116.618,729.337 -0.78,0 0,-1.032 4.978,0 c 0.54,0 0.768,0.229 0.768,0.768 l 0,1.067 -1.091,0 0,-0.539 c 0,-0.18 -0.096,-0.264 -0.264,-0.264 l -2.411,0 0,2.65 2.962,0 0,1.031 -2.962,0 0,2.459 c 0,0.168 0.096,0.264 0.264,0.264 l 2.47,0 c 0.168,0 0.264,-0.096 0.264,-0.264 l 0,-0.54 1.104,0 0,1.067 c 0,0.54 -0.228,0.768 -0.768,0.768 l -3.766,0 c -0.54,0 -0.768,-0.228 -0.768,-0.768 l 0,-6.667 z" />
	<path
   id="path413"
   d="m 1122.654,735.741 0.516,0 c 0.167,0 0.264,-0.096 0.264,-0.264 l 0,-7.173 1.091,0 3.766,5.361 c 0.312,0.456 0.708,1.151 0.708,1.151 l 0.024,0 c 0,0 -0.084,-0.672 -0.084,-1.151 l 0,-4.594 c 0,-0.539 0.228,-0.768 0.78,-0.768 l 1.199,0 0,1.032 -0.516,0 c -0.168,0 -0.264,0.084 -0.264,0.264 l 0,7.172 -1.079,0 -3.778,-5.361 c -0.312,-0.455 -0.696,-1.151 -0.696,-1.151 l -0.024,0 c 0,0 0.072,0.684 0.072,1.151 l 0,4.594 c 0,0.54 -0.228,0.768 -0.768,0.768 l -1.211,0 0,-1.031 z" />
	<path
   id="path415"
   d="m 1132.614,729.337 -0.78,0 0,-1.032 4.978,0 c 0.54,0 0.768,0.229 0.768,0.768 l 0,1.067 -1.091,0 0,-0.539 c 0,-0.18 -0.096,-0.264 -0.264,-0.264 l -2.411,0 0,2.65 2.962,0 0,1.031 -2.962,0 0,2.459 c 0,0.168 0.096,0.264 0.264,0.264 l 2.47,0 c 0.168,0 0.264,-0.096 0.264,-0.264 l 0,-0.54 1.104,0 0,1.067 c 0,0.54 -0.228,0.768 -0.768,0.768 l -3.766,0 c -0.54,0 -0.768,-0.228 -0.768,-0.768 l 0,-6.667 z" />
	<path
   id="path417"
   d="m 1139.43,729.337 -0.78,0 0,-1.032 3.694,0 c 1.487,0 2.53,0.936 2.53,2.483 0,1.415 -0.923,2.11 -1.523,2.242 l 0,0.024 c 0,0 0.216,0.107 0.36,0.384 l 1.02,2.026 c 0.12,0.252 0.312,0.276 0.6,0.276 l 0.156,0 0,1.031 -0.588,0 c -0.659,0 -0.899,-0.084 -1.175,-0.636 l -1.151,-2.278 c -0.216,-0.396 -0.372,-0.456 -0.839,-0.456 l -1.104,0 0,3.37 -1.199,0 0,-7.434 z m 2.758,3.034 c 0.912,0 1.451,-0.588 1.451,-1.535 0,-0.947 -0.54,-1.499 -1.427,-1.499 l -1.583,0 0,3.034 1.559,0 z" />
	<path
   id="path419"
   d="m 1145.874,735.741 0.168,0 c 0.216,0 0.324,-0.048 0.396,-0.264 l 2.65,-7.173 1.26,0 2.65,7.173 c 0.072,0.216 0.192,0.264 0.396,0.264 l 0.18,0 0,1.031 -0.672,0 c -0.6,0 -0.792,-0.144 -0.983,-0.695 l -0.636,-1.739 -3.118,0 -0.636,1.739 c -0.204,0.552 -0.396,0.695 -0.995,0.695 l -0.66,0 0,-1.031 z m 5.109,-2.411 -0.923,-2.578 c -0.156,-0.444 -0.336,-1.188 -0.336,-1.188 l -0.024,0 c 0,0 -0.168,0.743 -0.324,1.188 l -0.923,2.578 2.53,0 z" />
	<path
   id="path421"
   d="m 1154.945,729.601 c 0,-0.18 -0.096,-0.264 -0.264,-0.264 l -0.516,0 0,-1.032 1.211,0 c 0.54,0 0.768,0.229 0.768,0.768 l 0,6.405 c 0,0.168 0.096,0.264 0.264,0.264 l 2.338,0 c 0.168,0 0.264,-0.096 0.264,-0.264 l 0,-0.54 1.091,0 0,1.067 c 0,0.54 -0.228,0.768 -0.768,0.768 l -3.622,0 c -0.54,0 -0.768,-0.228 -0.768,-0.768 l 0,-6.404 z" />
	<path
   id="path423"
   d="m 1160.73,735.741 0.827,0 0,-6.404 -0.827,0 0,-1.032 2.794,0 0,1.032 -0.828,0 0,6.404 0.828,0 0,1.031 -2.794,0 0,-1.031 z" />
	<path
   id="path425"
   d="m 1165.265,729.337 -0.78,0 0,-1.032 3.43,0 c 2.579,0 4.282,1.548 4.282,4.222 0,2.687 -1.703,4.246 -4.282,4.246 l -1.883,0 c -0.54,0 -0.768,-0.228 -0.768,-0.768 l 0,-6.668 z m 1.464,6.404 1.103,0 c 1.883,0 3.119,-1.128 3.119,-3.215 0,-2.074 -1.248,-3.189 -3.119,-3.189 l -1.367,0 0,6.141 c -10e-4,0.168 0.096,0.263 0.264,0.263 z" />
	<path
   id="path427"
   d="m 1172.598,735.741 0.168,0 c 0.216,0 0.324,-0.048 0.396,-0.264 l 2.651,-7.173 1.259,0 2.65,7.173 c 0.072,0.216 0.192,0.264 0.396,0.264 l 0.18,0 0,1.031 -0.672,0 c -0.6,0 -0.792,-0.144 -0.983,-0.695 l -0.636,-1.739 -3.118,0 -0.636,1.739 c -0.204,0.552 -0.396,0.695 -0.995,0.695 l -0.66,0 0,-1.031 z m 5.109,-2.411 -0.923,-2.578 c -0.156,-0.444 -0.336,-1.188 -0.336,-1.188 l -0.024,0 c 0,0 -0.168,0.743 -0.324,1.188 l -0.923,2.578 2.53,0 z" />
	<path
   id="path429"
   d="m 1181.669,729.337 -0.78,0 0,-1.032 3.43,0 c 2.579,0 4.282,1.548 4.282,4.222 0,2.687 -1.703,4.246 -4.282,4.246 l -1.883,0 c -0.54,0 -0.768,-0.228 -0.768,-0.768 l 0,-6.668 z m 1.464,6.404 1.103,0 c 1.883,0 3.119,-1.128 3.119,-3.215 0,-2.074 -1.248,-3.189 -3.119,-3.189 l -1.367,0 0,6.141 c 0,0.168 0.096,0.263 0.264,0.263 z" />
	<path
   id="path431"
   d="m 1190.25,729.337 -0.78,0 0,-1.032 4.978,0 c 0.54,0 0.768,0.229 0.768,0.768 l 0,1.067 -1.091,0 0,-0.539 c 0,-0.18 -0.096,-0.264 -0.264,-0.264 l -2.411,0 0,2.65 2.962,0 0,1.031 -2.962,0 0,2.459 c 0,0.168 0.096,0.264 0.264,0.264 l 2.47,0 c 0.168,0 0.264,-0.096 0.264,-0.264 l 0,-0.54 1.104,0 0,1.067 c 0,0.54 -0.228,0.768 -0.768,0.768 l -3.766,0 c -0.54,0 -0.768,-0.228 -0.768,-0.768 l 0,-6.667 z" />
	<path
   id="path433"
   d="m 1196.945,734.806 c 0,0 0.864,1.02 2.123,1.02 0.792,0 1.451,-0.479 1.451,-1.26 0,-1.774 -4.09,-1.499 -4.09,-4.138 0,-1.271 1.115,-2.267 2.71,-2.267 0.899,0 2.411,0.408 2.411,1.56 l 0,0.695 -1.103,0 0,-0.396 c 0,-0.444 -0.636,-0.768 -1.308,-0.768 -0.912,0 -1.487,0.503 -1.487,1.139 0,1.716 4.078,1.332 4.078,4.114 0,1.295 -1.007,2.41 -2.687,2.41 -1.799,0 -2.807,-1.259 -2.807,-1.259 l 0.709,-0.85 z" />
	<path
   id="path435"
   d="m 1062.139,748.162 3.813,-5.457 1.368,0 0,5.193 1.319,0 0,1.031 -1.319,0 0,2.243 -1.2,0 0,-2.243 -3.981,0 0,-0.767 z m 3.994,-3.178 c 0,-0.384 0.048,-0.863 0.048,-0.863 l -0.024,0 c 0,0 -0.216,0.407 -0.432,0.707 l -1.847,2.543 c -0.216,0.3 -0.444,0.539 -0.444,0.539 l 0,0.024 c 0,0 0.348,-0.036 0.72,-0.036 l 1.979,0 0,-2.914 z" />
	<path
   id="path437"
   d="m 1069.554,749.938 1.188,0 0,1.235 -1.188,0 0,-1.235 z" />
	<path
   id="path439"
   d="m 1076.058,743.737 -0.78,0 0,-1.032 3.43,0 c 2.579,0 4.282,1.548 4.282,4.222 0,2.687 -1.703,4.246 -4.282,4.246 l -1.883,0 c -0.54,0 -0.768,-0.228 -0.768,-0.768 l 0,-6.668 z m 1.463,6.405 1.103,0 c 1.883,0 3.119,-1.128 3.119,-3.215 0,-2.074 -1.248,-3.189 -3.119,-3.189 l -1.367,0 0,6.141 c 0,0.167 0.097,0.263 0.264,0.263 z" />
	<path
   id="path441"
   d="m 1086.941,744.96 c 1.703,0 2.615,1.271 2.615,2.843 0,0.156 -0.036,0.479 -0.036,0.479 l -4.426,0 c 0.072,1.296 1.008,2.027 2.087,2.027 1.043,0 1.775,-0.708 1.775,-0.708 l 0.503,0.828 c 0,0 -0.899,0.887 -2.338,0.887 -1.919,0 -3.227,-1.379 -3.227,-3.178 10e-4,-1.93 1.32,-3.178 3.047,-3.178 z m 1.415,2.471 c -0.036,-1.007 -0.672,-1.547 -1.427,-1.547 -0.888,0 -1.607,0.54 -1.787,1.547 l 3.214,0 z" />
	<path
   id="path443"
   d="m 1091.106,746.04 -0.756,0 0,-0.936 0.756,0 0,-0.204 c 0,-2.003 1.523,-2.255 2.291,-2.255 0.264,0 0.444,0.036 0.444,0.036 l 0,0.995 c 0,0 -0.132,-0.023 -0.324,-0.023 -0.456,0 -1.248,0.155 -1.248,1.283 l 0,0.168 3.059,0 c 0.54,0 0.768,0.228 0.768,0.768 l 0,4.041 c 0,0.181 0.096,0.265 0.264,0.265 l 0.492,0 0,0.995 -1.139,0 c -0.552,0 -0.78,-0.228 -0.78,-0.768 l 0,-4.102 c 0,-0.168 -0.096,-0.264 -0.264,-0.264 l -2.399,0 0,5.133 -1.163,0 0,-5.132 z m 3.85,-3.335 1.056,0 0,1.212 -1.056,0 0,-1.212 z" />
	<path
   id="path445"
   d="m 1098.187,746.363 c 0,-0.18 -0.096,-0.264 -0.264,-0.264 l -0.492,0 0,-0.995 1.116,0 c 0.516,0 0.768,0.228 0.768,0.671 l 0,0.229 c 0,0.191 -0.024,0.348 -0.024,0.348 l 0.024,0 c 0.24,-0.527 0.959,-1.392 2.279,-1.392 1.439,0 2.086,0.78 2.086,2.327 l 0,2.626 c 0,0.181 0.096,0.265 0.264,0.265 l 0.492,0 0,0.995 -1.151,0 c -0.54,0 -0.768,-0.228 -0.768,-0.768 l 0,-2.854 c 0,-0.852 -0.168,-1.523 -1.14,-1.523 -0.935,0 -1.679,0.612 -1.919,1.487 -0.083,0.24 -0.108,0.516 -0.108,0.815 l 0,2.843 -1.163,0 0,-4.81 z" />
	<path
   id="path447"
   d="m 1105.758,746.363 c 0,-0.18 -0.096,-0.264 -0.264,-0.264 l -0.492,0 0,-0.995 1.14,0 c 0.54,0 0.768,0.228 0.768,0.768 l 0,4.041 c 0,0.181 0.096,0.265 0.264,0.265 l 0.492,0 0,0.995 -1.139,0 c -0.54,0 -0.768,-0.228 -0.768,-0.768 l 0,-4.042 z m 0.024,-3.658 1.043,0 0,1.212 -1.043,0 0,-1.212 z" />
	<path
   id="path449"
   d="m 1111.672,744.96 c 0.732,0 2.183,0.3 2.183,1.332 l 0,0.623 -1.056,0 0,-0.336 c 0,-0.432 -0.684,-0.623 -1.127,-0.623 -1.187,0 -2.075,0.887 -2.075,2.171 0,1.379 1.007,2.158 2.135,2.158 1.14,0 1.883,-0.84 1.883,-0.84 l 0.504,0.828 c 0,0 -0.863,1.043 -2.471,1.043 -1.907,0 -3.238,-1.354 -3.238,-3.178 0,-1.786 1.308,-3.178 3.262,-3.178 z" />
	<path
   id="path451"
   d="m 1115.454,746.363 c 0,-0.18 -0.096,-0.264 -0.264,-0.264 l -0.492,0 0,-0.995 1.14,0 c 0.54,0 0.768,0.228 0.768,0.768 l 0,4.041 c 0,0.181 0.096,0.265 0.264,0.265 l 0.492,0 0,0.995 -1.139,0 c -0.54,0 -0.768,-0.228 -0.768,-0.768 l 0,-4.042 z m 0.024,-3.658 1.043,0 0,1.212 -1.043,0 0,-1.212 z" />
	<path
   id="path453"
   d="m 1121.368,744.96 c 1.811,0 3.274,1.332 3.274,3.167 0,1.847 -1.463,3.189 -3.274,3.189 -1.811,0 -3.262,-1.343 -3.262,-3.189 0,-1.835 1.451,-3.167 3.262,-3.167 z m 0,5.35 c 1.151,0 2.087,-0.912 2.087,-2.183 0,-1.26 -0.936,-2.159 -2.087,-2.159 -1.139,0 -2.075,0.899 -2.075,2.159 0,1.27 0.936,2.183 2.075,2.183 z m 0.408,-7.605 1.175,0 -1.139,1.523 -0.912,0 0.876,-1.523 z" />
	<path
   id="path455"
   d="m 1126.098,746.363 c 0,-0.18 -0.096,-0.264 -0.264,-0.264 l -0.492,0 0,-0.995 1.116,0 c 0.516,0 0.768,0.228 0.768,0.671 l 0,0.229 c 0,0.191 -0.024,0.348 -0.024,0.348 l 0.024,0 c 0.24,-0.527 0.959,-1.392 2.279,-1.392 1.439,0 2.086,0.78 2.086,2.327 l 0,2.626 c 0,0.181 0.096,0.265 0.264,0.265 l 0.492,0 0,0.995 -1.151,0 c -0.54,0 -0.768,-0.228 -0.768,-0.768 l 0,-2.854 c 0,-0.852 -0.168,-1.523 -1.14,-1.523 -0.935,0 -1.679,0.612 -1.919,1.487 -0.083,0.24 -0.108,0.516 -0.108,0.815 l 0,2.843 -1.163,0 0,-4.81 z" />
	<path
   id="path457"
   d="m 1138.168,742.357 1.02,0 c -0.888,1.487 -1.319,3.083 -1.319,4.785 0,1.775 0.468,3.574 1.379,5.17 l -1.031,0 c -0.9,-1.403 -1.403,-3.238 -1.403,-5.086 -10e-4,-1.786 0.443,-3.465 1.354,-4.869 z" />
	<path
   id="path459"
   d="m 1140.282,750.142 0.827,0 0,-6.404 -0.827,0 0,-1.032 2.794,0 0,1.032 -0.828,0 0,6.404 0.828,0 0,1.031 -2.794,0 0,-1.031 z" />
	<path
   id="path461"
   d="m 1144.085,750.142 0.827,0 0,-6.404 -0.827,0 0,-1.032 2.794,0 0,1.032 -0.828,0 0,6.404 0.828,0 0,1.031 -2.794,0 0,-1.031 z" />
	<path
   id="path463"
   d="m 1149.292,747.143 c 0,-1.702 -0.432,-3.298 -1.319,-4.785 l 1.019,0 c 0.912,1.403 1.355,3.083 1.355,4.869 0,1.848 -0.504,3.683 -1.403,5.086 l -1.031,0 c 0.911,-1.596 1.379,-3.395 1.379,-5.17 z" />
</g>
<g
   transform="translate(-734.53977,-455.73001)"
   id="g465">
	<path
   style="fill:#4db8a3"
   id="path467"
   d="m 912.176,501.157 3.72,0 0,-10.944 c 0,-0.528 0.024,-1.057 0.024,-1.057 l -0.048,0 c 0,0 -0.192,0.384 -0.792,0.984 l -1.584,1.561 -1.44,-1.488 4.057,-3.937 2.184,0 0,14.881 3.696,0 0,2.064 -9.817,0 0,-2.064 z" />
</g>
<g
   transform="translate(-734.53977,-455.73001)"
   id="g469">
	<path
   id="path471"
   d="m 868.812,558.401 c 0,-1.561 -1.152,-2.688 -2.976,-2.688 -1.512,0 -2.616,0.769 -2.616,1.608 l 0,0.744 -2.208,0 0,-1.44 c 0,-2.208 2.952,-3.12 4.92,-3.12 3.096,0 5.329,1.968 5.329,4.872 0,5.833 -8.593,5.929 -8.593,9.841 0,0.336 0.192,0.456 0.6,0.456 l 6.024,0 c 0.336,0 0.528,-0.191 0.528,-0.527 l 0,-1.08 2.208,0 0,2.136 c 0,1.08 -0.456,1.536 -1.536,1.536 l -8.689,0 c -1.32,0 -1.608,-0.576 -1.608,-1.944 0,-6.241 8.617,-5.81 8.617,-10.394 z" />
</g>
<rect
   id="rect473"
   height="3.627856"
   width="141.13541"
   transform="matrix(0.47211873,-0.88153497,0.88153497,0.47211873,0,0)"
   y="140.08836"
   x="-114.93598" />
<rect
   style="fill:#4db8a3;stroke:#000000;stroke-width:2;stroke-miterlimit:10"
   id="rect475"
   height="31.055"
   width="31.055"
   stroke-miterlimit="10"
   y="21"
   x="131.58925" />
<line
   style="fill:none;stroke:#000000;stroke-width:2;stroke-miterlimit:10"
   id="line477"
   y2="36.528992"
   x2="162.64424"
   y1="36.528992"
   x1="131.58925"
   stroke-miterlimit="10" />
<rect
   style="fill:#ef842e;stroke:#000000;stroke-width:2;stroke-miterlimit:10"
   id="rect479"
   height="42.113998"
   width="102.15"
   stroke-miterlimit="10"
   y="155.80002"
   x="29.79421" />
<circle
   style="fill:#ffffff;stroke:#000000;stroke-width:2;stroke-miterlimit:10"
   id="circle481"
   r="9.8559999"
   cy="198.80997"
   cx="52.196251"
   stroke-miterlimit="10" />
<circle
   style="fill:#ffffff;stroke:#000000;stroke-width:2;stroke-miterlimit:10"
   id="circle483"
   r="9.8559999"
   cy="198.80997"
   cx="105.06423"
   stroke-miterlimit="10" />
<g
   transform="translate(-734.53977,-455.73001)"
   id="g485">
	<path
   style="fill:#ef842e"
   id="path487"
   d="m 882.709,636.52 c 0,0 1.68,1.921 4.296,1.921 1.824,0 3.36,-1.272 3.36,-3.097 0,-1.896 -1.68,-3.024 -3.648,-3.024 l -1.2,0 -0.504,-1.271 3.528,-4.44 c 0.504,-0.721 0.984,-1.104 0.984,-1.104 l 0,-0.048 c 0,0 -0.504,0.072 -1.44,0.072 l -3.264,0 c -0.336,0 -0.528,0.168 -0.528,0.527 l 0,1.08 -2.208,0 0,-2.136 c 0,-1.08 0.384,-1.536 1.464,-1.536 l 8.929,0 0,1.512 -4.464,5.377 c 2.208,0.24 4.8,1.704 4.8,4.968 0,2.833 -2.28,5.377 -5.809,5.377 -3.529,0 -5.592,-2.376 -5.592,-2.376 l 1.296,-1.802 z" />
</g>
<g
   transform="translate(-734.53977,-455.73001)"
   id="g489">
	<polygon
   style="fill:#ffffff"
   id="polygon491"
   points="772.214,629.44 781.961,619.695 776.306,619.695 766.561,629.44 " />
	<polygon
   style="fill:#ffffff"
   id="polygon493"
   points="798.234,619.695 792.579,619.695 782.835,629.439 788.49,629.439 " />
	<polygon
   style="fill:#ffffff"
   id="polygon495"
   points="814.508,619.695 808.854,619.695 799.109,629.439 804.762,629.44 " />
	<polygon
   style="fill:#ffffff"
   id="polygon497"
   points="830.781,619.695 825.13,619.695 815.383,629.44 821.035,629.44 " />
	<polygon
   style="fill:#ffffff"
   id="polygon499"
   points="837.821,629.439 847.568,619.695 841.914,619.695 832.169,629.439 " />
	<polygon
   style="fill:#ffffff"
   id="polygon501"
   points="863.842,619.695 858.187,619.695 848.443,629.439 854.098,629.439 " />
</g>
<g
   transform="translate(-734.53977,-455.73001)"
   id="g503">
	<path
   style="fill:#4db8a3"
   id="path505"
   d="m 1649.061,478.777 3.72,0 0,-10.944 c 0,-0.528 0.024,-1.057 0.024,-1.057 l -0.048,0 c 0,0 -0.192,0.384 -0.792,0.984 l -1.584,1.561 -1.44,-1.488 4.057,-3.937 2.184,0 0,14.881 3.696,0 0,2.064 -9.817,0 0,-2.064 z" />
</g>
<g
   transform="translate(-734.53977,-455.73001)"
   id="g507">
	<path
   id="path509"
   d="m 1556.616,491.114 c 0,-1.561 -1.152,-2.688 -2.976,-2.688 -1.512,0 -2.616,0.769 -2.616,1.608 l 0,0.744 -2.208,0 0,-1.44 c 0,-2.208 2.952,-3.12 4.92,-3.12 3.096,0 5.329,1.968 5.329,4.872 0,5.833 -8.593,5.929 -8.593,9.841 0,0.336 0.192,0.456 0.6,0.456 l 6.024,0 c 0.336,0 0.528,-0.191 0.528,-0.527 l 0,-1.08 2.208,0 0,2.136 c 0,1.08 -0.456,1.536 -1.536,1.536 l -8.689,0 c -1.32,0 -1.608,-0.576 -1.608,-1.944 10e-4,-6.241 8.617,-5.81 8.617,-10.394 z" />
</g>
<rect
   style="fill:#4db8a3;stroke:#000000;stroke-width:2;stroke-miterlimit:10"
   id="rect511"
   height="31.055"
   width="31.055"
   stroke-miterlimit="10"
   y="1"
   x="871.41724" />
<line
   style="fill:none;stroke:#000000;stroke-width:2;stroke-miterlimit:10"
   id="line513"
   y2="16.528992"
   x2="902.47217"
   y1="16.528992"
   x1="871.41724"
   stroke-miterlimit="10" />
<rect
   style="fill:#ef842e;stroke:#000000;stroke-width:2;stroke-miterlimit:10"
   id="rect515"
   height="30.563999"
   width="93.630997"
   stroke-miterlimit="10"
   y="167.63498"
   x="729.55115" />
<circle
   style="fill:#ffffff;stroke:#000000;stroke-width:2;stroke-miterlimit:10"
   id="circle517"
   r="9.8559999"
   cy="198.80997"
   cx="752.02417"
   stroke-miterlimit="10" />
<circle
   style="fill:#ffffff;stroke:#000000;stroke-width:2;stroke-miterlimit:10"
   id="circle519"
   r="9.8559999"
   cy="198.80997"
   cx="804.89221"
   stroke-miterlimit="10" />
<g
   transform="translate(-734.53977,-455.73001)"
   id="g521">
	<path
   style="fill:#ef842e"
   id="path523"
   d="m 1570.186,642.617 c 0,0 1.68,1.921 4.296,1.921 1.824,0 3.36,-1.272 3.36,-3.097 0,-1.896 -1.68,-3.024 -3.648,-3.024 l -1.2,0 -0.504,-1.271 3.528,-4.44 c 0.504,-0.721 0.984,-1.104 0.984,-1.104 l 0,-0.048 c 0,0 -0.504,0.072 -1.44,0.072 l -3.264,0 c -0.336,0 -0.528,0.168 -0.528,0.527 l 0,1.08 -2.208,0 0,-2.136 c 0,-1.08 0.384,-1.536 1.464,-1.536 l 8.929,0 0,1.512 -4.464,5.377 c 2.208,0.24 4.8,1.704 4.8,4.968 0,2.833 -2.28,5.377 -5.809,5.377 -3.529,0 -5.592,-2.376 -5.592,-2.376 l 1.296,-1.802 z" />
</g>
<g
   transform="translate(-734.53977,-455.73001)"
   id="g525">
	<path
   style="fill:#4db8a3"
   id="path527"
   d="m 1352.491,500.004 3.72,0 0,-10.944 c 0,-0.528 0.024,-1.057 0.024,-1.057 l -0.048,0 c 0,0 -0.192,0.384 -0.792,0.984 l -1.584,1.561 -1.44,-1.488 4.057,-3.937 2.184,0 0,14.881 3.696,0 0,2.064 -9.817,0 0,-2.064 z" />
</g>
<g
   transform="translate(-734.53977,-455.73001)"
   id="g529">
	<path
   id="path531"
   d="m 1321.132,559.401 c 0,-1.561 -1.152,-2.688 -2.976,-2.688 -1.512,0 -2.616,0.769 -2.616,1.608 l 0,0.744 -2.208,0 0,-1.44 c 0,-2.208 2.952,-3.12 4.92,-3.12 3.096,0 5.329,1.968 5.329,4.872 0,5.833 -8.593,5.929 -8.593,9.841 0,0.336 0.192,0.456 0.6,0.456 l 6.024,0 c 0.336,0 0.528,-0.191 0.528,-0.527 l 0,-1.08 2.208,0 0,2.136 c 0,1.08 -0.456,1.536 -1.536,1.536 l -8.689,0 c -1.32,0 -1.608,-0.576 -1.608,-1.944 0,-6.241 8.617,-5.81 8.617,-10.394 z" />
</g>
<rect
   style="fill:#4db8a3;stroke:#000000;stroke-width:2;stroke-miterlimit:10"
   id="rect533"
   height="34.859001"
   width="79.942001"
   stroke-miterlimit="10"
   y="21.509003"
   x="525.41223" />
<line
   style="fill:none;stroke:#000000;stroke-width:1.98810005;stroke-miterlimit:10"
   id="line535"
   y2="38.940002"
   x2="605.35522"
   y1="38.940002"
   x1="524.44116"
   stroke-miterlimit="10" />
<line
   style="fill:none;stroke:#000000;stroke-width:2;stroke-miterlimit:10"
   id="line537"
   y2="56.369965"
   x2="544.69226"
   y1="21.509003"
   x1="544.69226"
   stroke-miterlimit="10" />
<line
   style="fill:none;stroke:#000000;stroke-width:2;stroke-miterlimit:10"
   id="line539"
   y2="56.369965"
   x2="564.72424"
   y1="21.509003"
   x1="564.72424"
   stroke-miterlimit="10" />
<line
   style="fill:none;stroke:#000000;stroke-width:2;stroke-miterlimit:10"
   id="line541"
   y2="56.369965"
   x2="587.27917"
   y1="21.509003"
   x1="587.27917"
   stroke-miterlimit="10" />
<rect
   style="fill:#ef842e;stroke:#000000;stroke-width:2;stroke-miterlimit:10"
   id="rect543"
   height="42.113998"
   width="102.15"
   stroke-miterlimit="10"
   y="156.80002"
   x="518.06018" />
<circle
   style="fill:#ffffff;stroke:#000000;stroke-width:2;stroke-miterlimit:10"
   id="circle545"
   r="9.8559999"
   cy="199.80997"
   cx="568.23315"
   stroke-miterlimit="10" />
<g
   transform="translate(-734.53977,-455.73001)"
   id="g547">
	<path
   style="fill:#ef842e"
   id="path549"
   d="m 1363.855,656.396 c 0,0 1.68,1.921 4.296,1.921 1.824,0 3.36,-1.272 3.36,-3.097 0,-1.896 -1.68,-3.024 -3.648,-3.024 l -1.2,0 -0.504,-1.271 3.528,-4.44 c 0.504,-0.721 0.984,-1.104 0.984,-1.104 l 0,-0.048 c 0,0 -0.504,0.072 -1.44,0.072 l -3.264,0 c -0.336,0 -0.528,0.168 -0.528,0.527 l 0,1.08 -2.208,0 0,-2.136 c 0,-1.08 0.384,-1.536 1.464,-1.536 l 8.929,0 0,1.512 -4.464,5.377 c 2.208,0.24 4.8,1.704 4.8,4.968 0,2.833 -2.28,5.377 -5.809,5.377 -3.529,0 -5.592,-2.376 -5.592,-2.376 l 1.296,-1.802 z" />
</g>
<g
   transform="translate(-734.53977,-455.73001)"
   id="g551">
	<path
   id="path553"
   d="m 1386.345,630.729 7.632,-10.921 2.736,0 0,10.393 2.64,0 0,2.064 -2.64,0 0,4.488 -2.4,0 0,-4.488 -7.969,0 0,-1.536 z m 7.993,-6.36 c 0,-0.769 0.096,-1.729 0.096,-1.729 l -0.048,0 c 0,0 -0.432,0.816 -0.864,1.416 l -3.696,5.089 c -0.432,0.6 -0.888,1.08 -0.888,1.08 l 0,0.048 c 0,0 0.696,-0.072 1.44,-0.072 l 3.96,0 0,-5.832 z" />
</g>
<g
   transform="translate(-734.53977,-455.73001)"
   id="g555">
	<polygon
   style="fill:#ffffff"
   id="polygon557"
   points="1260.479,630.44 1270.227,620.695 1264.571,620.695 1254.826,630.44 " />
	<polygon
   style="fill:#ffffff"
   id="polygon559"
   points="1286.5,620.695 1280.845,620.695 1271.101,630.439 1276.756,630.439 " />
	<polygon
   style="fill:#ffffff"
   id="polygon561"
   points="1302.773,620.695 1297.119,620.695 1287.375,630.439 1293.027,630.44 " />
	<polygon
   style="fill:#ffffff"
   id="polygon563"
   points="1319.047,620.695 1313.396,620.695 1303.648,630.44 1309.301,630.44 " />
	<polygon
   style="fill:#ffffff"
   id="polygon565"
   points="1326.087,630.439 1335.834,620.695 1330.18,620.695 1320.435,630.439 " />
	<polygon
   style="fill:#ffffff"
   id="polygon567"
   points="1352.107,620.695 1346.452,620.695 1336.709,630.439 1342.363,630.439 " />
</g>
<g
   transform="translate(-734.53977,-455.73001)"
   id="g569">
	<path
   style="fill:#4db8a3"
   id="path571"
   d="m 1137.141,514.883 3.72,0 0,-10.944 c 0,-0.528 0.024,-1.057 0.024,-1.057 l -0.048,0 c 0,0 -0.192,0.384 -0.792,0.984 l -1.584,1.561 -1.44,-1.488 4.057,-3.937 2.184,0 0,14.881 3.696,0 0,2.064 -9.817,0 0,-2.064 z" />
</g>
<g
   transform="translate(-734.53977,-455.73001)"
   id="g573">
	<path
   id="path575"
   d="m 1145.134,564.377 c 0,-1.561 -1.152,-2.688 -2.976,-2.688 -1.512,0 -2.616,0.769 -2.616,1.608 l 0,0.744 -2.208,0 0,-1.44 c 0,-2.208 2.952,-3.12 4.92,-3.12 3.096,0 5.329,1.968 5.329,4.872 0,5.833 -8.593,5.929 -8.593,9.841 0,0.336 0.192,0.456 0.6,0.456 l 6.024,0 c 0.336,0 0.528,-0.191 0.528,-0.527 l 0,-1.08 2.208,0 0,2.136 c 0,1.08 -0.456,1.536 -1.536,1.536 l -8.689,0 c -1.32,0 -1.608,-0.576 -1.608,-1.944 0,-6.242 8.617,-5.81 8.617,-10.394 z" />
</g>
<g
   transform="translate(-734.53977,-455.73001)"
   id="g577">
	<path
   style="fill:#ef842e"
   id="path579"
   d="m 1137.525,636.52 c 0,0 1.68,1.921 4.296,1.921 1.824,0 3.36,-1.272 3.36,-3.097 0,-1.896 -1.68,-3.024 -3.648,-3.024 l -1.2,0 -0.504,-1.271 3.528,-4.44 c 0.504,-0.721 0.984,-1.104 0.984,-1.104 l 0,-0.048 c 0,0 -0.504,0.072 -1.44,0.072 l -3.264,0 c -0.336,0 -0.528,0.168 -0.528,0.527 l 0,1.08 -2.208,0 0,-2.136 c 0,-1.08 0.384,-1.536 1.464,-1.536 l 8.929,0 0,1.512 -4.464,5.377 c 2.208,0.24 4.8,1.704 4.8,4.968 0,2.833 -2.28,5.377 -5.809,5.377 -3.529,0 -5.592,-2.376 -5.592,-2.376 l 1.296,-1.802 z" />
</g>
<path
   id="path581"
   d="m 374.22623,158.56199 -32.376,-22.052 22.413,-14.971 -2.228,-1.474 0.587,-0.352 -17.946,-11.25 20.185,-12.712001 -2.389,-1.688 0.15,-0.093 -2.156,-1.321 -1.674,-1.183 -0.127,0.078 -14.398,-8.829 21.68,-13.444 -6.041,-4.312 -22.173,13.75 -18.541,-11.369 -5.09,3.121 18.57,11.387 -18.78,11.646 0.16,0.114 -1.592,0.954 20.757,13.012001 -21.642,13.631 0.207,0.146 -2.269,1.493 19.536,13.307 -34.629,23.129 6.702,4.432 34.529,-23.063 32.329,22.02 6.246,-4.107 z m -20.579,-63.854001 -15.421,9.713001 -14.401,-9.028001 15.382,-9.538 14.44,8.853 z m -31.833,28.155001 17.854,-11.244 13.472,8.445 -17.891,11.949 -13.435,-9.15 z" />
<rect
   style="fill:#ef842e;stroke:#000000;stroke-width:2;stroke-miterlimit:10"
   id="rect583"
   height="42.113998"
   width="102.15"
   stroke-miterlimit="10"
   y="155.80002"
   x="282.89822" />
<circle
   style="fill:#ffffff;stroke:#000000;stroke-width:2;stroke-miterlimit:10"
   id="circle585"
   r="9.8559999"
   cy="198.80997"
   cx="305.3002"
   stroke-miterlimit="10" />
<circle
   style="fill:#ffffff;stroke:#000000;stroke-width:2;stroke-miterlimit:10"
   id="circle587"
   r="9.8559999"
   cy="198.80997"
   cx="358.16727"
   stroke-miterlimit="10" />
<g
   transform="translate(-734.53977,-455.73001)"
   id="g589">
	<polygon
   style="fill:#ffffff"
   id="polygon591"
   points="1025.317,629.44 1035.064,619.695 1029.409,619.695 1019.664,629.44 " />
	<polygon
   style="fill:#ffffff"
   id="polygon593"
   points="1051.338,619.695 1045.683,619.695 1035.938,629.439 1041.594,629.439 " />
	<polygon
   style="fill:#ffffff"
   id="polygon595"
   points="1067.611,619.695 1061.957,619.695 1052.213,629.439 1057.865,629.44 " />
	<polygon
   style="fill:#ffffff"
   id="polygon597"
   points="1083.885,619.695 1078.233,619.695 1068.486,629.44 1074.139,629.44 " />
	<polygon
   style="fill:#ffffff"
   id="polygon599"
   points="1090.925,629.439 1100.672,619.695 1095.018,619.695 1085.272,629.439 " />
	<polygon
   style="fill:#ffffff"
   id="polygon601"
   points="1116.945,619.695 1111.29,619.695 1101.547,629.439 1107.201,629.439 " />
</g>
<path
   style="fill:#4db8a3"
   id="path603"
   d="m 377.84723,59.661989 c 10e-4,-0.939 -1.286,-1.723 -3.027,-1.958 l 0,-23.551 c 0,-0.335 -0.063,-0.651 -0.157,-0.953 0.265,-0.455 0.426,-0.983 0.426,-1.554 0,-1.672 -1.31,-3.027 -2.925,-3.027 l -67.463,-10e-4 c -1.615,0 -2.926,1.356 -2.926,3.028 0,0.255 0.039,0.497 0.097,0.733 -0.538,0.549 -0.872,1.31 -0.872,2.152 l 0,23.171 c -1.741,0.235 -3.028,1.02 -3.028,1.96 l 0,9.174 c 0,1.126 1.834,2.037 4.097,2.037 l 71.68,0 c 2.264,10e-4 4.101,-0.912 4.101,-2.037 l 0,-9.174 z m -8.706,-15.666 -62.273,0 0,-9.32 62.272,0 0.001,9.32 z m -62.274,5.678 62.273,-10e-4 0,7.95 -62.273,0 0,-7.949 z" />
<rect
   id="rect605"
   height="100.431"
   width="7.6989999"
   y="56.369965"
   x="560.53418" />
<line
   style="fill:none;stroke:#000000;stroke-width:2;stroke-linecap:round;stroke-linejoin:round;stroke-miterlimit:10"
   id="line607"
   y2="222.82901"
   x2="467.30325"
   y1="156.80002"
   x1="518.06018"
   stroke-miterlimit="10" />
<line
   style="fill:none;stroke:#000000;stroke-width:2;stroke-linecap:round;stroke-linejoin:round;stroke-miterlimit:10"
   id="line609"
   y2="222.82901"
   x2="671.95618"
   y1="156.80002"
   x1="621.19922"
   stroke-miterlimit="10" />
<line
   style="fill:none;stroke:#000000;stroke-width:2;stroke-linecap:round;stroke-linejoin:round;stroke-miterlimit:10"
   id="line611"
   y2="222.82901"
   x2="471.11819"
   y1="222.82901"
   x1="461.23318"
   stroke-miterlimit="10" />
<line
   style="fill:none;stroke:#000000;stroke-width:2;stroke-linecap:round;stroke-linejoin:round;stroke-miterlimit:10"
   id="line613"
   y2="222.82901"
   x2="678.80615"
   y1="222.82901"
   x1="667.46021"
   stroke-miterlimit="10" />
<line
   style="fill:none;stroke:#000000;stroke-width:2;stroke-linecap:round;stroke-linejoin:round;stroke-miterlimit:10"
   id="line615"
   y2="210.82901"
   x2="943.47217"
   y1="210.82901"
   x1="1.0142425"
   stroke-miterlimit="10" />
</svg>