<?xml version="1.0" encoding="UTF-8" standalone="no"?>
<svg
   xmlns:dc="http://purl.org/dc/elements/1.1/"
   xmlns:cc="http://creativecommons.org/ns#"
   xmlns:rdf="http://www.w3.org/1999/02/22-rdf-syntax-ns#"
   xmlns:svg="http://www.w3.org/2000/svg"
   xmlns="http://www.w3.org/2000/svg"
   version="1.1"
   id="svg4651"
   viewBox="0 0 148.52506 221.73009"
   height="62.57716mm"
   width="41.917072mm">
  <defs
     id="defs4653" />
  <metadata
     id="metadata4656">
    <rdf:RDF>
      <cc:Work
         rdf:about="">
        <dc:format>image/svg+xml</dc:format>
        <dc:type
           rdf:resource="http://purl.org/dc/dcmitype/StillImage" />
        <dc:title></dc:title>
      </cc:Work>
    </rdf:RDF>
  </metadata>
  <g
     transform="translate(-275.80706,-324.48273)"
     id="layer1">
    <g
       id="g18"
       transform="translate(65.587062,44.627787)">
      <path
         id="path20"
         d="m 257.8,310.68 c 0,2.53 -2.05,7.36 -4.59,7.36 -2.54,0 -4.59,-4.83 -4.59,-7.36 0,-2.53 2.05,-4.59 4.59,-4.59 2.54,0 4.59,2.05 4.59,4.59 z"
         stroke-miterlimit="10"
         style="fill:none;stroke:#000000;stroke-width:0.69279999;stroke-miterlimit:10" />
      <path
         id="path22"
         d="m 286.05,310.68 c 0,2.53 -2.05,7.36 -4.59,7.36 -2.54,0 -4.59,-4.83 -4.59,-7.36 0,-2.53 2.05,-4.59 4.59,-4.59 2.54,0 4.59,2.05 4.59,4.59 z"
         stroke-miterlimit="10"
         style="fill:none;stroke:#000000;stroke-width:0.69279999;stroke-miterlimit:10" />
      <path
         id="path24"
         d="m 253.51,318.39 0,32.25 c 0,7.73 6.27,14 14,14 7.73,0 14,-6.27 14,-14 l 0,-32.25"
         stroke-miterlimit="10"
         style="fill:none;stroke:#000000;stroke-width:0.69279999;stroke-miterlimit:10" />
      <g
         id="g26">
        <path
           id="path28"
           d="m 315.03,366.47 c -8.88,0 -16.11,-7.23 -16.11,-16.11 l 0,-35.78 c 0,-2.41 1.95,-4.36 4.36,-4.36 2.41,0 4.36,1.95 4.36,4.36 l 0,35.78 c 0,4.07 3.31,7.39 7.39,7.39 4.08,0 7.39,-3.31 7.39,-7.39 l 0,-35.78 c 0,-2.41 1.95,-4.36 4.36,-4.36 2.41,0 4.36,1.95 4.36,4.36 l 0,35.78 c 0,8.89 -7.23,16.11 -16.11,16.11 z"
           stroke-miterlimit="10"
           style="fill:none;stroke:#000000;stroke-width:0.69279999;stroke-miterlimit:10" />
      </g>
    </g>
    <g
       id="g142"
       transform="translate(65.587062,44.627787)">
      <path
         id="path144"
         d="m 265.06,296.48 c 0,0.13 -0.03,0.15 -0.15,0.15 l -3.39,0 c -0.09,0 -0.13,-0.04 -0.13,-0.13 l 0,-7.27 c 0,-0.09 0.04,-0.13 0.13,-0.13 l 3.42,0 c 0.12,0 0.14,0.03 0.14,0.07 0,0.03 -0.02,0.1 -0.03,0.14 l -0.15,0.46 c -0.03,0.1 -0.07,0.1 -0.17,0.1 l -2.44,0 0,2.44 2.16,0 c 0.12,0 0.14,0.02 0.14,0.14 l 0,0.48 c 0,0.12 -0.02,0.14 -0.14,0.14 l -2.16,0 0,2.78 2.64,0 c 0.09,0 0.13,0.04 0.13,0.12 l 0,0.51 z" />
      <path
         id="path146"
         d="m 270.85,296.5 c 0,0.08 -0.04,0.13 -0.13,0.13 l -0.62,0 c -0.09,0 -0.13,-0.03 -0.18,-0.11 l -2.53,-5.43 c -0.13,-0.29 -0.24,-0.65 -0.3,-0.96 l -0.02,0.02 c 0.09,0.42 0.11,0.74 0.11,0.98 l 0,5.37 c 0,0.09 -0.04,0.13 -0.13,0.13 l -0.57,0 c -0.09,0 -0.13,-0.04 -0.13,-0.13 l 0,-7.27 c 0,-0.08 0.04,-0.13 0.13,-0.13 l 0.75,0 c 0.09,0 0.13,0.03 0.17,0.1 l 2.43,5.13 c 0.13,0.28 0.17,0.52 0.26,0.85 l 0.02,-0.02 c -0.03,-0.23 -0.1,-0.47 -0.1,-0.67 l 0,-5.25 c 0,-0.09 0.04,-0.13 0.13,-0.13 l 0.57,0 c 0.09,0 0.13,0.04 0.13,0.13 l 0,7.26 z" />
      <path
         id="path148"
         d="m 276.96,296.5 c 0,0.09 -0.04,0.13 -0.13,0.13 l -0.64,0 c -0.09,0 -0.13,-0.04 -0.13,-0.13 l 0,-7.27 c 0,-0.09 0.04,-0.13 0.13,-0.13 l 1.71,0 c 0.85,0 2.23,0.05 2.23,2 0,1.86 -1.22,2.35 -2.38,2.35 l -0.79,0 0,3.05 z m 0.72,-3.82 c 0.81,0 1.55,-0.21 1.55,-1.56 0,-1.22 -0.79,-1.25 -1.42,-1.25 l -0.85,0 0,2.82 0.72,0 z" />
      <path
         id="path150"
         d="m 286.26,296.38 c 0.02,0.08 0.04,0.13 0.05,0.19 0,0.06 -0.04,0.07 -0.15,0.07 l -0.68,0 c -0.13,0 -0.18,-0.04 -0.2,-0.12 l -0.62,-2.12 -2.25,0 -0.56,2.12 c -0.02,0.08 -0.07,0.12 -0.2,0.12 l -0.68,0 c -0.11,0 -0.15,-0.01 -0.15,-0.07 0.01,-0.05 0.02,-0.11 0.06,-0.19 l 2.2,-7.16 c 0.03,-0.11 0.04,-0.12 0.17,-0.12 l 0.65,0 c 0.09,0 0.12,0 0.17,0.12 l 2.19,7.16 z m -2.47,-5.19 c -0.09,-0.34 -0.2,-0.74 -0.25,-1.05 l -0.02,0 c -0.04,0.26 -0.15,0.75 -0.23,1.05 l -0.67,2.43 1.84,0 -0.67,-2.43 z" />
      <path
         id="path152"
         d="m 292.02,296.46 c 0.02,0.04 0.04,0.09 0.04,0.12 0,0.03 -0.04,0.07 -0.12,0.08 l -0.69,0.13 c -0.08,0.01 -0.13,-0.01 -0.17,-0.09 l -1.82,-3.5 -0.79,0 0,3.3 c 0,0.09 -0.04,0.13 -0.13,0.13 l -0.64,0 c -0.09,0 -0.13,-0.04 -0.13,-0.13 l 0,-7.27 c 0,-0.09 0.04,-0.13 0.13,-0.13 l 1.71,0 c 0.85,0 2.23,0.05 2.23,2 0,1.21 -0.85,1.83 -1.45,2.02 l 1.83,3.34 z m -2.83,-3.98 c 0.81,0 1.55,-0.19 1.55,-1.36 0,-1.22 -0.79,-1.25 -1.42,-1.25 l -0.85,0 0,2.62 0.72,0 z" />
      <path
         id="path154"
         d="m 298.08,296.38 c 0.02,0.08 0.04,0.13 0.05,0.19 0,0.06 -0.04,0.07 -0.15,0.07 l -0.68,0 c -0.13,0 -0.18,-0.04 -0.2,-0.12 l -0.62,-2.12 -2.25,0 -0.56,2.12 c -0.02,0.08 -0.07,0.12 -0.2,0.12 l -0.68,0 c -0.11,0 -0.15,-0.01 -0.15,-0.07 0.01,-0.05 0.02,-0.11 0.06,-0.19 l 2.2,-7.16 c 0.03,-0.11 0.04,-0.12 0.17,-0.12 l 0.65,0 c 0.09,0 0.12,0 0.17,0.12 l 2.19,7.16 z m -2.46,-5.19 c -0.09,-0.34 -0.2,-0.74 -0.25,-1.05 l -0.02,0 c -0.04,0.26 -0.15,0.75 -0.23,1.05 l -0.67,2.43 1.84,0 -0.67,-2.43 z" />
      <path
         id="path156"
         d="m 303.17,295.86 c 0.08,0 0.13,0.02 0.13,0.09 0,0.04 -0.03,0.09 -0.04,0.14 l -0.15,0.42 c -0.03,0.09 -0.1,0.12 -0.18,0.12 l -3.32,0 c -0.09,0 -0.13,-0.04 -0.13,-0.13 l 0,-7.27 c 0,-0.09 0.04,-0.13 0.13,-0.13 l 0.64,0 c 0.09,0 0.13,0.04 0.13,0.13 l 0,6.63 2.79,0 z" />
      <path
         id="path158"
         d="m 308.05,296.48 c 0,0.13 -0.03,0.15 -0.15,0.15 l -3.39,0 c -0.09,0 -0.13,-0.04 -0.13,-0.13 l 0,-7.27 c 0,-0.09 0.04,-0.13 0.13,-0.13 l 3.42,0 c 0.12,0 0.14,0.03 0.14,0.07 0,0.03 -0.02,0.1 -0.03,0.14 l -0.15,0.46 c -0.03,0.1 -0.07,0.1 -0.17,0.1 l -2.44,0 0,2.44 2.16,0 c 0.12,0 0.14,0.02 0.14,0.14 l 0,0.48 c 0,0.12 -0.02,0.14 -0.14,0.14 l -2.16,0 0,2.78 2.64,0 c 0.09,0 0.13,0.04 0.13,0.12 l 0,0.51 z" />
      <path
         id="path160"
         d="m 313.14,295.86 c 0.08,0 0.13,0.02 0.13,0.09 0,0.04 -0.03,0.09 -0.04,0.14 l -0.15,0.42 c -0.03,0.09 -0.1,0.12 -0.18,0.12 l -3.32,0 c -0.09,0 -0.13,-0.04 -0.13,-0.13 l 0,-7.27 c 0,-0.09 0.04,-0.13 0.13,-0.13 l 0.64,0 c 0.09,0 0.13,0.04 0.13,0.13 l 0,6.63 2.79,0 z" />
      <path
         id="path162"
         d="m 316.36,296.79 c -1.77,0 -2.49,-1.58 -2.49,-3.93 0,-2.35 0.73,-3.92 2.49,-3.92 1.75,0 2.49,1.57 2.49,3.92 0,2.34 -0.73,3.93 -2.49,3.93 z m 1.5,-3.93 c 0,-1.91 -0.26,-3.18 -1.5,-3.18 -1.22,0 -1.5,1.27 -1.5,3.18 0,1.92 0.25,3.19 1.5,3.19 1.25,0 1.5,-1.27 1.5,-3.19 z" />
    </g>
    <g
       id="g164"
       transform="translate(65.587062,44.627787)">
      <path
         id="path166"
         d="m 217.06,399.46 c 0.05,-0.04 0.1,-0.07 0.15,-0.07 0.18,0 0.85,0.79 0.85,1.76 0,1.87 -1.72,2.53 -3.99,2.53 -2.09,0 -3.85,-0.54 -3.85,-2.45 0,-0.97 0.67,-1.76 0.85,-1.76 0.05,0 0.1,0.02 0.15,0.07 l 0.3,0.23 c 0.04,0.03 0.09,0.07 0.09,0.11 0,0.08 -0.65,0.69 -0.65,1.33 0,1.19 1.13,1.49 3,1.49 2.04,0 3.37,-0.44 3.37,-1.56 0,-0.64 -0.65,-1.25 -0.65,-1.33 0,-0.03 0.06,-0.08 0.09,-0.11 l 0.29,-0.24 z" />
      <path
         id="path168"
         d="m 217.75,394.44 c 0.13,0 0.15,0.03 0.15,0.15 l 0,3.39 c 0,0.09 -0.04,0.13 -0.13,0.13 l -7.27,0 c -0.09,0 -0.13,-0.04 -0.13,-0.13 l 0,-3.42 c 0,-0.12 0.03,-0.14 0.07,-0.14 0.03,0 0.1,0.02 0.14,0.03 l 0.46,0.15 c 0.1,0.03 0.1,0.07 0.1,0.17 l 0,2.44 2.44,0 0,-2.16 c 0,-0.12 0.02,-0.14 0.14,-0.14 l 0.48,0 c 0.12,0 0.14,0.02 0.14,0.14 l 0,2.16 2.78,0 0,-2.64 c 0,-0.09 0.04,-0.13 0.12,-0.13 l 0.51,0 z" />
      <path
         id="path170"
         d="m 211.31,389.75 c 0.09,0.04 0.14,0.04 0.14,0.12 0,0.04 -0.02,0.1 -0.05,0.15 -0.11,0.21 -0.39,0.77 -0.39,1.4 0,0.66 0.34,1.17 1.08,1.17 1.16,0 1.36,-1.44 2.09,-2.32 0.48,-0.59 1,-0.89 1.73,-0.89 1.34,0 2.16,0.99 2.16,2.33 0,1.02 -0.47,1.84 -0.55,2 -0.02,0.05 -0.07,0.09 -0.12,0.09 -0.03,0 -0.09,-0.03 -0.13,-0.04 l -0.36,-0.14 c -0.09,-0.03 -0.14,-0.05 -0.14,-0.12 0,-0.04 0.02,-0.1 0.05,-0.15 0.1,-0.22 0.46,-0.89 0.46,-1.66 0,-0.83 -0.52,-1.31 -1.25,-1.31 -1.83,0 -1.55,3.21 -3.83,3.21 -1.27,0 -1.97,-1.04 -1.97,-2.19 0,-0.88 0.4,-1.58 0.47,-1.74 0.03,-0.05 0.09,-0.09 0.12,-0.09 0.03,0 0.09,0.03 0.13,0.04 l 0.36,0.14 z" />
      <path
         id="path172"
         d="m 211.14,386.05 6.63,0 c 0.09,0 0.13,0.04 0.13,0.13 l 0,0.64 c 0,0.09 -0.04,0.13 -0.13,0.13 l -6.63,0 0,1.64 c 0,0.09 -0.04,0.13 -0.13,0.13 l -0.49,0 c -0.08,0 -0.14,-0.03 -0.14,-0.15 l 0,-4.31 c 0,-0.08 0.02,-0.13 0.09,-0.13 0.04,0 0.09,0.03 0.14,0.04 l 0.42,0.15 c 0.09,0.03 0.12,0.1 0.12,0.18 l 0,1.55 z" />
      <path
         id="path174"
         d="m 217.65,378.34 c 0.08,-0.02 0.13,-0.04 0.19,-0.05 0.06,0 0.07,0.04 0.07,0.15 l 0,0.68 c 0,0.13 -0.04,0.18 -0.12,0.2 l -2.12,0.62 0,2.25 2.12,0.56 c 0.08,0.02 0.12,0.07 0.12,0.2 l 0,0.68 c 0,0.11 -0.01,0.15 -0.07,0.15 -0.05,-0.01 -0.11,-0.02 -0.19,-0.06 l -7.16,-2.2 c -0.11,-0.03 -0.12,-0.04 -0.12,-0.17 l 0,-0.65 c 0,-0.09 0,-0.12 0.12,-0.17 l 7.16,-2.19 z m -5.19,2.46 c -0.34,0.09 -0.74,0.2 -1.05,0.25 l 0,0.02 c 0.26,0.04 0.75,0.15 1.05,0.23 l 2.43,0.67 0,-1.84 -2.43,0.67 z" />
    </g>
    <g
       id="g176"
       transform="translate(65.587062,44.627787)">
      <path
         id="path178"
         d="m 269.34,393.14 c 0,0.13 -0.03,0.15 -0.15,0.15 l -3.39,0 c -0.09,0 -0.13,-0.04 -0.13,-0.13 l 0,-7.27 c 0,-0.09 0.04,-0.13 0.13,-0.13 l 3.42,0 c 0.12,0 0.14,0.03 0.14,0.07 0,0.03 -0.02,0.1 -0.03,0.14 l -0.15,0.46 c -0.03,0.1 -0.07,0.1 -0.17,0.1 l -2.44,0 0,2.44 2.16,0 c 0.12,0 0.14,0.02 0.14,0.14 l 0,0.48 c 0,0.12 -0.02,0.14 -0.14,0.14 l -2.16,0 0,2.78 2.64,0 c 0.09,0 0.13,0.04 0.13,0.12 l 0,0.51 z" />
      <path
         id="path180"
         d="m 275.13,393.17 c 0,0.08 -0.04,0.13 -0.13,0.13 l -0.62,0 c -0.09,0 -0.13,-0.03 -0.18,-0.11 l -2.53,-5.43 c -0.13,-0.29 -0.24,-0.65 -0.3,-0.96 l -0.02,0.02 c 0.09,0.42 0.11,0.74 0.11,0.98 l 0,5.37 c 0,0.09 -0.04,0.13 -0.13,0.13 l -0.57,0 c -0.09,0 -0.13,-0.04 -0.13,-0.13 l 0,-7.27 c 0,-0.08 0.04,-0.13 0.13,-0.13 l 0.75,0 c 0.09,0 0.13,0.03 0.17,0.1 l 2.43,5.13 c 0.13,0.28 0.17,0.52 0.26,0.85 l 0.02,-0.02 c -0.03,-0.23 -0.1,-0.47 -0.1,-0.67 l 0,-5.25 c 0,-0.09 0.04,-0.13 0.13,-0.13 l 0.57,0 c 0.09,0 0.13,0.04 0.13,0.13 l 0,7.26 z" />
      <path
         id="path182"
         d="m 285.04,393.04 c 0.02,0.08 0.04,0.13 0.05,0.19 0,0.06 -0.04,0.07 -0.15,0.07 l -0.68,0 c -0.13,0 -0.18,-0.04 -0.2,-0.12 l -0.62,-2.12 -2.25,0 -0.56,2.12 c -0.02,0.08 -0.07,0.12 -0.2,0.12 l -0.68,0 c -0.11,0 -0.15,-0.01 -0.15,-0.07 0.01,-0.05 0.02,-0.11 0.06,-0.19 l 2.2,-7.16 c 0.03,-0.11 0.04,-0.12 0.17,-0.12 l 0.65,0 c 0.09,0 0.12,0 0.17,0.12 l 2.19,7.16 z m -3.47,-8.08 c -0.03,0.02 -0.07,0.03 -0.11,0.03 -0.03,0 -0.07,-0.03 -0.1,-0.09 l -0.1,-0.15 c -0.02,-0.03 -0.06,-0.08 -0.06,-0.11 0,-0.03 0.04,-0.05 0.09,-0.1 l 1.59,-1.23 c 0.02,-0.01 0.07,-0.06 0.11,-0.06 0.04,0 0.08,0.06 0.11,0.09 l 0.32,0.47 c 0.02,0.03 0.04,0.07 0.04,0.11 0,0.04 -0.04,0.08 -0.1,0.1 l -1.79,0.94 z m 1,2.89 c -0.09,-0.34 -0.2,-0.74 -0.25,-1.05 l -0.02,0 c -0.04,0.26 -0.15,0.75 -0.23,1.05 l -0.67,2.43 1.84,0 -0.67,-2.43 z" />
      <path
         id="path184"
         d="m 290.81,393.17 c 0,0.08 -0.04,0.13 -0.13,0.13 l -0.62,0 c -0.09,0 -0.13,-0.03 -0.18,-0.11 l -2.53,-5.43 c -0.13,-0.29 -0.24,-0.65 -0.3,-0.96 l -0.02,0.02 c 0.09,0.42 0.11,0.74 0.11,0.98 l 0,5.37 c 0,0.09 -0.04,0.13 -0.13,0.13 l -0.57,0 c -0.09,0 -0.13,-0.04 -0.13,-0.13 l 0,-7.27 c 0,-0.08 0.04,-0.13 0.13,-0.13 l 0.75,0 c 0.09,0 0.13,0.03 0.17,0.1 l 2.43,5.13 c 0.13,0.28 0.17,0.52 0.26,0.85 l 0.02,-0.02 c -0.03,-0.23 -0.1,-0.47 -0.1,-0.67 l 0,-5.25 c 0,-0.09 0.04,-0.13 0.13,-0.13 l 0.57,0 c 0.09,0 0.13,0.04 0.13,0.13 l 0,7.26 z" />
      <path
         id="path186"
         d="m 296.86,392.58 c 0,0.29 0,0.37 -0.15,0.46 -0.41,0.23 -1.11,0.41 -1.78,0.41 -1.95,0 -2.64,-1.72 -2.64,-3.99 0,-2.09 0.73,-3.85 2.66,-3.85 1.01,0 1.83,0.52 1.83,0.67 0,0.04 -0.02,0.08 -0.05,0.14 l -0.17,0.31 c -0.03,0.08 -0.09,0.15 -0.14,0.15 -0.11,0 -0.56,-0.54 -1.44,-0.54 -1.21,0 -1.69,1.14 -1.69,3 0,2.04 0.47,3.37 1.67,3.37 0.51,0 0.8,-0.11 1.01,-0.21 l 0,-2.31 -0.88,0 c -0.09,0 -0.13,-0.04 -0.13,-0.13 l 0,-0.45 c 0,-0.09 0.04,-0.13 0.13,-0.13 l 1.65,0 c 0.09,0 0.13,0.04 0.13,0.13 l 0,2.97 z" />
      <path
         id="path188"
         d="m 303.23,391.27 c 0,1.32 -0.74,2.18 -2.42,2.18 -1.66,0 -2.28,-0.85 -2.28,-2.18 l 0,-5.38 c 0,-0.09 0.04,-0.13 0.13,-0.13 l 0.64,0 c 0.09,0 0.13,0.04 0.13,0.13 l 0,5.36 c 0,0.9 0.35,1.46 1.39,1.46 1.01,0 1.51,-0.46 1.51,-1.46 l 0,-5.36 c 0,-0.09 0.04,-0.13 0.13,-0.13 l 0.64,0 c 0.09,0 0.13,0.04 0.13,0.13 l 0,5.38 z" />
      <path
         id="path190"
         d="m 308.86,392.53 c 0.08,0 0.13,0.02 0.13,0.09 0,0.04 -0.03,0.09 -0.04,0.14 l -0.15,0.42 c -0.03,0.09 -0.1,0.12 -0.18,0.12 l -3.32,0 c -0.09,0 -0.13,-0.04 -0.13,-0.13 l 0,-7.27 c 0,-0.09 0.04,-0.13 0.13,-0.13 l 0.64,0 c 0.09,0 0.13,0.04 0.13,0.13 l 0,6.63 2.79,0 z" />
      <path
         id="path192"
         d="m 312.08,393.45 c -1.77,0 -2.49,-1.58 -2.49,-3.93 0,-2.35 0.73,-3.92 2.49,-3.92 1.75,0 2.49,1.57 2.49,3.92 0,2.35 -0.73,3.93 -2.49,3.93 z m 1.5,-3.93 c 0,-1.91 -0.26,-3.18 -1.5,-3.18 -1.22,0 -1.5,1.27 -1.5,3.18 0,1.92 0.25,3.19 1.5,3.19 1.25,0 1.5,-1.26 1.5,-3.19 z" />
    </g>
    <g
       id="g194"
       transform="translate(65.587062,44.627787)">
      <path
         id="path196"
         d="m 268.54,473.33 c 0,-1.19 0.5,-2 2.09,-2 1.07,0 1.83,0.48 1.83,1.42 0,1.23 -1.21,1.47 -1.21,2.11 0,0.48 0.98,0.92 1.49,1.41 0.45,0.43 0.69,0.76 0.69,1.39 0,1.18 -0.66,1.79 -1.78,1.79 -0.53,0 -1.31,-0.17 -1.31,-0.32 0,-0.07 0.02,-0.12 0.04,-0.18 l 0.11,-0.4 c 0.01,-0.05 0.04,-0.08 0.08,-0.08 0.1,0 0.56,0.29 1.14,0.29 0.65,0 0.91,-0.38 0.91,-0.98 0,-1.29 -2.21,-1.42 -2.21,-2.79 0,-1.16 1.21,-1.14 1.21,-2.1 0,-0.56 -0.42,-0.88 -1.06,-0.88 -0.87,0 -1.19,0.41 -1.19,1.34 l 0,5.81 c 0,0.11 -0.02,0.13 -0.14,0.13 l -0.56,0 c -0.09,0 -0.13,-0.04 -0.13,-0.13 l 0,-5.83 z" />
      <path
         id="path198"
         d="m 279.15,476 c 0,0.13 -0.02,0.15 -0.15,0.15 l -4.71,0 c -0.13,0 -0.14,-0.02 -0.14,-0.15 l 0,-0.48 c 0,-0.13 0.01,-0.15 0.14,-0.15 l 4.71,0 c 0.13,0 0.15,0.02 0.15,0.15 l 0,0.48 z m 0,1.5 c 0,0.13 -0.02,0.15 -0.15,0.15 l -4.71,0 c -0.13,0 -0.14,-0.02 -0.14,-0.15 l 0,-0.48 c 0,-0.13 0.01,-0.15 0.14,-0.15 l 4.71,0 c 0.13,0 0.15,0.02 0.15,0.15 l 0,0.48 z" />
      <path
         id="path200"
         d="m 282.22,472.07 c 1.66,0 2.19,1.69 2.19,3.61 0,2.11 -0.61,3.77 -2.28,3.77 -1.54,0 -2.23,-1.56 -2.23,-3.64 -0.01,-2.14 0.77,-3.74 2.32,-3.74 z m -1.42,3.67 c 0,1.69 0.35,2.94 1.35,2.94 1.08,0 1.35,-1.3 1.35,-3 0,-1.41 -0.26,-2.84 -1.31,-2.84 -1.01,0 -1.39,1.34 -1.39,2.9 z" />
      <path
         id="path202"
         d="m 292.38,477.56 c 0,0.69 0.03,0.79 0.13,1.1 0.04,0.13 0.2,0.34 0.2,0.41 0,0.04 -0.05,0.07 -0.1,0.09 l -0.43,0.26 c -0.04,0.02 -0.07,0.03 -0.09,0.03 -0.17,0 -0.36,-0.58 -0.42,-0.74 -0.13,0.12 -0.67,0.74 -1.58,0.74 -0.87,0 -1.43,-0.57 -1.43,-1.55 0,-1.86 2.2,-1.89 2.88,-1.91 l 0,-0.4 c 0,-0.64 -0.2,-0.99 -0.98,-0.99 -0.74,0 -1.24,0.35 -1.34,0.35 -0.03,0 -0.07,-0.02 -0.08,-0.05 L 289,474.51 c -0.02,-0.05 -0.03,-0.09 -0.03,-0.14 0,-0.19 1.01,-0.51 1.72,-0.51 1.27,0 1.69,0.62 1.69,1.54 l 0,2.16 z m -0.84,-0.89 c -0.48,0.01 -2.06,0.01 -2.06,1.17 0,0.44 0.24,0.93 0.8,0.93 0.57,0 1.08,-0.53 1.25,-0.68 l 0,-1.42 z" />
      <path
         id="path204"
         d="m 300.63,479.3 c 0,0.12 -0.02,0.15 -0.14,0.15 l -0.54,0 c -0.12,0 -0.15,-0.03 -0.15,-0.15 l 0,-1.56 -2.8,0 c -0.13,0 -0.15,-0.02 -0.15,-0.14 l 0,-0.63 2.88,-4.8 c 0.03,-0.05 0.05,-0.1 0.12,-0.1 0.03,0 0.08,0.01 0.14,0.02 l 0.46,0.08 c 0.07,0.01 0.14,0.03 0.14,0.08 0,0.03 -0.03,0.1 -0.06,0.12 l -2.83,4.65 2.08,0 0.14,-1.77 c 0,-0.11 0.01,-0.14 0.15,-0.14 l 0.4,0 c 0.12,0 0.14,0.03 0.14,0.15 l 0,1.76 0.88,0 c 0.12,0 0.15,0.02 0.15,0.15 l 0,0.42 c 0,0.13 -0.03,0.14 -0.15,0.14 l -0.88,0 0,1.57 z" />
      <path
         id="path206"
         d="m 303.62,475.23 c 0.26,-0.19 0.65,-0.47 1.32,-0.47 1.11,0 1.87,0.87 1.87,2.15 0,1.43 -0.87,2.55 -2.54,2.55 -0.67,0 -1.49,-0.14 -1.49,-0.32 0,-0.03 0,-0.05 0.01,-0.09 l 0.12,-0.5 c 0,-0.03 0.04,-0.08 0.09,-0.08 0.1,0 0.52,0.21 1.19,0.21 1.24,0 1.72,-0.7 1.72,-1.76 0,-0.86 -0.4,-1.4 -1.13,-1.4 -0.92,0 -1.22,0.68 -1.39,0.68 -0.03,0 -0.07,0 -0.09,-0.01 l -0.38,-0.13 c -0.08,-0.02 -0.12,-0.03 -0.12,-0.1 0,-0.03 0.02,-0.13 0.02,-0.18 l 0.33,-3.42 c 0.01,-0.12 0.03,-0.14 0.15,-0.14 l 2.86,0 c 0.13,0 0.15,0.02 0.15,0.15 l 0,0.47 c 0,0.12 -0.03,0.14 -0.15,0.14 l -2.3,0 -0.24,2.25 z" />
      <path
         id="path208"
         d="m 309.7,475.8 c -1,0 -1.44,-0.8 -1.44,-1.84 0,-1.02 0.44,-1.89 1.51,-1.89 1.02,0 1.45,0.8 1.45,1.85 0,1.02 -0.44,1.88 -1.52,1.88 z m 0.79,-1.89 c 0,-0.63 -0.15,-1.27 -0.74,-1.27 -0.59,0 -0.75,0.61 -0.75,1.24 0,0.73 0.15,1.34 0.75,1.34 0.58,0.01 0.74,-0.57 0.74,-1.31 z" />
      <path
         id="path210"
         d="m 265.79,487.33 c 0,-1.19 0.5,-2 2.09,-2 1.07,0 1.83,0.48 1.83,1.42 0,1.23 -1.21,1.47 -1.21,2.11 0,0.48 0.98,0.92 1.49,1.41 0.45,0.43 0.69,0.76 0.69,1.39 0,1.18 -0.66,1.79 -1.78,1.79 -0.53,0 -1.31,-0.17 -1.31,-0.32 0,-0.07 0.02,-0.12 0.04,-0.18 l 0.11,-0.4 c 0.01,-0.05 0.04,-0.08 0.08,-0.08 0.1,0 0.56,0.29 1.14,0.29 0.65,0 0.91,-0.38 0.91,-0.98 0,-1.29 -2.21,-1.42 -2.21,-2.79 0,-1.16 1.21,-1.14 1.21,-2.1 0,-0.56 -0.42,-0.88 -1.06,-0.88 -0.87,0 -1.19,0.41 -1.19,1.34 l 0,5.81 c 0,0.11 -0.02,0.13 -0.14,0.13 l -0.56,0 c -0.09,0 -0.13,-0.04 -0.13,-0.13 l 0,-5.83 z" />
      <path
         id="path212"
         d="m 276.4,490 c 0,0.13 -0.02,0.15 -0.15,0.15 l -4.71,0 c -0.13,0 -0.14,-0.02 -0.14,-0.15 l 0,-0.48 c 0,-0.13 0.01,-0.15 0.14,-0.15 l 4.71,0 c 0.13,0 0.15,0.02 0.15,0.15 l 0,0.48 z m 0,1.5 c 0,0.13 -0.02,0.15 -0.15,0.15 l -4.71,0 c -0.13,0 -0.14,-0.02 -0.14,-0.15 l 0,-0.48 c 0,-0.13 0.01,-0.15 0.14,-0.15 l 4.71,0 c 0.13,0 0.15,0.02 0.15,0.15 l 0,0.48 z" />
      <path
         id="path214"
         d="m 280.78,493.3 c 0,0.12 -0.02,0.15 -0.14,0.15 l -0.54,0 c -0.12,0 -0.15,-0.03 -0.15,-0.15 l 0,-1.56 -2.79,0 c -0.13,0 -0.15,-0.02 -0.15,-0.14 l 0,-0.63 2.88,-4.8 c 0.03,-0.05 0.05,-0.1 0.12,-0.1 0.03,0 0.08,0.01 0.14,0.02 l 0.46,0.08 c 0.07,0.01 0.14,0.03 0.14,0.08 0,0.03 -0.03,0.1 -0.06,0.12 l -2.83,4.65 2.08,0 0.14,-1.77 c 0,-0.11 0.01,-0.14 0.15,-0.14 l 0.4,0 c 0.12,0 0.14,0.03 0.14,0.15 l 0,1.76 0.88,0 c 0.12,0 0.15,0.02 0.15,0.15 l 0,0.42 c 0,0.13 -0.03,0.14 -0.15,0.14 l -0.88,0 0,1.57 z" />
      <path
         id="path216"
         d="m 285.7,486.07 c 0.46,0 0.89,0.12 0.99,0.18 0.04,0.02 0.08,0.05 0.08,0.1 0,0.02 -0.01,0.05 -0.02,0.09 l -0.15,0.41 c -0.02,0.04 -0.05,0.09 -0.11,0.09 -0.1,0 -0.31,-0.12 -0.74,-0.12 -1.69,0 -1.91,1.8 -2.04,2.48 l 0.02,0.02 c 0.13,-0.23 0.51,-0.85 1.42,-0.85 1.08,0 1.85,0.94 1.85,2.44 0,1.46 -0.84,2.55 -2.13,2.55 -1.47,0 -2.04,-1.2 -2.04,-3.03 0,-1.78 0.62,-4.36 2.87,-4.36 z m 0.4,4.87 c 0,-0.96 -0.37,-1.72 -1.16,-1.72 -0.88,0 -1.21,0.77 -1.21,1.77 0,1.09 0.42,1.68 1.14,1.68 0.68,0.01 1.23,-0.54 1.23,-1.73 z" />
      <path
         id="path218"
         d="m 295.13,491.56 c 0,0.69 0.03,0.79 0.13,1.1 0.04,0.13 0.2,0.34 0.2,0.41 0,0.04 -0.05,0.07 -0.1,0.09 l -0.43,0.26 c -0.04,0.02 -0.07,0.03 -0.09,0.03 -0.17,0 -0.36,-0.58 -0.42,-0.74 -0.13,0.12 -0.67,0.74 -1.58,0.74 -0.87,0 -1.43,-0.57 -1.43,-1.55 0,-1.86 2.2,-1.89 2.88,-1.91 l 0,-0.4 c 0,-0.64 -0.2,-0.99 -0.98,-0.99 -0.74,0 -1.24,0.35 -1.34,0.35 -0.03,0 -0.07,-0.02 -0.08,-0.05 l -0.14,-0.39 c -0.02,-0.05 -0.03,-0.09 -0.03,-0.14 0,-0.19 1.01,-0.51 1.72,-0.51 1.27,0 1.69,0.62 1.69,1.54 l 0,2.16 z m -0.84,-0.89 c -0.48,0.01 -2.06,0.01 -2.06,1.17 0,0.44 0.24,0.93 0.8,0.93 0.57,0 1.08,-0.53 1.25,-0.68 l 0,-1.42 z" />
      <path
         id="path220"
         d="m 302.81,486.07 c 0.46,0 0.89,0.12 0.99,0.18 0.04,0.02 0.08,0.05 0.08,0.1 0,0.02 -0.01,0.05 -0.02,0.09 l -0.15,0.41 c -0.02,0.04 -0.05,0.09 -0.11,0.09 -0.1,0 -0.31,-0.12 -0.74,-0.12 -1.69,0 -1.91,1.8 -2.04,2.48 l 0.02,0.02 c 0.13,-0.23 0.51,-0.85 1.42,-0.85 1.08,0 1.85,0.94 1.85,2.44 0,1.46 -0.84,2.55 -2.13,2.55 -1.47,0 -2.04,-1.2 -2.04,-3.03 0,-1.78 0.61,-4.36 2.87,-4.36 z m 0.39,4.87 c 0,-0.96 -0.37,-1.72 -1.16,-1.72 -0.88,0 -1.21,0.77 -1.21,1.77 0,1.09 0.42,1.68 1.14,1.68 0.68,0.01 1.23,-0.54 1.23,-1.73 z" />
      <path
         id="path222"
         d="m 307.57,486.07 c 1.66,0 2.19,1.69 2.19,3.61 0,2.11 -0.61,3.77 -2.28,3.77 -1.54,0 -2.23,-1.56 -2.23,-3.64 0,-2.14 0.77,-3.74 2.32,-3.74 z m -1.42,3.67 c 0,1.69 0.35,2.94 1.35,2.94 1.08,0 1.35,-1.3 1.35,-3 0,-1.41 -0.26,-2.84 -1.31,-2.84 -1,0 -1.39,1.34 -1.39,2.9 z" />
      <path
         id="path224"
         d="m 312.45,489.8 c -1,0 -1.44,-0.8 -1.44,-1.84 0,-1.02 0.44,-1.89 1.51,-1.89 1.02,0 1.45,0.8 1.45,1.85 0,1.02 -0.44,1.88 -1.52,1.88 z m 0.79,-1.89 c 0,-0.63 -0.15,-1.27 -0.74,-1.27 -0.59,0 -0.75,0.61 -0.75,1.24 0,0.73 0.15,1.34 0.75,1.34 0.58,0.01 0.74,-0.57 0.74,-1.31 z" />
    </g>
    <g
       id="g338"
       transform="translate(65.587062,44.627787)">
      <path
         id="path340"
         d="m 251.51,431.7 c -1.47,1.46 -5.44,3.07 -6.9,1.6 -1.47,-1.46 0.14,-5.44 1.6,-6.9 1.46,-1.46 3.84,-1.46 5.3,0 1.46,1.47 1.46,3.84 0,5.3 z"
         stroke-miterlimit="10"
         style="fill:none;stroke:#000000;stroke-width:0.69279999;stroke-miterlimit:10" />
      <path
         id="path342"
         d="m 269.59,426.51 c 1.46,1.47 3.07,5.44 1.6,6.9 -1.46,1.47 -5.44,-0.14 -6.9,-1.6 -1.46,-1.46 -1.46,-3.84 0,-5.3 1.46,-1.47 3.84,-1.47 5.3,0 z"
         stroke-miterlimit="10"
         style="fill:none;stroke:#000000;stroke-width:0.69279999;stroke-miterlimit:10" />
      <path
         id="path344"
         d="m 271.24,433.75 12.93,12.85 c 3.93,4.29 3.21,6.71 -6.71,6.71 l -40.24,0 c -8.26,0 -10.61,-2.05 -6.71,-6.71 l 13.86,-12.96"
         stroke-miterlimit="10"
         style="fill:none;stroke:#000000;stroke-width:0.69279999;stroke-miterlimit:10" />
    </g>
    <g
       id="g346"
       transform="translate(65.587062,44.627787)">
      <path
         id="path348"
         d="m 346.47,442.26 -7.7,-7.27 c -0.54,-0.51 -1.39,-0.48 -1.9,0.05 -0.51,0.54 -0.48,1.39 0.05,1.9 l 7.71,7.27 c 0.05,0.05 5.06,4.84 3.43,9.64 -1.89,5.56 -5.84,5.51 -7.13,5.49 l -8.2,0 0,0 -17.59,0 -0.17,0 c -1.29,0.03 -5.24,0.07 -7.13,-5.49 -1.62,-4.77 3.38,-9.59 3.43,-9.64 l 7.7,-7.27 c 0.54,-0.51 0.56,-1.36 0.06,-1.9 -0.51,-0.54 -1.36,-0.56 -1.9,-0.05 l -7.7,7.27 c -0.26,0.24 -6.31,6.04 -4.13,12.46 1.14,3.34 3.71,7.31 9.53,7.31 0.06,0 0.12,0 0.18,0 l 17.72,0 8.04,0 0.14,0 c 0.06,0 0.12,0 0.18,0 5.82,0 8.39,-3.96 9.53,-7.31 2.16,-6.41 -3.89,-12.21 -4.15,-12.46 z"
         stroke-miterlimit="10"
         style="fill:none;stroke:#000000;stroke-width:0.69279999;stroke-miterlimit:10" />
      <line
         id="line350"
         y2="420.73999"
         x2="331.19"
         y1="444.76999"
         x1="307.07001"
         stroke-miterlimit="10"
         style="fill:none;stroke:#ffde00;stroke-width:0.92919999;stroke-linecap:round;stroke-linejoin:round;stroke-miterlimit:10" />
      <line
         id="line352"
         y2="444.76999"
         x2="306.82999"
         y1="409.04999"
         x1="306.82999"
         stroke-miterlimit="10"
         style="fill:none;stroke:#ffde00;stroke-width:0.92919999;stroke-linecap:round;stroke-linejoin:round;stroke-miterlimit:10" />
      <path
         id="path354"
         d="m 328.39,428.33 c -1.52,-9 -12.93,-14.57 -25.5,-12.44"
         stroke-miterlimit="10"
         style="fill:none;stroke:#ffde00;stroke-width:0.92919999;stroke-linecap:round;stroke-linejoin:round;stroke-miterlimit:10" />
      <g
         id="g356">
        <path
           id="path358"
           d="m 319.69,413.5 0,-4.71 c 0,-0.58 0.07,-1.02 0.21,-1.33 0.14,-0.31 0.37,-0.55 0.7,-0.73 0.33,-0.18 0.69,-0.26 1.1,-0.26 0.54,0 0.97,0.14 1.28,0.41 0.31,0.27 0.47,0.59 0.47,0.95 0,0.16 -0.03,0.33 -0.08,0.5 -0.05,0.17 -0.16,0.38 -0.3,0.63 -0.14,0.25 -0.24,0.43 -0.27,0.53 -0.04,0.1 -0.06,0.19 -0.06,0.26 0,0.1 0.03,0.2 0.1,0.3 0.07,0.1 0.26,0.25 0.57,0.46 0.43,0.28 0.71,0.5 0.85,0.67 0.2,0.24 0.3,0.53 0.3,0.86 0,0.44 -0.16,0.81 -0.48,1.12 -0.32,0.31 -0.73,0.47 -1.24,0.47 -0.4,0 -0.74,-0.11 -1.04,-0.32 -0.3,-0.21 -0.52,-0.49 -0.67,-0.82 l 0.73,-0.34 c 0.16,0.29 0.31,0.5 0.47,0.61 0.16,0.11 0.32,0.17 0.5,0.17 0.24,0 0.44,-0.08 0.61,-0.25 0.17,-0.17 0.25,-0.36 0.25,-0.58 0,-0.18 -0.05,-0.33 -0.15,-0.45 -0.07,-0.08 -0.24,-0.22 -0.53,-0.42 -0.52,-0.36 -0.84,-0.63 -0.97,-0.81 -0.13,-0.18 -0.19,-0.36 -0.19,-0.55 0,-0.12 0.02,-0.25 0.06,-0.37 0.04,-0.13 0.14,-0.33 0.31,-0.6 0.16,-0.28 0.27,-0.48 0.32,-0.62 0.05,-0.14 0.08,-0.26 0.08,-0.37 0,-0.2 -0.09,-0.37 -0.26,-0.52 -0.17,-0.15 -0.4,-0.22 -0.69,-0.22 -0.34,0 -0.61,0.1 -0.83,0.31 -0.21,0.21 -0.32,0.66 -0.32,1.35 l 0,4.67 -0.83,0 z" />
      </g>
    </g>
    <rect
       id="rect408"
       height="221"
       width="137"
       stroke-miterlimit="10"
       y="324.84778"
       x="286.96707"
       style="fill:none;stroke:#000000;stroke-width:0.73009998;stroke-miterlimit:10" />
  </g>
</svg>
