<?xml version="1.0" encoding="UTF-8" standalone="no"?>
<svg
   xmlns:dc="http://purl.org/dc/elements/1.1/"
   xmlns:cc="http://creativecommons.org/ns#"
   xmlns:rdf="http://www.w3.org/1999/02/22-rdf-syntax-ns#"
   xmlns:svg="http://www.w3.org/2000/svg"
   xmlns="http://www.w3.org/2000/svg"
   version="1.1"
   id="svg4651"
   viewBox="0 0 120.48108 116.19"
   height="32.791401mm"
   width="34.002438mm">
  <defs
     id="defs4653" />
  <metadata
     id="metadata4656">
    <rdf:RDF>
      <cc:Work
         rdf:about="">
        <dc:format>image/svg+xml</dc:format>
        <dc:type
           rdf:resource="http://purl.org/dc/dcmitype/StillImage" />
        <dc:title></dc:title>
      </cc:Work>
    </rdf:RDF>
  </metadata>
  <g
     transform="translate(-94.348223,-580.54678)"
     id="layer1">
    <g
       id="g226"
       transform="translate(-135.29299,64.276782)">
      <path
         id="path228"
         d="m 268.54,612.33 c 0,-1.19 0.5,-2 2.09,-2 1.07,0 1.83,0.48 1.83,1.42 0,1.23 -1.21,1.47 -1.21,2.11 0,0.48 0.98,0.92 1.49,1.41 0.45,0.43 0.69,0.76 0.69,1.39 0,1.18 -0.66,1.79 -1.78,1.79 -0.53,0 -1.31,-0.17 -1.31,-0.32 0,-0.07 0.02,-0.12 0.04,-0.18 l 0.11,-0.4 c 0.01,-0.05 0.04,-0.08 0.08,-0.08 0.1,0 0.56,0.29 1.14,0.29 0.65,0 0.91,-0.38 0.91,-0.98 0,-1.29 -2.21,-1.42 -2.21,-2.79 0,-1.16 1.21,-1.14 1.21,-2.1 0,-0.56 -0.42,-0.88 -1.06,-0.88 -0.87,0 -1.19,0.41 -1.19,1.34 l 0,5.81 c 0,0.11 -0.02,0.13 -0.14,0.13 l -0.56,0 c -0.09,0 -0.13,-0.04 -0.13,-0.13 l 0,-5.83 z" />
      <path
         id="path230"
         d="m 279.15,615 c 0,0.13 -0.02,0.15 -0.15,0.15 l -4.71,0 c -0.13,0 -0.14,-0.02 -0.14,-0.15 l 0,-0.48 c 0,-0.13 0.01,-0.15 0.14,-0.15 l 4.71,0 c 0.13,0 0.15,0.02 0.15,0.15 l 0,0.48 z m 0,1.5 c 0,0.13 -0.02,0.15 -0.15,0.15 l -4.71,0 c -0.13,0 -0.14,-0.02 -0.14,-0.15 l 0,-0.48 c 0,-0.13 0.01,-0.15 0.14,-0.15 l 4.71,0 c 0.13,0 0.15,0.02 0.15,0.15 l 0,0.48 z" />
      <path
         id="path232"
         d="m 282.22,611.07 c 1.66,0 2.19,1.69 2.19,3.61 0,2.11 -0.61,3.77 -2.28,3.77 -1.54,0 -2.23,-1.56 -2.23,-3.64 -0.01,-2.14 0.77,-3.74 2.32,-3.74 z m -1.42,3.67 c 0,1.69 0.35,2.94 1.35,2.94 1.08,0 1.35,-1.3 1.35,-3 0,-1.41 -0.26,-2.84 -1.31,-2.84 -1.01,0 -1.39,1.34 -1.39,2.9 z" />
      <path
         id="path234"
         d="m 292.38,616.56 c 0,0.69 0.03,0.79 0.13,1.1 0.04,0.13 0.2,0.34 0.2,0.41 0,0.04 -0.05,0.07 -0.1,0.09 l -0.43,0.26 c -0.04,0.02 -0.07,0.03 -0.09,0.03 -0.17,0 -0.36,-0.58 -0.42,-0.74 -0.13,0.12 -0.67,0.74 -1.58,0.74 -0.87,0 -1.43,-0.57 -1.43,-1.55 0,-1.86 2.2,-1.89 2.88,-1.91 l 0,-0.4 c 0,-0.64 -0.2,-0.99 -0.98,-0.99 -0.74,0 -1.24,0.35 -1.34,0.35 -0.03,0 -0.07,-0.02 -0.08,-0.05 L 289,613.51 c -0.02,-0.05 -0.03,-0.09 -0.03,-0.14 0,-0.19 1.01,-0.51 1.72,-0.51 1.27,0 1.69,0.62 1.69,1.54 l 0,2.16 z m -0.84,-0.89 c -0.48,0.01 -2.06,0.01 -2.06,1.17 0,0.44 0.24,0.93 0.8,0.93 0.57,0 1.08,-0.53 1.25,-0.68 l 0,-1.42 z" />
      <path
         id="path236"
         d="m 300.63,618.3 c 0,0.12 -0.02,0.15 -0.14,0.15 l -0.54,0 c -0.12,0 -0.15,-0.03 -0.15,-0.15 l 0,-1.56 -2.8,0 c -0.13,0 -0.15,-0.02 -0.15,-0.14 l 0,-0.63 2.88,-4.8 c 0.03,-0.05 0.05,-0.1 0.12,-0.1 0.03,0 0.08,0.01 0.14,0.02 l 0.46,0.08 c 0.07,0.01 0.14,0.03 0.14,0.08 0,0.03 -0.03,0.1 -0.06,0.12 l -2.83,4.65 2.08,0 0.14,-1.77 c 0,-0.11 0.01,-0.14 0.15,-0.14 l 0.4,0 c 0.12,0 0.14,0.03 0.14,0.15 l 0,1.76 0.88,0 c 0.12,0 0.15,0.02 0.15,0.15 l 0,0.42 c 0,0.13 -0.03,0.14 -0.15,0.14 l -0.88,0 0,1.57 z" />
      <path
         id="path238"
         d="m 303.62,614.23 c 0.26,-0.19 0.65,-0.47 1.32,-0.47 1.11,0 1.87,0.87 1.87,2.15 0,1.43 -0.87,2.55 -2.54,2.55 -0.67,0 -1.49,-0.14 -1.49,-0.32 0,-0.03 0,-0.05 0.01,-0.09 l 0.12,-0.5 c 0,-0.03 0.04,-0.08 0.09,-0.08 0.1,0 0.52,0.21 1.19,0.21 1.24,0 1.72,-0.7 1.72,-1.76 0,-0.86 -0.4,-1.4 -1.13,-1.4 -0.92,0 -1.22,0.68 -1.39,0.68 -0.03,0 -0.07,0 -0.09,-0.01 l -0.38,-0.13 c -0.08,-0.02 -0.12,-0.03 -0.12,-0.1 0,-0.03 0.02,-0.13 0.02,-0.18 l 0.33,-3.42 c 0.01,-0.12 0.03,-0.14 0.15,-0.14 l 2.86,0 c 0.13,0 0.15,0.02 0.15,0.15 l 0,0.47 c 0,0.12 -0.03,0.14 -0.15,0.14 l -2.3,0 -0.24,2.25 z" />
      <path
         id="path240"
         d="m 309.7,614.8 c -1,0 -1.44,-0.8 -1.44,-1.84 0,-1.02 0.44,-1.89 1.51,-1.89 1.02,0 1.45,0.8 1.45,1.85 0,1.02 -0.44,1.88 -1.52,1.88 z m 0.79,-1.89 c 0,-0.63 -0.15,-1.27 -0.74,-1.27 -0.59,0 -0.75,0.61 -0.75,1.24 0,0.73 0.15,1.34 0.75,1.34 0.58,0.01 0.74,-0.57 0.74,-1.31 z" />
      <path
         id="path242"
         d="m 265.79,626.33 c 0,-1.19 0.5,-2 2.09,-2 1.07,0 1.83,0.48 1.83,1.42 0,1.23 -1.21,1.47 -1.21,2.11 0,0.48 0.98,0.92 1.49,1.41 0.45,0.43 0.69,0.76 0.69,1.39 0,1.18 -0.66,1.79 -1.78,1.79 -0.53,0 -1.31,-0.17 -1.31,-0.32 0,-0.07 0.02,-0.12 0.04,-0.18 l 0.11,-0.4 c 0.01,-0.05 0.04,-0.08 0.08,-0.08 0.1,0 0.56,0.29 1.14,0.29 0.65,0 0.91,-0.38 0.91,-0.98 0,-1.29 -2.21,-1.42 -2.21,-2.79 0,-1.16 1.21,-1.14 1.21,-2.1 0,-0.56 -0.42,-0.88 -1.06,-0.88 -0.87,0 -1.19,0.41 -1.19,1.34 l 0,5.81 c 0,0.11 -0.02,0.13 -0.14,0.13 l -0.56,0 c -0.09,0 -0.13,-0.04 -0.13,-0.13 l 0,-5.83 z" />
      <path
         id="path244"
         d="m 276.4,629 c 0,0.13 -0.02,0.15 -0.15,0.15 l -4.71,0 c -0.13,0 -0.14,-0.02 -0.14,-0.15 l 0,-0.48 c 0,-0.13 0.01,-0.15 0.14,-0.15 l 4.71,0 c 0.13,0 0.15,0.02 0.15,0.15 l 0,0.48 z m 0,1.5 c 0,0.13 -0.02,0.15 -0.15,0.15 l -4.71,0 c -0.13,0 -0.14,-0.02 -0.14,-0.15 l 0,-0.48 c 0,-0.13 0.01,-0.15 0.14,-0.15 l 4.71,0 c 0.13,0 0.15,0.02 0.15,0.15 l 0,0.48 z" />
      <path
         id="path246"
         d="m 280.78,632.3 c 0,0.12 -0.02,0.15 -0.14,0.15 l -0.54,0 c -0.12,0 -0.15,-0.03 -0.15,-0.15 l 0,-1.56 -2.79,0 c -0.13,0 -0.15,-0.02 -0.15,-0.14 l 0,-0.63 2.88,-4.8 c 0.03,-0.05 0.05,-0.1 0.12,-0.1 0.03,0 0.08,0.01 0.14,0.02 l 0.46,0.08 c 0.07,0.01 0.14,0.03 0.14,0.08 0,0.03 -0.03,0.1 -0.06,0.12 l -2.83,4.65 2.08,0 0.14,-1.77 c 0,-0.11 0.01,-0.14 0.15,-0.14 l 0.4,0 c 0.12,0 0.14,0.03 0.14,0.15 l 0,1.76 0.88,0 c 0.12,0 0.15,0.02 0.15,0.15 l 0,0.42 c 0,0.13 -0.03,0.14 -0.15,0.14 l -0.88,0 0,1.57 z" />
      <path
         id="path248"
         d="m 285.7,625.07 c 0.46,0 0.89,0.12 0.99,0.18 0.04,0.02 0.08,0.05 0.08,0.1 0,0.02 -0.01,0.05 -0.02,0.09 l -0.15,0.41 c -0.02,0.04 -0.05,0.09 -0.11,0.09 -0.1,0 -0.31,-0.12 -0.74,-0.12 -1.69,0 -1.91,1.8 -2.04,2.48 l 0.02,0.02 c 0.13,-0.23 0.51,-0.85 1.42,-0.85 1.08,0 1.85,0.94 1.85,2.44 0,1.46 -0.84,2.55 -2.13,2.55 -1.47,0 -2.04,-1.2 -2.04,-3.03 0,-1.78 0.62,-4.36 2.87,-4.36 z m 0.4,4.87 c 0,-0.96 -0.37,-1.72 -1.16,-1.72 -0.88,0 -1.21,0.77 -1.21,1.77 0,1.09 0.42,1.68 1.14,1.68 0.68,0.01 1.23,-0.54 1.23,-1.73 z" />
      <path
         id="path250"
         d="m 295.13,630.56 c 0,0.69 0.03,0.79 0.13,1.1 0.04,0.13 0.2,0.34 0.2,0.41 0,0.04 -0.05,0.07 -0.1,0.09 l -0.43,0.26 c -0.04,0.02 -0.07,0.03 -0.09,0.03 -0.17,0 -0.36,-0.58 -0.42,-0.74 -0.13,0.12 -0.67,0.74 -1.58,0.74 -0.87,0 -1.43,-0.57 -1.43,-1.55 0,-1.86 2.2,-1.89 2.88,-1.91 l 0,-0.4 c 0,-0.64 -0.2,-0.99 -0.98,-0.99 -0.74,0 -1.24,0.35 -1.34,0.35 -0.03,0 -0.07,-0.02 -0.08,-0.05 l -0.14,-0.39 c -0.02,-0.05 -0.03,-0.09 -0.03,-0.14 0,-0.19 1.01,-0.51 1.72,-0.51 1.27,0 1.69,0.62 1.69,1.54 l 0,2.16 z m -0.84,-0.89 c -0.48,0.01 -2.06,0.01 -2.06,1.17 0,0.44 0.24,0.93 0.8,0.93 0.57,0 1.08,-0.53 1.25,-0.68 l 0,-1.42 z" />
      <path
         id="path252"
         d="m 302.81,625.07 c 0.46,0 0.89,0.12 0.99,0.18 0.04,0.02 0.08,0.05 0.08,0.1 0,0.02 -0.01,0.05 -0.02,0.09 l -0.15,0.41 c -0.02,0.04 -0.05,0.09 -0.11,0.09 -0.1,0 -0.31,-0.12 -0.74,-0.12 -1.69,0 -1.91,1.8 -2.04,2.48 l 0.02,0.02 c 0.13,-0.23 0.51,-0.85 1.42,-0.85 1.08,0 1.85,0.94 1.85,2.44 0,1.46 -0.84,2.55 -2.13,2.55 -1.47,0 -2.04,-1.2 -2.04,-3.03 0,-1.78 0.61,-4.36 2.87,-4.36 z m 0.39,4.87 c 0,-0.96 -0.37,-1.72 -1.16,-1.72 -0.88,0 -1.21,0.77 -1.21,1.77 0,1.09 0.42,1.68 1.14,1.68 0.68,0.01 1.23,-0.54 1.23,-1.73 z" />
      <path
         id="path254"
         d="m 307.57,625.07 c 1.66,0 2.19,1.69 2.19,3.61 0,2.11 -0.61,3.77 -2.28,3.77 -1.54,0 -2.23,-1.56 -2.23,-3.64 0,-2.14 0.77,-3.74 2.32,-3.74 z m -1.42,3.67 c 0,1.69 0.35,2.94 1.35,2.94 1.08,0 1.35,-1.3 1.35,-3 0,-1.41 -0.26,-2.84 -1.31,-2.84 -1,0 -1.39,1.34 -1.39,2.9 z" />
      <path
         id="path256"
         d="m 312.45,628.8 c -1,0 -1.44,-0.8 -1.44,-1.84 0,-1.02 0.44,-1.89 1.51,-1.89 1.02,0 1.45,0.8 1.45,1.85 0,1.02 -0.44,1.88 -1.52,1.88 z m 0.79,-1.89 c 0,-0.63 -0.15,-1.27 -0.74,-1.27 -0.59,0 -0.75,0.61 -0.75,1.24 0,0.73 0.15,1.34 0.75,1.34 0.58,0.01 0.74,-0.57 0.74,-1.31 z" />
    </g>
    <g
       id="g258"
       transform="translate(-135.29299,64.276782)">
      <path
         id="path260"
         d="m 241.5,523.83 c 0,0.09 -0.04,0.13 -0.13,0.13 l -0.64,0 c -0.09,0 -0.13,-0.04 -0.13,-0.13 l -0.18,-5.66 c -0.01,-0.22 0,-0.5 0.01,-0.68 l -0.02,-0.02 c -0.01,0.24 -0.04,0.52 -0.13,0.78 l -1.33,3.83 c -0.04,0.1 -0.07,0.12 -0.17,0.12 l -0.33,0 c -0.1,0 -0.13,-0.02 -0.17,-0.12 L 237,518.25 c -0.09,-0.26 -0.12,-0.54 -0.13,-0.78 l -0.02,0.02 c 0.01,0.19 0.02,0.46 0.01,0.68 l -0.17,5.66 c 0,0.09 -0.04,0.13 -0.13,0.13 l -0.64,0 c -0.09,0 -0.13,-0.04 -0.13,-0.13 l 0.42,-7.27 c 0,-0.09 0.04,-0.13 0.13,-0.13 l 0.71,0 c 0.09,0 0.09,0.02 0.12,0.11 l 1.3,3.79 c 0.06,0.17 0.1,0.44 0.14,0.68 l 0.02,0 c 0.06,-0.23 0.1,-0.52 0.15,-0.68 l 1.3,-3.79 c 0.03,-0.09 0.03,-0.11 0.12,-0.11 l 0.72,0 c 0.09,0 0.13,0.04 0.13,0.13 l 0.45,7.27 z" />
      <path
         id="path262"
         d="m 245.38,524.12 c -1.77,0 -2.49,-1.58 -2.49,-3.93 0,-2.35 0.73,-3.92 2.49,-3.92 1.75,0 2.49,1.57 2.49,3.92 0,2.34 -0.73,3.93 -2.49,3.93 z m 1.5,-3.93 c 0,-1.91 -0.26,-3.18 -1.5,-3.18 -1.22,0 -1.5,1.27 -1.5,3.18 0,1.92 0.25,3.19 1.5,3.19 1.25,0 1.5,-1.26 1.5,-3.19 z" />
      <path
         id="path264"
         d="m 253.85,523.83 c 0,0.08 -0.04,0.13 -0.13,0.13 l -0.62,0 c -0.09,0 -0.13,-0.03 -0.18,-0.11 l -2.53,-5.43 c -0.13,-0.29 -0.24,-0.65 -0.3,-0.96 l -0.02,0.02 c 0.09,0.42 0.11,0.74 0.11,0.98 l 0,5.37 c 0,0.09 -0.04,0.13 -0.13,0.13 l -0.57,0 c -0.09,0 -0.13,-0.04 -0.13,-0.13 l 0,-7.27 c 0,-0.08 0.04,-0.13 0.13,-0.13 l 0.75,0 c 0.09,0 0.13,0.03 0.17,0.1 l 2.43,5.13 c 0.13,0.28 0.17,0.52 0.26,0.85 l 0.02,-0.02 c -0.03,-0.23 -0.1,-0.47 -0.1,-0.67 l 0,-5.25 c 0,-0.09 0.04,-0.13 0.13,-0.13 l 0.57,0 c 0.09,0 0.13,0.04 0.13,0.13 l 0,7.26 z" />
      <path
         id="path266"
         d="m 257.68,517.2 0,6.63 c 0,0.09 -0.04,0.13 -0.13,0.13 l -0.64,0 c -0.09,0 -0.13,-0.04 -0.13,-0.13 l 0,-6.63 -1.64,0 c -0.09,0 -0.13,-0.04 -0.13,-0.13 l 0,-0.49 c 0,-0.08 0.03,-0.14 0.15,-0.14 l 4.31,0 c 0.08,0 0.13,0.02 0.13,0.09 0,0.04 -0.03,0.09 -0.04,0.14 l -0.15,0.42 c -0.03,0.09 -0.1,0.12 -0.18,0.12 l -1.55,0 z" />
      <path
         id="path268"
         d="m 265.39,523.71 c 0.02,0.08 0.04,0.13 0.05,0.19 0,0.06 -0.04,0.07 -0.15,0.07 l -0.68,0 c -0.13,0 -0.18,-0.04 -0.2,-0.12 l -0.62,-2.12 -2.25,0 -0.56,2.12 c -0.02,0.08 -0.07,0.12 -0.2,0.12 l -0.68,0 c -0.11,0 -0.15,-0.01 -0.15,-0.07 0.01,-0.05 0.02,-0.11 0.06,-0.19 l 2.2,-7.16 c 0.03,-0.11 0.04,-0.12 0.17,-0.12 l 0.65,0 c 0.09,0 0.12,0 0.17,0.12 l 2.19,7.16 z m -2.46,-5.19 c -0.09,-0.34 -0.2,-0.74 -0.25,-1.05 l -0.02,0 c -0.04,0.26 -0.15,0.75 -0.23,1.05 l -0.67,2.43 1.84,0 -0.67,-2.43 z" />
      <path
         id="path270"
         d="m 269.71,522.11 c 0,1.3 -0.76,2.01 -2.02,2.01 -1.52,0 -1.94,-1.09 -1.94,-2.11 0,-0.13 0,-0.2 0.1,-0.2 l 0.65,0 c 0.05,0 0.09,0.02 0.09,0.11 l 0,0.09 c 0,0.73 0.25,1.38 1.11,1.38 0.75,0 1.11,-0.42 1.11,-1.28 l 0,-4.91 -1.93,0 c -0.09,0 -0.13,-0.04 -0.13,-0.13 l 0,-0.51 c 0,-0.09 0.04,-0.13 0.13,-0.13 l 2.67,0 c 0.13,0 0.15,0.02 0.15,0.14 l 0,5.54 z" />
      <path
         id="path272"
         d="m 275.36,523.81 c 0,0.13 -0.03,0.15 -0.15,0.15 l -3.39,0 c -0.09,0 -0.13,-0.04 -0.13,-0.13 l 0,-7.27 c 0,-0.09 0.04,-0.13 0.13,-0.13 l 3.42,0 c 0.12,0 0.14,0.03 0.14,0.07 0,0.03 -0.02,0.1 -0.03,0.14 l -0.15,0.46 c -0.03,0.1 -0.07,0.1 -0.17,0.1 l -2.44,0 0,2.44 2.16,0 c 0.12,0 0.14,0.02 0.14,0.14 l 0,0.48 c 0,0.12 -0.02,0.14 -0.14,0.14 l -2.16,0 0,2.78 2.64,0 c 0.09,0 0.13,0.04 0.13,0.12 l 0,0.51 z" />
      <path
         id="path274"
         d="m 281.57,516.43 c 1.53,0 2.96,0.36 2.96,3.7 0,2.62 -0.84,3.84 -3.08,3.84 l -1.27,0 c -0.09,0 -0.13,-0.04 -0.13,-0.13 l 0,-7.27 c 0,-0.09 0.04,-0.13 0.13,-0.13 l 1.39,0 z m 0.07,6.76 c 1.57,0 1.9,-1.23 1.9,-3.11 0,-2.41 -0.69,-2.88 -1.98,-2.88 l -0.6,0 0,6 0.68,0 z" />
      <path
         id="path276"
         d="m 289.82,523.81 c 0,0.13 -0.03,0.15 -0.15,0.15 l -3.39,0 c -0.09,0 -0.13,-0.04 -0.13,-0.13 l 0,-7.27 c 0,-0.09 0.04,-0.13 0.13,-0.13 l 3.42,0 c 0.12,0 0.14,0.03 0.14,0.07 0,0.03 -0.02,0.1 -0.03,0.14 l -0.15,0.46 c -0.03,0.1 -0.07,0.1 -0.17,0.1 l -2.44,0 0,2.44 2.16,0 c 0.12,0 0.14,0.02 0.14,0.14 l 0,0.48 c 0,0.12 -0.02,0.14 -0.14,0.14 l -2.16,0 0,2.78 2.64,0 c 0.09,0 0.13,0.04 0.13,0.12 l 0,0.51 z" />
      <path
         id="path278"
         d="m 298.18,523.81 c 0,0.13 -0.02,0.15 -0.14,0.15 l -3.69,0 c -0.12,0 -0.14,-0.03 -0.14,-0.14 0,-1.85 0.8,-2.68 1.55,-3.27 0.77,-0.61 1.53,-0.81 1.53,-1.87 0,-0.64 -0.34,-1.18 -1.07,-1.18 -1.11,0 -1.13,1.2 -1.34,1.2 -0.02,0 -0.06,-0.01 -0.08,-0.02 l -0.48,-0.14 c -0.04,-0.01 -0.09,-0.04 -0.09,-0.1 0,-0.33 0.54,-1.71 2.05,-1.71 1.19,0 1.91,0.79 1.91,1.99 0,1.45 -1.08,1.77 -1.96,2.53 -0.85,0.74 -0.97,1.36 -1.06,1.94 l 2.86,0 c 0.12,0 0.14,0.03 0.14,0.15 l 0,0.47 z" />
      <path
         id="path280"
         d="m 306.93,523.81 c 0,0.13 -0.03,0.15 -0.15,0.15 l -3.39,0 c -0.09,0 -0.13,-0.04 -0.13,-0.13 l 0,-7.27 c 0,-0.09 0.04,-0.13 0.13,-0.13 l 3.42,0 c 0.12,0 0.14,0.03 0.14,0.07 0,0.03 -0.02,0.1 -0.03,0.14 l -0.15,0.46 c -0.03,0.1 -0.07,0.1 -0.17,0.1 l -2.44,0 0,2.44 2.16,0 c 0.12,0 0.14,0.02 0.14,0.14 l 0,0.48 c 0,0.12 -0.02,0.14 -0.14,0.14 l -2.16,0 0,2.78 2.64,0 c 0.09,0 0.13,0.04 0.13,0.12 l 0,0.51 z" />
      <path
         id="path282"
         d="m 311.61,517.36 c -0.04,0.09 -0.04,0.14 -0.12,0.14 -0.04,0 -0.1,-0.02 -0.15,-0.05 -0.21,-0.11 -0.77,-0.39 -1.4,-0.39 -0.66,0 -1.17,0.34 -1.17,1.08 0,1.16 1.44,1.36 2.32,2.09 0.59,0.48 0.89,1 0.89,1.73 0,1.34 -0.99,2.16 -2.33,2.16 -1.02,0 -1.84,-0.47 -2,-0.55 -0.06,-0.02 -0.09,-0.07 -0.09,-0.12 0,-0.03 0.03,-0.09 0.04,-0.13 l 0.14,-0.36 c 0.03,-0.09 0.05,-0.14 0.12,-0.14 0.04,0 0.1,0.02 0.15,0.05 0.22,0.1 0.89,0.46 1.66,0.46 0.83,0 1.31,-0.52 1.31,-1.25 0,-1.83 -3.21,-1.55 -3.21,-3.83 0,-1.27 1.04,-1.97 2.19,-1.97 0.88,0 1.58,0.4 1.74,0.47 0.05,0.03 0.09,0.09 0.09,0.12 0,0.03 -0.03,0.09 -0.04,0.13 l -0.14,0.36 z" />
      <path
         id="path284"
         d="m 317.11,523.19 c 0.08,0 0.13,0.02 0.13,0.09 0,0.04 -0.03,0.09 -0.04,0.14 l -0.15,0.42 c -0.03,0.09 -0.1,0.12 -0.18,0.12 l -3.32,0 c -0.09,0 -0.13,-0.04 -0.13,-0.13 l 0,-7.27 c 0,-0.09 0.04,-0.13 0.13,-0.13 l 0.64,0 c 0.09,0 0.13,0.04 0.13,0.13 l 0,6.63 2.79,0 z" />
      <path
         id="path286"
         d="m 320.9,523.83 c 0,0.09 -0.04,0.13 -0.13,0.13 l -2.9,0 c -0.09,0 -0.13,-0.04 -0.13,-0.13 l 0,-0.45 c 0,-0.09 0.04,-0.13 0.13,-0.13 l 1,0 0,-6.11 -1,0 c -0.09,0 -0.13,-0.04 -0.13,-0.13 l 0,-0.45 c 0,-0.09 0.04,-0.13 0.13,-0.13 l 2.9,0 c 0.09,0 0.13,0.04 0.13,0.13 l 0,0.45 c 0,0.09 -0.04,0.13 -0.13,0.13 l -1,0 0,6.11 1,0 c 0.09,0 0.13,0.04 0.13,0.13 l 0,0.45 z" />
      <path
         id="path288"
         d="m 326.76,523.83 c 0,0.08 -0.04,0.13 -0.13,0.13 l -0.62,0 c -0.09,0 -0.13,-0.03 -0.18,-0.11 l -2.53,-5.43 c -0.13,-0.29 -0.24,-0.65 -0.3,-0.96 l -0.02,0.02 c 0.09,0.42 0.11,0.74 0.11,0.98 l 0,5.37 c 0,0.09 -0.04,0.13 -0.13,0.13 l -0.57,0 c -0.09,0 -0.13,-0.04 -0.13,-0.13 l 0,-7.27 c 0,-0.08 0.04,-0.13 0.13,-0.13 l 0.75,0 c 0.09,0 0.13,0.03 0.17,0.1 l 2.43,5.13 c 0.13,0.28 0.17,0.52 0.26,0.85 l 0.02,-0.02 c -0.03,-0.23 -0.1,-0.47 -0.1,-0.67 l 0,-5.25 c 0,-0.09 0.04,-0.13 0.13,-0.13 l 0.57,0 c 0.09,0 0.13,0.04 0.13,0.13 l 0,7.26 z" />
      <path
         id="path290"
         d="m 332.81,523.25 c 0,0.29 0,0.37 -0.15,0.46 -0.41,0.23 -1.11,0.41 -1.78,0.41 -1.95,0 -2.64,-1.72 -2.64,-3.99 0,-2.09 0.73,-3.85 2.66,-3.85 1.01,0 1.83,0.52 1.83,0.67 0,0.04 -0.02,0.08 -0.05,0.14 l -0.17,0.31 c -0.03,0.08 -0.09,0.15 -0.14,0.15 -0.11,0 -0.56,-0.54 -1.44,-0.54 -1.21,0 -1.69,1.14 -1.69,3 0,2.04 0.47,3.37 1.67,3.37 0.51,0 0.8,-0.11 1.01,-0.21 l 0,-2.31 -0.88,0 c -0.09,0 -0.13,-0.04 -0.13,-0.13 l 0,-0.45 c 0,-0.09 0.04,-0.13 0.13,-0.13 l 1.65,0 c 0.09,0 0.13,0.04 0.13,0.13 l 0,2.97 z" />
      <path
         id="path292"
         d="m 339.32,523.71 c 0.02,0.08 0.04,0.13 0.05,0.19 0,0.06 -0.04,0.07 -0.15,0.07 l -0.68,0 c -0.13,0 -0.18,-0.04 -0.2,-0.12 l -0.62,-2.12 -2.25,0 -0.56,2.12 c -0.02,0.08 -0.07,0.12 -0.2,0.12 l -0.68,0 c -0.11,0 -0.15,-0.01 -0.15,-0.07 0.01,-0.05 0.02,-0.11 0.06,-0.19 l 2.2,-7.16 c 0.03,-0.11 0.04,-0.12 0.17,-0.12 l 0.65,0 c 0.09,0 0.12,0 0.17,0.12 l 2.19,7.16 z m -2.46,-5.19 c -0.09,-0.34 -0.2,-0.74 -0.25,-1.05 l -0.02,0 c -0.04,0.26 -0.15,0.75 -0.23,1.05 l -0.67,2.43 1.84,0 -0.67,-2.43 z" />
      <path
         id="path294"
         d="m 344,517.36 c -0.04,0.09 -0.04,0.14 -0.12,0.14 -0.04,0 -0.1,-0.02 -0.15,-0.05 -0.21,-0.11 -0.77,-0.39 -1.4,-0.39 -0.66,0 -1.17,0.34 -1.17,1.08 0,1.16 1.44,1.36 2.32,2.09 0.59,0.48 0.89,1 0.89,1.73 0,1.34 -0.99,2.16 -2.33,2.16 -1.02,0 -1.84,-0.47 -2,-0.55 -0.05,-0.02 -0.09,-0.07 -0.09,-0.12 0,-0.03 0.03,-0.09 0.04,-0.13 l 0.14,-0.36 c 0.03,-0.09 0.05,-0.14 0.12,-0.14 0.04,0 0.1,0.02 0.15,0.05 0.22,0.1 0.89,0.46 1.66,0.46 0.83,0 1.31,-0.52 1.31,-1.25 0,-1.83 -3.21,-1.55 -3.21,-3.83 0,-1.27 1.04,-1.97 2.19,-1.97 0.88,0 1.58,0.4 1.74,0.47 0.05,0.03 0.09,0.09 0.09,0.12 0,0.03 -0.03,0.09 -0.04,0.13 l -0.14,0.36 z" />
    </g>
    <g
       id="g360"
       transform="translate(-135.29299,64.276782)">
      <path
         id="path362"
         d="m 252.88,555.73 c -2,-0.89 -4.36,0.03 -5.26,2.06 l -1.79,4.03 c -0.9,2.03 -0.01,4.4 1.99,5.28 2,0.89 4.36,-0.03 5.26,-2.06 l 1.79,-4.03 c 0.9,-2.02 0.01,-4.39 -1.99,-5.28 z"
         stroke-miterlimit="10"
         style="fill:none;stroke:#000000;stroke-width:0.83139998;stroke-miterlimit:10" />
      <path
         id="path364"
         d="m 252.34,541.7 c -1.66,1.09 -2.76,2.99 -2.76,5.14 l 0,6.72 c 0,2.02 0.97,3.82 2.46,4.93"
         stroke-miterlimit="10"
         style="fill:none;stroke:#000000;stroke-width:0.83139998;stroke-miterlimit:10" />
      <path
         id="path366"
         d="m 252.34,541.7 c -1.66,1.09 -2.76,2.99 -2.76,5.14 l 0,6.72 c 0,2.02 0.97,3.82 2.46,4.93"
         stroke-miterlimit="10"
         style="fill:none;stroke:#000000;stroke-width:0.83139998;stroke-miterlimit:10" />
      <path
         id="path368"
         d="m 253.17,556.57 c -1.08,-0.84 -1.69,-2.24 -1.69,-3.82 l 0,-5.09 c 0,-1.82 0.81,-3.4 2.2,-4.16"
         stroke-miterlimit="10"
         style="fill:none;stroke:#000000;stroke-width:0.83139998;stroke-miterlimit:10" />
      <path
         id="path370"
         d="m 252.04,558.49 c 1,0.75 2.25,1.2 3.59,1.2 3.34,0 6.05,-2.75 6.05,-6.13 l 0,-6.72 c 0,-3.38 -2.71,-6.13 -6.05,-6.13 -1.21,0 -2.35,0.36 -3.29,0.99"
         stroke-miterlimit="10"
         style="fill:none;stroke:#000000;stroke-width:0.83139998;stroke-miterlimit:10" />
      <path
         id="path372"
         d="m 253.68,543.5 c 0.57,-0.31 1.23,-0.49 1.98,-0.49 2.56,0 4.12,2.08 4.12,4.65 l 0,5.09 c 0,2.57 -1.56,4.65 -4.12,4.65 -0.98,0 -1.82,-0.3 -2.49,-0.82"
         stroke-miterlimit="10"
         style="fill:none;stroke:#000000;stroke-width:0.83139998;stroke-miterlimit:10" />
      <path
         id="path374"
         d="m 230.43,593.81 c 0.78,-1.37 3.38,-3.33 4.74,-2.56 1.37,0.78 0.99,4.01 0.21,5.38 -0.78,1.37 -2.52,1.84 -3.88,1.06 -1.38,-0.78 -1.85,-2.51 -1.07,-3.88 z"
         stroke-miterlimit="10"
         style="fill:none;stroke:#000000;stroke-width:0.83139998;stroke-miterlimit:10" />
      <line
         id="line376"
         y2="591.08002"
         x2="235.03999"
         y1="566.64001"
         x1="247.37"
         stroke-miterlimit="10"
         style="fill:none;stroke:#000000;stroke-width:0.83139998;stroke-miterlimit:10" />
      <path
         id="path378"
         d="m 280.85,593.81 c -0.78,-1.37 -3.37,-3.33 -4.74,-2.56 -1.37,0.78 -0.99,4.01 -0.21,5.38 0.78,1.37 2.52,1.84 3.89,1.06 1.36,-0.78 1.84,-2.51 1.06,-3.88 z"
         stroke-miterlimit="10"
         style="fill:none;stroke:#000000;stroke-width:0.83139998;stroke-miterlimit:10" />
      <path
         id="path380"
         d="m 259.26,555.46 c -0.29,0.06 -0.58,0.15 -0.86,0.27 -2,0.89 -2.89,3.25 -1.99,5.28 l 1.79,4.03 c 0.9,2.03 3.25,2.95 5.26,2.06 2,-0.89 2.89,-3.25 1.99,-5.28 l -1.79,-4.03 c -0.45,-1.02 -1.27,-1.75 -2.22,-2.13"
         stroke-miterlimit="10"
         style="fill:none;stroke:#000000;stroke-width:0.83139998;stroke-miterlimit:10" />
      <g
         id="g382">
        <path
           id="path384"
           d="m 313.2,561.75 0,0 c -0.66,0 -1.31,-0.14 -1.92,-0.41 -2.4,-1.07 -3.48,-3.91 -2.4,-6.34 l 1.79,-4.03 c 0.78,-1.75 2.51,-2.88 4.41,-2.88 0.66,0 1.31,0.14 1.92,0.41 1.16,0.51 2.04,1.45 2.5,2.63 0.46,1.21 0.43,2.52 -0.1,3.71 l -1.79,4.03 c -0.79,1.75 -2.51,2.88 -4.41,2.88 z m 1.87,-12.04 c -1.26,0 -2.41,0.75 -2.93,1.92 l -1.79,4.03 c -0.72,1.62 -0.01,3.51 1.58,4.22 0.4,0.18 0.83,0.27 1.27,0.27 l 0,0 c 1.26,0 2.41,-0.75 2.93,-1.92 l 1.79,-4.03 c 0.35,-0.79 0.38,-1.67 0.07,-2.48 -0.3,-0.79 -0.89,-1.41 -1.65,-1.74 -0.41,-0.18 -0.84,-0.27 -1.27,-0.27 z"
           stroke-miterlimit="10"
           style="fill:none;stroke:#000000;stroke-width:0.80470002;stroke-miterlimit:10" />
      </g>
      <g
         id="g386">
        <path
           id="path388"
           d="m 325.7,547.54 c 1.72,0.16 3.25,1.24 3.96,2.86 l 1.79,4.03 c 1.08,2.43 0,5.28 -2.4,6.34 -0.61,0.27 -1.26,0.41 -1.92,0.41 l 0,0 c -1.9,0 -3.62,-1.13 -4.4,-2.88 l -1.79,-4.03 c -0.53,-1.18 -0.56,-2.5 -0.1,-3.71 0.46,-1.19 1.34,-2.12 2.5,-2.64 m 0.01,0.01 m -0.61,2.5 m 2.53,-1.3 m -2.53,1.3 c -0.16,0.22 -0.29,0.46 -0.39,0.71 -0.31,0.8 -0.29,1.68 0.07,2.48 l 1.79,4.03 c 0.52,1.17 1.67,1.92 2.93,1.92 l 0,0 c 0.44,0 0.86,-0.09 1.27,-0.27 1.59,-0.71 2.3,-2.6 1.58,-4.22 l -1.79,-4.03 c -0.47,-1.05 -1.44,-1.76 -2.55,-1.9"
           stroke-miterlimit="10"
           style="fill:none;stroke:#000000;stroke-width:0.80470002;stroke-linecap:round;stroke-linejoin:round;stroke-miterlimit:10" />
      </g>
      <path
         id="path390"
         d="m 316.34,535.74 c -1.66,1.09 -2.76,2.99 -2.76,5.14 l 0,6.72 c 0,2.02 0.97,3.82 2.46,4.93"
         stroke-miterlimit="10"
         style="fill:none;stroke:#000000;stroke-width:0.83139998;stroke-miterlimit:10" />
      <path
         id="path392"
         d="m 316.34,535.74 c -1.66,1.09 -2.76,2.99 -2.76,5.14 l 0,6.72 c 0,2.02 0.97,3.82 2.46,4.93"
         stroke-miterlimit="10"
         style="fill:none;stroke:#000000;stroke-width:0.83139998;stroke-miterlimit:10" />
      <path
         id="path394"
         d="m 317.17,550.61 c -1.08,-0.84 -1.69,-2.24 -1.69,-3.82 l 0,-5.09 c 0,-1.82 0.81,-3.4 2.2,-4.16"
         stroke-miterlimit="10"
         style="fill:none;stroke:#000000;stroke-width:0.83139998;stroke-miterlimit:10" />
      <path
         id="path396"
         d="m 325.68,547.6 0,-6.72 c 0,-3.38 -2.71,-6.13 -6.05,-6.13 -1.21,0 -2.35,0.36 -3.29,0.99"
         stroke-miterlimit="10"
         style="fill:none;stroke:#000000;stroke-width:0.83139998;stroke-miterlimit:10" />
      <path
         id="path398"
         d="m 316.04,552.53 c 1,0.75 2.25,1.2 3.59,1.2 3.34,0 6.05,-2.75 6.05,-6.13"
         stroke-miterlimit="10"
         style="fill:none;stroke:#000000;stroke-width:1.11500001;stroke-miterlimit:10" />
      <path
         id="path400"
         d="m 317.68,537.54 c 0.57,-0.31 1.23,-0.49 1.98,-0.49 2.56,0 4.12,2.08 4.12,4.64 l 0,5.09 c 0,2.57 -1.56,4.65 -4.12,4.65 -0.98,0 -1.82,-0.3 -2.49,-0.82"
         stroke-miterlimit="10"
         style="fill:none;stroke:#000000;stroke-width:0.83139998;stroke-miterlimit:10" />
      <line
         id="line402"
         y2="591.08002"
         x2="276.23001"
         y1="566.64001"
         x1="263.89999"
         stroke-miterlimit="10"
         style="fill:none;stroke:#000000;stroke-width:0.83139998;stroke-miterlimit:10" />
      <path
         id="path404"
         d="m 310.59,558.27 c 0.77,-0.12 1.58,-0.01 2.33,0.36 l 0,0 c 1.94,0.96 2.73,3.31 1.77,5.25 l -17,34.32 c -0.96,1.94 -3.31,2.73 -5.25,1.77 l 0,0 c -1.94,-0.96 -2.73,-3.31 -1.77,-5.25 l 17,-34.32 c 0.24,-0.49 0.57,-0.9 0.95,-1.23"
         stroke-miterlimit="10"
         style="fill:none;stroke:#000000;stroke-width:0.83139998;stroke-miterlimit:10" />
      <path
         id="path406"
         d="m 329.38,558.35 c -0.77,-0.12 -1.58,-0.01 -2.33,0.36 l 0,0 c -1.94,0.96 -2.73,3.31 -1.77,5.25 l 17,34.32 c 0.96,1.94 3.31,2.73 5.25,1.77 l 0,0 c 1.94,-0.96 2.73,-3.31 1.77,-5.25 l -17,-34.32 c -0.24,-0.49 -0.57,-0.9 -0.95,-1.23"
         stroke-miterlimit="10"
         style="fill:none;stroke:#000000;stroke-width:0.83139998;stroke-miterlimit:10" />
    </g>
  </g>
</svg>
