<?xml version="1.0" encoding="UTF-8" standalone="no"?>
<svg
   xmlns:dc="http://purl.org/dc/elements/1.1/"
   xmlns:cc="http://creativecommons.org/ns#"
   xmlns:rdf="http://www.w3.org/1999/02/22-rdf-syntax-ns#"
   xmlns:svg="http://www.w3.org/2000/svg"
   xmlns="http://www.w3.org/2000/svg"
   version="1.1"
   id="svg4651"
   viewBox="0 0 119.04 79.9764"
   height="22.571117mm"
   width="33.595734mm">
  <defs
     id="defs4653" />
  <metadata
     id="metadata4656">
    <rdf:RDF>
      <cc:Work
         rdf:about="">
        <dc:format>image/svg+xml</dc:format>
        <dc:type
           rdf:resource="http://purl.org/dc/dcmitype/StillImage" />
        <dc:title></dc:title>
      </cc:Work>
    </rdf:RDF>
  </metadata>
  <g
     transform="translate(-152.58477,-341.22925)"
     id="layer1">
    <g
       id="g30"
       transform="translate(-78.145234,155.64925)">
      <path
         id="path32"
         d="m 275.16,210.55 c 0,2.53 -2.05,7.36 -4.59,7.36 -2.54,0 -4.59,-4.83 -4.59,-7.36 0,-2.53 2.05,-4.59 4.59,-4.59 2.53,0 4.59,2.06 4.59,4.59 z"
         stroke-miterlimit="10"
         style="fill:none;stroke:#000000;stroke-width:0.69279999;stroke-miterlimit:10" />
      <path
         id="path34"
         d="m 272.52,237.05 c 2.18,1.29 5.59,5 4.67,6.56 -0.92,1.56 -5.82,0.38 -8.01,-0.91 -2.18,-1.29 -3.21,-3.6 -2.29,-5.16 0.93,-1.56 3.45,-1.78 5.63,-0.49 z"
         stroke-miterlimit="10"
         style="fill:none;stroke:#000000;stroke-width:0.69279999;stroke-miterlimit:10" />
      <path
         id="path36"
         d="m 270.58,218.11 0,23.56 c 0,0 -9.44,2.86 -7.87,14.92 1.42,10.91 16.67,10 18.81,0.22 1.68,-7.67 -4.32,-13.13 -4.32,-13.13"
         stroke-miterlimit="10"
         style="fill:none;stroke:#000000;stroke-width:0.69279999;stroke-miterlimit:10" />
      <g
         id="g38">
        <path
           id="path40"
           d="m 300.39,234.51 c -1.13,-0.65 -2.4,-1.32 -3.84,-1.98 -1.26,-0.57 -1.81,-2.06 -1.23,-3.31 0.57,-1.25 2.06,-1.81 3.31,-1.23 1.8,0.83 3.38,1.67 4.77,2.5"
           stroke-miterlimit="10"
           style="fill:none;stroke:#000000;stroke-width:0.69279999;stroke-miterlimit:10" />
        <path
           id="path42"
           d="m 307.77,233.49 c -1.17,-0.94 -2.61,-1.96 -4.37,-3.01"
           stroke-miterlimit="10"
           style="fill:none;stroke:#000000;stroke-width:0.69279999;stroke-miterlimit:10" />
        <path
           id="path44"
           d="m 304.44,237.73 c -1.12,-0.91 -2.14,-2.11 -4.05,-3.21"
           stroke-miterlimit="10"
           style="fill:none;stroke:#000000;stroke-width:0.69279999;stroke-miterlimit:10" />
        <path
           id="path46"
           d="m 307.77,233.49 c 2.91,2.33 4.11,4.09 4.19,4.22 0.07,0.11 0.12,0.22 0.17,0.33"
           stroke-miterlimit="10"
           style="fill:none;stroke:#000000;stroke-width:0.69279999;stroke-miterlimit:10" />
        <path
           id="path48"
           d="m 296.55,252.38 c 0,4.32 3.52,7.84 7.84,7.84 4.32,0 7.84,-3.52 7.84,-7.84 0,-5.35 -4.38,-14.59 -7.84,-14.59 -3.46,0 -7.84,9.23 -7.84,14.59 z"
           stroke-miterlimit="10"
           style="fill:none;stroke:#000000;stroke-width:0.69279999;stroke-miterlimit:10" />
        <path
           id="path50"
           d="m 300.39,234.51 c -5.34,3.27 -8.83,12.42 -8.83,17.86 0,7.08 5.76,12.84 12.84,12.84 7.08,0 12.84,-5.76 12.84,-12.84 0,-4.04 -1.93,-10.13 -5.11,-14.34"
           stroke-miterlimit="10"
           style="fill:none;stroke:#000000;stroke-width:0.69279999;stroke-miterlimit:10" />
        <path
           id="path52"
           d="m 300.39,234.51 c 0.12,-0.08 0.25,-0.17 0.37,-0.24"
           stroke-miterlimit="10"
           style="fill:none;stroke:#000000;stroke-width:0.69279999;stroke-miterlimit:10" />
        <path
           id="path54"
           d="m 307.56,234.04 c -0.57,1.42 -1.98,2.9 -3.23,3.74"
           stroke-miterlimit="10"
           style="fill:none;stroke:#000000;stroke-width:0.69279999;stroke-miterlimit:10" />
        <path
           id="path56"
           d="m 300.76,234.28 c 0.29,-0.33 2.42,-2.44 2.64,-3.8"
           stroke-miterlimit="10"
           style="fill:none;stroke:#000000;stroke-width:0.69279999;stroke-miterlimit:10" />
        <path
           id="path58"
           d="m 307.56,234.04 c 0.07,-0.18 0.14,-0.36 0.21,-0.55"
           stroke-miterlimit="10"
           style="fill:none;stroke:#000000;stroke-width:0.69279999;stroke-miterlimit:10" />
        <path
           id="path60"
           d="m 307.77,233.49 c 1.03,-2.94 0.99,-6.25 0.94,-7.33 l 0,-15.56 c 0,-1.38 -1.12,-2.5 -2.5,-2.5 -1.38,0 -2.5,1.12 -2.5,2.5 l 0,15.62 c 0,0.04 0,0.08 0,0.12 0.06,1.35 -0.06,2.86 -0.32,4.14"
           stroke-miterlimit="10"
           style="fill:none;stroke:#000000;stroke-width:0.69279999;stroke-miterlimit:10" />
      </g>
    </g>
    <g
       id="g98"
       transform="translate(-78.145234,155.64925)">
      <path
         id="path100"
         d="m 234.4,195.48 c 0,0.13 -0.03,0.15 -0.15,0.15 l -3.39,0 c -0.09,0 -0.13,-0.04 -0.13,-0.13 l 0,-7.27 c 0,-0.09 0.04,-0.13 0.13,-0.13 l 3.42,0 c 0.12,0 0.14,0.03 0.14,0.07 0,0.03 -0.02,0.1 -0.03,0.14 l -0.15,0.46 c -0.03,0.1 -0.07,0.1 -0.17,0.1 l -2.44,0 0,2.44 2.16,0 c 0.12,0 0.14,0.02 0.14,0.14 l 0,0.48 c 0,0.12 -0.02,0.14 -0.14,0.14 l -2.16,0 0,2.78 2.64,0 c 0.09,0 0.13,0.04 0.13,0.12 l 0,0.51 z" />
      <path
         id="path102"
         d="m 239.49,194.86 c 0.08,0 0.13,0.02 0.13,0.09 0,0.04 -0.03,0.09 -0.04,0.14 l -0.15,0.42 c -0.03,0.09 -0.1,0.12 -0.18,0.12 l -3.32,0 c -0.09,0 -0.13,-0.04 -0.13,-0.13 l 0,-7.27 c 0,-0.09 0.04,-0.13 0.13,-0.13 l 0.64,0 c 0.09,0 0.13,0.04 0.13,0.13 l 0,6.63 2.79,0 z" />
      <path
         id="path104"
         d="m 244.38,195.48 c 0,0.13 -0.03,0.15 -0.15,0.15 l -3.39,0 c -0.09,0 -0.13,-0.04 -0.13,-0.13 l 0,-7.27 c 0,-0.09 0.04,-0.13 0.13,-0.13 l 3.42,0 c 0.12,0 0.14,0.03 0.14,0.07 0,0.03 -0.02,0.1 -0.03,0.14 l -0.15,0.46 c -0.03,0.1 -0.07,0.1 -0.17,0.1 l -2.44,0 0,2.44 2.16,0 c 0.12,0 0.14,0.02 0.14,0.14 l 0,0.48 c 0,0.12 -0.02,0.14 -0.14,0.14 l -2.16,0 0,2.78 2.64,0 c 0.09,0 0.13,0.04 0.13,0.12 l 0,0.51 z" />
      <path
         id="path106"
         d="m 248.04,195.59 c -0.03,0.11 -0.05,0.12 -0.17,0.12 l -0.77,0 c -0.12,0 -0.14,-0.02 -0.17,-0.12 l -1.9,-7.18 c -0.01,-0.04 -0.03,-0.1 -0.03,-0.13 0,-0.07 0.1,-0.08 0.13,-0.09 l 0.61,-0.15 c 0.03,-0.01 0.07,-0.01 0.1,-0.01 0.06,0 0.08,0.07 0.1,0.18 l 1.39,5.74 c 0.05,0.21 0.12,0.59 0.15,0.88 l 0.02,0 c 0.03,-0.27 0.12,-0.69 0.17,-0.86 l 1.4,-5.77 c 0.03,-0.11 0.04,-0.18 0.1,-0.18 0.03,0 0.07,0 0.1,0.01 l 0.61,0.15 c 0.03,0.01 0.13,0.03 0.13,0.1 0,0.02 -0.02,0.08 -0.03,0.12 l -1.94,7.19 z" />
      <path
         id="path108"
         d="m 256,195.38 c 0.02,0.08 0.04,0.13 0.05,0.19 0,0.06 -0.04,0.07 -0.15,0.07 l -0.68,0 c -0.13,0 -0.18,-0.04 -0.2,-0.12 l -0.62,-2.12 -2.25,0 -0.56,2.12 c -0.02,0.08 -0.07,0.12 -0.2,0.12 l -0.68,0 c -0.11,0 -0.15,-0.01 -0.15,-0.07 0.01,-0.05 0.02,-0.11 0.06,-0.19 l 2.2,-7.16 c 0.03,-0.11 0.04,-0.12 0.17,-0.12 l 0.65,0 c 0.09,0 0.12,0 0.17,0.12 l 2.19,7.16 z m -2.46,-5.19 c -0.09,-0.34 -0.2,-0.74 -0.25,-1.05 l -0.02,0 c -0.04,0.26 -0.15,0.75 -0.23,1.05 l -0.67,2.43 1.84,0 -0.67,-2.43 z" />
      <path
         id="path110"
         d="m 261.16,194.79 c 0.04,0.05 0.07,0.1 0.07,0.15 0,0.18 -0.79,0.85 -1.76,0.85 -1.87,0 -2.53,-1.72 -2.53,-3.99 0,-2.09 0.54,-3.85 2.45,-3.85 0.97,0 1.76,0.67 1.76,0.85 0,0.05 -0.02,0.1 -0.07,0.15 l -0.23,0.3 c -0.03,0.04 -0.07,0.09 -0.11,0.09 -0.08,0 -0.69,-0.65 -1.33,-0.65 -1.19,0 -1.49,1.13 -1.49,3 0,2.04 0.44,3.37 1.56,3.37 0.64,0 1.25,-0.65 1.33,-0.65 0.03,0 0.08,0.06 0.11,0.09 l 0.24,0.29 z" />
      <path
         id="path112"
         d="m 265.08,195.5 c 0,0.09 -0.04,0.13 -0.13,0.13 l -2.9,0 c -0.09,0 -0.13,-0.04 -0.13,-0.13 l 0,-0.45 c 0,-0.09 0.04,-0.13 0.13,-0.13 l 1,0 0,-6.11 -1,0 c -0.09,0 -0.13,-0.04 -0.13,-0.13 l 0,-0.45 c 0,-0.09 0.04,-0.13 0.13,-0.13 l 2.9,0 c 0.09,0 0.13,0.04 0.13,0.13 l 0,0.45 c 0,0.09 -0.04,0.13 -0.13,0.13 l -1,0 0,6.11 1,0 c 0.09,0 0.13,0.04 0.13,0.13 l 0,0.45 z" />
      <path
         id="path114"
         d="m 268.59,195.79 c -1.77,0 -2.49,-1.58 -2.49,-3.93 0,-2.35 0.73,-3.92 2.49,-3.92 1.75,0 2.49,1.57 2.49,3.92 -0.01,2.34 -0.73,3.93 -2.49,3.93 z m 1.49,-3.93 c 0,-1.91 -0.26,-3.18 -1.5,-3.18 -1.22,0 -1.5,1.27 -1.5,3.18 0,1.92 0.25,3.19 1.5,3.19 1.25,0 1.5,-1.27 1.5,-3.19 z m -2.21,-4.57 c -0.03,0.02 -0.07,0.03 -0.11,0.03 -0.03,0 -0.07,-0.03 -0.1,-0.09 l -0.1,-0.15 c -0.02,-0.03 -0.05,-0.08 -0.05,-0.11 0,-0.03 0.04,-0.05 0.09,-0.1 l 1.59,-1.23 c 0.02,-0.01 0.07,-0.06 0.11,-0.06 0.04,0 0.08,0.06 0.11,0.09 l 0.32,0.47 c 0.02,0.03 0.04,0.07 0.04,0.11 0,0.04 -0.04,0.08 -0.1,0.1 l -1.8,0.94 z" />
      <path
         id="path116"
         d="m 277.06,195.5 c 0,0.08 -0.04,0.13 -0.13,0.13 l -0.62,0 c -0.09,0 -0.13,-0.03 -0.18,-0.11 l -2.53,-5.43 c -0.13,-0.29 -0.24,-0.65 -0.3,-0.96 l -0.02,0.02 c 0.09,0.42 0.11,0.74 0.11,0.98 l 0,5.37 c 0,0.09 -0.04,0.13 -0.13,0.13 l -0.57,0 c -0.09,0 -0.13,-0.04 -0.13,-0.13 l 0,-7.27 c 0,-0.08 0.04,-0.13 0.13,-0.13 l 0.75,0 c 0.09,0 0.13,0.03 0.17,0.1 l 2.43,5.13 c 0.13,0.28 0.17,0.52 0.26,0.85 l 0.02,-0.02 c -0.03,-0.23 -0.1,-0.47 -0.1,-0.67 l 0,-5.25 c 0,-0.09 0.04,-0.13 0.13,-0.13 l 0.57,0 c 0.09,0 0.13,0.04 0.13,0.13 l 0,7.26 z" />
      <path
         id="path118"
         d="m 285.93,195.48 c 0,0.13 -0.03,0.15 -0.15,0.15 l -3.39,0 c -0.09,0 -0.13,-0.04 -0.13,-0.13 l 0,-7.27 c 0,-0.09 0.04,-0.13 0.13,-0.13 l 3.42,0 c 0.12,0 0.14,0.03 0.14,0.07 0,0.03 -0.02,0.1 -0.03,0.14 l -0.15,0.46 c -0.03,0.1 -0.07,0.1 -0.17,0.1 l -2.44,0 0,2.44 2.16,0 c 0.12,0 0.14,0.02 0.14,0.14 l 0,0.48 c 0,0.12 -0.02,0.14 -0.14,0.14 l -2.16,0 0,2.78 2.64,0 c 0.09,0 0.13,0.04 0.13,0.12 l 0,0.51 z" />
      <path
         id="path120"
         d="m 290.62,189.03 c -0.04,0.09 -0.04,0.14 -0.12,0.14 -0.04,0 -0.1,-0.02 -0.15,-0.05 -0.21,-0.11 -0.77,-0.39 -1.4,-0.39 -0.66,0 -1.17,0.34 -1.17,1.08 0,1.16 1.44,1.36 2.32,2.09 0.59,0.48 0.89,1 0.89,1.73 0,1.34 -0.99,2.16 -2.33,2.16 -1.02,0 -1.84,-0.47 -2,-0.55 -0.06,-0.02 -0.09,-0.07 -0.09,-0.12 0,-0.03 0.03,-0.09 0.04,-0.13 l 0.14,-0.36 c 0.03,-0.09 0.05,-0.14 0.12,-0.14 0.04,0 0.1,0.02 0.15,0.05 0.22,0.1 0.89,0.46 1.66,0.46 0.83,0 1.31,-0.52 1.31,-1.25 0,-1.83 -3.21,-1.55 -3.21,-3.83 0,-1.27 1.04,-1.97 2.19,-1.97 0.88,0 1.58,0.4 1.74,0.47 0.05,0.03 0.09,0.09 0.09,0.12 0,0.03 -0.03,0.09 -0.04,0.13 l -0.14,0.36 z" />
      <path
         id="path122"
         d="m 294.33,188.87 0,6.63 c 0,0.09 -0.04,0.13 -0.13,0.13 l -0.64,0 c -0.09,0 -0.13,-0.04 -0.13,-0.13 l 0,-6.63 -1.64,0 c -0.09,0 -0.13,-0.04 -0.13,-0.13 l 0,-0.49 c 0,-0.08 0.03,-0.14 0.15,-0.14 l 4.31,0 c 0.08,0 0.13,0.02 0.13,0.09 0,0.04 -0.03,0.09 -0.04,0.14 l -0.15,0.42 c -0.03,0.09 -0.1,0.12 -0.18,0.12 l -1.55,0 z" />
      <path
         id="path124"
         d="m 301.68,195.46 c 0.02,0.04 0.04,0.09 0.04,0.12 0,0.03 -0.04,0.07 -0.12,0.08 l -0.69,0.13 c -0.08,0.01 -0.13,-0.01 -0.17,-0.09 l -1.82,-3.5 -0.79,0 0,3.3 c 0,0.09 -0.04,0.13 -0.13,0.13 l -0.64,0 c -0.09,0 -0.13,-0.04 -0.13,-0.13 l 0,-7.27 c 0,-0.09 0.04,-0.13 0.13,-0.13 l 1.71,0 c 0.85,0 2.23,0.05 2.23,2 0,1.21 -0.85,1.83 -1.45,2.02 l 1.83,3.34 z m -2.82,-3.98 c 0.81,0 1.55,-0.19 1.55,-1.36 0,-1.22 -0.79,-1.25 -1.42,-1.25 l -0.85,0 0,2.62 0.72,0 z" />
      <path
         id="path126"
         d="m 307.75,195.38 c 0.02,0.08 0.04,0.13 0.05,0.19 0,0.06 -0.04,0.07 -0.15,0.07 l -0.68,0 c -0.13,0 -0.18,-0.04 -0.2,-0.12 l -0.62,-2.12 -2.25,0 -0.56,2.12 c -0.02,0.08 -0.07,0.12 -0.2,0.12 l -0.68,0 c -0.11,0 -0.15,-0.01 -0.15,-0.07 0.01,-0.05 0.02,-0.11 0.06,-0.19 l 2.2,-7.16 c 0.03,-0.11 0.04,-0.12 0.17,-0.12 l 0.65,0 c 0.09,0 0.12,0 0.17,0.12 l 2.19,7.16 z m -2.47,-5.19 c -0.09,-0.34 -0.2,-0.74 -0.25,-1.05 l -0.02,0 c -0.04,0.26 -0.15,0.75 -0.23,1.05 l -0.67,2.43 1.84,0 -0.67,-2.43 z" />
      <path
         id="path128"
         d="m 313.52,195.5 c 0,0.08 -0.04,0.13 -0.13,0.13 l -0.62,0 c -0.09,0 -0.13,-0.03 -0.18,-0.11 l -2.53,-5.43 c -0.13,-0.29 -0.24,-0.65 -0.3,-0.96 l -0.02,0.02 c 0.09,0.42 0.11,0.74 0.11,0.98 l 0,5.37 c 0,0.09 -0.04,0.13 -0.13,0.13 l -0.57,0 c -0.09,0 -0.13,-0.04 -0.13,-0.13 l 0,-7.27 c 0,-0.08 0.04,-0.13 0.13,-0.13 l 0.75,0 c 0.09,0 0.13,0.03 0.17,0.1 l 2.43,5.13 c 0.13,0.28 0.17,0.52 0.26,0.85 l 0.02,-0.02 c -0.03,-0.23 -0.1,-0.47 -0.1,-0.67 l 0,-5.25 c 0,-0.09 0.04,-0.13 0.13,-0.13 l 0.57,0 c 0.09,0 0.13,0.04 0.13,0.13 l 0,7.26 z" />
      <path
         id="path130"
         d="m 319.57,194.92 c 0,0.29 0,0.37 -0.15,0.46 -0.41,0.23 -1.11,0.41 -1.78,0.41 -1.95,0 -2.64,-1.72 -2.64,-3.99 0,-2.09 0.73,-3.85 2.66,-3.85 1.01,0 1.83,0.52 1.83,0.67 0,0.04 -0.02,0.08 -0.05,0.14 l -0.17,0.31 c -0.03,0.08 -0.09,0.15 -0.14,0.15 -0.11,0 -0.56,-0.54 -1.44,-0.54 -1.21,0 -1.69,1.14 -1.69,3 0,2.04 0.47,3.37 1.67,3.37 0.51,0 0.8,-0.11 1.01,-0.21 l 0,-2.31 -0.88,0 c -0.09,0 -0.13,-0.04 -0.13,-0.13 l 0,-0.45 c 0,-0.09 0.04,-0.13 0.13,-0.13 l 1.65,0 c 0.09,0 0.13,0.04 0.13,0.13 l 0,2.97 z" />
      <path
         id="path132"
         d="m 325.94,193.61 c 0,1.32 -0.74,2.18 -2.42,2.18 -1.66,0 -2.28,-0.85 -2.28,-2.18 l 0,-5.38 c 0,-0.09 0.04,-0.13 0.13,-0.13 l 0.64,0 c 0.09,0 0.13,0.04 0.13,0.13 l 0,5.36 c 0,0.9 0.35,1.46 1.39,1.46 1.01,0 1.51,-0.46 1.51,-1.46 l 0,-5.36 c 0,-0.09 0.04,-0.13 0.13,-0.13 l 0.64,0 c 0.09,0 0.13,0.04 0.13,0.13 l 0,5.38 z" />
      <path
         id="path134"
         d="m 331.57,194.86 c 0.08,0 0.13,0.02 0.13,0.09 0,0.04 -0.03,0.09 -0.04,0.14 l -0.15,0.42 c -0.03,0.09 -0.1,0.12 -0.18,0.12 l -3.32,0 c -0.09,0 -0.13,-0.04 -0.13,-0.13 l 0,-7.27 c 0,-0.09 0.04,-0.13 0.13,-0.13 l 0.64,0 c 0.09,0 0.13,0.04 0.13,0.13 l 0,6.63 2.79,0 z" />
      <path
         id="path136"
         d="m 337.49,195.38 c 0.02,0.08 0.04,0.13 0.05,0.19 0,0.06 -0.04,0.07 -0.15,0.07 l -0.68,0 c -0.13,0 -0.18,-0.04 -0.2,-0.12 l -0.62,-2.12 -2.25,0 -0.56,2.12 c -0.02,0.08 -0.07,0.12 -0.2,0.12 l -0.68,0 c -0.11,0 -0.15,-0.01 -0.15,-0.07 0.01,-0.05 0.02,-0.11 0.06,-0.19 l 2.2,-7.16 c 0.03,-0.11 0.04,-0.12 0.17,-0.12 l 0.65,0 c 0.09,0 0.12,0 0.17,0.12 l 2.19,7.16 z m -2.47,-5.19 c -0.09,-0.34 -0.2,-0.74 -0.25,-1.05 l -0.02,0 c -0.04,0.26 -0.15,0.75 -0.23,1.05 l -0.67,2.43 1.84,0 -0.67,-2.43 z" />
      <path
         id="path138"
         d="m 340.44,188.1 c 1.53,0 2.96,0.36 2.96,3.7 0,2.62 -0.84,3.84 -3.08,3.84 l -1.26,0 c -0.09,0 -0.13,-0.04 -0.13,-0.13 l 0,-7.27 c 0,-0.09 0.04,-0.13 0.13,-0.13 l 1.38,0 z m 0.06,6.76 c 1.57,0 1.9,-1.23 1.9,-3.11 0,-2.41 -0.69,-2.88 -1.98,-2.88 l -0.6,0 0,6 0.68,0 z" />
      <path
         id="path140"
         d="m 349.72,195.38 c 0.02,0.08 0.04,0.13 0.05,0.19 0,0.06 -0.04,0.07 -0.15,0.07 l -0.68,0 c -0.13,0 -0.18,-0.04 -0.2,-0.12 l -0.62,-2.12 -2.25,0 -0.56,2.12 c -0.02,0.08 -0.07,0.12 -0.2,0.12 l -0.68,0 c -0.11,0 -0.15,-0.01 -0.15,-0.07 0.01,-0.05 0.02,-0.11 0.06,-0.19 l 2.2,-7.16 c 0.03,-0.11 0.04,-0.12 0.17,-0.12 l 0.65,0 c 0.09,0 0.12,0 0.17,0.12 l 2.19,7.16 z m -2.46,-5.19 c -0.09,-0.34 -0.2,-0.74 -0.25,-1.05 l -0.02,0 c -0.04,0.26 -0.15,0.75 -0.23,1.05 l -0.67,2.43 1.84,0 -0.67,-2.43 z" />
    </g>
  </g>
</svg>
