<?xml version="1.0" encoding="UTF-8" standalone="no"?>
<svg
   xmlns:dc="http://purl.org/dc/elements/1.1/"
   xmlns:cc="http://creativecommons.org/ns#"
   xmlns:rdf="http://www.w3.org/1999/02/22-rdf-syntax-ns#"
   xmlns:svg="http://www.w3.org/2000/svg"
   xmlns="http://www.w3.org/2000/svg"
   version="1.1"
   id="svg4651"
   viewBox="0 0 128.43239 93.847076"
   height="26.485731mm"
   width="36.246475mm">
  <defs
     id="defs4653" />
  <metadata
     id="metadata4656">
    <rdf:RDF>
      <cc:Work
         rdf:about="">
        <dc:format>image/svg+xml</dc:format>
        <dc:type
           rdf:resource="http://purl.org/dc/dcmitype/StillImage" />
        <dc:title></dc:title>
      </cc:Work>
    </rdf:RDF>
  </metadata>
  <g
     transform="translate(-224.58639,-588.69901)"
     id="layer1">
    <g
       id="g296"
       transform="translate(-1.0744904,-59.240986)">
      <path
         id="path298"
         d="m 232.44,655.5 c 0,0.09 -0.04,0.13 -0.13,0.13 l -0.64,0 c -0.09,0 -0.13,-0.04 -0.13,-0.13 l -0.18,-5.66 c -0.01,-0.22 0,-0.5 0.01,-0.68 l -0.02,-0.02 c -0.01,0.24 -0.04,0.52 -0.13,0.78 l -1.33,3.83 c -0.04,0.1 -0.07,0.12 -0.17,0.12 l -0.33,0 c -0.1,0 -0.13,-0.02 -0.17,-0.12 l -1.28,-3.83 c -0.09,-0.26 -0.12,-0.54 -0.13,-0.78 l -0.02,0.02 c 0.01,0.19 0.02,0.46 0.01,0.68 l -0.17,5.66 c 0,0.09 -0.04,0.13 -0.13,0.13 l -0.64,0 c -0.09,0 -0.13,-0.04 -0.13,-0.13 l 0.42,-7.27 c 0,-0.09 0.04,-0.13 0.13,-0.13 l 0.72,0 c 0.09,0 0.09,0.02 0.12,0.11 l 1.3,3.79 c 0.06,0.17 0.1,0.44 0.14,0.68 l 0.02,0 c 0.06,-0.23 0.1,-0.52 0.15,-0.68 l 1.3,-3.79 c 0.03,-0.09 0.03,-0.11 0.12,-0.11 l 0.72,0 c 0.09,0 0.13,0.04 0.13,0.13 l 0.44,7.27 z" />
      <path
         id="path300"
         d="m 236.32,655.79 c -1.77,0 -2.49,-1.58 -2.49,-3.93 0,-2.35 0.73,-3.92 2.49,-3.92 1.75,0 2.49,1.57 2.49,3.92 -0.01,2.34 -0.73,3.93 -2.49,3.93 z m 1.49,-3.93 c 0,-1.91 -0.26,-3.18 -1.5,-3.18 -1.22,0 -1.5,1.27 -1.5,3.18 0,1.92 0.25,3.19 1.5,3.19 1.25,0 1.5,-1.27 1.5,-3.19 z" />
      <path
         id="path302"
         d="m 244.79,655.5 c 0,0.08 -0.04,0.13 -0.13,0.13 l -0.62,0 c -0.09,0 -0.13,-0.03 -0.18,-0.11 l -2.53,-5.43 c -0.13,-0.29 -0.24,-0.65 -0.3,-0.96 l -0.02,0.02 c 0.09,0.42 0.11,0.74 0.11,0.98 l 0,5.37 c 0,0.09 -0.04,0.13 -0.13,0.13 l -0.57,0 c -0.09,0 -0.13,-0.04 -0.13,-0.13 l 0,-7.27 c 0,-0.08 0.04,-0.13 0.13,-0.13 l 0.75,0 c 0.09,0 0.13,0.03 0.17,0.1 l 2.43,5.13 c 0.13,0.28 0.17,0.52 0.26,0.85 l 0.02,-0.02 c -0.03,-0.23 -0.1,-0.47 -0.1,-0.67 l 0,-5.25 c 0,-0.09 0.04,-0.13 0.13,-0.13 l 0.57,0 c 0.09,0 0.13,0.04 0.13,0.13 l 0,7.26 z" />
      <path
         id="path304"
         d="m 248.62,648.87 0,6.63 c 0,0.09 -0.04,0.13 -0.13,0.13 l -0.64,0 c -0.09,0 -0.13,-0.04 -0.13,-0.13 l 0,-6.63 -1.64,0 c -0.09,0 -0.13,-0.04 -0.13,-0.13 l 0,-0.49 c 0,-0.08 0.03,-0.14 0.15,-0.14 l 4.31,0 c 0.08,0 0.13,0.02 0.13,0.09 0,0.04 -0.03,0.09 -0.04,0.14 l -0.15,0.42 c -0.03,0.09 -0.1,0.12 -0.18,0.12 l -1.55,0 z" />
      <path
         id="path306"
         d="m 256.33,655.38 c 0.02,0.08 0.04,0.13 0.05,0.19 0,0.06 -0.04,0.07 -0.15,0.07 l -0.68,0 c -0.13,0 -0.18,-0.04 -0.2,-0.12 l -0.62,-2.12 -2.25,0 -0.56,2.12 c -0.02,0.08 -0.07,0.12 -0.2,0.12 l -0.68,0 c -0.11,0 -0.15,-0.01 -0.15,-0.07 0.01,-0.05 0.02,-0.11 0.06,-0.19 l 2.2,-7.16 c 0.03,-0.11 0.04,-0.12 0.17,-0.12 l 0.65,0 c 0.09,0 0.12,0 0.17,0.12 l 2.19,7.16 z m -2.47,-5.19 c -0.09,-0.34 -0.2,-0.74 -0.25,-1.05 l -0.02,0 c -0.04,0.26 -0.15,0.75 -0.23,1.05 l -0.67,2.43 1.84,0 -0.67,-2.43 z" />
      <path
         id="path308"
         d="m 260.65,653.77 c 0,1.3 -0.76,2.01 -2.02,2.01 -1.52,0 -1.94,-1.09 -1.94,-2.11 0,-0.13 0,-0.2 0.1,-0.2 l 0.65,0 c 0.05,0 0.09,0.02 0.09,0.11 l 0,0.09 c 0,0.73 0.25,1.38 1.11,1.38 0.75,0 1.11,-0.42 1.11,-1.28 l 0,-4.91 -1.93,0 c -0.09,0 -0.13,-0.04 -0.13,-0.13 l 0,-0.51 c 0,-0.09 0.04,-0.13 0.13,-0.13 l 2.67,0 c 0.13,0 0.15,0.02 0.15,0.14 l 0,5.54 z" />
      <path
         id="path310"
         d="m 266.29,655.48 c 0,0.13 -0.03,0.15 -0.15,0.15 l -3.39,0 c -0.09,0 -0.13,-0.04 -0.13,-0.13 l 0,-7.27 c 0,-0.09 0.04,-0.13 0.13,-0.13 l 3.42,0 c 0.12,0 0.14,0.03 0.14,0.07 0,0.03 -0.02,0.1 -0.03,0.14 l -0.15,0.46 c -0.03,0.1 -0.07,0.1 -0.17,0.1 l -2.44,0 0,2.44 2.16,0 c 0.12,0 0.14,0.02 0.14,0.14 l 0,0.48 c 0,0.12 -0.02,0.14 -0.14,0.14 l -2.16,0 0,2.78 2.64,0 c 0.09,0 0.13,0.04 0.13,0.12 l 0,0.51 z" />
      <path
         id="path312"
         d="m 272.51,648.1 c 1.53,0 2.96,0.36 2.96,3.7 0,2.62 -0.84,3.84 -3.08,3.84 l -1.26,0 c -0.09,0 -0.13,-0.04 -0.13,-0.13 l 0,-7.27 c 0,-0.09 0.04,-0.13 0.13,-0.13 l 1.38,0 z m 0.06,6.76 c 1.57,0 1.9,-1.23 1.9,-3.11 0,-2.41 -0.69,-2.88 -1.98,-2.88 l -0.6,0 0,6 0.68,0 z" />
      <path
         id="path314"
         d="m 280.76,655.48 c 0,0.13 -0.03,0.15 -0.15,0.15 l -3.39,0 c -0.09,0 -0.13,-0.04 -0.13,-0.13 l 0,-7.27 c 0,-0.09 0.04,-0.13 0.13,-0.13 l 3.42,0 c 0.12,0 0.14,0.03 0.14,0.07 0,0.03 -0.02,0.1 -0.03,0.14 l -0.15,0.46 c -0.03,0.1 -0.07,0.1 -0.17,0.1 l -2.44,0 0,2.44 2.16,0 c 0.12,0 0.14,0.02 0.14,0.14 l 0,0.48 c 0,0.12 -0.02,0.14 -0.14,0.14 l -2.16,0 0,2.78 2.64,0 c 0.09,0 0.13,0.04 0.13,0.12 l 0,0.51 z" />
      <path
         id="path316"
         d="m 285.18,649.5 c -0.04,-0.03 -0.07,-0.07 -0.07,-0.1 0,-0.12 0.73,-1 1.87,-1 1.03,0 1.87,0.67 1.87,1.78 0,1.06 -0.68,1.43 -1.13,1.63 0.42,0.13 1.38,0.47 1.38,1.85 0,1.25 -0.9,2.12 -2.35,2.12 -0.61,0 -1.78,-0.24 -1.78,-0.48 0,-0.03 0.01,-0.05 0.02,-0.09 l 0.22,-0.5 c 0.01,-0.03 0.03,-0.07 0.09,-0.07 0.09,0 0.62,0.36 1.46,0.36 0.94,0 1.44,-0.54 1.44,-1.39 0,-1.19 -0.96,-1.35 -1.6,-1.35 l -0.37,0 c -0.13,0 -0.15,-0.02 -0.15,-0.14 l 0,-0.44 c 0,-0.12 0.03,-0.15 0.15,-0.15 l 0.37,0 c 0.61,0 1.42,-0.3 1.42,-1.33 0,-0.64 -0.45,-1.03 -1.08,-1.03 -0.79,0 -1.17,0.67 -1.32,0.67 -0.02,0 -0.06,-0.01 -0.08,-0.03 l -0.36,-0.31 z" />
      <path
         id="path318"
         d="m 296.2,655.79 c -1.77,0 -2.49,-1.58 -2.49,-3.93 0,-2.35 0.73,-3.92 2.49,-3.92 1.75,0 2.49,1.57 2.49,3.92 0,2.34 -0.73,3.93 -2.49,3.93 z m 1.5,-3.93 c 0,-1.91 -0.26,-3.18 -1.5,-3.18 -1.22,0 -1.5,1.27 -1.5,3.18 0,1.92 0.25,3.19 1.5,3.19 1.25,0 1.5,-1.27 1.5,-3.19 z" />
      <path
         id="path320"
         d="m 306.64,655.63 c 0,0.12 -0.02,0.15 -0.14,0.15 l -0.54,0 c -0.12,0 -0.15,-0.03 -0.15,-0.15 l 0,-1.56 -2.79,0 c -0.13,0 -0.15,-0.02 -0.15,-0.14 l 0,-0.63 2.88,-4.8 c 0.03,-0.05 0.05,-0.1 0.12,-0.1 0.03,0 0.08,0.01 0.14,0.02 l 0.46,0.08 c 0.07,0.01 0.14,0.03 0.14,0.08 0,0.03 -0.03,0.1 -0.06,0.12 l -2.83,4.65 2.08,0 0.14,-1.77 c 0,-0.11 0.01,-0.14 0.15,-0.14 l 0.4,0 c 0.12,0 0.14,0.03 0.14,0.15 l 0,1.76 0.88,0 c 0.12,0 0.15,0.02 0.15,0.15 l 0,0.42 c 0,0.13 -0.03,0.14 -0.15,0.14 l -0.88,0 0,1.57 z" />
      <path
         id="path322"
         d="m 315.99,655.48 c 0,0.13 -0.03,0.15 -0.15,0.15 l -3.39,0 c -0.09,0 -0.13,-0.04 -0.13,-0.13 l 0,-7.27 c 0,-0.09 0.04,-0.13 0.13,-0.13 l 3.42,0 c 0.12,0 0.14,0.03 0.14,0.07 0,0.03 -0.02,0.1 -0.03,0.14 l -0.15,0.46 c -0.03,0.1 -0.07,0.1 -0.17,0.1 l -2.44,0 0,2.44 2.16,0 c 0.12,0 0.14,0.02 0.14,0.14 l 0,0.48 c 0,0.12 -0.02,0.14 -0.14,0.14 l -2.16,0 0,2.78 2.64,0 c 0.09,0 0.13,0.04 0.13,0.12 l 0,0.51 z" />
      <path
         id="path324"
         d="m 320.68,649.03 c -0.04,0.09 -0.04,0.14 -0.12,0.14 -0.04,0 -0.1,-0.02 -0.15,-0.05 -0.21,-0.11 -0.77,-0.39 -1.4,-0.39 -0.66,0 -1.17,0.34 -1.17,1.08 0,1.16 1.44,1.36 2.32,2.09 0.59,0.48 0.89,1 0.89,1.73 0,1.34 -0.99,2.16 -2.33,2.16 -1.02,0 -1.84,-0.47 -2,-0.55 -0.06,-0.02 -0.09,-0.07 -0.09,-0.12 0,-0.03 0.03,-0.09 0.04,-0.13 l 0.14,-0.36 c 0.03,-0.09 0.05,-0.14 0.12,-0.14 0.04,0 0.1,0.02 0.15,0.05 0.22,0.1 0.89,0.46 1.66,0.46 0.83,0 1.31,-0.52 1.31,-1.25 0,-1.83 -3.21,-1.55 -3.21,-3.83 0,-1.27 1.04,-1.97 2.19,-1.97 0.88,0 1.58,0.4 1.74,0.47 0.05,0.03 0.09,0.09 0.09,0.12 0,0.03 -0.03,0.09 -0.04,0.13 l -0.14,0.36 z" />
      <path
         id="path326"
         d="m 326.18,654.86 c 0.08,0 0.13,0.02 0.13,0.09 0,0.04 -0.03,0.09 -0.04,0.14 l -0.15,0.42 c -0.03,0.09 -0.1,0.12 -0.18,0.12 l -3.32,0 c -0.09,0 -0.13,-0.04 -0.13,-0.13 l 0,-7.27 c 0,-0.09 0.04,-0.13 0.13,-0.13 l 0.64,0 c 0.09,0 0.13,0.04 0.13,0.13 l 0,6.63 2.79,0 z" />
      <path
         id="path328"
         d="m 329.96,655.5 c 0,0.09 -0.04,0.13 -0.13,0.13 l -2.9,0 c -0.09,0 -0.13,-0.04 -0.13,-0.13 l 0,-0.45 c 0,-0.09 0.04,-0.13 0.13,-0.13 l 1,0 0,-6.11 -1,0 c -0.09,0 -0.13,-0.04 -0.13,-0.13 l 0,-0.45 c 0,-0.09 0.04,-0.13 0.13,-0.13 l 2.9,0 c 0.09,0 0.13,0.04 0.13,0.13 l 0,0.45 c 0,0.09 -0.04,0.13 -0.13,0.13 l -1,0 0,6.11 1,0 c 0.09,0 0.13,0.04 0.13,0.13 l 0,0.45 z" />
      <path
         id="path330"
         d="m 335.82,655.5 c 0,0.08 -0.04,0.13 -0.13,0.13 l -0.62,0 c -0.09,0 -0.13,-0.03 -0.18,-0.11 l -2.53,-5.43 c -0.13,-0.29 -0.24,-0.65 -0.3,-0.96 l -0.02,0.02 c 0.09,0.42 0.11,0.74 0.11,0.98 l 0,5.37 c 0,0.09 -0.04,0.13 -0.13,0.13 l -0.57,0 c -0.09,0 -0.13,-0.04 -0.13,-0.13 l 0,-7.27 c 0,-0.08 0.04,-0.13 0.13,-0.13 l 0.75,0 c 0.09,0 0.13,0.03 0.17,0.1 l 2.43,5.13 c 0.13,0.28 0.17,0.52 0.26,0.85 l 0.02,-0.02 c -0.03,-0.23 -0.1,-0.47 -0.1,-0.67 l 0,-5.25 c 0,-0.09 0.04,-0.13 0.13,-0.13 l 0.57,0 c 0.09,0 0.13,0.04 0.13,0.13 l 0,7.26 z" />
      <path
         id="path332"
         d="m 341.87,654.92 c 0,0.29 0,0.37 -0.15,0.46 -0.41,0.23 -1.11,0.41 -1.78,0.41 -1.95,0 -2.64,-1.72 -2.64,-3.99 0,-2.09 0.73,-3.85 2.66,-3.85 1.01,0 1.83,0.52 1.83,0.67 0,0.04 -0.02,0.08 -0.05,0.14 l -0.17,0.31 c -0.03,0.08 -0.09,0.15 -0.14,0.15 -0.11,0 -0.56,-0.54 -1.44,-0.54 -1.21,0 -1.69,1.14 -1.69,3 0,2.04 0.47,3.37 1.67,3.37 0.51,0 0.8,-0.11 1.01,-0.21 l 0,-2.31 -0.88,0 c -0.09,0 -0.13,-0.04 -0.13,-0.13 l 0,-0.45 c 0,-0.09 0.04,-0.13 0.13,-0.13 l 1.65,0 c 0.09,0 0.13,0.04 0.13,0.13 l 0,2.97 z" />
      <path
         id="path334"
         d="m 348.38,655.38 c 0.02,0.08 0.04,0.13 0.05,0.19 0,0.06 -0.04,0.07 -0.15,0.07 l -0.68,0 c -0.13,0 -0.18,-0.04 -0.2,-0.12 l -0.62,-2.12 -2.25,0 -0.56,2.12 c -0.02,0.08 -0.07,0.12 -0.2,0.12 l -0.68,0 c -0.11,0 -0.15,-0.01 -0.15,-0.07 0.01,-0.05 0.02,-0.11 0.06,-0.19 l 2.2,-7.16 c 0.03,-0.11 0.04,-0.12 0.17,-0.12 l 0.65,0 c 0.09,0 0.12,0 0.17,0.12 l 2.19,7.16 z m -2.46,-5.19 c -0.09,-0.34 -0.2,-0.74 -0.25,-1.05 l -0.02,0 c -0.04,0.26 -0.15,0.75 -0.23,1.05 l -0.67,2.43 1.84,0 -0.67,-2.43 z" />
      <path
         id="path336"
         d="m 353.06,649.03 c -0.04,0.09 -0.04,0.14 -0.12,0.14 -0.04,0 -0.1,-0.02 -0.15,-0.05 -0.21,-0.11 -0.77,-0.39 -1.4,-0.39 -0.66,0 -1.17,0.34 -1.17,1.08 0,1.16 1.44,1.36 2.32,2.09 0.59,0.48 0.89,1 0.89,1.73 0,1.34 -0.99,2.16 -2.33,2.16 -1.02,0 -1.84,-0.47 -2,-0.55 -0.05,-0.02 -0.09,-0.07 -0.09,-0.12 0,-0.03 0.03,-0.09 0.04,-0.13 l 0.14,-0.36 c 0.03,-0.09 0.05,-0.14 0.12,-0.14 0.04,0 0.1,0.02 0.15,0.05 0.22,0.1 0.89,0.46 1.66,0.46 0.83,0 1.31,-0.52 1.31,-1.25 0,-1.83 -3.21,-1.55 -3.21,-3.83 0,-1.27 1.04,-1.97 2.19,-1.97 0.88,0 1.58,0.4 1.74,0.47 0.05,0.03 0.09,0.09 0.09,0.12 0,0.03 -0.03,0.09 -0.04,0.13 l -0.14,0.36 z" />
    </g>
    <g
       id="g410"
       transform="translate(-1.0744904,-59.240986)">
      <g
         id="g412">
        <g
           id="g414">
          <path
             id="path416"
             d="m 317.91,699.21 0,0 c -0.66,0 -1.31,-0.14 -1.92,-0.41 -2.4,-1.07 -3.48,-3.91 -2.4,-6.35 l 1.79,-4.03 c 0.78,-1.75 2.51,-2.88 4.4,-2.88 0.66,0 1.31,0.14 1.92,0.41 1.16,0.51 2.04,1.45 2.5,2.64 0.46,1.21 0.43,2.52 -0.1,3.71 l -1.79,4.03 c -0.78,1.75 -2.5,2.88 -4.4,2.88 z m 1.87,-12.04 c -1.26,0 -2.41,0.75 -2.93,1.92 l -1.79,4.03 c -0.72,1.62 -0.01,3.51 1.59,4.22 0.4,0.18 0.83,0.27 1.27,0.27 l 0,0 c 1.26,0 2.41,-0.75 2.93,-1.92 l 1.79,-4.03 c 0.35,-0.79 0.38,-1.67 0.07,-2.47 -0.3,-0.79 -0.89,-1.41 -1.65,-1.74 -0.42,-0.19 -0.85,-0.28 -1.28,-0.28 z"
             stroke-miterlimit="10"
             style="fill:none;stroke:#000000;stroke-width:0.80470002;stroke-miterlimit:10" />
        </g>
        <path
           id="path418"
           d="m 321.05,673.2 c -1.66,1.09 -2.76,2.99 -2.76,5.14 l 0,6.72 c 0,2.02 0.97,3.81 2.46,4.93"
           stroke-miterlimit="10"
           style="fill:none;stroke:#000000;stroke-width:0.69279999;stroke-miterlimit:10" />
        <path
           id="path420"
           d="m 321.05,673.2 c -1.66,1.09 -2.76,2.99 -2.76,5.14 l 0,6.72 c 0,2.02 0.97,3.81 2.46,4.93"
           stroke-miterlimit="10"
           style="fill:none;stroke:#000000;stroke-width:0.69279999;stroke-miterlimit:10" />
        <path
           id="path422"
           d="m 321.88,688.07 c -1.08,-0.84 -1.69,-2.24 -1.69,-3.82 l 0,-5.09 c 0,-1.82 0.82,-3.4 2.21,-4.16"
           stroke-miterlimit="10"
           style="fill:none;stroke:#000000;stroke-width:0.69279999;stroke-miterlimit:10" />
        <path
           id="path424"
           d="m 330.39,685.06 0,-6.72 c 0,-3.38 -2.71,-6.12 -6.05,-6.12 -1.21,0 -2.34,0.36 -3.29,0.98"
           stroke-miterlimit="10"
           style="fill:none;stroke:#000000;stroke-width:0.69279999;stroke-miterlimit:10" />
        <path
           id="path426"
           d="m 320.75,689.99 c 1,0.75 2.25,1.2 3.59,1.2 3.34,0 6.05,-2.75 6.05,-6.13"
           stroke-miterlimit="10"
           style="fill:none;stroke:#000000;stroke-width:1.11500001;stroke-miterlimit:10" />
        <path
           id="path428"
           d="m 322.39,675 c 0.57,-0.31 1.23,-0.49 1.98,-0.49 2.56,0 4.12,2.08 4.12,4.64 l 0,5.09 c 0,2.57 -1.56,4.65 -4.12,4.65 -0.98,0 -1.82,-0.3 -2.49,-0.82"
           stroke-miterlimit="10"
           style="fill:none;stroke:#000000;stroke-width:0.69279999;stroke-miterlimit:10" />
        <path
           id="path430"
           d="m 315.3,695.73 c 0.77,-0.12 1.58,-0.01 2.33,0.36 l 0,0 c 1.94,0.96 2.73,3.31 1.77,5.25 l -17,34.32 c -0.96,1.94 -3.31,2.73 -5.25,1.77 l 0,0 c -1.93,-0.96 -2.73,-3.31 -1.77,-5.25 l 17,-34.32 c 0.24,-0.49 0.57,-0.9 0.95,-1.23"
           stroke-miterlimit="10"
           style="fill:none;stroke:#000000;stroke-width:0.69279999;stroke-miterlimit:10" />
        <path
           id="path432"
           d="m 315.58,695.97 c 0.64,-0.43 1.42,-0.68 2.26,-0.66 l 0,0 c 2.16,0.04 3.88,1.83 3.84,4 l -0.76,38.29 c -0.04,2.16 -1.83,3.88 -4,3.84 l 0,0 c -2.16,-0.04 -3.88,-1.83 -3.84,-3.99 l 0.76,-38.29 c 0.01,-0.54 0.13,-1.06 0.34,-1.52"
           stroke-miterlimit="10"
           style="fill:none;stroke:#000000;stroke-width:0.69279999;stroke-miterlimit:10" />
        <g
           id="g434">
          <path
             id="path436"
             d="m 326.42,696.34 -1.79,-4.03 c -0.53,-1.19 -0.56,-2.5 -0.1,-3.71 0.45,-1.19 1.34,-2.12 2.5,-2.64 0.61,-0.27 1.25,-0.41 1.92,-0.41 1.9,0 3.62,1.13 4.4,2.88 l 1.79,4.03 c 1.08,2.43 0,5.28 -2.4,6.35 -0.61,0.27 -1.26,0.41 -1.92,0.41 l 0,0 c -1.9,-0.01 -3.63,-1.14 -4.4,-2.88 z m 1.26,-8.9 c -0.76,0.34 -1.35,0.96 -1.65,1.74 -0.31,0.8 -0.28,1.68 0.07,2.47 l 1.79,4.03 c 0.52,1.17 1.67,1.92 2.93,1.92 l 0,0 c 0.44,0 0.86,-0.09 1.26,-0.27 1.59,-0.71 2.3,-2.6 1.58,-4.22 l -1.79,-4.03 c -0.52,-1.17 -1.67,-1.92 -2.93,-1.92 -0.43,0.01 -0.86,0.1 -1.26,0.28 z"
             stroke-miterlimit="10"
             style="fill:none;stroke:#000000;stroke-width:0.80470002;stroke-miterlimit:10" />
        </g>
        <path
           id="path438"
           d="m 333.42,695.73 c -0.77,-0.12 -1.58,-0.01 -2.33,0.36 l 0,0 c -1.94,0.96 -2.73,3.31 -1.77,5.25 l 17,34.32 c 0.96,1.94 3.31,2.73 5.25,1.77 l 0,0 c 1.94,-0.96 2.73,-3.31 1.77,-5.25 l -17,-34.32 c -0.24,-0.49 -0.57,-0.9 -0.95,-1.23"
           stroke-miterlimit="10"
           style="fill:none;stroke:#000000;stroke-width:0.69279999;stroke-miterlimit:10" />
        <path
           id="path440"
           d="m 333.15,695.97 c -0.64,-0.43 -1.42,-0.68 -2.26,-0.66 l 0,0 c -2.16,0.04 -3.88,1.83 -3.84,4 l 0.76,38.29 c 0.04,2.16 1.83,3.88 3.99,3.84 l 0,0 c 2.16,-0.04 3.88,-1.83 3.84,-3.99 l -0.76,-38.29 c -0.01,-0.54 -0.13,-1.06 -0.34,-1.52"
           stroke-miterlimit="10"
           style="fill:none;stroke:#000000;stroke-width:0.69279999;stroke-miterlimit:10" />
        <line
           id="line442"
           y2="734.88"
           x2="294.92001"
           y1="683.12"
           x1="294.92001"
           stroke-miterlimit="10"
           style="fill:none;stroke:#ffde00;stroke-width:0.92919999;stroke-linecap:round;stroke-linejoin:round;stroke-miterlimit:10" />
        <path
           id="path444"
           d="m 306.24,716.68 c -0.82,-4.86 -6.98,-7.86 -13.77,-6.72"
           stroke-miterlimit="10"
           style="fill:none;stroke:#ffde00;stroke-width:0.92919999;stroke-linecap:round;stroke-linejoin:round;stroke-miterlimit:10" />
        <g
           id="g446">
          <path
             id="path448"
             d="m 299.49,705.77 0,-5.65 c 0,-0.69 0.08,-1.22 0.25,-1.59 0.17,-0.37 0.45,-0.66 0.84,-0.87 0.39,-0.21 0.83,-0.32 1.32,-0.32 0.65,0 1.17,0.16 1.54,0.49 0.37,0.33 0.56,0.7 0.56,1.13 0,0.19 -0.03,0.39 -0.1,0.59 -0.07,0.2 -0.19,0.46 -0.36,0.76 -0.17,0.3 -0.28,0.51 -0.33,0.63 -0.05,0.12 -0.07,0.22 -0.07,0.31 0,0.12 0.04,0.24 0.12,0.36 0.08,0.12 0.31,0.3 0.68,0.55 0.51,0.34 0.85,0.61 1.02,0.81 0.24,0.29 0.36,0.63 0.36,1.03 0,0.52 -0.19,0.97 -0.58,1.35 -0.39,0.37 -0.88,0.56 -1.48,0.56 -0.48,0 -0.89,-0.13 -1.25,-0.38 -0.36,-0.25 -0.63,-0.58 -0.8,-0.98 l 0.88,-0.41 c 0.19,0.35 0.38,0.59 0.57,0.73 0.19,0.14 0.39,0.2 0.59,0.2 0.29,0 0.53,-0.1 0.74,-0.29 0.2,-0.2 0.31,-0.43 0.31,-0.69 0,-0.21 -0.06,-0.39 -0.18,-0.54 -0.08,-0.1 -0.29,-0.26 -0.63,-0.5 -0.63,-0.43 -1.01,-0.75 -1.16,-0.97 -0.15,-0.21 -0.23,-0.44 -0.23,-0.66 0,-0.15 0.03,-0.3 0.08,-0.45 0.05,-0.15 0.17,-0.39 0.37,-0.72 0.2,-0.33 0.32,-0.58 0.38,-0.75 0.06,-0.17 0.09,-0.31 0.09,-0.44 0,-0.23 -0.1,-0.44 -0.31,-0.62 -0.21,-0.18 -0.48,-0.27 -0.82,-0.27 -0.4,0 -0.73,0.12 -0.99,0.37 -0.26,0.25 -0.38,0.79 -0.38,1.62 l 0,5.61 -1.03,0 z" />
        </g>
      </g>
      <g
         id="g450">
        <path
           id="path452"
           d="m 248.67,700.57 c -0.38,1.92 -2.67,5.26 -4.58,4.88 -1.92,-0.38 -2.74,-4.35 -2.36,-6.26 0.38,-1.92 2.24,-3.16 4.16,-2.78 1.92,0.37 3.16,2.24 2.78,4.16 z"
           stroke-miterlimit="10"
           style="fill:none;stroke:#000000;stroke-width:0.69279999;stroke-miterlimit:10" />
        <path
           id="path454"
           d="m 234.34,736.15 c 0.38,-1.92 2.66,-5.26 4.58,-4.88 1.92,0.38 2.74,4.35 2.36,6.26 -0.38,1.91 -2.25,3.16 -4.17,2.78 -1.91,-0.37 -3.15,-2.24 -2.77,-4.16 z"
           stroke-miterlimit="10"
           style="fill:none;stroke:#000000;stroke-width:0.69279999;stroke-miterlimit:10" />
        <line
           id="line456"
           y2="731.37"
           x2="238.91"
           y1="705.71002"
           x1="244.03"
           stroke-miterlimit="10"
           style="fill:none;stroke:#000000;stroke-width:0.69279999;stroke-miterlimit:10" />
        <path
           id="path458"
           d="m 248.68,699.57 c -0.83,1.77 -3.83,4.48 -5.61,3.65 -1.77,-0.83 -1.64,-4.87 -0.81,-6.64 0.83,-1.77 2.93,-2.54 4.7,-1.71 1.78,0.83 2.55,2.93 1.72,4.7 z"
           stroke-miterlimit="10"
           style="fill:none;stroke:#000000;stroke-width:0.69279999;stroke-miterlimit:10" />
        <path
           id="path460"
           d="m 226.34,730.75 c 0.83,-1.77 3.83,-4.48 5.61,-3.65 1.77,0.83 1.63,4.87 0.81,6.64 -0.83,1.77 -2.93,2.54 -4.71,1.71 -1.77,-0.82 -2.54,-2.92 -1.71,-4.7 z"
           stroke-miterlimit="10"
           style="fill:none;stroke:#000000;stroke-width:0.69279999;stroke-miterlimit:10" />
        <line
           id="line462"
           y2="727.19"
           x2="231.91"
           y1="703.46997"
           x1="242.96001"
           stroke-miterlimit="10"
           style="fill:none;stroke:#000000;stroke-width:0.69279999;stroke-miterlimit:10" />
        <path
           id="path464"
           d="m 252.73,700.57 c 0.38,1.92 2.67,5.26 4.58,4.88 1.92,-0.38 2.74,-4.35 2.36,-6.26 -0.38,-1.92 -2.25,-3.16 -4.16,-2.78 -1.92,0.37 -3.16,2.24 -2.78,4.16 z"
           stroke-miterlimit="10"
           style="fill:none;stroke:#000000;stroke-width:0.69279999;stroke-miterlimit:10" />
        <path
           id="path466"
           d="m 267.06,736.15 c -0.38,-1.92 -2.67,-5.26 -4.58,-4.88 -1.92,0.38 -2.74,4.35 -2.36,6.26 0.38,1.91 2.25,3.16 4.17,2.78 1.91,-0.37 3.15,-2.24 2.77,-4.16 z"
           stroke-miterlimit="10"
           style="fill:none;stroke:#000000;stroke-width:0.69279999;stroke-miterlimit:10" />
        <line
           id="line468"
           y2="731.37"
           x2="262.48999"
           y1="705.71002"
           x1="257.37"
           stroke-miterlimit="10"
           style="fill:none;stroke:#000000;stroke-width:0.69279999;stroke-miterlimit:10" />
        <path
           id="path470"
           d="m 252.72,699.57 c 0.82,1.77 3.83,4.48 5.61,3.65 1.77,-0.83 1.63,-4.87 0.81,-6.64 -0.83,-1.77 -2.93,-2.54 -4.7,-1.71 -1.78,0.83 -2.55,2.93 -1.72,4.7 z"
           stroke-miterlimit="10"
           style="fill:none;stroke:#000000;stroke-width:0.69279999;stroke-miterlimit:10" />
        <path
           id="path472"
           d="m 275.06,730.75 c -0.83,-1.77 -3.84,-4.48 -5.61,-3.65 -1.78,0.83 -1.63,4.87 -0.81,6.64 0.82,1.77 2.93,2.54 4.7,1.71 1.78,-0.82 2.55,-2.92 1.72,-4.7 z"
           stroke-miterlimit="10"
           style="fill:none;stroke:#000000;stroke-width:0.69279999;stroke-miterlimit:10" />
        <line
           id="line474"
           y2="727.19"
           x2="269.48999"
           y1="703.46997"
           x1="258.44"
           stroke-miterlimit="10"
           style="fill:none;stroke:#000000;stroke-width:0.69279999;stroke-miterlimit:10" />
        <path
           id="path476"
           d="m 247.93,674.25 c -1.66,1.09 -2.76,2.99 -2.76,5.14 l 0,6.72 c 0,2.02 0.97,3.81 2.46,4.93"
           stroke-miterlimit="10"
           style="fill:none;stroke:#000000;stroke-width:0.69279999;stroke-miterlimit:10" />
        <path
           id="path478"
           d="m 247.93,674.25 c -1.66,1.09 -2.76,2.99 -2.76,5.14 l 0,6.72 c 0,2.02 0.97,3.81 2.46,4.93"
           stroke-miterlimit="10"
           style="fill:none;stroke:#000000;stroke-width:0.69279999;stroke-miterlimit:10" />
        <path
           id="path480"
           d="m 248.76,689.12 c -1.07,-0.84 -1.69,-2.24 -1.69,-3.82 l 0,-5.09 c 0,-1.82 0.81,-3.4 2.2,-4.16"
           stroke-miterlimit="10"
           style="fill:none;stroke:#000000;stroke-width:0.69279999;stroke-miterlimit:10" />
        <path
           id="path482"
           d="m 247.63,691.04 c 1.01,0.75 2.25,1.2 3.59,1.2 3.34,0 6.05,-2.75 6.05,-6.13 l 0,-6.72 c 0,-3.38 -2.71,-6.13 -6.05,-6.13 -1.21,0 -2.35,0.36 -3.29,0.98"
           stroke-miterlimit="10"
           style="fill:none;stroke:#000000;stroke-width:0.69279999;stroke-miterlimit:10" />
        <path
           id="path484"
           d="m 249.27,676.05 c 0.57,-0.31 1.23,-0.49 1.98,-0.49 2.56,0 4.12,2.08 4.12,4.64 l 0,5.09 c 0,2.57 -1.56,4.65 -4.12,4.65 -0.98,0 -1.82,-0.3 -2.49,-0.82"
           stroke-miterlimit="10"
           style="fill:none;stroke:#000000;stroke-width:0.69279999;stroke-miterlimit:10" />
        <path
           id="path486"
           d="m 249.45,686.28 c -1.08,-0.31 -2.2,0.3 -2.52,1.38 l -0.37,1.28 -2.28,7.82 -0.37,1.28 c -0.31,1.08 0.3,2.21 1.38,2.52 1.08,0.32 2.21,-0.3 2.52,-1.38 l 0.37,-1.28 2.28,-7.82 0.38,-1.28 c 0.31,-1.08 -0.31,-2.21 -1.39,-2.52 z"
           stroke-miterlimit="10"
           style="fill:#ffffff;stroke:#000000;stroke-width:0.69279999;stroke-miterlimit:10" />
        <path
           id="path488"
           d="m 252.48,686.28 c 1.08,-0.31 2.21,0.3 2.52,1.38 l 0.37,1.28 2.28,7.82 0.38,1.28 c 0.31,1.08 -0.31,2.21 -1.38,2.52 -1.08,0.32 -2.2,-0.3 -2.52,-1.38 l -0.37,-1.28 -2.28,-7.82 -0.37,-1.28 c -0.33,-1.08 0.29,-2.21 1.37,-2.52 z"
           stroke-miterlimit="10"
           style="fill:#ffffff;stroke:#000000;stroke-width:0.69279999;stroke-miterlimit:10" />
      </g>
    </g>
  </g>
</svg>
