<?xml version="1.0" encoding="UTF-8" standalone="no"?>
<svg
   xmlns:dc="http://purl.org/dc/elements/1.1/"
   xmlns:cc="http://creativecommons.org/ns#"
   xmlns:rdf="http://www.w3.org/1999/02/22-rdf-syntax-ns#"
   xmlns:svg="http://www.w3.org/2000/svg"
   xmlns="http://www.w3.org/2000/svg"
   version="1.1"
   id="svg4651"
   viewBox="0 0 91.800003 84.816399"
   height="23.937073mm"
   width="25.908001mm">
  <defs
     id="defs4653" />
  <metadata
     id="metadata4656">
    <rdf:RDF>
      <cc:Work
         rdf:about="">
        <dc:format>image/svg+xml</dc:format>
        <dc:type
           rdf:resource="http://purl.org/dc/dcmitype/StillImage" />
        <dc:title></dc:title>
      </cc:Work>
    </rdf:RDF>
  </metadata>
  <g
     transform="translate(-5.52857,-358.52543)"
     id="layer1">
    <g
       id="g8"
       transform="translate(-238.96143,265.60543)">
      <path
         id="path10"
         d="m 282.83,123.94 c 0,2.53 -2.05,7.36 -4.59,7.36 -2.54,0 -4.59,-4.83 -4.59,-7.36 0,-2.53 2.05,-4.59 4.59,-4.59 2.54,0 4.59,2.05 4.59,4.59 z"
         stroke-miterlimit="10"
         style="fill:none;stroke:#000000;stroke-width:0.69279999;stroke-miterlimit:10" />
      <path
         id="path12"
         d="m 273.65,172.8 c 0,-2.53 2.05,-7.36 4.59,-7.36 2.54,0 4.59,4.83 4.59,7.36 0,2.53 -2.05,4.59 -4.59,4.59 -2.53,0 -4.59,-2.06 -4.59,-4.59 z"
         stroke-miterlimit="10"
         style="fill:none;stroke:#000000;stroke-width:0.69279999;stroke-miterlimit:10" />
      <line
         id="line14"
         y2="165.56"
         x2="278.23999"
         y1="131.64999"
         x1="278.23999"
         stroke-miterlimit="10"
         style="fill:none;stroke:#000000;stroke-width:0.69279999;stroke-miterlimit:10" />
      <path
         id="path16"
         d="m 306.11,171.5 c 0,2.63 -2.13,4.77 -4.77,4.77 l 0,0 c -2.63,0 -4.77,-2.13 -4.77,-4.77 l 0,-46.62 c 0,-2.63 2.13,-4.77 4.77,-4.77 l 0,0 c 2.63,0 4.77,2.13 4.77,4.77 l 0,46.62 z"
         stroke-miterlimit="10"
         style="fill:none;stroke:#000000;stroke-width:0.69279999;stroke-miterlimit:10" />
    </g>
    <g
       id="g62"
       transform="translate(-238.96143,265.60543)">
      <path
         id="path64"
         d="m 248.16,102.81 c 0,0.13 -0.03,0.15 -0.15,0.15 l -3.39,0 c -0.09,0 -0.13,-0.04 -0.13,-0.13 l 0,-7.27 c 0,-0.09 0.04,-0.13 0.13,-0.13 l 3.42,0 c 0.12,0 0.14,0.03 0.14,0.07 0,0.03 -0.02,0.1 -0.03,0.14 L 248,96.1 c -0.03,0.1 -0.07,0.1 -0.16,0.1 l -2.44,0 0,2.44 2.16,0 c 0.12,0 0.14,0.02 0.14,0.14 l 0,0.48 c 0,0.12 -0.02,0.14 -0.14,0.14 l -2.16,0 0,2.78 2.64,0 c 0.09,0 0.13,0.04 0.13,0.12 l 0,0.51 z" />
      <path
         id="path66"
         d="m 253.25,102.2 c 0.08,0 0.13,0.02 0.13,0.09 0,0.04 -0.03,0.09 -0.04,0.14 l -0.15,0.42 c -0.03,0.09 -0.1,0.12 -0.18,0.12 l -3.32,0 c -0.09,0 -0.13,-0.04 -0.13,-0.13 l 0,-7.27 c 0,-0.09 0.04,-0.13 0.13,-0.13 l 0.64,0 c 0.09,0 0.13,0.04 0.13,0.13 l 0,6.63 2.79,0 z" />
      <path
         id="path68"
         d="m 258.14,102.81 c 0,0.13 -0.03,0.15 -0.15,0.15 l -3.39,0 c -0.09,0 -0.13,-0.04 -0.13,-0.13 l 0,-7.27 c 0,-0.09 0.04,-0.13 0.13,-0.13 l 3.42,0 c 0.12,0 0.14,0.03 0.14,0.07 0,0.03 -0.02,0.1 -0.03,0.14 l -0.15,0.46 c -0.03,0.1 -0.07,0.1 -0.16,0.1 l -2.44,0 0,2.44 2.16,0 c 0.12,0 0.14,0.02 0.14,0.14 l 0,0.48 c 0,0.12 -0.02,0.14 -0.14,0.14 l -2.16,0 0,2.78 2.62,0 c 0.09,0 0.13,0.04 0.13,0.12 l 0,0.51 z" />
      <path
         id="path70"
         d="m 261.8,102.92 c -0.03,0.11 -0.05,0.12 -0.17,0.12 l -0.77,0 c -0.12,0 -0.14,-0.02 -0.16,-0.12 l -1.9,-7.18 c -0.01,-0.04 -0.03,-0.1 -0.03,-0.13 0,-0.07 0.1,-0.08 0.13,-0.09 l 0.61,-0.15 c 0.03,-0.01 0.07,-0.01 0.1,-0.01 0.06,0 0.08,0.07 0.1,0.18 l 1.39,5.74 c 0.05,0.21 0.12,0.59 0.15,0.88 l 0.02,0 c 0.03,-0.27 0.12,-0.69 0.16,-0.86 l 1.4,-5.77 c 0.03,-0.11 0.04,-0.18 0.1,-0.18 0.03,0 0.06,0 0.1,0.01 l 0.61,0.15 c 0.03,0.01 0.13,0.03 0.13,0.1 0,0.02 -0.02,0.08 -0.03,0.12 l -1.94,7.19 z" />
      <path
         id="path72"
         d="m 269.76,102.71 c 0.02,0.08 0.04,0.13 0.05,0.19 0,0.06 -0.04,0.07 -0.15,0.07 l -0.68,0 c -0.13,0 -0.18,-0.04 -0.2,-0.12 l -0.62,-2.12 -2.26,0 -0.56,2.12 c -0.02,0.08 -0.07,0.12 -0.2,0.12 l -0.68,0 c -0.11,0 -0.15,-0.01 -0.15,-0.07 0.01,-0.05 0.02,-0.11 0.06,-0.19 l 2.2,-7.16 c 0.03,-0.11 0.04,-0.12 0.17,-0.12 l 0.65,0 c 0.09,0 0.12,0 0.17,0.12 l 2.2,7.16 z m -2.46,-5.19 c -0.09,-0.34 -0.2,-0.74 -0.25,-1.05 l -0.02,0 c -0.04,0.26 -0.15,0.75 -0.23,1.05 l -0.67,2.43 1.84,0 -0.67,-2.43 z" />
      <path
         id="path74"
         d="m 274.92,102.12 c 0.04,0.05 0.07,0.1 0.07,0.15 0,0.18 -0.79,0.85 -1.76,0.85 -1.87,0 -2.53,-1.72 -2.53,-3.99 0,-2.09 0.54,-3.85 2.45,-3.85 0.97,0 1.76,0.67 1.76,0.85 0,0.05 -0.02,0.1 -0.07,0.15 l -0.23,0.3 c -0.03,0.04 -0.06,0.09 -0.11,0.09 -0.08,0 -0.69,-0.65 -1.33,-0.65 -1.19,0 -1.49,1.13 -1.49,3 0,2.04 0.44,3.37 1.56,3.37 0.64,0 1.25,-0.65 1.33,-0.65 0.03,0 0.08,0.06 0.11,0.09 l 0.24,0.29 z" />
      <path
         id="path76"
         d="m 278.84,102.83 c 0,0.09 -0.04,0.13 -0.13,0.13 l -2.9,0 c -0.09,0 -0.13,-0.04 -0.13,-0.13 l 0,-0.45 c 0,-0.09 0.04,-0.13 0.13,-0.13 l 1,0 0,-6.11 -1,0 c -0.09,0 -0.13,-0.04 -0.13,-0.13 l 0,-0.45 c 0,-0.09 0.04,-0.13 0.13,-0.13 l 2.9,0 c 0.09,0 0.13,0.04 0.13,0.13 l 0,0.45 c 0,0.09 -0.04,0.13 -0.13,0.13 l -1,0 0,6.11 1,0 c 0.09,0 0.13,0.04 0.13,0.13 l 0,0.45 z" />
      <path
         id="path78"
         d="m 282.35,103.12 c -1.77,0 -2.49,-1.58 -2.49,-3.93 0,-2.35 0.72,-3.92 2.49,-3.92 1.75,0 2.49,1.57 2.49,3.92 -0.01,2.35 -0.73,3.93 -2.49,3.93 z m 1.49,-3.93 c 0,-1.91 -0.26,-3.18 -1.5,-3.18 -1.22,0 -1.5,1.27 -1.5,3.18 0,1.92 0.25,3.19 1.5,3.19 1.25,0 1.5,-1.26 1.5,-3.19 z m -2.21,-4.56 c -0.03,0.02 -0.07,0.03 -0.11,0.03 -0.03,0 -0.07,-0.03 -0.1,-0.09 l -0.1,-0.15 c -0.02,-0.03 -0.05,-0.08 -0.05,-0.11 0,-0.03 0.04,-0.05 0.09,-0.1 l 1.59,-1.23 c 0.02,-0.01 0.07,-0.06 0.11,-0.06 0.04,0 0.08,0.06 0.11,0.09 l 0.32,0.47 c 0.02,0.03 0.04,0.07 0.04,0.11 0,0.04 -0.04,0.08 -0.1,0.1 l -1.8,0.94 z" />
      <path
         id="path80"
         d="m 290.82,102.83 c 0,0.08 -0.04,0.13 -0.13,0.13 l -0.62,0 c -0.09,0 -0.13,-0.03 -0.18,-0.11 l -2.53,-5.43 c -0.13,-0.29 -0.24,-0.65 -0.3,-0.96 l -0.02,0.02 c 0.09,0.42 0.11,0.74 0.11,0.98 l 0,5.37 c 0,0.09 -0.04,0.13 -0.13,0.13 l -0.57,0 c -0.09,0 -0.13,-0.04 -0.13,-0.13 l 0,-7.27 c 0,-0.08 0.04,-0.13 0.13,-0.13 l 0.75,0 c 0.09,0 0.13,0.03 0.17,0.1 l 2.43,5.13 c 0.13,0.28 0.16,0.52 0.26,0.85 l 0.02,-0.02 c -0.03,-0.23 -0.1,-0.47 -0.1,-0.67 l 0,-5.25 c 0,-0.09 0.04,-0.13 0.13,-0.13 l 0.57,0 c 0.09,0 0.13,0.04 0.13,0.13 l 0,7.26 z" />
      <path
         id="path82"
         d="m 298.26,102.92 c -0.03,0.11 -0.05,0.12 -0.17,0.12 l -0.77,0 c -0.12,0 -0.14,-0.02 -0.16,-0.12 l -1.9,-7.18 c -0.01,-0.04 -0.03,-0.1 -0.03,-0.13 0,-0.07 0.1,-0.08 0.13,-0.09 l 0.61,-0.15 c 0.03,-0.01 0.07,-0.01 0.1,-0.01 0.06,0 0.08,0.07 0.1,0.18 l 1.39,5.74 c 0.05,0.21 0.12,0.59 0.15,0.88 l 0.02,0 c 0.03,-0.27 0.12,-0.69 0.16,-0.86 l 1.4,-5.77 c 0.03,-0.11 0.04,-0.18 0.1,-0.18 0.03,0 0.06,0 0.1,0.01 l 0.61,0.15 c 0.03,0.01 0.13,0.03 0.13,0.1 0,0.02 -0.02,0.08 -0.03,0.12 l -1.94,7.19 z" />
      <path
         id="path84"
         d="m 305.19,102.81 c 0,0.13 -0.03,0.15 -0.15,0.15 l -3.39,0 c -0.09,0 -0.13,-0.04 -0.13,-0.13 l 0,-7.27 c 0,-0.09 0.04,-0.13 0.13,-0.13 l 3.42,0 c 0.12,0 0.14,0.03 0.14,0.07 0,0.03 -0.02,0.1 -0.03,0.14 l -0.15,0.46 c -0.03,0.1 -0.07,0.1 -0.17,0.1 l -2.44,0 0,2.44 2.16,0 c 0.12,0 0.14,0.02 0.14,0.14 l 0,0.48 c 0,0.12 -0.02,0.14 -0.14,0.14 l -2.16,0 0,2.78 2.64,0 c 0.09,0 0.13,0.04 0.13,0.12 l 0,0.51 z" />
      <path
         id="path86"
         d="m 310.97,102.79 c 0.02,0.04 0.04,0.09 0.04,0.12 0,0.03 -0.04,0.07 -0.12,0.08 l -0.69,0.13 c -0.08,0.01 -0.13,-0.01 -0.17,-0.09 l -1.81,-3.5 -0.79,0 0,3.3 c 0,0.09 -0.04,0.13 -0.13,0.13 l -0.64,0 c -0.09,0 -0.13,-0.04 -0.13,-0.13 l 0,-7.27 c 0,-0.09 0.04,-0.13 0.13,-0.13 l 1.71,0 c 0.85,0 2.23,0.05 2.23,2 0,1.21 -0.85,1.83 -1.45,2.02 l 1.82,3.34 z m -2.83,-3.97 c 0.81,0 1.55,-0.19 1.55,-1.36 0,-1.22 -0.79,-1.25 -1.42,-1.25 l -0.85,0 0,2.62 0.72,0 z" />
      <path
         id="path88"
         d="m 314.2,96.2 0,6.63 c 0,0.09 -0.04,0.13 -0.13,0.13 l -0.64,0 c -0.09,0 -0.13,-0.04 -0.13,-0.13 l 0,-6.63 -1.64,0 c -0.09,0 -0.13,-0.04 -0.13,-0.13 l 0,-0.49 c 0,-0.08 0.03,-0.14 0.15,-0.14 l 4.32,0 c 0.08,0 0.13,0.02 0.13,0.09 0,0.04 -0.03,0.09 -0.04,0.14 l -0.15,0.42 c -0.03,0.09 -0.1,0.12 -0.18,0.12 l -1.56,0 z" />
      <path
         id="path90"
         d="m 319.78,102.83 c 0,0.09 -0.04,0.13 -0.13,0.13 l -2.9,0 c -0.09,0 -0.13,-0.04 -0.13,-0.13 l 0,-0.45 c 0,-0.09 0.04,-0.13 0.13,-0.13 l 1,0 0,-6.11 -1,0 c -0.09,0 -0.13,-0.04 -0.13,-0.13 l 0,-0.45 c 0,-0.09 0.04,-0.13 0.13,-0.13 l 2.9,0 c 0.09,0 0.13,0.04 0.13,0.13 l 0,0.45 c 0,0.09 -0.04,0.13 -0.13,0.13 l -1,0 0,6.11 1,0 c 0.09,0 0.13,0.04 0.13,0.13 l 0,0.45 z" />
      <path
         id="path92"
         d="m 325.03,102.12 c 0.04,0.05 0.06,0.1 0.06,0.15 0,0.18 -0.79,0.85 -1.76,0.85 -1.87,0 -2.53,-1.72 -2.53,-3.99 0,-2.09 0.54,-3.85 2.45,-3.85 0.97,0 1.76,0.67 1.76,0.85 0,0.05 -0.02,0.1 -0.07,0.15 l -0.23,0.3 c -0.03,0.04 -0.07,0.09 -0.11,0.09 -0.08,0 -0.69,-0.65 -1.33,-0.65 -1.19,0 -1.48,1.13 -1.48,3 0,2.04 0.44,3.37 1.56,3.37 0.64,0 1.26,-0.65 1.33,-0.65 0.03,0 0.08,0.06 0.11,0.09 l 0.24,0.29 z" />
      <path
         id="path94"
         d="m 331.08,102.71 c 0.02,0.08 0.04,0.13 0.05,0.19 0,0.06 -0.04,0.07 -0.15,0.07 l -0.68,0 c -0.13,0 -0.18,-0.04 -0.2,-0.12 l -0.62,-2.12 -2.25,0 -0.56,2.12 c -0.02,0.08 -0.06,0.12 -0.2,0.12 l -0.68,0 c -0.11,0 -0.15,-0.01 -0.15,-0.07 0.01,-0.05 0.02,-0.11 0.05,-0.19 l 2.2,-7.16 c 0.03,-0.11 0.04,-0.12 0.16,-0.12 l 0.65,0 c 0.09,0 0.12,0 0.16,0.12 l 2.22,7.16 z m -2.47,-5.19 c -0.09,-0.34 -0.2,-0.74 -0.25,-1.05 l -0.02,0 c -0.04,0.26 -0.15,0.75 -0.23,1.05 l -0.67,2.43 1.84,0 -0.67,-2.43 z" />
      <path
         id="path96"
         d="m 336.16,102.2 c 0.08,0 0.13,0.02 0.13,0.09 0,0.04 -0.03,0.09 -0.04,0.14 l -0.15,0.42 c -0.03,0.09 -0.1,0.12 -0.18,0.12 l -3.32,0 c -0.09,0 -0.13,-0.04 -0.13,-0.13 l 0,-7.27 c 0,-0.09 0.04,-0.13 0.13,-0.13 l 0.64,0 c 0.09,0 0.13,0.04 0.13,0.13 l 0,6.63 2.79,0 z" />
    </g>
  </g>
</svg>
