<svg xmlns="http://www.w3.org/2000/svg" height="149.1" width="155.8"><path d="M-167 650.8c1.5-.3 2.6-.5 4.6-.7l.4-1c-3.5 0-13 0-17.6 1.4 0 1-.2 1.7-.3 2.5 8-1.2 11-1.8 13-2.2zM-160.5 650.4c2.2.7 6 2.2 8 5.4 0 .3.2.6.3.8v-.2c-.7-2.7-3.5-5-8-7l-.3 1zM-149 611.6c-3.3 5.2-3.4 10.3-3.4 11 2.5 0 5 .2 7.2.7v-.4c0-2-.4-7.6 5.3-12 2.6-1.8 5-5.7 6-7.7-1.8-.8-3.8-1.5-6-2.2-1.8-.4-3.6-1-5.4-1.2 0 2-.3 7-3.5 11.8z" fill="none"/><path d="M-138.8 612.7c-5 3.7-4.6 8.4-4.5 10.2v.8c2 .5 3.7 1.2 5.2 2 0-.8.3-2 .6-3 1-4.7 5.7-7.7 9.7-10.3 1.8-1 3.5-2.2 4.8-3.4-1-.7-4.4-2.8-9-5-1.3 2.2-4 6.5-6.8 8.7zM-154.5 644.6c1.3 1 3.3 2.3 5 4.2 1.7 1.6 3 3.3 3.7 5v-.8c-.8-3.4-3.4-6.6-8-9.5l-.7 1zM-168.6 613.4v3c-.3 3.5-.6 7.3 1.3 9.5 1.7-1 3.3-1.5 4.8-2-.6-3-.7-9 1.2-12.7 2-3.8 1-9.7.5-11.5-4.7 1-9 2.7-13.2 5.5 1.6 1.3 5.3 4.7 5.4 8zM-150.4 610.5c3-4.7 3.2-9.6 3.2-11-4-.5-8-.5-11.7 0 .5 2 1.5 8.4-.6 12.7-1.7 3.5-1.4 9-1 11.4 2-.5 4.2-.8 6.4-1 0-.8 0-6.4 3.8-12zM-136 645.3l.7-.8-6-11.2-2-.5c2 3.8 5.2 10 7.3 12.5zM-156.2 643.6l.7-1c-3.6-1-14.3-4.3-18.4-3.8-.3 0-.7 0-.8-.5l-1.2 1.4c4 1 16 3.2 19.8 4zM-144.8 645.5l.7-.6c-3.8-4.7-15-13-15.2-13 0-.2 0-.2-.2-.3-.4 0-.8 0-1.3.2 5 4.5 13.5 11.6 16 13.5zM-134.3 646.3c3 1.3 10.8 5 15.4 10.7-2.6-4.2-7.7-8-14.8-11l-.5.3zM-143 646.6c4.7 3 7.7 6.8 9.5 9.8-1.6-5.8-7.3-9.2-9-10.2l-.6.4z" fill="none"/><path d="M-144.6 629.8c1.4.3 4 .8 6 1.7v-2.7c-4-3-13.2-4.8-22-2.5-3.8 1-8.4 3-12 6.8 3-1.7 6.6-3 11.4-3.7 7-1 13.4 0 16.6.5zM-111.5 649.5c-.3 0-.5-.3-.6-.6-2.6-.5-4.8-1-7-1.3 1.2 1.5 4.3 4 12.3 6 10.8 2.6 18 5 20.7 6v-1.3c-2.8-1-17.5-5.7-25.5-9z" fill="none"/><path stroke-miterlimit="10" d="M2.2 120.8c-6.3-16 4-70.8 54.6-88.6 50.5-17.8 83.3 8.5 88.6 47 5.3 38.6 2.5 63-18.5 68.7-21 5.4-37-20.4-61.6-15.8-24.6 4.7-51 20-63.2-11.4" fill="#807b60" stroke="#000"/><path d="M22 120.8c-13.6-13.6-18-38 6.5-61C53 36.8 72 25.5 104 35.6c32 10.2 37 50.4 35.3 70-1.6 19.4-9.4 29-23.4 27-14-2-16-15.3-36.2-15.7-20.2-.5-40.3 21.6-58 3.8" fill="#5e4040"/><path d="M57.2 77.5c-11.8-14.6 19-38 34.5-21.2 15.5 17-21.8 37-34.5 21.2" fill="#545e6b"/><path d="M64.5 72C58.7 64.5 74.8 53 82 61.4 89.7 70 73 82.6 64.6 72" fill="#e9ad75"/><g><path d="M153.4 2.4c0-.2-.2-.2-.3-.2h-.3l-.5.4-.7.2-1 .2c-.4 0-1 .4-1.5.8-.4.3-1 .7-1.5 1.3l-2 2.4-1 1.2c-.7-1-2-1.3-3.3-1.3h-1l-.8.3c0-.3-.2-.5-.3-.6 0-.2 0-.4-.3-.6 0 0 0-.2-.2-.3h-.3l-.7-.7-.4-1c0-.3-.3-.7-.5-1l-.3-.5-.2-.5c-.2-.4-.5-.8-1-1l-.8-.7c-.4-.4-.8-.6-1-.6h-.5c0 .2-.2.5-.5.8 0 .2-.2.4-.3.5-.2.3-.3 1-.3 2 0 .8.3 2.3.8 4.7l.6 2.6.3.8-.4-.7c0 .2 0 .7.3 1.4l.4 1.3-.6-.3c-.3-.2-.6-.3-1-.3h-1.3l-1.6.3h-.5c-.3 0-.5 0-.7.2h-.7v.2l-1.2-.5s-.2-.2-.5-.2h-.2c0-.3-.2-.4-.3-.4h-.3V12c-.2 0-.3-.2-.3-.3l-.6-.3-.3-.2h-.2l-.2-.2s-.3 0-.3-.2l-.4-.2s-.2.2-.3 0v.2h.2s0 .2.2.2h.2v.3H123v.2h.6c0 .2.2.2.2.3v.2h.6s0 .2.2.3c0 0 .2 0 .2.2h.4l.6.3c.7.2 1 .4 1.3.6H129.2v.4c0-.2.2-.3.3-.4h.7l1-.3h1.2v.3l.3.2v1.4h-.2l.2.4h-.4l.2.3v.3h-.2c0-.2-.2-.2-.3-.2l.2.4.2.2c-.2 0-.4.3-.6.6l-.2.8.2 1-.3.6c0 .3-.3.7-.4 1 0 0 0 .3-.3.8 0 .4-.2.7-.4 1l-.6.3s-.2 0-.4.4c0 .2-.3.4-.6.7l-.8.6-.6.3-.6.2h-.2v.2c.2 0 .2 0 .3-.2v.3h.4l.6-.3s.2 0 .3-.2h.2l.5-.5v.2c0-.2.2-.3.2-.3l.4-.4h.2s0-.2.2-.2l.3-.4h.2s0-.2.2-.3l.3-.4.6-1c0-.4.2-.8.4-1.2 0 0 0-.3.2-.5l1 1.2 1 1 .8.5c.3.2.7.2 1.2.2h.3c0-.2 0-.3.2-.3h.7c0-.2.2-.3.3-.4l.4-.3c.2 0 .4-.3.4-.3l.5-.6.5-.5.4-.8V19v-.3.4l.2.6v2.8h.2v.7s.2 0 .2.2V23v.3l.3.3v.4l.2.2v.3c0 .3.2.5.4.8l.5.5c.2 0 .3.2.3.2v.4H143l-.2-.2h.2V26.4h-.2-.2V26c-.2 0-.3-.2-.5-.4l-.4-.8-.2-.4v-.2l-.2-.2v-.4l-.4-.5c.2 0 .2.2.2.2V23h0v-.3l-.2-.5v-.5-.4l-.2-.2V21v-.5-.6l-.2-.5v-.4-.2-.3-.2c0-.3-.2-.4-.2-.5v-.3l.3.2H140.6l-.3-.3h.2l.2.2H140.7V17c.2 0 .4 0 .6-.2 0 0 .3 0 .5-.2v.2l.3.4v-.3-.3-.2h.5s.2 0 .2.2v-.2h-.3l.4-.3 1-.4.4-.3c.2 0 .3-.2.4-.4.5.2 1 .4 1.5 1l.6.2h.2l.5.6v.2c.2 0 .2.2.2.4V17.5 17l1.4 1h.2c0 .2.2.3.3.5l.3.3.3.2v-.3c-.2 0-.3-.2-.3-.3h.2l-.4-.2-.3-.3v-.2h1.4l1.3.3.3.2-.3-.2h1l.4.3-.3-.4h1.6c.2 0 .3 0 .4.2-.2 0-.2-.2-.3-.2h1v-.2-.2h.2s0-.2-.2-.2h-.2-.2v.2h-.4-.3c-.2 0 0 0 0 0H151h-1-.5c-.2 0-.3-.2-.3-.3h.2s-.3 0-.4-.2h-.4l-.3-.3h-.3v-.2l-.4-.2-.2-.2c-.3 0-.5 0-.5-.2h0l-.6-.3-.6-.4c-.7-.3-1-.5-1.3-.5h-.4l.3-.3s.2 0 .3-.3h-.3l-.3.5h-.4l-.4.3c-.3.2-.7.3-1 .2l-.3-.3.8-.7.7-.8.7-.8.3-.3.4-.2.4.3c.3.3.5.4.7.4l1-.5c.2-.2.5-.3 1-.4.2 0 .4-.2.5-.3l1.3-.7 1-.5h-.3-.2l-.4.2-.5.3-.5.3c-.3 0-.5.2-.7.3l-1.2.6-.7.3-.5-.3-.6-.2h-.8v-.2-.7-.4-.5l.2-.2c1-.7 2.3-2 4-4l1-1 1-1c0-.2 0-.3.2-.5l.4-.5.6-.3.5-.2 1 .4z" fill="#848280"/></g></svg>