<svg xmlns="http://www.w3.org/2000/svg" height="123.1" width="148.1"><path d="M-167 387.3c1.5-.3 2.6-.5 4.6-.7l.4-1c-3.5 0-13 0-17.6 1.3l-.3 2.4c8-1 11-1.7 13-2z"/><path d="M-160.5 387c2.2.6 6 2 8 5.3 0 .3.2.6.3.8-.7-2.8-3.5-5.2-8-7.2l-.3 1zM-149 348c-3.3 5.3-3.4 10.4-3.4 11 2.5 0 5 .3 7.2.8v-.4c0-2-.4-7.5 5.3-11.8 2.6-2 5-5.8 6-7.8-1.8-.8-3.8-1.5-6-2.2-1.8-.5-3.6-1-5.4-1.3 0 2-.3 7-3.5 11.8z" fill="none"/><path d="M-138.8 349.2c-5 3.7-4.6 8.4-4.5 10.2v1c2 .4 3.7 1 5.2 2 0-1 .3-2 .6-3 1-4.8 5.7-7.8 9.7-10.4 1.8-1 3.5-2.2 4.8-3.4-1-.8-4.4-3-9-5-1.3 2-4 6.4-6.8 8.6zM-154.5 381c1.3 1 3.3 2.4 5 4.3 1.7 1.6 3 3.3 3.7 5v-.8c-.8-3.4-3.4-6.6-8-9.5l-.7 1zM-168.6 350v3c-.3 3.4-.6 7.2 1.3 9.4l4.8-2c-.6-2.8-.7-8.8 1.2-12.6 2-3.8 1-9.7.5-11.5-4.7 1-9 2.7-13.2 5.5 1.6 1.3 5.3 4.7 5.4 8zM-150.4 347c3-4.7 3.2-9.6 3.2-11-4-.5-8-.5-11.7 0 .5 2 1.5 8.4-.6 12.7-1.7 3.5-1.4 9-1 11.4 2-.4 4.2-.7 6.4-.8 0-1 0-6.5 3.8-12.2zM-136 381.8l.7-.8-6-11.2-2-.5c2 3.8 5.2 10 7.3 12.5zM-156.2 380l.7-.8c-3.6-1.2-14.3-4.4-18.4-4-.3.2-.7 0-.8-.4l-1.2 1.4c4 1 16 3.2 19.8 4zM-144.8 382l.7-.6c-3.8-4.6-15-13-15.2-13l-.2-.2c-.4 0-.8 0-1.3.2 5 4.6 13.5 11.7 16 13.6zM-134.3 382.8c3 1.3 10.8 5 15.4 10.7-2.6-4.2-7.7-8-14.8-11l-.5.3zM-143 383c4.7 3 7.7 7 9.5 10-1.6-6-7.3-9.3-9-10.3l-.6.4z" fill="none"/><path d="M-144.6 366.3c1.4.3 4 .8 6 1.7v-2.7c-4-3-13.2-4.8-22-2.5-3.8 1-8.4 3-12 6.8 3-1.8 6.6-3 11.4-3.8 7-1 13.4 0 16.6.5zM-111.5 386c-.3 0-.5-.3-.6-.6l-7-1.2c1.2 1.5 4.3 4 12.3 6 10.8 2.6 18 5 20.7 6v-1.3c-2.8-1-17.5-5.8-25.5-9z" fill="none"/><path stroke-miterlimit="10" d="M2.2 94.8C-4 78.8 6.2 24 56.8 6.2c50.5-17.8 83.3 8.5 88.6 47 5.3 38.6 2.5 63-18.5 68.7-21 5.4-37-20.4-61.6-15.8-24.6 4.7-51 20-63.2-11.4" fill="#fff" stroke="#000"/><path d="M22 94.8c-13.6-13.6-18-38 6.5-61C53 10.8 72-.5 104 9.6c32 10.2 37 50.4 35.3 70-1.6 19.4-9.4 29-23.4 27-14-2-16-15.3-36.2-15.7-20.2-.5-40.3 21.6-58 3.8" fill="#e41517"/><path d="M57.2 51.6c-11.8-14.6 19-38 34.5-21.2 15.5 17-21.8 36.8-34.5 21.2" fill="#fff"/><path d="M64.5 46C58.7 38.5 74.8 27 82 35.4 89.7 44 73 56.6 64.6 46" fill="#fff"/></svg>