<svg xmlns="http://www.w3.org/2000/svg" height="99" width="113.6"><path d="M151.2 374.8c1.4-.3 2.5-.5 4.5-.7l.4-1c-3.4 0-13 0-17.5 1.4 0 1-.2 1.7-.3 2.5 8-1.2 11-1.8 13-2.2zM157.6 374.4c2.2.7 6 2.2 8 5.4 0 .3.2.6.3.8 0 0 0-.2-.2-.2-.6-2.7-3.4-5-8-7l-.2 1zM169.2 335.6c-3.4 5.2-3.5 10.3-3.5 11 2.5 0 5 .2 7.2.7v-.4c-.2-2-.5-7.6 5.2-12 2.5-1.8 5-5.7 6-7.7l-6-2.2c-2-.4-3.7-1-5.5-1.2 0 2-.3 7-3.5 11.8z" fill="none"/><path d="M179.3 336.7c-5 3.7-4.6 8.4-4.5 10.2v.8c2 .5 3.7 1.2 5.2 2l.7-3c1-4.7 5.7-7.7 9.7-10.3 1.8-1 3.5-2.2 4.8-3.4-1.2-.7-4.5-2.8-9.2-5-1.2 2.2-3.8 6.5-6.7 8.7zM163.6 368.6c1.3 1 3.3 2.3 5 4.2 1.7 1.6 3 3.3 3.7 5v-.8c-.8-3.4-3.4-6.6-8-9.5l-.7 1zM149.5 337.4v3c-.3 3.5-.6 7.3 1.3 9.5 1.7-1 3.3-1.5 4.8-2-.6-3-.7-9 1.2-12.7 2-3.8 1-9.7.5-11.5-4.7 1-9 2.7-13.2 5.5 1.7 1.3 5.4 4.7 5.5 8zM167.7 334.5c3-4.7 3.2-9.6 3.2-11-4.2-.5-8-.5-11.8 0 .4 2 1.4 8.4-.7 12.7-1.7 3.5-1.4 9-1 11.4 2-.5 4.2-.8 6.4-1-.2-.8 0-6.4 3.7-12zM182 369.3l.8-.8-6-11.2-2-.5c2 3.8 5.2 10 7.3 12.5zM162 367.6l.6-1c-3.6-1-14.3-4.3-18.4-3.8-.4 0-.8 0-1-.5l-1 1.4c4 1 16 3.2 19.7 4zM173.3 369.5l.7-.6c-3.7-4.7-15-13-15-13l-.3-.3c-.4 0-.8 0-1.3.2 5 4.5 13.5 11.6 16 13.5zM183.8 370.3c3 1.3 10.8 5 15.4 10.7-2.7-4.2-7.8-8-15-11l-.4.3zM175 370.6c4.8 3 7.8 6.8 9.6 9.8-1.6-5.8-7.3-9.2-9-10.2l-.6.4z" fill="none"/><path d="M173.5 353.8c1.4.3 4 .8 6 1.7v-2.7c-4-3-13.2-4.8-22-2.5-3.8 1-8.4 3-12 6.8 3-1.7 6.6-3 11.4-3.7 7-1 13.3 0 16.5.5zM206.6 373.5c-.3 0-.5-.3-.6-.6l-6.8-1.3c1 1.5 4.2 4 12.2 6 10.8 2.6 18 5 20.7 6 .2-.5.2-1 0-1.3-2.7-1-17.4-5.7-25.4-9z" fill="none"/><path d="M49 23.7C77 1.7 96.7 23 90.8 56c-5 29-11.7 43-43 43C16 99 0 73.3 0 44S17.7 5 49 23.7" fill="#906232"/><path d="M49.6 28.2S89 28.6 113.2 4c6.5-6.6-65.2-9-63.6 24.2z" fill="#a68873"/><path d="M46 23.8c-2 3-5 5.4-6.8 8.7C37.2 36 37 40 36.8 44v13c0 4.7 1 10.7-.7 15-.5 1.4 2.4 1.2 2.8.2 1.3-3.2 1-6.5 1-9.8v-15c0-4 0-8 1-11.8C42 31 46 28 48.8 24c1-1.2-2-1-2.7-.2z" fill="#f7b66f"/><path d="M27.7 20.8c-1 2-2.8 3-3.6 4.7-1 2.3-1.4 4.6-1.5 7-.3 5.2 1.3 10.3 2.7 15l5 18c.7 3 3.5 11.5 1 14-1 1 1.8 1 2.4.3 2.3-2.3 1.3-5.8.7-8.6-1-5.8-2.7-11.4-4.3-17-1.6-5.8-3.3-11.6-4.3-17.5-.6-3.6-.4-7 .7-10.5.7-2 3.2-3.8 4.2-5.8.4-.8-2.5-.5-3 .4zM66.8 32.6c1.4 6.5 2 13.4 2.5 20 .3 3.4.8 6.8 1 10.2.2 5.8 0 10-6.4 12-1.8.6-1.5 1.8.2 1.3 2-.6 5-1.2 6.6-3 2.4-2.5 2.4-6 2.4-9.4C73 53.3 71.8 42 69.7 32c-.2-1-3-.2-3 .6z" fill="#c3c2c2"/></svg>