<svg xmlns="http://www.w3.org/2000/svg" height="112" width="113.6"><path d="M160.3 877.3c1.4-.3 2.5-.5 4.5-.7l.4-1c-3.5 0-13 0-17.6 1.3l-.3 2.4c8-1 11-1.7 13-2zM166.7 877c2.2.6 6 2 8 5.3 0 .3.2.6.3.8-.7-2.8-3.5-5.2-8-7.2l-.3 1zM178.3 838c-3.4 5.3-3.5 10.4-3.5 11 2.5 0 5 .3 7.2.8v-.4c0-2-.4-7.5 5.3-11.8 2.5-2 5-5.8 6-7.8l-6-2.2c-2-.5-3.7-1-5.5-1.3 0 2-.3 7-3.5 11.8z" fill="none"/><path d="M188.4 839.2c-5 3.7-4.6 8.4-4.5 10.2v1c1.8.4 3.6 1 5 2l.8-3c1-4.8 5.7-7.8 9.7-10.4 1.8-1 3.5-2.2 4.8-3.4-1.2-.8-4.5-3-9.2-5-1 2-3.7 6.4-6.6 8.6zM172.7 871c1.3 1 3.3 2.4 5 4.3 1.7 1.6 3 3.3 3.7 5v-.8c-.8-3.4-3.4-6.6-8-9.5l-.7 1zM158.6 840v3c-.3 3.4-.6 7.2 1.3 9.4 1.6-.8 3.2-1.4 4.7-2-.6-2.8-.7-8.8 1.2-12.6 1.8-3.8.8-9.7.4-11.5-4.7 1-9 2.7-13.2 5.5 1.6 1.3 5.3 4.7 5.4 8zM176.8 837c3-4.7 3.2-9.6 3.2-11-4-.5-8-.5-11.7 0 .4 2 1.4 8.4-.7 12.7-1.7 3.5-1.4 9-1 11.4 2-.4 4.2-.7 6.4-.8 0-1 0-6.5 3.8-12.2zM191.2 871.8l.7-.8-6-11.2-2-.5c2 3.8 5 10 7.2 12.5zM171 870l.7-.8c-3.6-1.2-14.3-4.4-18.4-4-.4.2-.8 0-1-.4l-1 1.4c4 1 16 3.2 19.7 4zM182.4 872l.7-.6c-3.6-4.6-14.8-13-15-13l-.2-.2c-.4 0-.8 0-1.3.2 5 4.6 13.5 11.7 16 13.6zM193 872.8c3 1.3 10.7 5 15.3 10.7-2.7-4.2-7.8-8-15-11l-.4.3zM184 873c5 3 8 7 9.7 10-1.6-6-7.3-9.3-9-10.3l-.6.4z" fill="none"/><path d="M182.6 856.3c1.4.3 4 .8 6 1.7v-2.7c-4-3-13.2-4.8-22-2.5-3.8 1-8.4 3-12 6.8 3-1.8 6.6-3 11.4-3.8 7-1 13.4 0 16.6.5zM215.7 876c-.3 0-.5-.3-.6-.6l-6.7-1.2c1 1.5 4.2 4 12.2 6 10.8 2.6 18 5 20.7 6v-1.3c-2.8-1-17.5-5.8-25.5-9z" fill="none"/><path d="M58.2 36.8c27.8-22 55.4-7 55.4 22.3S88 112 56.8 112C25.4 112 0 88.3 0 59 0 30 26.8 18.3 58.2 37" fill="#c54418"/><path d="M113.5.8c-8.2 2-14 13.6-14.2 20.2C99 39 75.6 50 59 41.7c4-9 19.3-26.5 35-34.5-16.5 5.2-32.6 20.5-35.3 34.2C57 8.4 79.3-3.6 113.5.8" fill="#79be78"/></svg>