<?xml version="1.0" encoding="UTF-8" standalone="no"?>
<svg
   xmlns:dc="http://purl.org/dc/elements/1.1/"
   xmlns:cc="http://creativecommons.org/ns#"
   xmlns:rdf="http://www.w3.org/1999/02/22-rdf-syntax-ns#"
   xmlns:svg="http://www.w3.org/2000/svg"
   xmlns="http://www.w3.org/2000/svg"
   version="1.1"
   id="svg5289"
   viewBox="0 0 44.399999 124.1"
   height="35.023777mm"
   width="12.530666mm">
  <defs
     id="defs5291" />
  <metadata
     id="metadata5294">
    <rdf:RDF>
      <cc:Work
         rdf:about="">
        <dc:format>image/svg+xml</dc:format>
        <dc:type
           rdf:resource="http://purl.org/dc/dcmitype/StillImage" />
        <dc:title></dc:title>
      </cc:Work>
    </rdf:RDF>
  </metadata>
  <g
     transform="translate(-352.8,-470.3122)"
     id="layer1">
    <g
       id="g902"
       transform="translate(193.1,-133.9878)">
      <g
         id="g904">
        <path
           d="m 166.4,679.4 c 0,1.7 -1.4,3 -3,3 l 0,0 c -1.7,0 -3,-1.4 -3,-3 l 0,-4.8 c 0,-1.7 1.4,-3 3,-3 l 0,0 c 1.7,0 3,1.4 3,3 l 0,4.8 z"
           id="path906"
           style="fill:#ffeac7" />
        <path
           d="m 203.1,679.4 c 0,1.7 -1.4,3 -3,3 l 0,0 c -1.7,0 -3,-1.4 -3,-3 l 0,-4.8 c 0,-1.7 1.4,-3 3,-3 l 0,0 c 1.7,0 3,1.4 3,3 l 0,4.8 z"
           id="path908"
           style="fill:#ffeac7" />
        <path
           d="m 197.5,638.5 c -2.7,-1.8 -8.7,-3 -15.6,-3 -6.9,0 -12.9,1.2 -15.6,3 -4.5,2.6 -6.6,11.1 -6.6,19.6 l 0,16.4 8.1,0 0,-16.4 c 0,-5.6 1.8,-9 2.9,-10.8 l 0,30.2 22.3,0 0,-29.8 c 1.2,1.9 3,5.2 3,10.3 l 0,16.4 8.1,0 0,-16.4 c 0,-8.3 -2.1,-16.8 -6.6,-19.5 z"
           id="path910"
           style="clip-rule:evenodd;fill:#ffd634;fill-rule:evenodd" />
        <ellipse
           cx="182"
           cy="623.40002"
           rx="9.5"
           ry="9.8000002"
           id="ellipse912"
           style="clip-rule:evenodd;fill:#ffeac7;fill-rule:evenodd" />
        <path
           d="m 174.1,620.6 c 1,-1.1 2.2,-1.9 3.3,-2.9 0.8,-0.7 2,-0.8 2.8,0 1.7,1.8 4.7,3.5 7.1,2 0.9,-0.6 2.1,-0.2 2.7,0.7 0.3,0.4 0.9,0.8 1.5,1.1 -0.8,-4.5 -4.7,-8 -9.4,-8 -5.1,0 -9.3,4.2 -9.5,9.4 0.5,-0.6 0.9,-1.6 1.5,-2.3 z"
           id="path914"
           style="clip-rule:evenodd;fill:#7e6055;fill-rule:evenodd" />
        <ellipse
           cx="191.8"
           cy="623.70001"
           rx="1"
           ry="2.5999999"
           id="ellipse916"
           style="clip-rule:evenodd;fill:#ffeac7;fill-rule:evenodd" />
        <ellipse
           cx="172.5"
           cy="623.70001"
           rx="1"
           ry="2.5999999"
           id="ellipse918"
           style="clip-rule:evenodd;fill:#ffeac7;fill-rule:evenodd" />
        <g
           id="g920">
          <g
             id="g922">
            <path
               d="m 192.4,617.7 c 0,-0.1 0,-0.2 -0.1,-0.2 -0.2,-0.5 -0.6,-2.2 -0.6,-2.8 0,-4.6 -4.3,-8.4 -9.7,-8.4 -5.3,0 -9.7,3.8 -9.7,8.4 0,0.5 -0.5,2.1 -0.8,3 l 20.9,0 z"
               id="path924"
               style="clip-rule:evenodd;fill:#f6cd7d;fill-rule:evenodd" />
            <path
               d="m 182,609.3 c 1.4,0 2.5,-1.1 2.5,-2.5 0,-1.4 -1.1,-2.5 -2.5,-2.5 -1.4,0 -2.5,1.1 -2.5,2.5 0,1.4 1.1,2.5 2.5,2.5 z"
               id="path926"
               style="clip-rule:evenodd;fill:#f6cd7d;fill-rule:evenodd" />
            <g
               id="g928">
              <path
                 d="m 176.4,607.9 c 0.9,-0.6 1.9,-1 2.9,-1.3 0.1,0.2 0.1,0.4 0.1,0.6 l 0,6.7 c 0,0.8 -0.7,1.5 -1.5,1.5 l 0,0 c -0.8,0 -1.5,-0.7 -1.5,-1.5 l 0,-6 z"
                 id="path930"
                 style="clip-rule:evenodd;fill:#e2b459;fill-rule:evenodd" />
              <path
                 d="m 184.6,606.6 c 1,0.2 2,0.6 2.9,1.1 l 0,6.2 c 0,0.8 -0.7,1.5 -1.5,1.5 l 0,0 c -0.8,0 -1.5,-0.7 -1.5,-1.5 l 0,-6.7 c 0,-0.2 0,-0.4 0.1,-0.6 z"
                 id="path932"
                 style="clip-rule:evenodd;fill:#e2b459;fill-rule:evenodd" />
            </g>
          </g>
          <path
             d="m 191,617.9 c 0,0.4 -0.4,0.8 -0.8,0.8 l -16.7,0 c -0.4,0 -0.8,-0.4 -0.8,-0.8 l 0,0 c 0,-0.4 0.4,-0.8 0.8,-0.8 l 16.7,0 c 0.4,0 0.8,0.4 0.8,0.8 l 0,0 z"
             id="path934"
             style="clip-rule:evenodd;fill:#e2b459;fill-rule:evenodd" />
        </g>
        <path
           d="m 193.2,677.6 -0.2,-17.4 -22.4,0 0,18.9 c -5.3,13.2 -5.9,38.3 -5.7,46.6 l 10.1,-0.3 c -0.3,-12.2 2.1,-30.7 5.9,-40 l 3.3,0 c 3.6,9.4 5.7,27.9 5.3,40 l 10.1,0.3 c 0.2,-8.6 -0.5,-35.4 -6.4,-48.1 z"
           id="path936"
           style="fill:#f39140" />
        <path
           d="m 176.3,728.4 c 0.1,-0.3 0.2,-0.7 0.2,-1.1 0,-1.9 -1.6,-3.5 -3.5,-3.5 l -6,0 c -1.9,0 -3.5,1.6 -3.5,3.5 0,0.4 0.1,0.7 0.2,1.1 l 12.6,0 z"
           id="path938"
           style="fill:#524c40" />
        <path
           d="m 201.1,728.4 c 0.1,-0.3 0.2,-0.7 0.2,-1.1 0,-1.9 -1.6,-3.5 -3.5,-3.5 l -6,0 c -1.9,0 -3.5,1.6 -3.5,3.5 0,0.4 0.1,0.7 0.2,1.1 l 12.6,0 z"
           id="path940"
           style="fill:#524c40" />
        <rect
           x="173.7"
           y="646.59998"
           width="15.7"
           height="17.1"
           id="rect942"
           style="fill:#f39140" />
        <polygon
           points="177,647.3 175.4,635.9 172.5,636.2 174,647.9 "
           id="polygon944"
           style="fill:#f39140" />
        <polygon
           points="186.3,647.3 187.9,635.9 190.8,636.2 189.3,647.9 "
           id="polygon946"
           style="fill:#f39140" />
        <path
           d="m 177.7,635.7 c 0,0.1 0,0.3 0,0.3 0,1.7 1.8,3 4.1,3 2.2,0 4.1,-1.7 4.1,-3.3 0,0 -2,-0.2 -4,-0.2 -2.1,0 -4.1,0.2 -4.2,0.2 z"
           id="path948"
           style="fill:#ffeac7" />
        <path
           d="m 176.1,655.2 0,5.5 c 0,2.1 1.7,3.7 3.7,3.7 l 3.8,0 c 2.1,0 3.7,-1.7 3.7,-3.7 l 0,-5.5 -11.2,0 z"
           id="path950"
           style="fill:#ba7230" />
        <rect
           x="170.10001"
           y="674.90002"
           width="23.9"
           height="4.3000002"
           id="rect952"
           style="fill:#e0b28d" />
        <rect
           x="179.60001"
           y="674.29999"
           stroke-miterlimit="10"
           width="5.0999999"
           height="5.1999998"
           id="rect954"
           style="fill:none;stroke:#563b3f;stroke-width:0.80699998;stroke-miterlimit:10" />
        <rect
           x="183.39999"
           y="676.70001"
           stroke-miterlimit="10"
           width="1.8"
           height="0.5"
           id="rect956"
           style="fill:none;stroke:#563b3f;stroke-width:0.80699998;stroke-miterlimit:10" />
      </g>
      <g
         id="g958"
         style="opacity:0.5">
        <path
           d="m 203.1,679.4 c 0,1.7 -1.4,3 -3,3 l 0,0 c -1.7,0 -3,-1.4 -3,-3 l 0,-4.8 c 0,-1.7 1.4,-3 3,-3 l 0,0 c 1.7,0 3,1.4 3,3 l 0,4.8 z"
           id="path960"
           style="fill:#ffeac7" />
        <path
           d="m 197.5,638.5 c -2.6,-1.7 -8.4,-2.9 -15.2,-3 l 0,42 10.7,0 0,-29.8 c 1.2,1.9 3,5.2 3,10.3 l 0,16.4 8.1,0 0,-16.4 c 0,-8.3 -2.1,-16.8 -6.6,-19.5 z"
           id="path962"
           style="clip-rule:evenodd;fill:#ffd634;fill-rule:evenodd" />
        <path
           d="m 182.3,613.5 0,19.6 c 5.2,-0.1 9.3,-4.5 9.3,-9.8 0,-5.3 -4.1,-9.6 -9.3,-9.8 z"
           id="path964"
           style="clip-rule:evenodd;fill:#ffeac7;fill-rule:evenodd" />
        <path
           d="m 182.3,613.6 0,5.8 c 1.5,0.9 3.4,1.2 4.9,0.3 0.9,-0.6 2.1,-0.2 2.7,0.7 0.3,0.4 0.9,0.8 1.5,1.1 -0.8,-4.4 -4.6,-7.8 -9.1,-7.9 z"
           id="path966"
           style="clip-rule:evenodd;fill:#7e6055;fill-rule:evenodd" />
        <ellipse
           cx="191.8"
           cy="623.70001"
           rx="1"
           ry="2.5999999"
           id="ellipse968"
           style="clip-rule:evenodd;fill:#ffeac7;fill-rule:evenodd" />
        <g
           id="g970">
          <g
             id="g972">
            <path
               d="m 182.3,617.7 10.1,0 c 0,-0.1 0,-0.2 -0.1,-0.2 -0.2,-0.5 -0.6,-2.2 -0.6,-2.8 0,-4.6 -4.2,-8.3 -9.5,-8.4 l 0,11.4 z"
               id="path974"
               style="clip-rule:evenodd;fill:#f6cd7d;fill-rule:evenodd" />
            <path
               d="m 182.3,604.3 0,4.9 c 1.2,-0.2 2.2,-1.2 2.2,-2.5 0,-1.1 -1,-2.2 -2.2,-2.4 z"
               id="path976"
               style="clip-rule:evenodd;fill:#f6cd7d;fill-rule:evenodd" />
            <g
               id="g978">
              <path
                 d="m 184.6,606.6 c 1,0.2 2,0.6 2.9,1.1 l 0,6.2 c 0,0.8 -0.7,1.5 -1.5,1.5 l 0,0 c -0.8,0 -1.5,-0.7 -1.5,-1.5 l 0,-6.7 c 0,-0.2 0,-0.4 0.1,-0.6 z"
                 id="path980"
                 style="clip-rule:evenodd;fill:#e2b459;fill-rule:evenodd" />
            </g>
          </g>
          <path
             d="m 190.2,617.1 -7.9,0 0,1.6 7.9,0 c 0.4,0 0.8,-0.4 0.8,-0.8 0,-0.4 -0.4,-0.8 -0.8,-0.8 z"
             id="path982"
             style="clip-rule:evenodd;fill:#e2b459;fill-rule:evenodd" />
        </g>
        <path
           d="m 193.2,677.6 -0.2,-17.4 -10.7,0 0,25.3 1.8,0 c 3.6,9.4 5.7,27.9 5.3,40 l 10.1,0.3 c 0.3,-8.7 -0.4,-35.5 -6.3,-48.2 z"
           id="path984"
           style="fill:#f39140" />
        <path
           d="m 201.1,728.4 c 0.1,-0.3 0.2,-0.7 0.2,-1.1 0,-1.9 -1.6,-3.5 -3.5,-3.5 l -6,0 c -1.9,0 -3.5,1.6 -3.5,3.5 0,0.4 0.1,0.7 0.2,1.1 l 12.6,0 z"
           id="path986"
           style="fill:#524c40" />
        <rect
           x="182.3"
           y="646.59998"
           width="7.1999998"
           height="17.1"
           id="rect988"
           style="fill:#f39140" />
        <polygon
           points="186.3,647.3 187.9,635.9 190.8,636.2 189.3,647.9 "
           id="polygon990"
           style="fill:#f39140" />
        <path
           d="m 182.3,635.5 0,3.5 c 2,-0.2 3.6,-1.8 3.6,-3.3 0,0 -1.7,-0.1 -3.6,-0.2 z"
           id="path992"
           style="fill:#ffeac7" />
        <path
           d="m 182.3,655.2 0,9.2 1.3,0 c 2.1,0 3.7,-1.7 3.7,-3.7 l 0,-5.5 -5,0 z"
           id="path994"
           style="fill:#ba7230" />
        <rect
           x="182.3"
           y="674.90002"
           width="11.7"
           height="4.3000002"
           id="rect996"
           style="fill:#e0b28d" />
        <rect
           x="182.3"
           y="674.29999"
           stroke-miterlimit="10"
           width="2.5"
           height="5.1999998"
           id="rect998"
           style="fill:none;stroke:#563b3f;stroke-width:0.80699998;stroke-miterlimit:10" />
        <rect
           x="183.39999"
           y="676.70001"
           stroke-miterlimit="10"
           width="1.8"
           height="0.5"
           id="rect1000"
           style="fill:none;stroke:#563b3f;stroke-width:0.80699998;stroke-miterlimit:10" />
      </g>
    </g>
  </g>
</svg>
