<svg xmlns="http://www.w3.org/2000/svg" viewBox="0 0 155.8 149.1" height="149.1" width="155.8">	
<path
   d="m -166.94676,650.8 c 1.4,-0.3 2.5,-0.5 4.5,-0.7 l 0.4,-1.1 c -3.5,0 -13.1,0 -17.6,1.4 -0.1,0.9 -0.2,1.7 -0.3,2.5 8,-1.1 11,-1.7 13,-2.1 z"
   id="path8"
   style="fill:none" /><path
   d="m -160.54676,650.4 c 2.2,0.7 6,2.2 7.9,5.4 0.2,0.3 0.3,0.6 0.4,0.8 0,-0.1 0,-0.2 -0.1,-0.2 -0.6,-2.7 -3.4,-5.1 -7.9,-7.1 l -0.3,1.1 z"
   id="path10"
   style="fill:none" /><path
   d="m -148.94676,611.6 c -3.4,5.2 -3.5,10.3 -3.5,11 2.5,0 4.9,0.2 7.2,0.7 0,-0.1 0,-0.2 0,-0.4 -0.1,-1.9 -0.4,-7.5 5.3,-11.8 2.5,-1.9 4.9,-5.8 6,-7.8 -1.9,-0.8 -3.9,-1.5 -6.1,-2.2 -1.8,-0.5 -3.6,-1 -5.4,-1.3 0.1,2.1 -0.3,7 -3.5,11.8 z"
   id="path12"
   style="fill:none" /><path
   d="m -138.84676,612.7 c -4.9,3.7 -4.6,8.4 -4.5,10.2 0,0.4 0,0.7 0,0.9 1.9,0.5 3.7,1.2 5.2,2.1 0.2,-0.9 0.4,-2 0.7,-3.1 1.1,-4.7 5.7,-7.7 9.7,-10.3 1.8,-1.1 3.5,-2.2 4.8,-3.4 -1.2,-0.8 -4.5,-2.9 -9.2,-5 -1.2,2.1 -3.8,6.4 -6.7,8.6 z"
   id="path14"
   style="fill:none" /><path
   d="m -154.54676,644.6 c 1.3,0.9 3.3,2.3 5.1,4.2 1.6,1.6 2.8,3.3 3.6,4.9 0,-0.2 -0.1,-0.4 -0.1,-0.7 -0.7,-3.4 -3.3,-6.6 -7.8,-9.5 l -0.8,1.1 z"
   id="path16"
   style="fill:none" /><path
   d="m -168.64676,613.4 c 0,1 -0.1,2 -0.1,3.1 -0.2,3.4 -0.5,7.2 1.4,9.4 1.7,-0.8 3.3,-1.4 4.8,-1.9 -0.6,-2.9 -0.7,-8.9 1.2,-12.7 1.9,-3.8 0.9,-9.7 0.5,-11.5 -4.7,0.9 -9.1,2.7 -13.2,5.5 1.6,1.3 5.3,4.7 5.4,8.1 z"
   id="path18"
   style="fill:none" /><path
   d="m -150.44676,610.5 c 3.1,-4.7 3.2,-9.6 3.2,-10.9 -4.1,-0.6 -8,-0.6 -11.7,-0.1 0.4,2.1 1.4,8.4 -0.7,12.7 -1.7,3.5 -1.4,9 -1,11.4 2.1,-0.5 4.2,-0.8 6.4,-0.9 -0.1,-0.9 0,-6.5 3.8,-12.2 z"
   id="path20"
   style="fill:none" /><path
   d="m -136.04676,645.3 0.7,-0.8 -6,-11.2 c -0.6,-0.2 -1.2,-0.4 -1.9,-0.5 1.9,3.8 5.1,10.1 7.2,12.5 z"
   id="path22"
   style="fill:none" /><path
   d="m -156.24676,643.6 0.7,-0.9 c -3.6,-1.2 -14.3,-4.4 -18.4,-3.9 -0.4,0.1 -0.8,-0.1 -0.9,-0.5 -0.4,0.4 -0.8,0.9 -1.2,1.4 4,0.9 16.1,3.2 19.8,3.9 z"
   id="path24"
   style="fill:none" /><path
   d="m -144.84676,645.5 0.7,-0.6 c -3.7,-4.6 -14.9,-12.9 -15.1,-13 -0.1,-0.1 -0.1,-0.1 -0.2,-0.2 -0.4,0 -0.8,0.1 -1.3,0.2 4.9,4.6 13.5,11.7 15.9,13.6 z"
   id="path26"
   style="fill:none" /><path
   d="m -134.34676,646.3 c 3.1,1.3 10.8,5.1 15.4,10.7 -2.7,-4.2 -7.8,-8 -14.9,-11.1 l -0.5,0.4 z"
   id="path28"
   style="fill:none" /><path
   d="m -143.14676,646.6 c 4.8,2.9 7.8,6.8 9.6,9.8 -1.6,-5.8 -7.3,-9.2 -9.1,-10.2 l -0.5,0.4 z"
   id="path30"
   style="fill:none" /><path
   d="m -144.64676,629.8 c 1.4,0.3 3.9,0.8 6,1.7 -0.1,-0.8 -0.1,-1.7 0,-2.7 -4.1,-2.9 -13.2,-4.8 -22.1,-2.5 -3.7,0.9 -8.3,2.9 -11.9,6.8 2.9,-1.8 6.6,-3.1 11.4,-3.8 7.1,-1 13.4,-0.1 16.6,0.5 z"
   id="path32"
   style="fill:none" /><path
   d="m -111.54676,649.5 c -0.3,-0.1 -0.5,-0.3 -0.6,-0.6 -2.5,-0.4 -4.7,-0.8 -6.8,-1.2 1.1,1.5 4.2,3.9 12.2,5.9 10.8,2.7 18.1,5.1 20.7,6 0.1,-0.4 0.1,-0.9 0,-1.2 -2.8,-0.9 -17.5,-5.7 -25.5,-8.9 z"
   id="path34"
   style="fill:none" /><g
   transform="translate(-932.94676,-584.5)"
   id="g162">
		<path
   stroke-miterlimit="10"
   d="m 935.1,705.3 c -6.3,-16 4.1,-70.8 54.6,-88.6 50.5,-17.8 83.3,8.5 88.6,47 5.3,38.6 2.5,63.1 -18.5,68.7 -20.9,5.5 -36.9,-20.3 -61.5,-15.7 -24.6,4.7 -50.9,19.9 -63.2,-11.4"
   id="path164"
   style="fill:#807b60;stroke:#000000;stroke-miterlimit:10" />
		<path
   d="m 954.8,705.3 c -13.5,-13.6 -18,-38.1 6.6,-61 24.6,-22.9 43.5,-34.3 75.5,-24.2 32,10.2 36.9,50.4 35.3,69.9 -1.6,19.5 -9.4,29.2 -23.4,27.1 -13.9,-2.1 -16,-15.3 -36.1,-15.7 -20.2,-0.4 -40.3,21.7 -57.9,3.9"
   id="path166"
   style="fill:#5e4040" />
		<path
   d="m 990.1,662 c -11.8,-14.6 18.9,-38.1 34.5,-21.2 15.5,17 -21.8,36.9 -34.5,21.2"
   id="path168"
   style="fill:#545e6b" />
		<path
   d="m 997.4,656.5 c -5.8,-7.5 10.3,-19.1 17.6,-10.6 7.5,8.5 -9.3,21.2 -17.6,10.6"
   id="path170"
   style="fill:#e9ad75" />
	</g><g
   transform="translate(-932.94676,-584.5)"
   id="g180">
		<path
   d="m 1086.3,586.9 c -0.1,-0.2 -0.2,-0.2 -0.3,-0.2 -0.1,0 -0.2,0 -0.4,0.1 -0.3,0.1 -0.4,0.2 -0.5,0.3 -0.1,0 -0.3,0.1 -0.7,0.2 -0.4,0.1 -0.8,0.2 -1,0.2 -0.4,0.1 -0.9,0.4 -1.5,0.8 -0.4,0.3 -0.9,0.7 -1.5,1.3 -0.7,0.7 -1.4,1.5 -2.1,2.3 -0.4,0.5 -0.7,0.9 -0.9,1.2 -0.7,-0.9 -1.9,-1.3 -3.3,-1.3 -0.4,0 -0.8,0 -1,0.1 -0.1,0 -0.4,0.1 -0.8,0.2 -0.1,-0.3 -0.2,-0.5 -0.3,-0.6 -0.1,-0.2 -0.2,-0.4 -0.4,-0.6 -0.1,-0.1 -0.1,-0.2 -0.2,-0.3 0,0 -0.1,-0.1 -0.3,-0.2 -0.5,-0.3 -0.7,-0.5 -0.7,-0.6 0,-0.1 -0.2,-0.4 -0.4,-0.9 -0.2,-0.4 -0.4,-0.8 -0.6,-1.1 -0.1,-0.1 -0.2,-0.3 -0.3,-0.5 -0.1,-0.2 -0.2,-0.4 -0.2,-0.5 -0.2,-0.4 -0.5,-0.8 -1,-1.1 -0.3,-0.2 -0.5,-0.4 -0.8,-0.6 -0.4,-0.4 -0.8,-0.6 -1.1,-0.6 -0.2,0 -0.3,0 -0.4,0 -0.1,0.2 -0.2,0.5 -0.5,0.8 -0.1,0.2 -0.2,0.4 -0.3,0.5 -0.1,0.3 -0.2,1 -0.2,2 0,0.8 0.3,2.3 0.8,4.7 0.2,0.9 0.4,1.8 0.6,2.6 0.1,0.3 0.1,0.6 0.2,0.8 l 0,0 0,0 c -0.1,-0.2 -0.3,-0.4 -0.4,-0.7 0,0 0,0 0,0 0,0 0,0 0,-0.1 l 0,0 c 0,0.3 0.2,0.8 0.4,1.5 0.2,0.5 0.3,0.9 0.4,1.2 l 0,0 c 0,0 0,0 0,0.1 0,0 -0.1,0 -0.1,-0.1 -0.3,-0.2 -0.5,-0.3 -0.5,-0.3 -0.4,-0.2 -0.7,-0.3 -1.1,-0.3 0,0 0,0 0,0 -0.1,0 -0.2,0 -0.3,0 -0.3,0 -0.6,0.1 -1.1,0.1 -0.6,0.1 -1.1,0.2 -1.5,0.2 -0.1,0 -0.3,0 -0.6,0.1 -0.3,0 -0.5,0 -0.7,0.1 -0.4,0 -0.6,0.1 -0.7,0.1 0,0 0,0 0,0.1 l 0,0 c 0,0 0,0 0,0 0,0 -0.1,0 -0.1,0 0,0 0,0 0,0 -0.4,-0.2 -0.8,-0.3 -1.2,-0.5 -0.1,0 -0.2,-0.1 -0.5,-0.1 0,0 -0.1,0 -0.1,0 -0.1,0 -0.1,-0.1 -0.1,-0.1 -0.1,-0.2 -0.3,-0.3 -0.4,-0.3 0,0 -0.1,0 -0.1,0 l 0,0 c 0,0 0,0 0,0 0,0 0,0 0,0 0,0 0,0 0,0 l 0,0 c -0.1,0 -0.1,0 -0.2,-0.1 0,0 -0.1,-0.1 -0.1,-0.1 -0.1,-0.1 -0.2,-0.2 -0.2,-0.3 0,0 -0.1,0.1 -0.1,0.1 -0.2,-0.2 -0.4,-0.3 -0.6,-0.3 0,0 -0.1,-0.1 -0.3,-0.2 -0.1,-0.1 -0.2,-0.1 -0.3,0 0,-0.1 0,-0.1 -0.2,-0.2 -0.1,0 -0.3,-0.1 -0.3,-0.2 0,0 -0.2,-0.1 -0.4,-0.3 0,0.1 -0.1,0.2 -0.2,0.1 l 0,0.1 c 0,0 0.1,0 0.2,0.1 0.1,0 0.2,0.1 0.3,0.1 0,0 0.1,0.1 0.2,0.1 0.1,0.1 0.1,0.1 0.1,0.2 0.1,0 0.2,0 0.3,0 0.1,0 0.2,0.1 0.2,0.1 0,0 0,0.1 0,0.1 0,0 0,0 0.1,0 0,0 0.1,0 0.2,0 0.1,0 0.2,0 0.3,0.1 0.1,0.1 0.2,0.1 0.2,0.2 0,0 -0.1,0 -0.1,0.1 l 0,0.1 c 0.3,-0.1 0.5,-0.1 0.7,0.1 0,0 0.1,0.1 0.2,0.2 0,0 0,0 0,0 0.1,0.1 0.2,0.1 0.2,0.2 l -0.1,0 0,0 0,0 0,0 c 0.1,0 0.3,0 0.5,0.1 0.2,0.1 0.4,0.1 0.6,0.2 l 0,0 c 0,0 0.1,0 0.1,0 0.6,0.2 0.9,0.4 1.2,0.6 0,0 0.1,0.1 0.1,0.1 0.2,-0.1 0.4,-0.1 0.7,0 0.2,0 0.6,0 1.3,-0.2 l 0.1,0 c 0,0 0,0 0,0 l 0,0 c 0,0.1 -0.1,0.3 -0.2,0.5 l 0,0 c 0,0 0,0 0,0 0.1,-0.2 0.3,-0.3 0.4,-0.4 0.1,-0.1 0.2,-0.1 0.4,-0.1 0.1,0 0.2,0 0.4,0 0.1,0 0.4,-0.1 0.9,-0.2 0.3,-0.1 0.5,-0.1 0.7,-0.1 0.1,0 0.2,0 0.2,0 0.3,0 0.5,0.1 0.5,0.2 0,0 0.1,0.1 0.1,0.2 0,0.1 0.1,0.2 0.2,0.2 0,0 0.1,0.1 0.1,0.3 0,0 0,0.1 0,0.1 0,0.1 0,0.1 0,0.2 0,0.1 0,0.2 0,0.2 0,0 0,0 0,0.1 0,0.1 0.1,0.2 0.1,0.2 0,0 0,0 0,0 l 0,0 c 0,0 0,0 0,0 l -0.2,0.2 c 0,0 0.1,0.1 0.1,0.1 l 0,0 -0.1,0 -0.1,-0.1 0,0.1 c 0,0 0,0.1 0.1,0.1 0.1,0.1 0.1,0.2 0.1,0.3 0,0.1 0,0.1 -0.1,0.1 -0.1,-0.1 -0.2,-0.1 -0.3,-0.2 0,0 0,0 0,0 l -0.1,0.1 c 0.1,0 0.1,0.1 0.3,0.3 0.1,0.1 0.1,0.1 0.1,0.2 0,0.1 0,0.1 0,0.2 -0.1,0 -0.1,-0.1 -0.3,-0.1 0,0 0,0 0,0 -0.1,-0.1 -0.2,-0.1 -0.3,-0.1 0,0 0.1,0.1 0.2,0.3 0.1,0.1 0.2,0.2 0.2,0.2 l 0,0 c -0.2,0.1 -0.4,0.3 -0.6,0.6 -0.2,0.3 -0.3,0.6 -0.3,0.8 0,0.2 0.1,0.5 0.2,0.9 -0.1,0.1 -0.2,0.4 -0.3,0.7 -0.1,0.3 -0.3,0.7 -0.4,0.9 0,0.1 -0.1,0.4 -0.3,0.9 -0.1,0.4 -0.2,0.7 -0.4,0.9 l -0.6,0.4 c 0,0 -0.2,0.1 -0.4,0.4 -0.1,0.1 -0.3,0.3 -0.6,0.6 -0.2,0.2 -0.5,0.4 -0.8,0.6 -0.2,0.1 -0.4,0.2 -0.6,0.3 -0.1,0 -0.3,0.1 -0.6,0.2 -0.1,0.1 -0.2,0.1 -0.2,0.1 0,0 0,0 0,0.1 0,0 0.1,0 0.1,0 0.1,0 0.1,-0.1 0.2,-0.2 l 0,0.3 c 0,0 0,0 0.1,0 0.1,0 0.1,-0.1 0.2,-0.2 0.1,0 0.3,-0.1 0.6,-0.2 0.1,-0.1 0.2,-0.1 0.3,-0.2 0.1,0 0.1,-0.1 0.1,-0.1 0.1,0 0.1,0 0.1,0.1 l 0.5,-0.5 c 0,0.1 0,0.1 0,0.2 0.1,0 0.1,0 0.1,-0.1 0,-0.1 0.1,-0.2 0.1,-0.2 0.2,-0.2 0.3,-0.2 0.4,-0.3 0.1,0 0.2,-0.1 0.2,-0.1 0.1,0 0.1,-0.1 0.2,-0.1 0.2,-0.2 0.3,-0.4 0.3,-0.4 0.1,0 0.1,0 0.2,0.1 l 0,0 c 0,-0.1 0.1,-0.3 0.2,-0.4 0,-0.1 0.2,-0.2 0.3,-0.4 0.3,-0.4 0.5,-0.7 0.6,-1.1 0.1,-0.3 0.2,-0.7 0.4,-1.1 0.1,-0.2 0.1,-0.4 0.2,-0.6 0,0 0,0 0,0 l 0,0 c 0,0 0,0 0,0 0,0 0,0 0,0 0,0 0,0 0,0 0,0 0,0 0.1,0.1 0.3,0.3 0.6,0.7 1,1.1 0.4,0.5 0.7,0.8 0.8,0.9 0.3,0.3 0.6,0.5 0.9,0.6 0.3,0.2 0.7,0.2 1.2,0.2 0.1,0 0.3,0 0.3,-0.1 0.1,-0.1 0.1,-0.2 0.2,-0.2 0.2,0 0.3,0 0.3,0 0.1,0 0.3,-0.1 0.4,-0.2 0.1,-0.1 0.2,-0.2 0.3,-0.3 0.1,-0.1 0.3,-0.2 0.4,-0.3 0.1,-0.1 0.3,-0.3 0.3,-0.3 0.1,-0.1 0.3,-0.3 0.5,-0.6 0.3,-0.3 0.5,-0.4 0.6,-0.5 0.2,-0.2 0.4,-0.5 0.4,-0.7 0,-0.1 0,-0.2 0.1,-0.3 0,0 0.1,-0.1 0.1,-0.2 0,0 0,0 0,-0.1 l 0,0 c 0,0 0,0.1 0,0.1 0,0.1 0,0.1 0,0.2 0,0.1 0,0.2 0,0.3 0,0.1 0,0.3 0.1,0.6 0,0.1 0,0.2 -0.1,0.3 0.1,0 0.1,0 0.1,0.1 0,0.1 0,0.2 0,0.3 0,0 0,0.1 0,0.1 0,0 0,0.1 0,0.1 0,0.1 0,0.2 0,0.3 0,0 0,0.1 0,0.2 0,0.1 0.1,0.3 0.1,0.3 0,0.1 0,0.3 0,0.6 l 0,0.3 c 0,0 0,0 0.1,0.1 0,0 0,0.1 0,0.1 0,0.1 0,0.2 0,0.3 0,0.1 0,0.1 0.1,0.2 0,0 0,0.1 0,0.1 0,0 0,0 0,0.1 0,0 0.1,0 0.1,0.1 l 0,0 c 0,0 0,0 0,-0.1 0,0 0,-0.1 0,-0.1 0,0 0,0 0,0 0,0.1 0.1,0.2 0.1,0.3 0,0 0.1,0.2 0.2,0.3 0.1,0.1 0.1,0.3 0.2,0.4 0,0.1 0,0.1 0.1,0.2 0,0.1 0,0.2 0.1,0.3 0,0.3 0.1,0.5 0.3,0.8 0.1,0.1 0.2,0.3 0.5,0.5 0.1,0.1 0.2,0.2 0.2,0.2 0.1,0.1 0.1,0.1 0.1,0.2 0,0 0,0.1 0,0.1 0,0 0,0.1 0,0.1 0,0 0.1,0.1 0.1,0.1 0,0 0.1,0 0.2,-0.1 0,0 0.1,0 0.2,0 0,0 0.1,0 0.1,0 0,0 0,-0.1 -0.1,-0.1 0,0 -0.1,-0.1 -0.1,-0.1 0,0 0.1,0 0.1,0 0,0 0.1,0 0.1,0.1 0,0.1 0.1,0.1 0,0.1 0,0 0.1,0 0.1,-0.1 0,-0.1 -0.1,-0.2 -0.2,-0.2 0,0 0,0 -0.1,0 -0.1,0 -0.2,0 -0.2,-0.1 0,0 0,0 0,0 0,0 -0.1,-0.1 -0.1,-0.2 0,0 0,0 0,0 -0.1,-0.1 -0.2,-0.2 -0.4,-0.4 -0.3,-0.3 -0.4,-0.5 -0.5,-0.8 0,-0.1 -0.1,-0.2 -0.2,-0.4 0,-0.1 -0.1,-0.2 -0.1,-0.2 0,-0.1 0,-0.1 -0.1,-0.2 0,-0.1 -0.1,-0.3 -0.1,-0.4 -0.1,-0.2 -0.2,-0.3 -0.3,-0.5 0,0 0.1,0 0.1,0 l 0,0 0,0 c 0,0 0,0 0,0 0,0 0,0 0,0 0.1,0 0.1,0.1 0.1,0.1 l 0,-0.1 c 0,0 0,0 -0.1,-0.1 l 0.1,0 c 0,0 0,0 0.1,0 0,0 0.1,0 0.1,0 l 0,0 c 0,0 -0.1,-0.1 -0.2,-0.1 -0.1,-0.1 -0.1,-0.1 -0.1,-0.2 -0.1,-0.3 -0.1,-0.4 -0.1,-0.5 0,-0.2 0,-0.3 0,-0.5 0,-0.2 -0.1,-0.3 -0.1,-0.4 0,0 0.1,0 0.1,0 l 0,-0.1 c -0.1,0 -0.1,0 -0.2,-0.1 0,-0.1 0,-0.2 0,-0.3 0,-0.2 0,-0.4 0,-0.5 0,-0.2 0,-0.4 -0.1,-0.6 0,-0.2 -0.1,-0.4 -0.1,-0.5 -0.1,-0.2 -0.1,-0.3 -0.1,-0.4 0,-0.1 0,-0.2 0,-0.2 l 0,-0.1 0,0 0,0 0,0 c 0,-0.1 0,-0.2 0,-0.2 l 0.1,0 0,0 c -0.1,-0.1 -0.1,-0.2 -0.1,-0.2 l 0.1,0 c 0,0 0,0 0.1,0 l 0,-0.1 c 0,0 0,0 -0.1,0 l 0.1,0 0,-0.1 c -0.2,-0.2 -0.3,-0.3 -0.3,-0.4 0,-0.1 0,-0.2 0,-0.3 l 0,0 c 0,0 0.1,0 0.1,0.1 l 0,0 c 0,0 0,0 0,0 0.1,0.1 0.1,0.1 0.2,0.1 0.2,0 0.3,0.1 0.4,0.1 l 0,-0.1 c 0,0 -0.1,-0.1 -0.2,-0.1 -0.2,-0.1 -0.3,-0.1 -0.3,-0.2 0,0 0,0 0.1,0 0,0 0.1,0 0.1,0 0,0 0.1,0 0.2,0.1 0.1,0.1 0.2,0.1 0.2,0.1 0,0 -0.1,-0.1 -0.3,-0.2 l 0,-0.1 c 0.2,0 0.4,-0.1 0.6,-0.2 0.1,0 0.3,-0.1 0.5,-0.2 0,0 0,0 0,0.1 0,0 0,0 0,0 0,0 0,0.1 0,0.1 0,0 0,0.1 0.1,0.1 0.1,0.2 0.2,0.3 0.2,0.3 l 0,-0.1 c 0,0 0,-0.1 -0.1,-0.2 -0.1,-0.1 -0.1,-0.2 -0.1,-0.2 0,0 0,0 0,-0.1 0,0 0,0 0,0 0,0 0.1,-0.1 0.2,-0.1 0.1,-0.1 0.2,-0.1 0.2,-0.1 0,0 0.1,0 0.1,0 0,0 0.1,0 0.1,0.1 0.1,0.1 0.2,0.1 0.2,0.2 l 0,0 c 0,0 0,0 0,0 0,-0.1 -0.1,-0.1 -0.1,-0.2 -0.1,-0.1 -0.2,-0.1 -0.2,-0.1 0.1,0 0.2,-0.1 0.4,-0.2 0.2,-0.1 0.5,-0.2 0.9,-0.4 0.1,0 0.2,-0.1 0.5,-0.3 0.2,-0.1 0.3,-0.2 0.4,-0.4 l 0.1,0 c 0.4,0.1 0.9,0.3 1.4,0.8 0,0 0.2,0.1 0.5,0.3 0.1,0 0.1,0.1 0.2,0.1 0,0 0,0 0,0 0.3,0.2 0.4,0.3 0.5,0.5 0,0 0,0 0,0 0,0 0,0 0.1,0.1 0,0 0,0 0,0.1 0.1,0.1 0.1,0.2 0.1,0.4 l 0,0 c 0,0 0,0 0,0.1 0,0.2 0.1,0.4 0.1,0.8 l 0,0 c 0,-0.2 0,-0.4 -0.1,-0.7 0,-0.1 0,-0.2 0,-0.2 0,-0.2 -0.1,-0.3 -0.1,-0.4 0.7,0.4 1.1,0.7 1.5,0.9 0.1,0.1 0.2,0.1 0.3,0.2 0.1,0.1 0.2,0.2 0.3,0.4 0.1,0.1 0.2,0.2 0.3,0.3 0,0 0,0 0,0 0.1,0.1 0.2,0.2 0.3,0.2 l 0,0 c -0.1,-0.1 -0.2,-0.2 -0.2,-0.3 -0.1,-0.1 -0.2,-0.2 -0.2,-0.3 0,0 0.1,0 0.1,0.1 0,0 0.1,0 0.1,0 l 0.1,0 c -0.1,-0.1 -0.2,-0.1 -0.4,-0.3 -0.1,-0.1 -0.3,-0.2 -0.3,-0.3 0,0 -0.1,0 -0.1,-0.1 0,0 0,0 0.1,0 0,0 0.1,0 0.2,0 0.1,0 0.1,0 0.2,0 0.3,0 0.6,0.1 1.1,0.1 0.5,0.1 0.9,0.1 1.2,0.2 0.1,0 0.3,0.1 0.3,0.1 l 0,0 c -0.1,-0.1 -0.2,-0.2 -0.3,-0.2 0,0 0,0 0,0 0,0 0,0 0,0 l 0,0 c 0.2,0 0.4,0 0.9,0 0,0 0.1,0 0.1,0 0,0 0.1,0 0.1,0.1 0.1,0.1 0.2,0.1 0.3,0.2 -0.2,-0.2 -0.3,-0.3 -0.3,-0.4 l 0,0 0.2,0 c 0.1,0 0.3,0 0.5,0 0.2,0 0.3,0.1 0.5,0.2 l 0,0 c 0,0 0,0 0,0 0,-0.1 -0.1,-0.2 -0.2,-0.2 0,0 0,0 0,0 l 0,0 c 0,0 0,0 0,0 0.1,0 0.2,0 0.4,0.1 0.2,0.1 0.3,0.1 0.4,0.2 -0.1,-0.1 -0.1,-0.2 -0.2,-0.2 0,0 0,0 0,0 l 0,0 c 0,0 0.1,0 0.3,0 0.2,0 0.3,0 0.3,0 0.1,0 0.2,0 0.2,0 0,0 0.1,0.1 0.2,0.1 0.1,-0.1 0.1,-0.2 0.1,-0.2 0,0 0,-0.1 -0.1,-0.1 -0.1,0 -0.1,0 -0.1,-0.1 0,0 0,0 0,-0.1 0,-0.1 0.1,-0.1 0.1,-0.1 0,0 0.1,0 0.1,0 0,0 0,0 0.1,0.1 l 0,0 0,0 c 0,-0.1 0,-0.2 -0.1,-0.2 0,0 -0.1,0 -0.2,0 -0.1,0 -0.1,0 -0.2,0.1 0,0 0,0 0,0.1 l -0.4,0 c -0.1,0 -0.2,0 -0.3,0 0,0 0,0 -0.1,0 -0.1,0 0,0 0,0 -0.1,0 -0.2,0 -0.2,0 l 0,0 c -0.7,0.1 -1.2,0.1 -1.2,0.1 -0.6,0 -1,-0.1 -1.4,-0.1 -0.2,0 -0.4,0 -0.6,0 0,0 -0.3,0 -1,-0.1 -0.1,0 -0.3,0 -0.5,0 l 0,0 c -0.2,0 -0.3,-0.1 -0.3,-0.2 0.1,-0.1 0.1,-0.1 0.2,-0.1 -0.1,0 -0.3,0 -0.4,-0.1 -0.2,-0.1 -0.3,-0.2 -0.4,-0.2 -0.2,-0.1 -0.3,-0.2 -0.3,-0.2 -0.1,-0.1 -0.2,-0.1 -0.3,-0.1 0,0 0.1,-0.1 0.1,-0.1 -0.1,0 -0.3,-0.1 -0.5,-0.2 0,0 0.1,0 0.1,-0.1 l 0,0 c -0.1,0 -0.2,0 -0.3,-0.1 -0.3,-0.2 -0.5,-0.2 -0.5,-0.3 0,0 0,0 0,0 0,0 0.1,0 0.1,0 0,0 0,0 0,0 l 0,0 c -0.1,-0.1 -0.2,-0.1 -0.2,-0.1 0,0 0.1,0 0.1,0 0,0 -0.1,0 -0.1,0 -0.2,0 -0.4,-0.1 -0.6,-0.2 -0.2,-0.2 -0.4,-0.3 -0.6,-0.4 -0.7,-0.4 -1.1,-0.6 -1.3,-0.6 -0.1,0 -0.3,0 -0.4,0 0,-0.1 0.1,-0.2 0.2,-0.3 0.1,-0.1 0.2,-0.1 0.3,-0.3 -0.1,0.1 -0.2,0.1 -0.3,0.2 -0.2,0.1 -0.3,0.3 -0.3,0.4 -0.1,0 -0.3,0 -0.4,0.1 -0.1,0 -0.2,0.1 -0.4,0.2 -0.3,0.2 -0.7,0.3 -0.9,0.2 -0.2,-0.1 -0.3,-0.2 -0.4,-0.3 0,0 0.1,-0.1 0.1,-0.1 0.4,-0.2 0.7,-0.4 0.8,-0.6 0.3,-0.4 0.5,-0.6 0.7,-0.8 0,0 0.3,-0.3 0.7,-0.8 0.1,-0.1 0.2,-0.3 0.3,-0.3 0.2,-0.2 0.3,-0.3 0.4,-0.3 0,0 0.2,0.1 0.5,0.3 0.3,0.2 0.5,0.3 0.7,0.3 0,0 0.4,-0.2 1,-0.5 0.1,-0.1 0.4,-0.2 0.8,-0.3 0.3,-0.1 0.5,-0.2 0.6,-0.3 0.2,-0.2 0.6,-0.4 1.3,-0.7 0.6,-0.3 0.9,-0.4 0.9,-0.5 0,0 -0.1,-0.1 -0.2,-0.1 -0.1,-0.1 -0.2,-0.1 -0.2,-0.1 0,0 -0.2,0.1 -0.4,0.3 -0.2,0.2 -0.4,0.3 -0.4,0.3 -0.1,0.1 -0.3,0.2 -0.5,0.3 -0.3,0.1 -0.5,0.2 -0.7,0.3 -0.5,0.2 -0.9,0.4 -1.2,0.5 -0.4,0.2 -0.7,0.3 -0.8,0.3 0,0 -0.2,-0.1 -0.5,-0.2 -0.2,-0.1 -0.4,-0.2 -0.6,-0.2 -0.1,0 -0.3,0 -0.4,0 -0.2,0 -0.3,0 -0.4,0 0,-0.1 0,-0.2 0,-0.2 0,-0.3 0.1,-0.5 0.1,-0.7 0,-0.2 0,-0.3 -0.1,-0.4 0,-0.1 -0.1,-0.3 -0.1,-0.5 0.1,-0.1 0.2,-0.1 0.3,-0.2 1,-0.7 2.3,-2.1 4.1,-4 0.2,-0.2 0.6,-0.6 1,-1 0.4,-0.4 0.6,-0.7 0.8,-1 0.1,-0.2 0.2,-0.3 0.3,-0.5 0.2,-0.2 0.3,-0.4 0.4,-0.5 0.1,-0.1 0.3,-0.2 0.6,-0.3 0.2,-0.1 0.4,-0.2 0.5,-0.2 l 0,0 c 1.1,0.5 1.1,0.4 1.1,0.4 z"
   id="path182"
   style="fill:#848280" />
	</g>
</svg>