<svg xmlns="http://www.w3.org/2000/svg" viewBox="0 0 897.91204 274.37201" height="274.4" width="897.9"><switch transform="translate(-624.717 -52.49)"><g><path fill="none" d="M420.3 211H535v639.2H420.2z"/><path fill="none" d="M412.3 138.2h286v106.4h-286zM412.3 443h286v106.5h-286z"/><path d="M1259 167.6l4.6 7.4c1 1.5 2.5 2.6 4.2 3l8.5 2.2c1 .3 1.6 1.8.8 2.7l-5.4 6.6c-1.2 1.4-1.8 3.2-1.7 5l.5 8.7c0 1.2-1 2-2.3 1.6l-8-3.3c-1.8-.7-3.6-.7-5.3 0l-8.2 3.2c-1.2.4-2.4-.5-2.3-1.7l.6-8.7c.2-1.8-.4-3.6-1.5-5l-5.6-6.7c-1-1-.4-2.5.7-2.8l8.5-2c1.8-.6 3.3-1.7 4.3-3.2l4.6-7.4c.8-1 2.2-1 3 0z" fill="#8bbf43"/><g fill="#00905e"><circle r="1.4" cy="172.2" cx="1257.5"/><circle r="2.3" cy="178.2" cx="1257.5"/></g><g fill="#00905e"><circle r="1.4" cy="183.2" cx="1243.7"/><circle r="2.3" cy="184.8" cx="1249.5"/></g><g fill="#00905e"><circle r="1.4" cy="199.1" cx="1249"/><circle r="2.3" cy="193.9" cx="1252"/></g><g fill="#00905e"><circle r="1.4" cy="199.1" cx="1266"/><circle r="2.3" cy="193.9" cx="1263"/></g><g fill="#00905e"><circle r="1.4" cy="183.2" cx="1271.4"/><circle r="2.3" cy="184.8" cx="1265.5"/></g><circle r="3.2" cy="187.1" cx="1257.5" fill="#00905e"/><path d="M1276.3 180.2l-8.5-2c-1.7-.6-3.3-1.7-4.2-3.2l-4.7-7.4c-.4-.5-1-.7-1.5-.7v4c.8 0 1.4.5 1.4 1.2 0 .8-.7 1.4-1.5 1.4v2.4c1.3 0 2.3 1 2.3 2.2 0 1.3-1 2.3-2.3 2.3v3.4c1.8 0 3.2 1.3 3.2 3 0 2-1.4 3.3-3.2 3.3v11c1 0 1.8 0 2.6.4l8.2 3.2c1.2.4 2.4-.5 2.3-1.7l-.6-8.7c-.2-1.8.4-3.6 1.6-5l5.5-6.7c1-1 .4-2.5-.7-2.8zM1264 196c-1 .5-2.3 0-3-1-.6-1-.2-2.5 1-3 1-.7 2.4-.3 3 .7.6 1 .2 2.5-1 3.2zm2.7 4.3c-.7.4-1.5 0-2-.5-.2-.7 0-1.5.6-2 .7-.3 1.5 0 2 .6.3.7 0 1.5-.6 2zm-.6-13.3c-1 .3-2.3-.4-2.7-1.6-.3-1.2.4-2.5 1.7-2.8 1.2-.3 2.4.4 2.7 1.6.4 1.2-.3 2.5-1.6 2.8zm5.7-2.4c-.7.2-1.5-.3-1.7-1-.2-.7.3-1.5 1-1.7.7-.3 1.5.2 1.7 1 .2.6-.3 1.4-1 1.6z" fill="#76a836"/><path d="M1259 172.2c0-.7-.7-1.3-1.5-1.3v2.6c.8 0 1.4-.6 1.4-1.4zM1259.8 178.2c0-1.2-1-2.2-2.3-2.2v4.5c1.3 0 2.3-1 2.3-2.3z" fill="#00764d"/><circle r="1.4" cy="199.1" cx="1266" fill="#00764d"/><circle r="2.3" cy="193.9" cx="1263" fill="#00764d"/><circle r="1.4" cy="183.2" cx="1271.4" fill="#00764d"/><circle r="2.3" cy="184.8" cx="1265.5" fill="#00764d"/><path d="M1260.7 187c0-1.7-1.4-3-3.2-3v6.3c1.8 0 3.2-1.4 3.2-3.2z" fill="#00764d"/><path d="M1459 306l-12.6 7c-1.6 1-1.6 3.4 0 4.4l12.6 7.3c1.7 1 3.7-.3 3.7-2V308c0-2-2-3-3.7-2z" fill="#c2c1c1"/><path d="M1403 319.7h25.5l3.3 7.2c.7 1.5-.4 3.3-2.2 3.3h-20.3c-1 0-1.8-.5-2.2-1.4l-4-9.3z" fill="#fff"/><path d="M1398.8 315.3c0-3.4-1.6-6.5-4-8.8 27-9 49.3 2 56.7 6.8 1.7 1 1.7 3 0 4-7.4 4.8-28.8 14.4-56.7 6.7 2.4-2.3 4-5.3 4-8.7z" fill="#00905e"/><path d="M1384.6 315.3c0-4.6 6-7.3 9-8.4l1-.5c2.6 2.3 4.2 5.4 4.2 8.8 0 3.4-1.6 6.4-4 8.7-.5 0-1-.2-1.3-.4-3-.8-9-3.7-9-8.3z" fill="#f8ae3c"/><circle r="1.8" cy="311.7" cx="1392.2" fill="#676767"/><g><path d="M1452.8 315.3h10v7.3c0 1.8-2 3-3.8 2l-10-5.8 2.5-1.5c1-.6 1.3-1.3 1.3-2z" fill="#e3e3e2"/><path d="M1398.8 315.3h54c0 .7-.4 1.4-1.3 2l-2.6 1.5c-4 2.2-10.2 4.8-18 6.5-7 1.5-15.6 2.2-25 1-3.7-.5-7.4-1.3-11.2-2.3 2.4-2.3 4-5.3 4-8.7z" fill="#00764d"/><path d="M1398.8 315.3c0 3.4-1.6 6.4-4 8.7-.5 0-1-.2-1.3-.4-3-.8-9-3.7-9-8.3h14.3z" fill="#f39021"/></g><g><path d="M1520.7 139.2l-50.8 35.5c-19 13-43.7 13.6-63 1.2l-48.3-35v69.2" fill="none" stroke="#4e4e4e" stroke-width="2.6" stroke-linecap="round" stroke-linejoin="round"/><path fill="#4e4e4e" d="M1358.7 217l-4.2-10 4.2 1.8 4.3-1.8"/><path d="M1519.8 142l-217.8 2v-9.5l217.8 2c1.6 0 2.8 1 2.8 2.7 0 1.6-1.2 3-2.8 3z" fill="#00905e"/><path d="M1353.7 145.7h-53.5c-1 0-2-1-2-2v-9c0-1 1-2 2-2h53.5c1.7 0 3 1.3 3 3v7c0 1.6-1.3 3-3 3z" fill="#8bbf43"/><g><path d="M1356.7 140c0 1.3-.5 2.5-1.2 3.5l164.3-1.4c1.6 0 2.8-1.2 2.8-2.8h-166v.8z" fill="#00764d"/><path d="M1356.7 139.2h-58.5v2.7c0 2 1.7 3.7 3.8 3.7h49c2 0 3.4-1 4.5-2.2.7-1 1.2-2.2 1.2-3.5v-.8z" fill="#76a836"/></g><g><circle r="9.4" cy="146.5" cx="1362.8" fill="#4e4e4e"/><circle r="6.6" cy="146.5" cx="1362.8" fill="#f39021"/></g></g><g><path d="M1319.5 231c18 1.4 53.2 7.2 53.2 34.3H1336s2-13.7-18.5-29c-2.4-1.6-1-5.4 2-5.2z" fill="#e2ad39"/><path d="M1323.8 312.2c15-1 44-6 44-28.2h-30.2s1.6 11.3-15.4 23.8c-2 1.4-.8 4.5 1.6 4.4z" fill="#be292e"/><path d="M1318.7 269l-23.5-13.5c-3-1.8-6.8.4-6.8 4v.4c0 1 .4 2 1 3h.3c4.7 5.8 4.7 14 0 19.8l-.2.2c-.7 1-1 2-1 3v.5c0 3.5 3.7 5.7 6.7 4l23.5-13.6c3-2 3-6.2 0-8z" fill="#e2ad39"/><path d="M1373.3 273.6c0-6.6 1.8-12.6 4.8-17-31.3-17.7-57 3.7-65.5 13-2 2.3-2 5.8 0 8 8.5 9.3 33.2 27.8 65.5 13-3-4.5-4.7-10.4-4.7-17z" fill="#29a2a4"/><path d="M1395.8 273.6c0-5.2-13-14.2-16.3-16.2l-1.4-.8c-3 4.4-4.7 10.4-4.7 17s1.8 12.5 4.7 17l1.5-.8c3.4-1.6 16.3-10.7 16.3-16.2z" fill="#e2ad39"/><g fill="#fff"><path d="M1365 288.5l1.4-37-4.8-1 1.4 38c0 1.2 2 1.2 2 0zM1355 286.5l1.4-36.6c-1.7-.2-3.2-.2-4.8 0l1.4 36.5c0 1.2 2 1.2 2 0zM1345 284.5l1.3-34c-1.6.2-3 .5-4.6 1l1.3 33c0 1.2 2 1.2 2 0zM1335 282.5l1-29.3c-1.3.6-2.7 1.2-4 2l1 27.3c0 1.2 2 1.2 2 0zM1325 280.5l.8-22-3.6 2.5.8 19.5c0 1.2 2 1.2 2 0z"/></g><circle r="2.1" cy="266.1" cx="1382.8" fill="#544842"/><g><path d="M1335.6 292.8c-2 4.2-6 9.5-13.4 15-2 1.4-.8 4.5 1.6 4.4 12.2-.8 33.5-4.2 41.2-17.3-11.2 2.3-21 1-29.4-2.2zM1312.5 277.5c-1-1-1.5-2.5-1.5-4h-17.8c0 3.4-1.3 6.6-3.5 9.3l-.2.2c-.7 1-1 2-1 3v.5c0 3.5 3.7 5.7 6.7 4l19-11-1.7-2z" fill="#544842"/><path d="M1373.3 273.6h-7.8l-.5 15c0 1-2 1-2 0l-.6-15h-7l-.4 13c0 1-2 1-2 0l-.5-13h-7l-.5 11c0 1-2 1-2 0l-.4-11h-7.3l-.3 9c0 1-2 1-2 0l-.4-9h-7.4l-.2 7c0 1-2 1-2 0l-.3-7H1311c0 1.4.5 2.8 1.5 4 .5.5 1 1.2 1.8 1.8 4.5 4.4 11.8 10 21.3 13.4 8.3 3 18.2 4.5 29.4 2 4-.8 8.5-2.2 13-4.3-3-4.4-4.7-10.3-4.7-17z" fill="#29a2a4"/><path d="M1373.3 273.6c0 6.6 1.8 12.5 4.7 17l1.5-.8c3.4-1.6 16.3-10.7 16.3-16.2h-22.5z" fill="#544842"/><path d="M1363 288.5c0 1.2 2 1.2 2 0l.5-15h-3l.5 15zM1353 286.5c0 1.2 2 1.2 2 0l.5-13h-3l.5 13zM1343 284.5c0 1.2 2 1.2 2 0l.4-11h-2.8l.4 11zM1335 282.5l.3-9h-2.7l.4 9c0 1.2 2 1.2 2 0zM1325 280.5l.2-7h-2.5l.3 7c0 1.2 2 1.2 2 0z" fill="#cac9c9"/></g></g><g><circle r="10.4" cy="94.3" cx="1386.4" fill="#6ec6d5"/><path d="M1386.4 84v20.7c5.7 0 10.3-4.6 10.3-10.4 0-5.7-4.6-10.4-10.3-10.4z" fill="#57bfc8"/><circle r="3.5" cy="90" cx="1384" fill="#fff"/></g><g><circle r="8.8" cy="237.1" cx="1391.3" fill="#6ec6d5"/><path d="M1391.3 228.3V246c5 0 8.8-4 8.8-9 0-4.8-3.8-8.7-8.7-8.7z" fill="#57bfc8"/><circle r="3" cy="233.5" cx="1389.3" fill="#fff"/></g><g><circle r="5.7" cy="93.7" cx="1331.6" fill="#6ec6d5"/><path d="M1331.6 88v11.4c3.2 0 5.7-2.6 5.7-5.7 0-3.2-2.5-5.8-5.7-5.8z" fill="#57bfc8"/><circle r="1.9" cy="91.3" cx="1330.3" fill="#fff"/></g><g><circle r="7.1" cy="171.3" cx="1314.3" fill="#6ec6d5"/><path d="M1314.3 164.2v14.2c4 0 7-3.2 7-7 0-4-3-7.2-7-7.2z" fill="#57bfc8"/><circle r="2.4" cy="168.3" cx="1312.7" fill="#fff"/></g><g><circle r="9.4" cy="214.4" cx="1434.5" fill="#6ec6d5"/><path d="M1434.8 205l-.6 18.8c5.2 0 9.6-4 9.7-9.2 0-5.2-4-9.5-9.2-9.7z" fill="#57bfc8"/><circle r="3.2" cy="210.4" cx="1432.5" fill="#fff"/></g><g><circle r="5.4" cy="56.6" cx="1356.4" fill="#6ec6d5"/><path d="M1356.4 51v11c3 0 5.4-2.4 5.4-5.4 0-3-2.4-5.5-5.4-5.5z" fill="#57bfc8"/><circle r="1.8" cy="54.3" cx="1355.1" fill="#fff"/></g><g><path d="M959.3 116.2c2-.7 4.5.4 5.2 2.5l48.6 137.5c1 2-.2 4.4-2.4 5.2-2 .7-4.4-.4-5.2-2.5l-48.6-137.5c-.7-2.2.4-4.5 2.5-5.3" fill="#906232"/><path d="M974.8 238.4L1024 221c23.8 67-26 83.3-49.2 17.4" fill="#53b474"/><path d="M1003.3 228.3l9.8 28c1 2-.2 4.3-2.4 5-2 .8-4.4-.3-5.2-2.4l-9.8-28 7.7-2.7z" fill="#fff"/><path d="M1031.5 283c2.4 1 4.4 2.8 5.3 5.4.8 2.6.4 5.3-1 7.4-2.3-1-4.2-2.8-5-5.3-1-2.6-.6-5.3.7-7.5M1039.6 257.3c1 2.3 1 5-.2 7.4-1.2 2.5-3.4 4-6 4.6-1-2.3-1-5 .3-7.5 1.2-2.4 3.4-4 6-4.5M1051.8 277.6c-1 2.2-3.3 4-6 4.5-2.6.7-5.2 0-7.2-1.6 1.2-2.3 3.3-4 6-4.6 2.6-.5 5.2.2 7.2 1.8M1046 219.6c2.4 1 4.3 2.8 5.2 5.4 1 2.6.5 5.3-.8 7.4-2.4-1-4.4-2.8-5.2-5.3-1-2.5-.5-5.2.8-7.4" fill="#53b474"/><g><path d="M1124.4 232c2.3 1 4.3 2.8 5.2 5.4.8 2.6.4 5.3-1 7.4-2.3-.8-4.2-2.7-5-5.3-1-2.6-.6-5.3.8-7.4M1132.4 206.3c1 2.3 1 5-.2 7.5-1.2 2.4-3.4 4-6 4.5-1-2.3-1-5 .3-7.4 1.2-2.6 3.4-4.2 6-4.7M1144.6 226.6c-1 2.3-3.3 4-6 4.5-2.6.7-5.2 0-7.2-1.6 1.2-2.2 3.3-4 6-4.5 2.6-.7 5.2 0 7.2 1.6M1138.8 168.7c2.4 1 4.4 2.8 5.2 5.3 1 2.6.5 5.3-.8 7.4-2.4-.8-4.4-2.7-5.2-5.3-1-2.5-.5-5.2.8-7.3" fill="#53b474"/><path d="M1107 230h-1l-3.3-.3-5-.6c-1 0-2-.2-3-.4-.4 0-1-.3-1.4-.5l-1.5-.6c-1-.5-2-1-3.2-1.4h-.2l-.4-.3-.4-.2c-.3 0-.6-.2-1-.4h-.3l-.5-.4-1-.6c-2.7-1.8-5-4-6.8-7-1.7-2.8-3-6.2-3-9.7-.4-3.5.2-7 1.5-10.4l.6-1.3.7-1c.5-1 1-1.7 1.5-2.4l.8-1 1-1c.5-.7 1.2-1.2 2-1.8 2.6-2.3 5.8-3.8 9-4.5 3.3-.8 6.7-.7 9.6 0 .8.2 1.5.3 2.2.6.4 0 .7.3 1 .4.4 0 .8.2 1 .4 1 .4 2.2 1 3.3 1.3l1.6.7c.5 0 1 .3 1.4.7 1 .7 1.6 1.3 2.4 2 1.5 1 2.8 2 3.8 3s2 1.6 2.5 2l.8.8h-1c-1 0-2-.2-3.3-.4-1.4 0-3-.3-5-.6-.8 0-1.8-.3-3-.4-.4 0-1-.3-1.4-.5-.4-.4-1-.6-1.5-.8-1-.5-2-1-3.2-1.4l-.7-.3-.7-.2-1.5-.5c-2-.4-4.2-.5-6.4 0-2.2.6-4.4 1.6-6.3 3l-1.3 1.3-.6.8-.6.7-1 1.4-.4.8-.2.5-.2.3v.2s-.2.2 0-.2c-1 2.3-1.3 4.8-1.2 7.2.2 2.4 1 4.6 2.2 6.6 1.2 2 2.8 3.6 4.5 4.7l.6.4.4.2.4.2.8.4.4.2c-.2 0 0 0 0 0l.3.2 3.2 1.3c.6 0 1 .4 1.6.5l1.5.7 2.4 1.8 3.7 3.2 2.5 2 .8.8" fill="#c4c1c1"/><path d="M1114.3 213h-.6l-1.6.5-2.2.5c-.5 0-1 0-1.5.2-.2 0-.4 0-.6-.2l-.6-.3-12.7-5.4-12.8-5.5-.6-.2c-.4 0-.6 0-.7-.4l-.8-1-1.3-2.2-1-1.3v-.6h.4l1.6-.4c.7 0 1.5-.3 2.3-.5h1.5c.2-.2.4 0 .6 0l.7.4 12.7 5.4 12.8 5.4.7.3c.2 0 .4 0 .6.3l1 1.2 1.2 2 .8 1.4.3.5" fill="#c4c1c1"/><path fill="#c4c1c1" d="M1082.5 194.5l-3.6 8.4-18-7.8 3.5-8.3z"/><path d="M1066.4 192.6c1.8-4 0-8.8-4.2-10.6l-34-14.4c-4-1.7-9 .2-10.6 4.3-1.8 4 .2 8.7 4.3 10.5l34 14.4c4 1.6 8.7-.3 10.4-4.4" fill="#c56317"/></g></g><g><g fill="#4d4a4a"><path d="M812.6 117.3l-5.2 1 32 177.5h5.2"/><path d="M807.4 121l5.2 1-32 173.8h-5"/><path d="M782.4 276h58v5h-58z"/><path d="M792.6 230.7L789 234l46.3 45.8 3.6-3.3"/><path d="M790.6 229.6h40v5h-40z"/><path d="M824.4 232.5L795.8 196l4-3 28.5 36.5z"/><path d="M798.5 190.6h23.7v5h-23.7z"/><path d="M819.7 194.2L799 167.7l3.8-3 20.8 26.5z"/></g><path d="M810 154.8c-20.3 0-37-16.6-37-37 0-20.3 16.7-37 37-37 20.4 0 37 16.7 37 37 0 20.4-16.6 37-37 37zm0-67.7c-17 0-30.8 14-30.8 31 0 16.8 13.8 30.7 30.8 30.7s30.8-14 30.8-30.8c0-17-13.8-31-30.8-31z" fill="#4d4a4a"/><path d="M789 118c0 11.4 9.5 20.7 21 20.7s21-9.3 21-20.8c0-11.7-9.5-21-21-21s-21 9.3-21 21z" fill="#848280"/><path fill="#848280" d="M815 102l-5-1V67.3l15.4 5M822.3 106.6l-4-3.3 17-29.3L846 86M826.3 114.2l-1.7-4.7 29.3-17 3.2 16M826 122.8l.8-5h34l-5.2 15.5M821.3 130l3.3-3.7 29.3 17-12.2 10.7M813.6 134l4.8-1.6 17 29.3-16 3.3M805 133.7l5 1v33.8l-15.4-5M797.8 129l3.8 3.4-17 29.3-10.7-12M793.8 121.5l1.7 4.8-29.4 17-3-16M794 113l-.8 5h-33.8l5-15.6M798.8 105.6l-3.3 4-29.4-17 12.3-11M806.4 101.6l-4.8 1.7-17-29.3 16-3.3"/><path d="M802 118c0 4.2 3.6 7.8 8 7.8s8-3.6 8-8c0-4.3-3.6-8-8-8s-8 3.7-8 8z" fill="#4d4a4a"/><g><path fill="#e9e8e8" d="M707 263.8h9.7v32H707z"/><path fill="#3d3d3d" d="M707 290.3h9.7v5.5H707z"/><path d="M723.2 266.2h-32.5s.3 6 9.3 7.8c0 0-.2 3.8 1.8 3.8s1.5-3.8 1.5-3.8h7.4s-.6 3.8 1.5 3.8c2 0 1.8-3.8 1.8-3.8 9-1.8 9.2-7.8 9.2-7.8z" fill="#f29cb6"/><path d="M647.6 209.3l77.7-2.3s14.5 0 14.5 30.4-1.2 30.8-7 30.8h-64.5s-19.2 2.5-19.2-15c0-17.4-1.4-44-1.4-44z" fill="#e9e8e8"/><path d="M664 207.7s11.2-2.3 15.4.8c4 3.2-3.4 8-6.8 8.7-3.3.7-5 .4-5 .4l-5-6.3 1.4-3.6z" fill="#e9e8e8"/><path d="M680.5 210.2c0-.6-.4-1.2-1-1.7-4.3-3-15.8-.8-15.8-.8l-1.5 3.8s12-4.3 18.3-1.3z" fill="#3d3d3d"/><path d="M665 212.4s10-2.8 12-1.4-5.3 5.4-8.6 5.3l-3.5-4z" fill="#fff"/><path d="M638.7 203.8s-10-5.5-15-3.8c-5 1.8 1 8.6 4 10.3 2.8 1.7 4.4 2 4.4 2l7-4.6-.3-4z" fill="#e9e8e8"/><path d="M622 201.3c.4-.5 1-1 1.7-1.2 5-1.7 15 4 15 4l.6 4s-10.2-7.7-17.2-6.7z" fill="#3d3d3d"/><path d="M636.3 208s-8.7-5.6-11-5c-2.4.8 3.4 7 6.6 7.8l4.3-2.7z" fill="#fff"/><g fill="#e9e8e8"><path d="M658.7 205.4s2.8-3.4 2.7-6.5c0 0 0-2.2 2-2.4 1.7-.2 3.7 2 1.8 6.6-2 4.7-3 5-3 5l-3.5-2.8zM645 203s-1.6-4-.6-7c0 0 .6-2-1-2.7-1.8-.7-4.4.7-4 5.7.5 5 1.4 5.6 1.4 5.6l4.3-1.6z"/></g><g><path d="M664.5 237.7c2-3.2 3.5-7 4-11.3 2.2-13.4-4.8-25.6-15.6-27.3-10.8-1.5-21 8-23.2 21.5-.6 4.2-.3 8.3.6 12l34 5.2z" fill="#e9e8e8"/><path d="M651 199c-7.2-.2-13.8 4.4-17.8 11.5 1.2 1.6 5.8 2.5 8.5 1 3-1.8 8 .7 9.7-1.7 1.5-2.3-.5-10.8-.5-10.8zM668.6 226.4c.5-3 .5-6 0-8.6 0 0-2.6-.4-3.7 2.8-1 2.2-1 5-2 7.5-1.8 4 1.2 5 2.8 7.4 1.4-2.7 2.4-5.7 2.8-9z" fill="#3d3d3d"/><circle r="3.1" cy="220.4" cx="641.5" fill="#fff"/><path d="M643.7 220.8c-.2 1-1.3 2-2.5 1.8-1.2-.2-2-1.3-1.8-2.5.2-1 1.3-2 2.5-1.7 1 .2 2 1.3 1.7 2.5z" fill="#010202"/><circle r="1.1" cy="219.6" cx="643.1" fill="#fff"/><circle r="3.1" cy="222.8" cx="656.9" fill="#fff"/><circle r="2.2" cy="222.8" cx="656.9" fill="#010202"/><circle r="1.1" cy="221.9" cx="658.4" fill="#fff"/><path d="M629.6 223v5.3l.2 1.3c0 .6.2 1 .3 1.5l.4 1.5 4.6.7c2.7-.8 5-1.7 4.3-2.5-1.5-2-1.6-2.6-1-4 .4-1.5.7-4.3-1.3-5.6-2-1.2-6.5-3-6.6-3.2l-.6 2.7c0 .6 0 1-.2 1.7v.7z" fill="#3d3d3d"/><g><ellipse ry="9.5" rx="17.8" cy="237.3" cx="647.2" transform="rotate(8.645 647.296 237.39)" fill="#f193ac"/><ellipse ry="1.5" rx="1.6" cy="238.4" cx="653" transform="rotate(8.66 652.968 238.442)" fill="#c45e74"/><path d="M643.3 237c0 .8-1 1.3-1.8 1.2-.8 0-1.4-1-1.3-1.7 0-.8 1-1.4 1.8-1.3.8.2 1.4 1 1.3 1.8z" fill="#c45e74"/></g></g><g><path fill="#e9e8e8" d="M663.2 263.8h9.7v32H663z"/><path fill="#3d3d3d" d="M663.2 290.3h9.7v5.5H663z"/></g><g><path fill="#e9e8e8" d="M680.7 263.8h9.7v32h-9.7z"/><path fill="#3d3d3d" d="M680.7 290.3h9.7v5.5h-9.7z"/></g><g><path fill="#e9e8e8" d="M724.5 263.8h9.7v32h-9.7z"/><path fill="#3d3d3d" d="M724.5 290.3h9.7v5.5h-9.7z"/></g><path d="M739.8 235.2c0-28.2-14.5-28.2-14.5-28.2l-29.6.8s.2 8 17.2 15.7c16.3 7.4 2.4 21.7 26.6 26l.2-14.3z" fill="#3d3d3d"/><path d="M736 215.6s6 5 7.5 17.5c1.8 14.8 7.3 20.2 7.3 20.2s2.4-.3 3.3 1.8c1.4 3.3 2.8 4.6 2.8 4.6s-8.3 1.2-7.4-5.3c0 0-4-4.5-6-11.3-1.8-6.8-2.4-13.7-5.7-16.4l-3.5-7.7 2-3.4z" fill="#3d3d3d"/></g></g><g><g><path d="M1350.8 473.3h-.2.2zm.8-.5zm-.4.3v.2z" fill="#ccbea7"/></g></g><g><clipPath id="a"><use height="100%" width="100%" overflow="visible"/></clipPath></g><g><path fill="none" d="M477.6 773H635v106.5H477.7z"/><path fill="#fff" d="M769 695.4h14v38.8h-14z"/></g><path fill="none" d="M1028.6 773H1186v106.5h-157.4z"/><g><ellipse ry="6.1" rx="7.9" cy="843.4" cx="1258.3" fill="#fff"/></g><g><ellipse ry="5.4" rx="6.9" cy="855.9" cx="1355.4" fill="#fff"/></g><g><clipPath id="b"><use height="100%" width="100%" overflow="visible"/></clipPath></g></g></switch></svg>