<svg xmlns="http://www.w3.org/2000/svg" width="850.9" height="273.5" viewBox="0 0 850.88884 273.491"><switch transform="translate(-89.087 -528.47)"><g><path fill="#48b9b2" d="M89 528.5h138.4v127.7H89zM264.3 528.5h149v129.7h-149zM451.3 528.5h133.2v129.7H451.3zM638.3 528.5h122v129.7h-122z"/><rect x="792.3" y="528.5" width="147.6" height="129.7" ry="2" fill="#48b9b2"/><path fill="none" d="M218.4 294H775v86H218.3z"/><text transform="translate(357.037 320.464)"><tspan x="0" y="0" font-size="38" font-family="Verdana">CADENA ALIMENTARIA:</tspan><tspan x="14.3" y="36" font-size="38" font-family="Verdana">Del campo a la mesa</tspan></text><path fill="none" d="M1201.3 863.3h130.2V941h-130.2zM108.7 545.7h81v108.7h-81z"/><text transform="translate(108.734 558.29)"><tspan x="0" y="0" font-size="18" font-family="Verdana" fill="#fff">Sistemas de </tspan><tspan x="0" y="21.6" font-size="18" font-family="Verdana" fill="#fff">producción:</tspan><tspan x="0" y="43.2" font-size="18" font-family="Verdana" fill="#fff">Agricultura</tspan><tspan x="0" y="64.9" font-size="18" font-family="Verdana" fill="#fff">Pesca</tspan><tspan x="0" y="86.5" font-size="18" font-family="Verdana" fill="#fff">Acuicultura</tspan></text><path fill="none" d="M276 545.7h96.2v76h-96z"/><text font-size="18" x="273.1" y="590.8" font-family="Verdana" fill="#fff">Procesamiento</text><path fill="none" d="M308.3 443.3H685V472H308.3z"/><text font-size="24" x="363" y="460.1" font-family="Verdana" fill="#402a16">De la mesa a la granja</text><path fill="none" d="M308.3 732.7H685v28.6H308.3z"/><text font-size="24" x="368.9" y="748.4" font-family="Verdana" fill="#402a16">De la granja a la mesa</text><path fill="none" d="M461.7 545.7h98.8v76h-98.8z"/><text x="460.7" y="571.1"><tspan x="460.7" y="571.1" font-size="18" font-family="Verdana" fill="#fff">Alimentos </tspan><tspan x="460.7" y="592.7" font-size="18" font-family="Verdana" fill="#fff">seguros y de </tspan><tspan x="460.7" y="614.4" font-size="18" font-family="Verdana" fill="#fff">alta calidad</tspan></text><path fill="none" d="M652.7 545.7h65.8v122.8h-65.8z"/><text x="650.8" y="582"><tspan x="650.8" y="582" font-size="18" font-family="Verdana" fill="#fff">Ingesta de </tspan><tspan x="650.8" y="603.6" font-size="18" font-family="Verdana" fill="#fff">alimentos</tspan></text><path fill="none" d="M808.6 545.7h85.6v116.7h-85.6z"/><text transform="translate(808.567 558.29)"><tspan x="0" y="0" font-size="18" font-family="Verdana" fill="#fff">Salud y </tspan><tspan x="0" y="21.6" font-size="18" font-family="Verdana" fill="#fff">bienestar de </tspan><tspan x="0" y="43.2" font-size="18" font-family="Verdana" fill="#fff">los </tspan><tspan x="0" y="64.9" font-size="18" font-family="Verdana" fill="#fff">consumidores</tspan></text><path fill="#48b9b2" d="M230.2 578.8h18.3v16.6h-18.3z"/><path fill="#48b9b2" d="M247 605.5v-38.3l16.5 19M416.2 578.8h19.3v16.6h-19.3z"/><path fill="#48b9b2" d="M432 605.5v-38.3l16.5 19M591.3 581.7h30v16.6h-30z"/><path fill="#48b9b2" d="M613 608.4V570l16.5 19.3M764.2 579.8h19.3v16.6h-19.3z"/><path fill="#48b9b2" d="M775 606.4v-38.2l16.5 19"/><path fill="#e1c298" d="M137.6 514l-10-39 50.3 34.8"/><path d="M161 497.8c62.6-57.4 194.4-96.6 337.6-96.6 143 0 275 39.2 337.7 96.6h27.2c-65.2-66-204-111.7-365-111.7-160.8 0-299.7 45.7-365 111.8H161z" fill="#e1c298"/><path fill="#402a16" d="M855.7 674l10 39.2-50.2-35"/><path d="M832.5 690.2C769.8 747.7 638 787 494.8 787c-143 0-275-39.3-337.7-96.8H130C195 756.2 334 802 494.8 802s299.8-45.7 365-111.8h-27.3z" fill="#402a16"/></g></switch></svg>