<svg xmlns="http://www.w3.org/2000/svg" viewBox="0 0 48.606612 91.574991" height="100" width="100"><path d="M48 67v.7c.2 0 .3 0 .3-.3V69c-.2 2-1 2.6-2.8 3h-1c-2.2.5-3.6 1-4.2 1.8-1.3 1.6-1 4.7-1 8.3L39 82l-.3.8.4.3v5c0 2.5-1 3.4-3.4 3.5H29c-1.7 0-2.7-.4-3.3-1-1.2-1-1-3.5-1-6.5v-3.6-4.2s-.2 0-.4-.7h.3V75h-.4c-.4-1.3-1.4-2.2-3-2.5h-.5l-5.2-.2h-1.3V72H14v.2H4l-.4-.6-.3.5c-.4 0-.8 0-1.2-.2 0-.8-.2-1.2-.7-1.4 0 .4 0 .8.3 1.2C-.2 70.8 0 67.4 0 65v-.4c0-3 .3-5.5.8-8 0 .4.3.5.4.5V57s.2 0 .2-.3l-.4-.7c.3-1.6.8-3 1.4-4.6.3 0 .3-.3.3-.7v-.3c.2 0 .4-.5.6-1 0-.4.4-.8.4-1 0 .2 0 .6.4 1h.6c0-.4 0-.8-.5-1 .4 0 .5-.3.2-.4H4v-.3L6.7 41v.8h.8v-1.6c0-.3.2-1 .8-2.3.3 1.2.3 1.8.3 2H9c0-.3 0-.7-.2-1l-.4-1 .8-2 .8-2v-.3l2.7-6.4h.4c.2-.3.2-.5.4-.5-.3 0-.3-.3-.3-.4l1-2.3c0 .4.4.4.4 0H14l1-2c.2-.7.4-1.3.7-1.7.3 0 0 0 0 0s0-.2.3-.2 0-.2 0-.4l.8-1.7v.4h.5v-1.3-.4c0-.3.3-.4.3-.5 0 .2.8-1.6 2.3-5.4 0 .4 0 .8.4 1V10l2.5-6.5c.3 0 .3 0 0 .5h.5c0-.2-.3-.4 0-.6 0-.3 0-.4-.2-.5l1.2-1.5c0-.3 0 0 .3.3h-.3v.6h.6V2s-.3 0 0-.2V1h-.2L26 .3c.2 0 .2 0 .3-.2H29c.2 0 .2 0 0 .3l.5-.3H36c.8 0 1.4.4 2 .6 0 0 0 .3-.4 1L38 1V.7c1 1 1 2.5 1.3 6.2V18c-.3-.3-.4-.3-.5 0 .3 0 .3 0 .3.2-.2.5 0 .6.4 0V21c-.2 0-.2.2 0 .5v.4l-.2.5h.3v19h-.3v1h.3v5.6c0 3.5 0 8.8 4 8.8h.4v.3h.3v-.4c4 0 4.3 1.4 4.3 6v4.6c-.4 0-.4-.3-.7-.3zM.6 59l.3 1v.4l.5-1-.8-.4zm1 4.7l-.3-.4V63l-.2-.4V62l-.2.3V64h.7v-.3zm0 3.6l-.4-.6v.4l.2 1 .2-.7zm.7-13.8l.3.5H3l-.3-.7-.3-.4v.5zm.3 4.5l.4.8h.2v-1l-.5.2zm0 2l.4.5V60H3zm0 1.5l.4.8h.4v-.8L3 61l-.2.5zm.6 4.5v-.3l.3-.4v-.5l-.5-.4.3 1v.6zm.7 3.4l-.3-1-.3-.6v1.8l.3.2.3-.4zM4.5 52l.3 1v-1.3l-.3-.5v.8zm0 3.6v1l.5-.8-.5-1v.8zm0 3.4l.4.8.2-.7h-.7zm.4 3.4v1.2l.5.3-.3-1.4-.3-.2zm.8 5.2V67l-.4-.7-.4.7.8.6zm0 3.4v-1h-.4l-.3.4.4 1 .3.7v-1zm-.2-23.6l.5-.6h-.4v.6zm.4 3l-.3-.5v.2l.2.4H6l-.2-.3zm-.2 3l.4 1 .4-.2v-.7L6 53l-.2.5zm.4 4.6l.5.8.4-1-.5-.8v-.4L6 57l.2 1zm0 3.4l1 .4-.5-1.2-.4.8zm.5 4.2H7v-.4l-.3-.5v1zm.8 4.2v-.5L7 69v.5l.5.3zm-.3-25l.4 1v-2.2l-.4 1zm0 3v1l.6-.4-.6-.6zm.5 4.7l.3-.3-.3-.5v.8zm.4 4l.2-.4h-.4l.3.5zm.5 3.2l-.3-.5v1.1l.3-.6zm.3-16l.4-.5-.4-.4v1zM9 71.5v-.8h-.2v1l.2-.2zm0-24.3h.4v-.7h-.3v.7zm.4 2.6v-.2L9 50h.4zm.3 3.5h-.5l.4.4v-.4zm.2-2.6l-.6-.5v.5h.5zM9.6 54l-.3.4h.3v-.3zm0 3.3h.5V57l-.4.3zm.4.3l-.2.3v.2l.5-.4-.2-.2zm-.2 3.8l.3.5h.4V60.2l-.5.3v1zm0 3l.4.8v.7-1l-.3-.7zm.8 3.6l-.4-.3v1.5h.3V68zm-.4-30.2h.3l-.3-1v1zm.3 3v.8l.3.3v-1l-.3-.2zm.2 4.4l.4.2V44.5l-.3.8zm.3 3v.3-.7l-.2-.4.2.7zm-.2 3l.4.6.3-.4h-.7zm.7 5.2l.5-.5-.4-1h-.4v1l.3.4zm0-17.7v1l.4.3h.2l-.3-.8-.5-.5zM12 59h-.3v.8l.4-.2V59zm-.2 3.5v1.2h.4v-1l-.3-1.2-.2 1zm0-19.7l.5 1v-1H12zm0 24l.4.3v-.3L12 66v.7zm.7 3.7l-.3-.4H12v1l.4.5v-1zm0-40.7h.3v1l.3.4h.5v-.8l-.3-.7V29h-.4l-.3.2v.4zm.6 21V50l-.4.3.5.2zm0 2.4h-.3v.4l.3.4v-.8zm.6-19v-.8l-.2-.4-.5.8.4 1 .2-.6zm-.3-1.6v-.3.4h.2-.2zm.7 4.8l-.7-.7v1l.7-.3zm-.7 23.4v.8l.3.3v-1.4l-.3-.3v.5zm.8-20l-.4-.6v-.4h-.2v1.3l.5.8v-1zm-.3 24.3l-.3.2.3.5V65zm.3-19.8l.2-.7-.6-.5.4 1.2zm0-2.4l-.3.4.4-.4zm.2 4.8v-.4l-.2.4v1.2l.8-.4-.6-.8zm.2 3.6l-.3-.4.4.4zm-.3-26l.5.3.3-.3-.4-.4-.3.4zm0 27.2l.6-.4-.3-.3-.2.7zm.7-25.6l-.3-.3-.3.3h.7zm0 2V28h-.3v.4l.3.3zm-.3 27l.5.4V56l-.3-1-.4-.2v1zm0-24.4l.2 1v-1zm.6 4l-.4-1v1h.4zM15 59h-.4v.4h.4V59zm0-20.4l.3 1 .3.3v-1l-.7-.4zm.3 3.6l.3 1 .3-.6-.7-.4zm.2 24.2V66h-.2v.4h.2zm.3 4.2l-.3-.5v.4l.2.4v-.2zm-.3-48.4h.3l.2.4v-.3L16 22l-.3.2zm.3 24.7l.3.2.2-.4v-.5l-.5-.4V46.8zm.6-19.6v-1.2l-.6-1v2l.6.2zM16 23v.6h.2V23H16zm.2 6.5l.3-.3.3-.4-.4-.3-.3.3V30l.4 1 .3-.4v-.8h-.2l-.3-.3zm-.3 24l.4.7.4-.7-.7-.8v.7zm.8-20l-.7-.8v.8l.2.8V34v.4l.5-.3v-.6zM16.6 58l.3-.7h-.6l.2.8zM16.4 37V38l.4.2h.3v-1l-.6-.4zm.3 24l.3 1 .3-.2v-1h-.6zM17 65v.4h.3v-.7l-.4-.4v.7zm7.5-13.4h.3V51h-.3v-3.2l-.3-2.5c0-.7 0-1.2-.3-1.5-.2 0-.2.4-.2.8 0-.4-.3-.4 0-.4-.4-.5-.7-1-1.3-1-1.2 0-2 1.3-2 1.4L18 51h-.3v.7c0 .3-.5 1-.5 1.3-.8 2.3 1 3.4 2.5 3.6v1.2h.5c0-.4 0-.8-.4-1.2 4 .5 4.4-3 4.7-5zM17 23h.4l.4-.4h-.4l-.3.3zm.6 46v-.5l-.2-.4H17v1h.6zm0-22.2l-.4.8.4 1.3.3-1-.5-1.2zm0-22.2l-.2-.5v1.4l.3-.8zm.4 6.7h-.3v.6l.2.2h.2V32l-.2-.7zm0 3l.2-.6v-.3l-.2.4v.4zm0 .8v.5l.5.4v-.7l-.3-.4H18zm0 4l1 .6v-1l-.4.2v-1L18 39zm.3-20.4l.3.3.3-.2v-.4h-.5l-.2.2zm.3 40.5l-.3-.4v1.1l.3-.6zm-.2-43.7l.3.4V15l-.3.3zm0 .8l.2.2v-.4.3zm.4 27v.4h.3V42h-.4v.7l.2.4zm.2-21l-.4.4.4 1v.4h.3V22H19zm.6 4.5l-.3-.8v-1l-.5.4.5 1-.3.4v.6h.4l.2-.5zM19 46l.3.4-.3-1v-.3 1zm.6-13.5V34l.3-.6-.4-1zm0-2l.4.2h.3l-.3-.4h-.4zm.3-16.7l.7.5-.4-1-.3.2v.3zm0 26v.8l.7.8h.3V41l-.4-.3v-.4L20 40zm.2 21.8l.3-.7v-.6H20v.6l.2.6zm0-44.3v-.7l-.2.4.3.3zm0 2.8v.5h.4V20H20zm.4 45V64l-.2-.3V64.8h.2zM21 21l-.3-.5h-.3v.5l.3.3h.3v-.3zm0 3l-.3-.4-.3.5.3.4.3-.5zm0 4.3v.5-.4l.2-.5-.3.5zm0-19.8l.5.7v-1l-.2-.8-.3.3v.7zm.5 26.4v.4l.3.4h.4l-.7-1V34l-.3.3v.6h.3zm.3-23h-.3l.3.2-.3.3.3.3.4-.2-.3-.4-.2-.3zm0 4.4l.4-.8h-.4v.8zm.5 2.8v-.6l-.2-.3v1.1l.4.4v-.6zm-.3 18v.8l.2-.6-.2-.2zm0 4.5v.9l.2.3v-1.6l-.3.3zm.5-20.3l-.3.3v.8l.2.4-.3.4.4.3v-2.4zm0 49.2v-.3l-.2.3v.5l.3-.3zm.2-45v.7l.2.8v-.4l-.3-1zm.2 3.6l-.4.3v.8h.2v-1.1zm0 28l.2.4.3-.3v-.8h-.8v.2l.2.6zM22.7 7v.4l.5-.7-.5-.5V7zm.8 6.8v-.5l-.3-.3H23l.2.4v.4h.4zM23 33v1l.4.3V34l-.3-1zm.5-23.4l-.2.5v.6l.2.7.3-.5V10l-.3-.4zm-.4 27l.5.8V37l-.2-1-.2.5zM24 61v-.4h-.3v-1H23V61h.8zm-.5-46.8v.3h.2l-.2-.3zm.5 3.2h-.5l.4.7v-.6zm.4 3.6l-.4-.4.2-.4-.3-.3-.4 1h.4-.3l.4.2.4-.2zm-.7 43.5l.4.8V64h-.4v.5zm0-23.7h.2l.4-.4h-.3v.4zm0 27.3l1 .6-.5-.5v-.3l-.4.4zm1.3 4.5l-.3-.5-.4-1h-.3v.8H24.4v.2H24v.9h.3l.5-.5zM24.2 24l-.4-.5v1.3l.3.3h.4l-.2-1zm0 4v.6l.4-.5-.3-.4H24l.2.3zm.2 3.2v.4h.2v-.4h-.2zm.2-26v.3l.2.2V5h-.2zm0 3.4V9h.5v-.3h-.4zm0 26.2v.8l.7.3v-.6L25 35l-.3-.5h-.3v.3zM25 80l.2-.3V79h-.4V80zM25 12l-.2.5.4-.7-.4-.4v.4l.2.2zm0 16.5h.2V28h-.4v.3zm.3-13.6l-.4.5.2.5h.3v-.8l-.2-.3zm-.3 69v.2l.4-.4H25l.2-.2-.3-.3v.8zm0-45.5v.8l.5-.4-.4-.4zm0 3.8l.6.3-.3-.7v-.4l-.2.8zm.5 45l-.3-.2v.4h.2zm0-68.4v.9V18.5zm.4 4l-.2-.7h-.3V22.8l.2.2.3.4h.4l-.5-1zm-.3 47.7l.3-.3v-.4h-.3v.6zm0-66.7h.8v-.2l-.3-.5H26v.3l-.3.3zm0 45.7v.4l.2.3h.2l-.3-.4V49h-.3v-.7.8zm.6-43V6h.4H25.8v.7l.4.7h.5l.3-.4v-.4l-.2-.3h-.3zM26 26.8h.5l-.3-.7V26l-.2.5v.4zm0 2v.5-.4zm.2 24.3l.4-.3-.6-.5.2.8zM26 73.7h.2l-.2-.3v.3zm.4-65.3l.2-.3h-.4v1.5h.5V8.4h-.3zm-.2 25l.3.5h.3v-.4l-.3-.7v-.4h-.3v.8zm.6 44.3l-.4-.8H26l.2.8h.6zm.2-67.2l-.2-.4V10l-.4.3v1h.8l-.2-.5zm-.3 2.5l-.3-.6v1l.3.8.3-.5v-.4l-.3-.3zm0 24.4l.2-.4v-.7l-.4-.3-.3.5.3.8h.2zm-.3 20v.2l.4-.4v-.8h-.4v1zm.7-40.8l-.2-.3v.3h.3zm0 2.2v.4-.5zm1 2l-.4-.6-.8.4v.4H28zm-1.2 19.4v1l.5-.2V40l-.2-.2-.3-.3v.7zm0 24l.3.4.2-.4-.3-.3v-.4l-.2.7zm.2 4l.5.7h.3V68l-.2-1-.6 1zm.5-44.8V23l-.2.4v1.2h.2V24l.4.4V24l-.5-.6zm-.3 21h.5v-.6h-.4v.5zM27.4 1V2l.2.4V1h-.2zm0 46.4v.5l.5-.2v-.5l-.2-.5h-.4v.6zm.2 24.6v.2V71l-.2.4.2.4zm0-20.8l.2.3h.3v-.6H28l-.3.2zm0-47.2V5l.4.3v-.8l-.4-.2zm.4 23.5h-.4v.8l.4-.8zm.3-22.3h-.5v.2h.4l.3-.2h-.2zm0 70.2V75h-.4l-.2.8.4.5v-1zM28 31.2l.4.5V31l-.5.2zm.5 4.3v-1l-.7-.3.7 1.3zM28 54.8v.8l.4-.8H28zm.4-24.4H28v.2h.3v-.2zm0 29h.3v-1 .3-.3l-.2-.3v1.1zm0-43.8h.2v-.8.8zm.4 45l-.3.2.3.4v-.6zM29 87v.2l-.4-.3.2.6.2-.5zM28.7 42v.8l.4-.3-.3-.5zm.5 20.5v-.7l-.4-.4V63h.2l.2-.5zm-.2 3.7v-.8l-.4.4.4.4zm0-48l-.2.5.5.7h.3-.3V19l.2-.4-.6-.3zm.2 28.2h.4v-.3l-.4-.7H29l-.2.5h.3l.2.6zm0-23.7l.4-.5-.5-.5v.5l.2.3v.2zm0-20v.8h.4v-.6l-.4-.3zm.8 3.5l-.5-.7v.3l.2.3.3 1v-.8zm-.4 19V25h-.3v1l.5.7v-1h.3l-.4-.6zm-.3 15.3l.3.3-.3-.3zm0 12.3l.8.7h.2l-.5-.8h-.4zm.3-49v-.3.3zm0 26l.4.5v-1.6h-.5l.2 1zm.2 44.4v-.5h-.2v.5h.2zm.3-64l.2-.5-.4-.7V10h.2l-.3.2.3.3h.4L30 10zm-.3 22.7l.4.8h.4v-.3l-.3-.8-.3.2zm0 23v.6h.4L30 56zm.6-43H30v.3l.3-.3zm.2 3.8l-.5.3.5 1v-1.2zm-.3 19.7v.7h.3V36H30v.8h.2zm0 45v-.2L30 81v.3l.3.3zm.4-61.6v-.5l-.4.3.3.8.3.7h.4v-.4L31 20l-.4-.3zm0 3.8l.3-.4h-.4l-.2.5.2-.2zm0 17l.2-.7-.4-.6v.9l.3.5zm-.3 23.4l.3.3V64l-.3.2zm.3-7.3v.2h.2V57h-.2zm0 11.2l.4-.3-.4-.8v1zm.4-43.6V24l-.4.5.3.3h.2l-.2-.2zm-.3-23V2h.4v-.6h-.3zm.4 42.7L31 44v.5l.3-.2zm0 2.5v.5h.2L31 47zm.4 26v-.5H31v.3h.4zm0-66l-.3.4.2.4v-.7zm0 24.8l.4-.5-.4-.6-.3.4.5.8zm0 19.4v-.5l-.2.8h.3V51zm0-39.8v.6h.3v.2l.4-.4-.2-.4h-.3zm.4 47.3v.4l.4-.2-.4-.3zm.6-40.2H32l.4.8v-.7zm-.5 4l.4.8.5-.2-.5-1.2-.6.6zm0 61V83H32v.6zm.4 3.3l-.3-.3v.4h.4zm0-66.6v.2h.3l-.3-.2zm0 26.3l.5-.6-.2-.7-.4-.3v1.5zm0-43.8l.3.7h.2v.3-.3l-.2-.8-.3-.5v.5zm0 23.6l.3.6.3-.6-.3-.8v-.7l-.2.3V26zM33 6l-.3-.6V6.5l.4.4v-1zm-.4 22.4l.4.4v-.3h-.4zm.2 21.7v-.2l.2-.5h-.4l.2.6zm.3-22.5v-.2.2zm0 26h.2V52l-.2.8v.5zm.6-41.8l-.3-.3-.3.3h.6zM33 33l.6.7v-1.5H33v.8zm.2-22.6l.3.3v-.4l.2-.4v-.5h-.3v.4H33v.4zm.4 46V56l-.4-.3v.5l.2.4.2-.2zm0 20.8L33 77v.6h.3v-.4zm0-64.5l-.3.7.5.3-.2-1zM33.3 37h.6l-.5-.5-.2.4zm.7-19.6l-.4-1 .3-1.2-.4.3V17l.4.4zm-.5 23l.6.3.5-.5-.3-.4-.4-.4v.4l-.3.6zM34 20l-.2-.4v.5l.3.8h.5v-.2h-.3V20zm.2 4.6v-.8L34 23v.8l.4.8zM34 44l.4.6v-1.2l-.4-.3v.7zM34 2.6l.4.3-.2-.4h-.2zm0 45h.8v-.2l-.2-.4h-.5v.7zm.4-19.8v-.4h-.3v.2h.3zm-.2 23.3l.3.3h.3v-.8h-.4l-.2.5zM35 6.6h-.3l-.3.2.3.4.3-.6zm-.4 24.7h.4v-.7l-.4.3v.3zM35 55l.3-.6-.5-.4v-.3l.2.4v1zm.2-46.3v-.5l-.2-.7v-.3.8l.2.7zm0 2.7V11l-.2.6.3.4v-.6zM35 33.8v.7l.4.5.3-.4v-.3l-.5-.4-.3-.2zm0-.4v.2h.2V33l-.2.2zm.4-19v-.5l-.2.4.3.5v-.7zm0 23.8l.3.3V38l-.4.2zm.4 44.5l-.5-.4v.7l.5-.3zm0-64l-.3-1v1h.4zm0 43.2v-.6l-.3.4.3.8.3-.3V62zm.3-16.6V45h-.3v.2l.2.5v-.3zm0-23.8v-.3L36 21v1l.3.8.2-.5v-.7zM36 65.8h.4l-.3-.6-.2.6zm.3-63v.5h.4v-.8H36v.2zm.2 23.4h.3v-.6L36 25v.5l.2.7zm.3-19.6v-.8l-.4.4v.3l.2.3.3-.2zM36 70.2l.5.3v-1.1H36v1zm.7-40.8v-.7l-.4.4v.6l.2.4.2-.6zM36.2 49v.5l.2-.4h-.2zm.4-39.3l-.3.3.3-.3zm0 63.6l.2.3v-.3h-.2V73l-.3-.2.2.5zm0-40.7v.5l.3.4V33l-.4-.4zm.8 3l-.4-.3-.4.3V37l.4.2.3-.7v-.8zm-.2 45l-.7.2.7.4v-.5zm-.5-67.4l.3.4v-.8l-.3.4zm0-2.7h.4L37 10v.5zm.8 36.2l.3.8.5-.4-.8-.3zm0-2.6l.6.2-.2-.8-.3.3v.4zm0 23.6h.4l-.4-.8v.8zM38 28h.3v-1.4l-.2 1v.3zm0 3l.4.2.3-.5H38l-.2.4zm.5 40.8v-.5L38 71v.8h.3zM38 8l.3.5V8H38zm.3 43l.3-.4-.4-.4v.9zm0-17.2v-1V35h.5l-.4-1zm0 21h.4v-.5l-.4.4zm0 20.3v.5l.2-.3v-.5l-.2.4zm.6 4l-.2-.7-.3-.3v1.4l.3.3V79zm-.5-64.7v.7l.2.3v-1h-.2zm0 43.4v.4h.5l-.5-.3zm.7 5l.3-.4-.3-.8-.3.3.2.8zm0 3l.2.3v-.5zm.6 3.7V69h-.4l.3.6v-.2zm.7-13l-.3-.4v.3h.3zm.6 4l-.3-.5v.4h.4zm1.4-2h.3l-.3-.4v.4zm.3 6.8l.4.5h.2v-1.1l-.5.6zm.6 4.5v-.4l-.2-.7-.2.3v.6l.2.4h.2v-.3zm1.2-6V63l-.2.3.2.4zm.8 8v-1l-.5-.3v.9l.5.3zm0-13.5h.6l-.2-1-.4-.2v1.2zm.4 3.4l.3.3v-.5L46 61V61.7zM46 65l.3 1V65l-.2-.3v-.4.8zm.7 4l-.3-.4v.7l.3.5V69zm.8-9l-.3-.5v1l.3-.6zm.5 3.7v-.3h-.2v.6l.2-.3z"/></svg>