<svg width="75" xmlns="http://www.w3.org/2000/svg" height="50"><path class="fil1" d="M3.8 2.2h1v35h-1V2M5.2 2.2h.4v35h-.4V2M6.6 2.2H7v35h-.4V2M9 2.2h1.7v35H9V2M11.3 2.2h.3v35h-.3V2M12.2 2.2h1.3v35h-1.3V2M14 2.2h1.3v35H14V2M16 2.2h.3v35H16V2M17.8 2.2h.8v35h-.8V2M19.2 2.2h.3v35h-.3V2M21.5 2.2h.8v35h-.8V2M23 2.2h.3v35H23V2M24.3 2.2h.8v35h-.7V2M27 2.2h.4v35H27V2M28.5 2.2h.3v35h-.3V2M29.4 2.2h.4v35h-.4V2M31.7 2.2h1v35h-1V2M33 2.2h.5v35H33V2M34.5 2.2h.4v35h-.5V2M35.5 2.2h.3v35h-.3V2M37 2.2h1.6v35H37V2M39.7 2.2h.3v35h-.3V2M40.6 2.2h.8v35h-.8V2M42.5 2.2h.3v35h-.3V2M44.8 2.2h.3v35H45V2M47 2.2h.4v35H47V2M48.5 2.2h.8v35h-.8V2M50 2.2h.2v35H50V2M52.2 2.2h.8v35h-.8V2M53.6 2.2h.4v35h-.4V2M55 2.2h.4v35H55V2M56.4 2.2h.4v35h-.4V2M57.4 2.2h.8v35h-.8V2M60 2.2h.5v35H60V2M61 2.2H63v35H61V2M63.4 2.2h1.3v35h-1.3V2M65.2 2.2h1v35h-1V2M67.6 2.2H69v35h-1.4V2M69.4 2.2h.4v35h-.4V2M70.4 2.2h.8v35h-.8V2"/><path class="fil3" fill="none" d="M-.3 1.7h75.6v41.6H-.3V1.7"/></svg>