<svg xmlns="http://www.w3.org/2000/svg" width="173936.6" height="185910.1" viewBox="0 0 163.2735 174.46001"><g><path d="M128.6 20C77-23 37.6 20.5 27 37.5c-16.6 26.3-35.5 66.4-19 97 14.4 26.2 57.2 36 84.7 38 15.4 1.4 33.8-1.4 45-13 14.4-15 50-90-9-139.3z" fill="#fff"/><path d="M25.6 36.5C34 23 59.8-6.5 96 1.2c10.6 2.3 21.8 7.7 33.6 17.6 34 28.3 37.4 65.2 31 94.4-4.8 22.4-15 40.4-21.7 47.3-12 12.3-30.8 15-46.5 13.7-7.6-.6-16.4-1.8-25.4-3.7-23.7-5.2-49.5-15.5-60.4-35.3-7.6-14-8-30-4.6-45.4 4.2-19.5 14.3-38.5 23.6-53.3zm69.7-32c-33.8-7.4-58.8 21-67 33.8-9 14.6-19 33.4-23 52.3-3.2 15-2.8 30 4.3 43 9.8 18.2 34.7 28.6 58.2 33.6 9 2 17.5 3 25 3.7 15 1 33-1.7 43.7-12.8 6-6.2 16.2-24 21-45.7 6-28.5 3-63.7-30-91-11.5-9.7-22.3-15-32.2-17z" fill="#de4e77"/><path d="M135.2 37.4C98.2-8.4 57 22 45 35 26 54.6 3 86 12 115c7.8 25 43 40.8 66.3 47.4 13 3.7 29.4 4.5 41-3.6 15-10.6 58.5-69 16-121.4z" fill="#9bd5e1"/><path d="M43.6 33.8c8.7-9 31.4-27 57.7-21.4C113 15 125 22 136.5 36.4c18.7 23 21.2 47.2 16.7 68-6 27.7-24 49.3-33 55.7-10.8 7.7-25.3 7.8-37.7 5.2-1.6-.3-3-.7-4.7-1.2-23.4-6.7-59-22.2-67.4-48.4-2.6-8.6-2.6-17.4-.8-26C14.3 68.2 30 48 43.6 33.8zm57-18C76.3 10.3 54.3 27.3 46 36 32.8 50 17.4 70 13 90.5c-1.8 8-1.8 16.3.6 24.2 7.3 24 42 39.7 65 46.2 1.6.4 3 .8 4.6 1 12 2.7 25.5 2.4 35-4.4 8.2-5.6 26-27 31.6-53.7 4.4-20 2-43-16-65.3-11-13.8-22.4-20.4-33.2-22.7z" fill="#de4e77"/><path d="M67.7 89.8C70.4 78.5 83.7 67 96 69.4c3.4.8 6.8 3 9.4 6.6 2.7 4 3.8 11.8 2.3 19.2-1.4 7-5.8 13.8-14.3 15.2-3 .5-6 .4-9-.2C74 108 66 99 67.6 90v-.2zm3.2 1c-1.4 6 5 14.2 14 16 2.6.6 5.2.7 7.8.3 6.8-1 10.2-6.3 11.6-12.5 1.5-6.5.2-14-1.8-16.6-2.2-3-4.7-4.7-7.4-5.3-4.7-1-10.3 1-15 4.5C75.7 80.8 72 86 71 90.6zM123 56h.2c5.2 1.2 10.2 7 9.2 12.7-.4 1.7-1.4 3.3-3 4.5l-1-1.4-1-1.4c1-.8 1.5-1.6 1.7-2.4.4-1.5-.2-3.6-1.6-5.3-1.2-1.7-3-3-4.6-3.4h-.3c-1-.3-2 0-3 1-1.2 1-2 2.3-2.5 4 0 1-.2 1.8 0 2.7.4 2.3 2 3.4 4.4 4 2.3.6 5.3 0 6-.6l1 1.4 1 1.4c-2.2 1.3-5.4 1.7-8.7 1-3-.5-6.4-2.6-7-6.6-.3-1.4-.2-2.7 0-4 1-4.6 5-8.3 9.3-7.7zM123.2 89.6c2.7-2 6-2.5 8.7-2 2.7.7 5.2 2.4 6 5 .4 1.8.3 3.6 0 5.3-1 4.6-4.7 9.8-10.5 8.8-.7 0-1.4-.4-2-.8l.7-1.5-.8 1.5c-3-1.8-6-6.8-5-11.8.2-1.8 1.2-3.4 2.8-4.6zm11.5 7.6c.3-1.3.3-2.6 0-3.6s-1.6-2.2-3.5-2.6c-2-.4-4 0-6 1.3-1 .7-1.4 1.6-1.6 2.6-1 2.8 2 7.5 3.4 8 .4.3 1 .4 1.2.5 1.5.3 2.7-.2 4-1.4 1-1 2-3 2.5-4.8zM109.6 119.5c2.4-4 8-6.8 12.8-6 2.4.6 4.6 2.4 5.5 5.2.3 1.4.3 3 0 4.7-1 4-4 9.2-10 8.6-.3 0-.6 0-1-.2-5.3-1.2-8.8-6-8-10.7l.6-1.5zm15 .2c-.5-1.8-1.5-2.4-3-2.8-2.8-.8-7.7 1.5-9 4 0 .3-.2.6-.3.8-.2 1 .2 2.6 1.2 4 1 1.3 2.5 2.4 4.4 2.8h.5c3.2.6 5.4-2.6 6-6 .4-1.2.4-2.4.2-3l1.6-.4-1.6.5zM83 127.2c2.7-1.6 5.5-2 8-1.4 3 .7 6 2.8 6.5 6 .2 1.2 0 2.5-.2 3.8-1 5-5 10.3-11 9.3-.8-.3-1.7-.7-2.6-1.3l1-1.4-1 1.4c-2.7-2-5-6.8-4-11.5.3-2 1.4-3.8 3.4-5zm11 7.7c.3-1 .3-2 .2-2.7-.2-1.3-1.7-2.7-4-3.2-1.6-.2-3.6 0-5.3 1-1.3.8-2 1.7-2.2 3-.7 2.7 1.6 7.2 2.8 8l1.5.6c1.6.3 3-.3 4.3-1.6 1.3-1.3 2.4-3.2 2.8-5zM63 115c1 .2 2 .7 3 1.5 2.5 2 4.3 6.6 3.5 11-.5 2.2-1.8 4.4-4.2 5.5-2.3 1.2-5 1.4-7 1-3.5-.8-6.6-3.2-7-6.7 0-1 0-2 .3-3 1-4.8 5.5-10.3 11.3-9.3zm1 4l-1.8-.8c-1.4-.3-3 .3-4.4 1.7-1.4 1.2-2.6 3.3-3 5v2c0 1.4 1.6 3 4 3.6 1.7.4 3.4.2 5-.6 1.4-.7 2-1.7 2.4-3 .7-3-1-7.2-2.2-8l1-1.2-1 1.3zM33 95c1.2-4.5 5-8.2 9.3-7.5h.3c5.2 1.3 10 7 9 12.7-.2 1.7-1.3 3.4-3 4.5-2 1.4-5.3 1.8-8.6 1-3-.5-6.3-2.5-7-6.5-.2-1.4-.2-2.7 0-4zm9-4.2c-1-.2-2.2 0-3.3 1-1 1-2 2.4-2.3 4-.2 1-.2 1.8 0 2.8.3 2.3 2 3.4 4.3 4 2.4.5 5.3 0 6-.6l1 1.3-1-1.3c1-.8 1.6-1.6 1.8-2.5.3-1.4-.3-3.5-1.7-5.3-1.3-1.7-3-3-4.7-3.4zM53.2 57.3c2-4.7 7.6-8.5 13-7.6 2 .4 3.8 1.8 5 4 .8 1.8 1 4.3.4 7-.7 3.4-3.2 7.5-8 7.7-1 0-2 0-2.7-.3-5-1-8.8-5.4-8-10 0 0 0-.4.2-.7zm15-2c-.8-1.5-1.7-2-2.8-2.3-3-.8-8 2.5-9 5.5v.3c-.3 1 0 2.3 1 3.5 1 1.2 2.5 2.2 4.2 2.6h1.8c2.7 0 4.2-2.3 5-5 .3-2 0-4.2-.3-4.8l1.6-.7-1.5.7zM84.5 37.6c2.6-3.8 7-5.3 10.8-4.6 1.6.4 3 1.2 4 2.6 2 2.7 2.4 6.4 1.7 9.7-.7 4-4 7.8-9 7l.3-1.6-.5 1.6c-4-1-9.5-5.8-8.5-12 .2-1 .6-1.8 1.2-2.7zm12 0c-.3-.6-1-1-2-1.3-2.2-.5-5.5.5-7.2 3.2-.4.5-.6 1-.7 1.5-.4 1.6.4 3.5 1.7 5 1.3 1.7 3.2 2.8 4 3h.3c3 .4 4.3-1.4 5-4.4.6-2.6 0-5.5-1-7z" fill="#de4e77"/><path fill="#de4e77" d="M105.2 80.4l1.3 3-35.7 14.2-1.2-3 35.6-14.2"/><path fill="#de4e77" d="M84.6 73.4l11 34.4-3.3 1-11-34.4 3.3-1"/><path fill="#de4e77" d="M74.5 81.8L106 95.5l-1.5 3L73 85l1.5-3.2"/><path fill="#de4e77" d="M97.4 71.3l2.8 1.7-19.6 32.7-3-1.7 19.8-32.7"/><path d="M88.7 88c-1.2-1-2 0-2.2.4-.4.6-.8 1.4-.5 2 .3.7 1.3 1 2 1 .2 0 .6 0 1-.4.2-.3 1-2-.3-3zM43 95.3c-1-1-2 0-2.2.4-.4.6-.8 1.5-.4 2 .3.7 1.2 1 1.8 1 .4 0 .8 0 1-.3.3-.4 1-2-.2-3zM61.2 122.7c-1.2-1-2 0-2.3.4-.4.7-.8 1.5-.5 2.2.3.6 1.3.8 2 .8.2 0 .6 0 .8-.3.4-.3 1-2 0-3zM89 133.3c-1.2-1-2 0-2.3.3-.4.6-.8 1.5-.4 2.2.3.5 1.2.7 1.8.8.5 0 1 0 1-.3.4-.3 1.2-2 0-3zM119.8 121.3c-1-1-2 0-2.2.4-.3.6-.8 1.5-.4 2 .3.7 1.2 1 1.8 1 .4 0 .8 0 1-.3.3-.4 1-2-.2-3zM129.7 95.7c-1.2-1-2 0-2.3.4-.3.6-.7 1.5-.4 2.2.3.6 1.3.8 2 .8.2 0 .6 0 .8-.3.4-.3 1-2 0-3zM124 64.2c-1-1-1.8 0-2 .3-.4.6-1 1.5-.5 2.2.3.5 1.3.7 2 .8.2 0 .6 0 .8-.3.3-.3 1-2-.2-3zM93.4 42.4c-1.2-1-2 0-2.3.3-.2.6-.6 1.5-.3 2.2.3.4 1.3.6 2 .7.2 0 .6 0 1-.3.2-.3 1-2-.3-3zM64.4 57.3c-1.2-1-2 0-2.2.4-.4.6-.8 1.4-.4 2 .3.7 1.2 1 1.8 1 .3 0 .7 0 1-.4.3-.3 1-2-.2-3z" fill="#fff"/><path d="M51 73.6c-1.3-1-2 0-2.4.3-.3.5-.7 1.4-.4 2 .3.6 1.3.8 2 1l1-.4c.2-.3 1-2-.3-3zM75 129.4c-1.2-1-2 0-2.3.4-.4.5-.8 1.4-.4 2 .3.6 1.2 1 1.8 1 .4 0 .8 0 1-.4.4-.3 1.2-2 0-3zM104.4 126.3c-1-1-2 0-2.2.4-.3.6-.7 1.4-.4 2 .3.7 1.3 1 2 1 .2 0 .6 0 .8-.3.4-.4 1-2-.2-3zM122.4 106.7c-1-1-2 0-2.2.4-.4.7-.8 1.5-.4 2.2.3.6 1.2.8 1.8.8.4 0 .8 0 1-.2.3-.4 1-2-.2-3zM128 78.7c-1.3-1-2 0-2.3.4-.4.7-.8 1.5-.5 2.2.4.6 1.3.8 2 .8.2 0 .6 0 1-.3.2-.3 1-2-.3-3zM111.4 47.7c-1-1-2 0-2.2.4-.4.6-.8 1.5-.4 2.2.3.5 1.2.8 1.8.8.3 0 .7 0 1-.3.3-.3 1-2-.2-3zM78 46.8c-1-1-2 0-2 .4-.5.6-1 1.4-.5 2 .3.7 1.2 1 1.8 1 .3 0 .8 0 1-.4.3-.3 1-2-.2-3zM22.5 92c-1-1-2 0-2.2.4-.3.6-.7 1.5-.4 2.2.2.5 1.2.7 1.8.8.3 0 .7 0 1-.3.3-.2 1-2-.3-3zM53.6 139c-1-.8-2 0-2.2.5-.4.6-.8 1.4-.4 2 .3.7 1.2 1 1.8 1 .4 0 .8 0 1-.4.3-.2 1-1.8-.2-3zM89.2 153.4c-1-1-2 0-2.2.3-.4.6-.8 1.5-.4 2 .3.7 1.2 1 1.8 1 .3 0 .7 0 1-.3.3-.3 1-2-.2-3zM127.5 137.3c-1-1-2 0-2.2.4-.3.6-.7 1.4-.4 2 .2.7 1.2 1 1.8 1 .3 0 .7 0 1-.4.3-.3 1-2-.3-3zM146.3 99.6c-1.2-1-2 0-2.2.3-.3.5-.7 1.4-.4 2 .4.6 1.3.8 2 1l1-.4c.2-.3 1-2-.3-3zM139 55.3c-1.2-1-2 0-2.3.4-.4.6-.8 1.5-.4 2 .3.7 1.2 1 1.8 1 .5 0 1 0 1-.3.4-.4 1.2-2 0-3zM89 21c-1-.8-2 0-2.2.5-.3.6-.7 1.4-.4 2 .3.7 1.3 1 2 1 .2 0 .6 0 1-.4.2-.2 1-1.8-.3-3zM54.5 42c-1-1-2 0-2.2.4-.4.6-.8 1.4-.4 2 .2.7 1 1 1.7 1 .4 0 .8 0 1-.4.3-.3 1-2-.2-3zM33.6 64.7c-1-1-2 0-2.2.4-.4.6-.8 1.5-.4 2.2.3.5 1.2.8 1.8.8.3 0 .7 0 1-.3.3-.3 1-2-.2-3zM33.3 119.3c-1.2-1-2 0-2.2.4-.3.5-.7 1.4-.3 2 .3.6 1.2 1 1.8 1 .3 0 .7 0 1-.4.3-.3 1-2-.2-3zM69 146.4c-1.2-1-2 0-2.3.4-.4.6-.8 1.4-.4 2 .3.7 1.2 1 1.8 1 .5 0 1 0 1-.4.4-.3 1.2-2 0-3zM108 147.4c-1.2-1-2 0-2.3.4-.4.5-.8 1.4-.4 2 .3.7 1.2 1 1.8 1 .5 0 1 0 1-.4.4-.3 1.2-2 0-3zM141.5 114.8c-1-1-2 0-2.2.4-.3.6-.7 1.5-.4 2 .2.7 1.2 1 1.8 1 .3 0 .7 0 1-.3.3-.4 1-2-.3-3.2zM147 77.7c-1-1-2 0-2.2.3-.4.6-.8 1.5-.4 2.2.3.5 1.2.8 1.8.8.3 0 .7 0 1-.3.3-.3 1-2-.2-3zM122.8 34.7c-1.2-1-2 0-2.3.4-.3.6-.7 1.5-.4 2.2.4.5 1.4.7 2 .8.3 0 .7 0 1-.3.3-.3 1-2-.2-3zM68.6 29.6c-1-1-2 0-2.2.4-.3.5-.8 1.4-.4 2 .3.6 1.2 1 1.8 1 .4 0 .8 0 1-.4.3-.3 1-2-.2-3zM95.2 60.5c-1.2-1-2 0-2.3.4-.4.4-.8 1.3-.5 2 .3.6 1.3.8 2 .8.2 0 .6 0 1-.3.2-.3 1-2-.3-3zM111 72c-1-1-2 0-2.2.3-.4.6-.8 1.4-.4 2 .3.7 1.2 1 1.8 1 .4 0 .8 0 1-.3.3-.4 1-2-.2-3zM115 94c-1-1-1.8 0-2 .4-.4.5-1 1.4-.5 2 .3.7 1.2 1 1.8 1 .4 0 .8 0 1-.4.3-.3 1-2-.2-3zM109.5 109.4c-1-1-2 0-2.2.4-.3.5-.8 1.4-.4 2 .2.6 1 1 1.7 1 .4 0 .8 0 1-.4.3-.3 1-2-.2-3zM89.4 117.6c-1-1-2 0-2.2.4-.3.6-.8 1.5-.4 2 .3.7 1.3 1 1.8 1 .4 0 .8 0 1-.3.3-.3 1-2-.2-3zM69 108.4c-1-1-2 0-2 .4-.5.5-1 1.4-.5 2 .3.7 1.2 1 1.8 1 .4 0 .8 0 1-.4.3-.3 1-2-.2-3zM60.6 96.3c-1.2-1-2 0-2.3.3-.3.6-.7 1.5-.4 2 .2.7 1.2 1 1.8 1 .3 0 .7 0 1-.3.3-.3 1-2-.2-3zM74 68.8c-1.2-1-2 0-2.3.4-.4.6-.8 1.4-.4 2 .3.7 1.2 1 1.8 1 .5 0 1 0 1-.4.4-.3 1.2-2 0-3zM52.8 109.3c-1-1-2 0-2.2.3-.3.6-.8 1.5-.4 2.2.3.5 1.2.8 1.8.8.4 0 .8 0 1-.3.3-.3 1-2-.2-3z" fill="#de4e77"/><path d="M100.5 78c-1-1-2 0-2.2.3-.4.5-.8 1.4-.4 2 .2.7 1 1 1.7 1 .4 0 .8 0 1-.4.3-.4 1-2-.2-3zM102.6 87c-1-.8-2 0-2.2.5-.4.6-.8 1.5-.4 2 .3.7 1.2 1 1.8 1 .3 0 .8 0 1-.3.3-.4 1-2-.2-3zM99 98c-1.2-1-2 0-2.3.4-.3.6-.7 1.5-.4 2 .3.7 1.3 1 2 1 .2 0 .6 0 1-.3.2-.2 1-2-.4-3zM87.2 102c-1.2-1-2 0-2.3.3-.4.6-.8 1.5-.5 2 .3.7 1.3 1 2 1 .2 0 .6 0 1-.3.2-.3 1-2-.3-3zM78.2 96.6c-1-1-2 0-2.2.4-.3.5-.8 1.4-.4 2 .3.6 1.3 1 1.8 1 .4 0 .8 0 1-.4.3-.3 1-2-.2-3zM75.5 87.7c-1-1-2 0-2.2.4-.4.7-.8 1.6-.4 2.2.2.6 1 .8 1.7 1 .4 0 .8-.2 1-.4.3-.4 1-2-.2-3z" fill="#fff"/><g><path d="M81 79c-1-1-1.8 0-2 .5-.4.5-.8 1.4-.5 2 .3.6 1.3 1 2 1 .2 0 .6 0 .8-.4.4-.2 1-1.8-.2-3z" fill="#fff"/></g><g><path d="M90.7 75c-1-.8-2 0-2.2.5-.4.6-.8 1.4-.4 2 .4.7 1.3 1 2 1 .2 0 .6 0 1-.3.2-.4 1-2-.3-3z" fill="#fff"/></g></g></svg>