<svg xmlns="http://www.w3.org/2000/svg" width="133.1" height="85.4" viewBox="0 0 207.23243 54.897503"><g fill="#fff"><path d="M54.8 59.5c2-1.6 4.2-3 6.5-4.3 2.3-1.2 4.7-2.4 7-3.4 2.4-1 4.8-2 7.3-2.8 2.5-1 5-1.6 7.5-2.3 2.6-.7 5-1.3 7.7-1.8 2.5-.7 5-1 7.7-1.5l7.8-1 7.8-.5h7.8c2.6 0 5.2 0 7.8.2l7.8.6c2.5.2 5 .5 7.7 1 2.6.2 5 .6 7.7 1l7.6 1.6c2.4.5 5 1 7.4 1.8l7.5 2 2.4.8v2.2l-1.3 17.5-.7 8.8-.5 4.4c0 1.2-.2 2.7-.4 4L174 84l-.4-4.5-.8-8.8c-.5-5.8-1-11.6-1.3-17.4l2.4 3-7.6-1-7.4-.7-7.5-.8c-2.4 0-5-.5-7.3-.6-2.5 0-5-.4-7.5-.5l-3.7-.3h-3.8l-7.4-.4c-2.5 0-5-.2-7.5 0H107c-2.6 0-5 0-7.5.3-1.3 0-2.5 0-3.8.3l-3.7.3-7.4.7-7.3 1-3.7.6-3.7.7-7.5 1.6-7.4 2z"/><path d="M55 66.7l.6 6 .6 6.2 1 12-3-2c2.2-1.3 4.5-2.3 6.8-3.4l7-3 7-2.5 7.2-2 7.3-2.2 7.3-1.7 7.4-1.3 7.5-1.2 7.5-1c2.5 0 5-.2 7.6-.4H142l7.6 1c2.5 0 5 .7 7.5 1l7.4 2c2.4.7 4.8 1.6 7 2.5h-15c-2.3.3-5 .3-7.2.5-2.5 0-5 .3-7.3.4l-7.5.8-7.2.8-7.2 1-7 1.2-7.3 1.2-7.2 1.4-7.2 1.4-7 1.5-7.3 1.5-7 1.6-7.3 1.7c-2.4.5-4.8 1-7.2 1.7l-3.2.8.2-3 1-12c0-2 .3-4 .5-6.2l.7-6zm119.4-13.4l.2-.6c0-.4.3-1 .7-1.8.7-1.6 2-3.7 3.6-6 1.6-2.7 4-5.6 6.7-8.8L188 34l1.3-1.3 1.3-1.2c1.7-1.5 3.3-3.3 4.8-5 3-4 5-8.6 5-13.5 0-5-2-10.2-5-15.4L193-6l-3-3.3c-2-2.2-4-4.3-6.5-6.2-2.4-2-5-3.6-7.7-5-2.8-1.6-5.6-3-8.6-4.2l-4.5-1.5c-1.5-.5-3-1-4.6-1.3l-2.3-.6-2.3-.6-4.8-.8c-6.3-.8-12.6-1-18.7-.6-3 0-6 .5-9 1l-4.5.8h-.4l-.2.2h-.2c-.2 0-.6.3-1 .3l-1.7.7c-2.6 1-5 2.4-7.3 3.8l-6.5 4.4c-3.8 3.2-7 6.5-9.3 9.8-2.5 3.3-4 6.5-5 9.3C84 3 83.4 5.3 83 7c0 .6 0 1.2-.2 1.6l-.2-1.8c0-1.8.2-4 .8-7 .7-3 2-6.7 4-10.4 2-3.8 5-7.7 8.8-11.5 3.8-3.7 8.3-7.3 14-10 .6-.6 1.3-1 2.2-1.3l1-.4 1.2-.4 4.5-1.6c3-1 6.2-1.7 9.5-2.3 6.4-1 13.4-1.3 20.6-.8l5.3.7 2.7.2 2.6.6c1.8.3 3.5.7 5.3 1.2 1.8.5 3.6 1 5.3 1.8l5 2c1.7 1 3.3 1.7 5 2.6 3 1.8 6 4 9 6.2 2.7 2.4 5.3 5 7.6 7.8l3 4.3c1 1.4 1.8 3 2.7 4.6 1.3 3 2.6 6.3 3.4 9.7.8 3.3 1 6.8.7 10.2-.3 3.3-1.4 6.6-3 9.3-1.5 2.7-3.5 5-5.5 6.8-2 1.8-4 3.3-6.2 4.6l-1.5.7c-.4.3-1 .6-1.3 1l-2.4 2c-3 2.7-5.4 5.4-7.3 7.6-2 2.2-3.4 4-4.2 5.5-1 1.4-1.2 2.3-1.2 2.3z"/><path d="M98.8-21.3l-.4.4c-.2.5-.6 1-1.2 1.5-1.2 1-3.2 2-6 3-2.7.7-6.2 1.4-10 2-4 .5-8.3 1-13 2-4.6.8-9.6 2-14.6 3.6-5 1.8-10 4-14.7 7.3-2.4 1.5-4.7 3.3-7 5.2-2 2-4.2 4-6 6.3-2 2.2-4 4.6-5.5 7-1 1.4-1.7 2.7-2.5 4l-1.3 2-1 2c-2.8 5.3-5 11-6 16.7C8.5 47 8.2 53 9 58.5c.6 5.2 2.5 10.2 5.2 14.2 2.8 4 6.5 7 10.5 8.8 4 1.8 8 2.5 11.8 2.6 3.7 0 7-.2 9.8-1 2.7-.4 4.8-1 6.2-1.4l2.2-.7-2 1c-1.3.8-3.2 2-6 3l-4.4 1.6c-1.7.5-3.6 1-5.6 1-2 .4-4.2.5-6.6.4-2-.3-4.6-.7-7-1.5-2.7-.8-5-2-7.6-3.6C13 81 10.8 79 8.8 77c-4-5-6.6-11-7.8-17.5-.7-3.2-1-6.5-1-10 0-3.2.4-6.6 1-10 1.3-6.6 3.7-13 7-19l1-2.3 1.4-2.2 2.8-4c2-2.8 4-5.5 6.3-8C24-.8 29.2-5 34.7-8.3c5.5-3.2 11.3-5.4 17-6.8 5.5-1.6 11-2.3 15.7-2.6 5-.3 9.4-.2 13.3-.3 4 0 7.2 0 10-.4 2.7-.3 4.8-1 6-1.7l1.5-1 .4-.4z"/><path d="M34.2 70.5s.5 0 1.2-.3l1.2-.4 1.6-.7 2-1 1-.6 1-.7c1.6-1 3-2.5 4.8-4l2.5-2.4 2.6-2.8 5-6.3 1.4-1.6 1.3-1.8 2.5-3.8c1-1.2 1.8-2.5 2.6-3.7l2.8-4 1.6-2 1.7-1.8c1-1.2 2.2-2.3 3.5-3.4 2.5-2 5.3-3.7 8-5 3-1.4 6-2.2 8.8-2.7 3-.4 5.7-.4 8-.2 2.6.3 4.8.8 6.6 1.4 2 .6 3.4 1.3 4.7 2 1.2.5 2 1 2.8 1.5l1 .5s-.5 0-1.2-.3c-.7 0-1.7-.3-3-.6-2.7-.4-6.5-1-11-.5-4.3.3-9.3 1.6-14 4-2.2 1.6-4.4 3-6.5 5l-3 3-1.4 1.8-1.2 1.6c-1 1-2 2.6-2.7 3.7L68 48l-3 3.5-1.5 1.8L62 55l-6 6-3.3 2.5-3 2.2c-2 1.3-4 2.3-6 3-.8.5-1.7.8-2.5 1l-2.3.6c-1.4.3-2.6.3-3.3.3h-1z"/></g></svg>