<svg xmlns="http://www.w3.org/2000/svg" width="150.3" height="44.6" viewBox="0 0 392.25101 117.596"><switch transform="translate(-48.717 -38.253)"><g><path fill="#212121" d="M356.5 17.3h112v160.5H20.4V17.3h280"/><path d="M20.2 16.8h448.4v1H20.2z"/><path d="M468 17.3h1v160.5h-1z"/><path d="M468.6 16.8h.5v.5h-1l.6.5v-1M20.2 177.3h448.4v1H20.2z"/><path d="M469 177.8v.5h-.4v-1l-.5.5h1M19.7 17.3h1v160.5h-1z"/><path d="M20.2 178.3h-.5v-.5h1l-.5-.5v1M19.7 17.3v-.5h.5v1l.5-.5h-1"/><path d="M57.3 66.5l1-1.5 1-1.5 1-1.6 1.2-1.6 1.2-1.3 1.2-1.3 1.2-1.4 1.4-1.4 1.2-1.3 1.4-1.3 1.5-1L72 50l1.6-1.2.7-.5 1-.5 1.4-1 1.7-1 1.6-1 1.6-.7 1.8-.8 1.6-.7 1.8-.8 1.7-.6 2-.5 1.7-.6 2-.5 1.7-.5 1.8-.4h2l2-.4 1.8-.2h7l3 .2 1.5.2 1.5.2 3 .5 1.4.3 1.3.3 2.8 1 2.8 1 2.7 1 1.3.5 1.3.6 2.6 1.4 1.3.8 1 .6 2.5 1.5 2.3 1.7 2.2 1.7 2.2 1.8 2 2 2 2 2 2.2 1.6 2.2 1.7 2.2 1.5 2.4.7 1.2.6 1.3 1.4 2.6 1.2 2.6 1 2.7.4 1.2.5 1.4.2 1.4.4 1.4.4 1.4.3 1.5.3 1.3.2 1.6.2 1.5V91l.3 1.5V94l.2 1.5v4.4l-.4.8v.7l-.2.8-.7 1.6-.3.6-.3.6-.5.5-.6.5-.7.5-.6.5-.6.5-.8.4-.7.4-1 .5-.3-.3-.2-.4-.3-.6-.2-.6-.5-1.8-.7-2-.5-2.6-.5-2.8-1-6-2-11.5-.5-2.5-.4-2-.6-1.8-.2-1-.6-1.5-.8-1.2-.6-1.2-.8-1-.7-.8-.4-.4-.4-.4-.8-.6-.5-.3-.4-.2-1-.4-.8-.3h-1l-1-.2h-1l-.7.2h-1l-1 .5-1.2.4-1 .5-2 1.2-2.3 1.4-1 .8-1.2 1-.4.4-.6.5-1.2 1-1 1-1 1-1.2 1.2-1.2 1-2.2 2.5.6-2.5.4-2.4v-1l.2-1 .2-1v-2l-.2-1V67l-.4-.7-.2-.5-.4-.7-.4-.5-.5-.5-.8-.7-1-.4-.7-.3h-.5l-.5-.2h-3l-.5.2h-.6l-1.4.5-1.2.5-1.3.6-1.3.7-1.2.8-1.4.8-1.2 1-1.3 1-1.4 1-2.4 2.4-2.5 2.2-2.3 2.3-2.3 2.2-2 2.2-2 2-2.6 3 1-2.6.7-2.4.5-2.3.3-1v-1l.3-2 .2-1.6v-1.7l-.2-.7v-.8l-.3-1.4-.5-1.2-.3-.6-.2-.5-.8-1-.7-1-.5-.3-.4-.4-1-.6-1.3-.5-1-.5-1.2-.3-.8-.2H71.5l-1.5.5-1.7.4-1.5.4-1.6.7-1.7.6-1.5.7-1.6.7-1.5 1-1.7.8zM48.7 97v-4.6l.4-2.2.5-2.3v-.7l.2-.5.5-1.2.5-1 .7-1 .7-1 1-1 .7-1 1-1 .8-1 1-.7 1-1 1-.8 1-.7 1.2-.8 2.2-1.2 2-1.3 2.2-1 2-1 2-.5 1.6-.4.8-.2H75.8l.4.2h.4l.2.5.3.3.4.3v.4l.3.5v.5l.2.5v1.2l-.3 1.3-.2 1.4-.4 1.7-.4 1.7L76 81 74.6 85l-1 1.8-.8 2-2 4-2 4-2 3.8-4 7-3 5.2-1.7 2.6-.4 1v.5l-.2.4v2.2l.2.4.2.4.2.4.5.6.6.5.8.4h.7l.8.3 1-.2h.6l.8-.4.4-.2.3-.4.4-.4.3-.4 8.5-10.2 6.3-7.3 3.5-4 3.6-4 3.7-4 1.8-1.8 1.8-2 3.5-3.6 3.5-3.4 3.3-3 1.5-1.3 1.6-1.2 1.4-1 1.4-1 1-.8 1.2-.5-.2 2-.5 2-.4 1.2-.3 1-.8 2.6-.8 2.5-1 2.8-1 2.6-1 2.7-2.4 5.3-2.3 5.3-1.2 2.5-1.2 2.4-1.2 2-1 2-1.8 3-.5 1.2v.5l-.2.2v1.9l.3.4.2.3.4.8.3.2.2.4.2.4.4.2h.4l.4.3h.6l1 .2h1l.5-.3.4-.3.4-.2.7-.6.4-.5.3-.5.2-.4 1.5-2.5 2-3 2.2-3.2 2.3-3.6 2.5-3.6 2.7-4 2.8-3.7 3-3.8 2.6-3.6 2.7-3.3 2.8-3 1.2-1.3 1.3-1.3 1-1 1.4-1 1-1 1-.7.5-.3.4-.2 1-.4h1.5l.7.5.6.7.8 1 .5 1.2.3 1.2.4 1.3.4 1.4.4 1.5.5 3.3.5 3.6 1 7.4.2 2 .3 1.8.6 3.6.4 1.8v1l.4.6.5 1.6.6 1.4.3.8.3.6.7 1.2.4.7.4.5 1 1 1 .7.6.4.5.4.7.2.6.3H157.6l1.5.2h1.5l1.4-.3 1.2-.5-.7 2-1 2-1 2.3-.4 1-.4 1-1 1.8-1.3 2-1.2 2-1.2 1.7-1.4 1.7-1.5 1.8-1.6 1.6-1.5 1.6-1.7 1.6-1 .7-.8.8-1.6 1.4-2 1.4-1.7 1.3-2 1.3-2 1.2-2 1-2 1-2 .8-2 1-2.2.7-1 .3-1.2.3-2.3.6-2.2.5-2.3.4-2.2.5-2.4.2h-10.8l-1.5-.2-1.4-.3-3-.5-1.3-.4-1.4-.2-3-.8-2.6-1-2.8-1-1.2-.5-1.3-.6-2.5-1.2-1.3-.7-1-.7-2.5-1.5-2.4-1.6-2-1.8-2.2-1.7-2-2-2-2-1.8-2.2-1.8-2.2-1.6-2.3-1.5-2.4-.8-1.2-.8-1.3-1.2-2.4-1-2.6-1.3-2.6-.3-1.4-.6-1.4-.4-1.4-.4-1.4-.4-1.5-.4-1.3-.2-1.5-.3-1.4v-1.4L49 103l-.2-1.4v-4.4z" fill="#fff"/><path clip-rule="evenodd" fill="#fff" fill-rule="evenodd" d="M328.5 121l-.3-.4v-.4l-.2-.3-.2-.8V112h3.6v-1.4h-3.6V106l-1.7.6v4h-2.6v1.4h2.7v8.2l.2.7v.5l.5.4.4.2.7.3.6.3h2.1l.6-.2h.4V121h-2.7M343.2 115.4l-.2-1v-1l-.5-.8-.2-.4-.3-.4-.2-.2-.4-.4-.4-.2-.4-.2-.5-.2h-1l-.5-.3-.6.2h-.7l-.5.2h-.6l-.5.4-.3.5-.4.2-.4.5-.6 1-.4 1-.2.5v.7l-.2.6v1.4l.2.7v.7l.2.7v.6l.4.5.4.4.2.2.4.4.4.4.5.2.4.2.5.2.5.2h2.4l1-.2 1-.2 1-.3-.3-1.5-.7.4h-1l-.8.2h-2l-.7-.2h-.3l-.4-.4-.4-.2-.2-.3-.4-.6-.4-1v-2.2h8v-.8zm-2-.5h-6l.2-.8.2-.6.3-.5.3-.4.5-.4.5-.2.5-.2h1.2l.6.2h.3v.2l.4.3.5.6v.6l.3.6v.7zM350.3 121H349l-.6-.6-.2-.3h-.3l-.4-.8-.3-.7v-3.8l.4-.7.4-.8.3-.2.4-.3.2-.2.3-.3h.4l.4-.2h2.4l.7.2.7.3.3-1.7-1.4-.2H349.3l-.6.4-.5.2-.4.3-.3.2h-.3v.4l-.3.2-.2.3v.2l-.5.5-.2.5v.7l-.4.6v4.2l.3.7.2.4.2.3.3.5.3.4.4.3h.4l.5.2.4.3h1l1 .3 1-.2h1l1-.4h.6l-.2-1.7-.6.2-.8.3h-1.6M365.6 111.5l-.2-.3h-.3l-.2-.4h-.3l-.4-.2h-.3l-.5-.3h-.5l-.7.2h-.8l-.6.3-.5.4-.4.4-.5.5-.3.7v.3l-.2.2V110.6H357v12h1.8v-7l.3-.3v-.5l.2-1 .4-.8.6-.5.3-.2.4-.3.5-.2.7-.2.7.2h.4l.3.3.4.3.3.5v.6l.2.5v8.6h2v-8.4l-.2-.7-.2-.8V112M380.4 116.4V115l-.2-.8-.3-.6-.2-.5-.2-.4-.4-.5-.4-.3-.4-.2-.3-.4-.3-.2h-.5l-.5-.2h-1l-.5-.3-.8.2h-.6l-.5.2h-.6l-.5.5-.4.3-.5.3-.4.4-.5.5-.2.5-.3.5-.2.5-.2.7v.4l-.2.6V118l.2.7.2.7.5 1 .2.5.3.2.4.4.5.4.3.2.5.2.5.2h3.5l.5-.4.6-.2.5-.3.4-.3.5-.5.2-.5.4-.5.2-.5.3-.6.2-.6v-.7l.2-.7v-.6zm-1.8 0l-.2 1.2-.2 1v.5l-.3.5-.6.6-.2.4-.3.2-.4.3H375.7l-.8.2h-.8l-.8-.2-.4-.3-.2-.2-.5-.5-.5-.6-.3-1v-.7l-.2-1v-1.2l.2-1 .4-.8.2-.3.2-.3.3-.3.2-.2.5-.3.8-.2.6-.2h.4l.4.2h.4l.4.2h.2l.4.4.2.2.3.3.4.7.2.4v.6l.2 1 .2 1zM385.3 105h-1.8v17.5h1.8M399.4 116.4V115l-.2-.8-.3-.6-.2-.5-.3-.4-.3-.5-.4-.3-.4-.2-.4-.4-.4-.2h-.5l-.4-.2h-.9l-.5-.3-.6.2h-.6l-.6.2h-.6l-.5.5-.3.3-.5.3-.3.4-.5.5-.3.5-.2.5-.3.5v.7l-.2.4V118.8l.2.7.5 1 .3.5.2.2.4.4.6.4.4.2.5.2.5.2h3.4l.5-.4.5-.2.5-.3.4-.3.5-.5.2-.5.3-.5.3-.5.2-.6.2-.6v-.7l.2-.7v-.6zm-2 0v1.2l-.3 1v1l-.6.6-.3.4v.2l-.5.3H394.6l-.7.2h-1l-.6-.2-.4-.3-.3-.2-.5-.5-.5-.6-.2-1v-.7l-.3-1v-.6l.2-.6v-1l.5-.8v-.3l.4-.3.2-.3.3-.2.5-.3.8-.2.6-.2h.4l.4.2h.3l.5.2h.3l.3.4.4.2.2.3.4.7v.4l.3.6v1l.2 1zM412.6 124.5v-1.1l-.3-.4-.3-.5-.2-.3-.2-.2-.3-.3h-.3l-.3-.2h-.4l-.8-.4h-5l-.3-.3v-.2h-.2v-.7l.3-.2.3-.3.3-.2H408.7l.5-.4.4-.2.4-.3h.5l.3-.5.3-.3.3-.3.2-.5.2-1V114l-.2-.7-.2-.2-.2-.3-.4-.5h2.2v-1.4h-5l-1-.3-1 .2h-.6l-.5.2-.4.3-.5.2-.4.3-.4.2-.5.8-.5.7v.4l-.2.5v2.7l.4.5.2.5.3.4.3.2.5.3-.6.4h-.3l-.2.2v.4l-.2.3v1.2l.2.3h.2l.2.4h.4l-.5.4-.5.3-.3.3-.3.4-.3.5-.3.3v1.8l.3 1 .3.5.3.3.4.2h.3l.4.4h.4l.4.2 1 .2h2.3l.6-.2h.6l.7-.2.5-.3h.3l.5-.4.4-.3.4-.3.2-.4.3-.3.3-.5.2-.4v-1zM410 115v.5l-.3.6v.4l-.2.2-.4.4-.4.4-.5.2h-.6l-.7.3-.6-.3h-.6l-.6-.3-.4-.4-.3-.4-.2-.5-.3-.5V114l.3-.6v-.3l.3-.2.2-.2.2-.2.5-.3.4-.3.7-.2h1.6l.6.2.5.2.5.4.3.4.3.5.2.6v1zm.8 9.6v.7l-.3.5-.3.5h-.2l-.3.3-.6.4h-.7l-.7.4H405l-.5-.4-.6-.2-.3-.3-.3-.5-.2-.4v-1.3l.2-.3v-.4l.4-.2.4-.3.6-.4h4.5l.5.4.4.3.5.2v.4l.2.3v.3zM417.5 122.5v-12h-1.8v12h1.8zm1.5-16.3l-1-1.3-3 2.6.7 1 3.3-2.4zM430 122.6v-8.3l-.2-1v-.7l-.3-.4v-.2l-.3-.3-.2-.2-.2-.3h-.4l-.7-.5-1-.2h-.4l-.7-.2-1 .2h-1.2l-1 .5-1 .3.2 1.5 1-.3.4-.3h.4l1-.4h1.6l.7.2.5.2.2.4.4.4v.5l.2.5v1.6h-1.6l-1.5.4h-.7l-.7.4-1 .5h-.3l-.4.5-.5.2-.2.4-.3.6v.4l-.2.4v1.4h.2l.3.6.3.4.5.4.8.2.6.2h1.4l.7-.2.7-.2.5-.4.5-.4.5-.5.2-.4.2-.6V122.6h1.7zm-2-5.5v1l-.2.7-.3.7-.5.6-.5.5-.2.2-.3.3h-.4l-.3.2-.8.2-.4-.2h-.2l-.4-.2h-.3v-.4l-.2-.4-.2-.3v-.9l.2-.4.3-.4.6-.3.3-.4h.4l1-.4 1-.2h1.6zM439.6 116.6l-.5-.2-1-.5-1-.4-1-.4-.3-.2-.3-.3-.2-.3V113l.2-.4.3-.3.4-.2h.6l.5-.2h.7l1.3.2h.6l.6.2v-1.5l-1-.2h-.7l-.5-.2-1.2.2h-.5l-.4.2-1 .3-.6.3-.5.7-.3.2v.3l-.3.3v.8l-.2.2v.8l.2.4v.2l.4.5.4.4.4.5.5.2 1.2.4 1 .4.5.2h.5l.4.5v.2l.2.2.2.2v1.1l-.2.4-.2.5-.4.2-.4.3h-.5l-.6.2h-1.9l-.6-.2h-.6v1.5l1.2.3h2.3l1-.3 1-.4h.3l.3-.3.4-.3.2-.3h.3v-.5l.2-.4v-.3l.3-.3v-.4l-.2-.6v-.7l-.3-.5-.4-.3M334.4 87.4l-.3-.3-.4-.2-.4-.2h-.3l-.5-.2H330l-.5.4-.7.3-.5.5-.5.5-.3.7-.2.2v.2-2.8h-1.7v12h1.7V93l.2-1v-.5l.2-.5.3-1 .5-.6.5-.5.2-.3.4-.3h.6l1-.2h.4l.5.2.5.3.4.2v.5l.2.5v.5l.2.8v7.8h1.7V88.3l-.3-.3M346.8 94.3l-.4 1-.4.5-.5.6-.3.3-.3.2-.8.2h-1.9l-.4-.4-.4-.4-.2-.4v-.5l-.3-.6v-8.5h-1.6V96.3l.2.3.2.4.3.6.4.2.2.3.3.3h.3l.2.3h.9l.5.2h.7l.7-.2.6-.3.7-.4.5-.4.3-.5.4-.6v-.2l.2-.4v2.8h1.6v-12H347v7.2M362 91.3v-1l-.4-1-.4-.8V88l-.3-.2-.5-.3-.4-.4h-.3l-.3-.2-.6-.3h-1l-.6-.2H356l-.5.3-.5.2-.4.2-.5.4-.3.2-.4.5-.6 1-.4 1v.7l-.2.6V94l.2.7v.6l.4.6.2.4.3.4.3.4.4.4.5.3.4.2h.5l.7.4h3.8l1-.3 1-.2-.3-1.6-.6.4-1 .3-1 .2H357l-.7-.3-.3-.2-.4-.3-.2-.2-.2-.3-.5-.7-.2-1V94l-.2-.6v-1.2h8v-.9zm-2-.5h-6v-.6l.3-.7.3-.5.4-.5.5-.4h.5l.5-.2.6-.2.7.2h.6l.3.2h.3v.4h.2l.4.6.3.5V90.8zM365 86.5h-2l4.5 12h2l4.5-12h-2l-3 8-.2 1-.3 1-.7-2.2M383.8 98.6v-9.3l-.2-.6v-.4l-.3-.3-.2-.4-.2-.2-.2-.3h-.3l-.7-.4-1-.2h-3.2l-1 .5-1 .3.3 1.5.8-.4.4-.3h.5l1-.2h2.2l.4.3.3.5.3.4.2.4.2.5v1.5h-1l-.7.2-1.5.2h-.6l-.6.3-1 .5-.5.2-.3.4-.3.3-.2.3-.3.5-.2.4V97l.4.6.4.3.5.3.6.3H379.2l.6-.3.6-.4.5-.4.5-.5.3-.5.3-.6h.2V98.5h1.6zM382 93l-.2 1v.7l-.5.6-.4.6-.6.4-.2.3-.4.2h-.2l-.4.2H377.5l-.3-.3-.2-.2-.2-.3-.2-.3v-.4l-.2-.4.2-.4v-.5l.5-.3.6-.4.2-.3h.4l1-.3 1.2-.3h1.6zM393.5 92.5l-.5-.2-1-.5-1-.3-1-.3-.5-.3v-.3l-.3-.2v-.2l-.2-.6V89l.4-.5.2-.2.4-.3h.5l.5-.2h1.9l.5.2h.6v-1.4l-1-.2h-2.8l-.5.2-.7.3-.6.3-.5.6h-.4v.4l-.2.4-.2.4V91l.2.2.2.5.4.3.5.4.5.3 1 .3 1 .3.6.2.4.2.4.3.2.2h.2v.5l.2.5v.5l-.2.3-.3.4-.4.3-.3.2h-.5l-.6.2h-2l-.6-.3-.6-.2v1.6l1 .3h2.5l1-.3.8-.3h.3l.5-.3.3-.4.3-.2.3-.2.2-.4V96l.3-.3v-1.5l-.2-.4v-.3l-.3-.5-.4-.4"/><path d="M302.6 125.4v-45h5v45h-5zm-112.6 0v-45h7.6l12.8 38.2 13-38.3h7.5v45h-4.6V85.7L213 125.4h-5l-13.4-39.8v39.8H190zm43.7 0l14.4-45h6.3l14.5 45h-5l-4.5-14h-16l-4.5 14h-5zM251 85l-6.4 22.2H258L251 85zm26.4 40.4l-14.7-45h5l13 39.3 13-39.4h5l-15 45h-6.3z" fill="#fff"/></g></switch></svg>