<svg xmlns="http://www.w3.org/2000/svg" xmlns:xlink="http://www.w3.org/1999/xlink" viewBox="0 0 647.76429 890.73926" height="950121.9" width="690948.6"><defs><linearGradient id="a"><stop offset="0" stop-color="#8b4513"/><stop offset="1" stop-color="#8b4513" stop-opacity="0"/></linearGradient><linearGradient gradientUnits="userSpaceOnUse" y2="502.2" x2="382.8" y1="875.4" x1="311.5" id="b" xlink:href="#a"/></defs><g transform="translate(-49.4 -111.212)"><path d="M262 146.8c-18 24-19.4 54.6-8.7 81.8 10.3 26.3 32.2 49.6 61.2 59.3 1.2 11.2 3.6 23 6.7 35 9.5 36.4 27.4 80 38.4 116.4 4.7 15.8 8.4 30.7 10.3 44.5C359.7 477 349 472 338.5 468c-21.5-8-46.4-12.8-65.5-18.6-20-6-38.2-14.2-51.7-30.6-13.6-16.6-22.8-42-23.7-82.8-1 40.5 6.2 67.2 19.2 86 11.8 17.2 28 27.4 46 35.3-14 7-25.3 17-36.4 25-7.3 5-14.8 9.7-23.5 12.4-9 2.7-19 3.7-31 1.7 12 2.8 22.2 2.5 31.4.4 9.3-2 17.5-6.2 25.4-11 15-9 28-19.3 45-24 20 7.6 38.5 12.5 58.3 21.8 14.4 6.7 27.6 15 39 27-.5 8-2 14.8-4.6 20.8-16.4 43.8-31.6 80-45.5 115.5-2.6 6.3-5 12.5-7.3 18.7-24-13.8-46-22-66-28 12.8-16.5 19-34.3 20.6-52.6 2-21-1.7-43-7.6-65 3 23 3.5 44.4-1.2 63.6-4.7 19-14.3 35.3-31 49.2-21.8-5.3-39-8-55-13.4-9-3-17-7-24-12.5-7.2-5.7-13.6-13-19-23.6-11-21.2-18-54-19.4-106-1.3 51.6 2.7 85.8 11.8 109.4 4.6 12 10.6 21.5 18 29.4 7.6 7.8 16.4 13.7 26 18.6 6.7 3.4 14 6.3 21.7 9.2-10.3 14.4-23.7 22.5-39 25.2-16.8 3-35.7-1-53.5-10.6 16.5 11.4 35.6 18 54.4 17 18.3-.8 36.4-9 50.7-27 10.4 3.4 21 7 31.8 11 21.5 8.3 44.7 19 69.6 37-6 17.8-11.5 35.5-16 53.6-8.8 35-14 71.3-14.3 112.4-.2 41.2 4.6 86.4 15.5 139.4l90-1.2c-13-47.8-31.4-105.6-34.4-141-3-35.3-1.6-66.8 3-98 4.6-30.8 12.3-61.4 22-95.5 16.3-7.4 33-11 50.2-11.2 19.2-.3 39 3.3 58.8 9.6 40.8 13 80 36.3 114.4 55.7-31.5-22.8-69.2-50.6-109.8-68l-1.8-1c11.4-1.7 22-4.5 31.7-8.8 17-7.5 30.2-19.4 38.7-37.4-10.4 17-24.6 26.6-41 31.6s-35.5 6-56.4 4.7v.5c-11-3.2-22.4-5.4-34-6.4-13.7-1.2-27.8-.6-42.2 2.3l13.8-45c27.6-16.5 52-24.5 73.8-29.4 13.7-3 26-5 38-7 11.6-2 22.6-4 32.4-8 4.2-1.5 8.2-3.4 12-5.8 12.7 10.6 24.7 16.4 36 18.3 11.7 2 22.2-.3 32-5C634 547 651 527.3 668 509c-18.6 17.4-36.4 35-55.7 42-9.3 3.6-18.6 4.5-28.3 2-9-2-18.7-7.4-29.3-16.8 1.8-1.8 3.6-3.7 5.4-6 7-8.4 12.5-19.7 16.6-35 8-30 11.4-77.2 10.2-152.2-1 75.3-6.7 121.7-16.6 150.3-5 14.3-11 23.8-17.6 30.3-6.6 6.3-14 10-22.6 12-8.7 2.4-18.6 3.3-30.3 4.2-8.3.6-17.6 1.2-27.8 2.3 7.3-9.2 12.3-19.8 15.7-31 6.4-21.4 7-46 6-69.2-1.2 23.6-4.3 47-12.7 67-6.3 15-15.4 27.2-28.5 36-16 2.7-33.4 7.2-52.4 15l4.6-15.3c5.4-18.8 4.6-38.5 1-57.4-3.4-18.8-10-38.2-17.5-57.3 12.7-13.3 25.8-25.2 39-37 17.5-15.8 35-31 50.5-48.5 9-10.3 17.5-21.4 25-33.6 19 4.8 34 1.2 46-6.5 12-7.5 21-19.3 28.6-31-9.3 10.7-19.4 20.4-31.4 25.8-11 5-23 6-37.4 1.3 3-5.6 5.7-11.6 8.2-18 9.8-24.4 15.8-53.4 16.7-90-3 36.5-11.2 64.6-22.6 87.4-11.3 22.8-26 40.3-42.4 55.6-16.3 15.2-34.4 28.3-53.4 42.5-12 8.8-24.3 18-36.5 28.5-13.5-31-27.6-59.6-38-89-6.3-17.4-10.6-33.5-11.7-48-1-14.6 1-27.4 7.6-38.5 6.7-11.2 18.5-21 37.7-28.4 19.3-7.2 45.4-11.6 80-12.5-4.3 0-8.5-.2-12.6 0-28.5 0-51 2.6-69 7.8-20.3 5.8-35 15-44.5 27.4-9.7 12.4-14 27.6-14.5 44.5v5.8c-24-7.6-44-26-54.8-48.8-11.8-24.6-13-54.2 3-79.4z"/><path d="M262 146.8c-18 24-19.4 54.6-8.7 81.8 10.3 26.3 32.2 49.6 61.2 59.3 1.2 11.2 3.6 23 6.7 35 9.5 36.4 27.4 80 38.4 116.4 4.7 15.8 8.4 30.7 10.3 44.5C359.7 477 349 472 338.5 468c-21.5-8-46.4-12.8-65.5-18.6-20-6-38.2-14.2-51.7-30.6-13.6-16.6-22.8-42-23.7-82.8-1 40.5 6.2 67.2 19.2 86 11.8 17.2 28 27.4 46 35.3-14 7-25.3 17-36.4 25-7.3 5-14.8 9.7-23.5 12.4-9 2.7-19 3.7-31 1.7 12 2.8 22.2 2.5 31.4.4 9.3-2 17.5-6.2 25.4-11 15-9 28-19.3 45-24 20 7.6 38.5 12.5 58.3 21.8 14.4 6.7 27.6 15 39 27-.5 8-2 14.8-4.6 20.8-16.4 43.8-31.6 80-45.5 115.5-2.6 6.3-5 12.5-7.3 18.7-24-13.8-46-22-66-28 12.8-16.5 19-34.3 20.6-52.6 2-21-1.7-43-7.6-65 3 23 3.5 44.4-1.2 63.6-4.7 19-14.3 35.3-31 49.2-21.8-5.3-39-8-55-13.4-9-3-17-7-24-12.5-7.2-5.7-13.6-13-19-23.6-11-21.2-18-54-19.4-106-1.3 51.6 2.7 85.8 11.8 109.4 4.6 12 10.6 21.5 18 29.4 7.6 7.8 16.4 13.7 26 18.6 6.7 3.4 14 6.3 21.7 9.2-10.3 14.4-23.7 22.5-39 25.2-16.8 3-35.7-1-53.5-10.6 16.5 11.4 35.6 18 54.4 17 18.3-.8 36.4-9 50.7-27 10.4 3.4 21 7 31.8 11 21.5 8.3 44.7 19 69.6 37-6 17.8-11.5 35.5-16 53.6-8.8 35-14 71.3-14.3 112.4-.2 41.2 4.6 86.4 15.5 139.4l90-1.2c-13-47.8-31.4-105.6-34.4-141-3-35.3-1.6-66.8 3-98 4.6-30.8 12.3-61.4 22-95.5 16.3-7.4 33-11 50.2-11.2 19.2-.3 39 3.3 58.8 9.6 40.8 13 80 36.3 114.4 55.7-31.5-22.8-69.2-50.6-109.8-68l-1.8-1c11.4-1.7 22-4.5 31.7-8.8 17-7.5 30.2-19.4 38.7-37.4-10.4 17-24.6 26.6-41 31.6s-35.5 6-56.4 4.7v.5c-11-3.2-22.4-5.4-34-6.4-13.7-1.2-27.8-.6-42.2 2.3l13.8-45c27.6-16.5 52-24.5 73.8-29.4 13.7-3 26-5 38-7 11.6-2 22.6-4 32.4-8 4.2-1.5 8.2-3.4 12-5.8 12.7 10.6 24.7 16.4 36 18.3 11.7 2 22.2-.3 32-5C634 547 651 527.3 668 509c-18.6 17.4-36.4 35-55.7 42-9.3 3.6-18.6 4.5-28.3 2-9-2-18.7-7.4-29.3-16.8 1.8-1.8 3.6-3.7 5.4-6 7-8.4 12.5-19.7 16.6-35 8-30 11.4-77.2 10.2-152.2-1 75.3-6.7 121.7-16.6 150.3-5 14.3-11 23.8-17.6 30.3-6.6 6.3-14 10-22.6 12-8.7 2.4-18.6 3.3-30.3 4.2-8.3.6-17.6 1.2-27.8 2.3 7.3-9.2 12.3-19.8 15.7-31 6.4-21.4 7-46 6-69.2-1.2 23.6-4.3 47-12.7 67-6.3 15-15.4 27.2-28.5 36-16 2.7-33.4 7.2-52.4 15l4.6-15.3c5.4-18.8 4.6-38.5 1-57.4-3.4-18.8-10-38.2-17.5-57.3 12.7-13.3 25.8-25.2 39-37 17.5-15.8 35-31 50.5-48.5 9-10.3 17.5-21.4 25-33.6 19 4.8 34 1.2 46-6.5 12-7.5 21-19.3 28.6-31-9.3 10.7-19.4 20.4-31.4 25.8-11 5-23 6-37.4 1.3 3-5.6 5.7-11.6 8.2-18 9.8-24.4 15.8-53.4 16.7-90-3 36.5-11.2 64.6-22.6 87.4-11.3 22.8-26 40.3-42.4 55.6-16.3 15.2-34.4 28.3-53.4 42.5-12 8.8-24.3 18-36.5 28.5-13.5-31-27.6-59.6-38-89-6.3-17.4-10.6-33.5-11.7-48-1-14.6 1-27.4 7.6-38.5 6.7-11.2 18.5-21 37.7-28.4 19.3-7.2 45.4-11.6 80-12.5-4.3 0-8.5-.2-12.6 0-28.5 0-51 2.6-69 7.8-20.3 5.8-35 15-44.5 27.4-9.7 12.4-14 27.6-14.5 44.5v5.8c-24-7.6-44-26-54.8-48.8-11.8-24.6-13-54.2 3-79.4z" fill="url(#b)"/><g id="c" fill="#6b8e23"><path d="M493.3 398a18 23.8 0 0 0-9.5 21 18 23.8 0 0 0 9.4 21 18 23.8 0 0 0 9.5-21 18 23.8 0 0 0-9.4-21zM455.5 413.6a23.8 18 45 0 0 8 21.5 23.8 18 45 0 0 21.6 8.3 23.8 18 45 0 0-8-21.5 23.8 18 45 0 0-21.5-8.2zM439.8 451.4a23.8 18 0 0 0 21 9.5 23.8 18 0 0 0 21-9.6 23.8 18 0 0 0-21-9.4 23.8 18 0 0 0-21 9.4zM455.5 489.2a18 23.8 45 0 0 21.5-8 18 23.8 45 0 0 8-21.6 18 23.8 45 0 0-21.4 8 18 23.8 45 0 0-8 21.6zM493.2 504.8a18 23.8 0 0 0 9.5-21 18 23.8 0 0 0-9.4-20.8 18 23.8 0 0 0-9.5 21 18 23.8 0 0 0 9.4 20.8zM531 489.2a23.8 18 45 0 0-8-21.5 23.8 18 45 0 0-21.6-8 23.8 18 45 0 0 8 21.4 23.8 18 45 0 0 21.6 8.2zM546.7 451.4a23.8 18 0 0 0-21-9.4 23.8 18 0 0 0-21 9.4 23.8 18 0 0 0 21 9.5 23.8 18 0 0 0 21-9.6zM531 413.6a18 23.8 45 0 0-21.5 8.2 18 23.8 45 0 0-8 21.4 18 23.8 45 0 0 21.4-8 18 23.8 45 0 0 8-21.6z"/></g><use height="100%" width="100%" transform="rotate(58.628 286.803 185.438) scale(.7613)" xlink:href="#c"/><use height="100%" width="100%" transform="matrix(.571 -.258 .258 .571 -130.687 404.104)" xlink:href="#c"/><use height="100%" width="100%" transform="scale(.79) rotate(-33.428 600.906 1121.007)" xlink:href="#c"/><use height="100%" width="100%" transform="rotate(-6.715 2366.79 3580.507) scale(.9236)" xlink:href="#c"/><use height="100%" width="100%" transform="rotate(-32.516 272.656 516.642) scale(1.056)" xlink:href="#c"/><use height="100%" width="100%" transform="scale(.771) rotate(39.35 618.907 827.15)" xlink:href="#c"/><use height="100%" width="100%" transform="rotate(-1 13335.884 -8351.913) scale(.736)" xlink:href="#c"/><use height="100%" width="100%" transform="rotate(25.367 681.403 438.525) scale(.712)" xlink:href="#c"/><use height="100%" width="100%" transform="matrix(.055 -.896 .896 .055 -88.005 779.5)" xlink:href="#c"/><use height="100%" width="100%" transform="rotate(-2.783 7358.64 -2842.975) scale(.84)" xlink:href="#c"/><use height="100%" width="100%" transform="matrix(.7613 -.0137 .0137 .7613 -121.37 -185.02)" xlink:href="#c"/><use height="100%" width="100%" transform="matrix(.575 .4232 -.4232 .575 442.065 -271.372)" xlink:href="#c"/><use height="100%" width="100%" transform="matrix(.7257 -.1674 .1674 .7257 -238.885 254.734)" xlink:href="#c"/><use height="100%" width="100%" transform="rotate(-23.484 932.652 -266.44) scale(.7533)" xlink:href="#c"/><g fill="#6b8e23"><path d="M546.8 569.5a13.8 18.3 0 0 0-7.3 16 13.8 18.3 0 0 0 7.3 16.2 13.8 18.3 0 0 0 7.2-16 13.8 18.3 0 0 0-7.2-16.2zM517.7 581.5A18.3 13.8 45 0 0 524 598a18.3 13.8 45 0 0 16.5 6.3 18.3 13.8 45 0 0-6.3-16.5 18.3 13.8 45 0 0-16.5-6.3zM505.7 610.6a18.3 13.8 0 0 0 16 7.2 18.3 13.8 0 0 0 16.2-7.2 18.3 13.8 0 0 0-16.2-7.3 18.3 13.8 0 0 0-16 7.3zM517.7 639.6a13.8 18.3 45 0 0 16.5-6.2 13.8 18.3 45 0 0 6.3-16.5 13.8 18.3 45 0 0-16.5 6 13.8 18.3 45 0 0-6.3 16.6zM546.8 651.6a13.8 18.3 0 0 0 7.2-16 13.8 18.3 0 0 0-7.2-16 13.8 18.3 0 0 0-7.3 16 13.8 18.3 0 0 0 7.3 16zM575.8 639.6a18.3 13.8 45 0 0-6.2-16.5A18.3 13.8 45 0 0 553 617a18.3 13.8 45 0 0 6.3 16.6 18.3 13.8 45 0 0 16.5 6.2zM587.8 610.6a18.3 13.8 0 0 0-16-7.3 18.3 13.8 0 0 0-16.2 7.3 18.3 13.8 0 0 0 16 7.2 18.3 13.8 0 0 0 16.2-7.2zM575.8 581.5a13.8 18.3 45 0 0-16.5 6.3 13.8 18.3 45 0 0-6.3 16.5 13.8 18.3 45 0 0 16.6-6.3 13.8 18.3 45 0 0 6.2-16.5z"/></g><g fill="#6b8e23"><path d="M585.5 230a13.8 18.3 12 0 0-10.4 14.4 13.8 18.3 12 0 0 3.8 17.2 13.8 18.3 12 0 0 10.5-14.2 13.8 18.3 12 0 0-3.8-17.3zM554.6 235.8a18.3 13.8 57 0 0 2.7 17.5A18.3 13.8 57 0 0 572 263a18.3 13.8 57 0 0-2.5-17.6 18.3 13.8 57 0 0-15-9.6zM536.8 261.7a18.3 13.8 12 0 0 14.2 10.5 18.3 13.8 12 0 0 17.3-3.7A18.3 13.8 12 0 0 554 258a18.3 13.8 12 0 0-17.2 3.7zM542.5 292.6A13.8 18.3 57 0 0 560 290a13.8 18.3 57 0 0 9.5-15A13.8 18.3 57 0 0 552 278a13.8 18.3 57 0 0-9.5 14.8zM568.4 310.5a13.8 18.3 12 0 0 10.4-14.2A13.8 18.3 12 0 0 575 279a13.8 18.3 12 0 0-10.4 14.2 13.8 18.3 12 0 0 3.8 17.3zM599.3 304.8a18.3 13.8 57 0 0-2.7-17.5 18.3 13.8 57 0 0-14.8-9.5 18.3 13.8 57 0 0 2.6 17.4 18.3 13.8 57 0 0 15 9.6zM617 279a18.3 13.8 12 0 0-14-10.6 18.3 13.8 12 0 0-17.4 3.8 18.3 13.8 12 0 0 14.3 10.4 18.3 13.8 12 0 0 17-3.7zM611.4 248a13.8 18.3 57 0 0-17.4 2.6 13.8 18.3 57 0 0-9.6 15 13.8 18.3 57 0 0 17.5-2.8 13.8 18.3 57 0 0 9.4-14.8z"/></g><use xlink:href="#c" transform="matrix(.055 -.896 .896 .055 -163.468 665.62)" width="100%" height="100%"/><use height="100%" width="100%" transform="matrix(.055 -.896 .896 .055 -1.566 1066.257)" xlink:href="#c"/><use xlink:href="#c" transform="rotate(-86.486 535.1 253.08) scale(.6918)" width="100%" height="100%"/><use height="100%" width="100%" transform="rotate(-48.672 190.59 394.97) scale(.872)" xlink:href="#c"/><use xlink:href="#c" transform="rotate(-86.486 397.336 498.942) scale(.872)" width="100%" height="100%"/><use xlink:href="#c" transform="rotate(6.494 -1658.936 -1877.22) scale(.7913)" width="100%" height="100%"/><path d="M359.5 986.5c-21.7-20.6-20.5-49-28.8-74-22.7-68 9.6-134.4 9.6-195 0-9.3 13.5-34 6.8-27.4-48.2 48.5-76.8 290.6 12.5 296.5z" opacity=".1"/><use xlink:href="#c" transform="rotate(-2.82 6971.658 -1953.09) scale(.7885)" width="100%" height="100%"/><use xlink:href="#c" transform="matrix(.3526 .363 -.363 .3526 506.682 -72.727)" width="100%" height="100%"/><use height="100%" width="100%" transform="matrix(.46 .4735 -.4735 .46 580.444 116.522)" xlink:href="#c"/><use xlink:href="#c" transform="matrix(.3526 .363 -.363 .3526 158.182 330.655)" width="100%" height="100%"/><use height="100%" width="100%" transform="scale(.506) rotate(45.827 7.13 580.245)" xlink:href="#c"/><use xlink:href="#c" transform="rotate(45.825 -35.648 354.233) scale(.7115)" width="100%" height="100%"/></g></svg>