<svg xmlns="http://www.w3.org/2000/svg" viewBox="0 0 798.54272 799.1661" height="852443.8" width="851778.9"><path d="M-1289.3 482.2v-400h800v800h-800v-400z" fill="#fafbfd"/><path d="M373 798.5c-32-3-51-6.2-74.2-12.2-146.8-38-261-158.2-291.2-307-6-30-7.6-45.7-7.6-80C0 365.6 1.5 350 7.4 320c12.2-61 41-122.2 81.4-172.5C138.3 85.8 211.6 37.3 289.3 15 307 10 329.8 5.2 351 2.3c22.8-3 73.7-3 96.4 0C496.4 9 536.2 21 578.2 42c38.4 19.3 73 44.3 103.6 74.8 53.4 53.5 90.6 120.6 107.3 194 7.2 31.2 9.5 53 9.5 88.6 0 26.3-.5 35.4-2.8 52-10 70.6-35.3 132.5-77.2 188.4-75.3 100.4-196.4 160.4-321 159.4-11 0-22-.4-24.5-.7zM263.6 643.7c18-4.7 35.2-18.7 43.6-35.4 7.6-15.4 13-14-50.7-14-30.5 0-56-.4-57-1-1-.7-1.5-3-1.3-6l.4-4.8 57.3-.6c49-.7 57.3-1 58.3-2.6 2-3 1.5-28.2-.5-30-1-.8-19-1.3-58.4-1.6l-56.8-.3v-11.3l57.5-.4c44-.3 57.7-.8 58.5-2 1.3-2 1.3-27.3 0-29.3-.8-1.2-14.4-1.6-58.4-2l-57.4-.2v-11.3l56.3-.7c63.6-.7 59 .3 54-11.4-6.5-14.4-18.5-26.7-33-34-12.8-6.4-18.7-7-65-7-47.7 0-52.3.5-67.2 8.4-15.4 8-26 20.7-33 39-3.3 8-3.3 8.6-3.8 52-.5 49 .2 55.3 7.5 70.3 5 10.3 18.8 24.6 28.5 29.5 15.4 8 16.3 8 67 8 37.7 0 47.6-.2 53.6-1.8zm215.5 0c81.5-11.5 150.7-62 187.3-136.2 47.3-96.4 26.3-212.8-51.8-287.2-34-32.3-80-55.6-126.5-64-16-3-55-4-72.4-2-42 5-83.6 21.7-118 47.3-12 9-35.8 30.8-35.8 32.8 0 .6 3.4 4.3 7.6 8.3C292.6 265 308 298 313 336.3c2.4 17.2 1 49.2-3 65.6-1.6 7-4 15.4-5 18.3-1 3-1.6 6-1.2 7 .3.8 3.3 3.6 6.7 6.2 13 10 24.4 29.5 28 48 2 8.5 2 18 1.7 65.5-.4 53.4-.5 55.8-3 63.6-1.7 4.5-3 8.3-3 8.5 0 .4 4.7 2.7 10.4 5.3 19.3 9 47.4 17 69.7 20 13.7 1.7 50.8 1.4 64.8-.6zm-35-103c-18.6-3-38-12.3-54.4-26.3-10-8.3-21.6-22-21.6-25 0-2 11.2-10 13.6-10 .5 0 4.7 4.3 9.5 9.5 41.6 45.8 95.7 44.2 136.7-4l5.3-6.2 5.7 3c3 1.8 6.6 4.2 7.7 5.4 1.8 2 1.7 2.6-1.5 7-5 7-22.5 23.6-31 29.4-10 6.5-24.2 13-33.8 15-10.5 2.6-27.2 3.4-36.3 2zm-85.3-136.3c-1.8-3.4-3.2-7-3.2-8 0-1.3 7.4-5.7 20.6-12.3 11.5-5.6 20.8-10.8 20.8-11.6 0-.7-8.6-5.2-19-10-10.6-4.5-20-9-21-10-1.3-1.3-1.2-2.7 1.4-8.7 1.6-4 3.6-7.4 4.3-7.7.8-.3 15.5 5.7 32.6 13.3 36.5 16.2 40.4 19.3 34.8 27.3-2 3-62.6 34-66 34-1 0-3.4-2.8-5-6.2zm161.8 0c-17.6-5.3-27.6-24-22-40.8 4.5-13.5 16-21.7 30.7-21.7 18.5 0 31.8 13.4 31.7 31.8-.3 20.8-21 36.6-40.5 30.7zM211 414c31.8 0 60 .4 63 1 5.2 1 5.3 1 7-3.2 1-2.4 3.2-10.2 4.7-17.3 3.7-17 4-48.6.7-65.3-9.3-46.5-35.5-79.6-67.3-84.8-20-3.3-41 6.2-57.3 25.6-8.2 10-19 32-23 47-8 30-7 72.2 2.3 94.4 2 4.6 2 4.6 7.3 3.6 3-.6 31.2-1 62.8-1z" fill="#65acb0"/></svg>