<?xml version="1.0" encoding="utf-8"?>
<!-- Generator: Adobe Illustrator 16.0.0, SVG Export Plug-In . SVG Version: 6.00 Build 0)  -->
<!DOCTYPE svg PUBLIC "-//W3C//DTD SVG 1.1//EN" "http://www.w3.org/Graphics/SVG/1.1/DTD/svg11.dtd" [
	<!ENTITY ns_extend "http://ns.adobe.com/Extensibility/1.0/">
	<!ENTITY ns_ai "http://ns.adobe.com/AdobeIllustrator/10.0/">
	<!ENTITY ns_graphs "http://ns.adobe.com/Graphs/1.0/">
	<!ENTITY ns_vars "http://ns.adobe.com/Variables/1.0/">
	<!ENTITY ns_imrep "http://ns.adobe.com/ImageReplacement/1.0/">
	<!ENTITY ns_sfw "http://ns.adobe.com/SaveForWeb/1.0/">
	<!ENTITY ns_custom "http://ns.adobe.com/GenericCustomNamespace/1.0/">
	<!ENTITY ns_adobe_xpath "http://ns.adobe.com/XPath/1.0/">
]>
<svg version="1.1" id="Capa_1" xmlns:x="&ns_extend;" xmlns:i="&ns_ai;" xmlns:graph="&ns_graphs;"
	 xmlns="http://www.w3.org/2000/svg" xmlns:xlink="http://www.w3.org/1999/xlink" x="0px" y="0px" width="1366px" height="768px"
	 viewBox="0 0 1366 768" enable-background="new 0 0 1366 768" xml:space="preserve">
<metadata>
	<sfw  xmlns="&ns_sfw;">
		<slices></slices>
		<sliceSourceBounds  height="2527.807" width="4471.249" y="-2440.094" x="-1010.696" bottomLeftOrigin="true">
			</sliceSourceBounds>
	</sfw>
</metadata>
<radialGradient id="SVGID_1_" cx="-196.9424" cy="166.2402" r="452.7604" gradientTransform="matrix(2.111 0 0 0.9608 1094.3071 118.0737)" gradientUnits="userSpaceOnUse">
	<stop  offset="0" style="stop-color:#FFFFFF"/>
	<stop  offset="0.1716" style="stop-color:#FFFFFC"/>
	<stop  offset="0.3031" style="stop-color:#FFFDF2"/>
	<stop  offset="0.4214" style="stop-color:#FFFBE2"/>
	<stop  offset="0.5318" style="stop-color:#FFF8CB"/>
	<stop  offset="0.6369" style="stop-color:#FFF4AD"/>
	<stop  offset="0.7379" style="stop-color:#FFF088"/>
	<stop  offset="0.8357" style="stop-color:#FFEA5C"/>
	<stop  offset="0.9284" style="stop-color:#FFE42B"/>
	<stop  offset="1" style="stop-color:#FFDE00"/>
</radialGradient>
<rect x="-9.504" y="-3.1" fill="url(#SVGID_1_)" width="1376.129" height="561.793"/>
<path fill="#FFDE00" d="M-9.504,413.975c63.833-1.199,798.418-60.342,1376.129,131.785v346.617H-9.504V413.975z"/>
<path fill="#FFFFFF" d="M270.17,503.594c-95.334,0-188.77,3.855-279.674,11.225v399.061h1376.129V701.736
	C1075.399,578.504,691.244,503.594,270.17,503.594z"/>
<path fill="#524C40" d="M723.506,96.25c201.989-135.164,648.999-58.852,648.999-58.852V-4.1H890.249h-78.462
	c-11.32,8.676-90.039,73.17-105.641,85.264c-9.041,7.008-25.04,17.846-39.232,28.633l-5.271-14.68
	c1.999-7.047,6.43-25.199,2.343-35.645c-5.155-13.162-28.555-26.121-28.555-26.121s-8.377,25.406-3.222,38.568
	c4.204,10.738,20.556,21.342,26.431,24.883l5.449,15.16c-8.363,6.473-15.859,12.838-20.568,18.244
	c-51.562,59.189-136.567,75.449-136.567,75.449c-102.607,11.318-174.073,9.037-254.649,1.506
	c-53.118-4.959-29.452-30.939-21.878-39.23C299.968,91.816,340.966-7.115,340.966-7.115h-93.56c0,13.959-7.126,32.939-11.318,40.744
	c-2.105,3.91-7.9,10.504-15.308,18.113l-19.007-6.217c-4.332-5.912-15.931-20.551-26.694-23.734
	c-13.55-4.016-38.151,6.498-38.151,6.498s14.912,22.203,28.464,26.217c11.062,3.277,29.463-3.117,35.87-5.576l16.863,5.516
	c-14.893,15.021-34.875,33.1-45.417,42.562C127.38,137.688-9.506,211.129-9.506,211.129v107.703
	c30.178-15.883,58.147-27.506,84.225-35.896l12.604,13.432c0.966,7.258,4.113,25.672,12.022,33.637
	c9.956,10.023,36.576,12.617,36.576,12.617s-2.403-26.646-12.367-36.67c-8.127-8.182-27.347-11.416-34.143-12.324l-11.106-11.824
	c77.5-24.217,138.155-19.891,190.225-14.277c107.47,11.598,209.492,15.363,279.17,10.561c22.917-1.574,58.86-8.133,99.105-16.871
	l-9.678,14.992c-6.814,2.684-23.93,10.178-29.743,19.77c-7.327,12.092-3.429,38.547-3.429,38.547s25.277-8.762,32.604-20.848
	c5.986-9.861,4.485-29.295,3.728-36.107l11.222-17.377c108.092-23.705,718.573-151.279,718.573-151.279V56.096
	c-26.974,33.846-541.92,140.488-583.562,148.811l7.568-15.639c6.436-3.502,22.493-13.039,27.095-23.271
	c5.79-12.891-1.331-38.676-1.331-38.676s-24.003,11.795-29.798,24.693c-4.723,10.518-0.854,29.615,0.731,36.289l-4.479,9.262
	c-0.458-5.129-1.909-15.586-6.261-20.498c-5.899-6.658-22.524-9.232-22.524-9.232s0.561,16.809,6.46,23.465
	c4.821,5.438,16.792,8.152,21.021,8.965l-2.637,5.447c-46.132,8.549-92.795,6.217-122.424,2.869
	C593.686,201.1,723.506,96.25,723.506,96.25z"/>
<polygon fill="#3C3C3B" points="1086.702,265.143 1388.488,265.143 1388.488,346.557 1086.702,346.557 1121.598,305.85 "/>
<g>
	<path fill="#FFFFFF" d="M1147.432,291.5l0.484-0.781l0.479-0.727l0.545-0.721l0.543-0.723l0.546-0.666l0.604-0.662l0.602-0.664
		l0.66-0.6l0.608-0.604l0.665-0.602l0.719-0.604l0.667-0.541l0.724-0.543l0.363-0.24l0.422-0.242l0.722-0.48l0.786-0.424
		l0.785-0.482l0.785-0.361l0.845-0.42l0.784-0.361l0.846-0.303l0.846-0.301l0.903-0.303l0.847-0.24l0.904-0.24l0.904-0.182
		l0.904-0.182l0.906-0.119l0.967-0.121l0.906-0.059l0.966-0.062h0.966h1.444l1.45,0.121l0.724,0.061l0.662,0.121l1.393,0.24
		l0.722,0.182l0.667,0.119l1.326,0.422l1.325,0.42l1.27,0.545l0.662,0.242l0.602,0.301l1.211,0.602l0.601,0.361l0.605,0.363
		l1.145,0.723l1.087,0.785l1.088,0.84l1.025,0.846l0.967,0.963l0.967,0.965l0.903,1.023l0.845,1.086l0.785,1.082l0.723,1.146
		l0.361,0.604l0.305,0.604l0.662,1.203l0.543,1.268l0.485,1.264l0.24,0.664l0.239,0.66l0.183,0.666l0.181,0.662l0.18,0.721
		l0.121,0.666l0.182,0.721l0.061,0.662l0.121,0.725l0.062,0.723l0.06,0.721l0.062,0.723l0.058,0.723v0.725v0.785l-0.058,0.42
		l-0.121,0.424l-0.062,0.418l-0.121,0.363l-0.301,0.662l-0.183,0.305l-0.182,0.301l-0.241,0.236l-0.239,0.305l-0.302,0.24
		l-0.302,0.18l-0.364,0.244l-0.361,0.178l-0.359,0.182l-0.424,0.184l-0.123-0.121l-0.119-0.182l-0.121-0.301l-0.121-0.301
		l-0.243-0.844l-0.299-1.027l-0.24-1.201l-0.242-1.268l-0.483-2.893l-0.967-5.543l-0.241-1.205l-0.181-0.965l-0.24-0.785
		l-0.119-0.602l-0.303-0.662l-0.365-0.602l-0.299-0.543l-0.361-0.48l-0.364-0.426l-0.182-0.178l-0.181-0.182l-0.363-0.301
		l-0.239-0.119l-0.183-0.121l-0.422-0.182l-0.422-0.18l-0.423-0.062l-0.481-0.057h-0.484l-0.421,0.057l-0.483,0.121l-0.484,0.121
		l-0.544,0.182l-0.479,0.24l-1.028,0.543l-1.025,0.662l-0.543,0.424l-0.545,0.42l-0.237,0.182l-0.304,0.24l-0.543,0.482
		l-0.482,0.482l-0.543,0.539l-0.545,0.484l-0.541,0.604l-1.088,1.145l0.302-1.205l0.183-1.086l0.059-0.543l0.061-0.539l0.062-0.484
		v-0.482v-0.422l-0.062-0.42l-0.061-0.365l-0.12-0.359l-0.121-0.361l-0.18-0.301l-0.182-0.24l-0.242-0.24l-0.424-0.363l-0.482-0.24
		l-0.299-0.061l-0.245-0.061l-0.236-0.061l-0.304-0.059h-0.242h-0.303l-0.542,0.059h-0.302l-0.301,0.121l-0.606,0.18l-0.603,0.18
		l-0.604,0.305l-0.663,0.357l-0.603,0.365l-0.664,0.42l-0.604,0.42l-0.663,0.484l-0.666,0.484l-1.205,1.082l-1.206,1.084
		l-1.149,1.146l-1.085,1.086l-0.965,1.021l-0.909,0.967l-1.326,1.445l0.483-1.205l0.364-1.146l0.242-1.082l0.119-0.543l0.062-0.482
		l0.118-0.902l0.062-0.906v-0.42v-0.363l-0.062-0.361l-0.063-0.363l-0.117-0.66l-0.24-0.604l-0.121-0.305l-0.12-0.238l-0.362-0.482
		l-0.365-0.42l-0.239-0.184l-0.183-0.18l-0.48-0.301l-0.544-0.24l-0.543-0.182l-0.541-0.18l-0.363-0.062h-0.304l-0.663-0.059h-0.663
		l-0.666,0.059l-0.723,0.123l-0.726,0.119l-0.784,0.182l-0.723,0.24l-0.785,0.242l-0.784,0.301l-0.725,0.363l-0.785,0.359
		l-0.722,0.361L1147.432,291.5L1147.432,291.5z M1143.328,306.201v-1.145l0.062-1.084l0.121-1.145l0.18-1.084l0.06-0.242
		l0.059-0.301l0.244-0.482l0.242-0.543l0.302-0.48l0.36-0.482l0.366-0.482l0.419-0.482l0.422-0.42l0.424-0.422l0.483-0.424
		l0.481-0.42l0.484-0.365l0.543-0.357l0.482-0.363l1.086-0.664l1.027-0.541l1.023-0.543l1.027-0.361l0.905-0.361l0.782-0.182
		l0.363-0.061l0.363-0.057l0.241-0.061h0.302l0.18,0.061l0.183,0.057l0.182,0.121l0.118,0.121l0.121,0.121l0.121,0.18l0.061,0.182
		l0.122,0.24v0.242l0.058,0.24v0.602l-0.058,0.605l-0.122,0.662l-0.182,0.781l-0.239,0.783l-0.306,0.846l-0.661,1.744l-0.423,0.967
		l-0.424,0.902l-0.902,1.928l-1.027,1.869l-0.965,1.869l-1.871,3.314l-1.509,2.529l-0.785,1.268l-0.24,0.479l-0.062,0.242
		l-0.06,0.242l-0.062,0.182v0.24l0.062,0.357l0.06,0.246l0.062,0.18l0.062,0.119l0.117,0.18l0.244,0.303l0.301,0.24l0.302,0.182
		l0.36,0.121l0.363,0.061h0.421l0.364-0.121l0.424-0.182l0.18-0.121l0.18-0.119l0.183-0.182l0.182-0.24l4.104-4.881l3.015-3.557
		l1.631-1.865l1.748-1.93l1.691-1.928l0.905-0.906l0.844-0.9l1.689-1.75l1.693-1.625l1.566-1.445l0.724-0.602l0.728-0.604
		l0.661-0.484l0.662-0.422l0.543-0.359l0.546-0.303l-0.12,0.906l-0.241,1.021l-0.121,0.541l-0.183,0.605l-0.364,1.145l-0.36,1.266
		l-0.48,1.268l-0.482,1.264l-0.545,1.326l-1.087,2.65l-1.145,2.527l-0.544,1.146l-0.604,1.146l-0.542,1.025l-0.483,0.963
		l-0.906,1.443l-0.239,0.484l-0.062,0.24l-0.062,0.242v0.18v0.24l0.062,0.363l0.062,0.24l0.059,0.182l0.181,0.299l0.182,0.18
		l0.122,0.125l0.118,0.121l0.184,0.119l0.18,0.061l0.182,0.119l0.181,0.061l0.182,0.061h0.421h0.363l0.182-0.061l0.241-0.061
		l0.181-0.119l0.181-0.121l0.364-0.305l0.181-0.18l0.119-0.238l0.061-0.061l0.063-0.059l0.722-1.266l0.965-1.449l1.025-1.564
		l1.146-1.75l1.209-1.744l1.324-1.809l1.331-1.867l1.389-1.75l1.326-1.746l1.326-1.568l1.33-1.445l0.603-0.662l0.604-0.604
		l0.542-0.541l0.603-0.48l0.483-0.422l0.545-0.305l0.181-0.18l0.242-0.121l0.42-0.178l0.424-0.061h0.303l0.361,0.238l0.301,0.424
		l0.301,0.42l0.244,0.541l0.181,0.605l0.179,0.662l0.182,0.662l0.18,0.783l0.242,1.629l0.242,1.684l0.424,3.678l0.182,0.902
		l0.118,0.908l0.303,1.684l0.243,0.846l0.06,0.42l0.117,0.363l0.244,0.783l0.301,0.723l0.183,0.303l0.121,0.299l0.36,0.604
		l0.183,0.299l0.18,0.244l0.483,0.482l0.48,0.359l0.244,0.18l0.239,0.125l0.303,0.117l0.304,0.121l0.3,0.061l0.304,0.061
		l0.721,0.061h0.366l0.299-0.061l0.664-0.121l0.668-0.178l-0.367,1.021l-0.42,1.023l-0.484,0.963l-0.24,0.482l-0.244,0.484
		l-0.541,0.963l-0.543,0.906l-0.604,0.902l-0.604,0.844l-0.664,0.846l-0.725,0.842l-0.726,0.781l-0.722,0.785l-0.786,0.721
		l-0.423,0.363l-0.422,0.359l-0.786,0.664l-0.903,0.666l-0.845,0.598l-0.903,0.604l-0.968,0.543l-0.967,0.484l-0.965,0.479
		l-0.964,0.484l-1.028,0.363l-1.021,0.359l-0.547,0.182l-0.546,0.18l-1.083,0.24l-1.086,0.242l-1.086,0.242l-1.086,0.119
		l-1.147,0.119l-1.147,0.061l-1.145,0.064l-1.451-0.064l-1.448-0.119l-0.726-0.061l-0.721-0.119l-1.393-0.242l-0.662-0.121
		l-0.663-0.182l-1.388-0.359l-1.268-0.482l-1.325-0.484l-0.605-0.297l-0.605-0.305l-1.267-0.604l-0.603-0.299l-0.544-0.363
		l-1.146-0.723l-1.144-0.842l-1.03-0.783l-1.025-0.906l-1.025-0.963l-0.904-0.967l-0.907-1.021l-0.844-1.084l-0.784-1.084
		l-0.725-1.145l-0.36-0.604l-0.364-0.604l-0.603-1.207l-0.541-1.264l-0.547-1.264l-0.179-0.664l-0.241-0.664l-0.181-0.662
		l-0.182-0.662l-0.182-0.664l-0.182-0.721l-0.121-0.666l-0.12-0.721l-0.061-0.723l-0.12-0.662l-0.06-0.725l-0.062-0.721v-0.727
		V306.201L1143.328,306.201z"/>
	<polygon fill-rule="evenodd" clip-rule="evenodd" fill="#FFFFFF" points="1211.223,319.76 1213.397,319.76 1213.397,300.719 
		1213.455,300.719 1219.852,319.76 1222.266,319.76 1228.662,300.719 1228.725,300.719 1228.725,319.76 1230.899,319.76 
		1230.899,298.066 1227.277,298.066 1221.117,316.506 1221.059,316.506 1214.904,298.066 1211.223,298.066 1211.223,319.76 	"/>
	<path fill-rule="evenodd" clip-rule="evenodd" fill="#FFFFFF" d="M1232.223,319.76h2.476l2.111-6.689h7.724l2.174,6.689h2.414
		l-7-21.693h-2.956L1232.223,319.76L1232.223,319.76z M1240.612,300.297h0.061l3.198,10.727h-6.396L1240.612,300.297
		L1240.612,300.297z"/>
	<polygon fill-rule="evenodd" clip-rule="evenodd" fill="#FFFFFF" points="1253.227,319.76 1256.303,319.76 1263.546,298.066 
		1261.013,298.066 1254.853,317.107 1254.795,317.107 1248.639,298.066 1246.164,298.066 1253.227,319.76 	"/>
	<polygon fill-rule="evenodd" clip-rule="evenodd" fill="#FFFFFF" points="1265.355,319.76 1267.828,319.76 1267.828,298.066 
		1265.355,298.066 1265.355,319.76 	"/>
	<polygon fill-rule="evenodd" clip-rule="evenodd" fill="#FFFFFF" points="1279.178,318.375 1279.178,317.65 1278.812,317.711 
		1278.391,317.77 1278.15,317.77 1277.907,317.711 1277.786,317.59 1277.667,317.471 1277.608,317.348 1277.544,317.107 
		1277.487,316.809 1277.487,316.443 1277.487,313.371 1279.178,313.371 1279.178,312.648 1277.487,312.648 1277.487,310.541 
		1276.639,310.779 1276.639,312.648 1275.372,312.648 1275.372,313.371 1276.639,313.371 1276.639,316.809 1276.639,317.229 
		1276.699,317.59 1276.762,317.891 1276.942,318.133 1277.002,318.193 1277.123,318.314 1277.425,318.432 1277.729,318.492 
		1278.091,318.492 1278.692,318.492 1278.936,318.432 1279.178,318.375 	"/>
	<path fill-rule="evenodd" clip-rule="evenodd" fill="#FFFFFF" d="M1284.848,314.939l-0.059-0.482l-0.062-0.424l-0.182-0.42
		l-0.119-0.18l-0.121-0.182l-0.12-0.121l-0.181-0.117l-0.182-0.123l-0.181-0.123l-0.241-0.061l-0.24-0.059l-0.303-0.061h-0.242
		h-0.299l-0.307,0.061l-0.238,0.059l-0.242,0.125l-0.241,0.119l-0.183,0.119l-0.181,0.182l-0.184,0.182l-0.298,0.42l-0.182,0.543
		l-0.119,0.24v0.303l-0.063,0.301v0.361v0.361l0.063,0.303v0.357l0.119,0.246l0.06,0.299l0.122,0.242l0.182,0.18l0.116,0.24
		l0.184,0.121l0.181,0.182l0.241,0.121l0.242,0.121l0.241,0.057l0.304,0.061h0.3l0.303,0.062l0.543-0.062l0.483-0.061l0.481-0.117
		l0.423-0.121l-0.122-0.723l-0.36,0.119l-0.422,0.121l-0.424,0.059l-0.425,0.061l-0.48-0.061l-0.424-0.119l-0.116-0.061
		l-0.182-0.119l-0.183-0.123l-0.121-0.119l-0.18-0.301l-0.182-0.422v-0.24l-0.059-0.303v-0.604h3.859v-0.24V314.939
		L1284.848,314.939z M1283.941,314.697h-2.895l0.059-0.301l0.123-0.299l0.118-0.244l0.183-0.24l0.242-0.119l0.238-0.184l0.244-0.059
		h0.3h0.304l0.303,0.059l0.119,0.061l0.121,0.123l0.122,0.062l0.06,0.119l0.181,0.178l0.119,0.244l0.06,0.299V314.697
		L1283.941,314.697z"/>
	<polygon fill-rule="evenodd" clip-rule="evenodd" fill="#FFFFFF" points="1290.036,318.193 1289.978,317.41 1289.677,317.59 
		1289.312,317.65 1288.891,317.711 1288.528,317.77 1288.289,317.77 1288.046,317.711 1287.684,317.59 1287.381,317.41 
		1287.261,317.289 1287.141,317.107 1286.961,316.809 1286.84,316.443 1286.78,316.025 1286.78,315.602 1286.78,315.119 
		1286.901,314.637 1287.021,314.277 1287.203,313.914 1287.321,313.795 1287.501,313.676 1287.625,313.557 1287.805,313.494 
		1287.985,313.371 1288.168,313.371 1288.651,313.311 1288.95,313.311 1289.312,313.371 1289.613,313.434 1289.916,313.557 
		1290.036,312.768 1289.373,312.648 1288.651,312.588 1288.35,312.588 1288.046,312.648 1287.746,312.707 1287.443,312.832 
		1287.203,312.951 1286.961,313.07 1286.84,313.191 1286.719,313.252 1286.654,313.371 1286.537,313.494 1286.476,313.557 
		1286.417,313.676 1286.235,313.914 1286.117,314.215 1286.055,314.457 1285.934,314.76 1285.874,315.059 1285.874,315.424 
		1285.874,315.783 1285.874,316.145 1285.934,316.506 1285.992,316.809 1286.055,317.107 1286.174,317.348 1286.296,317.59 
		1286.476,317.77 1286.6,317.951 1286.78,318.072 1286.961,318.193 1287.203,318.314 1287.381,318.375 1287.864,318.492 
		1288.35,318.492 1288.832,318.492 1289.312,318.375 1289.736,318.314 1290.036,318.193 	"/>
	<polygon fill-rule="evenodd" clip-rule="evenodd" fill="#FFFFFF" points="1296.014,318.432 1296.014,314.396 1295.952,314.033 
		1295.891,313.676 1295.891,313.557 1295.771,313.371 1295.65,313.131 1295.528,313.014 1295.41,312.891 1295.23,312.768 
		1295.105,312.707 1294.926,312.648 1294.745,312.588 1294.504,312.588 1294.262,312.588 1293.899,312.588 1293.539,312.648 
		1293.237,312.768 1292.994,312.951 1292.754,313.131 1292.512,313.371 1292.332,313.676 1292.271,313.795 1292.211,313.973 
		1292.271,313.311 1292.271,312.648 1291.426,312.648 1291.426,318.432 1292.271,318.432 1292.271,315.662 1292.332,315.18 
		1292.394,314.939 1292.394,314.697 1292.571,314.338 1292.754,313.973 1293.055,313.676 1293.176,313.557 1293.356,313.434 
		1293.66,313.311 1294.019,313.252 1294.323,313.311 1294.564,313.371 1294.745,313.494 1294.926,313.676 1294.986,313.854 
		1295.048,314.098 1295.105,314.396 1295.105,314.697 1295.105,318.432 1296.014,318.432 	"/>
	<path fill-rule="evenodd" clip-rule="evenodd" fill="#FFFFFF" d="M1302.772,315.484v-0.426l-0.062-0.178v-0.184l-0.059-0.301
		l-0.122-0.299l-0.059-0.244l-0.12-0.24l-0.18-0.18l-0.185-0.182l-0.181-0.182l-0.182-0.119l-0.181-0.119l-0.243-0.125l-0.24-0.059
		l-0.239-0.061h-0.241h-0.241h-0.362l-0.305,0.061l-0.241,0.059l-0.299,0.125l-0.24,0.119l-0.184,0.119l-0.241,0.182l-0.181,0.182
		l-0.183,0.242l-0.119,0.238l-0.12,0.244l-0.125,0.238l-0.059,0.301l-0.059,0.303l-0.062,0.299v0.303v0.361l0.062,0.303l0.059,0.357
		l0.059,0.246l0.245,0.541l0.119,0.18l0.122,0.24l0.183,0.121l0.238,0.182l0.183,0.121l0.241,0.121l0.241,0.057l0.242,0.061
		l0.541,0.062l0.305-0.062h0.299l0.305-0.117l0.241-0.061l0.24-0.182l0.24-0.117l0.182-0.186l0.242-0.18l0.123-0.24l0.18-0.242
		l0.12-0.24l0.121-0.238l0.06-0.303l0.059-0.301l0.062-0.303V315.484L1302.772,315.484z M1301.865,315.484l-0.06,0.602l-0.119,0.479
		l-0.062,0.184l-0.059,0.18l-0.241,0.301l-0.124,0.119l-0.118,0.123l-0.18,0.119l-0.123,0.061l-0.3,0.119h-0.361h-0.363
		l-0.363-0.119l-0.181-0.121l-0.123-0.059l-0.238-0.242l-0.242-0.359l-0.121-0.363l-0.058-0.24v-0.24l-0.062-0.541v-0.244
		l0.062-0.24l0.058-0.484l0.18-0.357l0.125-0.186l0.118-0.178l0.122-0.119l0.119-0.062l0.303-0.18l0.363-0.123h0.302h0.239h0.182
		l0.182,0.061l0.182,0.062l0.118,0.123l0.18,0.057l0.124,0.121l0.119,0.119l0.181,0.361l0.062,0.182l0.061,0.18l0.059,0.424
		L1301.865,315.484L1301.865,315.484z"/>
	<polygon fill-rule="evenodd" clip-rule="evenodd" fill="#FFFFFF" points="1305.127,318.432 1305.127,309.998 1304.22,309.998 
		1304.22,318.432 1305.127,318.432 	"/>
	<path fill-rule="evenodd" clip-rule="evenodd" fill="#FFFFFF" d="M1311.883,315.484v-0.426l-0.057-0.178v-0.184l-0.062-0.301
		l-0.121-0.299l-0.06-0.244l-0.119-0.24l-0.181-0.18l-0.186-0.182l-0.177-0.182l-0.184-0.119l-0.182-0.119l-0.24-0.125l-0.244-0.059
		l-0.237-0.061h-0.244h-0.24h-0.362l-0.304,0.061l-0.24,0.059l-0.302,0.125l-0.239,0.119l-0.183,0.119l-0.24,0.182l-0.184,0.182
		l-0.181,0.242l-0.121,0.238l-0.117,0.244l-0.123,0.238l-0.059,0.301l-0.06,0.303l-0.062,0.299v0.303v0.361l0.062,0.303l0.06,0.357
		l0.059,0.246l0.24,0.541l0.121,0.18l0.125,0.24l0.178,0.121l0.243,0.182l0.179,0.121l0.244,0.121l0.24,0.057l0.239,0.061
		l0.545,0.062l0.303-0.062h0.302l0.3-0.117l0.241-0.061l0.241-0.182l0.242-0.117l0.184-0.186l0.24-0.18l0.122-0.24l0.181-0.242
		l0.119-0.24l0.121-0.238l0.06-0.303l0.062-0.301l0.057-0.303V315.484L1311.883,315.484z M1310.979,315.484l-0.058,0.602
		l-0.124,0.479l-0.06,0.184l-0.06,0.18l-0.242,0.301l-0.12,0.119l-0.12,0.123l-0.183,0.119l-0.123,0.061l-0.3,0.119h-0.361h-0.36
		l-0.362-0.119l-0.182-0.121l-0.121-0.059l-0.24-0.242l-0.243-0.359l-0.12-0.363l-0.061-0.24v-0.24l-0.06-0.541v-0.244l0.06-0.24
		l0.061-0.484l0.18-0.357l0.123-0.186l0.119-0.178l0.12-0.119l0.121-0.062l0.301-0.18l0.362-0.123h0.303h0.24h0.183l0.183,0.061
		l0.179,0.062l0.122,0.123l0.181,0.057l0.12,0.121l0.12,0.119l0.182,0.361l0.06,0.182l0.062,0.18l0.062,0.424L1310.979,315.484
		L1310.979,315.484z"/>
	<path fill-rule="evenodd" clip-rule="evenodd" fill="#FFFFFF" d="M1318.223,319.34l-0.062-0.365v-0.178l-0.062-0.119l-0.177-0.303
		l-0.064-0.121l-0.117-0.121l-0.124-0.061l-0.181-0.121l-0.119-0.061l-0.184-0.061l-0.422-0.119h-0.423h-1.146l-0.426-0.061h-0.176
		l-0.182-0.061l-0.122-0.061l-0.061-0.059l-0.058-0.123v-0.119v-0.18l0.118-0.121l0.061-0.059l0.062-0.061l0.06-0.061l0.122-0.059
		l0.362,0.059l0.421,0.061l0.301-0.061h0.304l0.48-0.125l0.241-0.117l0.183-0.062l0.181-0.119l0.182-0.18l0.182-0.119l0.118-0.182
		l0.121-0.182l0.061-0.178l0.123-0.426v-0.238l0.058-0.184l-0.058-0.24v-0.182l-0.123-0.301l-0.061-0.18l-0.121-0.121l-0.24-0.242
		h1.089v-0.723h-1.991l-0.424-0.061h-0.423h-0.544l-0.299,0.061l-0.244,0.119l-0.182,0.064l-0.239,0.119l-0.183,0.119l-0.182,0.182
		l-0.239,0.305l-0.242,0.357l-0.062,0.244l-0.062,0.18v0.238l-0.059,0.244l0.059,0.238v0.24l0.062,0.242l0.122,0.242l0.119,0.18
		l0.123,0.182l0.179,0.18l0.243,0.119l-0.303,0.18l-0.119,0.125l-0.061,0.121l-0.062,0.119l-0.059,0.119l-0.061,0.121v0.182v0.119
		l0.061,0.121v0.119l0.121,0.121l0.061,0.125l0.119,0.057l0.241,0.182l-0.241,0.121l-0.18,0.117l-0.182,0.186l-0.122,0.18
		l-0.12,0.18l-0.119,0.24l-0.062,0.242v0.24v0.178l0.062,0.184l0.119,0.359l0.059,0.182l0.123,0.123l0.121,0.121l0.182,0.119
		l0.179,0.061l0.182,0.117l0.183,0.064l0.179,0.061l0.486,0.119h0.54h0.303l0.305-0.059l0.301-0.061l0.298-0.061l0.302-0.064
		l0.242-0.117l0.18-0.119l0.244-0.121l0.182-0.121l0.182-0.184l0.117-0.18l0.123-0.178l0.118-0.182l0.062-0.242l0.062-0.18V319.34
		L1318.223,319.34z M1316.953,314.697V315l-0.12,0.299l-0.062,0.125l-0.061,0.117l-0.182,0.242l-0.241,0.121l-0.239,0.121
		l-0.302,0.061l-0.362,0.059l-0.303-0.059l-0.301-0.061l-0.301-0.121l-0.183-0.121l-0.179-0.242l-0.121-0.242l-0.121-0.24v-0.361
		v-0.301l0.121-0.299l0.057-0.125l0.064-0.119l0.058-0.119l0.121-0.059l0.243-0.182l0.24-0.123l0.301-0.119h0.362h0.366l0.301,0.059
		l0.241,0.123l0.239,0.18l0.119,0.24l0.185,0.244l0.058,0.299V314.697L1316.953,314.697z M1317.377,319.459l-0.061,0.24
		l-0.121,0.238l-0.122,0.246l-0.12,0.119l-0.12,0.059l-0.304,0.18l-0.36,0.121l-0.358,0.062h-0.486h-0.303l-0.358-0.062
		l-0.244-0.057l-0.3-0.184l-0.182-0.119l-0.122-0.182l-0.122-0.242v-0.299v-0.182v-0.121l0.122-0.18l0.062-0.182l0.121-0.119
		l0.179-0.119l0.304-0.246h0.362h1.206l0.304,0.061l0.239,0.062l0.241,0.061l0.181,0.121l0.182,0.121l0.06,0.18l0.062,0.18
		L1317.377,319.459L1317.377,319.459z"/>
	<path fill-rule="evenodd" clip-rule="evenodd" fill="#FFFFFF" d="M1320.576,318.432v-5.783h-0.848v5.783H1320.576L1320.576,318.432
		z M1321.303,310.541l-0.486-0.604l-1.447,1.324l0.359,0.484L1321.303,310.541L1321.303,310.541z"/>
	<path fill-rule="evenodd" clip-rule="evenodd" fill="#FFFFFF" d="M1326.551,318.432v-0.842v-0.9v-2.232l-0.059-0.424l-0.064-0.357
		l-0.058-0.119l-0.063-0.186l-0.119-0.119l-0.062-0.121l-0.117-0.117l-0.181-0.123l-0.364-0.184l-0.424-0.119h-0.239h-0.304h-0.541
		l-0.543,0.119l-0.482,0.125l-0.423,0.182l0.06,0.781l0.422-0.238l0.243-0.062l0.181-0.123l0.481-0.061l0.423-0.059l0.361,0.059
		l0.303,0.061l0.24,0.123l0.123,0.119l0.179,0.182l0.062,0.238l0.059,0.305v0.299v0.482h-0.422h-0.36l-0.724,0.121l-0.303,0.059
		l-0.301,0.125l-0.484,0.238l-0.18,0.121l-0.183,0.18l-0.18,0.182l-0.12,0.18l-0.122,0.182l-0.062,0.184l-0.059,0.238v0.18
		l0.059,0.363v0.119l0.062,0.121l0.122,0.24l0.18,0.242l0.24,0.121l0.301,0.117l0.305,0.061l0.301,0.062l0.362-0.062l0.36-0.061
		l0.301-0.117l0.244-0.182l0.24-0.182l0.242-0.24l0.121-0.24l0.121-0.242h0.061l-0.061,0.242v0.299v0.662H1326.551L1326.551,318.432
		z M1325.643,315.844v0.361l-0.12,0.359l-0.119,0.305l-0.242,0.299l-0.241,0.303l-0.12,0.119l-0.122,0.061l-0.182,0.061l-0.18,0.059
		l-0.361,0.061h-0.181l-0.183-0.061l-0.18-0.059l-0.119-0.121l-0.126-0.119l-0.06-0.123l-0.059-0.18l-0.061-0.18l0.061-0.119v-0.121
		l0.059-0.184l0.186-0.24l0.24-0.18l0.119-0.059l0.241-0.123l0.423-0.119l0.604-0.061l0.723-0.061V315.844L1325.643,315.844z"/>
	<polygon fill-rule="evenodd" clip-rule="evenodd" fill="#FFFFFF" points="1331.86,316.689 1331.801,316.387 1331.801,316.205 
		1331.74,316.086 1331.619,315.844 1331.439,315.662 1331.198,315.541 1330.954,315.424 1330.473,315.24 1329.93,315.059 
		1329.446,314.881 1329.324,314.76 1329.206,314.697 1329.146,314.576 1329.084,314.516 1329.084,314.396 1329.025,314.158 
		1329.084,313.973 1329.146,313.795 1329.206,313.613 1329.324,313.494 1329.506,313.371 1329.749,313.311 1329.988,313.252 
		1330.29,313.252 1330.896,313.311 1331.198,313.371 1331.498,313.434 1331.498,312.707 1330.954,312.588 1330.653,312.588 
		1330.412,312.588 1329.868,312.588 1329.627,312.648 1329.446,312.707 1329.025,312.832 1328.721,313.07 1328.48,313.311 
		1328.361,313.434 1328.299,313.613 1328.24,313.734 1328.178,313.914 1328.178,314.098 1328.117,314.277 1328.178,314.637 
		1328.24,314.76 1328.24,314.881 1328.421,315.119 1328.601,315.359 1328.782,315.484 1329.025,315.602 1329.567,315.783 
		1330.049,315.963 1330.29,316.025 1330.534,316.145 1330.714,316.266 1330.776,316.324 1330.834,316.387 1330.896,316.506 
		1330.896,316.564 1330.954,316.809 1330.896,317.049 1330.834,317.229 1330.714,317.41 1330.534,317.529 1330.354,317.65 
		1330.11,317.711 1329.806,317.77 1329.506,317.83 1329.206,317.77 1328.842,317.77 1328.542,317.711 1328.24,317.59 
		1328.24,318.432 1328.782,318.492 1329.446,318.555 1329.988,318.492 1330.473,318.375 1330.896,318.254 1331.075,318.133 
		1331.198,318.016 1331.378,317.891 1331.498,317.711 1331.619,317.59 1331.68,317.41 1331.74,317.289 1331.801,317.107 
		1331.86,316.928 1331.86,316.689 	"/>
	<polygon fill-rule="evenodd" clip-rule="evenodd" fill="#FFFFFF" points="1280.988,306.865 1280.988,302.828 1280.988,302.467 
		1280.925,302.104 1280.863,301.984 1280.807,301.805 1280.625,301.561 1280.503,301.441 1280.383,301.322 1280.262,301.201 
		1280.079,301.141 1279.898,301.082 1279.717,301.021 1279.477,301.021 1279.235,301.021 1278.873,301.021 1278.571,301.082 
		1278.27,301.201 1277.97,301.381 1277.729,301.561 1277.487,301.805 1277.305,302.104 1277.244,302.223 1277.184,302.408 
		1277.244,301.744 1277.244,301.082 1276.401,301.082 1276.401,306.865 1277.244,306.865 1277.244,304.094 1277.305,303.611 
		1277.366,303.369 1277.425,303.129 1277.544,302.766 1277.786,302.408 1278.029,302.104 1278.15,301.984 1278.329,301.863 
		1278.633,301.744 1279.053,301.684 1279.296,301.744 1279.538,301.805 1279.717,301.926 1279.898,302.104 1280.02,302.289 
		1280.079,302.525 1280.079,302.828 1280.143,303.129 1280.143,306.865 1280.988,306.865 	"/>
	<polygon fill-rule="evenodd" clip-rule="evenodd" fill="#FFFFFF" points="1287.562,306.865 1287.562,301.082 1286.719,301.082 
		1286.719,303.852 1286.719,304.396 1286.654,304.574 1286.6,304.814 1286.417,305.238 1286.235,305.602 1285.992,305.842 
		1285.814,305.961 1285.694,306.08 1285.33,306.201 1284.971,306.26 1284.667,306.201 1284.426,306.141 1284.244,306.021 
		1284.121,305.9 1284.004,305.66 1283.941,305.418 1283.882,305.178 1283.882,304.814 1283.882,301.082 1283.037,301.082 
		1283.037,305.119 1283.037,305.477 1283.097,305.842 1283.16,306.021 1283.22,306.141 1283.4,306.443 1283.522,306.564 
		1283.642,306.684 1283.763,306.742 1283.941,306.803 1284.064,306.865 1284.305,306.924 1284.484,306.986 1284.727,306.986 
		1285.089,306.924 1285.451,306.865 1285.756,306.742 1286.055,306.564 1286.296,306.383 1286.476,306.141 1286.654,305.9 
		1286.719,305.721 1286.78,305.602 1286.84,305.602 1286.78,306.201 1286.719,306.865 1287.562,306.865 	"/>
	<path fill-rule="evenodd" clip-rule="evenodd" fill="#FFFFFF" d="M1293.838,303.369v-0.482l-0.117-0.42l-0.182-0.424l-0.061-0.18
		l-0.122-0.18l-0.181-0.123l-0.182-0.119l-0.181-0.119l-0.183-0.121l-0.237-0.061l-0.246-0.059l-0.237-0.061h-0.302h-0.303
		l-0.243,0.061l-0.299,0.059l-0.243,0.121l-0.181,0.119l-0.241,0.121l-0.183,0.182l-0.18,0.18l-0.304,0.426l-0.179,0.539
		l-0.062,0.242l-0.059,0.299l-0.06,0.303v0.359v0.365l0.06,0.299l0.059,0.361l0.062,0.242l0.119,0.303l0.122,0.24l0.118,0.18
		l0.123,0.238l0.18,0.123l0.245,0.182l0.179,0.119l0.241,0.119l0.302,0.062l0.241,0.059h0.302l0.301,0.062l0.544-0.062l0.483-0.059
		l0.483-0.123l0.423-0.117l-0.121-0.725l-0.302,0.121l-0.424,0.119l-0.481,0.061l-0.422,0.059l-0.484-0.059l-0.363-0.121
		l-0.18-0.059l-0.181-0.121l-0.121-0.119l-0.122-0.121l-0.239-0.305l-0.121-0.418l-0.062-0.242l-0.059-0.299v-0.604h3.86v-0.244
		V303.369L1293.838,303.369z M1292.935,303.129h-2.898l0.062-0.301l0.121-0.303l0.12-0.236l0.181-0.246l0.243-0.117l0.24-0.182
		l0.243-0.061h0.298h0.304l0.299,0.061l0.123,0.061l0.123,0.121l0.118,0.059l0.06,0.119l0.183,0.186l0.12,0.236l0.061,0.303V303.129
		L1292.935,303.129z"/>
	<polygon fill-rule="evenodd" clip-rule="evenodd" fill="#FFFFFF" points="1299.695,301.082 1298.729,301.082 1297.34,304.879 
		1297.16,305.355 1297.036,305.9 1296.679,304.879 1295.352,301.082 1294.383,301.082 1296.555,306.865 1297.46,306.865 
		1299.695,301.082 	"/>
	<path fill-rule="evenodd" clip-rule="evenodd" fill="#FFFFFF" d="M1304.399,306.865l-0.059-0.844v-0.902v-2.232v-0.42l-0.059-0.363
		l-0.062-0.119l-0.062-0.18l-0.121-0.121l-0.119-0.123l-0.12-0.119l-0.12-0.119l-0.365-0.182l-0.42-0.119h-0.301h-0.241h-0.604
		l-0.482,0.119l-0.485,0.121l-0.422,0.18l0.061,0.781l0.424-0.238l0.179-0.059l0.244-0.121l0.482-0.061l0.424-0.061l0.358,0.061
		l0.304,0.061l0.181,0.121l0.182,0.117l0.117,0.18l0.121,0.244l0.062,0.299v0.305v0.479h-0.424h-0.362l-0.724,0.123l-0.3,0.061
		l-0.303,0.119l-0.481,0.242l-0.242,0.117l-0.181,0.186l-0.122,0.178l-0.119,0.18l-0.12,0.184l-0.061,0.182l-0.063,0.236v0.186
		v0.359l0.063,0.121l0.061,0.119l0.12,0.242l0.18,0.242l0.242,0.117l0.242,0.123l0.362,0.059l0.301,0.062l0.36-0.062l0.301-0.059
		l0.303-0.123l0.304-0.178l0.239-0.182l0.184-0.242l0.178-0.24l0.122-0.24h0.06l-0.06,0.24v0.301v0.664H1304.399L1304.399,306.865z
		 M1303.496,304.277l-0.062,0.359l-0.056,0.359l-0.183,0.303l-0.182,0.303l-0.241,0.299l-0.121,0.121l-0.181,0.059l-0.12,0.061
		l-0.18,0.061l-0.365,0.059h-0.24l-0.182-0.059l-0.119-0.061l-0.121-0.119l-0.123-0.121l-0.118-0.119v-0.18l-0.061-0.184v-0.119
		l0.061-0.121l0.058-0.182l0.184-0.242l0.24-0.18l0.12-0.059l0.183-0.119l0.484-0.119l0.602-0.066l0.724-0.059V304.277
		L1303.496,304.277z"/>
	<polygon fill-rule="evenodd" clip-rule="evenodd" fill="#FFFFFF" points="1309.713,305.119 1309.651,304.814 1309.59,304.637 
		1309.59,304.516 1309.411,304.277 1309.229,304.094 1309.049,303.973 1308.805,303.852 1308.263,303.672 1307.779,303.49 
		1307.296,303.311 1307.115,303.189 1307.056,303.129 1306.994,303.01 1306.935,302.951 1306.935,302.828 1306.877,302.588 
		1306.877,302.408 1306.935,302.223 1307.056,302.043 1307.177,301.926 1307.358,301.805 1307.6,301.744 1307.84,301.684 
		1308.142,301.684 1308.745,301.744 1309.049,301.805 1309.35,301.863 1309.35,301.141 1308.805,301.021 1308.506,301.021 
		1308.203,301.021 1307.72,301.021 1307.479,301.082 1307.24,301.141 1306.877,301.262 1306.573,301.502 1306.334,301.744 
		1306.211,301.863 1306.152,302.043 1306.091,302.164 1306.031,302.348 1305.97,302.525 1305.97,302.707 1306.031,303.07 
		1306.031,303.189 1306.091,303.311 1306.211,303.549 1306.392,303.793 1306.636,303.912 1306.877,304.031 1307.358,304.211 
		1307.902,304.396 1308.142,304.457 1308.324,304.574 1308.506,304.695 1308.625,304.754 1308.684,304.814 1308.745,304.938 
		1308.745,304.996 1308.805,305.238 1308.745,305.477 1308.684,305.66 1308.563,305.842 1308.384,305.961 1308.203,306.08 
		1307.963,306.141 1307.661,306.201 1307.358,306.26 1307.056,306.201 1306.695,306.201 1306.392,306.141 1306.091,306.021 
		1306.091,306.865 1306.636,306.924 1307.296,306.986 1307.84,306.924 1308.263,306.803 1308.684,306.684 1308.868,306.564 
		1309.049,306.443 1309.17,306.324 1309.35,306.141 1309.411,306.021 1309.53,305.842 1309.59,305.721 1309.651,305.541 
		1309.651,305.355 1309.713,305.119 	"/>
</g>
<polygon fill="none" points="440.669,737.832 440.916,737.471 440.912,737.467 440.906,737.467 "/>
<g>
	<g>
		<path fill-rule="evenodd" clip-rule="evenodd" fill="#F6CD7D" d="M1037.325,148.268c-0.155-0.453-0.374-0.904-0.614-1.355
			c-1.736-3.082-6.506-12.305-7.254-15.881c-5.812-27.824-36.561-44.941-68.676-38.23c-32.105,6.707-53.426,34.707-47.612,62.531
			c0.655,3.135-0.172,13.307-1.034,19.096L1037.325,148.268z"/>
		<path fill-rule="evenodd" clip-rule="evenodd" fill="#F6CD7D" d="M963.741,111.256c8.268-1.727,13.61-9.885,11.88-18.17
			c-1.731-8.277-9.893-13.611-18.159-11.885c-8.289,1.73-13.632,9.889-11.901,18.168
			C947.292,107.652,955.453,112.988,963.741,111.256z"/>
		<g>
			<path fill-rule="evenodd" clip-rule="evenodd" fill="#E2B459" d="M928.498,109.682c4.531-4.41,9.898-8.232,15.915-11.219
				c0.63,0.945,1.084,2.016,1.329,3.189l8.452,40.449c1.042,4.982-2.181,9.916-7.171,10.959l0,0
				c-4.991,1.043-9.919-2.186-10.959-7.17L928.498,109.682z"/>
			<path fill-rule="evenodd" clip-rule="evenodd" fill="#E2B459" d="M976.402,91.373c6.565,0.162,12.903,1.287,18.771,3.266
				l7.789,37.273c1.04,4.982-2.19,9.916-7.182,10.961l0,0c-4.979,1.041-9.907-2.189-10.949-7.172l-8.452-40.451
				C976.104,93.936,976.122,92.615,976.402,91.373z"/>
		</g>
	</g>
	<path fill-rule="evenodd" clip-rule="evenodd" fill="#E2B459" d="M1028.752,151.75c0.559,2.676-1.161,5.303-3.84,5.863
		l-100.268,20.951c-2.679,0.559-5.305-1.158-5.865-3.836l0,0c-0.562-2.684,1.16-5.303,3.839-5.863l100.269-20.951
		C1025.564,147.355,1028.191,149.066,1028.752,151.75L1028.752,151.75z"/>
	<g>
		<path fill-rule="evenodd" clip-rule="evenodd" fill="#F6CD7D" d="M978.507,160.559l58.818-12.291
			c-0.155-0.453-0.374-0.904-0.614-1.355c-1.736-3.082-6.506-12.305-7.254-15.881c-5.604-26.826-34.401-43.695-65.24-38.85
			L978.507,160.559z"/>
		<path fill-rule="evenodd" clip-rule="evenodd" fill="#F6CD7D" d="M961.867,80.93l6.019,28.805
			c5.812-3.15,9.154-9.854,7.735-16.648C974.201,86.293,968.453,81.492,961.867,80.93z"/>
		<g>
			<path fill-rule="evenodd" clip-rule="evenodd" fill="#E2B459" d="M976.402,91.373c6.565,0.162,12.903,1.287,18.771,3.266
				l7.789,37.273c1.04,4.982-2.19,9.916-7.182,10.961l0,0c-4.979,1.041-9.907-2.189-10.949-7.172l-8.452-40.451
				C976.104,93.936,976.122,92.615,976.402,91.373z"/>
		</g>
	</g>
	<path fill-rule="evenodd" clip-rule="evenodd" fill="#E2B459" d="M1022.887,147.914l-45.055,9.414l2.025,9.699l45.055-9.414
		c2.679-0.561,4.398-3.188,3.84-5.863C1028.191,149.066,1025.564,147.355,1022.887,147.914z"/>
</g>
</svg>
