<svg xmlns="http://www.w3.org/2000/svg" xmlns:xlink="http://www.w3.org/1999/xlink" height="260.5" width="260.6"><switch transform="translate(-685.492 -695.384)"><g><path fill="none" d="M420.3 211H535v639.2H420.2z"/><path fill="none" d="M412.3 138.2h286v106.4h-286zM412.3 443h286v106.5h-286z"/><circle r="3.2" cy="210.4" cx="1432.5" fill="#fff"/><path d="M1003.3 228.3l9.8 28c1 2-.2 4.3-2.4 5-2 .8-4.4-.3-5.2-2.4l-9.8-28 7.7-2.7z" fill="#fff"/><circle r="3.1" cy="222.8" cx="656.9" fill="#fff"/><path d="M1350.8 473.3h-.2.2zm.8-.5zm-.4.3v.2z" fill="#ccbea7"/><path id="a" d="M974.7 464h198.6V611H974.7z"/><clipPath id="b"><use height="100%" width="100%" overflow="visible" xlink:href="#a"/></clipPath><path fill="none" d="M477.6 773H635v106.5H477.7z"/><path opacity=".3" fill="#d6d6ce" d="M685.6 899.6V695.4h194.3l66 65.8V956H742"/><path fill="#8595a4" d="M685.5 705.3H880v194.4H685.4z"/><path fill="#eaf5f7" d="M685.5 861H880v28.7H685.4z"/><path fill="#e2ad39" d="M685.6 856.8H880v28.8H685.6z"/><path fill="#402a16" d="M700.3 774H757v115.2h-56.7zM765.2 774h97.2v61.6h-97.2z"/><path fill="#fff" d="M769.3 778h89v53.5h-89z"/><path fill="#eaf5f7" d="M769.3 831.5l89-53.4h-89"/><path fill="#fff" d="M705.8 779.7h44.5v77h-44.5z"/><path fill="#eaf5f7" d="M705.8 809.2l44.5-29.5h-44.5"/><path fill="#e2ad39" d="M765.2 831.5h97.2v8h-97.2z"/><path fill="#eaf5f7" d="M700.3 732.2h162.2v35.6H700.3z"/><path fill="#fff" d="M700.3 753.2h162.2v9.5H700.3z"/><path fill="#4a3314" d="M686.4 695.4H880v7.5H686.3z"/><path fill="#46b387" d="M685.5 695.4h28.2v38.8h-28.2z"/><path fill="#402a16" d="M713.7 695.4h27.7v38.8h-27.7z"/><path fill="#46b387" d="M741.4 695.4H769v38.8h-27.6z"/><path fill="#fff" d="M769 695.4h14v38.8h-14z"/><path d="M692.6 741c4 0 7-3.2 7-7h-14c0 3.8 3.2 7 7 7z" fill="#402a16"/><path d="M706.4 741c3.8 0 7-3.2 7-7h-14c0 3.8 3 7 7 7z" fill="#368d76"/><path d="M720.5 741c3.8 0 7-3.2 7-7h-14c0 3.8 3 7 7 7z" fill="#402a16"/><path d="M734.2 741c3.8 0 7-3.2 7-7h-14c0 3.8 3.2 7 7 7z" fill="#368d76"/><path d="M748.3 741c3.8 0 7-3.2 7-7h-14c0 3.8 3.2 7 7 7z" fill="#402a16"/><path d="M762 741c4 0 7-3.2 7-7h-14c0 3.8 3.2 7 7 7z" fill="#368d76"/><path d="M776 741c3.8 0 7-3.2 7-7h-14c0 3.8 3 7 7 7z" fill="#dadada"/><path fill="#402a16" d="M768.6 695.4h28v38.8h-28z"/><path fill="#46b387" d="M796.5 695.4h27.8v38.8h-27.8z"/><path fill="#402a16" d="M824.3 695.4H852v38.8h-27.7zM775.8 741c3.8 0 7-3.2 7-7h-14c0 3.8 3 7 7 7z"/><path d="M789.5 741c4 0 7-3.2 7-7h-14c0 3.8 3.2 7 7 7z" fill="#368d76"/><path d="M803.6 741c3.8 0 7-3.2 7-7h-14c0 3.8 3.2 7 7 7z" fill="#402a16"/><path d="M817.4 741c3.8 0 7-3.2 7-7h-14c0 3.8 3 7 7 7z" fill="#368d76"/><path d="M831.4 741c4 0 7-3.2 7-7h-14c0 3.8 3.2 7 7 7z" fill="#402a16"/><path d="M845.2 741c3.8 0 7-3.2 7-7h-14c0 3.8 3.2 7 7 7z" fill="#368d76"/><path fill="#46b387" d="M852 695.4h28v38.8h-28z"/><path d="M873 741c4 0 7-3.2 7-7h-14c0 3.8 3.2 7 7 7z" fill="#368d76"/><path d="M859.3 741c3.8 0 7-3.2 7-7h-14c0 3.8 3 7 7 7z" fill="#402a16"/></g><path fill="none" d="M1028.6 773H1186v106.5h-157.4z"/><path d="M1319 760.2l-.2.8c0-.5.2-.8.2-.8z" fill="#78402c"/><g><g fill="#fff"><ellipse ry="6.1" rx="7.9" cy="843.4" cx="1258.3"/><ellipse ry="6.1" rx="7.9" cy="841.7" cx="1278.5"/><ellipse ry="4.9" rx="6.3" cy="842.9" cx="1286.4"/><ellipse ry="7.6" rx="9.4" cy="839.6" cx="1269.1"/></g></g><g><g fill="#fff"><ellipse ry="5.4" rx="6.9" cy="855.9" cx="1355.4"/><ellipse ry="6.6" rx="8.2" cy="854.2" cx="1344.5"/></g></g><g><defs><circle r="107.7" cy="825.7" cx="1310.7" id="c"/></defs><clipPath id="d"><use height="100%" width="100%" overflow="visible" xlink:href="#c"/></clipPath></g></switch></svg>