<svg xmlns="http://www.w3.org/2000/svg" xmlns:xlink="http://www.w3.org/1999/xlink" height="231.2" width="651"><path d="M655-60.4h25.7l3.3 7.2c.7 1.6-.4 3.5-2.2 3.5h-20.3c-1 0-1.8-.6-2.2-1.4l-4.2-9.4z" fill="#fff"/><g transform="translate(-747.794 -380.1)"><circle r="10.4" cy="94.3" cx="1386.4" fill="#6ec6d5"/></g><g transform="translate(-747.794 -380.1)"><circle r="5.7" cy="93.7" cx="1331.6" fill="#6ec6d5"/><path d="M1331.6 88v11.4c3.2 0 5.7-2.6 5.7-5.7 0-3.2-2.5-5.8-5.7-5.8z" fill="#57bfc8"/><circle r="1.9" cy="91.3" cx="1330.3" fill="#fff"/></g><g><path fill="#e9e8e8" d="M78.6 200.6h9.2v30.6h-9.2z"/><path fill="#3d3d3d" d="M78.6 226h9.2v5.2h-9.2z"/><path d="M94 203H63.2s.3 5.6 9 7.3c0 0-.2 3.7 1.7 3.7 2 0 1.4-3.7 1.4-3.7H82.4s-.6 3.7 1.4 3.7 1.7-3.7 1.7-3.7c8.4-1.7 8.7-7.4 8.7-7.4z" fill="#f29cb6"/><path d="M22 148.6l74-2.2s14 0 14 29-1.2 29.4-6.8 29.4H41.7s-18.3 2.4-18.3-14.3c0-16.6-1.5-42-1.5-42z" fill="#e9e8e8"/><path d="M37.5 147s10.7-2.2 14.7.8-3.2 7.6-6.4 8.3c-3.2.8-4.7.5-4.7.5l-5-6 1.5-3.5z" fill="#e9e8e8"/><path d="M53.3 149.4c0-.6-.5-1-1-1.6-4-3-15-.8-15-.8l-1.5 3.6s11.5-4 17.5-1.2z" fill="#3d3d3d"/><path d="M38.4 151.6S48 149 50 150.2c1.8 1.3-5.2 5.2-8.3 5l-3.3-3.6z" fill="#fff"/><path d="M13.4 143.4S3.8 138-1 139.8c-4.6 1.7 1 8.2 3.8 9.8 2.8 1.6 4.4 1.8 4.4 1.8l6.6-4.3-.4-3.6z" fill="#e9e8e8"/><path d="M-2.4 141c.3-.6.8-1 1.5-1.3 4.8-1.7 14.5 3.6 14.5 3.6l.4 4S4 140-2.5 141z" fill="#3d3d3d"/><path d="M11 147.4S2.8 142 .6 142.6c-2.2.7 3.3 6.5 6.3 7.3l4.3-2.6z" fill="#fff"/><g fill="#e9e8e8"><path d="M32.5 144.8s2.6-3.2 2.5-6c0 0 0-2 1.8-2.3 1.7-.2 3.7 2 2 6.3-2 4.5-3 4.7-3 4.7l-3.3-2.7zM19.5 142.6s-1.6-3.8-.6-6.6c0 0 .4-2-1.2-2.7-1.6-.7-4 .7-3.7 5.5.5 4.8 1.4 5.3 1.4 5.3l4-1.4z"/></g><g><path d="M38 175.7c2-3 3.3-6.7 4-10.7 2-12.8-5-24.5-15-26-10.3-1.6-20.2 7.6-22 20.4-.7 4-.5 8 .5 11.4l32.5 5z" fill="#e9e8e8"/><path d="M25 138.7c-6.7 0-13 4.2-16.8 11 1 1.5 5.5 2.3 8 1 3-1.7 8 .6 9.3-1.6 1.4-2-.5-10.3-.5-10.3zM42 165c.4-3 .4-5.7 0-8.4 0 0-2.5-.4-3.6 2.7-.7 2-.7 4.8-1.8 7-1.7 4 1 5 2.7 7 1.3-2.4 2.2-5.3 2.7-8.4z" fill="#3d3d3d"/><g transform="translate(-747.794 -380.1)"><circle r="2.9" cy="539.3" cx="763.9" fill="#fff"/><circle r="2.1" cy="539.3" cx="763.9" fill="#010202"/><circle r="1.1" cy="538.5" cx="765.4" fill="#fff"/></g><g transform="translate(-747.794 -380.1)"><circle r="2.9" cy="541.5" cx="778.5" fill="#fff"/><circle r="2.1" cy="541.5" cx="778.5" fill="#010202"/><circle r="1.1" cy="540.8" cx="780" fill="#fff"/></g><path d="M4.7 161.6v5.1c0 .4 0 .8.2 1.2v1.4l.4 1.3 4.3.7c2.6-.8 4.7-1.6 4-2.4-1.3-2-1.5-2.4-1-3.8s.8-4-1.2-5.3c-2-1.4-6.2-3.2-6.3-3.2l-.5 2.6c0 .5 0 1-.2 1.5.2 0 .2.3.2.6z" fill="#3d3d3d"/><g transform="translate(-747.794 -380.1)"><ellipse ry="9.1" rx="17" cy="555.4" cx="769.3" transform="rotate(8.645 769.44 555.58)" fill="#f193ac"/><ellipse ry="1.4" rx="1.5" cy="556.5" cx="774.8" transform="rotate(8.66 774.69 556.413)" fill="#c45e74"/></g></g><g><path fill="#e9e8e8" d="M36.8 200.6H46v30.6h-9.2z"/><path fill="#3d3d3d" d="M36.8 226H46v5.2h-9.2z"/></g><g><path fill="#e9e8e8" d="M53.5 200.6h9.2v30.6h-9.2z"/><path fill="#3d3d3d" d="M53.5 226h9.2v5.2h-9.2z"/></g><g><path fill="#e9e8e8" d="M95.3 200.6h9.2v30.6h-9.2z"/><path fill="#3d3d3d" d="M95.3 226h9.2v5.2h-9.2z"/></g><path d="M109.8 173.3c0-27-13.8-27-13.8-27l-28.3 1s.2 7.6 16.4 15c15.8 7 2.5 20.6 25.6 24.6.2-3.7.2-8 .2-13.7z" fill="#3d3d3d"/><path d="M106.4 154.6s5.6 4.7 7 16.7c1.8 14 7 19.2 7 19.2s2.4-.3 3.2 1.7c1.3 3 2.6 4.4 2.6 4.4s-8 1-7-5c0 0-4-4.4-5.7-11-1.8-6.4-2.4-13-5.5-15.6l-3.3-7.3 1.7-3z" fill="#3d3d3d"/><g transform="translate(-747.794 -380.1)"><path d="M815 469l-.4 6.6v4.3c.2 2.6 4.4 3.3 6.5 3.2 1 0 1 1.4 0 1.4-3.5.2-7.6-1.3-8-5.2-.2-3.4.2-7 .5-10.3 0-.8 1.6-.8 1.5 0z" fill="#e4a126"/><path d="M820.6 480.8c-1.8 1-4.2 1.3-6.3 1.2l.7-.7c0 1.2-.3 2.5-.4 3.7 0 1-1.5 1-1.4 0 0-1.2.3-2.5.4-3.7 0-.4.3-.7.7-.7 1.8 0 4 0 5.6-1 .6-.5 1.3.7.6 1.2zM804.6 469l-.4 6.6v4.3c.2 2.6 4.4 3.3 6.5 3.2 1 0 1 1.4 0 1.4-3.6.2-7.7-1.3-8-5.2-.3-3.4 0-7 .4-10.3.3-.8 1.7-.8 1.6 0z" fill="#e4a126"/><path d="M810.2 480.8c-1.8 1-4.2 1.3-6.3 1.2 0-.2.4-.5.6-.7 0 1.2-.3 2.5-.4 3.7 0 1-1.5 1-1.4 0 0-1.2.3-2.5.4-3.7 0-.4.3-.7.7-.7 1.7 0 4 0 5.5-1 .7-.5 1.5.7.7 1.2z" fill="#e4a126"/><path d="M805.6 436.7s4.4-.5 9-7.8c4.6-7.5 12.2-17 19.8-16 7.6 1 6.4 12.4 6.2 23.7-.2 11.3-7.4 35-35 35-32.5 0-35-36.6-32-56.4 0 0 6.3-2 11.6 7.6 0 0 6-2.6 9.7 7.7-.2 0 5.7-4.5 10.6 6z" fill="#e9e8e8"/><circle r="2.3" cy="422.2" cx="833.8" fill="#403d3d"/><path d="M840.5 423s5.6 3.7 6 4.6c.2 1-6 2-6 2V423zM839 416.4s1.4-15.6-3.8-15.4c-5.2.2-2 9.5-2 9.5s-5-10-8.3-6c-2.6 3 3.2 6.7 3.2 6.7s-7.2-1.4-7.4 2c-.2 3.7 4.4 3 4.4 3s8.2-6 13.8.2z" fill="#e4a126"/><path d="M803.7 458.8s-.3-25.8-9.2-23c0 0-4.2-9.7-10.5-7.2 0 0-2.7-8.4-8.6-8.6 0 0 0 19 4.5 28.6 7.2 15.6 24.2 17.8 23.7 10.2z" fill="#f7f5f5"/></g></g><g><path d="M552.6 79.6c-4.7-4.7-3.2-16.2-3.2-16.2h-13.8s1.5 11.5-3.2 16.2c-4.7 4.7-6.6 17-6.6 33.4v27s2 6 16.7 6 16.7-6 16.7-6v-27c0-16.5-2-28.8-6.6-33.4z" fill="#d6e5ea"/><path d="M555.5 105c0-6.4-1.2-13-1.2-13H531s-1.2 6.6-1.3 13c0 6.2-.4 29.5 1.2 32.5 1.5 3 7.3 3.8 11.6 3.8s10.2-.8 11.7-3.8 1.3-26.2 1.2-32.6z" fill="#fff"/><path d="M550.8 68c0 1.4-1 2.5-2.4 2.5h-11.8c-1.3 0-2.4-1-2.4-2.4v-5.3c0-1.3 1-2.4 2.4-2.4h11.8c1.3 0 2.4 1 2.4 2.4V68z" fill="#bcd6dd"/><g fill="#a7cbd2"><path d="M537 68.7c0 .3-.2.6-.5.6s-.6-.3-.6-.6v-6.5c0-.3.2-.6.5-.6s.6.3.6.6v6.5zM539.5 68.7c0 .3-.3.6-.6.6-.4 0-.7-.3-.7-.6v-6.5c0-.3.3-.6.6-.6.2 0 .5.3.5.6v6.5zM542 68.7c0 .3-.4.6-.7.6-.3 0-.6-.3-.6-.6v-6.5c0-.3.3-.6.6-.6s.6.3.6.6v6.5zM544.3 68.7c0 .3-.3.6-.6.6s-.6-.3-.6-.6v-6.5c0-.3.4-.6.7-.6.3 0 .6.3.6.6v6.5z"/><g><path d="M546.8 68.7c0 .3-.3.6-.6.6s-.6-.3-.6-.6v-6.5c0-.3.3-.6.6-.6s.6.3.6.6v6.5zM549.2 68.7c0 .3-.3.6-.6.6s-.6-.3-.6-.6v-6.5c0-.3.3-.6.6-.6s.6.3.6.6v6.5z"/></g></g><path d="M537 80.2s-8 7.4-5.4 38.8c0 0 1-29.6 12-38.8h-6.5z" opacity=".5" fill="#fff"/><g><path d="M603 93.2zm.8-.5zm-.4.3h-.2.2z" fill="#ccbea7"/><path d="M590.3 95s-1.8 21.4-1 22c.6.8 60-6 61-7.3 1-1.3 1.4-21.2 1.2-21.7l-.3-.5-61 7.4z" fill="#f8b81a"/><g fill="#eda60e" transform="translate(-747.794 -380.1)"><circle r="4.9" cy="482.1" cx="1354.7"/><circle r="4" cy="477.3" cx="1393"/><path d="M1375.6 476.8c2.4 0 4.5-1.8 4.7-4.2 0-1-.2-2-.7-2.6l-8 1v1.2c-.4 2.4 1.5 4.5 4 4.6zM1337.2 487.2c.7.4 1.5.7 2.4.8 2.8 0 5.3-2 5.4-5 0-2.7-2-5.2-5-5.3-.7 0-1.5 0-2.2.4 0 2.5-.3 6-.6 9.2zM1348.2 493.5c-1.7 0-3 1.2-3.2 3v.2l6-.6c-.2-1.3-1.4-2.4-2.8-2.5zM1385 490.2c.2-2.8-2-5.2-4.7-5.3-2.8-.2-5.2 2-5.3 4.7 0 1.3.4 2.5 1 3.4l8.7-1 .4-1.8z"/></g><g><path d="M590.3 95l7.5-5.8s4.2 2 6.2-.3-1-3.4-1-3.4 15-13.3 17-13.6c2-.3 23.2 1 31.5 16l-61.2 7z" fill="#ffd93e"/><path d="M604 89c2-2.3-1-3.4-1-3.4l-.3 4c.5 0 1-.3 1.3-.7z" fill="#e8ae0e"/><g fill="#f4cd29" transform="translate(-747.794 -380.1)"><circle r="3.5" cy="460.9" cx="1369.3"/><circle r="3.6" cy="463" cx="1384.3"/><circle r="2.5" cy="467.9" cx="1360.3"/></g></g></g><g><g transform="translate(-747.794 -380.1)"><path d="M1334.2 528c-5.2-3.5-8.4-1.7-8.4-1.7s-3.5 1-4.6 7.2c-1 6.2.2 13.3 4 17.7 3.8 4.4 8.2 5.6 12.6 3.7 4.7-2 6.7-6 6.2-11.7-.5-5.8-4.6-11.7-9.8-15.3z" fill="#ecb577"/><path d="M1326.3 526c5.4.3 12.7 10.7 13 18.4.3 7.6-7.6 11-7.8 11 2 .6 4.2.5 6.3-.4 4.7-2 6.7-6 6.2-11.6-.5-5.8-4.6-11.7-9.8-15.2-4-3-7-2.4-8-2z" fill="#e0a66c"/><ellipse ry="6.7" rx="4.6" cy="538.1" cx="1327.5" transform="rotate(-5.883 1327.45 538.103)" fill="#eebf9c"/></g><g transform="translate(-747.794 -380.1)"><path d="M1364 525.8c-1-6.2-4.5-7.3-4.5-7.3s-3-2-8.4 1.6c-5.2 3.5-9.4 9.4-10 15-.6 6 1.5 10 6 12 4.6 2 8.8.8 12.6-3.6 4-4.4 5.4-11.4 4.4-17.6z" fill="#e5ab70"/><path d="M1360 518.7c3.5 4 1 16.5-4.5 22-5.4 5.4-13.2 2-13.4 2 1 1.8 2.7 3.2 4.8 4 4.7 2.2 9 1 12.7-3.4 4-4.3 5.3-11.4 4.3-17.6-.6-4.8-3-6.5-4-7z" fill="#e0a66c"/><ellipse ry="6.7" rx="4.6" cy="527.7" cx="1352" transform="rotate(40.815 1352.007 527.71)" fill="#eebf9c"/></g><g transform="translate(-747.794 -380.1)"><path d="M1361 559.6c6-2.3 6.3-6 6.3-6s1.2-3.3-3.3-7.8c-4.4-4.4-11-7.4-16.8-6.8-5.8.6-9.3 3.5-10.3 8.2-1.2 5 1 8.8 6 11.7 5 3 12.2 3 18 .6z" fill="#ecb577"/><path d="M1367.2 554.2c-3.3 4.4-16 4.4-22.4.3-6.4-4-4.7-12.5-4.7-12.7-1.5 1.4-2.6 3.2-3 5.5-1.2 5 1 8.8 6 11.7 5 3 12.2 3 18 .6 4.7-1.8 6-4.4 6.2-5.4z" fill="#e0a66c"/><ellipse ry="6.7" rx="4.6" cy="548.3" cx="1356.7" transform="rotate(118.895 1356.673 548.27)" fill="#eebf9c"/></g></g></g><g><path fill="#dc472b" d="M227 83.8h198.5V231H227z"/><g transform="translate(-747.794 -380.1)"><defs><path id="a" d="M974.7 464h198.6V611H974.7z"/></defs><clipPath id="b"><use height="100%" width="100%" overflow="visible" xlink:href="#a"/></clipPath><g clip-path="url(#b)"><g fill="#cd311c"><path d="M974.7 464H985v147.2h-10.3zM996 463.5h7.8v147.7h-8z"/><g><path d="M1012.2 463.5h10.3v147.7h-10.3zM1031.5 463.5h9.8v147.7h-9.8z"/></g></g><g fill="#cd311c"><path d="M1049.8 463.5h10.3v147.7H1050zM1068.6 462.6h10.3v148.6h-10.4z"/><g><path d="M1087.3 463.5h10.3v147.7h-10.3zM1106 463h10.4v148.2H1106z"/></g></g><g fill="#cd311c"><path d="M1125 463.5h10.2v147.7H1125zM1143.6 462.6h10.3v148.6h-10.4z"/></g><path fill="#cd311c" d="M1162.4 463.5h10.3v147.7h-10.3z"/></g></g><path fill="#fff" d="M355.4 95.7H396v40.7h-40.6z"/><path fill="#98d4dd" d="M359.6 100h32.2v32.2h-32.2z"/><path fill="#fff" d="M373.6 136.4v-18.2h-18.2V114h18.2V95.6h4.2V114H396v4.2H378v18.2M256.4 95.7H297v40.7h-40.6z"/><path fill="#98d4dd" d="M260.6 100h32.2v32.2h-32.2z"/><path fill="#fff" d="M274.6 136.4v-18.2h-18.2V114h18.2V95.6h4.3V114h18v4.2h-18v18.2M359.7 158.3h46V231h-46z"/><path fill="#5e241a" d="M363.6 162.2h38.2v65h-38.2z"/><path fill="#fff" d="M364.6 158.3h-5l40.7 72.8h5.3"/><g><path fill="#fff" d="M246.8 158.3h46V231h-46z"/><path fill="#5e241a" d="M250.7 162.2H289v65h-38.3z"/><path fill="#fff" d="M287.8 158.3h5L252 231h-5.4"/></g><path fill="#79be78" d="M292.7 158.3h67V231h-67z"/><path fill="#544842" d="M227 147.4h198.5v11H227zM226.4 83.8V42.6l67 41.2"/><path fill="#544842" d="M292.7 83.8V42.6l67 41.2"/><path fill="#544842" d="M358.3 83.8V42.6l67 41.2"/><path fill="#544842" d="M388.8 0h36.6v83.8h-36.6z"/></g><path fill="#79be78" d="M158.8 83.5l35 43.3-35 43.3M458.2 83.5l35 43.3-35 43.3"/><g><path fill="none" d="M-270.2 393h157.5v106.4h-157.5z"/></g><g><path fill="none" d="M280.8 393h157.5v106.4H280.8z"/></g><g><g fill="#fff" transform="translate(-747.794 -380.1)"><ellipse ry="6.1" rx="7.9" cy="843.4" cx="1258.3"/><ellipse ry="6.1" rx="7.9" cy="841.7" cx="1278.5"/><ellipse ry="7.6" rx="9.4" cy="839.6" cx="1269.1"/></g></g><g transform="translate(-747.794 -380.1)"><defs><circle r="107.7" cy="825.7" cx="1310.7" id="c"/></defs><clipPath id="d"><use height="100%" width="100%" overflow="visible" xlink:href="#c"/></clipPath></g></svg>