<svg xmlns="http://www.w3.org/2000/svg" viewBox="0 0 26.800001 91.899999" height="100" width="100"><path d="M26.6 37.7v2.5s0-.3-.3-.3c0 .2 0 .3-.3 0 0 0 0 .3.3.5v.6h.2v20.2h-.2v-.4c0-.3-.4-.5-.6-.4v.3c-.2 0-.2 0-.2.3l.4 1h.7v3c-.3-.5-.4-.6-.5-.5 0-.3 0 1.4.3 1.4 0 0 0-.2.3-.2v2.6h-.3v1.5h.3v2.6h-.3c0 .3 0 .5.3 1v11.3c0 7-.3 7.2-7.4 7.2-1.7 0-3.2-.2-4.5-.4-3-.4-2.7-3.6-2.7-7.5V70l.4.4v-1h-.4v-3c.3-.4.3-.6.3-1h-.3v-2.6V38c0 .4.4.4.6.2 0 0 0-1-.4-2.3h-.4v-1c.3 0 .5-.2.8-.4 0-1-.4-1.4-.8-1.7v-2h.3v-.5c.2 0 .3-.3 0-.7 0-.4-.3-.7 0-.7h-.2c0-.6 0-1.2-.3-1.8-.3 0 0-.7.7-2H12c0 .4 0 .7-.3 1V26c-.4-1.6-1.4-2.6-3-3l-.2-.3V22h-.2s0 .2-.3.3c-.3 0 0 .7 0 .7H5.3c0-.2-.2-.4-.4-.6-.3-.4-.4 0-.4.5-1.7-.2-2.2-.2-3-.5v-.3h-.2C.6 22 0 21 0 19.8V18v-4c0-.7.4-1.3.8-1.8 0 0 0 .3 0 0v1h.8c0-.6-.3-1-.4-1.3.3-.4.7-.6 1-.8 0 0 0 .3.4.5h.7v-1l1-.3-.5.5c0 .2 0 .4.3.7-.2 0-.2.3-.2.5 0 .3 0 .5-.3.6l.5.5h.5c.4 0 1 0 1-.7h-.3s.4-.2.2-.4L5 12c.5.3.5 0 0 0-.2 0-.3 0-.3-.2.2-.4 0-1.3-.5-1.4.5 0 1-.3 1.2-.4.4.3.7.4.8.7v-1l1-.4v.2c.2 0 .4 0 .4-.4 1.7-.8 3-2 4.3-3v.8l.2.8h.5s-.3-.2-.3-.4c0 0 0-.3-.3-.3.4-.3.3-.7-.3-1.2.6-.4 1-1 1.4-1.4 0 1 .3 1.3 0 1.3.4 0 .5.3.6 0h.5v-.2c-.2.2-.4 0-.4 0v-.7c-.3-.4-.3-.7-.3-1v-.2c1-1.2 2-2 3-2.5.4.3.5 1 .2.8 0 .3 0 .4.4.4V.3C18 .3 19 0 19.8 0h.3s0 .3.3.4h.3c-.4 0 0 .5 0 .5 0-.4 0-.6-.2-1C22 0 23 0 23.5.3h.3v.3s0 .3-.2.3c.3 0 .5.3.3.3h.8l-.4-.2c.3 0 .4 0 .3-.3.4 0 .8.3 1 .7v1.8h.7v2.2h-.2v-.5s0 .2-.2.2c-.3 0-.3.3-.3.3 0 .5.3 1 .3 1.4h.5V9c0-.3-.3-.4-.5-.5v.5c0 .3.4.3.4.3v1h.2v1l-.4.3c.3.3.3.5 0 .7.3 0 .3.5.3 1V29s-.2 0-.4-.4c0 0-.2-.3-.4-.3 0 .3 0 .7.3 1 0 .3.2.6.3.7 0 0 0-.4.4-1V33l-.4-.5V32s.2-.2 0-.2H26V34h.6v2.5c-.2-.7-.3-1-.2-1.2-.7.3-.5 2 .2 2.4zM1.8 16h-.4v-.6H.7l.3 1 .4.5.4-.6V16zm0 3.2l-1-.5v1l.4.8.5-1.3zm.7-4.5v.4l.4.2h.3l.4-.8-.5-1h-.5v.8l-.2.3zm0-1.4h.6V13l-.4.3zm.2 4.8l.5.8.4-.5-.3-.8L3 17v-.2l-.5.3.2 1zm1 3.7V21l-.3-.3v-.3H3v1.9l.8-.6zm2-6.5H5l.3-.5-.4-.4-.6.5v.8l1 .4H5v.6h.4l.3-.7V15zm0 4.7L5 18.5v-1l-.5 1.5.5 1.5.4-.6zM6 15h.3V14h-.4l.2 1.2zm.2 1V18l.4-.5-.4-1.3zM7 20l-.7 1 .5 1.2V20zm.5-4.8v.8l.5.4v-1.1l-.2-.2-.3.2zm1 4.7l-.2-1-.3-.4-.5.4.4.3v1l.4-.4zm-.8-6.7h.5v-.8.3-.4L8 11.4l-.3.3v1.6zm.7-2.4v-.6H8v.6l.2.4V11zm.6 9h-.4v.2L9 20zm.2-9.6v.8h.4v-1l-.4-.8v1zm.5 3.2l-.3.8.4.5v-1.4zm-.2 3.7l.4.8.2-.4-.4-.7-.3.3zm1 4.3L10 21H10v.3l.2.8v.4l.4-.8zm0-13l.4.5v.2l.3-.5L11 8h-.2v.7zm.4 3h-.2l.4.4-.3-.4zm0 4.6l.2.3h.3l.2-.7-.4-1v-.3l-.4.3v.4l-.2.5v.5zM11 11v-.4l-.3.5h.2zm.2 1.3H11v.3l.4.4h.4l-.2-.7zM12 20l-.3-1.3-.5-.3v1.8h.4l.5-.3zm.2 54l.5.4v-.8l-.5-.4v.8zm0 3.6h.8l-.3-.8h-.3l-.2.8zm.3-66.8h.5l.3-.3-.4-.4v-.3l-.2-.3-.3.3v1zm0 34.6l1 .3-.4-1.3-.3-.5v.3l-.2 1zm.2 3.6l.3.8.3-.7v-1l-.4-.3-.4.8v.5zm.2-34.3h.2v-1l-.4.4v.5zm-.3 37.8l.7 1V52.2l-.7.3zm0 28.7l.3 1v-1l-.2-.8v.8zm.5 4L13 85l-.2.2v.3l.4-.2zm.3-64.3l-.5-.5.3 1v.6l.2-1zm0 3.4V24l-.4.4.2.5v.2h.4v-.8zM13 57l.6.2.3-.7-.5-.7H13v1zm.4 6.8l.6.4V63l-.5-.5v1.3zm.2-32.6v.5h.3v-.4h-.4zm.2 36.5l.3.8.2-.8h-.4zm.5 7.3l-.3-.8-.3.4v1l.6-.6zM14 8.7l.2-.3v-1l-.3 1.3zm0 2.7l.2.6.4.8v-.4l-.2-.8H14V11v.4zm.4 27v-.5H14v.3h.4zm0-23.7V14l-.4.5.3 1.2.3.7.3-.7-.6-1zm-.2 25h.3v-.3l-.2.2v.2zm0 32H14v.5h.3v-.4zm0-60zm.7 6.8l-.5-.3-.3.4v1l.4.4.3-.7v-.8zm-.2 25.2v-.5l-.3-.4V42l-.3-.2v1.6l.6.3zM15 23l-.2-1-.4.4.5 1V23zm-.3 3l.7 1v-1h-.7zm.4 24.4l-.2.3.3.5v-.8zm.2 7.7v1l.2-.2v-1.1l-.2.4zm.4-25.2l-.3-.7v1.4l.4 1.3.5-.3V34v.2l-.2-.5-.4-1zm-.3 33h.5l-.4-1v1zm.2-62.3h.6V2.2h-.3L16 2h-.3l-.3.2v1.3zm1 34v.3H16v-1l-.3-.3-.3 1 .3.8h.5v-.4l.4-.2zm-.8-32l.2.2v-.3h-.4zm0 64v.3h.3v-.4l-.3-.4v.5zM16 6h-.3v1.2h.2V6zm.4 3.7l-.4-.4h-.3v.5h.3l-.2.3v.6l.2.4h.4l.3-.6-.3-.7zM16.2 41l-.4-.2v.8l.4-.5zm0-27l.2.6v-1.3l-.5-.6V14zm0 59.6l-.4.5h.3v-.4zm-.2-29l.4 1v-1H16zM17 21h-.6v.7h.4V21zm-.6 28v.3h.5l.2-.2h-.5v-.5h-.2v.5zm0 10.7h.5l-.4-.2v.2zm.4-36V25l.4.4v-1l-.4-.7zM16.6 56l.3.6V56h-.4zm0 4v.5l.2.3.3-.3V60h-.3v.3zm.2 3.4h.3v-.3l-.2.4zm0 4.3l.8.4V68l-.4-.7-.3.7zm.2-40V29l.2-.3V28L17 28zm.5 4.4V32l-.2-.3V31l-.2.6.5.5zm-.4 3l.4 1 .4-1H17zm.3-30.7h.3L17.3 3v1.3zm0 2.6V7l.2-.4v-.4h-.3l.2.5zm0 .7V9l.6-.4-.6-1zm0 31.4l.5 1v-1.3l-.3-.3v.7zm.8-26.8v-.8l-.4.3.4 1 .4-.2-.3-.3zm-.5 30.4l.6.8-.2-1.2-.4-.5v1zm0 33l.3.2v-.5h-.2v.4zm.7-60.3l-.5-.4v.6l.2.4h.2v-.7zm0 64.6v-.6l-.4-.4v.5l.5.4zm0-61.4l-.2 1 .4-.8-.4-.8v.6zm.4 3.4H18l.4.4h.3V22zM18 47.2l.4.4V47l-.2-.3v.5zm.6-24.2v-.3H18l.4.3zm-.4 27.3l.4.3v-.4H18zm0 4.3l.5.3v-1.1l-.4-.4v-.3 1.4zm.6-29h-.5l.3.5.2-.4zm-.2 31.7v.8h.3l-.4-.7zm0 4.6l.4.2v-.7l-.3-.5-.3.3.2.6zm.4-33.7h-.3v.3l.3-.3zm.4 5L19 33v1l.3.5v-1zm0 36v-1h-.6v1l.4.8.2-.8zM19 2.8l.3.6h.4V3l-.5-.7-.2.6zm0 7.3l.4.6.5-1v-.6h-.4v-1l-.4-.3.3.4-.5 1v.7zm.6 2.6l.3-.5V12h-.6v.4l-.3.4.5.4v1.1h.3l.4-.4v-1H19.5zm-.4 24.6v.3h.2l-.2-.4zm.4-32v-.3l-.4.8.3 1.3.3-1-.2-.7zm-.2 28h.6v-.3h-.3l-.3.2zm0 8l.2-.2v-1l-.3-.3v1l.2.5zm.5-23.8l.3-.8-.8-.4v.8l.4.4zM20 81v-.5h-.4v.8l.4.6v-1zm-.3-60.3l.5.3-.3-.5-.2-.5v.7zm0 24v.4l.3.2v-.5h-.3zm0 4l.5.6h.4l-.4-.4-.3-.6-.2-.4v.6zm.6-38.2v-.3l-.4.3.2.3v-.3zm.4 13.7l-.7-.7.2.5v.7l.5-.5zM20 10h.4V10l-.4.2zm1 17.6h-1l.2.6.3.4.4-1zm-.7 32v.2h.4v-.3l-.4-.3v.5zm0 3.3l.3.4V62.5l-.3.5zm0-61.4h.4l-.3-.4v.4zm.6 30l-.2-.4-.4.7.6.3v-.6zm-.6 2.7v1l.4.5.3-1-.6-.5zm.4 5l.6.4V39l-.5-.7v-.8h-.2l-.3.2v.8l.3 1zm0 28V67h-.3v.7h.4v-.4zm0-62.6l.4.4V5h.2l.4-.2-.3-.3h-.3L21 4l-.3.7zm.6 3.7v-.8l-.4-.3V8l.4.4zm-.5 3h.4l-.4-.8v.7zm0 31.2l.2.6.4-.5-.5-.7v.6zm.3 4.5l.3.4.3-.8h-1l.3.5zm0-31l.2-.8-.4-.4v.7l.4.5zm0 34.4l.4.5h.5v-1l-.8-.4v.8zM22 22l-.3.3v.7l.5-.4-.2-.6zm-.3 31.4l.5 1.3V54l-.5-.6zM22 26v.5l.4-.3v-.9h-.5v.8zm0 3l.4.6h.4l-.4-.8-.3-.4v.5zm0 29.4l.4.3v-.3l-.2-.5v-.4l-.2.8zm.2-56.6l.3 1 .4.6.2-.3.3-.3h-.3v-.3l-.5-.7h-.5zm0 31.6l.5.8h.3v-1l-.7.2zm.4 35.8v-.5h-.3l.3.5zm.8-62.6v-.3l-.2-.7-.3-.3-.5.4.3.8.3.3h.2l.2-.2zM22.7 36v-.6h-.2l.2.5zm0 .5v1h.3l.3-.5-.3-.3-.4-.2zm0 3.5l.2.8v.5h.2V41l.3-.4-.4-.5-.2-.2-.2.2zM23 9l-.3.6.6.7L23 9zm.3 64.4H22.6v.5l.4-.2v-.4zm.3-60l-.4-.8v-.4l-.2.4V14l.6-.5zM23 44l.2 1h.3v-1.3l-.3-.7-.3 1zm.3 4.4v.4l.5-1-.7-.2.3.8zm.2-32l-.3-.4v1.6h.4v-1.1zm0 35.5l.2.4.3.3V52l-.3-.6-.3.5zm0-28.5h.2v-.6l-.3.8.7 1 .2-.6v-.5H23.5zm0 32.3l.4.8v-1l-.3-.5-.2.8zM24 3h.2V3H24V3zm.3 1l-.4.6.7.7v-1l-.3-.8-.5.3v.4-.4h.3zm0 55h-.4v.7l.4.3v-.4l-.2-.5zm-.4 4v.4l.3.4v-.4l-.2-.8v.3zm.4-35.8l-.4-.5v.7l.4 1V27zm-.4 40l.7.6V67l-.4-.5-.3.8zM24.6 7v-.8l-.4.4v1l.7 1 .3-.5-.3-.5-.4-.5zm0 24.2l-.4-.8V32l.5-.8zm-.4 39.6l.5.5h-.3v.4l.4-.5v-.8h-.4l-.2.4zm1.3-59l-.3-.8-.5-.7h.4l-.2-.6v-.4l-.5 1.4.7 1.3.5-.3zm-1.2 63l.5 1 .3-.4V75l-.2-1-.5.7zm.3-59.5l.4.5.4-.3V15l-.2-.7v-.5l-.8.5.2 1zm0 22.4V39l.6.3V38l-.6-.3zm.3 40.8h-.2V78v.5zm0-61l-.2.4.4.3v.8l.5-.7-.8-.8zm.2 24.2l-.4.6.5.7h.3l-.4-1.3zm0 3.7l-.4.4.3 1 .4.5v-2zm.3 37h-.3v.7l.3-.4v-.3zM25.3 22v.8l.5-.5-.5-.3zm.8 32l-.2-.4v-.8l-.5 1 .7.7V54zm-.3-28.3l-.3-.5.3.8h.4l-.3-.3zm.3 32V57l-.4 1 .4-.2z"/></svg>