<svg
   xmlns:i="&amp;#38;ns_ai;"
   xmlns:dc="http://purl.org/dc/elements/1.1/"
   xmlns:cc="http://creativecommons.org/ns#"
   xmlns:rdf="http://www.w3.org/1999/02/22-rdf-syntax-ns#"
   xmlns:svg="http://www.w3.org/2000/svg"
   xmlns="http://www.w3.org/2000/svg"
   xmlns:xlink="http://www.w3.org/1999/xlink"
   version="1.1"
   id="svg2"
   viewBox="0 0 222.91984 238.26553"
   height="67.243828mm"
   width="62.912933mm">
  <g
     transform="translate(-56.208483,-168.1419)"
     id="layer1">
    <g transform="translate(-79.737574,144.24079)">
      <g
         id="g3341">
        <g
           id="g3343">
          <defs
             id="defs3345">
            <rect
               height="80"
               width="79.999001"
               y="44.464001"
               x="38.973"
               id="SVGID_235_" />
          </defs>
          <clipPath
             id="SVGID_2_">
            <use
               id="use3349"
               overflow="visible"
               xlink:href="#SVGID_235_"
               style="overflow:visible"
               x="0"
               y="0"
               width="100%"
               height="100%" />
          </clipPath>
        </g>
      </g>
      <g
         id="g3361">
        <defs
           id="defs3363">
          <rect
             height="238.26601"
             width="222.922"
             y="23.900999"
             x="135.94501"
             id="SVGID_237_" />
        </defs>
        <clipPath
           id="SVGID_4_">
          <use
             id="use3367"
             overflow="visible"
             xlink:href="#SVGID_237_"
             style="overflow:visible"
             x="0"
             y="0"
             width="100%"
             height="100%" />
        </clipPath>
        <path
           id="path3369"
           d="m 269.922,94.153 40.813,27.756 c 0,0 55.78,-67.899 47.242,-73.55 -8.54,-5.653 -17.967,-3.799 -24.617,-7.324 -5.661,-4.502 -9.904,-17.883 -18.778,-17.101 -10.969,3.445 -44.66,70.219 -44.66,70.219"
           clip-path="url(#SVGID_4_)"
           style="fill:#fadd7e" />
        <path
           id="path3371"
           d="m 270.509,102.522 c 0.622,0.412 0.793,1.25 0.38,1.874 -0.411,0.621 -1.251,0.793 -1.873,0.382 -0.623,-0.413 -0.79,-1.253 -0.38,-1.874 0.412,-0.623 1.25,-0.794 1.873,-0.382 m 0.209,9.182 c 0.622,0.412 0.793,1.25 0.381,1.873 -0.412,0.622 -1.251,0.794 -1.873,0.382 -0.622,-0.411 -0.794,-1.252 -0.381,-1.874 0.411,-0.623 1.251,-0.793 1.873,-0.381 m 9.61,-2.121 c 0.621,0.412 0.795,1.251 0.382,1.875 -0.411,0.622 -1.253,0.792 -1.875,0.38 -0.622,-0.412 -0.793,-1.252 -0.381,-1.874 0.411,-0.624 1.252,-0.794 1.874,-0.381 m 2.019,8.446 c 0.623,0.411 0.793,1.25 0.382,1.872 -0.412,0.623 -1.251,0.795 -1.874,0.383 -0.622,-0.412 -0.794,-1.252 -0.381,-1.875 0.411,-0.623 1.252,-0.792 1.873,-0.38 m 8.093,-1.356 c 0.621,0.411 0.791,1.251 0.38,1.874 -0.412,0.622 -1.251,0.792 -1.872,0.381 -0.624,-0.413 -0.794,-1.251 -0.384,-1.873 0.414,-0.622 1.253,-0.795 1.876,-0.382 m 1.892,6.357 c 0.622,0.412 0.794,1.251 0.383,1.873 -0.413,0.623 -1.253,0.793 -1.874,0.381 -0.623,-0.412 -0.795,-1.251 -0.383,-1.875 0.412,-0.621 1.252,-0.791 1.874,-0.379 m 10.741,-0.4 c 0.623,0.412 0.794,1.25 0.383,1.873 -0.413,0.624 -1.252,0.794 -1.874,0.381 -0.623,-0.412 -0.794,-1.25 -0.383,-1.874 0.413,-0.622 1.252,-0.792 1.874,-0.38 m -42.401,-3.787 c 5.851,8.785 16.254,19.969 27.001,20.123 11.585,0.164 14.146,-1.892 16.69,-5.736 2.543,-3.842 5.369,-8.112 5.369,-8.112 L 267.744,96.713 c 0,-10e-4 -12.924,13.345 -7.072,22.13"
           clip-path="url(#SVGID_4_)"
           style="fill:#fadd7e" />
        <path
           id="path3373"
           d="m 261.158,149.273 c 1.502,1.194 3.688,0.946 4.883,-0.556 1.194,-1.503 0.946,-3.688 -0.557,-4.883 -1.502,-1.194 -3.688,-0.945 -4.882,0.557 -1.195,1.503 -0.946,3.688 0.556,4.882"
           clip-path="url(#SVGID_4_)"
           style="fill:#fadd7e" />
        <path
           id="path3375"
           d="m 217.79,234.845 c 1.502,1.194 3.688,0.944 4.883,-0.557 1.195,-1.502 0.945,-3.688 -0.556,-4.883 -1.504,-1.194 -3.688,-0.945 -4.885,0.557 -1.192,1.501 -0.944,3.687 0.558,4.883"
           clip-path="url(#SVGID_4_)"
           style="fill:#fadd7e" />
        <path
           id="path3377"
           d="m 252.343,171.521 c 1.502,1.194 3.687,0.944 4.883,-0.557 1.194,-1.502 0.945,-3.688 -0.557,-4.883 -1.503,-1.195 -3.688,-0.945 -4.883,0.557 -1.195,1.502 -0.945,3.689 0.557,4.883"
           clip-path="url(#SVGID_4_)"
           style="fill:#fadd7e" />
        <path
           id="path3379"
           d="m 267.873,178.5 c 1.835,1.46 4.505,1.155 5.965,-0.68 1.459,-1.835 1.155,-4.505 -0.681,-5.965 -1.834,-1.46 -4.505,-1.155 -5.965,0.68 -1.46,1.835 -1.154,4.506 0.681,5.965"
           clip-path="url(#SVGID_4_)"
           style="fill:#fadd7e" />
        <path
           id="path3381"
           d="m 193.373,260.261 c 3.853,3.064 9.513,2.358 12.642,-1.577 3.13,-3.934 2.545,-9.607 -1.308,-12.671 -3.852,-3.064 -9.511,-2.358 -12.643,1.576 -3.128,3.934 -2.543,9.608 1.309,12.672"
           clip-path="url(#SVGID_4_)"
           style="fill:#fadd7e" />
        <path
           id="path3383"
           d="m 213.064,182.745 c 1.836,1.46 4.507,1.155 5.965,-0.679 1.461,-1.835 1.157,-4.506 -0.679,-5.966 -1.835,-1.459 -4.505,-1.155 -5.964,0.68 -1.459,1.836 -1.156,4.505 0.678,5.965"
           clip-path="url(#SVGID_4_)"
           style="fill:#fadd7e" />
        <path
           id="path3385"
           d="m 137.549,238.922 c 1.835,1.46 4.506,1.155 5.965,-0.68 1.459,-1.834 1.155,-4.505 -0.68,-5.965 -1.836,-1.459 -4.505,-1.155 -5.964,0.68 -1.461,1.835 -1.156,4.505 0.679,5.965"
           clip-path="url(#SVGID_4_)"
           style="fill:#fadd7e" />
        <path
           id="path3387"
           d="m 181.208,238.922 c 1.834,1.46 4.504,1.155 5.965,-0.679 1.459,-1.835 1.154,-4.506 -0.681,-5.966 -1.834,-1.459 -4.505,-1.155 -5.964,0.68 -1.46,1.835 -1.156,4.505 0.68,5.965"
           clip-path="url(#SVGID_4_)"
           style="fill:#fadd7e" />
        <path
           id="path3389"
           d="m 234.093,157.005 c 0.751,0.598 1.844,0.473 2.441,-0.278 0.597,-0.751 0.473,-1.845 -0.278,-2.441 -0.751,-0.598 -1.844,-0.473 -2.441,0.277 -0.598,0.75 -0.473,1.845 0.278,2.442"
           clip-path="url(#SVGID_4_)"
           style="fill:#fadd7e" />
        <path
           id="path3391"
           d="m 226.186,247.204 c 0.751,0.597 1.844,0.473 2.441,-0.278 0.597,-0.751 0.473,-1.844 -0.279,-2.441 -0.75,-0.597 -1.843,-0.473 -2.44,0.278 -0.597,0.751 -0.473,1.843 0.278,2.441"
           clip-path="url(#SVGID_4_)"
           style="fill:#fadd7e" />
        <path
           id="path3393"
           d="m 192.961,176.537 c 0.751,0.598 1.845,0.474 2.442,-0.277 0.597,-0.752 0.473,-1.845 -0.279,-2.441 -0.75,-0.598 -1.844,-0.473 -2.441,0.277 -0.598,0.751 -0.473,1.844 0.278,2.441"
           clip-path="url(#SVGID_4_)"
           style="fill:#fadd7e" />
        <path
           id="path3395"
           d="m 233.011,208.903 c 1.501,1.194 3.688,0.946 4.883,-0.556 1.195,-1.503 0.946,-3.688 -0.556,-4.883 -1.503,-1.194 -3.689,-0.946 -4.884,0.557 -1.194,1.502 -0.945,3.688 0.557,4.882"
           clip-path="url(#SVGID_4_)"
           style="fill:#fadd7e" />
        <path
           id="path3397"
           d="m 269.122,236.874 c 1.502,1.194 3.688,0.945 4.883,-0.557 1.195,-1.502 0.944,-3.688 -0.556,-4.883 -1.504,-1.195 -3.688,-0.945 -4.885,0.557 -1.192,1.502 -0.944,3.689 0.558,4.883"
           clip-path="url(#SVGID_4_)"
           style="fill:#fadd7e" />
      </g>
      <g
         id="g3399">
        <g
           id="g3401">
          <defs
             id="defs3403">
            <rect
               height="109.788"
               width="109.787"
               y="57.744999"
               x="399.354"
               id="SVGID_239_" />
          </defs>
          <clipPath
             id="SVGID_5_">
            <use
               id="use3407"
               overflow="visible"
               xlink:href="#SVGID_239_"
               style="overflow:visible"
               x="0"
               y="0"
               width="100%"
               height="100%" />
          </clipPath>
        </g>
        <g
           id="g3427">
          <defs
             id="defs3429">
            <rect
               height="109.788"
               width="109.787"
               y="57.744999"
               x="399.354"
               id="SVGID_241_" />
          </defs>
          <clipPath
             id="SVGID_7_">
            <use
               id="use3433"
               overflow="visible"
               xlink:href="#SVGID_241_"
               style="overflow:visible"
               x="0"
               y="0"
               width="100%"
               height="100%" />
          </clipPath>
          <path
             id="path3437"
             d="m 427.044,120.881 -0.003,0.003 -0.26,0.262 c 0.145,0.116 0.297,0.229 0.453,0.337 -0.065,-0.198 -0.129,-0.4 -0.19,-0.602"
             clip-path="url(#SVGID_7_)"
             style="fill:#40221a" />
        </g>
      </g>
      <g
         id="g3439">
        <defs
           id="defs3441">
          <rect
             height="111.345"
             width="304.12701"
             y="304.422"
             x="53.280998"
             id="SVGID_243_" />
        </defs>
        <clipPath
           id="SVGID_8_">
          <use
             id="use3445"
             overflow="visible"
             xlink:href="#SVGID_243_"
             style="overflow:visible"
             x="0"
             y="0"
             width="100%"
             height="100%" />
        </clipPath>
        <path
           id="path3447"
           d="m 325.413,304.422 c 0.234,2.68 -2.578,5.115 -6.278,5.438 -3.703,0.324 -6.894,-1.586 -7.128,-4.266 0.234,2.68 -2.576,5.115 -6.278,5.438 -3.702,0.324 -6.892,-1.586 -7.126,-4.266 0.234,2.68 -2.577,5.115 -6.278,5.438 -3.701,0.324 -6.894,-1.586 -7.128,-4.266 0.234,2.68 -2.576,5.115 -6.277,5.438 -3.702,0.324 -6.893,-1.586 -7.127,-4.266 0.234,2.68 -2.577,5.114 -6.28,5.438 -3.7,0.324 -6.892,-1.586 -7.126,-4.266 0.234,2.68 -2.577,5.115 -6.277,5.438 -3.702,0.324 -6.895,-1.586 -7.129,-4.266 0.234,2.68 -2.574,5.114 -6.277,5.438 -3.701,0.324 -6.892,-1.586 -7.126,-4.266 0.234,2.68 -2.578,5.114 -6.277,5.438 -3.703,0.324 -6.894,-1.586 -7.128,-4.266 0.234,2.68 -2.576,5.114 -6.277,5.438 -3.703,0.324 -6.896,-1.586 -7.13,-4.266 0.234,2.68 -2.574,5.114 -6.276,5.438 -3.701,0.323 -6.893,-1.586 -7.127,-4.266 0.234,2.68 -2.576,5.114 -6.278,5.438 -3.702,0.323 -6.893,-1.586 -7.127,-4.266 0.234,2.679 -2.576,5.114 -6.278,5.438 -3.701,0.323 -6.893,-1.586 -7.128,-4.266 0.235,2.679 -2.575,5.114 -6.276,5.438 -3.702,0.324 -6.894,-1.586 -7.128,-4.266 0.234,2.68 -2.576,5.115 -6.279,5.439 -3.7,0.323 -6.892,-1.587 -7.126,-4.266 0.234,2.679 -2.577,5.114 -6.277,5.438 -3.702,0.324 -6.893,-1.586 -7.128,-4.266 0.235,2.68 -2.576,5.115 -6.277,5.438 -3.702,0.324 -6.895,-1.586 -7.128,-4.265 0.233,2.679 -2.576,5.115 -6.277,5.438 -3.702,0.324 -6.894,-1.586 -7.128,-4.266 0.234,2.679 -2.575,5.115 -6.277,5.438 -3.702,0.324 -6.893,-1.586 -7.127,-4.266 0.234,2.68 -2.577,5.115 -6.278,5.438 -3.151,0.276 -5.927,-1.07 -6.827,-3.129 -0.531,2.185 -3.029,3.991 -6.182,4.268 -3.7,0.323 -6.892,-1.586 -7.126,-4.266 0,0 -0.96,4.082 -4.425,4.959 l 1.217,13.918 c 3.466,-0.878 4.426,-4.959 4.426,-4.959 0.234,2.68 3.424,4.589 7.125,4.265 3.153,-0.275 5.651,-2.082 6.182,-4.267 0.902,2.059 3.677,3.404 6.827,3.129 3.702,-0.324 6.513,-2.758 6.278,-5.438 0.234,2.68 3.426,4.589 7.128,4.265 3.701,-0.324 6.512,-2.758 6.277,-5.438 0.234,2.68 3.426,4.589 7.128,4.265 3.701,-0.324 6.513,-2.758 6.277,-5.438 0.235,2.68 3.426,4.589 7.127,4.265 3.702,-0.324 6.513,-2.758 6.278,-5.438 0.234,2.68 3.426,4.589 7.127,4.265 3.702,-0.324 6.513,-2.758 6.278,-5.438 0.234,2.68 3.426,4.589 7.127,4.265 3.702,-0.323 6.512,-2.758 6.277,-5.438 0.234,2.68 3.427,4.589 7.128,4.265 3.702,-0.324 6.514,-2.758 6.279,-5.438 0.234,2.68 3.425,4.589 7.126,4.265 3.701,-0.323 6.513,-2.758 6.278,-5.438 0.234,2.68 3.425,4.589 7.126,4.265 3.703,-0.324 6.514,-2.758 6.279,-5.438 0.234,2.68 3.425,4.589 7.127,4.265 3.701,-0.323 6.513,-2.758 6.277,-5.438 0.235,2.68 3.427,4.589 7.129,4.265 3.701,-0.324 6.512,-2.758 6.276,-5.438 0.235,2.68 3.425,4.589 7.128,4.265 3.701,-0.324 6.513,-2.758 6.277,-5.438 0.235,2.68 3.425,4.589 7.128,4.265 3.701,-0.324 6.511,-2.758 6.276,-5.438 0.234,2.68 3.427,4.589 7.129,4.266 3.7,-0.324 6.513,-2.759 6.278,-5.438 0.234,2.68 3.425,4.589 7.124,4.266 3.703,-0.324 6.516,-2.759 6.281,-5.438 0.234,2.68 3.425,4.589 7.126,4.266 3.702,-0.324 6.513,-2.759 6.277,-5.438 0.235,2.68 3.427,4.589 7.129,4.266 3.701,-0.324 6.512,-2.759 6.277,-5.438 0.234,2.68 3.426,4.589 7.126,4.266 3.703,-0.324 6.514,-2.758 6.278,-5.438 0.235,2.681 3.427,4.589 7.128,4.266 3.701,-0.324 6.513,-2.758 6.278,-5.438 0.234,2.68 3.426,4.59 7.127,4.266 2.797,-0.245 5.083,-1.695 5.934,-3.545 l -1.219,-13.918 c -0.85,1.85 -3.136,3.301 -5.934,3.545 -3.7,0.334 -6.891,-1.576 -7.125,-4.256"
           clip-path="url(#SVGID_8_)"
           style="fill:#edf4f6" />
      </g>
      <polygon
         id="polygon3449"
         points="357.408,311.667 54.23,338.192 61.018,415.767 333.985,399.439 "
         style="fill:#edf4f6" />
      <g
         id="g3451">
        <defs
           id="defs3453">
          <rect
             height="236.067"
             width="130.717"
             y="229.896"
             x="406.92801"
             id="SVGID_245_" />
        </defs>
        <clipPath
           id="SVGID_10_">
          <use
             id="use3457"
             overflow="visible"
             xlink:href="#SVGID_245_"
             style="overflow:visible"
             x="0"
             y="0"
             width="100%"
             height="100%" />
        </clipPath>
      </g>
      <g
         id="g3465">
        <defs
           id="defs3467">
          <rect
             height="236.067"
             width="130.717"
             y="229.896"
             x="406.92801"
             id="SVGID_247_" />
        </defs>
        <clipPath
           id="SVGID_11_">
          <use
             id="use3471"
             overflow="visible"
             xlink:href="#SVGID_247_"
             style="overflow:visible"
             x="0"
             y="0"
             width="100%"
             height="100%" />
        </clipPath>
      </g>
      <g
         id="g3477">
        <defs
           id="defs3479">
          <rect
             height="218.84"
             width="410.60501"
             y="499.216"
             x="38.973"
             id="SVGID_249_" />
        </defs>
        <clipPath
           id="SVGID_13_">
          <use
             id="use3483"
             overflow="visible"
             xlink:href="#SVGID_249_"
             style="overflow:visible"
             x="0"
             y="0"
             width="100%"
             height="100%" />
        </clipPath>
        <g
           id="g3487"
           clip-path="url(#SVGID_13_)">
          <defs
             id="defs3489">
            <rect
               height="218.84"
               width="410.60501"
               y="499.216"
               x="38.973"
               id="SVGID_251_" />
          </defs>
          <clipPath
             id="SVGID_14_">
            <use
               id="use3493"
               overflow="visible"
               xlink:href="#SVGID_251_"
               style="overflow:visible"
               x="0"
               y="0"
               width="100%"
               height="100%" />
          </clipPath>
          <g
             id="g3495"
             clip-path="url(#SVGID_14_)"
             style="opacity:0.4">
            <g
               id="g3497">
              <defs
                 id="defs3499">
                <rect
                   height="98.619003"
                   width="75.336998"
                   y="501.25299"
                   x="30.895"
                   id="SVGID_253_" />
              </defs>
              <clipPath
                 id="SVGID_16_">
                <use
                   id="use3503"
                   overflow="visible"
                   xlink:href="#SVGID_253_"
                   style="overflow:visible"
                   x="0"
                   y="0"
                   width="100%"
                   height="100%" />
              </clipPath>
            </g>
          </g>
          <g
             id="g3507"
             clip-path="url(#SVGID_14_)"
             style="opacity:0.4">
            <g
               id="g3509">
              <defs
                 id="defs3511">
                <rect
                   height="98.619003"
                   width="75.336998"
                   y="616.10303"
                   x="378.104"
                   id="SVGID_255_" />
              </defs>
              <clipPath
                 id="SVGID_17_">
                <use
                   id="use3515"
                   overflow="visible"
                   xlink:href="#SVGID_255_"
                   style="overflow:visible"
                   x="0"
                   y="0"
                   width="100%"
                   height="100%" />
              </clipPath>
            </g>
          </g>
        </g>
      </g>
    </g>
  </g>
</svg>
