<svg xmlns="http://www.w3.org/2000/svg" width="13.3mm" height="10.7mm" viewBox="0 0 47.3 37.9">
  <g transform="translate(-557.01862,-754.31906)">
    <path
       d="m 573.57728,779.86589 9.20296,-9.55542 c 0,0 -15.43918,-17.85431 -17.32203,-15.83168 -1.88117,1.99275 -1.81676,4.5748 -3.06084,6.1687 -1.45223,1.29735 -5.1845,1.82166 -5.37875,4.20904 0.4277,3.05225 16.55866,15.00936 16.55866,15.00936 z"
       style="fill:#40221a;fill-opacity:1;fill-rule:nonzero;stroke:none" />
    <path
       d="m 575.82784,780.09759 c 0.14372,-0.15682 0.36874,-0.15911 0.51144,-0.0311 0.15683,0.14373 0.15912,0.36874 0.0154,0.52554 -0.12794,0.14272 -0.35296,0.14502 -0.50976,10e-4 -0.14272,-0.12794 -0.15912,-0.36874 -0.017,-0.49566 m 2.43894,0.34727 c 0.12794,-0.14273 0.36874,-0.15912 0.52553,-0.0154 0.12692,0.14207 0.12924,0.36706 0.001,0.50975 -0.12795,0.14273 -0.36875,0.15912 -0.51145,0.0312 -0.14101,-0.15785 -0.14333,-0.38285 -0.0154,-0.52554 m -0.12084,-2.64519 c 0.12795,-0.14273 0.36875,-0.15912 0.50976,-10e-4 0.14273,0.12795 0.14502,0.35296 0.0171,0.49566 -0.14373,0.15682 -0.36875,0.15912 -0.51144,0.0312 -0.15683,-0.14373 -0.15912,-0.36874 -0.0154,-0.52554 m 2.31644,-0.13936 c 0.14372,-0.15682 0.36874,-0.15911 0.52554,-0.0154 0.14273,0.12795 0.14502,0.35296 0.0171,0.49566 -0.14373,0.15682 -0.36875,0.15912 -0.51144,0.0311 -0.15683,-0.14373 -0.15912,-0.36874 -0.0312,-0.51145 m 0.0191,-2.20256 c 0.14373,-0.15683 0.36874,-0.15912 0.51144,-0.0312 0.15683,0.14373 0.15912,0.36875 0.0154,0.52555 -0.12794,0.14273 -0.36874,0.15912 -0.50976,10e-4 -0.14273,-0.12795 -0.15912,-0.36875 -0.017,-0.49566 m 1.76605,-0.21533 c 0.14373,-0.15682 0.36874,-0.15911 0.51145,-0.0312 0.15683,0.14373 0.15912,0.36874 0.0154,0.52555 -0.12794,0.14272 -0.36874,0.15912 -0.50976,10e-4 -0.14272,-0.12794 -0.14501,-0.35295 -0.0171,-0.49566 m 0.38662,-2.87145 c 0.12795,-0.14272 0.35296,-0.14501 0.50976,-10e-4 0.14272,0.12794 0.14502,0.35296 0.017,0.49566 -0.14373,0.15683 -0.36874,0.15912 -0.51145,0.0312 -0.15682,-0.14372 -0.15911,-0.36874 -0.0154,-0.52554 m -2.93093,11.04804 c 2.58288,-1.14372 6.02258,-3.39347 6.55695,-6.22661 0.56193,-3.05645 0.12583,-3.83056 -0.77099,-4.67559 -0.89683,-0.84503 -1.90814,-1.78646 -1.90814,-1.78646 l -9.41322,9.8284 c 0,0 2.93673,4.01807 5.5354,2.86026 z"
       style="fill:#f9cc1e;fill-opacity:1;fill-rule:nonzero;stroke:none" />
    <path
       d="m 587.78682,784.68367 c 0.37885,-0.33844 0.41271,-0.93597 0.0743,-1.31481 -0.35254,-0.39464 -0.95028,-0.4283 -1.32912,-0.0899 -0.37885,0.33844 -0.41252,0.93617 -0.06,1.3308 0.33844,0.37884 0.93599,0.41231 1.31483,0.0739 z"
       style="fill:#f9cc1e;fill-opacity:1;fill-rule:nonzero;stroke:none" />
    <path
       d="m 593.26539,788.02042 c 0.37884,-0.33844 0.41251,-0.93617 0.0741,-1.31501 -0.33844,-0.37885 -0.93618,-0.41253 -1.31503,-0.0741 -0.37884,0.33844 -0.4125,0.93618 -0.0741,1.31503 0.33844,0.37884 0.93618,0.41251 1.31502,0.0741 z"
       style="fill:#f9cc1e;fill-opacity:1;fill-rule:nonzero;stroke:none" />
    <path
       d="m 595.81711,784.23657 c 0.47355,-0.42305 0.51396,-1.14033 0.0909,-1.61389 -0.42305,-0.47355 -1.14033,-0.51396 -1.61389,-0.0909 -0.45777,0.40895 -0.49817,1.12623 -0.0751,1.59979 0.42304,0.47355 1.14033,0.51396 1.5981,0.10501 z"
       style="fill:#f9cc1e;fill-opacity:1;fill-rule:nonzero;stroke:none" />
    <path
       d="m 588.59298,792.1945 c 0.18942,-0.16922 0.20625,-0.46808 0.037,-0.65751 -0.16922,-0.18942 -0.46808,-0.20625 -0.6575,-0.037 -0.18942,0.16922 -0.20626,0.46808 -0.0371,0.6575 0.16922,0.18943 0.4681,0.20626 0.65752,0.037 z"
       style="fill:#f9cc1e;fill-opacity:1;fill-rule:nonzero;stroke:none" />
    <path
       d="m 599.4305,790.3465 c 0.37885,-0.33844 0.41252,-0.93617 0.0741,-1.31502 -0.35254,-0.39463 -0.93618,-0.41252 -1.31502,-0.0741 -0.37885,0.33844 -0.42661,0.92039 -0.0741,1.31502 0.33844,0.37885 0.93617,0.41252 1.31501,0.0741 z"
       style="fill:#f9cc1e;fill-opacity:1;fill-rule:nonzero;stroke:none" />
    <path
       d="m 604.01305,787.50154 c 0.37885,-0.33844 0.41252,-0.93618 0.0741,-1.31503 -0.33844,-0.37884 -0.93618,-0.4125 -1.31503,-0.0741 -0.39462,0.35253 -0.41251,0.93617 -0.0741,1.31501 0.33844,0.37884 0.92039,0.42661 1.31501,0.0741 z"
       style="fill:#f9cc1e;fill-opacity:1;fill-rule:nonzero;stroke:none" />
  </g>
</svg>
