<svg xmlns="http://www.w3.org/2000/svg" viewBox="0 0 374.39999 164.69999" height="164.7" width="374.4"><defs><linearGradient gradientTransform="translate(-112.5 -178)" id="a" gradientUnits="userSpaceOnUse" x1="299.7" y1="182.3" x2="299.7" y2="330.7"><stop offset="0" stop-color="#26292B"/><stop offset="1" stop-color="#000007"/></linearGradient></defs><path d="M374.4 161.5c0 1.8-1.5 3.2-3.3 3.2H3.4c-1.8 0-3.3-1.4-3.3-3.2V3.2C0 1.4 1.5 0 3.3 0H371c1.8 0 3.3 1.4 3.3 3.2v158.3z" fill="url(#a)"/><path fill="#fff" d="M22 16h329v131.3H22z"/><path stroke-miterlimit="10" d="M100.8 73.5h11.8l-8.4 8.2L112 90h-11.2v11l-8.2-7.8-8 8.5v-12H73.2l8-8-8.2-8h11.5V62.2l8 8 8.5-8.5-.2 11.7z" fill="none" stroke="#40beb4" stroke-width="2.5" stroke-linecap="round" stroke-linejoin="round"/><g stroke-miterlimit="10" fill="none" stroke="#40beb4" stroke-width="2.5" stroke-linecap="round" stroke-linejoin="round"><path d="M92.7 30.4v51.3M98 36l-5.3 5-5.2-5M86 46.2v7.4h-7.4M99.7 46.2v7.4h7.3"/><path d="M106.6 46.4l-14 14-13.8-14"/><g><path d="M41.4 81.7h51.3M47 76.5l5 5.2-5 5.2M57.2 88.4h7.3v7.4M57.2 74.7h7.3v-7.3"/><path d="M57.4 67.8l14 14-14 13.8"/></g><g><path d="M92.7 133V81.7M87.5 127.5l5.2-5.2 5.2 5.2M99.4 117.2V110h7.3M85.7 117.2V110h-7.4"/><path d="M78.8 117l14-14 13.8 14"/></g><g><path d="M144 81.7H92.7M138.5 87l-5.2-5.3 5.2-5.2M128 75H121v-7.3M128 88.7H121V96"/><path d="M128 95.6l-14-14L128 68"/></g></g><path stroke-miterlimit="10" fill="none" stroke="#40beb4" stroke-width="2.5" stroke-linecap="round" stroke-linejoin="round" d="M126.4 48L59 115.5"/><g stroke-miterlimit="10" fill="none" stroke="#40beb4" stroke-width="2.5" stroke-linecap="round" stroke-linejoin="round"><path d="M130 56.5h-12V44.3M55 107h12.4v12.2"/></g><path stroke-miterlimit="10" fill="none" stroke="#40beb4" stroke-width="2.5" stroke-linecap="round" stroke-linejoin="round" d="M126.4 115.5L59 48"/><g stroke-miterlimit="10" fill="none" stroke="#40beb4" stroke-width="2.5" stroke-linecap="round" stroke-linejoin="round"><path d="M118 119.2V107h12M67.4 44.3v12.2H55"/></g></svg>