<svg xmlns="http://www.w3.org/2000/svg" width="144" height="209.8"><path d="M142.4 31.7l1.6-3C144 10.2 106 0 72 0S0 10 0 28.8l1.6 3.7v143L0 181c0 18.7 38 28.8 72 28.8s72-10 72-28.8l-1.6-5V31.7zM132.8 181c0 8-23 19.2-60.8 19.2-37.7 0-60.8-11.2-60.8-19.2v-72.3c-.5-.8-.8-2.5-.8-2.5s12.8 12.4 63.3 12.4 59-12.4 59-12.4c0 .8 0 1.6-.6 2.3h.8V181zm-61-133c-37.6 0-60.7-11.2-60.7-19.2S34.3 9.6 72 9.6c37.6 0 60.7 11.2 60.7 19.2S109.7 48 72 48z" fill="#5f672c"/><circle r="51.9" cy="125.7" cx="71.9" stroke-miterlimit="10" fill="#fff" stroke="#d8df26" stroke-width="6.7"/><g transform="translate(-1682.6 -166.7)"><path d="M1769.2 318.7c-2.2 11-10.7 18.8-19.2 17.2-8.4-1.7-13.5-12-11.3-23.2 2.2-11 10.7-18.8 19.2-17.2 8.3 1.6 13.4 12 11.2 23z" fill="#d8df26"/><path d="M1791.6 299.6c-4.8-10.3-15-15.6-22.8-12-3.2 1.5-5.5 4.4-6.7 8 7.2 2.7 11.2 12.2 9.2 22.4-.2 1.2-.6 2.5-1 3.6 5 4 11 5.5 16 3.2 8-3.6 10.3-15 5.4-25.2z" fill="#d8df26"/><path d="M1802.3 297.7c-.5-22.2-23.6-18-28-17 0-.2.2-.2.3-.3l.6-.3c.4 0 .8-.3 1-.5l1-.5v-.2h-1l-1.3.3-.8.2c-.3 0-.5 0-.8.2l-1 .3-.8.3c-.3 0-.6.3-1 .4-1.7-4.5-.3-5.4-1-15.3-.5-10-8.7-16.4-8.7-16.4-12 21.3 7 30.8 9.6 32-.3 0-.5.2-.8.3-.2 0-.3 0-.5.2-.2 0-.3.2-.5.3-.2 0-.4.3-.6.4-1.7-.5-7.2-2-10.7-6-4-5-12-14.2-26.5-15.3 0 0 3.5 28 36.8 21.5-.6.4-1 1-1.7 1.4l-.7.8-.3.4c-6.2 0-45 .4-58 33 0 0 18-2.3 38-20 12.3-10 17.8-12.2 20-12.8-.2 0-.3.2-.4.3l-.7 1-.8.8-.6 1-.5 1-.7 1.6-.5 1.5c0 .5-.2 1-.3 1.3V294.5l.2-.3.2-.6c0-.3 0-.7.3-1l.7-1.5 1-1.6.6-.8.6-.8.7-.8.7-.8.8-.7c.3-.2.5-.5 1-.7.5-.4 1-1 1.7-1.2l1-.5s.2 0 .3-.2l.5-.2 1.7-1c.3 0 .6-.3.8-.4l.6-.3c10 12.5 28.3 16.7 28.3 16.7z" fill="#5f672c"/><ellipse ry="5.7" rx="3.7" cy="305.5" cx="1761.3" transform="rotate(-24.61 1761.2 305.42)" fill="#faed22"/><ellipse ry="5.7" rx="3.7" cy="294.4" cx="1780.2" transform="rotate(-39.95 1780.32 294.42)" fill="#faed22"/></g><path d="M48.2 198c-15.7-2.4-28-6.8-33.4-12l-3-3V108l3.3 1.4c2.6 1.2 3 2 2.7 3.4-1.4 4.8-1.5 18 0 24.3 4 20 20.6 37.3 40.4 42.5 7 1.8 19.2 2 26 .5 20.6-5 38-22.4 42.2-43 1.4-6.3 1.3-20.3 0-24-.5-1 .3-1.8 2.5-3 1.7-1 3.3-1.7 3.6-1.4.3.2.5 16.7.5 36.6 0 42 .5 39.4-9.5 44.7-12.4 6.4-29.4 9.5-52.3 9.4-8.3 0-18.6-.6-22.8-1.3zM51.2 46.4c-8.7-1-22.4-4.6-28-7.2-2.6-1.2-6.2-3.5-8-5-4.4-4-4.4-7 0-10.8C29.8 10.6 75.5 6 107.7 14.2 122.4 18 132 23.6 132 28.8c0 7-18 15-40.5 17.7-9.4 1-31 1-40.3 0z" fill="#fff"/></svg>