<svg xmlns="http://www.w3.org/2000/svg" height="215.4" width="115.5"><path d="M72 152.7v58c0 2.6-2.2 4.7-4.8 4.7h-17c-2.7 0-4.8-2.2-4.8-4.8v-58c0-2.6 2.2-4.7 4.8-4.7h17c2.6 0 4.8 2 4.8 4.7z" fill="#e85a80"/><path fill="#cd3f6b" d="M45.2 152H72v13.5H45z"/><path d="M115.5 140v6.4c0 3.2-2.4 5.8-5.5 6.3-17.3 2.2-34.8 3.3-52.2 3.3-17.5 0-35-1-52.3-3.3-3-.4-5.5-3-5.5-6.3V140h115.5z" fill="#e85a80"/><path d="M112 140H3.6l10-126c.7-8 7.3-14 15-14h58c8 0 14.5 6 15 14L112 140z" fill="#ceebec"/><path d="M51 10.7h-5C44.3 10.7 43 9.5 43 8c0-1.5 1.2-2.7 2.7-2.7h5c1.4 0 2.6 1.2 2.6 2.7 0 1.5-1.2 2.7-2.7 2.7zM19 52h-.3c-1.5 0-2.6-1.3-2.5-2.8L19 14.4c.4-5 4.7-9 9.8-9H35c1.5 0 2.7 1 2.7 2.6 0 1.5-1.2 2.7-2.7 2.7h-6.2c-2.3 0-4.2 1.8-4.4 4l-2.8 35c0 1.3-1.3 2.4-2.7 2.4z" fill="#fff"/><path d="M112 140H57.7V0h29c8 0 14.4 6 15 14l10 126z" fill="#a5dbdb"/><path d="M72 152.7v58c0 2.6-2.2 4.7-4.8 4.7H58v-67.6H67c2.6 0 4.8 2.2 4.8 5z" fill="#cd3f6b"/><path d="M115.5 140v6.4c0 3.2-2.4 5.8-5.5 6.3-17.3 2.2-34.8 3.3-52.2 3.3v-16h57.7z" fill="#cd3f6b"/><path d="M77.2 93.5V140h-37V93.6c0-10 7.8-18 17.7-18.5h.7c10 0 18.5 8.3 18.5 18.5z" fill="#ade1f8"/><path d="M77.2 93.5V140H57.8V75h.8c10.2 0 18.6 8.3 18.6 18.5z" fill="#a3d5ee"/></svg>