<svg xmlns="http://www.w3.org/2000/svg" viewBox="0 0 175.10587 219.20608" height="219.2" width="175.1"><g transform="translate(-1067.05 -611.2)"><path d="M1149.7 830.4h-1.3c-69.4 0-80.3-30-80.3-30l-1-101c-1-22 12.6-32.6 12.6-32.6l17.5-13 56-.5h3.1l56 .5 17.6 13s13.5 10.5 12.5 32.5l-1 101s-11 30.6-81.5 30h-9.8z" fill="#5dc1b4"/><path d="M1095.2 669.2s22.7 7.6 36.8 9.8l3.8.6s-50 105-16 146.2c0 0-38.4-3-46.6-33.8l1.5-99.8s-2.7-17 20.5-23z" opacity=".2" fill="#4b9e8e"/><path d="M1102 818c-22-8-24.6-23-24.6-23s.5-54-.5-87.2v-2c.2-31.5 18.3-36.7 18.3-36.7s0 1.5 0 0l-8-8-7.4 5.7s-13.6 10.5-12.6 32.5l1 101s11 30.3 80.3 30h11.2c30 .3 49-5 61.3-11.3-57.5 20-119.4-1-119.4-1z" fill="#4eb4a5"/><path d="M1215.8 648.7v-4.6c1.8-2.3.5-6 0-7.2v-5.5h.2c2-3.7 0-7.8 0-7.8v.2c-1 .3-76 20.4-117.3 0v-.6s-2 3.5 0 7.2v5c-.2.5-2 5.3.3 8v4.7s-4.6 6 .3 10.8c0 0 45 29 116.3 1 5-5 .2-11 .2-11z" fill="#449f92"/><path d="M1098.6 629.8s40 16.4 117.4 1.4l.3 6.4s-69.6 14.2-117.4-2.7l-.4-5.2" fill="#308576"/><path d="M1099 643.2s39.2 16 116.7 1l.3 5s-69 15.6-117-1.3V643" fill="#308576"/><ellipse cx="1157.3" cy="623" rx="58.7" ry="11.8" fill="#308576"/><ellipse cx="1154.6" cy="621.1" rx="51.4" ry="7.9" fill="#267164"/><path d="M1219.3 664.8s-10 9-24 10c0 0 20 99.4-17.4 154.2h7.4s44-11 35-9.4c0 0 20.5-9.8 19-26.3l-.5-104c-.2 0-.2-12-19.7-24.5z" opacity=".2" fill="#bbacba"/><path d="M1219.3 664.8s-7.8 6.6-14.4 8.2c0 0 25.8 14.4 25.3 31.5l1.7 90s2.2 9.3-17.7 22.5c0 0-3.6 1.8-.2 1.2 0 0 17.4.5 25.7-20.4l-.6-105s2-16.4-19.7-28z" opacity=".4" fill="#f7eaec"/><path d="M1225.8 738.8c-4-3.3-8.3-16.6-8.3-16.6 4-14-.2-21.5-.2-21.5-2.2-3.3-8.5-2.2-8.5-2.2l-.4-5c-6-16.8-26.7-7-26.7-7-15.4 5.3-27.7-7.4-27.7-7.4l-.6 1c-2.3 2.8-11.7 12.5-30.4 7 0 0-15.8-5.4-20.2 7 0 0-2.2 5.8-2.2 6.7 0 0-8-.3-8.3 7.2v.7c.2 8.3 1.4 19.2 1.8 21 0 0 .8 8.4-3.3 10.7 0 0 4 5.4 4.8 10 0 0-.4 14-.7 18 0 0-1.2 11.7 9.8 17.3 0 0 2.4 16.7 13.5 18.4 0 0 11.2 4.3 26.3.3 0 0 2-.7 5.7 2 0 0 8 7.4 8.4 8 16.6-13.2 21-10.4 21-10.4 13 2.5 23-4.7 23-4.7 6.8-4.6 7-17 7-17 3.6-1 6.7-6.7 6.7-6.7 3.5-3.3 1.3-14 1.3-14-4-19.5 8.5-22.8 8.5-22.8z" opacity=".9" fill="#fff"/><g><g stroke-miterlimit="10" fill="none" stroke="#7e7274" stroke-width="1.1"><path d="M1098.7 740.6l-1 .3.7.8"/><path d="M1099.7 743.4c2 2.7 4.6 7 4.5 11.3 0 0-2 13.3.3 16 0 0 1.3 5 6 8" stroke-dasharray="2.2159, 2.2159"/><path d="M1111.5 779.3l1 .5v1"/><path d="M1113.2 783.2c1 3.7 3.7 9.4 10 11.7 0 0 10.8 4 20.8.7" stroke-dasharray="2.3972, 2.3972"/><path d="M1145.2 795.4c.4 0 .7-.3 1-.4l1 .5"/><path d="M1149.7 796.8c2.6 1.4 6 3.3 8 4.8" stroke-dasharray="2.679, 2.679"/><path d="M1158.7 802.4c.4.3.6.6.7 1l.8-1"/><path d="M1161.8 801c3.4-3.2 10-8 18-6 0 0 18 2.5 22.8-10.6 0 0 .8-3.2 1.2-5.6" stroke-dasharray="2.2368, 2.2368"/><path d="M1204 777.7v-1.2l1-.5"/><path d="M1206.8 774.7c2.4-2 5.5-5.6 5.5-11.4 0 0-.8-14-1-15.5 0 0 0-5 5.7-8.8" stroke-dasharray="2.2542, 2.2542"/><path d="M1218 738.5l1-.6s-.4 0-1-.4"/><path d="M1216 736.4c-2-2-4.4-6-3.6-15 0 0 4.3-10.7-5.4-16l-1.5-.5" stroke-dasharray="2.3276, 2.3276"/><path d="M1204.3 704.7l-1-.3-.4-1"/><path d="M1202 701c-1.4-3.4-5-8.4-11.8-7.4 0 0-18.6 4.4-24.5 3.2l-7.4-6.3" stroke-dasharray="2.3164, 2.3164"/><path d="M1157.4 689.7l-1-.8-.7.8"/><path d="M1154.2 691.4c-3.2 3.2-9 8.3-13.6 7 0 0-17.5-5-21.6-3.6 0 0-8.7 4-9.5 10.5" stroke-dasharray="2.2385, 2.2385"/><path d="M1109.5 706.4v1.2s-.3 0-1 .4"/><path d="M1106.4 708.8c-3.3 1.6-7.8 4.7-6 9.3 0 0 3.8 17.7-.8 22" stroke-dasharray="2.2387, 2.2387"/></g></g><g><path d="M1173 716.6s-4 7.8 3.2 15.2l9.7 8.6s1.4-9 .5-12c0 0-.2-4.7-5.2-5.6 0 0-7.5-2.2-7.2-7.3.2 0-1-.7-1 1zM1173.2 714.7s-4.8-4-12.4-3.7c0 0-7.8.4-15.5 6 0 0-4.6 3.5-6.6 4 0 0 13.3 3.3 17.8 3.2l4.3-.2 13-9" fill="#5ba845"/><path d="M1144 738s-14-6.4-20.3 2.2c0 0-10.7 11.8-1.3 26.3 0 0 3.2 4.5 6.8 5.4 0 0 7.2 2.2 13.8-1 0 0 6-2.6 7-4 0 0 .5-18.5 5-20.8 0 0-2.6-5.5-11-8.2z" fill="#1a5180"/><path d="M1140.7 742s2 1 5.3-5.4c0 0 9.3-12 18-16.8 0 0 9.8-5.6 11-6l2.6-2.4 3 2.3s-12.4 5.7-19.7 11.4c0 0-13.7 10-13.6 17.8 0 0 .7 1.5 1 1.7 0 0-5.2 1.2-7.7-2.6z" fill="#66bb48"/><path d="M1140.6 739.3s-.4 6.7 8.6 4.8l1 1.7s-6.5 3-10-2c0 0-1.4-2.8-1-4.6l1.4.3z" fill="#0f4161"/><path d="M1149.4 768c-2 1.2-5 3.5-8 3.6-.6 0 .6 1 0 .5-.5-.4-3-5.3-3.5-6-2.6-5.2-2.5-11.5 0-16.6 1.5-2.8 5.3-3 8-4.4 3-1.3 5.2-3.7 7.4-.5 1.8 2.6 3.7 4 3.6 7.3 0 3.2-1.3 6.2-2.7 9-1.3 2.6-3 5-4.7 7.4" fill="#0f4161"/><path d="M1166.8 741.8s-20.3-2.3-20 17.6c0 0-1.5 16.6 13.7 22 0 0 2.6.5 3.7 0 0 0 9 4.2 16.4-5.3 0 0 14-15.5 5-25.5 0 0-6.4-7.7-17.7-8.5 0 0-1 .8-1.2-.2z" fill="#245d9a"/><path d="M1172.2 713.6s-5.5 13.3-6 18.6c0 0-1.7 12.7-2 13.4 0 0-.5 1.4-1.6 2 0 0 3.4 3.3 6.2 1.3l1.2-1.3s-2.4.7-1.4-10.4c0 0 2.4-17.4 6-22.5l1.6-3-4 .3v1.6z" fill="#66bb48"/><path d="M1161.2 745.2s2 6.4 9.7 1.5l1.4 1.2s-5 5-10 1.5c0 0-2.3-2.2-2.4-4l1.2-.3z" fill="#0f4161"/></g></g><path d="M44.8 196.6c0-1.8-.8-2.6-2.4-2.6-1.6 0-3 1.2-3.5 1.5v10.2H37v-13h1.3l.4 1.3c.8-.7 2.2-1.5 3.7-1.5 1.8 0 3 .6 3.4 1.8 1.2-1 2.7-1.8 4.3-1.8 3 0 3.7 1.6 3.7 4.2v9h-1.7v-9c0-2.2-.8-2.8-2.4-2.8-1.5 0-3 1-3.6 1.5v10.3H45v-9.2zM58.4 199.6c0 3 .8 4.8 3.5 4.8 2 0 3-.8 3-.8l.7 1.3s-1.5 1-3.8 1c-3 0-5.3-1.7-5.3-6.8 0-5 2.2-6.7 5-6.7 3.6 0 4.5 2.6 4.5 7h-7.8zm0-1.4h6c0-3-.8-4.3-2.8-4.3-2.2 0-3 1.7-3.2 4.2zM74.5 194.2h-.8c-1.8 0-2.7 1-3 1.4v10h-1.6v-13h1.4l.4 1.4c.8-.8 1.8-1.5 3.2-1.5h1l-.5 1.7zM84 196.6c0-1.8-.7-2.6-2.3-2.6-1.6 0-3 1.2-3.5 1.5v10.2h-1.7v-13h1.3l.4 1.3c1-.7 2.3-1.5 3.8-1.5 1.8 0 3 .6 3.4 1.8 1-1 2.6-1.8 4.2-1.8 3 0 3.7 1.6 3.7 4.2v9h-1.7v-9c0-2.2-.8-2.8-2.4-2.8-1.4 0-2.8 1-3.5 1.5v10.3h-1.6v-9.2zM97.8 199.6c0 3 .8 4.8 3.5 4.8 2 0 3-.8 3-.8l.7 1.3s-1.5 1-3.8 1c-3 0-5.2-1.7-5.2-6.8 0-5 2.2-6.7 5-6.7 3.6 0 4.5 2.6 4.5 7h-7.7zm0-1.4h6c0-3-.8-4.3-2.8-4.3-2.3 0-3 1.7-3.2 4.2zM113.4 205.8l-1.2.2c-2.5 0-4-1.5-4-4.7v-13.7h1.8V201c0 2.4.7 3.4 2.3 3.4h.8l.4 1.4zM120 198h1.7v-1.7c0-1.4-.7-2.3-2.3-2.3-2 0-3.4.8-3.4.8l-.4-1.3s1.6-1 4-1c3 0 4 1.5 4 4v9.2H122l-.2-1c-.8.6-2 1.2-3.6 1.2-2.5 0-3.7-1.8-3.7-4-.2-2 1.4-4 5.3-4zm1.7 5.4v-4H120c-2.4 0-3.7 1.3-3.7 2.8 0 1.4 1 2.4 2.3 2.4 1.4 0 2.6-.8 3-1.2zM134 187.5h1.8v18.2h-1.4l-.3-1c-.5.6-1.5 1.2-3 1.2-2.8 0-5-1.8-5-6.8s2.2-6.7 5-6.7c1.5 0 2.7.8 3 1.2v-6.2zm-2.7 17c1.2 0 2.3-.6 2.8-1.6v-7.4c-.3-.6-1.2-1.6-2.7-1.6-2.7 0-3.5 2-3.5 5.2s.8 5.3 3.5 5.3zM144 198h1.8v-1.7c0-1.4-.7-2.3-2.3-2.3-2 0-3.4.8-3.4.8l-.3-1.3s1.6-1 4-1c3 0 4 1.5 4 4v9.2h-1.4l-.2-1c-.7.6-1.8 1.2-3.5 1.2-2.5 0-3.7-1.8-3.7-4-.2-2 1.3-4 5.3-4zm1.7 5.4v-4H144c-2.4 0-3.7 1.3-3.7 2.8 0 1.4 1 2.4 2.3 2.4 1.4 0 2.6-.8 3-1.2z"/></svg>