<svg xmlns="http://www.w3.org/2000/svg" width="283.3" height="193.7" viewBox="0 0 283.30868 193.65341"><defs><linearGradient y2="832" x2="299.3" y1="372.8" x1="299.3" gradientUnits="userSpaceOnUse" id="a" gradientTransform="matrix(.76 0 0 .32 -84.44 -114.71)"><stop offset="0" stop-color="#26292B"/><stop offset="1" stop-color="#000007"/></linearGradient><linearGradient y2="884.6" x2="295.8" y1="889.6" x1="295.8" gradientUnits="userSpaceOnUse" id="b" gradientTransform="matrix(.74 0 0 1 -78.78 -713.39)"><stop offset="0" stop-color="#26292B"/><stop offset="1" stop-color="#000007"/></linearGradient><linearGradient y2="899" x2="295.8" y1="904" x1="295.8" gradientUnits="userSpaceOnUse" id="c" gradientTransform="matrix(.74 0 0 1 -78.78 -717.39)"><stop offset="0" stop-color="#26292B"/><stop offset="1" stop-color="#000007"/></linearGradient></defs><path d="M283.3 192.4c0 .7-1 1.3-2.5 1.3H3.2c-1.4 0-2.5-.6-2.5-1.3V163c0-.7 1-1.2 2.5-1.2h277.5c1.4 0 2.5.5 2.5 1.2v29.4z" fill="#4e5b68"/><path d="M282.7 161.5c0 .6-1 1-2.5 1H2.5c-1.4 0-2.5-.4-2.5-1L.6 1c0-.6 1-1 2.5-1H281c1.4 0 2.5.4 2.5 1l-.6 160.5z" fill="url(#a)"/><path fill="#dbe2e3" d="M38.5 11.7H258V148H38.6z"/><path d="M23.8 116.5c0 1-1.4 1.6-3.3 1.6H11c-1.8 0-3.2-.6-3.2-1.5V48c0-1 1.4-1.6 3.3-1.6h9.5c2 0 3.3.7 3.3 1.5v68.5z" stroke-miterlimit="10" fill="#fff" stroke="#fff"/><path fill="url(#b)" d="M17 169h248.4v6.7H17z"/><path fill="url(#c)" d="M17 179.3h248.4v6.8H17z"/><path fill="#fff" d="M56.2 26h184v48.8h-184zM56.4 87.7h184v49h-184z"/></svg>