<svg
   xmlns:i="&amp;ns_ai;"
   xmlns:dc="http://purl.org/dc/elements/1.1/"
   xmlns:cc="http://creativecommons.org/ns#"
   xmlns:rdf="http://www.w3.org/1999/02/22-rdf-syntax-ns#"
   xmlns:svg="http://www.w3.org/2000/svg"
   xmlns="http://www.w3.org/2000/svg"
   xmlns:xlink="http://www.w3.org/1999/xlink"
   xmlns:sodipodi="http://sodipodi.sourceforge.net/DTD/sodipodi-0.dtd"
   xmlns:inkscape="http://www.inkscape.org/namespaces/inkscape"
   version="1.1"
   id="Capa_1"
   x="0px"
   y="0px"
   width="321.90799"
   height="308.94699"
   viewBox="0 0 321.90797 308.94699">
<switch
   id="switch3"
   transform="translate(-253.318,-292.973)">
	<g
   i:extraneous="self"
   id="g5">
		<g
   id="g7">
			<defs
   id="defs9">
				<rect
   id="SVGID_301_"
   x="225.131"
   y="16"
   width="328.552"
   height="287.897" />
			</defs>
			<clipPath
   id="SVGID_2_">
				<use
   xlink:href="#SVGID_301_"
   overflow="visible"
   id="use13"
   style="overflow:visible"
   x="0"
   y="0"
   width="100%"
   height="100%" />
			</clipPath>
			<path
   clip-path="url(#SVGID_2_)"
   d="M 320.983,221.082 C 285.885,211.215 248.685,169.853 234.284,133 c 0.023,0.149 0.039,0.295 0.062,0.443 6.848,38.873 48.326,91.269 88.202,104.906 -0.215,-6.785 -0.676,-13.052 -1.565,-17.267"
   id="path19"
   inkscape:connector-curvature="0"
   style="fill:#ffffff" />
		</g>
		<g
   id="g29">
			<defs
   id="defs31">
				<rect
   id="SVGID_303_"
   x="35.883999"
   y="153.14999"
   width="202.976"
   height="199.968" />
			</defs>
			<clipPath
   id="SVGID_4_">
				<use
   xlink:href="#SVGID_303_"
   overflow="visible"
   id="use35"
   style="overflow:visible"
   x="0"
   y="0"
   width="100%"
   height="100%" />
			</clipPath>
		</g>
		<g
   id="g55">
			<defs
   id="defs57">
				<rect
   id="SVGID_305_"
   x="77.390999"
   y="624.763"
   width="449.02499"
   height="130.91" />
			</defs>
			<clipPath
   id="SVGID_5_">
				<use
   xlink:href="#SVGID_305_"
   overflow="visible"
   id="use61"
   style="overflow:visible"
   x="0"
   y="0"
   width="100%"
   height="100%" />
			</clipPath>
			
		</g>
		<g
   id="g65">
			<defs
   id="defs67">
				<rect
   id="SVGID_307_"
   x="253.319"
   y="292.97299"
   width="321.90701"
   height="308.94699" />
			</defs>
			<clipPath
   id="SVGID_7_">
				<use
   xlink:href="#SVGID_307_"
   overflow="visible"
   id="use71"
   style="overflow:visible"
   x="0"
   y="0"
   width="100%"
   height="100%" />
			</clipPath>
			<g
   clip-path="url(#SVGID_7_)"
   id="g73">
				<defs
   id="defs75">
					<rect
   id="SVGID_309_"
   x="253.319"
   y="292.97299"
   width="321.90701"
   height="308.94699" />
				</defs>
				<clipPath
   id="SVGID_8_">
					<use
   xlink:href="#SVGID_309_"
   overflow="visible"
   id="use79"
   style="overflow:visible"
   x="0"
   y="0"
   width="100%"
   height="100%" />
				</clipPath>
				<g
   clip-path="url(#SVGID_8_)"
   id="g81">
					<g
   id="g83">
						<defs
   id="defs85">
							<rect
   id="SVGID_311_"
   x="192.771"
   y="221.789"
   width="449.48099"
   height="451.08401" />
						</defs>
						<clipPath
   id="SVGID_10_">
							<use
   xlink:href="#SVGID_311_"
   overflow="visible"
   id="use89"
   style="overflow:visible"
   x="0"
   y="0"
   width="100%"
   height="100%" />
						</clipPath>
						<polygon
   clip-path="url(#SVGID_10_)"
   points="445.183,292.973 460.169,349.487 530.214,325.959 502.333,408.381 575.226,434.746 524.562,467.074 560.734,515.312 483.309,514.146 480.698,601.193 423.318,554.324 389.604,601.92 370.146,539.965 292.229,562.291 321.419,487.334 253.318,466.09 308.234,427.453 270.281,371.797 341.435,376.07 340.216,295.535 405.393,344.079 "
   id="polygon91"
   style="fill:#bcaaa4;fill-opacity:1" />
					</g>
				</g>
			</g>
		</g>
		<g
   id="g93">
			<defs
   id="defs95">
				<rect
   id="SVGID_313_"
   x="48.043999"
   y="560.22302"
   width="145.883"
   height="53.451" />
			</defs>
			<clipPath
   id="SVGID_11_">
				<use
   xlink:href="#SVGID_313_"
   overflow="visible"
   id="use99"
   style="overflow:visible"
   x="0"
   y="0"
   width="100%"
   height="100%" />
			</clipPath>	
		</g>
		<g
   id="g103">
			<defs
   id="defs105">
				<rect
   id="SVGID_315_"
   x="50.213001"
   y="461.54501"
   width="174.319"
   height="94.939003" />
			</defs>
			<clipPath
   id="SVGID_13_">
				<use
   xlink:href="#SVGID_315_"
   overflow="visible"
   id="use109"
   style="overflow:visible"
   x="0"
   y="0"
   width="100%"
   height="100%" />
			</clipPath>
		</g>
		<g
   id="g113">
			<defs
   id="defs115">
				<rect
   id="SVGID_317_"
   x="427.48599"
   y="711.37903"
   width="106.549"
   height="109.259" />
			</defs>
			<clipPath
   id="SVGID_14_">
				<use
   xlink:href="#SVGID_317_"
   overflow="visible"
   id="use119"
   style="overflow:visible"
   x="0"
   y="0"
   width="100%"
   height="100%" />
			</clipPath>			
		</g>
	</g>
</switch>
</svg>