<?xml version="1.0" encoding="UTF-8" standalone="no"?>
<!-- Created with Inkscape (http://www.inkscape.org/) -->

<svg
   xmlns:dc="http://purl.org/dc/elements/1.1/"
   xmlns:cc="http://creativecommons.org/ns#"
   xmlns:rdf="http://www.w3.org/1999/02/22-rdf-syntax-ns#"
   xmlns:svg="http://www.w3.org/2000/svg"
   xmlns="http://www.w3.org/2000/svg"
   xmlns:sodipodi="http://sodipodi.sourceforge.net/DTD/sodipodi-0.dtd"
   xmlns:inkscape="http://www.inkscape.org/namespaces/inkscape"
   width="5.7707105mm"
   height="5.6570992mm"
   viewBox="0 0 20.447399 20.04484"
   id="svg3355"
   version="1.1"
   inkscape:version="0.91 r13725">
  <defs
     id="defs3357">
    <pattern
       y="0"
       x="0"
       height="6"
       width="6"
       patternUnits="userSpaceOnUse"
       id="EMFhbasepattern" />
    <pattern
       y="0"
       x="0"
       height="6"
       width="6"
       patternUnits="userSpaceOnUse"
       id="EMFhbasepattern-6" />
  </defs>
  <sodipodi:namedview
     id="base"
     pagecolor="#ffffff"
     bordercolor="#666666"
     borderopacity="1.0"
     inkscape:pageopacity="0.0"
     inkscape:pageshadow="2"
     inkscape:zoom="42.853922"
     inkscape:cx="10.2237"
     inkscape:cy="10.02242"
     inkscape:document-units="px"
     inkscape:current-layer="layer1"
     showgrid="false"
     fit-margin-top="0"
     fit-margin-left="0"
     fit-margin-right="0"
     fit-margin-bottom="0"
     inkscape:window-width="1920"
     inkscape:window-height="1028"
     inkscape:window-x="-8"
     inkscape:window-y="-8"
     inkscape:window-maximized="1" />
  <metadata
     id="metadata3360">
    <rdf:RDF>
      <cc:Work
         rdf:about="">
        <dc:format>image/svg+xml</dc:format>
        <dc:type
           rdf:resource="http://purl.org/dc/dcmitype/StillImage" />
        <dc:title></dc:title>
      </cc:Work>
    </rdf:RDF>
  </metadata>
  <g
     inkscape:label="Capa 1"
     inkscape:groupmode="layer"
     id="layer1"
     transform="translate(-452.85683,-237.96707)">
    <path
       inkscape:connector-curvature="0"
       id="path3394"
       d="m 470.23463,257.33457 c 0,0.35984 -0.2964,0.67734 -0.6774,0.67734 l -12.9327,0 c -0.381,0 -0.6773,-0.3175 -0.6773,-0.67734 l -1.6934,-10.87966 c 0,-0.35984 0.2964,-0.67734 0.6774,-0.67734 l 16.3194,0 c 0.381,0 0.6773,0.3175 0.6773,0.67734 l -1.6933,10.87966 z"
       style="fill:#b38d68;fill-opacity:1;fill-rule:nonzero;stroke:none" />
    <path
       inkscape:connector-curvature="0"
       id="path3396"
       d="m 472.22423,247.08991 c -0.3175,-1.98967 -0.5926,-8.53017 -8.9958,-8.53017 -8.2761,0 -9.3132,6.6675 -9.3132,8.78417 0,0.14816 -1.0584,-0.10584 -1.0584,1.10066 0,0.40217 0.4869,0.71967 1.0795,0.71967 0.3175,0 0.508,-0.0423 0.6985,-0.16933 0.1482,0.4445 0.8255,0.71966 1.5452,0.71966 0.6561,0 1.2276,-0.29633 1.4181,-0.6985 0.254,0.14817 0.6139,0.254 0.9949,0.254 0.4233,0 0.9525,-0.127 1.2276,-0.3175 0.042,0 -0.042,0 0,0 0.042,0.35984 0.508,0.65617 1.0795,0.65617 0.4868,0 0.889,-0.21167 1.0371,-0.508 0.1694,0.21167 0.5292,0.35983 0.9314,0.35983 0.3175,0 0.635,-0.10583 0.8255,-0.254 0.1905,0.3175 0.6773,0.55034 1.2276,0.55034 0.6985,0 1.27,-0.35984 1.3124,-0.80434 0.021,0 0.042,0 0.064,0 0.2116,0.35984 0.7408,0.61384 1.3546,0.61384 0.7832,0 1.4182,-0.40217 1.5029,-0.91017 0.042,0 0.063,0 0.1058,-0.0212 0.2328,0.59267 1.0372,1.03717 1.9897,1.03717 1.143,0 2.0531,-0.61384 2.0531,-1.37583 0,-0.52917 -0.4233,-0.97367 -1.0795,-1.2065 z"
       style="fill:#f9cc1e;fill-opacity:1;fill-rule:nonzero;stroke:none" />
    <path
       inkscape:connector-curvature="0"
       id="path3398"
       d="m 472.22423,247.08991 c -0.3175,-1.98967 -0.5926,-8.53017 -8.9958,-8.53017 -0.042,0 -0.085,0 -0.1482,0 l 0,10.87967 c 0.254,-0.0212 0.4657,-0.127 0.6139,-0.23284 0.1905,0.3175 0.6773,0.55034 1.2276,0.55034 0.6985,0 1.27,-0.35984 1.3124,-0.80434 0.021,0 0,0 0,0 0.2328,0.35984 0.8043,0.61384 1.4181,0.61384 0.7832,0 1.5452,-0.42334 1.6087,-0.93134 0.042,0 -0.042,0.0212 0,0 0.2328,0.59267 1.0372,1.03717 1.9897,1.03717 1.143,0 2.0531,-0.61383 2.0531,-1.37583 0,-0.52917 -0.4233,-0.97367 -1.0795,-1.2065 z"
       style="fill:#fffabf;fill-opacity:1;fill-rule:nonzero;stroke:none" />
    <path
       inkscape:connector-curvature="0"
       id="path3400"
       d="m 460.96363,244.42291 c 0,0.40216 -0.3387,0.74083 -0.7409,0.74083 -0.4021,0 -0.7407,-0.33867 -0.7407,-0.74083 0,-0.40217 0.3386,-0.74084 0.7407,-0.74084 0.4022,0 0.7409,0.33867 0.7409,0.74084 z"
       style="fill:#40221a;fill-opacity:1;fill-rule:nonzero;stroke:none" />
    <path
       inkscape:connector-curvature="0"
       id="path3402"
       d="m 463.54593,241.18441 c 0,0.508 -0.4022,0.93133 -0.9313,0.93133 -0.508,0 -0.9314,-0.42333 -0.9314,-0.93133 0,-0.52917 0.4234,-0.9525 0.9314,-0.9525 0.5291,0 0.9313,0.42333 0.9313,0.9525 z"
       style="fill:#40221a;fill-opacity:1;fill-rule:nonzero;stroke:none" />
    <path
       inkscape:connector-curvature="0"
       id="path3404"
       d="m 465.81073,238.89841 c 0,0.52916 -0.4233,0.93133 -0.9313,0.93133 -0.5292,0 -0.9525,-0.40217 -0.9525,-0.93133 0,-0.508 0.4233,-0.93134 0.9525,-0.93134 0.508,0 0.9313,0.42334 0.9313,0.93134 z"
       style="fill:#40221a;fill-opacity:1;fill-rule:nonzero;stroke:none" />
    <path
       inkscape:connector-curvature="0"
       id="path3406"
       d="m 469.00693,241.41724 c 0,0.4445 -0.3598,0.80433 -0.8043,0.80433 -0.4445,0 -0.8044,-0.35983 -0.8044,-0.80433 0,-0.4445 0.3599,-0.80433 0.8044,-0.80433 0.4445,0 0.8043,0.35983 0.8043,0.80433 z"
       style="fill:#40221a;fill-opacity:1;fill-rule:nonzero;stroke:none" />
    <path
       inkscape:connector-curvature="0"
       id="path3408"
       d="m 466.69973,244.65574 c 0,0.48683 -0.4021,0.889 -0.889,0.889 -0.508,0 -0.889,-0.40217 -0.889,-0.889 0,-0.48683 0.381,-0.889 0.889,-0.889 0.4869,0 0.889,0.40217 0.889,0.889 z"
       style="fill:#40221a;fill-opacity:1;fill-rule:nonzero;stroke:none" />
    <path
       inkscape:connector-curvature="0"
       id="path3410"
       d="m 469.85363,244.16891 c 0,0.33866 -0.2752,0.635 -0.635,0.635 -0.3387,0 -0.635,-0.29634 -0.635,-0.635 0,-0.35984 0.2963,-0.65617 0.635,-0.65617 0.3598,0 0.635,0.29633 0.635,0.65617 z"
       style="fill:#40221a;fill-opacity:1;fill-rule:nonzero;stroke:none" />
    <path
       inkscape:connector-curvature="0"
       id="path3412"
       d="m 458.08503,243.04707 c 0,0.508 -0.4234,0.93134 -0.9314,0.93134 -0.5291,0 -0.9524,-0.42334 -0.9524,-0.93134 0,-0.52916 0.4233,-0.93133 0.9524,-0.93133 0.508,0 0.9314,0.42333 0.9314,0.93133 z"
       style="fill:#40221a;fill-opacity:1;fill-rule:nonzero;stroke:none" />
    <path
       inkscape:connector-curvature="0"
       id="path3414"
       d="m 459.69363,239.70274 c 0,0.4445 -0.3598,0.80433 -0.8043,0.80433 -0.4445,0 -0.8043,-0.35983 -0.8043,-0.80433 0,-0.4445 0.3598,-0.80433 0.8043,-0.80433 0.4445,0 0.8043,0.35983 0.8043,0.80433 z"
       style="fill:#40221a;fill-opacity:1;fill-rule:nonzero;stroke:none" />
  </g>
</svg>
