<?xml version="1.0" encoding="UTF-8" standalone="no"?>
<svg
   xmlns:ns="&amp;ns_sfw;"
   xmlns:dc="http://purl.org/dc/elements/1.1/"
   xmlns:cc="http://creativecommons.org/ns#"
   xmlns:rdf="http://www.w3.org/1999/02/22-rdf-syntax-ns#"
   xmlns:svg="http://www.w3.org/2000/svg"
   xmlns="http://www.w3.org/2000/svg"
   id="svg2"
   xml:space="preserve"
   enable-background="new 0 0 1920 1080"
   viewBox="0 0 495.79998 608.04749"
   height="608.04749"
   width="495.79999"
   y="0px"
   x="0px"
   version="1.1"><defs
   id="defs402">
	
	
	
	
	
	
	
	
	
	
	
	
	
	
</defs>
<metadata
   id="metadata4">
	<ns:sfw>
		<ns:slices />
		<ns:sliceSourceBounds
   bottomLeftOrigin="true"
   x="-5344.5"
   y="-6982.3"
   height="10106.4"
   width="12464.3" />
	</ns:sfw>
<rdf:RDF><cc:Work
     rdf:about=""><dc:format>image/svg+xml</dc:format><dc:type
       rdf:resource="http://purl.org/dc/dcmitype/StillImage" /><dc:title></dc:title></cc:Work></rdf:RDF></metadata>
<g
   transform="translate(-147.8,-105.95251)"
   id="Capa_2">
</g>
<g
   transform="translate(-147.8,-105.95251)"
   id="g8">
		<path
   d="m 148.6,653.1 -0.2,-0.8 0.9,-3.6 0.3,-0.7 0.1,-0.8 0.2,-0.7 1,-4.7 0.7,-2.2 0.1,-0.7 0.7,-3.2 0.1,-0.7 0.5,-1.4 0.1,-0.7 1,-3.8 0,-0.7 0.3,-0.8 0.2,-1.5 0.4,-1.5 0.2,-0.6 0.1,-0.8 0.1,-0.8 0.5,-1.5 0.5,-0.7 0.9,-0.4 0.8,-0.1 0.7,0.1 0.8,0.3 0.5,0.7 0.3,0.8 0.1,0.9 0.6,2.2 0.2,1.5 0.9,2.8 0.4,2.4 0.3,0.7 0.1,0.9 0.8,2.9 0.1,0.8 0.8,3 0.1,0.9 0.2,0.6 0,0.8 0.7,2.3 0.2,1.4 0.3,0.9 0,0.6 0.9,3 0.5,2.4 -0.2,0.8 -0.6,0.3 -0.9,0 -0.9,-0.5 -0.6,-0.6 -0.2,-1.5 -0.2,-0.8 -0.3,-0.7 -0.3,-1.7 -0.2,-0.8 -0.1,-0.8 -0.4,-1.4 -0.6,-0.9 -0.8,-0.4 -2.2,0 -1.2,-0.1 -1,0 -0.7,0.1 -1.6,0 -0.9,0.4 -0.5,0.9 -1.5,7 -0.3,0.6 -0.6,0.7 -0.8,0.5 -1,0 -0.4,-0.6 z m 10.8,-12.3 1.5,0 0.6,-0.2 0.1,-0.8 -0.4,-1.6 -0.1,-0.8 -0.2,-0.8 -0.1,-0.6 -0.3,-0.7 -0.1,-0.9 -0.2,-0.7 -0.3,-0.7 -0.2,-1.5 -0.3,-1.3 -0.1,-1.1 -0.5,-2.1 -0.2,-1.6 -0.4,-1.5 -0.1,-0.1 -0.3,1.5 -0.5,3.3 -0.2,0.5 -0.5,2.4 0,0.7 -0.2,0.8 -0.2,0.7 -0.4,1.4 0,0.9 -0.2,0.7 -0.5,1.3 0,0.9 -0.1,0.6 0.1,0.9 0.7,0.3 0.8,0 0.7,0 1.5,0.1 0.6,0 z"
   id="path10" />
		<path
   d="m 184.8,653.5 -0.6,0 -0.7,-0.2 -0.4,-0.5 0,-0.5 -0.1,-1.4 0,-0.9 0,-0.6 0,-0.7 0,-0.7 0.1,-0.8 0,-3.6 0,-0.8 0,-0.6 -0.1,-1.7 0.1,-4 -0.2,-1.9 -0.2,-0.7 -0.3,-0.5 -0.5,-0.3 -0.6,-0.2 -1,0 -1.5,0.1 -0.7,0.2 -0.6,0.3 -0.5,0.3 -1,0.8 -0.4,0.6 -0.5,0.8 -0.2,1.2 0,3.8 -0.1,0.6 0,2.4 0,0.6 0,0.8 0,0.6 0.1,2.8 0,0.6 0,1 -0.1,0.8 0.1,0.7 0,0.7 -0.4,0.6 -0.6,0.4 -0.7,0 -0.5,-0.1 -0.6,-0.3 -0.4,-0.7 0.1,-0.7 0,-0.6 0,-1.2 0,-0.8 0,-0.7 0,-0.7 0,-0.6 0,-0.7 0,-0.6 0,-1.3 0,-0.8 0,-0.7 0,-0.7 0,-1.1 0,-0.6 0,-1.1 0,-0.7 0,-0.6 0,-0.7 0,-0.7 0,-1 0,-1 0,-0.6 -0.2,-2.7 0.1,-0.6 0.9,-0.4 0.6,0 1.1,0.3 0.4,0.6 0,0.7 0.3,0.3 0.5,-0.2 0.6,-0.4 0.5,-0.2 0.6,-0.4 0.7,-0.4 0.6,-0.2 0.7,-0.3 0.7,-0.1 0.6,-0.1 1.7,0 1,0.1 0.7,0.2 1.1,0.7 0.4,0.4 0.7,1.3 0.2,0.6 0.1,0.5 0.1,2.7 0,1.3 0,0.7 -0.1,1.1 0,7.2 0.1,4.6 0.1,0.6 -0.3,0.8 -0.5,0.3 -1,0.2 z"
   id="path12" />
		<path
   d="m 195.5,653.9 -0.7,-0.1 -0.6,-0.2 -0.6,-0.2 -0.5,-0.3 -0.5,-0.4 -0.5,-0.4 -0.7,-1.1 -0.3,-0.7 -0.3,-1.2 0,-0.7 0,-2.1 0.1,-0.7 0.1,-0.6 0.2,-0.7 0.2,-0.5 0.2,-0.7 0.4,-0.6 0.3,-0.5 0.4,-0.5 0.5,-0.4 0.6,-0.6 0.6,-0.3 1.9,-0.9 0.7,-0.1 1.3,-0.2 1,0 0.9,-0.1 0.6,0.1 0.7,-0.2 0.4,-0.6 -0.1,-1.4 -0.1,-0.7 -0.1,-0.6 -0.2,-0.8 -0.2,-0.5 -0.4,-0.5 -0.5,-0.4 -0.5,-0.4 -0.6,-0.1 -1,0 -1,-0.1 -1.1,0.2 -0.9,0.3 -1.2,0.8 -0.7,0.1 -0.6,-0.4 -0.3,-0.4 -0.1,-0.8 0.4,-0.7 0.5,-0.4 0.6,-0.3 0.6,-0.3 1.2,-0.5 0.6,0 0.7,-0.2 0.7,0 2,0 0.7,0.2 1,0.2 0.9,0.4 0.5,0.3 0.5,0.4 0.8,1.2 0.3,0.6 0.3,0.7 0.3,1.3 0.2,1.3 0,1.1 0.1,1 0,1.3 0,0.6 0,0.7 0,2.1 -0.1,1.4 0.1,0.5 -0.1,2.4 0.1,1.6 0,0.7 0,0.7 0.1,1.2 -0.2,0.8 -1,0.3 -1.2,-0.3 -0.5,-0.6 -0.1,-0.7 -0.3,-0.2 -0.4,0.2 -0.9,0.8 -0.6,0.4 -1.1,0.4 -1.2,0.4 -2.3,0.2 z m 2.5,-2.6 0.6,-0.2 1.2,-0.6 1,-0.6 0.5,-0.5 0.4,-0.8 0.2,-0.9 0,-0.6 0,-0.7 0,-3.4 0,-0.5 -0.3,-0.8 -0.6,-0.2 -2.5,-0.1 -0.7,0.2 -1.2,0.3 -1.1,0.8 -0.4,0.5 -0.4,0.6 -0.3,0.5 -0.4,0.7 -0.1,0.6 -0.1,1.7 0,1.1 0.1,0.6 0.5,1.2 0.4,0.4 0.6,0.3 0.7,0.3 1,0.1 0.9,0 z m -1.5,-24.1 0,-0.6 0.6,-1.2 0.4,-0.6 0.3,-0.6 0.8,-0.6 0.9,-0.4 0.8,0 0.4,0.5 0,0.6 -0.4,0.6 -0.5,0.7 -0.4,0.5 -0.4,0.6 -0.8,0.8 -1,0.2 -0.7,-0.5 z"
   id="path14" />
		<path
   d="m 211.3,653.3 -0.4,-0.6 -0.1,-0.6 -0.1,-1.2 0,-2.1 0,-0.7 0,-0.6 0,-1.1 0,-1.1 0.1,-1.2 -0.1,-0.7 0,-8.8 0,-0.8 0,-0.8 0.1,-0.6 -0.1,-4.2 0,-1 0,-3 -0.1,-0.7 0,-1.3 -0.1,-1.3 0.2,-0.7 0.5,-0.3 0.5,0 0.6,-0.1 0.7,0.4 0.5,0.5 0.1,3.5 0,0.6 0.1,0.7 -0.1,1.8 0,1.3 0,0.7 0,1.1 0,0.6 0,2.2 0.1,0.9 -0.1,1.1 0,0.6 0,0.7 0,0.6 0.1,0.7 0,9.6 0,0.7 0,1.3 0.1,0.6 0,0.6 0,0.8 0,1.3 -0.1,0.7 -0.5,0.2 -0.6,0 -0.7,0.1 -0.6,-0.4 z"
   id="path16" />
		<path
   d="m 220.3,626.8 -0.6,-0.4 -0.3,-0.6 -0.2,-1 0.2,-0.9 0.4,-0.6 0.5,-0.4 1.1,0 1,0 0.5,0.4 0.5,0.6 0.1,1 -0.2,1.1 -0.4,0.4 -0.5,0.4 -1,0.1 -1.1,-0.1 z m 0,26.4 -0.4,-0.6 -0.1,-0.6 0,-0.6 -0.1,-0.7 0,-0.7 -0.1,-2.8 0,-1.1 0,-4 0,-1.1 0,-4.1 0,-0.7 0,-0.7 0,-0.5 0,-0.8 -0.1,-0.6 0,-0.7 0,-0.7 -0.1,-0.6 0.2,-0.8 0.5,-0.2 0.6,-0.1 0.6,0.1 0.7,0.2 0.4,0.7 0,1.3 0.1,0.6 0,2.2 0,1.1 0,1.7 0,0.7 0,3.1 0,0.6 -0.1,1.1 0,2.3 0,1 0,0.6 0.1,0.6 0,0.8 0,0.7 0,0.6 0,0.7 0,0.7 0,0.6 -0.1,0.7 -0.6,0.3 -1.2,0 -0.3,-0.3 z"
   id="path18" />
		<path
   d="m 233.1,653.9 -0.6,-0.1 -0.6,-0.2 -0.7,-0.1 -0.6,-0.1 -0.6,-0.4 -1.2,-0.5 -0.5,-0.4 -0.6,-0.4 -0.3,-0.6 0.1,-0.9 0.3,-0.5 0.5,-0.3 0.7,0.1 0.6,0.3 1.9,1.1 1.3,0.3 1.7,0.2 1,-0.1 0.6,-0.2 0.6,-0.3 0.5,-0.5 0.6,-1 0.1,-0.7 0,-1 -0.1,-1.2 -0.2,-0.6 -0.4,-0.7 -0.5,-0.5 -0.9,-0.7 -0.9,-0.5 -0.5,-0.3 -1.1,-0.4 -0.9,-0.4 -1.2,-0.7 -1.7,-1.2 -1.2,-1.5 -0.3,-0.7 -0.2,-0.6 -0.1,-0.6 -0.1,-2 0.1,-0.7 0.1,-0.6 0.3,-0.6 0.3,-0.7 1,-0.9 0.5,-0.2 0.5,-0.4 2.3,-0.5 0.7,0 1.7,0 0.6,0.1 1.3,0.4 0.6,0.1 0.6,0.3 0.6,0.3 0.4,0.7 0,0.8 -0.2,0.5 -0.5,0.4 -0.7,-0.1 -0.7,-0.2 -1,-0.4 -1,-0.2 -0.7,-0.2 -2.1,0.1 -0.6,0.3 -0.6,0.5 -0.3,0.4 -0.1,0.6 -0.1,1 0,1.1 0.2,0.5 0.4,0.6 0.5,0.5 0.4,0.2 0.6,0.5 0.6,0.3 0.9,0.5 3.1,1.6 1,0.8 0.4,0.4 0.9,1.1 0.5,1.2 0.2,0.6 0.1,0.7 0,2 -0.1,0.6 -0.4,1.3 -0.3,0.6 -0.8,1.2 -0.5,0.5 -1.8,0.9 -0.7,0.2 -0.6,0.1 -1,0 -1,0 -0.1,0.1 z"
   id="path20" />
		<path
   d="m 245.7,626.8 -0.6,-0.4 -0.3,-0.6 -0.2,-1 0.2,-0.9 0.4,-0.6 0.5,-0.4 1.1,0 1,0 0.5,0.4 0.5,0.6 0.1,1 -0.2,1.1 -0.4,0.4 -0.5,0.4 -1,0.1 -1.1,-0.1 z m 0,26.4 -0.4,-0.6 -0.1,-0.6 0,-0.6 -0.1,-0.7 0,-0.7 -0.1,-2.8 0,-1.1 0,-4 0,-1.1 0,-4.1 0,-0.7 0,-0.7 0,-0.5 0,-0.8 -0.1,-0.6 0,-0.7 0,-0.7 -0.1,-0.6 0.2,-0.8 0.5,-0.2 0.6,-0.1 0.6,0.1 0.7,0.2 0.4,0.7 0,1.3 0.1,0.6 0,2.2 0,1.1 0,1.7 0,0.7 0,3.1 0,0.6 -0.1,1.1 0,2.3 0,1 0,0.6 0.1,0.6 0,0.8 0,0.7 0,0.6 0,0.7 0,0.7 0,0.6 -0.1,0.7 -0.6,0.3 -1.2,0 -0.3,-0.3 z"
   id="path22" />
		<path
   d="m 258.5,653.9 -0.6,-0.1 -0.6,-0.2 -0.7,-0.1 -0.6,-0.1 -0.6,-0.3 -1.2,-0.5 -0.5,-0.4 -0.6,-0.4 -0.3,-0.6 0.1,-0.9 0.3,-0.5 0.5,-0.3 0.7,0.1 0.6,0.3 1.9,1.1 1.3,0.3 1.7,0.2 1,-0.1 0.6,-0.2 0.6,-0.3 0.5,-0.5 0.6,-1 0.1,-0.7 0,-1 -0.1,-1.2 -0.2,-0.6 -0.4,-0.7 -0.5,-0.5 -0.9,-0.7 -0.9,-0.5 -0.5,-0.3 -1.1,-0.4 -0.9,-0.4 -1.2,-0.7 -1.7,-1.2 -1.2,-1.5 -0.3,-0.7 -0.2,-0.6 -0.1,-0.6 -0.1,-2 0.1,-0.7 0.1,-0.6 0.3,-0.6 0.3,-0.7 1,-0.9 0.5,-0.2 0.5,-0.4 2.3,-0.5 0.7,0 1.7,0 0.6,0.1 1.3,0.4 0.6,0.1 0.6,0.3 0.6,0.3 0.4,0.7 0,0.8 -0.2,0.5 -0.5,0.4 -0.7,-0.1 -0.7,-0.2 -1,-0.4 -1,-0.2 -0.7,-0.2 -2.1,0.1 -0.6,0.3 -0.6,0.5 -0.3,0.4 -0.1,0.6 -0.1,1 0,1.1 0.2,0.5 0.4,0.6 0.5,0.5 0.4,0.2 0.6,0.5 0.6,0.3 0.9,0.5 3.1,1.6 1,0.8 0.4,0.4 0.9,1.1 0.5,1.2 0.2,0.6 0.1,0.7 0,2 -0.1,0.6 -0.4,1.3 -0.3,0.6 -0.8,1.2 -0.5,0.5 -1.8,0.9 -0.7,0.2 -0.6,0.1 -1,0 -1,0 -0.1,0 z"
   id="path24" />
		<path
   d="m 283.8,653.9 -0.9,0 -0.7,0 -0.6,-0.1 -0.6,-0.4 -1.2,-0.6 -0.5,-0.4 -0.5,-0.5 -0.3,-0.6 -0.4,-0.6 -0.6,-1.1 -0.1,-0.6 -0.3,-0.6 -0.3,-1.5 -0.1,-0.8 -0.2,-1.2 -0.1,-1.4 0,-2 0.1,-0.7 0.1,-0.8 0,-0.6 0.1,-0.7 0.1,-0.7 0.1,-0.6 0.4,-1.4 0.8,-1.9 1.2,-1.6 0.5,-0.5 0.6,-0.3 0.5,-0.4 0.6,-0.3 0.6,-0.2 0.6,-0.1 0.7,-0.1 1,0 1.1,0 0.7,0.2 0.6,0.1 1.3,0.5 0.5,0.3 0.5,0 0.3,-0.5 0,-0.6 0.1,-1.1 -0.1,-4.3 0.1,-0.6 0,-0.7 0,-0.7 -0.1,-0.8 0,-0.6 -0.1,-0.7 0.2,-0.7 0.5,-0.3 1,0 0.9,0.3 0.4,0.6 0.2,1.2 0,0.7 0.1,0.6 0,0.7 0,1.6 0,2.7 0,0.6 0,1.7 0,0.7 0,1 0,0.6 0,1.8 0,1.9 0.1,0.8 -0.1,6.4 0,0.8 0,5.1 0.2,2.6 -0.3,0.7 -0.6,0.4 -0.7,-0.1 -0.8,-0.2 -0.5,-0.5 -0.1,-0.6 -0.3,-0.4 -0.4,0.1 -0.5,0.5 -0.5,0.3 -1.1,0.8 -0.6,0.1 -1.3,0.4 -1.3,-0.1 z m 0.5,-2.5 1,-0.1 0.6,-0.1 0.5,-0.2 0.6,-0.2 0.5,-0.3 0.5,-0.5 0.4,-0.6 0.4,-0.7 0.2,-0.9 0,-5.8 0,-0.7 -0.1,-1 0,-4.1 -0.2,-0.9 -0.4,-0.8 -1.7,-1.2 -1.3,-0.3 -1.1,0 -1,0 -1,0.3 -0.9,0.4 -0.9,1.1 -0.3,0.5 -0.3,0.7 -0.2,0.7 -0.5,2.7 0,0.6 -0.1,1.3 0,1.1 0.1,1.8 0,0.5 0,1.3 0.3,1.3 0.1,0.8 0.2,0.5 0.2,0.6 0.3,0.7 0.4,0.5 0.5,0.4 1.1,0.6 0.7,0.2 1.4,-0.2 z"
   id="path26" />
		<path
   d="m 303.4,653.9 -1.9,-0.6 -0.6,-0.4 -1,-0.9 -1.2,-1.6 -0.3,-0.6 -0.5,-1.2 -0.2,-0.6 0,-0.8 -0.2,-0.6 0,-0.7 -0.1,-0.7 -0.1,-0.7 0,-2.6 0.2,-2.7 0.2,-1.3 0.5,-2.1 0.2,-0.7 0.3,-0.6 0.7,-1.1 0.9,-1.2 0.5,-0.4 0.6,-0.4 1.8,-0.8 1.4,-0.2 1,0 1,0.1 1.2,0.2 1.8,1 1,1.1 0.7,1.2 0.2,0.6 0.2,1.7 -0.2,1.7 -0.1,0.6 -0.1,0.7 -0.3,0.7 -1,1.7 -1.4,1.4 -0.6,0.5 -1.7,1 -0.6,0.2 -0.7,0.2 -1.2,0.5 -0.7,0.1 -0.7,0 -0.7,0.2 -0.6,0.3 -0.3,0.7 0.3,1.1 0.4,1 1,1.7 1.1,0.8 0.6,0.1 1.1,0.1 1,0 0.7,-0.2 0.7,-0.1 0.6,-0.3 0.9,-0.5 0.9,-0.7 0.7,-0.3 0.6,0.3 0.3,0.6 0.1,0.8 -0.3,0.7 -0.5,0.5 -0.6,0.5 -0.6,0.3 -0.7,0.2 -0.7,0.3 -1.3,0.3 -0.6,0.1 -2.1,0 -1,-0.2 z m -1.4,-10.6 1.3,-0.4 0.6,-0.2 1.2,-0.6 1.7,-1.1 0.4,-0.5 0.3,-0.6 0.3,-0.7 0.2,-0.6 0.2,-0.6 0.1,-0.7 0,-1 0,-1 -0.1,-0.7 -0.9,-1.1 -0.5,-0.2 -0.7,-0.3 -0.9,0 -1.2,0.1 -1,0.2 -0.5,0.3 -0.4,0.4 -0.4,0.5 -0.4,0.7 -0.5,1.3 -0.6,3.3 0,1.3 -0.1,1.3 0.4,0.7 0.7,0.2 0.8,0 z"
   id="path28" />
		<path
   d="m 324.9,653.5 -0.8,-0.2 -0.5,-0.9 0.1,-4.5 -0.1,-0.7 0,-0.8 0,-0.9 0.1,-0.7 -0.1,-0.8 0.1,-0.8 -0.1,-0.8 0,-0.8 0.1,-1.1 0,-3 0,-1.2 0,-0.7 0.1,-2 0,-1.1 -0.1,-0.7 0.1,-0.9 -0.1,-0.8 0,-0.8 0,-0.7 0,-2.9 -0.1,-0.9 0,-0.8 0,-0.6 0.1,-0.8 0,-1.4 0.4,-0.9 0.8,-0.5 0.8,0.1 0.7,0 0.8,-0.1 1.5,0 0.9,0.1 1.2,-0.1 1.1,0.1 0.9,0 0.7,0.2 0.8,0.1 0.7,0.3 0.8,0.4 0.7,0.3 0.5,0.4 1.1,1.2 0.4,0.6 0.3,0.7 0.6,1.4 0.2,0.9 0.4,3.6 0,1.2 -0.2,0.8 0,0.8 -0.1,0.7 -0.7,2.1 -0.3,0.6 -0.9,1.2 -0.5,0.6 -0.6,0.5 -0.6,0.6 -1.3,0.7 -2.2,0.6 -4.6,0.3 -0.6,0.3 -0.4,0.8 0.1,0.7 0,5.4 -0.1,0.7 0,3.3 -0.4,1.1 -0.8,0.4 -0.9,0.1 z m 5.5,-15.2 1.5,-0.3 0.8,-0.3 0.7,-0.2 0.7,-0.4 1.2,-1.2 0.3,-0.7 0.4,-0.6 0.5,-1.6 0,-0.8 0.1,-0.8 0,-2.3 -0.1,-1.4 -0.1,-0.6 -0.3,-1.1 -0.5,-1.2 -0.5,-0.7 -1.1,-0.9 -0.7,-0.1 -0.9,-0.3 -1.8,-0.1 -1.1,0.1 -0.7,0 -0.8,-0.1 -0.7,0.5 -0.3,0.9 0,0.7 -0.1,3.6 0,1.1 0,0.8 0,0.8 0,0.7 0.1,1.5 -0.1,0.9 0.1,1.2 -0.2,1.8 0.4,0.8 0.8,0.4 1.2,0.1 1.2,-0.2 z"
   id="path30" />
		<path
   d="m 349.8,653.9 -1.9,-0.6 -0.6,-0.4 -1,-0.9 -1.2,-1.6 -0.3,-0.6 -0.5,-1.2 -0.2,-0.6 0,-0.8 -0.2,-0.6 0,-0.7 -0.1,-0.7 -0.1,-0.7 0,-2.6 0.2,-2.7 0.2,-1.3 0.5,-2.1 0.2,-0.7 0.3,-0.6 0.7,-1.1 0.9,-1.2 0.5,-0.4 0.6,-0.4 1.8,-0.8 1.4,-0.2 1,0 1,0.1 1.2,0.2 1.8,1 1,1.1 0.7,1.2 0.2,0.6 0.2,1.7 -0.2,1.7 -0.1,0.6 -0.1,0.7 -0.3,0.7 -1,1.7 -1.4,1.4 -0.6,0.5 -1.7,1 -0.6,0.2 -0.7,0.2 -1.2,0.5 -0.7,0.1 -0.7,0 -0.7,0.2 -0.6,0.3 -0.3,0.7 0.3,1.1 0.4,1 1,1.7 1.1,0.8 0.6,0.1 1.1,0.1 1,0 0.7,-0.2 0.7,-0.1 0.6,-0.3 0.9,-0.5 0.9,-0.7 0.7,-0.3 0.6,0.3 0.3,0.6 0.1,0.8 -0.3,0.7 -0.5,0.5 -0.6,0.5 -0.6,0.3 -0.7,0.2 -0.7,0.3 -1.3,0.3 -0.6,0.1 -2.1,0 -1,-0.2 z m -1.4,-10.6 1.3,-0.4 0.6,-0.2 1.2,-0.6 1.7,-1.1 0.4,-0.5 0.3,-0.6 0.3,-0.7 0.2,-0.6 0.2,-0.6 0.1,-0.7 0,-1 0,-1 -0.1,-0.7 -0.9,-1.1 -0.5,-0.2 -0.7,-0.3 -0.9,0 -1.2,0.1 -1,0.2 -0.5,0.3 -0.4,0.4 -0.4,0.5 -0.4,0.7 -0.5,1.3 -0.6,3.3 0,1.3 -0.1,1.3 0.4,0.7 0.7,0.2 0.8,0 z"
   id="path32" />
		<path
   d="m 363.9,653.3 -0.4,-0.6 -0.1,-0.6 -0.1,-1.2 0,-2.1 0,-0.7 0,-0.6 0,-1.1 0,-1.1 0.1,-1.2 -0.1,-0.7 0,-8.8 0,-0.8 0,-0.8 0.1,-0.6 -0.1,-4.2 0,-1 0,-3 -0.1,-0.7 0,-1.3 -0.1,-1.3 0.2,-0.7 0.5,-0.3 0.5,0 0.6,-0.1 0.7,0.4 0.5,0.5 0.1,3.5 0,0.6 0.1,0.7 -0.1,1.8 0,1.3 0,0.7 0,1.1 0,0.6 0,2.2 0.1,0.9 -0.1,1.1 0,0.6 0,0.7 0,0.6 0.1,0.7 0,9.6 0,0.7 0,1.3 0.1,0.6 0,0.6 0,0.8 0,1.3 -0.1,0.7 -0.5,0.2 -0.6,0 -0.7,0.1 -0.6,-0.4 z"
   id="path34" />
		<path
   d="m 372.8,626.8 -0.6,-0.4 -0.3,-0.6 -0.2,-1 0.2,-0.9 0.4,-0.6 0.5,-0.4 1.1,0 1,0 0.5,0.4 0.5,0.6 0.1,1 -0.2,1.1 -0.4,0.4 -0.5,0.4 -1,0.1 -1.1,-0.1 z m 0.1,26.4 -0.4,-0.6 -0.1,-0.6 0,-0.6 -0.1,-0.7 0,-0.7 -0.1,-2.8 0,-1.1 0,-4 0,-1.1 0,-4.1 0,-0.7 0,-0.7 0,-0.5 0,-0.8 -0.1,-0.6 0,-0.7 0,-0.7 -0.1,-0.6 0.2,-0.8 0.5,-0.2 0.6,-0.1 0.6,0.1 0.7,0.2 0.4,0.7 0,1.3 0.1,0.6 0,2.2 0,1.1 0,1.7 0,0.7 0,3.1 0,0.6 -0.1,1.1 0,2.3 0,1 0,0.6 0.1,0.6 0,0.8 0,0.7 0,0.6 0,0.7 0,0.7 0,0.6 -0.1,0.7 -0.6,0.3 -1.2,0 -0.3,-0.3 z"
   id="path36" />
		<path
   d="m 387.3,666 -0.7,0 -0.6,0 -0.7,-0.2 -0.6,-0.3 -0.6,-0.2 -1.6,-1.1 -0.3,-0.8 0.1,-0.7 0.3,-0.6 0.5,-0.2 0.6,0.1 0.5,0.4 0.6,0.4 0.7,0.3 1.2,0.4 1,0 0.6,0.1 1.1,-0.1 0.6,-0.2 1.2,-0.6 0.5,-0.4 0.3,-0.5 0.4,-0.7 0.3,-0.6 0.4,-1.2 0.1,-3.4 0,-0.6 0,-0.7 0,-0.9 0,-1 -0.2,-0.5 -0.5,0.1 -0.5,0.5 -1.4,0.9 -1,0.3 -0.7,0.1 -1,0 -1.1,-0.1 -1.6,-0.3 -1,-0.5 -0.5,-0.3 -0.5,-0.5 -0.5,-0.4 -0.4,-0.6 -0.4,-0.4 -0.3,-0.6 -0.3,-0.7 -0.2,-0.6 -0.4,-1.4 -0.1,-0.6 -0.2,-0.7 -0.1,-0.8 0,-0.7 -0.1,-1.3 0,-1.1 0,-1 0,-0.7 0.2,-1.2 0,-0.7 0.2,-1.5 0.6,-1.8 0.8,-1.9 0.4,-0.7 1.3,-1.3 0.5,-0.5 0.6,-0.2 1,-0.2 0.9,-0.2 2.1,0 1.3,0.3 0.7,0.3 0.6,0.3 0.6,0.5 0.5,0.3 0.4,0.2 0.4,-0.4 0.5,-0.7 0.8,-0.5 0.8,0 0.6,0.4 0.3,0.8 -0.1,3.3 0,1.6 0,1.7 0,1 0,1.6 0,0.7 0,0.7 0,0.6 0,1.7 0.1,0.9 0,0.7 -0.1,1.1 0,0.6 0,0.7 0,1 0,0.7 0,0.6 0,0.7 0,0.8 0,0.6 0,0.6 -0.1,0.7 0.1,0.7 0,2.8 0,0.5 -0.1,0.7 -0.6,1.9 -0.2,0.6 -0.3,0.6 -0.4,0.6 -0.4,0.5 -1,1 -1.1,0.8 -0.5,0.3 -0.7,0.2 -0.7,0.1 -0.6,0.3 -0.6,0 -1,0 -0.7,-0.3 z m 2.1,-14.7 0.6,-0.1 0.6,-0.2 0.6,-0.3 1.5,-1.2 0.4,-0.9 0.2,-0.9 0,-0.7 0,-0.7 0,-5.9 0,-0.6 0.1,-1.1 0,-1.8 -0.2,-1.3 -0.4,-0.8 -0.5,-0.5 -0.6,-0.4 -1.1,-0.7 -0.6,-0.2 -0.7,-0.1 -1,0 -1,0 -0.6,0.2 -0.6,0.3 -0.5,0.3 -0.5,0.4 -0.7,1.1 -0.4,1.3 -0.1,0.6 -0.1,0.8 0,0.5 -0.1,0.7 0,1.4 0,0.7 0,1.1 0,1 0,0.7 0.1,0.6 0,0.6 0.2,1.3 0.1,0.6 0.1,0.7 0.2,0.6 0.6,1.1 0.4,0.6 0.4,0.4 0.5,0.4 0.6,0.1 0.6,0.2 1,0 0.9,0.1 z"
   id="path38" />
		<path
   d="m 403.1,653.5 -0.9,-0.3 -0.3,-1 0,-2.3 0,-0.8 -0.1,-1.7 0,-4.2 0.1,-0.7 0,-0.7 -0.1,-9.4 -0.1,-0.8 0.2,-0.6 0.5,-0.3 1,0 1,0.2 0.5,0.7 0,0.5 0.3,0.5 0.4,-0.3 0.5,-0.5 0.5,-0.4 0.6,-0.3 1.2,-0.6 0.7,-0.2 1.3,-0.2 1.3,0.2 0.7,0.2 0.5,0.5 0.1,0.8 -0.2,0.7 -0.5,0.5 -0.7,0.1 -0.7,-0.2 -0.7,0 -0.6,0 -0.7,0.1 -0.6,0.2 -0.6,0.2 -0.6,0.3 -0.5,0.3 -1,1 -0.5,0.9 -0.1,1.1 0,0.6 0,1 0,0.8 0,1 -0.1,0.7 0.1,0.7 0,0.6 0,0.6 0,1.4 0,1.3 -0.1,1.3 0,2.1 0.1,0.7 0,2.2 -0.1,0.7 -0.3,0.7 -0.6,0.3 -0.9,-0.2 z"
   id="path40" />
		<path
   d="m 422.1,653.8 -0.6,0 -1.2,-0.6 -0.6,-0.4 -0.6,-0.3 -0.9,-0.9 -0.4,-0.5 -0.7,-1.3 -0.5,-1.2 -0.3,-1.2 -0.4,-2.1 -0.1,-1.4 0,-2.7 0.1,-1.4 0.1,-1.3 0.1,-0.7 0.5,-2 0.3,-0.5 0.5,-1.3 0.4,-0.6 0.8,-1 0.6,-0.5 0.5,-0.3 0.8,-0.4 1,-0.4 1,-0.2 1.3,0 1,0 0.7,0.1 1.3,0.4 0.5,0.2 0.5,0.3 1,0.8 0.8,1.1 0.7,1.2 0.2,0.7 0.3,0.5 0.1,0.7 0.2,0.7 0.1,0.6 0.1,0.7 0.1,1.4 0.2,1.3 -0.1,2 0,0.8 0,0.7 -0.3,2.1 -0.1,0.5 -0.6,1.9 -0.3,0.7 -0.3,0.5 -0.3,0.7 -0.4,0.5 -0.5,0.5 -0.5,0.5 -0.5,0.4 -1.1,0.7 -1.2,0.3 -0.7,0.1 -2,0 -0.6,-0.4 z m 2.7,-2.5 0.6,-0.2 0.6,-0.2 0.6,-0.4 0.4,-0.5 0.4,-0.7 0.3,-0.6 0.2,-0.6 0.2,-0.7 0.1,-0.7 0,-0.6 0.1,-0.8 0.1,-0.6 0,-0.7 0,-0.8 0,-1.1 0.1,-0.9 -0.1,-2 -0.2,-1.3 -0.2,-0.7 -0.1,-0.6 -0.5,-1.2 -0.3,-0.6 -0.4,-0.5 -0.5,-0.5 -1.1,-0.7 -0.6,-0.1 -0.9,0 -1,0.1 -1.2,0.3 -0.6,0.6 -0.6,0.8 -0.6,1.1 -0.1,0.7 -0.2,0.7 -0.2,1.3 0,0.7 -0.1,0.6 -0.1,1.4 0.1,2 0,1.3 0,0.8 0.1,0.6 0.5,2.1 0.2,0.7 0.2,0.5 0.4,0.6 0.4,0.6 0.6,0.5 0.5,0.3 0.7,0.2 2.2,-0.2 z"
   id="path42" />
		<path
   d="m 441,653.9 -0.6,-0.1 -0.6,-0.2 -0.7,-0.1 -0.6,-0.1 -0.5,-0.4 -1.2,-0.5 -0.5,-0.4 -0.6,-0.4 -0.3,-0.6 0.1,-0.9 0.3,-0.5 0.5,-0.3 0.7,0.1 0.6,0.3 1.9,1.1 1.3,0.3 1.7,0.2 1,-0.1 0.6,-0.2 0.6,-0.3 0.5,-0.5 0.6,-1 0.1,-0.7 0,-1 -0.1,-1.2 -0.2,-0.6 -0.4,-0.7 -0.5,-0.5 -0.9,-0.7 -0.9,-0.5 -0.5,-0.3 -1.1,-0.4 -0.9,-0.4 -1.2,-0.7 -1.7,-1.2 -1.2,-1.5 -0.3,-0.7 -0.2,-0.6 -0.1,-0.6 -0.1,-2 0.1,-0.7 0.1,-0.6 0.3,-0.6 0.3,-0.7 1,-0.9 0.5,-0.2 0.5,-0.4 2.3,-0.5 0.7,0 1.7,0 0.6,0.1 1.3,0.4 0.6,0.1 0.6,0.3 0.6,0.3 0.4,0.7 0,0.8 -0.2,0.5 -0.5,0.4 -0.7,-0.1 -0.7,-0.2 -1,-0.4 -1,-0.2 -0.7,-0.2 -2.1,0.1 -0.6,0.3 -0.6,0.5 -0.3,0.4 -0.1,0.6 -0.1,1 0,1.1 0.2,0.5 0.4,0.6 0.5,0.5 0.4,0.2 0.6,0.5 0.6,0.3 0.9,0.5 3.1,1.6 1,0.8 0.4,0.4 0.9,1.1 0.5,1.2 0.2,0.6 0.1,0.7 0,2 -0.1,0.6 -0.4,1.3 -0.3,0.6 -0.8,1.2 -0.5,0.5 -1.8,0.9 -0.7,0.2 -0.6,0.1 -1,0 -1,0 -0.2,0.1 z"
   id="path44" />
		<path
   d="m 460.2,665.6 -0.6,-0.4 -0.4,-0.7 0,-0.8 0.3,-0.7 0.6,-0.5 1.2,-1.4 0.3,-0.7 0.3,-0.5 1,-2.5 0.2,-0.7 0.2,-0.6 0.1,-0.8 0.2,-0.6 0,-1.1 -0.3,-1.9 -0.7,-2.2 -0.2,-0.6 -0.1,-0.7 -0.4,-1.3 -0.2,-0.5 -0.3,-1.3 -0.2,-0.7 -0.2,-0.6 -0.1,-0.6 -0.4,-1.3 -0.3,-0.6 -0.2,-1.3 -0.3,-0.8 -0.1,-0.5 -0.2,-0.6 -0.1,-0.7 -0.2,-0.7 -0.1,-0.6 -0.3,-0.6 -0.7,-2.5 -0.2,-0.6 -0.1,-0.7 0.1,-0.7 0.5,-0.2 1.1,-0.1 1.1,0.2 0.5,0.7 0.6,2 0.1,0.7 0.2,0.6 0.5,1.9 0.3,0.6 0.1,0.6 0.3,1 0.2,1 0.2,0.7 0.1,0.6 0.2,0.6 0.2,0.7 0.2,0.6 0.1,0.7 0.3,0.9 0.6,2.4 0.1,0.7 0.2,0.7 0.2,0 0.2,-0.7 1.5,-6.5 0.1,-0.8 0.4,-1.3 0.1,-0.7 0.9,-3.1 0.1,-0.7 0.4,-1.2 0.1,-0.7 0.2,-0.7 0.1,-0.5 0.6,-0.7 0.6,-0.3 1.1,0 0.9,0.3 0.1,0.7 -0.4,1.2 -0.1,0.7 -0.2,0.6 -0.1,0.6 -0.2,0.7 -0.1,0.7 -0.3,1.2 -0.2,0.7 -0.3,1.3 -0.2,0.6 -0.3,1.4 -0.3,0.6 -0.3,1.2 -0.2,1.3 -0.5,1.2 -0.1,0.7 -0.2,0.7 -0.2,0.6 -0.1,0.7 -0.2,0.6 -0.1,0.6 -0.2,0.7 -0.3,0.7 -0.4,1.5 -0.3,1.3 -0.4,1 -0.1,0.6 -0.2,0.5 -0.1,0.7 -0.2,0.7 -0.1,0.7 -0.2,0.6 -0.2,0.6 -0.2,0.6 -0.6,1.2 -0.3,0.6 -0.3,0.7 -1.6,2.1 -0.5,0.4 -0.5,0.3 -0.6,0.5 -1,0 z"
   id="path46" />
		<path
   d="m 485.6,653.5 -0.8,-0.2 -0.5,-0.9 0.1,-4.5 -0.1,-0.7 0,-0.8 0,-0.9 0.1,-0.7 -0.1,-0.8 0.1,-0.8 -0.1,-0.8 0,-0.8 0.1,-1.1 0,-3 0,-1.2 0,-0.7 0.1,-2 0,-1.1 -0.1,-0.7 0.1,-0.9 -0.1,-0.8 0,-0.8 0,-0.7 0,-2.9 -0.1,-0.9 0,-0.8 0,-0.6 0.1,-0.8 0,-1.4 0.4,-0.9 0.8,-0.5 0.8,0.1 0.7,0 0.8,-0.1 1.5,0 0.9,0.1 1.2,-0.1 1.1,0.1 0.9,0 0.7,0.2 0.8,0.1 0.7,0.3 0.8,0.4 0.7,0.3 0.5,0.4 1.1,1.2 0.4,0.6 0.3,0.7 0.6,1.4 0.2,0.9 0.4,3.6 0,1.2 -0.2,0.8 0,0.8 -0.1,0.7 -0.7,2.1 -0.3,0.6 -0.9,1.2 -0.5,0.6 -0.6,0.5 -0.6,0.6 -1.3,0.7 -2.2,0.6 -4.6,0.3 -0.6,0.3 -0.4,0.8 0.1,0.7 0,5.4 -0.1,0.7 0,3.3 -0.4,1.1 -0.8,0.4 -0.9,0.1 z m 5.5,-15.2 1.5,-0.3 0.8,-0.3 0.7,-0.2 0.7,-0.4 1.2,-1.2 0.3,-0.7 0.4,-0.6 0.5,-1.6 0,-0.8 0.1,-0.8 0,-2.3 -0.1,-1.4 -0.1,-0.6 -0.3,-1.1 -0.5,-1.2 -0.5,-0.7 -1.1,-0.9 -0.7,-0.1 -0.9,-0.3 -1.8,-0.1 -1.1,0.1 -0.7,0 -0.8,-0.1 -0.7,0.5 -0.3,0.9 0,0.7 -0.1,3.6 0,1.1 0,0.8 0,0.8 0,0.7 0.1,1.5 -0.1,0.9 0.1,1.2 -0.2,1.8 0.4,0.8 0.8,0.4 1.2,0.1 1.2,-0.2 z"
   id="path48" />
		<path
   d="m 509.5,654 -0.7,-0.1 -0.6,-0.2 -1.6,-1 -0.8,-1.1 -0.5,-1.4 -0.1,-0.6 -0.2,-2.4 0,-1.1 0,-0.5 0,-5.8 0,-0.6 0,-1.3 0,-1.7 0,-0.6 0,-0.6 -0.1,-0.7 0,-0.7 -0.1,-1.9 0.2,-0.7 0.5,-0.3 0.6,0 0.7,0 0.6,0.4 0.5,0.6 0,0.7 0,0.6 0,0.7 0,3.5 0,0.7 0,0.7 0,0.5 0,0.8 -0.1,2.4 0,0.7 0,0.6 0,0.7 0,0.7 0.1,2 0,1.1 0.1,0.6 0.3,1.4 0.3,0.5 0.5,0.6 0.5,0.2 0.6,0.2 2.1,0 0.7,-0.3 0.6,-0.1 1.2,-0.7 0.5,-0.5 0.5,-0.5 0.5,-0.8 0.2,-1 0,-0.6 0,-1.3 -0.1,-1.8 0.1,-2.4 -0.1,-0.6 0.1,-0.6 0,-0.8 0,-0.7 0,-0.8 0,-0.6 0,-0.7 0,-0.7 -0.1,-1.3 0.1,-0.8 0,-1.3 0,-0.7 0.3,-0.7 0.7,-0.3 0.6,0 0.6,0 0.6,0.2 0.3,1.1 0,0.6 0,2.4 0,2.8 -0.1,1.2 0.1,0.7 0,11.5 0.1,1.2 -0.1,0.7 -0.6,0.3 -1.2,0 -0.7,-0.3 -0.5,-0.5 0,-0.7 -0.3,-0.2 -0.4,0.1 -1.6,1.1 -1.2,0.5 -0.6,0.2 -0.6,0.2 -1.7,0.1 -0.7,-0.2 z"
   id="path50" />
		<path
   d="m 538.8,653.5 -0.6,0 -0.7,-0.2 -0.4,-0.5 0,-0.5 -0.1,-1.4 0,-0.9 0,-0.6 0,-0.7 0,-0.7 0.1,-0.8 0,-3.6 0,-0.8 0,-0.6 -0.1,-1.7 0.1,-4 -0.2,-1.9 -0.2,-0.7 -0.3,-0.5 -0.5,-0.3 -0.6,-0.2 -1,0 -1.5,0.1 -0.7,0.2 -0.6,0.3 -0.5,0.3 -1,0.8 -0.4,0.6 -0.5,0.8 -0.2,1.2 0,3.8 -0.1,0.6 0,2.4 0,0.6 0,0.8 0,0.6 0.1,2.8 0,0.6 0,1 -0.1,0.8 0.1,0.7 0,0.7 -0.4,0.6 -0.6,0.4 -0.7,0 -0.5,-0.1 -0.6,-0.3 -0.4,-0.7 0.1,-0.7 0,-0.6 0,-1.2 0,-0.8 0,-0.7 0,-0.7 0,-0.6 0,-0.7 0,-0.6 0,-1.3 0,-0.8 0,-0.7 0,-0.7 0,-1.1 0,-0.6 0,-1.1 0,-0.7 0,-0.6 0,-0.7 0,-0.7 0,-1 0,-1 0,-0.6 -0.2,-2.7 0.1,-0.6 0.9,-0.4 0.6,0 1.1,0.3 0.4,0.6 0,0.7 0.3,0.3 0.5,-0.2 0.6,-0.4 0.5,-0.2 0.6,-0.4 0.7,-0.4 0.6,-0.2 0.7,-0.3 0.7,-0.1 0.6,-0.1 1.7,0 1,0.1 0.7,0.2 1.1,0.7 0.4,0.4 0.7,1.3 0.2,0.6 0.1,0.5 0.1,2.7 0,1.3 0,0.7 -0.1,1.1 0,7.2 0.1,4.6 0.1,0.6 -0.3,0.8 -0.5,0.3 -1,0.2 z"
   id="path52" />
		<path
   d="m 551.5,653.9 -0.7,-0.2 -0.6,-0.3 -0.6,-0.1 -0.5,-0.4 -0.5,-0.3 -0.8,-1.1 -0.3,-0.6 -0.3,-0.6 -0.4,-1.3 -0.2,-1.9 0,-2.8 -0.1,-0.6 0,-0.8 0,-0.6 0,-0.7 0,-1.7 0,-0.6 -0.1,-1.8 0,-1.3 0,-1.4 0,-0.7 -0.4,-0.6 -1,-0.4 -1.2,-0.2 -0.3,-0.5 0,-0.7 0.4,-0.6 1.1,-0.3 1.1,0 0.3,-0.4 0,-0.8 0,-0.7 0,-0.7 0,-0.7 0,-2.1 -0.1,-1.3 0.2,-0.5 0.5,-0.5 1.2,0.1 0.7,0.3 0.4,0.5 0.1,1.3 0,1.4 0,0.5 -0.1,2.5 0.4,0.7 0.7,0.2 1.3,0 1.3,0 1.3,0 0.6,0.4 0.4,0.6 0,0.6 -0.3,0.5 -0.7,0.3 -0.6,0.1 -0.7,0 -1.3,0 -0.7,0 -0.6,0 -0.7,0.3 -0.3,0.7 0,0.7 0,0.7 0.1,0.7 -0.1,6.8 0.1,1 0,2.5 0.2,1.2 0.3,1.3 0.6,1.2 1,0.8 1,0.2 1.6,0 0.6,-0.1 0.7,-0.2 0.8,0 0.5,0.4 0.1,0.6 -0.2,0.8 -0.6,0.5 -1.3,0.4 -0.7,0.1 -0.7,0.2 -1,0.1 -0.9,-0.1 z"
   id="path54" />
		<path
   d="m 566.3,653.8 -0.6,0 -1.2,-0.6 -0.6,-0.4 -0.6,-0.3 -0.9,-0.9 -0.4,-0.5 -0.7,-1.3 -0.5,-1.2 -0.3,-1.2 -0.4,-2.1 -0.1,-1.4 0,-2.7 0.1,-1.4 0.1,-1.3 0.1,-0.7 0.5,-2 0.3,-0.5 0.5,-1.3 0.4,-0.6 0.8,-1 0.6,-0.5 0.5,-0.3 0.8,-0.4 1,-0.4 1,-0.2 1.3,0 1,0 0.7,0.1 1.3,0.4 0.5,0.2 0.5,0.3 1,0.8 0.8,1.1 0.7,1.2 0.2,0.7 0.3,0.5 0.1,0.7 0.2,0.7 0.1,0.6 0.1,0.7 0.1,1.4 0.2,1.3 -0.1,2 0,0.8 0,0.7 -0.3,2.1 -0.1,0.5 -0.6,1.9 -0.3,0.7 -0.3,0.5 -0.1,0.5 -0.4,0.5 -0.6,0.5 -0.5,0.5 -0.5,0.4 -1.1,0.7 -1.2,0.3 -0.7,0.1 -2,0 -0.7,-0.2 z m 2.7,-2.5 0.6,-0.2 0.6,-0.2 0.6,-0.4 0.4,-0.5 0.4,-0.7 0.3,-0.6 0.2,-0.6 0.2,-0.7 0.1,-0.7 0,-0.6 0.1,-0.8 0.1,-0.6 0,-0.7 0,-0.8 0,-1.1 0.1,-0.9 -0.1,-2 -0.2,-1.3 -0.2,-0.7 -0.1,-0.6 -0.5,-1.2 -0.3,-0.6 -0.4,-0.5 -0.5,-0.5 -1.1,-0.7 -0.6,-0.1 -0.9,0 -1,0.1 -1.2,0.3 -0.6,0.6 -0.6,0.8 -0.6,1.1 -0.1,0.7 -0.2,0.7 -0.2,1.3 0,0.7 -0.1,0.6 -0.1,1.4 0.1,2 0,1.3 0,0.8 0.1,0.6 0.5,2.1 0.2,0.7 0.2,0.5 0.4,0.6 0.4,0.6 0.6,0.5 0.5,0.3 0.7,0.2 2.2,-0.2 z"
   id="path56" />
		<path
   d="m 585.2,653.9 -0.6,-0.1 -0.6,-0.2 -0.7,-0.1 -0.6,-0.1 -0.6,-0.3 -1.2,-0.5 -0.5,-0.4 -0.6,-0.4 -0.3,-0.6 0.1,-0.9 0.3,-0.5 0.5,-0.3 0.7,0.1 0.6,0.3 1.9,1.1 1.3,0.3 1.7,0.2 1,-0.1 0.6,-0.2 0.6,-0.3 0.5,-0.5 0.6,-1 0.1,-0.7 0,-1 -0.1,-1.2 -0.2,-0.6 -0.4,-0.7 -0.5,-0.5 -0.9,-0.7 -0.9,-0.5 -0.5,-0.3 -1.1,-0.4 -0.9,-0.4 -1.2,-0.7 -1.7,-1.2 -1.2,-1.5 -0.3,-0.7 -0.2,-0.6 -0.1,-0.6 -0.1,-2 0.1,-0.7 0.1,-0.6 0.3,-0.6 0.3,-0.7 1,-0.9 0.5,-0.2 0.5,-0.4 2.3,-0.5 0.7,0 1.7,0 0.6,0.1 1.3,0.4 0.6,0.1 0.6,0.3 0.6,0.3 0.4,0.7 0,0.8 -0.2,0.5 -0.1,0.3 -0.7,-0.1 -0.7,-0.2 -1,-0.4 -1,-0.2 -0.7,-0.2 -2.1,0.1 -0.6,0.3 -0.6,0.5 -0.3,0.4 -0.1,0.6 -0.1,1 0,1.1 0.2,0.5 0.4,0.6 0.5,0.5 0.4,0.2 0.6,0.5 0.6,0.3 0.9,0.5 3.1,1.6 1,0.8 0.4,0.4 0.9,1.1 0.5,1.2 0.2,0.6 0.1,0.7 0,2 -0.1,0.6 -0.4,1.3 -0.3,0.6 -0.8,1.2 -0.5,0.5 -1.8,0.9 -0.7,0.2 -0.6,0.1 -1,0 -1,0 -0.5,0.1 z"
   id="path58" />
		<path
   d="m 610.5,653.9 -0.9,0 -0.7,0 -0.6,-0.1 -0.6,-0.4 -1.2,-0.6 -0.5,-0.4 -0.5,-0.5 -0.3,-0.6 -0.4,-0.6 -0.6,-1.1 -0.1,-0.6 -0.3,-0.6 -0.3,-1.5 -0.1,-0.8 -0.2,-1.2 -0.1,-1.4 0,-2 0.1,-0.7 0.1,-0.8 0,-0.6 0.1,-0.7 0.1,-0.7 0.1,-0.6 0.4,-1.4 0.8,-1.9 1.2,-1.6 0.5,-0.5 0.6,-0.3 0.5,-0.4 0.6,-0.3 0.6,-0.2 0.6,-0.1 0.7,-0.1 1,0 1.1,0 0.7,0.2 0.6,0.1 1.3,0.5 0.5,0.3 0.5,0 0.3,-0.5 0,-0.6 0.1,-1.1 -0.1,-4.3 0.1,-0.6 0,-0.7 0,-0.7 -0.1,-0.8 0,-0.6 -0.1,-0.7 0.2,-0.7 0.5,-0.3 1,0 0.9,0.3 0.4,0.6 0.2,1.2 0,0.7 0.1,0.6 0,0.7 0,1.6 0,2.7 0,0.6 0,1.7 0,0.7 0,1 0,0.6 0,1.8 0,1.9 0.1,0.8 -0.1,6.4 0,0.8 0,5.1 0.2,2.6 -0.3,0.7 -0.6,0.4 -0.7,-0.1 -0.8,-0.2 -0.5,-0.5 -0.1,-0.6 -0.3,-0.4 -0.4,0.1 -0.5,0.5 -0.5,0.3 -1.1,0.8 -0.6,0.1 -1.3,0.4 -1.3,-0.1 z m 0.6,-2.5 1,-0.1 0.6,-0.1 0.5,-0.2 0.6,-0.2 0.5,-0.3 0.5,-0.5 0.4,-0.6 0.4,-0.7 0.2,-0.9 0,-5.8 0,-0.7 -0.1,-1 0,-4.1 -0.2,-0.9 -0.4,-0.8 -1.7,-1.2 -1.3,-0.3 -1.1,0 -1,0 -1,0.3 -0.9,0.4 -0.9,1.1 -0.3,0.5 -0.3,0.7 -0.2,0.7 -0.5,2.7 0,0.6 -0.1,1.3 0,1.1 0.1,1.8 0,0.5 0,1.3 0.3,1.3 0.1,0.8 0.2,0.5 0.2,0.6 0.3,0.7 0.4,0.5 0.5,0.4 1.1,0.6 0.7,0.2 1.4,-0.2 z"
   id="path60" />
		<path
   d="m 630.1,653.9 -1.9,-0.6 -0.6,-0.4 -1,-0.9 -1.2,-1.6 -0.3,-0.6 -0.5,-1.2 -0.2,-0.6 0,-0.8 -0.2,-0.6 0,-0.7 -0.1,-0.7 -0.1,-0.7 0,-2.6 0.2,-2.7 0.2,-1.3 0.5,-2.1 0.2,-0.7 0.3,-0.6 0.7,-1.1 0.9,-1.2 0.5,-0.4 0.6,-0.4 1.8,-0.8 1.4,-0.2 1,0 1,0.1 1.2,0.2 1.8,1 1,1.1 0.7,1.2 0.2,0.6 0.2,1.7 -0.2,1.7 -0.1,0.6 -0.1,0.7 -0.3,0.7 -1,1.7 -1.4,1.4 -0.6,0.5 -1.7,1 -0.6,0.2 -0.7,0.2 -1.2,0.5 -0.7,0.1 -0.7,0 -0.7,0.2 -0.6,0.3 -0.3,0.7 0.3,1.1 0.4,1 1,1.7 1.1,0.8 0.6,0.1 1.1,0.1 1,0 0.7,-0.2 0.7,-0.1 0.6,-0.3 0.9,-0.5 0.9,-0.7 0.7,-0.3 0.6,0.3 0.3,0.6 0.1,0.8 -0.3,0.7 -0.5,0.5 -0.6,0.5 -0.6,0.3 -0.7,0.2 -0.7,0.3 -1.3,0.3 -0.6,0.1 -2.1,0 -1,-0.2 z m -1.4,-10.6 1.3,-0.4 0.6,-0.2 1.2,-0.6 1.7,-1.1 0.4,-0.5 0.3,-0.6 0.3,-0.7 0.2,-0.6 0.2,-0.6 0.1,-0.7 0,-1 0,-1 -0.1,-0.7 -0.9,-1.1 -0.5,-0.2 -0.7,-0.3 -0.9,0 -1.2,0.1 -1,0.2 -0.5,0.3 -0.4,0.4 -0.4,0.5 -0.4,0.7 -0.5,1.3 -0.6,3.3 0,1.3 -0.1,1.3 0.4,0.7 0.7,0.2 0.8,0 z"
   id="path62" />
		<path
   d="m 155.7,713.5 -1.3,-0.6 -1.1,-0.9 -0.6,-0.6 -0.3,-0.6 -0.4,-0.6 -0.4,-0.7 -0.5,-1.4 -0.1,-0.8 -0.2,-0.8 -0.2,-0.6 -0.5,-2.5 0.1,-0.8 -0.2,-2.3 0.1,-1 -0.1,-0.7 0,-0.7 -0.1,-1.2 0.1,-1.2 -0.1,-0.7 0.1,-1.2 0,-1 0.3,-2.4 0,-0.8 0.1,-0.6 0.1,-0.9 0.2,-0.8 0.3,-0.6 0.1,-0.8 0.3,-0.8 0.1,-0.6 0.3,-0.8 0.9,-1.3 0.4,-0.5 1.2,-1.2 0.6,-0.3 0.7,-0.2 0.8,-0.4 0.8,0 0.7,-0.1 2.3,0 1.6,0.3 1.4,0.6 0.8,0.2 0.7,0.5 0.4,0.8 -0.1,0.8 -0.4,0.6 -0.8,0.1 -0.7,-0.1 -0.7,-0.4 -0.8,-0.2 -0.7,-0.3 -0.7,-0.1 -1.2,-0.1 -1.2,0.2 -0.6,0 -0.6,0.3 -0.5,0.3 -0.6,0.5 -0.5,0.5 -0.2,0.8 -0.7,1.3 -0.1,0.7 -0.7,4 -0.2,7.2 0.1,0.8 0,0.7 0.1,0.6 0,0.9 -0.1,0.8 0.1,0.7 0.2,2.3 0.2,1.5 0.3,0.7 0.1,0.9 0.2,0.6 0.4,0.9 0.4,0.6 0.6,0.5 0.7,0.5 0.6,0.3 0.7,0.2 1.2,0 1.1,-0.1 1.2,-0.1 1,-0.2 1.3,-0.5 0.6,-0.5 0.9,0 0.7,0.6 0,1 -0.6,1 -3.2,1.3 -1.8,0.3 -1.2,-0.1 -1.2,0.1 -2,-0.8 z"
   id="path64" />
		<path
   d="m 175.5,713.8 -0.6,0 -1.2,-0.6 -0.6,-0.4 -0.6,-0.3 -0.9,-0.9 -0.4,-0.5 -0.7,-1.3 -0.5,-1.2 -0.3,-1.2 -0.4,-2.1 -0.1,-1.4 0,-2.7 0.1,-1.4 0.1,-1.3 0.1,-0.7 0.5,-2 0.3,-0.5 0.5,-1.3 0.4,-0.6 0.8,-1 0.6,-0.5 0.5,-0.3 0.8,-0.4 1,-0.4 1,-0.2 1.3,0 1,0 0.7,0.1 1.3,0.4 0.5,0.2 0.5,0.3 1,0.8 0.8,1.1 0.7,1.2 0.2,0.7 0.3,0.5 0.1,0.7 0.2,0.7 0.1,0.6 0.1,0.7 0.1,1.4 0.2,1.3 -0.1,2 0,0.8 0,0.7 -0.3,2.1 -0.1,0.5 -0.6,1.9 -0.3,0.7 -0.3,0.5 -0.3,0.7 -0.4,0.5 -0.5,0.5 -0.5,0.5 -0.5,0.4 -1.1,0.7 -1.2,0.3 -0.7,0.1 -2,0 -0.6,-0.4 z m 2.7,-2.5 0.6,-0.2 0.6,-0.2 0.6,-0.4 0.4,-0.5 0.4,-0.7 0.3,-0.6 0.2,-0.6 0.2,-0.7 0.1,-0.7 0,-0.6 0.1,-0.8 0.1,-0.6 0,-0.7 0,-0.8 0,-1.1 0.1,-0.9 -0.1,-2 -0.2,-1.3 -0.2,-0.7 -0.1,-0.6 -0.5,-1.2 -0.3,-0.6 -0.4,-0.5 -0.5,-0.5 -1.1,-0.7 -0.6,-0.1 -0.9,0 -1,0.1 -1.2,0.3 -0.6,0.6 -0.6,0.8 -0.6,1.1 -0.1,0.7 -0.2,0.7 -0.2,1.3 0,0.7 -0.1,0.6 -0.1,1.4 0.1,2 0,1.3 0,0.8 0.1,0.6 0.5,2.1 0.2,0.7 0.2,0.5 0.4,0.6 0.4,0.6 0.6,0.5 0.5,0.3 0.7,0.2 2.2,-0.2 z"
   id="path66" />
		<path
   d="m 203.3,713.5 -0.6,0 -0.7,-0.2 -0.4,-0.5 0,-0.5 -0.1,-1.4 0,-0.9 0,-0.6 0,-0.7 0,-0.7 0.1,-0.8 0,-3.6 0,-0.8 0,-0.6 -0.1,-1.7 0.1,-4 -0.2,-1.9 -0.2,-0.7 -0.3,-0.5 -0.5,-0.3 -0.6,-0.2 -1,0 -1.5,0.1 -0.7,0.2 -0.6,0.3 -0.5,0.3 -1,0.8 -0.4,0.6 -0.5,0.8 -0.2,1.2 0,3.8 -0.1,0.6 0,2.4 0,0.6 0,0.8 0,0.6 0.1,2.8 0,0.6 0,1 -0.1,0.8 0.1,0.7 0,0.7 -0.4,0.6 -0.6,0.4 -0.7,0 -0.5,-0.1 -0.6,-0.3 -0.4,-0.7 0.1,-0.7 0,-0.6 0,-1.2 0,-0.8 0,-0.7 0,-0.7 0,-0.6 0,-0.7 0,-0.6 0,-1.3 0,-0.8 0,-0.7 0,-0.7 0,-1.1 0,-0.6 0,-1.1 0,-0.7 0,-0.6 0,-0.7 0,-0.7 0,-1 0,-1 0,-0.6 -0.2,-2.7 0.1,-0.6 0.9,-0.4 0.6,0 1.1,0.3 0.4,0.6 0,0.7 0.3,0.3 0.5,-0.2 0.6,-0.4 0.5,-0.2 0.6,-0.4 0.7,-0.4 0.6,-0.2 0.7,-0.3 0.7,-0.1 0.6,-0.1 1.7,0 1,0.1 0.7,0.2 1.1,0.7 0.4,0.4 0.7,1.3 0.2,0.6 0.1,0.5 0.1,2.7 0,1.3 0,0.7 -0.1,1.1 0,7.2 0.1,4.6 0.1,0.6 -0.3,0.8 -0.5,0.3 -1,0.2 z"
   id="path68" />
		<path
   d="m 216.1,713.9 -0.7,-0.2 -0.6,-0.3 -0.6,-0.1 -0.5,-0.4 -0.5,-0.3 -0.8,-1.1 -0.3,-0.6 -0.3,-0.6 -0.4,-1.3 -0.2,-1.9 0,-2.8 -0.1,-0.6 0,-0.8 0,-0.6 0,-0.7 0,-1.7 0,-0.6 -0.1,-1.8 0,-1.3 0,-1.4 0,-0.7 -0.4,-0.6 -1,-0.4 -1.2,-0.2 -0.3,-0.5 0,-0.7 0.4,-0.6 1.1,-0.3 1.1,0 0.3,-0.4 0,-0.8 0,-0.7 0,-0.7 0,-0.7 0,-2.1 -0.1,-1.3 0.2,-0.5 0.5,-0.5 1.2,0.1 0.7,0.3 0.4,0.5 0.1,1.3 0,1.4 0,0.5 -0.1,2.5 0.4,0.7 0.7,0.2 1.3,0 1.3,0 1.3,0 0.6,0.4 0.4,0.6 0,0.6 -0.3,0.5 -0.7,0.3 -0.6,0.1 -0.7,0 -1.3,0 -0.7,0 -0.6,0 -0.7,0.3 -0.3,0.7 0,0.7 0,0.7 0.1,0.7 -0.1,6.8 0.1,1 0,2.5 0.2,1.2 0.3,1.3 0.6,1.2 1,0.8 1,0.2 1.6,0 0.6,-0.1 0.7,-0.2 0.8,0 0.5,0.4 0.1,0.6 -0.2,0.8 -0.6,0.5 -1.3,0.4 -0.7,0.1 -0.7,0.2 -1,0.1 -0.9,-0.1 z"
   id="path70" />
		<path
   d="m 226.5,713.5 -0.9,-0.3 -0.3,-1 0,-2.3 0,-0.8 -0.1,-1.7 0,-4.2 0.1,-0.7 0,-0.7 -0.1,-9.4 -0.1,-0.8 0.2,-0.6 0.5,-0.3 1,0 1,0.2 0.5,0.7 0,0.5 0.3,0.5 0.4,-0.3 0.5,-0.5 0.5,-0.4 0.6,-0.3 1.2,-0.6 0.7,-0.2 1.3,-0.2 1.3,0.2 0.7,0.2 0.5,0.5 0.1,0.8 -0.2,0.7 -0.5,0.5 -0.7,0.1 -0.7,-0.2 -0.7,0 -0.6,0 -0.7,0.1 -0.6,0.2 -0.6,0.2 -0.6,0.3 -0.5,0.3 -1,1 -0.5,0.9 -0.2,0.9 0,0.6 0,1 0,0.8 0,1 -0.1,0.7 0.1,0.7 0,0.6 0,0.6 0,1.4 0,1.3 -0.1,1.3 0,2.1 0.1,0.7 0,2.2 -0.1,0.7 -0.3,0.7 -0.6,0.3 -0.8,0 z"
   id="path72" />
		<path
   d="m 245.5,713.8 -0.6,0 -1.2,-0.6 -0.6,-0.4 -0.6,-0.3 -0.9,-0.9 -0.4,-0.5 -0.7,-1.3 -0.5,-1.2 -0.3,-1.2 -0.4,-2.1 -0.1,-1.4 0,-2.7 0.1,-1.4 0.1,-1.3 0.1,-0.7 0.5,-2 0.3,-0.5 0.5,-1.3 0.4,-0.6 0.8,-1 0.6,-0.5 0.5,-0.3 0.8,-0.4 1,-0.4 1,-0.2 1.3,0 1,0 0.7,0.1 1.3,0.4 0.5,0.2 0.5,0.3 1,0.8 0.8,1.1 0.7,1.2 0.2,0.7 0.3,0.5 0.1,0.7 0.2,0.7 0.1,0.6 0.1,0.7 0.1,1.4 0.2,1.3 -0.1,2 0,0.8 0,0.7 -0.3,2.1 -0.1,0.5 -0.6,1.9 -0.3,0.7 -0.3,0.5 -0.3,0.7 -0.4,0.5 -0.5,0.5 -0.5,0.5 -0.5,0.4 -1.1,0.7 -1.2,0.3 -0.7,0.1 -2,0 -0.6,-0.4 z m 2.7,-2.5 0.6,-0.2 0.6,-0.2 0.6,-0.4 0.4,-0.5 0.4,-0.7 0.3,-0.6 0.2,-0.6 0.2,-0.7 0.1,-0.7 0,-0.6 0.1,-0.8 0.1,-0.6 0,-0.7 0,-0.8 0,-1.1 0.1,-0.9 -0.1,-2 -0.2,-1.3 -0.2,-0.7 -0.1,-0.6 -0.5,-1.2 -0.3,-0.6 -0.4,-0.5 -0.5,-0.5 -1.1,-0.7 -0.6,-0.1 -0.9,0 -1,0.1 -1.2,0.3 -0.6,0.6 -0.6,0.8 -0.6,1.1 -0.1,0.7 -0.2,0.7 -0.2,1.3 0,0.7 -0.1,0.6 -0.1,1.4 0.1,2 0,1.3 0,0.8 0.1,0.6 0.5,2.1 0.2,0.7 0.2,0.5 0.4,0.6 0.4,0.6 0.6,0.5 0.5,0.3 0.7,0.2 2.2,-0.2 z"
   id="path74" />
		<path
   d="m 260.8,713.3 -0.4,-0.6 -0.1,-0.6 -0.1,-1.2 0,-2.1 0,-0.7 0,-0.6 0,-1.1 0,-1.1 0.1,-1.2 -0.1,-0.7 0,-8.8 0,-0.8 0,-0.8 0.1,-0.6 -0.1,-4.2 0,-1 0,-3 -0.1,-0.7 0,-1.3 -0.1,-1.3 0.2,-0.7 0.5,-0.3 0.5,0 0.6,-0.1 0.7,0.4 0.5,0.5 0.1,3.5 0,0.6 0.1,0.7 -0.1,1.8 0,1.3 0,0.7 0,1.1 0,0.6 0,2.2 0.1,0.9 -0.1,1.1 0,0.6 0,0.7 0,0.6 0.1,0.7 0,9.6 0,0.7 0,1.3 0.1,0.6 0,0.6 0,0.8 0,1.3 -0.1,0.7 -0.5,0.2 -0.6,0 -0.7,0.1 -0.6,-0.4 z"
   id="path76" />
		<path
   d="m 280.8,713.5 -1.3,-0.6 -1.1,-0.9 -0.6,-0.6 -0.3,-0.6 -0.4,-0.6 -0.4,-0.7 -0.5,-1.4 -0.1,-0.8 -0.2,-0.8 -0.2,-0.6 -0.5,-2.5 0.1,-0.8 -0.2,-2.3 0.1,-1 -0.1,-0.7 0,-0.7 -0.1,-1.2 0.1,-1.2 -0.1,-0.7 0.1,-1.2 0,-1 0.3,-2.4 0,-0.8 0.1,-0.6 0.1,-0.9 0.2,-0.8 0.3,-0.6 0.1,-0.8 0.3,-0.8 0.1,-0.6 0.3,-0.8 0.9,-1.3 0.4,-0.5 1.2,-1.2 0.6,-0.3 0.7,-0.2 0.8,-0.4 0.8,0 0.7,-0.1 2.3,0 1.6,0.3 1.4,0.6 0.8,0.2 0.7,0.5 0.4,0.8 -0.1,0.8 -0.4,0.6 -0.8,0.1 -0.7,-0.1 -0.7,-0.4 -0.8,-0.2 -0.7,-0.3 -0.7,-0.1 -1.2,-0.1 -1.2,0.2 -0.6,0 -0.6,0.3 -0.5,0.3 -0.6,0.5 -0.5,0.5 -0.2,0.8 -0.7,1.3 -0.1,0.7 -0.7,4 -0.2,7.2 0.1,0.8 0,0.7 0.1,0.6 0,0.9 -0.1,0.8 0.1,0.7 0.2,2.3 0.2,1.5 0.3,0.7 0.1,0.9 0.2,0.6 0.4,0.9 0.4,0.6 0.6,0.5 0.7,0.5 0.6,0.3 0.7,0.2 1.2,0 1.1,-0.1 1.2,-0.1 1,-0.2 1.3,-0.5 0.6,-0.5 0.9,0 0.7,0.6 0,1 -0.6,1 -3.2,1.3 -1.8,0.3 -1.2,-0.1 -1.2,0.1 -2,-0.8 z"
   id="path78" />
		<path
   d="m 296.3,713.5 -0.9,-0.3 -0.3,-1 0,-2.3 0,-0.8 -0.1,-1.7 0,-4.2 0.1,-0.7 0,-0.7 -0.1,-9.4 -0.1,-0.8 0.2,-0.6 0.5,-0.3 1,0 1,0.2 0.5,0.7 0,0.5 0.3,0.5 0.4,-0.3 0.5,-0.5 0.5,-0.4 0.6,-0.3 1.2,-0.6 0.7,-0.2 1.3,-0.2 1.3,0.2 0.7,0.2 0.5,0.5 0.1,0.8 -0.2,0.7 -0.5,0.5 -0.7,0.1 -0.7,-0.2 -0.7,0 -0.6,0 -0.7,0.1 -0.6,0.2 -0.6,0.2 -0.6,0.3 -0.5,0.3 -1,1 -0.5,0.9 -0.2,0.9 0,0.6 0,1 0,0.8 0,1 -0.1,0.7 0.1,0.7 0,0.6 0,0.6 0,1.4 0,1.3 -0.1,1.3 0,2.1 0.1,0.7 0,2.2 -0.1,0.7 -0.3,0.7 -0.6,0.3 -0.8,0 z"
   id="path80" />
		<path
   d="m 309.4,687.2 0,-0.6 0.6,-1.2 0.4,-0.6 0.3,-0.6 0.8,-0.6 0.9,-0.4 0.8,0 0.4,0.5 0,0.6 -0.4,0.6 -0.5,0.7 -0.4,0.5 -0.4,0.6 -0.8,0.8 -1,0.2 -0.7,-0.5 z m 0.5,24.9 -0.2,-3.5 0,-0.7 0,-3.8 0,-0.7 0,-0.7 0,-0.6 0,-0.8 0,-0.7 0,-0.6 0,-1 0,-1 0,-1 0,-0.7 0,-0.7 0,-1.4 0,-0.7 -0.1,-0.6 0,-1.3 0.1,-0.7 0.6,-0.2 1,0 1,0.3 0.3,0.5 0.1,1.3 0,0.8 0,0.7 0,0.8 0,0.6 0,2.5 -0.1,1.7 0,2.4 0,0.8 0,5.3 0,0.7 0.1,0.7 0,0.5 0,0.7 0.1,1.4 -0.1,0.7 -0.8,0.2 -1,0 -0.7,-0.3 -0.4,-0.5 0,-0.4 z"
   id="path82" />
		<path
   d="m 324.4,713.9 -0.7,-0.2 -0.6,-0.3 -0.6,-0.1 -0.5,-0.4 -0.5,-0.3 -0.8,-1.1 -0.3,-0.6 -0.3,-0.6 -0.4,-1.3 -0.2,-1.9 0,-2.8 -0.1,-0.6 0,-0.8 0,-0.6 0,-0.7 0,-1.7 0,-0.6 -0.1,-1.8 0,-1.3 0,-1.4 0,-0.7 -0.4,-0.6 -1,-0.4 -1.2,-0.2 -0.3,-0.5 0,-0.7 0.4,-0.6 1.1,-0.3 1.1,0 0.3,-0.4 0,-0.8 0,-0.7 0,-0.7 0,-0.7 0,-2.1 -0.1,-1.3 0.2,-0.5 0.5,-0.5 1.2,0.1 0.7,0.3 0.4,0.5 0.1,1.3 0,1.4 0,0.5 -0.1,2.5 0.4,0.7 0.7,0.2 1.3,0 1.3,0 1.3,0 0.6,0.4 0.4,0.6 0,0.6 -0.3,0.5 -0.7,0.3 -0.6,0.1 -0.7,0 -1.3,0 -0.7,0 -0.6,0 -0.7,0.3 -0.3,0.7 0,0.7 0,0.7 0.1,0.7 -0.1,6.8 0.1,1 0,2.5 0.2,1.2 0.3,1.3 0.6,1.2 1,0.8 1,0.2 1.6,0 0.6,-0.1 0.7,-0.2 0.8,0 0.5,0.4 0.1,0.6 -0.2,0.8 -0.6,0.5 -1.3,0.4 -0.7,0.1 -0.7,0.2 -1,0.1 -0.9,-0.1 z"
   id="path84" />
		<path
   d="m 334.4,686.8 -0.6,-0.4 -0.3,-0.6 -0.2,-1 0.2,-0.9 0.4,-0.6 0.5,-0.4 1.1,0 1,0 0.5,0.4 0.5,0.6 0.1,1 -0.2,1.1 -0.4,0.4 -0.5,0.4 -1,0.1 -1.1,-0.1 z m 0.1,26.4 -0.4,-0.6 -0.1,-0.6 0,-0.6 -0.1,-0.7 0,-0.7 -0.1,-2.8 0,-1.1 0,-4 0,-1.1 0,-4.1 0,-0.7 0,-0.7 0,-0.5 0,-0.8 -0.1,-0.6 0,-0.7 0,-0.7 -0.1,-0.6 0.2,-0.8 0.5,-0.2 0.6,-0.1 0.6,0.1 0.7,0.2 0.4,0.7 0,1.3 0.1,0.6 0,2.2 0,1.1 0,1.7 0,0.7 0,3.1 0,0.6 -0.1,1.1 0,2.3 0,1 0,0.6 0.1,0.6 0,0.8 0,0.7 0,0.6 0,0.7 0,0.7 0,0.6 -0.1,0.7 -0.6,0.3 -1.2,0 -0.3,-0.3 z"
   id="path86" />
		<path
   d="m 349,713.9 -1.4,-0.1 -1.2,-0.4 -0.6,-0.3 -1,-0.9 -0.5,-0.3 -0.4,-0.6 -0.6,-1.2 -0.2,-0.6 -0.4,-1.4 -0.2,-0.6 -0.4,-3.5 0,-1.7 0.1,-1.1 0,-0.6 0.2,-2.1 0.2,-0.6 0,-0.7 0.2,-0.7 0.2,-0.6 0.2,-0.7 0.2,-0.7 0.3,-0.4 0.3,-0.7 0.5,-0.5 0.4,-0.6 0.5,-0.4 0.5,-0.4 0.6,-0.3 1.9,-0.7 0.6,-0.1 1.1,-0.1 1,0 1.4,0.3 1.8,0.8 0.6,0.5 0.4,0.4 0.4,0.8 -0.1,0.8 -0.3,0.5 -0.6,0.3 -0.7,-0.2 -1.1,-0.8 -0.6,-0.4 -0.6,-0.2 -1.7,-0.2 -1,0.1 -0.6,0.1 -0.6,0.2 -0.5,0.4 -0.4,0.5 -0.4,0.5 -0.3,0.5 -0.2,0.6 -0.1,0.6 -0.2,0.6 -0.2,1.4 -0.1,0.5 -0.1,0.7 0,0.7 0,0.7 0,1.1 0,1.6 0.2,2.7 0.1,0.6 0.1,0.7 0.3,0.5 0.5,1.3 0.4,0.5 0.4,0.5 1.4,0.7 1.2,0.1 1,-0.1 1.3,-0.2 0.7,-0.2 0.8,-0.6 0.8,-0.7 0.7,-0.2 0.6,0.3 0.3,0.5 0.2,0.7 -0.3,0.9 -0.6,0.5 -0.5,0.3 -1.2,0.7 -0.6,0.1 -0.7,0.3 -0.6,0.1 -0.7,0 -2.1,0.2 z"
   id="path88" />
		<path
   d="m 366.1,713.8 -0.6,0 -1.2,-0.6 -0.6,-0.4 -0.6,-0.3 -0.9,-0.9 -0.4,-0.5 -0.7,-1.3 -0.5,-1.2 -0.3,-1.2 -0.4,-2.1 -0.1,-1.4 0,-2.7 0.1,-1.4 0.1,-1.3 0.1,-0.7 0.5,-2 0.3,-0.5 0.5,-1.3 0.4,-0.6 0.8,-1 0.6,-0.5 0.5,-0.3 0.8,-0.4 1,-0.4 1,-0.2 1.3,0 1,0 0.7,0.1 1.3,0.4 0.5,0.2 0.5,0.3 1,0.8 0.8,1.1 0.7,1.2 0.2,0.7 0.3,0.5 0.1,0.7 0.2,0.7 0.1,0.6 0.1,0.7 0.1,1.4 0.2,1.3 -0.1,2 0,0.8 0,0.7 -0.3,2.1 -0.1,0.5 -0.6,1.9 -0.3,0.7 -0.3,0.5 -0.3,0.7 -0.4,0.5 -0.5,0.5 -0.5,0.5 -0.5,0.4 -1.1,0.7 -1.2,0.3 -0.7,0.1 -2,0 -0.6,-0.4 z m 2.7,-2.5 0.6,-0.2 0.6,-0.2 0.6,-0.4 0.4,-0.5 0.4,-0.7 0.3,-0.6 0.2,-0.6 0.2,-0.7 0.1,-0.7 0,-0.6 0.1,-0.8 0.1,-0.6 0,-0.7 0,-0.8 0,-1.1 0.1,-0.9 -0.1,-2 -0.2,-1.3 -0.2,-0.7 -0.1,-0.6 -0.5,-1.2 -0.3,-0.6 -0.4,-0.5 -0.5,-0.5 -1.1,-0.7 -0.6,-0.1 -0.9,0 -1,0.1 -1.2,0.3 -0.6,0.6 -0.6,0.8 -0.6,1.1 -0.1,0.7 -0.2,0.7 -0.2,1.3 0,0.7 -0.1,0.6 -0.1,1.4 0.1,2 0,1.3 0,0.8 0.1,0.6 0.5,2.1 0.2,0.7 0.2,0.5 0.4,0.6 0.4,0.6 0.6,0.5 0.5,0.3 0.7,0.2 2.2,-0.2 z"
   id="path90" />
		<path
   d="m 385,713.9 -0.6,-0.1 -0.6,-0.2 -0.7,-0.1 -0.6,-0.1 -0.5,-0.4 -1.2,-0.5 -0.5,-0.4 -0.6,-0.4 -0.3,-0.6 0.1,-0.9 0.3,-0.5 0.5,-0.3 0.7,0.1 0.6,0.3 1.9,1.1 1.3,0.3 1.7,0.2 1,-0.1 0.6,-0.2 0.6,-0.3 0.5,-0.5 0.6,-1 0.1,-0.7 0,-1 -0.1,-1.2 -0.2,-0.6 -0.4,-0.7 -0.5,-0.5 -0.9,-0.7 -0.9,-0.5 -0.5,-0.3 -1.1,-0.4 -0.9,-0.4 -1.2,-0.7 -1.7,-1.2 -1.2,-1.5 -0.3,-0.7 -0.2,-0.6 -0.1,-0.6 -0.1,-2 0.1,-0.7 0.1,-0.6 0.3,-0.6 0.3,-0.7 1,-0.9 0.5,-0.2 0.5,-0.4 2.3,-0.5 0.7,0 1.7,0 0.6,0.1 1.3,0.4 0.6,0.1 0.6,0.3 0.6,0.3 0.4,0.7 0,0.8 -0.2,0.5 -0.5,0.4 -0.7,-0.1 -0.7,-0.2 -1,-0.4 -1,-0.2 -0.7,-0.2 -2.1,0.1 -0.6,0.3 -0.6,0.5 -0.3,0.4 -0.1,0.6 -0.1,1 0,1.1 0.2,0.5 0.4,0.6 0.5,0.5 0.4,0.2 0.6,0.5 0.6,0.3 0.9,0.5 3.1,1.6 1,0.8 0.4,0.4 0.9,1.1 0.5,1.2 0.2,0.6 0.1,0.7 0,2 -0.1,0.6 -0.4,1.3 -0.3,0.6 -0.8,1.2 -0.5,0.5 -1.8,0.9 -0.7,0.2 -0.6,0.1 -1,0 -1,0 -0.2,0.1 z"
   id="path92" />
	</g><g
   transform="translate(-147.8,-105.95251)"
   id="g94">
		<path
   d="m 156.3,369.4 -0.8,0 -0.9,-0.2 -0.7,0 -0.8,-0.2 -0.9,-0.3 -1.3,-0.7 -0.7,-0.6 -0.4,-0.8 0.2,-1 0.8,-0.5 0.7,0.2 0.7,0.4 2.1,0.9 0.8,0.1 0.7,0 1.2,0.2 1.1,-0.2 1.4,-0.4 1.3,-0.9 0.5,-0.6 0.5,-0.6 0.3,-0.6 0.3,-0.8 0.2,-0.7 0.1,-0.7 0,-1.1 0,-1.2 0,-0.9 -0.2,-0.5 -0.3,-0.9 -0.3,-0.6 -0.9,-1.2 -1.7,-1.6 -0.7,-0.4 -0.6,-0.5 -2.6,-1.5 -1.2,-0.9 -0.7,-0.3 -0.5,-0.7 -1.2,-1.1 -1.1,-1.7 -0.6,-1.5 -0.2,-1.4 -0.1,-1.1 0.2,-1.9 0.8,-2.3 0.4,-0.6 0.6,-0.4 0.6,-0.6 0.7,-0.3 0.5,-0.5 0.7,-0.3 1.2,-0.4 1.1,0 1.2,-0.1 1.2,0 0.9,0.1 1.5,0.4 0.7,0.3 1.5,0.9 0.4,0.8 -0.2,1 -0.9,0.7 -1,-0.2 -0.6,-0.4 -0.8,-0.4 -0.8,0 -0.8,-0.2 -1.2,-0.1 -1.1,0.2 -1.3,0.6 -0.6,0.5 -0.5,0.5 -0.4,0.7 -0.4,0.5 -0.1,0.9 0,3 0.4,0.7 0.2,0.7 0.5,0.6 0.4,0.7 2,1.5 2.6,1.5 2.5,1.7 2.2,2 0.4,0.8 0.4,0.7 0.4,0.6 0.5,1.5 0,0.7 0.2,0.8 0,1.2 -0.1,1.2 -0.1,0.8 -0.1,0.7 -0.1,0.7 -0.2,0.7 -0.3,0.7 -0.2,0.6 -0.5,0.8 -0.6,0.5 -0.4,0.6 -0.6,0.5 -1.2,0.9 -0.7,0.2 -1.5,0.4 -2,0.2 -1.1,-0.5 z"
   id="path96" />
		<path
   d="m 173,369 -0.9,-0.2 -0.5,-0.7 -0.1,-1.3 0,-0.8 0.1,-0.7 0,-0.7 0.1,-0.9 -0.1,-0.6 0,-1.2 -0.1,-1.1 0.1,-0.8 -0.1,-5.4 0.1,-0.7 -0.1,-1.6 0.1,-0.7 0,-0.8 0,-3.4 0,-1.2 0.1,-0.6 0,-3.7 -0.1,-0.9 0,-0.7 0.1,-0.8 0,-0.7 -0.1,-0.7 0,-0.9 -0.1,-0.6 0.3,-0.8 0.8,-0.4 0.7,0.1 0.9,0.3 0.5,0.6 0,0.7 0.1,2.3 0,0.8 0.1,0.8 0,1.7 -0.1,1.6 0.1,4.8 -0.1,0.8 0.1,7.7 -0.2,1.5 0,0.7 0.1,0.9 -0.1,1.1 0,1 0,0.8 0.2,2.9 0,0.8 0.1,0.6 -0.3,0.8 -0.8,0.3 -0.9,0 z"
   id="path98" />
		<path
   d="m 186.6,369.4 -0.8,0 -0.9,-0.2 -0.7,0 -0.8,-0.2 -0.9,-0.3 -1.3,-0.7 -0.7,-0.6 -0.4,-0.8 0.2,-1 0.8,-0.5 0.7,0.2 0.7,0.4 2.1,0.9 0.8,0.1 0.7,0 1.2,0.2 1.1,-0.2 1.4,-0.4 1.3,-0.9 0.5,-0.6 0.5,-0.6 0.3,-0.6 0.3,-0.8 0.2,-0.7 0.1,-0.7 0,-1.1 0,-1.2 0,-0.9 -0.2,-0.5 -0.3,-0.9 -0.3,-0.6 -0.9,-1.2 -1.7,-1.6 -0.7,-0.4 -0.6,-0.5 -2.6,-1.5 -1.2,-0.9 -0.5,-0.1 -0.5,-0.7 -1.2,-1.1 -1.1,-1.7 -0.6,-1.5 -0.2,-1.4 -0.1,-1.1 0.2,-1.9 0.8,-2.3 0.4,-0.6 0.6,-0.4 0.6,-0.6 0.7,-0.3 0.5,-0.5 0.7,-0.3 1.2,-0.4 1.1,0 1.2,-0.1 1.2,0 0.9,0.1 1.5,0.4 0.7,0.3 1.5,0.9 0.4,0.8 -0.2,1 -0.9,0.7 -1,-0.2 -0.6,-0.4 -0.8,-0.4 -0.8,0 -0.8,-0.2 -1.2,-0.1 -1.1,0.2 -1.3,0.6 -0.6,0.5 -0.5,0.5 -0.4,0.7 -0.4,0.5 -0.1,0.9 0,3 0.4,0.7 0.2,0.7 0.5,0.6 0.4,0.7 2,1.5 2.6,1.5 2.5,1.7 2.2,2 0.4,0.8 0.4,0.7 0.4,0.6 0.5,1.5 0,0.7 0.2,0.8 0,1.2 -0.1,1.2 -0.1,0.8 -0.1,0.7 -0.1,0.7 -0.2,0.7 -0.3,0.7 -0.2,0.6 -0.5,0.8 -0.6,0.5 -0.4,0.6 -0.6,0.5 -1.2,0.9 -0.7,0.2 -1.5,0.4 -2,0.2 -1.3,-0.7 z"
   id="path100" />
		<path
   d="m 207.4,369 -0.9,-0.2 -0.4,-0.6 -0.2,-1.3 0,-0.9 -0.1,-0.7 0.1,-1.5 0,-1.9 0.1,-2.7 -0.1,-0.7 0.1,-0.7 0,-0.8 0,-0.8 0,-0.7 0,-0.9 -0.1,-0.8 0,-1.3 0.1,-0.9 0,-0.7 -0.1,-0.8 0,-10.6 -0.4,-0.8 -0.7,-0.4 -1.5,0 -0.7,-0.1 -0.9,0.1 -1.4,-0.2 -0.8,-0.3 -0.3,-0.9 0.3,-0.7 0.8,-0.5 1.1,0 1.1,-0.1 0.8,0.1 1.7,-0.1 0.7,0.1 0.7,0 0.8,0 0.8,-0.1 0.8,0.1 0.8,-0.2 0.7,0.1 1.6,0 1.6,-0.2 1.5,0.2 0.8,0.3 0.3,1.1 -0.3,0.9 -1.1,0.3 -2,-0.1 -0.7,0 -1,-0.1 -0.9,0.1 -0.7,0.4 -0.4,0.8 0,0.6 0.1,0.8 -0.1,0.9 0.1,1.6 -0.1,0.5 0,1.7 -0.1,0.7 0.2,1.4 -0.1,0.7 0,0.8 0.1,0.8 0,0.9 0,0.8 0.1,0.9 -0.1,0.7 0,1 0,2.6 0.1,0.8 -0.1,0.8 0,0.7 0,1.5 0.1,1.2 0,1.1 0,0.9 0,0.7 0,0.6 0,0.7 -0.1,0.7 0.1,0.9 0,0.7 -0.2,0.7 -0.8,0.3 -0.8,0 z"
   id="path102" />
		<path
   d="m 231.8,369 -1.5,0 -0.8,0 -0.8,0.1 -0.7,-0.1 -1.5,0.1 -0.8,-0.1 -0.7,0.1 -0.7,-0.1 -1.5,0.2 -1.5,0 -0.8,-0.4 -0.4,-0.8 0.1,-5.5 -0.1,-2.4 0,-0.8 0.1,-0.7 -0.1,-0.9 0.1,-0.6 0,-0.8 -0.1,-0.9 0,-0.9 0,-1.3 0,-0.8 0,-0.9 0.1,-0.9 -0.1,-0.8 0.1,-2.2 0,-1 0,-0.7 0,-1.5 0,-0.9 -0.1,-1.1 0.1,-1.9 -0.1,-0.6 0,-0.8 0,-0.6 0,-0.9 0,-0.8 -0.1,-0.6 0.3,-0.9 0.7,-0.3 0.8,0.2 0.7,-0.2 0.8,0.2 2.3,-0.2 3.9,0.1 2.3,0 0.8,0 0.7,0.4 0.5,0.5 0,0.7 -0.5,0.7 -1.2,0.4 -1.1,-0.1 -0.8,-0.1 -0.9,0 -0.7,0.1 -0.8,-0.2 -1.6,0 -1.5,0.2 -0.8,0.4 -0.4,1.1 0,2.7 0.1,1.6 -0.1,0.7 0.1,2.3 -0.1,0.8 0.1,0.7 0,0.8 0.3,1 0.8,0.3 0.7,0 0.8,-0.1 1.2,0 1.4,0 1.2,0.1 1.4,0 0.8,-0.1 0.8,0.4 0.3,0.8 -0.4,1 -0.7,0.4 -1.4,0.1 -0.7,-0.2 -1.6,0 -0.7,-0.1 -0.8,0.1 -1.5,0 -0.8,-0.1 -0.7,0.5 -0.4,0.7 0.1,0.7 0,0.9 0.1,0.9 0,0.8 -0.1,0.6 0.1,0.9 -0.1,4.9 0,0.9 0.4,1.1 0.9,0.4 1.5,0 0.8,0.1 0.8,-0.1 1.6,0 0.8,0.1 0.7,-0.1 0.8,0 0.8,0 0.8,0.3 0.4,0.7 0,0.7 -0.3,0.7 -0.8,0.4 -1.1,0.5 z"
   id="path104" />
		<path
   d="m 239.5,368.8 -0.4,-0.8 0.1,-5.4 -0.1,-0.7 0.1,-2.3 0,-0.8 0,-3.1 0,-0.8 0,-0.7 -0.1,-0.7 0.1,-6.2 -0.1,-0.8 0,-0.8 0,-2.2 0,-0.8 0,-0.8 0,-0.8 0,-1.4 0,-0.9 0,-1.8 0.4,-1.2 0.8,-0.4 0.8,0.1 0.9,0 0.8,0.1 0.9,0.3 0.6,0.7 2.4,8.8 0.3,1.5 0.3,0.9 0.1,0.7 0.5,1.4 0.1,0.8 0.3,0.8 1.8,7.4 0.2,1.3 0.3,1.2 0.4,0.3 1.9,-8.3 0.5,-1.5 0.1,-0.6 0.3,-0.7 0.2,-0.8 0.1,-0.9 1,-3.6 0.3,-0.7 1.1,-4.6 0.6,-1.4 0.2,-0.9 0.1,-0.7 0.2,-0.7 0.5,-0.7 1.3,-0.5 1.2,0 0.7,0.1 0.8,0.3 0.5,0.7 -0.1,5.5 0.1,0.8 -0.1,1.5 0,0.9 -0.1,4.5 0.1,0.9 0,0.8 0.1,1.5 -0.1,2.4 0.1,3.7 -0.1,0.9 0.1,0.8 -0.1,3.6 0.1,0.8 0,0.8 0.1,0.6 -0.1,0.6 0.1,0.9 -0.3,0.7 -0.6,0.4 -0.8,0.1 -0.8,-0.4 -0.5,-0.5 0,-0.6 0,-0.8 -0.1,-0.8 0,-0.8 -0.1,-0.7 0.1,-2.7 -0.1,-1.2 0.1,-0.9 0,-0.5 0,-0.8 0.1,-0.7 -0.1,-0.8 0,-0.8 0.1,-1.6 -0.1,-3.1 0.1,-3.2 0,-2.2 0,-0.7 0,-1 0.1,-0.7 -0.1,-1 0.1,-3 -0.2,0 -0.3,0.7 -0.1,0.7 -0.1,0.9 -0.2,0.6 -0.1,0.9 -2.8,10.3 -0.3,0.8 -0.1,0.8 -0.3,0.6 -0.1,0.7 -1.4,5.3 -0.3,0.7 -0.1,0.9 -0.2,0.6 -0.7,0.8 -0.9,0.2 -0.7,0 -0.9,-0.3 -0.6,-0.7 -0.5,-1.4 0,-0.8 -0.2,-0.9 -0.3,-0.7 -0.4,-1.4 -0.3,-0.6 -0.7,-1.1 -0.4,-1.2 -0.1,-0.8 -0.5,-1.5 -0.2,-0.6 -0.1,-0.8 -0.3,-0.6 -0.3,-1.5 -0.8,-2.3 -1.9,-8.3 -0.2,0.1 0,1.6 0,1.5 0,0.8 0.1,0.8 0,0.7 0.1,3.3 0,0.7 0,1.6 -0.1,0.8 0.1,0.8 0,0.6 0,2.4 0,0.7 0,0.8 0,11.5 -0.3,0.8 -0.8,0.4 -0.7,0 -1.1,-0.5 z"
   id="path106" />
		<path
   d="m 266.9,368.6 -0.2,-0.8 0.9,-3.6 0.3,-0.7 0.1,-0.8 0.2,-0.7 1,-4.7 0.7,-2.2 0.1,-0.7 0.7,-3.2 0.1,-0.7 0.5,-1.4 0.1,-0.7 1,-3.8 0,-0.7 0.3,-0.8 0.2,-1.5 0.4,-1.5 0.2,-0.6 0.1,-0.8 0.1,-0.8 0.5,-1.5 0.5,-0.7 0.9,-0.4 0.8,-0.1 0.7,0.1 0.8,0.3 0.5,0.7 0.3,0.8 0.1,0.9 0.6,2.2 0.2,1.5 0.9,2.8 0.4,2.4 0.3,0.7 0.1,0.9 0.8,2.9 0.1,0.8 0.8,3 0.1,0.9 0.2,0.6 0,0.8 0.7,2.3 0.2,1.4 0.3,0.9 0,0.6 0.9,3 0.5,2.4 -0.2,0.8 -0.6,0.3 -0.9,0 -0.9,-0.5 -0.6,-0.6 -0.2,-1.5 -0.2,-0.8 -0.3,-0.7 -0.3,-1.7 -0.2,-0.8 -0.1,-0.8 -0.4,-1.4 -0.6,-0.9 -0.8,-0.4 -2.2,0 -1.2,-0.1 -1,0 -0.7,0.1 -1.5,0 -0.9,0.4 -0.5,0.9 -1.5,7 -0.3,0.6 -0.6,0.7 -0.8,0.5 -1,0 -0.5,-0.6 z m 10.8,-12.3 1.5,0 0.6,-0.2 0.1,-0.8 -0.4,-1.6 -0.1,-0.8 -0.2,-0.8 -0.1,-0.6 -0.3,-0.7 -0.1,-0.9 -0.2,-0.7 -0.3,-0.7 -0.2,-1.5 -0.3,-1.3 -0.1,-1.1 -0.5,-2.1 -0.2,-1.6 -0.4,-1.5 -0.1,-0.1 -0.3,1.5 -0.5,3.3 -0.2,0.5 -0.5,2.4 0,0.7 -0.2,0.8 -0.2,0.7 -0.4,1.4 0,0.9 -0.2,0.7 -0.5,1.3 0,0.9 -0.1,0.6 0.1,0.9 0.7,0.3 0.8,0 0.7,0 1.5,0.1 0.6,0 z"
   id="path108" />
	</g><g
   transform="translate(-147.8,-105.95251)"
   id="g120">
		<path
   d="m 151.2,539.1 -0.8,-3.2 3.6,-15.2 1.2,-2.8 0.4,-3.2 1,-2.8 4,-19.4 2.8,-9 0.6,-3 3,-13.2 0.4,-2.8 2,-6 0.4,-2.8 4.2,-16 0.2,-2.8 1.4,-3.2 1,-6.4 1.8,-6.4 1,-2.4 0.6,-3.2 0.4,-3.2 2,-6.4 2,-3 3.6,-1.8 3.2,-0.4 3,0.6 3.2,1.4 2.2,2.8 1.2,3.4 0.6,3.6 2.6,9.2 1,6.2 3.6,11.6 1.8,9.8 1.2,2.8 0.4,3.6 3.4,12 0.4,3.2 3.2,12.6 0.6,3.6 1,2.6 0.2,3.2 3,9.4 0.8,6 1.2,3.8 0.2,2.4 3.6,12.4 2,9.8 -1,3.2 -2.6,1.2 -3.6,0 -3.8,-2 -2.6,-2.6 -1,-6.4 -0.8,-3.2 -1.2,-2.8 -1.2,-7 -1,-3.2 -0.6,-3.4 -1.6,-5.8 -2.4,-3.6 -3.2,-1.6 -9.2,0 -4.8,-0.6 -4.2,0 -3,0.4 -6.8,0 -3.6,1.6 -2,3.6 -6.4,29.2 -1.2,2.6 -2.4,3 -3.2,2.2 -4,0 -3,-2.2 z m 45,-51.2 6.2,0 2.6,-1 0.6,-3.2 -1.6,-6.6 -0.4,-3.4 -0.8,-3.2 -0.4,-2.4 -1.2,-2.8 -0.4,-3.6 -0.8,-3 -1.4,-2.8 -0.8,-6.4 -1.4,-5.4 -0.6,-4.6 -2,-8.8 -0.8,-6.6 -1.8,-6.4 -0.6,-0.6 -1.4,6.4 -2,13.8 -1,2.2 -2,10.2 -0.2,3 -1,3.2 -0.8,2.8 -1.8,5.8 -0.2,3.8 -0.8,3 -2,5.6 -0.2,3.8 -0.6,2.6 0.4,3.6 2.8,1.2 3.4,0 3,-0.2 6.4,0.4 3.6,-0.4 z"
   id="path122"
   style="fill:#71b62c" />
		<path
   d="m 252.6,540.9 -3.2,-1 -2,-3.6 0.4,-18.8 -0.4,-3 0.2,-3.2 -0.2,-3.6 0.4,-3 -0.4,-3.2 0.6,-3.2 -0.6,-3.2 -0.2,-3.4 0.4,-4.6 -0.2,-12.4 0.2,-5.2 -0.2,-3 0.6,-8.2 -0.2,-4.6 -0.4,-3 0.6,-3.6 -0.6,-3.4 0.2,-3.2 -0.2,-3 0.2,-12 -0.4,-3.8 0.2,-3.4 -0.2,-2.6 0.6,-3.2 -0.2,-6 1.8,-3.8 3.2,-2 3.2,0.6 3,0 3.4,-0.4 6.4,0 3.8,0.6 5,-0.6 4.6,0.6 3.6,-0.2 3,1 3.2,0.4 3,1.2 3.2,1.8 3,1.2 2,1.8 4.6,5.2 1.8,2.6 1.2,3 2.6,5.8 0.8,3.6 1.6,14.8 -0.2,4.8 -1,3.4 0,3.2 -0.6,3 -3,8.8 -1.4,2.6 -3.8,5.2 -2.2,2.4 -2.6,2 -2.6,2.6 -5.4,3 -9,2.6 -19,1.2 -2.6,1.4 -1.6,3.2 0.4,3 0,22.4 -0.4,2.8 0.2,13.8 -1.6,4.6 -3.2,1.8 -3.4,-0.6 z m 22.6,-63.4 6.4,-1.2 3.2,-1.4 3,-0.8 3,-1.6 4.8,-5 1.4,-3 1.8,-2.4 2,-6.8 0.2,-3.4 0.6,-3.2 -0.2,-9.6 -0.6,-6 -0.6,-2.6 -1.4,-4.4 -2.2,-4.8 -2,-3 -4.6,-3.8 -2.8,-0.6 -3.6,-1.2 -7.6,-0.6 -4.6,0.4 -3,-0.2 -3.2,-0.6 -3,2 -1.2,3.6 0,2.8 -0.4,15.2 0.2,4.6 -0.2,3.2 0.2,3.2 -0.2,3 0.4,6.4 -0.4,3.8 0.6,5.2 -0.8,7.4 1.6,3.4 3.4,1.8 5.2,0.4 4.6,-0.2 z"
   id="path124"
   style="fill:#71b62c" />
		<path
   d="m 340.4,540.9 -3.2,-1 -2,-3.6 0.4,-18.8 -0.4,-3 0.2,-3.2 -0.2,-3.6 0.4,-3 -0.4,-3.2 0.6,-3.2 -0.6,-3.2 -0.2,-3.4 0.4,-4.6 -0.2,-12.4 0.2,-5.2 -0.2,-3 0.6,-8.2 -0.2,-4.6 -0.4,-3 0.6,-3.6 -0.6,-3.4 0.2,-3.2 -0.2,-3 0.2,-12 -0.4,-3.8 0.2,-3.4 -0.2,-2.6 0.6,-3.2 -0.2,-6 1.8,-3.8 3.2,-2 3.2,0.6 3,0 3.4,-0.4 6.4,0 3.8,0.6 5,-0.6 4.6,0.6 3.6,-0.2 3,1 3.2,0.4 3,1.2 3.2,1.8 3,1.2 2,1.8 4.6,5.2 1.8,2.6 1.2,3 2.6,5.8 0.8,3.6 1.6,14.8 -0.2,4.8 -1,3.4 0,3.2 -0.6,3 -3,8.8 -1.4,2.6 -3.8,5.2 -2.2,2.4 -2.6,2 -2.6,2.6 -5.4,3 -9,2.6 -19,1.2 -2.6,1.4 -1.6,3.2 0.4,3 0,22.4 -0.4,2.8 0.2,13.8 -1.6,4.6 -3.2,1.8 -3.4,-0.6 z m 22.6,-63.4 6.4,-1.2 3.2,-1.4 3,-0.8 3,-1.6 4.8,-5 1.4,-3 1.8,-2.4 2,-6.8 0.2,-3.4 0.6,-3.2 -0.2,-9.6 -0.6,-6 -0.6,-2.6 -1.4,-4.4 -2.2,-4.8 -2,-3 -4.6,-3.8 -2.8,-0.6 -3.6,-1.2 -7.6,-0.6 -4.6,0.4 -3,-0.2 -3.2,-0.6 -3,2 -1.2,3.6 0,2.8 -0.4,15.2 0.2,4.6 -0.2,3.2 0.2,3.2 -0.2,3 0.4,6.4 -0.4,3.8 0.6,5.2 -0.8,7.4 1.6,3.4 3.4,1.8 5.2,0.4 4.6,-0.2 z"
   id="path126"
   style="fill:#71b62c" />
		<path
   d="m 443,540.9 -5.4,-2.6 -4.4,-3.6 -2.4,-2.6 -1.4,-2.4 -1.8,-2.4 -1.6,-2.8 -2.2,-6 -0.4,-3.4 -0.8,-3.2 -0.8,-2.4 -2,-10.4 0.4,-3.4 -1,-9.4 0.4,-4 -0.6,-3 0.2,-3 -0.4,-5.2 0.4,-5.2 -0.4,-2.8 0.6,-5.2 -0.2,-4.2 1.2,-10 0,-3.2 0.6,-2.6 0.4,-3.6 0.8,-3.2 1.2,-2.6 0.6,-3.2 1.2,-3.4 0.6,-2.4 1.4,-3.4 3.8,-5.4 1.8,-2 5,-4.8 2.6,-1.4 2.8,-1 3.2,-1.6 3.2,-0.2 3,-0.4 9.6,-0.2 6.8,1.4 6,2.4 3.2,0.8 2.8,2 1.8,3.4 -0.6,3.4 -1.8,2.6 -3.4,0.4 -3,-0.6 -2.8,-1.8 -3.2,-0.8 -3,-1.2 -3,-0.6 -4.8,-0.4 -5.2,1 -2.6,0.2 -2.4,1.2 -2.2,1.4 -2.4,2.2 -2,2 -1,3.2 -3,5.4 -0.6,2.8 -2.8,16.6 -0.8,30 0.4,3.2 -0.2,2.8 0.4,2.6 0.2,3.8 -0.4,3.2 0.6,2.8 0.8,9.6 1,6.4 1.2,3 0.6,3.6 1,2.4 1.6,3.6 1.6,2.4 2.4,2 2.8,2 2.6,1.4 2.8,1 5,-0.2 4.4,-0.6 5,-0.4 4.2,-1 5.6,-2 2.6,-2 3.6,0 3,2.4 0.2,4.2 -2.4,4 -13.2,5.6 -7.4,1.2 -4.8,-0.6 -5,0.6 -9.4,-2.2 z"
   id="path128"
   style="fill:#71b62c" />
		<path
   d="m 523.8,540.9 -5.4,-2.6 -4.4,-3.6 -2.4,-2.6 -1.4,-2.4 -1.8,-2.4 -1.6,-2.8 -2.2,-6 -0.4,-3.4 -0.8,-3.2 -0.8,-2.4 -2,-10.4 0.4,-3.4 -1,-9.4 0.4,-4 -0.6,-3 0.2,-3 -0.4,-5.2 0.4,-5.2 -0.4,-2.8 0.6,-5.2 -0.2,-4.2 1.2,-10 0,-3.2 0.6,-2.6 0.4,-3.6 0.8,-3.2 1.2,-2.6 0.6,-3.2 1.2,-3.4 0.6,-2.4 1.4,-3.4 3.8,-5.4 1.8,-2 5,-4.8 2.6,-1.4 2.8,-1 3.2,-1.6 3.2,-0.2 3,-0.4 9.6,-0.2 6.8,1.4 6,2.4 3.2,0.8 2.8,2 1.8,3.4 -0.6,3.4 -1.8,2.6 -3.4,0.4 -3,-0.6 -2.8,-1.8 -3.2,-0.8 -3,-1.2 -3,-0.6 -4.8,-0.4 -5.2,1 -2.6,0.2 -2.4,1.2 -2.2,1.4 -2.4,2.2 -2,2 -1,3.2 -3,5.4 -0.6,2.8 -2.8,16.6 -0.8,30 0.4,3.2 -0.2,2.8 0.4,2.6 0.2,3.8 -0.4,3.2 0.6,2.8 0.8,9.6 1,6.4 1.2,3 0.6,3.6 1,2.4 1.6,3.6 1.6,2.4 2.4,2 2.8,2 2.6,1.4 2.8,1 5,-0.2 4.4,-0.6 5,-0.4 4.2,-1 5.6,-2 2.6,-2 3.6,0 3,2.4 0.2,4.2 -2.4,4 -13.2,5.6 -7.4,1.2 -4.8,-0.6 -5,0.6 -9.4,-2.2 z"
   id="path130"
   style="fill:#71b62c" />
	</g><g
   transform="translate(-147.8,-105.95251)"
   id="g310">
		<g
   id="g312">
			<path
   d="m 359.9,173.9 c 1.5,-3.4 2.7,-7 3.4,-10.8 1,-5.2 -5,-10.6 -9.9,-7 -0.4,0.3 -0.7,0.6 -1.1,0.8 2,-5.8 2.6,-12 0.9,-18.2 -0.5,-2 -3.4,-3.4 -5.2,-2 -4.6,3.8 -8.7,8 -12.6,12.4 2.7,-6.3 6.5,-13.4 5.7,-20.1 -0.3,-3 -3.3,-6.1 -6.6,-4.7 -7.5,3.1 -11.9,10.9 -16.2,17.6 0.1,-0.3 0.1,-0.7 0.2,-1 1,-5.4 -6,-9.9 -9.9,-5.2 -3.9,4.6 -6.8,9.8 -9,15.3 -0.4,-1.2 -0.8,-2.4 -1.3,-3.6 -1.6,-3.9 -7.8,-5.7 -9.8,-0.9 -3.1,7.2 -5.2,15.4 -6,24 -0.2,-0.4 -0.5,-0.9 -0.8,-1.3 -2.1,-3.1 -6,-3.4 -8.7,-0.9 -7.1,6.6 -4,19.6 -0.8,27.4 2.7,6.5 6.5,13.4 11.7,18.7 -1,0.8 -2.1,1.6 -3,2.4 -5,4.5 -1.8,13.8 4.6,14.9 6.7,1.1 13.5,0.4 20.2,-1.4 0.5,0.4 1.1,0.7 1.7,1 5.4,2.6 12.3,-0.2 13.6,-6.3 0,-0.1 0,-0.3 0.1,-0.4 5.2,-2.4 10.1,-5 14.7,-7.5 13.8,-7.4 32.4,-20.9 32.7,-38.3 0,-4.1 -5.1,-7 -8.6,-4.9 z"
   id="path314"
   style="fill:#629930" />
			<path
   d="m 296,144.1 c 1.9,-4.9 -2,-12.7 -8.2,-10 -1.8,0.8 -3.5,1.5 -5.2,2.4 3.8,-4.8 7.1,-10 8.8,-15.9 1.7,-5.9 -4.4,-10 -9.6,-8.9 -5.3,1.1 -10.2,3.7 -14.9,7 0.4,-1.8 0.7,-3.6 0.9,-5.4 0.6,-5.5 -5.8,-10.1 -10.1,-5.4 -4.2,4.6 -8.9,10 -13.5,15.9 -1.4,-4.1 -4.2,-7 -9.7,-5.9 -9.2,1.9 -12.4,13.3 -14.1,21.7 -0.1,-0.1 -0.2,-0.1 -0.3,-0.2 -7.4,-4.4 -15.4,3.6 -13.5,11.1 1.9,7.4 3.8,15.2 9.1,20.8 -0.1,0 -0.3,0 -0.4,0 -9.1,-0.2 -12.7,10 -9.1,17 12.2,24.2 59.8,21 76.8,4.4 3.9,-3.7 1.1,-9.6 -3.4,-11 -0.7,-0.2 -1.4,-0.3 -2.1,-0.5 5.4,-3.3 10.2,-7.1 13.8,-11.4 2.4,-2.9 1.5,-8.1 -2.7,-8.8 -2,-0.3 -4.1,-0.4 -6.1,-0.4 5.9,-4.4 10.9,-9.8 13.5,-16.5 z"
   id="path316"
   style="fill:#71b62c" />
			<circle
   cx="226.2"
   cy="182.5"
   r="19.700001"
   id="circle318"
   style="fill:#d33117" />
			<circle
   cx="311.79999"
   cy="189.39999"
   r="19.700001"
   id="circle320"
   style="fill:#d33117" />
			<path
   d="m 219.8,173.8 c -1.1,-5 -6.6,-7.8 -11.5,-7.2 0.3,-3.5 0,-7.1 -0.9,-10.7 -1.6,-5.8 -9.7,-7.8 -13.7,-3.2 -0.1,0.1 -0.2,0.3 -0.3,0.4 -2.1,-5.8 -5.6,-11.3 -9.1,-14.7 -3.5,-3.4 -10.7,-2.7 -12.6,2.2 -1.3,3.3 -2.2,7 -2.6,10.7 -1.3,-0.8 -2.7,-1.4 -4.3,-2 -2.2,-0.8 -4.7,-0.6 -7,-0.1 -3,0.7 -5.1,2.9 -6.7,5.3 -1.1,1.7 -1.5,4.4 -1.4,6.3 0.1,2.4 0.9,4.7 2.3,6.7 0.7,0.9 1.4,1.8 2.3,2.6 -7.2,2.6 -9.4,14.5 -1.3,17.9 2.6,1.1 5.3,2 8,2.8 -3.4,2.9 -3,8 -0.1,11.3 3.6,4.2 10,5.1 15,6.6 5,1.4 9.1,2.3 13.8,1 -2.7,6.2 -4.7,13 -0.5,18.4 3.4,4.4 8.1,5.7 13.1,3.1 7.6,-3.9 10.7,-19 13.8,-26.6 4,-10.2 6,-20.1 3.7,-30.8 z"
   id="path322"
   style="fill:#629930" />
			<path
   d="m 337.5,201.1 c -11.3,14 -30.5,17.8 -46,10.1 1.7,2.1 3.6,4 5.7,5.8 16.2,13 39.8,10.4 52.8,-5.8 13,-16.2 10.4,-39.8 -5.8,-52.8 -2.2,-1.7 -4.5,-3.2 -6.9,-4.4 11,13.5 11.4,33.1 0.2,47.1 z"
   id="path324"
   style="fill:#ffffff" />
			<path
   d="m 279.2,199.1 c -12.2,-12.3 -13.8,-31.1 -4.8,-45 -2.2,1.4 -4.2,3 -6.1,4.9 -14.2,14.1 -14.2,37 -0.1,51.1 14.1,14.2 37,14.2 51.1,0.1 1.9,-1.9 3.5,-3.9 4.9,-6.1 -14,9 -32.8,7.3 -45,-5 z"
   id="path326"
   style="fill:#ffffff" />
			<path
   d="m 199.6,201 c -17.1,-2.4 -29.8,-16.4 -31.1,-32.9 -0.9,2.4 -1.6,4.9 -1.9,7.6 -2.7,19.8 11.1,38 30.8,40.8 19.8,2.7 38,-11.1 40.8,-30.8 0.4,-2.7 0.4,-5.3 0.2,-7.8 -5.7,15.4 -21.7,25.4 -38.8,23.1 z"
   id="path328"
   style="fill:#ffffff" />
		</g>
		<g
   id="g330">
			<path
   d="m 148.4,193.5 c 1.3,59.7 50.1,107.7 110.2,107.7 60.1,0 108.8,-48 110.2,-107.7 l -220.4,0 z"
   id="path332"
   style="fill:#4b4e55" />
			<path
   d="m 306.8,299.1 c 0,3.5 -2.8,6.4 -6.4,6.4 l -84.3,0 c -3.5,0 -6.4,-2.8 -6.4,-6.4 l 0,-1.3 c 0,-3.5 2.8,-6.4 6.4,-6.4 l 84.3,0 c 3.5,0 6.4,2.8 6.4,6.4 l 0,1.3 z"
   id="path334"
   style="fill:#71b62c" />
		</g>
	</g><rect
   x="0"
   y="457.14746"
   width="495.79999"
   height="30.9"
   id="rect394"
   style="fill:#71b62c" />
</svg>