<svg xmlns="http://www.w3.org/2000/svg" width="40px" height="40px" viewBox="0 0 40 40">
<switch>
	<g>
		<rect fill="#40221A" width="40" height="40"/>
		<g>
			<g>
				<path fill="#EDEFEE" d="M30.129,26.641l-2.038-4.113l0.765-1.403l1.4,2.812l0.868-1.407h6.901c0,0,0.297,0.169,0.297,0.668
					c0,0.5-0.297,0.639-0.297,0.639h-6.171L30.129,26.641z"/>
			</g>
			<path fill="#EDEFEE" d="M25.265,16.898L22.1,25.826l-1.506-4.398l-0.951,2.319l-6.999,0.049c0,0-0.217-0.052-0.217-0.628
				c0-0.577,0.207-0.681,0.207-0.681l6.128-0.044l1.943-4.737l1.416,4.141l2.922-8.242l3.305,6.427
				c1.001-2.926,0.656-5.114,0.656-5.114s-0.162-5.294-5.78-5.294s-5.888,4.646-5.888,4.646s-0.271-4.646-5.89-4.646
				c-5.618,0-5.78,5.294-5.78,5.294s-1.566,9.94,11.67,15.774c5.943-2.62,8.901-6.068,10.356-9.073L25.265,16.898z"/>
		</g>
	</g>
</switch>
</svg>
