<svg xmlns="http://www.w3.org/2000/svg" width="40px" height="40px" viewBox="0 0 40 40">
<switch>
	<g>
		<rect fill="#F9CC1E" width="40" height="40"/>
		<g>
			<path fill="#40221A" d="M26.787,11.741l-14.252,0.012c0,0-2.273,25.278,0.686,25.239c2.957-0.039,4.902-2.017,7.064-2.258
				c2.082,0.155,5.271,2.658,7.262,1.029C29.605,33.157,26.787,11.741,26.787,11.741"/>
			<path fill="#FFFFFF" d="M25.287,9.842c-0.213,0-0.393-0.172-0.395-0.389c-0.002-0.216,0.168-0.392,0.383-0.395
				c0.217-0.001,0.395,0.169,0.396,0.385C25.674,9.66,25.502,9.838,25.287,9.842 M23.742,7.681
				c-0.215,0.006-0.389-0.167-0.393-0.382c-0.004-0.215,0.17-0.395,0.385-0.396c0.215-0.001,0.391,0.169,0.396,0.383
				C24.131,7.503,23.961,7.68,23.742,7.681 M21.795,9.752c-0.215,0.002-0.393-0.169-0.396-0.386
				c-0.002-0.217,0.17-0.393,0.389-0.395c0.217-0.005,0.391,0.169,0.396,0.386C22.186,9.572,22.014,9.749,21.795,9.752
				 M19.941,8.065c-0.219,0.002-0.393-0.171-0.395-0.385c-0.006-0.217,0.168-0.395,0.385-0.398c0.213-0.001,0.391,0.17,0.395,0.388
				C20.328,7.885,20.156,8.062,19.941,8.065 M18.23,9.704c-0.217,0.002-0.395-0.171-0.395-0.385
				c-0.004-0.218,0.168-0.394,0.385-0.395c0.213-0.004,0.393,0.168,0.395,0.382C18.617,9.523,18.445,9.7,18.23,9.704 M16.742,8.491
				c-0.213,0.007-0.393-0.166-0.395-0.384c-0.004-0.215,0.17-0.392,0.387-0.395c0.215,0,0.393,0.171,0.395,0.386
				C17.133,8.312,16.959,8.489,16.742,8.491 M14.246,10.336c-0.217,0.001-0.393-0.17-0.396-0.384
				c-0.004-0.216,0.172-0.394,0.385-0.396c0.217-0.002,0.395,0.169,0.396,0.384C14.635,10.158,14.463,10.333,14.246,10.336
				 M24.982,4.343c-2.826-1.142-7.127-2.121-9.715-0.413c-2.793,1.848-3.072,2.755-3.053,4.085c0.018,1.331,0.037,2.81,0.037,2.81
				l14.641-0.048C26.893,10.777,27.805,5.491,24.982,4.343"/>
		</g>
		<path fill="#FFFFFF" d="M34.836,11.906c-0.269,0.255-0.065-0.599-0.498-0.518c-0.267,0.254-0.799,0.766-1.063,1.021
			c-0.517-0.002-0.232-0.771-0.744-0.775c-0.516-0.004-1.416,1.188-1.848,1.272c-0.963,0.593,0.287-0.77,1.084-1.535
			c-0.431,0.083,0.535-0.512,0.369-0.684c-0.332-0.344-0.662-0.689-1.974,0.073c-0.35,0.168-0.331-0.345-0.497-0.519
			c-3.195,3.063-6.659,6.379-9.525,9.785c-0.024,0.03-0.052,0.062-0.082,0.093c-2.489-2.114-4.913-5.037-7.415-6.959
			c-0.821-0.632-1.718-2.165-2.625-2.216c0.246,0.238,0.491,0.479,0.737,0.717c-0.986-0.46-1.473-1.431-2.296-2.063
			C8.295,9.771,8.21,9.857,7.882,9.703c0.491,0.479,1.312,1.108,1.719,1.67l-0.249,0.258C8.777,11.24,8.205,10.353,7.63,9.959
			c-0.082,0.088-0.25,0.258-0.332,0.344c-0.081,0.085-0.327-0.152-0.574-0.392c0.247,0.239,0.737,0.717,0.984,0.955
			c-0.084,0.087-0.25,0.258-0.336,0.343C7.29,11.295,7.046,11.057,6.8,10.817c-0.166,0.171-0.579,0.103-0.417,0.429
			c0.245,0.239,0.492,0.477,0.738,0.715c-1.067-0.87-1.975-0.919-2.225-0.661c0.328,0.153,0.08,0.412,0.409,0.563
			c-0.988-0.46-2.055-0.831-1.156,0.209c3.896,4.013,7.973,7.95,12.103,11.836c-1.595,1.477-3.203,2.953-4.467,4.458
			c-0.718,0.85-2.379,1.778-2.499,2.721c0.266-0.255,0.532-0.509,0.798-0.764c-0.55,1.024-1.599,1.529-2.315,2.382
			c0.168,0.172,0.249,0.259,0.067,0.602c0.531-0.514,1.246-1.363,1.863-1.787l0.247,0.257c-0.449,0.598-1.416,1.191-1.864,1.786
			c0.084,0.086,0.248,0.261,0.33,0.345c0.082,0.09-0.184,0.343-0.448,0.598c0.265-0.255,0.798-0.764,1.064-1.021
			c0.083,0.088,0.249,0.26,0.33,0.345c0.083,0.088-0.181,0.342-0.451,0.597c0.166,0.173,0.065,0.6,0.414,0.429
			c0.267-0.254,0.533-0.509,0.799-0.762c-0.982,1.106-1.103,2.047-0.855,2.306c0.184-0.341,0.435-0.083,0.618-0.424
			c-0.554,1.024-1.02,2.133,0.126,1.201c3.429-3.11,6.815-6.325,10.174-9.59c3.438,3.195,6.887,6.367,10.275,9.527
			c0.576,0.393,0.495-0.021,0.66-0.19c-0.982-0.954-2.049-1.826-2.619-2.709c-0.246-0.241,0.577-0.106,0.499-0.514
			c-0.245-0.241-0.738-0.721-0.983-0.96c0.004-0.493,0.745-0.272,0.747-0.77c0.004-0.494-1.145-1.278-1.225-1.688
			c-0.57-0.889,0.739,0.22,1.478,0.936c-0.078-0.409,0.492,0.478,0.659,0.31c0.332-0.344,0.665-0.688-0.067-1.897
			c-0.164-0.329,0.334-0.346,0.499-0.518c-1.868-1.812-3.836-3.722-5.859-5.52c4.623-4.571,9.198-9.2,13.746-13.721
			c0.452-0.598,0.019-0.515-0.148-0.686C36.783,10.207,35.798,11.313,34.836,11.906"/>
	</g>
</switch>
</svg>
