<svg xmlns="http://www.w3.org/2000/svg" width="40px" height="40px" viewBox="0 0 40 40">
<switch>
	<g>
		<rect fill="#F9CC1E" width="40" height="40"/>
		<polygon fill="#40221A" points="15.925,-0.132 19.197,-0.132 19.407,3.896 19.517,4.611 19.535,5.378 19.535,6.193 19.467,7.258 
			19.268,8.591 18.969,9.874 18.581,10.868 18.193,11.583 17.874,12.359 17.775,13.413 17.975,14.985 18.303,16.686 18.552,18.059 
			18.73,19.212 18.88,20.226 18.969,20.714 19.067,21.211 19.227,21.728 19.407,22.225 19.636,22.693 19.935,23.19 20.302,23.647 
			20.729,24.085 21.197,24.465 21.656,24.752 22.083,24.991 22.479,25.158 22.889,25.27 23.235,25.329 23.544,25.358 23.872,25.358 
			24.169,25.329 24.458,25.329 24.767,25.329 25.057,25.339 25.324,25.358 25.562,25.407 25.741,25.478 25.871,25.558 
			26.061,25.665 26.229,25.638 26.378,25.508 26.477,25.358 26.547,25.25 26.636,25.069 26.787,24.859 27.016,24.633 27.273,24.382 
			27.622,24.136 28.067,23.926 28.586,23.727 29.223,23.579 29.969,23.508 30.754,23.508 31.58,23.59 32.445,23.786 33.241,24.114 
			34.007,24.562 34.693,25.149 35.328,25.875 35.885,26.74 36.364,27.765 36.712,28.978 36.88,30.44 36.842,32.122 36.584,34.12 
			36.045,40.22 32.158,40.22 32.395,35.103 32.563,33.841 32.635,32.608 32.546,31.385 32.425,30.68 32.247,30.022 31.998,29.436 
			31.699,28.938 31.312,28.55 30.863,28.322 30.315,28.272 29.681,28.42 29.402,28.5 29.134,28.562 28.854,28.609 28.595,28.631 
			28.357,28.631 28.138,28.58 27.96,28.5 27.82,28.42 27.871,28.838 27.781,29.328 27.612,29.834 27.362,30.342 27.095,30.84 
			26.787,31.305 26.497,31.685 26.229,31.992 25.94,32.25 25.562,32.549 25.107,32.857 24.568,33.155 23.991,33.474 23.345,33.731 
			22.708,33.96 22.021,34.151 21.614,34.22 21.168,34.279 20.651,34.341 20.073,34.368 19.438,34.38 18.779,34.341 18.093,34.27 
			17.39,34.181 16.652,34.01 15.905,33.813 15.181,33.574 14.454,33.254 13.747,32.866 13.092,32.4 12.445,31.883 11.868,31.257 
			10.804,30.094 9.849,29.098 8.953,28.233 8.13,27.457 7.343,26.681 6.548,25.836 5.771,24.853 4.986,23.668 4.259,22.234 
			3.683,20.614 3.255,18.894 2.976,17.124 2.848,15.433 2.859,13.861 3.037,12.499 3.346,11.445 3.584,10.987 3.861,10.549 
			4.2,10.121 4.617,9.704 5.066,9.296 5.553,8.938 6.08,8.591 6.606,8.302 7.185,8.042 7.76,7.824 8.337,7.686 8.936,7.576 
			9.511,7.566 10.088,7.596 10.636,7.735 11.152,7.954 11.788,8.302 12.336,8.63 12.793,8.938 13.201,9.177 13.59,9.296 
			13.948,9.267 14.324,9.078 14.751,8.659 15.449,7.516 15.857,6.213 15.986,4.781 15.925,-0.132 		"/>
		<polygon fill="#FFFFFF" points="16.652,-0.112 18.73,-0.112 18.98,4.582 19.038,5.835 18.969,6.989 18.821,8.062 18.622,8.988 
			18.382,9.684 18.124,10.191 17.874,10.589 17.586,11.057 17.238,11.684 16.98,12.539 16.89,13.553 17.009,14.519 17.198,15.304 
			17.429,16.08 17.627,16.995 17.695,17.651 17.805,18.476 17.944,19.46 18.113,20.506 18.333,21.52 18.61,22.485 18.969,23.291 
			19.407,23.878 19.843,24.305 20.211,24.663 20.848,25.238 21.484,25.587 21.863,25.697 22.509,25.825 23.087,26.005 
			23.611,26.274 24.14,26.662 24.667,26.979 25.194,27.139 25.712,27.109 26.269,26.87 26.527,26.453 26.557,26.085 26.757,25.676 
			27.175,25.25 27.492,25.049 27.82,24.9 28.079,24.859 28.357,24.762 28.388,24.542 28.595,24.305 28.854,24.165 29.262,24.065 
			29.649,24.006 29.998,24.085 30.327,24.295 30.636,24.284 30.875,24.095 31.331,24.056 31.699,24.136 32.048,24.284 
			32.377,24.492 32.484,24.781 32.733,24.872 32.952,24.752 33.381,24.802 33.728,25.01 34.048,25.25 34.326,25.638 34.385,25.984 
			34.594,26.135 34.852,26.143 35.13,26.343 35.458,26.819 35.559,27.367 35.538,27.735 35.816,27.883 35.905,28.005 36.045,28.521 
			36.165,29.088 36.076,29.396 35.956,29.613 36.195,29.784 36.403,29.974 36.454,30.39 36.394,30.987 36.195,31.504 36.334,31.654 
			36.433,31.832 36.454,32.359 36.433,32.688 36.245,33.236 35.905,33.704 36.045,33.87 36.146,34.22 35.956,35.046 35.617,40.199 
			32.635,40.199 32.753,35.443 32.941,34.508 33.111,33.813 33.311,33.583 33.489,33.504 33.15,32.738 33.092,32.279 33.111,31.832 
			33.261,31.685 33.459,31.595 33.021,30.908 32.941,30.521 32.863,30.043 32.991,29.844 33.15,29.714 32.952,29.427 32.774,29.297 
			32.464,29.027 32.178,28.631 31.986,28.203 32.276,28.055 32.306,27.924 32.048,27.815 31.67,27.883 31.271,27.983 30.665,27.883 
			30.315,27.735 30.445,27.577 30.227,27.495 29.939,27.625 29.492,28.005 29.054,28.174 28.556,28.113 27.939,27.826 
			27.344,27.637 26.864,27.745 26.497,28.034 26.269,28.47 26.139,29.107 26.239,29.765 26.289,30.121 26.139,30.629 25.892,31.049 
			25.504,31.533 24.937,32.051 24.189,32.539 23.235,32.996 22.092,33.344 20.779,33.604 19.197,33.692 17.627,33.544 
			16.196,33.115 14.923,32.51 13.826,31.773 12.882,30.987 12.097,30.191 11.439,29.516 10.416,28.393 8.675,26.802 7.144,25.22 
			6.667,24.562 6.109,23.709 5.531,22.613 4.976,21.28 4.468,19.759 4.068,18.019 3.861,16.059 3.843,14.329 4.032,12.857 
			4.399,11.624 4.976,10.62 5.742,9.824 6.717,9.207 7.91,8.79 9.303,8.501 10.376,8.63 11.332,9.008 12.227,9.525 13.109,10.121 
			13.658,10.202 14.146,10.142 14.673,9.874 15.181,9.396 15.468,8.978 15.995,8.113 16.403,7.098 16.632,5.587 16.652,-0.112 		"/>
	</g>
</switch>
</svg>
