<svg xmlns="http://www.w3.org/2000/svg" width="40px" height="40px" viewBox="0 0 40 40">
<switch>
	<g>
		<rect fill="#F9CC1E" width="40" height="40"/>
		<g>
			<path fill="#FFFFFF" d="M35.442,18.445c0.325-0.869,0.659-1.771,0.411-2.693c-0.246-0.922-0.987-1.533-1.702-2.127
				c-0.463-0.385-0.904-0.748-1.131-1.143c-0.241-0.419-0.347-1.025-0.449-1.612c-0.154-0.901-0.314-1.831-0.964-2.477
				c-0.66-0.66-1.596-0.819-2.504-0.974c-0.605-0.104-1.181-0.201-1.588-0.436c-0.409-0.239-0.778-0.686-1.173-1.159
				c-0.587-0.709-1.193-1.439-2.095-1.68c-0.468-0.128-0.977-0.108-1.606,0.059c-0.341,0.093-0.684,0.218-1.014,0.34
				c-0.314,0.115-0.634,0.235-0.935,0.313C20.425,4.93,20.198,4.966,20,4.966c-0.454,0.001-0.989-0.198-1.553-0.408
				c-0.873-0.323-1.773-0.66-2.695-0.412c-0.923,0.247-1.535,0.986-2.128,1.702c-0.385,0.466-0.747,0.905-1.143,1.133
				c-0.171,0.099-0.383,0.182-0.652,0.254c-0.301,0.08-0.636,0.139-0.961,0.192c-0.348,0.062-0.708,0.125-1.055,0.215
				C9.187,7.811,8.734,8.049,8.392,8.394C7.732,9.051,7.572,9.99,7.419,10.896c-0.104,0.606-0.199,1.181-0.436,1.588
				c-0.236,0.41-0.686,0.781-1.159,1.175c-0.707,0.588-1.44,1.193-1.681,2.092c-0.238,0.887,0.086,1.771,0.402,2.628
				c0.206,0.558,0.419,1.137,0.419,1.623c0,0.453-0.198,0.987-0.407,1.554c-0.325,0.869-0.659,1.771-0.411,2.693
				c0.246,0.924,0.987,1.535,1.701,2.128c0.467,0.386,0.904,0.749,1.131,1.142c0.243,0.422,0.348,1.028,0.449,1.615
				c0.155,0.898,0.314,1.828,0.965,2.477c0.66,0.659,1.596,0.816,2.502,0.973c0.609,0.102,1.183,0.2,1.59,0.436
				c0.409,0.235,0.778,0.684,1.172,1.157c0.588,0.709,1.194,1.439,2.094,1.683c0.47,0.127,0.98,0.107,1.608-0.062
				c0.344-0.093,0.688-0.22,1.02-0.341c0.31-0.114,0.631-0.232,0.929-0.312c0.268-0.072,0.495-0.106,0.693-0.106
				c0.456,0,0.99,0.197,1.555,0.407c0.871,0.325,1.772,0.66,2.693,0.412c0.923-0.247,1.534-0.988,2.129-1.703
				c0.383-0.465,0.746-0.904,1.14-1.133c0.173-0.099,0.385-0.182,0.654-0.253c0.3-0.079,0.636-0.138,0.961-0.193
				c0.348-0.062,0.71-0.122,1.055-0.215c0.627-0.169,1.079-0.407,1.422-0.749c0.658-0.66,0.819-1.599,0.972-2.504
				c0.103-0.607,0.2-1.181,0.437-1.589s0.683-0.78,1.156-1.172c0.71-0.588,1.441-1.193,1.684-2.095
				c0.238-0.887-0.089-1.771-0.403-2.627c-0.205-0.559-0.418-1.136-0.418-1.622C35.035,19.546,35.233,19.012,35.442,18.445z"/>
		</g>
		<g>
			<path fill="#40221A" d="M35.319,22.498c0.537-0.76,1.096-1.543,1.096-2.497c0-0.956-0.556-1.738-1.096-2.495
				c-0.349-0.492-0.679-0.958-0.797-1.397c-0.125-0.468-0.069-1.08-0.016-1.674c0.084-0.908,0.169-1.85-0.291-2.644
				c-0.467-0.807-1.33-1.203-2.164-1.586c-0.562-0.258-1.09-0.5-1.423-0.833c-0.334-0.334-0.577-0.863-0.835-1.422
				c-0.382-0.837-0.779-1.7-1.585-2.167c-0.421-0.242-0.918-0.355-1.568-0.355c-0.356,0-0.717,0.033-1.068,0.063
				c-0.334,0.031-0.672,0.063-0.983,0.063c-0.277,0-0.506-0.026-0.698-0.076c-0.438-0.119-0.903-0.447-1.394-0.797
				C21.738,4.142,20.956,3.587,20,3.587s-1.738,0.555-2.496,1.093c-0.491,0.352-0.957,0.68-1.396,0.799
				c-0.191,0.05-0.42,0.076-0.696,0.076c-0.312,0-0.65-0.032-0.979-0.061c-0.352-0.033-0.716-0.066-1.073-0.066
				c-0.649,0-1.149,0.113-1.568,0.355c-0.808,0.467-1.203,1.333-1.587,2.167C9.948,8.51,9.705,9.038,9.371,9.372
				C9.037,9.705,8.51,9.947,7.948,10.205c-0.834,0.383-1.697,0.779-2.164,1.586c-0.46,0.794-0.374,1.735-0.291,2.643
				c0.055,0.592,0.109,1.206-0.016,1.675c-0.116,0.439-0.448,0.905-0.797,1.396c-0.537,0.758-1.096,1.54-1.096,2.496
				c0,0.954,0.559,1.737,1.096,2.494c0.351,0.494,0.681,0.957,0.797,1.396c0.125,0.469,0.07,1.083,0.016,1.676
				c-0.083,0.908-0.169,1.849,0.291,2.642c0.467,0.808,1.33,1.204,2.164,1.586c0.562,0.258,1.089,0.5,1.423,0.834
				c0.334,0.335,0.577,0.863,0.832,1.422c0.385,0.836,0.78,1.699,1.588,2.167c0.419,0.243,0.919,0.355,1.568,0.355
				c0.357,0,0.722-0.032,1.073-0.064c0.329-0.031,0.67-0.062,0.979-0.062c0.276,0,0.505,0.025,0.696,0.075
				c0.438,0.119,0.904,0.449,1.396,0.8c0.758,0.537,1.54,1.093,2.496,1.093s1.739-0.556,2.496-1.093
				c0.491-0.351,0.957-0.681,1.395-0.8c0.192-0.05,0.421-0.075,0.697-0.075c0.31,0,0.65,0.031,0.979,0.062
				c0.353,0.032,0.717,0.064,1.073,0.064c0.65,0,1.148-0.112,1.569-0.355c0.806-0.468,1.203-1.331,1.585-2.164
				c0.257-0.562,0.499-1.09,0.835-1.425c0.333-0.332,0.861-0.576,1.419-0.833c0.838-0.383,1.701-0.779,2.168-1.587
				c0.46-0.793,0.374-1.733,0.291-2.642c-0.054-0.593-0.109-1.207,0.016-1.676C34.639,23.452,34.969,22.988,35.319,22.498z"/>
		</g>
		<g>
			<circle fill="#F9CC1E" cx="20" cy="20" r="7.727"/>
		</g>
		<g>
			<path fill="#FFFFFF" d="M24.803,15.855c-9.425,1.584-6.122,7.591-5.738,8.232c1.154-4.117,4.166-6.965,4.166-6.965
				c-2.587,3.534-3.331,5.996-3.54,7.021C26.749,23.932,24.803,15.855,24.803,15.855z"/>
			<path fill="#FFFFFF" d="M17.804,20.284c-0.362-0.614-0.801-1.286-1.332-2.013c0,0,0.644,0.609,1.404,1.656
				c0.149-0.604,0.411-1.13,0.758-1.59c-0.825-0.474-1.951-0.87-3.479-1.127c0,0-1.449,6.027,3.369,6.846
				C17.917,22.921,17.592,21.555,17.804,20.284z"/>
		</g>
		<rect x="9.67" y="27.966" fill="none" width="20.66" height="7.224"/>
		<text transform="matrix(1 0 0 1 15.6787 33.667)" fill="#FFFFFF" font-family="'Pacifico'" font-size="6.084">Eco</text>
		<rect x="9.67" y="5.05" fill="none" width="20.66" height="7.225"/>
		<text transform="matrix(1 0 0 1 13.917 10.751)"><tspan x="0" y="0" fill="#FFFFFF" font-family="'Pacifico'" font-size="6.084">100%</tspan></text>
	</g>
</switch>	
</svg>
