<svg xmlns="http://www.w3.org/2000/svg" xmlns:xlink="http://www.w3.org/1999/xlink" width="800px" height="800px" viewBox="0 0 800 800">
<switch>
	<g>
		
			<pattern  width="300" height="330" patternUnits="userSpaceOnUse" id="Nueva_muestra_de_motivo_18" viewBox="0 -330 300 330" overflow="visible">
			<g>
				<polygon fill="none" points="0,0 300,0 300,-330 0,-330 				"/>
				<path fill="#FFF9F0" d="M268.449-212.531c1.37,2.297,3.143,5.364,2.766,8.176c-0.21,1.574-1.318,3.855-0.498,5.337
					c1.484,2.683,3.834,3.162,6.482,4.109c6.569,2.352,8.497,11.433,5.936,17.156c-0.041,0.09-0.087,0.17-0.137,0.245
					c0.973,3.54,2.711,5.126,6.461,6.924c2.108,1.011,4.544,2.404,5.4,4.755c0.759,2.087,1.099,4.023,0.548,6.234
					c-0.872,3.5-2.151,7.435,0.796,10.47c1.154,1.188,2.47,2.121,3.797,3.003v-27.666c-0.924-0.619-1.233-2.057,0-2.578v-12.58
					c-0.973-0.256-1.928-0.604-2.863-0.953c-1.035-0.388-3.37-1.076-2.67-2.655c0.758-1.708,2.385-0.642,3.562-0.119
					c0.651,0.289,1.313,0.557,1.972,0.833v-6.203c-9.698-7.023-21.571-11.367-32.94-16.56
					C267.582-213.897,268.053-213.197,268.449-212.531z"/>
				<path fill="#FFF9F0" d="M292.2-150.139c-2.654-5.961,4.235-13.907-3.276-17.568c-4.511-2.198-8.971-4.765-8.471-10.06
					c-0.072-0.243-0.082-0.526,0.006-0.846c1.062-3.862,1.469-7.557-1.258-10.91c-2.055-2.527-4.338-2.993-7.176-4.203
					c-2.939-1.253-4.781-4.683-4.251-7.792c0.813-4.766-0.134-8.175-3.29-12.013c-1.645-1.998-3.729-4.35-6.371-4.974
					c-0.834-0.197-6.341-0.138-3.957,2.127c0.992,0.943,2.051,1.443,3.348,1.816c0.416,0.119,0.639,0.378,0.713,0.674
					c2.068,1.32,3.814,3.159,3.668,5.839c-0.193,3.537-2.222,7.094-1.084,10.649c2.302,7.186,13.014,5.676,14.67,13.728
					c0.85,4.128-3.712,9.299,0.051,12.859c1.957,1.85,4.586,2.231,6.673,3.831c1.669,1.281,3.29,2.504,4.739,4.034
					c2.051,2.165,2.621,5.979,1.508,8.72c-1.378,3.387-4.035,6.036-1.291,9.391c0.621,0.512,1.297,0.991,1.998,1.455
					c1.906,1.073,3.869,2.093,5.49,3.509l0.07,0.073c2.56,1.867,4.6,4.123,4.774,7.669c0.091,1.837,0.139,3.797-0.305,5.6
					c-0.296,1.204-1.51,3.454-1.14,4.689c0.387,1.287,1.089,2.223,1.961,2.974v-23.904
					C297.074-144.859,293.798-146.551,292.2-150.139z"/>
				<path fill="#FFF9F0" d="M295.582-124.837c1.52-4.28,2.01-9.803-2.334-12.554c-2.481-1.574-4.914-2.942-6.97-4.948
					c-0.364,0.021-0.753-0.091-1.101-0.389c-7.176-6.143,5.423-13.306-1.412-19.189c-3.518-3.028-8.476-4.231-11.242-7.999
					c-1.773-2.416-1.555-5.625-0.787-8.352c1.504-5.331,0.129-8.24-4.927-10.473c-2.701-1.193-5.292-2.367-7.159-4.742
					c-1.923-2.447-2.111-5.845-1.627-8.786c0.771-4.672,2.36-7.414-2.146-10.417c-8.557,8.15-16.004,17.052-23.6,26.085
					c1.194,1.73,2.328,3.513,3.421,5.328c4.079-4.475,7.087-9.76,12.165-13.275c0.922-0.639,1.974,0.909,1.121,1.609
					c-4.783,3.935-7.695,9.523-11.932,13.97c1.559,2.721,3.021,5.514,4.431,8.343c2.194-2.178,5.076-3.911,7.538-5.728
					c2.645-1.952,5.259-3.947,7.944-5.841c1.04-0.733,2.39,0.603,1.379,1.5c-2.764,2.452-5.688,4.73-8.594,7.012
					c-2.295,1.802-4.562,3.961-7.12,5.393c1.517,3.13,2.971,6.295,4.408,9.45c4.825-2.739,10.082-5.067,15.311-6.82
					c1.199-0.403,1.862,1.564,0.736,2.083c-5.012,2.306-9.87,4.994-14.888,7.28c1.292,2.841,2.577,5.668,3.885,8.445
					c3.828-2.058,7.698-4.198,11.892-5.356c1.21-0.334,1.846,1.532,0.73,2.062c-3.869,1.839-7.611,3.889-11.411,5.853
					c1.011,2.136,2.03,4.267,3.054,6.396c4.918-1.646,10.595-1.335,15.622-2.679c1.154-0.309,1.686,1.391,0.683,1.929
					c-4.266,2.287-10.102,2.856-15.03,3.391c1.908,3.93,3.863,7.836,5.862,11.718c5.794-1.872,11.803-3.301,17.815-4.222
					c1.442-0.222,1.82,1.764,0.456,2.189c-5.594,1.743-11.356,2.85-16.955,4.588c1.105,2.113,2.23,4.216,3.375,6.309
					c3.521-0.798,7.11-1.387,10.677-1.926c1.403-0.212,1.778,1.724,0.444,2.133c-3.18,0.975-6.475,1.579-9.732,2.27
					c0.805,1.442,1.604,2.888,2.434,4.318c9.455-0.754,18.661-3.077,28.002-4.548v-2.052
					C296.609-117.551,293.925-120.173,295.582-124.837z"/>
				<path fill="#FFF9F0" d="M242.502,0h19.289c-6.345-2.86-12.628-5.82-18.784-8.919C241.73-5.589,240.999-2.81,242.502,0z"/>
				<path fill="#FFF9F0" d="M300-328.069c-1.769-0.641-3.543-1.284-5.322-1.931h-23.753c9.646,4.417,19.245,8.975,29.075,12.805
					V-328.069z"/>
				<path fill="#FFF9F0" d="M298.518-26.693c-3.16-2.245-6.689-1.15-8.889,1.758c-2.983,3.944-4.969,9.416-9.941,11.271
					c-4.084,1.524-9.209-0.88-10.6-4.941c-1.452-4.246,2.087-10.152-0.121-13.915c-2.981-5.086-9.768,3.641-12.221,5.23
					c-2.158,1.398-4.295,1.657-6.065,0.667c-0.533,1.473-1.064,2.753-1.597,3.939C265.922-14.938,282.627-7.494,300-1.072v-23.386
					C299.708-25.367,299.256-26.168,298.518-26.693z"/>
				<path fill="#FFF9F0" d="M261.125-59.176c-6.141,3.528-7.977,10.708-10.618,16.808c-0.581,1.674-1.08,3.364-1.233,5.103
					c-0.156,1.73,0.892,9.978,4.48,8.357c3.855-1.741,6.072-6.391,10.229-7.597c3.322-0.963,7.032,0.355,8.088,3.856
					c1.184,3.927-0.969,7.997-0.346,11.95c0.511,3.254,4.268,5.6,7.45,3.964c2.388-1.225,3.816-3.661,5.183-5.868
					c2.076-3.354,4.871-8.258,9.418-8.412c2.315-0.079,4.508,0.441,6.225,1.614v-20.357c-7.06-3.055-14.111-6.173-21.355-8.534
					C273.438-59.987,266.307-62.15,261.125-59.176z"/>
				<path fill="#FFF9F0" d="M244.355-12.346c-0.156,0.409-0.314,0.808-0.469,1.201C253.092-8.02,262.029-4.073,270.925,0h23.753
					c-15.903-5.781-32.109-11.896-46.602-20.531C246.862-18.017,245.636-15.671,244.355-12.346z"/>
				<path fill="#FFF9F0" d="M83.1-115.865c3.976,3.438,10.005,4.644,15.044,3.439c5.323-1.273,7.889-4.062,8.56-8.189
					C100.332-115.105,91.363-115.079,83.1-115.865z"/>
				<path fill="#FFF9F0" d="M203.59-299.31c-8.497,4.179-18.68,9.353-15.158,19.937C196.011-283.319,205.605-289.774,203.59-299.31z
					"/>
				<path fill="#FFF9F0" d="M179.1-286.08c-0.405-6.591,3.845-10.861,8.771-14.292c0.369,0.144,0.806,0.13,1.262-0.137
					c6.752-3.966,13.207-8.425,20.089-12.168c6.265-3.411,13.439-6.261,20.591-4.15c8.523,2.515,13.764,12.097,17.68,19.365
					c1.304,2.42,2.628,5.262,1.814,8.043c-0.137,0.465-0.363,0.903-0.621,1.331c-1.163-1.673-2.164-3.535-2.871-5.398
					c-0.454-1.198-2.41-0.425-2.09,0.782c0.656,2.462,1.693,4.705,3.143,6.763c-1.264,1.158-2.747,2.148-3.919,2.983
					c-7.925,5.646-15.911,11.364-24.06,16.682c-7.873,5.14-17.892,10.586-27.063,5.357C183.866-265.456,179.627-277.47,179.1-286.08
					z M228.123-309.536c5.714,1.651,8.402,6.723,11.368,11.376c0.892,1.4,2.963,0.299,2.271-1.22
					c-2.495-5.467-6.856-11.026-13.059-12.085C227.461-311.677,226.838-309.907,228.123-309.536z M222.848-285.172
					c0.35,0.33,0.75,0.603,1.168,0.847c-0.34,0.955-0.637,1.914-0.822,2.877c-0.264,1.366,1.584,2.436,2.361,1.055
					c0.521-0.928,0.939-1.937,1.311-2.974c1.248,0.164,2.527,0.052,3.658-0.375c2.89-1.093,3.979-4.89,2.294-7.456
					c-0.64-0.974-1.684-1.622-2.862-1.953c0.281-1.072,0.53-2.149,0.676-3.242c0.18-1.362-1.742-1.447-2.195-0.364
					c-0.467,1.11-0.863,2.252-1.244,3.402c-1.262,0.157-2.461,0.649-3.311,1.487l-0.1,0.043
					C221.466-290.187,220.596-287.3,222.848-285.172z M187.435-276.696c0.308,0.359,0.772,0.552,1.327,0.359
					c9.497-3.321,21.803-14.073,16.899-25.179c-0.175-0.397-0.5-0.598-0.856-0.652c-0.405-0.363-0.994-0.527-1.625-0.23
					c-9.544,4.479-24.235,13.017-16.072,25.365C187.203-276.886,187.315-276.776,187.435-276.696z"/>
				<path fill="#FFF9F0" d="M224.829-287.064l0.19,0.114c0.246-0.631,0.488-1.262,0.702-1.885c0.137-0.403,0.267-0.81,0.399-1.217
					c-0.514,0.211-0.974,0.474-1.318,0.747c-0.168,0.133-0.339,0.201-0.51,0.242C223.977-288.326,224.002-287.62,224.829-287.064z"
					/>
				<path fill="#FFF9F0" d="M62.026-173.341c-6.935-1.079-10.334-11.995-12.947-17.409c-0.752-1.557-3.073-0.314-2.363,1.242
					c1.564,3.426,4.308,10.583,8.184,14.933c-3.775,1.546-8.673-2.236-11.295-4.654c-3.31-3.054-5.71-7.008-7.866-10.916
					c-3.985-7.226-6.697-15.068-10.514-22.377c-3.327-6.374-7.146-12.49-9.599-19.285c-1.188-3.292-1.954-6.75-1.758-10.259
					c0.178-3.198,1.763-5.375,3.748-7.468c0.931,3.313,2.79,6.511,4.651,9.248c0.851,1.25,2.632,0.323,2.073-1.089
					c-1.498-3.789-3.557-7.279-4.936-11.13c-0.026-0.107-0.062-0.215-0.118-0.325c-0.338-0.655-0.554-1.37-0.597-2.083
					c0.052-0.113,0.092-0.239,0.108-0.384c0.368-3.321,5.684,2.142,6.225,2.755c2.944,3.334,4.947,7.911,6.911,11.859
					c3.853,7.741,7.262,15.698,11.12,23.443c3.963,7.954,8.085,15.828,12.123,23.743c1.879,3.686,3.731,7.387,5.553,11.103
					C61.599-180.62,65.939-173.404,62.026-173.341z M44.751-200.792c-6.803-10.092-10.961-21.403-15.848-32.464
					c-0.444-1.004-2.167-0.387-1.824,0.665c3.743,11.484,8.68,22.932,15.43,32.979C43.41-198.271,45.663-199.438,44.751-200.792z"/>
				<path fill="#FFF9F0" d="M230.496-289.333c-0.304-0.571-0.789-0.897-1.352-1.055c-0.256,0.788-0.518,1.573-0.777,2.352
					c-0.207,0.625-0.404,1.268-0.605,1.918c0.416,0.011,0.829-0.025,1.227-0.128C230.176-286.556,231.26-287.907,230.496-289.333z"
					/>
				<path fill="#FFF9F0" d="M43.567-252.579c5.394,10.418,10.94,20.74,16.427,31.105c4.779,9.029,9.45,18.383,15.324,26.766
					c1.688,2.41,3.518,4.824,5.652,6.861c0.869,0.83,2.005,2.083,3.238,2.391c1.247,0.312,1.15-2.597,1.068-3.991
					c-2.566-2.465-4.701-5.39-6.759-8.277c-0.697-0.98,0.543-2.267,1.41-1.32c2.247,2.456,4.408,4.971,6.708,7.375
					c3.966-2.997,7.644-5.899,7.675-11.364c0.026-4.61-1.591-9.061-3.614-13.149C86.91-223.83,81.687-230.568,77.549-238
					c-5.425-9.744-16.385-36.11-31.247-28.432c-0.305,8.326,4.286,16.983,8.049,24.042c4.003,7.51,9.398,14.359,13.232,21.901
					c0.676,1.333-1.156,2.712-2.173,1.546c-2.852-3.274-5.046-7.413-7.292-11.112c-2.802-4.615-5.517-9.3-7.884-14.155
					c-3.17-6.503-7.637-15.076-6.235-22.641c-1.641-0.976-6.471-3.924-6.285-0.662c0.086,1.525,0.482,3.036,0.981,4.475
					C39.967-259.371,41.787-256.016,43.567-252.579z"/>
				<path fill="#FFF9F0" d="M27.009-254.406c7.985,9.852,12.172,22.996,17.784,34.245c6.339,12.712,13.09,25.22,19.259,38.015
					c0.526,1.091,1.041,2.316,1.446,3.554c0.15-0.057,0.313-0.094,0.5-0.098c5.533-0.105,10.094-2.238,12.934-7.003
					c-0.676-0.683-1.301-1.39-1.859-2.039c-8.564-9.96-14.365-22.378-20.431-33.92c-4.093-7.788-8.352-15.471-12.325-23.325
					c-2.747-5.431-5.978-10.799-7.92-16.598c-0.12-0.358-0.264-0.78-0.414-1.237c-4.395-0.353-9.48,1.31-10.146,6.27
					c-0.036,0.269-0.136,0.488-0.271,0.668C26.15-255.358,26.649-254.85,27.009-254.406z"/>
				<path fill="#FFF9F0" d="M159.33-14.774c0.008,0.203,0.031,0.404,0.034,0.607c0.002,0.173-0.03,0.326-0.08,0.464
					c-0.015,0.315-0.154,0.624-0.474,0.856c-2.001,1.456-4.199,2.667-6.354,3.9c1.175,1.403,2.501,2.689,3.549,4.197
					c2.482-1.348,5.15-2.341,7.463-3.976c0.209-0.147,0.418-0.226,0.624-0.271C163.265-11.696,161.733-13.63,159.33-14.774z"/>
				<path fill="#FFF9F0" d="M80.546-74.186c5.187,4.004,12.226,7.625,12.618,0.975l0.016-0.097
					C89.021-72.915,84.672-73.192,80.546-74.186z"/>
				<path fill="#FFF9F0" d="M107.107-27.319c-1.904,0.25-2.382-2.564-0.495-2.939c10.373-2.056,20.78-2.814,30.151-7.925
					c-3.047-3.289-6.915-5.81-11.143-8.622c-4.167-2.771-8.25-5.756-10.871-9.836c-0.911,5.07-4.325,9.385-7.957,13.462
					c-0.996,1.118-1.921,2.216-2.777,3.311c1.565-0.066,3.187,0.065,4.691,0.12c2.34,0.084,4.687,0.174,7.007,0.492
					c1.224,0.167,1.415,2.22,0.074,2.271c-2.453,0.092-4.914,0.062-7.368,0.049c-2.042-0.01-4.233,0.247-6.251-0.055l-0.164-0.056
					c-3.262,5.092-4.417,10.313-1.366,16.937c12.692-5.158,30.219-5.785,41.135-9.728c-0.835-2.445-1.966-4.503-3.321-6.321
					C129.462-30.101,117.587-28.698,107.107-27.319z"/>
				<path fill="#FFF9F0" d="M261.109-240.606c-3.385-4.627-5.457-10.388-5.424-16.039c-1.896,3.077-0.527,7.486,1.401,10.718
					C257.925-244.524,259.369-242.33,261.109-240.606z"/>
				<path fill="#FFF9F0" d="M156.47-1.396l-0.195,0.103c-0.057,0.43-0.113,0.863-0.17,1.293h6.835
					c0.243-1.674,0.479-3.349,0.703-5.025C161.404-3.603,158.695-2.815,156.47-1.396z"/>
				<path fill="#FFF9F0" d="M259.172-257.908c3.989,5.742,7.754,11.668,10.041,18.279
					C272.627-244.268,265.65-256.648,259.172-257.908z"/>
				<path fill="#FFF9F0" d="M258.818-253.532c1.067,5.248,3.604,9.711,7.199,14.015C264.18-244.473,261.467-248.964,258.818-253.532
					z"/>
				<path fill="#FFF9F0" d="M239.373,0h-73.522c0.205-2.319,0.359-4.642,0.434-6.969c0.588-0.193,1.051-0.733,0.93-1.553
					c-0.681-4.665-3.794-8.072-8.195-9.121c-1.451-7.903-7.347-14.7-15.372-16.37c-3.766-12.653-24.952-15.319-28.116-28.638
					c-0.24-1.01-1.17-1.371-1.966-1.221c-0.679-0.095-1.426,0.373-1.296,1.28c1.359,9.504-6.383,15.436-11.763,22.072
					c-5.427,6.694-6.329,14.101-2.723,21.69C90.412-15.163,85.263-9.504,85.04,0H73.323c1.954-5.745,4.39-11.199,3.536-17.517
					c-0.646-4.766-4.324-7.675-8.372-9.649c-7.33-3.576-15.514-5.755-23.172-8.501c-7.069-2.535-14.117-5.125-21.158-7.737
					c3.293-1.983,5.381-5.501,5.747-9.599c0.026-0.29-0.037-0.575-0.166-0.823c2.402-1.881,3.338-5.224,3.163-8.655l-0.026-0.146
					c1.925-1.946,2.816-5.001,3.025-7.61c0.02-0.25-0.018-0.486-0.102-0.699c1.493-1.697,2.384-3.866,2.828-6.179
					c0.149-0.779-0.542-1.536-1.289-1.617c-0.83-0.09-1.722-0.154-2.538-0.149c0.391-0.826,0.695-1.692,1.036-2.542l0.004-0.008
					c10.806,3.036,8.724-13.799,7.659-20.035c-0.226-1.319-1.72-1.551-2.554-0.653c-3.336,3.593-7.557,6.221-10.158,10.494
					c-2.247,3.688-0.946,7.292,2.769,8.736l0.024,0.077c-0.051,0.14-0.099,0.283-0.152,0.422c-0.461,1.239-0.957,2.466-1.282,3.746
					c-5.137,0.8-9.29,3.888-9.618,10.106l0.023,0.151c-2.875,1.803-4.648,4.427-3.334,8.209c-2.895,1.895-5.094,4.654-5.895,8.583
					l-0.013,0.138c-1.018,0.848-1.794,1.895-2.196,3.188C7.388-49.667,3.678-51.089,0-52.594v-58.329
					c1.765-0.356,3.531-0.708,5.298-1.046c2.717,2.981,8.607,4.5,10.388-0.199c0.639-1.683,0.599-3.253,0.114-4.688
					c0.038-0.118,0.067-0.245,0.077-0.385c0.41-6.064-0.464-11.964,0.372-18.042c0.76-5.519,2.297-10.908,3.579-16.32
					c2.173-9.185,2.671-17.965-0.623-26.954C15.497-188.676,8.49-196.135,0-201.964v-98.312c5.818,2.472,11.663,4.878,17.584,7.098
					c4.566,1.713,9.258,3.059,13.767,4.92c3.821,1.577,7.654,3.295,11.686,4.271c2.329,0.563,5.523,1.324,7.641-0.289
					c3.08-2.349,4.536-6.107,5.791-9.647c3.793-10.689,4.784-15.328,9.669-25.625c1.175,0.151,2.34,0.192,3.417,0.146l0.092-0.013
					c0.632-0.013,1.257-0.389,1.37-1.192c0.252-1.802,0.584-3.555,0.787-5.338c0.213-0.153,0.384-0.393,0.479-0.734
					c0.311-1.124,0.667-2.228,1.04-3.322H85.04c-0.024,1.047-0.006,2.128,0.093,3.271c-0.394,0.163-0.724,0.543-0.751,1.029
					c-0.25,0.507-0.202,1.129,0.395,1.465c4.166,12.909,10.618,26.345,18.291,37.484c0.078,0.113,0.167,0.2,0.261,0.273
					c-0.098,0.629,0.446,1.407,1.212,1.317c8.946-1.046,17.792-3.31,26.695-4.727c9.303-1.48,18.684-2.382,28.104-2.534
					c1.302-0.021,1.916-1.316,1.658-2.252c1.331-11.776,3.81-23.504,4.853-35.326h73.522c0.379,1.003,0.943,2.051,1.766,3.193
					c4.035,5.604,13.012,8.129,19.133,10.678c7.056,2.938,14.453,4.993,21.477,7.995c6.09,2.604,12.156,5.267,18.252,7.857v98.312
					c-11.104-7.625-24.748-12.458-36.885-16.791c-2.658-2.12-5.826-3.381-9.039-2.17c-4.5,1.695-3.098,5.159-0.27,7.109
					c-9.305,7.117-16.83,17.124-24.057,26.205c-0.502,0.632-0.139,1.409,0.447,1.795c5.992,13.304,13.162,26.167,19.38,39.391
					c6.304,13.411,12.674,26.824,20.249,39.577c0.455,0.767,1.285,0.861,1.922,0.574c9.533-0.739,18.886-2.759,28.252-4.648v58.329
					c-2.048-0.838-4.089-1.694-6.109-2.604c-6.201-2.792-12.418-5.503-19.028-7.176c-5.604-1.419-11.156-1.47-16.216,1.519
					c-4.332,2.556-6.666,7.586-8.418,12.492c-2.831,6.228-5.504,12.469-2.037,19.019c0.181,0.342,0.377,0.647,0.579,0.935
					c-2.925,6.6-5.299,10.384-7.821,17.167C239.268-6.722,237.983-3.685,239.373,0z M183.745-264.869
					c13.128,19.233,35.048,2.72,48.462-6.881c3.217-2.301,7.104-4.477,10.711-6.943c3.237,6.766,6.619,13.594,10.918,19.746
					c-6.846,7.652,4.627,26.794,14.556,23.59c0.554,0.036,1.126-0.19,1.435-0.624c9.217-5.205-1.701-25.552-11.916-25.137
					c-0.246-0.058-0.494-0.001-0.763,0.142l-0.013,0.006c-0.277,0.149-0.7,0.042-1.027,0.141
					c-4.066-6.223-7.288-12.888-11.013-19.308c2.49-1.875,4.712-3.984,6.347-6.409c3.483-5.163-0.615-11.697-3.301-16.17
					c-4.418-7.355-9.605-14.864-18.236-17.419c-6.906-2.044-14.219,0.644-20.378,3.674c-7.631,3.755-14.615,8.781-21.907,13.132
					c-0.204,0.122-0.36,0.269-0.48,0.428c-4.891,3.029-9.335,6.782-10.571,12.706C174.821-281.815,179.127-271.633,183.745-264.869z
					 M56.778-172.254c1.272,1.274,2.703,1.72,4.836,1.99c0.355,0.045,0.646-0.024,0.873-0.167c3.449-0.033,4.15-2.497,3.683-5.466
					c5.834-0.076,12.275-2.543,14.579-8.19c1.177,0.885,2.47,1.546,3.876,1.638c3.307,0.216,3.604-4.158,3.568-6.7l0.135-0.083
					c4.04-3.068,7.441-5.758,8.608-10.907c0.971-4.286-0.148-8.944-1.696-12.95c-3.77-9.754-10.4-17.848-15.453-26.901
					c-5.491-9.84-18.805-39.041-34.241-28.821c-0.167-0.035-0.34-0.036-0.506-0.001c-2.414-1.7-6.379-4.272-8.953-1.811
					c-1.271,1.215-1.218,3.298-0.802,5.278c-5.141-0.655-11.035,2.569-11.991,7.76c-2.559-1.633-5.468-2.518-6.366-0.043
					c-0.488,0.636-0.774,1.331-0.896,2.28c-0.14,1.089,0.187,2.215,0.627,3.225c-6.091,3.655-6.308,11.893-4.729,18.183
					c2.108,8.406,7.09,15.871,11.059,23.468c4.847,9.281,7.905,19.531,14.111,28.08C41.081-176.906,49.587-168.328,56.778-172.254z
					 M108.29-114.535c2.421-2.863,3.257-6.857,1.293-11.93c-0.052-0.135-0.124-0.25-0.204-0.356c-0.319-4.68-2.64-8.854-5.739-12.54
					c-4.672-5.56-12.556-9.891-15.485-16.564c-1.474-3.359-3.701-5.675-7.508-3.625c-4.723,2.545-6.771,6.386-7.917,11.039
					c-4.686,13.415-6.421,28.07-9.454,41.878c-2.618,11.926-4.085,24.13-4.532,36.334c-0.22,5.998-0.27,18.433,8.701,17.72
					c3.735-0.298,7.128-3.607,10.093-5.567c4.972-3.288,10.674-4.237,15.198-8.431c0.154-0.144,0.248-0.3,0.299-0.46
					c1.757-0.841,2.958-2.782,3.166-6.326c0.012-0.207-0.017-0.383-0.068-0.543c3.955-3.679,6.056-9.467,6.229-14.79
					c3.054-1.84,4.979-4.64,2.329-8.167C108.232-102.083,108.703-108.394,108.29-114.535z M127.438-190.807
					c-0.014,0.156-0.039,0.31-0.047,0.465c-0.298,5.992,7.358,8.675,11.647,10.749c7.93,3.833,16.321,9.178,25.394,9.354
					c3.4,0.065,6.138-1.292,8.302-3.385c6.696,2.952,13.963,3.347,19.411-2.286c1.183-1.225,2.173-2.61,3.016-4.098
					c10.248-0.823,15.211-8.612,17.178-17.536c16.15-7.162,17.682-30.579,8.777-43.92c-0.416-0.621-1.396-0.663-1.941-0.216
					c-4.026,3.305-6.744,7.791-10.704,11.138c-3.716-4.021-9.407-3.679-14.162-1.245c-0.856-1.057-1.912-1.948-3.256-2.573
					c-3.512-1.635-8.695-0.012-12.446,0.765c-2.494-3.045-6.229-5.138-9.785-6.785c-0.426-0.196-0.799-0.177-1.096-0.028
					c-2.435-1.003-4.895-1.638-7.396-1.37c-0.071-0.13-0.175-0.256-0.32-0.37c-3.757-2.936-6.241-7.325-10.54-9.537
					c-1.739-0.894-3.807-0.98-5.837-0.601c-1.841-3.846-4.634-9.094-9.034-10.5c-0.068-3.98,0.891-7.839,1.335-11.785
					c0.096-0.861-0.72-1.659-1.586-1.488c-8.198,1.618-14.627,8.278-19.086,14.973c-4.297,6.454-8.098,16.032-4.537,23.609
					c-3.154,7.375-3.892,15.153,2.274,21.618l0.154,0.133c-1.587,3.59-2.575,7.347-2.038,11.132
					C112.188-197.009,121.23-193.263,127.438-190.807z M239.262-109.582c-0.498-8.862-3.273-17.461-8.729-24.86
					c-7.866-10.669-19.624-17.689-32.404-20.816c-28.841-7.059-58.034,8.496-66.951,37.054
					c-9.933,31.813,8.863,75.381,45.054,78.098C210.884-37.505,243.947-75.716,239.262-109.582z"/>
				<path fill="#FFF9F0" d="M120.263-253.016c2.553-3.472,6.605-9.688,11.6-10.105c0.026-3.296,0.627-6.497,1.085-9.756
					c-11.958,3.673-22.526,19.645-20.644,32.093C114.646-245.25,117.652-249.464,120.263-253.016z"/>
				<path fill="#FFF9F0" d="M102.094-95.381c-7.134,2.57-15.133,1.847-22.566,0.139c3.316,2.791,7.144,5.034,11.433,5.661
					c2.22,0.324,15.433-0.695,11.316-5.537L102.094-95.381z"/>
				<path fill="#FFF9F0" d="M119.133-226.379c5.059-8.409,10.178-17.947,18.579-23.49c1.016-0.67,2.23-1.289,3.527-1.758
					c-1.999-3.419-5.75-10.538-10.278-8.348c-4.555,2.201-7.777,7.501-10.488,11.562c-5.748,8.612-13.954,20.467-5.991,29.947
					C115.952-221.26,117.655-223.924,119.133-226.379z"/>
				<path fill="#FFF9F0" d="M148.59-9.113c-2.766,1.953-5.792,3.588-8.298,5.857c0.146,0.466,0.014,0.977-0.282,1.376
					c0.145,0.62,0.265,1.249,0.378,1.88h12.935c0.187-0.713,0.383-1.424,0.591-2.131C152.57-4.783,150.199-6.648,148.59-9.113z"/>
				<path fill="#FFF9F0" d="M235.987-112.902c7.317,41.162-42.656,89.764-81.638,61.769c-31.391-22.543-30.68-77.163,3.329-96.52
					c16.846-9.588,38.548-8.31,55.161,1.066c12.892,7.275,20.884,19.23,23.273,32.812
					C235.985-113.533,235.928-113.24,235.987-112.902z M222.182-110.257c-0.543-6.471-3.869-10.672-10.965-11.366
					c-3.771-0.37-7.573,0.076-11.351-0.322c-5.538-0.583-8.026-4.368-10.417-8.96c-4.42-8.492-12.139-12.301-21.621-9.224
					c-4.354,1.413-7.801,4.672-9.888,8.669c-2.86,5.475-0.558,11.931-3.697,17.377l-0.09,0.197
					c-5.273,5.488-14.369,10.955-12.777,19.368c0.893,4.713,5.579,8.146,9.573,10.087c6.955,3.379,6.884,9.229,8.334,15.927
					c1.363,6.296,10.059,14.846,17.078,11.743c5.925-2.62,7.698-10.112,12.958-13.465c0.182-0.018,0.373-0.071,0.567-0.171
					c3.008-1.559,4.87-1.916,8.119-0.527c2.277,0.973,4.258,1.348,6.635,0.549c5.631-1.893,5.915-7.99,5.217-12.847
					c-1.092-7.605,3.042-10.131,8.179-14.573C221.762-101.018,223.654-105.468,222.182-110.257z"/>
				<path fill="#FFF9F0" d="M153.083-234.143c-6.929,8.502-11.803,18.414-16.557,28.234c-1.862,3.846-3.948,7.669-5.434,11.683
					c-0.867,2.341-1.737,5.026,0.286,7.035c2.594,2.579,6.268,3.876,9.492,5.453c3.769,1.844,7.511,3.779,11.396,5.371
					c7.218,2.959,16.264,5.914,20.927-2.469c3.791-6.817,4.379-15.301,4.757-22.941c0.337-6.823,0.837-13.778,0.867-20.605
					c0.034-8.184-4.178-11.69-11.005-15.374c-0.13-0.07-0.236-0.156-0.333-0.247c-1.626-0.68-3.288-1.229-4.946-1.373
					C158.525-239.72,155.487-237.093,153.083-234.143z"/>
				<path fill="#FFF9F0" d="M130.431-199.496c2.405-5.137,4.909-10.248,7.507-15.289c2.72-5.28,5.535-10.572,8.927-15.458
					c2.409-3.471,5.119-7.615,8.807-9.896c0.674-0.417,1.343-0.74,2.01-0.995c-3.174-2.417-5.609-6.691-9.201-7.981
					c-4.772-1.715-9.54,1.182-12.882,4.419c-5.912,5.729-10.005,12.985-14.23,19.968c-3.127,5.17-8.506,12.6-7.583,19.09
					c0.955,6.707,8.557,9.785,14.213,11.989C128.604-195.673,129.555-197.625,130.431-199.496z"/>
				<path fill="#FFF9F0" d="M199.452-197.461c-0.239,4.539-0.939,9.577-2.688,14.068c10.434-2.344,13.553-13.491,13.63-23.7
					c0.044-5.881,0.003-12.957-2.289-18.475c-2.576-6.203-7.246-5.672-12.591-4.414c0.753,1.354,1.321,2.85,1.825,4.359
					C200.255-216.91,199.929-206.532,199.452-197.461z"/>
				<path fill="#FFF9F0" d="M245.59-326.488c10.755,8.68,26.46,10.825,38.933,16.154c5.152,2.202,10.31,4.389,15.478,6.548v-10.293
					c-0.12-0.047-0.239-0.096-0.359-0.143c-12.618-4.934-25.363-10.149-37.85-15.778h-19.289
					C243.118-328.848,244.1-327.69,245.59-326.488z"/>
				<path fill="#FFF9F0" d="M77.895-117.025c-0.791-1.281,0.359-2.595,1.708-2.435c9.404,1.117,18.815,1.729,26.654-4.261
					c-0.07-0.217-0.098-0.459-0.064-0.725c1.415-11.45-11.271-17.898-17.656-25.172c-2.098-2.392-3.505-9.375-7.406-6.892
					c-2.454,1.562-3.843,3.597-4.827,5.896c0.068,0.213,0.088,0.446,0.031,0.696c-5.362,23.485-11.653,46.811-13.78,70.884
					c-0.316,3.57-2.806,26.012,5.229,23.107c3.632-1.314,6.47-4.125,9.872-5.894c3.521-1.829,7.158-3.209,10.68-4.989
					c-5.719-1.341-12.877-7.099-15.453-10.478c-0.963-1.263,0.719-2.812,1.996-2.158c6.063,3.1,12.402,2.925,18.925,3.736
					c2.867-3.729,4.702-7.287,5.833-11.681c-0.881,0.333-1.772,0.6-2.616,0.793c-8.954,2.05-17.958-4.271-23.679-10.452
					c-0.926-1-0.197-3.002,1.34-2.551c9.32,2.742,17.826,3.388,27.255,1.581l0.082-0.147c3.014-4.296,3.688-9.204,3.937-14.261
					C98.244-107.047,83.271-108.319,77.895-117.025z"/>
				<path fill="#FFF9F0" d="M212.975-201.194c12.016-7.117,13.312-25.776,6.752-37.282c-3.244,3.131-5.896,7.678-9.825,9.863
					c3.345,5.507,3.407,13.691,3.5,19.784C213.439-206.341,213.312-203.754,212.975-201.194z"/>
				<path fill="#FFF9F0" d="M181.099-206.613c-0.267,8.295-0.5,17.202-3.463,25.063c-0.739,1.964-1.712,3.901-2.933,5.609
					c6.217,2.437,12.846,2.302,16.909-3.977c0.301-0.464,0.578-0.94,0.846-1.421c-0.132-0.652,0.104-1.326,0.796-1.552
					c2.302-4.882,3.137-10.424,3.348-15.779c0.302-7.634,0.415-15.62-1.186-23.131c-0.735-3.454-2.165-9.935-6.535-10.336
					c-2.912-0.267-5.875,0.34-8.795,0.745c0.499,0.937,0.889,1.949,1.136,3.05C182.76-221.459,181.325-213.622,181.099-206.613z"/>
				<path fill="#FFF9F0" d="M194.808-96.044c0.074-0.197,0.118-0.387,0.181-0.582c0.541-3.196-0.013-6.746-1.852-10.337
					l-0.094-0.236c-6.609-7.965-23.846-9.068-26.537,3.26c-2.33,10.678,4.016,22.05,16.082,19.219
					c6.534-1.533,10.87-5.646,12.182-10.855C194.745-95.723,194.746-95.878,194.808-96.044z"/>
				<path fill="#FFF9F0" d="M20.097-14.876c-1.622,0.018-3.093,0.556-4.521,1.258c-2.114,1.347-4.26,2.784-6.524,3.088
					c-0.102,0.027-0.202,0.059-0.306,0.083C8.479-9.954,7.965-9.63,7.227-9.789c-5.083-1.087-6.271-4.941-6.606-9.663
					C0.519-20.873,0.52-22.839,0-24.457v23.385C0.969-0.714,1.935-0.352,2.908,0h21.981c-0.409-1.378-0.604-2.802-0.538-4.133
					C24.527-7.668,25.81-14.937,20.097-14.876z"/>
				<path fill="#FFF9F0" d="M68.51-322.492c0.287-1.463,0.642-2.9,1.017-4.34c-0.104-0.285-0.128-0.612-0.03-0.965
					c0.198-0.71,0.444-1.449,0.713-2.204H58.754c0.487,1.552,1.059,3.135,2.028,4.357C62.737-323.181,65.642-322.851,68.51-322.492z
					"/>
				<path fill="#FFF9F0" d="M105.508-287.662c1.637-0.52,3.299-1.004,4.974-1.469c-4.082-10.93-10.26-20.784-14.841-31.468
					c-0.102-0.019-0.202-0.049-0.3-0.098c-2.39-1.202-5.02-1.571-7.531-2.323c5.271,11.96,11.629,23.156,17.562,34.804
					C105.467-288.028,105.507-287.843,105.508-287.662z"/>
				<path fill="#FFF9F0" d="M50.358-288.355c1.316-1.93,2.258-4.08,3.036-6.294c-3.84-1.383-8.152-1.943-12.032-3.225
					c-4.739-1.566-9.42-3.292-14.051-5.154c-9.114-3.667-18.166-7.467-27.312-11.05v10.293
					c13.088,5.468,26.252,10.737,39.631,15.459C42.808-287.205,47.937-284.809,50.358-288.355z"/>
				<path fill="#FFF9F0" d="M36.336-326.924c0.973-0.758,2.013-1.854,3.116-3.076H28.136
					C29.569-326.68,32.753-324.134,36.336-326.924z"/>
				<path fill="#FFF9F0" d="M28.38-305.691c4.633,1.844,9.291,3.657,14.044,5.172c3.828,1.22,8.069,1.829,11.838,3.193
					c0.229-0.759,0.45-1.519,0.666-2.272c0.864-3.019,1.594-5.359,2.331-7.457c-18.611-7.433-37.564-13.867-56.398-20.701
					c-0.286-0.104-0.574-0.208-0.861-0.312v10.874c0.24,0.093,0.479,0.191,0.719,0.284C10.007-313.33,19.133-309.372,28.38-305.691z
					"/>
				<path fill="#FFF9F0" d="M58.241-309.694c1.223-3.113,2.62-6.072,4.765-10.571c-1.919-0.663-3.639-1.748-4.734-3.428
					c-1.285-1.971-1.918-4.153-2.64-6.307H43.718c-0.365,0.396-0.683,0.754-0.937,1.042c-2.142,2.427-4.38,5.035-7.591,5.979
					c-5.203,1.528-8.956-2.492-10.301-7.021H2.908c0.292,0.105,0.58,0.217,0.873,0.322C21.99-323.147,40.268-316.865,58.241-309.694
					z"/>
				<path fill="#FFF9F0" d="M90.609-325.195c0.142-1.76,0.47-3.346,0.932-4.805h-3.566c-0.148,1.306-0.231,2.673-0.195,4.155
					C88.716-325.592,89.663-325.394,90.609-325.195z"/>
				<path fill="#FFF9F0" d="M118.958-291.224c-5.235-10.549-8.945-22.344-12.788-33.481c-1.529-1.56-3.313-2.787-4.927-4.228
					c-1.025,2.255-2.549,4.209-3.615,6.499c5.893,10.394,11.81,21.227,15.79,32.521
					C115.249-290.382,117.097-290.817,118.958-291.224z"/>
				<path fill="#FFF9F0" d="M140.879-294.608c2.045-0.201,4.086-0.362,6.123-0.502c-0.013-0.179-0.006-0.365,0.045-0.562
					c2.915-11.248,3.334-23.107,6.276-34.327h-12.935c0.983,5.438,0.886,11.237,0.905,16.69
					C141.316-307.12,141.472-300.782,140.879-294.608z"/>
				<path fill="#FFF9F0" d="M130.233-293.277c2.556-0.39,5.121-0.725,7.686-1.015c-0.183-6.426,0.37-12.894,0.349-19.327
					c-0.017-5.458-0.455-10.928-0.504-16.381h-12.909c-0.423,0.626-0.805,1.278-1.108,1.982
					C126.887-316.819,128.973-304.843,130.233-293.277z"/>
				<path fill="#FFF9F0" d="M157.995-295.593c1.243-11.515,3.28-22.938,4.945-34.407h-6.835c-1.52,11.591-3.075,23.375-5.933,34.689
					C152.8-295.453,155.413-295.55,157.995-295.593z"/>
				<path fill="#FFF9F0" d="M109.005-324.948c5.053,10.618,8.845,22.14,12.989,33.112c1.746-0.35,3.503-0.664,5.267-0.962
					c-2.522-11.38-3.788-23.108-6.033-34.567l-0.133-0.144c-0.614-0.932-1.352-1.731-2.127-2.491h-6.315
					c-1.235,1.261-2.485,2.51-3.63,3.856C109.236-325.734,109.196-325.309,109.005-324.948z"/>
				<path fill="#FFF9F0" d="M95.125-324.005c1.058-2.039,2.519-3.896,3.399-5.995h-3.854c-0.723,1.553-1.3,3.32-1.707,5.34
					C93.691-324.476,94.415-324.271,95.125-324.005z"/>
				<path fill="#FFF9F0" d="M108.966-330h-4.35c0.898,0.724,1.821,1.42,2.705,2.166C107.824-328.591,108.382-329.306,108.966-330z"
					/>
				<path fill="#FFF9F0" d="M129.539-5.849c-1.416,2.056-3.295,3.792-4.685,5.849h12.909c-0.004-0.496-0.024-0.993-0.021-1.488
					C135.131-3.174,132.237-4.322,129.539-5.849z"/>
				<path fill="#FFF9F0" d="M29.374-63.536c1.706-1.554,2.736-3.118,3.24-5.143l-0.144-0.006c-2.377,0.294-4.79,0.734-6.931,1.738
					c-2.793,1.309-3.83,2.911-4.038,5.505c2.415-1.11,5.128-1.761,7.856-2.076L29.374-63.536z"/>
				<path fill="#FFF9F0" d="M25.183-55.178c3.304-0.298,4.667-2.661,4.865-5.545c-5.645,0.556-10.736,2.458-13.433,7.418
					c2.365-0.887,5.122-1.275,7.621-1.377C24.433-54.946,24.742-55.138,25.183-55.178z"/>
				<path fill="#FFF9F0" d="M0-146.122v-27.666c0.411,0.275,0.94,0.39,1.509,0.184c2.199-0.797,4.206-2.217,5.973-3.729
					c1.129-0.965-0.227-2.977-1.513-2.169c-1.89,1.188-3.796,2.322-5.896,3.101c-0.027,0.01-0.047,0.024-0.073,0.036v-12.58
					c0.411,0.108,0.823,0.204,1.241,0.27c1.204,0.191,1.808-1.718,0.729-2.269c-0.642-0.327-1.304-0.615-1.97-0.895v-6.203
					c7.021,5.084,12.904,11.57,16.624,20.812c3.833,9.526,1.751,19.401-0.618,28.971c-1.052,4.245-2.027,8.495-2.696,12.817
					c-0.757,4.887-0.326,9.672-0.295,14.521c-1.318-1.249-2.886-2.296-4.395-3.099c-0.063-0.173-0.156-0.347-0.298-0.512
					c-3.088-3.594,0.773-9.745-0.86-14.086C6.035-142.409,2.986-144.137,0-146.122z M9.409-160.156
					c0.062,1.587,2.226,2.116,2.791,0.516c0.431-1.224,0.449-2.638,0.7-3.915c0.249-1.265,0.535-2.52,0.74-3.793
					c0.175-1.087-1.58-1.661-2.065-0.664c-0.567,1.164-0.997,2.352-1.334,3.601C9.883-163.087,9.356-161.53,9.409-160.156z"/>
				<path fill="#FFF9F0" d="M35.275-87.021c0.834-1.575,3.044-0.688,2.557,1.026c-0.179,0.631-0.415,1.248-0.665,1.86
					c5.548,0.213,4.814-8.614,3.979-14.143c-1.844,1.662-3.795,3.211-5.472,5.047c-1.212,1.326-2.703,2.855-3.166,4.649
					c-0.447,1.735,0.649,2.693,1.894,3.534C34.662-85.721,34.94-86.388,35.275-87.021z"/>
				<path fill="#FFF9F0" d="M115.65-3.26c-0.938,1.141-1.963,2.204-2.998,3.26h6.315C117.861-1.085,116.676-2.087,115.65-3.26z"/>
				<path fill="#FFF9F0" d="M26.845-51.869c-4.847-0.302-10.666,0.327-13.337,4.5c0.537,0.202,1.07,0.401,1.606,0.603
					c1.701,0.638,3.408,1.264,5.111,1.899C23.765-45.714,26.075-48.439,26.845-51.869z"/>
				<path fill="#FFF9F0" d="M117.007-6.354c1.28,2.101,3.316,3.448,5.004,5.15c1.738-2.672,4.2-4.833,5.737-7.679
					c0.418-0.775,1.532-0.784,2.179-0.367c2.723,1.751,5.757,2.901,8.562,4.501c2.674-3.156,6.605-4.949,9.611-7.77
					c0.715-0.671,1.955-0.33,2.343,0.523c0.102,0.225,0.224,0.434,0.341,0.646c1.819-1.111,3.699-2.148,5.602-3.116
					c-0.355-2.373-0.95-4.58-1.806-6.586c-1.918,1.862-4.363,2.965-7.067,3.357c-1.59,0.231-1.955-2.079-0.411-2.439
					c2.375-0.553,4.577-1.684,6.068-3.646c-2.023-3.273-4.96-5.827-9.002-7.415c0.056,0.684,0.082,1.385,0.04,2.126
					c0.362,0.732,0.229,1.671-0.763,2.098C125.366-19.197,90.771-24.759,87.974,0h3.566c5.316-16.821,30.512-14.694,45.256-17.192
					c1.624-0.275,2.529,2.307,0.884,2.842c-14.6,4.742-35.912-0.91-43.011,14.35h3.854c0.252-0.602,0.464-1.219,0.596-1.871
					c0.249-1.227,1.761-1.893,2.659-0.813c0.844,1.013,1.824,1.867,2.837,2.685h4.35c1.833-2.183,3.928-4.162,5.476-6.588
					C115.104-7.626,116.466-7.241,117.007-6.354z"/>
				<path fill="#FFF9F0" d="M35.309-75.982c-2.21-0.146-4.523-0.005-6.441,1.114c-2.038,1.188-3.001,3.071-3.682,5.15
					c2.3-0.941,4.858-1.536,7.035-1.891C33.66-72.887,34.692-74.242,35.309-75.982z"/>
				<path fill="#FFF9F0" d="M8.339-113.591l0.039,0.178l0.006,0.046l0.002,0.076l-0.004,0.067c0.844,0.637,1.762,1.148,2.819,1.124
					c1.22-0.026,1.939-0.978,1.965-2.159c0.046-2.072-0.915-3.855-2.476-5.164c-0.995-0.834-2.235-1.569-3.162-2.539
					c-0.497,0.162-1.062,0.071-1.512-0.452c-4.25-4.946,1.102-10.711-1.623-15.781c-1.063-1.979-2.668-3.347-4.394-4.579v23.904
					c2.199,1.894,5.509,2.571,7.801,4.448C8.092-114.182,8.261-113.892,8.339-113.591z"/>
				<path fill="#FFF9F0" d="M43.718,0h11.914c-0.423-1.264-0.875-2.519-1.508-3.715C51.815-8.074,46.427-2.94,43.718,0z"/>
				<path fill="#FFF9F0" d="M73.267-19.232c-2.327-4.706-8.184-6.192-12.736-7.866c-13.542-4.978-27.148-9.765-40.679-14.772
					c-0.379,0.009-0.685-0.122-0.91-0.339c-2.201-0.817-4.404-1.623-6.6-2.454C8.199-46.231,4.099-47.983,0-49.757v20.357
					c1.48,1.012,2.607,2.508,3.138,4.543c0.854,3.287-0.151,9.152,2.964,11.211l0.183,0.063c0.966,0.443,1.924,0.51,2.875,0.36
					c3.429-1.496,6.426-4.465,10.256-4.528c2.964-0.049,6.425,1.513,7.458,4.531c1.066,3.115,0.52,6.209,0.458,9.422
					C27.31-2.58,27.602-1.237,28.136,0h11.317c3.877-4.293,8.55-10.143,13.964-8.373c2.863,0.936,3.901,3.845,4.749,6.479
					C58.361-1.287,58.551-0.646,58.754,0H70.21C72.354-6.015,76.214-13.27,73.267-19.232z"/>
				<path fill="#FFF9F0" d="M0-115.479v2.052c0.96-0.151,1.919-0.303,2.882-0.434C1.917-114.377,0.934-114.909,0-115.479z"/>
				<path fill="#FFF9F0" d="M217.631-116.341c1.612,1.924,2.213,4.703,2.516,7.342c-0.174,2.092-0.633,3.786-1.385,5.286
					c-0.356-0.381-0.773-0.665-1.324-0.712c-0.564-0.047-0.959,0.382-1.158,0.848l0.012-0.03c0.072-0.168,0.048-0.117,0,0
					l-0.014,0.035l0.002-0.005c-0.047,0.118-0.105,0.27-0.115,0.325c-0.072,0.447,0.019,0.876,0.434,1.132
					c0.11,0.069,0.234,0.113,0.363,0.132l0.071,0.098c0.095,0.142,0.185,0.286,0.274,0.429c-1.057,1.319-2.408,2.551-4.082,3.88
					c-3.196,2.535-5.919,5.315-6.594,9.483c-0.405,2.505,0.353,5.236,0.611,7.714c0.555,5.314-3.567,8.534-8.375,6.529
					c-3.109-1.296-6.301-1.912-9.042-0.177c-5.238,2.26-7.793,7.311-11.326,11.56c-1.365,1.641-2.846,2.72-4.557,2.962
					c0.293-1.394,0.47-2.83,0.51-4.231c0.034-1.214-1.737-1.463-2.086-0.319c-0.428,1.403-0.738,2.842-1.107,4.265
					c-0.287-0.094-0.578-0.203-0.877-0.34c-1.976-0.907-3.569-2.102-4.833-3.53c0.264-0.22,0.523-0.441,0.777-0.638
					c0.331-0.256,0.56-0.409,0.923-0.674c-0.157,0.115,0.236-0.163,0.327-0.235c0.204-0.164,0.313-0.367,0.391-0.615
					c0.149-0.479-0.087-0.875-0.444-1.165c-0.761-0.619-1.875,0.151-2.545,0.56c-0.307,0.188-0.652,0.39-0.993,0.605
					c-1.141-1.935-1.854-4.16-2.219-6.594c-0.65-4.336-1.428-8.366-4.504-11.682c-1.782-1.921-4.112-2.987-6.367-4.219
					c0.675-1.133,0.971-2.534,1.057-3.799c0.076-1.118-1.65-1.366-1.933-0.296c-0.186,0.704-0.48,1.394-0.815,2.04
					c-0.139,0.267-0.315,0.505-0.497,0.739c-0.867-0.591-1.689-1.26-2.422-2.085c-1.229-1.383-1.86-2.705-2.057-3.979
					c0.16,0.079,0.318,0.155,0.463,0.233c0.913,0.488,1.854,1.001,2.837,1.331c1.21,0.406,1.887-1.31,0.888-1.984
					c-0.779-0.524-1.598-0.995-2.393-1.495c-0.498-0.312-0.99-0.705-1.521-0.989c1.628-4.794,8.508-8.964,11.602-13.254
					c0.271-0.104,0.522-0.304,0.714-0.627c2.014-3.378,2.425-6.795,2.562-10.666c0.027-0.765,0.088-1.505,0.182-2.221
					c0.333,0.122,0.68,0.211,1.021,0.32c0.903,0.289,1.817,0.621,2.762,0.736c1.073,0.13,1.554-1.561,0.601-2.042
					c-0.799-0.404-1.655-0.709-2.483-1.049c-0.214-0.088-0.427-0.176-0.641-0.265c-0.049-0.02-0.585-0.26-0.303-0.123
					c-0.142-0.069-0.282-0.124-0.424-0.167c1.098-3.877,3.501-6.878,7.661-8.945c1.938-0.964,4.178-1.428,6.425-1.416
					c0.043,0.415,0.178,0.814,0.315,1.238c0.208,0.646,0.436,1.294,0.721,1.91c0.436,0.94,1.795,0.472,1.846-0.454
					c0.034-0.611-0.079-1.237-0.216-1.832c-0.046-0.2-0.083-0.421-0.121-0.644c2.417,0.416,4.708,1.41,6.487,2.979
					c1.179,1.04,2.104,2.368,2.927,3.795c-0.137-0.042-0.272-0.09-0.411-0.128c-0.75-0.21-1.699-0.467-2.308,0.184
					c-0.449,0.48-0.517,1.195-0.051,1.696c0.504,0.542,1.183,0.454,1.847,0.568c0.685,0.119,1.363,0.279,2.044,0.418
					c0.122,0.025,0.229,0.015,0.337,0.009c0.699,1.377,1.39,2.739,2.191,3.937c3.255,4.866,9.023,5.624,14.426,5.625
					c3.257,0.002,6.545-0.288,9.748,0.457c0.511,0.119,0.974,0.286,1.404,0.485L215.194-118c-0.72,0.372-1.7,0.913-2.079,1.649
					c-0.221,0.426-0.275,0.885-0.037,1.32c0.256,0.47,0.926,0.855,1.468,0.646c0.733-0.283,1.275-0.839,1.929-1.269
					C216.848-115.899,217.238-116.124,217.631-116.341z M203.911-113.161c1.437,0.667,3.14,0.996,4.675,1.396
					c1.138,0.298,1.746-1.175,0.822-1.835c-1.33-0.951-3.194-1.68-4.807-1.905C203.385-115.674,202.797-113.678,203.911-113.161z
					 M196.279-111.889c0.358,0.863,0.731,1.767,1.355,2.474c0.704,0.799,2.055,0.032,1.791-0.976
					c-0.198-0.756-0.52-1.486-0.765-2.229c-0.238-0.721-0.356-1.944-1.122-2.299c-0.587-0.271-1.297-0.226-1.662,0.39
					C195.361-113.661,195.935-112.715,196.279-111.889z M185.37-118.153c0.288,0.884,1.853,1.176,2.035,0.044
					c0.146-0.907,0.213-1.827,0.329-2.739c0.043-0.34,0.09-0.652,0.147-0.986c0.032-0.185,0.075-0.369,0.074-0.557
					c0-0.082-0.057-0.338-0.095-0.499l0.005,0.012c-0.059-0.229-0.04-0.161-0.005-0.012c-0.22-0.812-1.403-1.301-2.023-0.585
					c-0.116,0.133-0.409,0.464-0.092,0.106c-0.275,0.312-0.404,0.618-0.44,1.027c-0.038,0.417-0.068,0.835-0.092,1.253
					C185.158-120.145,185.073-119.066,185.37-118.153z M177.263-130.617c0.104,0.816,0.522,1.625,0.848,2.375
					c0.328,0.754,0.71,1.472,1.201,2.132c0.663,0.891,2.277-0.004,1.905-1.039c-0.242-0.672-0.541-1.323-0.791-1.994
					c-0.292-0.783-0.462-1.631-0.854-2.372c-0.262-0.495-0.857-0.749-1.397-0.615C177.458-131.951,177.177-131.292,177.263-130.617z
					 M175.553-121.325c0.662,0.688,1.355,1.324,2.056,1.97c0.986,0.911,2.307-0.37,1.498-1.411c-0.543-0.7-1.062-1.415-1.62-2.104
					c-0.493-0.609-1.048-1.66-1.954-1.595c-0.522,0.038-1.032,0.312-1.171,0.861C174.108-122.598,174.931-121.973,175.553-121.325z
					 M172.233-118.747c-0.584,0.089-1.061,0.487-1.51,0.845c-0.517,0.414-1,0.82-1.043,1.535c-0.05,0.834,0.755,1.276,1.479,1.178
					c0.324-0.044,0.577-0.236,0.781-0.477c0.083-0.102,0.135-0.164,0.17-0.208c0.081-0.099,0.165-0.195,0.249-0.292
					c0.32-0.366,0.67-0.691,0.972-1.073c0.216-0.273,0.186-0.725,0.029-1.014C173.128-118.675,172.686-118.815,172.233-118.747z
					 M169.977-127.026c-0.4,0.929-0.936,1.702-1.571,2.486c-0.453,0.561-0.127,1.475,0.427,1.818
					c0.651,0.403,1.389,0.151,1.818-0.426c0.705-0.95,1.305-2.06,1.532-3.229C172.469-127.852,170.561-128.378,169.977-127.026z
					 M168.652-132.177c0.8-0.705,1.569-1.077,2.622-1.318c1.189-0.271,0.971-2.086-0.238-2.105
					c-1.514-0.022-3.036,0.505-4.165,1.532C165.626-132.937,167.4-131.075,168.652-132.177z M159.723-116.12
					c0.49,0.521,1.268,0.502,1.791,0.053c0.369-0.315,0.57-0.542,0.958-0.758c0.375-0.208,0.767-0.355,1.178-0.475
					c0.45-0.129,0.781-0.512,0.79-0.991c0.01-0.52-0.457-1.11-1.021-1.058c-1.43,0.133-2.91,0.533-3.851,1.691
					C159.216-117.223,159.371-116.493,159.723-116.12z M155.877-108.115c-0.071,1.229,0.418,2.613,0.769,3.782
					c0.34,1.13,2.251,1.048,2.155-0.244c-0.044-0.588-0.14-1.167-0.23-1.75c-0.105-0.675-0.143-1.399-0.322-2.057
					C157.884-109.717,155.956-109.479,155.877-108.115z M152.877-102.776c-0.517-0.249-1.167-0.225-1.756-0.234
					c-1.079-0.016-2.519-0.126-3.179,0.883c-0.354,0.542-0.173,1.357,0.394,1.682c0.882,0.503,1.973,0.043,2.927-0.058
					c0.682-0.072,1.413-0.088,1.897-0.516C153.818-101.5,153.715-102.565,152.877-102.776z M158.002-94.718
					c-0.221-0.645-0.662-0.992-1.138-1.448c-0.456-0.437-0.901-0.896-1.422-1.255c-0.422-0.291-1.033-0.2-1.395,0.14
					c-0.489,0.46-0.433,1.133-0.048,1.625c0.325,0.418,0.706,0.797,1.058,1.193c0.422,0.475,0.818,0.997,1.455,1.171
					C157.318-93.07,158.305-93.831,158.002-94.718z M162.946-89.063l0.036,0.029c-0.017-0.144-0.077-0.285-0.165-0.415
					c-0.193-0.382-0.565-0.651-1.12-0.609c-1.194,0.09-2.491,0.114-3.602,0.599c-1.124,0.491-0.516,2.059,0.526,2.139
					c0.996,0.078,2.028-0.045,3.03-0.043C162.66-87.36,163.088-88.293,162.946-89.063z M164.385-81.626
					c0.522-0.069,0.972-0.445,1.407-0.72c0.461-0.291,0.911-0.594,1.357-0.907c1.165-0.813,0.265-2.464-1.05-1.925
					c-0.448,0.184-0.894,0.37-1.333,0.573c-0.511,0.238-1.159,0.431-1.531,0.869C162.405-82.757,163.113-81.458,164.385-81.626z
					 M166.634-77.348c0.437-1.123-1.269-1.802-1.881-0.842c-0.676,1.059-1.076,2.23-1.552,3.382
					c-0.648,1.568,2.206,2.409,2.512,0.74C165.917-75.185,166.222-76.289,166.634-77.348z M171.126-72.382
					c-1.155,0.062-2.411,0.079-3.541,0.326c-0.675,0.147-1.091,0.881-0.928,1.539c0.181,0.728,0.852,1.016,1.539,0.928
					c1.044-0.135,2.163-0.353,3.172-0.653C172.501-70.578,172.408-72.451,171.126-72.382z M172.764-77.144
					c-0.407-1.262-0.739-2.55-1.185-3.798c-0.454-1.269-2.265-0.848-2.04,0.504c0.218,1.307,0.555,2.593,0.813,3.892
					C170.666-74.968,173.255-75.62,172.764-77.144z M179.524-68.051c-1.087-0.517-2.095-1.321-3.007-2.1
					c-1.01-0.861-2.279,0.345-1.488,1.402c0.81,1.083,1.843,1.841,2.794,2.78C179.326-64.484,181.201-67.252,179.524-68.051z
					 M181.664-76.089c-0.868,0.535-1.771,0.778-2.768,0.945c-0.698,0.116-1.109,0.927-0.948,1.573
					c0.175,0.703,0.88,1.096,1.573,0.948c1.258-0.267,2.428-0.903,3.404-1.728C183.863-75.145,182.709-76.733,181.664-76.089z
					 M188.834-77.485c-0.402-0.64-0.86-1.234-1.325-1.828c-0.367-0.469-0.667-1.159-1.221-1.454
					c-0.764-0.408-1.731,0.04-1.756,0.957c-0.021,0.756,0.596,1.319,1.072,1.835c0.522,0.567,1.071,1.11,1.589,1.68
					C187.965-75.444,189.458-76.492,188.834-77.485z M195.244-89.735c0.487-0.044,0.773-0.157,1.271-0.136
					c0.414,0.018,0.845,0.22,1.373,0.111c0.525-0.108,0.832-0.68,0.713-1.182c-0.187-0.792-1.04-1.228-1.959-1.373
					c0.91-2.098,1.405-4.373,1.389-6.72c0.308,0.1,0.638,0.151,0.953,0.22c0.48,0.106,0.96,0.203,1.443,0.293
					c1.313,0.247,1.82-1.477,0.583-1.981c-0.455-0.186-0.912-0.363-1.372-0.535c-0.461-0.171-0.928-0.406-1.425-0.396
					c-0.101-4.683-3.088-8.542-7.272-11.069l0.077-0.097c0.391-0.467,0.762-0.949,1.12-1.442c0.289-0.396,0.186-0.998-0.135-1.338
					c-0.43-0.457-1.1-0.433-1.56-0.046c-0.444,0.374-0.877,0.757-1.295,1.16c-0.194,0.188-0.381,0.364-0.556,0.547
					c-7.536-3.357-17.529-2.806-22.431,4c-0.514-0.392-1.162-0.688-1.644-0.973c-0.759-0.45-1.744-1.188-2.673-0.957
					c-0.823,0.205-0.952,1.112-0.505,1.717c-0.243-0.328,0.044,0.076,0.133,0.169c0.154,0.162,0.347,0.287,0.526,0.42
					c0.383,0.285,0.772,0.562,1.16,0.841c0.478,0.346,1.035,0.845,1.63,1.14c-0.572,1.245-1.009,2.639-1.279,4.196
					c-0.19,1.093-0.296,2.172-0.334,3.231c-0.758-0.06-1.516-0.136-2.261-0.265c-1.268-0.22-1.789,1.448-0.567,1.926
					c0.927,0.364,1.896,0.557,2.87,0.735c0.617,8.424,6.097,15.068,14.495,15.87c-0.396,0.572-0.787,1.205-0.955,1.856
					c-0.426,1.646,1.897,2.284,2.499,0.735c0.203-0.523,0.42-0.971,0.754-1.559c0.178-0.313,0.412-0.642,0.578-0.986
					c0.629-0.037,1.269-0.102,1.924-0.202C188.137-82.684,192.576-85.694,195.244-89.735z M195.359-80.987
					c-0.48-0.4-0.985-0.76-1.479-1.142c-0.518-0.399-0.9-1.018-1.64-0.962c-0.499,0.038-1.064,0.31-1.171,0.861
					c-0.199,1.023,0.408,1.543,1.189,2.056c0.621,0.406,1.325,0.693,2.016,0.955C195.238-78.854,196.181-80.304,195.359-80.987z
					 M199.163-83.594c0.854,0.026,1.667,0.334,2.509,0.351c0.929,0.018,1.426-1.127,0.796-1.801
					c-0.724-0.774-1.937-0.977-2.945-1.115c-1.093-0.148-2.494-0.369-3.486,0.199c-0.965,0.552-0.809,1.984,0.248,2.321
					C197.171-83.356,198.231-83.623,199.163-83.594z M204.023-77.685c-0.036-0.517-0.088-1.03-0.132-1.546
					c-0.042-0.489-0.279-0.913-0.78-1.061c-0.514-0.151-1.253,0.15-1.348,0.735c-0.081,0.498-0.158,0.995-0.204,1.498
					c-0.048,0.542-0.212,1.18-0.012,1.696c0.165,0.423,0.394,0.757,0.855,0.893c0.486,0.143,1.171-0.046,1.406-0.537
					C204.089-76.594,204.066-77.059,204.023-77.685z M205.288-91.635c-0.004-0.754-0.571-1.311-0.92-1.949
					c-0.274-0.502-0.488-1.036-0.655-1.583c-0.14-0.459-0.518-0.8-1.015-0.809c-0.535-0.009-1.133,0.468-1.083,1.046
					c0.066,0.774,0.239,1.49,0.515,2.216c0.327,0.863,0.673,1.889,1.62,2.208C204.481-90.258,205.292-90.874,205.288-91.635z
					 M205.962-108.914c0.006-1.152-1.812-1.506-2.058-0.315c-0.262,1.268-0.827,2.443-1.121,3.695
					c-0.386,1.646,1.946,2.333,2.513,0.74C205.749-106.07,205.955-107.563,205.962-108.914z M211.016-103h-0.008
					c-0.628,0-1.351,0.209-1.967,0.284c-0.808,0.1-1.764,0.288-2.47,0.729c-0.625,0.39-0.908,1.22-0.54,1.895
					c0.385,0.707,1.149,0.871,1.834,0.601c-0.509,0.2,0.474-0.181,0.287-0.106c-0.266,0.107,0.25-0.073,0.3-0.088
					c0.396-0.12,0.801-0.211,1.205-0.299c0.511-0.112,1.121-0.441,1.605-0.698C212.42-100.932,212.207-103,211.016-103z
					 M214.705-110.102c-0.598-0.194-1.385,0.039-1.954,0.114c-0.708,0.094-1.486,0.147-2.165,0.38
					c-0.554,0.19-0.97,0.613-0.981,1.231c-0.012,0.682,0.566,1.331,1.27,1.314c0.839-0.02,1.674-0.269,2.487-0.458
					c0.44-0.103,0.906-0.217,1.318-0.405c0.252-0.114,0.477-0.257,0.627-0.5l0.022-0.037
					C215.867-109.066,215.544-110.118,214.705-110.102z"/>
				<path fill="#BC6B00" d="M176.232-40.106c-36.191-2.716-54.987-46.285-45.054-78.098c8.917-28.559,38.109-44.113,66.951-37.054
					c12.78,3.127,24.538,10.147,32.404,20.816c5.455,7.399,8.23,15.998,8.729,24.86C243.947-75.716,210.884-37.505,176.232-40.106z
					 M235.987-112.902c-0.06-0.338-0.002-0.63,0.126-0.873c-2.39-13.581-10.382-25.537-23.273-32.812
					c-16.613-9.375-38.315-10.654-55.161-1.066c-34.009,19.357-34.72,73.976-3.329,96.52
					C193.332-23.138,243.305-71.74,235.987-112.902z"/>
				<path fill="#BC6B00" d="M182.51-81.825c-0.655,0.1-1.295,0.165-1.924,0.202c-0.166,0.345-0.399,0.673-0.578,0.986
					c-0.334,0.587-0.551,1.036-0.754,1.559c-0.602,1.548-2.925,0.91-2.499-0.735c0.168-0.651,0.559-1.284,0.955-1.856
					c-8.398-0.802-13.878-7.446-14.495-15.87c-0.974-0.179-1.943-0.372-2.87-0.735c-1.221-0.479-0.701-2.146,0.567-1.926
					c0.746,0.129,1.503,0.205,2.261,0.265c0.038-1.059,0.144-2.138,0.334-3.231c0.27-1.557,0.707-2.951,1.279-4.196
					c-0.596-0.294-1.153-0.794-1.63-1.14c-0.387-0.28-0.776-0.556-1.16-0.841c-0.179-0.133-0.372-0.258-0.526-0.42
					c-0.089-0.093-0.376-0.497-0.133-0.169c-0.447-0.604-0.318-1.512,0.505-1.717c0.929-0.231,1.914,0.506,2.673,0.957
					c0.482,0.286,1.13,0.582,1.644,0.973c4.902-6.806,14.895-7.358,22.431-4c0.175-0.183,0.362-0.36,0.556-0.547
					c0.418-0.403,0.851-0.786,1.295-1.16c0.46-0.387,1.13-0.411,1.56,0.046c0.32,0.34,0.423,0.942,0.135,1.338
					c-0.358,0.493-0.729,0.975-1.12,1.442l-0.077,0.097c4.185,2.527,7.172,6.387,7.272,11.069c0.497-0.01,0.964,0.225,1.425,0.396
					c0.46,0.172,0.917,0.35,1.372,0.535c1.237,0.504,0.73,2.228-0.583,1.981c-0.483-0.09-0.963-0.188-1.443-0.293
					c-0.314-0.068-0.645-0.12-0.953-0.22c0.016,2.347-0.479,4.622-1.389,6.72c0.919,0.145,1.772,0.581,1.959,1.373
					c0.119,0.502-0.188,1.074-0.713,1.182c-0.528,0.109-0.959-0.093-1.373-0.111c-0.498-0.021-0.785,0.092-1.271,0.136
					C192.576-85.694,188.137-82.684,182.51-81.825z M194.77-95.575c-0.025-0.147-0.024-0.303,0.038-0.469
					c0.074-0.197,0.118-0.387,0.181-0.582c0.541-3.196-0.013-6.746-1.852-10.337l-0.094-0.236
					c-6.609-7.965-23.846-9.068-26.537,3.26c-2.33,10.678,4.016,22.05,16.082,19.219C189.122-86.252,193.458-90.366,194.77-95.575z"
					/>
				<polygon fill="#BC6B00" points="216.277,-103.572 216.279,-103.577 216.291,-103.606 				"/>
				<path fill="#BC6B00" d="M216.291-103.606C216.363-103.775,216.339-103.724,216.291-103.606L216.291-103.606z"/>
				<path fill="#BC6B00" d="M222.182-110.257c1.473,4.789-0.42,9.24-4.145,12.46c-5.138,4.442-9.271,6.968-8.179,14.573
					c0.698,4.856,0.414,10.954-5.217,12.847c-2.377,0.799-4.358,0.424-6.635-0.549c-3.249-1.388-5.111-1.031-8.119,0.527
					c-0.194,0.101-0.385,0.154-0.567,0.171c-5.26,3.353-7.034,10.845-12.958,13.465c-7.019,3.103-15.715-5.447-17.078-11.743
					c-1.45-6.698-1.38-12.547-8.334-15.927c-3.995-1.94-8.681-5.374-9.573-10.087c-1.592-8.413,7.504-13.879,12.777-19.368
					l0.09-0.197c3.139-5.446,0.837-11.902,3.697-17.377c2.087-3.997,5.534-7.256,9.888-8.669c9.482-3.077,17.2,0.732,21.621,9.224
					c2.391,4.592,4.879,8.376,10.417,8.96c3.777,0.398,7.579-0.047,11.351,0.322C218.312-120.929,221.639-116.728,222.182-110.257z
					 M220.146-108.999c-0.303-2.639-0.903-5.417-2.516-7.342c-0.393,0.217-0.783,0.442-1.156,0.688
					c-0.653,0.429-1.195,0.986-1.929,1.269c-0.542,0.209-1.212-0.177-1.468-0.646c-0.238-0.435-0.184-0.895,0.037-1.32
					c0.379-0.736,1.359-1.277,2.079-1.649l0.174-0.081c-0.431-0.2-0.894-0.366-1.404-0.485c-3.203-0.745-6.49-0.455-9.748-0.457
					c-5.403-0.002-11.171-0.759-14.426-5.625c-0.802-1.198-1.492-2.56-2.191-3.937c-0.109,0.006-0.215,0.017-0.337-0.009
					c-0.681-0.139-1.36-0.299-2.044-0.418c-0.664-0.115-1.343-0.026-1.847-0.568c-0.466-0.501-0.398-1.216,0.051-1.696
					c0.608-0.651,1.558-0.394,2.308-0.184c0.139,0.039,0.274,0.087,0.411,0.128c-0.823-1.427-1.748-2.755-2.927-3.795
					c-1.78-1.57-4.071-2.563-6.487-2.979c0.039,0.223,0.075,0.444,0.121,0.644c0.138,0.595,0.25,1.221,0.216,1.832
					c-0.051,0.925-1.41,1.394-1.846,0.454c-0.285-0.616-0.514-1.264-0.721-1.91c-0.137-0.424-0.271-0.823-0.315-1.238
					c-2.247-0.013-4.487,0.452-6.425,1.416c-4.159,2.067-6.563,5.068-7.661,8.945c0.143,0.044,0.283,0.098,0.424,0.167
					c-0.282-0.137,0.253,0.103,0.303,0.123c0.214,0.089,0.427,0.177,0.641,0.265c0.828,0.339,1.684,0.645,2.483,1.049
					c0.953,0.48,0.472,2.171-0.601,2.042c-0.945-0.115-1.859-0.447-2.762-0.736c-0.34-0.108-0.688-0.198-1.021-0.32
					c-0.094,0.716-0.155,1.456-0.182,2.221c-0.136,3.871-0.547,7.288-2.562,10.666c-0.192,0.323-0.443,0.523-0.714,0.627
					c-3.094,4.29-9.974,8.459-11.602,13.254c0.53,0.284,1.023,0.677,1.521,0.989c0.795,0.5,1.613,0.97,2.393,1.495
					c1,0.674,0.323,2.39-0.888,1.984c-0.984-0.33-1.925-0.843-2.837-1.331c-0.146-0.078-0.304-0.155-0.463-0.233
					c0.197,1.274,0.828,2.596,2.057,3.979c0.733,0.826,1.555,1.495,2.422,2.085c0.181-0.234,0.358-0.473,0.497-0.739
					c0.335-0.646,0.629-1.336,0.815-2.04c0.283-1.07,2.009-0.822,1.933,0.296c-0.086,1.265-0.382,2.666-1.057,3.799
					c2.255,1.232,4.585,2.298,6.367,4.219c3.076,3.316,3.854,7.346,4.504,11.682c0.365,2.434,1.078,4.659,2.219,6.594
					c0.341-0.215,0.687-0.418,0.993-0.605c0.67-0.409,1.784-1.179,2.545-0.56c0.357,0.291,0.593,0.687,0.444,1.165
					c-0.077,0.248-0.187,0.451-0.391,0.615c-0.091,0.073-0.484,0.351-0.327,0.235c-0.363,0.265-0.592,0.418-0.923,0.674
					c-0.254,0.197-0.514,0.418-0.777,0.638c1.264,1.428,2.857,2.623,4.833,3.53c0.299,0.138,0.59,0.246,0.877,0.34
					c0.369-1.422,0.679-2.861,1.107-4.265c0.349-1.144,2.12-0.895,2.086,0.319c-0.04,1.401-0.217,2.838-0.51,4.231
					c1.711-0.242,3.191-1.321,4.557-2.962c3.532-4.249,6.087-9.3,11.326-11.56c2.742-1.735,5.934-1.12,9.042,0.177
					c4.808,2.005,8.93-1.215,8.375-6.529c-0.259-2.478-1.017-5.209-0.611-7.714c0.675-4.168,3.398-6.949,6.594-9.483
					c1.674-1.329,3.025-2.561,4.082-3.88c-0.09-0.143-0.18-0.287-0.274-0.429l-0.071-0.098c-0.129-0.02-0.253-0.063-0.363-0.132
					c-0.415-0.256-0.506-0.685-0.434-1.132c0.01-0.055,0.068-0.207,0.115-0.325c0.199-0.466,0.594-0.896,1.158-0.848
					c0.551,0.047,0.968,0.331,1.324,0.712C219.514-105.213,219.973-106.907,220.146-108.999z"/>
				<path fill="#BC6B00" d="M214.705-110.102c-0.598-0.194-1.385,0.039-1.954,0.114c-0.708,0.094-1.486,0.147-2.165,0.38
					c-0.554,0.19-0.97,0.613-0.981,1.231c-0.012,0.682,0.566,1.331,1.27,1.314c0.839-0.02,1.674-0.269,2.487-0.458
					c0.44-0.103,0.906-0.217,1.318-0.405c0.252-0.114,0.477-0.257,0.627-0.5l0.022-0.037
					C215.867-109.066,215.544-110.118,214.705-110.102z"/>
				<path fill="#BC6B00" d="M203.911-113.161c1.437,0.667,3.14,0.996,4.675,1.396c1.138,0.298,1.746-1.175,0.822-1.835
					c-1.33-0.951-3.194-1.68-4.807-1.905C203.385-115.674,202.797-113.678,203.911-113.161z"/>
				<path fill="#BC6B00" d="M203.904-109.229c-0.262,1.268-0.827,2.443-1.121,3.695c-0.386,1.646,1.946,2.333,2.513,0.74
					c0.453-1.276,0.659-2.769,0.666-4.12C205.968-110.065,204.15-110.419,203.904-109.229z"/>
				<path fill="#BC6B00" d="M211.016-103h-0.008c-0.628,0-1.351,0.209-1.967,0.284c-0.808,0.1-1.764,0.288-2.47,0.729
					c-0.625,0.39-0.908,1.22-0.54,1.895c0.385,0.707,1.149,0.871,1.834,0.601c-0.509,0.2,0.474-0.181,0.287-0.106
					c-0.266,0.107,0.25-0.073,0.3-0.088c0.396-0.12,0.801-0.211,1.205-0.299c0.511-0.112,1.121-0.441,1.605-0.698
					C212.42-100.932,212.207-103,211.016-103z"/>
				<path fill="#BC6B00" d="M203.712-95.167c-0.14-0.459-0.518-0.8-1.015-0.809c-0.535-0.009-1.133,0.468-1.083,1.046
					c0.066,0.774,0.239,1.49,0.515,2.216c0.327,0.863,0.673,1.889,1.62,2.208c0.731,0.247,1.543-0.369,1.538-1.13
					c-0.004-0.754-0.571-1.311-0.92-1.949C204.093-94.086,203.88-94.62,203.712-95.167z"/>
				<path fill="#BC6B00" d="M202.468-85.044c-0.724-0.774-1.937-0.977-2.945-1.115c-1.093-0.148-2.494-0.369-3.486,0.199
					c-0.965,0.552-0.809,1.984,0.248,2.321c0.887,0.283,1.948,0.017,2.879,0.045c0.854,0.026,1.667,0.334,2.509,0.351
					C202.601-83.226,203.098-84.371,202.468-85.044z"/>
				<path fill="#BC6B00" d="M203.891-79.23c-0.042-0.489-0.279-0.913-0.78-1.061c-0.514-0.151-1.253,0.15-1.348,0.735
					c-0.081,0.498-0.158,0.995-0.204,1.498c-0.048,0.542-0.212,1.18-0.012,1.696c0.165,0.423,0.394,0.757,0.855,0.893
					c0.486,0.143,1.171-0.046,1.406-0.537c0.281-0.588,0.258-1.053,0.215-1.679C203.987-78.201,203.935-78.715,203.891-79.23z"/>
				<path fill="#BC6B00" d="M193.879-82.129c-0.518-0.399-0.9-1.018-1.64-0.962c-0.499,0.038-1.064,0.31-1.171,0.861
					c-0.199,1.023,0.408,1.543,1.189,2.056c0.621,0.406,1.325,0.693,2.016,0.955c0.965,0.365,1.908-1.085,1.086-1.769
					C194.878-81.388,194.374-81.748,193.879-82.129z"/>
				<path fill="#BC6B00" d="M197.634-109.415c0.704,0.799,2.055,0.032,1.791-0.976c-0.198-0.756-0.52-1.486-0.765-2.229
					c-0.238-0.721-0.356-1.944-1.122-2.299c-0.587-0.271-1.297-0.226-1.662,0.39c-0.516,0.869,0.058,1.814,0.402,2.641
					C196.637-111.026,197.01-110.122,197.634-109.415z"/>
				<path fill="#BC6B00" d="M187.405-118.109c0.146-0.907,0.213-1.827,0.329-2.739c0.043-0.34,0.09-0.652,0.147-0.986
					c0.032-0.185,0.075-0.369,0.074-0.557c0-0.082-0.057-0.338-0.095-0.499c-0.22-0.812-1.403-1.301-2.023-0.585
					c-0.116,0.133-0.409,0.464-0.092,0.106c-0.275,0.312-0.404,0.618-0.44,1.027c-0.038,0.417-0.068,0.835-0.092,1.253
					c-0.054,0.945-0.139,2.023,0.158,2.937C185.658-117.269,187.223-116.977,187.405-118.109z"/>
				<path fill="#BC6B00" d="M187.86-122.891l0.005,0.012C187.806-123.107,187.825-123.039,187.86-122.891z"/>
				<path fill="#BC6B00" d="M179.312-126.11c0.663,0.891,2.277-0.004,1.905-1.039c-0.242-0.672-0.541-1.323-0.791-1.994
					c-0.292-0.783-0.462-1.631-0.854-2.372c-0.262-0.495-0.857-0.749-1.397-0.615c-0.717,0.178-0.999,0.837-0.913,1.513
					c0.104,0.816,0.522,1.625,0.848,2.375C178.438-127.488,178.821-126.77,179.312-126.11z"/>
				<path fill="#BC6B00" d="M168.652-132.177c0.8-0.705,1.569-1.077,2.622-1.318c1.189-0.271,0.971-2.086-0.238-2.105
					c-1.514-0.022-3.036,0.505-4.165,1.532C165.626-132.937,167.4-131.075,168.652-132.177z"/>
				<path fill="#BC6B00" d="M169.977-127.026c-0.4,0.929-0.936,1.702-1.571,2.486c-0.453,0.561-0.127,1.475,0.427,1.818
					c0.651,0.403,1.389,0.151,1.818-0.426c0.705-0.95,1.305-2.06,1.532-3.229C172.469-127.852,170.561-128.378,169.977-127.026z"/>
				<path fill="#BC6B00" d="M177.609-119.355c0.986,0.911,2.307-0.37,1.498-1.411c-0.543-0.7-1.062-1.415-1.62-2.104
					c-0.493-0.609-1.048-1.66-1.954-1.595c-0.522,0.038-1.032,0.312-1.171,0.861c-0.255,1.006,0.568,1.631,1.19,2.279
					C176.215-120.637,176.909-120.001,177.609-119.355z"/>
				<path fill="#BC6B00" d="M169.68-116.366c-0.05,0.834,0.755,1.276,1.479,1.178c0.324-0.044,0.577-0.236,0.781-0.477
					c0.083-0.102,0.135-0.164,0.17-0.208c0.081-0.099,0.165-0.195,0.249-0.292c0.32-0.366,0.67-0.691,0.972-1.073
					c0.216-0.273,0.186-0.725,0.029-1.014c-0.232-0.424-0.674-0.565-1.127-0.496c-0.584,0.089-1.061,0.487-1.51,0.845
					C170.206-117.488,169.724-117.082,169.68-116.366z"/>
				<path fill="#BC6B00" d="M161.514-116.066c0.369-0.315,0.57-0.542,0.958-0.758c0.375-0.208,0.767-0.355,1.178-0.475
					c0.45-0.129,0.781-0.512,0.79-0.991c0.01-0.52-0.457-1.11-1.021-1.058c-1.43,0.133-2.91,0.533-3.851,1.691
					c-0.352,0.434-0.197,1.163,0.155,1.537C160.213-115.599,160.991-115.618,161.514-116.066z"/>
				<path fill="#BC6B00" d="M158.801-104.577c-0.044-0.588-0.14-1.167-0.23-1.75c-0.105-0.675-0.143-1.399-0.322-2.057
					c-0.365-1.333-2.292-1.095-2.371,0.269c-0.071,1.229,0.418,2.613,0.769,3.782C156.987-103.202,158.898-103.285,158.801-104.577z
					"/>
				<path fill="#BC6B00" d="M152.877-102.776c-0.517-0.249-1.167-0.225-1.756-0.234c-1.079-0.016-2.519-0.126-3.179,0.883
					c-0.354,0.542-0.173,1.357,0.394,1.682c0.882,0.503,1.973,0.043,2.927-0.058c0.682-0.072,1.413-0.088,1.897-0.516
					C153.818-101.5,153.715-102.565,152.877-102.776z"/>
				<path fill="#BC6B00" d="M158.002-94.718c-0.221-0.645-0.662-0.992-1.138-1.448c-0.456-0.437-0.901-0.896-1.422-1.255
					c-0.422-0.291-1.033-0.2-1.395,0.14c-0.489,0.46-0.433,1.133-0.048,1.625c0.325,0.418,0.706,0.797,1.058,1.193
					c0.422,0.475,0.818,0.997,1.455,1.171C157.318-93.07,158.305-93.831,158.002-94.718z"/>
				<path fill="#BC6B00" d="M162.946-89.063l0.036,0.029c-0.017-0.144-0.077-0.285-0.165-0.415c-0.193-0.382-0.565-0.651-1.12-0.609
					c-1.194,0.09-2.491,0.114-3.602,0.599c-1.124,0.491-0.516,2.059,0.526,2.139c0.996,0.078,2.028-0.045,3.03-0.043
					C162.66-87.36,163.088-88.293,162.946-89.063z"/>
				<path fill="#BC6B00" d="M164.385-81.626c0.522-0.069,0.972-0.445,1.407-0.72c0.461-0.291,0.911-0.594,1.357-0.907
					c1.165-0.813,0.265-2.464-1.05-1.925c-0.448,0.184-0.894,0.37-1.333,0.573c-0.511,0.238-1.159,0.431-1.531,0.869
					C162.405-82.757,163.113-81.458,164.385-81.626z"/>
				<path fill="#BC6B00" d="M164.753-78.189c-0.676,1.059-1.076,2.23-1.552,3.382c-0.648,1.568,2.206,2.409,2.512,0.74
					c0.205-1.117,0.509-2.222,0.921-3.28C167.071-78.471,165.366-79.149,164.753-78.189z"/>
				<path fill="#BC6B00" d="M171.579-80.942c-0.454-1.269-2.265-0.848-2.04,0.504c0.218,1.307,0.555,2.593,0.813,3.892
					c0.314,1.578,2.903,0.926,2.412-0.598C172.357-78.406,172.025-79.694,171.579-80.942z"/>
				<path fill="#BC6B00" d="M171.126-72.382c-1.155,0.062-2.411,0.079-3.541,0.326c-0.675,0.147-1.091,0.881-0.928,1.539
					c0.181,0.728,0.852,1.016,1.539,0.928c1.044-0.135,2.163-0.353,3.172-0.653C172.501-70.578,172.408-72.451,171.126-72.382z"/>
				<path fill="#BC6B00" d="M187.509-79.313c-0.367-0.469-0.667-1.159-1.221-1.454c-0.764-0.408-1.731,0.04-1.756,0.957
					c-0.021,0.756,0.596,1.319,1.072,1.835c0.522,0.567,1.071,1.11,1.589,1.68c0.771,0.851,2.265-0.197,1.641-1.19
					C188.432-78.125,187.974-78.72,187.509-79.313z"/>
				<path fill="#BC6B00" d="M181.664-76.089c-0.868,0.535-1.771,0.778-2.768,0.945c-0.698,0.116-1.109,0.927-0.948,1.573
					c0.175,0.703,0.88,1.096,1.573,0.948c1.258-0.267,2.428-0.903,3.404-1.728C183.863-75.145,182.709-76.733,181.664-76.089z"/>
				<path fill="#BC6B00" d="M179.524-68.051c-1.087-0.517-2.095-1.321-3.007-2.1c-1.01-0.861-2.279,0.345-1.488,1.402
					c0.81,1.083,1.843,1.841,2.794,2.78C179.326-64.484,181.201-67.252,179.524-68.051z"/>
				<path fill="#BC6B00" d="M85.04-330h2.934c-0.148,1.306-0.231,2.673-0.195,4.155c0.937,0.252,1.883,0.451,2.83,0.649
					c0.142-1.76,0.47-3.346,0.932-4.805h3.129c-0.723,1.553-1.3,3.32-1.707,5.34c0.729,0.184,1.452,0.389,2.162,0.655
					c1.058-2.039,2.519-3.896,3.399-5.995h6.092c0.898,0.724,1.821,1.42,2.705,2.166c0.504-0.757,1.062-1.471,1.646-2.166h3.687
					c-1.235,1.261-2.485,2.51-3.63,3.856c0.214,0.41,0.174,0.835-0.017,1.196c5.053,10.618,8.845,22.14,12.989,33.112
					c1.746-0.35,3.503-0.664,5.267-0.962c-2.522-11.38-3.788-23.108-6.033-34.567l-0.133-0.144
					c-0.614-0.932-1.352-1.731-2.127-2.491h5.887c-0.423,0.626-0.805,1.278-1.108,1.982c3.141,11.198,5.227,23.175,6.487,34.741
					c2.556-0.39,5.121-0.725,7.686-1.015c-0.183-6.426,0.37-12.894,0.349-19.327c-0.017-5.458-0.455-10.928-0.504-16.381h2.625
					c0.983,5.438,0.886,11.237,0.905,16.69c0.022,6.19,0.178,12.527-0.415,18.701c2.045-0.201,4.086-0.362,6.123-0.502
					c-0.013-0.179-0.006-0.365,0.045-0.562c2.915-11.248,3.334-23.107,6.276-34.327h2.782c-1.52,11.591-3.075,23.375-5.933,34.689
					c2.627-0.142,5.24-0.24,7.823-0.283c1.243-11.515,3.28-22.938,4.945-34.407h2.91c-1.043,11.822-3.522,23.55-4.853,35.326
					c0.257,0.936-0.356,2.23-1.658,2.252c-9.42,0.152-18.801,1.053-28.104,2.534c-8.903,1.417-17.749,3.681-26.695,4.727
					c-0.766,0.09-1.31-0.688-1.212-1.317c-0.094-0.073-0.183-0.16-0.261-0.273c-7.673-11.139-14.125-24.575-18.291-37.484
					c-0.597-0.335-0.646-0.958-0.395-1.465c0.028-0.486,0.358-0.866,0.751-1.029C85.034-327.872,85.016-328.953,85.04-330z
					 M97.628-322.435c5.893,10.394,11.81,21.227,15.79,32.521c1.83-0.468,3.679-0.903,5.54-1.31
					c-5.235-10.549-8.945-22.344-12.788-33.481c-1.529-1.56-3.313-2.787-4.927-4.228C100.218-326.678,98.695-324.724,97.628-322.435
					z M87.809-323.019c5.271,11.96,11.629,23.156,17.562,34.804c0.096,0.187,0.135,0.372,0.136,0.553
					c1.637-0.52,3.299-1.004,4.974-1.469c-4.082-10.93-10.26-20.784-14.841-31.468c-0.102-0.019-0.202-0.049-0.3-0.098
					C92.95-321.898,90.321-322.267,87.809-323.019z"/>
				<path fill="#BC6B00" d="M101.779-2.685c-0.897-1.079-2.41-0.414-2.659,0.813C98.988-1.219,98.776-0.602,98.524,0h6.092
					C103.603-0.817,102.623-1.672,101.779-2.685z"/>
				<path fill="#BC6B00" d="M166.284-6.969c-0.074,2.327-0.229,4.65-0.434,6.969h-2.91c0.243-1.674,0.479-3.349,0.703-5.025
					c-2.239,1.422-4.948,2.21-7.173,3.629l-0.195,0.103c-0.057,0.43-0.113,0.863-0.17,1.293h-2.782
					c0.187-0.713,0.383-1.424,0.591-2.131c-1.344-2.651-3.715-4.517-5.325-6.981c-2.766,1.953-5.792,3.588-8.298,5.857
					c0.146,0.466,0.014,0.977-0.282,1.376c0.145,0.62,0.265,1.249,0.378,1.88h-2.625c-0.004-0.496-0.024-0.993-0.021-1.488
					c-2.611-1.686-5.505-2.833-8.203-4.361c-1.416,2.056-3.295,3.792-4.685,5.849h-5.887c-1.107-1.085-2.292-2.087-3.318-3.26
					c-0.938,1.141-1.963,2.204-2.998,3.26h-3.687c1.833-2.183,3.928-4.162,5.476-6.588c0.662-1.038,2.024-0.652,2.565,0.235
					c1.28,2.101,3.316,3.448,5.004,5.15c1.738-2.672,4.2-4.833,5.737-7.679c0.418-0.775,1.532-0.784,2.179-0.367
					c2.723,1.751,5.757,2.901,8.562,4.501c2.674-3.156,6.605-4.949,9.611-7.77c0.715-0.671,1.955-0.33,2.343,0.523
					c0.102,0.225,0.224,0.434,0.341,0.646c1.819-1.111,3.699-2.148,5.602-3.116c-0.355-2.373-0.95-4.58-1.806-6.586
					c-1.918,1.862-4.363,2.965-7.067,3.357c-1.59,0.231-1.955-2.079-0.411-2.439c2.375-0.553,4.577-1.684,6.068-3.646
					c-2.023-3.273-4.96-5.827-9.002-7.415c0.056,0.684,0.082,1.385,0.04,2.126c0.362,0.732,0.229,1.671-0.763,2.098
					C125.366-19.197,90.771-24.759,87.974,0H85.04c0.223-9.504,5.372-15.163,12.744-18.829c-3.605-7.589-2.704-14.996,2.723-21.69
					c5.38-6.637,13.122-12.568,11.763-22.072c-0.13-0.907,0.617-1.375,1.296-1.28c0.795-0.15,1.726,0.21,1.966,1.221
					c3.164,13.319,24.35,15.984,28.116,28.638c8.025,1.67,13.921,8.467,15.372,16.37c4.4,1.049,7.514,4.457,8.195,9.121
					C167.335-7.702,166.873-7.162,166.284-6.969z M141.773-29.837c-0.835-2.445-1.966-4.503-3.321-6.321
					c-8.99,6.057-20.865,7.46-31.345,8.839c-1.904,0.25-2.382-2.564-0.495-2.939c10.373-2.056,20.78-2.814,30.151-7.925
					c-3.047-3.289-6.915-5.81-11.143-8.622c-4.167-2.771-8.25-5.756-10.871-9.836c-0.911,5.07-4.325,9.385-7.957,13.462
					c-0.996,1.118-1.921,2.216-2.777,3.311c1.565-0.066,3.187,0.065,4.691,0.12c2.34,0.084,4.687,0.174,7.007,0.492
					c1.224,0.167,1.415,2.22,0.074,2.271c-2.453,0.092-4.914,0.062-7.368,0.049c-2.042-0.01-4.233,0.247-6.251-0.055l-0.164-0.056
					c-3.262,5.092-4.417,10.313-1.366,16.937C113.331-25.267,130.857-25.894,141.773-29.837z M164.092-8.996
					c-0.827-2.7-2.359-4.634-4.762-5.778c0.008,0.203,0.031,0.404,0.034,0.607c0.002,0.173-0.03,0.326-0.08,0.464
					c-0.015,0.315-0.154,0.624-0.474,0.856c-2.001,1.456-4.199,2.667-6.354,3.9c1.175,1.403,2.501,2.689,3.549,4.197
					c2.482-1.348,5.15-2.341,7.463-3.976C163.678-8.872,163.886-8.95,164.092-8.996z"/>
				<path fill="#BC6B00" d="M137.681-14.35c1.645-0.535,0.74-3.117-0.884-2.842C122.052-14.694,96.856-16.821,91.541,0h3.129
					C101.769-15.26,123.081-9.608,137.681-14.35z"/>
				<path fill="#BC6B00" d="M127.391-190.342c0.008-0.156,0.033-0.31,0.047-0.465c-6.208-2.456-15.25-6.202-16.324-13.788
					c-0.537-3.785,0.451-7.542,2.038-11.132l-0.154-0.133c-6.167-6.465-5.429-14.242-2.274-21.618
					c-3.561-7.577,0.24-17.155,4.537-23.609c4.458-6.695,10.888-13.355,19.086-14.973c0.866-0.171,1.683,0.627,1.586,1.488
					c-0.444,3.946-1.404,7.805-1.335,11.785c4.4,1.406,7.193,6.655,9.034,10.5c2.03-0.379,4.098-0.293,5.837,0.601
					c4.299,2.211,6.783,6.601,10.54,9.537c0.145,0.114,0.25,0.24,0.32,0.37c2.501-0.268,4.961,0.366,7.396,1.37
					c0.296-0.149,0.669-0.168,1.096,0.028c3.557,1.647,7.292,3.739,9.785,6.785c3.751-0.777,8.934-2.4,12.446-0.765
					c1.344,0.625,2.4,1.516,3.256,2.573c4.755-2.434,10.446-2.776,14.162,1.245c3.96-3.348,6.678-7.833,10.704-11.138
					c0.545-0.447,1.525-0.405,1.941,0.216c8.904,13.341,7.373,36.759-8.777,43.92c-1.967,8.924-6.931,16.713-17.178,17.536
					c-0.843,1.488-1.833,2.874-3.016,4.098c-5.448,5.633-12.714,5.238-19.411,2.286c-2.164,2.093-4.901,3.451-8.302,3.385
					c-9.072-0.177-17.463-5.521-25.394-9.354C134.749-181.667,127.093-184.35,127.391-190.342z M209.901-228.613
					c3.345,5.507,3.407,13.691,3.5,19.784c0.038,2.488-0.09,5.075-0.427,7.635c12.016-7.117,13.312-25.776,6.752-37.282
					C216.482-235.345,213.83-230.799,209.901-228.613z M195.514-229.981c0.753,1.354,1.321,2.85,1.825,4.359
					c2.917,8.712,2.59,19.09,2.113,28.162c-0.239,4.539-0.939,9.577-2.688,14.068c10.434-2.344,13.553-13.491,13.63-23.7
					c0.044-5.881,0.003-12.957-2.289-18.475C205.529-231.771,200.859-231.24,195.514-229.981z M180.086-231.391
					c0.499,0.937,0.889,1.949,1.136,3.05c1.538,6.882,0.104,14.719-0.123,21.728c-0.267,8.295-0.5,17.202-3.463,25.063
					c-0.739,1.964-1.712,3.901-2.933,5.609c6.217,2.437,12.846,2.302,16.909-3.977c0.301-0.464,0.578-0.94,0.846-1.421
					c-0.132-0.652,0.104-1.326,0.796-1.552c2.302-4.882,3.137-10.424,3.348-15.779c0.302-7.634,0.415-15.62-1.186-23.131
					c-0.735-3.454-2.165-9.935-6.535-10.336C185.969-232.402,183.005-231.795,180.086-231.391z M153.083-234.143
					c-6.929,8.502-11.803,18.414-16.557,28.234c-1.862,3.846-3.948,7.669-5.434,11.683c-0.867,2.341-1.737,5.026,0.286,7.035
					c2.594,2.579,6.268,3.876,9.492,5.453c3.769,1.844,7.511,3.779,11.396,5.371c7.218,2.959,16.264,5.914,20.927-2.469
					c3.791-6.817,4.379-15.301,4.757-22.941c0.337-6.823,0.837-13.778,0.867-20.605c0.034-8.184-4.178-11.69-11.005-15.374
					c-0.13-0.07-0.236-0.156-0.333-0.247c-1.626-0.68-3.288-1.229-4.946-1.373C158.525-239.72,155.487-237.093,153.083-234.143z
					 M112.304-240.784c2.342-4.466,5.348-8.681,7.959-12.232c2.553-3.472,6.605-9.688,11.6-10.105
					c0.026-3.296,0.627-6.497,1.085-9.756C120.99-269.204,110.421-253.232,112.304-240.784z M114.482-218.467
					c1.47-2.793,3.173-5.457,4.651-7.912c5.059-8.409,10.178-17.947,18.579-23.49c1.016-0.67,2.23-1.289,3.527-1.758
					c-1.999-3.419-5.75-10.538-10.278-8.348c-4.555,2.201-7.777,7.501-10.488,11.562
					C114.725-239.802,106.519-227.947,114.482-218.467z M128-193.648c0.605-2.024,1.556-3.976,2.432-5.848
					c2.405-5.137,4.909-10.248,7.507-15.289c2.72-5.28,5.535-10.572,8.927-15.458c2.409-3.471,5.119-7.615,8.807-9.896
					c0.674-0.417,1.343-0.74,2.01-0.995c-3.174-2.417-5.609-6.691-9.201-7.981c-4.772-1.715-9.54,1.182-12.882,4.419
					c-5.912,5.729-10.005,12.985-14.23,19.968c-3.127,5.17-8.506,12.6-7.583,19.09C114.741-198.931,122.343-195.853,128-193.648z"/>
				<path fill="#BC6B00" d="M183.745-264.869c-4.618-6.764-8.924-16.946-7.177-25.325c1.236-5.924,5.68-9.677,10.571-12.706
					c0.121-0.159,0.276-0.306,0.48-0.428c7.292-4.352,14.276-9.377,21.907-13.132c6.159-3.03,13.472-5.718,20.378-3.674
					c8.631,2.555,13.818,10.063,18.236,17.419c2.686,4.473,6.784,11.007,3.301,16.17c-1.635,2.424-3.856,4.534-6.347,6.409
					c3.725,6.42,6.946,13.084,11.013,19.308c0.327-0.099,0.75,0.008,1.027-0.141l0.013-0.006c0.269-0.144,0.517-0.2,0.763-0.142
					c10.215-0.415,21.133,19.932,11.916,25.137c-0.309,0.433-0.881,0.66-1.435,0.624c-9.929,3.204-21.401-15.938-14.556-23.59
					c-4.299-6.151-7.681-12.979-10.918-19.746c-3.607,2.466-7.494,4.642-10.711,6.943
					C218.793-262.149,196.873-245.636,183.745-264.869z M259.172-257.908c3.989,5.742,7.754,11.668,10.041,18.279
					C272.627-244.268,265.65-256.648,259.172-257.908z M258.818-253.532c1.067,5.248,3.604,9.711,7.199,14.015
					C264.18-244.473,261.467-248.964,258.818-253.532z M257.087-245.927c0.838,1.403,2.282,3.597,4.022,5.321
					c-3.385-4.627-5.457-10.388-5.424-16.039C253.789-253.568,255.158-249.159,257.087-245.927z M179.1-286.08
					c0.528,8.61,4.766,20.624,12.726,25.161c9.171,5.229,19.19-0.217,27.063-5.357c8.148-5.318,16.135-11.036,24.06-16.682
					c1.172-0.835,2.655-1.826,3.919-2.983c-1.449-2.058-2.486-4.301-3.143-6.763c-0.32-1.207,1.636-1.98,2.09-0.782
					c0.707,1.863,1.708,3.725,2.871,5.398c0.258-0.428,0.484-0.866,0.621-1.331c0.813-2.781-0.511-5.623-1.814-8.043
					c-3.916-7.269-9.156-16.851-17.68-19.365c-7.152-2.111-14.326,0.739-20.591,4.15c-6.882,3.744-13.337,8.203-20.089,12.168
					c-0.456,0.268-0.893,0.281-1.262,0.137C182.945-296.941,178.695-292.67,179.1-286.08z"/>
				<path fill="#BC6B00" d="M187.435-276.696c-0.12-0.081-0.232-0.19-0.329-0.337c-8.163-12.348,6.528-20.885,16.072-25.365
					c0.631-0.297,1.22-0.133,1.625,0.23c0.357,0.054,0.681,0.254,0.856,0.652c4.904,11.105-7.402,21.858-16.899,25.179
					C188.207-276.144,187.743-276.336,187.435-276.696z M188.432-279.373c7.579-3.947,17.173-10.402,15.158-19.937
					C195.094-295.131,184.911-289.957,188.432-279.373z"/>
				<path fill="#BC6B00" d="M228.123-309.536c5.714,1.651,8.402,6.723,11.368,11.376c0.892,1.4,2.963,0.299,2.271-1.22
					c-2.495-5.467-6.856-11.026-13.059-12.085C227.461-311.677,226.838-309.907,228.123-309.536z"/>
				<path fill="#BC6B00" d="M222.848-285.172c-2.252-2.128-1.382-5.015,0.934-6.651l0.1-0.043c0.85-0.837,2.049-1.33,3.311-1.487
					c0.381-1.15,0.777-2.292,1.244-3.402c0.453-1.083,2.375-0.998,2.195,0.364c-0.146,1.093-0.395,2.17-0.676,3.242
					c1.179,0.331,2.223,0.979,2.862,1.953c1.685,2.565,0.596,6.363-2.294,7.456c-1.131,0.427-2.41,0.54-3.658,0.375
					c-0.371,1.037-0.789,2.046-1.311,2.974c-0.777,1.381-2.625,0.311-2.361-1.055c0.186-0.963,0.482-1.923,0.822-2.877
					C223.598-284.569,223.197-284.842,222.848-285.172z M227.762-286.119c0.416,0.011,0.829-0.025,1.227-0.128
					c1.188-0.309,2.271-1.66,1.508-3.086c-0.304-0.571-0.789-0.897-1.352-1.055c-0.256,0.788-0.518,1.573-0.777,2.352
					C228.16-287.413,227.963-286.77,227.762-286.119z M224.829-287.064l0.19,0.114c0.246-0.631,0.488-1.262,0.702-1.885
					c0.137-0.403,0.267-0.81,0.399-1.217c-0.514,0.211-0.974,0.474-1.318,0.747c-0.168,0.133-0.339,0.201-0.51,0.242
					C223.977-288.326,224.002-287.62,224.829-287.064z"/>
				<path fill="#BC6B00" d="M254.076-220.925c-4.5,1.695-3.098,5.159-0.27,7.109c-9.305,7.117-16.83,17.124-24.057,26.205
					c-0.502,0.632-0.139,1.409,0.447,1.795c5.992,13.304,13.162,26.167,19.38,39.391c6.304,13.411,12.674,26.824,20.249,39.577
					c0.455,0.767,1.285,0.861,1.922,0.574c9.533-0.739,18.886-2.759,28.252-4.648v-2.504c-9.341,1.471-18.547,3.794-28.002,4.548
					c-0.83-1.43-1.629-2.875-2.434-4.318c3.258-0.691,6.553-1.295,9.732-2.27c1.334-0.41,0.959-2.346-0.444-2.133
					c-3.566,0.54-7.155,1.128-10.677,1.926c-1.145-2.093-2.27-4.196-3.375-6.309c5.599-1.738,11.361-2.845,16.955-4.588
					c1.364-0.425,0.986-2.411-0.456-2.189c-6.013,0.921-12.021,2.351-17.815,4.222c-1.999-3.882-3.954-7.788-5.862-11.718
					c4.929-0.535,10.765-1.104,15.03-3.391c1.003-0.539,0.472-2.238-0.683-1.929c-5.027,1.344-10.704,1.034-15.622,2.679
					c-1.023-2.128-2.043-4.26-3.054-6.396c3.8-1.964,7.542-4.014,11.411-5.853c1.115-0.53,0.479-2.396-0.73-2.062
					c-4.193,1.158-8.063,3.298-11.892,5.356c-1.308-2.777-2.593-5.604-3.885-8.445c5.018-2.286,9.876-4.974,14.888-7.28
					c1.126-0.519,0.463-2.486-0.736-2.083c-5.229,1.753-10.485,4.081-15.311,6.82c-1.438-3.155-2.892-6.32-4.408-9.45
					c2.559-1.432,4.825-3.59,7.12-5.393c2.905-2.282,5.83-4.56,8.594-7.012c1.011-0.897-0.339-2.233-1.379-1.5
					c-2.686,1.894-5.3,3.889-7.944,5.841c-2.462,1.817-5.344,3.549-7.538,5.728c-1.409-2.829-2.872-5.622-4.431-8.343
					c4.236-4.446,7.148-10.035,11.932-13.97c0.853-0.701-0.199-2.248-1.121-1.609c-5.078,3.515-8.086,8.8-12.165,13.275
					c-1.093-1.815-2.227-3.598-3.421-5.328c7.596-9.033,15.043-17.935,23.6-26.085c4.507,3.003,2.918,5.745,2.146,10.417
					c-0.484,2.941-0.296,6.339,1.627,8.786c1.867,2.375,4.458,3.549,7.159,4.742c5.056,2.233,6.431,5.142,4.927,10.473
					c-0.768,2.727-0.986,5.937,0.787,8.352c2.767,3.767,7.725,4.97,11.242,7.999c6.835,5.883-5.764,13.046,1.412,19.189
					c0.348,0.297,0.736,0.41,1.101,0.389c2.056,2.006,4.488,3.375,6.97,4.948c4.344,2.751,3.854,8.274,2.334,12.554
					c-1.657,4.664,1.027,7.286,4.418,9.358v-3.389c-0.872-0.751-1.574-1.687-1.961-2.974c-0.37-1.235,0.844-3.486,1.14-4.689
					c0.443-1.803,0.396-3.763,0.305-5.6c-0.175-3.547-2.215-5.802-4.774-7.669l-0.07-0.073c-1.621-1.417-3.584-2.436-5.49-3.509
					c-0.701-0.464-1.377-0.942-1.998-1.455c-2.744-3.355-0.087-6.004,1.291-9.391c1.113-2.74,0.543-6.555-1.508-8.72
					c-1.449-1.53-3.07-2.753-4.739-4.034c-2.087-1.6-4.716-1.981-6.673-3.831c-3.763-3.56,0.799-8.73-0.051-12.859
					c-1.656-8.052-12.368-6.542-14.67-13.728c-1.138-3.555,0.891-7.112,1.084-10.649c0.146-2.68-1.6-4.52-3.668-5.839
					c-0.074-0.295-0.297-0.555-0.713-0.674c-1.297-0.373-2.355-0.873-3.348-1.816c-2.384-2.265,3.123-2.324,3.957-2.127
					c2.643,0.624,4.727,2.976,6.371,4.974c3.156,3.838,4.104,7.248,3.29,12.013c-0.53,3.109,1.312,6.539,4.251,7.792
					c2.838,1.21,5.121,1.675,7.176,4.203c2.727,3.354,2.32,7.048,1.258,10.91c-0.088,0.32-0.078,0.604-0.006,0.846
					c-0.5,5.294,3.96,7.862,8.471,10.06c7.512,3.662,0.622,11.607,3.276,17.568c1.598,3.588,4.874,5.28,7.8,7.367v-3.35
					c-1.327-0.882-2.643-1.815-3.797-3.003c-2.947-3.035-1.668-6.969-0.796-10.47c0.551-2.21,0.211-4.147-0.548-6.234
					c-0.856-2.351-3.292-3.745-5.4-4.755c-3.75-1.797-5.488-3.384-6.461-6.924c0.05-0.075,0.096-0.155,0.137-0.245
					c2.562-5.723,0.634-14.804-5.936-17.156c-2.648-0.947-4.998-1.426-6.482-4.109c-0.82-1.482,0.288-3.764,0.498-5.337
					c0.377-2.812-1.396-5.878-2.766-8.176c-0.396-0.666-0.867-1.366-1.39-2.07c11.369,5.193,23.242,9.537,32.94,16.56v-3.923
					c-11.104-7.625-24.748-12.458-36.885-16.791C260.457-220.875,257.289-222.136,254.076-220.925z"/>
				<path fill="#BC6B00" d="M294.467-192.553c-0.7,1.58,1.635,2.268,2.67,2.655c0.936,0.349,1.891,0.697,2.863,0.953v-2.894
					c-0.658-0.276-1.32-0.544-1.972-0.833C296.852-193.195,295.225-194.261,294.467-192.553z"/>
				<path fill="#BC6B00" d="M300-173.788v-2.578C298.767-175.844,299.076-174.406,300-173.788z"/>
				<path fill="#BC6B00" d="M15.687-112.167c0.639-1.683,0.599-3.253,0.114-4.688c0.038-0.118,0.067-0.245,0.077-0.385
					c0.41-6.064-0.464-11.964,0.372-18.042c0.76-5.519,2.297-10.908,3.579-16.32c2.173-9.185,2.671-17.965-0.623-26.954
					C15.497-188.676,8.49-196.135,0-201.964v3.922c7.021,5.084,12.904,11.57,16.624,20.812c3.833,9.526,1.751,19.401-0.618,28.971
					c-1.052,4.245-2.027,8.495-2.696,12.817c-0.757,4.887-0.326,9.672-0.295,14.521c-1.318-1.249-2.886-2.296-4.395-3.099
					c-0.063-0.173-0.156-0.347-0.298-0.512c-3.088-3.594,0.773-9.745-0.86-14.086c-1.426-3.792-4.475-5.52-7.461-7.504v3.35
					c1.726,1.231,3.331,2.6,4.394,4.579c2.725,5.07-2.628,10.834,1.623,15.781c0.451,0.523,1.015,0.614,1.512,0.452
					c0.927,0.969,2.167,1.704,3.162,2.539c1.561,1.308,2.521,3.091,2.476,5.164c-0.026,1.181-0.745,2.133-1.965,2.159
					c-1.057,0.024-1.976-0.487-2.819-1.124l0.004-0.067l-0.002-0.076l-0.006-0.046l-0.039-0.178
					c-0.079-0.301-0.248-0.591-0.538-0.83c-2.292-1.876-5.603-2.554-7.801-4.448v3.39c0.934,0.57,1.917,1.101,2.882,1.618
					c-0.963,0.13-1.922,0.282-2.882,0.434v2.504c1.765-0.356,3.531-0.708,5.298-1.046C8.016-108.987,13.905-107.469,15.687-112.167z
					"/>
				<path fill="#BC6B00" d="M1.97-190.944c-0.642-0.327-1.304-0.615-1.97-0.895v2.894c0.411,0.108,0.823,0.204,1.241,0.27
					C2.444-188.484,3.048-190.393,1.97-190.944z"/>
				<path fill="#BC6B00" d="M1.509-173.604c2.199-0.797,4.206-2.217,5.973-3.729c1.129-0.965-0.227-2.977-1.513-2.169
					c-1.89,1.188-3.796,2.322-5.896,3.101c-0.027,0.01-0.047,0.024-0.073,0.036v2.578C0.411-173.512,0.94-173.398,1.509-173.604z"/>
				<path fill="#BC6B00" d="M12.2-159.64c0.431-1.224,0.449-2.638,0.7-3.915c0.249-1.265,0.535-2.52,0.74-3.793
					c0.175-1.087-1.58-1.661-2.065-0.664c-0.567,1.164-0.997,2.352-1.334,3.601c-0.356,1.323-0.883,2.88-0.831,4.254
					C9.471-158.569,11.635-158.04,12.2-159.64z"/>
				<path fill="#BC6B00" d="M61.614-170.264c-2.134-0.271-3.564-0.716-4.836-1.99c-7.19,3.926-15.697-4.652-19.677-10.136
					c-6.206-8.549-9.264-18.799-14.111-28.08c-3.969-7.597-8.951-15.062-11.059-23.468c-1.579-6.291-1.362-14.528,4.729-18.183
					c-0.441-1.009-0.768-2.136-0.627-3.225c0.123-0.95,0.409-1.645,0.896-2.28c0.898-2.475,3.807-1.59,6.366,0.043
					c0.956-5.191,6.85-8.416,11.991-7.76c-0.416-1.98-0.47-4.063,0.802-5.278c2.574-2.462,6.54,0.111,8.953,1.811
					c0.166-0.035,0.339-0.033,0.506,0.001c15.436-10.219,28.75,18.981,34.241,28.821c5.052,9.053,11.683,17.147,15.453,26.901
					c1.548,4.005,2.667,8.664,1.696,12.95c-1.167,5.149-4.568,7.839-8.608,10.907l-0.135,0.083c0.036,2.542-0.261,6.916-3.568,6.7
					c-1.406-0.092-2.699-0.753-3.876-1.638c-2.304,5.647-8.745,8.114-14.579,8.19c0.467,2.969-0.234,5.433-3.683,5.466
					C62.261-170.288,61.97-170.219,61.614-170.264z M37.714-267.513c0.086,1.525,0.482,3.036,0.981,4.475
					c1.272,3.667,3.092,7.023,4.872,10.46c5.394,10.418,10.94,20.74,16.427,31.105c4.779,9.029,9.45,18.383,15.324,26.766
					c1.688,2.41,3.518,4.824,5.652,6.861c0.869,0.83,2.005,2.083,3.238,2.391c1.247,0.312,1.15-2.597,1.068-3.991
					c-2.566-2.465-4.701-5.39-6.759-8.277c-0.697-0.98,0.543-2.267,1.41-1.32c2.247,2.456,4.408,4.971,6.708,7.375
					c3.966-2.997,7.644-5.899,7.675-11.364c0.026-4.61-1.591-9.061-3.614-13.149C86.91-223.83,81.687-230.568,77.549-238
					c-5.425-9.744-16.385-36.11-31.247-28.432c-0.305,8.326,4.286,16.983,8.049,24.042c4.003,7.51,9.398,14.359,13.232,21.901
					c0.676,1.333-1.156,2.712-2.173,1.546c-2.852-3.274-5.046-7.413-7.292-11.112c-2.802-4.615-5.517-9.3-7.884-14.155
					c-3.17-6.503-7.637-15.076-6.235-22.641C42.358-267.827,37.528-270.775,37.714-267.513z M25.567-255.873
					c0.583,0.515,1.082,1.023,1.442,1.467c7.985,9.852,12.172,22.996,17.784,34.245c6.339,12.712,13.09,25.22,19.259,38.015
					c0.526,1.091,1.041,2.316,1.446,3.554c0.15-0.057,0.313-0.094,0.5-0.098c5.533-0.105,10.094-2.238,12.934-7.003
					c-0.676-0.683-1.301-1.39-1.859-2.039c-8.564-9.96-14.365-22.378-20.431-33.92c-4.093-7.788-8.352-15.471-12.325-23.325
					c-2.747-5.431-5.978-10.799-7.92-16.598c-0.12-0.358-0.264-0.78-0.414-1.237c-4.395-0.353-9.48,1.31-10.146,6.27
					C25.802-256.272,25.702-256.053,25.567-255.873z M62.026-173.341c3.913-0.062-0.428-7.279-1.299-9.055
					c-1.822-3.715-3.674-7.417-5.553-11.103c-4.038-7.915-8.16-15.789-12.123-23.743c-3.857-7.745-7.267-15.702-11.12-23.443
					c-1.964-3.948-3.967-8.524-6.911-11.859c-0.541-0.613-5.856-6.076-6.225-2.755c-0.017,0.145-0.056,0.271-0.108,0.384
					c0.042,0.713,0.259,1.429,0.597,2.083c0.056,0.11,0.092,0.217,0.118,0.325c1.379,3.851,3.438,7.341,4.936,11.13
					c0.559,1.412-1.222,2.34-2.073,1.089c-1.862-2.737-3.721-5.935-4.651-9.248c-1.984,2.093-3.569,4.27-3.748,7.468
					c-0.196,3.509,0.57,6.967,1.758,10.259c2.453,6.795,6.272,12.911,9.599,19.285c3.817,7.309,6.529,15.151,10.514,22.377
					c2.156,3.908,4.556,7.862,7.866,10.916c2.623,2.417,7.521,6.2,11.295,4.654c-3.876-4.35-6.62-11.506-8.184-14.933
					c-0.709-1.556,1.611-2.799,2.363-1.242C51.692-185.336,55.091-174.42,62.026-173.341z"/>
				<path fill="#BC6B00" d="M28.903-233.255c-0.444-1.004-2.167-0.387-1.824,0.665c3.743,11.484,8.68,22.932,15.43,32.979
					c0.901,1.341,3.155,0.174,2.243-1.179C37.948-210.884,33.79-222.195,28.903-233.255z"/>
				<path fill="#BC6B00" d="M35.19-322.979c3.211-0.944,5.45-3.551,7.591-5.979c0.254-0.288,0.572-0.646,0.937-1.042h-4.266
					c-1.104,1.222-2.143,2.318-3.116,3.076c-3.583,2.79-6.768,0.244-8.201-3.076h-3.247
					C26.234-325.471,29.987-321.451,35.19-322.979z"/>
				<path fill="#BC6B00" d="M31.351-288.258c3.821,1.577,7.654,3.295,11.686,4.271c2.329,0.563,5.523,1.324,7.641-0.289
					c3.08-2.349,4.536-6.107,5.791-9.647c3.793-10.689,4.784-15.328,9.669-25.625c1.175,0.151,2.34,0.192,3.417,0.146l0.092-0.013
					c0.632-0.013,1.257-0.389,1.37-1.192c0.252-1.802,0.584-3.555,0.787-5.338c0.213-0.153,0.384-0.393,0.479-0.734
					c0.311-1.124,0.667-2.228,1.04-3.322H70.21c-0.269,0.755-0.516,1.493-0.713,2.204c-0.098,0.353-0.074,0.68,0.03,0.965
					c-0.375,1.439-0.73,2.877-1.017,4.34c-2.869-0.359-5.773-0.689-7.728-3.151c-0.969-1.222-1.541-2.805-2.028-4.357h-3.123
					c0.721,2.154,1.355,4.336,2.64,6.307c1.095,1.681,2.815,2.765,4.734,3.428c-2.146,4.499-3.542,7.458-4.765,10.571
					c-17.973-7.171-36.25-13.454-54.46-19.984C3.488-329.783,3.2-329.895,2.908-330H0v1.931c0.287,0.104,0.575,0.208,0.861,0.312
					c18.834,6.834,37.787,13.269,56.398,20.701c-0.737,2.098-1.466,4.438-2.331,7.457c-0.216,0.753-0.437,1.514-0.666,2.272
					c-3.77-1.364-8.01-1.973-11.838-3.193c-4.753-1.515-9.412-3.328-14.044-5.172c-9.247-3.681-18.373-7.638-27.661-11.219
					c-0.24-0.093-0.479-0.191-0.719-0.284v3.116c9.146,3.583,18.197,7.384,27.312,11.05c4.631,1.862,9.312,3.588,14.051,5.154
					c3.879,1.282,8.191,1.842,12.032,3.225c-0.778,2.214-1.72,4.364-3.036,6.294c-2.421,3.546-7.55,1.15-10.728,0.029
					C26.252-293.049,13.088-298.318,0-303.786v3.51c5.818,2.472,11.663,4.878,17.584,7.098
					C22.15-291.465,26.842-290.119,31.351-288.258z"/>
				<path fill="#BC6B00" d="M300-330h-5.322c1.779,0.646,3.554,1.29,5.322,1.931V-330z"/>
				<path fill="#BC6B00" d="M260.271-316.128c7.056,2.938,14.453,4.993,21.477,7.995c6.09,2.604,12.156,5.267,18.252,7.857v-3.51
					c-5.168-2.159-10.325-4.346-15.478-6.548c-12.473-5.33-28.178-7.475-38.933-16.154c-1.49-1.202-2.472-2.359-3.088-3.512h-3.129
					c0.379,1.003,0.943,2.051,1.766,3.193C245.174-321.202,254.15-318.677,260.271-316.128z"/>
				<path fill="#BC6B00" d="M300-314.079v-3.116c-9.83-3.83-19.429-8.389-29.075-12.805h-9.134
					c12.486,5.629,25.231,10.844,37.85,15.778C299.761-314.175,299.88-314.126,300-314.079z"/>
				<path fill="#BC6B00" d="M26.874-13.218c-1.033-3.018-4.494-4.58-7.458-4.531c-3.83,0.062-6.827,3.032-10.256,4.528
					c-0.951,0.15-1.909,0.083-2.875-0.36l-0.183-0.063c-3.115-2.06-2.11-7.924-2.964-11.211C2.607-26.892,1.48-28.388,0-29.399
					v4.942c0.52,1.618,0.519,3.584,0.621,5.006c0.334,4.721,1.523,8.575,6.606,9.663c0.739,0.158,1.252-0.165,1.52-0.658
					c0.104-0.024,0.204-0.056,0.306-0.083c2.265-0.304,4.411-1.741,6.524-3.088c1.428-0.702,2.899-1.241,4.521-1.258
					c5.712-0.06,4.43,7.208,4.254,10.744C24.285-2.802,24.48-1.378,24.889,0h3.247c-0.534-1.237-0.826-2.58-0.803-3.796
					C27.394-7.009,27.94-10.103,26.874-13.218z"/>
				<path fill="#BC6B00" d="M0,0h2.908C1.935-0.352,0.969-0.714,0-1.072V0z"/>
				<path fill="#BC6B00" d="M73.323,0H70.21c2.143-6.015,6.004-13.27,3.056-19.232c-2.327-4.706-8.184-6.192-12.736-7.866
					c-13.542-4.978-27.148-9.765-40.679-14.772c-0.379,0.009-0.685-0.122-0.91-0.339c-2.201-0.817-4.404-1.623-6.6-2.454
					C8.199-46.231,4.099-47.983,0-49.757v-2.837c3.678,1.505,7.388,2.927,11.11,4.326c0.401-1.293,1.178-2.34,2.196-3.188
					l0.013-0.138c0.801-3.929,3-6.688,5.895-8.583c-1.313-3.782,0.46-6.407,3.334-8.209l-0.023-0.151
					c0.329-6.219,4.481-9.306,9.618-10.106c0.326-1.279,0.821-2.506,1.282-3.746c0.053-0.139,0.101-0.283,0.152-0.422l-0.024-0.077
					c-3.715-1.444-5.016-5.048-2.769-8.736c2.601-4.273,6.822-6.901,10.158-10.494c0.834-0.898,2.329-0.666,2.554,0.653
					c1.064,6.235,3.147,23.071-7.659,20.035l-0.004,0.008c-0.341,0.851-0.646,1.717-1.036,2.542
					c0.816-0.005,1.708,0.059,2.538,0.149c0.747,0.081,1.438,0.838,1.289,1.617c-0.444,2.313-1.335,4.481-2.828,6.179
					c0.084,0.213,0.122,0.449,0.102,0.699c-0.209,2.608-1.1,5.664-3.025,7.61l0.026,0.146c0.175,3.432-0.761,6.774-3.163,8.655
					c0.129,0.248,0.192,0.533,0.166,0.823c-0.366,4.098-2.454,7.615-5.747,9.599c7.041,2.611,14.089,5.202,21.158,7.737
					c7.658,2.747,15.842,4.926,23.172,8.501c4.048,1.975,7.726,4.884,8.372,9.649C77.713-11.199,75.277-5.745,73.323,0z
					 M34.402-85.046c0.26-0.675,0.538-1.342,0.874-1.975c0.834-1.575,3.044-0.688,2.557,1.026c-0.179,0.631-0.415,1.248-0.665,1.86
					c5.548,0.213,4.814-8.614,3.979-14.143c-1.844,1.662-3.795,3.211-5.472,5.047c-1.212,1.326-2.703,2.855-3.166,4.649
					C32.061-86.845,33.157-85.886,34.402-85.046z M25.185-69.718c2.3-0.941,4.858-1.536,7.035-1.891
					c1.44-1.278,2.473-2.633,3.089-4.373c-2.21-0.146-4.523-0.005-6.441,1.114C26.829-73.68,25.866-71.797,25.185-69.718z
					 M21.5-61.442c2.415-1.11,5.128-1.761,7.856-2.076l0.017-0.018c1.706-1.554,2.736-3.118,3.24-5.143l-0.144-0.006
					c-2.377,0.294-4.79,0.734-6.931,1.738C22.745-65.638,21.708-64.036,21.5-61.442z M16.615-53.305
					c2.365-0.887,5.122-1.275,7.621-1.377c0.197-0.264,0.506-0.456,0.947-0.496c3.304-0.298,4.667-2.661,4.865-5.545
					C24.403-60.167,19.312-58.264,16.615-53.305z M20.225-44.867c3.541-0.848,5.85-3.572,6.62-7.002
					c-4.847-0.302-10.666,0.327-13.337,4.5c0.537,0.202,1.07,0.401,1.606,0.603C16.815-46.127,18.522-45.501,20.225-44.867z"/>
				<path fill="#BC6B00" d="M53.417-8.373C48.002-10.143,43.33-4.293,39.453,0h4.266c2.709-2.94,8.097-8.074,10.405-3.715
					C54.756-2.519,55.209-1.264,55.632,0h3.123c-0.203-0.646-0.393-1.287-0.588-1.894C57.318-4.527,56.28-7.437,53.417-8.373z"/>
				<path fill="#BC6B00" d="M274.862-62.375c-5.604-1.419-11.156-1.47-16.216,1.519c-4.332,2.556-6.666,7.586-8.418,12.492
					c-2.831,6.228-5.504,12.469-2.037,19.019c0.181,0.342,0.377,0.647,0.579,0.935c-2.925,6.6-5.299,10.384-7.821,17.167
					c-1.682,4.522-2.966,7.559-1.576,11.244h3.129c-1.503-2.81-0.771-5.589,0.505-8.919C249.163-5.82,255.446-2.86,261.791,0h9.134
					c-8.896-4.073-17.833-8.02-27.038-11.146c0.154-0.393,0.312-0.792,0.469-1.201c1.28-3.325,2.507-5.67,3.721-8.185
					C262.568-11.896,278.774-5.781,294.678,0H300v-1.072c-17.373-6.421-34.078-13.865-50.916-21.612
					c0.532-1.187,1.063-2.466,1.597-3.939c1.771,0.99,3.907,0.731,6.065-0.667c2.453-1.589,9.239-10.316,12.221-5.23
					c2.208,3.762-1.331,9.668,0.121,13.915c1.391,4.062,6.516,6.466,10.6,4.941c4.973-1.855,6.958-7.327,9.941-11.271
					c2.199-2.908,5.729-4.002,8.889-1.758c0.738,0.524,1.19,1.326,1.482,2.235v-4.941c-1.717-1.173-3.909-1.693-6.225-1.614
					c-4.547,0.154-7.342,5.058-9.418,8.412c-1.366,2.207-2.795,4.643-5.183,5.868c-3.183,1.635-6.939-0.71-7.45-3.964
					c-0.623-3.954,1.529-8.023,0.346-11.95c-1.056-3.501-4.766-4.82-8.088-3.856c-4.156,1.206-6.373,5.855-10.229,7.597
					c-3.589,1.62-4.637-6.627-4.48-8.357c0.153-1.739,0.652-3.428,1.233-5.103c2.642-6.1,4.478-13.28,10.618-16.808
					c5.182-2.975,12.312-0.812,17.52,0.885c7.244,2.36,14.296,5.479,21.355,8.534v-2.837c-2.048-0.838-4.089-1.694-6.109-2.604
					C287.689-57.991,281.473-60.701,274.862-62.375z"/>
				<path fill="#BC6B00" d="M108.29-114.535c0.413,6.142-0.058,12.452-3.598,17.673c2.65,3.527,0.725,6.327-2.329,8.167
					c-0.174,5.323-2.274,11.111-6.229,14.79c0.051,0.16,0.081,0.336,0.068,0.543c-0.208,3.544-1.409,5.485-3.166,6.326
					c-0.052,0.16-0.146,0.316-0.299,0.46c-4.523,4.194-10.226,5.144-15.198,8.431c-2.965,1.96-6.358,5.269-10.093,5.567
					c-8.97,0.713-8.92-11.722-8.701-17.72c0.447-12.205,1.914-24.409,4.532-36.334c3.033-13.809,4.768-28.464,9.454-41.878
					c1.146-4.652,3.194-8.494,7.917-11.039c3.807-2.05,6.034,0.266,7.508,3.625c2.929,6.673,10.813,11.004,15.485,16.564
					c3.099,3.686,5.42,7.86,5.739,12.54c0.08,0.106,0.152,0.221,0.204,0.356C111.547-121.392,110.711-117.398,108.29-114.535z
					 M93.18-73.308c-4.16,0.393-8.508,0.116-12.634-0.878c5.187,4.004,12.226,7.625,12.618,0.975L93.18-73.308z M102.277-95.118
					l-0.183-0.263c-7.134,2.57-15.133,1.847-22.566,0.139c3.316,2.791,7.144,5.034,11.433,5.661
					C93.181-89.258,106.394-90.276,102.277-95.118z M105.955-112.427c-7.711,5.379-22.684,4.107-28.06-4.599
					c-0.791-1.281,0.359-2.595,1.708-2.435c9.404,1.117,18.815,1.729,26.654-4.261c-0.07-0.217-0.098-0.459-0.064-0.725
					c1.415-11.45-11.271-17.898-17.656-25.172c-2.098-2.392-3.505-9.375-7.406-6.892c-2.454,1.562-3.843,3.597-4.827,5.896
					c0.068,0.213,0.088,0.446,0.031,0.696c-5.362,23.485-11.653,46.811-13.78,70.884c-0.316,3.57-2.806,26.012,5.229,23.107
					c3.632-1.314,6.47-4.125,9.872-5.894c3.521-1.829,7.158-3.209,10.68-4.989c-5.719-1.341-12.877-7.099-15.453-10.478
					c-0.963-1.263,0.719-2.812,1.996-2.158c6.063,3.1,12.402,2.925,18.925,3.736c2.867-3.729,4.702-7.287,5.833-11.681
					c-0.881,0.333-1.772,0.6-2.616,0.793c-8.954,2.05-17.958-4.271-23.679-10.452c-0.926-1-0.197-3.002,1.34-2.551
					c9.32,2.742,17.826,3.388,27.255,1.581l0.082-0.147C105.033-102.462,105.706-107.37,105.955-112.427z M106.703-120.615
					c-6.372,5.51-15.34,5.536-23.604,4.75c3.976,3.438,10.005,4.644,15.044,3.439C103.467-113.7,106.032-116.488,106.703-120.615z"
					/>
			</g>
		</pattern>
		<rect fill="url(#Nueva_muestra_de_motivo_18)" width="800" height="800"/>
	</g>
</switch>	
</svg>
