<svg xmlns="http://www.w3.org/2000/svg" width="82.8mm" height="45.1mm" viewBox="0 0 293.6 159.9">
  <g transform="translate(-207.4445,-343.81735)">
    <path
       d="m 438.86426,398.67381 c -27.26,4.396 -59.915,23.883 -59.915,23.883 8.091,-17.684 30.806,-27.292 47.072,-32.066 -8.876,-5.403 -17.586,-10.233 -25.548,-14.314 -33.43,3.791 -56.931,27.479 -56.931,27.479 12.275,-22.162 21.115,-32.417 37.641,-36.654 -2.188,-0.938 -4.245,-1.8 -6.064,-2.514 0,0 -7.718,-3.184 -19.954,-7.052 -39.561,1.935 -77.664,23.555 -77.664,23.555 13.055,-16.69 33.052,-28.137 42.018,-32.722 -38.699,-7.59 -87.353,-8.829 -110.501,23.966 0,0 -24.88,34.793 123.21,95.09799 0,0 152.205,66.438 167.125,19.875 10.019,-31.272 -24.068,-64.20699 -60.489,-88.53399"
       style="fill:#f9cc1e" />
  </g>
</svg>
