<svg xmlns="http://www.w3.org/2000/svg" width="24mm" height="8.8mm" viewBox="0 0 85.2 31.2">
  <g transform="translate(-1034.5091,-579.59207)">
    <path d="m 1096.6838,583.1125 c -6.7308,3.49247 -13.6311,11.40875 -13.6311,11.40875 0.635,-5.31281 5.7573,-9.77892 9.6094,-12.42474 -2.7726,-0.65616 -5.4396,-1.14299 -7.8526,-1.52399 -8.382,3.87348 -12.5518,12.08609 -12.5518,12.08609 1.3547,-6.83681 2.8152,-10.26577 6.7733,-12.80575 -0.6561,-0.0635 -1.2488,-0.10583 -1.7991,-0.127 0,0 -2.2649,-0.16933 -5.7785,-0.127 -10.1388,3.93697 -18.2879,12.86925 -18.2879,12.86925 2.0108,-5.48214 6.2865,-10.1811 8.2338,-12.17075 -10.7103,1.37582 -23.4948,5.27044 -26.818,15.83256 0,0 -3.5983,11.21824 40.0047,14.11799 0,0 45.1694,4.1275 45.1906,-9.29205 0.021,-9.03808 -11.5782,-14.66839 -23.0928,-17.84336 z"
       style="fill:#40221a;fill-opacity:1;fill-rule:nonzero;stroke:none" />
  </g>
</svg>
