<svg xmlns="http://www.w3.org/2000/svg" viewBox="0 0 14.004 70.003002" height="74669.9" width="14937.6"><path d="M12.5 14H11l3 3v2l-5-5H7.6l6.5 6.5v1.8L5.7 14H4.2l9.8 9.8v1.8L2.4 14H.8L14 27.2v2.4l-.5.5.4.6V33l-.5.5.4.4v2.4l-.5.5.4.3v2.5l-.5.5.4.4v2.5L8.2 49H5.7l7.3-7.4-.4-.4-.8.8-7 7H2.3l7.4-7.4-.5-.4-.8.8-7 7H0v-1l6.3-6.4-.5-.4-.8.8-5 5v-2.5l3-3-.5-.3-.8.8L0 43.6v-3.3l.4.4.8-.8-.4-.5-.8.7V37l.4.3.8-.8-.4-.4-.8.8v-3.3l.4.4.8-1-.4-.3-.8.8V30l.4.6.8-.8-.4-.5-.8.8V27L1.2 28h1l-.5.4.4.5 1-1-3-2.8v-1.8L4.6 28h1l-.6.4.5.5.8-1L0 22V20l8 8h.8l-.4.4.5.5.7-1L0 18.5v-1.8L11.4 28h.8l-.4.4.5.5.7-1L0 15V0h14v15.5L12.5 14zM0 56h14v14H0V56zm3-24.5l-.5-.5-.8.8.4.5 1-.8zm0 3.3l-.5-.4-.8.8.4.4 1-.8zm0 3.4l-.5-.4-.8.8.4.4 1-.8zm1.6-8.4l-.5-.5-.7.8.5.6.8-.8zm0 3.3l-.5-.3-.7.8.5.4.8-1zm0 3.5L4 36l-.7 1 .5.3.8-.8zm0 3.4l-.5-.5-.7.8.5.4.8-.8zm1.7-8.5l-.5-.5-.8.8.5.5.8-.8zm0 3.3l-.5-.4-.8.8.5.4.8-.8zm0 3.4l-.5-.4-.8.8.5.4.8-.8zM8 29.8l-.5-.5-.8.8.5.6.8-.8zM8 33l-.5-.3-.8.8.5.4.8-1zm0 3.5l-.5-.4-.8 1 .5.3.8-.8zM8 40l-.5-.5-.8.8.5.4.8-.8zm1.7-8.5l-.5-.5-.8.8.5.5.7-.8zm0 3.3l-.5-.4-.8.8.5.4.7-.8zm0 3.4l-.5-.4-.8.8.5.4.7-.8zM9 49l5-5v2.5L11.5 49H9zm2.4-19.2l-.5-.5-1 .8.6.6.8-.8zm0 3.3l-.5-.3-1 .8.6.4.8-1zm0 3.5L11 36l-1 1 .6.3.8-.8zm0 3.4l-.5-.5-1 .8.6.4.8-.8zm1.6-8.5l-.4-.5-.8.8.5.5.7-.8zm0 3.3l-.4-.4-.8.8.5.4.7-.8zm0 3.4l-.4-.4-.8.8.5.4.7-.8zM12.4 49l1.6-1.6V49h-1.6z" fill="#212121"/></svg>