<?xml version="1.0" encoding="UTF-8" standalone="no"?>
<svg
   xmlns:ns="&amp;ns_sfw;"
   xmlns:dc="http://purl.org/dc/elements/1.1/"
   xmlns:cc="http://creativecommons.org/ns#"
   xmlns:rdf="http://www.w3.org/1999/02/22-rdf-syntax-ns#"
   xmlns:svg="http://www.w3.org/2000/svg"
   xmlns="http://www.w3.org/2000/svg"
   xml:space="preserve"
   enable-background="new 0 0 1920 1079.999"
   viewBox="0 0 1928.207 1283.594"
   height="1283.594"
   width="1928.207"
   y="0px"
   x="0px"
   id="Capa_1"
   version="1.1"><defs
   id="defs114" />
<metadata
   id="metadata3">
	<ns:sfw>
		<ns:slices />
		<ns:sliceSourceBounds
   bottomLeftOrigin="true"
   y="-2649.601"
   x="-1010.696"
   height="2737.313"
   width="4471.249">
			</ns:sliceSourceBounds>
	</ns:sfw>
<rdf:RDF><cc:Work
     rdf:about=""><dc:format>image/svg+xml</dc:format><dc:type
       rdf:resource="http://purl.org/dc/dcmitype/StillImage" /><dc:title></dc:title></cc:Work></rdf:RDF></metadata>
<radialGradient
   gradientUnits="userSpaceOnUse"
   gradientTransform="matrix(2.1248074,0,0,0.9608,1426.4633,124.398)"
   r="631.70038"
   cy="278.6445"
   cx="-218.72169"
   id="SVGID_1_">
	<stop
   id="stop6"
   style="stop-color:#FFFFFF"
   offset="0" />
	<stop
   id="stop8"
   style="stop-color:#FFFFFC"
   offset="0.1716" />
	<stop
   id="stop10"
   style="stop-color:#FFFDF2"
   offset="0.3031" />
	<stop
   id="stop12"
   style="stop-color:#FFFBE2"
   offset="0.4214" />
	<stop
   id="stop14"
   style="stop-color:#FFF8CB"
   offset="0.5318" />
	<stop
   id="stop16"
   style="stop-color:#FFF4AD"
   offset="0.6369" />
	<stop
   id="stop18"
   style="stop-color:#FFF088"
   offset="0.7379" />
	<stop
   id="stop20"
   style="stop-color:#FFEA5C"
   offset="0.8357" />
	<stop
   id="stop22"
   style="stop-color:#FFE42B"
   offset="0.9284" />
	<stop
   id="stop24"
   style="stop-color:#FFDE00"
   offset="1" />
</radialGradient>







<rect
   id="rect26"
   height="783.82397"
   width="1932.5581"
   y="0.20800018"
   x="-4.5561395"
   style="fill:url(#SVGID_1_)" /><path
   id="path28"
   d="m 0.002,586.118 c 89.384623,-1.673 1118.0169,-84.191 1926.9767,183.869 l 0,483.607 -1926.9767,0 0,-667.476 z"
   style="fill:#ffde00" /><path
   id="path30"
   d="m 387.74699,709.76165 c -134.07533,0 -265.48047,5.39111 -393.3263854,15.69817 l 0,558.13418 1935.3487954,0 0,-296.70748 C 1520.1992,814.53041 979.9335,709.76165 387.74699,709.76165 Z"
   style="fill:#ffffff" /><path
   id="path32"
   d="m 1022.711,144.221 c 281.82,-188.586 905.496,-82.115 905.496,-82.115 l 0,-57.897 -672.852,0 -109.473,0 c -15.793,12.104 -125.623,102.087 -147.391,118.96 -12.615,9.78 -34.938,24.899 -54.738,39.95 l -7.354,-20.481 c 2.791,-9.833 8.971,-35.158 3.268,-49.732 -7.191,-18.362 -39.84,-36.443 -39.84,-36.443 0,0 -11.688,35.447 -4.494,53.811 5.865,14.981 28.68,29.777 36.877,34.715 l 7.602,21.153 c -11.67,9.032 -22.125,17.911 -28.697,25.453 -71.939,82.584 -190.541,105.271 -190.541,105.271 -143.16,15.79 -242.869,12.606 -355.291,2.103 C 291.172,292.048 324.189,255.8 334.758,244.232 431.783,138.032 488.984,0 488.984,0 L 358.449,0 c 0,19.477 -9.943,45.958 -15.791,56.846 -2.938,5.456 -11.025,14.658 -21.359,25.273 l -26.518,-8.675 c -6.045,-8.249 -22.227,-28.67 -37.244,-33.113 -18.906,-5.603 -53.23,9.065 -53.23,9.065 0,0 20.807,30.979 39.713,36.579 15.434,4.571 41.107,-4.35 50.047,-7.78 l 23.529,7.695 c -20.779,20.959 -48.658,46.182 -63.369,59.385 C 190.984,202.03 0,304.499 0,304.499 l 0,150.269 c 42.105,-22.159 81.127,-38.376 117.512,-50.082 l 17.586,18.738 c 1.346,10.129 5.738,35.82 16.771,46.931 13.893,13.987 51.033,17.604 51.033,17.604 0,0 -3.354,-37.176 -17.256,-51.162 -11.338,-11.416 -38.154,-15.928 -47.637,-17.195 l -15.494,-16.498 c 108.129,-33.788 192.756,-27.752 265.404,-19.92 149.943,16.183 292.287,21.436 389.502,14.735 31.975,-2.196 82.125,-11.348 138.275,-23.538 l -13.502,20.916 c -9.51,3.746 -33.389,14.199 -41.5,27.582 -10.223,16.872 -4.785,53.783 -4.785,53.783 0,0 35.27,-12.225 45.492,-29.088 8.354,-13.758 6.258,-40.871 5.201,-50.379 l 15.656,-24.244 C 1073.07,339.879 1924.824,161.884 1924.824,161.884 l 0,-73.689 c -37.635,47.222 -756.096,196.01 -814.195,207.621 l 10.557,-21.818 c 8.98,-4.886 31.385,-18.191 37.805,-32.468 8.078,-17.987 -1.857,-53.962 -1.857,-53.962 0,0 -33.488,16.455 -41.574,34.451 -6.59,14.676 -1.193,41.32 1.021,50.633 l -6.25,12.923 c -0.639,-7.159 -2.664,-21.749 -8.734,-28.603 -8.23,-9.287 -31.428,-12.881 -31.428,-12.881 0,0 0.783,23.453 9.014,32.74 6.727,7.586 23.428,11.374 29.328,12.507 l -3.678,7.601 c -64.365,11.927 -129.471,8.675 -170.809,4.002 -92.44,-10.436 88.687,-156.72 88.687,-156.72 z"
   style="fill:#524c40" /><polygon
   style="fill:#3c3c3b"
   transform="translate(-32,4.209)"
   id="polygon34"
   points="1950.508,487.847 1529.449,487.847 1578.135,431.053 1529.449,374.256 1950.508,374.256 " /><g
   transform="translate(0,4.209)"
   id="g36">
	<path
   id="path38"
   d="m 1614.182,411.029 0.674,-1.09 0.67,-1.012 0.76,-1.007 0.758,-1.01 0.762,-0.928 0.842,-0.924 0.84,-0.925 0.922,-0.837 0.848,-0.843 0.928,-0.84 1.004,-0.842 0.93,-0.756 1.01,-0.756 0.508,-0.338 0.588,-0.338 1.008,-0.669 1.098,-0.591 1.094,-0.673 1.094,-0.505 1.18,-0.586 1.094,-0.504 1.18,-0.422 1.18,-0.422 1.262,-0.42 1.18,-0.335 1.264,-0.339 1.262,-0.25 1.26,-0.254 1.266,-0.166 1.348,-0.168 1.266,-0.084 1.348,-0.086 1.348,0 2.016,0 2.023,0.17 1.01,0.084 0.924,0.168 1.941,0.336 1.008,0.25 0.93,0.17 1.852,0.588 1.848,0.586 1.771,0.759 0.924,0.339 0.842,0.42 1.686,0.839 0.842,0.505 0.842,0.506 1.6,1.008 1.516,1.096 1.518,1.175 1.432,1.178 1.346,1.345 1.35,1.344 1.26,1.43 1.18,1.515 1.096,1.51 1.01,1.599 0.502,0.842 0.424,0.842 0.926,1.682 0.758,1.766 0.676,1.765 0.336,0.926 0.336,0.923 0.254,0.926 0.252,0.927 0.25,1.006 0.17,0.927 0.252,1.007 0.084,0.925 0.17,1.009 0.088,1.01 0.082,1.006 0.084,1.008 0.082,1.01 0,1.008 0,1.097 -0.082,0.585 -0.166,0.592 -0.088,0.585 -0.17,0.507 -0.418,0.924 -0.254,0.424 -0.254,0.418 -0.336,0.333 -0.336,0.424 -0.422,0.335 -0.42,0.251 -0.506,0.339 -0.506,0.25 -0.502,0.252 -0.592,0.257 -0.172,-0.168 -0.164,-0.256 -0.17,-0.418 -0.168,-0.422 -0.34,-1.177 -0.418,-1.431 -0.336,-1.678 -0.336,-1.768 -0.676,-4.036 -1.348,-7.732 -0.336,-1.683 -0.254,-1.345 -0.336,-1.097 -0.166,-0.839 -0.422,-0.926 -0.508,-0.839 -0.42,-0.756 -0.504,-0.672 -0.508,-0.592 -0.252,-0.25 -0.254,-0.252 -0.504,-0.42 -0.336,-0.168 -0.254,-0.166 -0.588,-0.254 -0.59,-0.254 -0.59,-0.085 -0.672,-0.081 -0.676,0 -0.588,0.081 -0.674,0.169 -0.676,0.17 -0.758,0.254 -0.672,0.334 -1.432,0.757 -1.432,0.924 -0.758,0.59 -0.76,0.587 -0.332,0.255 -0.424,0.334 -0.758,0.673 -0.672,0.674 -0.758,0.752 -0.76,0.676 -0.756,0.842 -1.518,1.598 0.422,-1.682 0.254,-1.516 0.084,-0.757 0.082,-0.753 0.086,-0.674 0,-0.674 0,-0.59 -0.086,-0.586 -0.082,-0.508 -0.17,-0.502 -0.168,-0.504 -0.252,-0.42 -0.254,-0.338 -0.336,-0.335 -0.592,-0.505 -0.674,-0.336 -0.416,-0.083 -0.342,-0.086 -0.332,-0.085 -0.424,-0.082 -0.336,0 -0.422,0 -0.758,0.082 -0.42,0 -0.42,0.171 -0.846,0.251 -0.842,0.25 -0.842,0.423 -0.924,0.501 -0.842,0.508 -0.926,0.588 -0.844,0.587 -0.924,0.674 -0.93,0.675 -1.682,1.509 -1.684,1.515 -1.604,1.6 -1.514,1.515 -1.348,1.426 -1.266,1.35 -1.85,2.015 0.672,-1.681 0.508,-1.599 0.338,-1.511 0.166,-0.757 0.088,-0.674 0.166,-1.26 0.084,-1.264 0,-0.586 0,-0.507 -0.084,-0.505 -0.088,-0.505 -0.166,-0.923 -0.334,-0.842 -0.17,-0.424 -0.166,-0.332 -0.508,-0.674 -0.506,-0.586 -0.336,-0.256 -0.254,-0.25 -0.672,-0.422 -0.758,-0.334 -0.758,-0.254 -0.756,-0.25 -0.508,-0.086 -0.422,0 -0.926,-0.084 -0.924,0 -0.93,0.084 -1.008,0.17 -1.012,0.166 -1.096,0.254 -1.008,0.334 -1.096,0.339 -1.094,0.42 -1.012,0.505 -1.096,0.504 -1.008,0.504 -1.093,0.669 0,0 z m -5.727,20.511 0,-1.594 0.086,-1.514 0.168,-1.598 0.252,-1.511 0.084,-0.341 0.082,-0.418 0.34,-0.674 0.336,-0.758 0.422,-0.669 0.504,-0.674 0.51,-0.673 0.584,-0.674 0.59,-0.586 0.592,-0.589 0.674,-0.591 0.672,-0.585 0.676,-0.508 0.758,-0.502 0.672,-0.506 1.516,-0.926 1.434,-0.756 1.428,-0.759 1.434,-0.501 1.264,-0.507 1.092,-0.252 0.506,-0.084 0.508,-0.081 0.336,-0.085 0.42,0 0.252,0.085 0.254,0.081 0.254,0.169 0.164,0.167 0.17,0.169 0.17,0.253 0.084,0.252 0.168,0.334 0,0.339 0.082,0.335 0,0.841 -0.082,0.843 -0.168,0.925 -0.254,1.091 -0.334,1.092 -0.426,1.181 -0.924,2.435 -0.59,1.348 -0.59,1.26 -1.26,2.689 -1.434,2.606 -1.346,2.607 -2.611,4.624 -2.104,3.531 -1.096,1.767 -0.336,0.67 -0.086,0.337 -0.082,0.337 -0.086,0.255 0,0.334 0.086,0.501 0.082,0.342 0.086,0.25 0.084,0.167 0.166,0.25 0.34,0.423 0.418,0.337 0.424,0.253 0.502,0.169 0.506,0.083 0.588,0 0.508,-0.168 0.592,-0.255 0.25,-0.167 0.25,-0.168 0.256,-0.252 0.252,-0.337 5.729,-6.81 4.207,-4.961 2.275,-2.604 2.439,-2.69 2.359,-2.69 1.262,-1.264 1.178,-1.259 2.355,-2.44 2.365,-2.267 2.186,-2.018 1.008,-0.841 1.016,-0.842 0.922,-0.674 0.924,-0.589 0.758,-0.502 0.762,-0.424 -0.168,1.265 -0.336,1.426 -0.17,0.758 -0.254,0.842 -0.506,1.599 -0.504,1.765 -0.672,1.768 -0.672,1.766 -0.76,1.849 -1.518,3.698 -1.598,3.527 -0.76,1.599 -0.842,1.6 -0.758,1.43 -0.672,1.343 -1.266,2.016 -0.334,0.676 -0.086,0.334 -0.086,0.339 0,0.25 0,0.337 0.086,0.505 0.086,0.335 0.082,0.256 0.252,0.417 0.254,0.251 0.17,0.172 0.166,0.17 0.256,0.167 0.25,0.083 0.254,0.167 0.252,0.084 0.252,0.084 0.588,0 0.508,0 0.254,-0.084 0.334,-0.084 0.254,-0.167 0.252,-0.168 0.508,-0.424 0.252,-0.251 0.166,-0.334 0.084,-0.083 0.088,-0.085 1.008,-1.764 1.348,-2.021 1.43,-2.185 1.6,-2.439 1.688,-2.434 1.848,-2.525 1.855,-2.605 1.938,-2.441 1.852,-2.434 1.852,-2.189 1.854,-2.017 0.842,-0.924 0.842,-0.842 0.758,-0.757 0.842,-0.67 0.672,-0.589 0.762,-0.424 0.252,-0.251 0.336,-0.168 0.588,-0.25 0.59,-0.084 0.424,0 0.502,0.334 0.422,0.592 0.42,0.584 0.34,0.758 0.252,0.842 0.25,0.925 0.254,0.924 0.25,1.093 0.338,2.271 0.336,2.352 0.592,5.129 0.254,1.261 0.166,1.264 0.422,2.352 0.338,1.181 0.084,0.585 0.164,0.507 0.34,1.092 0.42,1.008 0.256,0.424 0.168,0.417 0.504,0.842 0.254,0.418 0.252,0.339 0.672,0.674 0.672,0.501 0.342,0.252 0.334,0.172 0.422,0.165 0.422,0.17 0.42,0.083 0.424,0.084 1.006,0.085 0.51,0 0.418,-0.085 0.926,-0.167 0.93,-0.25 -0.51,1.425 -0.586,1.431 -0.676,1.344 -0.336,0.674 -0.34,0.673 -0.754,1.344 -0.76,1.266 -0.842,1.26 -0.842,1.175 -0.926,1.18 -1.012,1.175 -1.012,1.093 -1.008,1.092 -1.096,1.008 -0.59,0.508 -0.588,0.502 -1.098,0.925 -1.262,0.929 -1.178,0.835 -1.262,0.842 -1.35,0.757 -1.348,0.676 -1.346,0.669 -1.346,0.674 -1.434,0.506 -1.428,0.501 -0.76,0.256 -0.76,0.251 -1.514,0.335 -1.516,0.339 -1.514,0.335 -1.516,0.167 -1.602,0.166 -1.6,0.084 -1.598,0.092 -2.023,-0.092 -2.021,-0.165 -1.012,-0.085 -1.008,-0.167 -1.941,-0.335 -0.924,-0.171 -0.926,-0.253 -1.936,-0.501 -1.77,-0.674 -1.848,-0.674 -0.846,-0.416 -0.844,-0.424 -1.768,-0.842 -0.84,-0.418 -0.76,-0.506 -1.602,-1.009 -1.596,-1.176 -1.436,-1.092 -1.432,-1.265 -1.43,-1.342 -1.262,-1.35 -1.266,-1.426 -1.178,-1.514 -1.094,-1.512 -1.01,-1.597 -0.504,-0.842 -0.508,-0.842 -0.842,-1.683 -0.754,-1.765 -0.764,-1.765 -0.25,-0.926 -0.336,-0.926 -0.252,-0.924 -0.254,-0.925 -0.252,-0.927 -0.252,-1.005 -0.17,-0.927 -0.168,-1.007 -0.086,-1.01 -0.166,-0.924 -0.084,-1.01 -0.086,-1.007 0,-1.015 0,-1.01 0,0 z"
   style="fill:#ffffff" />
	<polygon
   id="polygon40"
   points="1725.582,420.192 1716.988,445.917 1716.906,445.917 1708.318,420.192 1703.182,420.192 1703.182,450.458 1703.182,450.458 1706.217,450.458 1706.217,423.892 1706.299,423.892 1715.223,450.458 1718.59,450.458 1727.514,423.892 1727.602,423.892 1727.602,450.458 1730.635,450.458 1730.635,420.192 "
   style="clip-rule:evenodd;fill:#ffffff;fill-rule:evenodd" />
	<path
   id="path42"
   d="m 1732.482,450.458 3.453,0 2.947,-9.333 10.777,0 3.031,9.333 3.367,0 -9.766,-30.266 -4.125,0 -9.684,30.266 0,0 z m 11.706,-27.155 0.084,0 4.463,14.967 -8.924,0 4.377,-14.967 0,0 z"
   style="clip-rule:evenodd;fill:#ffffff;fill-rule:evenodd" />
	<polygon
   id="polygon44"
   points="1776.186,420.192 1772.65,420.192 1764.057,446.759 1763.975,446.759 1755.387,420.192 1751.934,420.192 1761.787,450.458 1761.787,450.458 1766.08,450.458 "
   style="clip-rule:evenodd;fill:#ffffff;fill-rule:evenodd" />
	<polygon
   id="polygon46"
   points="1782.16,450.458 1782.16,420.192 1778.709,420.192 1778.709,450.458 1778.709,450.458 "
   style="clip-rule:evenodd;fill:#ffffff;fill-rule:evenodd" />
	<polygon
   id="polygon48"
   points="1795.637,445.833 1795.637,441.546 1797.994,441.546 1797.994,440.536 1795.637,440.536 1795.637,437.597 1794.455,437.929 1794.455,440.536 1792.684,440.536 1792.684,441.546 1794.455,441.546 1794.455,446.341 1794.455,446.927 1794.537,447.432 1794.625,447.853 1794.877,448.189 1794.959,448.274 1795.127,448.441 1795.549,448.607 1795.973,448.691 1796.479,448.691 1797.318,448.691 1797.656,448.607 1797.994,448.525 1797.994,448.525 1797.994,447.516 1797.486,447.6 1796.896,447.683 1796.562,447.683 1796.223,447.6 1796.055,447.432 1795.887,447.266 1795.805,447.093 1795.715,446.759 1795.637,446.341 "
   style="clip-rule:evenodd;fill:#ffffff;fill-rule:evenodd" />
	<path
   id="path50"
   d="m 1805.906,443.733 -0.082,-0.673 -0.088,-0.591 -0.254,-0.586 -0.164,-0.25 -0.17,-0.256 -0.168,-0.168 -0.252,-0.165 -0.254,-0.17 -0.252,-0.171 -0.336,-0.084 -0.336,-0.084 -0.422,-0.085 -0.338,0 -0.418,0 -0.428,0.085 -0.332,0.084 -0.336,0.173 -0.338,0.167 -0.254,0.165 -0.254,0.253 -0.254,0.256 -0.418,0.586 -0.254,0.757 -0.164,0.334 0,0.423 -0.088,0.419 0,0.505 0,0.503 0.088,0.423 0,0.501 0.164,0.342 0.084,0.417 0.17,0.339 0.254,0.25 0.164,0.336 0.254,0.167 0.254,0.255 0.336,0.168 0.338,0.168 0.336,0.082 0.424,0.084 0.418,0 0.422,0.085 0.758,-0.085 0.676,-0.084 0.672,-0.166 0.59,-0.167 -0.172,-1.009 -0.502,0.166 -0.588,0.168 -0.592,0.083 -0.592,0.085 -0.672,-0.085 -0.592,-0.167 -0.16,-0.084 -0.254,-0.166 -0.254,-0.173 -0.17,-0.166 -0.252,-0.419 -0.252,-0.591 0,-0.334 -0.084,-0.423 0,-0.84 5.387,0 0,-0.337 0,-0.25 10e-4,0 z m -1.263,-0.338 -4.039,0 0.082,-0.418 0.17,-0.418 0.166,-0.339 0.256,-0.336 0.336,-0.167 0.332,-0.256 0.342,-0.083 0.418,0 0.424,0 0.422,0.083 0.166,0.085 0.17,0.171 0.17,0.085 0.084,0.167 0.252,0.251 0.166,0.339 0.084,0.418 0,0.418 -10e-4,0 z"
   style="clip-rule:evenodd;fill:#ffffff;fill-rule:evenodd" />
	<polygon
   id="polygon52"
   points="1809.105,446.759 1808.855,446.341 1808.686,445.833 1808.602,445.249 1808.602,444.657 1808.602,443.983 1808.77,443.311 1808.938,442.809 1809.193,442.303 1809.357,442.135 1809.609,441.969 1809.781,441.802 1810.033,441.717 1810.283,441.546 1810.539,441.546 1811.213,441.461 1811.631,441.461 1812.137,441.546 1812.555,441.634 1812.979,441.802 1813.145,440.704 1812.221,440.536 1811.213,440.451 1810.793,440.451 1810.369,440.536 1809.951,440.62 1809.527,440.793 1809.193,440.96 1808.855,441.125 1808.686,441.295 1808.516,441.378 1808.428,441.546 1808.264,441.717 1808.178,441.802 1808.096,441.969 1807.842,442.303 1807.678,442.724 1807.59,443.061 1807.422,443.482 1807.338,443.9 1807.338,444.407 1807.338,444.909 1807.338,445.416 1807.422,445.917 1807.504,446.341 1807.59,446.759 1807.756,447.093 1807.928,447.432 1808.178,447.683 1808.35,447.935 1808.602,448.105 1808.855,448.274 1809.193,448.441 1809.441,448.525 1810.115,448.691 1810.793,448.691 1811.465,448.691 1812.137,448.525 1812.727,448.441 1813.145,448.274 1813.145,448.274 1813.062,447.182 1812.643,447.432 1812.137,447.516 1811.547,447.6 1811.041,447.683 1810.707,447.683 1810.369,447.6 1809.863,447.432 1809.441,447.182 1809.273,447.011 "
   style="clip-rule:evenodd;fill:#ffffff;fill-rule:evenodd" />
	<polygon
   id="polygon54"
   points="1819.967,440.536 1819.715,440.451 1819.377,440.451 1819.041,440.451 1818.535,440.451 1818.031,440.536 1817.611,440.704 1817.271,440.96 1816.936,441.21 1816.6,441.546 1816.348,441.969 1816.264,442.135 1816.18,442.385 1816.264,441.461 1816.264,440.536 1815.082,440.536 1815.082,448.607 1816.264,448.607 1816.264,444.742 1816.348,444.068 1816.434,443.733 1816.434,443.395 1816.682,442.894 1816.936,442.385 1817.357,441.969 1817.523,441.802 1817.777,441.634 1818.201,441.461 1818.703,441.378 1819.127,441.461 1819.463,441.546 1819.715,441.717 1819.967,441.969 1820.051,442.22 1820.137,442.559 1820.219,442.977 1820.219,443.395 1820.219,448.607 1821.484,448.607 1821.484,448.607 1821.484,442.977 1821.398,442.47 1821.314,441.969 1821.314,441.802 1821.146,441.546 1820.979,441.21 1820.809,441.045 1820.643,440.875 1820.391,440.704 1820.219,440.62 "
   style="clip-rule:evenodd;fill:#ffffff;fill-rule:evenodd" />
	<path
   id="path56"
   d="m 1830.914,444.492 0,-0.592 -0.088,-0.25 0,-0.256 -0.08,-0.418 -0.17,-0.418 -0.082,-0.339 -0.168,-0.336 -0.25,-0.25 -0.258,-0.256 -0.252,-0.253 -0.254,-0.165 -0.25,-0.167 -0.34,-0.173 -0.336,-0.084 -0.334,-0.085 -0.338,0 -0.336,0 -0.506,0 -0.424,0.085 -0.336,0.084 -0.418,0.173 -0.336,0.167 -0.256,0.165 -0.336,0.253 -0.254,0.256 -0.254,0.335 -0.164,0.334 -0.17,0.341 -0.172,0.333 -0.084,0.418 -0.082,0.424 -0.084,0.417 0,0.422 0,0.503 0.084,0.423 0.082,0.501 0.084,0.342 0.342,0.756 0.164,0.25 0.17,0.336 0.254,0.167 0.334,0.255 0.256,0.168 0.336,0.168 0.336,0.082 0.338,0.084 0.756,0.085 0.424,-0.085 0.418,0 0.424,-0.166 0.336,-0.084 0.336,-0.252 0.336,-0.165 0.254,-0.257 0.338,-0.252 0.172,-0.334 0.25,-0.339 0.168,-0.335 0.17,-0.334 0.082,-0.423 0.08,-0.42 0.088,-0.422 0,-0.417 0,0 z m -1.266,0 -0.082,0.839 -0.168,0.67 -0.086,0.255 -0.082,0.252 -0.336,0.419 -0.172,0.166 -0.166,0.173 -0.252,0.166 -0.17,0.084 -0.42,0.167 -0.504,0 -0.508,0 -0.506,-0.167 -0.252,-0.168 -0.172,-0.082 -0.332,-0.339 -0.338,-0.501 -0.168,-0.509 -0.082,-0.334 0,-0.334 -0.086,-0.757 0,-0.34 0.086,-0.334 0.082,-0.675 0.25,-0.5 0.174,-0.259 0.166,-0.25 0.17,-0.166 0.166,-0.085 0.422,-0.25 0.508,-0.173 0.42,0 0.334,0 0.254,0 0.254,0.085 0.252,0.088 0.166,0.168 0.252,0.082 0.172,0.168 0.168,0.168 0.25,0.504 0.086,0.253 0.086,0.25 0.082,0.592 0.082,0.674 0,0 z"
   style="clip-rule:evenodd;fill:#ffffff;fill-rule:evenodd" />
	<polygon
   id="polygon58"
   points="1834.199,436.839 1832.934,436.839 1832.934,448.607 1834.199,448.607 1834.199,448.607 "
   style="clip-rule:evenodd;fill:#ffffff;fill-rule:evenodd" />
	<path
   id="path60"
   d="m 1843.627,444.492 0,-0.592 -0.08,-0.25 0,-0.256 -0.088,-0.418 -0.168,-0.418 -0.084,-0.339 -0.166,-0.336 -0.252,-0.25 -0.258,-0.256 -0.248,-0.253 -0.256,-0.165 -0.252,-0.167 -0.336,-0.173 -0.34,-0.084 -0.334,-0.085 -0.338,0 -0.336,0 -0.506,0 -0.424,0.085 -0.334,0.084 -0.422,0.173 -0.334,0.167 -0.254,0.165 -0.336,0.253 -0.256,0.256 -0.254,0.335 -0.166,0.334 -0.166,0.341 -0.17,0.333 -0.084,0.418 -0.082,0.424 -0.088,0.417 0,0.422 0,0.503 0.088,0.423 0.082,0.501 0.084,0.342 0.336,0.756 0.166,0.25 0.176,0.336 0.248,0.167 0.34,0.255 0.248,0.168 0.342,0.168 0.334,0.082 0.336,0.084 0.76,0.085 0.42,-0.085 0.422,0 0.42,-0.166 0.336,-0.084 0.336,-0.252 0.338,-0.165 0.256,-0.257 0.334,-0.252 0.172,-0.334 0.252,-0.339 0.166,-0.335 0.17,-0.334 0.082,-0.423 0.088,-0.42 0.08,-0.422 0,-0.417 0,0 z m -1.262,0 -0.082,0.839 -0.172,0.67 -0.084,0.255 -0.082,0.252 -0.338,0.419 -0.168,0.166 -0.168,0.173 -0.254,0.166 -0.172,0.084 -0.418,0.167 -0.506,0 -0.502,0 -0.506,-0.167 -0.254,-0.168 -0.17,-0.082 -0.334,-0.339 -0.338,-0.501 -0.17,-0.509 -0.084,-0.334 0,-0.334 -0.082,-0.757 0,-0.34 0.082,-0.334 0.084,-0.675 0.252,-0.5 0.172,-0.259 0.166,-0.25 0.168,-0.166 0.168,-0.085 0.422,-0.25 0.506,-0.173 0.42,0 0.336,0 0.254,0 0.254,0.085 0.252,0.088 0.17,0.168 0.252,0.082 0.168,0.168 0.168,0.168 0.252,0.504 0.084,0.253 0.088,0.25 0.084,0.592 0.082,0.674 0,0 z"
   style="clip-rule:evenodd;fill:#ffffff;fill-rule:evenodd" />
	<path
   id="path62"
   d="m 1852.471,449.873 -0.086,-0.508 0,-0.25 -0.086,-0.167 -0.248,-0.423 -0.088,-0.168 -0.166,-0.168 -0.172,-0.084 -0.25,-0.171 -0.168,-0.082 -0.256,-0.085 -0.59,-0.168 -0.588,0 -1.598,0 -0.594,-0.084 -0.248,0 -0.252,-0.084 -0.172,-0.084 -0.084,-0.082 -0.08,-0.173 0,-0.166 0,-0.251 0.164,-0.168 0.084,-0.082 0.088,-0.085 0.082,-0.085 0.17,-0.082 0.506,0.082 0.588,0.085 0.42,-0.085 0.424,0 0.67,-0.172 0.338,-0.167 0.254,-0.084 0.252,-0.166 0.252,-0.251 0.254,-0.167 0.166,-0.255 0.168,-0.252 0.084,-0.25 0.172,-0.592 0,-0.333 0.082,-0.257 -0.082,-0.334 0,-0.253 -0.172,-0.421 -0.084,-0.251 -0.168,-0.168 -0.336,-0.338 1.52,0 0,-1.01 -2.779,0 -0.59,-0.085 -0.59,0 -0.76,0 -0.418,0.085 -0.34,0.168 -0.254,0.089 -0.334,0.167 -0.254,0.165 -0.254,0.253 -0.334,0.424 -0.338,0.501 -0.086,0.341 -0.084,0.25 0,0.333 -0.082,0.341 0.082,0.333 0,0.335 0.084,0.337 0.17,0.337 0.168,0.251 0.172,0.256 0.248,0.251 0.34,0.166 -0.422,0.251 -0.166,0.172 -0.086,0.17 -0.086,0.167 -0.082,0.166 -0.086,0.168 0,0.255 0,0.166 0.086,0.168 0,0.167 0.168,0.17 0.086,0.172 0.166,0.081 0.336,0.252 -0.336,0.168 -0.252,0.166 -0.254,0.257 -0.17,0.251 -0.166,0.25 -0.166,0.337 -0.088,0.337 0,0.335 0,0.25 0.088,0.256 0.166,0.501 0.082,0.252 0.17,0.172 0.17,0.17 0.254,0.165 0.248,0.085 0.254,0.166 0.254,0.088 0.25,0.085 0.678,0.165 0.756,0 0.422,0 0.424,-0.082 0.418,-0.083 0.418,-0.085 0.42,-0.088 0.34,-0.166 0.25,-0.168 0.34,-0.167 0.252,-0.168 0.254,-0.256 0.166,-0.251 0.17,-0.25 0.166,-0.251 0.086,-0.34 0.086,-0.251 0,-0.334 -10e-4,0 z m -1.77,-6.478 0,0.424 -0.168,0.417 -0.084,0.172 -0.088,0.165 -0.252,0.337 -0.336,0.169 -0.336,0.171 -0.42,0.082 -0.506,0.085 -0.422,-0.085 -0.42,-0.082 -0.422,-0.171 -0.254,-0.169 -0.248,-0.337 -0.17,-0.337 -0.168,-0.335 0,-0.506 0,-0.418 0.168,-0.418 0.08,-0.174 0.09,-0.165 0.08,-0.168 0.168,-0.083 0.34,-0.252 0.336,-0.171 0.42,-0.168 0.506,0 0.51,0 0.418,0.083 0.338,0.173 0.334,0.25 0.166,0.336 0.258,0.339 0.082,0.418 0,0.418 0,0 z m 0.59,6.643 -0.084,0.337 -0.17,0.333 -0.168,0.341 -0.168,0.166 -0.168,0.084 -0.424,0.251 -0.504,0.167 -0.5,0.089 -0.678,0 -0.422,0 -0.502,-0.089 -0.34,-0.079 -0.418,-0.256 -0.254,-0.167 -0.17,-0.251 -0.17,-0.339 0,-0.418 0,-0.253 0,-0.168 0.17,-0.253 0.086,-0.25 0.168,-0.168 0.25,-0.167 0.422,-0.341 0.506,0 1.684,0 0.424,0.084 0.334,0.085 0.338,0.087 0.252,0.167 0.252,0.169 0.084,0.25 0.086,0.252 0.084,0.337 0,0 z"
   style="clip-rule:evenodd;fill:#ffffff;fill-rule:evenodd" />
	<path
   id="path64"
   d="m 1855.754,448.607 0,-8.071 -1.182,0 0,8.071 1.182,0 0,0 z m 1.014,-11.01 -0.678,-0.843 -2.02,1.849 0.502,0.674 2.196,-1.68 0,0 z"
   style="clip-rule:evenodd;fill:#ffffff;fill-rule:evenodd" />
	<path
   id="path66"
   d="m 1864.09,448.607 0,-1.176 0,-1.258 0,-3.113 -0.082,-0.591 -0.088,-0.501 -0.082,-0.167 -0.086,-0.256 -0.168,-0.168 -0.086,-0.168 -0.166,-0.165 -0.252,-0.17 -0.506,-0.255 -0.592,-0.169 -0.334,0 -0.424,0 -0.756,0 -0.758,0.169 -0.672,0.173 -0.59,0.252 0.082,1.09 0.59,-0.333 0.338,-0.085 0.252,-0.171 0.672,-0.085 0.59,-0.083 0.506,0.083 0.422,0.085 0.336,0.171 0.17,0.167 0.25,0.251 0.086,0.335 0.082,0.424 0,0.417 0,0.673 -0.588,0 -0.504,0 -1.01,0.169 -0.422,0.083 -0.42,0.172 -0.676,0.335 -0.252,0.167 -0.254,0.251 -0.25,0.256 -0.168,0.251 -0.172,0.25 -0.084,0.257 -0.082,0.334 0,0.251 0.082,0.507 0,0.166 0.084,0.168 0.172,0.335 0.25,0.34 0.336,0.167 0.42,0.166 0.424,0.084 0.42,0.085 0.506,-0.085 0.504,-0.084 0.42,-0.166 0.34,-0.252 0.336,-0.255 0.338,-0.335 0.168,-0.334 0.168,-0.339 0.086,0 -0.086,0.339 0,0.417 0,0.925 1.18,0 0,-10e-4 z m -1.266,-3.613 0,0.505 -0.168,0.502 -0.166,0.425 -0.338,0.417 -0.338,0.423 -0.166,0.166 -0.17,0.084 -0.254,0.084 -0.252,0.083 -0.504,0.085 -0.252,0 -0.254,-0.085 -0.252,-0.083 -0.166,-0.168 -0.174,-0.166 -0.084,-0.173 -0.082,-0.25 -0.084,-0.25 0.084,-0.167 0,-0.17 0.082,-0.255 0.258,-0.334 0.336,-0.251 0.166,-0.085 0.336,-0.171 0.59,-0.166 0.842,-0.085 1.01,-0.084 0,0.169 0,0 z"
   style="clip-rule:evenodd;fill:#ffffff;fill-rule:evenodd" />
	<polygon
   id="polygon68"
   points="1867.961,443.482 1867.795,443.395 1867.711,443.227 1867.625,443.144 1867.625,442.977 1867.543,442.644 1867.625,442.385 1867.711,442.135 1867.795,441.884 1867.961,441.717 1868.215,441.546 1868.553,441.461 1868.889,441.378 1869.309,441.378 1870.152,441.461 1870.574,441.546 1870.992,441.634 1870.992,440.62 1870.234,440.451 1869.814,440.451 1869.479,440.451 1868.719,440.451 1868.383,440.536 1868.131,440.62 1867.543,440.793 1867.117,441.125 1866.783,441.461 1866.617,441.634 1866.531,441.884 1866.447,442.052 1866.359,442.303 1866.359,442.559 1866.277,442.809 1866.359,443.311 1866.447,443.482 1866.447,443.65 1866.699,443.983 1866.951,444.32 1867.205,444.492 1867.543,444.657 1868.301,444.909 1868.973,445.16 1869.309,445.249 1869.648,445.416 1869.898,445.583 1869.986,445.667 1870.066,445.751 1870.152,445.917 1870.152,446.001 1870.234,446.341 1870.152,446.676 1870.066,446.927 1869.898,447.182 1869.648,447.348 1869.396,447.516 1869.057,447.6 1868.633,447.683 1868.215,447.768 1867.795,447.683 1867.289,447.683 1866.869,447.6 1866.447,447.432 1866.447,448.607 1867.205,448.691 1868.131,448.776 1868.889,448.691 1869.562,448.525 1870.152,448.357 1870.404,448.189 1870.574,448.024 1870.826,447.853 1870.992,447.6 1871.162,447.432 1871.246,447.182 1871.332,447.011 1871.416,446.759 1871.5,446.508 1871.5,446.174 1871.5,446.174 1871.416,445.751 1871.416,445.499 1871.332,445.331 1871.162,444.994 1870.912,444.742 1870.574,444.572 1870.234,444.407 1869.562,444.152 1868.807,443.9 1868.131,443.65 "
   style="clip-rule:evenodd;fill:#ffffff;fill-rule:evenodd" />
	<polygon
   id="polygon70"
   points="1799.002,424.398 1798.748,424.315 1798.412,424.315 1798.076,424.315 1797.57,424.315 1797.15,424.398 1796.729,424.565 1796.309,424.816 1795.973,425.066 1795.637,425.407 1795.381,425.825 1795.297,425.992 1795.213,426.249 1795.297,425.324 1795.297,424.398 1794.121,424.398 1794.121,432.469 1795.297,432.469 1795.297,428.6 1795.381,427.93 1795.467,427.591 1795.549,427.256 1795.715,426.75 1796.055,426.249 1796.393,425.825 1796.562,425.657 1796.811,425.49 1797.232,425.324 1797.82,425.239 1798.16,425.324 1798.498,425.407 1798.748,425.575 1799.002,425.825 1799.17,426.081 1799.254,426.414 1799.254,426.835 1799.342,427.256 1799.342,432.469 1800.52,432.469 1800.52,432.469 1800.52,426.835 1800.52,426.331 1800.432,425.825 1800.348,425.657 1800.266,425.407 1800.014,425.066 1799.844,424.9 1799.676,424.733 1799.506,424.565 1799.254,424.482 "
   style="clip-rule:evenodd;fill:#ffffff;fill-rule:evenodd" />
	<polygon
   id="polygon72"
   points="1807.086,431.373 1806.578,431.54 1806.076,431.623 1805.654,431.54 1805.318,431.458 1805.064,431.29 1804.893,431.121 1804.729,430.788 1804.643,430.448 1804.559,430.113 1804.559,429.607 1804.559,424.398 1803.379,424.398 1803.379,430.031 1803.379,430.532 1803.463,431.039 1803.551,431.29 1803.635,431.458 1803.887,431.88 1804.057,432.047 1804.223,432.216 1804.393,432.297 1804.643,432.382 1804.812,432.469 1805.148,432.548 1805.4,432.637 1805.736,432.637 1806.242,432.548 1806.748,432.469 1807.172,432.297 1807.59,432.047 1807.928,431.795 1808.178,431.458 1808.428,431.121 1808.516,430.871 1808.602,430.705 1808.686,430.705 1808.602,431.54 1808.516,432.469 1809.693,432.469 1809.693,432.469 1809.693,424.398 1808.516,424.398 1808.516,428.263 1808.516,429.022 1808.428,429.272 1808.35,429.607 1808.096,430.198 1807.842,430.705 1807.504,431.039 1807.254,431.206 "
   style="clip-rule:evenodd;fill:#ffffff;fill-rule:evenodd" />
	<path
   id="path74"
   d="m 1818.449,427.591 0,-0.675 -0.164,-0.585 -0.254,-0.591 -0.084,-0.25 -0.17,-0.251 -0.254,-0.173 -0.252,-0.166 -0.25,-0.167 -0.256,-0.168 -0.332,-0.083 -0.342,-0.084 -0.334,-0.083 -0.418,0 -0.424,0 -0.338,0.083 -0.418,0.084 -0.34,0.168 -0.252,0.166 -0.336,0.167 -0.254,0.256 -0.252,0.251 -0.424,0.591 -0.248,0.754 -0.088,0.338 -0.082,0.418 -0.084,0.422 0,0.502 0,0.508 0.084,0.418 0.082,0.506 0.088,0.336 0.166,0.423 0.17,0.334 0.164,0.251 0.172,0.333 0.252,0.172 0.34,0.252 0.25,0.169 0.336,0.166 0.422,0.087 0.336,0.079 0.42,0 0.422,0.089 0.76,-0.089 0.672,-0.079 0.676,-0.172 0.59,-0.166 -0.17,-1.01 -0.42,0.169 -0.59,0.168 -0.674,0.082 -0.59,0.083 -0.676,-0.083 -0.504,-0.167 -0.252,-0.083 -0.252,-0.169 -0.17,-0.165 -0.168,-0.168 -0.336,-0.425 -0.168,-0.585 -0.088,-0.338 -0.082,-0.418 0,-0.842 5.387,0 0,-0.339 0,-0.251 10e-4,0 z m -1.26,-0.335 -4.045,0 0.088,-0.421 0.168,-0.421 0.168,-0.333 0.252,-0.341 0.34,-0.165 0.336,-0.251 0.338,-0.085 0.418,0 0.422,0 0.418,0.085 0.172,0.083 0.17,0.168 0.166,0.082 0.082,0.168 0.254,0.256 0.17,0.333 0.084,0.421 0,0.421 -10e-4,0 z"
   style="clip-rule:evenodd;fill:#ffffff;fill-rule:evenodd" />
	<polygon
   id="polygon76"
   points="1826.619,424.398 1825.273,424.398 1823.336,429.696 1823.084,430.363 1822.912,431.121 1822.412,429.696 1820.561,424.398 1819.209,424.398 1822.24,432.469 1823.504,432.469 1826.619,424.398 "
   style="clip-rule:evenodd;fill:#ffffff;fill-rule:evenodd" />
	<path
   id="path78"
   d="m 1833.184,432.469 -0.08,-1.179 0,-1.259 0,-3.115 0,-0.585 -0.082,-0.506 -0.088,-0.168 -0.084,-0.25 -0.17,-0.168 -0.166,-0.173 -0.168,-0.166 -0.168,-0.167 -0.51,-0.251 -0.586,-0.167 -0.418,0 -0.338,0 -0.842,0 -0.674,0.167 -0.676,0.168 -0.59,0.25 0.084,1.092 0.592,-0.335 0.25,-0.082 0.34,-0.168 0.674,-0.083 0.592,-0.085 0.5,0.085 0.424,0.083 0.25,0.168 0.254,0.165 0.164,0.252 0.17,0.339 0.086,0.419 0,0.423 0,0.669 -0.592,0 -0.506,0 -1.008,0.171 -0.42,0.085 -0.422,0.165 -0.672,0.337 -0.336,0.165 -0.254,0.258 -0.17,0.25 -0.166,0.25 -0.168,0.256 -0.084,0.253 -0.088,0.332 0,0.257 0,0.501 0.088,0.169 0.084,0.168 0.168,0.337 0.25,0.336 0.34,0.166 0.336,0.172 0.506,0.079 0.42,0.089 0.504,-0.089 0.42,-0.079 0.422,-0.172 0.424,-0.25 0.332,-0.252 0.258,-0.337 0.248,-0.337 0.17,-0.333 0.084,0 -0.084,0.333 0,0.419 0,0.929 1.176,0 0,-0.001 z m -1.26,-3.613 -0.086,0.501 -0.078,0.504 -0.256,0.421 -0.254,0.423 -0.336,0.416 -0.168,0.169 -0.252,0.083 -0.168,0.085 -0.25,0.082 -0.51,0.083 -0.336,0 -0.254,-0.083 -0.166,-0.082 -0.17,-0.168 -0.17,-0.169 -0.166,-0.165 0,-0.251 -0.084,-0.257 0,-0.166 0.084,-0.169 0.082,-0.252 0.254,-0.339 0.336,-0.25 0.168,-0.083 0.254,-0.167 0.678,-0.166 0.838,-0.092 1.01,-0.081 0,0.173 0,0 z"
   style="clip-rule:evenodd;fill:#ffffff;fill-rule:evenodd" />
	<polygon
   id="polygon80"
   points="1836.973,427.341 1836.891,427.256 1836.807,427.088 1836.723,427.006 1836.723,426.835 1836.641,426.499 1836.641,426.249 1836.723,425.992 1836.891,425.74 1837.061,425.575 1837.312,425.407 1837.648,425.324 1837.984,425.239 1838.406,425.239 1839.248,425.324 1839.67,425.407 1840.092,425.49 1840.092,424.482 1839.332,424.315 1838.914,424.315 1838.49,424.315 1837.818,424.315 1837.482,424.398 1837.148,424.482 1836.641,424.65 1836.217,424.983 1835.883,425.324 1835.713,425.49 1835.629,425.74 1835.545,425.908 1835.463,426.164 1835.377,426.414 1835.377,426.666 1835.463,427.173 1835.463,427.341 1835.545,427.509 1835.713,427.842 1835.965,428.181 1836.305,428.348 1836.641,428.515 1837.312,428.765 1838.072,429.022 1838.406,429.106 1838.66,429.272 1838.914,429.44 1839.08,429.522 1839.162,429.607 1839.248,429.778 1839.248,429.861 1839.332,430.198 1839.248,430.532 1839.162,430.788 1838.996,431.039 1838.744,431.206 1838.49,431.373 1838.156,431.458 1837.736,431.54 1837.312,431.623 1836.891,431.54 1836.387,431.54 1835.965,431.458 1835.545,431.29 1835.545,432.469 1836.305,432.548 1837.227,432.637 1837.984,432.548 1838.574,432.382 1839.162,432.216 1839.42,432.047 1839.67,431.88 1839.84,431.713 1840.092,431.458 1840.176,431.29 1840.344,431.039 1840.428,430.871 1840.512,430.62 1840.512,430.363 1840.598,430.031 1840.598,430.031 1840.512,429.607 1840.428,429.357 1840.428,429.189 1840.176,428.856 1839.922,428.6 1839.67,428.433 1839.332,428.263 1838.574,428.013 1837.9,427.759 1837.227,427.509 "
   style="clip-rule:evenodd;fill:#ffffff;fill-rule:evenodd" />
</g><polygon
   transform="translate(0,4.209)"
   id="polygon82"
   points="628.424,1033.251 628.092,1033.76 628.436,1033.257 628.43,1033.251 "
   style="fill:none" /><g
   transform="translate(0,4.209)"
   id="g84">
	<g
   id="g86">
		<path
   id="path88"
   d="m 1460.558,211.189 c -0.216,-0.631 -0.521,-1.262 -0.858,-1.892 -2.421,-4.299 -9.074,-17.167 -10.117,-22.156 -8.111,-38.821 -51.012,-62.704 -95.82,-53.341 -44.793,9.359 -74.541,48.423 -66.429,87.244 0.914,4.374 -0.238,18.568 -1.442,26.643 l 174.666,-36.498 z"
   style="clip-rule:evenodd;fill:#f6cd7d;fill-rule:evenodd" />
		<path
   id="path90"
   d="m 1357.893,159.551 c 11.534,-2.41 18.989,-13.791 16.574,-25.35 -2.414,-11.552 -13.802,-18.994 -25.336,-16.584 -11.564,2.416 -19.02,13.796 -16.605,25.349 2.414,11.557 13.802,19.001 25.367,16.585 z"
   style="clip-rule:evenodd;fill:#f6cd7d;fill-rule:evenodd" />
		<g
   id="g92">
			<path
   id="path94"
   d="m 1308.719,157.354 c 6.324,-6.152 13.812,-11.486 22.207,-15.654 0.877,1.321 1.512,2.814 1.854,4.452 l 11.793,56.436 c 1.453,6.952 -3.041,13.835 -10.004,15.29 l 0,0 c -6.965,1.455 -13.841,-3.051 -15.293,-10.004 l -10.557,-50.52 z"
   style="clip-rule:evenodd;fill:#e2b459;fill-rule:evenodd" />
			<path
   id="path96"
   d="m 1375.558,131.81 c 9.159,0.225 18.003,1.795 26.188,4.557 l 10.866,52.003 c 1.453,6.953 -3.056,13.838 -10.019,15.293 l 0,0 c -6.948,1.452 -13.824,-3.055 -15.276,-10.007 l -11.793,-56.436 c -0.383,-1.834 -0.357,-3.679 0.034,-5.41 z"
   style="clip-rule:evenodd;fill:#e2b459;fill-rule:evenodd" />
		</g>
	</g>
	<path
   id="path98"
   d="m 1448.596,216.048 c 0.78,3.735 -1.619,7.399 -5.355,8.18 l -139.897,29.232 c -3.736,0.78 -7.401,-1.616 -8.182,-5.351 l 0,0 c -0.782,-3.744 1.618,-7.399 5.354,-8.181 l 139.897,-29.232 c 3.736,-0.78 7.399,1.608 8.183,5.352 l 0,0 z"
   style="clip-rule:evenodd;fill:#e2b459;fill-rule:evenodd" />
	<g
   id="g100">
		<path
   id="path102"
   d="m 1378.492,228.337 82.065,-17.147 c -0.216,-0.631 -0.521,-1.262 -0.858,-1.892 -2.421,-4.299 -9.074,-17.167 -10.117,-22.156 -7.82,-37.429 -47.998,-60.966 -91.025,-54.206 l 19.935,95.401 z"
   style="clip-rule:evenodd;fill:#f6cd7d;fill-rule:evenodd" />
		<path
   id="path104"
   d="m 1355.277,117.238 8.397,40.189 c 8.108,-4.396 12.772,-13.75 10.792,-23.227 -1.98,-9.477 -9.998,-16.179 -19.189,-16.962 z"
   style="clip-rule:evenodd;fill:#f6cd7d;fill-rule:evenodd" />
		<g
   id="g106">
			<path
   id="path108"
   d="m 1375.558,131.81 c 9.159,0.225 18.003,1.795 26.188,4.557 l 10.866,52.003 c 1.453,6.953 -3.056,13.838 -10.019,15.293 l 0,0 c -6.948,1.452 -13.824,-3.055 -15.276,-10.007 l -11.793,-56.436 c -0.383,-1.834 -0.357,-3.679 0.034,-5.41 z"
   style="clip-rule:evenodd;fill:#e2b459;fill-rule:evenodd" />
		</g>
	</g>
	<path
   id="path110"
   d="m 1440.413,210.696 -62.862,13.136 2.827,13.531 62.862,-13.136 c 3.736,-0.78 6.136,-4.444 5.355,-8.18 -0.783,-3.743 -4.446,-6.131 -8.182,-5.351 z"
   style="clip-rule:evenodd;fill:#e2b459;fill-rule:evenodd" />
</g>
</svg>