<svg viewBox="0 0 53.419998 53.419998" xmlns="http://www.w3.org/2000/svg"><defs><clipPath id="c"><path d="M0 842h595V0H0v842z"/></clipPath><clipPath id="b"><path d="M-8.6 850.4h612.2V-8.4H-8.6v858.8z"/></clipPath><clipPath id="a"><path clip-rule="evenodd" d="M28.2 170h45.4v-45.4H28.2V170z"/></clipPath></defs><g clip-path="url(#a)" transform="matrix(1.25 0 0 -1.25 -36.9 210.83)"><g clip-path="url(#c)" fill-rule="evenodd"><path d="M51 168.6c11.6 0 21-9.6 21-21.3S62.7 126 51 126s-21.4 9.6-21.4 21.3 9.6 21.3 21.3 21.3z" fill="#fff" stroke="#000" stroke-miterlimit="2.6" stroke-width=".2"/><path d="M52.4 153.3l1-1-1 5v-4M49.8 152.7v-.4l2-2.3v.2l-2 2.5M49 153.5v-.3l.4-.5v.3l-.3.5M51.4 154.4l.5-.6v3.7l-.6-3M51.4 157l-.7-1.8.3-.3.4 2M51 157l-.8-1.3.2-.2.5 1.6" fill="#007fc4"/><path d="M33.8 158.8l-.4-.8-.5-.7-1-1.6-.2-.8-.3-1-.3-.8-.2-.8-.2-1-.2-.7v-1l-.2-.7v-4.3l.2-1 .2-.7.2-.8.2-1 .3-.7.3-.8.3-.8.5-1 .4-.6.3-.8.5-.8.5-.7.6-.6.4-.7.7-.6.7-.6.6-.6.7-.5.7-.6.8-.5.7-.4.7-.5.7-.4 1.6-.8.8-.3 1-.4.7-.2 1-.2.7-.2h1l.7-.2h4.5l.7.2 1 .2.7.2.8.2.8.3.8.2.8.3 1 .4.6.3.8.5-1.3.5H58.5l-.4.2H57l-.5.2h-.7l-.4.2H54l-.4.2H52.7l-.2.2h-.7l-.2.2h-.6l-.3.2H50l-.3.2h-.5l-.2.2h-.5l-.2.2H48l-.2.2h-.5l-.2.2-.4.2h-.2l-.2.2H46l-6 3v.2h-.2v.4h-.2v.8h.2v.2h.2v.2h.7l.2.4-2.2 1h-.2l-.2.2v.2H38v1.2h.2v.2h.2v.2h.4v.2H39.7l2.4-1 .2.3-3.4 1.5h-.2v.2h-.2v.2H38v1.2l.2.2.2.2h.2v.2h1l3.6-1.6.2.5-1 .6h-.2v.2H42v.2l-.2.2v.7h.2v.2h.2l.2.2h.8l9.3-4.4H53.4v.2h.2v.2l-1.7 3v.2l-.2.2v.4h-.2v1.9h.2v.4h.2v.2l6.2-7v-.4l.3-.2.2-.2.2-.2.2-.2v-.2l.2-.2.3-.2.2-.2.2-.2v-.2l.3-.2.2-.2h.3l.2-.3.2-.2h.3l.2-.2.2-.2h.2l.2-.3.3-.2h.2l.7-.4h.2l.2-.3h.2l.3-.2h.5v.2l-.4.2h-.2l-.3.2H64l-.2.3h-.5l-.2.3-.2.2h-.2l-.3.3H62v.3l-.4.2-.2.2-.2.2H61l-.3.3h-.2l-.2.3-.2.2-.3.3-.2.2-.2.2-.4.4-.3.3h-.2l-.2.3-.2.2-.3.4-.4.4-.4.4-.5.5-.4.5-.3.4-.4.5-.4.4-.5.6-.4.5-.3.6-.3.4-.4.5-.4.5-.4.4-.4.5v-.2h-.2v-.2h-.2v-.2H51v-.2l-.2-.2v-.4l-.2-.2V146h.2V145.3h.2v-.4l1.7-2.7v-.2h-.2l-8 4-2 2.3v.4h-.2v.8h.2v.2h.2v.2h1.2v-.2L46 148v.3l-3.3 4v1h.2v.2h.2v.2H44.4v-.2h.2l2.7-3v.4l-3.4 4h-.2v.4h-.2v1h.2v.2h.2v.2h.2l.2.2h1v-.2h.2l3-3.3.2.4-.6.6-.2.2v.4h-.2V156l.2.2v.2h.2v.2h.4v.2H49.6v-.2h.2l.3-.4.8 1.7h-.2v1h-3v-.2H47v-.2h-.4v-.2H45v.2h-.4v.2h-.2l-.2.2-.2.2H33.8" fill="#007fc4"/><path d="M44.3 136.6l1.4-.6-1.4.8v-.2M35 160.2H43.8l.2.2h.2v.2h.2v.3l.2.2v.2h-.3l-.6 2.4h4l-.8-2.4H47v-.5l.2-.2v-.2h.4v-.2H53.3v-.2h.2v-.2h.2v-.2l.2-.2.2-1.7h-.3l2.5-4.7v1l.2.2v.2h.2v.4h.2l.2.2h.2l.2.2h.4l.4-.6.2-.7.3-.8.4-1.4.4-.8.2-.7.2-.7.2-.7.3-.8.2-.7.2-.8.2-.7v-.7l.3-.7.2-.7v-.5l.2-.2v-.2l.2-.2v-.4l.2-.2v-.2h.2v-.4h.2v-.2l.2-.2.2-.2v-.2h.2v-.3h.2v-.2l.2-.2.3-.2v-.2l.2-.2h.2v-.3h.2l.3-.3v-.3h.3v-.2h.3v-.3l.2-.2h.2v-.3h.3v-.2h.2l.2-.2h.2v-.2l.3-.2.3-.2.2-.2.3-.2.3.4.3.4.2.4.4 1 .2.3.2.4.2.3.2.5.2.4.3 1v.3l.2.5v.4l.3.5v.8l.2.4v1l.2.4v4.1l-.2.5v.9l-.2.5v.4l-.3.6v.4l-.2.5-.2.4v.4l-.3.4-.2.4v.5l-.5.8-.3.4-.2.3-.2.4-.3.4-.2.5-.2.4-.2.3-.3.4-.3.3-.3.4-1 1-.2.4-.4.3-.2.4-.7.6-.3.4-.7.5-.4.2-.8.5-.4.3-.4.2-.4.2-.4.2-.4.2-.4.2-.5.2-.5.2-.4.2h-.4l-.4.3h-.9l-.5.3h-.4l-.4.2h-1l-.4.2H47.5l-.5-.2h-.4l-.5-.2h-.3l-.5-.2h-.4l-.5-.2-.4-.2h-.5l-.5-.3-.4-.2-.8-.3-.4-.2-.5-.2-.5-.2-.4-.2-.3-.2-.3-.3-.4-.2-.4-.2-.7-.6-.8-.6-.4-.3v-.2h-.3l-.3-.4-.3-.2h-.2v-.3h-.2l-.2-.3h-.2v-.2l-.3-.3M41.2 138l2.7-1.3v.2l-2.7 1.2v-.3M45.3 139.4v-.3l1.6-.6v.2l-1.7.8M42.4 140.3l2.4-1v.3l-2.2 1-.2-.3M46 142l1.8-1v.4l-1.6 1v-.5M43.8 143l2-1v.5l-1.8 1-.2-.5M46.2 147.8l1-1.2.2.2-1 1.2-.2-.2M48.6 149.2l1-1.2.2.3-1 1.2-.2-.3" fill="#007fc4"/><path d="M56.2 149l.4-.5h.2v.2l-.4 3-3 5.3 2.8-8M47.7 150.7l-.2-.3.8-1v.4l-.6 1M54 151.6l1.4-1.7L53 157l1-5.6" fill="#007fc4"/></g></g></svg>