<svg xmlns="http://www.w3.org/2000/svg" viewBox="0 0 725.54796 725.54797" height="725.5" width="725.5"><g transform="translate(-999.09 -160.74)"><circle r="362.8" cy="523.5" cx="1361.9" fill="#d6e5ea"/><path d="M1238.6 440.5c0 37.4-30.3 67.8-67.7 67.8-37.5 0-67.8-30.4-67.8-67.8s30.3-67.7 67.7-67.7c37.3 0 67.6 30.3 67.6 67.7z" fill="#fbcba7"/><path d="M1103.2 440.5c0-6 .7-11.7 2.2-17-16.6-12-28.3-2.2-28.3 11.2 0 13.4 9.3 29.7 30 28.6-2.4-7-3.8-14.8-3.8-22.8zM1238.6 440.5c0-6-.7-11.7-2.2-17 16.6-12 28.2-2.2 28.2 11.2 0 13.4-9.2 29.7-30 28.6 2.6-7 4-14.8 4-22.8z" fill="#f8ba8e"/><path d="M1139.5 426c-2 0-3.7-1.8-3.7-3.8V413c0-2 1.7-3.6 3.7-3.6s3.6 1.6 3.6 3.6v9.2c0 2-1.5 3.7-3.5 3.7zM1202.3 426c2 0 3.7-1.8 3.7-3.8V413c0-2-1.7-3.6-3.7-3.6s-3.6 1.6-3.6 3.6v9.2c0 2 1.6 3.7 3.6 3.7z" fill="#404040"/><path d="M1195.5 328.7c0 13.6-11 24.7-24.6 24.7-13.7 0-24.7-11-24.7-24.7 0-13.6 11-24.6 24.6-24.6 13.5 0 24.5 11 24.5 24.7z" fill="#4e443d"/><path d="M1236.4 365.3V364h-1c-14-17-34.8-27.6-58.2-27.6h-12.7c-23.3 0-44.2 10.7-58 27.5h-1v1.3c-10 12.8-16 28.8-16 46.3v6.6c4.3-.6 9.8.8 16 5.2 29-58.7 101.8-58.7 131 0 6-4.4 11.4-5.8 16-5.2v-6.6c0-17.5-6-33.5-16-46.3z" fill="#64584f"/><path d="M1171 522.2c5 0 10 .5 15 1.4v-17c-5 1-10 1.7-15 1.7-5.2 0-10.3-.6-15-1.7v17c4.8-1 9.8-1.4 15-1.4z" fill="#f8ba8e"/><path d="M1171 522.2c-45 0-81.6 36.5-81.6 81.5V723h163V603.6c0-45-36.5-81.5-81.5-81.5z" fill="#e1c298"/><path d="M1171 566.8c16.4 0 29.8-13.4 29.8-30 0-3.3-.6-6.5-1.6-9.5-8.8-3.3-18.4-5-28.3-5-10 0-19.6 1.7-28.4 5-1 3-1.6 6.2-1.6 9.6 0 16.4 13.4 29.8 30 29.8z" fill="#fff"/><path d="M1121.4 539c-19.4 15-32 38.3-32 64.7v11c38.2-10.8 36.3-52.7 32-75.7zM1220.4 539c-4.3 23-6.2 65 32 75.6v-11c0-26.3-12.6-49.7-32-64.6z" stroke-miterlimit="10" fill="#fff" stroke="#fff" stroke-width="1.1"/><path d="M1058.2 625c-1.3 29 18 40.8 31.2 45.6v-67c0-1.4 0-3 .2-4.5v-1.3l.3-3v-1.8l.6-3 .3-1.6c0-1 .3-2 .5-2.8l.3-1.5 1-3.2c0-.3 0-.6.2-1l3-8.3.4-1 1.5-3c0-.4.3-.7.4-1 .6-1 1-2 1.7-3l.6-1c.6-1 1.2-2 2-3 0-.2 0-.4.3-.6 0-.3.2-.6.4-.8-16.2 11.6-44 36-45.2 66.8zM1283.6 625c1.3 29-18 40.8-31.2 45.6v-67c0-1.4 0-3-.2-4.5v-1.3c0-1-.2-2-.4-3 0-.7 0-1.2-.2-1.8 0-1-.2-2-.4-3l-.3-1.6-.7-2.8-.3-1.5-1-3.2c0-.3 0-.6-.2-1l-3-8.3-.4-1-1.6-3c0-.4-.3-.7-.5-1l-1.6-3c0-.3-.3-.6-.5-1l-2-3-.3-.6-.6-.8c16.2 11.6 44 36 45.2 66.8z" fill="#fff"/><path fill="#64584f" d="M1128.3 723h25.2v77.4h-25.2z"/><path d="M1119.2 781.7c-10.4 0-18.7 8.4-18.7 18.7h53v-18.7h-34.3zM1188.3 723h25.2v77.4h-25.2z" fill="#64584f"/><path d="M1222.6 781.7c10.4 0 18.7 8.4 18.7 18.7h-53v-18.7h34.3z" fill="#64584f"/><path d="M1620.6 424.3c0 37.5-30.3 67.8-67.8 67.8-37.4 0-67.7-30.2-67.7-67.7 0-37.4 30.4-67.7 67.8-67.7 37.5 0 67.8 30.3 67.8 67.7z" fill="#fbcba7"/><path d="M1485 424.3c0-6 1-11.6 2.3-17-16.5-12-28.2-2.2-28.2 11.2 0 13.4 9.3 29.8 30 28.6-2.5-7-4-14.7-4-22.7zM1620.6 424.3c0-6-.8-11.6-2.2-17 16.5-12 28.2-2.2 28.2 11.2 0 13.4-9.2 29.8-30 28.6 2.6-7 4-14.7 4-22.7z" fill="#f8ba8e"/><path d="M1521.4 409.7c-2 0-3.6-1.6-3.6-3.7v-9.2c0-2 1.6-3.6 3.6-3.6s3.7 1.6 3.7 3.6v9.2c0 2-1.6 3.7-3.6 3.7zM1584.3 409.7c2 0 3.6-1.6 3.6-3.7v-9.2c0-2-1.7-3.6-3.7-3.6s-3.7 1.6-3.7 3.6v9.2c0 2 1.6 3.7 3.7 3.7z" fill="#404040"/><path d="M1618.4 349.2v-1.5h-1c-14-16.7-34.8-27.4-58.2-27.4h-12.7c-23.4 0-44.3 10.7-58 27.4h-1.2v1.5c-10 12.7-16 28.8-16 46.2v6.7c4.5-.5 10 1 16 5.2 29-58.6 102-58.6 131 0 6.2-4.3 11.6-5.7 16-5v-6.8c0-17.4-6-33.5-16-46.2z" fill="#64584f"/><path d="M1634.2 583v-1.5l-.4-3c0-.6 0-1.2-.2-1.7 0-1-.3-2-.4-3l-.3-1.5-.7-3c0-.4-.3-1-.4-1.4l-1-3.4c0-.3 0-.6-.2-1l-3-8.3-.5-.8-1.5-3.2-.5-1-1.6-3-.5-1-2-3-.3-.6c-2.6-3.7-5.4-7.3-8.5-10.6l-3-3-.4-.4-3-2.7c0-.2-.2-.3-.3-.4-7.7-6.6-16.7-11.8-26.6-15.2l-1.4-.5-2-.7c-.6 0-1-.3-1.7-.5-.7 0-1.4-.3-2-.4l-1.8-.5-2-.4-2-.4-1.7-.3-2.2-.4h-1.6c-.8-.2-1.7-.3-2.5-.3h-1.4c-1.3-.2-2.6-.2-4-.2-1.3 0-2.6 0-4 .2h-1.3l-2.5.3h-1.7l-2.2.4c-.4 0-1 0-1.6.2-.7 0-1.4.2-2 .4l-2 .3c-.5 0-1 .2-1.7.4-.6 0-1.3.3-2 .4l-1.6.5-2 .6c-.4 0-1 .2-1.4.4-8.5 3-16.3 7-23.2 12.4l-3.4 2.8c-.2 0-.3.2-.4.3l-3 2.6-.3.4-3 3c-3.2 3.4-6 7-8.5 10.7l-.3.6-2 3-.5 1-1.6 3-.5 1-1.6 3.2-.4.8c-1.2 2.7-2.2 5.5-3 8.4-.2.3-.2.6-.3 1l-1 3.2-.3 1.4-.6 3-.3 1.5c0 1-.3 1.8-.4 2.8v1.6l-.4 3v1.6c-.2 1.5-.2 3-.2 4.6v119.1h163V587.4c0-1.4 0-3-.2-4.4z" stroke-miterlimit="10" fill="#fff" stroke="#fff" stroke-width="1.1"/><path fill="#64584f" d="M1510.3 706.7h25.2v77.5h-25.2z"/><path d="M1501 765.5c-10.2 0-18.6 8.4-18.6 18.7h53v-18.7H1501zM1570.3 706.7h25.2v77.5h-25.2z" fill="#64584f"/><path d="M1604.6 765.5c10.3 0 18.7 8.4 18.7 18.7h-53v-18.7h34.3z" fill="#64584f"/><path fill="#9dbbe3" d="M1634.3 623.8h-163v9.6h13.8v73.3h135.6v-73.3h13.7"/><path d="M1665.6 608.8c-.4-8.2-2.6-15.8-6-23l-25.3 12v56.6c13.2-4.7 32.5-16.7 31.3-45.6z" fill="#f8ba8e"/><path d="M1659.7 586c-9.3-20-27.4-35.4-39.3-44 0 .2.3.5.5.7 0 .2 0 .4.2.6l2 3c0 .4.3.7.5 1l1.6 3 .5 1 1.5 3.2.4.8c1 2.7 2.2 5.5 3 8.4.2.3.2.6.3 1l1 3.2.3 1.4.6 3c0 .4 0 1 .2 1.5 0 1 .3 1.8.4 2.8 0 .5 0 1 .2 1.6l.3 3 .2 1.6v14.6l25.5-11.7z" stroke-miterlimit="10" fill="#fff" stroke="#fff" stroke-width="1.1"/><path d="M1440 608.8c.5-8.2 2.7-15.8 6-23l25.4 12v56.6c-13.2-4.7-32.6-16.7-31.3-45.6z" fill="#f8ba8e"/><path d="M1446 586c9.3-20 27.4-35.4 39.3-44 0 .2-.3.5-.5.7l-.3.6-2 3-.5 1-1.6 3-.5 1-1.6 3.2-.4.8c-1.2 2.7-2.2 5.5-3 8.4-.2.3-.2.6-.3 1l-1 3.2-.3 1.4-.6 3-.3 1.5c0 1-.3 1.8-.4 2.8v1.6l-.4 3v1.6c-.2 1.5-.2 3-.2 4.6v10L1446 586z" stroke-miterlimit="10" fill="#fff" stroke="#fff" stroke-width="1.1"/><path d="M1579 510.4l-1.4-.5-2-.7c-.6 0-1-.3-1.7-.5-.7 0-1.4-.3-2-.4l-1.8-.5-2-.4h-.4v-17.2c-4.8 1-9.8 1.7-15 1.7-5 0-10-.5-15-1.6v17s-.3 0-.4.2l-2 .3c-.5 0-1 .2-1.7.4-.6 0-1.3.3-2 .4l-1.6.5-2 .6c-.4 0-1 .2-1.4.4-2.7 1-5.4 2-8 3.3 3.5 15.7 17.5 27.5 34.2 27.5 16.8 0 30.8-11.8 34.3-27.6-2.5-1.2-5.2-2.3-8-3.2z" fill="#f8ba8e"/><path d="M1386 343.5h-48.2c-30.2 0-54.7 24.4-54.7 54.6v17.3h157.6V398c0-30-24.4-54.5-54.6-54.5z" fill="#64584f"/><circle r="67.7" cy="419.5" cx="1361.9" fill="#fbcba7"/><path d="M1294 419.5c0-6 1-11.6 2.3-17-16.5-12-28.2-2.2-28.2 11.2 0 13.4 9.3 29.8 30 28.6-2.5-7-4-14.8-4-22.8zM1429.6 419.5c0-6-.8-11.6-2.2-17 16.6-12 28.2-2.2 28.2 11.2 0 13.4-9.2 29.8-30 28.6 2.6-7 4-14.8 4-22.8z" fill="#f8ba8e"/><path d="M1330.4 405c-2 0-3.6-1.7-3.6-3.8v-9c0-2.2 1.6-3.8 3.6-3.8s3.7 1.6 3.7 3.7v9.2c0 2-1.5 3.7-3.6 3.7zM1393.3 405c2 0 3.7-1.7 3.7-3.8v-9c0-2.2-1.7-3.8-3.7-3.8s-3.7 1.6-3.7 3.7v9.2c0 2 1.7 3.7 3.7 3.7z" fill="#404040"/><path d="M1399.3 233.8c-7.6 0-14.4 3.7-18.7 9.3-4.3-5.5-11-9.2-18.7-9.2-7.8 0-14.6 3.7-19 9.3-4.2-5.5-11-9.2-18.6-9.2-13 0-23.6 10.5-23.6 23.5 0 10.5 6.8 19.3 16.3 22.4v69.5c0 14 11.4 25.3 25.3 25.3h39c14 0 25.4-11.3 25.4-25.3v-69.5c9.4-3 16.2-12 16.2-22.4 0-13-10.6-23.5-23.7-23.5zM1208 233.8c-7.6 0-14.4 3.7-18.7 9.3-4.3-5.5-11-9.2-18.7-9.2-7.6 0-14.4 3.7-18.7 9.3-4.4-5.5-11.2-9.2-19-9.2-13 0-23.4 10.5-23.4 23.5 0 10.5 6.8 19.3 16.2 22.4v69.5c0 14 11.3 25.3 25.2 25.3h39.2c14 0 25.2-11.3 25.2-25.3v-69.5c9.4-3 16.2-12 16.2-22.4 0-13-10.5-23.5-23.5-23.5zM1590 233.8c-7.6 0-14.4 3.7-18.7 9.3-4.3-5.5-11-9.2-18.7-9.2-7.7 0-14.5 3.7-18.8 9.3-4.3-5.5-11-9.2-18.7-9.2-13 0-23.5 10.5-23.5 23.5 0 10.5 6.8 19.3 16.2 22.4v69.5c0 14 11.3 25.3 25.3 25.3h39c14 0 25.4-11.3 25.4-25.3v-69.5c9.4-3 16.2-12 16.2-22.4 0-13-10.6-23.5-23.6-23.5z" fill="#fff"/><path d="M1396.6 513.6h-.2c-10.7-4.4-22.3-6.7-34.5-6.7-52 0-94 42-94 93.6V727h187.6V600.7c0-39.5-24.4-73.2-59-87z" stroke-miterlimit="10" fill="#fff" stroke="#fff" stroke-width="1.1"/><path d="M1268 600.6c0-21 7-40.6 19-56.3-53.5 26.8-74.5 67.4-68 101 5 26.6 34 31.3 49 31.8v-76.4z" stroke-miterlimit="10" fill="#fff" stroke="#fff" stroke-width="1.1"/><path fill="#64584f" d="M1304 727h28v86.2h-28z"/><path d="M1293.7 792.4c-11.4 0-20.8 9.3-20.8 20.8h59v-20.8h-38.3z" fill="#64584f"/><path d="M1455.6 600.6c0-21-7-40.6-18.8-56.3 53.4 26.8 74.5 67.4 68 101-5 26.6-34.2 31.3-49.2 31.8v-76.4z" stroke-miterlimit="10" fill="#fff" stroke="#fff" stroke-width="1.1"/><path fill="#64584f" d="M1391.8 727h28v86.2h-28z"/><path d="M1430 792.4c11.5 0 20.8 9.3 20.8 20.8h-59v-20.8h38.2z" fill="#64584f"/><path d="M1362 487.3c-5.3 0-10.3-.6-15-1.7V508c4.8-.7 9.8-1 15-1 5 0 10 .3 14.8 1v-22.4c-4.8 1-9.8 1.7-15 1.7z" fill="#f8ba8e"/><path d="M341.2 489.7l5-4 .5-.7v-.8c-.2-1.6-.2-3.2.4-4.6.7-1.4 2-2.6 3.5-3 1.5-.2 3.2.5 3.8 2 .5 1.2 0 2.7-.7 4 2.5-.8 5 1 5.6 3.4.3 1 0 2-.3 3-1 1.6-2.2 2.2-4.5 2-1 0-2.2-.6-3-1-.5-.4-1-.8-1.5-1-.6 0-1.2.4-1.7.8-1.7 1.3-3.2 2.8-4.6 4.4-.6-1.3-1.5-2.7-2.3-4" fill="#fff"/></g></svg>