<svg xmlns="http://www.w3.org/2000/svg" height="244.4" width="248.5"><path d="M563.8 1011c1.4-.4 2.5-.6 4.5-.8l.4-1c-3.5 0-13 0-17.6 1.3 0 1 0 1.7-.2 2.5 8-1 11-1.7 13-2zM570.2 1010.5c2.2.7 6 2.2 8 5.4l.3.7v-.2c-.7-2.7-3.5-5-8-7l-.3 1zM581.8 971.7c-3.4 5.2-3.5 10.3-3.5 11 2.5 0 5 .2 7.2.7v-.4c0-2-.4-7.5 5.3-11.8 2.5-2 5-5.8 6-7.8l-6-2.2c-2-.5-3.7-1-5.5-1.3 0 2-.3 7-3.5 11.7z" fill="none"/><path d="M592 972.8c-5 3.7-4.7 8.4-4.6 10.2v1c2 .4 3.7 1 5.2 2l.7-3c1-4.8 5.7-7.8 9.7-10.4 1.8-1 3.5-2.2 4.8-3.4-1.2-.8-4.5-3-9.2-5-1.2 2-3.8 6.4-6.7 8.6zM576.2 1004.7c1.3 1 3.3 2.3 5 4.2 1.7 1.5 3 3.2 3.7 4.8l-.2-.7c-.7-3.3-3.3-6.5-7.8-9.4l-.8 1zM562 973.5v3c-.2 3.5-.5 7.3 1.4 9.5l4.8-2c-.6-2.8-.7-8.8 1.2-12.6 2-3.8 1-9.7.5-11.5-4.8.8-9.2 2.6-13.3 5.4 1.6 1.3 5.3 4.7 5.4 8zM580.3 970.6c3-4.7 3.2-9.6 3.2-11-4-.5-8-.5-11.7 0 .4 2 1.4 8.4-.7 12.7-1.6 3.5-1.3 9-1 11.4 2.2-.5 4.3-.8 6.5-1 0-.8 0-6.4 3.8-12zM594.7 1005.4l.7-.8-6-11.2-2-.5c2 3.7 5.2 10 7.3 12.4zM574.5 1003.7l.7-1c-3.6-1-14.3-4.3-18.4-3.8-.4 0-.8-.2-1-.6l-1 1.4c4 1 16 3.2 19.7 4zM586 1005.6l.6-.6c-3.7-4.6-15-13-15-13-.2 0-.2 0-.3-.2-.4 0-.8 0-1.3.2 5 4.6 13.5 11.7 16 13.6zM596.4 1006.4c3 1.3 10.8 5 15.4 10.7-2.7-4-7.8-8-15-11l-.4.4zM587.6 1006.7c4.8 3 7.8 6.8 9.6 9.8-1.6-5.8-7.3-9.2-9-10.2l-.6.4z" fill="none"/><path d="M586 990c1.5.2 4 .7 6 1.6V989c-4-3-13-5-22-2.6-3.7 1-8.3 3-12 6.8 3-1.8 6.7-3 11.5-3.8 7-1 13.4 0 16.6.5zM619.2 1009.6c-.3 0-.5-.3-.6-.6l-6.8-1.2c1 1.5 4.2 4 12.2 6 10.8 2.6 18 5 20.7 6v-1.3c-2.8-1-17.5-5.7-25.5-9z" fill="none"/><path d="M143 174.6s-7-10-30.7-13.8c-12.3-2-19.2-6.3-44 1.3l7.3 12 67.4.6zM132 222.6s-4 18.6-20.3 16.2c-14.4-2-14.4 5.6-26.6 5.6l.8-17.2 46-4.6zM61 196.5s-7.3-13.4-27-22C14 166.3 0 169 0 169s20 1 30.5 28.2c0 0-8 16-20.5 35.5 0 0 14.2-6.6 21.4-6.5 26 .4 25.8-19.2 29.6-29.7z" fill="#b2b2b2"/><path d="M188.7 202s-21.2-32.4-75.7-33c-54.5-.4-70.7 27.4-70.7 27.4s14.5 37 72.3 36.4c45-.6 74-29.8 74-29.8" fill="#b9b59b"/><path d="M113 169c15.8.2 28.7 3 39.2 7-4.2 2.3-7.8 5.8-10.4 10-3 4.8-3.8 9-4 14.5-.4 5.8 1.4 9.4 3.7 14.5 1.3 2.2 2.8 4.2 4.5 6 1.8 1.7 3.7 3.2 5.7 4.4-10.5 4-23 7-37 7.2-58 .7-72.4-36.4-72.4-36.4S58.6 168.5 113 169z" fill="#544842"/><path d="M124.3 209s-15.2 8.4-25 8.5c-10 0-15 2-15 2l8.6-8.6 31.3-2z" fill="#b2b2b2"/><g stroke-miterlimit="10" fill="none" stroke="#010202" stroke-width="5.1" stroke-linecap="round" stroke-linejoin="round"><path d="M153.5 189.6l-3 11.4M157.7 196.8l-11.4-3"/></g><path d="M81 145.7c0-4.4 0-9.4-2.2-13.3-4-7.2-11.5-12.7-17-18.8-3.2-3.8-6.3-6.5-6-12 0-3.4 2-6.5 3.5-9.5l8-14.4c4.7-8 10.3-15.5 10-25-.6-11-5-24.2-12-32.8-1-1-3.7 0-2.8 1.3 7.5 9.2 12.2 23.7 11.8 35.5 0 3.8-2 6.8-3.7 10l-8.4 15c-5 8.6-13.7 19.7-6.7 29.3 4.7 6.5 11.3 11.7 16.7 17.6 4.8 5.2 5.8 10.5 6 17.4 0 1.7 3 1.2 3 0zM123.7 152.6c-.5-7.7-8-11.3-11-17.7-2-3.7-2.2-8-1.7-12 .8-5.8 6.2-7.6 10.6-10.3 5.7-3.4 10.6-6.7 10.4-14 0-3.4-1.3-6.8-2-10-1-5-.3-10 2-14.4 4-7.6 13.2-9.3 20.2-13 6.8-3.6 13.8-9.6 19-15.2 5.8-6 9-15.2 9.7-23.5.6-7.2 1-15.6-2.6-22-.6-1-3.3 0-3 .7 4 7 3.2 15.8 2.5 23.5-1 10.4-6.8 19.6-14.7 26-3.4 2.8-6.7 5.8-10.2 8.2-3.6 2.5-8.5 3.7-12.5 5.8-6 3-10.3 7-12.7 13.3-2.5 7 .4 13.4 1.4 20 1.6 11-10.6 12.6-17 18-5 4.8-5 12-3 18.2 2.5 7.3 11 10.7 11.6 19 0 1 3 .5 3-.6zM157.8 156c-4-7.2-7.4-13.7-5-22.3 1.3-4 4.3-7.7 8.6-7.8 3.2-.2 6.3-.4 9.4-1 14.7-3.6 19.7-15.4 24.6-28.4 1.2-3.2 2.5-6.3 5-9 4.6-5 13-4 19.2-4.3 5-.2 10-1.6 13.8-4.8 5.5-4.5 9-10.6 11.6-17.2 2.5-6.6 4.6-13.2 3-20.2-.3-.6-3.2 0-3 1 1.8 7.3-.8 14.5-3.5 21.4-3.7 9.6-11 18.7-22 18.7-6.3 0-12.3.6-18 3.2-5.5 2.5-7.6 7.8-9.6 13-3 7.7-5.5 14.2-11.2 20.4-6.5 7-15.3 4.5-23.3 6.8-4.3 1.2-6.8 6.3-8 10.2-2.3 8 1.5 14.8 5.2 21.4.6.7 3.4-.4 3-1z" fill="#b2b2b2"/><path d="M134 26.7l-.4-.3c-.2 0-.3 0-.5.2l-.6.4-1 .2-1.2.3-2 1-1.8 1.7c-1 1-2 2-2.7 3l-1.2 1.6c-1-1-2.5-1.7-4.4-1.7-.5 0-1 0-1.2.2-.2 0-.6 0-1 .3l-.4-.7c0-.3-.3-.6-.5-.8l-.4-.4s-.2 0-.4-.3l-1-.8-.5-1.3c-.2-.6-.5-1-.8-1.5l-.5-.7c0-.3-.2-.5-.3-.7-.3-.6-.7-1-1.3-1.5-.4-.2-.8-.5-1-.8-.6-.6-1.2-.8-1.6-.8h-.5l-.7 1.2-.4.7c-.3.5-.3 1.4-.3 2.8 0 1 .4 3 1 6.3l1 3.6c0 .4 0 .8.2 1-.3 0-.5-.5-.7-1 0 .5.2 1 .6 2 0 .7.3 1.2.4 1.6l-.8-.4c-.5-.3-1-.4-1.5-.4h-.2c-.4 0-.8 0-1.5.2-.8 0-1.5.2-2 .3h-1.8c-.4 0-.7.2-.8.3h-.2l-1.6-.6c-.2 0-.4 0-.7-.2H97v-.2c-.3-.3-.5-.4-.7-.4-.2 0-.3 0-.4-.2-.2 0-.2 0-.3-.2l-.2-.3v.2l-.8-.5s-.2 0-.3-.2H94s0-.2-.3-.2c-.2 0-.3 0-.4-.3 0 0-.2 0-.6-.4h-.2v.3h.3c.2 0 .3.2.4.3l.3.2s.2.2 0 .3h.5c.2 0 .3.2.3.3v.2H95c0 .2 0 .3.2.3H95v.2h1s0 .2.2.3l.3.2.6.2 1 .3c.8.4 1.4.7 1.7 1h1l1.7-.2c0 .2 0 .4-.2.6l.5-.6.5-.2h.6s.5 0 1.2-.3l1-.2h.3c.4 0 .6.2.7.4v.3l.3.3v.4h.2V44l-.2-.2v.3c0 .3.2.4.2.4s0 .2-.2.2l-.5-.3c0 .2 0 .3.3.5.2 0 .3.2.3.2v.2l-.4-.2h-.2-.4l.3.3c0 .2.2.3.3.3-.3 0-.6.4-1 .8l-.3 1c0 .4 0 .8.3 1.2l-.4 1-.6 1.3-.4 1-.5 1.3-.7.5-.6.5-.8.7-1.2.7-.8.3s-.4 0-.8.3c-.2 0-.3 0-.3.2v.2c.2 0 .3 0 .4-.3v.5c.2 0 .3-.2.4-.4.2 0 .4 0 .7-.3l.4-.2h.2l.7-.5v.2l.3-.4.5-.4.3-.3c.2 0 .3 0 .3-.2l.4-.5s.2 0 .3.2c0-.2.2-.4.4-.6l.4-.5c.4-.4.7-1 .8-1.4 0-.4.3-1 .5-1.5.2 0 .3-.4.3-.6l1.4 1.6c.5.6 1 1 1 1.3l1.3.8c.5.3 1 .4 1.6.4h.4c0-.2.2-.3.3-.4h.5c.2 0 .3 0 .5-.2l.5-.3c.2 0 .4-.3.6-.5l.4-.4.7-.7.7-.8c.3-.3.5-.6.6-1v-.4c.2 0 .2 0 .3-.2v.6l.2.8V52.3c0 .3.2.5.3.5V55h.2v.3l.4.4c.2.2.3.3.3.5v.3l.2.4c0 .3.2.6.4 1 0 0 .2.3.6.5l.3.3v.8h.6v-.2-.2h.2v.3h.2c0-.2 0-.3-.2-.4l-.4-.2-.2-.2-.5-.5c-.3-.3-.6-.6-.7-1 0 0 0-.3-.2-.5v-.3s0-.2-.2-.3c0-.3 0-.5-.2-.7 0-.2-.3-.5-.4-.6h.4v-.2h.3l-.2-.2-.2-.2-.2-.5v-.7-.6l-.2-.2v-.4-.7-1l-.2-.6v-.6-.3-.2l-.2-.3h.2v-.2l.2-.2-.3-.5v-.3h.3c0 .2.2.3.2.3.2 0 .4 0 .6.2 0 0 0-.2-.3-.3l-.4-.3v-.2h.4c0 .2.2.3.3.3 0 0-.2 0-.4-.3.3 0 .5-.2.8-.3.3 0 .5-.2.8-.3v.2l.4.4v-.3c-.2 0-.2-.2-.2-.3 0 0 0-.2.2-.2h.5l.4.3-.3-.3s.3 0 .6-.3c.3 0 .7-.3 1-.5l.7-.4.5-.5h.2l2 1s.2.3.6.5c0 0 .2 0 .3.2l.7.6v.2l.3.5c0 .3 0 .7.2 1.2v-1-.2l-.2-.6 2 1.2s0 .2.3.3l.4.4.4.4.3.3s0-.2-.2-.3l-.2-.4h.2s0 .2.2.2c0 0 0-.2-.4-.4-.2 0-.4-.2-.5-.3h2.1l1.6.4c.2 0 .3.2.4.3l-.3-.3h1.2v.2l.5.2-.4-.5h1.6l-.3-.2h.5l.6.4c0-.2-.2-.3-.2-.3h1.2v-.3s-.2 0-.2-.2 0-.2.2-.2h.2v-.2h-.3s-.2 0-.3.2h-.2-.4-.5l-1.7.2h-2.5l-1.3-.3h-.7c-.3 0-.4 0-.4-.2 0 0 .2 0 .2-.2h-.6l-.5-.4-.4-.3c0-.2-.2-.2-.4-.2l.2-.2s-.4 0-.7-.2h.3c-.2 0-.3 0-.5-.2l-.6-.3h.2c0-.2-.2-.3-.3-.3H127.2c-.2 0-.4 0-.6-.3l-.7-.5c-1-.6-1.5-.8-1.8-.8h-.6c0-.2 0-.3.3-.4l.4-.4-.3.3-.4.6h-.5l-.5.4-1.2.3c0-.2-.3-.3-.4-.4h.2c.5-.4 1-.7 1-1l1-1 .8-1c.2 0 .3-.2.4-.4l.5-.4s.3 0 .7.4c.4.3.7.4 1 .4l1.2-.6 1-.4.8-.4 1.7-1 1-.6-.2-.2h-.3l-.6.2-.7.4-.7.4c-.4 0-.7.3-1 .4l-1.4.7-1 .4-.7-.4c-.3 0-.5-.2-.8-.3h-1V39v-1-.5-.7s0-.2.3-.3c1.3-1 3-2.8 5.5-5.3.3-.3.7-.8 1.4-1.3l1-1.4c0-.2 0-.4.3-.7l.6-.8.6-.4c.3 0 .5-.2.6-.3l-.2.2zM180.2 79.6c0-.2-.2-.2-.3-.2h-.5l-.5.4-.7.2-1 .2c-.4 0-1 .4-1.5.8-.4.3-1 .7-1.5 1.3l-2 2.3-1 1.2c-.7-1-2-1.3-3.3-1.3h-1l-.8.3c0-.3-.2-.5-.3-.6l-.5-.6s0-.2-.2-.3l-.3-.2c-.5-.2-.7-.4-.7-.5l-.4-1-.7-1-.3-.5-.2-.5c-.2-.4-.5-.8-1-1l-.8-.7c-.4-.4-.8-.6-1-.6h-.5c0 .2-.2.5-.5.8 0 .2-.2.4-.3.5l-.2 2c0 .8.3 2.3.8 4.7l.6 2.6v.8l-.3-.7v-.2l.4 1.5.5 1.2-.6-.3-1.2-.3h-1.3l-1.6.2h-.7c-.3 0-.5 0-.7.2h-.7v.2h-.2l-1.2-.5h-.5c-.2-.3-.4-.4-.5-.4h-.3v-.2c-.2 0-.3-.2-.3-.3l-.2.2-.6-.3s0-.2-.3-.3h-.4l-.2-.2s-.3 0-.3-.2l-.3-.3s0 .2-.2 0v.2h.2l.3.2h.2v.3H150v.2h.7s.2 0 .2.2v.2h.6s0 .2.2.3c0 0 .2 0 .2.2h.4c.2 0 .4 0 .6.2.7.2 1 .4 1.3.6h2v.4c0-.2.2-.3.3-.4h.8l1-.3H159.3v.3l.3.2v.8c0 .2.2.3.2.3l-.3.3v.5h-.3l.2.3v.5h-.2c0-.2-.2-.2-.3-.2 0 0 .2 0 .3.3l.2.2c-.2 0-.4.3-.6.6-.3.3-.4.6-.4.8l.2 1-.3.6c0 .3-.3.7-.4 1l-.2.8c0 .4-.2.7-.4 1l-.6.3s-.2 0-.4.3l-.6.6c-.2 0-.5.3-.8.5l-.6.3-.6.2h-.2v.2c.2 0 .2 0 .3-.2v.3l.2-.2h.6c0-.2.2-.2.3-.3h.2l.6-.5v.2c0-.2.2-.3.2-.3.2 0 .3 0 .4-.2h.2s0-.2.2-.2l.3-.4h.3s0-.2.2-.3c0-.2.2-.3.3-.5l.6-1c0-.4.2-.8.4-1.2 0-.2 0-.4.2-.6l1 1.2 1 .8c.2.3.5.5.8.6.3.2.7.2 1.2.2h.3c0-.2 0-.3.2-.3h.3s.3 0 .4-.2c0 0 .2 0 .3-.2l.4-.3.2-.3.5-.6.6-.5c.2 0 .4-.4.4-.6V96h.2v-.2V99.7h.2v1h.2v.2l.3.3s0 .3.2.4v.5l.4.7.5.5v.2c.2 0 .2 0 .2.2v.2h.5v-.2c0 .2.2.2 0 .2h.2c0-.2-.2-.3-.3-.3h-.3v-.3c-.2 0-.3-.2-.5-.4-.4-.3-.5-.5-.6-.8l-.2-.4v-.2l-.2-.2v-.4l-.4-.5h.2v.3h.2s0-.2-.2-.2v-.2l-.2-.5v-.5-.4l-.2-.2v-.3-.5-.6l-.2-.5v-.4-.2-.2-.4l-.2-.4v-.3l.3.2h.4s0-.2-.2-.2-.3 0-.3-.2h.4c0 .2.2.2.2.2l-.3-.2c.2 0 .4 0 .6-.2.2 0 .4 0 .6-.2v.2l.3.4s0-.2-.2-.3v-.2-.2h.5l.3.3V94h-.3l.4-.2 1-.4.4-.3c.2 0 .3 0 .4-.3.5 0 1 .3 1.5.8l.4.3h.2l.5.6h.2V95l.2 1V95 95l-.2-.4 1.5 1h.3c0 .2.2.3.3.5 0 .2.2.3.3.4l.3.2c-.2 0-.3-.2-.3-.3l-.2-.3h.2l-.3-.2-.3-.3h1.5c.6 0 1 0 1.3.2h1.1c.2 0 .3 0 .4.2l-.3-.5h.6c.2 0 .3 0 .5.2v-.2h.3l.4.3s0-.2-.2-.2H182.6v-.2-.2h.2V95h-.3-.2v.2h-.4-.3c-.2 0 0 0 0 0H178h-1-.5c-.2 0-.3-.2-.3-.3 0-.2 0-.2.2-.2h-.4l-.4-.3c-.2 0-.3-.2-.3-.2h-.3V94h-.4v-.2h-.2l-.5-.4h-.2l-.6-.3-.6-.3c-.7-.4-1-.6-1.3-.6h-.4V92c.2 0 .3 0 .4-.3 0 0-.2 0-.3.2l-.2.4s-.3 0-.4.2l-.4.2c-.3.2-.7.3-1 .2l-.3-.3 1-.7.6-.8.7-.8.3-.3.4-.3s.2 0 .5.3l.7.3 1-.5.7-.3c.3 0 .5-.2.6-.3.2-.3.6-.5 1.3-.8l1-.5h-.3c0-.2-.2-.2-.2-.2l-.3.3-.4.3c0 .2-.3.3-.5.4-.3 0-.5.2-.7.3l-1 .5-1 .3-.4-.2-.6-.2h-.8V88v-.4-.5l.2-.2c1-.6 2.3-2 4-4 .3 0 .7-.5 1-1 .5-.3.7-.6 1-1l.2-.4.4-.5.6-.2.5-.2h1.2z" fill="#848280"/></svg>