<svg xmlns="http://www.w3.org/2000/svg" height="97.1" width="181.8"><path d="M557 623.7c1.4-.3 2.5-.5 4.5-.7l.4-1c-3.6 0-13.2 0-17.7 1.3 0 1-.2 1.7-.3 2.5 8-1 11-1.7 13-2zM563.4 623.3c2.2.7 6 2.2 8 5.4 0 .3.2.6.3.8v-.2c-.7-2.7-3.5-5-8-7l-.3 1zM575 584.5c-3.4 5.2-3.5 10.3-3.5 11 2.5 0 5 .2 7.2.7v-.4c0-2-.4-7.5 5.3-11.8 2.5-2 5-5.8 6-7.8l-6-2.2c-2-.5-3.7-1-5.5-1.3 0 2-.3 7-3.5 11.8z" fill="none"/><path d="M585 585.6c-4.8 3.7-4.5 8.4-4.4 10.2v1c2 .4 3.7 1 5.2 2l.7-3c1-4.8 5.7-7.8 9.7-10.4 1.8-1 3.5-2.2 4.8-3.4-1.2-.8-4.5-3-9.2-5-1.2 2-3.8 6.4-6.7 8.6zM569.4 617.5c1.3 1 3.3 2.3 5 4.2 1.7 1.6 3 3.3 3.7 5v-.8c-.7-3.5-3.3-6.7-7.8-9.6l-.8 1zM555.3 586.3v3c-.3 3.5-.6 7.3 1.3 9.5l4.8-2c-.6-2.8-.7-8.8 1.2-12.6 2-3.8 1-9.7.5-11.5-4.6 1-9 2.7-13 5.5 1.5 1.3 5.2 4.7 5.3 8zM573.5 583.4c3-4.7 3.2-9.6 3.2-11-4-.5-8-.5-11.7 0 .4 2 1.4 8.4-.7 12.7-1.7 3.6-1.4 9-1 11.5 2-.5 4.2-.8 6.4-1 0-.8 0-6.4 3.8-12zM588 618.2l.6-.8-6-11.2-2-.5c2 3.8 5.2 10 7.3 12.5zM567.7 616.5l.7-1c-3.6-1-14.3-4.3-18.4-3.8-.4 0-.8 0-1-.5l-1 1.4c4 1 16 3.2 19.7 4zM579 618.4l.8-.6c-3.7-4.6-15-13-15-13-.2 0-.2 0-.3-.2-.4 0-.8 0-1.3.2 5 4.6 13.5 11.7 16 13.6zM589.6 619.2c3 1.3 10.8 5 15.4 10.7-2.7-4.3-7.8-8-15-11.2l-.4.4zM580.8 619.5c4.8 3 7.8 6.8 9.6 9.8-1.6-5.8-7.3-9.2-9-10.2l-.6.5z" fill="none"/><path d="M579.3 602.7c1.4.3 4 .8 6 1.7v-2.7c-4-3-13.2-4.8-22-2.5-3.8 1-8.4 3-12 6.8 3-1.8 6.6-3 11.4-3.8 7-1 13.4 0 16.6.5zM612.4 622.4c-.3 0-.5-.3-.6-.6l-6.8-1.2c1 1.5 4.2 4 12.2 6 10.8 2.6 18 5 20.7 6v-1.3c-3-1-17.6-5.7-25.6-9z" fill="none"/><path d="M136.2 27.4s-7.8-16.2-31.5-20c-12.3-2-30 5-39.3-5l3.3 24.3 67.5.7zM125 75.4s-4 12-20 16.2c-8.4 2-21-1.8-26.7 5.6L79 80l46-4.6zM54.2 49.3S48.5 19 27 18.8C5.5 18.6 5.5 0 5.5 0s-17 30.6 9 49c0 0-19 27.3-4 47.2 0 0 8.3-14.2 14-17.2 19.7-10 26-19.2 29.7-29.7z" fill="#96cfc1"/><path d="M182 54.8s-21.3-32.4-75.8-33c-54.5-.4-70.7 27.4-70.7 27.4s14.5 37 72.3 36.4c45-.6 74-29.8 74-29.8" fill="#3d9a8e"/><path d="M106.2 21.8c15.8.2 28.7 3 39.2 7-4.2 2.3-7.8 5.8-10.4 10-3 4.8-3.8 9-4 14.5-.4 5.8 1.4 9.4 3.7 14.5 1.3 2.2 2.8 4.2 4.5 6C141 75.4 143 77 145 78c-10.6 4-23 7-37.2 7.2C50 86 35.5 49 35.5 49s16.3-27.7 70.7-27.2z" fill="#4b4e55"/><path d="M134.7 50c0 5.7 4.6 10.4 10.4 10.5 6 0 10.6-4.6 10.7-10.4 0-5.7-4.6-10.4-10.4-10.5-5.8 0-10.6 4.6-10.6 10.4z" fill="#fff"/><path d="M140.2 50c0 2.6 2.2 5 5 5 2.6 0 5-2.3 5-5s-2.3-5-5-5-5 2.2-5 5z" fill="#4b4e55"/><path d="M117.5 61.7s-15.2 8.5-25 8.6c-10 0-15 2-15 2l8.6-8.6 31.5-2z" fill="#96cfc1"/></svg>