<svg viewBox="0 0 144.24367 404.69543" xmlns="http://www.w3.org/2000/svg"><path d="M144.2 64.7l-12 20.8v259.2c0 33.2-26.8 60-60 60s-60-26.8-60-60V85.5L0 64.7z" fill="#6f917c"/><path d="M118.7 183v159c0 25.8-20.8 46.6-46.6 46.6S25.7 367.8 25.7 342V183zM105 163.3c0 6-5 11-11 11s-11.2-5-11.2-11 5-11 11-11 11.3 5 11.3 11z" fill="#decd87"/><path d="M64.6 203.7c0 6-5 11-11 11s-11.2-5-11.2-11 5-11 11-11 11.2 5 11.2 11zM94.7 232c0 8.4-6.8 15-15 15s-15-6.6-15-15 6.7-15 15-15 15 6.8 15 15z" fill="#6f917c"/><path d="M107 42c0 6.2-5 11.2-11 11.2s-11-5-11-11S89.7 31 96 31s11 5 11 11zM77.4 17.5C77.4 27.2 69.6 35 60 35s-17.6-7.8-17.6-17.5S50.4 0 60 0s17.4 7.8 17.4 17.5z" fill="#decd87"/></svg>