<?xml version="1.0" encoding="UTF-8" standalone="no"?>
<svg
   xmlns:ns="&amp;ns_sfw;"
   xmlns:dc="http://purl.org/dc/elements/1.1/"
   xmlns:cc="http://creativecommons.org/ns#"
   xmlns:rdf="http://www.w3.org/1999/02/22-rdf-syntax-ns#"
   xmlns:svg="http://www.w3.org/2000/svg"
   xmlns="http://www.w3.org/2000/svg"
   xml:space="preserve"
   enable-background="new 0 0 1920 1080"
   viewBox="0 0 1920 1080"
   height="1080px"
   width="1920px"
   y="0px"
   x="0px"
   id="Capa_1"
   version="1.1"><defs
   id="defs342" />
<metadata
   id="metadata3">
	<ns:sfw>
		<ns:slices />
		<ns:sliceSourceBounds
   bottomLeftOrigin="true"
   y="-1161.7"
   x="-903"
   width="4267"
   height="1249.4" />
	</ns:sfw>
<rdf:RDF><cc:Work
     rdf:about=""><dc:format>image/svg+xml</dc:format><dc:type
       rdf:resource="http://purl.org/dc/dcmitype/StillImage" /><dc:title></dc:title></cc:Work></rdf:RDF></metadata>
<radialGradient
   gradientUnits="userSpaceOnUse"
   gradientTransform="matrix(2.111 0 0 0.9608 1359.5063 181.3397)"
   r="631.6998"
   cy="219.1636"
   cx="-189.249"
   id="SVGID_1_">
	<stop
   id="stop6"
   style="stop-color:#FFFFFF"
   offset="0" />
	<stop
   id="stop8"
   style="stop-color:#FFFFFC"
   offset="0.1716" />
	<stop
   id="stop10"
   style="stop-color:#FFFDF2"
   offset="0.3031" />
	<stop
   id="stop12"
   style="stop-color:#FFFBE2"
   offset="0.4214" />
	<stop
   id="stop14"
   style="stop-color:#FFF8CB"
   offset="0.5318" />
	<stop
   id="stop16"
   style="stop-color:#FFF4AD"
   offset="0.6369" />
	<stop
   id="stop18"
   style="stop-color:#FFF088"
   offset="0.7379" />
	<stop
   id="stop20"
   style="stop-color:#FFEA5C"
   offset="0.8357" />
	<stop
   id="stop22"
   style="stop-color:#FFE42B"
   offset="0.9284" />
	<stop
   id="stop24"
   style="stop-color:#FFDE00"
   offset="1" />
</radialGradient>
<rect
   id="rect26"
   height="783.8"
   width="1920"
   fill="url(#SVGID_1_)"
   x="0" />
<path
   id="path28"
   d="M0,581.9c89.1-1.7,1114-84.2,1920,183.9v483.6H0V581.9z"
   fill="#FFDE00" />
<path
   id="path30"
   d="M390.2,676.9c-133,0-263.4,5.4-390.2,15.7v556.8h1920v-296C1513.7,781.5,977.7,676.9,390.2,676.9z"
   fill="#FFFFFF" />
<polygon
   id="polygon32"
   points="1551.5,477.6 1928.5,477.6 1928.5,579.3 1551.5,579.3 1595,528.4 "
   fill="#3C3C3B" />
<g
   id="g34">
	<path
   id="path36"
   d="M1618,514.3l0.5-0.8l0.5-0.7l0.5-0.7l0.5-0.7l0.5-0.7l0.6-0.7l0.6-0.7l0.7-0.6l0.6-0.6l0.7-0.6l0.7-0.6   l0.7-0.5l0.7-0.5l0.4-0.2l0.4-0.2l0.7-0.5l0.8-0.4l0.8-0.5l0.8-0.4l0.8-0.4l0.8-0.4l0.8-0.3l0.8-0.3l0.9-0.3l0.8-0.2l0.9-0.2   l0.9-0.2l0.9-0.2l0.9-0.1l1-0.1l0.9-0.1l1-0.1h1h1.4l1.4,0.1l0.7,0.1l0.7,0.1l1.4,0.2l0.7,0.2l0.7,0.1l1.3,0.4l1.3,0.4l1.3,0.5   l0.7,0.2l0.6,0.3l1.2,0.6l0.6,0.4l0.6,0.4l1.1,0.7l1.1,0.8l1.1,0.8l1,0.8l1,1l1,1l0.9,1l0.8,1.1l0.8,1.1l0.7,1.1l0.4,0.6l0.3,0.6   l0.7,1.2l0.5,1.3l0.5,1.3l0.2,0.7l0.2,0.7l0.2,0.7l0.2,0.7l0.2,0.7l0.1,0.7l0.2,0.7l0.1,0.7l0.1,0.7l0.1,0.7l0.1,0.7l0.1,0.7   l0.1,0.7v0.7v0.8l-0.1,0.4l-0.1,0.4l-0.1,0.4l-0.1,0.4l-0.3,0.7l-0.2,0.3l-0.2,0.3l-0.2,0.2l-0.2,0.3l-0.3,0.2l-0.3,0.2l-0.4,0.2   l-0.4,0.2l-0.4,0.2l-0.4,0.2l-0.1-0.1l-0.1-0.2l-0.1-0.3l-0.1-0.3l-0.2-0.8l-0.3-1l-0.2-1.2l-0.2-1.3l-0.5-2.9l-1-5.5l-0.2-1.2   l-0.2-1l-0.2-0.8l-0.1-0.6l-0.3-0.7l-0.4-0.6l-0.3-0.5l-0.4-0.5l-0.4-0.4l-0.2-0.2l-0.2-0.2l-0.4-0.3l-0.2-0.1l-0.2-0.1l-0.4-0.2   l-0.4-0.2l-0.4-0.1l-0.5-0.1h-0.5l-0.4,0.1l-0.5,0.1l-0.5,0.1l-0.5,0.2l-0.5,0.2l-1,0.5l-1,0.7l-0.5,0.4l-0.5,0.4l-0.2,0.2   l-0.3,0.2l-0.5,0.5l-0.5,0.5l-0.5,0.5l-0.5,0.5l-0.5,0.6l-1.1,1.1l0.3-1.2l0.2-1.1l0.1-0.5l0.1-0.5l0.1-0.5v-0.5v-0.4l-0.1-0.4   l-0.1-0.4l-0.1-0.4l-0.1-0.4l-0.2-0.3l-0.2-0.2l-0.2-0.2l-0.4-0.4l-0.5-0.2l-0.3-0.1l-0.2-0.1l-0.2-0.1l-0.3-0.1h-0.2h-0.3   l-0.5,0.1h-0.3l-0.3,0.1l-0.6,0.2l-0.6,0.2l-0.6,0.3l-0.7,0.4l-0.6,0.4l-0.7,0.4l-0.6,0.4l-0.7,0.5l-0.7,0.5l-1.2,1.1l-1.2,1.1   l-1.1,1.1l-1.1,1.1l-1,1l-0.9,1l-1.3,1.4l0.5-1.2l0.4-1.1l0.2-1.1l0.1-0.5l0.1-0.5l0.1-0.9l0.1-0.9v-0.4v-0.4l-0.1-0.4l-0.1-0.4   l-0.1-0.7l-0.2-0.6l-0.1-0.3l-0.1-0.2l-0.4-0.5l-0.4-0.4l-0.2-0.2l-0.2-0.2l-0.5-0.3l-0.5-0.2l-0.5-0.2l-0.5-0.2l-0.4-0.1h-0.3   l-0.7-0.1h-0.7l-0.7,0.1l-0.7,0.1l-0.7,0.1l-0.8,0.2l-0.7,0.2l-0.8,0.2l-0.8,0.3l-0.7,0.4l-0.8,0.4l-0.7,0.4L1618,514.3L1618,514.3   z M1614,528.9v-1.1l0.1-1.1l0.1-1.1l0.2-1.1l0.1-0.2l0.1-0.3l0.2-0.5l0.2-0.5l0.3-0.5l0.4-0.5l0.4-0.5l0.4-0.5l0.4-0.4l0.4-0.4   l0.5-0.4l0.5-0.4l0.5-0.4l0.5-0.4l0.5-0.4l1.1-0.7l1-0.5l1-0.5l1-0.4l0.9-0.4l0.8-0.2l0.4-0.1l0.4-0.1l0.2-0.1h0.3l0.2,0.1l0.2,0.1   l0.2,0.1l0.1,0.1l0.1,0.1l0.1,0.2l0.1,0.2l0.1,0.2v0.2l0.1,0.2v0.6l-0.1,0.6l-0.1,0.7l-0.2,0.8l-0.2,0.8l-0.3,0.8l-0.7,1.7l-0.4,1   l-0.4,0.9l-0.9,1.9l-1,1.9l-1,1.9l-1.9,3.3l-1.5,2.5l-0.8,1.3l-0.2,0.5l-0.1,0.2l-0.1,0.2l-0.1,0.2v0.2l0.1,0.4l0.1,0.2l0.1,0.2   l0.1,0.1l0.1,0.2l0.2,0.3l0.3,0.2l0.3,0.2l0.4,0.1l0.4,0.1h0.4l0.4-0.1l0.4-0.2l0.2-0.1l0.2-0.1l0.2-0.2l0.2-0.2l4.1-4.9l3-3.5   l1.6-1.9l1.7-1.9l1.7-1.9l0.9-0.9l0.8-0.9l1.7-1.7l1.7-1.6l1.6-1.4l0.7-0.6l0.7-0.6l0.7-0.5l0.7-0.4l0.5-0.4l0.5-0.3l-0.1,0.9   l-0.2,1l-0.1,0.5l-0.2,0.6l-0.4,1.1l-0.4,1.3l-0.5,1.3l-0.5,1.3l-0.5,1.3l-1.1,2.6l-1.1,2.5l-0.5,1.1l-0.6,1.1l-0.5,1l-0.5,1   l-0.9,1.4l-0.2,0.5l-0.1,0.2l-0.1,0.2v0.2v0.2l0.1,0.4l0.1,0.2l0.1,0.2l0.2,0.3l0.2,0.2l0.1,0.1l0.1,0.1l0.2,0.1l0.2,0.1l0.2,0.1   l0.2,0.1l0.2,0.1h0.4h0.4l0.2-0.1l0.2-0.1l0.2-0.1l0.2-0.1l0.4-0.3l0.2-0.2l0.1-0.2l0.1-0.1l0.1-0.1l0.7-1.3l1-1.4l1-1.6l1.1-1.7   l1.2-1.7l1.3-1.8l1.3-1.9l1.4-1.7l1.3-1.7l1.3-1.6l1.3-1.4l0.6-0.7l0.6-0.6l0.5-0.5l0.6-0.5l0.5-0.4l0.5-0.3l0.2-0.2l0.2-0.1   l0.4-0.2l0.4-0.1h0.3l0.4,0.2l0.3,0.4l0.3,0.4l0.2,0.5l0.2,0.6l0.2,0.7l0.2,0.7l0.2,0.8l0.2,1.6l0.2,1.7l0.4,3.7l0.2,0.9l0.1,0.9   l0.3,1.7l0.2,0.8l0.1,0.4l0.1,0.4l0.2,0.8l0.3,0.7l0.2,0.3l0.1,0.3l0.4,0.6l0.2,0.3l0.2,0.2l0.5,0.5l0.5,0.4l0.2,0.2l0.2,0.1   l0.3,0.1l0.3,0.1l0.3,0.1l0.3,0.1l0.7,0.1h0.4l0.3-0.1l0.7-0.1l0.7-0.2l-0.4,1l-0.4,1l-0.5,1l-0.2,0.5l-0.2,0.5l-0.5,1l-0.5,0.9   l-0.6,0.9l-0.6,0.8l-0.7,0.8l-0.7,0.8l-0.7,0.8l-0.7,0.8l-0.8,0.7l-0.4,0.4l-0.4,0.4l-0.8,0.7l-0.9,0.7l-0.8,0.6l-0.9,0.6l-1,0.5   l-1,0.5l-1,0.5l-1,0.5l-1,0.4l-1,0.4l-0.5,0.2l-0.5,0.2l-1.1,0.2l-1.1,0.2l-1.1,0.2l-1.1,0.1l-1.1,0.1l-1.1,0.1l-1.1,0.1l-1.4-0.1   l-1.4-0.1l-0.7-0.1l-0.7-0.1l-1.4-0.2l-0.7-0.1l-0.7-0.2l-1.4-0.4l-1.3-0.5l-1.3-0.5l-0.6-0.3l-0.6-0.3l-1.3-0.6l-0.6-0.3l-0.5-0.4   l-1.1-0.7l-1.1-0.8l-1-0.8l-1-0.9l-1-1l-0.9-1l-0.9-1l-0.8-1.1l-0.8-1.1l-0.7-1.1l-0.4-0.6l-0.4-0.6l-0.6-1.2l-0.5-1.3l-0.5-1.3   l-0.2-0.7l-0.2-0.7l-0.2-0.7l-0.2-0.7l-0.2-0.7l-0.2-0.7l-0.1-0.7l-0.1-0.7l-0.1-0.7l-0.1-0.7l-0.1-0.7l-0.1-0.7v-0.7V528.9   L1614,528.9z"
   fill="#FFFFFF" />
	<polygon
   id="polygon38"
   points="1681.7,542.4 1683.8,542.4 1683.8,523.4 1683.9,523.4    1690.3,542.4 1692.7,542.4 1699,523.4 1699.1,523.4 1699.1,542.4 1701.3,542.4 1701.3,520.8 1697.7,520.8 1691.5,539.2    1691.5,539.2 1685.3,520.8 1681.7,520.8 1681.7,542.4  "
   fill="#FFFFFF"
   clip-rule="evenodd"
   fill-rule="evenodd" />
	<path
   id="path40"
   d="M1702.6,542.4h2.5l2.1-6.7h7.7l2.2,6.7h2.4l-7-21.6h-2.9   L1702.6,542.4L1702.6,542.4z M1711,523L1711,523l3.2,10.7h-6.4L1711,523L1711,523z"
   fill="#FFFFFF"
   clip-rule="evenodd"
   fill-rule="evenodd" />
	<polygon
   id="polygon42"
   points="1723.5,542.4 1726.6,542.4 1733.8,520.8 1731.3,520.8    1725.2,539.8 1725.1,539.8 1719,520.8 1716.5,520.8 1723.5,542.4  "
   fill="#FFFFFF"
   clip-rule="evenodd"
   fill-rule="evenodd" />
	<polygon
   id="polygon44"
   points="1735.6,542.4 1738.1,542.4 1738.1,520.8 1735.6,520.8    1735.6,542.4  "
   fill="#FFFFFF"
   clip-rule="evenodd"
   fill-rule="evenodd" />
	<polygon
   id="polygon46"
   points="1749.4,541.1 1749.4,540.3 1749.1,540.4 1748.6,540.5    1748.4,540.5 1748.1,540.4 1748,540.3 1747.9,540.2 1747.9,540 1747.8,539.8 1747.7,539.5 1747.7,539.1 1747.7,536.1 1749.4,536.1    1749.4,535.3 1747.7,535.3 1747.7,533.2 1746.9,533.5 1746.9,535.3 1745.6,535.3 1745.6,536.1 1746.9,536.1 1746.9,539.5    1746.9,539.9 1746.9,540.3 1747,540.6 1747.2,540.8 1747.2,540.9 1747.4,541 1747.7,541.1 1748,541.2 1748.3,541.2 1748.9,541.2    1749.2,541.1 1749.4,541.1  "
   fill="#FFFFFF"
   clip-rule="evenodd"
   fill-rule="evenodd" />
	<path
   id="path48"
   d="M1755.1,537.6l-0.1-0.5l-0.1-0.4l-0.2-0.4l-0.1-0.2l-0.1-0.2   l-0.1-0.1l-0.2-0.1l-0.2-0.1l-0.2-0.1l-0.2-0.1l-0.2-0.1l-0.3-0.1h-0.2h-0.3l-0.3,0.1l-0.2,0.1l-0.2,0.1l-0.2,0.1l-0.2,0.1   l-0.2,0.2l-0.2,0.2l-0.3,0.4l-0.2,0.5l-0.1,0.2v0.3l-0.1,0.3v0.4v0.4l0.1,0.3v0.4l0.1,0.2l0.1,0.3l0.1,0.2l0.2,0.2l0.1,0.2l0.2,0.1   l0.2,0.2l0.2,0.1l0.2,0.1l0.2,0.1l0.3,0.1h0.3l0.3,0.1l0.5-0.1l0.5-0.1l0.5-0.1l0.4-0.1l-0.1-0.7l-0.4,0.1l-0.4,0.1l-0.4,0.1   l-0.4,0.1l-0.5-0.1l-0.4-0.1l-0.1-0.1l-0.2-0.1l-0.2-0.1l-0.1-0.1l-0.2-0.3l-0.2-0.4v-0.2l-0.1-0.3V538h3.8v-0.2V537.6   L1755.1,537.6z M1754.2,537.4h-2.9l0.1-0.3l0.1-0.3l0.1-0.2l0.2-0.2l0.2-0.1l0.2-0.2l0.2-0.1h0.3h0.3l0.3,0.1l0.1,0.1l0.1,0.1   l0.1,0.1l0.1,0.1l0.2,0.2l0.1,0.2l0.1,0.3V537.4L1754.2,537.4z"
   fill="#FFFFFF"
   clip-rule="evenodd"
   fill-rule="evenodd" />
	<polygon
   id="polygon50"
   points="1760.2,540.9 1760.2,540.1 1759.9,540.3 1759.5,540.3    1759.1,540.4 1758.7,540.5 1758.5,540.5 1758.3,540.4 1757.9,540.3 1757.6,540.1 1757.5,540 1757.4,539.8 1757.2,539.5    1757.1,539.1 1757,538.7 1757,538.3 1757,537.8 1757.1,537.3 1757.2,537 1757.4,536.6 1757.5,536.5 1757.7,536.4 1757.8,536.2    1758,536.2 1758.2,536.1 1758.4,536.1 1758.9,536 1759.2,536 1759.5,536.1 1759.8,536.1 1760.1,536.2 1760.2,535.5 1759.6,535.3    1758.9,535.3 1758.6,535.3 1758.3,535.3 1758,535.4 1757.7,535.5 1757.4,535.6 1757.2,535.8 1757.1,535.9 1756.9,535.9    1756.9,536.1 1756.8,536.2 1756.7,536.2 1756.6,536.4 1756.5,536.6 1756.3,536.9 1756.3,537.1 1756.2,537.4 1756.1,537.7    1756.1,538.1 1756.1,538.5 1756.1,538.8 1756.2,539.2 1756.2,539.5 1756.3,539.8 1756.4,540 1756.5,540.3 1756.7,540.5    1756.8,540.6 1757,540.8 1757.2,540.9 1757.4,541 1757.6,541.1 1758.1,541.2 1758.6,541.2 1759,541.2 1759.5,541.1 1759.9,541    1760.2,540.9  "
   fill="#FFFFFF"
   clip-rule="evenodd"
   fill-rule="evenodd" />
	<polygon
   id="polygon52"
   points="1766.2,541.1 1766.2,537.1 1766.1,536.7 1766.1,536.4    1766.1,536.2 1766,536.1 1765.8,535.8 1765.7,535.7 1765.6,535.6 1765.4,535.5 1765.3,535.4 1765.1,535.3 1764.9,535.3    1764.7,535.3 1764.5,535.3 1764.1,535.3 1763.7,535.3 1763.4,535.5 1763.2,535.6 1763,535.8 1762.7,536.1 1762.5,536.4    1762.5,536.5 1762.4,536.7 1762.5,536 1762.5,535.3 1761.6,535.3 1761.6,541.1 1762.5,541.1 1762.5,538.3 1762.5,537.9    1762.6,537.6 1762.6,537.4 1762.8,537 1763,536.7 1763.3,536.4 1763.4,536.2 1763.6,536.1 1763.9,536 1764.2,535.9 1764.5,536    1764.8,536.1 1764.9,536.2 1765.1,536.4 1765.2,536.5 1765.2,536.8 1765.3,537.1 1765.3,537.4 1765.3,541.1 1766.2,541.1  "
   fill="#FFFFFF"
   clip-rule="evenodd"
   fill-rule="evenodd" />
	<path
   id="path54"
   d="M1772.9,538.2v-0.4l-0.1-0.2v-0.2l-0.1-0.3l-0.1-0.3l-0.1-0.2   l-0.1-0.2l-0.2-0.2l-0.2-0.2l-0.2-0.2l-0.2-0.1l-0.2-0.1l-0.2-0.1l-0.2-0.1l-0.2-0.1h-0.2h-0.2h-0.4l-0.3,0.1l-0.2,0.1l-0.3,0.1   l-0.2,0.1l-0.2,0.1l-0.2,0.2l-0.2,0.2l-0.2,0.2l-0.1,0.2l-0.1,0.2l-0.1,0.2l-0.1,0.3l-0.1,0.3l-0.1,0.3v0.3v0.4l0.1,0.3l0.1,0.4   l0.1,0.2l0.2,0.5l0.1,0.2l0.1,0.2l0.2,0.1l0.2,0.2l0.2,0.1l0.2,0.1l0.2,0.1l0.2,0.1l0.5,0.1l0.3-0.1h0.3l0.3-0.1l0.2-0.1l0.2-0.2   l0.2-0.1l0.2-0.2l0.2-0.2l0.1-0.2l0.2-0.2l0.1-0.2l0.1-0.2l0.1-0.3l0.1-0.3l0.1-0.3V538.2L1772.9,538.2z M1772,538.2l-0.1,0.6   l-0.1,0.5l-0.1,0.2l-0.1,0.2l-0.2,0.3l-0.1,0.1l-0.1,0.1l-0.2,0.1l-0.1,0.1l-0.3,0.1h-0.4h-0.4l-0.4-0.1l-0.2-0.1l-0.1-0.1   l-0.2-0.2l-0.2-0.4l-0.1-0.4l-0.1-0.2v-0.2l-0.1-0.5v-0.2l0.1-0.2l0.1-0.5l0.2-0.4l0.1-0.2l0.1-0.2l0.1-0.1l0.1-0.1l0.3-0.2   l0.4-0.1h0.3h0.2h0.2l0.2,0.1l0.2,0.1l0.1,0.1l0.2,0.1l0.1,0.1l0.1,0.1l0.2,0.4l0.1,0.2l0.1,0.2l0.1,0.4L1772,538.2L1772,538.2z"
   fill="#FFFFFF"
   clip-rule="evenodd"
   fill-rule="evenodd" />
	<polygon
   id="polygon56"
   points="1775.3,541.1 1775.3,532.7 1774.4,532.7 1774.4,541.1    1775.3,541.1  "
   fill="#FFFFFF"
   clip-rule="evenodd"
   fill-rule="evenodd" />
	<path
   id="path58"
   d="M1782,538.2v-0.4l-0.1-0.2v-0.2l-0.1-0.3l-0.1-0.3l-0.1-0.2   l-0.1-0.2l-0.2-0.2l-0.2-0.2l-0.2-0.2l-0.2-0.1l-0.2-0.1l-0.2-0.1l-0.2-0.1l-0.2-0.1h-0.2h-0.2h-0.4l-0.3,0.1l-0.2,0.1l-0.3,0.1   l-0.2,0.1l-0.2,0.1l-0.2,0.2l-0.2,0.2l-0.2,0.2l-0.1,0.2l-0.1,0.2l-0.1,0.2l-0.1,0.3l-0.1,0.3l-0.1,0.3v0.3v0.4l0.1,0.3l0.1,0.4   l0.1,0.2l0.2,0.5l0.1,0.2l0.1,0.2l0.2,0.1l0.2,0.2l0.2,0.1l0.2,0.1l0.2,0.1l0.2,0.1l0.5,0.1l0.3-0.1h0.3l0.3-0.1l0.2-0.1l0.2-0.2   l0.2-0.1l0.2-0.2l0.2-0.2l0.1-0.2l0.2-0.2l0.1-0.2l0.1-0.2l0.1-0.3l0.1-0.3l0.1-0.3V538.2L1782,538.2z M1781.1,538.2l-0.1,0.6   l-0.1,0.5l-0.1,0.2l-0.1,0.2l-0.2,0.3l-0.1,0.1l-0.1,0.1l-0.2,0.1l-0.1,0.1l-0.3,0.1h-0.4h-0.4l-0.4-0.1l-0.2-0.1l-0.1-0.1   l-0.2-0.2l-0.2-0.4l-0.1-0.4l-0.1-0.2v-0.2l-0.1-0.5v-0.2l0.1-0.2l0.1-0.5l0.2-0.4l0.1-0.2l0.1-0.2l0.1-0.1l0.1-0.1l0.3-0.2   l0.4-0.1h0.3h0.2h0.2l0.2,0.1l0.2,0.1l0.1,0.1l0.2,0.1l0.1,0.1l0.1,0.1l0.2,0.4l0.1,0.2l0.1,0.2l0.1,0.4L1781.1,538.2L1781.1,538.2   z"
   fill="#FFFFFF"
   clip-rule="evenodd"
   fill-rule="evenodd" />
	<path
   id="path60"
   d="M1788.3,542l-0.1-0.4v-0.2l-0.1-0.1l-0.2-0.3l-0.1-0.1l-0.1-0.1   l-0.1-0.1l-0.2-0.1l-0.1-0.1l-0.2-0.1l-0.4-0.1h-0.4h-1.1l-0.4-0.1h-0.2l-0.2-0.1l-0.1-0.1l-0.1-0.1l-0.1-0.1v-0.1v-0.2l0.1-0.1   l0.1-0.1l0.1-0.1l0.1-0.1l0.1-0.1l0.4,0.1l0.4,0.1l0.3-0.1h0.3l0.5-0.1l0.2-0.1l0.2-0.1l0.2-0.1l0.2-0.2l0.2-0.1l0.1-0.2l0.1-0.2   l0.1-0.2l0.1-0.4v-0.2l0.1-0.2l-0.1-0.2v-0.2l-0.1-0.3l-0.1-0.2l-0.1-0.1l-0.2-0.2h1.1v-0.7h-2l-0.4-0.1h-0.4h-0.5l-0.3,0.1   l-0.2,0.1l-0.2,0.1l-0.2,0.1l-0.2,0.1l-0.2,0.2l-0.2,0.3l-0.2,0.4l-0.1,0.2l-0.1,0.2v0.2l-0.1,0.2l0.1,0.2v0.2l0.1,0.2l0.1,0.2   l0.1,0.2l0.1,0.2l0.2,0.2l0.2,0.1l-0.3,0.2l-0.1,0.1l-0.1,0.1l-0.1,0.1l-0.1,0.1l-0.1,0.1v0.2v0.1l0.1,0.1v0.1l0.1,0.1l0.1,0.1   l0.1,0.1l0.2,0.2l-0.2,0.1l-0.2,0.1l-0.2,0.2l-0.1,0.2l-0.1,0.2l-0.1,0.2l-0.1,0.2v0.2v0.2l0.1,0.2l0.1,0.4l0.1,0.2l0.1,0.1   l0.1,0.1l0.2,0.1l0.2,0.1l0.2,0.1l0.2,0.1l0.2,0.1l0.5,0.1h0.5h0.3l0.3-0.1l0.3-0.1l0.3-0.1l0.3-0.1l0.2-0.1l0.2-0.1l0.2-0.1   l0.2-0.1l0.2-0.2l0.1-0.2l0.1-0.2l0.1-0.2l0.1-0.2l0.1-0.2V542L1788.3,542z M1787.1,537.4v0.3l-0.1,0.3l-0.1,0.1l-0.1,0.1l-0.2,0.2   l-0.2,0.1l-0.2,0.1l-0.3,0.1l-0.4,0.1l-0.3-0.1l-0.3-0.1l-0.3-0.1l-0.2-0.1l-0.2-0.2l-0.1-0.2l-0.1-0.2v-0.4v-0.3l0.1-0.3l0.1-0.1   l0.1-0.1l0.1-0.1l0.1-0.1l0.2-0.2l0.2-0.1l0.3-0.1h0.4h0.4l0.3,0.1l0.2,0.1l0.2,0.2l0.1,0.2l0.2,0.2l0.1,0.3V537.4L1787.1,537.4z    M1787.5,542.1l-0.1,0.2l-0.1,0.2l-0.1,0.2l-0.1,0.1l-0.1,0.1l-0.3,0.2l-0.4,0.1l-0.4,0.1h-0.5h-0.3l-0.4-0.1l-0.2-0.1l-0.3-0.2   l-0.2-0.1l-0.1-0.2l-0.1-0.2v-0.3v-0.2V542l0.1-0.2l0.1-0.2l0.1-0.1l0.2-0.1l0.3-0.2h0.4h1.2l0.3,0.1l0.2,0.1l0.2,0.1l0.2,0.1   l0.2,0.1l0.1,0.2l0.1,0.2L1787.5,542.1L1787.5,542.1z"
   fill="#FFFFFF"
   clip-rule="evenodd"
   fill-rule="evenodd" />
	<path
   id="path62"
   d="M1790.7,541.1v-5.8h-0.8v5.8H1790.7L1790.7,541.1z M1791.4,533.2   l-0.5-0.6l-1.4,1.3l0.4,0.5L1791.4,533.2L1791.4,533.2z"
   fill="#FFFFFF"
   clip-rule="evenodd"
   fill-rule="evenodd" />
	<path
   id="path64"
   d="M1796.7,541.1v-0.8v-0.9v-2.2l-0.1-0.4l-0.1-0.4l-0.1-0.1   l-0.1-0.2l-0.1-0.1l-0.1-0.1l-0.1-0.1l-0.2-0.1l-0.4-0.2l-0.4-0.1h-0.2h-0.3h-0.5l-0.5,0.1l-0.5,0.1l-0.4,0.2l0.1,0.8l0.4-0.2   l0.2-0.1l0.2-0.1l0.5-0.1l0.4-0.1l0.4,0.1l0.3,0.1l0.2,0.1l0.1,0.1l0.2,0.2l0.1,0.2l0.1,0.3v0.3v0.5h-0.4h-0.4l-0.7,0.1l-0.3,0.1   l-0.3,0.1l-0.5,0.2l-0.2,0.1l-0.2,0.2l-0.2,0.2l-0.1,0.2l-0.1,0.2l-0.1,0.2l-0.1,0.2v0.2l0.1,0.4v0.1l0.1,0.1l0.1,0.2l0.2,0.2   l0.2,0.1l0.3,0.1l0.3,0.1l0.3,0.1l0.4-0.1l0.4-0.1l0.3-0.1l0.2-0.2l0.2-0.2l0.2-0.2l0.1-0.2l0.1-0.2h0.1l-0.1,0.2v0.3v0.7H1796.7   L1796.7,541.1z M1795.7,538.5v0.4l-0.1,0.4l-0.1,0.3l-0.2,0.3l-0.2,0.3l-0.1,0.1l-0.1,0.1l-0.2,0.1l-0.2,0.1l-0.4,0.1h-0.2   l-0.2-0.1l-0.2-0.1l-0.1-0.1l-0.1-0.1l-0.1-0.1l-0.1-0.2l-0.1-0.2l0.1-0.1v-0.1l0.1-0.2l0.2-0.2l0.2-0.2l0.1-0.1l0.2-0.1l0.4-0.1   l0.6-0.1l0.7-0.1V538.5L1795.7,538.5z"
   fill="#FFFFFF"
   clip-rule="evenodd"
   fill-rule="evenodd" />
	<polygon
   id="polygon66"
   points="1801.9,539.4 1801.9,539.1 1801.9,538.9 1801.8,538.8    1801.7,538.5 1801.5,538.3 1801.3,538.2 1801,538.1 1800.6,537.9 1800,537.7 1799.5,537.6 1799.4,537.4 1799.3,537.4 1799.2,537.3    1799.2,537.2 1799.2,537.1 1799.1,536.8 1799.2,536.7 1799.2,536.5 1799.3,536.3 1799.4,536.2 1799.6,536.1 1799.8,536    1800.1,535.9 1800.4,535.9 1801,536 1801.3,536.1 1801.6,536.1 1801.6,535.4 1801,535.3 1800.7,535.3 1800.5,535.3 1800,535.3    1799.7,535.3 1799.5,535.4 1799.1,535.5 1798.8,535.8 1798.6,536 1798.5,536.1 1798.4,536.3 1798.3,536.4 1798.3,536.6    1798.3,536.8 1798.2,537 1798.3,537.3 1798.3,537.4 1798.3,537.6 1798.5,537.8 1798.7,538 1798.9,538.2 1799.1,538.3 1799.7,538.5    1800.1,538.6 1800.4,538.7 1800.6,538.8 1800.8,538.9 1800.9,539 1800.9,539.1 1801,539.2 1801,539.2 1801,539.5 1801,539.7    1800.9,539.9 1800.8,540.1 1800.6,540.2 1800.4,540.3 1800.2,540.4 1799.9,540.5 1799.6,540.5 1799.3,540.5 1798.9,540.5    1798.6,540.4 1798.3,540.3 1798.3,541.1 1798.9,541.2 1799.5,541.2 1800.1,541.2 1800.6,541.1 1801,540.9 1801.2,540.8    1801.3,540.7 1801.5,540.6 1801.6,540.4 1801.7,540.3 1801.8,540.1 1801.8,540 1801.9,539.8 1801.9,539.6 1801.9,539.4  "
   fill="#FFFFFF"
   clip-rule="evenodd"
   fill-rule="evenodd" />
	<polygon
   id="polygon68"
   points="1751.2,529.6 1751.2,525.6 1751.2,525.2 1751.2,524.8    1751.1,524.7 1751,524.5 1750.9,524.3 1750.7,524.2 1750.6,524 1750.5,523.9 1750.3,523.9 1750.1,523.8 1750,523.8 1749.7,523.8    1749.5,523.8 1749.1,523.8 1748.8,523.8 1748.5,523.9 1748.2,524.1 1748,524.3 1747.7,524.5 1747.5,524.8 1747.5,524.9    1747.4,525.1 1747.5,524.5 1747.5,523.8 1746.6,523.8 1746.6,529.6 1747.5,529.6 1747.5,526.8 1747.5,526.3 1747.6,526.1    1747.7,525.9 1747.8,525.5 1748,525.1 1748.3,524.8 1748.4,524.7 1748.6,524.6 1748.9,524.5 1749.3,524.4 1749.5,524.5    1749.8,524.5 1750,524.7 1750.1,524.8 1750.3,525 1750.3,525.3 1750.3,525.6 1750.4,525.9 1750.4,529.6 1751.2,529.6  "
   fill="#FFFFFF"
   clip-rule="evenodd"
   fill-rule="evenodd" />
	<polygon
   id="polygon70"
   points="1757.8,529.6 1757.8,523.8 1756.9,523.8 1756.9,526.6    1756.9,527.1 1756.9,527.3 1756.8,527.5 1756.6,528 1756.5,528.3 1756.2,528.6 1756,528.7 1755.9,528.8 1755.5,528.9 1755.2,529    1754.9,528.9 1754.6,528.9 1754.5,528.7 1754.3,528.6 1754.2,528.4 1754.2,528.1 1754.1,527.9 1754.1,527.5 1754.1,523.8    1753.3,523.8 1753.3,527.8 1753.3,528.2 1753.3,528.6 1753.4,528.7 1753.4,528.9 1753.6,529.2 1753.7,529.3 1753.9,529.4    1754,529.5 1754.2,529.5 1754.3,529.6 1754.5,529.6 1754.7,529.7 1754.9,529.7 1755.3,529.6 1755.7,529.6 1756,529.5 1756.3,529.3    1756.5,529.1 1756.7,528.9 1756.9,528.6 1756.9,528.4 1757,528.3 1757.1,528.3 1757,528.9 1756.9,529.6 1757.8,529.6  "
   fill="#FFFFFF"
   clip-rule="evenodd"
   fill-rule="evenodd" />
	<path
   id="path72"
   d="M1764,526.1v-0.5l-0.1-0.4l-0.2-0.4l-0.1-0.2l-0.1-0.2l-0.2-0.1   l-0.2-0.1l-0.2-0.1l-0.2-0.1l-0.2-0.1l-0.2-0.1l-0.2-0.1h-0.3h-0.3l-0.2,0.1l-0.3,0.1l-0.2,0.1l-0.2,0.1l-0.2,0.1l-0.2,0.2   l-0.2,0.2l-0.3,0.4l-0.2,0.5l-0.1,0.2l-0.1,0.3l-0.1,0.3v0.4v0.4l0.1,0.3l0.1,0.4l0.1,0.2l0.1,0.3l0.1,0.2l0.1,0.2l0.1,0.2l0.2,0.1   l0.2,0.2l0.2,0.1l0.2,0.1l0.3,0.1l0.2,0.1h0.3l0.3,0.1l0.5-0.1l0.5-0.1l0.5-0.1l0.4-0.1l-0.1-0.7l-0.3,0.1l-0.4,0.1l-0.5,0.1   l-0.4,0.1l-0.5-0.1l-0.4-0.1l-0.2-0.1l-0.2-0.1l-0.1-0.1l-0.1-0.1l-0.2-0.3l-0.1-0.4l-0.1-0.2l-0.1-0.3v-0.6h3.8v-0.2V526.1   L1764,526.1z M1763.1,525.9h-2.9l0.1-0.3l0.1-0.3l0.1-0.2l0.2-0.2l0.2-0.1l0.2-0.2l0.2-0.1h0.3h0.3l0.3,0.1l0.1,0.1l0.1,0.1   l0.1,0.1l0.1,0.1l0.2,0.2l0.1,0.2l0.1,0.3V525.9L1763.1,525.9z"
   fill="#FFFFFF"
   clip-rule="evenodd"
   fill-rule="evenodd" />
	<polygon
   id="polygon74"
   points="1769.9,523.8 1768.9,523.8 1767.5,527.6 1767.3,528.1    1767.2,528.6 1766.9,527.6 1765.5,523.8 1764.6,523.8 1766.7,529.6 1767.6,529.6 1769.9,523.8  "
   fill="#FFFFFF"
   clip-rule="evenodd"
   fill-rule="evenodd" />
	<path
   id="path76"
   d="M1774.6,529.6l-0.1-0.8v-0.9v-2.2v-0.4l-0.1-0.4l-0.1-0.1   l-0.1-0.2l-0.1-0.1l-0.1-0.1l-0.1-0.1l-0.1-0.1l-0.4-0.2l-0.4-0.1h-0.3h-0.2h-0.6l-0.5,0.1l-0.5,0.1l-0.4,0.2l0.1,0.8l0.4-0.2   l0.2-0.1l0.2-0.1l0.5-0.1l0.4-0.1l0.4,0.1l0.3,0.1l0.2,0.1l0.2,0.1l0.1,0.2l0.1,0.2l0.1,0.3v0.3v0.5h-0.4h-0.4l-0.7,0.1l-0.3,0.1   l-0.3,0.1l-0.5,0.2l-0.2,0.1l-0.2,0.2l-0.1,0.2l-0.1,0.2l-0.1,0.2l-0.1,0.2l-0.1,0.2v0.2v0.4l0.1,0.1l0.1,0.1l0.1,0.2l0.2,0.2   l0.2,0.1l0.2,0.1l0.4,0.1l0.3,0.1l0.4-0.1l0.3-0.1l0.3-0.1l0.3-0.2l0.2-0.2l0.2-0.2l0.2-0.2l0.1-0.2h0.1l-0.1,0.2v0.3v0.7H1774.6   L1774.6,529.6z M1773.7,527l-0.1,0.4l-0.1,0.4l-0.2,0.3l-0.2,0.3l-0.2,0.3l-0.1,0.1l-0.2,0.1l-0.1,0.1l-0.2,0.1l-0.4,0.1h-0.2   l-0.2-0.1l-0.1-0.1l-0.1-0.1l-0.1-0.1l-0.1-0.1v-0.2l-0.1-0.2V528l0.1-0.1l0.1-0.2l0.2-0.2l0.2-0.2l0.1-0.1l0.2-0.1l0.5-0.1   l0.6-0.1l0.7-0.1V527L1773.7,527z"
   fill="#FFFFFF"
   clip-rule="evenodd"
   fill-rule="evenodd" />
	<polygon
   id="polygon78"
   points="1779.9,527.8 1779.8,527.5 1779.7,527.4 1779.7,527.2    1779.6,527 1779.4,526.8 1779.2,526.7 1779,526.6 1778.4,526.4 1777.9,526.2 1777.5,526 1777.3,525.9 1777.2,525.9 1777.2,525.7    1777.1,525.7 1777.1,525.6 1777,525.3 1777,525.1 1777.1,524.9 1777.2,524.8 1777.3,524.7 1777.5,524.5 1777.8,524.5 1778,524.4    1778.3,524.4 1778.9,524.5 1779.2,524.5 1779.5,524.6 1779.5,523.9 1779,523.8 1778.7,523.8 1778.4,523.8 1777.9,523.8    1777.6,523.8 1777.4,523.9 1777,524 1776.7,524.2 1776.5,524.5 1776.4,524.6 1776.3,524.8 1776.3,524.9 1776.2,525.1 1776.1,525.3    1776.1,525.4 1776.2,525.8 1776.2,525.9 1776.3,526 1776.4,526.3 1776.6,526.5 1776.8,526.6 1777,526.8 1777.5,526.9 1778.1,527.1    1778.3,527.2 1778.5,527.3 1778.7,527.4 1778.8,527.5 1778.8,527.5 1778.9,527.7 1778.9,527.7 1779,528 1778.9,528.2 1778.8,528.4    1778.7,528.6 1778.5,528.7 1778.4,528.8 1778.1,528.9 1777.8,528.9 1777.5,529 1777.2,528.9 1776.9,528.9 1776.6,528.9    1776.3,528.7 1776.3,529.6 1776.8,529.6 1777.5,529.7 1778,529.6 1778.4,529.5 1778.8,529.4 1779,529.3 1779.2,529.2 1779.3,529    1779.5,528.9 1779.6,528.7 1779.7,528.6 1779.7,528.4 1779.8,528.3 1779.8,528.1 1779.9,527.8  "
   fill="#FFFFFF"
   clip-rule="evenodd"
   fill-rule="evenodd" />
</g>
<polygon
   id="polygon80"
   points="428.1,1033.8 428.4,1033.3 428.4,1033.3 428.4,1033.3 "
   fill="none" />
<g
   id="g82">
	<rect
   id="rect84"
   height="257.8"
   width="89.5"
   fill="#444444"
   y="215.1"
   x="0" />
	<polygon
   id="polygon86"
   points="89.5,215.1 89.5,472.9 0,215.1  "
   fill="#2E282A" />
</g>
<g
   id="g88">
	<path
   id="path90"
   d="M745.7,398H89.5V279.4h572.9L745.7,398z M106.2,381.3h607.3l-59.9-85.1H106.2V381.3z"
   fill="#028379" />
</g>
<g
   id="g92">
	<polygon
   id="polygon94"
   points="643.3,396.3 594.3,318.6 549.2,390.2 504,318.6 458.9,390.2 413.8,318.6 368.7,390.2 323.5,318.6    278.4,390.2 233.3,318.6 188.2,390.2 143.7,319.6 105.3,393.5 90.5,385.8 142.3,286.1 188.2,358.8 233.3,287.2 278.4,358.8    323.6,287.2 368.7,358.8 413.8,287.2 458.9,358.8 504,287.2 549.2,358.8 594.3,287.2 635.5,352.7 649.9,286 666.2,289.5  "
   fill="#028379" />
</g>
<rect
   id="rect96"
   height="36.2"
   width="118.2"
   fill="#028379"
   y="398"
   x="260.6" />
<rect
   id="rect98"
   height="36.2"
   width="59.1"
   fill="#025F58"
   y="398"
   x="319.6" />
<g
   id="g100">
	
		<rect
   id="rect102"
   height="7.2"
   width="185.5"
   fill="#024E48"
   transform="matrix(0.1178 0.993 -0.993 0.1178 765.2603 191.1107)"
   y="522.7"
   x="182.3" />
</g>
<g
   id="g104">
	
		<rect
   id="rect106"
   height="185.5"
   width="7.2"
   fill="#024E48"
   transform="matrix(0.993 0.1181 -0.1181 0.993 64.6964 -39.3275)"
   y="433.5"
   x="360.6" />
</g>
<g
   id="g108">
	<path
   id="path110"
   d="M322,732h-2.2c-5.3,0-10.5-2.2-14.2-6.1c-4.1-4.4-6-10.3-5.2-16.3c0.8-6,4.3-11.2,9.4-14.3l5.4-3.2v-17.9   c0-2.1,1.7-3.7,3.7-3.7c2.1,0,3.7,1.7,3.7,3.7v22.2l-9,5.4c-3.2,1.9-5.4,5.2-5.9,8.9s0.7,7.4,3.3,10.2c2.3,2.4,5.5,3.8,8.8,3.8h2.2   c3.6,0,5.3-1.1,6.9-2.8c2.1-2.3,3.1-5.5,2.6-8.7c-0.3-2,1.1-3.9,3.2-4.2c2.1-0.3,3.9,1.1,4.2,3.2c0.8,5.5-0.9,10.8-4.5,14.8   C331.1,730.4,327.2,732,322,732z"
   fill="#024E48" />
</g>
<path
   id="path112"
   d="M356.9,618.4l-31.1,53.9c-2.7,4.7-9.5,4.7-12.2,0l-31.1-53.9c-2.7-4.7,0.7-10.6,6.1-10.6h62.3  C356.2,607.8,359.6,613.7,356.9,618.4z"
   fill="#E30613" />
<g
   id="g114">
	<rect
   id="rect116"
   height="67.5"
   width="95.6"
   fill="#4E4E4E"
   y="876.5"
   x="1448.6" />
	<rect
   id="rect118"
   height="32.5"
   width="42.3"
   fill="#989999"
   y="894"
   x="1475.2" />
</g>
<g
   id="g120">
	<rect
   id="rect122"
   height="67.5"
   width="95.6"
   fill="#4E4E4E"
   y="876"
   x="1566" />
	<rect
   id="rect124"
   height="32.5"
   width="42.3"
   fill="#989999"
   y="893.5"
   x="1592.7" />
</g>
<g
   id="g126">
	<rect
   id="rect128"
   height="67.5"
   width="95.6"
   fill="#4E4E4E"
   y="809.1"
   x="1566" />
	<rect
   id="rect130"
   height="32.5"
   width="42.3"
   fill="#989999"
   y="826.6"
   x="1592.7" />
</g>
<g
   id="g132">
	<rect
   id="rect134"
   height="67.5"
   width="95.6"
   fill="#414142"
   y="1010.6"
   x="1470.5" />
	<rect
   id="rect136"
   height="32.5"
   width="42.3"
   fill="#808081"
   y="1028.1"
   x="1497.1" />
</g>
<g
   id="g138">
	<rect
   id="rect140"
   height="67.5"
   width="95.6"
   fill="#4E4E4E"
   y="1010.6"
   x="1566" />
	<rect
   id="rect142"
   height="32.5"
   width="42.3"
   fill="#989999"
   y="1028.1"
   x="1592.7" />
</g>
<g
   id="g144">
	<rect
   id="rect146"
   height="67.5"
   width="95.6"
   fill="#4E4E4E"
   y="876"
   x="1661.6" />
	<rect
   id="rect148"
   height="32.5"
   width="42.3"
   fill="#989999"
   y="893.5"
   x="1688.3" />
</g>
<g
   id="g150">
	<rect
   id="rect152"
   height="67.5"
   width="95.6"
   fill="#636363"
   y="1010.6"
   x="1661.6" />
	<rect
   id="rect154"
   height="32.5"
   width="42.3"
   fill="#A5A4A3"
   y="1028.1"
   x="1688.3" />
</g>
<g
   id="g156">
	<rect
   id="rect158"
   height="67.5"
   width="95.6"
   fill="#636363"
   y="809.1"
   x="1661.6" />
	<rect
   id="rect160"
   height="32.5"
   width="42.3"
   fill="#A5A4A3"
   y="826.6"
   x="1688.3" />
</g>
<g
   id="g162">
	<rect
   id="rect164"
   height="67.5"
   width="95.6"
   fill="#414142"
   y="943.5"
   x="1661.6" />
	<rect
   id="rect166"
   height="32.5"
   width="42.3"
   fill="#808081"
   y="961.1"
   x="1688.3" />
</g>
<g
   id="g168">
	<rect
   id="rect170"
   height="67.5"
   width="95.6"
   fill="#5A5959"
   y="943.5"
   x="1566" />
	<rect
   id="rect172"
   height="32.5"
   width="42.3"
   fill="#9E9E9E"
   y="961.1"
   x="1592.7" />
</g>
<g
   id="g174">
	<rect
   id="rect176"
   height="67.5"
   width="95.6"
   fill="#636363"
   y="943.5"
   x="1470.5" />
	<rect
   id="rect178"
   height="32.5"
   width="42.3"
   fill="#A5A4A3"
   y="961.1"
   x="1497.1" />
</g>
<g
   id="g180">
	<path
   id="path182"
   d="M1328.5,1042v30.2c0,4.3-3.5,7.8-7.8,7.8h-236.2c-1.2,0-2.4-0.3-3.4-0.8h0c-2.6-1.3-4.4-3.9-4.4-7V1042   c0-4.3,3.5-7.8,7.8-7.8h236.2c1.2,0,2.4,0.3,3.4,0.8C1326.7,1036.3,1328.5,1038.9,1328.5,1042z"
   fill="#F3912B" />
	<path
   id="path184"
   d="M1328.5,1042v30.2c0,4.3-3.5,7.8-7.8,7.8h-236.2l-3.4-0.8l49.1-8.9h0l14.9-2.7l12.3-2.2l25.3-4.6l5.8-1.1   l27.9-5.1l5.8-1.1l25.3-4.6l12.3-2.2l15-2.7l49.1-8.9C1326.7,1036.3,1328.5,1038.9,1328.5,1042z"
   fill="#E6831C" />
	<g
   id="g186">
		<circle
   id="circle188"
   r="14.2"
   cy="1057.1"
   cx="1102.1"
   fill="#9F5C16" />
		<circle
   id="circle190"
   r="14.2"
   cy="1057.1"
   cx="1135.6"
   fill="#9F5C16" />
		<circle
   id="circle192"
   r="14.2"
   cy="1057.1"
   cx="1169.1"
   fill="#9F5C16" />
		<circle
   id="circle194"
   r="14.2"
   cy="1057.1"
   cx="1202.6"
   fill="#9F5C16" />
		<circle
   id="circle196"
   r="14.2"
   cy="1057.1"
   cx="1236.1"
   fill="#9F5C16" />
		<circle
   id="circle198"
   r="14.2"
   cy="1057.1"
   cx="1269.6"
   fill="#9F5C16" />
		<circle
   id="circle200"
   r="14.2"
   cy="1057.1"
   cx="1303.2"
   fill="#9F5C16" />
	</g>
</g>
<g
   id="g202">
	<g
   id="g204">
		<g
   id="g206">
			<path
   id="path208"
   d="M1494.9,863.6h1.4c3.5,0,6.8-1.4,9.2-4c2.7-2.8,3.9-6.7,3.4-10.5c-0.5-3.9-2.8-7.2-6.1-9.2l-3.5-2.1     v-11.6c0-1.3-1.1-2.4-2.4-2.4c-1.3,0-2.4,1.1-2.4,2.4v14.3l5.8,3.5c2.1,1.3,3.5,3.4,3.8,5.8c0.3,2.4-0.4,4.8-2.1,6.6     c-1.5,1.5-3.5,2.4-5.7,2.4h-1.4c-2.3,0-3.4-0.7-4.4-1.8c-1.4-1.5-2-3.5-1.7-5.6c0.2-1.3-0.7-2.5-2.1-2.7     c-1.3-0.2-2.5,0.7-2.7,2.1c-0.5,3.5,0.6,7,2.9,9.5C1489,862.5,1491.6,863.6,1494.9,863.6z"
   fill="#E84D0F" />
		</g>
		<g
   id="g210">
			<path
   id="path212"
   d="M1494.9,863.6h1.4c3.5,0,6.8-1.4,9.2-4c2.7-2.8,3.9-6.7,3.4-10.5c-0.5-3.9-2.8-7.2-6.1-9.2l-3.5-2.1     v-11.6c0-1.3-1.1-2.4-2.4-2.4c-1.3,0-2.4,1.1-2.4,2.4v14.3l5.8,3.5c2.1,1.3,3.5,3.4,3.8,5.8c0.3,2.4-0.4,4.8-2.1,6.6     c-1.5,1.5-3.5,2.4-5.7,2.4h-1.4c-2.3,0-3.4-0.7-4.4-1.8c-1.4-1.5-2-3.5-1.7-5.6c0.2-1.3-0.7-2.5-2.1-2.7     c-1.3-0.2-2.5,0.7-2.7,2.1c-0.5,3.5,0.6,7,2.9,9.5C1489,862.5,1491.6,863.6,1494.9,863.6z"
   fill="#024E48" />
		</g>
	</g>
	<path
   id="path214"
   d="M1503.8,828.1h-15c-4.9,0-8.8-4-8.8-8.8v-20.9c0-4.9,4-8.8,8.8-8.8h15c4.9,0,8.8,4,8.8,8.8v20.9   C1512.7,824.2,1508.7,828.1,1503.8,828.1z"
   fill="#E30613" />
</g>
<g
   id="g216">
	<g
   id="g218">
		<g
   id="g220">
			<path
   id="path222"
   d="M986.3,764.2h-1.4c-3.5,0-6.8-1.4-9.2-4c-2.7-2.8-3.9-6.7-3.4-10.5c0.5-3.9,2.8-7.2,6.1-9.2l3.5-2.1     v-11.6c0-1.3,1.1-2.4,2.4-2.4c1.3,0,2.4,1.1,2.4,2.4v14.3l-5.8,3.5c-2.1,1.3-3.5,3.4-3.8,5.8c-0.3,2.4,0.4,4.8,2.1,6.6     c1.5,1.6,3.5,2.4,5.7,2.4h1.4c2.3,0,3.4-0.7,4.4-1.8c1.4-1.5,2-3.5,1.7-5.6c-0.2-1.3,0.7-2.5,2.1-2.7c1.3-0.2,2.5,0.7,2.7,2.1     c0.5,3.5-0.6,7-2.9,9.5C992.2,763.1,989.7,764.2,986.3,764.2z"
   fill="#024E48" />
		</g>
		<path
   id="path224"
   d="M977.4,728.7h15c4.9,0,8.8-4,8.8-8.8V699c0-4.9-4-8.8-8.8-8.8h-15c-4.9,0-8.8,4-8.8,8.8v20.9    C968.6,724.8,972.5,728.7,977.4,728.7z"
   fill="#E30613" />
	</g>
	<g
   id="g226">
		<g
   id="g228">
			
				<rect
   id="rect230"
   height="77.8"
   width="4.4"
   fill="#024E48"
   transform="matrix(0.4589 0.8885 -0.8885 0.4589 1207.0459 -422.3635)"
   y="740.9"
   x="948.1" />
		</g>
		<g
   id="g232">
			
				<rect
   id="rect234"
   height="4.4"
   width="77.8"
   fill="#024E48"
   transform="matrix(0.8886 0.4586 -0.4586 0.8886 471.169 -380.6832)"
   y="777.7"
   x="980.5" />
		</g>
	</g>
	<g
   id="g236">
		<g
   id="g238">
			<path
   id="path240"
   d="M915.7,841c-12.5,0-22.7-10.2-22.7-22.7c0-12.5,10.2-22.7,22.7-22.7c12.5,0,22.7,10.2,22.7,22.7     C938.5,830.8,928.3,841,915.7,841z M915.7,801.4c-9.3,0-16.9,7.6-16.9,16.9c0,9.3,7.6,16.9,16.9,16.9c9.3,0,16.9-7.6,16.9-16.9     C932.6,808.9,925,801.4,915.7,801.4z"
   fill="#E30613" />
		</g>
		<g
   id="g242">
			<path
   id="path244"
   d="M1054,841c-12.5,0-22.7-10.2-22.7-22.7c0-12.5,10.2-22.7,22.7-22.7c12.5,0,22.7,10.2,22.7,22.7     C1076.8,830.8,1066.6,841,1054,841z M1054,801.4c-9.3,0-16.9,7.6-16.9,16.9c0,9.3,7.6,16.9,16.9,16.9c9.3,0,16.9-7.6,16.9-16.9     C1070.9,808.9,1063.4,801.4,1054,801.4z"
   fill="#E30613" />
		</g>
	</g>
</g>
<path
   id="path246"
   d="M566.3,950.1H350.7c-3.1,0-5.6-2.5-5.6-5.6V824c0-3.1,2.5-5.6,5.6-5.6h215.7c3.1,0,5.6,2.5,5.6,5.6v120.5  C571.9,947.6,569.4,950.1,566.3,950.1z"
   fill="#634E42" />
<g
   id="g248">
	<path
   id="path250"
   d="M367.6,933.1L367.6,933.1c3.5,0,6.3-2.8,6.3-6.3v-85.3c0-3.5-2.8-6.3-6.3-6.3l0,0c-3.5,0-6.3,2.8-6.3,6.3   v85.3C361.3,930.3,364.1,933.1,367.6,933.1z"
   fill="#CBBBA0" />
	<path
   id="path252"
   d="M390.3,933.1L390.3,933.1c3.5,0,6.3-2.8,6.3-6.3v-85.3c0-3.5-2.8-6.3-6.3-6.3l0,0c-3.5,0-6.3,2.8-6.3,6.3   v85.3C384,930.3,386.9,933.1,390.3,933.1z"
   fill="#CBBBA0" />
	<path
   id="path254"
   d="M413,933.1L413,933.1c3.5,0,6.3-2.8,6.3-6.3v-85.3c0-3.5-2.8-6.3-6.3-6.3l0,0c-3.5,0-6.3,2.8-6.3,6.3v85.3   C406.8,930.3,409.6,933.1,413,933.1z"
   fill="#CBBBA0" />
	<path
   id="path256"
   d="M435.8,933.1L435.8,933.1c3.5,0,6.3-2.8,6.3-6.3v-85.3c0-3.5-2.8-6.3-6.3-6.3l0,0c-3.5,0-6.3,2.8-6.3,6.3   v85.3C429.5,930.3,432.3,933.1,435.8,933.1z"
   fill="#CBBBA0" />
	<path
   id="path258"
   d="M458.5,933.1L458.5,933.1c3.5,0,6.3-2.8,6.3-6.3v-85.3c0-3.5-2.8-6.3-6.3-6.3l0,0c-3.5,0-6.3,2.8-6.3,6.3   v85.3C452.2,930.3,455,933.1,458.5,933.1z"
   fill="#CBBBA0" />
	<path
   id="path260"
   d="M481.2,933.1L481.2,933.1c3.5,0,6.3-2.8,6.3-6.3v-85.3c0-3.5-2.8-6.3-6.3-6.3l0,0c-3.5,0-6.3,2.8-6.3,6.3   v85.3C474.9,930.3,477.8,933.1,481.2,933.1z"
   fill="#CBBBA0" />
	<path
   id="path262"
   d="M503.9,933.1L503.9,933.1c3.5,0,6.3-2.8,6.3-6.3v-85.3c0-3.5-2.8-6.3-6.3-6.3l0,0c-3.5,0-6.3,2.8-6.3,6.3   v85.3C497.7,930.3,500.5,933.1,503.9,933.1z"
   fill="#CBBBA0" />
	<path
   id="path264"
   d="M526.7,933.1L526.7,933.1c3.5,0,6.3-2.8,6.3-6.3v-85.3c0-3.5-2.8-6.3-6.3-6.3l0,0c-3.5,0-6.3,2.8-6.3,6.3   v85.3C520.4,930.3,523.2,933.1,526.7,933.1z"
   fill="#CBBBA0" />
	<path
   id="path266"
   d="M549.4,933.1L549.4,933.1c3.5,0,6.3-2.8,6.3-6.3v-85.3c0-3.5-2.8-6.3-6.3-6.3l0,0c-3.5,0-6.3,2.8-6.3,6.3   v85.3C543.1,930.3,545.9,933.1,549.4,933.1z"
   fill="#CBBBA0" />
</g>
<g
   id="g268">
	<path
   id="path270"
   d="M566.3,1080H350.7c-3.1,0-5.6-2.5-5.6-5.6V953.9c0-3.1,2.5-5.6,5.6-5.6h215.7c3.1,0,5.6,2.5,5.6,5.6v120.5   C571.9,1077.5,569.4,1080,566.3,1080z"
   fill="#634E42" />
	<g
   id="g272">
		<path
   id="path274"
   d="M367.6,1063.1L367.6,1063.1c3.5,0,6.3-2.8,6.3-6.3v-85.3c0-3.5-2.8-6.3-6.3-6.3l0,0    c-3.5,0-6.3,2.8-6.3,6.3v85.3C361.3,1060.2,364.1,1063.1,367.6,1063.1z"
   fill="#CBBBA0" />
		<path
   id="path276"
   d="M390.3,1063.1L390.3,1063.1c3.5,0,6.3-2.8,6.3-6.3v-85.3c0-3.5-2.8-6.3-6.3-6.3l0,0    c-3.5,0-6.3,2.8-6.3,6.3v85.3C384,1060.2,386.9,1063.1,390.3,1063.1z"
   fill="#CBBBA0" />
		<path
   id="path278"
   d="M413,1063.1L413,1063.1c3.5,0,6.3-2.8,6.3-6.3v-85.3c0-3.5-2.8-6.3-6.3-6.3l0,0c-3.5,0-6.3,2.8-6.3,6.3    v85.3C406.8,1060.2,409.6,1063.1,413,1063.1z"
   fill="#CBBBA0" />
		<path
   id="path280"
   d="M435.8,1063.1L435.8,1063.1c3.5,0,6.3-2.8,6.3-6.3v-85.3c0-3.5-2.8-6.3-6.3-6.3l0,0    c-3.5,0-6.3,2.8-6.3,6.3v85.3C429.5,1060.2,432.3,1063.1,435.8,1063.1z"
   fill="#CBBBA0" />
		<path
   id="path282"
   d="M458.5,1063.1L458.5,1063.1c3.5,0,6.3-2.8,6.3-6.3v-85.3c0-3.5-2.8-6.3-6.3-6.3l0,0    c-3.5,0-6.3,2.8-6.3,6.3v85.3C452.2,1060.2,455,1063.1,458.5,1063.1z"
   fill="#CBBBA0" />
		<path
   id="path284"
   d="M481.2,1063.1L481.2,1063.1c3.5,0,6.3-2.8,6.3-6.3v-85.3c0-3.5-2.8-6.3-6.3-6.3l0,0    c-3.5,0-6.3,2.8-6.3,6.3v85.3C474.9,1060.2,477.8,1063.1,481.2,1063.1z"
   fill="#CBBBA0" />
		<path
   id="path286"
   d="M503.9,1063.1L503.9,1063.1c3.5,0,6.3-2.8,6.3-6.3v-85.3c0-3.5-2.8-6.3-6.3-6.3l0,0    c-3.5,0-6.3,2.8-6.3,6.3v85.3C497.7,1060.2,500.5,1063.1,503.9,1063.1z"
   fill="#CBBBA0" />
		<path
   id="path288"
   d="M526.7,1063.1L526.7,1063.1c3.5,0,6.3-2.8,6.3-6.3v-85.3c0-3.5-2.8-6.3-6.3-6.3l0,0    c-3.5,0-6.3,2.8-6.3,6.3v85.3C520.4,1060.2,523.2,1063.1,526.7,1063.1z"
   fill="#CBBBA0" />
		<path
   id="path290"
   d="M549.4,1063.1L549.4,1063.1c3.5,0,6.3-2.8,6.3-6.3v-85.3c0-3.5-2.8-6.3-6.3-6.3l0,0    c-3.5,0-6.3,2.8-6.3,6.3v85.3C543.1,1060.2,545.9,1063.1,549.4,1063.1z"
   fill="#CBBBA0" />
	</g>
</g>
<g
   id="g292">
	<g
   id="g294">
		<path
   id="path296"
   d="M1651.4,265.1h1.4c3.5,0,6.8,1.4,9.2,4c2.7,2.8,3.9,6.7,3.4,10.5c-0.5,3.9-2.8,7.2-6.1,9.2l-3.5,2.1v11.6    c0,1.3-1.1,2.4-2.4,2.4c-1.3,0-2.4-1.1-2.4-2.4v-14.3l5.8-3.5c2.1-1.3,3.5-3.4,3.8-5.8c0.3-2.4-0.4-4.8-2.1-6.6    c-1.5-1.6-3.5-2.4-5.7-2.4h-1.4c-2.3,0-3.4,0.7-4.4,1.8c-1.4,1.5-2,3.5-1.7,5.6c0.2,1.3-0.7,2.5-2.1,2.7c-1.3,0.2-2.5-0.7-2.7-2.1    c-0.5-3.5,0.6-7,2.9-9.5C1645.5,266.2,1648.1,265.1,1651.4,265.1z"
   fill="#024E48" />
	</g>
	<path
   id="path298"
   d="M1660.3,300.6h-15c-4.9,0-8.8,4-8.8,8.8v20.9c0,4.9,4,8.8,8.8,8.8h15c4.9,0,8.8-4,8.8-8.8v-20.9   C1669.2,304.5,1665.2,300.6,1660.3,300.6z"
   fill="#634E42" />
</g>
<g
   id="g300">
	<g
   id="g302">
		<polygon
   id="polygon304"
   points="1701,209.6 1703,213.5 1653.9,269.2 1651.9,265.3   "
   fill="#024E48" />
	</g>
	<g
   id="g306">
		<polygon
   id="polygon308"
   points="1604.7,209.6 1653.9,265.3 1651.9,269.2 1602.7,213.5   "
   fill="#024E48" />
	</g>
</g>
<path
   id="path310"
   d="M1652.2,226.3c-9.2,0-18.6-1-28-2.9l-0.1,0l-0.2,0  c-61-12.8-107.3-65.3-110.9-129.1c14,7.1,27.2,9.9,43.2-4c32.4,64.5,160.2,59.4,193.1,0.1c18.8,9.7,26.7,13.8,43.3,3.5  c-3.1,57.2-40.4,105.2-91.8,124C1685.1,223.4,1668.6,226.4,1652.2,226.3z"
   fill="#634E42"
   clip-rule="evenodd"
   fill-rule="evenodd" />
<path
   id="path312"
   d="M1652.2,226.3c-51.2-0.2-93.7-62.8-96-136.8  c17.6,13.9,38.1,13.5,54.4,0.9c22.5,21.8,61.5,22,84.2,0.4c17,13.6,37.5,15.3,54.4-0.5C1746.5,164.3,1703.5,226.5,1652.2,226.3z"
   fill="#028379"
   clip-rule="evenodd"
   fill-rule="evenodd" />
<path
   id="path314"
   d="M1652.2,226.3c-22.8-0.1-41.2-60.5-41.5-135.9  c27,15.7,61,15.7,84.2,0.4C1693.9,166.1,1675.1,226.4,1652.2,226.3z"
   fill="#FFFFFF"
   clip-rule="evenodd"
   fill-rule="evenodd" />
<g
   id="g316">
	<g
   id="g318">
		<path
   id="path320"
   d="M1382.3,452.9h0.9c2.1,0,4.2,0.9,5.6,2.4c1.6,1.7,2.4,4.1,2.1,6.4c-0.3,2.4-1.7,4.4-3.7,5.6l-2.1,1.3v7.1    c0,0.8-0.7,1.5-1.5,1.5c-0.8,0-1.5-0.7-1.5-1.5V467l3.6-2.1c1.3-0.8,2.1-2,2.3-3.5c0.2-1.5-0.3-2.9-1.3-4    c-0.9-0.9-2.2-1.5-3.5-1.5h-0.9c-1.4,0-2.1,0.4-2.7,1.1c-0.8,0.9-1.2,2.2-1,3.4c0.1,0.8-0.5,1.6-1.3,1.7c-0.8,0.1-1.5-0.5-1.7-1.3    c-0.3-2.2,0.4-4.3,1.8-5.8C1378.7,453.5,1380.3,452.9,1382.3,452.9z"
   fill="#024E48" />
	</g>
	<path
   id="path322"
   d="M1387.7,474.5h-9.2c-3,0-5.4,2.4-5.4,5.4v12.8c0,3,2.4,5.4,5.4,5.4h9.2c3,0,5.4-2.4,5.4-5.4v-12.8   C1393.1,476.9,1390.7,474.5,1387.7,474.5z"
   fill="#634E42" />
</g>
<g
   id="g324">
	<g
   id="g326">
		<polygon
   id="polygon328"
   points="1412.6,419 1413.8,421.4 1383.8,455.4 1382.6,453   "
   fill="#024E48" />
	</g>
	<g
   id="g330">
		<polygon
   id="polygon332"
   points="1353.8,419 1383.8,453 1382.6,455.4 1352.5,421.4   "
   fill="#024E48" />
	</g>
</g>
<path
   id="path334"
   d="M1382.8,429.2c-5.6,0-11.4-0.6-17.1-1.8l-0.1,0l-0.1,0  c-37.3-7.8-65.5-39.9-67.7-78.8c8.5,4.4,16.6,6,26.4-2.5c19.8,39.4,97.9,36.3,118,0.1c11.5,5.9,16.3,8.4,26.4,2.2  c-1.9,34.9-24.7,64.3-56.1,75.7C1402.9,427.4,1392.8,429.2,1382.8,429.2z"
   fill="#634E42"
   clip-rule="evenodd"
   fill-rule="evenodd" />
<path
   id="path336"
   d="M1382.8,429.2c-31.3-0.1-57.3-38.3-58.6-83.5  c10.7,8.5,23.3,8.3,33.2,0.6c13.8,13.3,37.6,13.4,51.4,0.2c10.4,8.3,22.9,9.3,33.3-0.3C1440.4,391.3,1414.1,429.3,1382.8,429.2z"
   fill="#028379"
   clip-rule="evenodd"
   fill-rule="evenodd" />
<path
   id="path338"
   d="M1382.8,429.2c-13.9-0.1-25.1-37-25.4-83  c16.5,9.6,37.2,9.6,51.4,0.2C1408.3,392.4,1396.8,429.2,1382.8,429.2z"
   fill="#FFFFFF"
   clip-rule="evenodd"
   fill-rule="evenodd" />
</svg>