<?xml version="1.0" encoding="UTF-8" standalone="no"?>
<svg
   xmlns:dc="http://purl.org/dc/elements/1.1/"
   xmlns:cc="http://creativecommons.org/ns#"
   xmlns:rdf="http://www.w3.org/1999/02/22-rdf-syntax-ns#"
   xmlns:svg="http://www.w3.org/2000/svg"
   xmlns="http://www.w3.org/2000/svg"
   xmlns:sodipodi="http://sodipodi.sourceforge.net/DTD/sodipodi-0.dtd"
   xmlns:inkscape="http://www.inkscape.org/namespaces/inkscape"
   version="1.1"
   id="svg5975"
   viewBox="0 0 31.999999 24.328786"
   height="6.8661242mm"
   width="9.0311108mm"
   inkscape:version="0.91 r13725"
   sodipodi:docname="vaquita32.svg">
  <sodipodi:namedview
     pagecolor="#ffffff"
     bordercolor="#666666"
     borderopacity="1"
     objecttolerance="10"
     gridtolerance="10"
     guidetolerance="10"
     inkscape:pageopacity="0"
     inkscape:pageshadow="2"
     inkscape:window-width="1920"
     inkscape:window-height="1027"
     id="namedview54"
     showgrid="false"
     fit-margin-top="0"
     fit-margin-left="0"
     fit-margin-right="0"
     fit-margin-bottom="0"
     inkscape:zoom="2.298658"
     inkscape:cx="67.520726"
     inkscape:cy="51.334298"
     inkscape:window-x="-8"
     inkscape:window-y="-8"
     inkscape:window-maximized="1"
     inkscape:current-layer="svg5975" />
  <defs
     id="defs5977" />
  <metadata
     id="metadata5980">
    <rdf:RDF>
      <cc:Work
         rdf:about="">
        <dc:format>image/svg+xml</dc:format>
        <dc:type
           rdf:resource="http://purl.org/dc/dcmitype/StillImage" />
        <dc:title></dc:title>
      </cc:Work>
    </rdf:RDF>
  </metadata>
  <g
     transform="matrix(0.23696424,0,0,0.23696424,-283.25198,-131.58947)"
     id="layer1">
    <g
       id="g368"
       transform="translate(573.57788,362.18223)">
      <g
         id="g370">
        <rect
           id="rect372"
           height="32"
           width="9.6999998"
           y="263.79999"
           x="707"
           style="fill:#e1e2e0" />
        <rect
           id="rect374"
           height="5.5"
           width="9.6999998"
           y="290.29999"
           x="707"
           style="fill:#35383a" />
      </g>
      <path
         id="path376"
         d="m 723.2,266.2 -16.2,0 -16.2,0 c 0,0 0.3,5.9 9.3,7.7 0,0 -0.3,3.9 1.8,3.9 2.1,0 1.4,-3.9 1.4,-3.9 0,0 2.1,0 3.7,0 1.7,0 3.7,0 3.7,0 0,0 -0.6,3.9 1.4,3.9 2.1,0 1.8,-3.9 1.8,-3.9 9.1,-1.7 9.3,-7.7 9.3,-7.7 z"
         style="fill:#f597b0"
         inkscape:connector-curvature="0" />
      <path
         id="path378"
         d="m 647.6,209.3 77.7,-2.3 c 0,0 14.5,0 14.5,30.4 0,30.4 -1.2,30.8 -7,30.8 -5.9,0 -64.5,0 -64.5,0 0,0 -19.1,2.5 -19.1,-14.9 -0.1,-17.5 -1.6,-44 -1.6,-44 z"
         style="fill:#e1e2e0"
         inkscape:connector-curvature="0" />
      <g
         id="g380">
        <g
           id="g382">
          <g
             id="g384">
            <g
               id="g386">
              <path
                 id="path388"
                 d="m 664,207.7 c 0,0 11.2,-2.3 15.4,0.8 4.2,3.2 -3.4,7.9 -6.7,8.7 -3.3,0.7 -4.9,0.5 -4.9,0.5 l -5.2,-6.3 1.4,-3.7 z"
                 style="fill:#e1e2e0"
                 inkscape:connector-curvature="0" />
              <path
                 id="path390"
                 d="m 680.5,210.2 c -0.1,-0.6 -0.5,-1.1 -1.2,-1.7 -4.2,-3.1 -15.6,-0.8 -15.6,-0.8 l -1.6,3.8 c 0.1,0 12.1,-4.3 18.4,-1.3 z"
                 style="fill:#35383a"
                 inkscape:connector-curvature="0" />
              <path
                 id="path392"
                 d="m 664.9,212.4 c 0,0 10.1,-2.9 12.1,-1.5 2,1.4 -5.4,5.4 -8.6,5.4 l -3.5,-3.9 z"
                 style="fill:#ffffff"
                 inkscape:connector-curvature="0" />
            </g>
            <g
               id="g394">
              <path
                 id="path396"
                 d="m 638.7,203.8 c 0,0 -10,-5.5 -15,-3.8 -5,1.7 0.9,8.6 3.8,10.3 3,1.7 4.6,1.9 4.6,1.9 l 6.9,-4.5 -0.3,-3.9 z"
                 style="fill:#e1e2e0"
                 inkscape:connector-curvature="0" />
              <path
                 id="path398"
                 d="m 622.1,201.3 c 0.3,-0.5 0.8,-0.9 1.6,-1.2 4.9,-1.8 15.1,3.8 15.1,3.8 l 0.5,4.1 c 0,0 -10.2,-7.7 -17.2,-6.7 z"
                 style="fill:#35383a"
                 inkscape:connector-curvature="0" />
              <path
                 id="path400"
                 d="m 636.3,208.1 c 0,0 -8.8,-5.7 -11.1,-5 -2.3,0.7 3.5,6.8 6.6,7.7 l 4.5,-2.7 z"
                 style="fill:#ffffff"
                 inkscape:connector-curvature="0" />
            </g>
          </g>
          <g
             id="g402">
            <path
               id="path404"
               d="m 658.7,205.4 c 0,0 2.8,-3.3 2.6,-6.4 0,0 0.1,-2.1 1.9,-2.3 1.8,-0.2 3.9,2 2,6.6 -1.9,4.7 -2.9,4.9 -2.9,4.9 l -3.6,-2.8 z"
               style="fill:#e1e2e0"
               inkscape:connector-curvature="0" />
            <path
               id="path406"
               d="m 645.1,203 c 0,0 -1.7,-4 -0.6,-6.9 0,0 0.5,-2.1 -1.1,-2.8 -1.7,-0.7 -4.3,0.7 -3.8,5.7 0.4,5 1.3,5.6 1.3,5.6 l 4.2,-1.6 z"
               style="fill:#e1e2e0"
               inkscape:connector-curvature="0" />
          </g>
        </g>
        <g
           id="g408">
          <path
             id="path410"
             d="m 664.5,237.7 c 2,-3.2 3.5,-7 4.1,-11.3 2,-13.4 -5,-25.7 -15.7,-27.3 -10.7,-1.6 -21.1,7.9 -23.1,21.4 -0.6,4.2 -0.4,8.3 0.6,12 l 34.1,5.2 z"
             style="fill:#e1e2e0"
             inkscape:connector-curvature="0" />
          <path
             id="path412"
             d="m 650.9,199 c -7,-0.1 -13.7,4.4 -17.7,11.5 1.2,1.5 5.8,2.5 8.4,0.9 2.9,-1.7 8.2,0.7 9.7,-1.6 1.6,-2.3 -0.4,-10.8 -0.4,-10.8 z"
             style="fill:#35383a"
             inkscape:connector-curvature="0" />
          <path
             id="path414"
             d="m 668.6,226.4 c 0.5,-3 0.5,-5.9 0.1,-8.7 0,0 -2.7,-0.4 -3.9,2.9 -0.8,2.1 -0.8,5 -1.9,7.5 -1.8,4 1.2,5 2.8,7.3 1.5,-2.7 2.5,-5.7 2.9,-9 z"
             style="fill:#35383a"
             inkscape:connector-curvature="0" />
          <g
             id="g416">
            <circle
               id="circle418"
               r="3.0999999"
               cy="220.39999"
               cx="641.5"
               style="fill:#ffffff" />
            <path
               id="path420"
               d="m 643.7,220.8 c -0.2,1.2 -1.3,2 -2.5,1.8 -1.2,-0.2 -2,-1.3 -1.8,-2.5 0.2,-1.2 1.3,-2 2.5,-1.8 1.2,0.2 2,1.3 1.8,2.5 z"
               inkscape:connector-curvature="0" />
            <circle
               id="circle422"
               r="1.1"
               cy="219.60001"
               cx="643.09998"
               style="fill:#ffffff" />
          </g>
          <g
             id="g424">
            <circle
               id="circle426"
               r="3.0999999"
               cy="222.8"
               cx="656.90002"
               style="fill:#ffffff" />
            <circle
               id="circle428"
               r="2.2"
               cy="222.8"
               cx="656.90002" />
            <circle
               id="circle430"
               r="1.1"
               cy="221.89999"
               cx="658.40002"
               style="fill:#ffffff" />
          </g>
          <path
             id="path432"
             d="m 629.6,222.9 c 0,0.3 0,0.6 -0.1,0.8 0,0.3 0,0.6 0,1 0,0.2 0,0.4 0,0.6 0,0.4 0,0.7 0,1.1 0,0.1 0,0.3 0,0.4 0,0.4 0.1,0.8 0.1,1.2 0,0.1 0,0.2 0,0.2 0,0.4 0.1,0.9 0.2,1.3 0,0 0,0.1 0,0.1 0.1,0.5 0.2,0.9 0.2,1.4 0,0 0,0 0,0 0.1,0.5 0.2,0.9 0.3,1.4 l 0,0 4.6,0.7 c 2.7,-0.8 4.9,-1.7 4.3,-2.5 -1.5,-2 -1.6,-2.5 -1.1,-4 0.5,-1.5 0.8,-4.3 -1.2,-5.6 -2,-1.3 -6.5,-3.2 -6.6,-3.2 0,0 0,0 0,0.1 -0.2,0.9 -0.4,1.7 -0.5,2.6 -0.1,0.5 -0.1,1.1 -0.2,1.6 0,0.3 0,0.5 0,0.8 z"
             style="fill:#35383a"
             inkscape:connector-curvature="0" />
          <g
             id="g434">
            <ellipse
               id="ellipse436"
               ry="9.5"
               rx="17.799999"
               cy="237.3"
               cx="647.20001"
               transform="matrix(0.9886,0.1503,-0.1503,0.9886,43.0328,-94.5919)"
               style="fill:#f490a7" />
            <ellipse
               id="ellipse438"
               ry="1.5"
               rx="1.6"
               cy="238.39999"
               cx="653"
               transform="matrix(0.9886,0.1506,-0.1506,0.9886,43.3532,-95.6188)"
               style="fill:#be6175" />
            <path
               id="path440"
               d="m 643.3,237 c -0.1,0.8 -0.9,1.4 -1.8,1.3 -0.9,-0.1 -1.4,-0.9 -1.3,-1.7 0.1,-0.8 0.9,-1.4 1.8,-1.3 0.8,0.1 1.4,0.8 1.3,1.7 z"
               style="fill:#be6175"
               inkscape:connector-curvature="0" />
          </g>
        </g>
      </g>
      <g
         id="g442">
        <rect
           id="rect444"
           height="32"
           width="9.6999998"
           y="263.79999"
           x="663.20001"
           style="fill:#e1e2e0" />
        <rect
           id="rect446"
           height="5.5"
           width="9.6999998"
           y="290.29999"
           x="663.20001"
           style="fill:#35383a" />
      </g>
      <g
         id="g448">
        <rect
           id="rect450"
           height="32"
           width="9.6999998"
           y="263.79999"
           x="680.70001"
           style="fill:#e1e2e0" />
        <rect
           id="rect452"
           height="5.5"
           width="9.6999998"
           y="290.29999"
           x="680.70001"
           style="fill:#35383a" />
      </g>
      <g
         id="g454">
        <rect
           id="rect456"
           height="32"
           width="9.6999998"
           y="263.79999"
           x="724.5"
           style="fill:#e1e2e0" />
        <rect
           id="rect458"
           height="5.5"
           width="9.6999998"
           y="290.29999"
           x="724.5"
           style="fill:#35383a" />
      </g>
      <path
         id="path460"
         d="M 739.8,235.2 C 739.8,207 725.3,207 725.3,207 l -29.6,0.8 c 0,0 0.2,8.1 17.2,15.7 16.5,7.4 2.5,21.7 26.7,25.9 0.1,-3.7 0.2,-8.4 0.2,-14.2 z"
         style="fill:#35383a"
         inkscape:connector-curvature="0" />
      <path
         id="path462"
         d="m 736.1,215.6 c 0,0 5.9,4.9 7.4,17.5 1.8,14.8 7.3,20.1 7.3,20.1 0,0 2.4,-0.4 3.3,1.8 1.3,3.3 2.7,4.6 2.7,4.6 0,0 -8.3,1.2 -7.4,-5.4 0,0 -4,-4.5 -5.9,-11.3 -1.9,-6.8 -2.5,-13.7 -5.8,-16.4 l -3.5,-7.7 1.9,-3.2 z"
         style="fill:#35383a"
         inkscape:connector-curvature="0" />
    </g>
  </g>
</svg>
