<svg xmlns="http://www.w3.org/2000/svg" width="100%" viewBox="0 0 253.7 250">
  <g>
    <g transform="matrix(1.25,0,0,-1.25,-220.46697,921.5526)">
      <g
         transform="translate(355.04832,624.3051)"
         id="g4390">
        <path
           style="fill:#ffffff;fill-opacity:1;fill-rule:nonzero;stroke:none"
           d="m 0,0 -157.898,23.308 30.529,-100.251 79.443,-9.051 L 0,0 Z" />
      </g>
      <g
         transform="translate(355.04832,624.3051)"
         id="g4394">
        <path
           style="fill:none;stroke:#53281c;stroke-width:2;stroke-linecap:butt;stroke-linejoin:miter;stroke-miterlimit:10;stroke-dasharray:none;stroke-opacity:1"
           d="m 0,0 -157.898,23.308 30.529,-100.251 79.443,-9.051 L 0,0 Z" />
      </g>
      <g
         id="g4398">
        <g
           clip-path="url(#clipPath4402)"
           id="g4400"
           transform="translate(-97.610882,373.329)">
          <g
             transform="translate(294.2768,252.8765)"
             id="g4406">
            <path
               style="fill:#fedf80;fill-opacity:1;fill-rule:nonzero;stroke:none"
               d="m 0,0 c 0.638,-0.387 1.284,-0.764 1.943,-1.121 0.636,-0.336 1.281,-0.658 1.931,-0.966 4.05,-1.914 8.462,-3.235 13.162,-3.771 12.438,-1.417 24.203,2.776 32.846,10.525 9.994,-8.314 22.698,-14.03 36.977,-15.657 9.53,-1.086 18.779,-0.22 27.341,2.191 6.077,-7.995 15.26,-13.613 26.025,-14.839 3.132,-0.357 6.201,-0.279 9.193,0.104 0.678,0.085 1.36,0.16 2.032,0.281 0.704,0.128 1.396,0.309 2.087,0.478 15.098,3.675 27.036,16.373 28.898,32.709 1.927,16.917 -7.532,32.495 -22.28,39.112 -0.183,30.8 -25.457,57.615 -59.45,61.488 -29.063,3.312 -55.658,-11.18 -67.221,-34.171 -2.233,0.646 -4.531,1.153 -6.918,1.425 C 3.466,80.42 -17.387,63.826 -20.018,40.735 -21.938,23.882 -13.604,8.26 0,0" />
          </g>
          <g
             transform="translate(449.9123,248.516)"
             id="g4410">
            <path
               style="fill:#ffd100;fill-opacity:1;fill-rule:nonzero;stroke:none"
               d="m 0,0 c -0.692,-0.17 -1.383,-0.351 -2.088,-0.478 -0.672,-0.121 -1.354,-0.197 -2.031,-0.281 -2.992,-0.383 -6.062,-0.462 -9.193,-0.105 -10.765,1.227 -19.948,6.845 -26.025,14.84 -8.563,-2.411 -17.811,-3.277 -27.342,-2.192 -14.279,1.627 -26.982,7.343 -36.976,15.657 -8.644,-7.748 -20.408,-11.941 -32.847,-10.524 -4.7,0.535 -9.111,1.857 -13.162,3.77 -0.649,0.308 -1.294,0.631 -1.931,0.967 -0.659,0.356 -1.305,0.733 -1.942,1.121 -11.042,6.705 -18.613,18.261 -20.046,31.389 -1,-2.881 -1.711,-5.911 -2.071,-9.068 -1.92,-16.853 6.415,-32.475 20.019,-40.735 0.637,-0.388 1.283,-0.765 1.942,-1.121 0.637,-0.336 1.282,-0.659 1.931,-0.966 4.051,-1.914 8.462,-3.236 13.162,-3.771 12.439,-1.418 24.203,2.776 32.847,10.524 9.994,-8.314 22.697,-14.03 36.976,-15.657 9.531,-1.085 18.779,-0.219 27.342,2.192 6.077,-7.995 15.26,-13.613 26.025,-14.84 3.131,-0.357 6.201,-0.278 9.193,0.105 0.677,0.084 1.359,0.16 2.031,0.281 0.705,0.127 1.396,0.308 2.088,0.478 15.097,3.674 27.036,16.372 28.897,32.709 0.363,3.18 0.323,6.314 -0.078,9.349 C 22.276,11.783 12.166,2.96 0,0" />
          </g>
          <g
             transform="translate(387.1959,198.9714)"
             id="g4414">
            <path
               style="fill:#ffe9a8;fill-opacity:1;fill-rule:nonzero;stroke:none"
               d="m 0,0 c -0.595,-5.222 3.16,-9.948 8.386,-10.544 5.226,-0.595 9.941,3.166 10.536,8.388 0.595,5.223 -3.154,9.938 -8.38,10.534 C 5.316,8.973 0.595,5.223 0,0" />
          </g>
          <g
             transform="translate(349.7319,203.2399)"
             id="g4418">
            <path
               style="fill:#ffe9a8;fill-opacity:1;fill-rule:nonzero;stroke:none"
               d="m 0,0 c -0.595,-5.222 -5.318,-8.982 -10.54,-8.387 -5.227,0.595 -8.977,5.321 -8.382,10.543 0.595,5.222 5.311,8.974 10.538,8.378 C -3.162,9.939 0.595,5.223 0,0" />
          </g>
          <g
             transform="translate(397.117,207.42)"
             id="g4422">
            <path
               style="fill:#53281c;fill-opacity:1;fill-rule:nonzero;stroke:none"
               d="m 0,0 c -0.374,-3.283 -3.341,-5.649 -6.632,-5.274 -3.288,0.375 -5.651,3.348 -5.277,6.631 0.375,3.293 3.346,5.649 6.633,5.274 C -1.985,6.256 0.375,3.293 0,0" />
          </g>
          <g
             transform="translate(341.9656,213.7037)"
             id="g4426">
            <path
               style="fill:#53281c;fill-opacity:1;fill-rule:nonzero;stroke:none"
               d="m 0,0 c -0.374,-3.283 1.993,-6.256 5.273,-6.63 3.29,-0.375 6.261,1.99 6.635,5.273 C 12.284,1.936 9.92,4.9 6.629,5.275 3.349,5.648 0.375,3.293 0,0" />
          </g>
          <g
             transform="translate(373.9426,189.5922)"
             id="g4430">
            <path
               style="fill:#53281c;fill-opacity:1;fill-rule:nonzero;stroke:none"
               d="m 0,0 c -0.571,-5.011 -4.044,-8.75 -7.743,-8.328 -1.809,0.206 -3.396,1.359 -4.465,3.25 -1.045,1.852 -1.473,4.196 -1.199,6.606 0.022,0.193 0.193,0.329 0.381,0.308 L -0.303,0.386 C -0.109,0.364 0.022,0.194 0,0" />
          </g>
          <g
             transform="translate(371.2033,186.2046)"
             id="g4434">
            <path
               style="fill:#ffffff;fill-opacity:1;fill-rule:nonzero;stroke:none"
               d="m 0,0 c -0.276,-2.423 -2.464,-4.171 -4.885,-3.895 -2.408,0.274 -4.144,2.469 -3.868,4.892 L 0,0 Z" />
          </g>
        </g>
      </g>
    </g>
  </g>
</svg>
