<svg xmlns="http://www.w3.org/2000/svg" xmlns:xlink="http://www.w3.org/1999/xlink" x="0px" y="0px" width="1190.551px"
	 height="800px" viewBox="0 0 1190.551 800" enable-background="new 0 0 1190.551 800">
<switch>
	<g>
		
			<pattern  x="1443" y="408" width="300" height="330" patternUnits="userSpaceOnUse" id="Nueva_muestra_de_motivo_18" viewBox="0 -330 300 330" overflow="hidden">
			<g>
				<polygon fill="none" points="0,-330 300,-330 300,0 0,0 				"/>
				<path fill="#FDFAF5" d="M268.449-212.531c1.37,2.297,3.143,5.364,2.766,8.176c-0.21,1.574-1.318,3.855-0.498,5.337
					c1.484,2.683,3.834,3.162,6.482,4.109c6.569,2.352,8.497,11.433,5.936,17.156c-0.041,0.09-0.087,0.17-0.137,0.245
					c0.973,3.54,2.711,5.126,6.461,6.924c2.108,1.011,4.544,2.404,5.4,4.755c0.759,2.087,1.099,4.023,0.548,6.234
					c-0.872,3.5-2.151,7.435,0.796,10.47c1.154,1.188,2.47,2.121,3.797,3.003v-27.666c-0.924-0.619-1.233-2.057,0-2.578v-12.58
					c-0.973-0.256-1.928-0.604-2.863-0.953c-1.035-0.388-3.37-1.076-2.67-2.655c0.758-1.708,2.385-0.642,3.562-0.119
					c0.651,0.289,1.313,0.557,1.972,0.833v-6.203c-9.698-7.023-21.571-11.367-32.94-16.56
					C267.582-213.897,268.053-213.197,268.449-212.531z"/>
				<path fill="#FDFAF5" d="M292.2-150.139c-2.654-5.962,4.235-13.907-3.276-17.569c-4.511-2.198-8.971-4.765-8.471-10.06
					c-0.072-0.243-0.082-0.526,0.006-0.846c1.062-3.862,1.469-7.557-1.258-10.91c-2.055-2.527-4.338-2.993-7.176-4.203
					c-2.939-1.253-4.781-4.683-4.251-7.792c0.813-4.766-0.134-8.175-3.29-12.013c-1.645-1.998-3.729-4.35-6.371-4.974
					c-0.834-0.197-6.341-0.138-3.957,2.127c0.992,0.943,2.051,1.443,3.348,1.816c0.416,0.119,0.639,0.378,0.713,0.674
					c2.068,1.32,3.814,3.159,3.668,5.839c-0.193,3.537-2.222,7.094-1.084,10.649c2.302,7.186,13.014,5.676,14.67,13.728
					c0.85,4.128-3.712,9.299,0.051,12.859c1.957,1.85,4.586,2.231,6.673,3.831c1.669,1.281,3.29,2.504,4.739,4.034
					c2.051,2.165,2.621,5.979,1.508,8.72c-1.378,3.387-4.035,6.036-1.291,9.391c0.621,0.513,1.297,0.991,1.998,1.455
					c1.906,1.073,3.869,2.093,5.49,3.51l0.07,0.072c2.56,1.867,4.6,4.123,4.774,7.67c0.091,1.836,0.139,3.797-0.305,5.6
					c-0.296,1.203-1.51,3.454-1.14,4.689c0.387,1.287,1.089,2.223,1.961,2.974v-23.904
					C297.074-144.859,293.798-146.551,292.2-150.139z"/>
				<path fill="#FDFAF5" d="M295.582-124.837c1.52-4.28,2.01-9.803-2.334-12.554c-2.481-1.574-4.914-2.943-6.97-4.949
					c-0.364,0.021-0.753-0.091-1.101-0.389c-7.176-6.143,5.423-13.305-1.412-19.188c-3.518-3.028-8.476-4.231-11.242-7.999
					c-1.773-2.416-1.555-5.625-0.787-8.352c1.504-5.331,0.129-8.24-4.927-10.473c-2.701-1.193-5.292-2.367-7.159-4.742
					c-1.923-2.447-2.111-5.845-1.627-8.786c0.771-4.672,2.36-7.414-2.146-10.417c-8.557,8.15-16.004,17.052-23.6,26.085
					c1.194,1.73,2.328,3.513,3.421,5.328c4.079-4.475,7.087-9.76,12.165-13.275c0.922-0.639,1.974,0.909,1.121,1.609
					c-4.783,3.935-7.695,9.523-11.932,13.97c1.559,2.721,3.021,5.514,4.431,8.343c2.194-2.178,5.076-3.911,7.538-5.728
					c2.645-1.952,5.259-3.947,7.944-5.841c1.04-0.733,2.39,0.603,1.379,1.5c-2.764,2.452-5.688,4.73-8.594,7.012
					c-2.295,1.802-4.562,3.961-7.12,5.393c1.517,3.13,2.971,6.295,4.408,9.45c4.825-2.739,10.082-5.067,15.311-6.82
					c1.199-0.403,1.862,1.564,0.736,2.083c-5.012,2.306-9.87,4.994-14.888,7.28c1.292,2.84,2.577,5.668,3.885,8.446
					c3.828-2.059,7.698-4.198,11.892-5.356c1.21-0.334,1.846,1.532,0.73,2.062c-3.869,1.839-7.611,3.89-11.411,5.853
					c1.011,2.137,2.03,4.268,3.054,6.396c4.918-1.646,10.595-1.336,15.622-2.68c1.154-0.309,1.686,1.391,0.683,1.93
					c-4.266,2.287-10.102,2.855-15.03,3.391c1.908,3.93,3.863,7.836,5.862,11.719c5.794-1.872,11.803-3.302,17.815-4.223
					c1.442-0.222,1.82,1.764,0.456,2.189c-5.594,1.742-11.356,2.85-16.955,4.588c1.105,2.113,2.23,4.216,3.375,6.309
					c3.521-0.798,7.11-1.387,10.677-1.926c1.403-0.213,1.778,1.723,0.444,2.133c-3.18,0.975-6.475,1.579-9.732,2.27
					c0.805,1.443,1.604,2.889,2.434,4.318c9.455-0.754,18.661-3.076,28.002-4.548v-2.052
					C296.609-117.551,293.925-120.174,295.582-124.837z"/>
				<path fill="#FDFAF5" d="M242.502,0h19.289c-6.345-2.86-12.628-5.82-18.784-8.919C241.73-5.59,240.999-2.81,242.502,0z"/>
				<path fill="#FDFAF5" d="M300-328.069c-1.769-0.641-3.543-1.284-5.322-1.931h-23.753c9.646,4.417,19.245,8.975,29.075,12.805
					V-328.069z"/>
				<path fill="#FDFAF5" d="M298.518-26.693c-3.16-2.244-6.689-1.149-8.889,1.758c-2.983,3.944-4.969,9.416-9.941,11.271
					c-4.084,1.523-9.209-0.881-10.6-4.941c-1.452-4.246,2.087-10.152-0.121-13.915c-2.981-5.086-9.768,3.642-12.221,5.229
					c-2.158,1.398-4.295,1.658-6.065,0.668c-0.533,1.473-1.064,2.752-1.597,3.939C265.922-14.938,282.627-7.494,300-1.072v-23.386
					C299.708-25.367,299.256-26.168,298.518-26.693z"/>
				<path fill="#FDFAF5" d="M261.125-59.176c-6.141,3.528-7.977,10.708-10.618,16.809c-0.581,1.674-1.08,3.363-1.233,5.102
					c-0.156,1.73,0.892,9.979,4.48,8.357c3.855-1.74,6.072-6.391,10.229-7.596c3.322-0.964,7.032,0.355,8.088,3.855
					c1.184,3.928-0.969,7.997-0.346,11.951c0.511,3.254,4.268,5.6,7.45,3.964c2.388-1.225,3.816-3.661,5.183-5.868
					c2.076-3.354,4.871-8.258,9.418-8.412c2.315-0.078,4.508,0.441,6.225,1.614v-20.357c-7.06-3.055-14.111-6.173-21.355-8.534
					C273.438-59.987,266.307-62.15,261.125-59.176z"/>
				<path fill="#FDFAF5" d="M244.355-12.346c-0.156,0.408-0.314,0.808-0.469,1.2C253.092-8.02,262.029-4.072,270.925,0h23.753
					c-15.903-5.781-32.109-11.896-46.602-20.531C246.862-18.017,245.636-15.672,244.355-12.346z"/>
				<path fill="#FDFAF5" d="M83.1-115.865c3.976,3.438,10.005,4.644,15.044,3.439c5.323-1.273,7.889-4.062,8.56-8.189
					C100.332-115.105,91.363-115.079,83.1-115.865z"/>
				<path fill="#FDFAF5" d="M203.59-299.31c-8.496,4.179-18.68,9.353-15.158,19.937C196.012-283.319,205.605-289.774,203.59-299.31z
					"/>
				<path fill="#FDFAF5" d="M179.1-286.08c-0.404-6.591,3.846-10.861,8.771-14.292c0.368,0.144,0.805,0.13,1.262-0.137
					c6.752-3.966,13.207-8.425,20.088-12.168c6.266-3.411,13.439-6.261,20.592-4.15c8.523,2.515,13.764,12.097,17.68,19.365
					c1.304,2.42,2.628,5.262,1.814,8.043c-0.137,0.465-0.363,0.903-0.621,1.331c-1.163-1.673-2.164-3.535-2.871-5.398
					c-0.454-1.198-2.41-0.425-2.09,0.782c0.656,2.462,1.693,4.705,3.143,6.763c-1.264,1.158-2.747,2.148-3.919,2.983
					c-7.925,5.646-15.911,11.364-24.06,16.682c-7.873,5.14-17.892,10.586-27.062,5.357C183.865-265.456,179.627-277.47,179.1-286.08
					z M228.123-309.536c5.714,1.651,8.402,6.723,11.368,11.376c0.892,1.4,2.963,0.299,2.271-1.22
					c-2.495-5.467-6.856-11.026-13.059-12.085C227.461-311.677,226.838-309.907,228.123-309.536z M222.848-285.172
					c0.35,0.33,0.75,0.603,1.168,0.847c-0.34,0.955-0.637,1.914-0.822,2.877c-0.264,1.366,1.584,2.436,2.361,1.055
					c0.521-0.928,0.939-1.937,1.311-2.974c1.248,0.164,2.527,0.052,3.658-0.375c2.89-1.093,3.979-4.89,2.294-7.456
					c-0.64-0.974-1.684-1.622-2.862-1.953c0.281-1.072,0.53-2.149,0.676-3.242c0.18-1.362-1.742-1.447-2.195-0.364
					c-0.467,1.11-0.863,2.252-1.244,3.402c-1.262,0.157-2.461,0.649-3.311,1.487l-0.1,0.043
					C221.466-290.187,220.596-287.3,222.848-285.172z M187.436-276.696c0.308,0.359,0.771,0.552,1.326,0.359
					c9.497-3.321,21.803-14.073,16.898-25.179c-0.175-0.397-0.499-0.598-0.855-0.652c-0.406-0.363-0.994-0.527-1.626-0.23
					c-9.544,4.479-24.235,13.017-16.072,25.365C187.203-276.886,187.314-276.776,187.436-276.696z"/>
				<path fill="#FDFAF5" d="M224.829-287.064l0.19,0.114c0.246-0.631,0.488-1.262,0.702-1.885c0.137-0.403,0.267-0.81,0.399-1.217
					c-0.514,0.211-0.974,0.474-1.318,0.747c-0.168,0.133-0.339,0.201-0.51,0.242C223.977-288.326,224.002-287.62,224.829-287.064z"
					/>
				<path fill="#FDFAF5" d="M62.026-173.341c-6.935-1.079-10.335-11.995-12.947-17.409c-0.753-1.557-3.073-0.314-2.363,1.242
					c1.563,3.426,4.308,10.583,8.184,14.933c-3.774,1.546-8.673-2.236-11.296-4.654c-3.31-3.054-5.709-7.008-7.865-10.916
					c-3.986-7.226-6.697-15.068-10.515-22.377c-3.327-6.374-7.146-12.49-9.599-19.285c-1.189-3.292-1.955-6.75-1.759-10.259
					c0.179-3.198,1.763-5.375,3.747-7.468c0.932,3.313,2.79,6.511,4.652,9.248c0.85,1.25,2.631,0.323,2.072-1.089
					c-1.498-3.789-3.557-7.279-4.936-11.13c-0.025-0.107-0.062-0.215-0.118-0.325c-0.338-0.655-0.554-1.37-0.597-2.083
					c0.053-0.113,0.092-0.239,0.108-0.384c0.368-3.321,5.684,2.142,6.225,2.755c2.944,3.334,4.947,7.911,6.911,11.859
					c3.854,7.741,7.262,15.698,11.119,23.443c3.963,7.954,8.086,15.828,12.123,23.743c1.879,3.686,3.73,7.387,5.553,11.103
					C61.599-180.62,65.939-173.404,62.026-173.341z M44.751-200.792c-6.804-10.092-10.962-21.403-15.849-32.464
					c-0.443-1.004-2.166-0.387-1.824,0.665c3.744,11.484,8.68,22.932,15.43,32.979C43.41-198.271,45.663-199.438,44.751-200.792z"/>
				<path fill="#FDFAF5" d="M230.496-289.333c-0.304-0.571-0.789-0.897-1.352-1.055c-0.256,0.788-0.518,1.573-0.777,2.352
					c-0.207,0.625-0.404,1.268-0.605,1.918c0.416,0.011,0.829-0.025,1.227-0.128C230.176-286.556,231.26-287.907,230.496-289.333z"
					/>
				<path fill="#FDFAF5" d="M43.566-252.579c5.395,10.418,10.94,20.74,16.428,31.105c4.779,9.029,9.449,18.383,15.324,26.766
					c1.688,2.41,3.518,4.824,5.651,6.861c0.868,0.83,2.005,2.083,3.238,2.391c1.247,0.312,1.149-2.597,1.067-3.991
					c-2.565-2.465-4.7-5.39-6.759-8.277c-0.697-0.98,0.543-2.267,1.409-1.32c2.247,2.456,4.408,4.971,6.709,7.375
					c3.967-2.997,7.644-5.899,7.675-11.364c0.026-4.61-1.591-9.061-3.614-13.149C86.91-223.83,81.688-230.568,77.549-238
					c-5.425-9.744-16.385-36.11-31.246-28.432c-0.305,8.326,4.285,16.983,8.049,24.042c4.003,7.51,9.398,14.359,13.232,21.901
					c0.676,1.333-1.156,2.712-2.174,1.546c-2.852-3.274-5.045-7.413-7.291-11.112c-2.803-4.615-5.518-9.3-7.885-14.155
					c-3.17-6.503-7.637-15.076-6.235-22.641c-1.642-0.976-6.471-3.924-6.285-0.662c0.087,1.525,0.481,3.036,0.981,4.475
					C39.967-259.371,41.787-256.016,43.566-252.579z"/>
				<path fill="#FDFAF5" d="M27.01-254.406c7.984,9.852,12.172,22.996,17.783,34.245c6.34,12.712,13.09,25.22,19.259,38.015
					c0.526,1.091,1.041,2.316,1.446,3.554c0.15-0.057,0.313-0.094,0.5-0.098c5.533-0.105,10.094-2.238,12.934-7.003
					c-0.676-0.683-1.301-1.39-1.858-2.039c-8.563-9.96-14.364-22.378-20.431-33.92c-4.094-7.788-8.352-15.471-12.324-23.325
					c-2.747-5.431-5.979-10.799-7.92-16.598c-0.12-0.358-0.265-0.78-0.414-1.237c-4.395-0.353-9.48,1.31-10.146,6.27
					c-0.035,0.269-0.137,0.488-0.271,0.668C26.15-255.358,26.648-254.85,27.01-254.406z"/>
				<path fill="#FDFAF5" d="M159.33-14.773c0.008,0.203,0.031,0.403,0.034,0.607c0.003,0.173-0.03,0.325-0.08,0.464
					c-0.015,0.315-0.153,0.624-0.474,0.856c-2.002,1.455-4.199,2.666-6.354,3.899c1.175,1.403,2.501,2.689,3.549,4.197
					c2.481-1.348,5.149-2.341,7.464-3.976c0.209-0.147,0.418-0.226,0.623-0.271C163.266-11.695,161.732-13.63,159.33-14.773z"/>
				<path fill="#FDFAF5" d="M80.547-74.186c5.187,4.004,12.226,7.625,12.617,0.975l0.016-0.097
					C89.021-72.914,84.672-73.191,80.547-74.186z"/>
				<path fill="#FDFAF5" d="M107.107-27.318c-1.904,0.25-2.383-2.564-0.495-2.939c10.372-2.057,20.78-2.814,30.151-7.925
					c-3.047-3.289-6.914-5.81-11.143-8.622c-4.168-2.771-8.25-5.756-10.871-9.836c-0.911,5.07-4.325,9.386-7.957,13.463
					c-0.996,1.117-1.922,2.217-2.777,3.311c1.565-0.066,3.187,0.066,4.691,0.12c2.34,0.084,4.686,0.175,7.006,0.491
					c1.225,0.168,1.415,2.221,0.074,2.271c-2.453,0.092-4.913,0.061-7.367,0.049c-2.043-0.01-4.233,0.246-6.252-0.055l-0.163-0.056
					c-3.262,5.092-4.417,10.313-1.366,16.937c12.691-5.157,30.219-5.784,41.135-9.728c-0.836-2.445-1.967-4.503-3.321-6.321
					C129.462-30.101,117.587-28.697,107.107-27.318z"/>
				<path fill="#FDFAF5" d="M261.109-240.606c-3.385-4.627-5.457-10.388-5.424-16.039c-1.896,3.077-0.527,7.486,1.401,10.718
					C257.925-244.524,259.369-242.33,261.109-240.606z"/>
				<path fill="#FDFAF5" d="M156.471-1.396l-0.195,0.104c-0.057,0.43-0.113,0.862-0.17,1.293h6.835
					c0.243-1.674,0.479-3.35,0.702-5.025C161.404-3.604,158.695-2.815,156.471-1.396z"/>
				<path fill="#FDFAF5" d="M259.172-257.908c3.989,5.742,7.754,11.668,10.041,18.279
					C272.627-244.268,265.65-256.648,259.172-257.908z"/>
				<path fill="#FDFAF5" d="M258.818-253.532c1.067,5.248,3.604,9.711,7.199,14.015C264.18-244.473,261.467-248.964,258.818-253.532
					z"/>
				<path fill="#FDFAF5" d="M239.373,0h-73.522c0.204-2.318,0.359-4.642,0.434-6.969c0.589-0.193,1.051-0.732,0.931-1.553
					c-0.682-4.665-3.795-8.072-8.195-9.121c-1.451-7.903-7.347-14.701-15.372-16.371c-3.766-12.652-24.952-15.318-28.116-28.637
					c-0.24-1.011-1.17-1.371-1.965-1.221c-0.68-0.096-1.426,0.373-1.297,1.279c1.359,9.504-6.383,15.436-11.763,22.072
					c-5.427,6.694-6.329,14.102-2.724,21.69C90.412-15.162,85.263-9.504,85.04,0H73.322c1.955-5.745,4.391-11.199,3.536-17.518
					c-0.646-4.766-4.323-7.674-8.372-9.648c-7.33-3.576-15.514-5.756-23.172-8.502c-7.068-2.535-14.117-5.125-21.158-7.736
					c3.293-1.984,5.381-5.502,5.747-9.6c0.026-0.289-0.037-0.574-0.166-0.822c2.402-1.882,3.339-5.225,3.163-8.656l-0.026-0.146
					c1.925-1.946,2.816-5.001,3.025-7.61c0.02-0.25-0.019-0.486-0.103-0.699c1.494-1.697,2.385-3.865,2.828-6.178
					c0.149-0.779-0.542-1.536-1.289-1.617c-0.829-0.09-1.721-0.154-2.537-0.148c0.391-0.826,0.695-1.692,1.035-2.543l0.004-0.008
					c10.807,3.035,8.725-13.8,7.66-20.035c-0.227-1.318-1.721-1.551-2.555-0.652c-3.336,3.593-7.557,6.221-10.158,10.494
					c-2.247,3.688-0.946,7.292,2.769,8.736l0.024,0.076c-0.052,0.14-0.1,0.283-0.152,0.422c-0.461,1.24-0.957,2.467-1.282,3.746
					c-5.138,0.801-9.29,3.888-9.618,10.106l0.023,0.151c-2.875,1.803-4.648,4.428-3.335,8.209c-2.896,1.895-5.094,4.654-5.896,8.584
					l-0.012,0.137c-1.018,0.849-1.795,1.895-2.196,3.188C7.388-49.668,3.678-51.09,0-52.594v-58.329
					c1.765-0.356,3.531-0.708,5.298-1.046c2.717,2.981,8.607,4.5,10.388-0.199c0.639-1.683,0.599-3.253,0.114-4.688
					c0.037-0.117,0.066-0.244,0.076-0.385c0.41-6.064-0.465-11.964,0.371-18.041c0.76-5.52,2.298-10.908,3.579-16.32
					c2.173-9.186,2.671-17.965-0.622-26.954C15.496-188.676,8.49-196.135,0-201.964v-98.312c5.818,2.472,11.662,4.878,17.584,7.098
					c4.566,1.713,9.258,3.059,13.768,4.92c3.82,1.577,7.653,3.295,11.686,4.271c2.328,0.563,5.522,1.324,7.641-0.289
					c3.079-2.349,4.535-6.107,5.791-9.647c3.793-10.689,4.783-15.328,9.669-25.625c1.175,0.151,2.34,0.192,3.417,0.146l0.092-0.013
					c0.633-0.013,1.258-0.389,1.37-1.192c0.253-1.802,0.584-3.555,0.787-5.338c0.213-0.153,0.384-0.393,0.479-0.734
					c0.311-1.124,0.667-2.228,1.039-3.322H85.04c-0.024,1.047-0.007,2.128,0.093,3.271c-0.394,0.163-0.724,0.543-0.752,1.029
					c-0.25,0.507-0.201,1.129,0.396,1.465c4.166,12.909,10.618,26.345,18.291,37.484c0.078,0.113,0.167,0.2,0.261,0.273
					c-0.098,0.629,0.446,1.407,1.213,1.317c8.945-1.046,17.791-3.31,26.695-4.727c9.303-1.48,18.684-2.382,28.104-2.534
					c1.302-0.021,1.915-1.316,1.658-2.252c1.33-11.776,3.809-23.504,4.853-35.326h73.522c0.379,1.003,0.943,2.051,1.766,3.193
					c4.035,5.604,13.012,8.129,19.133,10.678c7.056,2.938,14.453,4.993,21.477,7.995c6.09,2.604,12.156,5.267,18.252,7.857v98.312
					c-11.104-7.625-24.748-12.458-36.885-16.791c-2.658-2.12-5.826-3.381-9.039-2.17c-4.5,1.695-3.098,5.159-0.27,7.109
					c-9.305,7.117-16.83,17.124-24.057,26.205c-0.502,0.632-0.139,1.409,0.447,1.795c5.992,13.304,13.162,26.167,19.38,39.391
					c6.304,13.411,12.674,26.824,20.249,39.577c0.455,0.767,1.285,0.86,1.922,0.574c9.533-0.739,18.886-2.759,28.252-4.648v58.329
					c-2.048-0.838-4.089-1.695-6.109-2.604c-6.201-2.792-12.418-5.503-19.028-7.177c-5.604-1.418-11.156-1.469-16.216,1.52
					c-4.332,2.556-6.666,7.586-8.418,12.491c-2.831,6.228-5.504,12.47-2.037,19.019c0.181,0.342,0.377,0.647,0.579,0.935
					c-2.925,6.6-5.299,10.384-7.821,17.167C239.268-6.722,237.983-3.686,239.373,0z M183.745-264.869
					c13.128,19.233,35.048,2.72,48.462-6.881c3.217-2.301,7.104-4.477,10.711-6.943c3.237,6.766,6.619,13.594,10.918,19.746
					c-6.846,7.652,4.627,26.794,14.556,23.59c0.554,0.036,1.126-0.19,1.435-0.624c9.217-5.205-1.701-25.552-11.916-25.137
					c-0.246-0.058-0.494-0.001-0.763,0.142l-0.013,0.006c-0.277,0.149-0.7,0.042-1.027,0.141
					c-4.066-6.223-7.288-12.888-11.013-19.308c2.49-1.875,4.712-3.984,6.347-6.409c3.483-5.163-0.615-11.697-3.301-16.17
					c-4.418-7.355-9.605-14.864-18.236-17.419c-6.906-2.044-14.219,0.644-20.378,3.674c-7.632,3.755-14.615,8.781-21.907,13.132
					c-0.204,0.122-0.359,0.269-0.48,0.428c-4.891,3.029-9.335,6.782-10.57,12.706C174.82-281.815,179.127-271.633,183.745-264.869z
					 M56.777-172.254c1.273,1.274,2.703,1.72,4.837,1.99c0.355,0.045,0.646-0.024,0.873-0.167c3.448-0.033,4.15-2.497,3.683-5.466
					c5.834-0.076,12.275-2.543,14.58-8.19c1.177,0.885,2.47,1.546,3.875,1.638c3.307,0.216,3.604-4.158,3.568-6.7l0.135-0.083
					c4.04-3.068,7.441-5.758,8.607-10.907c0.972-4.286-0.147-8.944-1.695-12.95c-3.77-9.754-10.4-17.848-15.453-26.901
					c-5.49-9.84-18.805-39.041-34.24-28.821c-0.166-0.035-0.34-0.036-0.506-0.001c-2.414-1.7-6.379-4.272-8.953-1.811
					c-1.271,1.215-1.218,3.298-0.802,5.278c-5.142-0.655-11.034,2.569-11.991,7.76c-2.559-1.633-5.468-2.518-6.365-0.043
					c-0.488,0.636-0.774,1.331-0.896,2.28c-0.141,1.089,0.186,2.215,0.627,3.225c-6.091,3.655-6.309,11.893-4.729,18.183
					c2.107,8.406,7.09,15.871,11.059,23.468c4.847,9.281,7.904,19.531,14.111,28.08C41.081-176.906,49.588-168.328,56.777-172.254z
					 M108.29-114.535c2.421-2.863,3.257-6.857,1.294-11.93c-0.053-0.136-0.125-0.25-0.205-0.356
					c-0.318-4.681-2.639-8.854-5.738-12.54c-4.672-5.56-12.556-9.891-15.484-16.564c-1.475-3.359-3.701-5.675-7.508-3.625
					c-4.723,2.545-6.771,6.386-7.918,11.038c-4.686,13.415-6.42,28.07-9.453,41.879c-2.618,11.926-4.086,24.13-4.532,36.334
					c-0.22,5.998-0.27,18.434,8.7,17.721c3.736-0.299,7.129-3.607,10.094-5.566c4.972-3.288,10.674-4.238,15.197-8.432
					c0.154-0.144,0.248-0.301,0.3-0.46c1.757-0.841,2.958-2.782,3.165-6.325c0.013-0.207-0.017-0.384-0.068-0.543
					c3.955-3.68,6.057-9.468,6.23-14.791c3.053-1.84,4.979-4.639,2.328-8.166C108.232-102.083,108.703-108.394,108.29-114.535z
					 M127.438-190.807c-0.014,0.156-0.039,0.31-0.047,0.465c-0.298,5.992,7.357,8.675,11.646,10.749
					c7.931,3.833,16.322,9.178,25.395,9.354c3.4,0.065,6.138-1.292,8.301-3.385c6.697,2.952,13.963,3.347,19.411-2.286
					c1.183-1.225,2.173-2.61,3.017-4.098c10.247-0.823,15.211-8.612,17.178-17.536c16.15-7.162,17.682-30.579,8.777-43.92
					c-0.416-0.621-1.396-0.663-1.941-0.216c-4.026,3.305-6.744,7.791-10.704,11.138c-3.716-4.021-9.407-3.679-14.162-1.245
					c-0.856-1.057-1.911-1.948-3.256-2.573c-3.512-1.635-8.694-0.012-12.446,0.765c-2.493-3.045-6.229-5.138-9.785-6.785
					c-0.426-0.196-0.799-0.177-1.096-0.028c-2.434-1.003-4.895-1.638-7.396-1.37c-0.071-0.13-0.175-0.256-0.32-0.37
					c-3.757-2.936-6.241-7.325-10.54-9.537c-1.738-0.894-3.807-0.98-5.837-0.601c-1.841-3.846-4.634-9.094-9.034-10.5
					c-0.068-3.98,0.891-7.839,1.336-11.785c0.096-0.861-0.721-1.659-1.587-1.488c-8.198,1.618-14.628,8.278-19.086,14.973
					c-4.297,6.454-8.099,16.032-4.537,23.609c-3.154,7.375-3.892,15.153,2.274,21.618l0.154,0.133
					c-1.588,3.59-2.575,7.347-2.039,11.132C112.188-197.009,121.23-193.263,127.438-190.807z M239.262-109.582
					c-0.498-8.861-3.273-17.461-8.729-24.859c-7.866-10.67-19.624-17.689-32.404-20.817c-28.841-7.059-58.033,8.496-66.95,37.054
					c-9.933,31.813,8.862,75.382,45.054,78.098C210.884-37.505,243.947-75.716,239.262-109.582z"/>
				<path fill="#FDFAF5" d="M120.264-253.016c2.553-3.472,6.605-9.688,11.6-10.105c0.025-3.296,0.627-6.497,1.084-9.756
					c-11.957,3.673-22.525,19.645-20.643,32.093C114.646-245.25,117.652-249.464,120.264-253.016z"/>
				<path fill="#FDFAF5" d="M102.094-95.381c-7.135,2.57-15.133,1.847-22.566,0.139c3.316,2.791,7.145,5.034,11.434,5.66
					c2.221,0.324,15.434-0.694,11.316-5.536L102.094-95.381z"/>
				<path fill="#FDFAF5" d="M119.133-226.379c5.059-8.409,10.178-17.947,18.579-23.49c1.017-0.67,2.229-1.289,3.527-1.758
					c-1.999-3.419-5.75-10.538-10.278-8.348c-4.555,2.201-7.777,7.501-10.488,11.562c-5.748,8.612-13.954,20.467-5.99,29.947
					C115.951-221.26,117.655-223.924,119.133-226.379z"/>
				<path fill="#FDFAF5" d="M148.59-9.113c-2.766,1.953-5.792,3.589-8.298,5.857c0.146,0.466,0.015,0.977-0.282,1.376
					c0.146,0.62,0.266,1.249,0.379,1.88h12.935c0.187-0.713,0.383-1.424,0.591-2.131C152.57-4.783,150.199-6.648,148.59-9.113z"/>
				<path fill="#FDFAF5" d="M235.987-112.902c7.317,41.162-42.655,89.764-81.638,61.77c-31.391-22.544-30.68-77.163,3.329-96.52
					c16.847-9.588,38.548-8.31,55.161,1.065c12.892,7.274,20.884,19.23,23.273,32.812
					C235.985-113.533,235.928-113.24,235.987-112.902z M222.182-110.258c-0.543-6.471-3.869-10.672-10.965-11.365
					c-3.771-0.37-7.573,0.075-11.351-0.322c-5.538-0.584-8.026-4.368-10.417-8.961c-4.421-8.491-12.139-12.301-21.621-9.224
					c-4.354,1.413-7.801,4.673-9.889,8.669c-2.859,5.475-0.558,11.932-3.696,17.377l-0.09,0.197
					c-5.273,5.488-14.369,10.955-12.777,19.367c0.893,4.713,5.579,8.146,9.573,10.088c6.955,3.379,6.885,9.229,8.334,15.926
					c1.363,6.297,10.06,14.846,17.078,11.743c5.925-2.62,7.698-10.112,12.959-13.465c0.182-0.018,0.373-0.071,0.566-0.171
					c3.008-1.559,4.87-1.916,8.119-0.527c2.277,0.973,4.258,1.348,6.635,0.549c5.631-1.894,5.915-7.99,5.217-12.848
					c-1.092-7.605,3.042-10.131,8.18-14.572C221.762-101.018,223.654-105.469,222.182-110.258z"/>
				<path fill="#FDFAF5" d="M153.083-234.143c-6.929,8.502-11.804,18.414-16.558,28.234c-1.861,3.846-3.947,7.669-5.434,11.683
					c-0.867,2.341-1.736,5.026,0.285,7.035c2.595,2.579,6.268,3.876,9.492,5.453c3.77,1.844,7.512,3.779,11.396,5.371
					c7.218,2.959,16.264,5.914,20.926-2.469c3.791-6.817,4.38-15.301,4.758-22.941c0.338-6.823,0.837-13.778,0.867-20.605
					c0.033-8.184-4.178-11.69-11.006-15.374c-0.13-0.07-0.236-0.156-0.332-0.247c-1.627-0.68-3.289-1.229-4.946-1.373
					C158.525-239.72,155.486-237.093,153.083-234.143z"/>
				<path fill="#FDFAF5" d="M130.432-199.496c2.404-5.137,4.908-10.248,7.507-15.289c2.72-5.28,5.534-10.572,8.927-15.458
					c2.408-3.471,5.119-7.615,8.807-9.896c0.674-0.417,1.344-0.74,2.01-0.995c-3.174-2.417-5.609-6.691-9.201-7.981
					c-4.772-1.715-9.54,1.182-12.882,4.419c-5.911,5.729-10.005,12.985-14.229,19.968c-3.127,5.17-8.507,12.6-7.583,19.09
					c0.955,6.707,8.558,9.785,14.214,11.989C128.604-195.673,129.555-197.625,130.432-199.496z"/>
				<path fill="#FDFAF5" d="M199.451-197.461c-0.238,4.539-0.939,9.577-2.688,14.068c10.434-2.344,13.553-13.491,13.63-23.7
					c0.044-5.881,0.003-12.957-2.288-18.475c-2.576-6.203-7.246-5.672-12.592-4.414c0.754,1.354,1.32,2.85,1.824,4.359
					C200.255-216.91,199.929-206.532,199.451-197.461z"/>
				<path fill="#FDFAF5" d="M245.59-326.488c10.755,8.68,26.46,10.825,38.933,16.154c5.152,2.202,10.31,4.389,15.478,6.548v-10.293
					c-0.12-0.047-0.239-0.096-0.359-0.143c-12.618-4.934-25.363-10.149-37.85-15.778h-19.289
					C243.118-328.848,244.1-327.69,245.59-326.488z"/>
				<path fill="#FDFAF5" d="M77.895-117.025c-0.791-1.281,0.359-2.596,1.708-2.436c9.404,1.117,18.815,1.729,26.654-4.26
					c-0.069-0.218-0.098-0.46-0.064-0.726c1.415-11.45-11.271-17.898-17.655-25.172c-2.098-2.392-3.506-9.375-7.406-6.892
					c-2.454,1.562-3.844,3.598-4.827,5.896c0.067,0.213,0.088,0.446,0.03,0.695c-5.361,23.486-11.652,46.812-13.779,70.885
					c-0.316,3.57-2.807,26.012,5.229,23.106c3.633-1.314,6.471-4.126,9.873-5.894c3.521-1.83,7.157-3.209,10.68-4.989
					c-5.719-1.341-12.877-7.099-15.453-10.478c-0.963-1.264,0.719-2.812,1.996-2.158c6.062,3.1,12.402,2.925,18.925,3.736
					c2.866-3.73,4.702-7.287,5.833-11.682c-0.881,0.334-1.771,0.601-2.615,0.793c-8.954,2.051-17.959-4.271-23.68-10.451
					c-0.926-1-0.197-3.002,1.34-2.551c9.32,2.742,17.826,3.387,27.255,1.58l0.082-0.146c3.015-4.296,3.688-9.203,3.937-14.261
					C98.244-107.047,83.271-108.319,77.895-117.025z"/>
				<path fill="#FDFAF5" d="M212.975-201.194c12.016-7.117,13.312-25.776,6.752-37.282c-3.244,3.131-5.896,7.678-9.825,9.863
					c3.345,5.507,3.407,13.691,3.5,19.784C213.439-206.341,213.312-203.754,212.975-201.194z"/>
				<path fill="#FDFAF5" d="M181.1-206.613c-0.268,8.295-0.5,17.202-3.464,25.063c-0.739,1.964-1.712,3.901-2.933,5.609
					c6.217,2.437,12.846,2.302,16.908-3.977c0.302-0.464,0.578-0.94,0.846-1.421c-0.132-0.652,0.105-1.326,0.797-1.552
					c2.302-4.882,3.137-10.424,3.348-15.779c0.303-7.634,0.415-15.62-1.186-23.131c-0.735-3.454-2.165-9.935-6.535-10.336
					c-2.912-0.267-5.875,0.34-8.795,0.745c0.498,0.937,0.889,1.949,1.136,3.05C182.76-221.459,181.325-213.622,181.1-206.613z"/>
				<path fill="#FDFAF5" d="M194.809-96.044c0.073-0.196,0.117-0.387,0.181-0.581c0.541-3.196-0.013-6.746-1.853-10.338
					l-0.094-0.236c-6.609-7.965-23.846-9.068-26.537,3.26c-2.33,10.678,4.017,22.051,16.082,19.22
					c6.534-1.532,10.871-5.646,12.182-10.855C194.744-95.723,194.746-95.878,194.809-96.044z"/>
				<path fill="#FDFAF5" d="M20.098-14.877c-1.623,0.018-3.094,0.557-4.521,1.259c-2.113,1.347-4.26,2.784-6.524,3.089
					c-0.102,0.027-0.202,0.059-0.306,0.082c-0.268,0.494-0.781,0.816-1.52,0.658c-5.083-1.087-6.271-4.941-6.606-9.662
					C0.519-20.873,0.52-22.84,0-24.457v23.385C0.969-0.714,1.935-0.352,2.908,0h21.98c-0.408-1.379-0.604-2.802-0.537-4.133
					C24.527-7.668,25.81-14.937,20.098-14.877z"/>
				<path fill="#FDFAF5" d="M68.51-322.492c0.287-1.463,0.643-2.9,1.018-4.34c-0.104-0.285-0.128-0.612-0.03-0.965
					c0.198-0.71,0.444-1.449,0.714-2.204H58.754c0.488,1.552,1.06,3.135,2.029,4.357C62.736-323.181,65.642-322.851,68.51-322.492z"
					/>
				<path fill="#FDFAF5" d="M105.508-287.662c1.637-0.52,3.299-1.004,4.974-1.469c-4.082-10.93-10.26-20.784-14.841-31.468
					c-0.102-0.019-0.202-0.049-0.301-0.098c-2.39-1.202-5.02-1.571-7.531-2.323c5.271,11.96,11.629,23.156,17.562,34.804
					C105.467-288.028,105.507-287.843,105.508-287.662z"/>
				<path fill="#FDFAF5" d="M50.358-288.355c1.316-1.93,2.258-4.08,3.036-6.294c-3.84-1.383-8.152-1.943-12.031-3.225
					c-4.739-1.566-9.421-3.292-14.052-5.154c-9.114-3.667-18.165-7.467-27.312-11.05v10.293
					c13.088,5.468,26.252,10.737,39.631,15.459C42.809-287.205,47.938-284.809,50.358-288.355z"/>
				<path fill="#FDFAF5" d="M36.336-326.924c0.974-0.758,2.014-1.854,3.117-3.076H28.136
					C29.568-326.68,32.754-324.134,36.336-326.924z"/>
				<path fill="#FDFAF5" d="M28.38-305.691c4.633,1.844,9.291,3.657,14.044,5.172c3.828,1.22,8.069,1.829,11.839,3.193
					c0.229-0.759,0.45-1.519,0.666-2.272c0.864-3.019,1.594-5.359,2.331-7.457c-18.611-7.433-37.564-13.867-56.399-20.701
					c-0.286-0.104-0.574-0.208-0.861-0.312v10.874c0.24,0.093,0.479,0.191,0.719,0.284C10.007-313.33,19.133-309.372,28.38-305.691z
					"/>
				<path fill="#FDFAF5" d="M58.24-309.694c1.223-3.113,2.62-6.072,4.766-10.571c-1.919-0.663-3.639-1.748-4.734-3.428
					c-1.285-1.971-1.918-4.153-2.64-6.307H43.719c-0.365,0.396-0.684,0.754-0.938,1.042c-2.142,2.427-4.381,5.035-7.592,5.979
					c-5.202,1.528-8.955-2.492-10.301-7.021H2.908c0.292,0.105,0.58,0.217,0.873,0.322C21.99-323.147,40.268-316.865,58.24-309.694z
					"/>
				<path fill="#FDFAF5" d="M90.609-325.195c0.142-1.76,0.47-3.346,0.932-4.805h-3.566c-0.148,1.306-0.232,2.673-0.195,4.155
					C88.717-325.592,89.662-325.394,90.609-325.195z"/>
				<path fill="#FDFAF5" d="M118.958-291.224c-5.235-10.549-8.945-22.344-12.788-33.481c-1.529-1.56-3.312-2.787-4.926-4.228
					c-1.025,2.255-2.549,4.209-3.615,6.499c5.893,10.394,11.809,21.227,15.789,32.521
					C115.248-290.382,117.098-290.817,118.958-291.224z"/>
				<path fill="#FDFAF5" d="M140.879-294.608c2.046-0.201,4.087-0.362,6.123-0.502c-0.014-0.179-0.006-0.365,0.045-0.562
					c2.915-11.248,3.335-23.107,6.276-34.327h-12.935c0.982,5.438,0.886,11.237,0.905,16.69
					C141.316-307.12,141.472-300.782,140.879-294.608z"/>
				<path fill="#FDFAF5" d="M130.232-293.277c2.557-0.39,5.121-0.725,7.686-1.015c-0.182-6.426,0.37-12.894,0.35-19.327
					c-0.018-5.458-0.455-10.928-0.504-16.381h-12.909c-0.423,0.626-0.805,1.278-1.108,1.982
					C126.887-316.819,128.973-304.843,130.232-293.277z"/>
				<path fill="#FDFAF5" d="M157.995-295.593c1.243-11.515,3.28-22.938,4.945-34.407h-6.835
					c-1.521,11.591-3.075,23.375-5.934,34.689C152.8-295.453,155.412-295.55,157.995-295.593z"/>
				<path fill="#FDFAF5" d="M109.006-324.948c5.053,10.618,8.844,22.14,12.988,33.112c1.746-0.35,3.504-0.664,5.267-0.962
					c-2.522-11.38-3.788-23.108-6.033-34.567l-0.133-0.144c-0.614-0.932-1.352-1.731-2.127-2.491h-6.315
					c-1.235,1.261-2.485,2.51-3.631,3.856C109.236-325.734,109.195-325.309,109.006-324.948z"/>
				<path fill="#FDFAF5" d="M95.125-324.005c1.059-2.039,2.52-3.896,3.398-5.995H94.67c-0.724,1.553-1.301,3.32-1.707,5.34
					C93.691-324.476,94.414-324.271,95.125-324.005z"/>
				<path fill="#FDFAF5" d="M108.966-330h-4.351c0.898,0.724,1.822,1.42,2.705,2.166C107.824-328.591,108.383-329.306,108.966-330z"
					/>
				<path fill="#FDFAF5" d="M129.539-5.85c-1.416,2.057-3.295,3.793-4.685,5.85h12.909c-0.004-0.496-0.024-0.992-0.021-1.488
					C135.131-3.174,132.236-4.322,129.539-5.85z"/>
				<path fill="#FDFAF5" d="M29.373-63.536c1.706-1.554,2.736-3.118,3.24-5.144l-0.145-0.006c-2.377,0.295-4.789,0.734-6.931,1.738
					c-2.794,1.309-3.83,2.911-4.038,5.506c2.416-1.111,5.129-1.762,7.856-2.076L29.373-63.536z"/>
				<path fill="#FDFAF5" d="M25.184-55.178c3.304-0.299,4.666-2.66,4.864-5.545c-5.646,0.556-10.736,2.459-13.433,7.418
					c2.365-0.887,5.121-1.275,7.621-1.377C24.434-54.945,24.742-55.138,25.184-55.178z"/>
				<path fill="#FDFAF5" d="M0-146.122v-27.666c0.411,0.275,0.94,0.39,1.509,0.184c2.199-0.797,4.206-2.217,5.973-3.729
					c1.129-0.965-0.227-2.977-1.513-2.169c-1.89,1.188-3.796,2.322-5.896,3.101c-0.027,0.01-0.047,0.024-0.073,0.036v-12.58
					c0.411,0.108,0.823,0.204,1.241,0.27c1.204,0.191,1.808-1.718,0.729-2.269c-0.642-0.327-1.304-0.615-1.97-0.895v-6.203
					c7.021,5.084,12.904,11.57,16.623,20.812c3.834,9.526,1.752,19.401-0.617,28.97c-1.052,4.246-2.027,8.495-2.696,12.818
					c-0.757,4.887-0.325,9.672-0.296,14.521c-1.317-1.249-2.886-2.296-4.395-3.099c-0.062-0.174-0.156-0.348-0.298-0.512
					c-3.088-3.594,0.772-9.745-0.86-14.086C6.035-142.409,2.986-144.137,0-146.122z M9.409-160.156
					c0.062,1.587,2.226,2.116,2.79,0.516c0.432-1.224,0.449-2.638,0.701-3.915c0.248-1.265,0.534-2.52,0.739-3.793
					c0.175-1.087-1.579-1.661-2.065-0.664c-0.567,1.164-0.996,2.352-1.334,3.601C9.883-163.087,9.356-161.53,9.409-160.156z"/>
				<path fill="#FDFAF5" d="M35.275-87.021c0.834-1.575,3.044-0.688,2.557,1.026c-0.179,0.631-0.414,1.248-0.665,1.86
					c5.548,0.214,4.814-8.614,3.979-14.143c-1.844,1.661-3.796,3.212-5.473,5.048c-1.213,1.325-2.703,2.855-3.166,4.648
					c-0.447,1.735,0.649,2.693,1.895,3.534C34.662-85.721,34.939-86.388,35.275-87.021z"/>
				<path fill="#FDFAF5" d="M115.65-3.26c-0.938,1.141-1.963,2.204-2.998,3.26h6.315C117.861-1.085,116.676-2.087,115.65-3.26z"/>
				<path fill="#FDFAF5" d="M26.845-51.869c-4.847-0.303-10.665,0.327-13.337,4.5c0.536,0.202,1.07,0.402,1.605,0.604
					c1.701,0.639,3.408,1.264,5.111,1.898C23.766-45.715,26.074-48.439,26.845-51.869z"/>
				<path fill="#FDFAF5" d="M117.008-6.354c1.279,2.102,3.316,3.447,5.004,5.15c1.738-2.672,4.2-4.833,5.737-7.68
					c0.418-0.774,1.532-0.783,2.179-0.367c2.723,1.752,5.758,2.901,8.562,4.502c2.674-3.156,6.604-4.949,9.611-7.771
					c0.715-0.671,1.955-0.33,2.342,0.523c0.103,0.225,0.225,0.434,0.342,0.646c1.818-1.11,3.699-2.148,5.602-3.116
					c-0.355-2.372-0.95-4.579-1.807-6.586c-1.918,1.861-4.363,2.965-7.067,3.357c-1.59,0.23-1.954-2.079-0.411-2.439
					c2.375-0.553,4.576-1.684,6.068-3.646c-2.023-3.273-4.96-5.826-9.002-7.414c0.056,0.684,0.081,1.385,0.039,2.125
					c0.362,0.732,0.23,1.672-0.762,2.098C125.366-19.197,90.771-24.76,87.975,0h3.566c5.315-16.821,30.512-14.693,45.256-17.191
					c1.624-0.275,2.529,2.307,0.884,2.842C123.081-9.607,101.77-15.26,94.67,0h3.854c0.253-0.602,0.465-1.219,0.597-1.871
					c0.249-1.227,1.761-1.893,2.659-0.813c0.844,1.013,1.823,1.867,2.836,2.685h4.351c1.833-2.183,3.929-4.162,5.476-6.588
					C115.104-7.627,116.467-7.24,117.008-6.354z"/>
				<path fill="#FDFAF5" d="M35.309-75.982c-2.21-0.145-4.523-0.004-6.441,1.114c-2.038,1.188-3.001,3.071-3.682,5.15
					c2.299-0.941,4.857-1.536,7.034-1.892C33.66-72.887,34.692-74.242,35.309-75.982z"/>
				<path fill="#FDFAF5" d="M8.34-113.592l0.038,0.179l0.006,0.046l0.003,0.076l-0.005,0.066c0.844,0.638,1.763,1.148,2.819,1.125
					c1.221-0.026,1.939-0.979,1.965-2.159c0.047-2.072-0.914-3.855-2.475-5.163c-0.996-0.835-2.235-1.57-3.163-2.539
					c-0.497,0.162-1.062,0.071-1.512-0.452c-4.25-4.946,1.102-10.711-1.623-15.78c-1.063-1.979-2.668-3.348-4.394-4.579v23.903
					c2.199,1.895,5.509,2.572,7.801,4.448C8.092-114.182,8.261-113.893,8.34-113.592z"/>
				<path fill="#FDFAF5" d="M43.719,0h11.913c-0.423-1.264-0.876-2.519-1.509-3.715C51.814-8.074,46.428-2.939,43.719,0z"/>
				<path fill="#FDFAF5" d="M73.267-19.232c-2.327-4.705-8.185-6.191-12.736-7.865c-13.542-4.979-27.148-9.765-40.679-14.771
					c-0.379,0.009-0.686-0.123-0.91-0.34c-2.201-0.816-4.404-1.622-6.6-2.453C8.199-46.23,4.099-47.983,0-49.757v20.357
					c1.48,1.012,2.607,2.508,3.138,4.544c0.854,3.287-0.151,9.151,2.964,11.211l0.183,0.062c0.966,0.443,1.924,0.511,2.875,0.361
					c3.429-1.496,6.426-4.466,10.256-4.528c2.965-0.049,6.426,1.513,7.458,4.53c1.066,3.115,0.52,6.209,0.458,9.423
					C27.31-2.58,27.602-1.236,28.136,0h11.317c3.877-4.293,8.549-10.143,13.964-8.373c2.863,0.937,3.901,3.846,4.749,6.479
					C58.361-1.287,58.551-0.646,58.754,0h11.457C72.354-6.015,76.215-13.27,73.267-19.232z"/>
				<path fill="#FDFAF5" d="M0-115.479v2.052c0.96-0.151,1.919-0.304,2.882-0.434C1.917-114.377,0.934-114.908,0-115.479z"/>
				<path fill="#FDFAF5" d="M217.631-116.341c1.612,1.925,2.213,4.702,2.516,7.342c-0.174,2.093-0.633,3.786-1.385,5.286
					c-0.356-0.381-0.773-0.665-1.324-0.712c-0.564-0.048-0.959,0.382-1.158,0.849l0.012-0.03c0.072-0.169,0.048-0.117,0,0
					l-0.014,0.034l0.002-0.004c-0.047,0.117-0.105,0.27-0.115,0.324c-0.072,0.447,0.019,0.876,0.434,1.133
					c0.11,0.068,0.234,0.112,0.363,0.132l0.071,0.098c0.095,0.142,0.185,0.286,0.274,0.429c-1.057,1.319-2.408,2.551-4.082,3.88
					c-3.195,2.534-5.919,5.315-6.594,9.483c-0.405,2.506,0.353,5.236,0.611,7.715c0.555,5.313-3.566,8.533-8.375,6.528
					c-3.108-1.296-6.301-1.911-9.042-0.177c-5.238,2.26-7.794,7.311-11.325,11.56c-1.365,1.642-2.846,2.72-4.557,2.962
					c0.293-1.394,0.47-2.83,0.51-4.231c0.033-1.214-1.737-1.463-2.086-0.319c-0.429,1.404-0.738,2.843-1.107,4.266
					c-0.287-0.095-0.578-0.203-0.877-0.341c-1.976-0.907-3.569-2.102-4.833-3.53c0.264-0.219,0.523-0.441,0.777-0.638
					c0.331-0.256,0.56-0.409,0.923-0.674c-0.157,0.115,0.236-0.163,0.326-0.235c0.204-0.164,0.314-0.367,0.391-0.615
					c0.149-0.479-0.086-0.875-0.443-1.165c-0.762-0.618-1.875,0.151-2.545,0.56c-0.307,0.188-0.652,0.391-0.994,0.605
					c-1.141-1.934-1.854-4.16-2.219-6.594c-0.65-4.336-1.428-8.365-4.504-11.682c-1.783-1.922-4.112-2.986-6.367-4.219
					c0.674-1.134,0.971-2.534,1.057-3.799c0.076-1.118-1.65-1.366-1.934-0.297c-0.186,0.704-0.479,1.395-0.814,2.041
					c-0.139,0.266-0.315,0.504-0.496,0.738c-0.867-0.59-1.689-1.26-2.422-2.085c-1.23-1.383-1.86-2.704-2.058-3.979
					c0.159,0.079,0.317,0.156,0.464,0.234c0.912,0.488,1.854,1.001,2.837,1.33c1.21,0.406,1.888-1.31,0.888-1.983
					c-0.779-0.524-1.598-0.995-2.393-1.495c-0.498-0.312-0.99-0.704-1.521-0.988c1.628-4.795,8.508-8.964,11.602-13.254
					c0.271-0.104,0.522-0.305,0.714-0.627c2.015-3.378,2.426-6.795,2.562-10.666c0.026-0.765,0.088-1.505,0.182-2.221
					c0.332,0.122,0.68,0.211,1.02,0.32c0.903,0.288,1.818,0.621,2.763,0.735c1.073,0.13,1.554-1.562,0.601-2.042
					c-0.799-0.403-1.654-0.709-2.482-1.049c-0.214-0.088-0.428-0.176-0.641-0.265c-0.05-0.021-0.586-0.26-0.303-0.122
					c-0.143-0.07-0.282-0.124-0.425-0.168c1.098-3.877,3.501-6.878,7.661-8.945c1.938-0.964,4.178-1.428,6.424-1.416
					c0.044,0.415,0.178,0.814,0.315,1.238c0.208,0.646,0.437,1.295,0.722,1.91c0.436,0.94,1.795,0.472,1.846-0.453
					c0.034-0.611-0.078-1.238-0.217-1.832c-0.045-0.201-0.082-0.422-0.121-0.645c2.417,0.416,4.708,1.41,6.488,2.979
					c1.178,1.04,2.104,2.368,2.926,3.795c-0.137-0.042-0.271-0.09-0.41-0.128c-0.75-0.211-1.699-0.468-2.309,0.184
					c-0.448,0.479-0.516,1.194-0.051,1.695c0.504,0.543,1.184,0.453,1.848,0.568c0.685,0.119,1.363,0.279,2.045,0.418
					c0.121,0.025,0.229,0.015,0.337,0.009c0.699,1.377,1.39,2.739,2.191,3.937c3.255,4.867,9.022,5.624,14.427,5.626
					c3.257,0.002,6.545-0.288,9.747,0.456c0.511,0.119,0.974,0.286,1.404,0.486l-0.174,0.08c-0.72,0.372-1.7,0.913-2.079,1.649
					c-0.221,0.426-0.275,0.886-0.037,1.32c0.256,0.47,0.926,0.855,1.468,0.646c0.733-0.282,1.275-0.839,1.929-1.269
					C216.848-115.898,217.238-116.123,217.631-116.341z M203.911-113.16c1.437,0.666,3.14,0.996,4.675,1.396
					c1.139,0.297,1.746-1.176,0.822-1.836c-1.33-0.951-3.194-1.68-4.807-1.905C203.385-115.674,202.797-113.678,203.911-113.16z
					 M196.279-111.889c0.357,0.863,0.73,1.767,1.354,2.475c0.704,0.799,2.055,0.031,1.791-0.977
					c-0.198-0.756-0.52-1.486-0.765-2.229c-0.238-0.721-0.355-1.945-1.121-2.3c-0.588-0.271-1.297-0.226-1.662,0.39
					C195.361-113.66,195.936-112.715,196.279-111.889z M185.37-118.152c0.288,0.883,1.853,1.176,2.034,0.043
					c0.146-0.906,0.213-1.826,0.329-2.738c0.044-0.341,0.09-0.652,0.147-0.986c0.032-0.186,0.075-0.369,0.074-0.558
					c0-0.081-0.057-0.338-0.096-0.499l0.006,0.012c-0.059-0.229-0.041-0.16-0.006-0.012c-0.219-0.812-1.402-1.301-2.022-0.585
					c-0.116,0.134-0.409,0.464-0.092,0.106c-0.275,0.312-0.403,0.617-0.44,1.027c-0.037,0.417-0.068,0.834-0.092,1.252
					C185.158-120.145,185.073-119.066,185.37-118.152z M177.263-130.617c0.104,0.816,0.522,1.625,0.849,2.375
					c0.327,0.754,0.709,1.473,1.2,2.133c0.663,0.891,2.277-0.005,1.905-1.039c-0.242-0.672-0.541-1.323-0.791-1.994
					c-0.292-0.783-0.462-1.631-0.854-2.371c-0.262-0.496-0.857-0.75-1.396-0.615C177.459-131.951,177.177-131.292,177.263-130.617z
					 M175.553-121.325c0.662,0.688,1.355,1.323,2.057,1.97c0.986,0.91,2.307-0.37,1.498-1.411c-0.543-0.7-1.062-1.415-1.619-2.104
					c-0.493-0.608-1.049-1.66-1.955-1.594c-0.521,0.037-1.031,0.312-1.17,0.861C174.107-122.598,174.931-121.973,175.553-121.325z
					 M172.232-118.746c-0.584,0.089-1.061,0.486-1.51,0.845c-0.517,0.413-0.999,0.819-1.043,1.535
					c-0.05,0.835,0.756,1.276,1.479,1.179c0.324-0.045,0.577-0.236,0.781-0.478c0.083-0.103,0.135-0.164,0.171-0.208
					c0.08-0.098,0.164-0.195,0.248-0.291c0.32-0.365,0.67-0.691,0.973-1.072c0.215-0.273,0.186-0.726,0.028-1.014
					C173.128-118.675,172.686-118.815,172.232-118.746z M169.977-127.025c-0.4,0.928-0.936,1.701-1.57,2.486
					c-0.453,0.561-0.128,1.475,0.426,1.817c0.651,0.403,1.39,0.151,1.818-0.426c0.705-0.95,1.305-2.06,1.532-3.229
					C172.469-127.852,170.561-128.379,169.977-127.025z M168.652-132.178c0.8-0.704,1.568-1.076,2.621-1.318
					c1.189-0.271,0.971-2.086-0.238-2.104c-1.514-0.022-3.036,0.505-4.164,1.532C165.626-132.937,167.4-131.075,168.652-132.178z
					 M159.723-116.119c0.49,0.521,1.268,0.502,1.791,0.053c0.369-0.315,0.57-0.542,0.959-0.758c0.375-0.208,0.768-0.355,1.178-0.475
					c0.451-0.129,0.781-0.512,0.79-0.991c0.011-0.52-0.456-1.11-1.021-1.058c-1.43,0.133-2.909,0.533-3.851,1.691
					C159.217-117.223,159.371-116.493,159.723-116.119z M155.877-108.115c-0.07,1.23,0.418,2.613,0.77,3.783
					c0.34,1.13,2.252,1.047,2.154-0.244c-0.043-0.589-0.139-1.168-0.23-1.75c-0.105-0.676-0.143-1.399-0.322-2.058
					C157.884-109.717,155.956-109.479,155.877-108.115z M152.877-102.775c-0.517-0.249-1.166-0.226-1.756-0.234
					c-1.079-0.016-2.519-0.126-3.18,0.883c-0.354,0.543-0.173,1.357,0.395,1.682c0.883,0.504,1.973,0.043,2.928-0.058
					c0.682-0.071,1.412-0.088,1.896-0.517C153.818-101.5,153.715-102.564,152.877-102.775z M158.002-94.719
					c-0.221-0.645-0.662-0.992-1.138-1.447c-0.456-0.437-0.901-0.896-1.423-1.256c-0.422-0.29-1.033-0.199-1.395,0.141
					c-0.488,0.459-0.433,1.133-0.048,1.625c0.325,0.418,0.706,0.797,1.058,1.193c0.422,0.475,0.818,0.996,1.455,1.172
					C157.318-93.07,158.305-93.831,158.002-94.719z M162.946-89.063l0.036,0.028c-0.018-0.144-0.077-0.285-0.164-0.414
					c-0.193-0.382-0.565-0.65-1.121-0.609c-1.193,0.091-2.49,0.114-3.602,0.6c-1.124,0.49-0.516,2.059,0.525,2.139
					c0.996,0.078,2.029-0.045,3.03-0.043C162.66-87.36,163.088-88.293,162.946-89.063z M164.385-81.626
					c0.522-0.069,0.972-0.444,1.407-0.72c0.461-0.291,0.911-0.595,1.357-0.907c1.165-0.813,0.265-2.464-1.05-1.925
					c-0.448,0.184-0.895,0.369-1.334,0.572c-0.51,0.238-1.158,0.432-1.531,0.869C162.404-82.758,163.113-81.458,164.385-81.626z
					 M166.635-77.348c0.436-1.123-1.27-1.802-1.882-0.842c-0.676,1.059-1.076,2.23-1.552,3.383
					c-0.648,1.567,2.205,2.408,2.512,0.739C165.918-75.185,166.223-76.289,166.635-77.348z M171.127-72.382
					c-1.155,0.062-2.411,0.079-3.541,0.326c-0.676,0.147-1.092,0.882-0.928,1.539c0.181,0.728,0.852,1.017,1.539,0.928
					c1.044-0.135,2.162-0.353,3.172-0.653C172.501-70.578,172.408-72.451,171.127-72.382z M172.764-77.145
					c-0.406-1.262-0.738-2.55-1.186-3.798c-0.453-1.269-2.264-0.848-2.039,0.505c0.217,1.307,0.555,2.592,0.812,3.891
					C170.666-74.969,173.255-75.62,172.764-77.145z M179.524-68.051c-1.087-0.518-2.095-1.32-3.007-2.1
					c-1.011-0.861-2.279,0.346-1.488,1.402c0.81,1.083,1.842,1.84,2.794,2.779C179.326-64.484,181.201-67.252,179.524-68.051z
					 M181.664-76.089c-0.867,0.534-1.771,0.778-2.768,0.944c-0.698,0.117-1.109,0.928-0.949,1.574
					c0.176,0.703,0.881,1.096,1.573,0.947c1.259-0.267,2.428-0.902,3.403-1.728C183.863-75.145,182.709-76.733,181.664-76.089z
					 M188.834-77.485c-0.402-0.64-0.859-1.234-1.324-1.828c-0.367-0.47-0.668-1.159-1.222-1.454
					c-0.764-0.408-1.731,0.039-1.756,0.957c-0.021,0.756,0.597,1.319,1.072,1.835c0.522,0.567,1.071,1.11,1.589,1.681
					C187.965-75.444,189.459-76.492,188.834-77.485z M195.244-89.735c0.486-0.044,0.773-0.157,1.271-0.136
					c0.414,0.018,0.845,0.22,1.373,0.11c0.525-0.108,0.832-0.68,0.713-1.182c-0.188-0.792-1.04-1.228-1.959-1.372
					c0.91-2.099,1.405-4.373,1.389-6.721c0.309,0.1,0.639,0.151,0.953,0.22c0.48,0.106,0.96,0.203,1.443,0.294
					c1.312,0.246,1.82-1.477,0.582-1.981c-0.454-0.186-0.911-0.363-1.371-0.535c-0.461-0.171-0.929-0.406-1.426-0.396
					c-0.101-4.683-3.088-8.542-7.272-11.069l0.077-0.097c0.391-0.468,0.762-0.949,1.119-1.442c0.289-0.396,0.186-0.998-0.135-1.338
					c-0.43-0.457-1.1-0.434-1.56-0.047c-0.444,0.373-0.877,0.757-1.295,1.16c-0.194,0.188-0.381,0.363-0.556,0.547
					c-7.537-3.357-17.529-2.806-22.432,4c-0.514-0.391-1.162-0.688-1.645-0.973c-0.759-0.45-1.743-1.188-2.672-0.957
					c-0.823,0.205-0.953,1.113-0.506,1.717c-0.242-0.328,0.045,0.076,0.133,0.17c0.154,0.162,0.348,0.287,0.526,0.42
					c0.384,0.285,0.772,0.562,1.159,0.842c0.479,0.346,1.035,0.845,1.631,1.139c-0.572,1.246-1.009,2.64-1.279,4.196
					c-0.189,1.093-0.296,2.172-0.334,3.231c-0.758-0.061-1.516-0.137-2.261-0.266c-1.269-0.22-1.788,1.448-0.567,1.927
					c0.928,0.364,1.896,0.557,2.87,0.735c0.616,8.424,6.097,15.068,14.495,15.869c-0.396,0.572-0.787,1.205-0.955,1.856
					c-0.427,1.646,1.896,2.284,2.498,0.735c0.203-0.523,0.42-0.971,0.754-1.559c0.179-0.313,0.412-0.642,0.578-0.986
					c0.629-0.037,1.27-0.102,1.924-0.202C188.137-82.684,192.576-85.693,195.244-89.735z M195.359-80.987
					c-0.48-0.4-0.985-0.761-1.48-1.142c-0.518-0.398-0.899-1.018-1.64-0.962c-0.499,0.038-1.063,0.31-1.171,0.86
					c-0.199,1.023,0.408,1.543,1.189,2.057c0.62,0.406,1.324,0.693,2.016,0.955C195.238-78.854,196.182-80.304,195.359-80.987z
					 M199.163-83.594c0.854,0.025,1.667,0.334,2.509,0.35c0.929,0.019,1.426-1.127,0.796-1.801
					c-0.724-0.773-1.937-0.977-2.945-1.114c-1.093-0.148-2.494-0.369-3.486,0.199c-0.965,0.552-0.809,1.984,0.247,2.321
					C197.171-83.356,198.231-83.623,199.163-83.594z M204.023-77.685c-0.037-0.517-0.089-1.03-0.133-1.546
					c-0.043-0.488-0.279-0.913-0.779-1.061c-0.514-0.151-1.254,0.15-1.349,0.735c-0.081,0.497-0.158,0.995-0.204,1.497
					c-0.047,0.542-0.211,1.181-0.012,1.697c0.164,0.423,0.394,0.757,0.855,0.893c0.486,0.143,1.172-0.046,1.406-0.537
					C204.09-76.594,204.066-77.059,204.023-77.685z M205.287-91.635c-0.004-0.754-0.57-1.311-0.92-1.949
					c-0.273-0.502-0.487-1.035-0.654-1.583c-0.141-0.46-0.519-0.8-1.016-0.809c-0.535-0.009-1.133,0.468-1.082,1.046
					c0.066,0.775,0.238,1.49,0.515,2.217c0.327,0.863,0.673,1.889,1.62,2.208C204.48-90.258,205.293-90.874,205.287-91.635z
					 M205.962-108.914c0.007-1.151-1.812-1.506-2.058-0.314c-0.262,1.268-0.827,2.443-1.121,3.695
					c-0.387,1.645,1.946,2.332,2.513,0.739C205.748-106.07,205.955-107.562,205.962-108.914z M211.016-103h-0.008
					c-0.628,0-1.351,0.209-1.967,0.284c-0.809,0.1-1.764,0.288-2.471,0.729c-0.625,0.39-0.908,1.22-0.54,1.895
					c0.386,0.707,1.149,0.871,1.834,0.602c-0.509,0.2,0.474-0.182,0.287-0.106c-0.267,0.106,0.251-0.073,0.3-0.089
					c0.396-0.119,0.801-0.211,1.205-0.299c0.512-0.112,1.121-0.441,1.605-0.698C212.42-100.932,212.207-103,211.016-103z
					 M214.705-110.102c-0.598-0.194-1.385,0.039-1.954,0.114c-0.708,0.095-1.486,0.147-2.165,0.38
					c-0.555,0.189-0.971,0.613-0.98,1.231c-0.012,0.682,0.565,1.331,1.27,1.313c0.838-0.02,1.674-0.269,2.486-0.457
					c0.44-0.104,0.906-0.218,1.318-0.406c0.252-0.113,0.477-0.256,0.627-0.499l0.022-0.036
					C215.867-109.066,215.544-110.117,214.705-110.102z"/>
				<path fill="#CD7C13" d="M176.232-40.106c-36.191-2.716-54.986-46.284-45.054-78.098c8.917-28.559,38.109-44.113,66.95-37.054
					c12.78,3.127,24.538,10.147,32.404,20.817c5.455,7.398,8.23,15.998,8.729,24.859C243.947-75.716,210.884-37.505,176.232-40.106z
					 M235.987-112.902c-0.06-0.338-0.002-0.631,0.126-0.873c-2.39-13.581-10.382-25.537-23.273-32.812
					c-16.613-9.375-38.314-10.654-55.161-1.065c-34.009,19.356-34.72,73.976-3.329,96.52
					C193.332-23.139,243.305-71.74,235.987-112.902z"/>
				<path fill="#CD7C13" d="M182.51-81.825c-0.654,0.101-1.295,0.165-1.924,0.202c-0.166,0.345-0.399,0.673-0.578,0.986
					c-0.334,0.588-0.551,1.035-0.754,1.559c-0.602,1.549-2.925,0.91-2.498-0.735c0.168-0.651,0.559-1.284,0.955-1.856
					c-8.398-0.801-13.879-7.445-14.495-15.869c-0.974-0.179-1.942-0.371-2.87-0.735c-1.221-0.479-0.701-2.146,0.567-1.927
					c0.745,0.129,1.503,0.205,2.261,0.266c0.038-1.06,0.145-2.139,0.334-3.231c0.271-1.557,0.707-2.95,1.279-4.196
					c-0.596-0.294-1.152-0.793-1.631-1.139c-0.387-0.28-0.775-0.557-1.159-0.842c-0.179-0.133-0.372-0.258-0.526-0.42
					c-0.088-0.094-0.375-0.498-0.133-0.17c-0.447-0.604-0.317-1.512,0.506-1.717c0.929-0.23,1.913,0.507,2.672,0.957
					c0.482,0.285,1.131,0.582,1.645,0.973c4.902-6.806,14.895-7.357,22.432-4c0.175-0.184,0.361-0.359,0.556-0.547
					c0.418-0.403,0.851-0.787,1.295-1.16c0.46-0.387,1.13-0.41,1.56,0.047c0.32,0.34,0.424,0.941,0.135,1.338
					c-0.357,0.493-0.729,0.975-1.119,1.442l-0.077,0.097c4.185,2.527,7.172,6.387,7.272,11.069c0.497-0.01,0.965,0.226,1.426,0.396
					c0.46,0.172,0.917,0.35,1.371,0.535c1.238,0.505,0.73,2.228-0.582,1.981c-0.483-0.091-0.963-0.188-1.443-0.294
					c-0.314-0.068-0.645-0.12-0.953-0.22c0.017,2.348-0.479,4.622-1.389,6.721c0.919,0.145,1.771,0.58,1.959,1.372
					c0.119,0.502-0.188,1.073-0.713,1.182c-0.528,0.109-0.959-0.093-1.373-0.11c-0.498-0.021-0.785,0.092-1.271,0.136
					C192.576-85.693,188.137-82.684,182.51-81.825z M194.77-95.575c-0.025-0.147-0.023-0.303,0.039-0.469
					c0.073-0.196,0.117-0.387,0.181-0.581c0.541-3.196-0.013-6.746-1.853-10.338l-0.094-0.236
					c-6.609-7.965-23.846-9.068-26.537,3.26c-2.33,10.678,4.017,22.051,16.082,19.22C189.122-86.252,193.459-90.366,194.77-95.575z"
					/>
				<polygon fill="#CD7C13" points="216.277,-103.572 216.279,-103.576 216.291,-103.606 				"/>
				<path fill="#CD7C13" d="M216.291-103.606C216.363-103.775,216.339-103.724,216.291-103.606L216.291-103.606z"/>
				<path fill="#CD7C13" d="M222.182-110.258c1.473,4.789-0.42,9.24-4.145,12.461c-5.138,4.441-9.271,6.967-8.18,14.572
					c0.698,4.857,0.414,10.954-5.217,12.848c-2.377,0.799-4.357,0.424-6.635-0.549c-3.249-1.389-5.111-1.031-8.119,0.527
					c-0.193,0.1-0.385,0.153-0.566,0.171c-5.261,3.353-7.034,10.845-12.959,13.465c-7.019,3.103-15.715-5.446-17.078-11.743
					c-1.449-6.697-1.379-12.547-8.334-15.926c-3.994-1.941-8.681-5.375-9.573-10.088c-1.592-8.412,7.504-13.879,12.777-19.367
					l0.09-0.197c3.139-5.445,0.837-11.902,3.696-17.377c2.088-3.996,5.534-7.256,9.889-8.669c9.482-3.077,17.2,0.732,21.621,9.224
					c2.391,4.593,4.879,8.377,10.417,8.961c3.777,0.397,7.579-0.048,11.351,0.322C218.312-120.93,221.639-116.729,222.182-110.258z
					 M220.146-108.999c-0.303-2.64-0.903-5.417-2.516-7.342c-0.393,0.218-0.783,0.442-1.156,0.688
					c-0.653,0.43-1.195,0.986-1.929,1.269c-0.542,0.209-1.212-0.177-1.468-0.646c-0.238-0.435-0.184-0.895,0.037-1.32
					c0.379-0.736,1.359-1.277,2.079-1.649l0.174-0.08c-0.431-0.2-0.894-0.367-1.404-0.486c-3.202-0.744-6.49-0.454-9.747-0.456
					c-5.404-0.002-11.172-0.759-14.427-5.626c-0.802-1.197-1.492-2.56-2.191-3.937c-0.108,0.006-0.216,0.017-0.337-0.009
					c-0.682-0.139-1.36-0.299-2.045-0.418c-0.664-0.115-1.344-0.025-1.848-0.568c-0.465-0.501-0.397-1.216,0.051-1.695
					c0.609-0.651,1.559-0.395,2.309-0.184c0.139,0.038,0.273,0.086,0.41,0.128c-0.822-1.427-1.748-2.755-2.926-3.795
					c-1.78-1.569-4.071-2.563-6.488-2.979c0.039,0.223,0.076,0.443,0.121,0.645c0.139,0.594,0.251,1.221,0.217,1.832
					c-0.051,0.925-1.41,1.394-1.846,0.453c-0.285-0.615-0.514-1.264-0.722-1.91c-0.138-0.424-0.271-0.823-0.315-1.238
					c-2.246-0.012-4.486,0.452-6.424,1.416c-4.16,2.067-6.563,5.068-7.661,8.945c0.143,0.044,0.282,0.098,0.425,0.168
					c-0.283-0.138,0.253,0.102,0.303,0.122c0.213,0.089,0.427,0.177,0.641,0.265c0.828,0.34,1.684,0.646,2.482,1.049
					c0.953,0.48,0.473,2.172-0.601,2.042c-0.944-0.114-1.859-0.447-2.763-0.735c-0.34-0.109-0.688-0.198-1.02-0.32
					c-0.094,0.716-0.155,1.456-0.182,2.221c-0.137,3.871-0.548,7.288-2.562,10.666c-0.191,0.322-0.442,0.523-0.714,0.627
					c-3.094,4.29-9.974,8.459-11.602,13.254c0.53,0.284,1.022,0.677,1.521,0.988c0.795,0.5,1.613,0.971,2.393,1.495
					c1,0.674,0.322,2.39-0.888,1.983c-0.983-0.329-1.925-0.842-2.837-1.33c-0.146-0.078-0.305-0.155-0.464-0.234
					c0.197,1.275,0.827,2.597,2.058,3.979c0.732,0.825,1.555,1.495,2.422,2.085c0.181-0.234,0.357-0.473,0.496-0.738
					c0.335-0.646,0.629-1.337,0.814-2.041c0.283-1.069,2.01-0.821,1.934,0.297c-0.086,1.265-0.383,2.665-1.057,3.799
					c2.255,1.232,4.584,2.297,6.367,4.219c3.076,3.316,3.854,7.346,4.504,11.682c0.365,2.434,1.078,4.66,2.219,6.594
					c0.342-0.215,0.688-0.418,0.994-0.605c0.67-0.408,1.783-1.178,2.545-0.56c0.357,0.29,0.593,0.687,0.443,1.165
					c-0.076,0.248-0.187,0.451-0.391,0.615c-0.09,0.072-0.483,0.351-0.326,0.235c-0.363,0.265-0.592,0.418-0.923,0.674
					c-0.254,0.196-0.514,0.419-0.777,0.638c1.264,1.429,2.857,2.623,4.833,3.53c0.299,0.138,0.59,0.246,0.877,0.341
					c0.369-1.423,0.679-2.861,1.107-4.266c0.349-1.144,2.119-0.895,2.086,0.319c-0.04,1.401-0.217,2.838-0.51,4.231
					c1.711-0.242,3.191-1.32,4.557-2.962c3.531-4.249,6.087-9.3,11.325-11.56c2.741-1.734,5.934-1.119,9.042,0.177
					c4.809,2.005,8.93-1.215,8.375-6.528c-0.259-2.479-1.017-5.209-0.611-7.715c0.675-4.168,3.398-6.949,6.594-9.483
					c1.674-1.329,3.025-2.561,4.082-3.88c-0.09-0.143-0.18-0.287-0.274-0.429l-0.071-0.098c-0.129-0.02-0.253-0.063-0.363-0.132
					c-0.415-0.257-0.506-0.686-0.434-1.133c0.01-0.055,0.068-0.207,0.115-0.324c0.199-0.467,0.594-0.896,1.158-0.849
					c0.551,0.047,0.968,0.331,1.324,0.712C219.514-105.213,219.973-106.906,220.146-108.999z"/>
				<path fill="#CD7C13" d="M214.705-110.102c-0.598-0.194-1.385,0.039-1.954,0.114c-0.708,0.095-1.486,0.147-2.165,0.38
					c-0.555,0.189-0.971,0.613-0.98,1.231c-0.012,0.682,0.565,1.331,1.27,1.313c0.838-0.02,1.674-0.269,2.486-0.457
					c0.44-0.104,0.906-0.218,1.318-0.406c0.252-0.113,0.477-0.256,0.627-0.499l0.022-0.036
					C215.867-109.066,215.544-110.117,214.705-110.102z"/>
				<path fill="#CD7C13" d="M203.911-113.16c1.437,0.666,3.14,0.996,4.675,1.396c1.139,0.297,1.746-1.176,0.822-1.836
					c-1.33-0.951-3.194-1.68-4.807-1.905C203.385-115.674,202.797-113.678,203.911-113.16z"/>
				<path fill="#CD7C13" d="M203.904-109.229c-0.262,1.268-0.827,2.443-1.121,3.695c-0.387,1.645,1.946,2.332,2.513,0.739
					c0.452-1.276,0.659-2.769,0.666-4.12C205.969-110.065,204.15-110.42,203.904-109.229z"/>
				<path fill="#CD7C13" d="M211.016-103h-0.008c-0.628,0-1.351,0.209-1.967,0.284c-0.809,0.1-1.764,0.288-2.471,0.729
					c-0.625,0.39-0.908,1.22-0.54,1.895c0.386,0.707,1.149,0.871,1.834,0.602c-0.509,0.2,0.474-0.182,0.287-0.106
					c-0.267,0.106,0.251-0.073,0.3-0.089c0.396-0.119,0.801-0.211,1.205-0.299c0.512-0.112,1.121-0.441,1.605-0.698
					C212.42-100.932,212.207-103,211.016-103z"/>
				<path fill="#CD7C13" d="M203.713-95.167c-0.141-0.46-0.519-0.8-1.016-0.809c-0.535-0.009-1.133,0.468-1.082,1.046
					c0.066,0.775,0.238,1.49,0.515,2.217c0.327,0.863,0.673,1.889,1.62,2.208c0.73,0.247,1.543-0.369,1.537-1.13
					c-0.004-0.754-0.57-1.311-0.92-1.949C204.094-94.086,203.88-94.619,203.713-95.167z"/>
				<path fill="#CD7C13" d="M202.468-85.045c-0.724-0.773-1.937-0.977-2.945-1.114c-1.093-0.148-2.494-0.369-3.486,0.199
					c-0.965,0.552-0.809,1.984,0.247,2.321c0.888,0.282,1.948,0.016,2.88,0.045c0.854,0.025,1.667,0.334,2.509,0.35
					C202.601-83.226,203.098-84.371,202.468-85.045z"/>
				<path fill="#CD7C13" d="M203.891-79.23c-0.043-0.488-0.279-0.913-0.779-1.061c-0.514-0.151-1.254,0.15-1.349,0.735
					c-0.081,0.497-0.158,0.995-0.204,1.497c-0.047,0.542-0.211,1.181-0.012,1.697c0.164,0.423,0.394,0.757,0.855,0.893
					c0.486,0.143,1.172-0.046,1.406-0.537c0.281-0.588,0.258-1.053,0.215-1.679C203.986-78.201,203.935-78.715,203.891-79.23z"/>
				<path fill="#CD7C13" d="M193.879-82.129c-0.518-0.398-0.899-1.018-1.64-0.962c-0.499,0.038-1.063,0.31-1.171,0.86
					c-0.199,1.023,0.408,1.543,1.189,2.057c0.62,0.406,1.324,0.693,2.016,0.955c0.965,0.365,1.908-1.085,1.086-1.769
					C194.879-81.388,194.374-81.748,193.879-82.129z"/>
				<path fill="#CD7C13" d="M197.634-109.414c0.704,0.799,2.055,0.031,1.791-0.977c-0.198-0.756-0.52-1.486-0.765-2.229
					c-0.238-0.721-0.355-1.945-1.121-2.3c-0.588-0.271-1.297-0.226-1.662,0.39c-0.516,0.869,0.059,1.814,0.402,2.641
					C196.637-111.025,197.01-110.122,197.634-109.414z"/>
				<path fill="#CD7C13" d="M187.404-118.109c0.146-0.906,0.213-1.826,0.329-2.738c0.044-0.341,0.09-0.652,0.147-0.986
					c0.032-0.186,0.075-0.369,0.074-0.558c0-0.081-0.057-0.338-0.096-0.499c-0.219-0.812-1.402-1.301-2.022-0.585
					c-0.116,0.134-0.409,0.464-0.092,0.106c-0.275,0.312-0.403,0.617-0.44,1.027c-0.037,0.417-0.068,0.834-0.092,1.252
					c-0.055,0.945-0.14,2.023,0.157,2.938C185.658-117.27,187.223-116.977,187.404-118.109z"/>
				<path fill="#CD7C13" d="M187.859-122.891l0.006,0.012C187.807-123.107,187.824-123.039,187.859-122.891z"/>
				<path fill="#CD7C13" d="M179.312-126.109c0.663,0.891,2.277-0.005,1.905-1.039c-0.242-0.672-0.541-1.323-0.791-1.994
					c-0.292-0.783-0.462-1.631-0.854-2.371c-0.262-0.496-0.857-0.75-1.396-0.615c-0.717,0.178-0.999,0.837-0.913,1.512
					c0.104,0.816,0.522,1.625,0.849,2.375C178.438-127.488,178.82-126.77,179.312-126.109z"/>
				<path fill="#CD7C13" d="M168.652-132.178c0.8-0.704,1.568-1.076,2.621-1.318c1.189-0.271,0.971-2.086-0.238-2.104
					c-1.514-0.022-3.036,0.505-4.164,1.532C165.626-132.937,167.4-131.075,168.652-132.178z"/>
				<path fill="#CD7C13" d="M169.977-127.025c-0.4,0.928-0.936,1.701-1.57,2.486c-0.453,0.561-0.128,1.475,0.426,1.817
					c0.651,0.403,1.39,0.151,1.818-0.426c0.705-0.95,1.305-2.06,1.532-3.229C172.469-127.852,170.561-128.379,169.977-127.025z"/>
				<path fill="#CD7C13" d="M177.609-119.355c0.986,0.91,2.307-0.37,1.498-1.411c-0.543-0.7-1.062-1.415-1.619-2.104
					c-0.493-0.608-1.049-1.66-1.955-1.594c-0.521,0.037-1.031,0.312-1.17,0.861c-0.256,1.006,0.567,1.631,1.189,2.278
					C176.215-120.637,176.908-120.002,177.609-119.355z"/>
				<path fill="#CD7C13" d="M169.68-116.366c-0.05,0.835,0.756,1.276,1.479,1.179c0.324-0.045,0.577-0.236,0.781-0.478
					c0.083-0.103,0.135-0.164,0.171-0.208c0.08-0.098,0.164-0.195,0.248-0.291c0.32-0.365,0.67-0.691,0.973-1.072
					c0.215-0.273,0.186-0.726,0.028-1.014c-0.232-0.425-0.675-0.565-1.128-0.496c-0.584,0.089-1.061,0.486-1.51,0.845
					C170.206-117.488,169.724-117.082,169.68-116.366z"/>
				<path fill="#CD7C13" d="M161.514-116.066c0.369-0.315,0.57-0.542,0.959-0.758c0.375-0.208,0.768-0.355,1.178-0.475
					c0.451-0.129,0.781-0.512,0.79-0.991c0.011-0.52-0.456-1.11-1.021-1.058c-1.43,0.133-2.909,0.533-3.851,1.691
					c-0.352,0.434-0.197,1.163,0.154,1.537C160.213-115.599,160.99-115.617,161.514-116.066z"/>
				<path fill="#CD7C13" d="M158.801-104.576c-0.043-0.589-0.139-1.168-0.23-1.75c-0.105-0.676-0.143-1.399-0.322-2.058
					c-0.364-1.333-2.292-1.095-2.371,0.269c-0.07,1.23,0.418,2.613,0.77,3.783C156.986-103.202,158.898-103.285,158.801-104.576z"/>
				<path fill="#CD7C13" d="M152.877-102.775c-0.517-0.249-1.166-0.226-1.756-0.234c-1.079-0.016-2.519-0.126-3.18,0.883
					c-0.354,0.543-0.173,1.357,0.395,1.682c0.883,0.504,1.973,0.043,2.928-0.058c0.682-0.071,1.412-0.088,1.896-0.517
					C153.818-101.5,153.715-102.564,152.877-102.775z"/>
				<path fill="#CD7C13" d="M158.002-94.719c-0.221-0.645-0.662-0.992-1.138-1.447c-0.456-0.437-0.901-0.896-1.423-1.256
					c-0.422-0.29-1.033-0.199-1.395,0.141c-0.488,0.459-0.433,1.133-0.048,1.625c0.325,0.418,0.706,0.797,1.058,1.193
					c0.422,0.475,0.818,0.996,1.455,1.172C157.318-93.07,158.305-93.831,158.002-94.719z"/>
				<path fill="#CD7C13" d="M162.946-89.063l0.036,0.028c-0.018-0.144-0.077-0.285-0.164-0.414c-0.193-0.382-0.565-0.65-1.121-0.609
					c-1.193,0.091-2.49,0.114-3.602,0.6c-1.124,0.49-0.516,2.059,0.525,2.139c0.996,0.078,2.029-0.045,3.03-0.043
					C162.66-87.36,163.088-88.293,162.946-89.063z"/>
				<path fill="#CD7C13" d="M164.385-81.626c0.522-0.069,0.972-0.444,1.407-0.72c0.461-0.291,0.911-0.595,1.357-0.907
					c1.165-0.813,0.265-2.464-1.05-1.925c-0.448,0.184-0.895,0.369-1.334,0.572c-0.51,0.238-1.158,0.432-1.531,0.869
					C162.404-82.758,163.113-81.458,164.385-81.626z"/>
				<path fill="#CD7C13" d="M164.753-78.189c-0.676,1.059-1.076,2.23-1.552,3.383c-0.648,1.567,2.205,2.408,2.512,0.739
					c0.205-1.117,0.51-2.222,0.922-3.28C167.07-78.471,165.365-79.149,164.753-78.189z"/>
				<path fill="#CD7C13" d="M171.578-80.942c-0.453-1.269-2.264-0.848-2.039,0.505c0.217,1.307,0.555,2.592,0.812,3.891
					c0.314,1.578,2.903,0.927,2.412-0.598C172.357-78.406,172.025-79.694,171.578-80.942z"/>
				<path fill="#CD7C13" d="M171.127-72.382c-1.155,0.062-2.411,0.079-3.541,0.326c-0.676,0.147-1.092,0.882-0.928,1.539
					c0.181,0.728,0.852,1.017,1.539,0.928c1.044-0.135,2.162-0.353,3.172-0.653C172.501-70.578,172.408-72.451,171.127-72.382z"/>
				<path fill="#CD7C13" d="M187.51-79.313c-0.367-0.47-0.668-1.159-1.222-1.454c-0.764-0.408-1.731,0.039-1.756,0.957
					c-0.021,0.756,0.597,1.319,1.072,1.835c0.522,0.567,1.071,1.11,1.589,1.681c0.771,0.851,2.266-0.197,1.641-1.19
					C188.432-78.125,187.975-78.72,187.51-79.313z"/>
				<path fill="#CD7C13" d="M181.664-76.089c-0.867,0.534-1.771,0.778-2.768,0.944c-0.698,0.117-1.109,0.928-0.949,1.574
					c0.176,0.703,0.881,1.096,1.573,0.947c1.259-0.267,2.428-0.902,3.403-1.728C183.863-75.145,182.709-76.733,181.664-76.089z"/>
				<path fill="#CD7C13" d="M179.524-68.051c-1.087-0.518-2.095-1.32-3.007-2.1c-1.011-0.861-2.279,0.346-1.488,1.402
					c0.81,1.083,1.842,1.84,2.794,2.779C179.326-64.484,181.201-67.252,179.524-68.051z"/>
				<path fill="#CD7C13" d="M85.04-330h2.935c-0.148,1.306-0.232,2.673-0.195,4.155c0.938,0.252,1.883,0.451,2.83,0.649
					c0.142-1.76,0.47-3.346,0.932-4.805h3.129c-0.724,1.553-1.301,3.32-1.707,5.34c0.729,0.184,1.451,0.389,2.162,0.655
					c1.059-2.039,2.52-3.896,3.398-5.995h6.092c0.898,0.724,1.822,1.42,2.705,2.166c0.504-0.757,1.062-1.471,1.646-2.166h3.687
					c-1.235,1.261-2.485,2.51-3.631,3.856c0.215,0.41,0.174,0.835-0.016,1.196c5.053,10.618,8.844,22.14,12.988,33.112
					c1.746-0.35,3.504-0.664,5.267-0.962c-2.522-11.38-3.788-23.108-6.033-34.567l-0.133-0.144
					c-0.614-0.932-1.352-1.731-2.127-2.491h5.887c-0.423,0.626-0.805,1.278-1.108,1.982c3.141,11.198,5.227,23.175,6.486,34.741
					c2.557-0.39,5.121-0.725,7.686-1.015c-0.182-6.426,0.37-12.894,0.35-19.327c-0.018-5.458-0.455-10.928-0.504-16.381h2.625
					c0.982,5.438,0.886,11.237,0.905,16.69c0.022,6.19,0.178,12.527-0.415,18.701c2.046-0.201,4.087-0.362,6.123-0.502
					c-0.014-0.179-0.006-0.365,0.045-0.562c2.915-11.248,3.335-23.107,6.276-34.327h2.782c-1.521,11.591-3.075,23.375-5.934,34.689
					c2.628-0.142,5.24-0.24,7.823-0.283c1.243-11.515,3.28-22.938,4.945-34.407h2.91c-1.044,11.822-3.522,23.55-4.853,35.326
					c0.257,0.936-0.356,2.23-1.658,2.252c-9.42,0.152-18.801,1.053-28.104,2.534c-8.904,1.417-17.75,3.681-26.695,4.727
					c-0.767,0.09-1.311-0.688-1.213-1.317c-0.094-0.073-0.183-0.16-0.261-0.273c-7.673-11.139-14.125-24.575-18.291-37.484
					c-0.597-0.335-0.646-0.958-0.396-1.465c0.028-0.486,0.358-0.866,0.752-1.029C85.033-327.872,85.016-328.953,85.04-330z
					 M97.629-322.435c5.893,10.394,11.809,21.227,15.789,32.521c1.83-0.468,3.68-0.903,5.54-1.31
					c-5.235-10.549-8.945-22.344-12.788-33.481c-1.529-1.56-3.312-2.787-4.926-4.228C100.219-326.678,98.695-324.724,97.629-322.435
					z M87.809-323.019c5.271,11.96,11.629,23.156,17.562,34.804c0.096,0.187,0.136,0.372,0.137,0.553
					c1.637-0.52,3.299-1.004,4.974-1.469c-4.082-10.93-10.26-20.784-14.841-31.468c-0.102-0.019-0.202-0.049-0.301-0.098
					C92.95-321.898,90.32-322.267,87.809-323.019z"/>
				<path fill="#CD7C13" d="M101.779-2.685c-0.898-1.079-2.41-0.413-2.659,0.813C98.988-1.219,98.776-0.602,98.523,0h6.092
					C103.603-0.817,102.623-1.672,101.779-2.685z"/>
				<path fill="#CD7C13" d="M166.284-6.969c-0.074,2.327-0.229,4.65-0.434,6.969h-2.91c0.243-1.674,0.479-3.35,0.702-5.025
					c-2.238,1.422-4.947,2.21-7.172,3.629l-0.195,0.104c-0.057,0.43-0.113,0.862-0.17,1.293h-2.782
					c0.187-0.713,0.383-1.424,0.591-2.131c-1.344-2.652-3.715-4.518-5.324-6.982c-2.766,1.953-5.792,3.589-8.298,5.857
					c0.146,0.466,0.015,0.977-0.282,1.376c0.146,0.62,0.266,1.249,0.379,1.88h-2.625c-0.004-0.496-0.024-0.992-0.021-1.488
					c-2.611-1.686-5.506-2.834-8.203-4.361c-1.416,2.057-3.295,3.793-4.685,5.85h-5.887c-1.106-1.085-2.292-2.087-3.317-3.26
					c-0.938,1.141-1.963,2.204-2.998,3.26h-3.687c1.833-2.183,3.929-4.162,5.476-6.588c0.662-1.039,2.025-0.652,2.566,0.234
					c1.279,2.102,3.316,3.447,5.004,5.15c1.738-2.672,4.2-4.833,5.737-7.68c0.418-0.774,1.532-0.783,2.179-0.367
					c2.723,1.752,5.758,2.901,8.562,4.502c2.674-3.156,6.604-4.949,9.611-7.771c0.715-0.671,1.955-0.33,2.342,0.523
					c0.103,0.225,0.225,0.434,0.342,0.646c1.818-1.11,3.699-2.148,5.602-3.116c-0.355-2.372-0.95-4.579-1.807-6.586
					c-1.918,1.861-4.363,2.965-7.067,3.357c-1.59,0.23-1.954-2.079-0.411-2.439c2.375-0.553,4.576-1.684,6.068-3.646
					c-2.023-3.273-4.96-5.826-9.002-7.414c0.056,0.684,0.081,1.385,0.039,2.125c0.362,0.732,0.23,1.672-0.762,2.098
					C125.366-19.197,90.771-24.76,87.975,0H85.04c0.223-9.504,5.372-15.162,12.743-18.829c-3.605-7.589-2.703-14.996,2.724-21.69
					c5.38-6.637,13.122-12.568,11.763-22.072c-0.129-0.906,0.617-1.375,1.297-1.279c0.795-0.15,1.725,0.21,1.965,1.221
					c3.164,13.318,24.351,15.984,28.116,28.637c8.025,1.67,13.921,8.468,15.372,16.371c4.4,1.049,7.514,4.456,8.195,9.121
					C167.335-7.701,166.873-7.162,166.284-6.969z M141.773-29.837c-0.836-2.445-1.967-4.503-3.321-6.321
					c-8.99,6.058-20.865,7.461-31.345,8.84c-1.904,0.25-2.383-2.564-0.495-2.939c10.372-2.057,20.78-2.814,30.151-7.925
					c-3.047-3.289-6.914-5.81-11.143-8.622c-4.168-2.771-8.25-5.756-10.871-9.836c-0.911,5.07-4.325,9.386-7.957,13.463
					c-0.996,1.117-1.922,2.217-2.777,3.311c1.565-0.066,3.187,0.066,4.691,0.12c2.34,0.084,4.686,0.175,7.006,0.491
					c1.225,0.168,1.415,2.221,0.074,2.271c-2.453,0.092-4.913,0.061-7.367,0.049c-2.043-0.01-4.233,0.246-6.252-0.055l-0.163-0.056
					c-3.262,5.092-4.417,10.313-1.366,16.937C113.33-25.267,130.857-25.894,141.773-29.837z M164.092-8.996
					c-0.826-2.699-2.359-4.634-4.762-5.777c0.008,0.203,0.031,0.403,0.034,0.607c0.003,0.173-0.03,0.325-0.08,0.464
					c-0.015,0.315-0.153,0.624-0.474,0.856c-2.002,1.455-4.199,2.666-6.354,3.899c1.175,1.403,2.501,2.689,3.549,4.197
					c2.481-1.348,5.149-2.341,7.464-3.976C163.678-8.872,163.887-8.95,164.092-8.996z"/>
				<path fill="#CD7C13" d="M137.681-14.35c1.646-0.535,0.74-3.117-0.884-2.842C122.053-14.693,96.856-16.821,91.541,0h3.129
					C101.77-15.26,123.081-9.607,137.681-14.35z"/>
				<path fill="#CD7C13" d="M127.391-190.342c0.008-0.156,0.033-0.31,0.047-0.465c-6.207-2.456-15.249-6.202-16.324-13.788
					c-0.536-3.785,0.451-7.542,2.039-11.132l-0.154-0.133c-6.166-6.465-5.429-14.242-2.274-21.618
					c-3.562-7.577,0.24-17.155,4.537-23.609c4.458-6.695,10.888-13.355,19.086-14.973c0.866-0.171,1.683,0.627,1.587,1.488
					c-0.445,3.946-1.404,7.805-1.336,11.785c4.4,1.406,7.193,6.655,9.034,10.5c2.03-0.379,4.099-0.293,5.837,0.601
					c4.299,2.211,6.783,6.601,10.54,9.537c0.146,0.114,0.249,0.24,0.32,0.37c2.501-0.268,4.962,0.366,7.396,1.37
					c0.297-0.149,0.67-0.168,1.096,0.028c3.557,1.647,7.292,3.739,9.785,6.785c3.752-0.777,8.935-2.4,12.446-0.765
					c1.345,0.625,2.399,1.516,3.256,2.573c4.755-2.434,10.446-2.776,14.162,1.245c3.96-3.348,6.678-7.833,10.704-11.138
					c0.545-0.447,1.525-0.405,1.941,0.216c8.904,13.341,7.373,36.759-8.777,43.92c-1.967,8.924-6.931,16.713-17.178,17.536
					c-0.844,1.488-1.834,2.874-3.017,4.098c-5.448,5.633-12.714,5.238-19.411,2.286c-2.163,2.093-4.9,3.451-8.301,3.385
					c-9.072-0.177-17.464-5.521-25.395-9.354C134.748-181.667,127.093-184.35,127.391-190.342z M209.901-228.613
					c3.345,5.507,3.407,13.691,3.5,19.784c0.038,2.488-0.09,5.075-0.427,7.635c12.016-7.117,13.312-25.776,6.752-37.282
					C216.482-235.345,213.83-230.799,209.901-228.613z M195.514-229.981c0.754,1.354,1.32,2.85,1.824,4.359
					c2.917,8.712,2.591,19.09,2.113,28.162c-0.238,4.539-0.939,9.577-2.688,14.068c10.434-2.344,13.553-13.491,13.63-23.7
					c0.044-5.881,0.003-12.957-2.288-18.475C205.529-231.771,200.859-231.24,195.514-229.981z M180.086-231.391
					c0.498,0.937,0.889,1.949,1.136,3.05c1.538,6.882,0.104,14.719-0.122,21.728c-0.268,8.295-0.5,17.202-3.464,25.063
					c-0.739,1.964-1.712,3.901-2.933,5.609c6.217,2.437,12.846,2.302,16.908-3.977c0.302-0.464,0.578-0.94,0.846-1.421
					c-0.132-0.652,0.105-1.326,0.797-1.552c2.302-4.882,3.137-10.424,3.348-15.779c0.303-7.634,0.415-15.62-1.186-23.131
					c-0.735-3.454-2.165-9.935-6.535-10.336C185.969-232.402,183.006-231.795,180.086-231.391z M153.083-234.143
					c-6.929,8.502-11.804,18.414-16.558,28.234c-1.861,3.846-3.947,7.669-5.434,11.683c-0.867,2.341-1.736,5.026,0.285,7.035
					c2.595,2.579,6.268,3.876,9.492,5.453c3.77,1.844,7.512,3.779,11.396,5.371c7.218,2.959,16.264,5.914,20.926-2.469
					c3.791-6.817,4.38-15.301,4.758-22.941c0.338-6.823,0.837-13.778,0.867-20.605c0.033-8.184-4.178-11.69-11.006-15.374
					c-0.13-0.07-0.236-0.156-0.332-0.247c-1.627-0.68-3.289-1.229-4.946-1.373C158.525-239.72,155.486-237.093,153.083-234.143z
					 M112.305-240.784c2.342-4.466,5.348-8.681,7.959-12.232c2.553-3.472,6.605-9.688,11.6-10.105
					c0.025-3.296,0.627-6.497,1.084-9.756C120.99-269.204,110.422-253.232,112.305-240.784z M114.482-218.467
					c1.469-2.793,3.173-5.457,4.65-7.912c5.059-8.409,10.178-17.947,18.579-23.49c1.017-0.67,2.229-1.289,3.527-1.758
					c-1.999-3.419-5.75-10.538-10.278-8.348c-4.555,2.201-7.777,7.501-10.488,11.562
					C114.725-239.802,106.519-227.947,114.482-218.467z M128-193.648c0.604-2.024,1.555-3.976,2.432-5.848
					c2.404-5.137,4.908-10.248,7.507-15.289c2.72-5.28,5.534-10.572,8.927-15.458c2.408-3.471,5.119-7.615,8.807-9.896
					c0.674-0.417,1.344-0.74,2.01-0.995c-3.174-2.417-5.609-6.691-9.201-7.981c-4.772-1.715-9.54,1.182-12.882,4.419
					c-5.911,5.729-10.005,12.985-14.229,19.968c-3.127,5.17-8.507,12.6-7.583,19.09C114.741-198.931,122.344-195.853,128-193.648z"
					/>
				<path fill="#CD7C13" d="M183.745-264.869c-4.618-6.764-8.925-16.946-7.177-25.325c1.235-5.924,5.68-9.677,10.57-12.706
					c0.121-0.159,0.276-0.306,0.48-0.428c7.292-4.352,14.275-9.377,21.907-13.132c6.159-3.03,13.472-5.718,20.378-3.674
					c8.631,2.555,13.818,10.063,18.236,17.419c2.686,4.473,6.784,11.007,3.301,16.17c-1.635,2.424-3.856,4.534-6.347,6.409
					c3.725,6.42,6.946,13.084,11.013,19.308c0.327-0.099,0.75,0.008,1.027-0.141l0.013-0.006c0.269-0.144,0.517-0.2,0.763-0.142
					c10.215-0.415,21.133,19.932,11.916,25.137c-0.309,0.433-0.881,0.66-1.435,0.624c-9.929,3.204-21.401-15.938-14.556-23.59
					c-4.299-6.151-7.681-12.979-10.918-19.746c-3.607,2.466-7.494,4.642-10.711,6.943
					C218.793-262.149,196.873-245.636,183.745-264.869z M259.172-257.908c3.989,5.742,7.754,11.668,10.041,18.279
					C272.627-244.268,265.65-256.648,259.172-257.908z M258.818-253.532c1.067,5.248,3.604,9.711,7.199,14.015
					C264.18-244.473,261.467-248.964,258.818-253.532z M257.087-245.927c0.838,1.403,2.282,3.597,4.022,5.321
					c-3.385-4.627-5.457-10.388-5.424-16.039C253.789-253.568,255.158-249.159,257.087-245.927z M179.1-286.08
					c0.527,8.61,4.766,20.624,12.727,25.161c9.171,5.229,19.189-0.217,27.062-5.357c8.148-5.318,16.135-11.036,24.06-16.682
					c1.172-0.835,2.655-1.826,3.919-2.983c-1.449-2.058-2.486-4.301-3.143-6.763c-0.32-1.207,1.636-1.98,2.09-0.782
					c0.707,1.863,1.708,3.725,2.871,5.398c0.258-0.428,0.484-0.866,0.621-1.331c0.813-2.781-0.511-5.623-1.814-8.043
					c-3.916-7.269-9.156-16.851-17.68-19.365c-7.152-2.111-14.326,0.739-20.592,4.15c-6.881,3.744-13.336,8.203-20.088,12.168
					c-0.457,0.268-0.894,0.281-1.262,0.137C182.945-296.941,178.695-292.67,179.1-286.08z"/>
				<path fill="#CD7C13" d="M187.436-276.696c-0.121-0.081-0.232-0.19-0.329-0.337c-8.163-12.348,6.528-20.885,16.072-25.365
					c0.632-0.297,1.22-0.133,1.626,0.23c0.356,0.054,0.681,0.254,0.855,0.652c4.904,11.105-7.401,21.858-16.898,25.179
					C188.207-276.144,187.743-276.336,187.436-276.696z M188.432-279.373c7.58-3.947,17.174-10.402,15.158-19.937
					C195.094-295.131,184.91-289.957,188.432-279.373z"/>
				<path fill="#CD7C13" d="M228.123-309.536c5.714,1.651,8.402,6.723,11.368,11.376c0.892,1.4,2.963,0.299,2.271-1.22
					c-2.495-5.467-6.856-11.026-13.059-12.085C227.461-311.677,226.838-309.907,228.123-309.536z"/>
				<path fill="#CD7C13" d="M222.848-285.172c-2.252-2.128-1.382-5.015,0.934-6.651l0.1-0.043c0.85-0.837,2.049-1.33,3.311-1.487
					c0.381-1.15,0.777-2.292,1.244-3.402c0.453-1.083,2.375-0.998,2.195,0.364c-0.146,1.093-0.395,2.17-0.676,3.242
					c1.179,0.331,2.223,0.979,2.862,1.953c1.685,2.565,0.596,6.363-2.294,7.456c-1.131,0.427-2.41,0.54-3.658,0.375
					c-0.371,1.037-0.789,2.046-1.311,2.974c-0.777,1.381-2.625,0.311-2.361-1.055c0.186-0.963,0.482-1.923,0.822-2.877
					C223.598-284.569,223.197-284.842,222.848-285.172z M227.762-286.119c0.416,0.011,0.829-0.025,1.227-0.128
					c1.188-0.309,2.271-1.66,1.508-3.086c-0.304-0.571-0.789-0.897-1.352-1.055c-0.256,0.788-0.518,1.573-0.777,2.352
					C228.16-287.413,227.963-286.77,227.762-286.119z M224.829-287.064l0.19,0.114c0.246-0.631,0.488-1.262,0.702-1.885
					c0.137-0.403,0.267-0.81,0.399-1.217c-0.514,0.211-0.974,0.474-1.318,0.747c-0.168,0.133-0.339,0.201-0.51,0.242
					C223.977-288.326,224.002-287.62,224.829-287.064z"/>
				<path fill="#CD7C13" d="M254.076-220.925c-4.5,1.695-3.098,5.159-0.27,7.109c-9.305,7.117-16.83,17.124-24.057,26.205
					c-0.502,0.632-0.139,1.409,0.447,1.795c5.992,13.304,13.162,26.167,19.38,39.391c6.304,13.411,12.674,26.824,20.249,39.577
					c0.455,0.767,1.285,0.86,1.922,0.574c9.533-0.739,18.886-2.759,28.252-4.648v-2.504c-9.341,1.472-18.547,3.794-28.002,4.548
					c-0.83-1.43-1.629-2.875-2.434-4.318c3.258-0.69,6.553-1.295,9.732-2.27c1.334-0.41,0.959-2.346-0.444-2.133
					c-3.566,0.539-7.155,1.128-10.677,1.926c-1.145-2.093-2.27-4.195-3.375-6.309c5.599-1.738,11.361-2.846,16.955-4.588
					c1.364-0.426,0.986-2.411-0.456-2.189c-6.013,0.921-12.021,2.351-17.815,4.223c-1.999-3.883-3.954-7.789-5.862-11.719
					c4.929-0.535,10.765-1.104,15.03-3.391c1.003-0.539,0.472-2.238-0.683-1.93c-5.027,1.344-10.704,1.033-15.622,2.68
					c-1.023-2.129-2.043-4.26-3.054-6.396c3.8-1.963,7.542-4.014,11.411-5.853c1.115-0.53,0.479-2.396-0.73-2.062
					c-4.193,1.158-8.063,3.298-11.892,5.356c-1.308-2.777-2.593-5.605-3.885-8.446c5.018-2.286,9.876-4.974,14.888-7.28
					c1.126-0.519,0.463-2.486-0.736-2.083c-5.229,1.753-10.485,4.081-15.311,6.82c-1.438-3.155-2.892-6.32-4.408-9.45
					c2.559-1.432,4.825-3.59,7.12-5.393c2.905-2.282,5.83-4.56,8.594-7.012c1.011-0.897-0.339-2.233-1.379-1.5
					c-2.686,1.894-5.3,3.889-7.944,5.841c-2.462,1.817-5.344,3.549-7.538,5.728c-1.409-2.829-2.872-5.622-4.431-8.343
					c4.236-4.446,7.148-10.035,11.932-13.97c0.853-0.701-0.199-2.248-1.121-1.609c-5.078,3.515-8.086,8.8-12.165,13.275
					c-1.093-1.815-2.227-3.598-3.421-5.328c7.596-9.033,15.043-17.935,23.6-26.085c4.507,3.003,2.918,5.745,2.146,10.417
					c-0.484,2.941-0.296,6.339,1.627,8.786c1.867,2.375,4.458,3.549,7.159,4.742c5.056,2.233,6.431,5.142,4.927,10.473
					c-0.768,2.727-0.986,5.937,0.787,8.352c2.767,3.767,7.725,4.97,11.242,7.999c6.835,5.883-5.764,13.046,1.412,19.188
					c0.348,0.298,0.736,0.41,1.101,0.389c2.056,2.006,4.488,3.375,6.97,4.949c4.344,2.751,3.854,8.273,2.334,12.554
					c-1.657,4.663,1.027,7.286,4.418,9.358v-3.39c-0.872-0.751-1.574-1.687-1.961-2.974c-0.37-1.235,0.844-3.486,1.14-4.689
					c0.443-1.803,0.396-3.764,0.305-5.6c-0.175-3.547-2.215-5.803-4.774-7.67l-0.07-0.072c-1.621-1.417-3.584-2.437-5.49-3.51
					c-0.701-0.464-1.377-0.942-1.998-1.455c-2.744-3.354-0.087-6.004,1.291-9.391c1.113-2.74,0.543-6.555-1.508-8.72
					c-1.449-1.53-3.07-2.753-4.739-4.034c-2.087-1.6-4.716-1.981-6.673-3.831c-3.763-3.56,0.799-8.73-0.051-12.859
					c-1.656-8.052-12.368-6.542-14.67-13.728c-1.138-3.555,0.891-7.112,1.084-10.649c0.146-2.68-1.6-4.52-3.668-5.839
					c-0.074-0.295-0.297-0.555-0.713-0.674c-1.297-0.373-2.355-0.873-3.348-1.816c-2.384-2.265,3.123-2.324,3.957-2.127
					c2.643,0.624,4.727,2.976,6.371,4.974c3.156,3.838,4.104,7.248,3.29,12.013c-0.53,3.109,1.312,6.539,4.251,7.792
					c2.838,1.21,5.121,1.675,7.176,4.203c2.727,3.354,2.32,7.048,1.258,10.91c-0.088,0.32-0.078,0.604-0.006,0.846
					c-0.5,5.294,3.96,7.862,8.471,10.06c7.512,3.662,0.622,11.607,3.276,17.569c1.598,3.588,4.874,5.279,7.8,7.366v-3.35
					c-1.327-0.882-2.643-1.815-3.797-3.003c-2.947-3.035-1.668-6.97-0.796-10.47c0.551-2.21,0.211-4.147-0.548-6.234
					c-0.856-2.351-3.292-3.745-5.4-4.755c-3.75-1.797-5.488-3.384-6.461-6.924c0.05-0.075,0.096-0.155,0.137-0.245
					c2.562-5.723,0.634-14.804-5.936-17.156c-2.648-0.947-4.998-1.426-6.482-4.109c-0.82-1.482,0.288-3.764,0.498-5.337
					c0.377-2.812-1.396-5.878-2.766-8.176c-0.396-0.666-0.867-1.366-1.39-2.07c11.369,5.193,23.242,9.537,32.94,16.56v-3.923
					c-11.104-7.625-24.748-12.458-36.885-16.791C260.457-220.875,257.289-222.136,254.076-220.925z"/>
				<path fill="#CD7C13" d="M294.467-192.553c-0.7,1.58,1.635,2.268,2.67,2.655c0.936,0.349,1.891,0.697,2.863,0.953v-2.894
					c-0.658-0.276-1.32-0.544-1.972-0.833C296.852-193.195,295.225-194.261,294.467-192.553z"/>
				<path fill="#CD7C13" d="M300-173.788v-2.578C298.767-175.844,299.076-174.406,300-173.788z"/>
				<path fill="#CD7C13" d="M15.687-112.168c0.639-1.683,0.599-3.253,0.114-4.688c0.037-0.117,0.066-0.244,0.076-0.385
					c0.41-6.064-0.465-11.964,0.371-18.041c0.76-5.52,2.298-10.908,3.579-16.32c2.173-9.186,2.671-17.965-0.622-26.954
					C15.496-188.676,8.49-196.135,0-201.964v3.922c7.021,5.084,12.904,11.57,16.623,20.812c3.834,9.526,1.752,19.401-0.617,28.97
					c-1.052,4.246-2.027,8.495-2.696,12.818c-0.757,4.887-0.325,9.672-0.296,14.521c-1.317-1.249-2.886-2.296-4.395-3.099
					c-0.062-0.174-0.156-0.348-0.298-0.512c-3.088-3.594,0.772-9.745-0.86-14.086c-1.426-3.792-4.475-5.52-7.461-7.505v3.35
					c1.726,1.231,3.331,2.6,4.394,4.579c2.725,5.069-2.628,10.834,1.623,15.78c0.451,0.523,1.015,0.614,1.512,0.452
					c0.927,0.969,2.167,1.704,3.163,2.539c1.561,1.308,2.521,3.091,2.475,5.163c-0.025,1.181-0.744,2.133-1.965,2.159
					c-1.057,0.023-1.976-0.487-2.819-1.125l0.005-0.066l-0.003-0.076l-0.006-0.046l-0.038-0.179
					c-0.079-0.301-0.248-0.59-0.539-0.829c-2.292-1.876-5.603-2.554-7.801-4.448v3.391c0.934,0.57,1.917,1.102,2.882,1.618
					c-0.963,0.13-1.922,0.282-2.882,0.434v2.504c1.765-0.356,3.531-0.708,5.298-1.046C8.016-108.987,13.905-107.469,15.687-112.168z
					"/>
				<path fill="#CD7C13" d="M1.97-190.944c-0.642-0.327-1.304-0.615-1.97-0.895v2.894c0.411,0.108,0.823,0.204,1.241,0.27
					C2.444-188.484,3.048-190.393,1.97-190.944z"/>
				<path fill="#CD7C13" d="M1.509-173.604c2.199-0.797,4.206-2.217,5.973-3.729c1.129-0.965-0.227-2.977-1.513-2.169
					c-1.89,1.188-3.796,2.322-5.896,3.101c-0.027,0.01-0.047,0.024-0.073,0.036v2.578C0.411-173.512,0.94-173.398,1.509-173.604z"/>
				<path fill="#CD7C13" d="M12.199-159.64c0.432-1.224,0.449-2.638,0.701-3.915c0.248-1.265,0.534-2.52,0.739-3.793
					c0.175-1.087-1.579-1.661-2.065-0.664c-0.567,1.164-0.996,2.352-1.334,3.601c-0.357,1.323-0.884,2.88-0.831,4.254
					C9.471-158.569,11.635-158.04,12.199-159.64z"/>
				<path fill="#CD7C13" d="M61.614-170.264c-2.134-0.271-3.563-0.716-4.837-1.99c-7.189,3.926-15.696-4.652-19.676-10.136
					c-6.207-8.549-9.265-18.799-14.111-28.08c-3.969-7.597-8.951-15.062-11.059-23.468c-1.58-6.291-1.362-14.528,4.729-18.183
					c-0.441-1.009-0.768-2.136-0.627-3.225c0.122-0.95,0.408-1.645,0.896-2.28c0.897-2.475,3.807-1.59,6.365,0.043
					c0.957-5.191,6.85-8.416,11.991-7.76c-0.416-1.98-0.47-4.063,0.802-5.278c2.574-2.462,6.539,0.111,8.953,1.811
					c0.166-0.035,0.34-0.033,0.506,0.001c15.436-10.219,28.75,18.981,34.24,28.821c5.053,9.053,11.684,17.147,15.453,26.901
					c1.548,4.005,2.667,8.664,1.695,12.95c-1.166,5.149-4.567,7.839-8.607,10.907l-0.135,0.083c0.035,2.542-0.262,6.916-3.568,6.7
					c-1.405-0.092-2.698-0.753-3.875-1.638c-2.305,5.647-8.746,8.114-14.58,8.19c0.468,2.969-0.234,5.433-3.683,5.466
					C62.261-170.288,61.97-170.219,61.614-170.264z M37.714-267.513c0.087,1.525,0.481,3.036,0.981,4.475
					c1.271,3.667,3.092,7.023,4.871,10.46c5.395,10.418,10.94,20.74,16.428,31.105c4.779,9.029,9.449,18.383,15.324,26.766
					c1.688,2.41,3.518,4.824,5.651,6.861c0.868,0.83,2.005,2.083,3.238,2.391c1.247,0.312,1.149-2.597,1.067-3.991
					c-2.565-2.465-4.7-5.39-6.759-8.277c-0.697-0.98,0.543-2.267,1.409-1.32c2.247,2.456,4.408,4.971,6.709,7.375
					c3.967-2.997,7.644-5.899,7.675-11.364c0.026-4.61-1.591-9.061-3.614-13.149C86.91-223.83,81.688-230.568,77.549-238
					c-5.425-9.744-16.385-36.11-31.246-28.432c-0.305,8.326,4.285,16.983,8.049,24.042c4.003,7.51,9.398,14.359,13.232,21.901
					c0.676,1.333-1.156,2.712-2.174,1.546c-2.852-3.274-5.045-7.413-7.291-11.112c-2.803-4.615-5.518-9.3-7.885-14.155
					c-3.17-6.503-7.637-15.076-6.235-22.641C42.357-267.827,37.528-270.775,37.714-267.513z M25.566-255.873
					c0.584,0.515,1.082,1.023,1.443,1.467c7.984,9.852,12.172,22.996,17.783,34.245c6.34,12.712,13.09,25.22,19.259,38.015
					c0.526,1.091,1.041,2.316,1.446,3.554c0.15-0.057,0.313-0.094,0.5-0.098c5.533-0.105,10.094-2.238,12.934-7.003
					c-0.676-0.683-1.301-1.39-1.858-2.039c-8.563-9.96-14.364-22.378-20.431-33.92c-4.094-7.788-8.352-15.471-12.324-23.325
					c-2.747-5.431-5.979-10.799-7.92-16.598c-0.12-0.358-0.265-0.78-0.414-1.237c-4.395-0.353-9.48,1.31-10.146,6.27
					C25.803-256.272,25.701-256.053,25.566-255.873z M62.026-173.341c3.913-0.062-0.428-7.279-1.3-9.055
					c-1.822-3.715-3.674-7.417-5.553-11.103c-4.037-7.915-8.16-15.789-12.123-23.743c-3.857-7.745-7.266-15.702-11.119-23.443
					c-1.964-3.948-3.967-8.524-6.911-11.859c-0.541-0.613-5.856-6.076-6.225-2.755c-0.017,0.145-0.056,0.271-0.108,0.384
					c0.043,0.713,0.259,1.429,0.597,2.083c0.056,0.11,0.093,0.217,0.118,0.325c1.379,3.851,3.438,7.341,4.936,11.13
					c0.559,1.412-1.223,2.34-2.072,1.089c-1.862-2.737-3.721-5.935-4.652-9.248c-1.984,2.093-3.568,4.27-3.747,7.468
					c-0.196,3.509,0.569,6.967,1.759,10.259c2.452,6.795,6.271,12.911,9.599,19.285c3.817,7.309,6.528,15.151,10.515,22.377
					c2.156,3.908,4.556,7.862,7.865,10.916c2.623,2.417,7.521,6.2,11.296,4.654c-3.876-4.35-6.62-11.506-8.184-14.933
					c-0.71-1.556,1.61-2.799,2.363-1.242C51.691-185.336,55.092-174.42,62.026-173.341z"/>
				<path fill="#CD7C13" d="M28.902-233.255c-0.443-1.004-2.166-0.387-1.824,0.665c3.744,11.484,8.68,22.932,15.43,32.979
					c0.902,1.341,3.155,0.174,2.243-1.179C37.947-210.884,33.789-222.195,28.902-233.255z"/>
				<path fill="#CD7C13" d="M35.189-322.979c3.211-0.944,5.45-3.551,7.592-5.979c0.254-0.288,0.572-0.646,0.938-1.042h-4.266
					c-1.104,1.222-2.144,2.318-3.117,3.076c-3.582,2.79-6.768,0.244-8.2-3.076h-3.247C26.234-325.471,29.987-321.451,35.189-322.979
					z"/>
				<path fill="#CD7C13" d="M31.352-288.258c3.82,1.577,7.653,3.295,11.686,4.271c2.328,0.563,5.522,1.324,7.641-0.289
					c3.079-2.349,4.535-6.107,5.791-9.647c3.793-10.689,4.783-15.328,9.669-25.625c1.175,0.151,2.34,0.192,3.417,0.146l0.092-0.013
					c0.633-0.013,1.258-0.389,1.37-1.192c0.253-1.802,0.584-3.555,0.787-5.338c0.213-0.153,0.384-0.393,0.479-0.734
					c0.311-1.124,0.667-2.228,1.039-3.322h-3.111c-0.27,0.755-0.516,1.493-0.714,2.204c-0.098,0.353-0.073,0.68,0.03,0.965
					c-0.375,1.439-0.73,2.877-1.018,4.34c-2.868-0.359-5.773-0.689-7.727-3.151c-0.97-1.222-1.541-2.805-2.029-4.357h-3.122
					c0.722,2.154,1.354,4.336,2.64,6.307c1.096,1.681,2.815,2.765,4.734,3.428c-2.146,4.499-3.543,7.458-4.766,10.571
					c-17.973-7.171-36.25-13.454-54.459-19.984C3.488-329.783,3.2-329.895,2.908-330H0v1.931c0.287,0.104,0.575,0.208,0.861,0.312
					c18.834,6.834,37.788,13.269,56.399,20.701c-0.737,2.098-1.467,4.438-2.331,7.457c-0.216,0.753-0.437,1.514-0.666,2.272
					c-3.77-1.364-8.011-1.973-11.839-3.193c-4.753-1.515-9.411-3.328-14.044-5.172c-9.247-3.681-18.373-7.638-27.661-11.219
					c-0.24-0.093-0.479-0.191-0.719-0.284v3.116c9.146,3.583,18.197,7.384,27.312,11.05c4.631,1.862,9.312,3.588,14.052,5.154
					c3.879,1.282,8.191,1.842,12.031,3.225c-0.778,2.214-1.72,4.364-3.036,6.294c-2.421,3.546-7.55,1.15-10.728,0.029
					C26.252-293.049,13.088-298.318,0-303.786v3.51c5.818,2.472,11.662,4.878,17.584,7.098
					C22.15-291.465,26.842-290.119,31.352-288.258z"/>
				<path fill="#CD7C13" d="M300-330h-5.322c1.779,0.646,3.554,1.29,5.322,1.931V-330z"/>
				<path fill="#CD7C13" d="M260.271-316.128c7.056,2.938,14.453,4.993,21.477,7.995c6.09,2.604,12.156,5.267,18.252,7.857v-3.51
					c-5.168-2.159-10.325-4.346-15.478-6.548c-12.473-5.33-28.178-7.475-38.933-16.154c-1.49-1.202-2.472-2.359-3.088-3.512h-3.129
					c0.379,1.003,0.943,2.051,1.766,3.193C245.174-321.202,254.15-318.677,260.271-316.128z"/>
				<path fill="#CD7C13" d="M300-314.079v-3.116c-9.83-3.83-19.429-8.389-29.075-12.805h-9.134
					c12.486,5.629,25.231,10.844,37.85,15.778C299.761-314.175,299.88-314.126,300-314.079z"/>
				<path fill="#CD7C13" d="M26.874-13.219c-1.032-3.018-4.493-4.579-7.458-4.53c-3.83,0.062-6.827,3.032-10.256,4.528
					c-0.951,0.149-1.909,0.082-2.875-0.361l-0.183-0.062c-3.115-2.06-2.11-7.924-2.964-11.211C2.607-26.892,1.48-28.388,0-29.399
					v4.942c0.52,1.617,0.519,3.584,0.621,5.006c0.334,4.721,1.523,8.575,6.606,9.662c0.739,0.158,1.252-0.164,1.52-0.658
					c0.104-0.023,0.204-0.055,0.306-0.082c2.265-0.305,4.411-1.742,6.524-3.089c1.428-0.702,2.898-1.241,4.521-1.259
					c5.712-0.06,4.43,7.209,4.254,10.744C24.285-2.802,24.48-1.379,24.889,0h3.247c-0.534-1.236-0.826-2.58-0.804-3.796
					C27.394-7.01,27.94-10.104,26.874-13.219z"/>
				<path fill="#CD7C13" d="M0,0h2.908C1.935-0.352,0.969-0.714,0-1.072V0z"/>
				<path fill="#CD7C13" d="M73.322,0h-3.111c2.143-6.015,6.004-13.27,3.056-19.232c-2.327-4.705-8.185-6.191-12.736-7.865
					c-13.542-4.979-27.148-9.765-40.679-14.771c-0.379,0.009-0.686-0.123-0.91-0.34c-2.201-0.816-4.404-1.622-6.6-2.453
					C8.199-46.23,4.099-47.983,0-49.757v-2.837c3.678,1.504,7.388,2.926,11.11,4.325c0.401-1.294,1.179-2.34,2.196-3.188
					l0.012-0.137c0.802-3.93,3-6.689,5.896-8.584c-1.313-3.781,0.46-6.406,3.335-8.209l-0.023-0.151
					c0.328-6.219,4.48-9.306,9.618-10.106c0.325-1.279,0.821-2.506,1.282-3.746c0.053-0.139,0.101-0.282,0.152-0.422l-0.024-0.076
					c-3.715-1.444-5.016-5.049-2.769-8.736c2.602-4.273,6.822-6.901,10.158-10.494c0.834-0.898,2.328-0.666,2.555,0.652
					c1.064,6.235,3.146,23.07-7.66,20.035l-0.004,0.008c-0.34,0.851-0.645,1.717-1.035,2.543c0.816-0.006,1.708,0.059,2.537,0.148
					c0.747,0.081,1.438,0.838,1.289,1.617c-0.443,2.312-1.334,4.48-2.828,6.178c0.084,0.213,0.122,0.449,0.103,0.699
					c-0.209,2.609-1.101,5.664-3.025,7.61l0.026,0.146c0.176,3.432-0.761,6.774-3.163,8.656c0.129,0.248,0.192,0.533,0.166,0.822
					c-0.366,4.098-2.454,7.615-5.747,9.6c7.041,2.611,14.09,5.201,21.158,7.736c7.658,2.746,15.842,4.926,23.172,8.502
					c4.049,1.975,7.727,4.883,8.372,9.648C77.713-11.199,75.277-5.745,73.322,0z M34.402-85.046c0.26-0.675,0.537-1.342,0.873-1.975
					c0.834-1.575,3.044-0.688,2.557,1.026c-0.179,0.631-0.414,1.248-0.665,1.86c5.548,0.214,4.814-8.614,3.979-14.143
					c-1.844,1.661-3.796,3.212-5.473,5.048c-1.213,1.325-2.703,2.855-3.166,4.648C32.061-86.845,33.157-85.887,34.402-85.046z
					 M25.186-69.718c2.299-0.941,4.857-1.536,7.034-1.892c1.44-1.277,2.473-2.633,3.089-4.373c-2.21-0.145-4.523-0.004-6.441,1.114
					C26.829-73.68,25.866-71.797,25.186-69.718z M21.5-61.441c2.416-1.111,5.129-1.762,7.856-2.076l0.017-0.019
					c1.706-1.554,2.736-3.118,3.24-5.144l-0.145-0.006c-2.377,0.295-4.789,0.734-6.931,1.738
					C22.744-65.639,21.708-64.036,21.5-61.441z M16.615-53.305c2.365-0.887,5.121-1.275,7.621-1.377
					c0.197-0.264,0.506-0.456,0.947-0.496c3.304-0.299,4.666-2.66,4.864-5.545C24.402-60.167,19.312-58.264,16.615-53.305z
					 M20.225-44.867c3.541-0.848,5.85-3.572,6.62-7.002c-4.847-0.303-10.665,0.327-13.337,4.5c0.536,0.202,1.07,0.402,1.605,0.604
					C16.814-46.127,18.521-45.502,20.225-44.867z"/>
				<path fill="#CD7C13" d="M53.417-8.373C48.002-10.143,43.33-4.293,39.453,0h4.266c2.709-2.939,8.096-8.074,10.404-3.715
					C54.756-2.519,55.209-1.264,55.632,0h3.122c-0.203-0.646-0.393-1.287-0.588-1.895C57.318-4.527,56.28-7.437,53.417-8.373z"/>
				<path fill="#CD7C13" d="M274.862-62.375c-5.604-1.418-11.156-1.469-16.216,1.52c-4.332,2.556-6.666,7.586-8.418,12.491
					c-2.831,6.228-5.504,12.47-2.037,19.019c0.181,0.342,0.377,0.647,0.579,0.935c-2.925,6.6-5.299,10.384-7.821,17.167
					c-1.682,4.522-2.966,7.559-1.576,11.244h3.129c-1.503-2.81-0.771-5.59,0.505-8.919C249.163-5.82,255.446-2.86,261.791,0h9.134
					c-8.896-4.072-17.833-8.02-27.038-11.146c0.154-0.393,0.312-0.792,0.469-1.2c1.28-3.326,2.507-5.671,3.721-8.186
					C262.568-11.896,278.774-5.781,294.678,0H300v-1.072c-17.373-6.422-34.078-13.865-50.916-21.611
					c0.532-1.188,1.063-2.467,1.597-3.939c1.771,0.99,3.907,0.73,6.065-0.668c2.453-1.588,9.239-10.315,12.221-5.229
					c2.208,3.763-1.331,9.669,0.121,13.915c1.391,4.061,6.516,6.465,10.6,4.941c4.973-1.855,6.958-7.327,9.941-11.271
					c2.199-2.907,5.729-4.002,8.889-1.758c0.738,0.525,1.19,1.326,1.482,2.235v-4.941c-1.717-1.173-3.909-1.692-6.225-1.614
					c-4.547,0.154-7.342,5.059-9.418,8.412c-1.366,2.207-2.795,4.644-5.183,5.868c-3.183,1.636-6.939-0.71-7.45-3.964
					c-0.623-3.954,1.529-8.023,0.346-11.951c-1.056-3.5-4.766-4.819-8.088-3.855c-4.156,1.205-6.373,5.855-10.229,7.596
					c-3.589,1.621-4.637-6.627-4.48-8.357c0.153-1.738,0.652-3.428,1.233-5.102c2.642-6.101,4.478-13.28,10.618-16.809
					c5.182-2.975,12.312-0.812,17.52,0.885c7.244,2.361,14.296,5.479,21.355,8.534v-2.837c-2.048-0.838-4.089-1.695-6.109-2.604
					C287.689-57.99,281.473-60.701,274.862-62.375z"/>
				<path fill="#CD7C13" d="M108.29-114.535c0.413,6.142-0.058,12.452-3.599,17.674c2.65,3.527,0.725,6.326-2.328,8.166
					c-0.174,5.323-2.275,11.111-6.23,14.791c0.052,0.159,0.081,0.336,0.068,0.543c-0.207,3.543-1.408,5.484-3.165,6.325
					c-0.052,0.159-0.146,0.316-0.3,0.46c-4.523,4.193-10.226,5.144-15.197,8.432c-2.965,1.959-6.357,5.268-10.094,5.566
					c-8.97,0.713-8.92-11.723-8.7-17.721c0.446-12.204,1.914-24.408,4.532-36.334c3.033-13.809,4.768-28.464,9.453-41.879
					c1.146-4.652,3.195-8.493,7.918-11.038c3.807-2.05,6.033,0.266,7.508,3.625c2.929,6.673,10.812,11.004,15.484,16.564
					c3.1,3.686,5.42,7.859,5.738,12.54c0.08,0.106,0.152,0.221,0.205,0.356C111.547-121.393,110.711-117.398,108.29-114.535z
					 M93.18-73.308c-4.159,0.394-8.508,0.116-12.633-0.878c5.187,4.004,12.226,7.625,12.617,0.975L93.18-73.308z M102.277-95.118
					l-0.184-0.263c-7.135,2.57-15.133,1.847-22.566,0.139c3.316,2.791,7.145,5.034,11.434,5.66
					C93.182-89.258,106.395-90.276,102.277-95.118z M105.955-112.427c-7.711,5.38-22.684,4.107-28.061-4.599
					c-0.791-1.281,0.359-2.596,1.708-2.436c9.404,1.117,18.815,1.729,26.654-4.26c-0.069-0.218-0.098-0.46-0.064-0.726
					c1.415-11.45-11.271-17.898-17.655-25.172c-2.098-2.392-3.506-9.375-7.406-6.892c-2.454,1.562-3.844,3.598-4.827,5.896
					c0.067,0.213,0.088,0.446,0.03,0.695c-5.361,23.486-11.652,46.812-13.779,70.885c-0.316,3.57-2.807,26.012,5.229,23.106
					c3.633-1.314,6.471-4.126,9.873-5.894c3.521-1.83,7.157-3.209,10.68-4.989c-5.719-1.341-12.877-7.099-15.453-10.478
					c-0.963-1.264,0.719-2.812,1.996-2.158c6.062,3.1,12.402,2.925,18.925,3.736c2.866-3.73,4.702-7.287,5.833-11.682
					c-0.881,0.334-1.771,0.601-2.615,0.793c-8.954,2.051-17.959-4.271-23.68-10.451c-0.926-1-0.197-3.002,1.34-2.551
					c9.32,2.742,17.826,3.387,27.255,1.58l0.082-0.146C105.033-102.462,105.706-107.369,105.955-112.427z M106.703-120.615
					c-6.371,5.51-15.34,5.536-23.604,4.75c3.976,3.438,10.005,4.644,15.044,3.439C103.467-113.699,106.032-116.488,106.703-120.615z
					"/>
			</g>
		</pattern>
		<pattern  id="SVGID_1_" xlink:href="#Nueva_muestra_de_motivo_18" patternTransform="matrix(1 0 0 1 1152.2754 561.0547)">
		</pattern>
		<rect x="-8.504" y="-8.504" fill="url(#SVGID_1_)" width="1207.559" height="817.008"/>
		
	</g>
</switch>	
</svg>
