<svg xmlns="http://www.w3.org/2000/svg" height="285" width="168.7" viewbox="0 0 16 26"><switch transform="translate(-151.9,-314.3)"><g><path style="fill:none;stroke:#ffffff;stroke-width:6.19999981;stroke-linecap:round;stroke-linejoin:round;stroke-miterlimit:10" d="m 264.7,411.2 -57,0" stroke-miterlimit="10"/><path style="fill:#e2ad39" d="m 218.3,591 c 8.6,0 16,3.4 18.6,8.2 0.7,-1.3 1,-2.7 1,-4 0,-7 -8.8,-12.7 -19.7,-12.7 -11,0 -19.8,5.7 -19.8,12.6 0,1.5 0.4,3 1,4.2 2.8,-4.8 10,-8.3 18.8,-8.3 z"/><path style="fill:#e2ad39" d="m 248,591 c 8.5,0 15.8,3.4 18.5,8.2 0.8,-1.3 1.2,-2.7 1.2,-4 0,-7 -9,-12.7 -19.8,-12.7 -11,0 -20,5.7 -20,12.6 0,1.5 0.5,3 1.2,4.2 2.7,-4.8 10,-8.3 18.7,-8.3 z"/><path style="fill:#8d8e8c" d="m 166,423 0,168 c 28.7,-5.3 51,-41 51,-84 0,-43.3 -22.3,-79 -51,-84 z"/><path style="fill:#d6d6ce" d="m 320.6,443.6 c 0,71.5 -37.8,129.4 -84.3,129.4 -46.6,0 -84.4,-58 -84.4,-129.4 0,-71.4 37.7,-129.3 84.3,-129.3 46.5,0 84.3,58 84.3,129.3 z"/><path style="fill:#fff" d="m 306,396.6 c 0,33 -31.4,59.6 -70,59.6 -38.5,0 -69.8,-26.7 -69.8,-59.6 0,-20.8 31.3,-59.5 70,-59.5 38.5,0 69.7,43.2 69.7,59.6 z"/><path style="fill:#c6b4a3" d="m 218.3,398.8 c 0,10.2 -8.3,18.5 -18.5,18.5 -10.2,0 -18.4,-8.3 -18.4,-18.5 0,-10.2 8.2,-18.4 18.4,-18.4 10.2,0 18.5,8.2 18.5,18.4 z"/><path style="fill:#c6b4a3" d="m 199.8,380.4 -18.2,21 L 179,383 m 72.6,15.8 c 0,10.2 8.3,18.5 18.5,18.5 10.3,0 18.5,-8.3 18.5,-18.5 0,-10.2 -8.2,-18.4 -18.4,-18.4 -10,0 -18.4,8.2 -18.4,18.4 z"/><path style="fill:#c6b4a3" d="m 270,380.4 18.3,21 2.7,-18.4"/><circle style="fill:#edeae3" cx="199.8" cy="398.7" r="13.2"/><path style="fill:#8595a4" d="m 208.2,398.8 c 0,4.6 -3.8,8.4 -8.4,8.4 -4.6,0 -8.3,-3.8 -8.3,-8.4 0,-4.6 3.7,-8.3 8.3,-8.3 4.6,0 8.4,3.7 8.4,8.3 z"/><circle style="fill:#edeae3" cx="270.1" cy="398.8" r="13.2"/><path style="fill:#8595a4" d="m 261.7,398.8 c 0,4.6 3.8,8.4 8.4,8.4 4.7,0 8.4,-3.8 8.4,-8.4 0,-4.6 -3.7,-8.3 -8.3,-8.3 -4.5,0 -8.3,3.7 -8.3,8.3 z"/><path style="fill:#7e7f79" d="m 231,417 10.5,0 -5.2,22"/><path style="fill:#c6b4a3" d="m 152,423 0,168 c 28.6,-5.3 51,-41 51,-84 0,-43.3 -22.4,-79 -51,-84 z"/><path style="fill:#1d243c" d="m 202.2,398.8 c 0,1.3 -1,2.4 -2.4,2.4 -1.3,0 -2.4,-1 -2.4,-2.4 0,-1.3 1,-2.4 2.4,-2.4 1.3,0 2.4,1 2.4,2.4 z m 70.3,0 c 0,1.3 -1,2.4 -2.4,2.4 -1.3,0 -2.3,-1 -2.3,-2.4 0,-1.3 1,-2.4 2.4,-2.4 1.4,0 2.5,1 2.5,2.4 z"/><path style="fill:#ffffff" d="m 158.4,452 13.3,0 -6.7,11.5 m 6.7,0 13.3,0 -6.6,11.6 m -20,3.6 13.3,0 -6.7,11.6 m 17.6,-11.6 13.4,0 -6.7,11.6 m -17.6,0 13.3,0 -6.6,11.6 m -20,0.1 13.3,0 -6.7,11.4 m 20,-11.4 13.5,0 -6.7,11.4 m -20.1,0 13.3,0 -6.6,11.6 m -20,0 13.3,0 -6.7,11.6 m 17.6,-11.6 13.4,0 -6.7,11.6 m -17.6,0 13.3,0 -6.6,11.6 m -20,-4.7 13.3,0 -6.7,11.5 m 6.7,0 13.3,0 -6.6,11.6"/><path style="fill:#e2ad39" d="m 213,560.8 10.4,0 0,23.2 -10.4,0 z m 29.6,0 10.4,0 0,23.2 -10.4,0 z"/></g></switch></svg>