<?xml version="1.0" encoding="UTF-8" standalone="no"?>
<svg
   xmlns:dc="http://purl.org/dc/elements/1.1/"
   xmlns:cc="http://creativecommons.org/ns#"
   xmlns:rdf="http://www.w3.org/1999/02/22-rdf-syntax-ns#"
   xmlns:svg="http://www.w3.org/2000/svg"
   xmlns="http://www.w3.org/2000/svg"
   xml:space="preserve"
   enable-background="new 0 0 595.275 841.89"
   viewBox="0 0 384.72502 157.03599"
   height="157.036"
   width="384.72504"
   y="0px"
   x="0px"
   id="Capa_1"
   version="1.1"><metadata
   id="metadata281"><rdf:RDF><cc:Work
       rdf:about=""><dc:format>image/svg+xml</dc:format><dc:type
         rdf:resource="http://purl.org/dc/dcmitype/StillImage" /><dc:title></dc:title></cc:Work></rdf:RDF></metadata><defs
   id="defs279" />
<line
   style="fill:none;stroke:#000000;stroke-width:3;stroke-linecap:round;stroke-miterlimit:10"
   id="line3"
   y2="115.53903"
   x2="327.21597"
   y1="47.910976"
   x1="256.61499"
   stroke-miterlimit="10" />
<line
   style="fill:none;stroke:#000000;stroke-linecap:round;stroke-miterlimit:10"
   id="line5"
   y2="101.418"
   x2="302.31998"
   y1="48.287991"
   x1="255.21101"
   stroke-miterlimit="10" />
<line
   style="fill:none;stroke:#000000;stroke-miterlimit:10"
   id="line7"
   y2="-533.41602"
   x2="257.16199"
   y1="-556.57898"
   x1="257.16199"
   stroke-miterlimit="10" />
<line
   style="fill:none;stroke:#000000;stroke-miterlimit:10"
   id="line9"
   y2="-490.664"
   x2="283.94098"
   y1="-523.80298"
   x1="262.52899"
   stroke-miterlimit="10" />
<line
   style="fill:none;stroke:#000000;stroke-miterlimit:10"
   id="line11"
   y2="-490.664"
   x2="236.52501"
   y1="-523.80298"
   x1="257.93698"
   stroke-miterlimit="10" />
<path
   style="clip-rule:evenodd;fill:#1db89b;fill-rule:evenodd"
   id="path13"
   d="m 260.405,-491.381 c 7.829,0 15.665,0.038 23.499,-0.033 1.463,-0.013 1.902,0.381 1.865,1.858 -0.098,3.982 -0.084,7.974 0,11.957 0.025,1.311 -0.399,1.647 -1.671,1.646 -15.878,-0.035 -31.755,-0.039 -47.632,0.014 -1.362,0.007 -1.611,-0.471 -1.592,-1.691 0.066,-4.055 0.076,-8.117 -0.009,-12.17 -0.029,-1.285 0.31,-1.617 1.615,-1.609 7.976,0.07 15.948,0.035 23.924,0.035 l 0,-0.007 z" />
<path
   style="clip-rule:evenodd;fill:#1db89b;fill-rule:evenodd"
   id="path15"
   d="m 256.793,-536.48 c 1.723,0 1.586,1.094 1.234,4.634 -0.096,0.956 -0.559,4.507 0.977,5.532 3.573,2.381 5.375,-3.19 6.27,-2.16 0.797,0.916 -0.271,3.465 -0.895,4.192 -1.836,2.16 -6.562,2.52 -8.412,-0.028 -1.606,-2.217 -1.463,-12.176 0.826,-12.17" />
<polygon
   transform="translate(-117.295,-639.603)"
   style="clip-rule:evenodd;fill:#1db89b;fill-rule:evenodd"
   id="polygon17"
   points="275.205,60.105 275.205,42.657 257.717,42.657 257.717,60.732 249.031,60.809 249.031,69.969 163.607,69.969 171.99,84.629 247.588,84.629 247.819,103.602 255.979,103.602 256.403,278.006 273.726,278.006 274.551,103.602 280.617,103.602 280.617,84.629 377.522,84.629 369.434,69.713 280.617,69.713 280.617,60.723 " />
<path
   style="clip-rule:evenodd;fill:#ffffff;fill-rule:evenodd"
   id="path19"
   d="m 153.737,-364.3 c -4.653,-2.699 -8.985,-5.217 -13.637,-7.919 4.636,-2.665 9.004,-5.179 13.637,-7.844 l 0,15.763 z" />
<path
   style="clip-rule:evenodd;fill:#ffffff;fill-rule:evenodd"
   id="path21"
   d="m 140.101,-382.363 c 4.655,-2.703 8.991,-5.221 13.64,-7.919 -4.636,-2.664 -9.004,-5.179 -13.64,-7.844 l 0,15.763 z" />
<path
   style="clip-rule:evenodd;fill:#ffffff;fill-rule:evenodd"
   id="path23"
   d="m 153.737,-400.425 c -4.653,-2.703 -8.985,-5.218 -13.637,-7.921 4.636,-2.663 9.004,-5.177 13.637,-7.844 l 0,15.765 z" />
<path
   style="clip-rule:evenodd;fill:#ffffff;fill-rule:evenodd"
   id="path25"
   d="m 140.101,-418.49 c 4.655,-2.705 8.991,-5.219 13.64,-7.918 -4.636,-2.668 -9.004,-5.182 -13.64,-7.845 l 0,15.763 z" />
<path
   style="clip-rule:evenodd;fill:#ffffff;fill-rule:evenodd"
   id="path27"
   d="m 153.737,-436.552 c -4.653,-2.705 -8.985,-5.219 -13.637,-7.92 4.636,-2.664 9.004,-5.18 13.637,-7.844 l 0,15.764 z" />
<path
   style="clip-rule:evenodd;fill:#ffffff;fill-rule:evenodd"
   id="path29"
   d="m 140.101,-454.615 c 4.655,-2.706 8.991,-5.221 13.64,-7.923 -4.636,-2.663 -9.004,-5.177 -13.64,-7.842 l 0,15.765 z" />
<path
   style="clip-rule:evenodd;fill:#ffffff;fill-rule:evenodd"
   id="path31"
   d="m 153.737,-472.681 c -4.653,-2.701 -8.985,-5.219 -13.637,-7.916 4.636,-2.666 9.004,-5.182 13.637,-7.846 l 0,15.762 z" />
<path
   style="clip-rule:evenodd;fill:#ffffff;fill-rule:evenodd"
   id="path33"
   d="m 140.101,-490.742 c 4.655,-2.705 8.991,-5.221 13.64,-7.921 -4.636,-2.664 -9.004,-5.179 -13.64,-7.843 l 0,15.764 z" />
<path
   style="clip-rule:evenodd;fill:#ffffff;fill-rule:evenodd"
   id="path35"
   d="m 153.737,-508.806 c -4.653,-2.703 -8.985,-5.219 -13.637,-7.92 4.636,-2.666 9.004,-5.178 13.637,-7.845 l 0,15.765 z" />
<path
   style="clip-rule:evenodd;fill:#ffffff;fill-rule:evenodd"
   id="path37"
   d="m 253.451,-556.482 c -2.296,-3.958 -4.435,-7.639 -6.728,-11.588 -2.267,3.937 -4.399,7.646 -6.665,11.588 l 13.393,0 z" />
<path
   style="clip-rule:evenodd;fill:#ffffff;fill-rule:evenodd"
   id="path39"
   d="m 238.104,-568.07 c -2.294,3.956 -4.433,7.638 -6.728,11.588 -2.268,-3.937 -4.4,-7.651 -6.666,-11.588 l 13.394,0 z" />
<path
   style="clip-rule:evenodd;fill:#ffffff;fill-rule:evenodd"
   id="path41"
   d="m 222.756,-556.482 c -2.295,-3.958 -4.435,-7.639 -6.73,-11.588 -2.261,3.937 -4.398,7.646 -6.657,11.588 l 13.387,0 z" />
<path
   style="clip-rule:evenodd;fill:#ffffff;fill-rule:evenodd"
   id="path43"
   d="m 207.41,-568.07 c -2.297,3.956 -4.435,7.638 -6.729,11.588 -2.263,-3.937 -4.403,-7.651 -6.662,-11.588 l 13.391,0 z" />
<path
   style="clip-rule:evenodd;fill:#ffffff;fill-rule:evenodd"
   id="path45"
   d="m 192.06,-556.482 c -2.292,-3.958 -4.432,-7.639 -6.726,-11.588 -2.268,3.937 -4.4,7.646 -6.667,11.588 l 13.393,0 z" />
<path
   style="clip-rule:evenodd;fill:#ffffff;fill-rule:evenodd"
   id="path47"
   d="m 176.716,-568.07 c -2.298,3.956 -4.436,7.638 -6.73,11.588 -2.261,-3.937 -4.398,-7.651 -6.663,-11.588 l 13.393,0 z" />
<path
   style="fill:#ffffff"
   id="path49"
   d="m 158.771,-557.259 c 0,6.547 -5.308,11.854 -11.852,11.854 -6.547,0 -11.853,-5.308 -11.853,-11.854 0,-6.543 5.306,-11.852 11.853,-11.852 6.545,0 11.852,5.309 11.852,11.852" />
<rect
   style="fill:#1db89b"
   id="rect51"
   height="17.031"
   width="221.271"
   y="-372.44501"
   x="77.272995" />
<g
   transform="translate(-117.295,-639.603)"
   id="g53">
	<g
   id="g55">
		<path
   style="fill:#ffe5bf"
   id="path57"
   d="m 428.792,258.349 c 0,1.221 -0.989,2.21 -2.208,2.21 l 0,0 c -1.221,0 -2.211,-0.989 -2.211,-2.21 l 0,-3.534 c 0,-1.22 0.99,-2.209 2.211,-2.209 l 0,0 c 1.219,0 2.208,0.989 2.208,2.209 l 0,3.534 z" />
		<path
   style="fill:#ffe5bf"
   id="path59"
   d="m 455.561,258.349 c 0,1.221 -0.989,2.21 -2.21,2.21 l 0,0 c -1.22,0 -2.209,-0.989 -2.209,-2.21 l 0,-3.534 c 0,-1.22 0.989,-2.209 2.209,-2.209 l 0,0 c 1.221,0 2.21,0.989 2.21,2.209 l 0,3.534 z" />
		<path
   style="clip-rule:evenodd;fill:#eeefed;fill-rule:evenodd"
   id="path61"
   d="m 451.473,228.531 c -1.953,-1.285 -6.331,-2.182 -11.422,-2.182 -5.066,0 -9.425,0.888 -11.392,2.164 -3.318,1.927 -4.832,8.126 -4.832,14.283 l 0,11.952 5.891,0 0,-11.952 c 0,-4.053 1.308,-6.577 2.127,-7.848 l 0,22.074 16.341,0 0,-21.728 c 0.902,1.358 2.196,3.788 2.196,7.501 l 0,11.952 5.892,0 0,-11.952 c -10e-4,-6.136 -1.506,-12.315 -4.801,-14.264 z" />
		<ellipse
   style="clip-rule:evenodd;fill:#ffe5bf;fill-rule:evenodd"
   id="ellipse63"
   ry="7.1669998"
   rx="6.9710002"
   cy="217.457"
   cx="440.18201" />
		<path
   style="clip-rule:evenodd;fill:#735951;fill-rule:evenodd"
   id="path65"
   d="m 434.352,215.448 c 0.716,-0.823 1.626,-1.397 2.423,-2.133 0.55,-0.507 1.479,-0.592 2.018,0 1.205,1.321 3.444,2.521 5.161,1.478 0.678,-0.412 1.545,-0.138 1.951,0.512 0.19,0.304 0.66,0.568 1.121,0.8 -0.614,-3.312 -3.443,-5.815 -6.844,-5.815 -3.751,0 -6.809,3.047 -6.964,6.863 0.441,-0.503 0.707,-1.212 1.134,-1.705 z" />
		<ellipse
   style="clip-rule:evenodd;fill:#ffe5bf;fill-rule:evenodd"
   id="ellipse67"
   ry="1.88"
   rx="0.73799998"
   cy="217.689"
   cx="447.27399" />
		<ellipse
   style="clip-rule:evenodd;fill:#ffe5bf;fill-rule:evenodd"
   id="ellipse69"
   ry="1.88"
   rx="0.73799998"
   cy="217.689"
   cx="433.24399" />
		<g
   id="g71">
			<g
   id="g73">
				<path
   style="clip-rule:evenodd;fill:#15899f;fill-rule:evenodd"
   id="path75"
   d="m 447.78,213.301 c -0.009,-0.057 -0.021,-0.115 -0.041,-0.174 -0.126,-0.399 -0.458,-1.59 -0.458,-2.022 0,-3.378 -3.16,-6.117 -7.059,-6.117 -3.899,0 -7.059,2.739 -7.059,6.117 0,0.38 -0.344,1.543 -0.584,2.196 l 15.201,0 z" />
				<path
   style="clip-rule:evenodd;fill:#15899f;fill-rule:evenodd"
   id="path77"
   d="m 440.117,207.206 c 1.004,0 1.826,-0.819 1.826,-1.825 0,-1.005 -0.822,-1.825 -1.826,-1.825 -1.005,0 -1.822,0.82 -1.822,1.825 0,1.006 0.817,1.825 1.822,1.825 z" />
				<g
   id="g79">
					<g
   id="g81">
						<path
   style="clip-rule:evenodd;fill:#157081;fill-rule:evenodd"
   id="path83"
   d="m 436.055,206.166 c 0.637,-0.402 1.354,-0.717 2.125,-0.919 0.051,0.125 0.079,0.263 0.079,0.405 l 0,4.909 c 0,0.606 -0.496,1.102 -1.103,1.102 l 0,0 c -0.605,0 -1.102,-0.495 -1.102,-1.102 l 0,-4.395 z" />
						<path
   style="clip-rule:evenodd;fill:#157081;fill-rule:evenodd"
   id="path85"
   d="m 442.074,205.2 c 0.762,0.178 1.471,0.464 2.104,0.837 l 0,4.524 c 0,0.606 -0.496,1.102 -1.102,1.102 l 0,0 c -0.606,0 -1.101,-0.495 -1.101,-1.102 l 0,-4.909 c 0.002,-0.162 0.036,-0.314 0.099,-0.452 z" />
					</g>
				</g>
			</g>
			<path
   style="clip-rule:evenodd;fill:#157081;fill-rule:evenodd"
   id="path87"
   d="m 446.696,213.496 c 0,0.326 -0.265,0.59 -0.589,0.59 l -12.176,0 c -0.324,0 -0.588,-0.264 -0.588,-0.59 l 0,0 c 0,-0.324 0.264,-0.588 0.588,-0.588 l 12.176,0 c 0.325,0 0.589,0.264 0.589,0.588 l 0,0 z" />
		</g>
		<path
   style="fill:#15899f"
   id="path89"
   d="m 448.32,257.08 -0.127,-0.428 -16.349,0 0,1.491 c -3.893,9.625 -4.344,27.957 -4.168,34.039 l 7.359,-0.21 c -0.255,-8.919 1.535,-22.402 4.283,-29.164 l 2.385,0 c 2.654,6.854 4.139,20.331 3.885,29.164 l 7.36,0.21 c 0.183,-6.315 -0.311,-25.832 -4.628,-35.102 z" />
		<path
   style="fill:#49463d"
   id="path91"
   d="m 436.022,294.137 c 0.08,-0.248 0.124,-0.512 0.124,-0.787 0,-1.409 -1.143,-2.551 -2.553,-2.551 l -4.41,0 c -1.409,0 -2.553,1.142 -2.553,2.551 0,0.275 0.046,0.539 0.126,0.787 l 9.266,0 z" />
		<path
   style="fill:#49463d"
   id="path93"
   d="m 454.088,294.137 c 0.078,-0.248 0.125,-0.512 0.125,-0.787 0,-1.409 -1.145,-2.551 -2.554,-2.551 l -4.409,0 c -1.409,0 -2.553,1.142 -2.553,2.551 0,0.275 0.045,0.539 0.126,0.787 l 9.265,0 z" />
		<path
   style="fill:#ffe5bf"
   id="path95"
   d="m 437.025,226.453 c -0.003,0.047 0.021,0.191 0.021,0.238 0,1.221 1.326,2.209 2.967,2.209 1.635,0 2.967,-1.213 2.967,-2.434 0,0 -1.461,-0.113 -2.93,-0.117 -1.483,-0.003 -2.973,0.1 -3.025,0.104 z" />
		<rect
   style="fill:#4d353c"
   id="rect97"
   height="3.1429999"
   width="17.478001"
   y="255.05901"
   x="431.44199" />
		<path
   style="fill:#d8a987"
   id="path99"
   d="m 442.827,256.082 -0.374,0 0,-1.724 -4.312,0 0,4.408 4.312,0 0,-1.724 0.374,0 0,-0.96 z m -0.963,2.095 -3.137,0 0,-3.229 3.137,0 0,1.135 -0.978,0 0,0.961 0.978,0 0,1.133 z" />
		<path
   style="fill:#bfd73f"
   id="path101"
   d="m 434.284,233.409 0,-0.646 c -0.013,-0.144 -0.022,-0.288 -0.022,-0.436 0,-0.146 0.01,-0.291 0.022,-0.435 l 0,-5.192 -1.625,0.204 -0.21,9.614 -0.686,0.143 -0.321,18.396 5.845,0.102 -0.02,-17.838 c -2.943,-0.09 -2.983,-3.912 -2.983,-3.912 z" />
		<path
   style="fill:#bfd73f"
   id="path103"
   d="m 448.173,236.662 -0.686,-0.143 -0.209,-9.614 -1.627,-0.204 0,6.708 c 0,0 -0.022,3.937 -2.604,4.05 l -0.019,17.701 5.466,-0.102 -0.321,-18.396 z" />
		<rect
   style="fill:#faa626"
   id="rect105"
   height="0.60299999"
   width="5.8460002"
   y="248.74001"
   x="431.457" />
		<rect
   style="fill:#faa626"
   id="rect107"
   height="0.60299999"
   width="5.8460002"
   y="250.616"
   x="431.457" />
		<rect
   style="fill:#faa626"
   id="rect109"
   height="0.60299999"
   width="5.3850002"
   y="248.74001"
   x="443.09601" />
		<rect
   style="fill:#faa626"
   id="rect111"
   height="0.60299999"
   width="5.3850002"
   y="250.616"
   x="443.09601" />
	</g>
	<g
   style="opacity:0.5"
   id="g113">
		<path
   style="fill:#ffe5bf"
   id="path115"
   d="m 455.561,258.349 c 0,1.221 -0.989,2.21 -2.21,2.21 l 0,0 c -1.22,0 -2.209,-0.989 -2.209,-2.21 l 0,-3.534 c 0,-1.22 0.989,-2.209 2.209,-2.209 l 0,0 c 1.221,0 2.21,0.989 2.21,2.209 l 0,3.534 z" />
		<path
   style="clip-rule:evenodd;fill:#eeefed;fill-rule:evenodd"
   id="path117"
   d="m 451.473,228.531 c -1.953,-1.285 -6.331,-2.182 -11.422,-2.182 -0.058,0 -0.115,0.002 -0.171,0.002 l 0,30.672 8.306,0 0,-21.728 c 0.902,1.358 2.196,3.788 2.196,7.501 l 0,11.952 5.892,0 0,-11.952 c -10e-4,-6.137 -1.506,-12.316 -4.801,-14.265 z" />
		<path
   style="clip-rule:evenodd;fill:#ffe5bf;fill-rule:evenodd"
   id="path119"
   d="m 440.182,210.289 c -0.101,0 -0.202,0.004 -0.302,0.008 l 0,14.319 c 0.1,0.005 0.201,0.008 0.302,0.008 3.85,0 6.971,-3.208 6.971,-7.167 0,-3.959 -3.122,-7.168 -6.971,-7.168 z" />
		<path
   style="clip-rule:evenodd;fill:#735951;fill-rule:evenodd"
   id="path121"
   d="m 440.182,210.289 c -0.101,0 -0.202,0.004 -0.302,0.008 l 0,3.963 c 1.216,0.84 2.792,1.312 4.073,0.533 0.678,-0.412 1.545,-0.138 1.951,0.512 0.19,0.304 0.66,0.568 1.121,0.8 -0.614,-3.313 -3.443,-5.816 -6.843,-5.816 z" />
		<ellipse
   style="clip-rule:evenodd;fill:#ffe5bf;fill-rule:evenodd"
   id="ellipse123"
   ry="1.88"
   rx="0.73799998"
   cy="217.689"
   cx="447.27399" />
		<g
   id="g125">
			<g
   id="g127">
				<path
   style="clip-rule:evenodd;fill:#15899f;fill-rule:evenodd"
   id="path129"
   d="m 439.88,213.301 7.9,0 c -0.009,-0.057 -0.021,-0.115 -0.041,-0.174 -0.126,-0.399 -0.458,-1.59 -0.458,-2.022 0,-3.378 -3.16,-6.117 -7.059,-6.117 -0.115,0 -0.229,0.002 -0.343,0.007 l 0,8.306 z" />
				<path
   style="clip-rule:evenodd;fill:#15899f;fill-rule:evenodd"
   id="path131"
   d="m 440.117,203.556 c -0.081,0 -0.16,0.007 -0.237,0.018 l 0,3.616 c 0.077,0.01 0.156,0.017 0.237,0.017 1.004,0 1.826,-0.819 1.826,-1.825 0,-1.006 -0.822,-1.826 -1.826,-1.826 z" />
				<g
   id="g133">
					<g
   id="g135">
						<path
   style="clip-rule:evenodd;fill:#157081;fill-rule:evenodd"
   id="path137"
   d="m 442.074,205.2 c 0.762,0.178 1.471,0.464 2.104,0.837 l 0,4.524 c 0,0.606 -0.496,1.102 -1.102,1.102 l 0,0 c -0.606,0 -1.101,-0.495 -1.101,-1.102 l 0,-4.909 c 0.002,-0.162 0.036,-0.314 0.099,-0.452 z" />
					</g>
				</g>
			</g>
			<path
   style="clip-rule:evenodd;fill:#157081;fill-rule:evenodd"
   id="path139"
   d="m 446.107,212.908 -6.228,0 0,1.178 6.228,0 c 0.324,0 0.589,-0.264 0.589,-0.59 0,-0.324 -0.264,-0.588 -0.589,-0.588 z" />
		</g>
		<path
   style="fill:#15899f"
   id="path141"
   d="m 448.32,257.08 -0.127,-0.428 -8.313,0 0,6.156 1.824,0 c 2.654,6.854 4.139,20.331 3.885,29.164 l 7.36,0.21 c 0.182,-6.315 -0.312,-25.832 -4.629,-35.102 z" />
		<path
   style="fill:#49463d"
   id="path143"
   d="m 454.088,294.137 c 0.078,-0.248 0.125,-0.512 0.125,-0.787 0,-1.409 -1.145,-2.551 -2.554,-2.551 l -4.409,0 c -1.409,0 -2.553,1.142 -2.553,2.551 0,0.275 0.045,0.539 0.126,0.787 l 9.265,0 z" />
		<path
   style="fill:#ffe5bf"
   id="path145"
   d="m 440.051,226.35 c -0.058,0 -0.115,0.001 -0.171,0.001 l 0,2.545 c 0.042,0.001 0.086,0.005 0.134,0.005 1.635,0 2.967,-1.213 2.967,-2.434 -10e-4,0 -1.461,-0.113 -2.93,-0.117 z" />
		<rect
   style="fill:#4d353c"
   id="rect147"
   height="3.1429999"
   width="9.04"
   y="255.05901"
   x="439.88" />
		<polygon
   style="fill:#d8a987"
   id="polygon149"
   points="439.88,254.947 441.864,254.947 441.864,256.082 440.887,256.082 440.887,257.043 441.864,257.043 441.864,258.177 439.88,258.177 439.88,258.767 442.453,258.767 442.453,257.043 442.827,257.043 442.827,256.082 442.453,256.082 442.453,254.358 439.88,254.358 " />
		<path
   style="fill:#bfd73f"
   id="path151"
   d="m 448.173,236.662 -0.686,-0.143 -0.209,-9.614 -1.627,-0.204 0,6.708 c 0,0 -0.022,3.937 -2.604,4.05 l -0.019,17.701 5.466,-0.102 -0.321,-18.396 z" />
		<rect
   style="fill:#faa626"
   id="rect153"
   height="0.60299999"
   width="5.3850002"
   y="248.74001"
   x="443.09601" />
		<rect
   style="fill:#faa626"
   id="rect155"
   height="0.60299999"
   width="5.3850002"
   y="250.616"
   x="443.09601" />
	</g>
</g>
<line
   style="fill:none;stroke:#000000;stroke-miterlimit:10"
   id="line157"
   y2="-381.332"
   x2="309.918"
   y1="-476.603"
   x1="236.06001"
   stroke-miterlimit="10" />
<line
   style="fill:none;stroke:#000000;stroke-miterlimit:10"
   id="line159"
   y2="-217.26199"
   x2="257.16199"
   y1="-280.42801"
   x1="257.16199"
   stroke-miterlimit="10" />
<line
   style="fill:none;stroke:#000000;stroke-miterlimit:10"
   id="line161"
   y2="-174.509"
   x2="283.94098"
   y1="-207.64899"
   x1="262.52899"
   stroke-miterlimit="10" />
<line
   style="fill:none;stroke:#000000;stroke-miterlimit:10"
   id="line163"
   y2="-171.73001"
   x2="235.01701"
   y1="-207.64899"
   x1="257.93698"
   stroke-miterlimit="10" />
<path
   style="clip-rule:evenodd;fill:#1db89b;fill-rule:evenodd"
   id="path165"
   d="m 259.627,-175.197 c 7.791,-0.79 15.59,-1.543 23.377,-2.404 1.453,-0.16 1.93,0.187 2.043,1.66 0.305,3.973 0.721,7.941 1.207,11.896 0.156,1.301 -0.232,1.679 -1.496,1.807 -15.799,1.567 -31.596,3.166 -47.388,4.821 -1.354,0.144 -1.651,-0.306 -1.755,-1.522 -0.343,-4.041 -0.743,-8.083 -1.236,-12.106 -0.159,-1.276 0.145,-1.641 1.443,-1.765 7.942,-0.734 15.871,-1.574 23.807,-2.38 l -0.002,-0.007 z" />
<path
   style="clip-rule:evenodd;fill:#1db89b;fill-rule:evenodd"
   id="path167"
   d="m 256.793,-220.326 c 1.723,0 1.586,1.094 1.234,4.634 -0.096,0.956 -0.559,4.507 0.977,5.532 3.573,2.381 5.375,-3.19 6.27,-2.16 0.797,0.916 -0.271,3.465 -0.895,4.192 -1.836,2.16 -6.562,2.52 -8.412,-0.028 -1.606,-2.217 -1.463,-12.176 0.826,-12.17" />
<line
   style="fill:none;stroke:#000000;stroke-miterlimit:10"
   id="line169"
   y2="39.073025"
   x2="251.498"
   y1="25.912014"
   x1="251.498"
   stroke-miterlimit="10" />
<polygon
   transform="translate(-117.295,-639.603)"
   style="clip-rule:evenodd;fill:#1db89b;fill-rule:evenodd"
   id="polygon171"
   points="275.205,336.256 275.205,318.808 257.717,318.808 257.717,336.883 249.031,336.959 249.031,346.119 163.607,346.119 171.99,360.779 247.588,360.779 247.819,379.752 255.979,379.752 256.403,554.156 273.726,554.156 274.551,379.752 280.617,379.752 280.617,360.779 377.522,360.779 369.434,345.863 280.617,345.863 280.617,336.873 " />
<path
   style="clip-rule:evenodd;fill:#ffffff;fill-rule:evenodd"
   id="path173"
   d="m 153.737,-88.15 c -4.653,-2.699 -8.985,-5.217 -13.637,-7.919 4.636,-2.665 9.004,-5.179 13.637,-7.844 l 0,15.763 z" />
<path
   style="clip-rule:evenodd;fill:#ffffff;fill-rule:evenodd"
   id="path175"
   d="m 140.101,-106.212 c 4.655,-2.703 8.991,-5.221 13.64,-7.919 -4.636,-2.664 -9.004,-5.179 -13.64,-7.844 l 0,15.763 z" />
<path
   style="clip-rule:evenodd;fill:#ffffff;fill-rule:evenodd"
   id="path177"
   d="m 153.737,-124.275 c -4.653,-2.703 -8.985,-5.218 -13.637,-7.921 4.636,-2.663 9.004,-5.177 13.637,-7.844 l 0,15.765 z" />
<path
   style="clip-rule:evenodd;fill:#ffffff;fill-rule:evenodd"
   id="path179"
   d="m 140.101,-142.339 c 4.655,-2.705 8.991,-5.219 13.64,-7.918 -4.636,-2.668 -9.004,-5.182 -13.64,-7.845 l 0,15.763 z" />
<path
   style="clip-rule:evenodd;fill:#ffffff;fill-rule:evenodd"
   id="path181"
   d="m 153.737,-160.402 c -4.653,-2.705 -8.985,-5.219 -13.637,-7.92 4.636,-2.664 9.004,-5.18 13.637,-7.844 l 0,15.764 z" />
<path
   style="clip-rule:evenodd;fill:#ffffff;fill-rule:evenodd"
   id="path183"
   d="m 140.101,-178.464 c 4.655,-2.706 8.991,-5.221 13.64,-7.923 -4.636,-2.663 -9.004,-5.177 -13.64,-7.842 l 0,15.765 z" />
<path
   style="clip-rule:evenodd;fill:#ffffff;fill-rule:evenodd"
   id="path185"
   d="m 153.737,-196.531 c -4.653,-2.701 -8.985,-5.219 -13.637,-7.916 4.636,-2.666 9.004,-5.182 13.637,-7.846 l 0,15.762 z" />
<path
   style="clip-rule:evenodd;fill:#ffffff;fill-rule:evenodd"
   id="path187"
   d="m 140.101,-214.591 c 4.655,-2.705 8.991,-5.221 13.64,-7.921 -4.636,-2.664 -9.004,-5.179 -13.64,-7.843 l 0,15.764 z" />
<path
   style="clip-rule:evenodd;fill:#ffffff;fill-rule:evenodd"
   id="path189"
   d="m 153.737,-232.656 c -4.653,-2.703 -8.985,-5.219 -13.637,-7.92 4.636,-2.666 9.004,-5.178 13.637,-7.845 l 0,15.765 z" />
<path
   style="clip-rule:evenodd;fill:#ffffff;fill-rule:evenodd"
   id="path191"
   d="m 253.451,-280.332 c -2.296,-3.958 -4.435,-7.639 -6.728,-11.588 -2.267,3.937 -4.399,7.646 -6.665,11.588 l 13.393,0 z" />
<path
   style="clip-rule:evenodd;fill:#ffffff;fill-rule:evenodd"
   id="path193"
   d="m 238.104,-291.919 c -2.294,3.956 -4.433,7.638 -6.728,11.588 -2.268,-3.937 -4.4,-7.651 -6.666,-11.588 l 13.394,0 z" />
<path
   style="clip-rule:evenodd;fill:#ffffff;fill-rule:evenodd"
   id="path195"
   d="m 222.756,-280.332 c -2.295,-3.958 -4.435,-7.639 -6.73,-11.588 -2.261,3.937 -4.398,7.646 -6.657,11.588 l 13.387,0 z" />
<path
   style="clip-rule:evenodd;fill:#ffffff;fill-rule:evenodd"
   id="path197"
   d="m 207.41,-291.919 c -2.297,3.956 -4.435,7.638 -6.729,11.588 -2.263,-3.937 -4.403,-7.651 -6.662,-11.588 l 13.391,0 z" />
<path
   style="clip-rule:evenodd;fill:#ffffff;fill-rule:evenodd"
   id="path199"
   d="m 192.06,-280.332 c -2.292,-3.958 -4.432,-7.639 -6.726,-11.588 -2.268,3.937 -4.4,7.646 -6.667,11.588 l 13.393,0 z" />
<path
   style="clip-rule:evenodd;fill:#ffffff;fill-rule:evenodd"
   id="path201"
   d="m 176.716,-291.919 c -2.298,3.956 -4.436,7.638 -6.73,11.588 -2.261,-3.937 -4.398,-7.651 -6.663,-11.588 l 13.393,0 z" />
<path
   style="fill:#ffffff"
   id="path203"
   d="m 158.771,-281.109 c 0,6.547 -5.308,11.854 -11.852,11.854 -6.547,0 -11.853,-5.308 -11.853,-11.854 0,-6.543 5.306,-11.852 11.853,-11.852 6.545,0.001 11.852,5.309 11.852,11.852" />
<rect
   style="fill:#1db89b"
   id="rect205"
   height="17.031"
   width="221.271"
   y="-96.293976"
   x="77.272995" />
<rect
   style="clip-rule:evenodd;fill:#1db89b;fill-rule:evenodd"
   id="rect207"
   height="30"
   width="42"
   y="-280.048"
   x="65.542999" />
<rect
   style="clip-rule:evenodd;fill:#1db89b;fill-rule:evenodd"
   id="rect209"
   height="30"
   width="42"
   y="-556.71503"
   x="65.542999" />
<g
   transform="translate(-117.295,-639.603)"
   id="g211">
	<g
   id="g213">
		<g
   id="g215"
   enable-background="new    ">
			<g
   id="g217">
				<polygon
   style="fill:#d2d4d3"
   id="polygon219"
   points="357.777,771.029 452.717,757.686 452.67,783.295 357.729,796.639 " />
			</g>
			<g
   id="g221">
				<polygon
   style="fill:#8c8f90"
   id="polygon223"
   points="357.777,771.029 357.729,796.639 316.293,774.098 316.342,748.488 " />
			</g>
			<g
   id="g225">
				<polygon
   style="fill:#b2b4b4"
   id="polygon227"
   points="452.717,757.686 357.777,771.029 316.342,748.488 411.281,735.145 " />
			</g>
		</g>
	</g>
</g>
<path
   style="clip-rule:evenodd;fill:#cd263d;fill-rule:evenodd"
   id="path229"
   d="m 251.127,36.009 c 1.725,0 1.587,1.094 1.234,4.634 -0.095,0.956 -0.558,4.507 0.979,5.532 3.572,2.381 5.375,-3.19 6.27,-2.16 0.796,0.916 -0.273,3.465 -0.895,4.192 -1.836,2.16 -6.563,2.52 -8.413,-0.028 -1.605,-2.217 -1.462,-12.176 0.825,-12.17" />
<polyline
   transform="translate(-117.295,-639.603)"
   style="fill:none;stroke:#000000;stroke-width:3;stroke-linecap:round;stroke-miterlimit:10"
   id="polyline231"
   points="347.838,790.558   347.838,766.558 370.938,686.514 "
   stroke-miterlimit="10" />
<polyline
   transform="translate(-117.295,-639.603)"
   style="fill:none;stroke:#000000;stroke-linecap:round;stroke-miterlimit:10"
   id="polyline233"
   points="321.838,776.891 321.838,752.558   370.938,686.142 "
   stroke-miterlimit="10" />
<line
   style="fill:none;stroke:#000000;stroke-linecap:round;stroke-miterlimit:10"
   id="line235"
   y2="114.767"
   x2="128.216"
   y1="47.139004"
   x1="57.615005"
   stroke-miterlimit="10" />
<line
   style="fill:none;stroke:#000000;stroke-width:3;stroke-linecap:round;stroke-miterlimit:10"
   id="line237"
   y2="100.647"
   x2="103.32001"
   y1="47.516018"
   x1="56.210999"
   stroke-miterlimit="10" />
<line
   style="fill:none;stroke:#000000;stroke-miterlimit:10"
   id="line239"
   y2="38.300991"
   x2="52.498001"
   y1="25.13998"
   x1="52.498001"
   stroke-miterlimit="10" />
<g
   transform="translate(-117.295,-639.603)"
   id="g241">
	<g
   id="g243">
		<g
   id="g245"
   enable-background="new    ">
			<g
   id="g247">
				<polygon
   style="fill:#d2d4d3"
   id="polygon249"
   points="158.777,770.256 253.718,756.913 253.67,782.529 158.73,795.872 " />
			</g>
			<g
   id="g251">
				<polygon
   style="fill:#8c8f90"
   id="polygon253"
   points="158.777,770.256 158.73,795.872 117.295,773.332 117.342,747.715 " />
			</g>
			<g
   id="g255">
				<polygon
   style="fill:#b2b4b4"
   id="polygon257"
   points="253.718,756.913 158.777,770.256 117.342,747.715 212.281,734.372 " />
			</g>
		</g>
	</g>
</g>
<path
   style="clip-rule:evenodd;fill:#cd263d;fill-rule:evenodd"
   id="path259"
   d="m 52.127,35.238 c 1.724,0 1.587,1.094 1.234,4.634 -0.095,0.956 -0.558,4.507 0.979,5.532 3.572,2.381 5.375,-3.19 6.27,-2.16 0.796,0.916 -0.273,3.465 -0.895,4.192 -1.836,2.16 -6.563,2.52 -8.413,-0.028 -1.605,-2.217 -1.462,-12.176 0.825,-12.17" />
<polyline
   transform="translate(-117.295,-639.603)"
   style="fill:none;stroke:#000000;stroke-width:3;stroke-linecap:round;stroke-miterlimit:10"
   id="polyline261"
   points="148.838,789.786   148.838,765.786 171.938,685.742 "
   stroke-miterlimit="10" />
<polyline
   transform="translate(-117.295,-639.603)"
   style="fill:none;stroke:#000000;stroke-linecap:round;stroke-miterlimit:10"
   id="polyline263"
   points="122.838,776.119 122.838,751.786   171.938,685.37 "
   stroke-miterlimit="10" />
<path
   style="fill:#cd263d"
   id="path265"
   d="m 151.703,72.073 c -0.569,-0.596 1.34,-0.144 1.156,-1.106 -0.568,-0.595 -1.708,-1.785 -2.278,-2.381 0.008,-1.146 1.725,-0.51 1.732,-1.658 0.009,-1.147 -2.653,-3.157 -2.837,-4.121 -1.325,-2.155 1.716,0.638 3.424,2.421 -0.184,-0.963 1.138,1.19 1.523,0.821 0.77,-0.737 1.542,-1.475 -0.157,-4.406 -0.378,-0.779 0.771,-0.737 1.154,-1.106 -6.831,-7.137 -14.232,-14.871 -21.834,-21.271 -0.067,-0.06 -0.137,-0.124 -0.206,-0.185 4.721,-5.557 11.25,-10.965 15.545,-16.552 1.408,-1.831 4.838,-3.83 4.949,-5.855 -0.535,0.548 -1.067,1.097 -1.602,1.645 1.026,-2.203 3.199,-3.29 4.605,-5.122 -0.381,-0.372 -0.572,-0.558 -0.229,-1.293 -1.065,1.098 -2.474,2.929 -3.731,3.841 l -0.574,-0.558 c 0.876,-1.283 2.856,-2.557 3.732,-3.84 -0.192,-0.186 -0.574,-0.559 -0.766,-0.744 -0.19,-0.186 0.343,-0.734 0.875,-1.282 -0.532,0.548 -1.6,1.646 -2.132,2.194 -0.192,-0.186 -0.575,-0.557 -0.765,-0.742 -0.191,-0.188 0.34,-0.734 0.873,-1.284 -0.38,-0.371 -0.229,-1.292 -0.953,-0.929 -0.534,0.55 -1.068,1.098 -1.601,1.646 1.941,-2.381 2.052,-4.407 1.479,-4.965 -0.343,0.735 -0.916,0.178 -1.259,0.912 1.026,-2.203 1.86,-4.592 -0.461,-2.584 -8.968,8.693 -17.759,17.791 -26.443,27.008 -3.295,-3.56 -6.585,-7.156 -9.938,-9.979 -1.901,-1.601 -3.978,-5.312 -6.077,-5.579 0.568,0.594 1.139,1.188 1.707,1.783 -2.285,-1.23 -3.415,-3.568 -5.315,-5.168 -0.385,0.369 -0.578,0.553 -1.341,0.143 1.14,1.189 3.041,2.789 3.984,4.164 l -0.576,0.553 c -1.332,-1.006 -2.654,-3.159 -3.985,-4.165 -0.193,0.185 -0.578,0.554 -0.771,0.737 -0.192,0.185 -0.762,-0.41 -1.331,-1.005 0.569,0.595 1.708,1.785 2.276,2.38 -0.191,0.184 -0.578,0.553 -0.77,0.736 -0.193,0.186 -0.762,-0.409 -1.333,-1.005 -0.383,0.368 -1.338,0.142 -0.964,0.921 0.573,0.596 1.142,1.189 1.711,1.785 -2.47,-2.195 -4.572,-2.463 -5.15,-1.911 0.764,0.411 0.185,0.965 0.947,1.375 -2.285,-1.231 -4.764,-2.279 -2.68,0.284 6.932,7.655 14.108,15.221 21.399,22.72 -7.142,7.675 -14.224,15.372 -21.282,22.932 -0.875,1.284 0.041,1.104 0.424,1.476 2.13,-2.191 4.072,-4.572 6.053,-5.847 0.533,-0.549 0.232,1.29 1.148,1.115 0.533,-0.549 1.6,-1.646 2.133,-2.196 1.106,0.01 0.613,1.664 1.721,1.672 1.106,0.01 2.855,-2.557 3.771,-2.733 1.982,-1.275 -0.493,1.654 -2.094,3.3 0.916,-0.176 -1.064,1.098 -0.683,1.469 0.765,0.743 1.529,1.486 4.235,-0.15 0.725,-0.362 0.765,0.743 1.146,1.115 4.049,-4.168 8.313,-8.557 12.326,-13.074 10.208,10.328 20.533,20.545 30.623,30.704 1.332,1.005 1.146,0.041 1.531,-0.328 -2.273,-2.38 -4.743,-4.576 -6.064,-6.728" />
<path
   style="fill:#157081"
   id="path267"
   d="m 309.5,50.084 c 0.612,0.629 1.225,1.275 1.84,1.936 0.154,0.166 0.308,0.332 0.461,0.498 l 0.233,0.252 c 0.036,0.037 0.043,0.039 0.067,0.061 0.073,0.064 0.146,0.129 0.221,0.194 0.143,0.13 0.273,0.258 0.402,0.391 l 0.191,0.201 0.095,0.104 0.046,0.053 0.024,0.026 0.011,0.014 0.01,-0.014 c 0.28,-0.379 0.588,-0.736 0.901,-1.088 1.53,-1.856 3.106,-3.705 4.662,-5.525 3.121,-3.641 6.206,-7.188 8.984,-10.588 9.313,-11.574 20.976,-22.851 32.815,-32.11 0.293,0.376 -0.242,1.708 0.883,1.124 0.544,-0.314 1.027,-0.58 1.461,-0.795 0.438,-0.211 0.824,-0.379 1.164,-0.508 0.682,-0.26 1.182,-0.367 1.562,-0.375 0.763,-0.018 1.046,0.365 1.331,0.747 0.286,0.381 -2.939,2.223 -1.673,1.861 -0.739,0.548 -1.566,1.232 -2.359,1.895 -0.793,0.667 -1.554,1.31 -2.104,1.848 -1.108,1.063 -1.467,1.588 0.102,0.608 1.232,-0.414 4.781,-3.804 6.199,-3.95 1.396,-0.163 -0.104,1.868 1.29,1.708 0.483,-0.359 1.196,-0.917 1.929,-1.444 0.731,-0.528 1.463,-1.058 1.949,-1.409 1.248,-0.312 -0.139,1.863 0.832,1.162 3.186,-1.688 6.98,-4.552 11.057,-6.961 0.123,0.205 0.506,0.254 0.612,0.434 0.052,0.09 0.037,0.212 -0.116,0.4 -0.145,0.189 -0.42,0.444 -0.891,0.802 -0.787,0.495 -1.575,0.99 -2.364,1.485 -0.777,0.52 -1.556,1.038 -2.335,1.557 -0.781,0.511 -1.545,1.058 -2.312,1.6 -0.765,0.547 -1.542,1.07 -2.295,1.638 -3.044,2.218 -6.017,4.565 -8.952,6.97 -2.915,2.438 -5.797,4.932 -8.615,7.515 -2.813,2.59 -5.596,5.224 -8.312,7.936 -2.721,2.71 -5.398,5.469 -8.031,8.274 -2.628,2.812 -5.217,5.665 -7.757,8.557 -2.542,2.892 -5.039,5.822 -7.486,8.784 l -1.824,2.228 -0.903,1.117 -0.779,0.975 -0.919,1.158 -0.919,1.158 -0.907,1.182 -0.908,1.184 -0.905,1.205 c -1.207,1.613 -2.416,3.225 -3.623,4.836 -3.541,-4.154 -7.076,-8.306 -10.608,-12.451 -1.911,-2.262 -3.819,-4.521 -5.726,-6.777 -3.802,-4.521 -7.572,-9.045 -11.305,-13.572 -2.98,-3.861 0.114,-1.698 3.029,0.618 -0.972,-0.771 -0.429,-1.235 -1.4,-2.007 0.543,-0.465 3.029,0.617 6.373,4.17 -0.791,-0.927 -1.58,-1.853 -2.373,-2.78 -0.608,-1.081 0.543,-0.463 0.906,-0.772 0.792,0.928 1.58,1.854 1.762,1.699 0.182,-0.155 0.544,-0.464 0.725,-0.617 -0.789,-0.926 -2.371,-2.781 -3.162,-3.707 0.791,0.926 1.581,1.853 1.763,1.699 0.181,-0.155 0.542,-0.463 0.724,-0.618 1.762,1.698 3.77,4.787 5.534,6.487 l 0.543,-0.463 c -1.401,-2.009 -3.952,-4.635 -5.534,-6.488 0.974,0.773 1.153,0.619 1.517,0.311 2.552,2.625 4.38,5.869 7.293,8.185 l -2.37,-2.779 c 2.485,1.074 5.711,6.324 8.264,8.951" />
<rect
   style="fill:none;stroke:#000000;stroke-width:3.10840011;stroke-miterlimit:10"
   id="rect269"
   height="47.77"
   width="47.77"
   stroke-miterlimit="10"
   y="-527.46399"
   x="306.13898" />
<rect
   style="fill:none;stroke:#000000;stroke-width:3.10840011;stroke-miterlimit:10"
   id="rect271"
   height="47.77"
   width="47.77"
   stroke-miterlimit="10"
   y="-259.80499"
   x="306.13898" />
<path
   style="fill:#157081"
   id="path273"
   d="m 324.814,-504.632 c 0.613,0.629 1.227,1.275 1.842,1.936 0.152,0.166 0.307,0.332 0.461,0.498 l 0.232,0.252 c 0.037,0.037 0.043,0.039 0.066,0.061 0.074,0.064 0.146,0.129 0.221,0.194 0.143,0.13 0.275,0.258 0.404,0.391 l 0.189,0.201 0.096,0.104 0.047,0.053 0.023,0.026 0.012,0.014 c 0.002,-0.002 0.006,-0.009 0.01,-0.014 0.279,-0.379 0.586,-0.736 0.9,-1.088 1.529,-1.856 3.105,-3.705 4.662,-5.525 3.121,-3.641 6.207,-7.188 8.984,-10.588 9.312,-11.574 20.975,-22.851 32.816,-32.11 0.291,0.376 -0.244,1.708 0.881,1.124 0.545,-0.314 1.027,-0.58 1.461,-0.795 0.439,-0.211 0.826,-0.379 1.166,-0.508 0.682,-0.26 1.182,-0.367 1.562,-0.375 0.762,-0.018 1.045,0.365 1.33,0.747 0.285,0.381 -2.939,2.223 -1.674,1.861 -0.738,0.548 -1.564,1.232 -2.359,1.895 -0.793,0.667 -1.553,1.31 -2.104,1.848 -1.107,1.063 -1.467,1.588 0.102,0.608 1.232,-0.414 4.781,-3.804 6.199,-3.95 1.398,-0.163 -0.104,1.868 1.291,1.708 0.482,-0.359 1.195,-0.917 1.928,-1.444 0.732,-0.528 1.463,-1.058 1.951,-1.409 1.246,-0.312 -0.141,1.863 0.83,1.162 3.186,-1.688 6.982,-4.552 11.059,-6.961 0.121,0.205 0.504,0.254 0.611,0.434 0.053,0.09 0.037,0.212 -0.117,0.4 -0.145,0.189 -0.42,0.444 -0.889,0.802 -0.789,0.495 -1.576,0.99 -2.365,1.485 -0.777,0.52 -1.557,1.038 -2.334,1.557 -0.783,0.511 -1.547,1.058 -2.312,1.6 -0.766,0.547 -1.543,1.07 -2.295,1.638 -3.043,2.218 -6.016,4.565 -8.953,6.97 -2.914,2.438 -5.797,4.932 -8.615,7.515 -2.812,2.59 -5.594,5.224 -8.312,7.936 -2.719,2.71 -5.396,5.469 -8.031,8.274 -2.627,2.812 -5.215,5.665 -7.756,8.557 -2.543,2.892 -5.039,5.822 -7.486,8.784 l -1.824,2.228 -0.904,1.117 -0.779,0.975 -0.918,1.158 -0.918,1.158 -0.908,1.182 -0.908,1.184 -0.906,1.205 c -1.207,1.613 -2.416,3.225 -3.623,4.836 -3.539,-4.154 -7.076,-8.306 -10.607,-12.451 -1.91,-2.262 -3.82,-4.521 -5.725,-6.777 -3.803,-4.521 -7.574,-9.045 -11.307,-13.572 -2.98,-3.861 0.115,-1.698 3.029,0.618 -0.971,-0.771 -0.428,-1.235 -1.4,-2.007 0.543,-0.465 3.029,0.617 6.373,4.17 -0.791,-0.927 -1.58,-1.853 -2.371,-2.78 -0.609,-1.081 0.543,-0.463 0.904,-0.772 0.793,0.928 1.582,1.854 1.764,1.699 0.18,-0.154 0.543,-0.464 0.723,-0.617 -0.789,-0.926 -2.371,-2.781 -3.16,-3.707 0.789,0.926 1.58,1.853 1.762,1.699 0.18,-0.155 0.543,-0.463 0.725,-0.618 1.762,1.698 3.77,4.787 5.533,6.487 l 0.543,-0.463 c -1.4,-2.009 -3.953,-4.635 -5.535,-6.488 0.975,0.773 1.154,0.619 1.518,0.311 2.551,2.625 4.379,5.869 7.293,8.185 l -2.369,-2.779 c 2.482,1.074 5.709,6.324 8.261,8.951" />
<path
   style="fill:#cd263d"
   id="path275"
   d="m 355.574,-205.04 c -0.57,-0.596 1.338,-0.144 1.156,-1.106 -0.57,-0.595 -1.709,-1.785 -2.279,-2.381 0.008,-1.146 1.725,-0.51 1.732,-1.658 0.01,-1.147 -2.652,-3.157 -2.836,-4.121 -1.326,-2.155 1.715,0.638 3.424,2.421 -0.184,-0.963 1.137,1.19 1.523,0.821 0.77,-0.737 1.541,-1.475 -0.158,-4.406 -0.377,-0.779 0.771,-0.737 1.154,-1.106 -6.83,-7.137 -14.232,-14.871 -21.834,-21.271 -0.066,-0.06 -0.137,-0.124 -0.205,-0.185 4.721,-5.557 11.25,-10.965 15.545,-16.552 1.408,-1.831 4.838,-3.83 4.947,-5.855 -0.533,0.548 -1.066,1.097 -1.6,1.645 1.025,-2.203 3.199,-3.29 4.605,-5.122 -0.381,-0.372 -0.572,-0.558 -0.23,-1.293 -1.066,1.098 -2.473,2.929 -3.732,3.841 l -0.572,-0.558 c 0.875,-1.283 2.855,-2.557 3.732,-3.84 -0.193,-0.186 -0.574,-0.559 -0.766,-0.744 -0.192,-0.185 0.342,-0.734 0.875,-1.282 -0.533,0.548 -1.6,1.646 -2.133,2.194 -0.191,-0.186 -0.574,-0.557 -0.764,-0.742 -0.191,-0.188 0.34,-0.734 0.873,-1.284 -0.381,-0.371 -0.23,-1.292 -0.955,-0.929 -0.533,0.55 -1.066,1.098 -1.6,1.646 1.941,-2.381 2.053,-4.407 1.479,-4.965 -0.342,0.735 -0.916,0.178 -1.258,0.912 1.025,-2.203 1.859,-4.592 -0.461,-2.584 -8.969,8.693 -17.76,17.791 -26.443,27.008 -3.295,-3.56 -6.586,-7.156 -9.939,-9.979 -1.9,-1.601 -3.977,-5.312 -6.076,-5.579 0.568,0.594 1.139,1.188 1.707,1.783 -2.285,-1.23 -3.416,-3.568 -5.316,-5.168 -0.385,0.369 -0.578,0.553 -1.34,0.143 1.139,1.189 3.039,2.789 3.984,4.164 l -0.576,0.553 c -1.332,-1.006 -2.654,-3.159 -3.986,-4.165 -0.193,0.185 -0.578,0.554 -0.77,0.737 -0.193,0.185 -0.762,-0.41 -1.332,-1.005 0.57,0.595 1.709,1.785 2.277,2.38 -0.191,0.184 -0.578,0.553 -0.77,0.736 -0.193,0.186 -0.762,-0.409 -1.334,-1.005 -0.383,0.368 -1.338,0.142 -0.963,0.921 0.572,0.596 1.141,1.189 1.711,1.785 -2.471,-2.195 -4.572,-2.463 -5.15,-1.911 0.764,0.411 0.184,0.965 0.947,1.375 -2.285,-1.231 -4.764,-2.279 -2.68,0.284 6.93,7.655 14.107,15.221 21.398,22.72 -7.141,7.675 -14.223,15.372 -21.281,22.932 -0.875,1.284 0.041,1.104 0.424,1.476 2.129,-2.191 4.072,-4.572 6.053,-5.847 0.533,-0.549 0.232,1.29 1.148,1.115 0.533,-0.549 1.6,-1.646 2.133,-2.196 1.105,0.01 0.613,1.664 1.721,1.672 1.105,0.01 2.855,-2.557 3.771,-2.733 1.982,-1.275 -0.494,1.654 -2.094,3.3 0.916,-0.176 -1.064,1.098 -0.684,1.469 0.766,0.743 1.529,1.486 4.236,-0.15 0.725,-0.362 0.764,0.743 1.145,1.115 4.051,-4.168 8.314,-8.557 12.328,-13.074 10.207,10.328 20.533,20.545 30.623,30.704 1.332,1.005 1.146,0.041 1.531,-0.328 -2.274,-2.379 -4.745,-4.575 -6.065,-6.728" />
</svg>