<?xml version="1.0" encoding="utf-8"?>
<!-- Generator: Adobe Illustrator 16.0.0, SVG Export Plug-In . SVG Version: 6.00 Build 0)  -->
<!DOCTYPE svg PUBLIC "-//W3C//DTD SVG 1.1//EN" "http://www.w3.org/Graphics/SVG/1.1/DTD/svg11.dtd">
<svg version="1.1" id="Capa_1" xmlns="http://www.w3.org/2000/svg" xmlns:xlink="http://www.w3.org/1999/xlink" x="0px" y="0px"
	 width="1366px" height="768px" viewBox="0 0 1366 768" enable-background="new 0 0 1366 768" xml:space="preserve">
<radialGradient id="SVGID_1_" cx="-195.0283" cy="165.4199" r="449.0683" gradientTransform="matrix(2.111 0 0 0.9608 1094.3071 118.0737)" gradientUnits="userSpaceOnUse">
	<stop  offset="0" style="stop-color:#FFFFFF"/>
	<stop  offset="0.1716" style="stop-color:#FFFFFC"/>
	<stop  offset="0.3031" style="stop-color:#FFFDF2"/>
	<stop  offset="0.4214" style="stop-color:#FFFBE2"/>
	<stop  offset="0.5318" style="stop-color:#FFF8CB"/>
	<stop  offset="0.6369" style="stop-color:#FFF4AD"/>
	<stop  offset="0.7379" style="stop-color:#FFF088"/>
	<stop  offset="0.8357" style="stop-color:#FFEA5C"/>
	<stop  offset="0.9284" style="stop-color:#FFE42B"/>
	<stop  offset="1" style="stop-color:#FFDE00"/>
</radialGradient>
<rect x="0.15" y="-1.597" fill="url(#SVGID_1_)" width="1364.905" height="557.212"/>
<path fill="#FFDE00" d="M0.15,412.076c63.312-1.188,791.907-59.851,1364.905,130.71v222.999H0.15V412.076z"/>
<path fill="#FFFFFF" d="M277.543,500.967c-94.557,0-187.23,3.821-277.393,11.131V768h1364.905v-70.509
	C1076.206,575.264,695.184,500.967,277.543,500.967z"/>
<g>
	<circle fill="#B9DCC0" cx="58.449" cy="698.785" r="2.652"/>
</g>
<g>
	<circle fill="#EE7DAF" cx="505.449" cy="97.785" r="3.173"/>
</g>
<g>
	<circle fill="#D4C1C1" cx="240.449" cy="141.453" r="3.332"/>
</g>
<g>
	<circle fill="#DBD1BD" cx="130.845" cy="199.785" r="3.396"/>
</g>
<g>
	<circle fill="#B7AEC4" cx="676.602" cy="207.785" r="2.847"/>
</g>
<g>
	<circle fill="#E6E8BF" cx="375.449" cy="729.785" r="2.977"/>
</g>
<g>
	<circle fill="#DCE9C2" cx="290.449" cy="633.785" r="3.078"/>
</g>
<g>
	<circle fill="#CAAEC1" cx="472.449" cy="562.785" r="2.957"/>
</g>
<g>
	<circle fill="#EB6237" cx="715.449" cy="291.785" r="4.053"/>
</g>
<g>
	<circle fill="#E397B9" cx="648.009" cy="337.748" r="1.751"/>
</g>
<g>
	<circle fill="#E393B9" cx="721.63" cy="402.283" r="3.358"/>
</g>
<g>
	<circle fill="#EB6237" cx="733.896" cy="526.686" r="3.313"/>
</g>
<g>
	<circle fill="#EF86B2" cx="905.433" cy="510.562" r="4.036"/>
</g>
<g>
	<circle fill="#C6CDC4" cx="902.768" cy="378.488" r="2.664"/>
</g>
<g>
	<circle fill="#E0E8BF" cx="968.449" cy="407.785" r="3.064"/>
</g>
<g>
	<circle fill="#F9E6BA" cx="1131.865" cy="467.499" r="3.961"/>
</g>
<g>
	<circle fill="#CDE4C4" cx="1132.449" cy="304.785" r="2.951"/>
</g>
<g>
	<circle fill="#E8E7BC" cx="1064.97" cy="333.953" r="2.708"/>
</g>
<g>
	<circle fill="#A1C5CB" cx="877.142" cy="87.242" r="2.87"/>
</g>
<g>
	<circle fill="#A3D4BF" cx="1000.222" cy="278.206" r="1.493"/>
</g>
<g>
	<circle fill="#DBC1BD" cx="1010.449" cy="68.673" r="2.111"/>
</g>
<g>
	<circle fill="#F19DB6" cx="1012.822" cy="169.143" r="3.477"/>
</g>
<g>
	<circle fill="#EE7CAE" cx="735.582" cy="118.611" r="3.854"/>
</g>
<g>
	<circle fill="#E28EB9" cx="326.208" cy="237.785" r="3.759"/>
</g>
<g>
	<circle fill="#F08CB2" cx="468.449" cy="190.785" r="3.367"/>
</g>
<g>
	<circle fill="#AEB8C7" cx="414.449" cy="44.785" r="3.523"/>
</g>
<g>
	<circle fill="#CBABBE" cx="160.946" cy="71.785" r="2.503"/>
</g>
<g>
	<circle fill="#EF84B2" cx="290.45" cy="55.582" r="2.797"/>
</g>
<g>
	<circle fill="#FBDAB9" cx="425.449" cy="621.785" r="3.016"/>
</g>
<g>
	<circle fill="#AED7BF" cx="156.449" cy="672.836" r="3.949"/>
</g>
<g>
	<circle fill="#82C9C0" cx="39.449" cy="564.785" r="3.408"/>
</g>
<g>
	<circle fill="#A1AFC4" cx="151.449" cy="569.786" r="4.808"/>
</g>
<g>
	<circle fill="#73C5BE" cx="594.449" cy="665.785" r="2.715"/>
</g>
<g>
	<circle fill="#BCC1C1" cx="489.449" cy="697.786" r="3.814"/>
</g>
<g>
	<circle fill="#EF7FB0" cx="1049.8" cy="550.237" r="5.144"/>
</g>
<g>
	<circle fill="#F29CB3" cx="1172.196" cy="607.215" r="5.397"/>
</g>
<g>
	<circle fill="#B2BEC3" cx="1173.716" cy="673.785" r="1.733"/>
</g>
<g>
	<circle fill="#A1AFC4" cx="1215.74" cy="724.504" r="4.166"/>
</g>
<g>
	<circle fill="#F0D0BB" cx="1016.449" cy="377.785" r="3.54"/>
</g>
<g>
	<circle fill="#EF7FB0" cx="1211.448" cy="306.494" r="2.71"/>
</g>
<g>
	<circle fill="#EC86B5" cx="1307.449" cy="286.785" r="3.098"/>
</g>
<polygon fill="#3C3C3B" points="1083.15,122.612 1366,122.612 1366,205.663 1083.15,205.663 1118.746,164.14 "/>
<g>
	<path fill="#FFFFFF" d="M1147.652,149.552l0.479-0.771l0.476-0.719l0.54-0.717l0.539-0.719l0.542-0.658l0.598-0.656l0.598-0.658
		l0.654-0.596l0.604-0.6l0.659-0.596l0.713-0.6l0.661-0.535l0.718-0.539l0.361-0.24l0.418-0.24l0.716-0.475l0.781-0.42l0.778-0.479
		l0.777-0.359l0.838-0.416l0.777-0.359l0.839-0.299l0.839-0.301l0.896-0.297l0.839-0.238l0.898-0.242l0.897-0.178l0.896-0.18
		l0.9-0.119l0.959-0.119l0.898-0.059l0.957-0.062h0.958h1.435l1.438,0.121l0.718,0.061l0.657,0.119l1.38,0.238l0.717,0.178
		l0.66,0.121l1.316,0.418l1.314,0.416l1.258,0.541l0.658,0.24l0.598,0.297l1.198,0.598l0.6,0.359l0.597,0.359l1.138,0.717
		l1.078,0.779l1.078,0.834l1.017,0.838l0.958,0.955l0.959,0.957l0.896,1.014l0.839,1.078l0.778,1.072l0.719,1.135l0.356,0.602
		l0.301,0.598l0.657,1.195l0.539,1.254l0.48,1.256l0.239,0.658l0.238,0.656l0.181,0.658l0.179,0.658l0.18,0.715l0.12,0.658
		l0.178,0.717l0.061,0.658l0.12,0.717l0.062,0.717l0.058,0.715l0.062,0.717l0.058,0.717v0.719v0.779l-0.058,0.416l-0.119,0.42
		l-0.062,0.416l-0.12,0.361l-0.298,0.656l-0.18,0.301l-0.181,0.297l-0.239,0.236l-0.238,0.303l-0.301,0.238l-0.299,0.178
		l-0.358,0.24l-0.359,0.18l-0.356,0.178l-0.422,0.184l-0.121-0.121l-0.117-0.182l-0.121-0.297l-0.118-0.301l-0.242-0.836
		l-0.298-1.016l-0.239-1.193l-0.238-1.258l-0.479-2.867l-0.958-5.498l-0.239-1.195l-0.18-0.957l-0.239-0.779l-0.119-0.596l-0.3-0.66
		l-0.361-0.596l-0.298-0.537l-0.358-0.477l-0.361-0.422l-0.179-0.18l-0.18-0.176l-0.358-0.299l-0.239-0.119l-0.18-0.119l-0.418-0.18
		l-0.42-0.182l-0.42-0.061l-0.478-0.059h-0.48l-0.418,0.059l-0.479,0.121l-0.481,0.121l-0.537,0.18l-0.479,0.238l-1.019,0.537
		l-1.017,0.656l-0.539,0.42l-0.541,0.418l-0.234,0.18l-0.302,0.238l-0.538,0.479l-0.478,0.479l-0.54,0.535l-0.54,0.48l-0.538,0.598
		l-1.077,1.137l0.301-1.195l0.179-1.078l0.061-0.537l0.059-0.535l0.061-0.48v-0.479v-0.42l-0.061-0.416l-0.059-0.361l-0.121-0.355
		l-0.118-0.359l-0.181-0.299l-0.18-0.24l-0.239-0.238l-0.42-0.357l-0.479-0.24l-0.297-0.059l-0.242-0.061l-0.237-0.061l-0.301-0.059
		h-0.239h-0.299l-0.539,0.059h-0.298l-0.3,0.121l-0.6,0.18l-0.6,0.178l-0.598,0.299l-0.656,0.357l-0.6,0.361l-0.657,0.418
		l-0.601,0.416l-0.656,0.479l-0.661,0.48l-1.194,1.072l-1.198,1.078l-1.14,1.137l-1.077,1.076l-0.956,1.014l-0.9,0.959l-1.315,1.434
		l0.478-1.195l0.361-1.137l0.241-1.074l0.117-0.537l0.062-0.48l0.118-0.896l0.06-0.896v-0.416v-0.361l-0.06-0.359l-0.062-0.359
		l-0.118-0.654l-0.238-0.602l-0.12-0.299l-0.118-0.236l-0.361-0.479l-0.359-0.416l-0.239-0.182l-0.18-0.178l-0.477-0.301
		l-0.539-0.238l-0.539-0.18l-0.537-0.178l-0.362-0.061h-0.299l-0.659-0.061h-0.656l-0.66,0.061l-0.717,0.121l-0.72,0.117
		l-0.779,0.18l-0.716,0.238l-0.778,0.24l-0.777,0.299l-0.72,0.357l-0.779,0.359l-0.717,0.359L1147.652,149.552L1147.652,149.552z
		 M1143.581,164.136v-1.133l0.062-1.076l0.119-1.137l0.178-1.072l0.061-0.244l0.059-0.297l0.24-0.479l0.239-0.539l0.3-0.477
		l0.358-0.479l0.363-0.479l0.414-0.479l0.421-0.416l0.42-0.418l0.479-0.42l0.478-0.416l0.48-0.361l0.537-0.357l0.479-0.359
		l1.077-0.658l1.02-0.537l1.014-0.541l1.02-0.355l0.899-0.361l0.775-0.178l0.359-0.061l0.361-0.057l0.238-0.061h0.299l0.179,0.061
		l0.182,0.057l0.18,0.121l0.117,0.117l0.121,0.121l0.121,0.182l0.06,0.178l0.118,0.236v0.242l0.059,0.238v0.598l-0.059,0.6
		l-0.118,0.656l-0.181,0.777l-0.238,0.775l-0.303,0.84l-0.656,1.73l-0.419,0.957l-0.42,0.896l-0.895,1.91l-1.02,1.854l-0.957,1.854
		l-1.856,3.287l-1.496,2.51l-0.778,1.258l-0.238,0.477l-0.061,0.238l-0.06,0.24l-0.06,0.18v0.238l0.06,0.355l0.06,0.244l0.061,0.178
		l0.061,0.117l0.117,0.18l0.242,0.299l0.297,0.24l0.3,0.18l0.357,0.119l0.359,0.061h0.419l0.36-0.119l0.421-0.182l0.178-0.119
		l0.179-0.119l0.182-0.18l0.177-0.238l4.074-4.842l2.991-3.525l1.616-1.852l1.735-1.912l1.677-1.914l0.897-0.898l0.836-0.895
		l1.675-1.734l1.683-1.611l1.554-1.434l0.715-0.6l0.722-0.598l0.656-0.479l0.656-0.418l0.539-0.357l0.542-0.303l-0.12,0.9
		l-0.239,1.014l-0.119,0.539l-0.181,0.598l-0.36,1.137l-0.358,1.254l-0.477,1.256l-0.479,1.258l-0.54,1.312l-1.079,2.629
		l-1.136,2.508l-0.54,1.137l-0.598,1.137l-0.54,1.018l-0.477,0.953l-0.9,1.434l-0.237,0.48l-0.061,0.236l-0.062,0.242v0.178v0.24
		l0.062,0.359l0.061,0.236l0.06,0.182l0.178,0.297l0.181,0.178l0.121,0.123l0.117,0.121l0.183,0.119l0.179,0.059l0.181,0.117
		l0.178,0.061l0.179,0.061h0.418h0.361l0.18-0.061l0.238-0.061l0.182-0.117l0.178-0.121l0.361-0.301l0.179-0.178l0.119-0.238
		l0.06-0.059l0.062-0.061l0.717-1.254l0.958-1.438l1.015-1.551l1.139-1.734l1.2-1.73l1.312-1.795l1.319-1.852l1.378-1.738
		l1.314-1.729l1.317-1.557l1.316-1.434l0.599-0.656l0.599-0.598l0.54-0.541l0.598-0.475l0.478-0.418l0.54-0.303l0.182-0.178
		l0.237-0.119l0.418-0.178l0.42-0.059h0.301l0.357,0.236l0.299,0.42l0.3,0.416l0.24,0.539l0.181,0.598l0.177,0.658l0.182,0.656
		l0.176,0.777l0.242,1.615l0.237,1.67l0.421,3.646l0.18,0.898l0.119,0.896l0.3,1.672l0.24,0.84l0.06,0.416l0.117,0.359l0.242,0.777
		l0.298,0.715l0.182,0.301l0.119,0.297l0.358,0.6l0.181,0.297l0.18,0.24l0.478,0.48l0.477,0.355l0.243,0.18l0.237,0.123l0.301,0.115
		l0.299,0.121l0.3,0.061l0.3,0.059l0.716,0.061h0.363l0.297-0.061l0.657-0.119l0.661-0.178l-0.362,1.014l-0.416,1.016l-0.48,0.957
		l-0.239,0.479l-0.241,0.479l-0.536,0.953l-0.541,0.9l-0.599,0.896l-0.597,0.834l-0.659,0.838l-0.718,0.836l-0.72,0.779
		l-0.718,0.773l-0.778,0.717l-0.419,0.361l-0.419,0.357l-0.778,0.658l-0.898,0.66l-0.838,0.592l-0.896,0.6l-0.959,0.537l-0.958,0.48
		l-0.956,0.477l-0.957,0.479l-1.019,0.359l-1.016,0.357l-0.541,0.182l-0.54,0.178l-1.075,0.238l-1.077,0.24l-1.077,0.238
		l-1.077,0.119l-1.139,0.117l-1.138,0.061l-1.136,0.064l-1.437-0.064l-1.438-0.117l-0.719-0.061l-0.717-0.119l-1.379-0.238
		l-0.658-0.121l-0.658-0.18l-1.376-0.355l-1.257-0.479l-1.314-0.48l-0.601-0.295l-0.6-0.303l-1.257-0.598l-0.596-0.297l-0.541-0.359
		l-1.14-0.717l-1.134-0.836l-1.021-0.777l-1.018-0.898l-1.016-0.955l-0.896-0.959l-0.9-1.014l-0.838-1.076l-0.778-1.074
		l-0.716-1.135l-0.358-0.598l-0.362-0.6l-0.598-1.195l-0.536-1.256l-0.543-1.252l-0.178-0.66l-0.239-0.658l-0.179-0.656
		l-0.181-0.658l-0.18-0.658l-0.178-0.713l-0.121-0.66l-0.119-0.717l-0.062-0.717l-0.117-0.656l-0.06-0.719l-0.062-0.715v-0.721
		V164.136L1143.581,164.136z"/>
	<polygon fill-rule="evenodd" clip-rule="evenodd" fill="#FFFFFF" points="1210.921,177.585 1213.077,177.585 1213.077,158.698 
		1213.136,158.698 1219.48,177.585 1221.874,177.585 1228.218,158.698 1228.279,158.698 1228.279,177.585 1230.437,177.585 
		1230.437,156.069 1226.845,156.069 1220.735,174.356 1220.676,174.356 1214.572,156.069 1210.921,156.069 1210.921,177.585 	"/>
	<path fill-rule="evenodd" clip-rule="evenodd" fill="#FFFFFF" d="M1231.749,177.585h2.456l2.095-6.637h7.661l2.155,6.637h2.395
		l-6.942-21.516h-2.933L1231.749,177.585L1231.749,177.585z M1240.07,158.278h0.061l3.173,10.641h-6.345L1240.07,158.278
		L1240.07,158.278z"/>
	<polygon fill-rule="evenodd" clip-rule="evenodd" fill="#FFFFFF" points="1252.582,177.585 1255.635,177.585 1262.818,156.069 
		1260.306,156.069 1254.195,174.954 1254.139,174.954 1248.032,156.069 1245.578,156.069 1252.582,177.585 	"/>
	<polygon fill-rule="evenodd" clip-rule="evenodd" fill="#FFFFFF" points="1264.613,177.585 1267.065,177.585 1267.065,156.069 
		1264.613,156.069 1264.613,177.585 	"/>
	<polygon fill-rule="evenodd" clip-rule="evenodd" fill="#FFFFFF" points="1278.321,176.21 1278.321,175.491 1277.96,175.552 
		1277.54,175.61 1277.303,175.61 1277.062,175.552 1276.943,175.433 1276.824,175.315 1276.766,175.192 1276.701,174.954 
		1276.645,174.657 1276.645,174.296 1276.645,171.247 1278.321,171.247 1278.321,170.53 1276.645,170.53 1276.645,168.44 
		1275.806,168.677 1275.806,170.53 1274.547,170.53 1274.547,171.247 1275.806,171.247 1275.806,174.657 1275.806,175.073 
		1275.863,175.433 1275.927,175.731 1276.105,175.972 1276.164,176.03 1276.283,176.149 1276.582,176.269 1276.885,176.329 
		1277.244,176.329 1277.841,176.329 1278.082,176.269 1278.321,176.21 	"/>
	<path fill-rule="evenodd" clip-rule="evenodd" fill="#FFFFFF" d="M1283.947,172.804l-0.06-0.479l-0.062-0.42l-0.182-0.418
		l-0.116-0.176l-0.12-0.184l-0.121-0.119l-0.178-0.117l-0.181-0.121l-0.18-0.121l-0.239-0.061l-0.238-0.059l-0.3-0.061h-0.24h-0.297
		l-0.306,0.061l-0.235,0.059l-0.237,0.123l-0.242,0.119l-0.18,0.117l-0.18,0.18l-0.181,0.184l-0.297,0.416l-0.181,0.537
		l-0.117,0.238v0.301l-0.062,0.297v0.359v0.357l0.062,0.301v0.355l0.117,0.244l0.06,0.295l0.121,0.24l0.18,0.18l0.117,0.238
		l0.181,0.119l0.18,0.182l0.238,0.119l0.242,0.119l0.237,0.059l0.302,0.061h0.298l0.299,0.061l0.538-0.061l0.481-0.061l0.478-0.119
		l0.419-0.119l-0.122-0.715l-0.357,0.117l-0.417,0.119l-0.421,0.059l-0.421,0.061l-0.477-0.061l-0.423-0.119l-0.111-0.059
		l-0.182-0.117l-0.18-0.123l-0.121-0.119l-0.179-0.299l-0.18-0.418v-0.238l-0.06-0.301v-0.596h3.83v-0.24V172.804L1283.947,172.804z
		 M1283.048,172.562h-2.871l0.058-0.297l0.122-0.297l0.116-0.24l0.184-0.24l0.237-0.117l0.235-0.184l0.244-0.059h0.298h0.301
		l0.3,0.059l0.117,0.061l0.121,0.123l0.121,0.059l0.061,0.119l0.179,0.18l0.118,0.24l0.06,0.297V172.562L1283.048,172.562z"/>
	<polygon fill-rule="evenodd" clip-rule="evenodd" fill="#FFFFFF" points="1289.091,176.03 1289.033,175.253 1288.734,175.433 
		1288.375,175.491 1287.957,175.552 1287.597,175.61 1287.358,175.61 1287.118,175.552 1286.759,175.433 1286.459,175.253 
		1286.34,175.134 1286.221,174.954 1286.042,174.657 1285.922,174.296 1285.862,173.88 1285.862,173.46 1285.862,172.981 
		1285.981,172.503 1286.101,172.146 1286.282,171.786 1286.399,171.667 1286.579,171.548 1286.701,171.429 1286.88,171.37 
		1287.059,171.247 1287.24,171.247 1287.719,171.187 1288.016,171.187 1288.375,171.247 1288.673,171.312 1288.974,171.429 
		1289.091,170.649 1288.435,170.53 1287.719,170.47 1287.42,170.47 1287.118,170.53 1286.822,170.589 1286.521,170.712 
		1286.282,170.831 1286.042,170.948 1285.922,171.069 1285.802,171.128 1285.737,171.247 1285.621,171.37 1285.562,171.429 
		1285.502,171.548 1285.322,171.786 1285.205,172.085 1285.143,172.325 1285.023,172.626 1284.963,172.923 1284.963,173.284 
		1284.963,173.64 1284.963,173.999 1285.023,174.356 1285.081,174.657 1285.143,174.954 1285.26,175.192 1285.383,175.433 
		1285.562,175.61 1285.683,175.79 1285.862,175.911 1286.042,176.03 1286.282,176.149 1286.459,176.21 1286.938,176.329 
		1287.42,176.329 1287.897,176.329 1288.375,176.21 1288.794,176.149 1289.091,176.03 	"/>
	<polygon fill-rule="evenodd" clip-rule="evenodd" fill="#FFFFFF" points="1295.021,176.269 1295.021,172.265 1294.96,171.905 
		1294.9,171.548 1294.9,171.429 1294.78,171.247 1294.661,171.009 1294.54,170.892 1294.423,170.771 1294.243,170.649 
		1294.121,170.589 1293.941,170.53 1293.762,170.47 1293.522,170.47 1293.284,170.47 1292.924,170.47 1292.565,170.53 
		1292.267,170.649 1292.025,170.831 1291.787,171.009 1291.548,171.247 1291.369,171.548 1291.31,171.667 1291.249,171.845 
		1291.31,171.187 1291.31,170.53 1290.469,170.53 1290.469,176.269 1291.31,176.269 1291.31,173.521 1291.369,173.042 
		1291.43,172.804 1291.43,172.562 1291.605,172.206 1291.787,171.845 1292.088,171.548 1292.204,171.429 1292.384,171.312 
		1292.687,171.187 1293.043,171.128 1293.344,171.187 1293.583,171.247 1293.762,171.37 1293.941,171.548 1294.002,171.728 
		1294.062,171.968 1294.121,172.265 1294.121,172.562 1294.121,176.269 1295.021,176.269 	"/>
	<path fill-rule="evenodd" clip-rule="evenodd" fill="#FFFFFF" d="M1301.724,173.343v-0.42l-0.062-0.178v-0.184l-0.057-0.297
		l-0.121-0.297l-0.058-0.24l-0.12-0.24l-0.178-0.176l-0.184-0.184l-0.179-0.18l-0.181-0.117l-0.178-0.119l-0.241-0.123l-0.239-0.059
		l-0.237-0.061h-0.24h-0.238h-0.359l-0.302,0.061l-0.238,0.059l-0.298,0.123l-0.238,0.119l-0.183,0.117l-0.238,0.18l-0.181,0.184
		l-0.181,0.236l-0.117,0.238l-0.121,0.242l-0.121,0.236l-0.06,0.297l-0.059,0.303l-0.06,0.297v0.299v0.357l0.06,0.301l0.059,0.355
		l0.06,0.244l0.242,0.535l0.117,0.18l0.121,0.238l0.181,0.119l0.237,0.182l0.182,0.119l0.239,0.119l0.238,0.059l0.24,0.061
		l0.537,0.061l0.303-0.061h0.295l0.303-0.119l0.237-0.061l0.239-0.178l0.239-0.117l0.181-0.184l0.24-0.18l0.122-0.238l0.178-0.24
		l0.12-0.238l0.12-0.236l0.059-0.301l0.057-0.299l0.062-0.299V173.343L1301.724,173.343z M1300.823,173.343l-0.058,0.596
		l-0.119,0.477l-0.062,0.182l-0.059,0.178l-0.238,0.299l-0.122,0.119l-0.119,0.123l-0.178,0.117l-0.121,0.059l-0.299,0.119h-0.358
		h-0.36l-0.359-0.119l-0.18-0.119l-0.122-0.057l-0.236-0.242l-0.24-0.355l-0.119-0.361l-0.059-0.238v-0.238l-0.061-0.537v-0.242
		l0.061-0.236l0.059-0.479l0.178-0.357l0.124-0.184l0.117-0.178l0.121-0.119l0.118-0.061l0.3-0.176l0.362-0.125h0.297h0.237h0.182
		l0.18,0.061l0.18,0.064l0.117,0.117l0.18,0.059l0.122,0.121l0.119,0.119l0.178,0.357l0.062,0.18l0.062,0.178l0.058,0.422
		L1300.823,173.343L1300.823,173.343z"/>
	<polygon fill-rule="evenodd" clip-rule="evenodd" fill="#FFFFFF" points="1304.06,176.269 1304.06,167.901 1303.158,167.901 
		1303.158,176.269 1304.06,176.269 	"/>
	<path fill-rule="evenodd" clip-rule="evenodd" fill="#FFFFFF" d="M1310.762,173.343v-0.42l-0.057-0.178v-0.184l-0.062-0.297
		l-0.119-0.297l-0.06-0.24l-0.119-0.24l-0.18-0.176l-0.182-0.184l-0.177-0.18l-0.183-0.117l-0.18-0.119l-0.238-0.123l-0.241-0.059
		l-0.238-0.061h-0.239h-0.239h-0.359l-0.302,0.061l-0.235,0.059l-0.303,0.123l-0.236,0.119l-0.18,0.117l-0.239,0.18l-0.182,0.184
		l-0.182,0.236l-0.117,0.238l-0.118,0.242l-0.121,0.236l-0.059,0.297l-0.06,0.303l-0.062,0.297v0.299v0.357l0.062,0.301l0.06,0.355
		l0.059,0.244l0.239,0.535l0.117,0.18l0.126,0.238l0.176,0.119l0.241,0.182l0.177,0.119l0.242,0.119l0.238,0.059l0.237,0.061
		l0.542,0.061l0.298-0.061h0.3l0.299-0.119l0.239-0.061l0.238-0.178l0.24-0.117l0.183-0.184l0.237-0.18l0.121-0.238l0.18-0.24
		l0.119-0.238l0.119-0.236l0.06-0.301l0.062-0.299l0.057-0.299V173.343L1310.762,173.343z M1309.864,173.343l-0.058,0.596
		l-0.123,0.477l-0.06,0.182l-0.059,0.178l-0.239,0.299l-0.12,0.119l-0.119,0.123l-0.181,0.117l-0.122,0.059l-0.297,0.119h-0.36
		h-0.356l-0.36-0.119l-0.18-0.119l-0.121-0.057l-0.236-0.242l-0.24-0.355l-0.121-0.361l-0.06-0.238v-0.238l-0.059-0.537v-0.242
		l0.059-0.236l0.06-0.479l0.179-0.357l0.122-0.184l0.119-0.178l0.117-0.119l0.121-0.061l0.298-0.176l0.361-0.125h0.298h0.239h0.18
		l0.181,0.061l0.18,0.064l0.121,0.117l0.179,0.059l0.12,0.121l0.118,0.119l0.18,0.357l0.06,0.18l0.062,0.178l0.061,0.422
		L1309.864,173.343L1309.864,173.343z"/>
	<path fill-rule="evenodd" clip-rule="evenodd" fill="#FFFFFF" d="M1317.048,177.167l-0.06-0.359v-0.178l-0.062-0.119l-0.176-0.301
		l-0.063-0.119l-0.118-0.119l-0.121-0.061l-0.178-0.121l-0.12-0.059l-0.182-0.061l-0.419-0.119h-0.419h-1.135l-0.421-0.061h-0.177
		l-0.181-0.059l-0.121-0.061l-0.061-0.057l-0.057-0.123v-0.119v-0.178l0.117-0.121l0.06-0.057l0.062-0.061l0.06-0.061l0.121-0.059
		l0.358,0.059l0.418,0.061l0.299-0.061h0.301l0.477-0.123l0.24-0.117l0.181-0.061l0.179-0.119l0.18-0.178l0.181-0.119l0.118-0.18
		l0.119-0.18l0.06-0.178l0.122-0.42v-0.238l0.058-0.182l-0.058-0.238v-0.18l-0.122-0.299l-0.06-0.178l-0.119-0.121l-0.239-0.24h1.08
		v-0.717h-1.977l-0.419-0.061h-0.418h-0.541l-0.297,0.061l-0.241,0.119l-0.181,0.062l-0.237,0.119l-0.182,0.117l-0.181,0.18
		l-0.237,0.301l-0.24,0.357l-0.061,0.242l-0.06,0.178v0.236l-0.06,0.242l0.06,0.238v0.238l0.06,0.238l0.121,0.24l0.119,0.178
		l0.122,0.182l0.176,0.178l0.242,0.119l-0.3,0.178l-0.118,0.123l-0.062,0.121l-0.061,0.119l-0.059,0.117l-0.061,0.119v0.18v0.119
		l0.061,0.119v0.119l0.119,0.121l0.062,0.123l0.118,0.057l0.238,0.18l-0.238,0.119l-0.18,0.119l-0.18,0.182l-0.121,0.178
		l-0.119,0.18l-0.117,0.238l-0.062,0.238v0.24v0.176l0.062,0.182l0.117,0.357l0.06,0.178l0.12,0.123l0.121,0.121l0.181,0.117
		l0.176,0.061l0.181,0.119l0.182,0.061l0.177,0.061l0.482,0.117h0.537h0.301l0.301-0.059l0.296-0.059l0.298-0.061l0.299-0.061
		l0.241-0.119l0.178-0.119l0.242-0.119l0.179-0.119l0.18-0.184l0.118-0.178l0.12-0.178l0.119-0.178l0.062-0.24l0.06-0.18V177.167
		L1317.048,177.167z M1315.79,172.562v0.303l-0.119,0.297l-0.06,0.123l-0.062,0.115l-0.18,0.24l-0.239,0.121l-0.239,0.119
		l-0.297,0.059l-0.359,0.061l-0.301-0.061l-0.298-0.059l-0.3-0.119l-0.181-0.121l-0.177-0.24l-0.12-0.238l-0.12-0.238v-0.361v-0.297
		l0.12-0.297l0.057-0.123l0.063-0.117l0.057-0.119l0.12-0.061l0.242-0.178l0.238-0.123l0.298-0.119h0.36h0.362l0.296,0.059
		l0.24,0.125l0.237,0.176l0.119,0.24l0.184,0.24l0.058,0.297V172.562L1315.79,172.562z M1316.21,177.286l-0.061,0.238l-0.12,0.236
		l-0.12,0.242l-0.119,0.117l-0.119,0.061l-0.302,0.178l-0.357,0.119l-0.355,0.064h-0.482h-0.299l-0.357-0.064l-0.241-0.055
		l-0.298-0.184l-0.181-0.119l-0.121-0.178l-0.121-0.24v-0.297v-0.18v-0.119l0.121-0.18l0.062-0.178l0.12-0.119l0.177-0.119
		l0.301-0.242h0.359h1.195l0.302,0.061l0.237,0.061l0.241,0.061l0.179,0.119l0.18,0.119l0.06,0.18l0.061,0.178L1316.21,177.286
		L1316.21,177.286z"/>
	<path fill-rule="evenodd" clip-rule="evenodd" fill="#FFFFFF" d="M1319.382,176.269v-5.738h-0.839v5.738H1319.382L1319.382,176.269
		z M1320.103,168.44l-0.481-0.6l-1.436,1.316l0.357,0.479L1320.103,168.44L1320.103,168.44z"/>
	<path fill-rule="evenodd" clip-rule="evenodd" fill="#FFFFFF" d="M1325.308,176.269v-0.836v-0.895v-2.213l-0.058-0.42l-0.062-0.357
		l-0.058-0.119l-0.062-0.182l-0.12-0.119l-0.061-0.119l-0.118-0.117l-0.179-0.121l-0.36-0.182l-0.421-0.119h-0.237h-0.302h-0.536
		l-0.539,0.119l-0.477,0.123l-0.421,0.18l0.06,0.775l0.419-0.238l0.24-0.059l0.179-0.123l0.478-0.061l0.42-0.059l0.359,0.059
		l0.299,0.061l0.239,0.123l0.121,0.117l0.178,0.18l0.062,0.238l0.059,0.301v0.297v0.479h-0.419h-0.357l-0.719,0.119l-0.3,0.061
		l-0.298,0.123l-0.48,0.236l-0.18,0.119l-0.18,0.178l-0.179,0.182l-0.119,0.178l-0.121,0.18l-0.061,0.182l-0.059,0.236v0.18
		l0.059,0.361v0.117l0.061,0.119l0.121,0.238l0.179,0.24l0.238,0.119l0.297,0.119l0.303,0.061l0.298,0.061l0.36-0.061l0.358-0.061
		l0.298-0.119l0.241-0.178l0.239-0.182l0.24-0.238l0.12-0.236l0.119-0.242h0.061l-0.061,0.242v0.295v0.658H1325.308
		L1325.308,176.269z M1324.409,173.7v0.357l-0.12,0.357l-0.118,0.303l-0.239,0.295l-0.24,0.303l-0.119,0.117l-0.12,0.059
		l-0.182,0.061l-0.178,0.059l-0.358,0.061h-0.181l-0.179-0.061l-0.18-0.059l-0.117-0.119l-0.125-0.117l-0.061-0.123l-0.057-0.18
		l-0.06-0.176l0.06-0.119v-0.121l0.057-0.182l0.186-0.238l0.238-0.178l0.119-0.061l0.237-0.121l0.42-0.117l0.599-0.061l0.718-0.059
		V173.7L1324.409,173.7z"/>
	<polygon fill-rule="evenodd" clip-rule="evenodd" fill="#FFFFFF" points="1330.576,174.538 1330.516,174.237 1330.516,174.058 
		1330.456,173.938 1330.335,173.7 1330.158,173.521 1329.918,173.399 1329.676,173.284 1329.199,173.101 1328.661,172.923 
		1328.182,172.745 1328.061,172.626 1327.942,172.562 1327.882,172.442 1327.821,172.386 1327.821,172.265 1327.764,172.028 
		1327.821,171.845 1327.882,171.667 1327.942,171.487 1328.061,171.37 1328.241,171.247 1328.481,171.187 1328.721,171.128 
		1329.018,171.128 1329.618,171.187 1329.918,171.247 1330.214,171.312 1330.214,170.589 1329.676,170.47 1329.378,170.47 
		1329.14,170.47 1328.599,170.47 1328.359,170.53 1328.182,170.589 1327.764,170.712 1327.46,170.948 1327.224,171.187 
		1327.104,171.312 1327.043,171.487 1326.984,171.608 1326.921,171.786 1326.921,171.968 1326.862,172.146 1326.921,172.503 
		1326.984,172.626 1326.984,172.745 1327.162,172.981 1327.342,173.222 1327.522,173.343 1327.764,173.46 1328.301,173.64 
		1328.779,173.817 1329.018,173.88 1329.26,173.999 1329.438,174.118 1329.5,174.177 1329.558,174.237 1329.618,174.356 
		1329.618,174.415 1329.676,174.657 1329.618,174.896 1329.558,175.073 1329.438,175.253 1329.26,175.372 1329.081,175.491 
		1328.839,175.552 1328.538,175.61 1328.241,175.671 1327.942,175.61 1327.582,175.61 1327.283,175.552 1326.984,175.433 
		1326.984,176.269 1327.522,176.329 1328.182,176.39 1328.721,176.329 1329.199,176.21 1329.618,176.091 1329.797,175.972 
		1329.918,175.854 1330.098,175.731 1330.214,175.552 1330.335,175.433 1330.396,175.253 1330.456,175.134 1330.516,174.954 
		1330.576,174.774 1330.576,174.538 	"/>
	<polygon fill-rule="evenodd" clip-rule="evenodd" fill="#FFFFFF" points="1280.117,164.794 1280.117,160.79 1280.117,160.433 
		1280.055,160.073 1279.994,159.954 1279.937,159.774 1279.757,159.532 1279.637,159.415 1279.517,159.296 1279.396,159.177 
		1279.217,159.118 1279.038,159.058 1278.857,159.001 1278.618,159.001 1278.38,159.001 1278.02,159.001 1277.722,159.058 
		1277.421,159.177 1277.122,159.356 1276.885,159.532 1276.645,159.774 1276.464,160.073 1276.404,160.19 1276.345,160.374 
		1276.404,159.718 1276.404,159.058 1275.569,159.058 1275.569,164.794 1276.404,164.794 1276.404,162.046 1276.464,161.569 
		1276.525,161.327 1276.582,161.089 1276.701,160.729 1276.943,160.374 1277.183,160.073 1277.303,159.954 1277.48,159.835 
		1277.779,159.718 1278.198,159.655 1278.439,159.718 1278.68,159.774 1278.857,159.896 1279.038,160.073 1279.157,160.255 
		1279.217,160.491 1279.217,160.79 1279.279,161.089 1279.279,164.794 1280.117,164.794 	"/>
	<polygon fill-rule="evenodd" clip-rule="evenodd" fill="#FFFFFF" points="1286.638,164.794 1286.638,159.058 1285.802,159.058 
		1285.802,161.806 1285.802,162.345 1285.737,162.524 1285.683,162.763 1285.502,163.181 1285.322,163.542 1285.081,163.778 
		1284.904,163.897 1284.783,164.017 1284.424,164.136 1284.067,164.192 1283.767,164.136 1283.528,164.075 1283.348,163.956 
		1283.227,163.837 1283.109,163.601 1283.048,163.358 1282.988,163.122 1282.988,162.763 1282.988,159.058 1282.149,159.058 
		1282.149,163.063 1282.149,163.417 1282.209,163.778 1282.271,163.956 1282.331,164.075 1282.51,164.376 1282.631,164.495 
		1282.749,164.616 1282.87,164.673 1283.048,164.735 1283.168,164.794 1283.408,164.853 1283.587,164.915 1283.826,164.915 
		1284.186,164.853 1284.545,164.794 1284.846,164.673 1285.143,164.495 1285.383,164.315 1285.562,164.075 1285.737,163.837 
		1285.802,163.659 1285.862,163.542 1285.922,163.542 1285.862,164.136 1285.802,164.794 1286.638,164.794 	"/>
	<path fill-rule="evenodd" clip-rule="evenodd" fill="#FFFFFF" d="M1292.862,161.327v-0.48l-0.117-0.414l-0.18-0.42l-0.06-0.178
		l-0.122-0.18l-0.18-0.123l-0.179-0.117l-0.178-0.119l-0.182-0.119l-0.236-0.059l-0.243-0.061l-0.237-0.057h-0.297h-0.301
		l-0.241,0.057l-0.297,0.061l-0.242,0.119l-0.179,0.119l-0.238,0.117l-0.181,0.182l-0.18,0.18l-0.302,0.42l-0.176,0.535l-0.062,0.24
		l-0.057,0.297l-0.061,0.301v0.355v0.361l0.061,0.299l0.057,0.359l0.062,0.238l0.118,0.301l0.121,0.236l0.117,0.178l0.121,0.236
		l0.18,0.123l0.241,0.18l0.178,0.121l0.238,0.119l0.301,0.059l0.24,0.059h0.297l0.301,0.062l0.54-0.062l0.478-0.059l0.479-0.121
		l0.42-0.119l-0.121-0.717l-0.299,0.119l-0.419,0.119l-0.479,0.061l-0.42,0.057l-0.48-0.057l-0.358-0.119l-0.179-0.061l-0.181-0.119
		l-0.12-0.117l-0.119-0.119l-0.238-0.301l-0.119-0.416l-0.063-0.24l-0.058-0.299v-0.598h3.829v-0.242V161.327L1292.862,161.327z
		 M1291.967,161.089h-2.876l0.063-0.299l0.119-0.299l0.119-0.236l0.179-0.242l0.242-0.117l0.239-0.178l0.24-0.062h0.297h0.3
		l0.297,0.062l0.123,0.057l0.12,0.121l0.118,0.059l0.058,0.119l0.182,0.182l0.121,0.236l0.059,0.299V161.089L1291.967,161.089z"/>
	<polygon fill-rule="evenodd" clip-rule="evenodd" fill="#FFFFFF" points="1298.671,159.058 1297.714,159.058 1296.336,162.825 
		1296.158,163.3 1296.035,163.837 1295.68,162.825 1294.363,159.058 1293.403,159.058 1295.557,164.794 1296.456,164.794 
		1298.671,159.058 	"/>
	<path fill-rule="evenodd" clip-rule="evenodd" fill="#FFFFFF" d="M1303.338,164.794l-0.059-0.838v-0.893v-2.217v-0.414
		l-0.059-0.359l-0.062-0.119l-0.059-0.18l-0.121-0.119l-0.117-0.123l-0.119-0.117l-0.119-0.119l-0.362-0.178l-0.418-0.117h-0.297
		h-0.24h-0.598l-0.48,0.117l-0.479,0.119l-0.42,0.178l0.061,0.775l0.42-0.236l0.178-0.059l0.241-0.121l0.48-0.057l0.42-0.062
		l0.355,0.062l0.302,0.057l0.178,0.121l0.181,0.117l0.117,0.178l0.121,0.242l0.06,0.297v0.301v0.475h-0.42h-0.36l-0.717,0.123
		l-0.298,0.061l-0.301,0.117l-0.477,0.24l-0.24,0.115l-0.18,0.184l-0.121,0.18l-0.117,0.176l-0.12,0.184l-0.059,0.18l-0.063,0.236
		v0.18v0.357l0.063,0.119l0.059,0.119l0.12,0.24l0.178,0.238l0.24,0.119l0.24,0.121l0.358,0.059l0.299,0.062l0.358-0.062
		l0.299-0.059l0.3-0.121l0.302-0.178l0.236-0.18l0.183-0.24l0.178-0.238l0.12-0.236h0.06l-0.06,0.236v0.299v0.658H1303.338
		L1303.338,164.794z M1302.441,162.228l-0.06,0.357l-0.057,0.357l-0.182,0.299l-0.181,0.301l-0.239,0.295l-0.119,0.119l-0.179,0.061
		l-0.12,0.059l-0.178,0.061l-0.362,0.057h-0.239l-0.181-0.057l-0.118-0.061l-0.121-0.119l-0.12-0.119l-0.117-0.117v-0.178
		l-0.061-0.184v-0.117l0.061-0.119l0.058-0.18l0.18-0.242l0.239-0.176l0.12-0.061l0.181-0.119l0.481-0.117l0.596-0.066l0.718-0.057
		V162.228L1302.441,162.228z"/>
	<polygon fill-rule="evenodd" clip-rule="evenodd" fill="#FFFFFF" points="1308.607,163.063 1308.546,162.763 1308.487,162.585 
		1308.487,162.464 1308.308,162.228 1308.127,162.046 1307.947,161.927 1307.708,161.806 1307.17,161.628 1306.69,161.448 
		1306.212,161.269 1306.03,161.149 1305.974,161.089 1305.913,160.97 1305.853,160.911 1305.853,160.79 1305.795,160.552 
		1305.795,160.374 1305.853,160.19 1305.974,160.013 1306.093,159.896 1306.272,159.774 1306.512,159.718 1306.75,159.655 
		1307.049,159.655 1307.648,159.718 1307.947,159.774 1308.248,159.835 1308.248,159.118 1307.708,159.001 1307.41,159.001 
		1307.109,159.001 1306.633,159.001 1306.394,159.058 1306.156,159.118 1305.795,159.237 1305.494,159.474 1305.257,159.718 
		1305.136,159.835 1305.074,160.013 1305.016,160.13 1304.957,160.313 1304.896,160.491 1304.896,160.671 1304.957,161.03 
		1304.957,161.149 1305.016,161.269 1305.136,161.505 1305.313,161.747 1305.556,161.866 1305.795,161.983 1306.272,162.161 
		1306.812,162.345 1307.049,162.405 1307.23,162.524 1307.41,162.644 1307.528,162.7 1307.587,162.763 1307.648,162.884 
		1307.648,162.942 1307.708,163.181 1307.648,163.417 1307.587,163.601 1307.468,163.778 1307.289,163.897 1307.109,164.017 
		1306.873,164.075 1306.573,164.136 1306.272,164.192 1305.974,164.136 1305.615,164.136 1305.313,164.075 1305.016,163.956 
		1305.016,164.794 1305.556,164.853 1306.212,164.915 1306.75,164.853 1307.17,164.735 1307.587,164.616 1307.771,164.495 
		1307.947,164.376 1308.068,164.259 1308.248,164.075 1308.308,163.956 1308.427,163.778 1308.487,163.659 1308.546,163.479 
		1308.546,163.3 1308.607,163.063 	"/>
</g>
<path fill="#C49B6C" d="M671.811,285.182c0,0-5.248-10.389,12.617-10.964c17.863-0.575,34.832-1.542,35.381-16.267
	c0.548-14.726-2.027-15.275-6.91-19.664c0,0,12.509-1.662,16.504,4.391c0,0,10.838,13.438-4.932,32.09c0,0-8.092,8.027-25.576,7.852
	c-17.485-0.173-16.115,0.275-17.485,3.344C680.038,289.029,671.811,285.182,671.811,285.182z"/>
<circle fill="#231F20" cx="632.451" cy="415.331" r="117.252"/>
<path fill="#231F20" d="M639.651,300.343l12.548-17.073c0,0,7.816-5.76,27.976,1.439c16.583,5.924,15.839,18.102,15.839,18.102
	l-3.702,18.103l-39.495-10.696L639.651,300.343z"/>
<path fill="#F18434" d="M698.895,207.364c0,0,2.262-7.2,0-14.194c0,0,5.348,16.457,7.199,0c0,0,2.263,19.337,9.668,16.868
	s18.472-36.204,18.472-36.204s-11.537,40.557-20.323,38.673c-5.76-1.234-8.229-11.793-8.229-11.793s-1.028,4.388-3.908,1.713
	C701.773,202.427,701.773,204.102,698.895,207.364z"/>
<path fill="#F18434" d="M735.44,190.291c0,0-9.271,22.49-1.207,20.297c0,0-8.669,9.874,14.097,11.244c0,0-22.766,4.113,0,13.713
	c0,0-24.957-4.387-3.016,7.133c0,0-23.153-11.113-5.68-9.396c0,0-10.068-8.157,0-10.626c0,0-11.28-1.519-8.697-10.085
	C730.938,212.57,723.098,209.488,735.44,190.291z"/>
<path fill="#F18434" d="M685.798,211.41c0,0,3.292,14.811-11.52,8.229c0,0,14.263,12.341-28.799,3.015
	c0,0,29.347,8.778,34.695,15.634c0,0,2.886-4.112-12.339-10.42c0,0,16.59,0.546,12.339-4.391
	C680.175,223.477,691.01,225.398,685.798,211.41z"/>
<path fill="#F18434" d="M681.409,240.894c0,0-0.199,4.731-13.573,6.788c0,0,36.521-6.993-1.488,19.748
	c0,0,33.986-21.29,13.827-22.113C680.175,245.316,682.426,244.385,681.409,240.894z"/>
<path fill="#F18434" d="M757.52,282.619c-1.234,1.884-20.57,25.334-13.987,31.506c6.582,6.171,34.146-25.919,34.146-25.919
	s-29.21,30.444-11.52,24.685s29.21-17.279,29.21-17.279s-47.723,40.66-40.318,19.301c0,0-15.187,12.789-16.644,0.447
	C736.949,303.017,757.52,282.619,757.52,282.619z"/>
<path fill="#F18434" d="M793.86,327.428c0,0,44.98-11.349,67.472-25.561c0,0-81.185,50.521-74.603,54.907
	c6.583,4.388,40.044-9.874,40.044-9.874s-39.496,22.49-46.481,12.616c-5.499-7.773,42.094-38.401,42.094-38.401L793.86,327.428z"/>
<path fill="#F18434" d="M817.997,403.812c0,0-19.337,2.879-16.045,8.228c3.291,5.349,44.844,0,44.844,0s-43.198,11.748-51.427,2.377
	C787.142,405.046,817.997,403.812,817.997,403.812z"/>
<path fill="#F18434" d="M764.925,616.1c0,0-49.78-71.586-69.116-71.586s2.057,51.015,2.057,51.015s-18.514-34.97-27.152-41.141
	c0,0,7.949,4.189,15.222,16.31c0,0-9.819-30.778,6.583-32.354C713.91,536.285,764.925,616.1,764.925,616.1z"/>
<path fill="#F18434" d="M658.781,564.262c0,0-4.525-15.634-6.994-9.051c-2.468,6.582-5.76,30.855-5.76,30.855
	s-5.348-31.679-13.576-27.564s-12.342,39.084-12.342,39.084s1.234-40.318,12.342-46.489c11.108-6.171,12.754,14.399,12.754,14.399
	S650.965,527.234,658.781,564.262z"/>
<path fill="#F18434" d="M549.347,619.802c0,0,16.456-65.414,3.702-69.939c-12.753-4.525-41.963,76.522-41.963,76.522
	s26.33-76.522,20.158-93.802c0,0,5.807,7.054,3.247,25.507c0,0,10.021-17.813,20.615-13.576
	C571.562,551.097,549.347,619.802,549.347,619.802z"/>
<path fill="#F18434" d="M518.491,535.463c0,0,7.405-18.709-46.489,12.656c0,0,29.621-32.815,5.348-23.354
	c0,0,30.445-14.154,9.052,10.819C486.401,535.585,528.776,512.836,518.491,535.463z"/>
<path fill="#F18434" d="M463.362,525.589c0,0,24.272-15.222,23.039-34.558C486.401,491.031,497.92,509.955,463.362,525.589z"/>
<path fill="#F18434" d="M475.804,481.568c0,0-31.778-8.64-80.735,12.342c0,0,35.793-17.69,46.489-28.799c0,0-6.92,8.65-14.399,14.4
	C427.158,479.512,459.445,472.105,475.804,481.568z"/>
<path fill="#F18434" d="M450.197,424.383c0,0,40.713-11.108,38.047-20.982s-27.351-8.64-28.585-9.051
	c-1.233-0.412,29.622-1.646,32.09-12.754c0,0,1.083,9.416-9.051,11.52c0,0,13.988,3.703,11.52,13.165
	S450.197,424.383,450.197,424.383z"/>
<path fill="#F18434" d="M433.74,354.443c0,0,62.732,6.569,42.063-10.292c0,0,9.363,4.995,7.718,11.552
	C481.875,362.26,433.74,354.443,433.74,354.443z"/>
<path fill="#F18434" d="M488.244,335.518c0,0,2.683-9.873-18.3-20.981c0,0,22.628,5.76,0-12.343
	c-22.627-18.102-99.972-85.709-99.972-85.709s167.443,118.704,157.569,84.518c0,0,15.222,14.357-2.88,11.065
	c-14.98-2.724-90.922-46.599-90.922-46.599s60.05,43.719,54.504,53.593C488.244,319.062,493.379,329.758,488.244,335.518z"/>
<path fill="#F18434" d="M573.895,240.894c0,0,10.148,38.812,0,33.052s-17.554-22.767-17.554-22.767s16.183,38.743-4.662,23.348
	c0,0,16.853,15.052,13.362-4.423c0,0,14.339,18.103,16.259,7.955C583.221,267.908,573.895,240.894,573.895,240.894z"/>
<path fill="#F18434" d="M542.626,272.299c0,0,4.663,10.971-3.838,6.583c-8.505-4.39-17.279-13.165-17.279-13.165
	s18.829,21.117,11.196,20.844c0,0,8.55,3.365,5.807-3.941C538.512,282.619,548.386,286.287,542.626,272.299z"/>
<path fill="#F18434" d="M601.136,213.204c0,0,3.681,25.389,11.285,25.083c7.604-0.302,8.097-10.853,8.097-10.853
	s1.718,20.363-7.851,15.947C603.098,238.965,601.136,213.204,601.136,213.204z"/>
<path fill="#FFFFFF" d="M738.407,418.044c0,0-6.987,64.18-55.537,84.339C682.87,502.383,737.173,492.098,738.407,418.044z"/>
<path fill="#FFFFFF" d="M628.749,307.953c0,0-63.047-5.348-92.619,65.414l20.211,1.646
	C556.341,375.014,563.746,317.005,628.749,307.953z"/>
<path fill="#FFFFFF" d="M553.872,384.887l-20.344-1.646c0,0-7.062,25.508-0.558,43.609h23.37
	C556.341,426.851,549.248,403.905,553.872,384.887z"/>
<path fill="#FFFFFF" d="M646.953,297.463l9.359-11.5c0,0,10.697-3.105,22.834,3.066c0,0-16.251-2.264-20.982,1.027
	C653.434,293.349,646.953,297.463,646.953,297.463z"/>
<path fill="#F18434" d="M813.883,530.114c0,0-29.805-15.634-34.033-9.874c-4.228,5.76,19.772,30.307,37.736,47.312
	c0,0-46.078-41.964-67.883-42.787c0,0,9.279-5.759,30.146,7.817c0,0-9.427-7.382-5.873-15.634
	C778.229,507.076,813.883,530.114,813.883,530.114z"/>
</svg>
