<svg xmlns="http://www.w3.org/2000/svg" height="285" width="168.7"><switch transform="translate(-151.9 -314.3)"><g><path d="M264.7 411.2h-57" stroke-miterlimit="10" fill="none" stroke="#fff" stroke-width="6.2" stroke-linecap="round" stroke-linejoin="round"/><path d="M218.3 591c8.6 0 16 3.4 18.6 8.2.6-1.3 1-2.7 1-4 0-7-9-12.7-19.8-12.7-11 0-19.8 5.7-19.8 12.6 0 1.6.4 3 1 4.3 2.8-4.8 10-8.3 18.8-8.3z" fill="#e2ad39"/><path d="M248 591c8.5 0 15.8 3.4 18.5 8.2.8-1.3 1.2-2.7 1.2-4 0-7-9-12.7-19.8-12.7-11 0-20 5.7-20 12.6 0 1.6.4 3 1 4.3 2.8-4.8 10-8.3 18.8-8.3z" fill="#e2ad39"/><path d="M166 423v168c28.7-5.3 51-41 51-84 0-43.3-22.3-79-51-84z" fill="#8d8e8c"/><path d="M320.6 443.6c0 71.5-37.8 129.4-84.3 129.4-46.6 0-84.4-58-84.4-129.4s37.6-129.3 84.2-129.3c46.5 0 84.3 58 84.3 129.3z" fill="#d6d6ce"/><path d="M306 396.6c0 33-31.4 59.6-70 59.6-38.5 0-69.8-26.7-69.8-59.6 0-20.8 31.3-59.5 70-59.5 38.5 0 69.7 43.3 69.7 59.7z" fill="#fff"/><path d="M218.3 398.8c0 10.2-8.3 18.5-18.5 18.5s-18.4-8.3-18.4-18.5 8.2-18.4 18.4-18.4 18.5 8.2 18.5 18.4z" fill="#c6b4a3"/><path d="M199.8 380.4l-18.2 21L179 383m72.6 15.8c0 10.2 8.3 18.5 18.5 18.5 10.4 0 18.6-8.3 18.6-18.5s-8.2-18.4-18.4-18.4c-10 0-18.4 8.2-18.4 18.4z" fill="#c6b4a3"/><path d="M270 380.4l18.3 21L291 383" fill="#c6b4a3"/><circle cx="199.8" cy="398.7" r="13.2" fill="#edeae3"/><path d="M208.2 398.8c0 4.6-3.8 8.4-8.4 8.4-4.6 0-8.3-3.8-8.3-8.4 0-4.6 3.7-8.3 8.3-8.3 4.6 0 8.4 3.7 8.4 8.3z" fill="#8595a4"/><circle cx="270.1" cy="398.8" r="13.2" fill="#edeae3"/><path d="M261.7 398.8c0 4.6 3.8 8.4 8.4 8.4 4.8 0 8.5-3.8 8.5-8.4 0-4.6-3.7-8.3-8.3-8.3-4.5 0-8.3 3.7-8.3 8.3z" fill="#8595a4"/><path d="M231 417h10.5l-5.2 22" fill="#7e7f79"/><path d="M152 423v168c28.6-5.3 51-41 51-84 0-43.3-22.4-79-51-84z" fill="#c6b4a3"/><path d="M202.2 398.8c0 1.3-1 2.4-2.4 2.4-1.3 0-2.4-1-2.4-2.4 0-1.3 1-2.4 2.4-2.4 1.3 0 2.4 1 2.4 2.4zm70.3 0c0 1.3-1 2.4-2.4 2.4-1.2 0-2.2-1-2.2-2.4 0-1.3 1-2.4 2.4-2.4s2.5 1 2.5 2.4z" fill="#1d243c"/><path d="M158.4 452h13.3l-6.7 11.5m6.7 0H185l-6.6 11.6m-20 3.7h13.3l-6.7 11.6m17.6-11.6H196l-6.7 11.6m-17.6 0H185l-6.6 11.6m-20 0h13.3l-6.7 11.4m20-11.4h13.5l-6.7 11.4m-20 0H185l-6.6 11.6m-20 0h13.3l-6.7 11.6m17.6-11.6H196l-6.7 11.6m-17.6 0H185l-6.6 11.6m-20-4.7h13.3L165 555m6.7 0H185l-6.6 11.6" fill="#fff"/><path d="M213 560.8h10.4V584H213zm29.6 0H253V584h-10.4z" fill="#e2ad39"/></g></switch></svg>