<svg xmlns="http://www.w3.org/2000/svg" viewBox="0 0 1554.674 325.66399" height="347374.9" width="1658318.9"><path d="M1554.7 163.6c-.8-.6-2-1.4-2.6-2-1.5-6.8-1.6-14-4.3-20.8 1.4 9 3 18 3.7 27l-2-.4c-2.4-11.6-5.5-23.2-10.7-33.8 3 8.8 6 17.5 7.7 26.6 1 6.3-1 12.5-2 18.7l-4-3c1.8 8 2.8 17-.2 25-1.7-8.2-3.7-16.3-4.7-24.6h-1.4c0-7-1-14.2-1.7-21.4-.3 9 .4 18-.3 27-1 14.6 1.4 29.3.6 44-2.2-8.3-1-16.8-1.8-25.2-2.6-9.2-4-18.6-6-28 .4-8 2.7-16.2 2.2-24.4-5 8.3-2.8 19.4-8.8 27 .2-6.7 2-13.3 1.8-20-1.3 4.5-1.7 9.2-2.2 14l-2.8-4c-4.6 15.3-7.4 31-11 46.6-1.5-8.3-1-16.8-3-25-.7-2.7-.8-6.5-4.3-6.7l2.2-.3c-2.4-9.7.3-19.6-2-29-.6-4-1-7.8-2-11.5 0 2.2 0 4.5.4 6.8 3.7 23.2-3.4 46.2-9.2 68.4-1.3-29.2.6-58.4 4-87.4-3.3 15.4-4.3 31.2-6.6 46.7-3.2 10.7 1.2 22-2.2 32.5 1 5.3 1 10.6-1.3 15.7l2.7-.4c0 8.2-2.5 16-4.6 24-.6-8 1-15.8 3.7-23.2l-2.4.4c-.6-12 2.7-24 2.2-36-1.6-10-.6-20-2-30-.8-5-1.7-10-1.3-15l3.8-4c-3.4 1.4-5.5 4.5-5 8.2 1.2 14.7 2 29.6.6 44.4-2.8-4.2-4-9-5.2-13.6l-1.8-2.7c-1.7-8.8-.3-17.8-1.6-26.6-.2-4-1.3-12 4.7-11.4l-2-1.4c2.3-7.3 7-13.5 9-21-9 9-12.3 21.8-20.4 31.2 2.4-23 7.3-45.5 13.2-67.7-3 6-4.2 12.3-6 18.6-4.4 16.5-8 33-10.6 50-1.2 8-4.8 15.6-8 23.2-.3 2.5-1.2 4.7-3 6.6-1.8 3.7-3.7 7.3-6 10.8-.5-12.2 4.4-23.7 4.3-35.8-1.5 4.8-1.7 10-4.3 14.5-.5-9-.6-18-1.3-27l-2.3-1.5c-2 11 2 22.7-2.4 33.2-4-22 4.3-43.3 8.4-64.5-6.6 19.2-10.5 39.2-14.6 59-1.8 8.4 0 18.6-7.6 24.6 1.8.6 5.5-1.2 5.5 1.7l-.3 1-.5.7-4-2.2c.8 1.7 2.3 5 3 7-1.6-2.4-3-5-4.2-7.4-2.2 3.2-4.4 6.3-6.7 9.3-1.2-10.4 2.7-20.7 4.2-31l-1 .8c-1.2 6.5-2.5 13-4.3 19.4-1.7-7-3.2-13.8-4.7-20.7-3.6-7.6-6.8-15.4-11.7-22.2-1-7.7 1.8-15.8-1.3-23.2-1.2 19.4-5.8 38.2-8.6 57.3-2.2-18.6-4.3-38-13.3-54.8 6 15.5 10 32.2 9.6 49-1.8-5.5-3.2-11-5-16.5l-.3 6.4c-3.4-6-6.8-12.3-10-18.5 1 .4 3.2 1.4 4.2 2 1.5 4 3.3 8 5.7 11.8-1.3-6.8-5.6-12.2-9.7-17.5l-1.3 2.8c-1.3-2.6-2.6-5-4.6-7.4 5.5 14.6 14 27.7 20 42 3.7 17 1.2 34.3 1.8 51.5-3.2-13.7-8-27.2-15.3-39.4-1.4-2.7-3.8-5.4-3.4-8.6 1-10.5 3-21 .6-31.5-1.3 9.6-3 19.2-4 28.8-6.2-9.8-11.5-20-17-30 .7-6 1.8-11.6 2.3-17.4-1.4 5-2.3 10-3.6 15-3-5-5.5-10.4-9.3-15 2 7.2 7.2 13.2 8.6 20.4-2 14-3.2 28-5.6 42-2.4-5-3-11-6.8-15.4l-5-7.7c1.2-7.3 2.2-14.6 2.4-22-2.5 6-2.8 12.4-5.3 18.3.2 8-2.6 15.7-3.7 23.7-.5 2.6-.5 6-3.4 7.3.2 4.8.3 9.7 0 14.5-3-4.3-3.2-9.7-2.3-14.8l-3.5 2c-2.7-7.3-5.6-14.7-9.6-21.5 0 14.2 10 26.6 8.8 41-3.8-6.6-7-13.5-9-20.7l-3.2-4.6c.8-5 1-10 .7-14.8-1 3-1.7 6.2-2.5 9.4-4.7-4.5-2.5-11-1.6-16.5 1.3-7.6 5.3-14.3 7.8-21.6 2.7-7.7 9.6-12.4 15.4-17.4-8.7 4.4-15.6 12-19.3 21-4 7-4.5 15.7-9.7 22-.6-5.2-1.2-10.4-2-15.7-2.5 4.4-6.6 7.8-10.5 11.2l3.4-.4-3 8.5-2-7c-3.6 7-7.2 14.2-10 21.6-2-4.7-5.6-9.2-4.7-14.4 2.3-15.7 5.8-31 10-46.3 2.6-12.8 6.7-25.5 7.3-38.7-3 5-4.3 11-6 16.5-5.5 20.3-12 40.3-16.6 60.8l-2-6.6c-3-4.5-2.2-11-7-14.3 1-8 3.3-16 5-23.7l-4 8.5c.5-3.8 1-7.6.5-11.4-6.7 17.4-10.4 35.7-15.7 53.5-1.3-3-2.5-6.2-3.6-9.2-2.7-7-1-15-1-22.2l5.5-5.7-6 4.5c.5-10.3 3-20.8 10-28.7-5.8 4.6-8.4 12-10.2 19-1.6 5.8-.6 12.4-4 17.8-1-2-1.6-4.3-2.7-6.4-.2.6-1 1.8-1.4 2.4l-.6-.3c-1.5-13.7-4.5-27-6.2-40.7l-1.6 9c.8-7.4 0-14.8-1-22.2-.6-12.6-1.8-25.3-4.6-37.6 1.6 16 3.6 32 2.4 48-2.7-4.4-3.2-9.6-4.7-14.4-3.2-10.7-6.8-21.7-13.7-30.7-2.5-3.5-6.3-5.8-10.2-7.6 4.5 3.6 9.4 6.8 12 12 8.7 15.6 11.6 33.4 15 50.7 1.4 6.7 0 13.6-.4 20.3l-3.7-3.7 3 6.6c-.6 8.6-3.5 16.8-5.6 25.2-2-1.6-3-4-2.5-6.6 1.5-14.3 5.8-28 6.3-42.4-4.7 11.6-5.7 24.3-8.8 36.4-1.3-7-3.5-14.4-1.5-21.6h-3.7l.2 10h-1c-4.3-11-11.2-21.3-11.8-33.4-3.3-2.4-4-6.3-5.2-9.8-6.5-17.6-3-36.7-6-55-3 8.7-1.2 18.2-2.2 27.2-1.5 13 2 26 6 38.2 2.5 9 6.7 17.6 6 27.2-.4 7-1 14.4-3 21.4-1.8 4.2-1 8.6 0 13-1.3-2.3-2.4-4.6-3.5-6.8l1.8-2c.3-5.6.8-11.3.7-17-1.2 3.7-2.2 7.5-3.7 11-1.7-8-1.8-16.4-4.8-24-.8 5.6 1 11.3.5 17-1.4-6.7-6.3-14.5-1.5-20.8 1.6-4 4.2-7.5 6.7-11l-7 5c-1.8-9.7-3-19.7-6-29 1.5 10.2 4.2 20.3 5 30.7-.7 1-2 3.6-2.6 4.8-5.6-18.2-11-36.5-17.5-54.5-1-2.8-2.4-5.5-4-8 1.3 17.6 10 34 9.7 51.8.6.4 2 1 2.5 1.2 2 5.3 3.2 11 4.7 16.4 1.6 5-.7 10-1.6 15-.7-8-1.6-15.7-2.5-23.5-.4-3-.4-6.2-2.6-8.6l-.7 5-2.6-5.2c2.6 13 5 26.4 4.6 39.8.3 11.6 2.2 23.3 0 34.8-.7-5.3-1-10.6-1-16-1 1.2-1.7 2.4-2.5 3.6.6 6 1 12 1.2 18 0 3.2.3 7-2.6 9 0-9.2 1-18.2.5-27.3-.8 3.6-1.2 7.2-2.4 10.6 0-.5-.5-1.5-.6-2 0-9.2-.4-18.4-.7-27.7-1 4.4-2.5 9-3 13.5l-3.3 2c-.6-4-1-8.3-1.5-12.4-1.3-2.4-1.7-5-1.8-7.8l1.4 5 3-1.8-3.3-.5c0-5.5 2.8-9.8 6-13.6l-5.4 3c.6-4 1.4-8 2.3-12 .3-10.4 2.6-21.4-2.2-31.2 1.8 7.6 3 15.6 1.5 23.4-2 9.7-4.5 19.4-6.5 29l-8.4-2.6c0-2 0-4-.2-6l-1.2-.2c0 4.4 0 9 2 13V155c2.3.6 4.5 1.2 6.8 2-1.6 8-6 15.8-5.3 24.3h-1c.8-7 1.4-14-1.6-20.4h-1.6c0-18-3.6-36-5.4-54 .2 11.7 1.8 23.3 2 35-3.4-5.6-4.2-12-7.5-17.5l1.5 4.7c-2.6 4.6-3.7 9.8-3.3 15h2c-.7-4.8-1-9.8 1.8-14 2.4 7.8 5.3 15.6 6.2 23.8.2 5.6-1.3 11-2.7 16.5l-3.4-3.2c1 6.5 2.6 13 .8 19.5-3-11-4.3-22.7-2-34l-2.8.8-1-5c-.2 6.3-1 12.4-1.6 18.6-.3-1.7-1-5-1.2-7-2 11 0 22-1.8 33-2.8-9.3-4-19-6-28.5.6-12.5 3.2-24.8 4.8-37 1.3-8.7-3.4-16.4-4-24.8l-.4 2.5-4.6-1.8c2.5 3.5 5.8 7 6.3 11.4 2 17-3 33.6-6.6 50-.2 3.5-5 3.4-5.4 7l3.3.5-2 .4 1 3.6-2.2-.7c-1 7.3-1 15-4.6 21.8l.2 3.8h-1.2c0-8.8.3-17.4 2.2-26 1.2-5 .2-10.3 1.6-15.3l1-10.7c-5.8 13.2-6 28-8.3 42-3.2-9.7-6-20-5.5-30.3 1.8-5 .8-10.5-.2-15.7-.4 1.3-1 3.8-1.5 5-1-6.8-2.3-13.7-4-20.5-.3 11.5 3 22.7 1 34-1.8-2.5-3.4-5.4-3.3-8.6-.2-8.6-2.2-17.2-1.8-25.8h-1.5c-1.7 6-3 12.2-4.6 18.3l-6-5c0-4.4-1-9.7 3.2-12.6l-3.7 1.3c0 6-1.5 12.2.6 17.8l1-3.7 4.5 4.5c-1.2 4.6-2.2 9.3-3.2 14-.4-4-.2-8-1.5-11.8-2.3 10 0 21-1.7 31.2-1-2.6-2.3-5.3-2.7-8-1.3-13-2.3-26 .4-38.8l-2-2.7c.3-4.3.2-8.7 1-13 1.5-5.5 5-10.2 6.2-16-2.3 2.7-4.2 5.4-6.2 8.2 1.4-16.7 3-33.4 6-50 1-5 2.2-10.3 2.5-15.6-5.5 21.5-9.3 43.5-11.3 65.7-.2 7.4-5.5 13.2-8 20 .7 6.4 1.2 13 .8 19.4-2-2.3-3.8-4.6-5.6-7 .7-4.4 2.6-8.8 1.5-13.4l3.2 2.7c-1-1.4-1.7-3-2.6-4.3 2.3-21.2 7.6-42 12.4-62.6-8 24-13.6 49-17.3 74.3l-5.6-4c1.4 2.3 3 4.4 5 6.4l-4.4 11c-1.2-2-2.6-4-2.6-6.6-.7-9-1.5-18-.4-26.8.8-10.4 4-21 1.2-31.4-3.5 13-2.7 26.8-5.3 40v8.8l-5-4-.7-3.6 4.3.8c-2-2.3-4.4-4-7.5-3.6 2.3-10.6 5-21.2 7.4-32-4.2 9.2-4.8 19.4-8.8 28.5l-.5 6.3 2.8 1.7c-.2 6.3.5 12.5.4 18.8l-1.5-3.2-3.3 1.8c0 4 0 8.3-1 12.3-.2-4.2.2-8.3.6-12.4 6-4.3 2.5-12 3-18.2l-2.8.3c-2.2-9-2.4-18.8-7-27.2 3.8-19 7.6-38.2 8.6-57.6.8-14 0-29.3-9.4-40.5 2.2 4.5 5.2 8.7 6.4 13.7 2.3 9 1.7 18.7 1 28-2 19-6 37.8-10.7 56.2-.7-12.4 3-24.4 4-36.5-3.4 14-6 28-6.6 42.4-.3 7-2 14-4.8 20.6-1.8-36-.4-72-2-108-.6 6.4-.5 12.7-.7 19-.7 36.6-2 73.2-2 109.8h-3.3c.4-5.7.8-11.2.4-16.8-.3 5-.5 9.7-1 14.6-2.2-3.4-4-7-6-10.8l1 7-5-4c.5-1.6 1-3.2 1.3-5-.2-8.3 2-17-1-25.3-1 19.8-6 39-8.5 58.3-2-18.7-4.3-38.2-13.2-55 6 15.5 10 32.2 9.4 49l-3-10.3c-2.8-.2-3.7-3-5-4.8-4-7.4-7.4-15.3-12.8-21.8 5.4 14.2 13.5 27.3 19.6 41.3 4 17.2 1.3 35 2 52.6-2.4-11-5.6-21.8-10.8-31.8-2.3-5-5.7-9.7-8-15 .2-11 3.7-22.2 0-33-.8 9.5-2 19-3.6 28.4-5.5-10-11.3-19.6-16.4-29.7-.7-5.8 1.8-11.5 1.8-17.4-1.3 4.8-2 9.7-3.4 14.5-3-5-5.5-10.3-9.3-14.8 2.6 8.3 8.7 15.2 9.2 24l2 1 1.8 4.6 2.2-.2c-.8.4-2.5 1-3.3 1.5h3l-.7 5.8-4-3.4c2.5 3.5 5.6 7 6.6 11.4 1.5 11 2.7 22.3 3 33.5l2.8.2c-.7-11.2-2.5-22.2-4.6-33l2.4 3 1.8-1.3c-1.3 4.5 2 8.3 3 12.6-.5 6.3-2 12.5-2.2 19l-3.2-.4c.7 17.6 0 35 .2 52.7-2.4-15-5.7-29.8-8.2-44.8-.8 1-1.5 2.3-2.3 3.4 3 11.3 4 23 6 34.3h-.6c-2.2-7.2-5.8-14.4-5.3-22.4.5-5.3-1.8-10.7-1.4-16 4.3-1.6.8-6.6.4-9.8-2.8-14.2-1.6-29 1-43.2l-1-5.5c-.3.2-1 .2-1 .2-1.5 11.5-2.7 23-4.3 34.4C897 181 895 176 894 171c-.6-.3-2-.6-2.6-.8-1.4-3.2-4.3-6.2-3.7-10 .6-6.3 2.2-12.5 1.8-19-2.4 5.8-2.7 12-5 17.8-.4 10.8-4.3 21-5 32-2-9.6-2.3-19.2-2.5-28.8-2.7 9.8-2.3 20.2-4.6 30-3.5-6.6-6-13.8-9.5-20.6l-4 .4-2.2 8.8c-1.6-2.4-3.5-5-2.8-8 .4-11.5 5.8-21.6 9.8-32 3-6.6 9.4-10.8 14.4-15.8-5.5 3-9.7 7.7-14.2 12-6.5 10-9 22-14.6 32.6-.8-5.8-.3-12.2-3.7-17.2 0 1-.3 2.6-.4 3.5-2.2 2-4.3 4.3-6.5 6.4-7.2 6.3-10 16-13.7 24.4-1.5-4.2-4.2-8-4.6-12.6 2.5-22.6 9.7-44.4 14.3-66.7 1.4-6.7 3.3-13.5 3-20.6-7.6 18.2-11.3 37.8-17.3 56.6-2.3 6.7-3.3 13.6-5.2 20.3l-2-6.6c-3-4.4-2.6-10.4-6.2-14.5.3-14.4 6-29 15.4-40-7.7 6.2-11.7 15.6-14.7 24.8 0-3.5.3-7 .4-10.5-1.4 2.4-2.5 5-3.3 7.7-4.5 15-8.4 30.2-12.6 45.3-5-8-5.6-17.7-5-27-.3-4.3 3.6-7 5.8-10l-6 5c.6-10 3.4-20 9.4-28.4-10 9.5-9.6 24-12.6 36.5-1.3-2.4-2.5-5-3.6-7.4l-1 6c-2.2-5-1.6-10.6-2.7-15.8-2-11-3.5-22-5.3-33 .6 17.4 4.8 34.6 5 52.2-6.6-10.2-13-20.6-17.2-32 1.4 8.3 5.8 15.7 9.8 23-2.2 1.5-4.2 3-6 5.2 2.3-1.5 4.3-3.2 6.4-5 2.4 4.8 5 9.4 7.2 14.2-2 7.2 0 14.8-1.7 22-1.4 6.3-2.2 12.7-3.4 19-3-12.4-5.8-25-12-36.3 1.2-4.7 2.8-9.4 4-14-2.2 3.8-3.7 8-5 12.4-3.2-6-4.4-12.6-5.6-19-4.2-.8-4.5-5.3-5.7-8.6-8-15-13-31-18-47-3.5-16-1.5-32.5-3.7-48.5-3 8.5-1.7 17.8-2.3 26.7-.6 8-.5 16 1.5 23.6 4.6 18.4 11 36.2 17.4 54 1.3 3.2-1.5 6.3-2.3 9.3-2.6-1.4-5.2-2.8-7.8-4l-.8-2c-1 7.6-.8 15.2 2.4 22.3-2.4-4-4.2-8.3-6-12.5.5 0 1.6.5 2.2.7-4-7.2-3.7-15.5-5.4-23.3-3-15.6-5.4-31.3-9-46.6 2.5 18.8 7 37.5 7.8 56.6-7.2-25.2-14.5-50.4-23.5-75-.8-2.5-2-4.8-3.6-7 .7 8 3 16 5 23.8 2 7 3.2 14.5 6 21.4-.7 1.8-2 3.4-2.8 5.3 3.3 14.6 4.2 30 5.8 44.8 1-2.5 2-5 1.8-8 1.4 3 2.8 5.8 4.3 8.5-1-5.7-5.8-10-6.3-15.7-1.4-9.7-2.8-19.5-4.4-29.2 1.7 0 3.8.4 3.5 2.7 4.4 17.6 9.3 35.2 15 52.4 2.2 6.5 5 13.6 2.8 20.6-1.8 6.3-3.8 12.6-5.8 18.8-1.8-8.8-3-17.7-4.7-26.6-1-3.8.8-7.7.5-11.6-3.2-2.8-4-6.8-3.6-11-.8 0-1.6 0-2.4-.2.2 3.2.2 6.4.2 9.6l-2.7-7.5c.4 2.8 1 5.4 1.7 8 .8 4.2 1.6 8.4 2.6 12.5-1.5 3.5-3 7-4.6 10.3-1.8-16.4-1.7-33-4.4-49.2.7 16.7 1.2 33.4 2 50 .2 5-1 10-2.4 14.8l-1.3-3.7-2.2 1c-4.8-21.8-10.4-44.3-6.6-66.7 1.3-11.8 4.4-24.5-1-35.8 3 10.7 2.5 22-.8 32.6-5.5 18.8-5.5 38.5-6.4 58-2-7.4-2.4-15-3.7-22.5-1.6 11 2.6 22 1.5 33-.8 9 5.2 17.2 3.3 26.2l-1.5-8.8h-1c.8 9 3.8 17.7 1.5 26.5-4-10.4-2.7-21.8-4-32.7-1-8.4 1.4-17-1-25-2-11.8-3.2-24-1.5-35.8l-2.3 3.2c0-6.7 1.8-14-3-19.5-.2 10.6 1.6 21 1.5 31.7-1.5 8.2-3.3 16.3-3.8 24.7-2.3-7.5-4-15-4.5-23l-2.4 3.4c2.4 16.8 7.7 33 7.6 50.2l4-.7v2c.3 6 2.8 11.8 2 18-1.2-5.4-2-10.8-3-16 0-1.7-1.5-2.3-2.7-2.8.3 10 2.8 19.8 3.3 29.8-3-9.8-5.2-19.8-7.2-29.8-2-11.3-5-22.8-3.4-34.5l-1.7-2.2c-.3-4.7.8-9.8-1.2-14.3h-1.2c-2.5 18.4-6.3 37-3.2 55.7 1 11.4-1 23-2 34.4-2-6.7-2-13.7-2.4-20.6-1.3-18.2-3-36.3-4.6-54.4-.3-19.7 4-39 7.7-58.2 2-10.7.7-23-8-30.5 2.6 4.3 6.3 8.2 7 13.4 1.4 8.7 0 17.4-2.3 25.7-2.3 7.7-3.5 15.7-5.2 23.6 0 2-1.4 3.2-3 4 .5 9.6-1.7 19-1.6 28.4-.2 9 .5 18-.5 26.8-1.6-8.5-4.6-16.7-6-25.3-.3-14.3 1-28.8 4-42.8 1.4-5.5 3-11 4-16.6 2-5 4.3-10 6-15.2-3 5-4.6 10.4-7.7 15.2-1.2 7.5-4 14.6-5.5 22-2.2 9.8-3 20-4.2 29.8-2-6.2-4.3-12.3-5-19-1.4-7.2 1-14.6.7-22l-1.8 9c-2-5.4-2.6-11-2.3-16.8 1 2.7 2 5.5 3.2 8.2-1-7.8-7-14.2-6-22.3-1.2 4-1 8.2.3 12.2h1.5c-1 9 .8 18 1.2 27-7.3-8.2-5-19.5-7-29.4-.6-3.7.4-7.4 1.3-11 1.4-2.4 2.7-5.2 2.4-8.2-3 5-4.5 10.8-6 16.4-1.8 3.6-3 7.4-4 11.3l-6.6-4c2 2.3 4 4.4 5.6 6.8-2.4 12.3-4.4 24.7-5.4 37.2-4.8-11.3-4-23.8-4.6-35.8-.5-5.7 3.4-12 0-17 .4-22 2.5-43.8 6-65.3 1-7.6 3-15 3.4-22.4-6.5 26.6-10.6 53.7-12.6 81-.6 8.4-.4 16.8-1.8 25-2-8.5-4.2-17.2-8-25 3.2 11.2 7 22.4 8.3 34.2-4.3-9-9.6-18.7-19-23.5 2.6 3.8 7 6.7 8 11.3-.3 7-.4 14-.4 21-3.2-6.4-6.4-13-8.8-19.7-1.3-10-2-20-.7-29.7 1-10.2 4-20.7 1.2-31-4 16.6-3 33.7-6 50.3-.7-9-.2-18-.6-27 2-7.5 1.6-15.5 1.4-23.4-1 7 0 14.6-2.7 21.4-1.2-15-1.4-30.3-5.3-45 1.6 16.3 4.3 32.7 2 49l-.3 1.7c-2.4 5 .3 10.2-.4 15.4-.7 5.3-.8 10.7-1.5 16-3.2-5-4-12-2-17.7 1.3-2.8.3-5.8-.5-8.6l-1.2 8.8c-3.2-6.7-3.3-14.4-5.5-21.5.4 8.7 2.2 17.2 3.8 25.8-.7 7.5-3 14.7-4.5 22-2.6-4.3-5.2-9-3.2-14.3l-2.4 1c-.5-7-1.7-14.3.3-21.3 2.7-11.6 4.7-23.2 7.3-34.7 4 8.5 5.2 18 7.3 27 .7 2.3 2.5.3 2.2-1.2-1.6-9.2-4.6-18.2-7.8-27-.8-2-1-4-.6-6 2.7-15.3 4.8-31 4-46.7-.3-9.3-3.5-18.3-8.3-26.3h1.6-2.7c3.8 5.5 6.7 11.7 7.5 18.5 2 16.5-1 33.2-3.8 49.5l-1 .7h-1.3c-1-2-1.4-4-.8-6.7l-1 2.7c-3.3-4-7-7.5-11.4-10.2-.5-12.5 0-25-1-37.6-1.2 29.2-1.4 58.5-2.3 87.7l-1.7-6.5h-.5c.5 6 .8 12.2 1 18.3h-1.2l-.3-4.3h-1c1 11.5 1 23 .5 34.4-.3 3.5 0 7.3-2 10.4-.4 6-1.4 12-4 17.4-.3-6 1-11.6 2-17.4l2.3-2.2c-.5-8.5-3.8-16.3-6-24.3.5 3.7 1.3 7.3 2 11-7 11.2-10.6 24.2-13 37-2-13.3-.2-27 2.2-40 1.3-8.4 5.6-15.8 11-22.3-12.3 6.2-14 21.2-17 33-2-18.7-4.2-37.3-8-55.7.6 10.6 3.4 21 2.8 31.8-3.3-9.6-5.2-19.7-9.8-28.8 6.6 18.6 10.3 38 11.6 57.8-1.5.7-3.2 1.4-5 2l1.8.3c-3 17.5-2.4 35.5-6 53-.8-7 0-14.2.8-21-.6-1-1.3-1.8-2-2.7.3 4.7-.4 9.5-1 14.3h-2c-.8-5-1.3-10.3 0-15.3 1.3-6.5 1.6-13.2 4.2-19.3.8 6.4.8 13 0 19.3.4 0 1.2 0 1.6-.2 0-8.2-.2-16.4-1-24.6-.5 1.7-1 3.4-1.3 5-3 7-3.4 14.5-5.5 21.6-1.6-6.8-3.3-13.7-3-20.7.3-3.5 3-6 4.8-9l-6.7 6.5c.4-7.5 5-13.6 9.5-19.3-5.5 2.3-8.6 7.7-11.3 12.7l-7-3.4c0-1.2-.5-3.6-.7-4.7-.4 4.7-.5 9.5-1 14.3-2.7-13.4-6.2-26.7-12-39 3.8 12.4 9 24.8 8.3 38.2h1.7c.7 8 2.4 16 1 24-1.5 10-3 20-5.4 30-4.6-18 2-36 1.7-53.8-.6 2.5-1 5-1.5 7.7l-3.7-2.8c1.8 8.4 2.5 17.2 0 25.4-2-9.8-5-19.6-5-29.7-.3-4 2.4-7.4 4.2-10.8-2.2 2.5-4.2 5.2-6 8-.6-6.4.3-12.8 0-19.2-2 11 0 22-1.6 33-1.6 14 1.6 28.3.7 42.5-2.7-7.8-1-16-2-24-2.4-9.7-4.4-19.6-5.7-29.6 2-20 6.2-40.2 1-60h-1c3.6 15.5 2.4 31.6-1.2 47-1.6 6-2.3 12.6-5.2 18.4-1-7 1.7-14 1.3-21.2l-1.6 8.4c-1.2 1.2-2.6 2-4.2 2.4-3.7 14.7-6.5 29.7-10.3 44.4-1.3-7.4-1-15-2.3-22.4-2-7.5-4.4-15.2-4-23 1.5-9-1-18.2-3.5-26.7 1 7.8 3.2 15.6 2.4 23.5-.7 11-2.3 22.2-5.3 33l-2.8 1.3 2.6.6c-1.7 5.8-3 11.8-5 17.8-.8-29.6.3-59.3 4.6-88.5-5.3 19.3-4 39.8-9.7 59-1-10.4 0-21-1.8-31.2-.6-5.2-3-12.4 3-15.5l-3.8 1c-1 3.2-1.7 6.6-1.2 10 1.4 13.7 1.4 27.4.3 41-2.5-4.7-4-10-5.7-15 1 8.2 6.3 15.4 5.3 23.8-1.2 16.7-5.2 33-7.3 49.6.3-9 1-17.7-.2-26.5-.4-5-2-10-1.5-15.3 1.7-14 1.3-28 1.8-42 .3-9.5-1.7-19-.2-28.3 1.7-.8 3.3-1.4 5-2h-3.6c3.4-7 7.6-13.8 10-21.4-9 8.8-12.6 21.4-20.2 31 1.6-23 7.4-45.6 13-68-8 21.8-12.8 44.6-16.5 67.5-1 8.7-4.6 16.6-8.2 24.4v3c-3.6 4.6-5.6 10-9 14.6-.2-12.5 4.6-24.4 4.6-37-1.8 5-1 11-4.4 15.2-.4-8.4-1-16.8-1-25.2l-2-2.7c-.4 5.8-3.7 12.2-1 18 0 5.3.2 10.8-2 15.7-1-12-1.3-24.2 1.5-36-5 8.8-4 19.7-8 29-.3 6.6-.7 13.2-2.6 19.4-3.2 5.8-7.7 10.7-11.8 16-.4-4.2.4-8.6-1.2-12.5-2.7-7.7-3-16-6.7-23.3-2.6-5.4-5-11-8-16 1 3.2 3.6 9.8 5 13-1.4-.2-2.4-.7-3.3-1.2.3.8.5 1.6.4 2.5l1.6-.3c-.3 2.4-.3 5 1 7 2.2 12-.2 23.5-1.5 35.2-3.2-4.2-5.2-9-8-13.4-2.3-3-1-7-1.2-10.5-.6-9.2 1.7-18.2 2.7-27.4l1 1.4c-.5-2.6-.2-5.4 0-8 .7-8 2-16-.5-24-1 19.5-6.3 38.3-8.2 57.6h-1c-1.3-18.5-4-37.5-12.6-54 6 15.4 9.6 32 9.7 48.6-1.7-4-2.7-8-5.3-11.5-6.8-7.3-9.2-17.7-16-25 5.6 14 13.6 27 19.6 41 3.7 16.6 2 33.8 1.5 50.6-3-16-10.2-30.6-18.2-44.6.3-10.7 3-21.5 1-32.3-.4 0-1.2 0-1.5.2.6 9.3-2.5 18.2-2.6 27.5-5.6-8-9.8-17-15-25.7-4.4-6-.6-13.6.3-20.3h-1c-.6 4.4-1.6 9-2.7 13.4-3-4.8-5.4-10-9.2-14.4 2 8.3 9.6 15 8.2 24h3c4 9.7 10.3 18.3 13.8 28.2-1.8-2-3.5-4.3-5.3-6.4 1.6 4.6 4 9 5.4 13.6-.7 7-2 13.6-2.5 20.4-.7-8.8-1.5-17.8-3.3-26.5-.6-3-.5-6 0-9-2-3.5-4-7-6.6-10 1.4 4.6 3.6 9 4.3 14 2.6 18.6 3 37.5 3 56.3-.4 8.7-.6 17.4.2 26-1.5-2.6-4-6-5-4.5-1.4-5.7-4.2-11-5.4-17-.8-7-.8-14-.3-21 2 11.8 4 23.5 5.6 35.4l2.8-3.7c-2.5-13.5-4.8-27-8.6-40.2-4.6-16.2-1.7-33.2-.4-49.6.6-2.3-.5-4.3-1.2-6.2-1.6 12.3-3 24.6-4.5 37-.2 2.2 0 20.4-1.2 27.6-1-6.2-1.5-12.6-3.3-18.6 0 6 1 12 1.6 18-4.4-8.8-8-18-12.2-26.6 1-6.5 1.7-13 3-19.6 4.4 7.2 8.2 15.2 8.4 23.8 1-1-.2-13.3-2.6-18-2-2.7-4-5.5-5.8-8.3 1-7.2 2.4-14.6 2-22-2 5.8-3 12-4 18-3.7-3.7-7.2-7.6-11-11 1.4 2 3 3.8 4.4 5.7l-1.6 8.4-2.5-5.2c2.4 12.2-.4 24.4-2.2 36.4-2.8-7.4-6-14.7-9.4-22-5.6-.4-4.8 6-6 9.6l-3.5-6c1-10.6 4.3-20.4 8.6-30 2.3-8.4 9.6-13.6 15.6-19.4-7.4 4.5-14 10.7-17.6 18.8-4.4 7.8-5.8 17-10.5 24.8-.7-5.7-1.3-11.5-3.3-17 0 1-.4 2.8-.5 3.8-2.3 2.3-7.2 4.7-5.8 8.7 2.3-2.8 4.3-5.8 7-8.2.7 5.4 1.8 10.8 1.5 16.3-.8 5.4-2.5 10.6-3.8 15.8-2.3-4.6-4.3-9.4-6-14.2l1-7.4-3 5-.8-7.7c-4.2 7.4-7.7 15-10.8 22.6-2-5-5.8-10-4.4-15.5 2.3-14.5 5.4-29 9.3-43.2 2.8-13.6 7.3-27 8-40.8-9 20.3-12.2 42.7-20 63.5-.5 4.5-1.4 9-2.5 13.3-3.8-6.4-3.6-15.2-9.2-20.4 1.2-8 3.3-16 5.2-24l-3.6 7.5c0-3.3.3-6.5.2-9.7-1.3 2.3-2.5 4.7-3.2 7.2-4.6 15-8.5 30.4-12.7 45.6-5.8-8.3-6-18.8-5-28.6 1-3 3.2-5.2 4.8-7.7l-5 4.8c0-10.6 3.8-20.6 9.5-29.5-9 10-10.7 23.6-12.2 36.4l.7 6.2c-1-1.6-1.5-3.4-2-5.2l-3-8.3c-.2 4.8.4 9.5 1 14.2 2.2 3.6 3 7.7 3.4 11.8-2.8-3-4.6-7-4-11l-2 .5c0-19.4-5.4-38.2-7.2-57.4 0 18 5 35.3 5 53.2-6-10.6-13.4-20.4-17-32l-.8.3c4 13 12.4 24 17.4 36.4-.7 8.3 0 16.8-2 25-1.4 5.2-1.7 10.6-2.5 16-3.7-12.5-6.2-25.3-12.6-36.7 1.5-6.7 4.4-13 8.2-18.7-4.8 4.8-7 11.2-9.4 17.3-1.2-3.6-2.7-7-3.6-10.7-3.5-19.3-6.2-38.8-11-58 2.4 16.4 6.2 32.7 6.7 49.2-1-2.4-2-4.8-2.8-7.3-5-9.8-9.3-20-12.7-30.7-2.7-8.7-6.5-17-7-26.3-1-13-.7-26.3-2.5-39.4-2.7 9.7-1.2 20-2.2 30-1 11 1.8 22 5 32.4 4.5 14.8 9.4 29.5 15 44-1 2.4-2 5-3.2 7.4-3-1.7-6-3.4-8.8-5.5.2 3.5 0 7-.3 10.4-4.8-5-4.2-12.3-5.5-18.7-3-17.3-6-34.5-10-51.6 2.7 19.5 7 38.6 8.3 58.2-6-20.7-11.8-41.3-18.8-61.7-2.6-7.2-4.4-15-8.6-21.5 1.7 17 8.5 33 11 49.6l-2.3-.3c2 19 5.3 38 6.5 57-1-2.4-1.8-5-2.6-7.3.3 3 .8 5.8 1.6 8.6.6 3.7 1.6 7.3 1.7 11-1 3.7-2.6 7-4.2 10.4-1.5-6.8.3-14.4-3-20.7-1.3 12 3.4 25-2.7 36l-.3-5.3-2.3 3c-4-17-7.2-34-8.6-51.3 1-17.2 7.6-34.8 1.2-51.7.5 5.3 2 10.5 2 15.8-.3 9-3.6 17.6-5.3 26.4-3.7 16.3-3 33.2-4.3 50-2-10.5-3-21-4.8-31.5-.3 3.7.4 7.5-1 11h-1c-1.4-10.3-.8-20.7-2.7-31-1.7-12.5-3-25-4.2-37.7 0 13.6 1.5 27.3 2.2 41 .3 10.4 2.5 21 0 31.4-1.4 4.7-1.7 9.6-2.5 14.5-3.5-7-3.7-15-5.3-22.6-2-9 2.5-17.8.2-26.7-1.4-5.3-.8-10.8.8-16-6.7 13.5-2 29-5 43.3-3.7 17-5.2 34.5-5.3 52 2.2 14 1 28.3-1.5 42.3-2-12-2-24-3-36S9.2 198.5 8 186.6c-1.4-22 4.5-43.6 8-65.3 1.7-9.6-1.6-19.7-8.5-26.6 3 5 7 9.7 7.3 15.8 1.4 11-2.7 21.7-5 32.4-1.6 5.4-1.3 11.6-4.4 16.6-.7-4.6-1-9.3-1.8-14-1.2 9.5 1.3 19-.2 28.5-2 14-.7 28.3-1 42.4-1-2-1.8-4.2-2.6-6.3V236c2.8 13.5 6.3 27 5.6 41C4 268 2 258.7 0 249.6v76.2h17.5c-2-11.7-2-23.8-1-35.5 4 11.4 6.2 23.4 7.3 35.5h7.7c-1.7-6.4-2.5-13-3-19.5-1.5-14-3-28-4.2-41.8-.6-7-.7-14-2.5-20.7 1.7 0 3-.8 3.7-2.5-2.5-4.4-4.2-9.3-4.3-14.3-.4-14.3 1.7-28.3 3.3-42.3l-2-2c0-5.7-.3-11.5.3-17.2 2.6 9.2 3 19 5.5 28 3 10 2 20.5 3.5 30.7.7 8.2 3 16.3 3 24.7-.7-2.5-1-5-1.4-7.5-1-.4-2.8-1.4-3.7-2 1.4 8.4 4 16.3 5.3 24.6 1.6 2 1.8 4.3 1.5 6.6l-3-5.8c-1.7-6.3-4.6-12-6.5-18.3l-3-.2c3 9.7 7.2 19 9.7 29 .3 16.7-.5 33.6.6 50.4H50c-1.6-8.8-3.6-17.5-4.5-26.3 2.5 8.6 4.3 17.4 5.4 26.3h26c-3.6-9.2-2.6-19.4-4.6-29-1.7-7-.5-14.5.3-21.7 4.7 16.5 5.7 33.6 4.5 50.7h57l1.5-5.3 1 5.3h44c-1-17.3-2.2-34.6-2.7-52 5.4 17 7 34.5 9 52h13c-2-5.2-3.5-10.5-3.2-16 0-10.3-.7-20.5.3-30.7 2 7.4 1.8 15 3.4 22.6 1.8 8 2.4 16 3 24h16.3c-.2-14.2-1.5-28.3-1.3-42.6 1.4 9 4 17.5 4.3 26.5l.3 16.2h22.3c0-21.2-2.3-42.4-1.8-63.6 4 21 3.8 42.4 3.4 63.7h24.6c-.4-16.4-1.2-32.8-2.8-49-.7-8-1-16-.6-23.7 4.6 19 6.2 38.5 6 58 0 5-.4 9.8 0 14.7h16c-1-9-.3-18 .6-27 .8 9 3 18 1.5 27h8.5c-2.7-10.5 1.3-21.3 2.5-31.8 1.6 10.5-1.7 21.2-1 31.7h14.2c.4-4 1-8 1.8-12 1.3 4 1.6 8 1.6 12h24v-.3l.3.3H361c.5-11.7 1.3-23.4 2.2-35 .7 11.6.3 23.3.8 35h13.3c-1-9.6-3.6-19-5-28.5-3-37.2 3-74.4 1.2-111.6l2.5 1c-.3-1-1-3.3-1-4.5-1.4-1.8-3-3.8-2-6.2.6-5.4 1.4-11 3.4-16 0-1.7.5-3.3 1-5-.3 8.8.3 17.7-1.8 26 .8 2 1 4 1.2 6.2h-2.2c3.7 9.3 1.5 19.4 1.4 29.2-1 16.5.8 33.2-1.2 49.7-2 20 .6 39.8 2.5 59.7H397c.8-9.6 1.6-19 2-28.7 1.6 9.6 4 19 5 28.7h24.8c-.3-7.7.6-15.4 3-22.8 1.7 7.5-.2 15-.8 22.7h3c.2-2.5.5-5 1-7.3l1.4 7.3h20c.4-14.8 1-29.6 3.6-44.2 1 14.8 4 29.4 5.5 44.2H485c-2.2-6-3.7-12-5.3-18 2.6-35 4-70 9-104.5 2.2 2.2 1.7 5.6 2.2 8.4 1.3 16.5 3.4 33 1.7 49.6-.4 11.5-1 23-2.7 34.3-1.7 10-.6 20.5-4.3 30.2H533l1.8-18c2.6 5.7 4.7 11.7 4.7 18h16.8c0-6.7 0-13.3 1-20 2.4 6.4 5.2 13.2 3.8 20h47.2c-1.5-5.8-2.6-11.7-3.7-17.5 2.7 5.6 4.7 11.6 7 17.5h20.4c-1.8-8-3.8-16-4.2-24 3.7 7.7 6.3 16 9.5 24H657c-2-11.7-2.4-23.7-1-35.4 4 11.3 6.2 23.4 7.3 35.4h7.7c-1.3-5-2-9.8-2.6-14.8-2.3-23-4.7-45.7-6.5-68.6 3.6 9.3 6.5 19 10 28.3 2.3 6 1.4 12.4 1.2 18.6-.6 12 .3 24.2.5 36.4h9.3l.6-5.8 1 5.7H716c-2.4-10-2.7-20-4.3-30.2-1.3-6.8-.3-13.7.4-20.5 2 6.3 3 12.8 4 19.2 2.2 10.3.4 21 1.4 31.5h56.4l1.2-5.3 1.3 5.3H820c-.8-17.4-2-34.7-2.7-52 5.5 16.8 7.4 34.4 9 52h13c-1.7-4.8-3-9.7-3-14.8-.5-21.4.4-42.7-.5-64 .7 4.3 1.2 8.5 1 12.8-.2 15 .7 30 3.7 44.7 1.5 7 1.7 14 2.4 21.2H859c-.3-14.2-1.3-28.4-1.5-42.6 3.5 14 5.2 28.3 4.6 42.7h5c-.2-1.3.2-2.5 1-3.7 1 1 1.7 2.3 2 3.7h15c-1-21.5-2.5-43-2.6-64.5 4.3 21.2 4 43 3.8 64.5H911c.2-24.3-3.7-48.4-3.5-72.7 6.4 23.7 6.3 48.3 6 72.7h16.6c-2-9 0-18-.2-27 1.3 9 3.4 18 2 27h8.7c-1-3.3-2-6.6-1.2-10 1.2-7.4 2-14.8 3.7-22 .8 10.7-1.2 21.3-1.4 32H956c.4-4 1-7.8 1.5-11.7 1.5 3.7 2 7.7 1.7 11.7h136.6c0-5 .2-9.7.6-14.6 1.2 5 2 9.8 3 14.7h157.3c-1-14.3-1.7-28.5-2.3-42.8 4.8 13.7 6.6 28.2 8 42.7h11.4c-.5-3.3-.7-6.6-.6-10-.2-20.2.3-40.5-.5-60.7 1 5 1.3 10.3 1.2 15.6-.6 15 1 30.4 4 45.3.6 3 1 6.4 1 9.7h7c-5.3-19-3.5-38.8-6-58-2.6-18.3-.4-36.8 2-54.8 1.6 5 4 10.2 4.8 15.6-.4 5.3-1.7 10.4-2.3 15.6-3.4 27-.5 54.4 2.4 81.5h9c-.4-11.2-1.3-22.3-1.3-33.5 3 11 4.6 22.2 4.7 33.5h10.5c-2.7-8.4-6-16.8-6.3-25.7-1.2-18.8-3-37.7-7.2-56-3.6-11 1-22 2.4-33 4 7.2 8 15.2 7.5 23.8.3 30.3 1.8 60.7 5.2 91h9.8c0-18.6-2.3-37-1.7-55.4 3.5 18.2 3.8 36.8 3.7 55.3h8.7c-1.7-28.7-2.5-57.6-10-85.5-1.6-5.8-4-11.7-3.4-17.8.6-8 1.3-15.8 2.2-23.6 4.5 12 9.7 24 14 36.2 3.2 30.2-1.4 60.4-2.2 90.7h15c-.2-21.6-3.8-43-3.3-64.7 5.3 21 6.6 43 6 64.7h15.6c.3-6.5.4-13 1.3-19.4 0 6.5 1.3 13 2.2 19.4h6.6c1.3-8 2.3-16 4-24 .5 8-.2 16-1 24h59c.6-9.7.8-19.3 2.7-28.8 0 9.5-1 19-.2 28.7h12c-3.4-14.5-5-29.3-4.5-44.2-.2-24.8 2.6-49.5 2.2-74.3-.4-5.4-.3-11 .7-16.2-2.8-7.2-1-15.2 2-22v-4l1.5-.4c-1 8.3-.7 16.8-2.5 25l1.6 5.4-2.6-.3c3.6 10.4 1.4 21.5 1.5 32.2-1 15 .5 30-1 45-1.6 17.8-1 36 1.7 53.7h21c.5-6.5.8-13 1.4-19.4 1.3 6.4 2.4 13 3.5 19.4h26.4c.5-4.7 1.2-9.4 3-14 1 4.7.6 9.4 0 14h12.6c-2.7-9.4-5.2-19-5.2-28.6 1.7-10.7 4.3-21.4 7.4-32 1.3-6 2.5-12.4 4.6-18.5.2 11-1.4 22.2-1.6 33.3-.8 15.3-.6 30.6-.5 46h7.3c1-12 .8-23.7 3.4-35.2 1.3 11.7 2.6 23.4 4.5 35h13.7v-141l-2 .2-.2-22.3 2.2 1.6v-.4zM676 212c-3-9.2-5.8-18.8-4-28.4.8-4.4-.4-9.5 2-13.4 1.4 14 2.2 27.8 2 41.7zM24 147.3c-1-2.5-.6-5.3-.4-7.8 1.3-2.8 2.3 2.5 2 3.4.2 2-.3 3.5-1.6 4.4zm8.3 48.4c-.8-7.6.6-15.3 1-23h2c.4 13 1.5 26 1.4 39-2-5-3.3-10.5-4.4-16zm33 5.8c0 5.6 1.3 11.4-.4 16.8-2.7-5.4-3-11.6.2-16.8zm-25.4-13.4c-.6-5.8-2-11.5-2-17.4l1-.2c.4.3 1.2 1 1.7 1.2 0 8 2.6 16 2 24.2-.4 6.2.7 12.4-.7 18.6l-1-.2c0-8.7-1.7-17.4-1-26.2zm4.3 53c-3-8-2.4-16.4-3.3-24.6l3.3-.2c-1.4 4.7.6 9.3 1.2 13.8.3 3.7-.6 7.4-1.2 11zm6-59.5c-2.5-10-2.4-21-1-31.2 1.8 7.2.3 14.8 1.6 22.2 1.7 3.2 1.6 7 2.3 10.5 1 8 3.2 15.6 4.6 23.5.5 9-3 18-5.6 26.4-1.8-17-2.7-34-2.2-51.3zm14.5 95.5c-5.3-10.5-7.6-22-10-33.4-.5-5.2 1.5-10.2 2.7-15 1 9.4 3.2 18.6 5 28 4.3-8.3.3-17.6 1-26.4 2.5 8.2 3.8 17.6-.2 25.4l4 .4c-1.5.4-3.2.8-4.7 1.5 2.7 6.2 2.8 13 2.2 19.5zM100 150.8c5.3 5 3.2 12.7 2.7 19-2.2-3-6-5.4-5.8-9.4.8-3.3 2-6.4 3-9.6zm1 24.4c-2.2-.7-3.6-6-2-7.7 1.6 2 3.3 5.2 2 7.7zm-29.7 67.4c-3.2-9-1.5-18.7-2.4-28 .3-10-3.3-20.6 1.3-30l2-1.7c-1 15.2-.6 30.5.5 45.8.4 4.6 0 9.3-1.5 13.8zm-5.5-131.2l1-2.5c.5 0 1.3 0 1.7.2 4.7 19 10 38 16.3 56.5 2 5.8 4 12.4 1.7 18.4-2.2 6-3.4 12.4-6 18.3-1.7-10.4-3.5-20.8-5-31.2l2-5.8-2.3.2 1-3.4-2.5 1c-1.8-17.4-5.4-34.4-8-51.6zM75.6 222c-.5-9.2-1.7-18.6-1.3-28l.8-1.6c1 9.8 4.6 20 .6 29.7zm7.4 72c-1-17.7-3-35.4-5.2-53-.8-4 .2-8.4 1.6-12.3 3.6 30 6.2 60 8.6 90-1.7-8.2-4-16.4-5-24.8zm1.6-74.4c-3.8-10 1-20.2 3.4-30 2.2 10.2-2.2 20-3.4 30zm6.7-59l-3.6-9.2h1.5c.8 3 4.3 6.2 2 9.2zm7.8-13c-.5 4-2 7.7-4.2 11C92.6 154 92 149 92 144c2.4 1 4.7 2.3 7 3.4zm-2 19c-.8 6 2.6 11.4 2.3 17.5-2-5.3-4-10.7-5.3-16.3l3-1.2zm4.8 152.3c-2.2-16.2-3-32.4-4.2-48.5-.3-23.3-.7-46.6-1.8-70 2.2 5 3.8 10.3 4 15.7.4 23.4 3.6 46.5 4.5 70-.6 10.8-2.5 21.7-2.5 32.7zM113 230c-4.5-17.4-10.5-34.7-10.7-53 2.4 1.7 3.3 4.5 4.6 7 3.3 6.8 7 13.6 8.7 21-.4 8.4-1.5 16.7-2.6 25zm-9.4-57.6c1-8 2.2-16.5-2.8-23.5.8-2 2-4.2 3-6.2 4 12.7 11.4 24.8 11.4 38.5.3 4.4.6 9 .7 13.4-4.5-7-8.3-14.7-12.4-22zM122 194c2.3 5.6 3.8 11.6 5.4 17.4 1 2.3-.4 4.6-1 6.8-4.7-7.3-5-15.8-4.4-24.2zm6.2 121.7c-1.8-11.3-1.5-22.8-2.7-34-.8-10-1.3-20 .3-29.8 2.2 9 2.5 18.7 4 28 .7 12-1 24-1.6 35.7zm5-63.8c-.3 4-.8 8.3-1.4 12.4-1.2-10.4-5.6-20.7-3.5-31.3 2 6.3 5.2 12.3 4.8 19zm5.2-31.3c-3-8-.7-16.8-.8-25 5.4 7 1.7 17 .8 25zm6 9.3c1 9.3-.2 18.7-1.7 28-1.2-15.5-.2-31 1.6-46.4 1.5 6-.7 12.2 0 18.4zm3-60c-1.8 1.3-2 4.2-2.7 6.2-1 7-1.6 14.3-2.3 21.5l-1-4c-1.8-.4-3.4-.7-5-1.2 1.2 0 3.5-.3 4.6-.4-3-10-2-20.5-1.3-31 1.6 2.3 2.7 4.7 4 7 1.3 1.6 3.3.6 4.7 1.5 1.4 2.3 1.7 5 2 8l-3-7.4zm5.7 79c2 18.5 4.4 37 6.6 55.6-4-18.3-8.2-37-6.5-55.7zm10.8 49.7c-3.7-20.8-6.2-41.8-10.4-62.5.3-11 1.6-22 4-33 3 9.4 7.7 18.6 6.8 28.6.4 22.3.5 44.6-.4 67zm-4-112c2.4-13.3 5.6-26.7 5.8-40.2-1.7 2-3 4.6-3 7.4-1 7.8-3 15.6-4.6 23.4-.2 1.3-.8 2.3-1.8 3 0-7.8 3.4-15 4.8-22.6 1-5.3 2.3-10.5 3-15.8 0 3.4 4 4 4 7.3 0 4.8 3.6 9 3 13.8-3.4 11.4-5 23.2-6.3 35-2.4-3.5-3.4-7.5-5-11.3zm14.7 36c.4 3.5-.7 7-1.3 10.5-1.4-9-4-17.7-5.8-26.5-.5-14.3 1-28.6 5-42.3 4.4 5.7 1.5 12.7 1.4 19-.6 13-.6 26.2.7 39.2zm46.5-48.8c.4 0 1.2.7 1.7 1 2.2 9 5.2 17.6 8 26.3 1.4 3.3.6 6.7.2 10-2.8-6.8-7.4-13.3-8-20.8h-1l-2.6-4c.5-4.2 0-8.6 1.6-12.6zm-12 7.7c1.7 6.2 1 12.6.2 18.8-3-6-1.7-12.6 0-18.8zm-29.3 20.7c0-6 0-11.8.2-17.6 1.5 3 3.3 6 3.2 9.4-.8 3-2 5.6-3.5 8.2zm6.6 53.5c-1.8-19-3.8-38.2-.5-57 1.4 5.2 3 10.3 4 15.5-2 13.7-2.8 27.5-3 41.3h-.5zm5 33c-1.2-21-2.3-41.8-.6-62.6 1.5 2 1 4.5 1 6.8 0 18.5 1.2 37.2-.4 55.7zm1-85.2c-1.6-4.7-3.6-9.2-5-14 2-6.4 5-12.6 7.7-19 1 3.5 1.5 7 1.3 10.7-.7 0-2-.4-2.7-.5 1.5 7.6-.6 15.2-1.4 22.8zm6.5 23c-1-5.6-3-11-3.8-16.7-.3-9.5.7-19 2.2-28.4 3 4.8 4.2 10.7 6 16l-4.4 29.3zm7.2 68.6c-.6-16-1.8-32-3.6-48-.2-14.2 1-28.4 3-42.4 2 6.4 6.4 13 4.4 19.8-4 21-4 43-2 64.2.5 11.5 2.7 22.8 3 34.3-1.7-9.2-4.7-18.4-4.8-28zm7.7-115.7c6 6.4.6 15 0 22.5-.4-7.5-.5-15 0-22.5zm2.2 42c-1.3-10.3 1.8-20.4 2.6-30.5 2 4 4.4 8 2.6 12.6-1.8 5.8-1.6 12.8-5.3 17.8zm11.2 67.7c-1.3-18.3-3-36.6-7.3-54.5-3.6-11 1.5-22 2.5-33 3 5.5 5.2 11.3 7.2 17 .7 20.8.8 41.7 2.4 62.4 1 14 2.6 28 3.4 42-3.5-11.2-8-22.2-8.2-34zm8.4-67c-1.7-3-1.8-6.3-1.6-9.6 2.4 2.7 2 6.3 1.6 9.7zm3.7-34.7L238 182c-1.5 7.4 1.3 15-.4 22.3-4.2-5.8-2-13-1.7-19.5l1.5-5h1.3c-2.2-8.5-1-17 1-25.5 1.8 2 3.5 3.8 5.4 5.6-.7 9.4-4 18.4-4.5 27.8h-1.4zm19.4 87.5c-1.3 15-1.5 30.2-3 45.2-1-28.2-2.4-56.6-9-84-1.3-7-4.3-13.3-4.6-20.3 1-8.2 1.6-16.6 2.3-25 5.2 10.4 8.5 21.5 13 32 2.2 4.2 1.8 9 2 13.4.2 13 .6 26-.6 38.8zm37.7 23.6c-4-30-3.4-60.5-4.7-90.7 3.8 12.3 5 25.2 7 37.7 1 9.3 2.7 18.6 3 28-1.7 8.4-3.8 16.7-5.3 25zm-1.5-87.5c-1.3-5-3.6-9.8-4.4-15l-1.6-.2c-.2 1-.6 2.4-1 3.2l.2-3.2-2.3.3c4.4 27.5 2.3 55.5 0 83.2-1.4-20.6-1-41.2-1-61.8 0-8.2-1.2-16.8 1.6-24.7 1.4-3-.7-6-1.3-9 4.5 2.4 2.4 8 1 11.7h4.4l-.3-3c9 20.6 12.8 43 13.7 65.4-2.7-15.5-5.3-31.2-9-46.7zm37.8-34c1.7 8.8 1.4 19-4.2 26.5-.6-14.5 1-29-1-43.4 4.2 4.6 4 11 5.2 17zm-18 12.3c3.4 7.6 7.4 15.3 8.6 23.6-1.5 4.3-3.8 8.4-5.8 12.5-4.4-11.5-3-24-2.7-36zm4 71.7c-.7 4.5-1.2 9-1.6 13.6-2.8-11.3-2.7-23.2-1.2-34.5 1.8 6.7 4.2 13.8 2.8 20.8zm3.5 48c-4-12.7-2.2-26-.6-38.8 2.2 12.8 4.3 26 .6 38.7zm6.8-30.8c-1.6-5-2-10.3-3-15.4-1.2-5.7-3.4-11.7-1.4-17.7l-4.2-2c2-4-2.5-8.7-.7-13 1-3 2.5-6.3 4-9.3.6 5.8 1 11.7-.5 17.4-.7 4 3.4 6.4 3 10.4.5 10 3.2 19.7 3 29.7zm7.3-34.5c-1.2-9.3-3.2-18.5-3.3-28-.4-3.3 1.6-6.2 2.8-9.2l-2.6.6c0-3.4.2-7 2-10 .6 3 1 6.2-.7 9 .5 0 1.5.4 2 .5 3.6 12-.5 24.6-.2 37zm5.5 36c-.8-3-2-6-1.7-9.3.3-9-.3-18.3 4-26.4 3 11.8-.6 24-2.2 35.8zm3.8-50c-4-8.5-4.7-18.3-2.4-27.5l-3-3.4c0 1.8 0 5-.3 6.7-.4-1-.8-2-1-3.2.7-3.5-4.7-6.8 1-9.4.6 3 1.8 5.5 3.5 7.8 1.2-3.5-.4-9.4 3.8-11.4-1.8 13.5 0 27.3-1.7 40.7zm10.4-65.3l2.7-3.5c0 8.5-1.8 16.8-1.8 25.3-1-7.2-1.6-14.5-1-21.8zm-4.7 49.7c-.5-13.5-.4-27 1-40.4 0-1.7.6-3.3 1.3-4.8.3 5.8-.2 11.6 0 17.4.2 9.3 1 19-2.3 27.8zm6 75c-1.4-8.3-3.7-16.7-2.8-25 .7-5.8.7-11.6 2-17.3 1.4 7.4 2.8 14.8 3.8 22l-3 20.3zm3.5-83.8c1 13.4 3.6 26.8 3.5 40.2-2.5-13.2-6.2-26.7-3.5-40.2zM368 195c-1.6 7-1.2 14.2-2 21.3-1.4-5.7-2.2-11.6-1.8-17.5l2-1.3-3-3c-1.5-8.4 1.3-17 7-23.3-1 7.3 0 15.5-4.2 21.8l2 2zm14 9.8c-.2-16-1.2-31.8 0-47.6 2.2-7.6-2-17.5 6-22.8 1.3 23.5-1.7 47-5 70.4h-1zm5.6 76.7c-.8-3.6-1-7.4-.2-11 1.6-7.3 2.7-14.7 4.8-21.7-.3 11-3 21.8-4.6 32.7zm17.5-67l-2.8.6c1-7 .4-14.3 2-21.2-.5-5.3 1-10.4 2.3-15.4-.2 6 .8 12.6-2 18.2l4.3 1.3-4.5-1c2.4 5.4.7 11 .2 16.5l1.7 1.2c0 7.5-2.5 14.6-4.4 21.7-1-7.5.8-14.8 3.3-21.8zm3.6 78c-2.7-8-5.3-16.5-6.5-25.2.5-10.3 2.7-20.6 4.5-30.8.8 18.7 5.2 37.4 2 56zm7-23.2c-2.7-8.3-.5-17 1.5-25.3 3.6 8.2 3 17.6-1.4 25.3zm5-25c-.7-3.6-2.6-7.2-1.5-10.8 2.2-10.5 5-21 5-31.7 3 14-1.4 28.4-3.3 42.4zm27-80.7c.7 6.7 1.4 13.5 2.7 20l-6.3-1c-.2-6.5 1.5-13 3.7-19zM428.3 227c-1-9 1.3-17.8 2.6-26.6l3.6-2.4c-2.2 9.7-4.5 19.3-6.2 29zm3-30.5c2.8-12.3 4.7-24.7 6.8-37 .6-.4 1.6-1 2.2-1.2.8 5.8 0 11.8 1 17.7l-1.3-3.2h-.8c-1.2 7.8-2 16-4 23.6h-4zm5.2 48.6c.3-14.2 0-28.6 1.7-43 2.2-6.2 2.3-13.5 5.7-19 1 21-2.4 41.6-6.2 62h-1zm13.2 69c0 2.2-.5 4.4-1 6.5 0-15-1.8-30-1.2-45h-.7c-1.7 14.3-.6 29-1.6 43.4-3-10-5.8-20.5-5.6-31 2.2-10 3.3-20.2 7.2-29.6 1-7 2.5-14 5-20.5-1 25.2-3.8 50.6-2 76zm2.6-94.7c-.2 3.8 0 7.7-2 11l.3-4.6-3 2c-2 11.3-5.7 22.2-9.3 33 4.8-25.4 9-51.3 6.8-77.3l5 1c2.6 11.5 3.2 24 0 35.4.6 0 1.7-.4 2.2-.5zm6.3 37c-1.2 5.4-2 10.7-3.5 15.8-.3-15 .2-30 .3-45 0-2.8.7-5.5 2-8 1 12.5 4 25 1.2 37.4zM461 221c-1-12.6-3-25-3.7-37.5 0-3.8-1.3-8 .5-11.4 3 16 6.8 32.6 3.3 49zm11 57.3c-.6-11-.8-21.8-1.6-32.7-1-6 1.8-11.7 3-17.4 1 11-.5 22-1 33 0 5.7 0 11.4-.4 17zm12.7-114c.3 7.7-1 15.4-3 23-1.5-3.8-.3-7.8 0-11.6.6-4 .6-8 3-11.5zm-9-9.8c2.4 1.2 8 1.8 6 6-2.5 7-3.5 14.4-5 21.7-.2-9.3-1.6-18.5-1-27.7zm12.2 42.2c-3.6 17.8-6 35.7-8.4 53.5.8-14.4 1.6-29 1.2-43.3-.8-9.6 3-18.5 4-28l1.5.3c.5 5.8 2.8 11.6 1.6 17.4zm16.7 7c0 9-1.8 18-4.2 26.6-2.2-23.5.4-47 1.3-70.5.4-2 1.3-3.6 2.6-5 2 16.2.6 32.6.3 49zm9.5-23.8c2.2 12.5 1 25.5-2 38 0-12.8-1.8-25.8 2-38zm1 83c-1-4.2-1.4-8.4-.4-12.5 2.4-11.4 3.7-23 5.4-34.5 1.3 15.8-3.6 31.2-5 47zm1.6-71.3c.2-6-1.2-12-1.5-18.2 2.4-10.5 3.7-22.3 11-30.8.7 8.7-2.5 17-4 25.4-2 8-3 16-5.5 23.7zm11.2 97.6c-.8 11-1 21.8-3 32.5-.7-13.7-1.2-27.6 1.4-41.2 1.5 2.7 2 5.7 1.6 8.7zm3.7-87.3c-1.5-6.2-.3-12.6 1.2-18.7 1.8 6.2.2 12.6-1.3 18.7zm18.6-131.8c2.2 3.4.5 7.2-.2 10.8-1.2 5.3-2 10.7-3.8 16-.5-8.7.8-17.3 2.3-25.7l1.8-1zm-12.7-14.5c5 2 7.5 6.8 10.7 10.8-1 9-3.5 17.8-4 27-1 10.2-1 21-5.7 30.5-1.3-22.8-1-45.6-1-68.3zm6.6 131.8c0-1.4-.4-4-.6-5.5h-1.4v5c-4.6-8.4 1-17.8 1-26.5-2.5-2.6-3.2 2.8-3 4.5-2-9.8-1.7-20 1.6-29.5 2.7 6.8 2.6 14.4 0 21.2l2.7 3 .8-3c-.2 10.2 3.7 21-1 30.8zm18.2-21.4c1.7 5.2 2 10.7 2.7 16-2.3-5-4.6-10.3-2.6-16zm-5.4-28.7h1.3c.4 4.4 1.6 8.8 1.8 13.4-.4 4.3-1.3 8.6-2.2 13-1.3-2.7-2.7-5.3-3.5-8.2.5-6 2-12 2.7-18.2zm-4.3 27.5c1.3 2.6 2.6 5.2 3.3 8-.4 3.7-1.8 7.2-3 10.6-1.3-6-.4-12.4-.3-18.6zm4 113.7c-2-7.2-4-14.5-5.3-22 0-6.8.8-13.7 1.7-20.4 3.3 9.8 5.5 19.8 7.4 29.8-.8 4.4-2.3 8.5-3.6 12.7zm6 23c-1-4-2.4-8.2-3.3-12.4.3-4.3 1.5-8.5 2.6-12.7 2.7 8 2.2 16.8.8 25.2zm2.8-55.5c-2.4-13.6-5.8-27-8.3-40.8 0-7.4 1.8-14.7 2.8-22 1.8 5 3.6 9.8 5 15 1.2 5.3.7 10.8.8 16.3-.3 10.5 1.2 21-.3 31.5zm.5-80c-3-8-2-16.3-.5-24.5 1.7 8 .3 16.4.5 24.6zm19.3 44c-2.2-6.5-2-13.5-3.4-20.3 0-1 .6-3.4.8-4.5l-2.2.8c-1.8-9.5-3.3-19-4.4-28.6 2.6 6.3 5 12.8 7.5 19.2-1.2 11.2 2 22.3 1.6 33.5zm2.5-43l-2.5 1.3c.2-8.7-1.5-17.3-.6-26 6.8 6.6 2.8 16.5 3 24.7zm8 49c-1 13-.3 26.2-1.4 39.2-5.4-18.4-3.2-37.6-2.7-56.4 2 5.6 4.4 11.2 4 17.2zm-5.7-40.3c-.3-8-1.6-15.8-.6-23.8 3.6 3.8 3.6 9.4 4 14.3.7 8.8 2.5 17.6 2.4 26.5-2.8-5.3-5.3-11-5.7-17zm12.6 95.2c-.6-7.5-.3-15 0-22.2 1.3 7.3 2.7 15 0 22zm12-142c3.7 5 .8 12.2 2 18l-4.7-6.5c1-3.8 1.8-7.6 2.6-11.4zm-4 182c-1.8-7.3-6.6-14.2-5-22l1.3-7.6c1.7 9.8 4 19.6 3.6 29.6zm-3.2-130.6c.2-9.7 1.4-19.4 2.2-29h1.7c.8 19 .2 38 2 56.8-2.3-9-6.8-18-6-27.8zm9.8-21.8c-1.2 12.4-1.5 25-2 37.4-2.3-17-1.6-34.5-3.7-51.6 2.6 4.3 6.4 8.7 5.7 14.2zm10.6 127.7c-2.6-6-2-12.7-3.3-19-1.3-12-4-23.8-6-35.6 0-17.3 1-34.7 3.8-51.7 0-2-.6-4-1.8-5.6l-.8 6.5c-1.2-7 .2-14 0-21 1 3 3.4 6.2 2.4 9.5-2.7 2.8.6 5.4 2.6 3.4 1.4 4.8 2.3 10 2.6 15 1.4 14 3 28 4.8 42 1.8 28.6 4 57.2 6.6 85.7-3.8-9.7-7-19.7-10.8-29.4zm17.4-10.3c-3.6-18.2-9-36.4-8.6-55 3.5 18 8 36.3 9.2 55h-.6zm22.7-25c-3.4-9.3-8.2-18.6-7.4-28.7.5-6.6.5-13.2.8-19.8l1-.6c2.2 18.4 6 36.7 10.7 54.7.8 2.6.8 5.2.8 7.8-3-4-4-9-6-13.6zm21.5-49c0-8.6.4-17.2.3-26l-2 1c.7-7.7-1.8-16 1.5-23 .7 6 .3 12 .3 18l1.5-.2c1.2 12 4.2 23.5 6.4 35 .4 9.2-2.7 17.8-5.6 26.3-.8-10.2-1.8-20.6-2.3-31zm15 75.3c-6-10.8-8-23-10.5-35 .3-4.6 1.7-9 3-13.6 1.3 11.5 3.8 23 6.7 34.2 1.3 4.6 1 9.5.8 14.3zm.3-75.5c.4 6.3.3 12.7.4 19-2.5-6-5-13.3-.4-19zm22.8-12c2.3 10.5-3.3 20.2-3 30.6-4.8-10 .4-20.6 3-30.5zm-16.8 52.8c-1.2-3.5-2.2-7-2-10.8 0-13-1-26-1.5-39 .8-4.6 2.6-9 4.4-13-.7 16.7-.8 33.6.7 50.3.6 4.3-.6 8.5-1.6 12.6zM715 221c-1-11-1.5-22-.6-33 1 7.6 1.4 15.3 2.5 23 .6 3.4-.3 6.8-2 10zm12.4 97c-2-7.5-3.6-15-4.8-22.5-1-17.7-3-35.2-5-52.8-1-4.7-.3-9.6 1-14 4 29 6.2 58.3 8.6 87.5l1.4 1.5c-.4 0-1 0-1.2.2zm12.4-167.2c4.3 4.8 3.2 11.7 2.4 17.5l-2.2 1.2-1.7-4.5c-4-4.3.2-9.7 1.5-14.2zm.6 23.6c-2-.8-2.5-2.2-1.7-4.4 2 .8 2.6 2.2 1.7 4.4zm-8.5-21.7l-.6-8.5c2.3 1.5 6 2 7 5-.8 3.2-2 6.4-4 9.2-1-2-1.7-3.8-2.5-5.7zm9 166c-1.4-20.7-4.3-41.3-4.2-62 0-18.7-.7-37.4-1.6-56 2 5 4 10 4 15.4.4 24 4 47.7 4.5 71.5-1.4 10.4-1.3 21-2.8 31.2zm11.4-88.6c-4-15.8-9.4-31.5-10.5-48l.3-5c5.2 8.5 9.5 17.5 12.6 27 .4 8.6-1.5 17.4-2.6 26zm-9.3-57.5c.3-6.7 2.7-14.3-1.4-20.5-2.3-3-.3-6.7 1.7-9.2l8 21.8c4.2 9.6 3.3 20.2 4 30.3-4.2-7.5-8.3-15-12.2-22.5zm18.4 21.6c2.5 7.8 7 16 5 24-5.5-6.8-5.6-15.6-5-24zm6 121.7l-3-40.4c-.5-7.8-.4-15.7 1-23.4 4 21 5.2 42.4 2 63.7zm3.6-51.5c-1-10.3-5.2-20.5-3.4-31 4.8 9.6 6.3 20.6 3.4 31zm8-118.5c2 .8 2 5.2 1 7-1.5-2.2-1.8-4.6-1-7zm-1.3 75c-2.7-8-.6-16.8-.6-25 5.3 7 2 17 .7 25zm6.5 15.6c.4 7.8-2 15.5-1.4 23.3-2-8.6-1.3-17.6-.6-26.3.6-7.3-.2-14.8 2-21.8 0 8.3-.4 16.5 0 24.8zm0-60.6c-1 7.2-1.3 14.5-3 21.5-2.7-12-3.6-24-2-36.2 2.8 4.3 6 9.3 5 14.7zm-4.4-19.5l2.6-3c1 4 1.8 7.8 2.3 12-1.8-3-3.5-6-5-9zm23.5 142.5c-3.8-20.8-6-41.8-10.5-62.4.2-11 2-22 3.6-32.8 3.2 6.4 5 13.4 7 20.2 1 25 1 50 0 75zm-3.7-112c.7-7.8 2.8-15.3 4-23-1-1.2-2-2.3-2.8-3.5-1 7-2.4 13.7-4.3 20.3-2-3 .2-6.4.6-9.4 2.3-7 3.4-14.6 5.6-21.8.4-1.5.5-3 .3-4.7.2 2.8.8 5.6 2.4 8-.6-3.2 0-5.8 1.5-7.7 1.2 5.6 2.4 11.4 4.2 17-3.8 11.7-6 24-7 36-2.5-3-3.6-7.2-4.6-11.2zm14.6-14.2c-1.3 13.3-2 26.7-1 40 .5 7 1.6 14-.4 20.6-1.8-13-8-25.4-5.8-38.7.5-10 2.2-20 4.7-29.8 1.6 2.4 3 5 2.5 8zm46 1.3l2 1.4c2.4 9.2 5.4 18.2 8.4 27.2 1 3 .3 6 0 9-3.3-6.6-6.7-13.2-8.5-20.4-5-4.5-2.7-11.5-1.8-17.2zm-19.5-9.6c1.8-2.4 3-8 7-6.3 0 7.7 2 15.8-1.4 23.2h3.8c-1 6.3-.4 12.8-.7 19.2-4-5.5-2.3-12.2-.7-18.2l-3.3 1.6c.7 1.7 0 5.8-1.7 2.8-1.7-4.2-3.6-8.3-5-12.6.4-3.3 1.6-6.5 2-9.8zm-21.2 20.5c1.2 2.7 2.6 5.4 3.4 8.3-1 3.7-2.7 7-4 10.6.2-6.3 0-12.6.5-19zm6.5 72c-2-13.5-2.5-27-2.4-40.6 0-2.8-1-5.6-2.5-8-.5 6.8-1.2 13.5-1 20.2-1-8-1.6-16.6 1.6-24.4l-.4 4c5 1.5 2.8-5.8 4-8.7 1.6 5.6 3.8 11.2 4 17-2.4 13.4-2.4 27-3.2 40.6zm4.8 32.3c-1.5-15.4-1.3-31-1.6-46.4.2-7.3-.2-14.8 2-21.8-.2 22.7 1 45.5-.4 68.2zm-4.2-99.2c2.3-6.3 5.5-12.3 7.3-18.8.8 2.2 2.4 4.6 1.6 7-2.8 8-2 16.4-3.7 24.5-2.6-4-3.7-8.4-5.4-12.7zm11.6 37c-1.2-5.6-3-11.2-3.8-17-.2-9.4.8-19 2.3-28.3 3 6.8 7 14.4 5 22-1.5 7.8-2 15.6-3.5 23.3zm5 33c-2.8-18.3-.8-37 2-55 1.4 6.4 5.8 12.4 4.2 19-6.4 33-2.7 66.4 1.4 99.3-7.3-20.3-5-42.2-7.6-63.3zM853 180c2 1.5 3.2 4.2 3 6.7-.6 5.2-1.8 10.3-3 15.4-.4-7.2-.3-14.6 0-22zm3.4 42.4c-1.5-2.3-2-5-1.4-7.7l3-23.5c1.6 3.5 4 7 3 11l-4.6 20.2zm10.8 74.6c-1.5-22.5-3.4-45-9-67-.7-9 2.6-17.6 3.4-26.5l1.7 1c3 6.7 6.8 13.5 6.3 21-.2 32.3 2.6 64.5 5 96.7-3.2-8-5.4-16.7-7.4-25.2zm9.4-93c-4.3-7.7-1-16.6 0-24.8.6 8.2 1.7 16.7 0 24.8zm19.7 102.4c-.2 5.2-.4 10.3-1.4 15.4-.4-26.8-2-53.8-7.5-80-1.4-8.2-4.6-16-6-24 .5-9 1.5-18 2.5-26.7l-2-1.8 4.6 2c-4-8.2-.6-17.3.8-25.8 3.3 6.2 6.7 12.7 8 19.7-.8 8.5-.8 17 1.2 25.2 1.6-7.2-2.2-14.3-.8-21.5 3.5 7 3.4 15.2 2 22.8-1.3-1-2.6-1.8-3-3.3-2.6-5.5-5-11-7-16.7-.8 1-1.5 2.2-2.2 3.3 4.2 10.2 8 20.5 12.2 30.7 3.4 27-.5 54-1.5 81zm29-26.8c-.8-27.5-1.5-55-.7-82.5 2 5.2 2 10.7 2.7 16 1.6 22.2.2 44.5-2 66.6zm10.4 19c-3.8-30-3.3-60.6-4.6-90.8l1-.6 1-1c-1.6-4-3.3-8-2.8-12.3 6.2 13.2 10 28 10.8 42.6-4.6-8.3-3.7-18.4-7.4-27l-.8-.2c-1 3.3.6 6.6 1 9.8 3.3 18 6 36 7.3 54.4-1.8 8.3-3.3 16.8-5.3 25zm31.5-133c-1.7-5.6-3-11.2-4.2-16.8 5 3 6.5 11.3 4.2 16.7zm-10-21.7c7 6.4 6.7 17 8.5 25.6-1 7-3.7 13.5-5.2 20.4l-6.5-11c0-11.8.7-23.5 3.3-35zm-3 46.7c3.8 5 5.6 11.6 7.6 17.6 2 6.4-2 12-5 17.5-4-11.3-2.6-23.4-2.7-35zm2.3 83c-2.6-10.6-2.8-22.3-1-33 4.2 10.6 3.3 22 1 33zm2.2-41.8c1-4 2.7-7.6 4.5-11.2.8 7.5 1 15-1.8 22.2-1.3-3.6-2.5-7.3-2.7-11zm2.7 76.3c-3.4-12.4-2-25.3 0-37.8 1.4 12.5 4.8 25.6 0 37.8zm7-30c-1.7-7.2-2.8-14.6-4.4-21.8-1.2-4.7-.8-9.6.6-14 1.4 8.2 2 16.6 3.3 25 0 3.5 1.5 7.2.3 10.8zm-.4-74.5c0-5.3-.2-10.6 0-16 3 4.7 4.4 12 0 16zm29.8-45.3c.2 6.3 0 12.5-.8 18.7-3.5-5.8-1.2-12.8.8-18.7zM977 168l2 .7c0-3 .2-5.7 0-8.5l-.8 7.3h-2c-.5-7.8-.4-15.8 2.8-23 3 11.7 2.2 24.2 4.7 36-2 2.8-4 5.4-6.3 8-1-7 .5-13.7-.4-20.4zm8 48.6c-1-3.8-2.3-7.5-2.8-11.3.3-4.3 2-9-1-12.8-1 2.6-1.3 5.2-.8 8-.8-2.7-1.8-5.3-2.8-8 2-3.2 3.8-6.6 6.6-9.2-.6 3-1.5 6-2.4 8.8 1.2.2 2.4 0 3.5-.3 1.4 8.2.6 16.6-.2 25zm2.2-41c-1-4.5-1.5-9.2-2-13.8 2 4.3 5.4 9.4 2 14zm3-13.8c-2.3-5.2-5.2-10.2-6.7-15.7-.6-7-2.2-14.5-.3-21.6 1-4.8 2-9.7 3.4-14.4l2.6 3.5c1.5 7.2 2.7 14.6 4 22 1.8 6.4-1.3 13-1.8 19.3l-2-.5c.8 2.5 1 5 .8 7.5zm2.3 43.6c-2.7-9-1.8-18.7-1-28 1 2 1.7 4 1.5 6 0 7.4 1 14.8-.5 22zm4.7 83l-1.2.5c-.7-9.4-3.3-18.7-1.5-28 2.5 9 4.6 18.2 2.7 27.5zm6.5-42.5c-2.5-13.2-5.6-26.5-4-40h.5c1 13.3 3.8 26.6 3.5 40zm23-75.8l-1.5-.3c0 3.8 0 7.8-.3 11.7-3-4.2-3.2-9-2.7-14-1.6-5.4-.6-11.2 0-16.7 2 3.2 4 6.5 3 10.4l2.2-1c-.4 3.3-.6 6.5-.8 9.8zM1062 151c2.3 1 1.3 5 1 7.2-2-1-2.4-5.3-1-7.2zm-10.7-12.7c.5.4 1.4 1 1.8 1.5.5 5.2.4 10.4.6 15.6-5.5-4.3-2.8-11.3-2.3-17zm1.7 57.4c-4.5 0 0-5-1.8-7.5-2-10.7-1.2-21.8-1.8-32.6 4.3 3 5.3 9 4.5 14-1 5.8-.4 12-1.8 17.7 1.2 1 1.6 3.7 3.4 3.6 1.3-2.3.3-5 .4-7.4l.8 4.2 2.4-3.2c-1.7 2.3-2.4 5-2.6 7.6-1.7 0-3.3 0-5 .2l1.4 3.3zm7.5 48.2c-1.2-3.5-3.2-7-2-10.7 2.6-11.7 5.5-23.6 4.7-35.8 3.3 15.5-.7 31-2.7 46.4zm18-19.7c-3-8.7-2-18 0-27 .7 9 .8 18 0 27zm8.6-58.6c1 6 1.7 12 2.6 18l-5-1c.8-5.7-.2-12 2.5-17zm3.4 56.4c1.4 2.2 1.6 4.4.6 6.6 0-2.7-1-5.2-2.4-7.4-.3 1-1 3.5-1.2 4.7-1.3-14-2.7-28.2-3-42.3l5.2.6c2.3 12.3 2.8 25.3-.6 37.4 1.5-.8 7.6-3.8 1.4.4zm6-46.7c-1.3-2-1.4-5 0-7 2 .8 2 6.2 0 7zm5.2 36.7c-1.8-5.8-1.5-12-1.4-18 3 5.3 1.5 12 1.4 18zm7.4-48.3c2.7 3.6 2 8 1.3 12-1 3.5-1.4 7-2.4 10.3-1-7.4.4-15 1-22.3zm-2.7 31.7c-1-2-.8-4.8.2-7 2.2.4 2 6.8-.2 7zm1-8.4l2.2.4c0-3.4.4-6.8 1-10.2 2.8 9.4 1 19.2-1.4 28.4-2.5-6 2.2-13.3-1.7-18.6zm5.6 31c-3-3.2-1-7.7-.4-11.4.3 3.8.4 7.6.3 11.4zm15.7 23c-.6-12.6-3.3-25.4-.5-38-3.3-4.4-1.4-10-1.2-15 1.3 3.3.8 7 1 10.7 1 4 2 8.4 2.3 12.7.7 10 3.5 20.5-1.6 29.7zm3-61.3c1.4-3.7 2-7.5 2-11.4h1.6c0 8.7.4 18-2.4 26.3-1.2-5-2.6-10-1.2-15zm4 27.4c-1.4-4.3-.7-9-.3-13.5l1.2-1c1.7 4-.4 10-1 14.6zm5.4 18.6c-3-5.5-1.6-11.7 1-17 0 5.6.7 11.5-1 17zm12-59c-.5-6-2.4-12-.8-18 3.5 5 6.6 14 1 18zm7 9.2c-1 4-.8 9-3.7 12.4.2-4.8-.8-9.4-1.7-14 .7-3.7 2-7.4 2.7-11 1.6 4 4.2 8.2 2.8 12.6zm21.5 31c-1.5-7.7-4.2-15.5-1.6-23.2 2.7 7.4 2.8 15.4 1.5 23.2zm2.7-18.4l-1.5-8-2.6 3c-.2-6.6 1.2-13.3 2.7-19.8l-3-3c0 4-1 8-2.5 12l-1-13.2 1.7.6c0-1.6.4-4.8.6-6.3l-2.7 1.4c-1-6-1.5-12-1.2-18.2 2 4.7 4.7 9.4 4.2 14.6 4.3 1 2 7 1.6 9.6l3.5-.6 3 9c-.6 6.4-1.4 12.8-2.8 19zm14 13.6c2.6 8 7 16.4 5.3 25-2-3.2-3.8-6.6-5-10.3-.4-5-.2-9.8-.2-14.7zm4.6 96.5c0-9.8-4-20.4 1-29.6 1.5 9.7 0 19.7-1 29.5zm2.7-139.7c-.4 10.4.5 20.8-1 31-1.4-2.7-.7-7.8-3.7-8.7h1c-2.4-6.8.2-14 .8-20.8 1.3-7.7.8-15.7 3-23.2l.6 6.7-1.4 2.6c1.7 4 .5 8.4.7 12.5zm7-2.8c-2-10.5-5-21.3-3.7-32.2 2 2 1.5 5 2 7.7 1 8 2.5 16.3 1.6 24.5zm6.6 46c0-2 0-3.8-.2-5.7l-1.3-3c-1-8-2.7-16-1.5-24 2.3 3.4 4.4 7 5.3 11 .2 4.5-1.8 8.5-2.4 12.7 1.7 2.7.4 6 0 9zm-3.2-41.8l-.6-8.6c3.3 2.2 2.2 6.7 2.8 10 3 3 3 7.4 3.6 11.2-3.6-3.4-3.8-8.4-5.8-12.6zm6-.8c-2-.4-2.4-1.5-1-3.4 2 .3 2.3 1.5 1 3.4zm18.2 148.4c-2.2-15.5-4.5-31-7-46.4 0-7-3.8-13.4-3.2-20.4 1-10 2-20 3.7-29.8 3.5 10 8.3 20.3 7 31.4 1 21.7.7 43.5-.5 65.2zm-3.4-113.4c1.2-8.8 3.5-17.5 4.3-26.4l-4 2c.3 6.2-2 12-3 18-.4 0-1.2-.4-1.6-.5 2-11.8 6.4-23 8-35l-1 7.2 3.5-1-.2-6.5c3.2 5.2 2.7 12 5.3 17.6-3.4 12-6 24.6-6.8 37.2-2.2-4-4-8-4.6-12.6zm14.6-12.6c-1.5 14-1.8 28-.7 42 .3 5.8 1.2 11.7-.8 17.3-1.6-9-4-17.6-6-26.5-.3-14 1.3-28 5-41.6 1.6 2.6 3.2 5.5 2.5 8.8zm9.5 40.2l-1-3c-.6 0-1.6.5-2.2.8-.3 5.5-.4 11-.2 16.6-.7-6.2-2-12.5-.4-18.6 1-3.7-.5-7.3-1-11 0-4.6 0-9.2.3-13.8 1.4 3 2.7 6 3.8 9-1 2.4-2 4.8-2.8 7.2 2.4 2 0 5.4 2.2 7l1.2.3c1.7-2.2.6-5.7 1.3-8.4 2 5 3.6 10.4 4.3 15.8-2.3 14-3 28-3 42-2.6-14.4-3-29.2-2.6-43.8zm7.2 75c-1.7-12.3-1.3-25-1.7-37.3.3-10-1-20.3 2-30-.2 22.5 1 45-.4 67.4zm-3-102.6c2.3-5 4.4-10 6-15.4.6 2.3 2 4.5 1.8 7-3 8.2-2.5 17.3-4 26-1.6-5.7-6.7-11.7-3.8-17.6zm13.5 18.7c-1.4 7.3-2 14.7-3 22-1.7-5.2-3-10.5-4-15.7-.5-10 1-20 2-29.7 3 7.3 7.6 15.4 5 23.5zm3.4-16.5c-3-4.5-5-9.5-6.5-14.5.7-3.3 1.8-6.5 2.3-9.8 2-2.5 3-7 6.8-7 0 5.6 1 11 .8 16.5-1 5-2.4 9.8-3.5 14.8zm4 11c-4.2-4.7-1.7-11-.4-16.5 1.8 5.3.6 11 .4 16.5zm4.2-19.6c5.6 6.8.6 15.7-.4 23.4 0-7.8-.3-15.7.4-23.5zm7.6 23.3c-1.2 6-3 12.2-4 18.4h-1.8c-.4-10 2-19.6 3-29.4 2.3 3 3.8 7 2.8 11zm37 7.4l-2.5-.3c-3.3-8.6-7.5-16.8-11-25.2 1.2-6.4 1.6-12.8 2.7-19.2 4 5.3 6.2 11.8 8 18 .7 8.3-1.8 17.2 2 25 0-6.8-2-13.3-1.3-20 3.2 6.8 3.6 14.4 2 21.7zm21.7-38c-1-1-3-2.5-3.8-3.2-1.4-4.3-7.2-8.4-4-12.8 2.5 5.3 5.3 10.5 7.8 16zM1343 156c3 2.2 2 6.5 5.2 8.5-1.7 5.5-4.7 1-6.2-1.5.2-2.3.5-4.6 1-7zm13.3 54.3l-3.2-.7c.5 17.6.2 35.3.3 53-2.2-9.3-3.3-18.8-5.3-28-.8-5-2.7-9.8-2.4-14.8l-3.5-2.2c3 13.3 4.8 26.7 7 40-2-5.2-4.4-10.5-5.8-16-1-7.7 0-15.6-2.2-23-1.2-2.6 2-1.6 3.3-2-6.8-16.5-3.6-34.7-2.4-52 3.7 3.3 7 7.4 8 12.5 1.4 10.7 2.7 21.5 2.8 32.4l3 .2c-.8-10-2-19.7-4.3-29.3l1.3-.7c2 1.5 2.4 4.4 3.6 6.5 4.3 7.5-.7 16 0 24zm1.5-24.3c-1.5-1.2-3-3.6-2-5.5 2.2-.5 4.3 4.7 2 5.5zm6.5 78.2c-.3 7.7-2 15.5-1.3 23.3-2-9.2-1-18.7-1.5-28 0-17.8-.7-35.6 0-53.3 1 1.5 1.6 3 1.7 5 2.4 17.5 2 35.3 1 53zm-.4-65.5c-2-1-3.2-4-1.8-5.8 2.8-1 4 4.8 1.7 5.7zm13.3 87c-2 7-3 14.5-4.7 21.8-3.7-29.3-3-58.8-4.7-88.2h1.4c3 17 6 34 7.7 51 .5 5 2 10.3.3 15.3zm-6.4-68c-1.5-5.4-4.6-10.5-3.8-16.2 8.6 20 12.6 42.2 13 64-2.6-16-5.3-32-9.3-47.8zm36.8-42.4c1.4 12 5.6 26-2.8 36.3v-37l2.8.6zm-16.6-3c.4-6.6 2.3-13 2.4-19.8l2 .5-1-7.5c5.4 7 8.8 15.3 11.3 23.7 1.3 2.3-1 4-2 6-1.2-7.7-3.2-15.4-7.4-22 4 10 7.4 20.7 6 31.6-1 6.4-1.5 12.7-2.3 19-3-5.3-5.7-11-9.2-16 .2-5 0-10.2.2-15.3zm7 79.2c-1-3.6-2-7.3-2.8-11 1.4-3.7 2.7-7.5 4.8-11 1 7.5.7 15-2 22zm-7-54c3.5 7.3 6.8 15 9 23-1.5 4.6-3.8 9-6.4 13-4.2-11.6-2.6-24-2.7-36zm2.2 85c-2.4-11-2.6-22.8-1-34.2 1.6 5.2 2.8 10.5 3.3 16-.2 6-1.5 12.2-2.3 18.3zm5 34.5c-3.5-12.7-1.7-26-.3-38.8 2 12.8 5 26.2.4 38.8zm7-30.8c-2-7.3-2.8-14.8-4.6-22-1.2-4.8-.2-9.7.8-14.4 1.3 9 2 18 3.4 26.7.2 3.2 1.4 6.6.5 9.8zm1.4-66.5c-2 .2-2-3.7-.8-4.7 2.4-.4 2 3.6.8 4.7zm6 30.6c-1.7-9.2-3.6-18.6-3.3-28l1.5-4.7c-.6-1-1.3-2-2-2.8.6-3 1.2-6.2 2.4-9 0 6.5 3 12.7 3.2 19.2-.4 8.5-1.5 16.8-2 25.2zm3.6-44.7l-2.2.3-.3-4.2c1.6-2.6 3.6-5.2 4.4-8.4.6 1 1.3 1.8 2 2.7-3.2 5.8-3 12.3-4.5 18.6-.6-3-.7-6.2.4-9zm2 83c-1-3.5-2-7-1.7-10.8.5-8.4-1-17.4 3.7-25 3.3 11.8-1 24-2 35.8zm4.5-59c.2 2.8-.2 5.6-.7 8.3-5.3-9.4-4-20.6-2.3-30.8 1-3.5.5-8 3.6-10.3-.3 11-1.6 22-.7 33zm9.6-57l2.4-3.4c0 8.2-1 16.5-2 24.6-.3-7-1-14-.4-21.2zm-4.6 48c-.3-14.5-1.4-29.5 1.8-43.8.5 9.4 0 18.7.5 28-.4 5.3.6 11-2.3 16zm5.8 76c-4.3-13.7-3-28-1-42 1.6 7.7 2.7 15.5 4.2 23.3-1.5 6-2.2 12.4-3.2 18.7zm7-42c-2.3-13.8-6.4-27.8-3.5-41.8.7 14 3.8 27.8 3.4 41.8zm1.5-29.5c-.6-7.5-4.6-16.4 1.4-22.6.2 7.5-1 15-1.4 22.5zm-2.4-21.3c-.3-5.3-1.6-11 1.3-16 1.6-2.7 2.3-6.5 5.5-8-1.7 8 .2 18.2-7 24zm18.3 5.3c0-8.2-.5-16.4-.5-24.5-.2-3.2 2.3-6.3 0-9.3l3.2.7c0-2.5.2-5 0-7.4-.4 2-.8 4.2-.8 6.4l-2.6.3c.5-7.7 2-15.2 1.6-23-.2-4 2.3-7.4 5-10 1.7 22.3-1.3 44.6-4 66.8h-2zm5.7 80c-1.6-11 2.4-22 4.7-33-.6 11.2-2.5 22.2-4.7 33zm12-77.8c-2.5 12.3-4.2 24.7-6 37 .2-11.3.7-22.8-1.8-34-1.2-4 0-8.3.3-12.5.8-8 .6-16 .8-24 .4 0 1-.4 1.4-.6 3.2 3.3 3 8.6 5.4 12.4 2 7 .6 14.5 0 21.7zm9 89.8c-2.3-8.2-5-16.4-6.5-24.8 0-10.5 2.7-20.8 4.4-31 1 7.7 1 15.6 2 23.4 1.4 10.8 1.8 21.8 0 32.5zm2.7-78.8c2.4-8.8 4.3-17.7 6-26.7-.6 11-2.4 21.8-3.5 32.7-1-2-1.7-4-2.5-6zm4.4 55.8c-2.8-8.8-.3-17.8 1.5-26.5 1 3.6 2 7 2.7 10.7-.7 5.4-2 10.7-4 15.8zm5.3-26.4c-4.2-7-.4-14.8.8-22 1.6-6.2 1.4-12.6 3-18.7 1.4 13.7-1.5 27.3-3.7 40.8zm7.3-17c-.4-3.6-.4-7.3.2-11 2.8-17.6 6-35.3 9.3-53l1-1c3.8 0 1 5.4 1.4 7.8-3 9-1.3 19.5-6 28-1 10-4 19.5-5.8 29.3zm23.2 1.8c-.2-2.8-.6-5.6-2.2-8-2 13.8-7 26.8-10.4 40.3.5-8 2.4-15.6 3.5-23.6 3-16.5 4-33.3 2.7-50-1.6 1.8-1 4.4-1.2 6.7 0 18.3-3.7 36.3-7 54.2-1-12.3.4-24.7.6-37-.3-8 3-15.6 4.2-23.5 3.5-6.4 2.7-14 4.8-21l1.6-.2c1.2 17 6.5 34 3 51 .5 3.7 2 7.7.4 11.3zm3.4 44.4c.2-16 0-32 .7-48 0-2.2 1-4 1.7-6 .6 8.7 2.6 17.4 2.3 26.3.2 9.5-2.6 18.6-4.8 27.7zm6.3-52.5c-1-5-2-10.4 0-15.3l-2 .7c-.4-11.8-3-23.7-1.4-35.5 2.7 16.5 7.3 33.4 3.5 50.2zm4.7-18.7c1-13 2.7-25.8 4.3-38.7l2.4.2c0 8 2 16.3.3 24.4-1.6 9.7-2.6 19.8-5.6 29.3-.3-5-1.4-10-1.5-15.3zm6 76c0-10.3-.4-20.7-1.4-31-1-6.5 1.7-12.6 3.7-18.6-1 16.5-1 33-2.2 49.6zm2.7-64.4c-1.3 5.4-3.4 10.6-4.5 16h-.5c1.2-10.3 3-20.5 5-30.6 0 5 .2 9.8 0 14.6z" fill="#48b9b2"/></svg>