<svg viewBox="0 0 307.18002 258.02548" xmlns="http://www.w3.org/2000/svg" xmlns:xlink="http://www.w3.org/1999/xlink">
<defs>
<linearGradient id="linearGradient5311">
<stop offset="0"/>
<stop offset=".377" stop-color="#928f90"/>
<stop offset="1" stop-color="#34342e"/>
</linearGradient>
<linearGradient id="linearGradient5262">
<stop offset="0"/>
<stop offset=".366" stop-color="#928f90"/>
<stop offset="1" stop-color="#34342e"/>
</linearGradient>
<linearGradient id="linearGradient3774-41">
<stop offset="0"/>
<stop offset=".619" stop-color="#928f90"/>
<stop offset="1" stop-color="#34342e"/>
</linearGradient>
<linearGradient gradientUnits="userSpaceOnUse" id="linearGradient6311" x1="585.8389" x2="594.4308" xlink:href="#linearGradient5311"/>
<linearGradient gradientUnits="userSpaceOnUse" id="linearGradient6313" x1="696.1114" x2="704.7033" xlink:href="#linearGradient3774-41"/>
<linearGradient gradientTransform="matrix(-.38235,-.66225,.64372,-.37165,531.29274,287.29961)" gradientUnits="userSpaceOnUse" id="linearGradient6315" x1="306.6895" x2="317.9251" xlink:href="#linearGradient3774-41"/>
<linearGradient gradientTransform="matrix(-.38235,-.66225,.64372,-.37165,585.74418,380.00529)" gradientUnits="userSpaceOnUse" id="linearGradient6317" x1="306.6895" x2="317.9251" xlink:href="#linearGradient3774-41"/>
<linearGradient gradientTransform="matrix(.38235,-.66225,.64372,.37165,292.65224,141.02286)" gradientUnits="userSpaceOnUse" id="linearGradient6319" x1="306.6895" x2="317.9251" xlink:href="#linearGradient3774-41"/>
<linearGradient gradientTransform="matrix(.38235,-.66225,.64372,.37165,346.51994,47.65306)" gradientUnits="userSpaceOnUse" id="linearGradient6321" x1="306.6895" x2="317.9251" xlink:href="#linearGradient3774-41"/>
<linearGradient gradientUnits="userSpaceOnUse" id="linearGradient6323" x1="651.2392" x2="642.6473" xlink:href="#linearGradient3774-41"/>
<linearGradient gradientTransform="matrix(.65823,.477,-.58167,.75249,485.74865,-422.19877)" gradientUnits="userSpaceOnUse" id="linearGradient6325" x1="306.6895" x2="317.9251" xlink:href="#linearGradient5262"/>
<linearGradient gradientTransform="matrix(.6902,-.42944,-.5272,-.7916,457.62941,417.28824)" gradientUnits="userSpaceOnUse" id="linearGradient6327" x1="306.6895" x2="317.9251" xlink:href="#linearGradient3774-41"/>
<linearGradient gradientTransform="matrix(.22716,.76138,.92872,-.27973,189.54217,-99.85434)" gradientUnits="userSpaceOnUse" id="linearGradient6329" x1="306.6895" x2="317.9251" xlink:href="#linearGradient3774-41"/>
<linearGradient gradientTransform="matrix(.4154,-.70419,-.8785,-.45121,713.55831,323.92037)" gradientUnits="userSpaceOnUse" id="linearGradient6331" x1="306.6895" x2="317.9251" xlink:href="#linearGradient3774-41"/>
<linearGradient gradientTransform="matrix(.64367,.41288,-.40132,.62565,437.38848,-248.74488)" gradientUnits="userSpaceOnUse" id="linearGradient6333" x1="306.6895" x2="317.9251" xlink:href="#linearGradient3774-41"/>
<linearGradient gradientTransform="matrix(.48686,-.58969,-.45602,-.37713,715.24784,360.37483)" gradientUnits="userSpaceOnUse" id="linearGradient6337" x1="306.6895" x2="317.9251" xlink:href="#linearGradient3774-41"/>
<linearGradient gradientTransform="matrix(.65823,.477,-.58167,.75249,491.20953,-417.33289)" gradientUnits="userSpaceOnUse" id="linearGradient6339" x1="306.6895" x2="317.9251" xlink:href="#linearGradient5262"/>
<linearGradient gradientUnits="userSpaceOnUse" id="linearGradient6341" x1="593.0069" x2="601.5988" xlink:href="#linearGradient5311"/>
<linearGradient gradientTransform="matrix(.58132,.56821,-.68554,.65924,764.95479,-440.19307)" gradientUnits="userSpaceOnUse" id="linearGradient6343" x1="306.6895" x2="317.9251" xlink:href="#linearGradient5262"/>
<linearGradient gradientTransform="matrix(.58132,.56821,-.68554,.65924,769.64463,-434.58028)" gradientUnits="userSpaceOnUse" id="linearGradient6345" x1="306.6895" x2="317.9251" xlink:href="#linearGradient5262"/>
<linearGradient gradientUnits="userSpaceOnUse" id="linearGradient6347" x1="639.8188" x2="648.4107" xlink:href="#linearGradient5311"/>
<linearGradient gradientUnits="userSpaceOnUse" id="linearGradient6349" x1="646.9868" x2="655.5787" xlink:href="#linearGradient5311"/>
<radialGradient cx="211.0842" cy="248.985" gradientUnits="userSpaceOnUse" id="radialGradient6285" r="10.8579">
<stop offset="0" stop-color="#8b8bad"/>
<stop offset="1" stop-color="#3e3d52"/>
</radialGradient>
<radialGradient cx="211.0842" cy="248.985" gradientUnits="userSpaceOnUse" id="radialGradient6291" r="10.8579">
<stop offset="0" stop-color="#84ff84"/>
<stop offset="1" stop-color="#206640"/>
</radialGradient>
<radialGradient cx="211.0842" cy="248.985" gradientUnits="userSpaceOnUse" id="radialGradient6299" r="10.8579">
<stop offset="0" stop-color="#ff6619"/>
<stop offset="1" stop-color="#6f3d19"/>
</radialGradient>
</defs>
<g transform="matrix(.98532,-.17074,-.17074,-.98532,-457.25681,244.4205)">
<path d="m218.9932,252.0352c0,5.9138-4.7941,10.7079-10.7079,10.7079s-10.7079-4.7941-10.7079-10.7079 4.7941-10.7079 10.7079-10.7079 10.7079,4.7941 10.7079,10.7079z" fill="url(#radialGradient6285)" transform="translate(437.9608,-183.9776)"/>
<path d="m218.9932,252.0352c0,5.9138-4.7941,10.7079-10.7079,10.7079s-10.7079-4.7941-10.7079-10.7079 4.7941-10.7079 10.7079-10.7079 10.7079,4.7941 10.7079,10.7079z" fill="url(#radialGradient6285)" transform="translate(531.0278,-181.28)"/>
<path d="m218.9932,252.0352c0,5.9138-4.7941,10.7079-10.7079,10.7079s-10.7079-4.7941-10.7079-10.7079 4.7941-10.7079 10.7079-10.7079 10.7079,4.7941 10.7079,10.7079z" fill="url(#radialGradient6285)" transform="translate(491.9127,-275.6958)"/>
<path d="m218.9932,252.0352c0,5.9138-4.7941,10.7079-10.7079,10.7079s-10.7079-4.7941-10.7079-10.7079 4.7941-10.7079 10.7079-10.7079 10.7079,4.7941 10.7079,10.7079z" fill="url(#radialGradient6291)" transform="translate(491.2383,-214.3256)"/>
<path d="m218.9932,252.0352c0,5.9138-4.7941,10.7079-10.7079,10.7079s-10.7079-4.7941-10.7079-10.7079 4.7941-10.7079 10.7079-10.7079 10.7079,4.7941 10.7079,10.7079z" fill="url(#radialGradient6291)" transform="translate(314.5459,-195.4424)"/>
<path d="m218.9932,252.0352c0,5.9138-4.7941,10.7079-10.7079,10.7079s-10.7079-4.7941-10.7079-10.7079 4.7941-10.7079 10.7079-10.7079 10.7079,4.7941 10.7079,10.7079z" fill="url(#radialGradient6291)" transform="translate(318.5923,-309.3926)"/>
<path d="m218.9932,252.0352c0,5.9138-4.7941,10.7079-10.7079,10.7079s-10.7079-4.7941-10.7079-10.7079 4.7941-10.7079 10.7079-10.7079 10.7079,4.7941 10.7079,10.7079z" fill="url(#radialGradient6285)" transform="matrix(.14701,-.98914,.98914,.14701,203.57754,167.45604)"/>
<path d="m218.9932,252.0352c0,5.9138-4.7941,10.7079-10.7079,10.7079s-10.7079-4.7941-10.7079-10.7079 4.7941-10.7079 10.7079-10.7079 10.7079,4.7941 10.7079,10.7079z" fill="url(#radialGradient6299)" transform="matrix(-1,0,0,1,960.41069,-326.10189)"/>
<path d="m218.9932,252.0352c0,5.9138-4.7941,10.7079-10.7079,10.7079s-10.7079-4.7941-10.7079-10.7079 4.7941-10.7079 10.7079-10.7079 10.7079,4.7941 10.7079,10.7079z" fill="url(#radialGradient6285)" transform="translate(285.0603,-145.8245)"/>
<path d="m218.9932,252.0352c0,5.9138-4.7941,10.7079-10.7079,10.7079s-10.7079-4.7941-10.7079-10.7079 4.7941-10.7079 10.7079-10.7079 10.7079,4.7941 10.7079,10.7079z" fill="url(#radialGradient6291)" transform="translate(438.1027,-306.949)"/>
<path d="m218.9932,252.0352c0,5.9138-4.7941,10.7079-10.7079,10.7079s-10.7079-4.7941-10.7079-10.7079 4.7941-10.7079 10.7079-10.7079 10.7079,4.7941 10.7079,10.7079z" fill="url(#radialGradient6285)" transform="translate(438.165,-366.9954)"/>
<path d="m218.9932,252.0352c0,5.9138-4.7941,10.7079-10.7079,10.7079s-10.7079-4.7941-10.7079-10.7079 4.7941-10.7079 10.7079-10.7079 10.7079,4.7941 10.7079,10.7079z" fill="url(#radialGradient6285)" transform="translate(383.9222,-213.9797)"/>
<path d="m218.9932,252.0352c0,5.9138-4.7941,10.7079-10.7079,10.7079s-10.7079-4.7941-10.7079-10.7079 4.7941-10.7079 10.7079-10.7079 10.7079,4.7941 10.7079,10.7079z" fill="url(#radialGradient6285)" transform="translate(383.8495,-275.9266)"/>
<path d="m585.9537-15.2459c0,0 .1818-.7174 2.6191-.7174s2.2719.537 2.2719.537v44.8729c0,0 .2809.94-2.0983.94s-2.7927-.7597-2.7927-.7597v-44.8729z" fill="url(#linearGradient6311)"/>
<path d="m696.2262-14.6994c0,0 1.7439-.6905 4.1812-.6905s4.1813.6905 4.1813.6905v43.1925c0,0-1.802.5577-4.1813.5577s-4.1812-.5577-4.1812-.5577v-43.1925z" fill="url(#linearGradient6313)"/>
<path d="m602.3638-24.6745c0,0-1.47-1.1651-2.6886-3.2758s-1.4926-3.9663-1.4926-3.9663l37.4057-21.5962c0,0 1.384,1.2817 2.5736,3.3422s1.6077,3.8999 1.6077,3.8999l-37.4058,21.5962z" fill="url(#linearGradient6315)"/>
<path d="m656.8151,68.0312c0,0-1.47-1.1651-2.6886-3.2758s-1.4926-3.9663-1.4926-3.9663l37.4057-21.5962c0,0 1.384,1.2817 2.5736,3.3422s1.6077,3.8999 1.6077,3.8999l-37.4058,21.5962z" fill="url(#linearGradient6317)"/>
<path d="m598.3653,46.5851c0,0 .274-1.8556 1.4927-3.9663s2.6886-3.2758 2.6886-3.2758l37.4058,21.5962c0,0-.418,1.8394-1.6077,3.8999s-2.5736,3.3422-2.5736,3.3422l-37.4058-21.5962z" fill="url(#linearGradient6319)"/>
<path d="m652.233-46.7847c0,0 .274-1.8556 1.4926-3.9663s2.6887-3.2758 2.6887-3.2758l37.4057,21.5962c0,0-.418,1.8394-1.6076,3.8999s-2.5736,3.3422-2.5736,3.3422l-37.4058-21.5962z" fill="url(#linearGradient6321)"/>
<path d="m651.1245-107.0353c0,0-1.744-.6905-4.1813-.6905s-4.1813.6905-4.1813.6905l1e-005,43.1924c0,0 1.802.5577 4.1813.5577s4.1813-.5577 4.1813-.5577l-1e-005-43.1924z" fill="url(#linearGradient6323)"/>
<path d="m517.4876-55.6127c0,0 .4459-.7159 2.5438.8045s1.5859,2.2026 1.5859,2.2026l-33.7998,43.7259c0,0-.5147.9134-2.5626-.5707s-1.5671-2.4363-1.5671-2.4363l33.7998-43.726h4e-005z" fill="url(#linearGradient6325)"/>
<path d="m515.1191,53.8497c0,0 2.0638-.244 4.2636-1.6127s3.2841-3.0834 3.2841-3.0834l-30.6349-45.9988c0,0-2.022.418-4.1694,1.7541s-3.3784,2.942-3.3784,2.942l30.6349,45.9988z" fill="url(#linearGradient6327)"/>
<path d="m531.0418,51.901c0,0-.3447,1.9962.3793,4.4229s2.1048,3.9032 2.1048,3.9032l53.9664-16.2545c0,0 .1615-2.004-.5452-4.3729s-1.9388-3.9532-1.9388-3.9532l-53.9664,16.2545z" fill="url(#linearGradient6329)"/>
<path d="m583.9172-24.2035c0,0 1.7635-1.1868 3.0874-3.4312s1.4552-4.2695 1.4552-4.2695l-51.0483-26.2192c0,0-1.638,1.3208-2.9304,3.5118s-1.6122,4.1889-1.6122,4.1889l51.0483,26.2192z" fill="url(#linearGradient6331)"/>
<path d="m517.4386,61.0468c0,0 1.8408.3604 3.8923,1.6763s3.1466,2.8388 3.1466,2.8388l-23.3204,36.3558c0,0-1.8179-.5035-3.8205-1.7881s-3.2183-2.7269-3.2183-2.7269l23.3204-36.3558z" fill="url(#linearGradient6333)"/>
<path d="m218.9932,252.0352c0,5.9138-4.7941,10.7079-10.7079,10.7079s-10.7079-4.7941-10.7079-10.7079 4.7941-10.7079 10.7079-10.7079 10.7079,4.7941 10.7079,10.7079z" fill="url(#radialGradient6299)" transform="translate(437.0874,-126.6763)"/>
<path d="m731.1783,69.061c0,0 1.534-.9945 3.0857-2.874s2.2384-3.5747 2.2384-3.5747l-26.4985-21.9147c0,0-1.4894,1.1067-3.0042,2.9414-1.5145,1.835-2.3199,3.5073-2.3199,3.5073l26.4985,21.9147z" fill="url(#linearGradient6337)"/>
<path d="m522.9485-50.7469c0,0 .4459-.7158 2.5438.8045s1.5859,2.2026 1.5859,2.2026l-33.7998,43.7259c0,0-.5147.9134-2.5626-.5707s-1.5671-2.4363-1.5671-2.4363l33.7999-43.726h4e-005z" fill="url(#linearGradient6339)"/>
<path d="m593.1217-15.4547c0,0 .1818-.7201 2.6191-.7201s2.2719.5391 2.2719.5391v45.0409c0,0 .2809.9436-2.0983.9436s-2.7927-.7626-2.7927-.7626v-45.0409z" fill="url(#linearGradient6341)"/>
<path d="m742.6943-72.9096c0,0 .5459-.6429 2.3987,1.1682s1.2464,2.411 1.2464,2.411l-39.836,38.3077c0,0-.6428.8282-2.4515-.9397s-1.1936-2.6394-1.1936-2.6394l39.836-38.3077 4e-005,5e-006z" fill="url(#linearGradient6343)"/>
<path d="m747.3842-67.2968c0,0 .5459-.6429 2.3987,1.1682s1.2464,2.411 1.2464,2.411l-39.836,38.3077c0,0-.6428.8282-2.4515-.9397s-1.1937-2.6394-1.1937-2.6394l39.8361-38.3077 4e-005,6e-006z" fill="url(#linearGradient6345)"/>
<path d="m639.9336,74.4185c0,0 .1818-.7174 2.6191-.7174s2.2719.5371 2.2719.5371v44.8729c0,0 .2809.94-2.0983.94s-2.7927-.7597-2.7927-.7597v-44.8729z" fill="url(#linearGradient6347)"/>
<path d="m647.1016,74.2096c0,0 .1818-.7201 2.6191-.7201s2.2719.5391 2.2719.5391v45.041c0,0 .2809.9436-2.0983.9436s-2.7927-.7625-2.7927-.7625v-45.0409z" fill="url(#linearGradient6349)"/>
</g>
</svg>
