<?xml version="1.0" encoding="UTF-8" standalone="no"?>
<svg
   xmlns:dc="http://purl.org/dc/elements/1.1/"
   xmlns:cc="http://creativecommons.org/ns#"
   xmlns:rdf="http://www.w3.org/1999/02/22-rdf-syntax-ns#"
   xmlns:svg="http://www.w3.org/2000/svg"
   xmlns="http://www.w3.org/2000/svg"
   version="1.1"
   id="svg5065"
   viewBox="0 0 10.2328 129.5128"
   height="36.551392mm"
   width="2.8879235mm">
  <defs
     id="defs5067" />
  <metadata
     id="metadata5070">
    <rdf:RDF>
      <cc:Work
         rdf:about="">
        <dc:format>image/svg+xml</dc:format>
        <dc:type
           rdf:resource="http://purl.org/dc/dcmitype/StillImage" />
        <dc:title></dc:title>
      </cc:Work>
    </rdf:RDF>
  </metadata>
  <g
     transform="translate(-474.8836,-1059.0344)"
     id="layer1">
    <g
       id="g5044"
       transform="translate(373.59,944.89078)">
      <g
         id="g34">
        <path
           style="fill:none;stroke:#000000;stroke-width:0.69279999;stroke-miterlimit:10"
           id="path36"
           d="m 111,119.08 c 0,2.53 -2.05,7.36 -4.59,7.36 -2.54,0 -4.59,-4.83 -4.59,-7.36 0,-2.53 2.05,-4.59 4.59,-4.59 2.54,0 4.59,2.05 4.59,4.59 z"
           stroke-miterlimit="10" />
        <path
           style="fill:none;stroke:#000000;stroke-width:0.69279999;stroke-miterlimit:10"
           id="path38"
           d="m 101.83,167.94 c 0,-2.53 2.05,-7.36 4.59,-7.36 2.54,0 4.59,4.83 4.59,7.36 0,2.53 -2.05,4.59 -4.59,4.59 -2.54,0 -4.59,-2.06 -4.59,-4.59 z"
           stroke-miterlimit="10" />
        <line
           style="fill:none;stroke:#000000;stroke-width:0.69279999;stroke-miterlimit:10"
           id="line40"
           y2="160.7"
           x2="106.41"
           y1="126.79"
           x1="106.41"
           stroke-miterlimit="10" />
      </g>
      <path
         style="fill:none;stroke:#000000;stroke-width:0.69279999;stroke-miterlimit:10"
         id="path42"
         d="m 111.18,238.54 c 0,2.63 -2.13,4.77 -4.77,4.77 l 0,0 c -2.63,0 -4.77,-2.13 -4.77,-4.77 l 0,-46.62 c 0,-2.63 2.13,-4.77 4.77,-4.77 l 0,0 c 2.63,0 4.77,2.13 4.77,4.77 l 0,46.62 z"
         stroke-miterlimit="10" />
    </g>
  </g>
</svg>
