<?xml version="1.0" encoding="UTF-8" standalone="no"?>
<svg
   xmlns:dc="http://purl.org/dc/elements/1.1/"
   xmlns:cc="http://creativecommons.org/ns#"
   xmlns:rdf="http://www.w3.org/1999/02/22-rdf-syntax-ns#"
   xmlns:svg="http://www.w3.org/2000/svg"
   xmlns="http://www.w3.org/2000/svg"
   version="1.1"
   id="svg5065"
   viewBox="0 0 26.372801 130.22279"
   height="36.751766mm"
   width="7.4429903mm">
  <defs
     id="defs5067" />
  <metadata
     id="metadata5070">
    <rdf:RDF>
      <cc:Work
         rdf:about="">
        <dc:format>image/svg+xml</dc:format>
        <dc:type
           rdf:resource="http://purl.org/dc/dcmitype/StillImage" />
        <dc:title></dc:title>
      </cc:Work>
    </rdf:RDF>
  </metadata>
  <g
     transform="translate(-385.26863,-1152.0072)"
     id="layer1">
    <g
       id="g5629"
       transform="translate(244.82503,1038.1036)">
      <g
         id="g70">
        <path
           style="fill:none;stroke:#000000;stroke-width:0.69279999;stroke-miterlimit:10"
           id="path72"
           d="m 156.61,118.84 c 0,2.53 -2.05,7.36 -4.59,7.36 -2.54,0 -4.59,-4.83 -4.59,-7.36 0,-2.53 2.05,-4.59 4.59,-4.59 2.54,0 4.59,2.06 4.59,4.59 z"
           stroke-miterlimit="10" />
        <path
           style="fill:none;stroke:#000000;stroke-width:0.69279999;stroke-miterlimit:10"
           id="path74"
           d="m 153.97,145.34 c 2.18,1.29 5.59,5 4.67,6.56 -0.92,1.56 -5.82,0.38 -8.01,-0.91 -2.18,-1.29 -3.21,-3.6 -2.29,-5.16 0.93,-1.55 3.45,-1.78 5.63,-0.49 z"
           stroke-miterlimit="10" />
        <path
           style="fill:none;stroke:#000000;stroke-width:0.69279999;stroke-miterlimit:10"
           id="path76"
           d="m 152.03,126.41 0,23.56 c 0,0 -9.44,2.86 -7.87,14.92 1.42,10.91 16.67,10 18.81,0.22 1.68,-7.67 -4.32,-13.13 -4.32,-13.13"
           stroke-miterlimit="10" />
      </g>
      <g
         id="g90">
        <path
           style="fill:none;stroke:#000000;stroke-width:0.69279999;stroke-miterlimit:10"
           id="path92"
           d="m 149.62,213.08 c -1.13,-0.65 -2.4,-1.32 -3.84,-1.98 -1.26,-0.57 -1.81,-2.06 -1.23,-3.31 0.58,-1.25 2.06,-1.81 3.31,-1.23 1.8,0.83 3.38,1.67 4.77,2.5"
           stroke-miterlimit="10" />
        <path
           style="fill:none;stroke:#000000;stroke-width:0.69279999;stroke-miterlimit:10"
           id="path94"
           d="m 157,212.06 c -1.17,-0.94 -2.61,-1.96 -4.37,-3.01"
           stroke-miterlimit="10" />
        <path
           style="fill:none;stroke:#000000;stroke-width:0.69279999;stroke-miterlimit:10"
           id="path96"
           d="m 153.67,216.3 c -1.12,-0.91 -2.14,-2.11 -4.05,-3.21"
           stroke-miterlimit="10" />
        <path
           style="fill:none;stroke:#000000;stroke-width:0.69279999;stroke-miterlimit:10"
           id="path98"
           d="m 157,212.06 c 2.91,2.33 4.11,4.09 4.19,4.22 0.07,0.11 0.12,0.22 0.17,0.33"
           stroke-miterlimit="10" />
        <path
           style="fill:none;stroke:#000000;stroke-width:0.69279999;stroke-miterlimit:10"
           id="path100"
           d="m 145.79,230.95 c 0,4.32 3.52,7.84 7.84,7.84 4.32,0 7.84,-3.52 7.84,-7.84 0,-5.35 -4.38,-14.59 -7.84,-14.59 -3.47,-0.01 -7.84,9.23 -7.84,14.59 z"
           stroke-miterlimit="10" />
        <path
           style="fill:none;stroke:#000000;stroke-width:0.69279999;stroke-miterlimit:10"
           id="path102"
           d="m 149.62,213.08 c -5.34,3.27 -8.83,12.42 -8.83,17.86 0,7.08 5.76,12.84 12.84,12.84 7.08,0 12.84,-5.76 12.84,-12.84 0,-4.04 -1.93,-10.13 -5.11,-14.34"
           stroke-miterlimit="10" />
        <path
           style="fill:none;stroke:#000000;stroke-width:0.69279999;stroke-miterlimit:10"
           id="path104"
           d="m 149.62,213.08 c 0.12,-0.08 0.25,-0.17 0.37,-0.24"
           stroke-miterlimit="10" />
        <path
           style="fill:none;stroke:#000000;stroke-width:0.69279999;stroke-miterlimit:10"
           id="path106"
           d="m 156.79,212.61 c -0.57,1.42 -1.98,2.9 -3.23,3.74"
           stroke-miterlimit="10" />
        <path
           style="fill:none;stroke:#000000;stroke-width:0.69279999;stroke-miterlimit:10"
           id="path108"
           d="m 149.99,212.85 c 0.29,-0.33 2.41,-2.44 2.63,-3.8"
           stroke-miterlimit="10" />
        <path
           style="fill:none;stroke:#000000;stroke-width:0.69279999;stroke-miterlimit:10"
           id="path110"
           d="m 156.79,212.61 c 0.07,-0.18 0.14,-0.36 0.21,-0.55"
           stroke-miterlimit="10" />
        <path
           style="fill:none;stroke:#000000;stroke-width:0.69279999;stroke-miterlimit:10"
           id="path112"
           d="m 157,212.06 c 1.03,-2.94 0.99,-6.25 0.94,-7.33 l 0,-15.56 c 0,-1.38 -1.12,-2.5 -2.5,-2.5 -1.38,0 -2.5,1.12 -2.5,2.5 l 0,15.62 c 0,0.04 0,0.08 0,0.12 0.06,1.35 -0.06,2.86 -0.32,4.14"
           stroke-miterlimit="10" />
      </g>
    </g>
  </g>
</svg>
