<?xml version="1.0" encoding="UTF-8" standalone="no"?>
<!-- Created with Inkscape (http://www.inkscape.org/) -->

<svg
   xmlns:dc="http://purl.org/dc/elements/1.1/"
   xmlns:cc="http://creativecommons.org/ns#"
   xmlns:rdf="http://www.w3.org/1999/02/22-rdf-syntax-ns#"
   xmlns:svg="http://www.w3.org/2000/svg"
   xmlns="http://www.w3.org/2000/svg"
   xmlns:sodipodi="http://sodipodi.sourceforge.net/DTD/sodipodi-0.dtd"
   xmlns:inkscape="http://www.inkscape.org/namespaces/inkscape"
   width="17.527239mm"
   height="39.6786mm"
   viewBox="0 0 62.104392 140.59347"
   id="svg5065"
   version="1.1"
   inkscape:version="0.91 r13725"
   sodipodi:docname="eslinga34Ram.svg">
  <defs
     id="defs5067" />
  <sodipodi:namedview
     id="base"
     pagecolor="#ffffff"
     bordercolor="#666666"
     borderopacity="1.0"
     inkscape:pageopacity="0.0"
     inkscape:pageshadow="2"
     inkscape:zoom="1.4"
     inkscape:cx="-99.111071"
     inkscape:cy="180.98109"
     inkscape:document-units="px"
     inkscape:current-layer="layer1"
     showgrid="false"
     fit-margin-top="0"
     fit-margin-left="0"
     fit-margin-right="0"
     fit-margin-bottom="0"
     inkscape:window-width="1920"
     inkscape:window-height="1027"
     inkscape:window-x="-8"
     inkscape:window-y="-8"
     inkscape:window-maximized="1" />
  <metadata
     id="metadata5070">
    <rdf:RDF>
      <cc:Work
         rdf:about="">
        <dc:format>image/svg+xml</dc:format>
        <dc:type
           rdf:resource="http://purl.org/dc/dcmitype/StillImage" />
        <dc:title></dc:title>
      </cc:Work>
    </rdf:RDF>
  </metadata>
  <g
     inkscape:label="Capa 1"
     inkscape:groupmode="layer"
     id="layer1"
     transform="translate(-713.02949,-1125.1584)">
    <g
       transform="translate(304.36061,1015.5648)"
       id="g5929">
      <g
         id="g122">
        <g
           id="g124">
          <path
             stroke-miterlimit="10"
             d="m 434.59,207.61 0,0 c -0.66,0 -1.31,-0.14 -1.92,-0.41 -2.4,-1.07 -3.48,-3.91 -2.4,-6.35 l 1.79,-4.03 c 0.78,-1.75 2.51,-2.88 4.4,-2.88 0.66,0 1.31,0.14 1.92,0.41 1.16,0.51 2.04,1.45 2.5,2.64 0.46,1.21 0.43,2.52 -0.1,3.71 l -1.79,4.03 c -0.78,1.75 -2.51,2.88 -4.4,2.88 z m 1.87,-12.05 c -1.26,0 -2.41,0.75 -2.93,1.92 l -1.79,4.03 c -0.72,1.62 -0.01,3.51 1.59,4.22 0.4,0.18 0.83,0.27 1.27,0.27 l 0,0 c 1.26,0 2.41,-0.75 2.93,-1.92 l 1.79,-4.03 c 0.35,-0.79 0.38,-1.67 0.07,-2.47 -0.3,-0.79 -0.89,-1.41 -1.65,-1.74 -0.42,-0.18 -0.85,-0.28 -1.28,-0.28 z"
             id="path126"
             inkscape:connector-curvature="0"
             style="fill:none;stroke:#000000;stroke-width:0.80470002;stroke-miterlimit:10" />
        </g>
        <path
           stroke-miterlimit="10"
           d="m 437.73,181.6 c -1.66,1.09 -2.76,2.99 -2.76,5.14 l 0,6.72 c 0,2.02 0.96,3.81 2.46,4.93"
           id="path128"
           inkscape:connector-curvature="0"
           style="fill:none;stroke:#000000;stroke-width:0.69279999;stroke-miterlimit:10" />
        <path
           stroke-miterlimit="10"
           d="m 437.73,181.6 c -1.66,1.09 -2.76,2.99 -2.76,5.14 l 0,6.72 c 0,2.02 0.96,3.81 2.46,4.93"
           id="path130"
           inkscape:connector-curvature="0"
           style="fill:none;stroke:#000000;stroke-width:0.69279999;stroke-miterlimit:10" />
        <path
           stroke-miterlimit="10"
           d="m 438.56,196.47 c -1.08,-0.84 -1.69,-2.24 -1.69,-3.82 l 0,-5.09 c 0,-1.82 0.82,-3.4 2.21,-4.16"
           id="path132"
           inkscape:connector-curvature="0"
           style="fill:none;stroke:#000000;stroke-width:0.69279999;stroke-miterlimit:10" />
        <path
           stroke-miterlimit="10"
           d="m 447.07,193.46 0,-6.72 c 0,-3.38 -2.71,-6.12 -6.05,-6.12 -1.21,0 -2.35,0.36 -3.29,0.98"
           id="path134"
           inkscape:connector-curvature="0"
           style="fill:none;stroke:#000000;stroke-width:0.69279999;stroke-miterlimit:10" />
        <path
           stroke-miterlimit="10"
           d="m 437.43,198.39 c 1,0.75 2.25,1.2 3.59,1.2 3.34,0 6.05,-2.75 6.05,-6.13"
           id="path136"
           inkscape:connector-curvature="0"
           style="fill:none;stroke:#000000;stroke-width:1.11500001;stroke-miterlimit:10" />
        <path
           stroke-miterlimit="10"
           d="m 439.07,183.4 c 0.57,-0.31 1.23,-0.49 1.98,-0.49 2.56,0 4.12,2.08 4.12,4.64 l 0,5.09 c 0,2.57 -1.56,4.65 -4.12,4.65 -0.98,0 -1.82,-0.3 -2.49,-0.82"
           id="path138"
           inkscape:connector-curvature="0"
           style="fill:none;stroke:#000000;stroke-width:0.69279999;stroke-miterlimit:10" />
        <path
           stroke-miterlimit="10"
           d="m 431.98,204.13 c 0.77,-0.12 1.58,-0.01 2.33,0.36 l 0,0 c 1.94,0.96 2.73,3.31 1.77,5.25 l -17,34.32 c -0.96,1.94 -3.31,2.73 -5.25,1.77 l 0,0 c -1.94,-0.96 -2.73,-3.31 -1.77,-5.25 l 17,-34.32 c 0.24,-0.49 0.57,-0.9 0.95,-1.23"
           id="path140"
           inkscape:connector-curvature="0"
           style="fill:none;stroke:#000000;stroke-width:0.69279999;stroke-miterlimit:10" />
        <path
           stroke-miterlimit="10"
           d="m 432.25,204.37 c 0.64,-0.43 1.42,-0.68 2.26,-0.66 l 0,0 c 2.16,0.04 3.88,1.83 3.84,4 L 437.6,246 c -0.04,2.16 -1.83,3.88 -4,3.84 l 0,0 c -2.16,-0.04 -3.88,-1.83 -3.84,-3.99 l 0.76,-38.29 c 0.01,-0.54 0.13,-1.06 0.34,-1.52"
           id="path142"
           inkscape:connector-curvature="0"
           style="fill:none;stroke:#000000;stroke-width:0.69279999;stroke-miterlimit:10" />
        <g
           id="g144">
          <path
             stroke-miterlimit="10"
             d="m 443.1,204.73 -1.79,-4.03 c -0.53,-1.19 -0.56,-2.5 -0.1,-3.71 0.46,-1.19 1.34,-2.12 2.5,-2.64 0.61,-0.27 1.25,-0.41 1.92,-0.41 1.9,0 3.62,1.13 4.4,2.88 l 1.79,4.03 c 1.08,2.43 0,5.28 -2.4,6.35 -0.61,0.27 -1.26,0.41 -1.92,0.41 l 0,0 c -1.9,0 -3.63,-1.13 -4.4,-2.88 z m 1.26,-8.9 c -0.76,0.34 -1.35,0.96 -1.65,1.74 -0.31,0.8 -0.29,1.68 0.07,2.47 l 1.79,4.03 c 0.52,1.17 1.67,1.92 2.93,1.92 l 0,0 c 0.44,0 0.86,-0.09 1.27,-0.27 1.59,-0.71 2.3,-2.6 1.58,-4.22 l -1.79,-4.03 c -0.52,-1.17 -1.67,-1.92 -2.93,-1.92 -0.44,0.01 -0.87,0.11 -1.27,0.28 z"
             id="path146"
             inkscape:connector-curvature="0"
             style="fill:none;stroke:#000000;stroke-width:0.80470002;stroke-miterlimit:10" />
        </g>
        <path
           stroke-miterlimit="10"
           d="m 450.1,204.13 c -0.77,-0.12 -1.58,-0.01 -2.33,0.36 l 0,0 c -1.94,0.96 -2.73,3.31 -1.77,5.25 l 17,34.32 c 0.96,1.94 3.31,2.73 5.25,1.77 l 0,0 c 1.94,-0.96 2.73,-3.31 1.77,-5.25 l -17,-34.32 c -0.24,-0.49 -0.57,-0.9 -0.95,-1.23"
           id="path148"
           inkscape:connector-curvature="0"
           style="fill:none;stroke:#000000;stroke-width:0.69279999;stroke-miterlimit:10" />
        <path
           stroke-miterlimit="10"
           d="m 449.83,204.37 c -0.64,-0.43 -1.42,-0.68 -2.26,-0.66 l 0,0 c -2.16,0.04 -3.88,1.83 -3.84,4 l 0.76,38.29 c 0.04,2.16 1.83,3.88 3.99,3.84 l 0,0 c 2.16,-0.04 3.88,-1.83 3.84,-3.99 l -0.76,-38.29 c -0.01,-0.54 -0.13,-1.06 -0.34,-1.52"
           id="path150"
           inkscape:connector-curvature="0"
           style="fill:none;stroke:#000000;stroke-width:0.69279999;stroke-miterlimit:10" />
        <line
           stroke-miterlimit="10"
           x1="411.60001"
           y1="191.52"
           x2="411.60001"
           y2="243.28"
           id="line152"
           style="fill:none;stroke:#ffde00;stroke-width:0.92919999;stroke-linecap:round;stroke-linejoin:round;stroke-miterlimit:10" />
        <path
           stroke-miterlimit="10"
           d="m 422.91,225.08 c -0.82,-4.86 -6.98,-7.86 -13.77,-6.72"
           id="path154"
           inkscape:connector-curvature="0"
           style="fill:none;stroke:#ffde00;stroke-width:0.92919999;stroke-linecap:round;stroke-linejoin:round;stroke-miterlimit:10" />
        <g
           id="g156">
          <path
             d="m 416.17,214.17 0,-5.65 c 0,-0.69 0.08,-1.22 0.25,-1.59 0.17,-0.37 0.45,-0.66 0.84,-0.87 0.39,-0.21 0.83,-0.32 1.32,-0.32 0.65,0 1.17,0.16 1.54,0.49 0.37,0.33 0.56,0.71 0.56,1.13 0,0.19 -0.04,0.39 -0.1,0.59 -0.07,0.2 -0.19,0.46 -0.36,0.76 -0.17,0.3 -0.28,0.51 -0.33,0.63 -0.05,0.12 -0.07,0.22 -0.07,0.31 0,0.12 0.04,0.24 0.12,0.36 0.08,0.12 0.31,0.3 0.69,0.55 0.51,0.34 0.85,0.61 1.02,0.81 0.24,0.29 0.36,0.63 0.36,1.03 0,0.52 -0.19,0.97 -0.58,1.35 -0.39,0.38 -0.88,0.56 -1.48,0.56 -0.47,0 -0.89,-0.13 -1.25,-0.38 -0.36,-0.26 -0.63,-0.58 -0.8,-0.98 l 0.88,-0.41 c 0.19,0.35 0.38,0.6 0.57,0.73 0.19,0.14 0.39,0.2 0.59,0.2 0.29,0 0.53,-0.1 0.74,-0.29 0.2,-0.2 0.3,-0.43 0.3,-0.69 0,-0.21 -0.06,-0.39 -0.18,-0.54 -0.08,-0.1 -0.29,-0.26 -0.63,-0.5 -0.62,-0.43 -1.01,-0.75 -1.16,-0.97 -0.15,-0.21 -0.23,-0.44 -0.23,-0.66 0,-0.15 0.03,-0.3 0.08,-0.45 0.05,-0.15 0.17,-0.39 0.37,-0.72 0.19,-0.33 0.32,-0.58 0.38,-0.75 0.06,-0.17 0.09,-0.31 0.09,-0.44 0,-0.23 -0.1,-0.44 -0.31,-0.62 -0.21,-0.18 -0.48,-0.27 -0.82,-0.27 -0.4,0 -0.73,0.12 -0.99,0.37 -0.26,0.25 -0.38,0.79 -0.38,1.62 l 0,5.61 -1.03,0 z"
             id="path158"
             inkscape:connector-curvature="0" />
        </g>
      </g>
      <g
         id="g160">
        <path
           stroke-miterlimit="10"
           d="m 437.76,137.25 c -0.38,1.92 -2.67,5.26 -4.58,4.88 -1.92,-0.38 -2.74,-4.35 -2.36,-6.26 0.38,-1.92 2.24,-3.16 4.16,-2.78 1.92,0.37 3.16,2.24 2.78,4.16 z"
           id="path162"
           inkscape:connector-curvature="0"
           style="fill:none;stroke:#000000;stroke-width:0.69279999;stroke-miterlimit:10" />
        <path
           stroke-miterlimit="10"
           d="m 423.43,172.83 c 0.38,-1.92 2.66,-5.26 4.58,-4.88 1.92,0.38 2.74,4.35 2.36,6.26 -0.38,1.92 -2.25,3.16 -4.17,2.78 -1.91,-0.37 -3.15,-2.24 -2.77,-4.16 z"
           id="path164"
           inkscape:connector-curvature="0"
           style="fill:none;stroke:#000000;stroke-width:0.69279999;stroke-miterlimit:10" />
        <line
           stroke-miterlimit="10"
           x1="433.12"
           y1="142.39"
           x2="428"
           y2="168.05"
           id="line166"
           style="fill:none;stroke:#000000;stroke-width:0.69279999;stroke-miterlimit:10" />
        <path
           stroke-miterlimit="10"
           d="m 437.78,136.25 c -0.83,1.77 -3.83,4.48 -5.61,3.65 -1.77,-0.83 -1.64,-4.87 -0.81,-6.64 0.83,-1.77 2.93,-2.54 4.7,-1.71 1.77,0.83 2.54,2.93 1.72,4.7 z"
           id="path168"
           inkscape:connector-curvature="0"
           style="fill:none;stroke:#000000;stroke-width:0.69279999;stroke-miterlimit:10" />
        <path
           stroke-miterlimit="10"
           d="m 415.43,167.43 c 0.83,-1.77 3.83,-4.48 5.61,-3.65 1.77,0.83 1.63,4.87 0.81,6.64 -0.82,1.77 -2.93,2.54 -4.71,1.71 -1.77,-0.82 -2.53,-2.92 -1.71,-4.7 z"
           id="path170"
           inkscape:connector-curvature="0"
           style="fill:none;stroke:#000000;stroke-width:0.69279999;stroke-miterlimit:10" />
        <line
           stroke-miterlimit="10"
           x1="432.04999"
           y1="140.14999"
           x2="421"
           y2="163.87"
           id="line172"
           style="fill:none;stroke:#000000;stroke-width:0.69279999;stroke-miterlimit:10" />
        <path
           stroke-miterlimit="10"
           d="m 441.82,137.25 c 0.38,1.92 2.67,5.26 4.58,4.88 1.92,-0.38 2.74,-4.35 2.36,-6.26 -0.38,-1.92 -2.25,-3.16 -4.16,-2.78 -1.92,0.37 -3.16,2.24 -2.78,4.16 z"
           id="path174"
           inkscape:connector-curvature="0"
           style="fill:none;stroke:#000000;stroke-width:0.69279999;stroke-miterlimit:10" />
        <path
           stroke-miterlimit="10"
           d="m 456.15,172.83 c -0.38,-1.92 -2.67,-5.26 -4.58,-4.88 -1.92,0.38 -2.74,4.35 -2.36,6.26 0.38,1.92 2.25,3.16 4.17,2.78 1.91,-0.37 3.15,-2.24 2.77,-4.16 z"
           id="path176"
           inkscape:connector-curvature="0"
           style="fill:none;stroke:#000000;stroke-width:0.69279999;stroke-miterlimit:10" />
        <line
           stroke-miterlimit="10"
           x1="446.45999"
           y1="142.39"
           x2="451.57999"
           y2="168.05"
           id="line178"
           style="fill:none;stroke:#000000;stroke-width:0.69279999;stroke-miterlimit:10" />
        <path
           stroke-miterlimit="10"
           d="m 441.81,136.25 c 0.82,1.77 3.83,4.48 5.61,3.65 1.77,-0.83 1.63,-4.87 0.81,-6.64 -0.83,-1.77 -2.93,-2.54 -4.7,-1.71 -1.78,0.83 -2.55,2.93 -1.72,4.7 z"
           id="path180"
           inkscape:connector-curvature="0"
           style="fill:none;stroke:#000000;stroke-width:0.69279999;stroke-miterlimit:10" />
        <path
           stroke-miterlimit="10"
           d="m 464.15,167.43 c -0.83,-1.77 -3.84,-4.48 -5.61,-3.65 -1.77,0.83 -1.63,4.87 -0.81,6.64 0.82,1.77 2.93,2.54 4.7,1.71 1.78,-0.82 2.55,-2.92 1.72,-4.7 z"
           id="path182"
           inkscape:connector-curvature="0"
           style="fill:none;stroke:#000000;stroke-width:0.69279999;stroke-miterlimit:10" />
        <line
           stroke-miterlimit="10"
           x1="447.53"
           y1="140.14999"
           x2="458.57999"
           y2="163.87"
           id="line184"
           style="fill:none;stroke:#000000;stroke-width:0.69279999;stroke-miterlimit:10" />
        <path
           stroke-miterlimit="10"
           d="m 437.02,110.93 c -1.66,1.09 -2.76,2.99 -2.76,5.14 l 0,6.72 c 0,2.02 0.97,3.82 2.46,4.93"
           id="path186"
           inkscape:connector-curvature="0"
           style="fill:none;stroke:#000000;stroke-width:0.69279999;stroke-miterlimit:10" />
        <path
           stroke-miterlimit="10"
           d="m 437.02,110.93 c -1.66,1.09 -2.76,2.99 -2.76,5.14 l 0,6.72 c 0,2.02 0.97,3.82 2.46,4.93"
           id="path188"
           inkscape:connector-curvature="0"
           style="fill:none;stroke:#000000;stroke-width:0.69279999;stroke-miterlimit:10" />
        <path
           stroke-miterlimit="10"
           d="m 437.85,125.8 c -1.07,-0.84 -1.69,-2.24 -1.69,-3.82 l 0,-5.09 c 0,-1.82 0.81,-3.4 2.2,-4.16"
           id="path190"
           inkscape:connector-curvature="0"
           style="fill:none;stroke:#000000;stroke-width:0.69279999;stroke-miterlimit:10" />
        <path
           stroke-miterlimit="10"
           d="m 436.72,127.72 c 1,0.75 2.25,1.2 3.59,1.2 3.34,0 6.05,-2.75 6.05,-6.13 l 0,-6.72 c 0,-3.38 -2.71,-6.13 -6.05,-6.13 -1.21,0 -2.35,0.36 -3.29,0.99"
           id="path192"
           inkscape:connector-curvature="0"
           style="fill:none;stroke:#000000;stroke-width:0.69279999;stroke-miterlimit:10" />
        <path
           stroke-miterlimit="10"
           d="m 438.36,112.73 c 0.57,-0.31 1.23,-0.49 1.98,-0.49 2.56,0 4.12,2.08 4.12,4.64 l 0,5.09 c 0,2.57 -1.56,4.65 -4.12,4.65 -0.98,0 -1.82,-0.3 -2.49,-0.82"
           id="path194"
           inkscape:connector-curvature="0"
           style="fill:none;stroke:#000000;stroke-width:0.69279999;stroke-miterlimit:10" />
        <path
           stroke-miterlimit="10"
           d="m 438.54,122.96 c -1.08,-0.31 -2.2,0.3 -2.52,1.38 l -0.37,1.28 -2.28,7.82 -0.37,1.28 c -0.31,1.08 0.3,2.21 1.38,2.52 1.08,0.32 2.21,-0.3 2.52,-1.38 l 0.37,-1.28 2.28,-7.82 0.38,-1.28 c 0.31,-1.08 -0.31,-2.21 -1.39,-2.52 z"
           id="path196"
           inkscape:connector-curvature="0"
           style="fill:#ffffff;stroke:#000000;stroke-width:0.69279999;stroke-miterlimit:10" />
        <path
           stroke-miterlimit="10"
           d="m 441.57,122.96 c 1.08,-0.31 2.21,0.3 2.52,1.38 l 0.37,1.28 2.28,7.82 0.38,1.28 c 0.31,1.08 -0.31,2.21 -1.38,2.52 -1.08,0.32 -2.2,-0.3 -2.52,-1.38 l -0.37,-1.28 -2.28,-7.82 -0.37,-1.28 c -0.33,-1.08 0.29,-2.21 1.37,-2.52 z"
           id="path198"
           inkscape:connector-curvature="0"
           style="fill:#ffffff;stroke:#000000;stroke-width:0.69279999;stroke-miterlimit:10" />
      </g>
    </g>
  </g>
</svg>
