<?xml version="1.0" encoding="UTF-8" standalone="no"?>
<svg
   xmlns:dc="http://purl.org/dc/elements/1.1/"
   xmlns:cc="http://creativecommons.org/ns#"
   xmlns:rdf="http://www.w3.org/1999/02/22-rdf-syntax-ns#"
   xmlns:svg="http://www.w3.org/2000/svg"
   xmlns="http://www.w3.org/2000/svg"
   version="1.1"
   id="svg5065"
   viewBox="0 0 38.1228 129.81279"
   height="36.636055mm"
   width="10.759101mm">
  <defs
     id="defs5067" />
  <metadata
     id="metadata5070">
    <rdf:RDF>
      <cc:Work
         rdf:about="">
        <dc:format>image/svg+xml</dc:format>
        <dc:type
           rdf:resource="http://purl.org/dc/dcmitype/StillImage" />
        <dc:title></dc:title>
      </cc:Work>
    </rdf:RDF>
  </metadata>
  <g
     transform="translate(-606.20723,-1063.7522)"
     id="layer1">
    <g
       id="g5710"
       transform="translate(411.70363,949.86856)">
      <g
         id="g78">
        <path
           style="fill:none;stroke:#000000;stroke-width:0.69279999;stroke-miterlimit:10"
           id="path80"
           d="m 204.03,118.82 c 0,2.53 -2.05,7.36 -4.59,7.36 -2.54,0 -4.59,-4.83 -4.59,-7.36 0,-2.53 2.05,-4.59 4.59,-4.59 2.54,0 4.59,2.06 4.59,4.59 z"
           stroke-miterlimit="10" />
        <path
           style="fill:none;stroke:#000000;stroke-width:0.69279999;stroke-miterlimit:10"
           id="path82"
           d="m 232.28,118.82 c 0,2.53 -2.05,7.36 -4.59,7.36 -2.54,0 -4.59,-4.83 -4.59,-7.36 0,-2.53 2.05,-4.59 4.59,-4.59 2.54,0 4.59,2.06 4.59,4.59 z"
           stroke-miterlimit="10" />
        <path
           style="fill:none;stroke:#000000;stroke-width:0.69279999;stroke-miterlimit:10"
           id="path84"
           d="m 199.74,126.53 0,32.25 c 0,7.73 6.27,14 14,14 7.73,0 14,-6.27 14,-14 l 0,-32.25"
           stroke-miterlimit="10" />
      </g>
      <g
         id="g86">
        <path
           style="fill:none;stroke:#000000;stroke-width:0.69279999;stroke-miterlimit:10"
           id="path88"
           d="m 213.57,243.35 c -8.88,0 -16.11,-7.23 -16.11,-16.11 l 0,-35.78 c 0,-2.41 1.95,-4.36 4.36,-4.36 2.41,0 4.36,1.95 4.36,4.36 l 0,35.78 c 0,4.07 3.31,7.39 7.39,7.39 4.08,0 7.39,-3.31 7.39,-7.39 l 0,-35.78 c 0,-2.41 1.95,-4.36 4.36,-4.36 2.41,0 4.36,1.95 4.36,4.36 l 0,35.78 c 0,8.88 -7.23,16.11 -16.11,16.11 z"
           stroke-miterlimit="10" />
      </g>
    </g>
  </g>
</svg>
