<?xml version="1.0" encoding="UTF-8" standalone="no"?>
<svg
   xmlns:dc="http://purl.org/dc/elements/1.1/"
   xmlns:cc="http://creativecommons.org/ns#"
   xmlns:rdf="http://www.w3.org/1999/02/22-rdf-syntax-ns#"
   xmlns:svg="http://www.w3.org/2000/svg"
   xmlns="http://www.w3.org/2000/svg"
   version="1.1"
   id="svg5065"
   viewBox="0 0 60.136551 133.92968"
   height="37.797932mm"
   width="16.97187mm">
  <defs
     id="defs5067" />
  <metadata
     id="metadata5070">
    <rdf:RDF>
      <cc:Work
         rdf:about="">
        <dc:format>image/svg+xml</dc:format>
        <dc:type
           rdf:resource="http://purl.org/dc/dcmitype/StillImage" />
        <dc:title></dc:title>
      </cc:Work>
    </rdf:RDF>
  </metadata>
  <g
     transform="translate(-733.3674,-1154.3826)"
     id="layer1">
    <g
       id="g5812"
       transform="translate(401.26067,1039.899)">
      <g
         id="g10">
        <path
           style="fill:none;stroke:#000000;stroke-width:0.69279999;stroke-miterlimit:10"
           id="path12"
           d="m 359.41,129.85 c -2,-0.89 -4.36,0.03 -5.26,2.06 l -1.79,4.03 c -0.9,2.03 -0.01,4.4 1.99,5.28 2,0.89 4.36,-0.03 5.26,-2.06 l 1.79,-4.03 c 0.91,-2.03 0.01,-4.4 -1.99,-5.28 z"
           stroke-miterlimit="10" />
        <path
           style="fill:none;stroke:#000000;stroke-width:0.69279999;stroke-miterlimit:10"
           id="path14"
           d="m 358.88,115.82 c -1.66,1.09 -2.76,2.99 -2.76,5.14 l 0,6.72 c 0,2.02 0.97,3.82 2.46,4.93"
           stroke-miterlimit="10" />
        <path
           style="fill:none;stroke:#000000;stroke-width:0.69279999;stroke-miterlimit:10"
           id="path16"
           d="m 358.88,115.82 c -1.66,1.09 -2.76,2.99 -2.76,5.14 l 0,6.72 c 0,2.02 0.97,3.82 2.46,4.93"
           stroke-miterlimit="10" />
        <path
           style="fill:none;stroke:#000000;stroke-width:0.69279999;stroke-miterlimit:10"
           id="path18"
           d="m 359.71,130.68 c -1.07,-0.84 -1.69,-2.24 -1.69,-3.82 l 0,-5.09 c 0,-1.82 0.81,-3.4 2.2,-4.16"
           stroke-miterlimit="10" />
        <path
           style="fill:none;stroke:#000000;stroke-width:0.69279999;stroke-miterlimit:10"
           id="path20"
           d="m 358.58,132.61 c 1,0.75 2.25,1.2 3.59,1.2 3.34,0 6.05,-2.75 6.05,-6.13 l 0,-6.72 c 0,-3.38 -2.71,-6.13 -6.05,-6.13 -1.21,0 -2.35,0.36 -3.29,0.99"
           stroke-miterlimit="10" />
        <path
           style="fill:none;stroke:#000000;stroke-width:0.69279999;stroke-miterlimit:10"
           id="path22"
           d="m 360.22,117.61 c 0.57,-0.31 1.23,-0.49 1.98,-0.49 2.56,0 4.12,2.08 4.12,4.65 l 0,5.09 c 0,2.57 -1.56,4.65 -4.12,4.65 -0.98,0 -1.82,-0.3 -2.49,-0.82"
           stroke-miterlimit="10" />
        <path
           style="fill:none;stroke:#000000;stroke-width:0.69279999;stroke-miterlimit:10"
           id="path24"
           d="m 336.96,167.92 c 0.78,-1.37 3.38,-3.33 4.74,-2.56 1.37,0.78 0.99,4.01 0.21,5.38 -0.78,1.37 -2.52,1.84 -3.88,1.06 -1.37,-0.77 -1.85,-2.51 -1.07,-3.88 z"
           stroke-miterlimit="10" />
        <line
           style="fill:none;stroke:#000000;stroke-width:0.69279999;stroke-miterlimit:10"
           id="line26"
           y2="165.2"
           x2="341.57999"
           y1="140.75"
           x1="353.91"
           stroke-miterlimit="10" />
        <path
           style="fill:none;stroke:#000000;stroke-width:0.69279999;stroke-miterlimit:10"
           id="path28"
           d="m 387.38,167.92 c -0.78,-1.37 -3.38,-3.33 -4.74,-2.56 -1.37,0.78 -0.99,4.01 -0.21,5.38 0.78,1.37 2.52,1.84 3.88,1.06 1.38,-0.77 1.86,-2.51 1.07,-3.88 z"
           stroke-miterlimit="10" />
        <path
           style="fill:none;stroke:#000000;stroke-width:0.69279999;stroke-miterlimit:10"
           id="path30"
           d="m 365.79,129.57 c -0.29,0.06 -0.58,0.15 -0.86,0.27 -2,0.89 -2.89,3.25 -1.99,5.28 l 1.79,4.03 c 0.9,2.03 3.25,2.95 5.26,2.06 2,-0.89 2.89,-3.25 1.99,-5.28 l -1.79,-4.03 c -0.45,-1.02 -1.27,-1.75 -2.22,-2.13"
           stroke-miterlimit="10" />
        <line
           style="fill:none;stroke:#000000;stroke-width:0.69279999;stroke-miterlimit:10"
           id="line32"
           y2="165.2"
           x2="382.76999"
           y1="140.75"
           x1="370.44"
           stroke-miterlimit="10" />
      </g>
      <g
         id="g44">
        <g
           id="g46">
          <path
             style="fill:none;stroke:#000000;stroke-width:0.80470002;stroke-miterlimit:10"
             id="path48"
             d="m 355.39,209.37 0,0 c -0.66,0 -1.31,-0.14 -1.92,-0.41 -2.4,-1.07 -3.48,-3.91 -2.4,-6.34 l 1.79,-4.03 c 0.78,-1.75 2.51,-2.88 4.4,-2.88 0.66,0 1.31,0.14 1.92,0.41 1.16,0.51 2.04,1.45 2.5,2.64 0.46,1.21 0.43,2.52 -0.1,3.71 l -1.79,4.03 c -0.78,1.74 -2.5,2.87 -4.4,2.87 z m 1.87,-12.05 c -1.26,0 -2.41,0.75 -2.93,1.92 l -1.79,4.03 c -0.72,1.62 -0.01,3.51 1.58,4.22 0.4,0.18 0.83,0.27 1.27,0.27 l 0,0 c 1.26,0 2.41,-0.75 2.93,-1.92 l 1.79,-4.03 c 0.35,-0.79 0.38,-1.67 0.07,-2.47 -0.3,-0.79 -0.89,-1.41 -1.65,-1.74 -0.41,-0.19 -0.84,-0.28 -1.27,-0.28 z"
             stroke-miterlimit="10" />
        </g>
        <g
           id="g50">
          <path
             style="fill:none;stroke:#000000;stroke-width:0.80470002;stroke-linecap:round;stroke-linejoin:round;stroke-miterlimit:10"
             id="path52"
             d="m 367.89,195.15 c 1.72,0.16 3.25,1.24 3.96,2.86 l 1.79,4.03 c 1.08,2.43 0,5.28 -2.4,6.34 -0.61,0.27 -1.26,0.41 -1.92,0.41 l 0,0 c -1.9,0 -3.63,-1.13 -4.4,-2.88 l -1.79,-4.03 c -0.53,-1.18 -0.56,-2.5 -0.1,-3.71 0.46,-1.19 1.34,-2.12 2.5,-2.63 m 0,0 m -0.61,2.5 m 2.54,-1.3 m -2.54,1.3 c -0.16,0.22 -0.29,0.46 -0.39,0.71 -0.31,0.8 -0.29,1.68 0.07,2.48 l 1.79,4.03 c 0.52,1.17 1.67,1.92 2.93,1.92 l 0,0 c 0.44,0 0.86,-0.09 1.27,-0.27 1.59,-0.71 2.3,-2.6 1.58,-4.22 l -1.79,-4.03 c -0.47,-1.05 -1.44,-1.76 -2.55,-1.9"
             stroke-miterlimit="10" />
        </g>
        <path
           style="fill:none;stroke:#000000;stroke-width:0.69279999;stroke-miterlimit:10"
           id="path54"
           d="m 358.53,183.36 c -1.66,1.09 -2.76,2.99 -2.76,5.14 l 0,6.72 c 0,2.02 0.97,3.82 2.46,4.93"
           stroke-miterlimit="10" />
        <path
           style="fill:none;stroke:#000000;stroke-width:0.69279999;stroke-miterlimit:10"
           id="path56"
           d="m 358.53,183.36 c -1.66,1.09 -2.76,2.99 -2.76,5.14 l 0,6.72 c 0,2.02 0.97,3.82 2.46,4.93"
           stroke-miterlimit="10" />
        <path
           style="fill:none;stroke:#000000;stroke-width:0.69279999;stroke-miterlimit:10"
           id="path58"
           d="m 359.36,198.22 c -1.08,-0.84 -1.69,-2.24 -1.69,-3.82 l 0,-5.09 c 0,-1.82 0.81,-3.4 2.2,-4.16"
           stroke-miterlimit="10" />
        <path
           style="fill:none;stroke:#000000;stroke-width:0.69279999;stroke-miterlimit:10"
           id="path60"
           d="m 367.87,195.22 0,-6.72 c 0,-3.38 -2.71,-6.12 -6.05,-6.12 -1.21,0 -2.35,0.36 -3.29,0.99"
           stroke-miterlimit="10" />
        <path
           style="fill:none;stroke:#000000;stroke-width:0.69279999;stroke-miterlimit:10"
           id="path62"
           d="m 358.23,200.15 c 1,0.75 2.25,1.2 3.59,1.2 3.34,0 6.05,-2.75 6.05,-6.13"
           stroke-miterlimit="10" />
        <path
           style="fill:none;stroke:#000000;stroke-width:0.69279999;stroke-miterlimit:10"
           id="path64"
           d="m 359.87,185.16 c 0.57,-0.31 1.23,-0.49 1.98,-0.49 2.56,0 4.12,2.08 4.12,4.64 l 0,5.09 c 0,2.57 -1.56,4.65 -4.12,4.65 -0.98,0 -1.82,-0.3 -2.49,-0.82"
           stroke-miterlimit="10" />
        <path
           style="fill:none;stroke:#000000;stroke-width:0.69279999;stroke-miterlimit:10"
           id="path66"
           d="m 352.78,205.89 c 0.77,-0.12 1.58,-0.01 2.33,0.36 l 0,0 c 1.94,0.96 2.73,3.31 1.77,5.25 l -17,34.32 c -0.96,1.94 -3.31,2.73 -5.25,1.77 l 0,0 c -1.94,-0.96 -2.73,-3.31 -1.77,-5.25 l 17,-34.32 c 0.24,-0.49 0.57,-0.9 0.95,-1.23"
           stroke-miterlimit="10" />
        <path
           style="fill:none;stroke:#000000;stroke-width:0.69279999;stroke-miterlimit:10"
           id="path68"
           d="m 371.57,205.96 c -0.77,-0.12 -1.58,-0.01 -2.33,0.36 l 0,0 c -1.94,0.96 -2.73,3.31 -1.77,5.25 l 17,34.32 c 0.96,1.94 3.31,2.73 5.25,1.77 l 0,0 c 1.94,-0.96 2.73,-3.31 1.77,-5.25 l -17,-34.32 c -0.24,-0.49 -0.57,-0.9 -0.95,-1.23"
           stroke-miterlimit="10" />
      </g>
    </g>
  </g>
</svg>
