<?xml version="1.0" encoding="UTF-8" standalone="no"?>
<svg
   xmlns:dc="http://purl.org/dc/elements/1.1/"
   xmlns:cc="http://creativecommons.org/ns#"
   xmlns:rdf="http://www.w3.org/1999/02/22-rdf-syntax-ns#"
   xmlns:svg="http://www.w3.org/2000/svg"
   xmlns="http://www.w3.org/2000/svg"
   version="1.1"
   id="svg5065"
   viewBox="0 0 58.40025 114.13616"
   height="32.211761mm"
   width="16.481848mm">
  <defs
     id="defs5067" />
  <metadata
     id="metadata5070">
    <rdf:RDF>
      <cc:Work
         rdf:about="">
        <dc:format>image/svg+xml</dc:format>
        <dc:type
           rdf:resource="http://purl.org/dc/dcmitype/StillImage" />
        <dc:title></dc:title>
      </cc:Work>
    </rdf:RDF>
  </metadata>
  <g
     transform="translate(-738.43567,-1084.3541)"
     id="layer1">
    <g
       id="g5751"
       transform="translate(483.89303,955.19382)">
      <g
         id="g114">
        <path
           style="fill:none;stroke:#000000;stroke-width:0.69279999;stroke-miterlimit:10"
           id="path116"
           d="m 277.71,135.9 c -1.47,1.46 -5.44,3.07 -6.9,1.6 -1.47,-1.46 0.14,-5.44 1.6,-6.9 1.46,-1.46 3.84,-1.46 5.3,0 1.47,1.47 1.47,3.84 0,5.3 z"
           stroke-miterlimit="10" />
        <path
           style="fill:none;stroke:#000000;stroke-width:0.69279999;stroke-miterlimit:10"
           id="path118"
           d="m 295.79,130.71 c 1.46,1.47 3.07,5.44 1.6,6.9 -1.46,1.47 -5.44,-0.14 -6.9,-1.6 -1.46,-1.46 -1.46,-3.84 0,-5.3 1.47,-1.46 3.84,-1.46 5.3,0 z"
           stroke-miterlimit="10" />
        <path
           style="fill:none;stroke:#000000;stroke-width:0.69279999;stroke-miterlimit:10"
           id="path120"
           d="m 297.45,137.95 12.93,12.85 c 3.93,4.29 3.21,6.71 -6.71,6.71 l -40.24,0 c -8.26,0 -10.61,-2.05 -6.71,-6.71 l 13.86,-12.96"
           stroke-miterlimit="10" />
      </g>
      <g
         id="g200">
        <path
           style="fill:none;stroke:#000000;stroke-width:0.69279999;stroke-miterlimit:10"
           id="path202"
           d="m 303.24,223.18 -7.71,-7.27 c -0.54,-0.51 -1.38,-0.48 -1.9,0.05 -0.51,0.54 -0.48,1.39 0.05,1.9 l 7.71,7.27 c 0.05,0.05 5.06,4.84 3.43,9.64 -1.89,5.56 -5.84,5.51 -7.13,5.49 l -8.21,0 0,0 -17.58,0 -0.17,0 c -1.29,0.03 -5.24,0.07 -7.13,-5.49 -1.62,-4.77 3.38,-9.59 3.43,-9.64 l 7.7,-7.27 c 0.54,-0.51 0.56,-1.36 0.05,-1.9 -0.51,-0.54 -1.36,-0.56 -1.9,-0.05 l -7.7,7.27 c -0.26,0.24 -6.31,6.04 -4.13,12.46 1.14,3.34 3.71,7.31 9.53,7.31 0.06,0 0.12,0 0.18,0 l 17.72,0 8.04,0 0.14,0 c 0.06,0 0.12,0 0.18,0 5.82,0 8.39,-3.96 9.53,-7.31 2.18,-6.41 -3.87,-12.21 -4.13,-12.46 z"
           stroke-miterlimit="10" />
        <line
           style="fill:none;stroke:#ffde00;stroke-width:0.92919999;stroke-linecap:round;stroke-linejoin:round;stroke-miterlimit:10"
           id="line204"
           y2="201.66"
           x2="287.95999"
           y1="225.69"
           x1="263.84"
           stroke-miterlimit="10" />
        <line
           style="fill:none;stroke:#ffde00;stroke-width:0.92919999;stroke-linecap:round;stroke-linejoin:round;stroke-miterlimit:10"
           id="line206"
           y2="225.69"
           x2="263.60001"
           y1="189.96001"
           x1="263.60001"
           stroke-miterlimit="10" />
        <path
           style="fill:none;stroke:#ffde00;stroke-width:0.92919999;stroke-linecap:round;stroke-linejoin:round;stroke-miterlimit:10"
           id="path208"
           d="m 285.16,209.25 c -1.52,-9 -12.93,-14.57 -25.5,-12.44"
           stroke-miterlimit="10" />
        <g
           id="g210">
          <path
             id="path212"
             d="m 276.46,194.42 0,-4.71 c 0,-0.58 0.07,-1.02 0.21,-1.33 0.14,-0.31 0.37,-0.55 0.7,-0.73 0.33,-0.18 0.7,-0.26 1.1,-0.26 0.54,0 0.97,0.14 1.28,0.41 0.31,0.27 0.47,0.59 0.47,0.95 0,0.16 -0.03,0.33 -0.09,0.5 -0.06,0.17 -0.16,0.38 -0.3,0.63 -0.14,0.25 -0.24,0.43 -0.27,0.53 -0.04,0.1 -0.06,0.19 -0.06,0.26 0,0.1 0.03,0.2 0.1,0.3 0.07,0.1 0.26,0.25 0.57,0.46 0.43,0.28 0.71,0.5 0.85,0.67 0.2,0.24 0.3,0.53 0.3,0.86 0,0.44 -0.16,0.81 -0.48,1.12 -0.32,0.31 -0.73,0.47 -1.24,0.47 -0.4,0 -0.74,-0.11 -1.04,-0.32 -0.3,-0.21 -0.52,-0.49 -0.67,-0.82 l 0.73,-0.34 c 0.16,0.29 0.31,0.5 0.47,0.61 0.16,0.11 0.32,0.17 0.5,0.17 0.24,0 0.44,-0.08 0.61,-0.25 0.17,-0.17 0.25,-0.36 0.25,-0.58 0,-0.18 -0.05,-0.33 -0.15,-0.45 -0.07,-0.08 -0.24,-0.22 -0.53,-0.42 -0.52,-0.36 -0.84,-0.63 -0.96,-0.81 -0.13,-0.18 -0.19,-0.36 -0.19,-0.55 0,-0.12 0.02,-0.25 0.06,-0.37 0.04,-0.13 0.14,-0.33 0.31,-0.6 0.16,-0.28 0.27,-0.48 0.32,-0.62 0.05,-0.14 0.08,-0.26 0.08,-0.37 0,-0.2 -0.09,-0.37 -0.26,-0.52 -0.17,-0.15 -0.4,-0.22 -0.69,-0.22 -0.34,0 -0.61,0.1 -0.82,0.31 -0.21,0.21 -0.32,0.66 -0.32,1.35 l 0,4.67 -0.84,0 z" />
        </g>
      </g>
    </g>
  </g>
</svg>
