<svg xmlns="http://www.w3.org/2000/svg" viewBox="0 0 113.6 99" height="99" width="113.6">
<path
   d="m 151.2,374.81873 c 1.4,-0.3 2.5,-0.5 4.5,-0.7 l 0.4,-1.1 c -3.5,0 -13.1,0 -17.6,1.4 -0.1,0.9 -0.2,1.7 -0.3,2.5 8,-1.1 11,-1.7 13,-2.1 z"
   id="path8"
   style="fill:none" /><path
   d="m 157.6,374.41873 c 2.2,0.7 6,2.2 7.9,5.4 0.2,0.3 0.3,0.6 0.4,0.8 0,-0.1 0,-0.2 -0.1,-0.2 -0.6,-2.7 -3.4,-5.1 -7.9,-7.1 l -0.3,1.1 z"
   id="path10"
   style="fill:none" /><path
   d="m 169.2,335.61873 c -3.4,5.2 -3.5,10.3 -3.5,11 2.5,0 4.9,0.2 7.2,0.7 0,-0.1 0,-0.2 0,-0.4 -0.1,-1.9 -0.4,-7.5 5.3,-11.8 2.5,-1.9 4.9,-5.8 6,-7.8 -1.9,-0.8 -3.9,-1.5 -6.1,-2.2 -1.8,-0.5 -3.6,-1 -5.4,-1.3 0.1,2.1 -0.3,7 -3.5,11.8 z"
   id="path12"
   style="fill:none" /><path
   d="m 179.3,336.71873 c -4.9,3.7 -4.6,8.4 -4.5,10.2 0,0.4 0,0.7 0,0.9 1.9,0.5 3.7,1.2 5.2,2.1 0.2,-0.9 0.4,-2 0.7,-3.1 1.1,-4.7 5.7,-7.7 9.7,-10.3 1.8,-1.1 3.5,-2.2 4.8,-3.4 -1.2,-0.8 -4.5,-2.9 -9.2,-5 -1.2,2.1 -3.8,6.4 -6.7,8.6 z"
   id="path14"
   style="fill:none" /><path
   d="m 163.6,368.61873 c 1.3,0.9 3.3,2.3 5.1,4.2 1.6,1.6 2.8,3.3 3.6,4.9 0,-0.2 -0.1,-0.4 -0.1,-0.7 -0.7,-3.4 -3.3,-6.6 -7.8,-9.5 l -0.8,1.1 z"
   id="path16"
   style="fill:none" /><path
   d="m 149.5,337.41873 c 0,1 -0.1,2 -0.1,3.1 -0.2,3.4 -0.5,7.2 1.4,9.4 1.7,-0.8 3.3,-1.4 4.8,-1.9 -0.6,-2.9 -0.7,-8.9 1.2,-12.7 1.9,-3.8 0.9,-9.7 0.5,-11.5 -4.7,0.9 -9.1,2.7 -13.2,5.5 1.6,1.3 5.3,4.7 5.4,8.1 z"
   id="path18"
   style="fill:none" /><path
   d="m 167.7,334.51873 c 3.1,-4.7 3.2,-9.6 3.2,-10.9 -4.1,-0.6 -8,-0.6 -11.7,-0.1 0.4,2.1 1.4,8.4 -0.7,12.7 -1.7,3.5 -1.4,9 -1,11.4 2.1,-0.5 4.2,-0.8 6.4,-0.9 -0.1,-0.9 0,-6.5 3.8,-12.2 z"
   id="path20"
   style="fill:none" /><path
   d="m 182.1,369.31873 0.7,-0.8 -6,-11.2 c -0.6,-0.2 -1.2,-0.4 -1.9,-0.5 1.9,3.8 5.1,10.1 7.2,12.5 z"
   id="path22"
   style="fill:none" /><path
   d="m 161.9,367.61873 0.7,-0.9 c -3.6,-1.2 -14.3,-4.4 -18.4,-3.9 -0.4,0.1 -0.8,-0.1 -0.9,-0.5 -0.4,0.4 -0.8,0.9 -1.2,1.4 4,0.9 16.1,3.2 19.8,3.9 z"
   id="path24"
   style="fill:none" /><path
   d="m 173.3,369.51873 0.7,-0.6 c -3.7,-4.6 -14.9,-12.9 -15.1,-13 -0.1,-0.1 -0.1,-0.1 -0.2,-0.2 -0.4,0 -0.8,0.1 -1.3,0.2 4.9,4.6 13.5,11.7 15.9,13.6 z"
   id="path26"
   style="fill:none" /><path
   d="m 183.8,370.31873 c 3.1,1.3 10.8,5.1 15.4,10.7 -2.7,-4.2 -7.8,-8 -14.9,-11.1 l -0.5,0.4 z"
   id="path28"
   style="fill:none" /><path
   d="m 175,370.61873 c 4.8,2.9 7.8,6.8 9.6,9.8 -1.6,-5.8 -7.3,-9.2 -9.1,-10.2 l -0.5,0.4 z"
   id="path30"
   style="fill:none" /><path
   d="m 173.5,353.81873 c 1.4,0.3 3.9,0.8 6,1.7 -0.1,-0.8 -0.1,-1.7 0,-2.7 -4.1,-2.9 -13.2,-4.8 -22.1,-2.5 -3.7,0.9 -8.3,2.9 -11.9,6.8 2.9,-1.8 6.6,-3.1 11.4,-3.8 7.1,-1 13.4,-0.1 16.6,0.5 z"
   id="path32"
   style="fill:none" /><path
   d="m 206.6,373.51873 c -0.3,-0.1 -0.5,-0.3 -0.6,-0.6 -2.5,-0.4 -4.7,-0.8 -6.8,-1.2 1.1,1.5 4.2,3.9 12.2,5.9 10.8,2.7 18.1,5.1 20.7,6 0.1,-0.4 0.1,-0.9 0,-1.2 -2.8,-0.9 -17.5,-5.7 -25.5,-8.9 z"
   id="path34"
   style="fill:none" /><path
   d="m 49.1,23.71873 c 27.8,-22 47.5,-0.6 41.6,32.4 -5.1,28.8 -11.7,42.9 -43.1,42.9 -31.4,0 -47.6,-25.7 -47.6,-55 0,-29.3 17.7,-38.9 49.1,-20.3"
   id="path120"
   style="fill:#906232" /><path
   d="m 49.6,28.21873 c 0,0 39.3,0.4 63.6,-24.2 6.5,-6.6 -65.2,-8.9 -63.6,24.2 z"
   id="path122"
   style="fill:#a68873" /><g
   transform="translate(-614.8,-860.48127)"
   id="g124">
		<g
   id="g126">
			<path
   d="m 660.9,884.3 c -2.2,3.1 -5,5.4 -6.9,8.7 -2,3.4 -2.3,7.6 -2.4,11.5 -0.1,4.4 0,8.7 0,13.1 0,4.6 1,10.6 -0.7,14.9 -0.6,1.4 2.3,1.2 2.7,0.2 1.3,-3.2 0.9,-6.5 0.9,-9.8 0,-5 0,-10 0,-14.9 0,-4.1 0,-8 1.1,-11.9 1.2,-4.7 5.3,-7.7 8,-11.6 0.9,-1.2 -2.1,-1 -2.7,-0.2 l 0,0 z"
   id="path128"
   style="fill:#f7b66f" />
		</g>
	</g><g
   transform="translate(-614.8,-860.48127)"
   id="g130">
		<g
   id="g132">
			<path
   d="m 642.5,881.3 c -0.9,1.9 -2.8,2.9 -3.6,4.7 -1.1,2.3 -1.5,4.6 -1.6,7.1 -0.3,5.1 1.3,10.2 2.7,15 1.7,6 3.3,12 4.9,17.9 0.8,2.9 3.6,11.5 1.2,13.9 -1.2,1.2 1.7,1.1 2.3,0.4 2.3,-2.3 1.3,-5.8 0.7,-8.6 -1.1,-5.8 -2.7,-11.4 -4.3,-17.1 -1.6,-5.7 -3.3,-11.5 -4.3,-17.4 -0.6,-3.6 -0.4,-7.1 0.7,-10.5 0.7,-2.1 3.2,-3.8 4.2,-5.8 0.4,-0.8 -2.5,-0.5 -2.9,0.4 l 0,0 z"
   id="path134"
   style="fill:#c3c2c2" />
		</g>
	</g><g
   transform="translate(-614.8,-860.48127)"
   id="g136">
		<g
   id="g138">
			<path
   d="m 681.6,893.1 c 1.4,6.5 1.9,13.4 2.5,20 0.3,3.4 0.8,6.8 0.9,10.2 0.3,5.8 0.1,10 -6.3,12.1 -1.7,0.5 -1.4,1.7 0.3,1.2 2.1,-0.7 5,-1.3 6.6,-3 2.4,-2.6 2.4,-6.2 2.4,-9.5 -0.2,-10.3 -1.4,-21.6 -3.5,-31.7 -0.2,-0.9 -3.1,-0.1 -2.9,0.7 l 0,0 z"
   id="path140"
   style="fill:#c3c2c2" />
		</g>
	</g>
</svg>