<?xml version="1.0" encoding="UTF-8" standalone="no"?>
<svg
   xmlns:ns="&amp;ns_sfw;"
   xmlns:dc="http://purl.org/dc/elements/1.1/"
   xmlns:cc="http://creativecommons.org/ns#"
   xmlns:rdf="http://www.w3.org/1999/02/22-rdf-syntax-ns#"
   xmlns:svg="http://www.w3.org/2000/svg"
   xmlns="http://www.w3.org/2000/svg"
   id="svg2"
   xml:space="preserve"
   enable-background="new 0 0 1313 1408.9"
   viewBox="0 0 248.51567 244.4194"
   height="244.4194"
   width="248.51567"
   y="0px"
   x="0px"
   version="1.1"><defs
   id="defs186">
	
	
	
	
	
	
	
	
	
	
	
	
	
	
	
	
	
	
	
	
	
	
	
	
	
	
	
	
	
	
	
	
	
	
	
	
	
	
	
	
	
</defs>
<metadata
   id="metadata4">
	<ns:sfw>
		<ns:slices />
		<ns:sliceSourceBounds
   bottomLeftOrigin="true"
   y="-6952.5"
   x="-6438.9"
   height="10076.6"
   width="13558.7" />
	</ns:sfw>
<rdf:RDF><cc:Work
     rdf:about=""><dc:format>image/svg+xml</dc:format><dc:type
       rdf:resource="http://purl.org/dc/dcmitype/StillImage" /><dc:title></dc:title></cc:Work></rdf:RDF></metadata>
<g
   transform="translate(-202.2,-224.3806)"
   id="Capa_2">
</g>
<path
   d="m 563.8,1010.9194 c 1.4,-0.3 2.5,-0.5 4.5,-0.7 l 0.4,-1.1 c -3.5,0 -13.1,0 -17.6,1.4 -0.1,0.9 -0.2,1.7 -0.3,2.5 8,-1.1 11,-1.7 13,-2.1 z"
   id="path8"
   style="fill:none" /><path
   d="m 570.2,1010.5194 c 2.2,0.7 6,2.2 7.9,5.4 0.2,0.3 0.3,0.6 0.4,0.8 0,-0.1 0,-0.2 -0.1,-0.2 -0.6,-2.7 -3.4,-5.1 -7.9,-7.1 l -0.3,1.1 z"
   id="path10"
   style="fill:none" /><path
   d="m 581.8,971.7194 c -3.4,5.2 -3.5,10.3 -3.5,11 2.5,0 4.9,0.2 7.2,0.7 0,-0.1 0,-0.2 0,-0.4 -0.1,-1.9 -0.4,-7.5 5.3,-11.8 2.5,-1.9 4.9,-5.8 6,-7.8 -1.9,-0.8 -3.9,-1.5 -6.1,-2.2 -1.8,-0.5 -3.6,-1 -5.4,-1.3 0.1,2.1 -0.3,7 -3.5,11.8 z"
   id="path12"
   style="fill:none" /><path
   d="m 591.9,972.8194 c -4.9,3.7 -4.6,8.4 -4.5,10.2 0,0.4 0,0.7 0,0.9 1.9,0.5 3.7,1.2 5.2,2.1 0.2,-0.9 0.4,-2 0.7,-3.1 1.1,-4.7 5.7,-7.7 9.7,-10.3 1.8,-1.1 3.5,-2.2 4.8,-3.4 -1.2,-0.8 -4.5,-2.9 -9.2,-5 -1.2,2.1 -3.8,6.4 -6.7,8.6 z"
   id="path14"
   style="fill:none" /><path
   d="m 576.2,1004.7194 c 1.3,0.9 3.3,2.3 5.1,4.2 1.6,1.6 2.8,3.3 3.6,4.9 0,-0.2 -0.1,-0.4 -0.1,-0.7 -0.7,-3.4 -3.3,-6.6 -7.8,-9.5 l -0.8,1.1 z"
   id="path16"
   style="fill:none" /><path
   d="m 562.1,973.5194 c 0,1 -0.1,2 -0.1,3.1 -0.2,3.4 -0.5,7.2 1.4,9.4 1.7,-0.8 3.3,-1.4 4.8,-1.9 -0.6,-2.9 -0.7,-8.9 1.2,-12.7 1.9,-3.8 0.9,-9.7 0.5,-11.5 -4.7,0.9 -9.1,2.7 -13.2,5.5 1.6,1.3 5.3,4.7 5.4,8.1 z"
   id="path18"
   style="fill:none" /><path
   d="m 580.3,970.6194 c 3.1,-4.7 3.2,-9.6 3.2,-10.9 -4.1,-0.6 -8,-0.6 -11.7,-0.1 0.4,2.1 1.4,8.4 -0.7,12.7 -1.7,3.5 -1.4,9 -1,11.4 2.1,-0.5 4.2,-0.8 6.4,-0.9 -0.1,-0.9 0,-6.5 3.8,-12.2 z"
   id="path20"
   style="fill:none" /><path
   d="m 594.7,1005.4194 0.7,-0.8 -6,-11.2 c -0.6,-0.2 -1.2,-0.4 -1.9,-0.5 1.9,3.8 5.1,10.1 7.2,12.5 z"
   id="path22"
   style="fill:none" /><path
   d="m 574.5,1003.7194 0.7,-0.9 c -3.6,-1.2 -14.3,-4.4 -18.4,-3.9 -0.4,0.1 -0.8,-0.1 -0.9,-0.5 -0.4,0.4 -0.8,0.9 -1.2,1.4 4,0.9 16.1,3.2 19.8,3.9 z"
   id="path24"
   style="fill:none" /><path
   d="m 585.9,1005.6194 0.7,-0.6 c -3.7,-4.6 -14.9,-12.9 -15.1,-13 -0.1,-0.1 -0.1,-0.1 -0.2,-0.2 -0.4,0 -0.8,0.1 -1.3,0.2 4.9,4.6 13.5,11.7 15.9,13.6 z"
   id="path26"
   style="fill:none" /><path
   d="m 596.4,1006.4194 c 3.1,1.3 10.8,5.1 15.4,10.7 -2.7,-4.2 -7.8,-8 -14.9,-11.1 l -0.5,0.4 z"
   id="path28"
   style="fill:none" /><path
   d="m 587.6,1006.7194 c 4.8,2.9 7.8,6.8 9.6,9.8 -1.6,-5.8 -7.3,-9.2 -9.1,-10.2 l -0.5,0.4 z"
   id="path30"
   style="fill:none" /><path
   d="m 586.1,989.9194 c 1.4,0.3 3.9,0.8 6,1.7 -0.1,-0.8 -0.1,-1.7 0,-2.7 -4.1,-2.9 -13.2,-4.8 -22.1,-2.5 -3.7,0.9 -8.3,2.9 -11.9,6.8 2.9,-1.8 6.6,-3.1 11.4,-3.8 7.1,-1 13.4,-0.1 16.6,0.5 z"
   id="path32"
   style="fill:none" /><path
   d="m 619.2,1009.6194 c -0.3,-0.1 -0.5,-0.3 -0.6,-0.6 -2.5,-0.4 -4.7,-0.8 -6.8,-1.2 1.1,1.5 4.2,3.9 12.2,5.9 10.8,2.7 18.1,5.1 20.7,6 0.1,-0.4 0.1,-0.9 0,-1.2 -2.8,-0.9 -17.5,-5.7 -25.5,-8.9 z"
   id="path34"
   style="fill:none" /><path
   d="m 143,174.6194 c 0,0 -7,-10 -30.7,-13.8 -12.3,-2 -19.2,-6.3 -44,1.3 l 7.3,11.9 67.4,0.6 z"
   id="path76"
   style="fill:#b2b2b2" /><path
   d="m 131.9,222.6194 c 0,0 -3.9,18.6 -20.2,16.2 -14.4,-2.1 -14.4,5.6 -26.6,5.6 l 0.7,-17.2 46.1,-4.6 z"
   id="path78"
   style="fill:#b2b2b2" /><path
   d="m 61,196.5194 c 0,0 -7.3,-13.4 -27.1,-21.9 -19.7,-8.4 -33.9,-5.6 -33.9,-5.6 0,0 19.9,1.1 30.5,28.2 0,0 -8,16.1 -20.5,35.5 0,0 14.2,-6.6 21.4,-6.5 26,0.4 25.8,-19.2 29.6,-29.7 z"
   id="path80"
   style="fill:#b2b2b2" /><path
   d="m 188.7,202.0194 c 0,0 -21.2,-32.4 -75.7,-32.9 -54.5,-0.5 -70.7,27.3 -70.7,27.3 0,0 14.5,37.1 72.3,36.4 45.1,-0.6 74,-29.8 74,-29.8"
   id="path82"
   style="fill:#b9b59b" /><path
   d="m 113,169.0194 c 15.8,0.2 28.7,3 39.2,6.9 -4.2,2.4 -7.8,5.9 -10.4,10.1 -2.9,4.8 -3.8,9 -4.1,14.5 -0.3,5.8 1.5,9.4 3.8,14.5 1.3,2.2 2.8,4.2 4.5,5.9 1.8,1.8 3.7,3.3 5.7,4.5 -10.5,4 -23,7 -37.1,7.2 -57.8,0.7 -72.3,-36.4 -72.3,-36.4 0,0 16.3,-27.7 70.7,-27.2 z"
   id="path84"
   style="fill:#544842" /><path
   d="m 124.3,208.9194 c 0,0 -15.2,8.5 -25,8.6 -9.9,0 -15.1,2 -15.1,2 l 8.7,-8.6 31.4,-2 z"
   id="path86"
   style="fill:#b2b2b2" /><g
   transform="translate(-202.2,-224.3806)"
   id="g88">
		
			<line
   stroke-miterlimit="10"
   x1="355.70001"
   y1="414"
   x2="352.60001"
   y2="425.39999"
   id="line90"
   style="fill:none;stroke:#010202;stroke-width:5.06389999;stroke-linecap:round;stroke-linejoin:round;stroke-miterlimit:10" />
		
			<line
   stroke-miterlimit="10"
   x1="359.89999"
   y1="421.20001"
   x2="348.5"
   y2="418.10001"
   id="line92"
   style="fill:none;stroke:#010202;stroke-width:5.06389999;stroke-linecap:round;stroke-linejoin:round;stroke-miterlimit:10" />
	</g><g
   transform="translate(-202.2,-224.3806)"
   id="g94">
		<g
   id="g96">
			<path
   d="m 283.3,370.1 c -0.1,-4.4 -0.2,-9.4 -2.3,-13.3 -3.9,-7.2 -11.5,-12.7 -16.9,-18.8 -3.3,-3.8 -6.4,-6.5 -6.2,-12 0.1,-3.4 2,-6.5 3.6,-9.5 2.6,-4.9 5.4,-9.7 8.1,-14.5 4.6,-8 10.2,-15.5 9.8,-25.1 -0.5,-11 -5,-24.1 -12,-32.7 -0.8,-1 -3.6,0.1 -2.7,1.3 7.5,9.1 12.2,23.6 11.8,35.4 -0.1,3.8 -1.9,6.8 -3.7,10.1 -2.7,5 -5.6,10 -8.4,14.9 -4.9,8.6 -13.7,19.7 -6.7,29.3 4.7,6.5 11.3,11.7 16.7,17.6 4.8,5.2 5.8,10.5 5.9,17.4 0.1,1.7 3,1.2 3,-0.1 l 0,0 z"
   id="path98"
   style="fill:#b2b2b2" />
		</g>
	</g><g
   transform="translate(-202.2,-224.3806)"
   id="g100">
		<g
   id="g102">
			<path
   d="m 325.9,377 c -0.5,-7.7 -7.9,-11.3 -11.1,-17.7 -1.8,-3.6 -2.1,-8 -1.6,-11.9 0.8,-5.8 6.2,-7.6 10.6,-10.3 5.7,-3.4 10.6,-6.7 10.4,-14 -0.1,-3.4 -1.3,-6.8 -2,-10.1 -1.1,-5 -0.3,-9.8 2.1,-14.3 4,-7.6 13.1,-9.3 20.1,-13 6.8,-3.6 13.8,-9.6 19,-15.2 5.8,-6.2 8.9,-15.3 9.7,-23.6 0.7,-7.2 1.1,-15.6 -2.5,-22.1 -0.6,-1 -3.3,0 -2.9,0.8 3.9,7 3.1,15.8 2.4,23.5 -1,10.4 -6.7,19.6 -14.6,26.1 -3.4,2.7 -6.7,5.7 -10.2,8.1 -3.7,2.6 -8.6,3.8 -12.6,5.9 -6,3 -10.3,7 -12.7,13.3 -2.5,6.8 0.4,13.3 1.4,20 1.6,10.9 -10.6,12.5 -16.9,18 -5.2,4.7 -5,11.9 -3,18.1 2.4,7.3 11,10.7 11.5,18.9 0.1,1.2 3,0.6 2.9,-0.5 l 0,0 z"
   id="path104"
   style="fill:#b2b2b2" />
		</g>
	</g><g
   transform="translate(-202.2,-224.3806)"
   id="g106">
		<g
   id="g108">
			<path
   d="m 360,380.5 c -4,-7.3 -7.4,-13.8 -4.9,-22.4 1.2,-4 4.2,-7.7 8.5,-7.8 3.2,-0.1 6.3,-0.3 9.4,-1 14.7,-3.5 19.7,-15.3 24.6,-28.3 1.2,-3.2 2.5,-6.3 4.9,-8.9 4.7,-5 13.1,-4.2 19.3,-4.4 5,-0.2 9.9,-1.6 13.8,-4.8 5.5,-4.5 9.1,-10.6 11.6,-17.2 2.5,-6.6 4.6,-13.2 2.9,-20.2 -0.2,-0.7 -3.1,0 -2.9,0.8 1.8,7.4 -0.8,14.6 -3.5,21.5 -3.7,9.6 -11,18.7 -22.1,18.7 -6.2,0 -12.2,0.5 -17.9,3.1 -5.5,2.5 -7.6,7.8 -9.6,13.1 -2.9,7.6 -5.4,14.1 -11.1,20.3 -6.5,7.1 -15.3,4.5 -23.3,6.8 -4.3,1.2 -6.8,6.3 -8,10.2 -2.3,8 1.5,14.8 5.2,21.4 0.6,0.7 3.4,-0.4 3.1,-0.9 l 0,0 z"
   id="path110"
   style="fill:#b2b2b2" />
		</g>
	</g><g
   transform="translate(-202.2,-224.3806)"
   id="g172">
		<path
   d="m 336.2,251.1 c -0.2,-0.2 -0.3,-0.3 -0.4,-0.3 -0.2,0 -0.3,0 -0.5,0.2 -0.4,0.2 -0.6,0.3 -0.7,0.4 -0.1,0 -0.4,0.1 -0.9,0.2 -0.6,0.2 -1,0.2 -1.3,0.3 -0.6,0.2 -1.2,0.5 -1.9,1 -0.5,0.4 -1.1,0.9 -1.9,1.7 -1,0.9 -1.9,1.9 -2.7,3 -0.5,0.7 -0.9,1.2 -1.2,1.6 -1,-1.1 -2.5,-1.7 -4.4,-1.7 -0.6,0 -1,0 -1.3,0.1 -0.2,0 -0.6,0.1 -1.1,0.3 -0.2,-0.4 -0.3,-0.6 -0.3,-0.7 -0.1,-0.3 -0.3,-0.6 -0.5,-0.8 -0.1,-0.2 -0.2,-0.3 -0.3,-0.4 0,0 -0.2,-0.1 -0.4,-0.3 -0.6,-0.4 -0.9,-0.7 -1,-0.8 0,-0.1 -0.2,-0.5 -0.5,-1.3 -0.2,-0.6 -0.5,-1.1 -0.8,-1.5 -0.1,-0.2 -0.2,-0.4 -0.4,-0.7 -0.1,-0.3 -0.2,-0.5 -0.3,-0.7 -0.3,-0.6 -0.7,-1.1 -1.3,-1.5 -0.3,-0.2 -0.7,-0.5 -1,-0.8 -0.5,-0.6 -1.1,-0.8 -1.5,-0.8 -0.2,0 -0.4,0.1 -0.5,0.1 -0.1,0.2 -0.3,0.6 -0.6,1.1 -0.2,0.3 -0.3,0.5 -0.4,0.7 -0.2,0.4 -0.2,1.3 -0.2,2.7 0,1 0.4,3.1 1.1,6.3 0.3,1.2 0.6,2.4 0.8,3.5 0.1,0.4 0.2,0.8 0.3,1.1 l 0,0 0,0 c -0.2,-0.2 -0.4,-0.6 -0.6,-1 0,0 0,0 0,0 0,0 0,-0.1 0,-0.1 l 0,0 c 0,0.5 0.2,1.1 0.6,2 0.2,0.7 0.4,1.2 0.5,1.6 l 0,0 c 0,0 0,0.1 0,0.1 0,0 -0.1,-0.1 -0.1,-0.1 -0.4,-0.2 -0.6,-0.4 -0.7,-0.4 -0.5,-0.3 -1,-0.4 -1.5,-0.4 0,0 0,0 0,0 -0.1,0 -0.2,0 -0.3,0 -0.4,0 -0.8,0.1 -1.5,0.2 -0.8,0.1 -1.5,0.2 -2,0.3 -0.1,0 -0.4,0.1 -0.8,0.1 -0.4,0 -0.7,0.1 -0.9,0.1 -0.5,0 -0.8,0.1 -0.9,0.2 0,0 -0.1,0 -0.1,0.1 l 0,0 c 0,0 0,0 0,0 -0.1,0 -0.1,0 -0.1,-0.1 0,0 0,0 0,0 -0.5,-0.2 -1.1,-0.4 -1.6,-0.6 -0.1,0 -0.3,-0.1 -0.6,-0.2 -0.1,0 -0.1,0 -0.2,-0.1 -0.1,0 -0.2,-0.1 -0.2,-0.1 -0.2,-0.3 -0.4,-0.4 -0.6,-0.4 -0.1,0 -0.1,0 -0.1,0 l 0,0 c 0,0 0,0 0,0 0,0 0,0 0,0 0,0 0,0 0,0 l 0,0 c -0.1,0 -0.2,0 -0.3,-0.1 -0.1,0 -0.1,-0.1 -0.2,-0.2 -0.1,-0.1 -0.2,-0.2 -0.2,-0.3 0,0.1 -0.1,0.1 -0.1,0.2 -0.3,-0.3 -0.6,-0.4 -0.7,-0.5 0,0 -0.2,-0.1 -0.3,-0.2 -0.1,-0.1 -0.3,-0.1 -0.4,0 0,-0.1 -0.1,-0.2 -0.3,-0.2 -0.2,0 -0.3,-0.1 -0.4,-0.3 0,0 -0.2,-0.1 -0.6,-0.4 0,0.2 -0.1,0.2 -0.2,0.2 l 0,0.2 c 0,0 0.1,0 0.3,0.1 0.2,0 0.3,0.1 0.4,0.2 0,0 0.1,0.1 0.3,0.2 0.1,0.1 0.2,0.2 0.1,0.3 0.1,0 0.2,0 0.4,0 0.2,0 0.3,0.1 0.3,0.2 0,0 0,0.1 -0.1,0.2 0,0 0.1,0 0.1,0 0,0 0.1,0 0.2,0 0.1,0 0.2,0 0.4,0.1 0.2,0.1 0.2,0.2 0.3,0.2 0,0 -0.1,0 -0.2,0.1 l 0,0.1 c 0.4,-0.1 0.7,-0.1 0.9,0.1 0.1,0 0.1,0.1 0.3,0.2 0,0 0,0 0,0 0.1,0.1 0.2,0.2 0.3,0.2 l -0.1,0 0,0 0,0.1 0,0 c 0.1,0 0.4,0 0.7,0.1 0.2,0.1 0.5,0.2 0.8,0.3 l 0,0 c 0,0 0.1,0 0.2,0.1 0.7,0.3 1.3,0.6 1.6,0.8 0,0 0.1,0.1 0.1,0.1 0.2,-0.1 0.5,-0.1 0.9,0 0.2,0 0.8,0 1.7,-0.2 l 0.1,0 c 0,0 0,0 0,0 l 0,0 c 0,0.2 -0.1,0.4 -0.3,0.6 l 0,0 c 0,0 0,0 0,0 0.2,-0.2 0.4,-0.4 0.5,-0.6 0.1,-0.1 0.3,-0.2 0.5,-0.2 0.1,0 0.3,0 0.6,0 0.1,0 0.5,-0.1 1.2,-0.3 0.3,-0.1 0.7,-0.2 1,-0.2 0.1,0 0.2,0 0.3,0 0.4,0 0.6,0.1 0.7,0.3 0,0.1 0.1,0.2 0.1,0.3 0,0.1 0.1,0.2 0.2,0.3 0,0 0.1,0.2 0.1,0.4 0,0 0,0.1 0.1,0.1 0,0.1 0,0.2 0,0.3 0,0.1 0,0.2 0,0.3 0,0 0,0.1 0,0.1 0,0.2 0.1,0.3 0.1,0.3 0,0 0,0 0,0 l 0,0 c 0,0 0,0 0,0 l -0.2,0.2 c 0,0 0.1,0.1 0.1,0.2 l 0,0 -0.1,0 -0.1,-0.1 -0.1,0.1 c 0,0 0.1,0.1 0.1,0.2 0.1,0.2 0.2,0.3 0.2,0.3 0,0.1 -0.1,0.2 -0.2,0.2 -0.1,-0.1 -0.3,-0.2 -0.5,-0.3 0,0 0,0 0,0 l -0.1,0.1 c 0.1,0.1 0.2,0.2 0.4,0.4 0.1,0.1 0.2,0.2 0.2,0.2 0,0.1 0,0.2 0,0.2 -0.1,0 -0.2,-0.1 -0.4,-0.2 0,0 0,0 -0.1,0 -0.1,-0.1 -0.3,-0.1 -0.4,-0.1 0,0 0.1,0.1 0.3,0.4 0.1,0.2 0.2,0.3 0.3,0.3 l 0,0 c -0.3,0.1 -0.6,0.4 -0.9,0.8 -0.3,0.4 -0.4,0.7 -0.4,1.1 0,0.3 0.1,0.7 0.3,1.1 -0.1,0.2 -0.2,0.5 -0.4,1 -0.2,0.5 -0.4,0.9 -0.6,1.3 -0.1,0.1 -0.2,0.5 -0.4,1.2 -0.2,0.6 -0.3,1 -0.5,1.2 l -0.8,0.5 c 0,0 -0.2,0.2 -0.6,0.5 -0.2,0.2 -0.4,0.4 -0.8,0.7 -0.3,0.3 -0.7,0.5 -1.1,0.7 -0.2,0.1 -0.5,0.2 -0.8,0.3 -0.1,0 -0.4,0.1 -0.8,0.3 -0.2,0.1 -0.3,0.1 -0.3,0.2 0,0 0,0.1 0.1,0.1 0,0 0.1,0.1 0.1,0.1 0.1,0 0.2,-0.1 0.3,-0.3 l 0,0.5 c 0,0 0,0 0.1,0 0.1,0 0.2,-0.1 0.3,-0.3 0.2,0 0.4,-0.1 0.7,-0.3 0.2,-0.1 0.3,-0.2 0.4,-0.2 0.1,0 0.2,-0.1 0.2,-0.1 0.1,0 0.1,0 0.1,0.1 l 0.7,-0.6 c 0,0.1 0,0.2 0,0.2 0.1,0 0.2,0 0.2,-0.1 0.1,-0.1 0.1,-0.2 0.2,-0.3 0.2,-0.2 0.4,-0.3 0.5,-0.4 0.1,0 0.2,-0.1 0.3,-0.2 0.1,0 0.2,-0.1 0.2,-0.2 0.2,-0.3 0.4,-0.5 0.4,-0.5 0.1,0 0.2,0.1 0.3,0.2 l 0.1,0 c 0,-0.2 0.1,-0.4 0.3,-0.6 0,-0.1 0.2,-0.2 0.4,-0.5 0.4,-0.5 0.7,-1 0.8,-1.5 0.1,-0.4 0.3,-0.9 0.5,-1.5 0.1,-0.2 0.2,-0.5 0.2,-0.7 0,0 0,0 0,0 l 0,0 c 0,0 0,0 0,0 0,0 0,0 0,0 0,0 0,0 0,0 0,0 0,0 0.1,0.1 0.4,0.4 0.8,0.9 1.3,1.5 0.5,0.6 0.9,1.1 1.1,1.3 0.4,0.4 0.8,0.7 1.2,0.8 0.5,0.2 1,0.3 1.6,0.3 0.2,0 0.4,0 0.4,-0.1 0.1,-0.1 0.2,-0.2 0.3,-0.3 0.3,0 0.4,0 0.5,0 0.2,0 0.3,-0.1 0.5,-0.2 0.1,-0.1 0.3,-0.2 0.5,-0.3 0.2,-0.1 0.4,-0.3 0.6,-0.5 0.2,-0.2 0.3,-0.3 0.4,-0.4 0.2,-0.2 0.4,-0.5 0.7,-0.7 0.4,-0.3 0.6,-0.5 0.7,-0.7 0.3,-0.3 0.5,-0.6 0.6,-1 0,-0.1 0,-0.2 0.1,-0.4 0.1,0 0.1,-0.1 0.2,-0.2 0,0 0,-0.1 0,-0.1 l 0,0 c 0,0 0,0.1 0,0.1 0,0.1 0,0.2 0,0.3 0,0.1 0,0.2 0,0.4 0,0.1 0,0.4 0.1,0.8 0,0.2 0,0.3 -0.1,0.4 0.1,0 0.2,0 0.2,0.2 0,0.1 0,0.2 0,0.4 0,0 0,0.1 0,0.1 0,0 0,0.1 0,0.2 0,0.1 0,0.2 0,0.4 0,0 0,0.1 0,0.3 0,0.2 0.1,0.4 0.2,0.4 0,0.1 -0.1,0.4 -0.1,0.8 l 0,0.4 c 0,0 0,0.1 0.1,0.1 0,0.1 0,0.1 0,0.2 0,0.1 0,0.2 0,0.4 0,0.1 0.1,0.2 0.1,0.3 0,0 0,0.1 0,0.2 0,0 0,0.1 0,0.1 0,0 0.1,0 0.1,0.1 l 0,0 c 0,0 0,-0.1 0,-0.1 0,-0.1 0,-0.1 0,-0.1 0,0 0,0 0,0 0,0.1 0.1,0.2 0.1,0.4 0,0.1 0.1,0.2 0.3,0.4 0.1,0.2 0.2,0.3 0.2,0.5 0,0.1 0.1,0.2 0.1,0.3 0,0.1 0.1,0.2 0.1,0.4 0.1,0.4 0.2,0.7 0.4,1 0.1,0.2 0.3,0.4 0.7,0.6 0.1,0.1 0.2,0.2 0.3,0.3 0.1,0.1 0.1,0.2 0.1,0.3 0,0 -0.1,0.1 -0.1,0.2 0,0.1 0,0.1 0,0.2 0,0.1 0.1,0.1 0.1,0.1 0.1,0 0.2,-0.1 0.3,-0.2 0,0 0.1,0 0.3,0 0,0 0.1,0 0.1,-0.1 0,-0.1 0,-0.1 -0.1,-0.2 -0.1,-0.1 -0.1,-0.1 -0.1,-0.1 0.1,0 0.1,0 0.1,0 0.1,0 0.1,0 0.2,0.1 0.1,0.1 0.1,0.1 0.1,0.2 0,0 0.1,-0.1 0.1,-0.1 0,-0.1 -0.1,-0.2 -0.2,-0.3 0,0 -0.1,0 -0.1,0 -0.1,0 -0.2,-0.1 -0.3,-0.1 0,0 0,0 0,0 0,-0.1 -0.1,-0.1 -0.2,-0.2 0,0 0,0 0,0 -0.1,-0.1 -0.3,-0.3 -0.5,-0.5 -0.3,-0.4 -0.6,-0.7 -0.7,-1.1 0,-0.1 -0.1,-0.3 -0.2,-0.5 -0.1,-0.1 -0.1,-0.2 -0.1,-0.3 0,-0.1 0,-0.2 -0.1,-0.3 0,-0.2 -0.1,-0.4 -0.2,-0.6 -0.1,-0.2 -0.3,-0.5 -0.4,-0.6 0.1,0 0.1,0 0.1,0 l 0,0 0,0 c 0,0 0,0 0,0 0,0 0,0 0.1,0 0.1,0.1 0.1,0.1 0.2,0.1 l 0,-0.2 c 0,0 0,-0.1 -0.1,-0.1 l 0.1,0 c 0,0 0,0 0.1,0 0,0 0.1,0 0.2,0 l 0,0 c 0,0 -0.1,-0.1 -0.2,-0.2 -0.1,-0.1 -0.2,-0.2 -0.2,-0.2 -0.1,-0.3 -0.2,-0.5 -0.2,-0.6 0,-0.2 0,-0.5 -0.1,-0.7 -0.1,-0.3 -0.1,-0.4 -0.1,-0.6 0,0 0.1,0 0.2,0 l 0,-0.1 c -0.1,0 -0.2,0 -0.3,-0.1 0,-0.1 0,-0.2 0,-0.4 0,-0.3 0,-0.5 0,-0.7 0,-0.3 0,-0.5 -0.1,-0.8 0,-0.2 -0.1,-0.5 -0.1,-0.7 -0.1,-0.2 -0.1,-0.4 -0.1,-0.6 0,-0.1 0,-0.2 0,-0.3 l 0,0.1 0,0 0,0 0,0 c 0,-0.2 0,-0.3 0,-0.3 l 0.1,0 0,0 c -0.1,-0.1 -0.2,-0.2 -0.2,-0.3 l 0.2,0 c 0,0 0.1,0 0.1,0 l 0,-0.1 c 0,0 -0.1,0 -0.1,-0.1 l 0.1,0 0.1,-0.2 c -0.2,-0.2 -0.3,-0.4 -0.3,-0.5 0,-0.2 0.1,-0.3 0.1,-0.4 l 0,0 c 0,0 0.1,0 0.2,0.1 l 0,0 c 0,0 0,0 0,0 0.1,0.1 0.2,0.2 0.2,0.2 0.2,0 0.4,0.1 0.6,0.2 l 0,-0.1 c 0,0 -0.1,-0.1 -0.3,-0.2 -0.2,-0.1 -0.3,-0.2 -0.4,-0.2 0,0 0,0 0.1,-0.1 0.1,0 0.1,-0.1 0.1,-0.1 0.1,0 0.2,0 0.3,0.1 0.1,0.1 0.2,0.2 0.3,0.2 0,0 -0.2,-0.1 -0.4,-0.3 l 0,-0.1 c 0.3,0 0.5,-0.1 0.8,-0.2 0.2,-0.1 0.4,-0.2 0.7,-0.3 0,0 0,0.1 0,0.1 0,0 0,0 0,0 0,0 0,0.1 0,0.1 0,0 0.1,0.1 0.1,0.1 0.2,0.2 0.3,0.4 0.3,0.4 l 0,-0.1 c 0,0 0,-0.1 -0.1,-0.2 -0.1,-0.1 -0.1,-0.2 -0.1,-0.3 0,0 0,-0.1 0,-0.1 0,0 0,0 0,0 0,0 0.1,-0.1 0.2,-0.1 0.1,-0.1 0.2,-0.1 0.3,-0.1 0,0 0.1,0 0.2,0.1 0,0 0.1,0 0.1,0.1 0.1,0.1 0.2,0.2 0.3,0.2 l 0,0 c 0,0 0,0 0,0 0,-0.1 -0.1,-0.2 -0.2,-0.2 -0.1,-0.1 -0.2,-0.2 -0.2,-0.2 0.1,0 0.3,-0.1 0.6,-0.3 0.3,-0.1 0.7,-0.3 1.1,-0.5 0.1,-0.1 0.3,-0.2 0.6,-0.3 0.3,-0.2 0.4,-0.3 0.5,-0.5 l 0.2,0 c 0.5,0.1 1.2,0.4 1.9,1 0.1,0 0.3,0.2 0.7,0.4 0.1,0 0.2,0.1 0.3,0.2 0,0 0,0 0,0 0.3,0.2 0.6,0.4 0.7,0.6 0,0 0,0 0,0 0,0 0,0.1 0.1,0.1 0,0 0,0 0,0.1 0.1,0.2 0.1,0.3 0.2,0.5 l 0,0 c 0,0 0,0.1 0,0.1 0,0.2 0.1,0.6 0.2,1.1 l 0,0 c 0,-0.2 0,-0.5 -0.1,-0.9 0,-0.1 0,-0.2 0,-0.3 0,-0.3 -0.1,-0.5 -0.1,-0.6 0.9,0.5 1.5,0.9 1.9,1.2 0.1,0.1 0.2,0.2 0.4,0.3 0.1,0.1 0.3,0.3 0.5,0.5 0.2,0.2 0.3,0.3 0.4,0.4 0,0 0,0 0,0 0.2,0.2 0.3,0.3 0.3,0.3 l 0,0 c -0.1,-0.2 -0.2,-0.3 -0.3,-0.4 -0.1,-0.2 -0.2,-0.3 -0.2,-0.4 0,0 0.1,0.1 0.2,0.1 0.1,0 0.1,0.1 0.2,0.1 l 0.1,0 c -0.1,-0.1 -0.2,-0.2 -0.5,-0.4 -0.2,-0.2 -0.4,-0.3 -0.5,-0.4 0,0 -0.1,0 -0.1,-0.1 0,0 0.1,0 0.1,0 0.1,0 0.1,0 0.2,0 0.1,0 0.2,0 0.3,0 0.4,0.1 0.9,0.1 1.5,0.2 0.7,0.1 1.2,0.2 1.5,0.3 0.2,0 0.3,0.1 0.4,0.2 l 0,0 c -0.1,-0.1 -0.2,-0.2 -0.3,-0.3 0,0 0,0 0,0 0,0 0,0 0,0 l 0,0 c 0.2,0 0.6,0 1.1,0.1 0,0 0.1,0 0.1,0 0,0 0.1,0.1 0.2,0.1 0.1,0.1 0.2,0.2 0.4,0.2 -0.2,-0.3 -0.4,-0.4 -0.4,-0.5 l 0,0 0.3,0 c 0.1,0 0.3,0 0.6,0 0.3,0 0.5,0.1 0.6,0.2 l 0,0 c 0,0 0,0 0,0 0,-0.1 -0.1,-0.2 -0.3,-0.3 0,0 0,0 0,0 l 0,0 c 0,0 0,0 0,0 0.2,0 0.3,0 0.5,0.1 0.2,0.1 0.4,0.2 0.6,0.3 -0.1,-0.2 -0.2,-0.3 -0.2,-0.3 0,0 0,0 0,0 l 0,0 c 0,0 0.2,0 0.4,0 0.2,0 0.4,0 0.4,0 0.1,0 0.2,0 0.2,0 0.1,0.1 0.1,0.1 0.2,0.1 0.1,-0.1 0.1,-0.2 0.1,-0.3 0,0 -0.1,-0.1 -0.1,-0.1 -0.1,0 -0.2,0 -0.2,-0.1 0,0 0,-0.1 0,-0.1 0,-0.1 0.1,-0.1 0.2,-0.1 0,0 0.1,0 0.1,0 0,0 0,0.1 0.1,0.1 l 0,0 0,0 c 0,-0.1 0,-0.2 -0.1,-0.3 0,0 -0.1,-0.1 -0.2,-0.1 -0.1,0 -0.2,0.1 -0.3,0.2 0,0 0,0 0,0.1 l -0.2,0 c -0.1,0 -0.3,0 -0.4,0 0,0 -0.1,0 -0.1,0 0,0 0,0 -0.1,0 -0.2,0 -0.3,0 -0.3,0 l 0,0 c -1,0.1 -1.5,0.1 -1.6,0.1 -0.7,-0.1 -1.4,-0.1 -1.8,-0.1 -0.3,0 -0.6,0 -0.7,0 0,0 -0.5,-0.1 -1.3,-0.2 -0.1,0 -0.3,0 -0.7,0 l 0,0 c -0.3,0 -0.4,-0.2 -0.4,-0.3 0.1,-0.1 0.2,-0.1 0.2,-0.2 -0.2,0.1 -0.4,0 -0.6,-0.1 -0.3,-0.2 -0.4,-0.3 -0.5,-0.3 -0.2,-0.2 -0.4,-0.3 -0.4,-0.3 -0.1,-0.1 -0.3,-0.1 -0.5,-0.1 0,0 0.1,-0.1 0.2,-0.2 -0.1,0 -0.4,-0.1 -0.7,-0.2 0,0 0.1,0 0.2,-0.1 l 0,0 c -0.2,0 -0.3,0 -0.5,-0.1 -0.4,-0.2 -0.6,-0.3 -0.6,-0.3 0,0 0,0 0,0 0.1,0 0.1,0 0.2,0 0,0 0,0 0,0 l 0,0 c -0.1,-0.1 -0.2,-0.2 -0.3,-0.2 0,0 0.1,0 0.2,0 -0.1,0 -0.1,0 -0.2,0 -0.3,0 -0.5,-0.1 -0.7,-0.3 -0.3,-0.2 -0.5,-0.4 -0.7,-0.5 -0.9,-0.5 -1.5,-0.7 -1.8,-0.7 -0.2,0 -0.3,0 -0.5,0 0,-0.2 0.1,-0.3 0.3,-0.4 0.1,-0.1 0.2,-0.2 0.4,-0.4 -0.2,0.1 -0.3,0.2 -0.4,0.3 -0.2,0.2 -0.3,0.4 -0.4,0.6 -0.2,0 -0.3,0 -0.5,0.1 -0.1,0 -0.2,0.1 -0.5,0.3 -0.5,0.2 -0.9,0.3 -1.2,0.3 -0.2,-0.2 -0.4,-0.3 -0.5,-0.4 0.1,0 0.1,-0.1 0.2,-0.1 0.5,-0.3 0.9,-0.6 1,-0.8 0.3,-0.5 0.6,-0.8 0.9,-1 0,0 0.4,-0.4 0.9,-1 0.2,-0.2 0.3,-0.3 0.4,-0.5 0.3,-0.3 0.5,-0.4 0.5,-0.4 0,0 0.3,0.1 0.7,0.4 0.4,0.3 0.7,0.4 0.9,0.4 0.1,0 0.5,-0.2 1.3,-0.6 0.2,-0.1 0.5,-0.2 1,-0.4 0.4,-0.2 0.7,-0.3 0.8,-0.4 0.3,-0.2 0.8,-0.5 1.7,-1 0.8,-0.4 1.1,-0.6 1.1,-0.6 0,-0.1 -0.1,-0.1 -0.2,-0.2 -0.2,-0.1 -0.2,-0.1 -0.3,-0.1 0,0 -0.2,0.1 -0.6,0.3 -0.3,0.2 -0.5,0.4 -0.6,0.4 -0.2,0.1 -0.4,0.3 -0.7,0.4 -0.4,0.1 -0.7,0.3 -0.9,0.4 -0.6,0.3 -1.1,0.5 -1.5,0.7 -0.6,0.2 -0.9,0.4 -1,0.4 0,0 -0.3,-0.1 -0.7,-0.3 -0.3,-0.1 -0.5,-0.2 -0.8,-0.3 -0.2,0 -0.3,0 -0.5,0 -0.2,0 -0.4,0 -0.5,0 0,-0.1 0,-0.2 0,-0.3 0.1,-0.3 0.1,-0.6 0.1,-0.9 0,-0.2 0,-0.4 -0.1,-0.6 0,-0.1 -0.1,-0.4 -0.1,-0.7 0.1,-0.1 0.2,-0.2 0.4,-0.3 1.3,-1 3.1,-2.8 5.5,-5.3 0.3,-0.3 0.7,-0.8 1.4,-1.3 0.5,-0.5 0.9,-0.9 1,-1.3 0.1,-0.2 0.2,-0.4 0.4,-0.7 0.2,-0.3 0.4,-0.5 0.6,-0.7 0.2,-0.1 0.4,-0.2 0.7,-0.4 0.3,-0.1 0.5,-0.2 0.6,-0.3 l 0,0 c -0.2,0.3 -0.2,0.3 -0.2,0.2 z"
   id="path174"
   style="fill:#848280" />
	</g><g
   transform="translate(-202.2,-224.3806)"
   id="g176">
		<path
   d="m 382.4,304 c -0.1,-0.2 -0.2,-0.2 -0.3,-0.2 -0.1,0 -0.2,0 -0.4,0.1 -0.3,0.1 -0.4,0.2 -0.5,0.3 -0.1,0 -0.3,0.1 -0.7,0.2 -0.4,0.1 -0.8,0.2 -1,0.2 -0.4,0.1 -0.9,0.4 -1.5,0.8 -0.4,0.3 -0.9,0.7 -1.5,1.3 -0.7,0.7 -1.4,1.5 -2.1,2.3 -0.4,0.5 -0.7,0.9 -0.9,1.2 -0.7,-0.9 -1.9,-1.3 -3.3,-1.3 -0.4,0 -0.8,0 -1,0.1 -0.1,0 -0.4,0.1 -0.8,0.2 -0.1,-0.3 -0.2,-0.5 -0.3,-0.6 -0.1,-0.2 -0.2,-0.4 -0.4,-0.6 -0.1,-0.1 -0.1,-0.2 -0.2,-0.3 0,0 -0.1,-0.1 -0.3,-0.2 -0.5,-0.3 -0.7,-0.5 -0.7,-0.6 0,-0.1 -0.2,-0.4 -0.4,-0.9 -0.2,-0.4 -0.4,-0.8 -0.6,-1.1 -0.1,-0.1 -0.2,-0.3 -0.3,-0.5 -0.1,-0.2 -0.2,-0.4 -0.2,-0.5 -0.2,-0.4 -0.5,-0.8 -1,-1.1 -0.3,-0.2 -0.5,-0.4 -0.8,-0.6 -0.4,-0.4 -0.8,-0.6 -1.1,-0.6 -0.2,0 -0.3,0 -0.4,0 -0.1,0.2 -0.2,0.5 -0.5,0.8 -0.1,0.2 -0.2,0.4 -0.3,0.5 -0.1,0.3 -0.2,1 -0.2,2 0,0.8 0.3,2.3 0.8,4.7 0.2,0.9 0.4,1.8 0.6,2.6 0.1,0.3 0.1,0.6 0.2,0.8 l 0,0 0,0 c -0.1,-0.2 -0.3,-0.4 -0.4,-0.7 0,0 0,0 0,0 0,0 0,0 0,-0.1 l 0,0 c 0,0.3 0.2,0.8 0.4,1.5 0.2,0.5 0.3,0.9 0.4,1.2 l 0,0 c 0,0 0,0 0,0.1 0,0 -0.1,0 -0.1,-0.1 -0.3,-0.2 -0.5,-0.3 -0.5,-0.3 -0.4,-0.2 -0.7,-0.3 -1.1,-0.3 0,0 0,0 0,0 -0.1,0 -0.2,0 -0.3,0 -0.3,0 -0.6,0.1 -1.1,0.1 -0.6,0.1 -1.1,0.2 -1.5,0.2 -0.1,0 -0.3,0 -0.6,0.1 -0.3,0 -0.5,0 -0.7,0.1 -0.4,0 -0.6,0.1 -0.7,0.1 0,0 0,0 0,0.1 l 0,0 c 0,0 0,0 0,0 0,0 -0.1,0 -0.1,0 0,0 0,0 0,0 -0.4,-0.2 -0.8,-0.3 -1.2,-0.5 -0.1,0 -0.2,-0.1 -0.5,-0.1 0,0 -0.1,0 -0.1,0 -0.1,0 -0.1,-0.1 -0.1,-0.1 -0.1,-0.2 -0.3,-0.3 -0.4,-0.3 0,0 -0.1,0 -0.1,0 l 0,0 c 0,0 0,0 0,0 0,0 0,0 0,0 0,0 0,0 0,0 l 0,0 c -0.1,0 -0.1,0 -0.2,-0.1 0,0 -0.1,-0.1 -0.1,-0.1 -0.1,-0.1 -0.2,-0.2 -0.2,-0.3 0,0 -0.1,0.1 -0.1,0.1 -0.2,-0.2 -0.4,-0.3 -0.6,-0.3 0,0 -0.1,-0.1 -0.3,-0.2 -0.1,-0.1 -0.2,-0.1 -0.3,0 0,-0.1 0,-0.1 -0.2,-0.2 -0.1,0 -0.3,-0.1 -0.3,-0.2 0,0 -0.2,-0.1 -0.4,-0.3 0,0.1 -0.1,0.2 -0.2,0.1 l 0,0.1 c 0,0 0.1,0 0.2,0.1 0.1,0 0.2,0.1 0.3,0.1 0,0 0.1,0.1 0.2,0.1 0.1,0.1 0.1,0.1 0.1,0.2 0.1,0 0.2,0 0.3,0 0.1,0 0.2,0.1 0.2,0.1 0,0 0,0.1 0,0.1 0,0 0,0 0.1,0 0,0 0.1,0 0.2,0 0.1,0 0.2,0 0.3,0.1 0.1,0.1 0.2,0.1 0.2,0.2 0,0 -0.1,0 -0.1,0.1 l 0,0.1 c 0.3,-0.1 0.5,-0.1 0.7,0.1 0,0 0.1,0.1 0.2,0.2 0,0 0,0 0,0 0.1,0.1 0.2,0.1 0.2,0.2 l -0.1,0 0,0 0,0 0,0 c 0.1,0 0.3,0 0.5,0.1 0.2,0.1 0.4,0.1 0.6,0.2 l 0,0 c 0,0 0.1,0 0.1,0 0.6,0.2 0.9,0.4 1.2,0.6 0,0 0.1,0.1 0.1,0.1 0.2,-0.1 0.4,-0.1 0.7,0 0.2,0 0.6,0 1.3,-0.2 l 0.1,0 c 0,0 0,0 0,0 l 0,0 c 0,0.1 -0.1,0.3 -0.2,0.5 l 0,0 c 0,0 0,0 0,0 0.1,-0.2 0.3,-0.3 0.4,-0.4 0.1,-0.1 0.2,-0.1 0.4,-0.1 0.1,0 0.2,0 0.4,0 0.1,0 0.4,-0.1 0.9,-0.2 0.3,-0.1 0.5,-0.1 0.7,-0.1 0.1,0 0.2,0 0.2,0 0.3,0 0.5,0.1 0.5,0.2 0,0 0.1,0.1 0.1,0.2 0,0.1 0.1,0.2 0.2,0.2 0,0 0.1,0.1 0.1,0.3 0,0 0,0.1 0,0.1 0,0.1 0,0.1 0,0.2 0,0.1 0,0.2 0,0.2 0,0 0,0 0,0.1 0,0.1 0.1,0.2 0.1,0.2 0,0 0,0 0,0 l 0,0 c 0,0 0,0 0,0 l -0.2,0.2 c 0,0 0.1,0.1 0.1,0.1 l 0,0 -0.1,0 -0.1,-0.1 0,0.1 c 0,0 0,0.1 0.1,0.1 0.1,0.1 0.1,0.2 0.1,0.3 0,0.1 0,0.1 -0.1,0.1 -0.1,-0.1 -0.2,-0.1 -0.3,-0.2 0,0 0,0 0,0 l -0.1,0.1 c 0.1,0 0.1,0.1 0.3,0.3 0.1,0.1 0.1,0.1 0.1,0.2 0,0.1 0,0.1 0,0.2 -0.1,0 -0.1,-0.1 -0.3,-0.1 0,0 0,0 0,0 -0.1,-0.1 -0.2,-0.1 -0.3,-0.1 0,0 0.1,0.1 0.2,0.3 0.1,0.1 0.2,0.2 0.2,0.2 l 0,0 c -0.2,0.1 -0.4,0.3 -0.6,0.6 -0.2,0.3 -0.3,0.6 -0.3,0.8 0,0.2 0.1,0.5 0.2,0.9 -0.1,0.1 -0.2,0.4 -0.3,0.7 -0.1,0.3 -0.3,0.7 -0.4,0.9 0,0.1 -0.1,0.4 -0.3,0.9 -0.1,0.4 -0.2,0.7 -0.4,0.9 l -0.6,0.4 c 0,0 -0.2,0.1 -0.4,0.4 -0.1,0.1 -0.3,0.3 -0.6,0.6 -0.2,0.2 -0.5,0.4 -0.8,0.6 -0.2,0.1 -0.4,0.2 -0.6,0.3 -0.1,0 -0.3,0.1 -0.6,0.2 -0.1,0.1 -0.2,0.1 -0.2,0.1 0,0 0,0 0,0.1 0,0 0.1,0 0.1,0 0.1,0 0.1,-0.1 0.2,-0.2 l 0,0.3 c 0,0 0,0 0.1,0 0.1,0 0.1,-0.1 0.2,-0.2 0.1,0 0.3,-0.1 0.6,-0.2 0.1,-0.1 0.2,-0.1 0.3,-0.2 0.1,0 0.1,-0.1 0.1,-0.1 0.1,0 0.1,0 0.1,0.1 l 0.5,-0.5 c 0,0.1 0,0.1 0,0.2 0.1,0 0.1,0 0.1,-0.1 0,-0.1 0.1,-0.2 0.1,-0.2 0.2,-0.2 0.3,-0.2 0.4,-0.3 0.1,0 0.2,-0.1 0.2,-0.1 0.1,0 0.1,-0.1 0.2,-0.1 0.2,-0.2 0.3,-0.4 0.3,-0.4 0.1,0 0.1,0 0.2,0.1 l 0,0 c 0,-0.1 0.1,-0.3 0.2,-0.4 0,-0.1 0.2,-0.2 0.3,-0.4 0.3,-0.4 0.5,-0.7 0.6,-1.1 0.1,-0.3 0.2,-0.7 0.4,-1.1 0.1,-0.2 0.1,-0.4 0.2,-0.6 0,0 0,0 0,0 l 0,0 c 0,0 0,0 0,0 0,0 0,0 0,0 0,0 0,0 0,0 0,0 0,0 0.1,0.1 0.3,0.3 0.6,0.7 1,1.1 0.4,0.5 0.7,0.8 0.8,0.9 0.3,0.3 0.6,0.5 0.9,0.6 0.3,0.2 0.7,0.2 1.2,0.2 0.1,0 0.3,0 0.3,-0.1 0.1,-0.1 0.1,-0.2 0.2,-0.2 0.2,0 0.3,0 0.3,0 0.1,0 0.3,-0.1 0.4,-0.2 0.1,-0.1 0.2,-0.2 0.3,-0.3 0.1,-0.1 0.3,-0.2 0.4,-0.3 0.1,-0.1 0.3,-0.3 0.3,-0.3 0.1,-0.1 0.3,-0.3 0.5,-0.6 0.3,-0.3 0.5,-0.4 0.6,-0.5 0.2,-0.2 0.4,-0.5 0.4,-0.7 0,-0.1 0,-0.2 0.1,-0.3 0,0 0.1,-0.1 0.1,-0.2 0,0 0,0 0,-0.1 l 0,0 c 0,0 0,0.1 0,0.1 0,0.1 0,0.1 0,0.2 0,0.1 0,0.2 0,0.3 0,0.1 0,0.3 0.1,0.6 0,0.1 0,0.2 -0.1,0.3 0.1,0 0.1,0 0.1,0.1 0,0.1 0,0.2 0,0.3 0,0 0,0.1 0,0.1 0,0 0,0.1 0,0.1 0,0.1 0,0.2 0,0.3 0,0 0,0.1 0,0.2 0,0.1 0.1,0.3 0.1,0.3 0,0.1 0,0.3 0,0.6 l 0,0.3 c 0,0 0,0 0.1,0.1 0,0 0,0.1 0,0.1 0,0.1 0,0.2 0,0.3 0,0.1 0,0.1 0.1,0.2 0,0 0,0.1 0,0.1 0,0 0,0 0,0.1 0,0 0.1,0 0.1,0.1 l 0,0 c 0,0 0,0 0,-0.1 0,0 0,-0.1 0,-0.1 0,0 0,0 0,0 0,0.1 0.1,0.2 0.1,0.3 0,0 0.1,0.2 0.2,0.3 0.1,0.1 0.1,0.3 0.2,0.4 0,0.1 0,0.1 0.1,0.2 0,0.1 0,0.2 0.1,0.3 0,0.3 0.1,0.5 0.3,0.8 0.1,0.1 0.2,0.3 0.5,0.5 0.1,0.1 0.2,0.2 0.2,0.2 0.1,0.1 0.1,0.1 0.1,0.2 0,0 0,0.1 0,0.1 0,0 0,0.1 0,0.1 0,0 0.1,0.1 0.1,0.1 0,0 0.1,0 0.2,-0.1 0,0 0.1,0 0.2,0 0,0 0.1,0 0.1,0 0,0 0,-0.1 -0.1,-0.1 0,0 -0.1,-0.1 -0.1,-0.1 0,0 0.1,0 0.1,0 0,0 0.1,0 0.1,0.1 0,0.1 0.1,0.1 0,0.1 0,0 0.1,0 0.1,-0.1 0,-0.1 -0.1,-0.2 -0.2,-0.2 0,0 0,0 -0.1,0 -0.1,0 -0.2,0 -0.2,-0.1 0,0 0,0 0,0 0,0 -0.1,-0.1 -0.1,-0.2 0,0 0,0 0,0 -0.1,-0.1 -0.2,-0.2 -0.4,-0.4 -0.3,-0.3 -0.4,-0.5 -0.5,-0.8 0,-0.1 -0.1,-0.2 -0.2,-0.4 0,-0.1 -0.1,-0.2 -0.1,-0.2 0,-0.1 0,-0.1 -0.1,-0.2 0,-0.1 -0.1,-0.3 -0.1,-0.4 -0.1,-0.2 -0.2,-0.3 -0.3,-0.5 0,0 0.1,0 0.1,0 l 0,0 0,0 c 0,0 0,0 0,0 0,0 0,0 0,0 0.1,0 0.1,0.1 0.1,0.1 l 0,0.2 c 0,0 0,0 -0.1,-0.1 l 0.1,0 c 0,0 0,0 0.1,0 0,0 0.1,0 0.1,0 l 0,0 c 0,0 -0.1,-0.1 -0.2,-0.1 -0.1,-0.1 -0.1,-0.1 -0.1,-0.2 -0.1,-0.3 -0.1,-0.4 -0.1,-0.5 0,-0.2 0,-0.3 0,-0.5 0,-0.2 -0.1,-0.3 -0.1,-0.4 0,0 0.1,0 0.1,0 l 0,-0.1 c -0.1,0 -0.1,0 -0.2,-0.1 0,-0.1 0,-0.2 0,-0.3 0,-0.2 0,-0.4 0,-0.5 0,-0.2 0,-0.4 -0.1,-0.6 0,-0.2 -0.1,-0.4 -0.1,-0.5 -0.1,-0.2 -0.1,-0.3 -0.1,-0.4 0,-0.1 0,-0.2 0,-0.2 l 0,-0.1 0,0 0,0 0,0 c 0,-0.1 0,-0.2 0,-0.2 l 0.1,0 0,0 c -0.1,-0.1 -0.1,-0.2 -0.1,-0.2 l 0.1,0 c 0,0 0,0 0.1,0 l 0,-0.1 c 0,0 0,0 -0.1,0 l 0.1,0 0,-0.1 c -0.2,-0.2 -0.3,-0.3 -0.3,-0.4 0,-0.1 0,-0.2 0,-0.3 l 0,0 c 0,0 0.1,0 0.1,0.1 l 0,0 c 0,0 0,0 0,0 0.1,0.1 0.1,0.1 0.2,0.1 0.2,0 0.3,0.1 0.4,0.1 l 0,-0.1 c 0,0 -0.1,-0.1 -0.2,-0.1 -0.2,-0.1 -0.3,-0.1 -0.3,-0.2 0,0 0,0 0.1,0 0,0 0.1,0 0.1,0 0,0 0.1,0 0.2,0.1 0.1,0.1 0.2,0.1 0.2,0.1 0,0 -0.1,-0.1 -0.3,-0.2 l 0,0 c 0.2,0 0.4,-0.1 0.6,-0.2 0.1,0 0.3,-0.1 0.5,-0.2 0,0 0,0 0,0.1 0,0 0,0 0,0 0,0 0,0.1 0,0.1 0,0 0,0.1 0.1,0.1 0.1,0.2 0.2,0.3 0.2,0.3 l 0,-0.1 c 0,0 0,-0.1 -0.1,-0.2 -0.1,-0.1 -0.1,-0.2 -0.1,-0.2 0,0 0,0 0,-0.1 0,0 0,0 0,0 0,0 0.1,-0.1 0.2,-0.1 0.1,-0.1 0.2,-0.1 0.2,-0.1 0,0 0.1,0 0.1,0 0,0 0.1,0 0.1,0.1 0.1,0.1 0.2,0.1 0.2,0.2 l 0,0 c 0,0 0,0 0,0 0,-0.1 -0.1,-0.1 -0.1,-0.2 -0.1,-0.1 -0.2,-0.1 -0.2,-0.1 0.1,0 0.2,-0.1 0.4,-0.2 0.2,-0.1 0.5,-0.2 0.9,-0.4 0.1,0 0.2,-0.1 0.5,-0.3 0.2,-0.1 0.3,-0.2 0.4,-0.4 l 0.1,0 c 0.4,0.1 0.9,0.3 1.4,0.8 0,0 0.2,0.1 0.5,0.3 0.1,0 0.1,0.1 0.2,0.1 0,0 0,0 0,0 0.3,0.2 0.4,0.3 0.5,0.5 0,0 0,0 0,0 0,0 0,0 0.1,0.1 0,0 0,0 0,0.1 0.1,0.1 0.1,0.2 0.1,0.4 l 0,0 c 0,0 0,0 0,0.1 0,0.2 0.1,0.4 0.1,0.8 l 0,0 c 0,-0.2 0,-0.4 -0.1,-0.7 0,-0.1 0,-0.2 0,-0.2 0,-0.2 -0.1,-0.3 -0.1,-0.4 0.7,0.4 1.1,0.7 1.5,0.9 0.1,0.1 0.2,0.1 0.3,0.2 0.1,0.1 0.2,0.2 0.3,0.4 0.1,0.1 0.2,0.2 0.3,0.3 0,0 0,0 0,0 0.1,0.1 0.2,0.2 0.3,0.2 l 0,0 c -0.1,-0.1 -0.2,-0.2 -0.2,-0.3 -0.1,-0.1 -0.2,-0.2 -0.2,-0.3 0,0 0.1,0 0.1,0.1 0,0 0.1,0 0.1,0 l 0.1,0 c -0.1,-0.1 -0.2,-0.1 -0.4,-0.3 -0.1,-0.1 -0.3,-0.2 -0.3,-0.3 0,0 -0.1,0 -0.1,-0.1 0,0 0,0 0.1,0 0,0 0.1,0 0.2,0 0.1,0 0.1,0 0.2,0 0.3,0 0.6,0.1 1.1,0.1 0.5,0.1 0.9,0.1 1.2,0.2 0.1,0 0.3,0.1 0.3,0.1 l 0,0 c -0.1,-0.1 -0.2,-0.2 -0.3,-0.2 0,0 0,0 0,0 0,0 0,0 0,0 l 0,0 c 0.2,0 0.4,0 0.9,0 0,0 0.1,0 0.1,0 0,0 0.1,0 0.1,0.1 0.1,0.1 0.2,0.1 0.3,0.2 -0.2,-0.2 -0.3,-0.3 -0.3,-0.4 l 0,0 0.2,0 c 0.1,0 0.3,0 0.5,0 0.2,0 0.3,0.1 0.5,0.2 l 0,0 c 0,0 0,0 0,0 0,-0.1 -0.1,-0.2 -0.2,-0.2 0,0 0,0 0,0 l 0,0 c 0,0 0,0 0,0 0.1,0 0.2,0 0.4,0.1 0.2,0.1 0.3,0.1 0.4,0.2 -0.1,-0.1 -0.1,-0.2 -0.2,-0.2 0,0 0,0 0,0 l 0,0 c 0,0 0.1,0 0.3,0 0.2,0 0.3,0 0.3,0 0.1,0 0.2,0 0.2,0 0,0 0.1,0.1 0.2,0.1 0.1,-0.1 0.1,-0.2 0.1,-0.2 0,0 0,-0.1 -0.1,-0.1 -0.1,0 -0.1,0 -0.1,-0.1 0,0 0,0 0,-0.1 0,-0.1 0.1,-0.1 0.1,-0.1 0,0 0.1,0 0.1,0 0,0 0,0 0.1,0.1 l 0,0 0,0 c 0,-0.1 0,-0.2 -0.1,-0.2 0,0 -0.1,0 -0.2,0 -0.1,0 -0.1,0 -0.2,0.1 0,0 0,0 0,0.1 l -0.4,0 c -0.1,0 -0.2,0 -0.3,0 0,0 0,0 -0.1,0 -0.1,0 0,0 0,0 -0.1,0 -0.2,0 -0.2,0 l 0,0 c -0.7,0.1 -1.2,0.1 -1.2,0.1 -0.6,0 -1,-0.1 -1.4,-0.1 -0.2,0 -0.4,0 -0.6,0 0,0 -0.3,0 -1,-0.1 -0.1,0 -0.3,0 -0.5,0 l 0,0 c -0.2,0 -0.3,-0.1 -0.3,-0.2 0.1,-0.1 0.1,-0.1 0.2,-0.1 -0.1,0 -0.3,0 -0.4,-0.1 -0.2,-0.1 -0.3,-0.2 -0.4,-0.2 -0.2,-0.1 -0.3,-0.2 -0.3,-0.2 -0.1,-0.1 -0.2,-0.1 -0.3,-0.1 0,0 0.1,-0.1 0.1,-0.1 -0.1,0 -0.3,-0.1 -0.5,-0.2 0,0 0.1,0 0.1,-0.1 l 0,0 c -0.1,0 -0.2,0 -0.3,-0.1 -0.3,-0.2 -0.5,-0.2 -0.5,-0.3 0,0 0,0 0,0 0,0 0.1,0 0.1,0 0,0 0,0 0,0 l 0,0 c -0.1,-0.1 -0.2,-0.1 -0.2,-0.1 0,0 0.1,0 0.1,0 0,0 -0.1,0 -0.1,0 -0.2,0 -0.4,-0.1 -0.6,-0.2 -0.2,-0.2 -0.4,-0.3 -0.6,-0.4 -0.7,-0.4 -1.1,-0.6 -1.3,-0.6 -0.1,0 -0.3,0 -0.4,0 0,-0.1 0.1,-0.2 0.2,-0.3 0.1,-0.1 0.2,-0.1 0.3,-0.3 -0.1,0.1 -0.2,0.1 -0.3,0.2 -0.2,0.1 -0.3,0.3 -0.3,0.4 -0.1,0 -0.3,0 -0.4,0.1 -0.1,0 -0.2,0.1 -0.4,0.2 -0.3,0.2 -0.7,0.3 -0.9,0.2 -0.2,-0.1 -0.3,-0.2 -0.4,-0.3 0,0 0.1,-0.1 0.1,-0.1 0.4,-0.2 0.7,-0.4 0.8,-0.6 0.3,-0.4 0.5,-0.6 0.7,-0.8 0,0 0.3,-0.3 0.7,-0.8 0.1,-0.1 0.2,-0.3 0.3,-0.3 0.2,-0.2 0.3,-0.3 0.4,-0.3 0,0 0.2,0.1 0.5,0.3 0.3,0.2 0.5,0.3 0.7,0.3 0,0 0.4,-0.2 1,-0.5 0.1,-0.1 0.4,-0.2 0.8,-0.3 0.3,-0.1 0.5,-0.2 0.6,-0.3 0.2,-0.2 0.6,-0.4 1.3,-0.7 0.6,-0.3 0.9,-0.4 0.9,-0.5 0,0 -0.1,-0.1 -0.2,-0.1 -0.1,-0.1 -0.2,-0.1 -0.2,-0.1 0,0 -0.2,0.1 -0.4,0.3 -0.2,0.2 -0.4,0.3 -0.4,0.3 -0.1,0.1 -0.3,0.2 -0.5,0.3 -0.3,0.1 -0.5,0.2 -0.7,0.3 -0.5,0.2 -0.9,0.4 -1.2,0.5 -0.4,0.2 -0.7,0.3 -0.8,0.3 0,0 -0.2,-0.1 -0.5,-0.2 -0.2,-0.1 -0.4,-0.2 -0.6,-0.2 -0.1,0 -0.3,0 -0.4,0 -0.2,0 -0.3,0 -0.4,0 0,-0.1 0,-0.2 0,-0.2 0,-0.3 0.1,-0.5 0.1,-0.7 0,-0.2 0,-0.3 -0.1,-0.4 0,-0.1 -0.1,-0.3 -0.1,-0.5 0.1,-0.1 0.2,-0.1 0.3,-0.2 1,-0.7 2.3,-2.1 4.1,-4 0.2,-0.2 0.6,-0.6 1,-1 0.4,-0.4 0.6,-0.7 0.8,-1 0.1,-0.2 0.2,-0.3 0.3,-0.5 0.2,-0.2 0.3,-0.4 0.4,-0.5 0.1,-0.1 0.3,-0.2 0.6,-0.3 0.2,-0.1 0.4,-0.2 0.5,-0.2 l 0,0 c 1.1,0.1 1.1,0.1 1.1,0 z"
   id="path178"
   style="fill:#848280" />
	</g>
</svg>