<?xml version="1.0" encoding="UTF-8" standalone="no"?>
<svg
   xmlns:dc="http://purl.org/dc/elements/1.1/"
   xmlns:cc="http://creativecommons.org/ns#"
   xmlns:rdf="http://www.w3.org/1999/02/22-rdf-syntax-ns#"
   xmlns:svg="http://www.w3.org/2000/svg"
   xmlns="http://www.w3.org/2000/svg"
   id="svg2"
   xml:space="preserve"
   enable-background="new 0 0 1920 1080"
   viewBox="0 0 1699 563.37067"
   height="563.37067"
   width="1699"
   y="0px"
   x="0px"
   version="1.1"><metadata
   id="metadata954"><rdf:RDF><cc:Work
       rdf:about=""><dc:format>image/svg+xml</dc:format><dc:type
         rdf:resource="http://purl.org/dc/dcmitype/StillImage" /><dc:title></dc:title></cc:Work></rdf:RDF></metadata><defs
   id="defs952" />
<g
   transform="translate(-127.7,-308.62936)"
   id="Capa_2">
</g>
<g
   transform="translate(-127.7,-308.62936)"
   id="Capa_1">
	<path
   style="fill:#cfeaf7"
   id="path6"
   d="m 1826.6,603.1 c -35.7,-2.2 -63.8,-74.3 -63.8,-74.3 -60.5,167.2 -127.9,0 -127.9,0 -62.8,170.5 -127.9,0 -127.9,0 -65.1,170.5 -123.2,0 -123.2,0 -69.8,170.5 -120.9,0 -120.9,0 -65.1,153.8 -127.9,0 -127.9,0 -69.8,167.2 -127.9,0 -127.9,0 l -0.5,0 c -58.1,167.2 -123.2,0 -123.2,0 -60.5,167.2 -127.9,0 -127.9,0 -62.8,170.5 -127.9,0 -127.9,0 -65.1,170.5 -123.2,0 -123.2,0 -69.8,170.5 -120.9,0 -120.9,0 -65.1,153.8 -127.9,0 -127.9,0 -69.8,167.2 -127.9,0 -127.9,0 l 0,114.3 0,79 0,149.9 1699,0 0,-268.9 z" />
	<path
   style="fill:#ef3d46"
   id="path8"
   d="m 1235.3,381.7 c 0,0 19,-62.7 25.1,-69.8 6.1,-7.1 51.1,-1.2 54.7,4.1 3.6,5.3 3.1,74.9 3.1,74.9 0,0 -52,4.7 -82.9,-9.2 z" />
	<path
   style="fill:#056780"
   id="path10"
   d="m 1317.7,343.7 c -0.4,-13.7 -1.2,-25.6 -2.6,-27.7 -3.6,-5.3 -48.6,-11.2 -54.7,-4.1 -2.1,2.4 -5.6,11.1 -9.4,21.6 11.7,4.8 35.2,12 66.7,10.2 z" />
	<path
   style="fill:#cfeaf7"
   id="path12"
   d="m 1077.2,448.6 c 0,0 57,-78.6 69.1,-87.2 12.2,-8.6 141.9,17.5 172.5,20.9 30.6,3.5 32.4,97.6 32.4,97.6 0,0 -195.4,19.5 -274,-31.3 z" />
	<path
   style="fill:#ef3d46"
   id="path14"
   d="m 998.2,441.3 c 0,0 -21.8,207.5 181,203.8 202.9,-3.7 200.6,-158.1 200.6,-158.1 0,0 -188,43.6 -381.6,-45.7 z" />
	<path
   style="fill:#056780"
   id="path16"
   d="m 1008.8,387.5 -15.5,67.3 c 0,0 184,107.7 404.8,35.4 l -2.6,-22 c 0.1,0 -162.2,43.8 -386.7,-80.7 z" />
	<path
   style="fill:#f7fbf6"
   id="path18"
   d="m 1009.2,535.2 c 3.1,9.5 7,19 11.9,28.3 61.9,26.9 178,58.5 326.3,12.8 4.5,-5.8 8.4,-11.8 11.8,-17.6 -66,20.4 -187.5,37.9 -350,-23.5 z" />
	<g
   id="g20">
		<circle
   style="fill:#056780"
   id="circle22"
   r="23.200001"
   cy="408.39999"
   cx="1166.2" />
		<circle
   style="fill:#c7e8f2"
   id="circle24"
   r="16.200001"
   cy="408.39999"
   cx="1166.2" />
	</g>
	<g
   id="g26">
		<circle
   style="fill:#056780"
   id="circle28"
   r="23.200001"
   cy="421"
   cx="1234.8" />
		<circle
   style="fill:#c7e8f2"
   id="circle30"
   r="16.200001"
   cy="421"
   cx="1234.8" />
	</g>
	<g
   id="g32">
		<circle
   style="fill:#056780"
   id="circle34"
   r="23.200001"
   cy="430.39999"
   cx="1303.3" />
		<circle
   style="fill:#c7e8f2"
   id="circle36"
   r="16.200001"
   cy="430.39999"
   cx="1303.3" />
	</g>
	<g
   id="g38">
		<g
   id="g40">
			<path
   style="fill:#05728f"
   id="path42"
   d="m 553.1,800 c 0,0 7.4,-9.2 27.8,-10.8 20.4,-1.6 29.7,14.1 29.8,21.3 0.1,5.2 -13,11.8 -28.7,11.1 -15.7,-0.7 -29.9,-15.3 -29.9,-15.3 0,0 -7.6,11.4 -13.9,9.5 -2.9,-0.9 2,-4.4 3.1,-12 1.2,-7.6 -3.9,-11.3 -1.7,-14.4 2.3,-3.2 12.3,7.4 13.5,10.6 z" />
			<path
   style="fill:#05728f"
   id="path44"
   d="m 590.4,819.8 c 0,0 -6.4,5.5 -14.3,6.4 -7.9,0.9 -10.1,-1.1 -13.3,0.1 0,0 0.8,-11 9.4,-10.6 8.6,0.4 18.2,4.1 18.2,4.1 z" />
			<path
   style="fill:#05728f"
   id="path46"
   d="m 592.5,790.9 c 0,0 -5.3,-6.2 -10.5,-5.5 -5.3,0.7 -12.6,-4.9 -18,-1.9 0,0 -1.1,5.8 3.3,9.5 4.3,3.8 25.2,-2.1 25.2,-2.1 z" />
			<path
   style="fill:#6ca2c5"
   id="path48"
   d="m 590.7,807 c 2.3,1.8 -7.1,5.8 -9.9,5.6 -2.8,-0.2 -5.2,-6.4 -4.8,-7.8 0.4,-1.4 10.8,-0.8 14.7,2.2 z" />
			<path
   style="fill:#6ca2c5"
   id="path50"
   d="m 596,800.8 c 0.9,0.1 1.5,1 1.4,1.9 -0.1,0.9 -1,1.5 -1.9,1.4 -0.9,-0.1 -1.5,-1 -1.4,-1.9 0.1,-0.9 1,-1.6 1.9,-1.4 z" />
			<path
   style="fill:#6ca2c5"
   id="path52"
   d="m 581.8,796.9 c 0,0 0.1,0 0,0 0.9,0.3 0.7,1.6 -0.1,1.6 0,0 -0.1,0 -0.1,0 -0.5,0 -1,-0.4 -0.9,-1 0,-0.6 0.6,-0.8 1.1,-0.6 z" />
			<path
   style="fill:#6ca2c5"
   id="path54"
   d="m 575.1,800 c 0,0 0.1,0 0.1,0 0.5,-0.1 1,0.4 0.9,0.9 -0.1,0.5 -0.6,0.9 -1.1,0.6 0,0 -0.1,0 -0.1,0 -0.7,-0.4 -0.6,-1.4 0.2,-1.5 z" />
			<path
   style="fill:#6ca2c5"
   id="path56"
   d="m 569.9,795.9 c 0.2,-0.9 1.6,-0.7 1.4,0.2 0,0.2 0,0.4 -0.2,0.6 -0.4,0.6 -1.1,0.5 -1.3,-0.2 0,-0.2 0.1,-0.4 0.1,-0.6 z" />
			<path
   style="fill:#6ca2c5"
   id="path58"
   d="m 562.3,801.2 c 0.4,-0.9 1.6,-0.8 2,0 0,0 0,0.1 0,0.1 0.3,0.6 -0.2,1.2 -0.8,1.3 0,0 -0.1,0 -0.1,0 -0.9,0.3 -1.5,-0.7 -1.1,-1.4 z" />
			<path
   style="fill:#6ca2c5"
   id="path60"
   d="m 574.8,812.7 c 0.2,-0.5 1.1,-0.6 1.3,0 0.1,0.3 0.1,0.7 -0.2,0.9 -0.2,0.1 -0.4,0.1 -0.6,0 -0.4,0 -0.7,-0.4 -0.5,-0.9 z" />
			<path
   style="fill:#6ca2c5"
   id="path62"
   d="m 571,803.7 c 1.2,0.2 0.9,2 -0.3,1.8 -1.2,-0.2 -0.9,-2 0.3,-1.8 z" />
			<path
   style="fill:#6ca2c5"
   id="path64"
   d="m 586.2,802 c 0,0 0.1,0.1 0.1,0.1 0.4,0.3 0.4,0.9 0,1.2 -0.4,0.3 -1,0.1 -1.2,-0.3 0,0 0,-0.1 0,-0.1 -0.3,-0.7 0.5,-1.3 1.1,-0.9 z" />
			<path
   style="fill:#6ca2c5"
   id="path66"
   d="m 577.5,792.1 0.1,0 c 1.1,0 0.8,1.6 -0.2,1.3 0,0 -0.1,0 -0.1,0 -0.6,-0.3 -0.4,-1.3 0.2,-1.3 z" />
			<path
   style="fill:#6ca2c5"
   id="path68"
   d="m 558.7,804.1 c 1,0.1 0.7,1.6 -0.2,1.5 -1,-0.1 -0.8,-1.6 0.2,-1.5 z" />
			<path
   style="fill:#6ca2c5"
   id="path70"
   d="m 562.8,810.3 c -0.1,-0.5 0.1,-1.3 0.8,-1.3 0.6,0 1.1,0.3 1.2,0.9 0,0.4 -0.1,0.9 -0.5,1.1 -0.7,0.4 -1.4,-0.1 -1.4,-0.7 -0.1,-0.1 -0.2,-0.3 -0.1,0 z" />
			<path
   style="fill:#6ca2c5"
   id="path72"
   d="m 586.8,814.5 c 0.5,0.1 0.9,0.8 0.5,1.2 -0.4,0.4 -0.9,0.2 -1.1,-0.2 -0.3,-0.3 0,-1.1 0.6,-1 z" />
			<path
   style="fill:#6ca2c5"
   id="path74"
   d="m 579.5,816.8 c 0.3,-0.4 0.7,-0.6 1.2,-0.4 0.5,0.2 0.7,0.9 0.3,1.4 -0.4,0.5 -1.3,0.4 -1.5,-0.2 -0.1,-0.3 -0.2,-0.5 0,-0.8 z" />
			<path
   style="fill:#6ca2c5"
   id="path76"
   d="m 547.5,796.9 c 1.9,1.3 3,2.8 4,4.9 0.1,0.2 -0.2,0.4 -0.3,0.2 -1.3,-1.6 -2.8,-3 -4.1,-4.7 -0.3,-0.3 0.1,-0.6 0.4,-0.4 z" />
			<path
   style="fill:#6ca2c5"
   id="path78"
   d="m 544,801.8 c 2.1,0.2 4.5,0.5 6.4,1.5 0.5,0.3 0.4,1 -0.2,1.1 -2.3,0.4 -4.7,-0.4 -6.6,-1.8 -0.4,-0.3 0,-0.8 0.4,-0.8 z" />
			<path
   style="fill:#6ca2c5"
   id="path80"
   d="m 545.7,809.9 c 0.7,-1.4 1.6,-2.8 3,-3.6 0.4,-0.2 0.8,0.2 0.5,0.6 -0.8,1.2 -2,2.2 -3.1,3.3 -0.2,0.2 -0.6,0 -0.4,-0.3 z" />
			<path
   style="fill:#6ca2c5"
   id="path82"
   d="m 569.6,822.3 c 2.9,-0.5 6.2,-0.5 9.1,-0.3 0.2,0 0.2,0.3 0,0.4 -2.8,0.8 -6.3,1.1 -9.2,0.4 -0.2,0 -0.2,-0.4 0.1,-0.5 z" />
			<path
   style="fill:#6ca2c5"
   id="path84"
   d="m 569.5,820 c 0.3,-0.1 0.5,0.5 0.1,0.6 -0.8,0.3 -1.6,0.8 -2.3,1.3 -0.7,0.5 -1.2,1.2 -1.9,1.6 -0.2,0.1 -0.4,0 -0.4,-0.2 0.5,-1.9 2.8,-2.9 4.5,-3.3 z" />
			<path
   style="fill:#6ca2c5"
   id="path86"
   d="m 577.5,787.1 c 2.3,-0.5 5.4,0.9 7.3,2.2 0.4,0.3 0.1,0.9 -0.4,0.8 -1.2,-0.2 -2.3,-0.6 -3.5,-0.9 -1.3,-0.3 -2.5,-0.5 -3.6,-1.1 -0.4,-0.4 -0.3,-0.9 0.2,-1 z" />
			<path
   style="fill:#6ca2c5"
   id="path88"
   d="m 569.2,787 c 1,0.1 1.9,0.6 2.8,0.8 0.9,0.2 1.8,0.3 2.6,0.6 0.2,0.1 0.3,0.5 0.1,0.6 -1.7,1 -4.9,0.4 -6,-1.2 -0.2,-0.3 0.1,-0.8 0.5,-0.8 z" />
		</g>
		<circle
   style="opacity:0.8;fill:#ffffff"
   id="circle90"
   r="2"
   cy="804.5"
   cx="621.09998" />
		<circle
   style="opacity:0.8;fill:#ffffff"
   id="circle92"
   r="3.3"
   cy="787.20001"
   cx="625.79999" />
		<circle
   style="opacity:0.8;fill:#ffffff"
   id="circle94"
   r="2.7"
   cy="779.20001"
   cx="640.40002" />
	</g>
	<g
   id="g96">
		<g
   id="g98">
			<path
   style="fill:#05728f"
   id="path100"
   d="m 1607.6,665.8 c 0,0 11.2,-10.3 37.7,-8.5 26.4,1.9 35.3,23.7 34.1,33 -0.9,6.6 -18.8,12.6 -38.9,8.7 -20.1,-3.9 -35.3,-25.3 -35.3,-25.3 0,0 -11.9,13.1 -19.6,9.5 -3.5,-1.7 3.4,-5.3 6.3,-14.7 2.9,-9.4 -2.8,-15.2 0.6,-18.8 3.4,-3.6 14.1,11.8 15.1,16.1 z" />
			<path
   style="fill:#05728f"
   id="path102"
   d="m 1651.5,698.4 c 0,0 -9.3,5.8 -19.5,5.5 -10.3,-0.3 -12.8,-3.4 -17.1,-2.4 0,0 3.2,-14 14,-11.8 10.8,2.2 22.6,8.7 22.6,8.7 z" />
			<path
   style="fill:#05728f"
   id="path104"
   d="m 1659.7,661.8 c 0,0 -5.6,-8.9 -12.4,-9 -6.9,-0.1 -15.1,-8.7 -22.6,-5.8 0,0 -2.5,7.3 2.4,12.8 4.8,5.5 32.6,2 32.6,2 z" />
			<path
   style="fill:#6ca2c5"
   id="path106"
   d="m 1654.3,682 c 2.6,2.7 -10.2,6 -13.7,5.2 -3.5,-0.8 -5.5,-9.2 -4.7,-10.9 0.9,-1.7 14.1,1.2 18.4,5.7 z" />
			<path
   style="fill:#6ca2c5"
   id="path108"
   d="m 1662.4,675.1 c 1.1,0.3 1.8,1.6 1.4,2.7 -0.3,1.1 -1.6,1.8 -2.7,1.4 -1.1,-0.3 -1.8,-1.6 -1.4,-2.7 0.3,-1.1 1.6,-1.8 2.7,-1.4 z" />
			<path
   style="fill:#6ca2c5"
   id="path110"
   d="m 1644.9,667.4 c 0,0 0.1,0 0.1,0.1 0.9,0.5 0.4,2.1 -0.6,2 0,0 -0.1,0 -0.1,0 -0.7,-0.1 -1.2,-0.7 -1,-1.4 0.2,-0.9 1,-1.1 1.6,-0.7 z" />
			<path
   style="fill:#6ca2c5"
   id="path112"
   d="m 1635.7,670.1 c 0,0 0.1,0 0.1,0 0.7,0 1.1,0.7 1,1.3 -0.2,0.6 -1,1 -1.5,0.6 0,0 -0.1,-0.1 -0.1,-0.1 -0.8,-0.6 -0.4,-1.8 0.5,-1.8 z" />
			<path
   style="fill:#6ca2c5"
   id="path114"
   d="m 1629.9,663.8 c 0.4,-1.1 2.1,-0.6 1.8,0.6 -0.1,0.3 -0.1,0.5 -0.3,0.8 -0.6,0.7 -1.5,0.4 -1.6,-0.5 -0.1,-0.3 0,-0.6 0.1,-0.9 z" />
			<path
   style="fill:#6ca2c5"
   id="path116"
   d="m 1619.1,669.2 c 0.7,-1 2.2,-0.7 2.5,0.4 0,0 0,0.1 0,0.1 0.2,0.8 -0.5,1.5 -1.3,1.5 -0.1,0 -0.1,0 -0.2,0 -1,0.2 -1.6,-1.1 -1,-2 z" />
			<path
   style="fill:#6ca2c5"
   id="path118"
   d="m 1632.9,686.3 c 0.4,-0.6 1.5,-0.5 1.6,0.3 0,0.4 0,0.9 -0.5,1.1 -0.2,0.1 -0.5,0.1 -0.8,-0.1 -0.3,-0.2 -0.6,-0.8 -0.3,-1.3 z" />
			<path
   style="fill:#6ca2c5"
   id="path120"
   d="m 1629.8,674 c 1.5,0.5 0.8,2.8 -0.7,2.3 -1.5,-0.4 -0.8,-2.7 0.7,-2.3 z" />
			<path
   style="fill:#6ca2c5"
   id="path122"
   d="m 1649.6,674.8 c 0,0 0.1,0.1 0.1,0.1 0.5,0.5 0.3,1.3 -0.3,1.6 -0.6,0.3 -1.3,0 -1.4,-0.7 0,-0.1 0,-0.1 0,-0.2 -0.2,-0.9 0.9,-1.5 1.6,-0.8 z" />
			<path
   style="fill:#6ca2c5"
   id="path124"
   d="m 1640.3,660.5 0.1,0 c 1.4,0.2 0.7,2.2 -0.5,1.6 0,0 -0.1,0 -0.1,-0.1 -0.6,-0.4 -0.3,-1.6 0.5,-1.5 z" />
			<path
   style="fill:#6ca2c5"
   id="path126"
   d="m 1613.9,672.2 c 1.2,0.4 0.6,2.2 -0.6,1.9 -1.1,-0.4 -0.6,-2.2 0.6,-1.9 z" />
			<path
   style="fill:#6ca2c5"
   id="path128"
   d="m 1618,680.9 c -0.1,-0.7 0.4,-1.6 1.2,-1.5 0.7,0.1 1.4,0.6 1.4,1.4 0,0.6 -0.3,1.1 -0.9,1.3 -1,0.4 -1.7,-0.3 -1.7,-1.1 0,-0.2 0,-0.4 0,-0.1 z" />
			<path
   style="fill:#6ca2c5"
   id="path130"
   d="m 1647.9,690.9 c 0.7,0.3 1,1.2 0.4,1.7 -0.6,0.5 -1.2,0.1 -1.3,-0.5 -0.4,-0.5 0.2,-1.5 0.9,-1.2 z" />
			<path
   style="fill:#6ca2c5"
   id="path132"
   d="m 1638.1,692.5 c 0.4,-0.4 1,-0.7 1.6,-0.3 0.6,0.4 0.7,1.3 0.2,1.8 -0.6,0.6 -1.7,0.3 -1.9,-0.6 -0.1,-0.4 -0.2,-0.7 0.1,-0.9 z" />
			<path
   style="fill:#6ca2c5"
   id="path134"
   d="m 1601,660.8 c 2.2,2 3.3,4.2 4.1,7 0.1,0.3 -0.3,0.4 -0.5,0.2 -1.4,-2.3 -2.9,-4.4 -4.3,-6.7 -0.2,-0.4 0.4,-0.8 0.7,-0.5 z" />
			<path
   style="fill:#6ca2c5"
   id="path136"
   d="m 1595.6,666.5 c 2.7,0.6 5.6,1.5 7.9,3.1 0.6,0.4 0.3,1.3 -0.4,1.4 -3,0.1 -6,-1.5 -8.1,-3.5 -0.5,-0.5 0.1,-1.2 0.6,-1 z" />
			<path
   style="fill:#6ca2c5"
   id="path138"
   d="m 1596.2,677.1 c 1.2,-1.6 2.6,-3.3 4.5,-4 0.5,-0.2 1,0.4 0.6,0.8 -1.3,1.4 -3,2.4 -4.5,3.6 -0.4,0.3 -0.8,0 -0.6,-0.4 z" />
			<path
   style="fill:#6ca2c5"
   id="path140"
   d="m 1624.4,697.6 c 3.8,0 8,0.6 11.7,1.4 0.3,0.1 0.2,0.5 0,0.5 -3.8,0.5 -8.2,0.1 -11.8,-1.3 -0.3,-0.1 -0.3,-0.6 0.1,-0.6 z" />
			<path
   style="fill:#6ca2c5"
   id="path142"
   d="m 1624.7,694.6 c 0.5,0 0.5,0.7 0.1,0.8 -1.1,0.3 -2.2,0.7 -3.2,1.2 -1,0.5 -1.8,1.2 -2.8,1.7 -0.2,0.1 -0.6,-0.1 -0.4,-0.4 1,-2.3 4.1,-3.1 6.3,-3.3 z" />
			<path
   style="fill:#6ca2c5"
   id="path144"
   d="m 1641.3,654 c 3,-0.1 6.8,2.1 8.9,4.2 0.4,0.4 -0.1,1.2 -0.6,1 -1.5,-0.5 -2.8,-1.2 -4.3,-1.9 -1.5,-0.7 -3.1,-1.1 -4.4,-2.1 -0.5,-0.4 -0.3,-1.2 0.4,-1.2 z" />
			<path
   style="fill:#6ca2c5"
   id="path146"
   d="m 1630.7,652.4 c 1.2,0.3 2.3,1.1 3.4,1.6 1.1,0.5 2.3,0.7 3.3,1.3 0.3,0.2 0.3,0.7 0,0.8 -2.3,0.9 -6.4,-0.4 -7.5,-2.7 -0.2,-0.6 0.2,-1.1 0.8,-1 z" />
		</g>
		<circle
   style="opacity:0.8;fill:#ffffff"
   id="circle148"
   r="2.5999999"
   cy="684.70001"
   cx="1693.7" />
		<circle
   style="opacity:0.8;fill:#ffffff"
   id="circle150"
   r="4.3000002"
   cy="663.40002"
   cx="1703" />
		<circle
   style="opacity:0.8;fill:#ffffff"
   id="circle152"
   r="3.4000001"
   cy="656"
   cx="1723.3" />
	</g>
	<g
   id="g154">
		<g
   id="g156">
			<path
   style="fill:#05728f"
   id="path158"
   d="m 670.9,636.1 c -8.7,2.9 -8.1,25.1 -8.1,25.1 0,0 -19.8,2.7 -20.7,10.8 -0.9,8.1 19.8,10.8 19.8,10.8 0,0 -5.4,19.8 0.9,22.4 6.3,2.7 19.8,-16.2 19.8,-16.2 0,0 18,13.5 24.2,7.2 6.2,-6.3 -12.6,-20.7 -12.6,-20.7 0,0 15.9,-12.4 11.7,-19.5 -2.7,-4.5 -19.8,0.3 -19.8,0.3 0,0 -6.2,-23.2 -15.2,-20.2 z" />
			<path
   style="fill:#6ca2c5"
   id="path160"
   d="m 650.2,672.9 0,0 c -0.3,-0.3 -0.7,-0.5 -1.1,-0.3 -0.1,0 -0.2,0.1 -0.3,0.1 -0.9,0.3 -0.9,1.4 0,1.8 0.1,0 0.2,0.1 0.3,0.1 0.4,0.1 0.7,0 1,-0.3 l 0.1,-0.1 c 0.4,-0.3 0.4,-1 0,-1.3 z" />
			<path
   style="fill:#6ca2c5"
   id="path162"
   d="m 656,675.9 c -1.2,0 -1.2,1.8 0,1.8 1.1,0 1.1,-1.8 0,-1.8 z" />
			<path
   style="fill:#6ca2c5"
   id="path164"
   d="m 663.2,677.1 c -1.5,0 -1.5,2.3 0,2.3 1.5,0 1.5,-2.3 0,-2.3 z" />
			<path
   style="fill:#6ca2c5"
   id="path166"
   d="m 666.5,680.6 c -0.5,0 -0.5,0.8 0,0.8 0.5,0 0.5,-0.8 0,-0.8 z" />
			<path
   style="fill:#6ca2c5"
   id="path168"
   d="m 666.5,686 c -1.7,0 -1.7,2.6 0,2.6 1.7,0 1.7,-2.6 0,-2.6 z" />
			<path
   style="fill:#6ca2c5"
   id="path170"
   d="m 665.4,695.8 c 0,0 0,-0.1 0,0 -0.4,-0.5 -1.1,-0.5 -1.5,-0.1 0,0 0,0.1 -0.1,0.1 -0.6,0.7 -0.2,1.9 0.8,1.9 1,-0.1 1.5,-1.2 0.8,-1.9 z" />
			<path
   style="fill:#6ca2c5"
   id="path172"
   d="m 669.8,695.2 c -1.8,0 -1.8,2.8 0,2.8 1.8,0 1.7,-2.8 0,-2.8 z" />
			<path
   style="fill:#6ca2c5"
   id="path174"
   d="m 674.8,690.2 c -1.6,0 -1.6,2.5 0,2.5 1.6,0 1.6,-2.5 0,-2.5 z" />
			<path
   style="fill:#6ca2c5"
   id="path176"
   d="m 680.6,685.2 c 0,0 0,-0.1 0,-0.1 -0.2,-1 -1.7,-1 -1.9,0 0,0 0,0.1 0,0.1 -0.2,0.7 0.3,1.3 1,1.3 0.7,0 1.1,-0.6 0.9,-1.3 z" />
			<path
   style="fill:#6ca2c5"
   id="path178"
   d="m 686.5,686.1 c -0.7,0 -1.3,0.9 -0.9,1.5 0,0 0.1,0.1 0.1,0.1 0.4,0.6 1.2,0.6 1.6,0 0,0 0.1,-0.1 0.1,-0.1 0.4,-0.6 -0.2,-1.5 -0.9,-1.5 z" />
			<path
   style="fill:#6ca2c5"
   id="path180"
   d="m 694.6,688.3 c -0.1,0 -0.1,0 0,0 -0.7,-0.3 -1.4,-0.2 -1.8,0.4 -0.3,0.6 -0.2,1.4 0.4,1.7 0,0 0.1,0 0.1,0 0.6,0.3 1.3,0.2 1.7,-0.4 0.3,-0.5 0.2,-1.4 -0.4,-1.7 z" />
			<path
   style="fill:#6ca2c5"
   id="path182"
   d="m 698.9,692.1 c 0,0 -0.1,0 -0.1,0 -1.1,0.2 -1.1,2 0,2.2 0,0 0.1,0 0.1,0 0.7,0.1 1.5,-0.3 1.5,-1.1 0,-0.7 -0.7,-1.2 -1.5,-1.1 z" />
			<path
   style="fill:#6ca2c5"
   id="path184"
   d="m 704.2,688.7 c -1.6,0 -1.6,2.5 0,2.5 1.6,0 1.6,-2.5 0,-2.5 z" />
			<path
   style="fill:#6ca2c5"
   id="path186"
   d="m 699.1,683 c -0.2,-0.4 -0.7,-0.7 -1.2,-0.7 -0.5,0 -1,0.3 -1.2,0.7 -0.3,0.5 -0.2,0.9 0,1.4 0,0 0,0.1 0.1,0.1 0.4,0.9 1.9,0.9 2.3,0 0,0 0,-0.1 0.1,-0.1 0.1,-0.5 0.2,-1 -0.1,-1.4 z" />
			<path
   style="fill:#6ca2c5"
   id="path188"
   d="m 691.3,679 c -1.4,0 -1.4,2.1 0,2.1 1.4,0 1.4,-2.1 0,-2.1 z" />
			<path
   style="fill:#6ca2c5"
   id="path190"
   d="m 688.3,673.2 c -1.1,0 -1.1,1.7 0,1.7 1.1,0.1 1.1,-1.7 0,-1.7 z" />
			<path
   style="fill:#6ca2c5"
   id="path192"
   d="m 695.5,667.7 c -2,0 -2,3.2 0,3.2 2,0 2,-3.2 0,-3.2 z" />
			<path
   style="fill:#6ca2c5"
   id="path194"
   d="m 701.1,662.7 c 0,0 -0.1,0 -0.1,0 -0.6,-0.2 -1.3,0.3 -1.3,1 0,0.6 0.6,1.2 1.3,1 0,0 0.1,0 0.1,0 0.9,-0.5 0.9,-1.7 0,-2 z" />
			<path
   style="fill:#6ca2c5"
   id="path196"
   d="m 702.4,657.7 c -1.1,0 -1.1,1.8 0,1.8 1.1,0 1.1,-1.8 0,-1.8 z" />
			<path
   style="fill:#6ca2c5"
   id="path198"
   d="m 695.2,657 c -0.7,0 -1.2,0.6 -1.2,1.2 0,0.7 0.6,1.2 1.2,1.2 0.6,0 1.2,-0.6 1.2,-1.2 0,-0.6 -0.5,-1.2 -1.2,-1.2 z" />
			<path
   style="fill:#6ca2c5"
   id="path200"
   d="m 688.6,659.5 c -0.7,0 -1,0.7 -0.7,1.3 l 0.1,0.1 c 0.2,0.5 1.1,0.5 1.3,0 l 0.1,-0.1 c 0.2,-0.6 -0.1,-1.3 -0.8,-1.3 z" />
			<path
   style="fill:#6ca2c5"
   id="path202"
   d="m 683.9,660.6 0,-0.1 c -0.2,-0.6 -1.1,-0.6 -1.3,0 l 0,0.1 c -0.1,0.4 0.2,0.9 0.7,0.9 0.4,0 0.7,-0.5 0.6,-0.9 z" />
			<path
   style="fill:#6ca2c5"
   id="path204"
   d="m 681.1,654.1 c -1.4,0 -1.4,2.2 0,2.2 1.4,0 1.5,-2.2 0,-2.2 z" />
			<path
   style="fill:#6ca2c5"
   id="path206"
   d="m 678.4,647 c -1,0 -1,1.5 0,1.5 1,0 1,-1.5 0,-1.5 z" />
			<path
   style="fill:#6ca2c5"
   id="path208"
   d="m 675.4,641.3 c -1.4,0 -1.4,2.1 0,2.1 1.4,0 1.4,-2.1 0,-2.1 z" />
			<path
   style="fill:#6ca2c5"
   id="path210"
   d="m 671.1,639.9 c -0.6,-0.6 -1.7,-0.2 -1.7,0.7 0,0.1 0,0.2 0,0.3 0,0.4 0.3,0.7 0.7,0.7 0.1,0 0.2,0 0.3,0 0.8,0 1.3,-1.1 0.7,-1.7 z" />
			<path
   style="fill:#6ca2c5"
   id="path212"
   d="m 668,647.7 c -1.6,0 -1.6,2.5 0,2.5 1.6,0 1.6,-2.5 0,-2.5 z" />
			<path
   style="fill:#6ca2c5"
   id="path214"
   d="m 666.8,656.7 c -1.6,0 -1.6,2.5 0,2.5 1.6,0 1.5,-2.5 0,-2.5 z" />
			<path
   style="fill:#6ca2c5"
   id="path216"
   d="m 667.3,663.6 c 0,0 -0.1,0 -0.1,-0.1 -0.5,-0.3 -1.2,0.1 -1.2,0.7 0,0.6 0.7,1 1.2,0.7 0,0 0.1,0 0.1,-0.1 0.4,-0.2 0.4,-0.9 0,-1.2 z" />
			<path
   style="fill:#6ca2c5"
   id="path218"
   d="m 659.1,666 c -0.6,-0.3 -1.3,0 -1.5,0.6 -0.4,1.1 1.3,1.8 1.9,0.8 0.2,-0.4 0,-1.1 -0.4,-1.4 z" />
			<path
   style="fill:#6ca2c5"
   id="path220"
   d="m 651.4,668.5 c -0.3,-0.4 -0.8,-0.6 -1.3,-0.3 -0.5,0.3 -0.5,0.8 -0.3,1.3 0.1,0.3 0.3,0.4 0.5,0.6 0.4,0.2 1.1,0.1 1.2,-0.5 0.2,-0.5 0.2,-0.7 -0.1,-1.1 z" />
		</g>
		<circle
   style="opacity:0.8;fill:#ffffff"
   id="circle222"
   r="4"
   cy="660.29999"
   cx="634.59998" />
		<circle
   style="opacity:0.8;fill:#ffffff"
   id="circle224"
   r="4"
   cy="627.59998"
   cx="642.59998" />
		<circle
   style="opacity:0.8;fill:#ffffff"
   id="circle226"
   r="2"
   cy="619.59998"
   cx="676" />
	</g>
	<g
   id="g228">
		<g
   id="g230">
			<path
   style="fill:#05728f"
   id="path232"
   d="m 987.1,688.7 c 0,0 -7.3,-12.9 -32.4,-19.1 -25,-6.2 -39.8,11.4 -41.4,20.3 -1.2,6.4 13.7,17.3 33.4,19.7 19.7,2.4 40.3,-12.8 40.3,-12.8 0,0 7.1,15.7 15.3,14.6 3.7,-0.5 -1.5,-5.9 -1.4,-15.5 0.1,-9.6 7.1,-13.3 5,-17.6 -2.1,-4.3 -16.6,6.7 -18.8,10.4 z" />
			<path
   style="fill:#05728f"
   id="path234"
   d="m 936.6,705.7 c 0,0 6.8,8.1 16.4,10.9 9.6,2.8 12.8,0.7 16.5,2.9 0,0 1.3,-13.9 -9.4,-15.1 -10.7,-1.2 -23.5,1.3 -23.5,1.3 z" />
			<path
   style="fill:#05728f"
   id="path236"
   d="m 940,669.4 c 0,0 7.8,-6.6 14.2,-4.6 6.4,2 16.6,-3.5 22.7,1.4 0,0 0.2,7.5 -6,11.1 -6.2,3.7 -30.9,-7.9 -30.9,-7.9 z" />
			<path
   style="fill:#6ca2c5"
   id="path238"
   d="m 939,689.7 c -3.3,1.7 7.6,8.7 11.1,9 3.5,0.3 7.8,-6.8 7.6,-8.7 -0.3,-1.9 -13.4,-3.2 -18.7,-0.3 z" />
			<path
   style="fill:#6ca2c5"
   id="path240"
   d="m 933.6,680.8 c -1.1,0 -2.1,0.9 -2.1,2.1 0,1.1 0.9,2.1 2.1,2.1 1.1,0 2.1,-0.9 2.1,-2.1 -0.1,-1.1 -1,-2 -2.1,-2.1 z" />
			<path
   style="fill:#6ca2c5"
   id="path242"
   d="m 952,679 c 0,0 -0.1,0 -0.1,0 -1,0.2 -1,1.8 0,2 0,0 0.1,0 0.1,0 0.7,0.1 1.4,-0.3 1.4,-1 0,-0.7 -0.7,-1.2 -1.4,-1 z" />
			<path
   style="fill:#6ca2c5"
   id="path244"
   d="m 959.7,684.2 c 0,0 -0.1,0 -0.1,0 -0.6,-0.2 -1.3,0.3 -1.3,1 0,0.6 0.6,1.2 1.3,1 0,0 0.1,0 0.1,0 0.9,-0.4 0.9,-1.6 0,-2 z" />
			<path
   style="fill:#6ca2c5"
   id="path246"
   d="m 967,680.2 c 0,-1.2 -1.8,-1.2 -1.8,0 0,0.3 0,0.5 0.1,0.8 0.3,0.8 1.3,0.8 1.6,0 0.1,-0.3 0.1,-0.5 0.1,-0.8 z" />
			<path
   style="fill:#6ca2c5"
   id="path248"
   d="m 975.4,688.4 c -0.3,-1.2 -1.8,-1.3 -2.5,-0.4 0,0 -0.1,0.1 -0.1,0.1 -0.5,0.7 0,1.6 0.7,1.8 0.1,0 0.1,0 0.2,0.1 1,0.4 2,-0.6 1.7,-1.6 z" />
			<path
   style="fill:#6ca2c5"
   id="path250"
   d="m 957.5,700.1 c -0.2,-0.7 -1.3,-1 -1.6,-0.2 -0.2,0.4 -0.3,0.9 0.1,1.2 0.2,0.2 0.5,0.2 0.7,0.1 0.5,-0.1 0.9,-0.5 0.8,-1.1 z" />
			<path
   style="fill:#6ca2c5"
   id="path252"
   d="m 964.1,689.7 c -1.5,0 -1.5,2.3 0,2.3 1.5,0 1.5,-2.3 0,-2.3 z" />
			<path
   style="fill:#6ca2c5"
   id="path254"
   d="m 945.5,684.5 c -0.1,0 -0.1,0.1 -0.2,0.1 -0.6,0.3 -0.6,1.1 -0.2,1.5 0.4,0.4 1.2,0.4 1.5,-0.2 0,-0.1 0.1,-0.1 0.1,-0.2 0.5,-0.8 -0.4,-1.7 -1.2,-1.2 z" />
			<path
   style="fill:#6ca2c5"
   id="path256"
   d="m 958.4,674 -0.1,0 c -1.3,-0.3 -1.4,1.8 0,1.6 0,0 0.1,0 0.1,0 0.7,-0.2 0.7,-1.5 0,-1.6 z" />
			<path
   style="fill:#6ca2c5"
   id="path258"
   d="m 979.3,692.8 c -1.2,0 -1.3,1.9 0,1.9 1.3,0 1.2,-1.9 0,-1.9 z" />
			<path
   style="fill:#6ca2c5"
   id="path260"
   d="m 972.9,699.6 c 0.3,-0.6 0.1,-1.6 -0.7,-1.7 -0.7,-0.1 -1.5,0.1 -1.7,0.9 -0.1,0.5 0,1.2 0.4,1.5 0.8,0.6 1.7,0.2 1.9,-0.6 0.1,-0.2 0.2,-0.4 0.1,-0.1 z" />
			<path
   style="fill:#6ca2c5"
   id="path262"
   d="m 942.2,699.9 c -0.7,0.1 -1.3,0.8 -0.8,1.5 0.4,0.6 1.1,0.4 1.3,0 0.5,-0.5 0.3,-1.6 -0.5,-1.5 z" />
			<path
   style="fill:#6ca2c5"
   id="path264"
   d="m 950.8,704.2 c -0.3,-0.5 -0.7,-0.9 -1.4,-0.8 -0.7,0.2 -1,1 -0.7,1.6 0.4,0.7 1.5,0.8 1.9,0 0.2,-0.2 0.4,-0.4 0.2,-0.8 z" />
			<path
   style="fill:#6ca2c5"
   id="path266"
   d="m 994.7,686.1 c -2.6,1.2 -4.3,2.9 -5.9,5.2 -0.2,0.2 0.2,0.5 0.4,0.3 2,-1.7 4.1,-3.2 6,-4.9 0.3,-0.3 -0.2,-0.8 -0.5,-0.6 z" />
			<path
   style="fill:#6ca2c5"
   id="path268"
   d="m 998,692.9 c -2.7,-0.2 -5.6,-0.3 -8.2,0.5 -0.7,0.2 -0.7,1.1 0,1.4 2.8,1 6,0.4 8.5,-0.8 0.5,-0.3 0.2,-1 -0.3,-1.1 z" />
			<path
   style="fill:#6ca2c5"
   id="path270"
   d="m 994.2,702.6 c -0.6,-1.8 -1.4,-3.8 -2.9,-5.1 -0.4,-0.4 -1,0.1 -0.8,0.6 0.8,1.7 2.1,3.2 3.1,4.7 0.2,0.4 0.7,0.2 0.6,-0.2 z" />
			<path
   style="fill:#6ca2c5"
   id="path272"
   d="m 962,713.1 c -3.5,-1.2 -7.6,-1.8 -11.2,-2.2 -0.3,0 -0.4,0.4 -0.1,0.5 3.3,1.6 7.6,2.6 11.3,2.3 0.2,0 0.3,-0.5 0,-0.6 z" />
			<path
   style="fill:#6ca2c5"
   id="path274"
   d="m 962.6,710.2 c -0.4,-0.2 -0.7,0.5 -0.3,0.7 1,0.6 1.8,1.3 2.6,2.1 0.8,0.8 1.3,1.7 2.1,2.4 0.2,0.1 0.5,0.1 0.5,-0.2 -0.3,-2.4 -2.9,-4.1 -4.9,-5 z" />
			<path
   style="fill:#6ca2c5"
   id="path276"
   d="m 959.4,667.7 c -2.8,-1 -6.9,0 -9.5,1.2 -0.5,0.2 -0.3,1.1 0.3,1.1 1.5,0 3,-0.3 4.5,-0.5 1.6,-0.2 3.2,0 4.7,-0.7 0.6,-0.2 0.6,-0.9 0,-1.1 z" />
			<path
   style="fill:#6ca2c5"
   id="path278"
   d="m 969.7,669.4 c -1.2,-0.1 -2.4,0.3 -3.7,0.5 -1.1,0.1 -2.3,-0.1 -3.4,0.2 -0.3,0.1 -0.5,0.6 -0.2,0.8 1.9,1.6 6,1.5 7.7,-0.3 0.4,-0.5 0.2,-1.2 -0.4,-1.2 z" />
		</g>
		<circle
   style="opacity:0.8;fill:#ffffff"
   id="circle280"
   r="4"
   cy="683.40002"
   cx="900.09998" />
		<circle
   style="opacity:0.8;fill:#ffffff"
   id="circle282"
   r="2.7"
   cy="670.09998"
   cx="908.09998" />
		<circle
   style="opacity:0.8;fill:#ffffff"
   id="circle284"
   r="5.3000002"
   cy="648.70001"
   cx="895.5" />
	</g>
	<g
   id="g286">
		<g
   id="g288">
			<path
   style="fill:#05728f"
   id="path290"
   d="m 372.7,758.9 c 0,0 -5.6,-13.7 -29.7,-23.1 -24.1,-9.3 -40.9,6.2 -43.7,14.9 -2,6.2 11.4,18.9 30.7,23.7 19.3,4.9 41.6,-7.7 41.6,-7.7 0,0 5,16.5 13.3,16.4 3.8,0 -0.8,-6 0.6,-15.6 1.3,-9.5 8.7,-12.3 7.2,-16.8 -1.5,-4.4 -17.4,4.7 -20,8.2 z" />
			<path
   style="fill:#05728f"
   id="path292"
   d="m 320.5,769.3 c 0,0 5.8,8.9 14.9,12.9 9.2,4 12.6,2.3 16,5 0,0 3,-13.6 -7.4,-16.2 -10.4,-2.6 -23.5,-1.7 -23.5,-1.7 z" />
			<path
   style="fill:#05728f"
   id="path294"
   d="m 328.4,733.7 c 0,0 8.6,-5.5 14.7,-2.8 6.1,2.7 16.9,-1.4 22.3,4.2 0,0 -0.8,7.4 -7.4,10.3 -6.5,2.9 -29.6,-11.7 -29.6,-11.7 z" />
			<path
   style="fill:#6ca2c5"
   id="path296"
   d="m 324.8,753.8 c -3.5,1.3 6.5,9.5 9.9,10.3 3.4,0.7 8.6,-5.8 8.6,-7.7 0,-1.9 -12.8,-4.8 -18.5,-2.6 z" />
			<path
   style="fill:#6ca2c5"
   id="path298"
   d="m 320.6,744.3 c -1.1,-0.2 -2.2,0.7 -2.4,1.8 -0.2,1.1 0.7,2.2 1.8,2.4 1.1,0.2 2.2,-0.7 2.4,-1.8 0.1,-1.2 -0.7,-2.3 -1.8,-2.4 z" />
			<path
   style="fill:#6ca2c5"
   id="path300"
   d="m 339.2,744.7 c 0,0 -0.1,0 -0.1,0 -1,0 -1.3,1.7 -0.3,2 0,0 0.1,0 0.1,0 0.7,0.2 1.4,-0.1 1.5,-0.8 0.1,-0.7 -0.6,-1.2 -1.2,-1.2 z" />
			<path
   style="fill:#6ca2c5"
   id="path302"
   d="m 346.1,751 c 0,0 -0.1,0 -0.1,-0.1 -0.6,-0.3 -1.3,0.2 -1.4,0.8 -0.1,0.6 0.5,1.3 1.1,1.1 0,0 0.1,0 0.1,0 1,-0.2 1.2,-1.4 0.3,-1.8 z" />
			<path
   style="fill:#6ca2c5"
   id="path304"
   d="m 353.8,747.8 c 0.1,-1.2 -1.6,-1.4 -1.8,-0.3 -0.1,0.3 -0.1,0.5 0,0.8 0.2,0.8 1.2,1 1.6,0.2 0.2,-0.1 0.2,-0.4 0.2,-0.7 z" />
			<path
   style="fill:#6ca2c5"
   id="path306"
   d="m 361.1,757.1 c -0.2,-1.2 -1.6,-1.5 -2.4,-0.7 0,0 -0.1,0.1 -0.1,0.1 -0.5,0.6 -0.2,1.5 0.5,1.9 0,0 0.1,0 0.1,0.1 1,0.5 2.1,-0.5 1.9,-1.4 z" />
			<path
   style="fill:#6ca2c5"
   id="path308"
   d="m 341.9,766.4 c -0.1,-0.7 -1.1,-1.1 -1.6,-0.4 -0.2,0.4 -0.4,0.8 0,1.2 0.2,0.2 0.5,0.3 0.7,0.2 0.5,0 0.9,-0.4 0.9,-1 z" />
			<path
   style="fill:#6ca2c5"
   id="path310"
   d="m 349.7,756.9 c -1.5,-0.2 -1.8,2.1 -0.3,2.3 1.5,0.2 1.8,-2.1 0.3,-2.3 z" />
			<path
   style="fill:#6ca2c5"
   id="path312"
   d="m 332,749.4 c -0.1,0 -0.1,0 -0.2,0.1 -0.6,0.2 -0.8,1 -0.4,1.5 0.4,0.5 1.2,0.5 1.5,0 0,0 0.1,-0.1 0.1,-0.1 0.6,-0.9 -0.1,-1.8 -1,-1.5 z" />
			<path
   style="fill:#6ca2c5"
   id="path314"
   d="m 346,740.6 -0.1,0 c -1.3,-0.4 -1.6,1.6 -0.2,1.6 0,0 0.1,0 0.1,0 0.8,-0.1 1,-1.4 0.2,-1.6 z" />
			<path
   style="fill:#6ca2c5"
   id="path316"
   d="m 364.4,761.9 c -1.2,-0.2 -1.5,1.7 -0.3,1.9 1.2,0.2 1.5,-1.8 0.3,-1.9 z" />
			<path
   style="fill:#6ca2c5"
   id="path318"
   d="m 357.2,767.8 c 0.4,-0.6 0.3,-1.6 -0.5,-1.8 -0.7,-0.2 -1.5,-0.1 -1.8,0.7 -0.2,0.5 -0.2,1.1 0.2,1.6 0.7,0.7 1.7,0.4 1.9,-0.3 0.3,-0.2 0.4,-0.5 0.2,-0.2 z" />
			<path
   style="fill:#6ca2c5"
   id="path320"
   d="m 326.7,764.3 c -0.7,0 -1.4,0.6 -1,1.3 0.3,0.6 1,0.6 1.3,0.1 0.6,-0.4 0.5,-1.4 -0.3,-1.4 z" />
			<path
   style="fill:#6ca2c5"
   id="path322"
   d="m 334.8,769.7 c -0.2,-0.6 -0.6,-1 -1.3,-0.9 -0.7,0.1 -1.2,0.9 -0.9,1.5 0.3,0.8 1.4,0.9 1.9,0.3 0.2,-0.3 0.4,-0.6 0.3,-0.9 z" />
			<path
   style="fill:#6ca2c5"
   id="path324"
   d="m 380.5,757.2 c -2.7,0.9 -4.7,2.3 -6.6,4.5 -0.2,0.2 0.1,0.5 0.3,0.4 2.2,-1.4 4.4,-2.7 6.6,-4.1 0.5,-0.4 0.1,-1 -0.3,-0.8 z" />
			<path
   style="fill:#6ca2c5"
   id="path326"
   d="m 383,764.4 c -2.6,-0.6 -5.6,-1 -8.2,-0.5 -0.7,0.1 -0.8,1 -0.2,1.4 2.6,1.3 5.9,1.2 8.6,0.2 0.5,-0.2 0.3,-1 -0.2,-1.1 z" />
			<path
   style="fill:#6ca2c5"
   id="path328"
   d="m 378,773.5 c -0.4,-1.9 -0.9,-3.9 -2.3,-5.4 -0.4,-0.4 -1,-0.1 -0.9,0.5 0.6,1.8 1.7,3.4 2.5,5.1 0.2,0.3 0.8,0.2 0.7,-0.2 z" />
			<path
   style="fill:#6ca2c5"
   id="path330"
   d="m 344.7,779.9 c -3.3,-1.6 -7.3,-2.8 -10.9,-3.6 -0.3,-0.1 -0.4,0.3 -0.2,0.5 3.1,2 7.2,3.5 10.9,3.7 0.4,0 0.5,-0.5 0.2,-0.6 z" />
			<path
   style="fill:#6ca2c5"
   id="path332"
   d="m 345.6,777.1 c -0.4,-0.2 -0.7,0.4 -0.4,0.7 0.9,0.7 1.6,1.5 2.3,2.4 0.7,0.8 1,1.8 1.8,2.6 0.2,0.2 0.5,0.2 0.5,-0.1 0.1,-2.5 -2.2,-4.5 -4.2,-5.6 z" />
			<path
   style="fill:#6ca2c5"
   id="path334"
   d="m 347.9,734.5 c -2.6,-1.4 -6.9,-0.9 -9.6,0 -0.6,0.2 -0.4,1.1 0.1,1.1 1.5,0.1 3,0.1 4.5,0.1 1.6,0 3.2,0.4 4.8,-0.1 0.6,-0.1 0.8,-0.8 0.2,-1.1 z" />
			<path
   style="fill:#6ca2c5"
   id="path336"
   d="m 357.9,737.4 c -1.2,-0.3 -2.5,0 -3.7,0 -1.1,0 -2.3,-0.3 -3.4,-0.2 -0.3,0 -0.6,0.5 -0.3,0.7 1.6,1.8 5.8,2.3 7.7,0.7 0.4,-0.4 0.2,-1 -0.3,-1.2 z" />
		</g>
		<circle
   style="opacity:0.8;fill:#ffffff"
   id="circle338"
   r="4"
   cy="742.59998"
   cx="287.10001" />
		<circle
   style="opacity:0.8;fill:#ffffff"
   id="circle340"
   r="2.7"
   cy="730.40002"
   cx="296.70001" />
		<circle
   style="opacity:0.8;fill:#ffffff"
   id="circle342"
   r="5.3000002"
   cy="707.59998"
   cx="286.79999" />
	</g>
	<g
   id="g344">
		<g
   id="g346">
			<path
   style="fill:#05728f"
   id="path348"
   d="m 892.7,787.9 c -6.7,2.2 -6.2,19.4 -6.2,19.4 0,0 -15.3,2.1 -16,8.3 -0.7,6.2 15.3,8.3 15.3,8.3 0,0 -4.2,15.3 0.7,17.3 4.9,2 15.3,-12.5 15.3,-12.5 0,0 13.9,10.4 18.7,5.5 4.9,-4.9 -9.7,-16 -9.7,-16 0,0 12.3,-9.5 9,-15 -2.1,-3.5 -15.3,0.2 -15.3,0.2 0,0 -4.9,-17.8 -11.8,-15.5 z" />
			<path
   style="fill:#6ca2c5"
   id="path350"
   d="m 876.7,816.3 0,0 c -0.3,-0.2 -0.6,-0.4 -0.8,-0.3 -0.1,0 -0.1,0.1 -0.2,0.1 -0.7,0.2 -0.7,1.1 0,1.4 0.1,0 0.1,0.1 0.2,0.1 0.3,0.1 0.6,0 0.8,-0.2 l 0.1,-0.1 c 0.2,-0.2 0.2,-0.7 -0.1,-1 z" />
			<path
   style="fill:#6ca2c5"
   id="path352"
   d="m 881.1,818.7 c -0.9,0 -0.9,1.4 0,1.4 0.9,0 0.9,-1.4 0,-1.4 z" />
			<path
   style="fill:#6ca2c5"
   id="path354"
   d="m 886.7,819.6 c -1.2,0 -1.2,1.8 0,1.8 1.2,0 1.1,-1.8 0,-1.8 z" />
			<path
   style="fill:#6ca2c5"
   id="path356"
   d="m 889.2,822.3 c -0.4,0 -0.4,0.7 0,0.7 0.4,0 0.5,-0.7 0,-0.7 z" />
			<path
   style="fill:#6ca2c5"
   id="path358"
   d="m 889.2,826.5 c -1.3,0 -1.3,2 0,2 1.3,0 1.3,-2 0,-2 z" />
			<path
   style="fill:#6ca2c5"
   id="path360"
   d="m 888.4,834 c 0,0 0,0 0,0 -0.3,-0.4 -0.9,-0.4 -1.1,-0.1 0,0 0,0 -0.1,0.1 -0.5,0.5 -0.2,1.4 0.6,1.4 0.8,0 1.1,-0.8 0.6,-1.4 z" />
			<path
   style="fill:#6ca2c5"
   id="path362"
   d="m 891.8,833.6 c -1.4,0 -1.4,2.1 0,2.1 1.4,0 1.4,-2.1 0,-2.1 z" />
			<path
   style="fill:#6ca2c5"
   id="path364"
   d="m 895.7,829.7 c -1.2,0 -1.2,1.9 0,1.9 1.2,0 1.2,-1.9 0,-1.9 z" />
			<path
   style="fill:#6ca2c5"
   id="path366"
   d="m 900.2,825.9 c 0,0 0,-0.1 0,-0.1 -0.2,-0.7 -1.3,-0.7 -1.5,0 0,0 0,0.1 0,0.1 -0.1,0.5 0.2,1 0.8,1 0.4,0 0.8,-0.5 0.7,-1 z" />
			<path
   style="fill:#6ca2c5"
   id="path368"
   d="m 904.7,826.6 c -0.5,0 -1,0.7 -0.7,1.2 0,0 0,0.1 0.1,0.1 0.3,0.5 0.9,0.5 1.2,0 0,0 0,-0.1 0.1,-0.1 0.3,-0.5 -0.1,-1.2 -0.7,-1.2 z" />
			<path
   style="fill:#6ca2c5"
   id="path370"
   d="m 910.9,828.3 c 0,0 0,0 0,0 -0.5,-0.2 -1.1,-0.2 -1.4,0.3 -0.2,0.4 -0.1,1.1 0.3,1.3 0,0 0,0 0.1,0 0.5,0.2 1,0.1 1.3,-0.3 0.3,-0.4 0.2,-1.1 -0.3,-1.3 z" />
			<path
   style="fill:#6ca2c5"
   id="path372"
   d="m 914.3,831.2 c 0,0 -0.1,0 -0.1,0 -0.8,0.2 -0.8,1.5 0,1.7 0,0 0.1,0 0.1,0 0.6,0.1 1.1,-0.2 1.1,-0.9 0,-0.5 -0.5,-0.9 -1.1,-0.8 z" />
			<path
   style="fill:#6ca2c5"
   id="path374"
   d="m 918.4,828.6 c -1.3,0 -1.3,2 0,2 1.2,-0.1 1.2,-2 0,-2 z" />
			<path
   style="fill:#6ca2c5"
   id="path376"
   d="m 914.4,824.1 c -0.2,-0.3 -0.6,-0.5 -0.9,-0.5 -0.4,0 -0.7,0.2 -0.9,0.5 -0.2,0.4 -0.2,0.7 0,1.1 0,0 0,0.1 0,0.1 0.3,0.7 1.5,0.7 1.8,0 0,0 0,-0.1 0,-0.1 0.2,-0.3 0.3,-0.7 0,-1.1 z" />
			<path
   style="fill:#6ca2c5"
   id="path378"
   d="m 908.4,821.1 c -1.1,0 -1.1,1.7 0,1.7 1.1,-0.1 1.1,-1.7 0,-1.7 z" />
			<path
   style="fill:#6ca2c5"
   id="path380"
   d="m 906.1,816.6 c -0.9,0 -0.9,1.3 0,1.3 0.9,0.1 0.9,-1.3 0,-1.3 z" />
			<path
   style="fill:#6ca2c5"
   id="path382"
   d="m 911.7,812.4 c -1.6,0 -1.6,2.4 0,2.4 1.5,0 1.5,-2.4 0,-2.4 z" />
			<path
   style="fill:#6ca2c5"
   id="path384"
   d="m 916,808.5 c 0,0 -0.1,0 -0.1,0 -0.5,-0.2 -1,0.3 -1,0.7 0,0.4 0.5,0.9 1,0.7 0,0 0.1,0 0.1,0 0.7,-0.2 0.7,-1.2 0,-1.4 z" />
			<path
   style="fill:#6ca2c5"
   id="path386"
   d="m 917,804.6 c -0.9,0 -0.9,1.4 0,1.4 0.8,0 0.8,-1.4 0,-1.4 z" />
			<path
   style="fill:#6ca2c5"
   id="path388"
   d="m 911.4,804.1 c -0.5,0 -1,0.4 -1,1 0,0.6 0.4,1 1,1 0.6,0 1,-0.4 1,-1 0,-0.6 -0.4,-1 -1,-1 z" />
			<path
   style="fill:#6ca2c5"
   id="path390"
   d="m 906.3,806 c -0.5,0 -0.8,0.5 -0.6,1 l 0,0.1 c 0.2,0.4 0.9,0.4 1,0 l 0,-0.1 c 0.4,-0.4 0.2,-1 -0.4,-1 z" />
			<path
   style="fill:#6ca2c5"
   id="path392"
   d="m 902.7,806.9 0,-0.1 c -0.1,-0.5 -0.8,-0.5 -1,0 l 0,0.1 c -0.1,0.3 0.2,0.7 0.5,0.7 0.3,0 0.6,-0.4 0.5,-0.7 z" />
			<path
   style="fill:#6ca2c5"
   id="path394"
   d="m 900.6,801.9 c -1.1,0 -1.1,1.7 0,1.7 1.1,0 1.1,-1.7 0,-1.7 z" />
			<path
   style="fill:#6ca2c5"
   id="path396"
   d="m 898.5,796.4 c -0.7,0 -0.7,1.1 0,1.1 0.7,0 0.7,-1.1 0,-1.1 z" />
			<path
   style="fill:#6ca2c5"
   id="path398"
   d="m 896.2,792 c -1.1,0 -1.1,1.7 0,1.7 1,-0.1 1,-1.7 0,-1.7 z" />
			<path
   style="fill:#6ca2c5"
   id="path400"
   d="m 892.8,790.9 c -0.5,-0.5 -1.3,-0.1 -1.3,0.5 0,0.1 0,0.2 0,0.2 0,0.3 0.2,0.5 0.5,0.5 0.1,0 0.2,0 0.2,0 0.7,0.1 1.1,-0.8 0.6,-1.2 z" />
			<path
   style="fill:#6ca2c5"
   id="path402"
   d="m 890.4,796.9 c -1.2,0 -1.2,1.9 0,1.9 1.2,0 1.2,-1.9 0,-1.9 z" />
			<path
   style="fill:#6ca2c5"
   id="path404"
   d="m 889.5,803.9 c -1.2,0 -1.2,1.9 0,1.9 1.2,0 1.2,-1.9 0,-1.9 z" />
			<path
   style="fill:#6ca2c5"
   id="path406"
   d="m 889.9,809.2 c -0.1,0 -0.1,0 0,0 -0.5,-0.3 -1,0 -1,0.5 0,0.5 0.5,0.8 0.9,0.5 0,0 0.1,0 0.1,0 0.3,-0.3 0.3,-0.8 0,-1 z" />
			<path
   style="fill:#6ca2c5"
   id="path408"
   d="m 883.5,811.1 c -0.5,-0.3 -1,0 -1.2,0.5 -0.3,0.9 1,1.4 1.4,0.6 0.3,-0.4 0.2,-0.9 -0.2,-1.1 z" />
			<path
   style="fill:#6ca2c5"
   id="path410"
   d="m 877.6,813 c -0.2,-0.3 -0.6,-0.5 -1,-0.3 -0.4,0.2 -0.4,0.6 -0.3,1 0.1,0.2 0.2,0.3 0.4,0.4 0.3,0.2 0.9,0.1 1,-0.4 0.1,-0.3 0.1,-0.5 -0.1,-0.7 z" />
		</g>
		<circle
   style="opacity:0.8;fill:#ffffff"
   id="circle412"
   r="4"
   cy="786.70001"
   cx="918.79999" />
		<circle
   style="opacity:0.8;fill:#ffffff"
   id="circle414"
   r="2.7"
   cy="777.40002"
   cx="902.09998" />
		<circle
   style="opacity:0.8;fill:#ffffff"
   id="circle416"
   r="3.3"
   cy="757.40002"
   cx="912.09998" />
	</g>
	<g
   id="g418">
		<g
   id="g420">
			<path
   style="fill:#05728f"
   id="path422"
   d="m 1076.8,771.2 c -4.3,5.4 -4.2,12.2 -4.8,18.7 -0.4,3.8 -2.1,6.7 -4.4,9.7 -1.8,2.4 -3.9,4.3 -3.7,7.5 0,0.6 0.7,1.1 1.2,1.1 5.8,0.4 10.5,-8.7 12,-13.3 1.1,-3.4 1,-7.1 1.2,-10.7 0.3,-3.9 1.5,-7.1 3.1,-10.6 1.3,-2.7 -2.8,-4.6 -4.6,-2.4 z" />
			<path
   style="fill:#05728f"
   id="path424"
   d="m 1092.3,775.7 c 1,-1 0.9,-2.6 -0.5,-3.1 -3,-1.2 -5.2,2 -6.8,4.2 -2.3,3.3 -3.5,7.1 -4,11 -0.5,4.2 0.7,8.4 1.1,12.6 0.5,4.8 -3,8.2 -3.3,12.7 -0.1,1.1 0.9,2.2 2.1,2 6.9,-1.5 7.8,-11.2 7.2,-16.9 -0.5,-4.2 -1.5,-7.9 -0.9,-12.1 0.6,-3.9 2.4,-7.6 5.1,-10.4 z" />
			<path
   style="fill:#05728f"
   id="path426"
   d="m 1100.4,801.4 c -0.3,-4.1 -1.3,-8 -1.2,-12.1 0.1,-4.6 1.8,-8.1 3.6,-12.2 0.9,-2.1 -1.8,-3.9 -3.5,-2.5 -5.5,4.5 -6.4,13 -6.1,19.6 0.2,4.1 1.5,8.2 0.2,12.3 -1,3.4 -4.3,6.1 -3.8,9.8 0.1,0.6 0.7,1.3 1.4,1.3 7.1,-0.1 9.8,-10.6 9.4,-16.2 z" />
			<path
   style="fill:#05728f"
   id="path428"
   d="m 1112.2,812.2 c -1.2,-2.1 -2.6,-4.2 -3.2,-6.6 -0.9,-3.6 0.5,-7.6 1.4,-11 1.2,-4.3 3.8,-13.6 -1.3,-16.4 -1.2,-0.7 -2.8,-0.2 -2.9,1.3 -0.1,1.2 0.2,2.2 0.4,3.4 0.4,2 -0.2,4.2 -0.7,6.1 -1,3.8 -2.5,7.3 -3.2,11.1 -1,5.5 0.7,14.4 7.6,14.8 1.3,0.1 2.6,-1.3 1.9,-2.7 z" />
			<path
   style="fill:#05728f"
   id="path430"
   d="m 1072.4,779.5 c -3.6,-2.6 3,-23.3 24.6,-20.2 21.6,3.1 20.5,21.8 16.9,29.4 -1.5,3.1 -10,-2.2 -17.2,-2.9 -7.1,-0.6 -19.5,-2.8 -24.3,-6.3 z" />
			<path
   style="fill:#6ca2c5"
   id="path432"
   d="m 1081.2,770.9 c -0.1,0 -0.1,-0.1 -0.1,-0.1 -0.3,-0.3 -0.9,-0.3 -1.1,0.2 -0.4,0.8 0.7,1.5 1.3,1 0.3,-0.3 0.3,-0.9 -0.1,-1.1 z" />
			<path
   style="fill:#6ca2c5"
   id="path434"
   d="m 1087,764.5 c -1.5,-0.1 -1.7,2.2 -0.2,2.3 1.5,0.1 1.7,-2.2 0.2,-2.3 z" />
			<path
   style="fill:#6ca2c5"
   id="path436"
   d="m 1089.3,771 c -0.1,0 -0.1,0 0,0 -0.7,0.1 -0.8,1 -0.2,1.2 0,0 0.1,0 0.1,0 0.4,0.1 0.8,-0.1 0.8,-0.5 0,-0.4 -0.3,-0.7 -0.7,-0.7 z" />
			<path
   style="fill:#6ca2c5"
   id="path438"
   d="m 1094.2,767.8 c -1.2,-0.1 -1.4,1.7 -0.2,1.9 1.2,0.1 1.4,-1.7 0.2,-1.9 z" />
			<path
   style="fill:#6ca2c5"
   id="path440"
   d="m 1099.4,763.8 c 0,-0.1 0,-0.1 0,0 -0.2,-0.8 -1.2,-1 -1.5,-0.2 0,0 0,0.1 0,0.1 -0.2,0.5 0.2,1 0.7,1.1 0.5,-0.1 0.9,-0.5 0.8,-1 z" />
			<path
   style="fill:#6ca2c5"
   id="path442"
   d="m 1102,770.3 c -0.3,0.2 -0.5,0.4 -0.4,0.8 0,0.1 0.1,0.2 0.1,0.3 0.1,0.2 0.2,0.4 0.5,0.5 0.4,0.2 0.8,-0.1 1,-0.5 0.4,-0.6 -0.5,-1.5 -1.2,-1.1 z" />
			<path
   style="fill:#6ca2c5"
   id="path444"
   d="m 1097.3,774.8 c 0,-0.1 0,-0.1 0,0 0,-0.7 -1.1,-0.8 -1.3,-0.2 0,0 0,0.1 0,0.1 -0.1,0.4 0.1,0.9 0.6,0.9 0.5,0 0.8,-0.4 0.7,-0.8 z" />
			<path
   style="fill:#6ca2c5"
   id="path446"
   d="m 1104.6,779.6 c -0.4,0 -0.8,0.1 -1.1,0.4 -0.6,0.5 -0.4,1.7 0.5,1.7 0.4,0 0.8,0 1.1,-0.3 0.6,-0.6 0.4,-1.7 -0.5,-1.8 z" />
			<path
   style="fill:#6ca2c5"
   id="path448"
   d="m 1111.2,778 c -0.6,-0.1 -1.1,0.4 -1.2,1 -0.1,0.6 0.4,1.1 1,1.2 0.6,0.1 1.1,-0.4 1.2,-1 0,-0.7 -0.4,-1.2 -1,-1.2 z" />
			<path
   style="fill:#6ca2c5"
   id="path450"
   d="m 1110.1,773.1 c -0.8,-0.1 -0.9,1.1 -0.1,1.2 0.8,0.1 0.9,-1.2 0.1,-1.2 z" />
			<path
   style="fill:#6ca2c5"
   id="path452"
   d="m 1109,766.3 c -0.4,-0.3 -0.6,-0.5 -1.1,-0.4 -0.4,0 -0.7,0.4 -0.8,0.8 0,0.4 0.1,0.7 0.3,0.9 0.4,0.4 1,0.5 1.5,0.1 0.3,-0.3 0.5,-1 0.1,-1.4 z" />
			<path
   style="fill:#6ca2c5"
   id="path454"
   d="m 1094.2,762.8 c -0.4,-0.4 -1,0.1 -0.7,0.5 0.2,0.2 0.3,0.3 0.6,0.3 0.1,0 0.2,-0.1 0.3,-0.2 0.1,-0.2 0,-0.4 -0.2,-0.6 z" />
			<path
   style="fill:#6ca2c5"
   id="path456"
   d="m 1082.2,765.6 c 0,0 0,0 0,0 -0.2,-0.5 -0.8,-0.5 -1,-0.2 0,0 0,0 0,0.1 -0.2,0.4 0,0.9 0.4,1 0.5,0 0.8,-0.4 0.6,-0.9 z" />
			<path
   style="fill:#6ca2c5"
   id="path458"
   d="m 1076.2,772.9 c -0.5,-0.6 -1.4,0.4 -0.6,0.8 0.5,0.3 1,-0.4 0.6,-0.8 z" />
			<path
   style="fill:#6ca2c5"
   id="path460"
   d="m 1085.8,775.3 c -0.9,-0.1 -1,1.3 -0.1,1.4 0.8,0.1 1,-1.3 0.1,-1.4 z" />
			<path
   style="fill:#6ca2c5"
   id="path462"
   d="m 1092.2,777.2 c -1.1,-0.1 -1.3,1.6 -0.2,1.7 1.2,0.1 1.4,-1.6 0.2,-1.7 z" />
			<path
   style="fill:#6ca2c5"
   id="path464"
   d="m 1098.7,779.8 c -0.1,-0.1 -0.2,-0.1 -0.3,-0.2 -0.8,-0.2 -1.6,0.5 -1.2,1.3 0.1,0.3 0.5,0.5 0.8,0.6 0.5,0 0.8,-0.2 1,-0.6 0.1,-0.4 0,-0.9 -0.3,-1.1 z" />
		</g>
		<circle
   style="opacity:0.8;fill:#ffffff"
   id="circle466"
   r="3.3"
   cy="750.70001"
   cx="1111.1" />
		<circle
   style="opacity:0.8;fill:#ffffff"
   id="circle468"
   r="2.7"
   cy="744.70001"
   cx="1091.8" />
		<circle
   style="opacity:0.8;fill:#ffffff"
   id="circle470"
   r="4"
   cy="728.09998"
   cx="1104.5" />
		<circle
   style="opacity:0.8;fill:#ffffff"
   id="circle472"
   r="4"
   cy="705.40002"
   cx="1119.1" />
	</g>
	<g
   id="g474">
		<g
   id="g476">
			<path
   style="fill:#05728f"
   id="path478"
   d="m 472,686.7 c -2,6.6 0.6,12.9 2.4,19.2 1.1,3.7 0.5,7 -0.5,10.6 -0.8,2.8 -2,5.5 -0.6,8.3 0.3,0.5 1,0.8 1.5,0.6 5.5,-1.8 6.6,-11.9 6.2,-16.8 -0.3,-3.6 -1.7,-7 -2.8,-10.4 -1.2,-3.7 -1.2,-7.1 -1,-10.9 0.1,-3.1 -4.4,-3.3 -5.2,-0.6 z" />
			<path
   style="fill:#05728f"
   id="path480"
   d="m 488,685.2 c 0.5,-1.3 -0.1,-2.7 -1.6,-2.7 -3.3,0 -4.1,3.8 -4.7,6.4 -0.9,3.9 -0.6,7.9 0.4,11.7 1.1,4.1 3.7,7.6 5.7,11.3 2.2,4.3 0.2,8.7 1.6,13 0.3,1.1 1.7,1.7 2.7,1 5.8,-3.9 3.1,-13.3 0.4,-18.3 -2,-3.7 -4.3,-6.7 -5.3,-10.9 -1,-3.8 -0.6,-7.9 0.8,-11.5 z" />
			<path
   style="fill:#05728f"
   id="path482"
   d="m 505.1,706 c -1.8,-3.7 -4.1,-6.9 -5.6,-10.8 -1.6,-4.4 -1.3,-8.2 -1.2,-12.7 0.1,-2.3 -3.1,-2.9 -4.2,-1 -3.4,6.2 -1.2,14.4 1.5,20.5 1.7,3.8 4.4,7.1 4.8,11.3 0.3,3.6 -1.8,7.2 0.1,10.5 0.3,0.5 1.1,0.9 1.7,0.7 6.7,-2.6 5.3,-13.4 2.9,-18.5 z" />
			<path
   style="fill:#05728f"
   id="path484"
   d="m 520,711.8 c -1.9,-1.5 -4,-2.9 -5.5,-5 -2.1,-3 -2.3,-7.3 -2.7,-10.8 -0.5,-4.4 -1.5,-14 -7.3,-14.8 -1.3,-0.2 -2.7,0.8 -2.2,2.3 0.4,1.2 1,2 1.7,3 1.1,1.7 1.3,4 1.6,5.9 0.5,3.8 0.4,7.7 1.2,11.5 1.1,5.5 5.9,13.1 12.5,10.9 1.2,-0.2 1.9,-2.1 0.7,-3 z" />
			<path
   style="fill:#05728f"
   id="path486"
   d="m 471,696.1 c -4.3,-1.1 -5.8,-22.7 15.4,-27.9 21.2,-5.2 27.1,12.6 26.6,21.1 -0.2,3.4 -10.1,1.7 -17,3.7 -6.9,2 -19.3,4.6 -25,3.1 z" />
			<path
   style="fill:#6ca2c5"
   id="path488"
   d="m 476,684.8 c -0.1,0 -0.1,0 -0.2,0 -0.4,-0.2 -1,0.1 -1,0.6 0,0.9 1.2,1.2 1.6,0.4 0.2,-0.4 0,-0.9 -0.4,-1 z" />
			<path
   style="fill:#6ca2c5"
   id="path490"
   d="m 479,676.7 c -1.4,0.4 -0.8,2.7 0.6,2.2 1.4,-0.5 0.8,-2.6 -0.6,-2.2 z" />
			<path
   style="fill:#6ca2c5"
   id="path492"
   d="m 483.5,681.9 c 0,0 -0.1,0.1 0,0 -0.6,0.3 -0.3,1.2 0.2,1.2 0,0 0.1,0 0.1,0 0.4,0 0.7,-0.4 0.6,-0.8 -0.1,-0.4 -0.6,-0.6 -0.9,-0.4 z" />
			<path
   style="fill:#6ca2c5"
   id="path494"
   d="m 486.9,677.2 c -1.2,0.3 -0.6,2.1 0.5,1.8 1.1,-0.3 0.7,-2.2 -0.5,-1.8 z" />
			<path
   style="fill:#6ca2c5"
   id="path496"
   d="m 490.2,671.4 c 0,0 0,0 0,0 -0.5,-0.7 -1.5,-0.4 -1.5,0.3 0,0 0,0.1 0,0.1 0,0.5 0.5,0.9 1,0.8 0.6,-0.1 0.8,-0.7 0.5,-1.2 z" />
			<path
   style="fill:#6ca2c5"
   id="path498"
   d="m 495.1,676.6 c -0.2,0.3 -0.3,0.6 -0.1,0.9 0,0.1 0.1,0.1 0.2,0.2 0.2,0.2 0.4,0.3 0.6,0.3 0.5,0 0.8,-0.4 0.8,-0.8 0.1,-0.8 -1.1,-1.2 -1.5,-0.6 z" />
			<path
   style="fill:#6ca2c5"
   id="path500"
   d="m 492.4,682.4 c -0.1,0 -0.1,0 0,0 -0.3,-0.7 -1.4,-0.4 -1.3,0.3 0,0 0,0.1 0,0.1 0.1,0.4 0.4,0.8 0.9,0.6 0.4,-0.1 0.5,-0.6 0.4,-1 z" />
			<path
   style="fill:#6ca2c5"
   id="path502"
   d="m 500.9,684.3 c -0.4,0.1 -0.7,0.4 -0.9,0.7 -0.4,0.7 0.3,1.7 1.1,1.4 0.4,-0.2 0.7,-0.3 0.9,-0.7 0.4,-0.7 -0.3,-1.7 -1.1,-1.4 z" />
			<path
   style="fill:#6ca2c5"
   id="path504"
   d="m 506.5,680.3 c -0.6,0.2 -0.9,0.8 -0.7,1.3 0.2,0.6 0.8,0.9 1.3,0.7 0.6,-0.2 0.9,-0.8 0.7,-1.3 -0.2,-0.6 -0.8,-0.9 -1.3,-0.7 z" />
			<path
   style="fill:#6ca2c5"
   id="path506"
   d="m 503.6,676.1 c -0.8,0.2 -0.4,1.4 0.3,1.2 0.7,-0.2 0.5,-1.4 -0.3,-1.2 z" />
			<path
   style="fill:#6ca2c5"
   id="path508"
   d="m 500,670.3 c -0.5,-0.2 -0.8,-0.2 -1.2,0 -0.4,0.2 -0.5,0.7 -0.4,1.1 0.1,0.4 0.3,0.6 0.6,0.8 0.5,0.2 1.1,0.1 1.4,-0.4 0.3,-0.6 0.2,-1.3 -0.4,-1.5 z" />
			<path
   style="fill:#6ca2c5"
   id="path510"
   d="m 485,672.5 c -0.5,-0.2 -0.9,0.5 -0.4,0.7 0.2,0.1 0.5,0.2 0.7,0.1 0.1,0 0.2,-0.2 0.2,-0.3 -0.1,-0.2 -0.2,-0.4 -0.5,-0.5 z" />
			<path
   style="fill:#6ca2c5"
   id="path512"
   d="m 474.9,679.6 c 0,-0.1 0,-0.1 0,0 -0.3,-0.4 -0.9,-0.2 -1,0.2 0,0 0,0 0,0.1 -0.1,0.4 0.3,0.9 0.8,0.7 0.4,-0.2 0.5,-0.7 0.2,-1 z" />
			<path
   style="fill:#6ca2c5"
   id="path514"
   d="m 472.1,688.6 c -0.7,-0.4 -1.1,0.9 -0.2,1 0.4,0 0.6,-0.8 0.2,-1 z" />
			<path
   style="fill:#6ca2c5"
   id="path516"
   d="m 481.8,687.2 c -0.8,0.2 -0.5,1.6 0.4,1.3 0.9,-0.2 0.5,-1.5 -0.4,-1.3 z" />
			<path
   style="fill:#6ca2c5"
   id="path518"
   d="m 488.5,686.5 c -1.1,0.3 -0.6,2 0.5,1.7 1.1,-0.3 0.6,-2 -0.5,-1.7 z" />
			<path
   style="fill:#6ca2c5"
   id="path520"
   d="m 495.5,686.6 c -0.1,0 -0.3,-0.1 -0.4,0 -0.8,0.1 -1.3,1.1 -0.7,1.7 0.3,0.2 0.6,0.3 0.9,0.2 0.5,-0.1 0.7,-0.5 0.7,-1 0.1,-0.4 -0.1,-0.8 -0.5,-0.9 z" />
		</g>
		<circle
   style="opacity:0.8;fill:#ffffff"
   id="circle522"
   r="3.3"
   cy="655"
   cx="496.29999" />
		<circle
   style="opacity:0.8;fill:#ffffff"
   id="circle524"
   r="2.7"
   cy="656.59998"
   cx="476.10001" />
		<circle
   style="opacity:0.8;fill:#ffffff"
   id="circle526"
   r="4"
   cy="636.40002"
   cx="481.70001" />
		<circle
   style="opacity:0.8;fill:#ffffff"
   id="circle528"
   r="4"
   cy="609.90002"
   cx="487" />
	</g>
	<g
   id="g530">
		<g
   id="g532">
			<path
   style="fill:#05728f"
   id="path534"
   d="m 1263,732.4 c -0.4,7.6 4.2,13.6 7.9,19.8 2.2,3.7 2.5,7.3 2.4,11.4 -0.1,3.3 -0.7,6.4 1.6,9 0.4,0.5 1.3,0.5 1.8,0.2 5.4,-3.4 3.7,-14.5 2,-19.6 -1.3,-3.7 -3.7,-7 -5.8,-10.3 -2.3,-3.6 -3.2,-7.2 -4.1,-11.4 -0.7,-3.3 -5.6,-2.3 -5.8,0.9 z" />
			<path
   style="fill:#05728f"
   id="path536"
   d="m 1279.8,726.4 c 0.2,-1.5 -0.9,-2.9 -2.5,-2.5 -3.5,0.9 -3.3,5.1 -3.3,8.1 0.1,4.4 1.5,8.6 3.6,12.4 2.3,4.1 6.1,7.1 9.2,10.5 3.5,3.9 2.6,9.2 5.3,13.4 0.7,1.1 2.3,1.4 3.2,0.4 5.1,-5.8 -0.4,-15 -4.6,-19.7 -3.1,-3.4 -6.4,-6 -8.6,-10.2 -2.2,-3.7 -2.9,-8.2 -2.3,-12.4 z" />
			<path
   style="fill:#05728f"
   id="path538"
   d="m 1303.6,743.9 c -2.9,-3.4 -6.3,-6.3 -8.9,-10 -2.9,-4.2 -3.7,-8.3 -4.8,-13.2 -0.5,-2.4 -4.1,-2.3 -4.7,0 -1.9,7.6 2.7,15.7 7.3,21.4 2.8,3.5 6.6,6.4 8.2,10.8 1.3,3.7 0.1,8.2 3,11.2 0.5,0.5 1.5,0.7 2,0.2 6.3,-4.5 1.9,-15.7 -2.1,-20.4 z" />
			<path
   style="fill:#05728f"
   id="path540"
   d="m 1321.1,746 c -2.5,-1.1 -5.1,-2 -7.2,-3.8 -3.1,-2.6 -4.5,-7.1 -5.9,-10.7 -1.8,-4.6 -5.4,-14.5 -11.8,-13.8 -1.5,0.2 -2.7,1.7 -1.8,3.1 0.7,1.2 1.6,1.8 2.6,2.8 1.6,1.5 2.5,3.9 3.3,5.9 1.6,4 2.6,8.1 4.4,12 2.7,5.6 9.9,12.4 16.4,8.2 1.3,-0.9 1.6,-3.1 0,-3.7 z" />
			<path
   style="fill:#05728f"
   id="path542"
   d="m 1264.5,742.6 c -4.9,0 -12.4,-22.6 8.8,-33.9 21.2,-11.3 32.4,6 34.2,15.2 0.7,3.7 -10.3,4.6 -17.2,8.6 -6.8,4 -19.2,10.1 -25.8,10.1 z" />
			<path
   style="fill:#6ca2c5"
   id="path544"
   d="m 1266.8,729.2 c -0.1,0 -0.1,0 -0.2,0 -0.5,-0.1 -1,0.4 -0.9,0.9 0.2,0.9 1.6,0.9 1.8,0 0.1,-0.3 -0.2,-0.9 -0.7,-0.9 z" />
			<path
   style="fill:#6ca2c5"
   id="path546"
   d="m 1267.7,719.8 c -1.4,0.8 -0.1,3 1.3,2.2 1.5,-0.9 0.2,-3.1 -1.3,-2.2 z" />
			<path
   style="fill:#6ca2c5"
   id="path548"
   d="m 1274,724.1 c 0,0.1 -0.1,0.1 0,0 -0.6,0.5 0,1.4 0.6,1.2 0,0 0.1,0 0.1,0 0.4,-0.1 0.7,-0.6 0.4,-1 -0.3,-0.4 -0.8,-0.5 -1.1,-0.2 z" />
			<path
   style="fill:#6ca2c5"
   id="path550"
   d="m 1276.3,718.1 c -1.1,0.7 -0.1,2.5 1,1.8 1.2,-0.7 0.2,-2.5 -1,-1.8 z" />
			<path
   style="fill:#6ca2c5"
   id="path552"
   d="m 1278.3,711.1 c 0,0 0,-0.1 0,0 -0.7,-0.7 -1.7,0 -1.5,0.8 0,0 0,0.1 0,0.1 0.1,0.6 0.8,0.8 1.3,0.5 0.5,-0.3 0.6,-1 0.2,-1.4 z" />
			<path
   style="fill:#6ca2c5"
   id="path554"
   d="m 1284.9,715.3 c -0.1,0.3 -0.1,0.7 0.1,1 0.1,0.1 0.2,0.1 0.3,0.2 0.2,0.2 0.5,0.2 0.8,0.2 0.5,-0.1 0.7,-0.6 0.6,-1.1 -0.2,-1 -1.5,-1.1 -1.8,-0.3 z" />
			<path
   style="fill:#6ca2c5"
   id="path556"
   d="m 1283.6,722.2 c 0,0 0,0 0,0 -0.5,-0.6 -1.5,0 -1.3,0.6 0,0 0,0.1 0,0.1 0.2,0.4 0.6,0.7 1.1,0.4 0.5,-0.2 0.5,-0.7 0.2,-1.1 z" />
			<path
   style="fill:#6ca2c5"
   id="path558"
   d="m 1293.2,721.8 c -0.4,0.3 -0.6,0.6 -0.7,1 -0.2,0.8 0.8,1.7 1.6,1.2 0.4,-0.3 0.7,-0.5 0.8,-1 0.1,-0.8 -0.9,-1.7 -1.7,-1.2 z" />
			<path
   style="fill:#6ca2c5"
   id="path560"
   d="m 1298,716.1 c -0.6,0.3 -0.7,1.1 -0.4,1.6 0.3,0.6 1.1,0.7 1.6,0.4 0.6,-0.3 0.7,-1.1 0.4,-1.6 -0.3,-0.6 -1,-0.8 -1.6,-0.4 z" />
			<path
   style="fill:#6ca2c5"
   id="path562"
   d="m 1293.9,712.4 c -0.7,0.4 -0.1,1.6 0.7,1.2 0.8,-0.4 0,-1.6 -0.7,-1.2 z" />
			<path
   style="fill:#6ca2c5"
   id="path564"
   d="m 1288.4,707.2 c -0.5,-0.1 -0.9,0 -1.3,0.3 -0.3,0.3 -0.4,0.9 -0.1,1.2 0.2,0.4 0.5,0.6 0.9,0.6 0.6,0.1 1.2,-0.2 1.4,-0.8 0.1,-0.5 -0.2,-1.3 -0.9,-1.3 z" />
			<path
   style="fill:#6ca2c5"
   id="path566"
   d="m 1273.1,713.6 c -0.6,-0.1 -0.8,0.7 -0.2,0.9 0.3,0.1 0.5,0.1 0.8,-0.1 0.1,-0.1 0.2,-0.2 0.1,-0.4 -0.2,-0.2 -0.5,-0.3 -0.7,-0.4 z" />
			<path
   style="fill:#6ca2c5"
   id="path568"
   d="m 1264.2,723.9 c 0,0 -0.1,0 0,0 -0.5,-0.3 -1,0 -1,0.5 0,0 0,0.1 0,0.1 0,0.5 0.6,0.8 1,0.6 0.4,-0.2 0.4,-0.9 0,-1.2 z" />
			<path
   style="fill:#6ca2c5"
   id="path570"
   d="m 1263.6,734.3 c -0.9,-0.2 -0.9,1.2 0,1.1 0.6,-0.1 0.6,-0.9 0,-1.1 z" />
			<path
   style="fill:#6ca2c5"
   id="path572"
   d="m 1273.7,730.2 c -0.8,0.5 -0.1,1.8 0.8,1.3 0.9,-0.5 0,-1.8 -0.8,-1.3 z" />
			<path
   style="fill:#6ca2c5"
   id="path574"
   d="m 1280.6,727.7 c -1.1,0.6 -0.1,2.3 1,1.7 1.1,-0.7 0.1,-2.4 -1,-1.7 z" />
			<path
   style="fill:#6ca2c5"
   id="path576"
   d="m 1288.1,725.8 c -0.1,0 -0.3,0 -0.4,0.1 -0.9,0.3 -1.1,1.5 -0.2,2 0.3,0.2 0.7,0.2 1.1,0 0.5,-0.3 0.6,-0.7 0.5,-1.2 -0.2,-0.5 -0.6,-0.9 -1,-0.9 z" />
		</g>
		<circle
   style="opacity:0.8;fill:#ffffff"
   id="circle578"
   r="4"
   cy="719.29999"
   cx="1251.9" />
		<circle
   style="opacity:0.8;fill:#ffffff"
   id="circle580"
   r="4.6999998"
   cy="699.29999"
   cx="1255.2" />
		<circle
   style="opacity:0.8;fill:#ffffff"
   id="circle582"
   r="4"
   cy="684"
   cx="1239.2" />
	</g>
	<g
   id="g584">
		<g
   id="g586">
			<path
   style="fill:#05728f"
   id="path588"
   d="m 1716.2,785.6 c -3.7,6.6 -2.3,14 -1.8,21.2 0.3,4.2 -1,7.6 -3,11.3 -1.5,2.9 -3.5,5.4 -2.6,8.8 0.2,0.6 0.9,1.1 1.5,1 6.3,-0.7 9.8,-11.3 10.5,-16.6 0.5,-3.9 -0.2,-7.9 -0.6,-11.8 -0.4,-4.3 0.3,-7.9 1.4,-12 0.9,-3.4 -3.8,-4.7 -5.4,-1.9 z" />
			<path
   style="fill:#05728f"
   id="path590"
   d="m 1733.8,787.7 c 0.9,-1.2 0.5,-3 -1.1,-3.3 -3.5,-0.8 -5.3,3.1 -6.6,5.8 -1.9,4 -2.5,8.4 -2.3,12.7 0.2,4.7 2.3,9 3.5,13.5 1.4,5.1 -1.8,9.4 -1.3,14.4 0.1,1.2 1.4,2.2 2.7,1.7 7.2,-2.9 6.4,-13.6 4.7,-19.6 -1.3,-4.4 -3.1,-8.3 -3.2,-13 -0.1,-4.4 1.2,-8.7 3.6,-12.2 z" />
			<path
   style="fill:#05728f"
   id="path592"
   d="m 1747.4,814 c -1.1,-4.3 -2.9,-8.4 -3.5,-12.9 -0.7,-5.1 0.4,-9.1 1.6,-13.9 0.6,-2.4 -2.7,-3.9 -4.2,-2.1 -5.1,5.9 -4.6,15.3 -3,22.4 0.9,4.4 3.1,8.6 2.5,13.3 -0.5,3.9 -3.5,7.4 -2.3,11.4 0.2,0.7 1,1.2 1.7,1.1 7.6,-1.3 8.6,-13.3 7.2,-19.3 z" />
			<path
   style="fill:#05728f"
   id="path594"
   d="m 1762.1,823.7 c -1.7,-2.1 -3.6,-4.1 -4.7,-6.6 -1.6,-3.7 -0.8,-8.4 -0.5,-12.2 0.5,-4.9 1.6,-15.4 -4.5,-17.6 -1.4,-0.5 -3.1,0.3 -3,2 0.1,1.4 0.6,2.4 1.1,3.6 0.8,2.1 0.5,4.6 0.3,6.8 -0.3,4.3 -1.3,8.4 -1.4,12.7 -0.1,6.2 3.4,15.5 11,14.7 1.6,-0.3 2.8,-2.1 1.7,-3.4 z" />
			<path
   style="fill:#05728f"
   id="path596"
   d="m 1713,795.5 c -4.4,-2.2 -1,-25.8 23,-26.5 24,-0.7 26.3,19.9 23.8,28.8 -1,3.7 -11.3,-0.5 -19.2,0.1 -7.9,0.6 -21.8,0.5 -27.6,-2.4 z" />
			<path
   style="fill:#6ca2c5"
   id="path598"
   d="m 1720.9,784.5 c -0.1,0 -0.1,0 -0.2,-0.1 -0.4,-0.3 -1.1,-0.1 -1.2,0.5 -0.2,0.9 1,1.6 1.6,0.8 0.3,-0.4 0.3,-1.1 -0.2,-1.2 z" />
			<path
   style="fill:#6ca2c5"
   id="path600"
   d="m 1726,776.4 c -1.6,0.1 -1.5,2.7 0.2,2.6 1.7,-0.2 1.5,-2.7 -0.2,-2.6 z" />
			<path
   style="fill:#6ca2c5"
   id="path602"
   d="m 1729.7,783.1 c -0.1,0 -0.1,0 0,0 -0.7,0.2 -0.6,1.2 0,1.3 0,0 0.1,0 0.1,0 0.4,0.1 0.9,-0.3 0.8,-0.7 -0.1,-0.4 -0.5,-0.7 -0.9,-0.6 z" />
			<path
   style="fill:#6ca2c5"
   id="path604"
   d="m 1734.5,778.8 c -1.3,0.1 -1.2,2.1 0.1,2.1 1.3,-0.2 1.2,-2.2 -0.1,-2.1 z" />
			<path
   style="fill:#6ca2c5"
   id="path606"
   d="m 1739.4,773.3 c -0.1,0 -0.1,0 0,0 -0.3,-0.9 -1.5,-0.8 -1.7,0 0,0 0,0.1 0,0.1 -0.1,0.6 0.4,1.1 0.9,1.1 0.5,0 1,-0.6 0.8,-1.2 z" />
			<path
   style="fill:#6ca2c5"
   id="path608"
   d="m 1743.4,780 c -0.3,0.2 -0.4,0.6 -0.3,0.9 0,0.1 0.1,0.2 0.2,0.3 0.1,0.2 0.3,0.4 0.6,0.5 0.5,0.1 0.9,-0.2 1,-0.7 0.2,-0.8 -0.9,-1.5 -1.5,-1 z" />
			<path
   style="fill:#6ca2c5"
   id="path610"
   d="m 1739.1,785.7 c 0,0 0,-0.1 0,0 -0.2,-0.8 -1.4,-0.7 -1.4,0 0,0 0,0.1 0,0.1 0,0.5 0.3,0.9 0.8,0.9 0.5,0 0.7,-0.5 0.6,-1 z" />
			<path
   style="fill:#6ca2c5"
   id="path612"
   d="m 1747.9,789.6 c -0.5,0.1 -0.8,0.2 -1.1,0.6 -0.6,0.7 -0.1,1.9 0.9,1.8 0.5,-0.1 0.8,-0.2 1.1,-0.6 0.5,-0.7 0,-1.9 -0.9,-1.8 z" />
			<path
   style="fill:#6ca2c5"
   id="path614"
   d="m 1754.8,786.6 c -0.6,0 -1.1,0.6 -1.1,1.3 0,0.6 0.6,1.1 1.3,1.1 0.7,0 1.1,-0.6 1.1,-1.3 -0.1,-0.6 -0.7,-1.1 -1.3,-1.1 z" />
			<path
   style="fill:#6ca2c5"
   id="path616"
   d="m 1752.7,781.5 c -0.9,0.1 -0.8,1.4 0.1,1.3 0.9,-0.1 0.8,-1.4 -0.1,-1.3 z" />
			<path
   style="fill:#6ca2c5"
   id="path618"
   d="m 1750.2,774.4 c -0.4,-0.3 -0.8,-0.4 -1.3,-0.3 -0.4,0.1 -0.7,0.6 -0.7,1 0,0.4 0.2,0.7 0.5,1 0.5,0.4 1.2,0.4 1.6,-0.1 0.4,-0.4 0.4,-1.3 -0.1,-1.6 z" />
			<path
   style="fill:#6ca2c5"
   id="path620"
   d="m 1733.5,773.3 c -0.5,-0.4 -1,0.3 -0.6,0.7 0.2,0.2 0.4,0.3 0.7,0.3 0.2,0 0.2,-0.1 0.2,-0.3 0.1,-0.3 0,-0.5 -0.3,-0.7 z" />
			<path
   style="fill:#6ca2c5"
   id="path622"
   d="m 1721,778.6 c 0,-0.1 0,-0.1 0,0 -0.3,-0.5 -0.9,-0.4 -1.1,0 0,0 0,0.1 0,0.1 -0.2,0.5 0.1,1 0.6,1 0.5,-0.1 0.8,-0.7 0.5,-1.1 z" />
			<path
   style="fill:#6ca2c5"
   id="path624"
   d="m 1715.9,787.6 c -0.7,-0.6 -1.4,0.7 -0.5,1 0.5,0.2 0.9,-0.6 0.5,-1 z" />
			<path
   style="fill:#6ca2c5"
   id="path626"
   d="m 1726.7,788.4 c -1,0.1 -0.9,1.6 0.1,1.5 1,0 0.8,-1.5 -0.1,-1.5 z" />
			<path
   style="fill:#6ca2c5"
   id="path628"
   d="m 1734,789.2 c -1.2,0.1 -1.1,2 0.1,1.9 1.3,0 1.2,-2 -0.1,-1.9 z" />
			<path
   style="fill:#6ca2c5"
   id="path630"
   d="m 1741.5,790.9 c -0.1,-0.1 -0.3,-0.1 -0.4,-0.1 -0.9,-0.1 -1.7,0.8 -1.1,1.7 0.2,0.3 0.6,0.5 1,0.5 0.5,0 0.8,-0.4 1,-0.9 0.1,-0.5 -0.1,-1 -0.5,-1.2 z" />
		</g>
		<circle
   style="opacity:0.8;fill:#ffffff"
   id="circle632"
   r="4"
   cy="768.90002"
   cx="1712.1" />
		<circle
   style="opacity:0.8;fill:#ffffff"
   id="circle634"
   r="4.6999998"
   cy="752.5"
   cx="1724" />
		<circle
   style="opacity:0.8;fill:#ffffff"
   id="circle636"
   r="4"
   cy="731.70001"
   cx="1716.5" />
	</g>
	<g
   id="g638">
		<g
   id="g640">
			<path
   style="fill:#05728f"
   id="path642"
   d="m 1491.3,799.1 c 0,0 5,-10.7 24.4,-17.1 19.4,-6.4 32.2,6.6 34,13.5 1.3,5 -9.8,14.5 -25.3,17.6 -15.5,3.1 -32.7,-7.7 -32.7,-7.7 0,0 -4.6,12.9 -11.2,12.5 -3,-0.2 0.8,-4.8 0.2,-12.4 -0.7,-7.6 -6.5,-10.1 -5.1,-13.6 1.4,-3.5 13.7,4.4 15.7,7.2 z" />
			<path
   style="fill:#05728f"
   id="path644"
   d="m 1532.3,809.5 c 0,0 -4.9,6.8 -12.3,9.6 -7.4,2.8 -10.1,1.3 -12.9,3.3 0,0 -1.8,-10.9 6.5,-12.5 8.3,-1.6 18.7,-0.4 18.7,-0.4 z" />
			<path
   style="fill:#05728f"
   id="path646"
   d="m 1527.4,780.9 c 0,0 -6.6,-4.7 -11.5,-2.8 -4.9,1.9 -13.4,-1.8 -17.9,2.5 0,0 0.3,5.9 5.5,8.5 5,2.5 23.9,-8.2 23.9,-8.2 z" />
			<path
   style="fill:#6ca2c5"
   id="path648"
   d="m 1529.5,797 c 2.7,1.2 -5.5,7.3 -8.2,7.8 -2.7,0.5 -6.6,-4.9 -6.6,-6.4 0,-1.6 10.3,-3.4 14.8,-1.4 z" />
			<path
   style="fill:#6ca2c5"
   id="path650"
   d="m 1533.2,789.6 c 0.9,-0.1 1.7,0.6 1.8,1.5 0.1,0.9 -0.6,1.7 -1.5,1.8 -0.9,0.1 -1.7,-0.6 -1.8,-1.5 -0.1,-0.9 0.6,-1.7 1.5,-1.8 z" />
			<path
   style="fill:#6ca2c5"
   id="path652"
   d="m 1518.4,789.2 c 0,0 0.1,0 0.1,0 0.8,0.1 0.9,1.4 0.1,1.6 0,0 -0.1,0 -0.1,0 -0.5,0.2 -1.1,-0.1 -1.2,-0.7 0.1,-0.5 0.6,-0.9 1.1,-0.9 z" />
			<path
   style="fill:#6ca2c5"
   id="path654"
   d="m 1512.7,793.9 c 0,0 0,0 0,0 0.6,-0.3 1.1,0.1 1.2,0.6 0,0.5 -0.4,1 -0.9,0.9 0,0 -0.1,0 -0.1,0 -0.8,-0.2 -0.9,-1.2 -0.2,-1.5 z" />
			<path
   style="fill:#6ca2c5"
   id="path656"
   d="m 1506.7,791.1 c -0.1,-0.9 1.3,-1.1 1.5,-0.1 0,0.2 0.1,0.4 0,0.7 -0.2,0.7 -1,0.7 -1.3,0.1 -0.2,-0.2 -0.2,-0.4 -0.2,-0.7 z" />
			<path
   style="fill:#6ca2c5"
   id="path658"
   d="m 1500.5,798.2 c 0.2,-0.9 1.4,-1.2 1.9,-0.4 0,0 0,0.1 0.1,0.1 0.4,0.5 0.1,1.2 -0.5,1.5 0,0 -0.1,0 -0.1,0.1 -0.7,0.2 -1.5,-0.6 -1.4,-1.3 z" />
			<path
   style="fill:#6ca2c5"
   id="path660"
   d="m 1515.4,806.3 c 0.1,-0.5 1,-0.8 1.3,-0.3 0.2,0.3 0.3,0.7 0,0.9 -0.2,0.1 -0.4,0.2 -0.6,0.2 -0.4,0 -0.7,-0.3 -0.7,-0.8 z" />
			<path
   style="fill:#6ca2c5"
   id="path662"
   d="m 1509.6,798.5 c 1.2,-0.1 1.4,1.7 0.2,1.8 -1.3,0.1 -1.4,-1.7 -0.2,-1.8 z" />
			<path
   style="fill:#6ca2c5"
   id="path664"
   d="m 1524,793.2 c 0,0 0.1,0 0.1,0.1 0.5,0.2 0.6,0.8 0.3,1.2 -0.3,0.4 -1,0.4 -1.2,0 0,0 -0.1,-0.1 -0.1,-0.1 -0.5,-0.7 0.2,-1.5 0.9,-1.2 z" />
			<path
   style="fill:#6ca2c5"
   id="path666"
   d="m 1513.1,785.7 0,0 c 1.1,-0.3 1.3,1.3 0.2,1.2 0,0 -0.1,0 -0.1,0 -0.6,-0.1 -0.7,-1.1 -0.1,-1.2 z" />
			<path
   style="fill:#6ca2c5"
   id="path668"
   d="m 1497.7,801.8 c 1,-0.1 1.1,1.4 0.1,1.5 -1,0.1 -1,-1.4 -0.1,-1.5 z" />
			<path
   style="fill:#6ca2c5"
   id="path670"
   d="m 1503.2,806.8 c -0.3,-0.5 -0.2,-1.3 0.4,-1.4 0.5,-0.1 1.2,0 1.4,0.6 0.1,0.4 0.1,0.9 -0.2,1.2 -0.6,0.6 -1.4,0.3 -1.6,-0.4 0,0 -0.1,-0.2 0,0 z" />
			<path
   style="fill:#6ca2c5"
   id="path672"
   d="m 1527.5,805.2 c 0.6,0 1.1,0.5 0.8,1.1 -0.3,0.5 -0.8,0.4 -1.1,0.1 -0.4,-0.4 -0.3,-1.2 0.3,-1.2 z" />
			<path
   style="fill:#6ca2c5"
   id="path674"
   d="m 1521,809.2 c 0.2,-0.4 0.5,-0.8 1,-0.7 0.6,0.1 0.9,0.7 0.6,1.3 -0.3,0.6 -1.2,0.7 -1.5,0.1 -0.1,-0.2 -0.3,-0.4 -0.1,-0.7 z" />
			<path
   style="fill:#6ca2c5"
   id="path676"
   d="m 1485.1,797.5 c 2.1,0.8 3.6,2 5,3.8 0.2,0.2 -0.1,0.4 -0.3,0.3 -1.7,-1.2 -3.4,-2.3 -5.1,-3.5 -0.2,-0.3 0.1,-0.7 0.4,-0.6 z" />
			<path
   style="fill:#6ca2c5"
   id="path678"
   d="m 1482.9,803.1 c 2.1,-0.3 4.5,-0.6 6.5,-0.1 0.6,0.1 0.6,0.9 0.1,1.1 -2.1,1 -4.7,0.7 -6.8,-0.1 -0.4,-0.2 -0.2,-0.8 0.2,-0.9 z" />
			<path
   style="fill:#6ca2c5"
   id="path680"
   d="m 1486.5,810.6 c 0.4,-1.5 0.9,-3.1 2,-4.2 0.3,-0.3 0.8,0 0.7,0.4 -0.5,1.4 -1.5,2.6 -2.2,3.9 -0.1,0.3 -0.6,0.2 -0.5,-0.1 z" />
			<path
   style="fill:#6ca2c5"
   id="path682"
   d="m 1512.7,816.9 c 2.7,-1.1 5.9,-1.9 8.8,-2.4 0.2,0 0.3,0.3 0.1,0.4 -2.6,1.5 -5.8,2.5 -8.8,2.5 -0.3,0 -0.4,-0.4 -0.1,-0.5 z" />
			<path
   style="fill:#6ca2c5"
   id="path684"
   d="m 1512,814.7 c 0.3,-0.2 0.6,0.3 0.3,0.5 -0.7,0.5 -1.3,1.2 -1.9,1.8 -0.6,0.6 -0.9,1.4 -1.5,2 -0.1,0.1 -0.4,0.1 -0.4,-0.1 0,-1.9 1.9,-3.4 3.5,-4.2 z" />
			<path
   style="fill:#6ca2c5"
   id="path686"
   d="m 1511.9,780.8 c 2.1,-1 5.5,-0.5 7.6,0.3 0.4,0.2 0.3,0.9 -0.2,0.9 -1.2,0.1 -2.4,-0.1 -3.6,-0.1 -1.3,0 -2.5,0.2 -3.8,-0.2 -0.4,-0.1 -0.5,-0.7 0,-0.9 z" />
			<path
   style="fill:#6ca2c5"
   id="path688"
   d="m 1503.9,782.7 c 1,-0.2 1.9,0.1 2.9,0.1 0.9,0 1.8,-0.2 2.7,0 0.3,0 0.4,0.4 0.2,0.6 -1.4,1.3 -4.7,1.6 -6.1,0.2 -0.4,-0.3 -0.2,-0.8 0.3,-0.9 z" />
		</g>
		<circle
   style="opacity:0.8;fill:#ffffff"
   id="circle690"
   r="3.3"
   cy="780.70001"
   cx="1554.7" />
		<circle
   style="opacity:0.8;fill:#ffffff"
   id="circle692"
   r="2"
   cy="768.70001"
   cx="1563.3" />
		<circle
   style="opacity:0.8;fill:#ffffff"
   id="circle694"
   r="3.3"
   cy="754.70001"
   cx="1548" />
		<circle
   style="opacity:0.8;fill:#ffffff"
   id="circle696"
   r="2"
   cy="734.09998"
   cx="1560" />
	</g>
	<g
   id="g698">
		<g
   id="g700">
			<path
   style="fill:#05728f"
   id="path702"
   d="m 1428.8,686.7 c -5.6,0.1 -9.4,13.3 -9.4,13.3 0,0 -12.1,-2 -14.1,2.6 -2,4.6 9.7,10 9.7,10 0,0 -6.8,10.6 -3.6,13.4 3.2,2.8 14.6,-5.9 14.6,-5.9 0,0 8.1,11.2 13,8.7 4.9,-2.5 -3.6,-14.5 -3.6,-14.5 0,0 11.6,-4.4 10.4,-9.3 -0.8,-3.1 -11.7,-3.4 -11.7,-3.4 0,0 0.5,-15.1 -5.3,-14.9 z" />
			<path
   style="fill:#6ca2c5"
   id="path704"
   d="m 1409.9,704.5 0,0 c -0.2,-0.2 -0.3,-0.4 -0.6,-0.4 -0.1,0 -0.1,0 -0.2,0 -0.6,0 -0.8,0.7 -0.3,1 0,0 0.1,0.1 0.1,0.1 0.2,0.1 0.4,0.1 0.6,0 l 0.1,0 c 0.3,-0.1 0.4,-0.5 0.3,-0.7 z" />
			<path
   style="fill:#6ca2c5"
   id="path706"
   d="m 1412.7,707.3 c -0.7,-0.2 -1,0.8 -0.3,1.1 0.7,0.2 1,-0.8 0.3,-1.1 z" />
			<path
   style="fill:#6ca2c5"
   id="path708"
   d="m 1416.7,709.4 c -0.9,-0.3 -1.3,1.1 -0.4,1.4 0.9,0.2 1.3,-1.1 0.4,-1.4 z" />
			<path
   style="fill:#6ca2c5"
   id="path710"
   d="m 1418,712 c -0.3,-0.1 -0.5,0.4 -0.2,0.5 0.3,0.1 0.5,-0.4 0.2,-0.5 z" />
			<path
   style="fill:#6ca2c5"
   id="path712"
   d="m 1417,715.2 c -1,-0.3 -1.5,1.2 -0.5,1.5 1,0.3 1.5,-1.2 0.5,-1.5 z" />
			<path
   style="fill:#6ca2c5"
   id="path714"
   d="m 1414.6,720.8 c 0,0 0,-0.1 0,0 -0.2,-0.4 -0.6,-0.5 -0.8,-0.3 0,0 0,0 -0.1,0 -0.5,0.3 -0.5,1.1 0.1,1.2 0.6,0.2 1.1,-0.4 0.8,-0.9 z" />
			<path
   style="fill:#6ca2c5"
   id="path716"
   d="m 1417.3,721.2 c -1.1,-0.3 -1.6,1.3 -0.5,1.6 1.1,0.3 1.5,-1.3 0.5,-1.6 z" />
			<path
   style="fill:#6ca2c5"
   id="path718"
   d="m 1421.2,719.2 c -0.9,-0.3 -1.4,1.2 -0.5,1.5 1,0.3 1.4,-1.2 0.5,-1.5 z" />
			<path
   style="fill:#6ca2c5"
   id="path720"
   d="m 1425.5,717.3 c 0,0 0,0 0,0 0,-0.7 -0.8,-1 -1.1,-0.4 0,0 0,0.1 0,0.1 -0.2,0.4 -0.1,0.8 0.3,1 0.4,0.1 0.8,-0.2 0.8,-0.7 z" />
			<path
   style="fill:#6ca2c5"
   id="path722"
   d="m 1428.8,719 c -0.4,-0.1 -0.9,0.3 -0.8,0.7 0,0 0,0.1 0,0.1 0.1,0.4 0.6,0.6 0.9,0.3 0,0 0,0 0.1,0 0.4,-0.4 0.2,-1 -0.2,-1.1 z" />
			<path
   style="fill:#6ca2c5"
   id="path724"
   d="m 1433.1,721.7 c 0,0 0,0 0,0 -0.4,-0.3 -0.8,-0.4 -1.1,-0.1 -0.3,0.3 -0.4,0.8 0,1.1 0,0 0,0 0,0 0.3,0.3 0.8,0.3 1.1,0 0.3,-0.1 0.3,-0.7 0,-1 z" />
			<path
   style="fill:#6ca2c5"
   id="path726"
   d="m 1435,724.8 c 0,0 -0.1,0 0,0 -0.8,-0.1 -1.1,1 -0.5,1.3 0,0 0.1,0 0.1,0 0.4,0.2 0.9,0.1 1.1,-0.4 0.1,-0.5 -0.2,-0.9 -0.7,-0.9 z" />
			<path
   style="fill:#6ca2c5"
   id="path728"
   d="m 1438.7,723.7 c -1,-0.3 -1.4,1.2 -0.5,1.5 1,0.3 1.5,-1.2 0.5,-1.5 z" />
			<path
   style="fill:#6ca2c5"
   id="path730"
   d="m 1436.8,719.4 c -0.1,-0.3 -0.3,-0.5 -0.6,-0.6 -0.3,-0.1 -0.6,0 -0.8,0.2 -0.2,0.2 -0.3,0.5 -0.3,0.8 0,0 0,0.1 0,0.1 0.1,0.6 1,0.9 1.4,0.4 0,0 0,0 0.1,-0.1 0.1,-0.2 0.3,-0.5 0.2,-0.8 z" />
			<path
   style="fill:#6ca2c5"
   id="path732"
   d="m 1432.9,715.7 c -0.8,-0.3 -1.2,1 -0.4,1.3 0.8,0.2 1.2,-1.1 0.4,-1.3 z" />
			<path
   style="fill:#6ca2c5"
   id="path734"
   d="m 1432.2,711.7 c -0.7,-0.2 -1,0.8 -0.3,1 0.7,0.2 1,-0.8 0.3,-1 z" />
			<path
   style="fill:#6ca2c5"
   id="path736"
   d="m 1437.5,709.8 c -1.2,-0.4 -1.8,1.5 -0.6,1.9 1.2,0.3 1.8,-1.5 0.6,-1.9 z" />
			<path
   style="fill:#6ca2c5"
   id="path738"
   d="m 1441.7,707.9 c 0,-0.1 0,-0.1 0,0 -0.4,-0.3 -0.9,-0.1 -1,0.3 -0.1,0.4 0.2,0.8 0.6,0.8 0,0 0.1,0 0.1,0 0.6,-0.1 0.8,-0.8 0.3,-1.1 z" />
			<path
   style="fill:#6ca2c5"
   id="path740"
   d="m 1443.4,705.1 c -0.7,-0.2 -1,0.8 -0.3,1 0.6,0.3 0.9,-0.8 0.3,-1 z" />
			<path
   style="fill:#6ca2c5"
   id="path742"
   d="m 1439.3,703.4 c -0.4,-0.1 -0.8,0.1 -1,0.5 -0.1,0.4 0.1,0.8 0.5,1 0.4,0.2 0.8,-0.1 1,-0.5 0.1,-0.4 -0.1,-0.9 -0.5,-1 z" />
			<path
   style="fill:#6ca2c5"
   id="path744"
   d="m 1434.9,703.7 c -0.4,-0.1 -0.7,0.2 -0.7,0.6 l 0,0.1 c 0,0.3 0.6,0.5 0.8,0.2 l 0.1,-0.1 c 0.3,-0.2 0.2,-0.7 -0.2,-0.8 z" />
			<path
   style="fill:#6ca2c5"
   id="path746"
   d="m 1431.9,703.5 0,0 c 0,-0.5 -0.5,-0.7 -0.8,-0.3 l -0.1,0.1 c -0.2,0.2 0,0.6 0.2,0.7 0.4,-0.1 0.7,-0.3 0.7,-0.5 z" />
			<path
   style="fill:#6ca2c5"
   id="path748"
   d="m 1431.5,699.1 c -0.9,-0.3 -1.3,1.1 -0.4,1.3 0.8,0.3 1.2,-1 0.4,-1.3 z" />
			<path
   style="fill:#6ca2c5"
   id="path750"
   d="m 1431.2,694.5 c -0.6,-0.2 -0.8,0.7 -0.3,0.9 0.6,0.1 0.9,-0.8 0.3,-0.9 z" />
			<path
   style="fill:#6ca2c5"
   id="path752"
   d="m 1430.5,690.6 c -0.8,-0.3 -1.2,1 -0.4,1.3 0.8,0.3 1.2,-1.1 0.4,-1.3 z" />
			<path
   style="fill:#6ca2c5"
   id="path754"
   d="m 1428.2,688.9 c -0.3,-0.5 -1,-0.4 -1.1,0.1 0,0.1 0,0.1 -0.1,0.2 -0.1,0.2 0.1,0.5 0.3,0.5 0.1,0 0.1,0 0.2,0.1 0.5,0.1 0.9,-0.4 0.7,-0.9 z" />
			<path
   style="fill:#6ca2c5"
   id="path756"
   d="m 1424.9,693 c -0.9,-0.3 -1.4,1.2 -0.5,1.5 1,0.2 1.5,-1.3 0.5,-1.5 z" />
			<path
   style="fill:#6ca2c5"
   id="path758"
   d="m 1422.6,698 c -0.9,-0.3 -1.4,1.2 -0.4,1.4 1,0.2 1.3,-1.1 0.4,-1.4 z" />
			<path
   style="fill:#6ca2c5"
   id="path760"
   d="m 1421.6,702.2 c 0,0 0,-0.1 0,0 -0.3,-0.3 -0.8,-0.2 -0.9,0.1 -0.1,0.4 0.2,0.7 0.6,0.6 0,0 0.1,0 0.1,0 0.3,-0.1 0.4,-0.5 0.2,-0.7 z" />
			<path
   style="fill:#6ca2c5"
   id="path762"
   d="m 1416.3,702.1 c -0.3,-0.3 -0.8,-0.2 -1,0.1 -0.4,0.6 0.4,1.3 1,0.8 0.2,-0.2 0.3,-0.6 0,-0.9 z" />
			<path
   style="fill:#6ca2c5"
   id="path764"
   d="m 1411.4,702.2 c -0.1,-0.3 -0.4,-0.5 -0.7,-0.4 -0.3,0.1 -0.5,0.4 -0.4,0.7 0,0.2 0.1,0.3 0.2,0.4 0.2,0.2 0.7,0.3 0.8,-0.1 0.1,-0.2 0.2,-0.4 0.1,-0.6 z" />
		</g>
		<circle
   style="opacity:0.8;fill:#ffffff"
   id="circle766"
   r="4"
   cy="684.90002"
   cx="1412.2" />
		<circle
   style="opacity:0.8;fill:#ffffff"
   id="circle768"
   r="3.3"
   cy="670.90002"
   cx="1423.5" />
		<circle
   style="opacity:0.8;fill:#ffffff"
   id="circle770"
   r="2"
   cy="662.20001"
   cx="1412.9" />
	</g>
	<g
   id="g772">
		<g
   id="g774">
			<path
   style="fill:#05728f"
   id="path776"
   d="m 208.9,668.6 c -6.9,0.1 -11.4,16.2 -11.4,16.2 0,0 -14.8,-2.5 -17.2,3.1 -2.5,5.6 11.8,12.2 11.8,12.2 0,0 -8.3,13 -4.4,16.3 3.9,3.3 17.8,-7.2 17.8,-7.2 0,0 9.9,13.7 15.8,10.6 5.9,-3.1 -4.4,-17.6 -4.4,-17.6 0,0 14.2,-5.3 12.7,-11.4 -0.9,-3.8 -14.3,-4.2 -14.3,-4.2 0,0 0.7,-18.2 -6.4,-18 z" />
			<path
   style="fill:#6ca2c5"
   id="path778"
   d="m 185.7,690.3 0,0 c -0.2,-0.3 -0.4,-0.5 -0.7,-0.5 -0.1,0 -0.1,0 -0.2,0 -0.7,0 -0.9,0.8 -0.4,1.3 0.1,0 0.1,0.1 0.2,0.1 0.2,0.2 0.5,0.1 0.8,0 l 0.1,0 c 0.3,-0.1 0.4,-0.6 0.2,-0.9 z" />
			<path
   style="fill:#6ca2c5"
   id="path780"
   d="m 189.2,693.8 c -0.8,-0.3 -1.2,1 -0.4,1.3 0.8,0.3 1.2,-1 0.4,-1.3 z" />
			<path
   style="fill:#6ca2c5"
   id="path782"
   d="m 194.1,696.3 c -1.1,-0.3 -1.6,1.3 -0.5,1.7 1,0.3 1.6,-1.3 0.5,-1.7 z" />
			<path
   style="fill:#6ca2c5"
   id="path784"
   d="m 195.7,699.5 c -0.4,-0.1 -0.6,0.5 -0.2,0.6 0.4,0.1 0.6,-0.5 0.2,-0.6 z" />
			<path
   style="fill:#6ca2c5"
   id="path786"
   d="m 194.5,703.4 c -1.2,-0.4 -1.8,1.5 -0.6,1.9 1.2,0.4 1.8,-1.5 0.6,-1.9 z" />
			<path
   style="fill:#6ca2c5"
   id="path788"
   d="m 191.5,710.2 c 0,0 0,0 0,0 -0.2,-0.4 -0.7,-0.6 -1,-0.4 0,0 0,0 -0.1,0 -0.6,0.3 -0.6,1.3 0.1,1.5 0.8,0.3 1.4,-0.4 1,-1.1 z" />
			<path
   style="fill:#6ca2c5"
   id="path790"
   d="m 194.8,710.7 c -1.3,-0.4 -1.9,1.6 -0.6,2 1.3,0.4 1.9,-1.6 0.6,-2 z" />
			<path
   style="fill:#6ca2c5"
   id="path792"
   d="m 199.5,708.3 c -1.2,-0.4 -1.7,1.4 -0.6,1.8 1.2,0.4 1.8,-1.4 0.6,-1.8 z" />
			<path
   style="fill:#6ca2c5"
   id="path794"
   d="m 204.8,706 c 0,0 0,-0.1 0,-0.1 0.1,-0.7 -1,-1.1 -1.4,-0.4 0,0 0,0.1 -0.1,0.1 -0.3,0.4 -0.1,1 0.4,1.2 0.6,0.1 1.1,-0.3 1.1,-0.8 z" />
			<path
   style="fill:#6ca2c5"
   id="path796"
   d="m 208.8,708 c -0.5,-0.2 -1.1,0.3 -1,0.9 0,0 0,0.1 0,0.1 0.2,0.5 0.7,0.7 1.1,0.4 0,0 0.1,0 0.1,-0.1 0.6,-0.4 0.3,-1.1 -0.2,-1.3 z" />
			<path
   style="fill:#6ca2c5"
   id="path798"
   d="m 214.1,711.4 c 0,0 0,-0.1 0,0 -0.4,-0.4 -1,-0.5 -1.4,-0.1 -0.4,0.3 -0.4,1 -0.1,1.3 0,0 0,0 0,0 0.4,0.4 0.9,0.4 1.3,0.1 0.5,-0.3 0.6,-1 0.2,-1.3 z" />
			<path
   style="fill:#6ca2c5"
   id="path800"
   d="m 216.4,715.1 c 0,0 -0.1,0 -0.1,0 -0.8,-0.1 -1.2,1.2 -0.5,1.6 0,0 0.1,0 0.1,0 0.5,0.3 1.1,0.1 1.3,-0.5 0.2,-0.6 -0.2,-1 -0.8,-1.1 z" />
			<path
   style="fill:#6ca2c5"
   id="path802"
   d="m 220.9,713.8 c -1.2,-0.4 -1.7,1.4 -0.6,1.8 1.2,0.4 1.8,-1.4 0.6,-1.8 z" />
			<path
   style="fill:#6ca2c5"
   id="path804"
   d="m 218.6,708.5 c -0.1,-0.4 -0.4,-0.7 -0.7,-0.8 -0.4,-0.1 -0.8,0 -1,0.2 -0.3,0.3 -0.4,0.6 -0.3,1 0,0 0,0.1 0,0.1 0.1,0.7 1.2,1.1 1.7,0.5 0,0 0,-0.1 0.1,-0.1 0.1,-0.1 0.3,-0.4 0.2,-0.9 z" />
			<path
   style="fill:#6ca2c5"
   id="path806"
   d="m 213.9,704 c -1,-0.3 -1.5,1.2 -0.5,1.5 1,0.3 1.5,-1.2 0.5,-1.5 z" />
			<path
   style="fill:#6ca2c5"
   id="path808"
   d="m 213,699.1 c -0.8,-0.2 -1.2,1 -0.4,1.2 0.8,0.3 1.2,-0.9 0.4,-1.2 z" />
			<path
   style="fill:#6ca2c5"
   id="path810"
   d="m 219.4,696.8 c -1.5,-0.5 -2.2,1.8 -0.7,2.3 1.5,0.4 2.2,-1.8 0.7,-2.3 z" />
			<path
   style="fill:#6ca2c5"
   id="path812"
   d="m 224.6,694.5 c -0.1,-0.1 -0.1,-0.1 0,0 -0.5,-0.4 -1.1,-0.1 -1.2,0.3 -0.1,0.4 0.2,1 0.7,1 0,0 0.1,0 0.1,0 0.7,-0.1 1,-0.9 0.4,-1.3 z" />
			<path
   style="fill:#6ca2c5"
   id="path814"
   d="m 226.6,691.1 c -0.8,-0.3 -1.2,1 -0.4,1.3 0.8,0.2 1.2,-1 0.4,-1.3 z" />
			<path
   style="fill:#6ca2c5"
   id="path816"
   d="m 221.6,689 c -0.5,-0.2 -1,0.1 -1.2,0.6 -0.2,0.5 0.1,1 0.6,1.2 0.5,0.2 1,-0.1 1.2,-0.6 0.2,-0.5 -0.1,-1 -0.6,-1.2 z" />
			<path
   style="fill:#6ca2c5"
   id="path818"
   d="m 216.3,689.3 c -0.5,-0.2 -0.9,0.3 -0.8,0.7 l 0,0.1 c 0.1,0.4 0.7,0.6 1,0.3 l 0.1,-0.1 c 0.3,-0.2 0.2,-0.8 -0.3,-1 z" />
			<path
   style="fill:#6ca2c5"
   id="path820"
   d="m 212.7,689.1 0,-0.1 c 0,-0.5 -0.6,-0.7 -0.9,-0.3 l -0.1,0.1 c -0.2,0.3 0,0.7 0.3,0.8 0.3,0.1 0.7,-0.2 0.7,-0.5 z" />
			<path
   style="fill:#6ca2c5"
   id="path822"
   d="m 212.1,683.8 c -1,-0.3 -1.5,1.3 -0.5,1.6 1.1,0.3 1.6,-1.3 0.5,-1.6 z" />
			<path
   style="fill:#6ca2c5"
   id="path824"
   d="m 211.8,678.1 c -0.7,-0.2 -1,0.8 -0.3,1.1 0.7,0.3 1,-0.9 0.3,-1.1 z" />
			<path
   style="fill:#6ca2c5"
   id="path826"
   d="m 210.9,673.3 c -1,-0.3 -1.5,1.2 -0.5,1.5 1,0.3 1.5,-1.2 0.5,-1.5 z" />
			<path
   style="fill:#6ca2c5"
   id="path828"
   d="m 208.1,671.3 c -0.3,-0.6 -1.2,-0.5 -1.4,0.1 0,0.1 0,0.1 -0.1,0.2 -0.1,0.3 0.1,0.6 0.3,0.7 0.1,0 0.1,0 0.2,0.1 0.7,0.2 1.3,-0.5 1,-1.1 z" />
			<path
   style="fill:#6ca2c5"
   id="path830"
   d="m 204.1,676.3 c -1.2,-0.4 -1.7,1.4 -0.6,1.8 1.2,0.3 1.8,-1.5 0.6,-1.8 z" />
			<path
   style="fill:#6ca2c5"
   id="path832"
   d="m 201.2,682.5 c -1.1,-0.4 -1.7,1.4 -0.5,1.8 1.2,0.4 1.7,-1.5 0.5,-1.8 z" />
			<path
   style="fill:#6ca2c5"
   id="path834"
   d="m 200.1,687.5 c -0.1,0 -0.1,0 0,0 -0.4,-0.4 -0.9,-0.3 -1.1,0.2 -0.1,0.4 0.3,0.9 0.7,0.8 0,0 0.1,0 0.1,0 0.4,-0.2 0.5,-0.7 0.3,-1 z" />
			<path
   style="fill:#6ca2c5"
   id="path836"
   d="m 193.6,687.4 c -0.3,-0.4 -0.9,-0.3 -1.2,0.1 -0.5,0.7 0.5,1.6 1.2,1 0.3,-0.3 0.3,-0.8 0,-1.1 z" />
			<path
   style="fill:#6ca2c5"
   id="path838"
   d="m 187.6,687.5 c -0.1,-0.4 -0.5,-0.6 -0.8,-0.5 -0.4,0.1 -0.6,0.5 -0.5,0.8 0,0.2 0.1,0.4 0.3,0.5 0.3,0.2 0.8,0.3 1,-0.1 0,-0.2 0.1,-0.4 0,-0.7 z" />
		</g>
		<circle
   style="opacity:0.8;fill:#ffffff"
   id="circle840"
   r="4.9000001"
   cy="666.40002"
   cx="188.60001" />
		<circle
   style="opacity:0.8;fill:#ffffff"
   id="circle842"
   r="4.0999999"
   cy="649.29999"
   cx="202.39999" />
		<circle
   style="opacity:0.8;fill:#ffffff"
   id="circle844"
   r="2.4000001"
   cy="638.70001"
   cx="189.39999" />
	</g>
	<g
   id="g846">
		<g
   id="g848">
			<path
   style="fill:#05728f"
   id="path850"
   d="m 763.6,757.5 c -4.2,6.4 -3.3,13.8 -3.3,21 0,4.2 -1.6,7.5 -3.7,11.1 -1.7,2.8 -3.8,5.2 -3.2,8.6 0.1,0.6 0.8,1.1 1.5,1.1 6.4,-0.2 10.6,-10.6 11.7,-15.9 0.8,-3.9 0.3,-7.9 0.2,-11.8 -0.1,-4.3 0.9,-7.9 2.2,-11.9 1,-3.2 -3.7,-4.8 -5.4,-2.2 z" />
			<path
   style="fill:#05728f"
   id="path852"
   d="m 781,760.8 c 0.9,-1.2 0.7,-2.9 -0.9,-3.4 -3.5,-1 -5.5,2.7 -7,5.3 -2.2,3.8 -3.1,8.2 -3.2,12.5 -0.1,4.7 1.6,9.2 2.6,13.7 1.1,5.2 -2.4,9.3 -2.3,14.2 0,1.2 1.2,2.3 2.5,1.9 7.4,-2.4 7.3,-13.1 6,-19.3 -1,-4.5 -2.5,-8.4 -2.3,-13.1 0.4,-4.2 2,-8.5 4.6,-11.8 z" />
			<path
   style="fill:#05728f"
   id="path854"
   d="m 792.7,788 c -0.8,-4.4 -2.3,-8.6 -2.6,-13.1 -0.4,-5.1 1.1,-9 2.6,-13.8 0.8,-2.4 -2.4,-4.1 -4.1,-2.4 -5.5,5.6 -5.6,14.9 -4.6,22.1 0.6,4.5 2.5,8.8 1.6,13.4 -0.8,3.9 -4.1,7.1 -3.1,11.2 0.2,0.7 0.9,1.3 1.6,1.2 7.8,-0.6 9.6,-12.5 8.6,-18.6 z" />
			<path
   style="fill:#05728f"
   id="path856"
   d="m 806.7,798.7 c -1.6,-2.2 -3.3,-4.3 -4.3,-6.9 -1.3,-3.8 -0.3,-8.4 0.4,-12.2 0.8,-4.9 2.7,-15.3 -3.2,-17.9 -1.3,-0.6 -3.1,0.1 -3.1,1.8 0,1.4 0.4,2.4 0.8,3.7 0.6,2.1 0.2,4.6 -0.1,6.8 -0.6,4.2 -1.9,8.3 -2.3,12.6 -0.5,6.2 2.3,15.7 9.9,15.4 1.6,-0.2 2.9,-1.9 1.9,-3.3 z" />
			<path
   style="fill:#05728f"
   id="path858"
   d="m 759.7,767.1 c -4.2,-2.5 0.8,-25.8 24.8,-24.8 24,1 24.9,21.7 21.7,30.4 -1.3,3.6 -11.2,-1.3 -19.2,-1.3 -7.9,0.1 -21.7,-1 -27.3,-4.3 z" />
			<path
   style="fill:#6ca2c5"
   id="path860"
   d="m 768.4,756.7 c -0.1,0 -0.1,0 -0.2,-0.1 -0.4,-0.3 -1,-0.2 -1.2,0.4 -0.3,0.9 0.9,1.6 1.6,0.9 0.2,-0.3 0.2,-1 -0.2,-1.2 z" />
			<path
   style="fill:#6ca2c5"
   id="path862"
   d="m 774,749 c -1.7,0 -1.7,2.6 0,2.6 1.7,0 1.7,-2.6 0,-2.6 z" />
			<path
   style="fill:#6ca2c5"
   id="path864"
   d="m 777.2,756 c 0,0 -0.1,0 0,0 -0.7,0.1 -0.7,1.2 -0.1,1.3 0,0 0.1,0 0.1,0 0.4,0.1 0.9,-0.2 0.9,-0.7 0,-0.4 -0.5,-0.7 -0.9,-0.6 z" />
			<path
   style="fill:#6ca2c5"
   id="path866"
   d="m 782.3,752 c -1.3,0 -1.3,2.1 0,2.1 1.3,0 1.3,-2.1 0,-2.1 z" />
			<path
   style="fill:#6ca2c5"
   id="path868"
   d="m 787.5,746.9 c 0,0 0,-0.1 0,0 -0.3,-0.9 -1.4,-0.9 -1.7,-0.1 0,0 0,0.1 0,0.1 -0.2,0.6 0.3,1.1 0.9,1.1 0.6,0 1,-0.5 0.8,-1.1 z" />
			<path
   style="fill:#6ca2c5"
   id="path870"
   d="m 791.1,753.8 c -0.3,0.2 -0.5,0.5 -0.4,0.9 0,0.1 0.1,0.2 0.1,0.3 0.1,0.3 0.3,0.5 0.6,0.5 0.5,0.1 0.9,-0.2 1.1,-0.6 0.3,-0.8 -0.7,-1.6 -1.4,-1.1 z" />
			<path
   style="fill:#6ca2c5"
   id="path872"
   d="m 786.4,759.2 c 0,0 0,-0.1 0,0 -0.1,-0.8 -1.3,-0.8 -1.4,-0.1 0,0 0,0.1 0,0.1 -0.1,0.5 0.2,0.9 0.7,0.9 0.5,0 0.8,-0.4 0.7,-0.9 z" />
			<path
   style="fill:#6ca2c5"
   id="path874"
   d="m 794.9,763.7 c -0.5,0 -0.8,0.2 -1.2,0.5 -0.6,0.6 -0.2,1.9 0.8,1.8 0.5,0 0.8,-0.1 1.2,-0.5 0.6,-0.6 0.2,-1.8 -0.8,-1.8 z" />
			<path
   style="fill:#6ca2c5"
   id="path876"
   d="m 802,761.2 c -0.6,0 -1.2,0.5 -1.2,1.2 0,0.7 0.5,1.2 1.2,1.2 0.7,0 1.2,-0.5 1.2,-1.2 0,-0.7 -0.5,-1.2 -1.2,-1.2 z" />
			<path
   style="fill:#6ca2c5"
   id="path878"
   d="m 800.3,756 c -0.9,0 -0.9,1.3 0,1.3 0.9,0 0.9,-1.3 0,-1.3 z" />
			<path
   style="fill:#6ca2c5"
   id="path880"
   d="m 798.3,748.7 c -0.4,-0.3 -0.7,-0.5 -1.3,-0.4 -0.5,0.1 -0.7,0.6 -0.8,1 0,0.4 0.1,0.7 0.4,1 0.5,0.4 1.2,0.5 1.6,0 0.5,-0.4 0.6,-1.2 0.1,-1.6 z" />
			<path
   style="fill:#6ca2c5"
   id="path882"
   d="m 781.7,746.4 c -0.5,-0.4 -1.1,0.2 -0.7,0.7 0.2,0.2 0.4,0.3 0.7,0.3 0.2,0 0.3,-0.1 0.3,-0.3 0.1,-0.3 0,-0.5 -0.3,-0.7 z" />
			<path
   style="fill:#6ca2c5"
   id="path884"
   d="m 768.9,750.8 c -0.1,0 -0.1,0 0,0 -0.3,-0.5 -0.9,-0.5 -1.1,-0.1 0,0 0,0 0,0.1 -0.2,0.4 0.1,1 0.6,1 0.5,0 0.7,-0.5 0.5,-1 z" />
			<path
   style="fill:#6ca2c5"
   id="path886"
   d="m 763.1,759.5 c -0.6,-0.6 -1.4,0.6 -0.5,0.9 0.5,0.2 0.9,-0.5 0.5,-0.9 z" />
			<path
   style="fill:#6ca2c5"
   id="path888"
   d="m 773.8,761 c -1,0 -1,1.5 0,1.5 1,0 1,-1.5 0,-1.5 z" />
			<path
   style="fill:#6ca2c5"
   id="path890"
   d="m 781.1,762.4 c -1.2,0 -1.2,1.9 0,1.9 1.3,0 1.3,-1.9 0,-1.9 z" />
			<path
   style="fill:#6ca2c5"
   id="path892"
   d="m 788.5,764.5 c -0.1,-0.1 -0.3,-0.1 -0.4,-0.2 -0.9,-0.2 -1.7,0.7 -1.2,1.6 0.2,0.3 0.6,0.5 0.9,0.5 0.5,0 0.9,-0.3 1,-0.8 0.2,-0.3 0.1,-0.8 -0.3,-1.1 z" />
		</g>
		<circle
   style="opacity:0.8;fill:#ffffff"
   id="circle894"
   r="2.7"
   cy="724.70001"
   cx="786.09998" />
		<circle
   style="opacity:0.8;fill:#ffffff"
   id="circle896"
   r="3.3"
   cy="697.40002"
   cx="794.09998" />
		<circle
   style="opacity:0.8;fill:#ffffff"
   id="circle898"
   r="3.3"
   cy="707.40002"
   cx="776.79999" />
	</g>
	
	
	
	<g
   id="g906">
		<path
   style="fill:#ef3d46"
   id="path908"
   d="m 1581.3,537.1 c -2.5,11.4 -22.7,16.8 -45.2,11.9 -22.5,-4.9 -38.7,-18.1 -36.2,-29.5 2.5,-11.4 22.7,-16.8 45.2,-11.9 22.5,4.8 38.7,18 36.2,29.5 z" />
		<g
   id="g910">
			<polygon
   style="fill:#ef3d46"
   id="polygon912"
   points="1564.7,535.8 1566.7,538.8 1595,520.5 1593.1,517.5 " />
		</g>
		<path
   style="fill:#ef3d46"
   id="path914"
   d="m 1594,504.4 c -5.8,3.7 -7.4,11.4 -3.7,17.2 3.7,5.8 11.4,7.4 17.2,3.7 4.5,-2.9 6.5,-8.2 5.4,-13.2 -0.3,-1.4 -15.7,6.8 -16.6,5.6 -0.7,-1.1 13.3,-11.6 12.4,-12.4 -4,-3.4 -10,-3.9 -14.7,-0.9 z" />
		<g
   id="g916">
			
				<rect
   style="fill:#ef3d46"
   id="rect918"
   height="33.700001"
   width="3.5"
   transform="matrix(-0.8409,0.5412,-0.5412,-0.8409,3048.0649,127.0189)"
   y="494.70001"
   x="1503.6" />
			<path
   style="fill:#ef3d46"
   id="path920"
   d="m 1503.2,484.7 c 3.7,5.8 2.1,13.4 -3.7,17.2 -5.8,3.7 -13.4,2.1 -17.2,-3.7 -2.9,-4.5 -2.5,-10.2 0.5,-14.2 0.9,-1.1 11.5,12.7 12.8,11.9 1.1,-0.7 -7.3,-16.1 -6.2,-16.4 5.1,-1.4 10.8,0.6 13.8,5.2 z" />
		</g>
		<g
   id="g922">
			<g
   id="g924">
				
					<rect
   style="fill:#ef3d46"
   id="rect926"
   height="33.700001"
   width="3.5"
   transform="matrix(-0.8411,0.5408,-0.5408,-0.8411,3150.312,179.1507)"
   y="535.40002"
   x="1547.1" />
				
					<rect
   style="fill:#ef3d46"
   id="rect928"
   height="33.700001"
   width="3.5"
   transform="matrix(-0.8411,0.5409,-0.5409,-0.8411,3175.2346,177.2294)"
   y="538.20001"
   x="1559.8" />
				
					<rect
   style="fill:#ef3d46"
   id="rect930"
   height="33.700001"
   width="3.5"
   transform="matrix(-0.8407,0.5414,-0.5414,-0.8407,3199.9331,174.3982)"
   y="541"
   x="1572.5" />
			</g>
			<g
   id="g932">
				
					<rect
   style="fill:#ef3d46"
   id="rect934"
   height="33.700001"
   width="3.5"
   transform="matrix(0.5416,0.8407,-0.8407,0.5416,1157.8712,-1029.785)"
   y="529.90002"
   x="1521.3" />
				<polygon
   style="fill:#ef3d46"
   id="polygon936"
   points="1495.2,551.6 1497.2,554.6 1525.5,536.3 1523.6,533.3 " />
				<polygon
   style="fill:#ef3d46"
   id="polygon938"
   points="1482.5,548.8 1484.4,551.8 1512.8,533.6 1510.8,530.6 " />
			</g>
		</g>
		<g
   id="g940">
			<polygon
   style="fill:#ef3d46"
   id="polygon942"
   points="1535.2,497.1 1538.8,497.9 1535.9,511.5 1532.3,510.7 " />
			
				<rect
   style="fill:#ef3d46"
   id="rect944"
   height="14"
   width="3.7"
   transform="matrix(0.9772,0.2122,-0.2122,0.9772,143.444,-318.2987)"
   y="502.20001"
   x="1553" />
			<path
   style="fill:#2c2f31"
   id="path946"
   d="m 1541,498 c -0.4,2 -2.4,3.3 -4.4,2.9 -2,-0.4 -3.3,-2.4 -2.9,-4.4 0.4,-2 2.4,-3.3 4.4,-2.9 2,0.5 3.3,2.4 2.9,4.4 z" />
			<path
   style="fill:#2c2f31"
   id="path948"
   d="m 1560.3,502.2 c -0.4,2 -2.4,3.3 -4.4,2.9 -2,-0.4 -3.3,-2.4 -2.9,-4.4 0.4,-2 2.4,-3.3 4.4,-2.9 2,0.4 3.3,2.4 2.9,4.4 z" />
		</g>
	</g>
</g>
</svg>