<?xml version="1.0" encoding="UTF-8" standalone="no"?>
<svg
   xmlns:dc="http://purl.org/dc/elements/1.1/"
   xmlns:cc="http://creativecommons.org/ns#"
   xmlns:rdf="http://www.w3.org/1999/02/22-rdf-syntax-ns#"
   xmlns:svg="http://www.w3.org/2000/svg"
   xmlns="http://www.w3.org/2000/svg"
   xmlns:xlink="http://www.w3.org/1999/xlink"
   id="svg2"
   xml:space="preserve"
   viewBox="0 0 2200 932.40002"
   height="932.40002"
   width="2200"
   y="0px"
   x="0px"
   version="1.1"><metadata
   id="metadata749"><rdf:RDF><cc:Work
       rdf:about=""><dc:format>image/svg+xml</dc:format><dc:type
         rdf:resource="http://purl.org/dc/dcmitype/StillImage" /><dc:title></dc:title></cc:Work></rdf:RDF></metadata>


<defs
   id="defs4">
<style
   id="style6"
   type="text/css">

.rellenos {
	fill:#FFFFFF;
}

.trazos1, .trazos2, .trazos3, .trazos4 {
	fill:none;
	stroke:#FFFFFF;
}

.trazos1 {
	stroke-width:3;
}

.trazos2 {
	stroke-width:6;
}

.trazos3 {
	stroke-width:8;
}

.trazos4 {
	stroke-width:1.5;
}

.boe {
	fill:#004379;
}

</style>

<symbol
   id="boe-01">
	<path
   id="path9"
   d="m 649.3,500 c 0,257.5 208.7,466.2 466.2,466.2 257.5,0 466.2,-208.7 466.2,-466.2 C 1581.7,242.5 1373,33.8 1115.5,33.8 858,33.8 649.3,242.5 649.3,500 Z" />
	<polygon
   id="polygon11"
   points="2200,370.4 2200,629.6 1876.5,629.6 1876.5,672.6 2200,672.6 2200,941.2 1616.5,941.2 1616.5,58.9 2200,58.9 2200,327.4 1876.5,327.4 1876.5,370.4 " />
	<path
   id="path13"
   d="m 649.3,711.7 c 0,110.2 -75.2,202.8 -177,229.5 l 0,-0.2 -472.3,0 0,-268.5 323.5,0 0,-42.9 -323.5,0 0,-259.3 323.5,0 0,-42.9 -323.5,0 0,-268.6 472.3,0 c 101.9,26.7 177,119.3 177,229.5 0,92.5 -53,172.7 -130.3,211.8 77.3,39 130.3,119.2 130.3,211.6 z" />
</symbol>

<symbol
   id="coro-01">
	<path
   id="path16"
   d="m 500,321.6 c -58.9,0.1 -112.2,7.5 -149.9,19.5 -4.4,4 -2.2,11 0.6,11.9 22.2,7.1 49.6,12.5 80.4,15.8" />
	<path
   id="path18"
   d="m 500,280.9 c -66.2,0.1 -125.6,8.6 -167.5,22.1 -2.8,1 -3.8,9 3.3,10 0.1,0 0.1,0 0.2,-0.1 1.1,0 7.5,0.5 11.8,12.3 3.9,10.6 2.4,15.9 2.4,15.9" />
	<path
   id="path20"
   d="M 336.6,313 C 382,297.8 447.1,290.7 500,290.7" />
	<path
   id="path22"
   d="m 500,331.4 c -53.2,0.1 -101.3,6.2 -137.9,16.3 36.6,10 84.7,16.4 137.9,16.5" />
	<path
   id="path24"
   d="m 500,180.4 c -4.9,4.8 -8.5,11.9 -9,19.2 0,0 -0.9,-1.3 -4.4,-2.7 -3.4,-1.3 -6.1,-0.8 -6.1,-0.8 0,0 1.9,5.4 2.7,7.2 0.8,1.9 1.9,7.7 4,12.9 1.9,4.5 4.3,7.9 4.9,8.6 -0.7,-0.5 -4.4,-3.4 -8.8,-5.5 -3.7,-1.8 -10.5,-3 -12.5,-3.4 -2,-0.4 -6.1,-1.2 -6.1,-1.2 0,0 0.2,1 1,3.4 1,2.8 1.9,4.7 1.9,4.7 -7.1,0.5 -13.7,4.2 -18.3,8.9 4.6,4.9 11.3,8.5 18.3,9 0,0 -0.9,1.9 -1.9,4.7 -0.8,2.4 -1,3.4 -1,3.4 0,0 4.1,-0.8 6.1,-1.2 2.1,-0.4 8.9,-1.7 12.5,-3.4 4.8,-2.3 9.2,-5.7 9.2,-5.7 1,2.6 3.1,6.2 3.1,9.1 0,13.1 -10.6,23.7 -23.6,23.7 -10.5,0 -19.4,-6.9 -22.5,-16.3 -0.3,0.3 -2.3,-8.5 -3.2,-8.4 -0.8,0.1 -0.8,9.2 -1,9 -1.5,11.9 -11.8,19.9 -23.5,19.9 -13.1,0 -23.6,-10.5 -23.6,-23.6 0,-1 0.3,-4.5 0.4,-5.5 0,0 4.3,2.2 8.8,3.5 3.4,1 9.6,1 11.4,1 1.8,0 5.5,0.1 5.5,0.1 0,0 -0.3,-0.9 -1.4,-2.8 -1.2,-2.3 -2.4,-3.8 -2.4,-3.8 6.1,-1.5 11.3,-5.7 14.6,-10.6 -4.7,-3.5 -11.1,-5.7 -17.3,-5 0,0 0.5,-1.8 0.9,-4.4 0.3,-2.1 0.3,-3.1 0.3,-3.1 0,0 -3.4,1.3 -5.2,2 -1.7,0.7 -7.4,2.8 -10.4,4.9 -3.2,2.3 -5.8,5 -6.7,5.9 0.5,-1.1 1.9,-4.2 2.8,-8 1.1,-4.8 1.1,-10 1.5,-11.8 0.4,-1.7 1.2,-6.7 1.2,-6.7 0,0 -2.4,-0.1 -5.2,1.6 -2.8,1.7 -3.4,3 -3.4,3 -1.6,-6.3 -6,-12 -11.1,-15.4 -3.6,4.9 -5.7,11.7 -5,18.2 0,0 -1,-1 -4.3,-1.6 -3.2,-0.6 -5.4,0.3 -5.4,0.3 0,0 2.4,4.3 3.4,5.9 1,1.4 2.8,6.4 5.5,10.5 2.5,3.9 5.2,6.5 5.5,6.8 -0.6,-0.3 -4.4,-2.3 -8.6,-3.4 -3.5,-1 -9.6,-1 -11.4,-1.1 -1.8,-0.1 -5.5,-0.1 -5.5,-0.1 0,0 0.3,0.9 1.3,2.8 1.3,2.3 2.4,3.8 2.4,3.8 -6.1,1.5 -11.3,5.7 -14.5,10.7 4.7,3.5 11.1,5.6 17.3,4.9 0,0 -0.6,1.8 -1,4.4 -0.3,2.2 -0.3,3.1 -0.3,3.1 0,0 3.4,-1.3 5.1,-2 1.7,-0.7 7.4,-2.8 10.4,-4.9 3.9,-2.7 7.1,-6.3 7.1,-6.3 1.6,3.1 4.3,8.9 4.3,12.6 0,12.5 -10.1,22.6 -22.6,22.6 -7.9,0 -14.7,-4 -18.8,-10.1 l -4.7,-6.3 0,7.8 c 0,7.9 -3.1,14.9 -10.4,16.1 0,0 -8.3,0.6 -19.4,-8.6 -4.7,-3.9 -9,-7.8 -12.6,-11.3 2,0.4 4.7,0.7 7.2,0.9 4.1,0.3 10.9,-0.8 12.9,-1.1 2.1,-0.3 6.2,-1 6.2,-1 0,0 -0.5,-0.8 -2.1,-2.5 -1.9,-2 -4,-3.8 -4,-3.8 5.8,-2.3 10.2,-6.9 12.5,-11.7 -5.4,-2.3 -12.4,-3.3 -18.4,-2.5 0,0 0.2,-1.6 0,-4.2 -0.1,-2.2 -0.3,-3.1 -0.3,-3.1 0,0 -3.3,2.4 -6.6,4 -3.3,1.6 -9.5,5.1 -11.9,8.4 -2.4,3.3 -4.1,8.2 -4.1,8.2 0,0 3.3,-11.4 0.3,-19.3 -3,-7.9 -9.5,-9.3 -9.5,-9.3 l -1.1,5.4 c -2.7,-3.5 -7.2,-5.6 -12,-5.6 -8.1,0 -14.4,6.6 -14.4,14.7 0,0 10.6,-0.9 16.8,2.6 6.2,3.6 11.6,14.1 11.6,14.1 0,0 20.6,24.2 30.6,30.4 5.5,3.3 13.8,6.8 20.3,5.7 7,-1.2 11.9,-7.1 14.5,-13.9 5,3.1 10.8,4.9 17.1,4.9 13.5,0 25.6,-7.8 30.4,-19.5 6.2,7.1 14.8,11.4 25,11.4 10.8,0 20.7,-5.1 26.9,-13 6.1,5.9 14.3,9.5 23.4,9.5 11.7,0 22.1,-6 28.2,-15" />
</symbol>
<symbol
   id="coro-02">
	<path
   id="path27"
   d="m 402.9,173.9 c 15.5,-6.5 30.4,-18.7 75.7,-21.6" />
	<path
   id="path29"
   d="m 266.4,235 c -2.7,-9.1 -2.2,-19.4 1.3,-23.5 25.9,-30.1 53.4,-36.3 76.4,-36.4" />
	<path
   id="path31"
   d="m 345.1,175.3 c 7.2,-3.4 19.6,7.1 35.1,26.1" />
	<path
   id="path33"
   d="m 452.1,229 c -35.8,-57.3 -96.5,-97.8 -107,-53.7" />
	<path
   id="path35"
   d="m 496,94.1 c -10.4,2 -12.3,9 -13,15.2 l 0,0 -1,9.5 c 0,0 -1.2,28.4 -7.1,61 l 16.3,18.3" />
</symbol>
<symbol
   id="coro-03">
	<path
   id="path38"
   d="m 391.2,177.4 c 21.9,-3.6 31.3,-21.5 87.7,-25.1" />
	<path
   id="path40"
   d="m 273.5,205.2 c 33,-33.7 67.9,-31.3 92.2,-28.6" />
	<path
   id="path42"
   d="m 388.2,201.4 10.1,-17.3 C 343,137.2 419,79.3 482,118.8" />
	<path
   id="path44"
   d="m 267.2,235.5 13.8,-22 c -27.9,-22.5 -22.1,-91.6 84.8,-79" />
	<path
   id="path46"
   d="m 367.8,127.3 c -48.2,-10.6 -136.7,13 -103.7,89.3 l -8.9,8" />
	<path
   id="path48"
   d="M 482.3,110.1 C 435,81.5 379.5,104.7 372.4,139.3 c -5.9,29 13.3,45.5 13.3,45.5 l -3.3,5.4" />
	<path
   id="path50"
   d="m 496,94.1 c -10.4,2 -12.3,9 -13,15.2 l 0,0 -1,9.5 c 0,0 -1.2,28.4 -7.1,61 l 16.3,18.3" />
</symbol>
<symbol
   id="cruz-01">
	<path
   id="path53"
   d="m 521.8,72.7 c 0,-12 -9.8,-21.8 -21.8,-21.8 -12,0 -21.8,9.8 -21.8,21.8 0,12 9.8,21.8 21.8,21.8 12,0 21.8,-9.8 21.8,-21.8 z"
   style="fill:none" />
</symbol>
<symbol
   id="cruz-02">
	<rect
   id="rect56"
   height="10.9"
   width="54.5"
   y="70.599998"
   x="472.79999" />
</symbol>
<symbol
   id="cruz-03">
	<rect
   id="rect59"
   height="56.700001"
   width="10.9"
   y="13.9"
   x="494.60001" />
	<rect
   id="rect61"
   height="10.9"
   width="34.900002"
   y="25.9"
   x="482.60001" />
</symbol>
<symbol
   id="joya-01">
	<path
   id="path64"
   d="m 521.8,306.1 c 0,3 -2.4,5.4 -5.5,5.4 l -32.7,0 c -3,0 -5.5,-2.4 -5.5,-5.4 l 0,0 c 0,-3 2.4,-5.4 5.5,-5.4 l 32.7,0 c 3.1,-0.1 5.5,2.4 5.5,5.4 l 0,0 z" />
	<path
   id="path66"
   d="m 510.9,231.8 c 0,-6 -4.9,-10.9 -10.9,-10.9 -6,0 -10.9,4.9 -10.9,10.9 0,6 4.9,10.9 10.9,10.9 6,0 10.9,-4.9 10.9,-10.9 z" />
</symbol>
<symbol
   id="joya-02">
	<polygon
   id="polygon69"
   points="348.6,330.7 361.6,320.7 345.4,318.5 339.5,326.6 " />
	<path
   id="path71"
   d="m 401.6,241.7 c 0,-6 -4.9,-10.9 -10.9,-10.9 -6,0 -10.9,4.9 -10.9,10.9 0,6 4.9,10.9 10.9,10.9 6,0 10.9,-4.9 10.9,-10.9 z" />
	<path
   id="path73"
   d="m 296.5,266.1 c -4.2,-4.3 -9.9,-5.5 -12.7,-2.8 -2.8,2.8 -1.7,8.5 2.5,12.8 4.2,4.3 9.9,5.5 12.7,2.8 2.9,-2.8 1.7,-8.6 -2.5,-12.8 z" />
	<path
   id="path75"
   d="m 437.7,308.7 c 0.4,3 -1.8,5.7 -4.8,6 l -23.8,2.8 c -3,0.3 -5.7,-1.8 -6,-4.8 l 0,0 c -0.4,-3 1.8,-5.7 4.8,-6 l 23.8,-2.8 c 2.9,-0.3 5.6,1.8 6,4.8 l 0,0 z" />
	<path
   id="path77"
   d="m 464.8,307.2 c 0,-3 -2.4,-5.4 -5.5,-5.4 -3,0 -5.4,2.4 -5.4,5.4 0,3 2.4,5.4 5.4,5.4 3.1,0.1 5.5,-2.4 5.5,-5.4 z" />
	<path
   id="path79"
   d="m 385.3,317 c 0,-3 -2.4,-5.4 -5.4,-5.4 -3,0 -5.4,2.4 -5.4,5.4 0,3 2.4,5.4 5.4,5.4 2.9,0.1 5.4,-2.4 5.4,-5.4 z" />
	<path
   id="path81"
   d="m 451.6,246.9 c -0.7,-4.2 -3.7,-7.1 -6.6,-6.6 -3,0.5 -4.8,4.3 -4.1,8.4 0.7,4.1 3.7,7.1 6.6,6.6 2.9,-0.5 4.8,-4.3 4.1,-8.4 z" />
	<path
   id="path83"
   d="m 348.3,266.1 c -1.3,-4 -4.6,-6.5 -7.5,-5.6 -2.9,0.9 -4.2,4.9 -2.9,8.9 1.3,4 4.6,6.6 7.5,5.7 2.9,-1 4.2,-5 2.9,-9 z" />
</symbol>
<symbol
   id="perl-02">
	<circle
   id="circle86"
   r="5.4000001"
   cy="219.2"
   cx="246.60001" />
	<circle
   id="circle88"
   r="5.4000001"
   cy="232.7"
   cx="253.89999" />
	<circle
   id="circle90"
   r="5.4000001"
   cy="203.60001"
   cx="241.89999" />
	<circle
   id="circle92"
   r="5.4000001"
   cy="186.8"
   cx="241.10001" />
	<circle
   id="circle94"
   r="5.4000001"
   cy="170.3"
   cx="245.2" />
	<circle
   id="circle96"
   r="5.4000001"
   cy="155.3"
   cx="253.3" />
	<circle
   id="circle98"
   r="5.4000001"
   cy="143"
   cx="264.20001" />
	<circle
   id="circle100"
   r="5.4000001"
   cy="132.8"
   cx="276.79999" />
	<circle
   id="circle102"
   r="5.4000001"
   cy="124.4"
   cx="291.79999" />
	<circle
   id="circle104"
   r="5.4000001"
   cy="118.5"
   cx="307.29999" />
	<circle
   id="circle106"
   r="5.4000001"
   cy="115.2"
   cx="324.79999" />
	<circle
   id="circle108"
   r="5.4000001"
   cy="114.2"
   cx="341.29999" />
	<circle
   id="circle110"
   r="5.4000001"
   cy="114.9"
   cx="357.5" />
	<circle
   id="circle112"
   r="5.4000001"
   cy="114.9"
   cx="373.79999" />
	<circle
   id="circle114"
   r="5.4000001"
   cy="104.6"
   cx="386.10001" />
	<circle
   id="circle116"
   r="5.4000001"
   cy="96.199997"
   cx="400.5" />
	<circle
   id="circle118"
   r="5.4000001"
   cy="90.900002"
   cx="416.39999" />
	<circle
   id="circle120"
   r="5.4000001"
   cy="88.099998"
   cx="432.89999" />
	<circle
   id="circle122"
   r="5.4000001"
   cy="88.099998"
   cx="449.10001" />
	<circle
   id="circle124"
   r="5.4000001"
   cy="91.5"
   cx="465.89999" />
	<circle
   id="circle126"
   r="5.4000001"
   cy="97.099998"
   cx="481.5" />
	<circle
   id="circle128"
   r="5.4000001"
   cy="129.5"
   cx="365.70001" />
	<circle
   id="circle130"
   r="5.4000001"
   cy="145.7"
   cx="362.39999" />
	<circle
   id="circle132"
   r="5.4000001"
   cy="161.8"
   cx="361.79999" />
	<circle
   id="circle134"
   r="5.4000001"
   cy="176.7"
   cx="366.60001" />
	<circle
   id="circle136"
   r="5.4000001"
   cy="190.2"
   cx="375.5" />
</symbol>
<symbol
   id="perl-03">
	<circle
   id="circle139"
   r="9.3000002"
   cy="164.2"
   cx="500" />
	<circle
   id="circle141"
   r="7.5"
   cy="144.89999"
   cx="500" />
	<circle
   id="circle143"
   r="5.5999999"
   cy="128.60001"
   cx="500" />
	<circle
   id="circle145"
   r="4.4000001"
   cy="113.2"
   cx="500" />
	<path
   id="path147"
   d="m 506.4,189.6 c 1.5,-1.6 2.5,-3.7 2.5,-6.1 0,-4.9 -4,-8.9 -8.9,-8.9 -4.9,0 -8.9,4 -8.9,8.9 0,2.4 0.9,4.5 2.5,6.1" />
</symbol>
<symbol
   id="cuar-01">
	<path
   id="path150"
   d="m 258.4,369.1 0,452.6 0,0 c 0,46 25.7,85.9 63.5,106.3 l 0,0 0,0.1 c 53,28.6 113.7,44.9 178.1,44.9 64.4,0 125.1,-16.3 178.1,-44.9 l 0,-0.1 0,0 c 37.8,-20.4 63.5,-60.4 63.5,-106.3 l 0,0 0,-452.6 -483.2,0 z" />
</symbol>
<symbol
   id="cuar-02">
	<path
   id="path153"
   d="m 321.6,927.9 c 17.1,9.3 36.7,14.6 57.6,14.6 66.7,0 120.8,-54.1 120.8,-120.8" />
	<line
   id="line155"
   y2="651"
   x2="741.59998"
   y1="651"
   x1="578.5"
   style="fill:none" />
	<path
   id="path157"
   d="m 500,821.7 c 0,66.7 54.1,120.8 120.8,120.8 20.8,0 40.5,-5.3 57.6,-14.6" />
	<line
   id="line159"
   y2="743.59998"
   x2="500"
   y1="821.70001"
   x1="500"
   style="fill:none" />
	<line
   id="line161"
   y2="651"
   x2="421.5"
   y1="651"
   x1="258.39999"
   style="fill:none" />
	<line
   id="line163"
   y2="369.10001"
   x2="500"
   y1="558.29999"
   x1="500"
   style="fill:none" />
</symbol>
<symbol
   id="palo-01">
	<rect
   id="rect166"
   height="291.60001"
   width="26.9"
   y="651"
   x="285.29999" />
	<rect
   id="rect168"
   height="291.60001"
   width="26.799999"
   y="651"
   x="339" />
	<rect
   id="rect170"
   height="291.60001"
   width="26.799999"
   y="651"
   x="392.70001" />
	<rect
   id="rect172"
   height="291.60001"
   width="26.799999"
   y="651"
   x="446.29999" />
</symbol>
<symbol
   id="cast-01">
	<path
   id="path175"
   d="M 338.6,368.8" />
	<path
   id="path177"
   d="M 356.9,361.5" />
	<polygon
   id="polygon179"
   points="426.4,436.3 426.4,441.1 419.2,441.1 419.2,436.3 409.1,436.3 409.1,441.1 401.8,441.1 401.8,436.3 395,436.3 395,455.8 404.1,455.8 404.1,473.2 389.5,473.2 389.5,429.6 398.6,429.6 398.6,410.2 391.7,410.2 391.7,414.9 384.4,414.9 384.4,410.2 374.4,410.2 374.4,414.9 367.1,414.9 367.1,410.2 360.2,410.2 360.2,429.6 369.3,429.6 369.3,473.2 354.7,473.2 354.7,455.8 363.8,455.8 363.8,436.3 356.9,436.3 356.9,441.1 349.7,441.1 349.7,436.3 339.6,436.3 339.6,441.1 332.3,441.1 332.3,436.3 325.5,436.3 325.5,455.8 334.5,455.8 334.5,473.2 318.8,473.2 318.8,506.3 328.9,506.3 328.9,576.1 308.7,576.1 308.7,612.8 450,612.8 450,576.1 429.9,576.1 429.9,506.3 439.9,506.3 439.9,473.2 424.2,473.2 424.2,455.8 433.3,455.8 433.3,436.3 " />
	<polyline
   id="polyline181"
   points="334.5,473.2 339,476.2 339,492.3 350.3,492.3 350.3,476.2 354.7,473.2  " />
	<polyline
   id="polyline183"
   points="369.3,473.2 373.8,476.2 373.8,492.3 385,492.3 385,476.2 389.5,473.2  " />
	<polyline
   id="polyline185"
   points="404.1,473.2 408.5,476.2 408.5,492.3 419.8,492.3 419.8,476.2 424.2,473.2  " />
</symbol>
<symbol
   id="cast-02">
	<path
   id="path188"
   d="m 349.1,522.2 c -3.4,0 -6.1,2.7 -6.1,6.1 l 0,17.7 12.2,0 0,-17.7 c 0,-3.4 -2.7,-6.1 -6.1,-6.1 z" />
	<path
   id="path190"
   d="m 409.7,522.2 c -3.4,0 -6.1,2.7 -6.1,6.1 l 0,17.7 12.2,0 0,-17.7 c 0,-3.4 -2.8,-6.1 -6.1,-6.1 z" />
	<path
   id="path192"
   d="m 379.4,577.5 c -5.6,0 -10.1,3.3 -10.1,7.3 l 0,28 20.2,0 0,-28 c 0,-4 -4.5,-7.3 -10.1,-7.3 z" />
</symbol>
<symbol
   id="cast-03">
	<polygon
   id="polygon195"
   points="389.5,593.5 409.7,593.5 409.7,584.8 404.6,576.1 389.5,584.8 " />
	<line
   id="line197"
   y2="578.79999"
   x2="373.70001"
   y1="567.40002"
   x1="368.5" />
	<line
   id="line199"
   y2="578.79999"
   x2="385.10001"
   y1="567.40002"
   x1="390.29999" />
	<polygon
   id="polygon201"
   points="369.3,593.5 349.1,593.5 349.1,584.8 354.2,576.1 369.3,584.8 " />
	<path
   id="path203"
   d="m 388.3,571.7 c 4.6,1.6 8.2,4.5 10,8" />
	<path
   id="path205"
   d="m 360.5,579.7 c 1.8,-3.5 5.4,-6.4 10,-8" />
	<path
   id="path207"
   d="m 349.1,518.2 c -5.6,0 -10.1,4.5 -10.1,10.1 l 0,21.7 20.2,0 0,-21.7 c 0,-5.6 -4.5,-10.1 -10.1,-10.1 z" />
	<path
   id="path209"
   d="m 409.7,518.2 c -5.6,0 -10.1,4.5 -10.1,10.1 l 0,21.7 20.2,0 0,-21.7 c 0,-5.6 -4.6,-10.1 -10.1,-10.1 z" />
	<line
   id="line211"
   y2="602.29999"
   x2="369.29999"
   y1="602.29999"
   x1="308.70001" />
	<line
   id="line213"
   y2="602.29999"
   x2="450"
   y1="602.29999"
   x1="389.5" />
	<line
   id="line215"
   y2="593.5"
   x2="409.70001"
   y1="593.5"
   x1="450" />
	<line
   id="line217"
   y2="584.79999"
   x2="409.70001"
   y1="584.79999"
   x1="450" />
	<line
   id="line219"
   y2="584.79999"
   x2="308.70001"
   y1="584.79999"
   x1="349.10001" />
	<line
   id="line221"
   y2="593.5"
   x2="308.70001"
   y1="593.5"
   x1="349.10001" />
	<line
   id="line223"
   y2="576.09998"
   x2="363.20001"
   y1="576.09998"
   x1="328.89999" />
	<line
   id="line225"
   y2="576.09998"
   x2="450"
   y1="576.09998"
   x1="395.60001" />
	<line
   id="line227"
   y2="567.40002"
   x2="328.89999"
   y1="567.40002"
   x1="429.89999" />
	<line
   id="line229"
   y2="558.59998"
   x2="429.89999"
   y1="558.59998"
   x1="328.89999" />
	<line
   id="line231"
   y2="549.90002"
   x2="419.79999"
   y1="549.90002"
   x1="429.89999" />
	<line
   id="line233"
   y2="549.90002"
   x2="359.20001"
   y1="549.90002"
   x1="399.60001" />
	<line
   id="line235"
   y2="549.90002"
   x2="328.89999"
   y1="549.90002"
   x1="339" />
	<line
   id="line237"
   y2="541.20001"
   x2="419.79999"
   y1="541.20001"
   x1="429.89999" />
	<line
   id="line239"
   y2="541.20001"
   x2="359.20001"
   y1="541.20001"
   x1="399.60001" />
	<line
   id="line241"
   y2="541.20001"
   x2="328.89999"
   y1="541.20001"
   x1="339" />
	<line
   id="line243"
   y2="532.5"
   x2="419.79999"
   y1="532.5"
   x1="429.89999" />
	<line
   id="line245"
   y2="532.5"
   x2="359.20001"
   y1="532.5"
   x1="399.60001" />
	<line
   id="line247"
   y2="532.5"
   x2="328.89999"
   y1="532.5"
   x1="339" />
	<line
   id="line249"
   y2="523.79999"
   x2="418.70001"
   y1="523.79999"
   x1="429.89999" />
	<line
   id="line251"
   y2="523.79999"
   x2="358.20001"
   y1="523.79999"
   x1="400.60001" />
	<line
   id="line253"
   y2="523.79999"
   x2="328.89999"
   y1="523.79999"
   x1="340.10001" />
	<line
   id="line255"
   y2="515"
   x2="429.89999"
   y1="515"
   x1="328.89999" />
	<line
   id="line257"
   y2="506.29999"
   x2="429.89999"
   y1="506.29999"
   x1="328.89999" />
	<line
   id="line259"
   y2="496.60001"
   x2="439.89999"
   y1="496.60001"
   x1="318.79999" />
	<line
   id="line261"
   y2="487.89999"
   x2="439.89999"
   y1="487.89999"
   x1="318.79999" />
	<line
   id="line263"
   y2="602.29999"
   x2="328.89999"
   y1="612.79999"
   x1="328.89999" />
	<line
   id="line265"
   y2="602.29999"
   x2="349.10001"
   y1="612.79999"
   x1="349.10001" />
	<line
   id="line267"
   y2="602.29999"
   x2="409.70001"
   y1="612.79999"
   x1="409.70001" />
	<line
   id="line269"
   y2="602.29999"
   x2="429.89999"
   y1="612.79999"
   x1="429.89999" />
	<line
   id="line271"
   y2="593.5"
   x2="318.79999"
   y1="602.29999"
   x1="318.79999" />
	<line
   id="line273"
   y2="593.5"
   x2="339"
   y1="602.29999"
   x1="339" />
	<line
   id="line275"
   y2="593.5"
   x2="359.20001"
   y1="602.29999"
   x1="359.20001" />
	<line
   id="line277"
   y2="593.5"
   x2="399.60001"
   y1="602.29999"
   x1="399.60001" />
	<line
   id="line279"
   y2="593.5"
   x2="419.79999"
   y1="602.29999"
   x1="419.79999" />
	<line
   id="line281"
   y2="593.5"
   x2="439.89999"
   y1="602.29999"
   x1="439.89999" />
	<line
   id="line283"
   y2="584.79999"
   x2="328.89999"
   y1="593.5"
   x1="328.89999" />
	<line
   id="line285"
   y2="576.09998"
   x2="318.79999"
   y1="584.79999"
   x1="318.79999" />
	<line
   id="line287"
   y2="576.09998"
   x2="339"
   y1="584.79999"
   x1="339" />
	<line
   id="line289"
   y2="576.09998"
   x2="419.79999"
   y1="584.79999"
   x1="419.79999" />
	<line
   id="line291"
   y2="584.79999"
   x2="429.89999"
   y1="593.5"
   x1="429.89999" />
	<line
   id="line293"
   y2="576.09998"
   x2="439.89999"
   y1="584.79999"
   x1="439.89999" />
	<line
   id="line295"
   y2="567.40002"
   x2="409.70001"
   y1="576.09998"
   x1="409.70001" />
	<line
   id="line297"
   y2="567.40002"
   x2="349.10001"
   y1="576.09998"
   x1="349.10001" />
	<line
   id="line299"
   y2="558.59998"
   x2="339"
   y1="567.40002"
   x1="339" />
	<line
   id="line301"
   y2="558.59998"
   x2="359.20001"
   y1="567.40002"
   x1="359.20001" />
	<line
   id="line303"
   y2="558.59998"
   x2="379.39999"
   y1="567.40002"
   x1="379.39999" />
	<line
   id="line305"
   y2="558.59998"
   x2="399.60001"
   y1="567.40002"
   x1="399.60001" />
	<line
   id="line307"
   y2="558.59998"
   x2="419.79999"
   y1="567.40002"
   x1="419.79999" />
	<line
   id="line309"
   y2="549.90002"
   x2="349.10001"
   y1="558.59998"
   x1="349.10001" />
	<line
   id="line311"
   y2="549.90002"
   x2="369.29999"
   y1="558.59998"
   x1="369.29999" />
	<line
   id="line313"
   y2="549.90002"
   x2="389.5"
   y1="558.59998"
   x1="389.5" />
	<line
   id="line315"
   y2="549.90002"
   x2="409.70001"
   y1="558.59998"
   x1="409.70001" />
	<line
   id="line317"
   y2="541.20001"
   x2="379.39999"
   y1="549.90002"
   x1="379.39999" />
	<line
   id="line319"
   y2="532.5"
   x2="369.29999"
   y1="541.20001"
   x1="369.29999" />
	<line
   id="line321"
   y2="532.5"
   x2="389.5"
   y1="541.20001"
   x1="389.5" />
	<line
   id="line323"
   y2="523.79999"
   x2="379.39999"
   y1="532.5"
   x1="379.39999" />
	<line
   id="line325"
   y2="515"
   x2="369.29999"
   y1="523.79999"
   x1="369.29999" />
	<line
   id="line327"
   y2="515"
   x2="389.5"
   y1="523.79999"
   x1="389.5" />
	<line
   id="line329"
   y2="506.29999"
   x2="339"
   y1="515"
   x1="339" />
	<line
   id="line331"
   y2="506.29999"
   x2="359.20001"
   y1="515"
   x1="359.20001" />
	<line
   id="line333"
   y2="506.29999"
   x2="379.39999"
   y1="515"
   x1="379.39999" />
	<line
   id="line335"
   y2="506.29999"
   x2="399.60001"
   y1="515"
   x1="399.60001" />
	<line
   id="line337"
   y2="506.29999"
   x2="419.79999"
   y1="515"
   x1="419.79999" />
	<line
   id="line339"
   y2="515"
   x2="409.70001"
   y1="518.20001"
   x1="409.70001" />
	<line
   id="line341"
   y2="515"
   x2="349.10001"
   y1="518.20001"
   x1="349.10001" />
	<line
   id="line343"
   y2="496.60001"
   x2="328.89999"
   y1="506.29999"
   x1="328.89999" />
	<line
   id="line345"
   y2="496.60001"
   x2="349.10001"
   y1="506.29999"
   x1="349.10001" />
	<line
   id="line347"
   y2="496.60001"
   x2="369.29999"
   y1="506.29999"
   x1="369.29999" />
	<line
   id="line349"
   y2="496.60001"
   x2="389.5"
   y1="506.29999"
   x1="389.5" />
	<line
   id="line351"
   y2="496.60001"
   x2="409.70001"
   y1="506.29999"
   x1="409.70001" />
	<line
   id="line353"
   y2="496.60001"
   x2="429.89999"
   y1="506.29999"
   x1="429.89999" />
	<line
   id="line355"
   y2="487.89999"
   x2="339"
   y1="496.60001"
   x1="339" />
	<line
   id="line357"
   y2="487.89999"
   x2="359.20001"
   y1="496.60001"
   x1="359.20001" />
	<line
   id="line359"
   y2="487.89999"
   x2="379.39999"
   y1="496.60001"
   x1="379.39999" />
	<line
   id="line361"
   y2="487.89999"
   x2="399.60001"
   y1="496.60001"
   x1="399.60001" />
	<line
   id="line363"
   y2="487.89999"
   x2="419.79999"
   y1="496.60001"
   x1="419.79999" />
	<line
   id="line365"
   y2="479.20001"
   x2="328.89999"
   y1="487.89999"
   x1="328.89999" />
	<line
   id="line367"
   y2="479.20001"
   x2="339"
   y1="487.89999"
   x1="339" />
	<line
   id="line369"
   y2="479.20001"
   x2="350.29999"
   y1="487.89999"
   x1="350.29999" />
	<line
   id="line371"
   y2="479.20001"
   x2="369.29999"
   y1="487.89999"
   x1="369.29999" />
	<line
   id="line373"
   y2="479.20001"
   x2="389.5"
   y1="487.89999"
   x1="389.5" />
	<line
   id="line375"
   y2="479.20001"
   x2="408.5"
   y1="487.89999"
   x1="408.5" />
	<line
   id="line377"
   y2="479.20001"
   x2="419.79999"
   y1="487.89999"
   x1="419.79999" />
	<line
   id="line379"
   y2="479.20001"
   x2="429.89999"
   y1="487.89999"
   x1="429.89999" />
	<line
   id="line381"
   y2="464.5"
   x2="344.60001"
   y1="473.20001"
   x1="344.60001" />
	<line
   id="line383"
   y2="447.10001"
   x2="344.60001"
   y1="455.79999"
   x1="344.60001" />
	<line
   id="line385"
   y2="473.20001"
   x2="379.39999"
   y1="479.10001"
   x1="379.39999" />
	<line
   id="line387"
   y2="429.60001"
   x2="389.5"
   y1="429.60001"
   x1="369.29999" />
	<line
   id="line389"
   y2="455.79999"
   x2="389.5"
   y1="455.79999"
   x1="369.29999" />
	<line
   id="line391"
   y2="464.39999"
   x2="389.5"
   y1="464.39999"
   x1="369.29999" />
	<line
   id="line393"
   y2="464.5"
   x2="424.20001"
   y1="464.5"
   x1="404.10001" />
	<line
   id="line395"
   y2="455.79999"
   x2="424.20001"
   y1="455.79999"
   x1="404.10001" />
	<line
   id="line397"
   y2="464.5"
   x2="354.70001"
   y1="464.5"
   x1="334.5" />
	<line
   id="line399"
   y2="455.79999"
   x2="354.70001"
   y1="455.79999"
   x1="334.5" />
	<line
   id="line401"
   y2="438.29999"
   x2="389.5"
   y1="438.29999"
   x1="369.29999" />
	<line
   id="line403"
   y2="447"
   x2="389.5"
   y1="447"
   x1="369.29999" />
	<line
   id="line405"
   y2="447"
   x2="363.79999"
   y1="447"
   x1="325.5" />
	<line
   id="line407"
   y2="420.89999"
   x2="398.70001"
   y1="420.89999"
   x1="360.20001" />
	<line
   id="line409"
   y2="447"
   x2="433.29999"
   y1="447.10001"
   x1="395" />
	<line
   id="line411"
   y2="473.20001"
   x2="354.70001"
   y1="473.20001"
   x1="334.5" />
	<line
   id="line413"
   y2="473.20001"
   x2="389.5"
   y1="473.20001"
   x1="369.29999" />
	<line
   id="line415"
   y2="473.20001"
   x2="424.20001"
   y1="473.20001"
   x1="404.10001" />
	<line
   id="line417"
   y2="447.10001"
   x2="414.10001"
   y1="455.79999"
   x1="414.10001" />
	<line
   id="line419"
   y2="464.5"
   x2="414.20001"
   y1="473.20001"
   x1="414.10001" />
	<line
   id="line421"
   y2="455.70001"
   x2="379.39999"
   y1="464.39999"
   x1="379.39999" />
	<line
   id="line423"
   y2="438.29999"
   x2="379.39999"
   y1="447"
   x1="379.39999" />
	<line
   id="line425"
   y2="420.89999"
   x2="379.39999"
   y1="429.60001"
   x1="379.39999" />
	<line
   id="line427"
   y2="479.10001"
   x2="439.89999"
   y1="479.20001"
   x1="318.79999" />
	<line
   id="line429"
   y2="473.20001"
   x2="359.20001"
   y1="479.10001"
   x1="359.20001" />
	<line
   id="line431"
   y2="473.20001"
   x2="399.60001"
   y1="479.10001"
   x1="399.60001" />
</symbol>
<symbol
   id="leon-01">
	<path
   id="path434"
   d="m 660.6,427.3 c 0.8,8.7 -0.3,16.3 2.3,24.8 -1.8,-2 -4.6,-3 -6.5,-4.9 -0.1,10.2 10.1,15.7 8.7,25.6 -2.6,-3.7 -6,-5.9 -10.2,-7.6 4.2,4.4 4.7,10.6 2.3,16 -2.1,-4.2 -5.5,-7.7 -9.4,-10.3 3.1,7.3 2.4,14.8 1.7,22.5 -2.4,-3.6 -6.5,-5.5 -8.7,-8.9 6.1,9.1 4.5,21.7 16.5,36.5 14.2,17.6 37.8,6.2 31.2,-14.1 -7.8,-23.9 -8.1,-32.5 -5.4,-51.5 1.2,-8.8 -2.3,-13.9 2.7,-25.3 3,-6.7 5.8,-12.8 5.3,-20.4 2.9,4.4 4.6,9.7 4.2,15 2,-9.5 11.6,-11.1 16.6,-18.5 0,10.4 -5.1,16.7 -11.5,24.2 3.5,-1.4 6.6,-1 10.1,-1.6 -7.6,7.2 -8.7,19.6 -17.2,25.4 -8.4,5.7 -7.3,18.1 -4.9,27 5,18.3 23.5,47.8 -7.5,58.2 -10.6,3.6 -18.5,14.2 -11.5,25.5 5.2,8.5 21.5,7.3 9.7,20.6 -8.5,9.6 -5.2,16.6 -3,27.2 0.6,3 -6.8,1.3 -8.7,2.5 -5.5,3.7 -2,-6.7 -4.4,-6.7 -3.1,0 -0.8,7.3 -3.1,6.8 -14.5,-3 -3,-13.5 -2.1,-12.7 -6.4,-5.4 -7,9.7 -7,-5.7 0,-9.8 3.3,-2.5 7.3,-3.3 13.5,-2.5 -0.8,-13.9 -2.1,-19.6 0.2,3.8 0.2,7.6 0,11.4 -3.1,-3 -5.6,-6.7 -6.6,-10.9 -0.2,1.6 1.2,11.2 1.2,11.2 0,0 -19,-12.8 -10.3,-30.7 -20.7,0.6 -13.9,7.7 -11.1,25.4 1.7,10.6 -18.8,5.4 -23.5,3.7 -7.1,-2.6 -3.7,3.8 -6.3,6.2 -2,1.9 -12.8,-0.4 -9.8,-4.9 3.4,-5 0.4,-5.4 -3.8,-2.3 -3.7,2.7 -5.5,-8.1 -5.7,-10.3 -0.2,-2.8 7.8,2.2 8.8,-0.1 1.3,-3.5 -5.9,-5.4 -2.9,-7.9 1,-0.8 6.6,-6.7 7.1,-6 4.1,6 2.1,12.6 13,11.5 8.1,-0.9 6.6,-6.3 6.6,-13.1 -1.7,2.5 -3.7,4.1 -5.1,7.1 0,-5 0.2,-9.9 -0.9,-14.8 -0.6,3.5 -1.9,6.6 -2.2,10.2 -4.1,-6.5 -3.7,-17.1 1.2,-23.2 5.9,-7.2 21.5,-3.1 30.2,-5.3 -9.1,-4.9 -18.3,-9.2 -24.9,-17.5 -2,-2.5 -4.6,-11.9 -7.3,-11.3 -5.7,1.2 -10.3,6.6 -12.8,11.6 0.5,-3.5 0.5,-7.1 0.1,-10.6 -3.2,11 -12,14.8 -12,14.8 0,0 2.8,-7.1 1.3,-9.5 -3.4,7.7 -14.5,4.5 -15,7.2 -0.8,3.8 2,7.4 -2.2,9.9 -1.4,0.2 -8.1,-1.3 -7.4,-1.1 -3.9,-1.3 2.4,-6.7 1.6,-7.7 -1.1,-1.3 -8.7,4.1 -8.1,0 0.5,-1.8 0.6,-3.5 0.3,-5.3 -2.4,-5.7 5.9,-1.7 6.7,-4.1 1.3,-3.2 -10.4,-3.2 -6.7,-7 2.6,-2.6 4.9,-9.9 8.5,-3.2 5.4,10.2 23.1,-5.7 27.9,-9.5 -10,-7.7 -15.7,-10.7 -27.6,-15.1 2.9,-1.9 6.3,-3.5 9.4,-4.3 -6.4,0.5 -11.2,-4.4 -17.3,-2.8 3.5,-2.5 7.7,-3.7 12,-3.4 -5.4,-1.3 -5.5,-4.1 -8.7,-8.2 -3.5,-4.8 -3.6,-0.9 -8.4,-1.2 -3.3,-0.4 -2.4,-4 -3.3,-6.2 -3.8,-8.6 4.3,-1.4 6.2,-5.2 2.5,-5.5 -13.6,-2.6 -3.4,-11.3 8.1,-6.9 4.3,4 9.1,2.4 2.5,-0.8 -0.1,-10.6 2.6,-10 1,0.2 9.8,3.6 9.8,3.4 -5.1,10 -8.7,16.6 5.6,22.6 6.9,2.9 13.9,11.8 21.4,11 9.5,-1 16.4,-0.4 20.4,-4 7.2,-6.5 -19.1,-11.7 4.9,-12.8 12.5,-0.5 4.6,-13.6 -2.9,-15.5 -4.6,-1.2 -5.3,-4.1 -6.4,-8.3 -1.2,-4.8 11,-4.1 12.8,-4.2 7.5,-0.6 3.1,-8.7 14.1,-7.5 5.2,0.6 20.5,11.6 24.4,20" />
	<path
   id="path436"
   d="m 592.1,459.7 c 0,0 -4.5,0.3 -7,3.6 -1.7,2.2 -1.9,6 -1.9,6 0,0 3.1,-2.3 5.2,-2.4 3,-0.1 6.3,2 9.3,1.5 2.9,-0.5 7,-2.5 7,-2.5 0,0 -4.2,4.1 -4.1,7.1 0.1,3 0.7,5.5 0.2,8 -0.5,2.5 -2.4,5.8 -2.4,5.8 0,0 7.2,-1.9 9.4,-2.9 4.2,-2 8.2,-7.6 8.2,-7.6 0,0 -0.8,4.8 0,7.1 0.8,2.3 1,8.4 1,8.4 0,0 2.7,-2.6 4.5,-3.5 1.8,-0.9 2.8,-0.9 3.7,-2.4 0.9,-1.5 1.8,-5.9 1.8,-5.9 0,0 1.5,6.5 2.7,8.2 1.2,1.7 2.5,7.6 2.5,7.6 0,0 0.5,-4 2.1,-5.7 1.6,-1.7 2.6,-2.8 3.4,-4.3 0.8,-1.5 0.7,-6.2 0.7,-6.2 0,0 1.1,3.8 2.2,4.9" />
	<path
   id="path438"
   d="m 603.9,502.4 c 4.8,-1.4 11.2,-7.1 13.1,-10.6" />
	<path
   id="path440"
   d="m 585.9,487.9 c 0,0 2.6,-5 5.3,-7.1 2.7,-2.1 8,-5.5 9.4,-6.9" />
	<path
   id="path442"
   d="m 635.8,531.1 c 12.5,9 10.5,12.8 4.5,23.9" />
</symbol>
<symbol
   id="leon-02">
	<path
   id="path445"
   d="m 629.8,416.4 -0.3,-2.2 c 0,0 3.7,0.1 5.4,1.4 2.7,2 4.5,5.1 4.3,5.3 -0.5,0.5 -2.6,-1.4 -4,-2 0,0 -1.1,0.3 -2.2,0.3 -1.1,0 -1.6,-0.5 -1.8,-1.1 -0.1,-0.6 0.1,-1.5 0.1,-1.5 l -1.5,-0.2 z" />
	<path
   id="path447"
   d="m 610.5,423.5 c 0,0 -0.8,-2.4 -1,-3.1 -0.1,-0.7 -0.5,-1.5 -0.5,-1.5 0,0 4.2,0 4.1,1.4 -0.1,1.3 -1.3,1.3 -1.6,1.9 -0.3,0.5 -1,1.3 -1,1.3" />
	<path
   id="path449"
   d="m 679.2,422.3 -4.2,1.1 -0.1,0.1 -0.5,-3.7 -2.7,0.1 -1.4,2.4 2.1,1.4 -5.9,-2.3 0.4,-1 -1.4,-0.3 0.1,-3.4 0.9,-0.7 0,-0.9 1.3,3.7 2.7,-0.6 0.8,-2.6 -3.1,-1.3 3.5,-1.3 -0.5,-2.8 -2.8,-0.7 -1.5,3.5 -1.1,-3.2 -2.7,0.7 -0.9,2.6 3.3,1.4 -0.7,0.1 -0.8,0.7 -4.2,0.2 -0.5,-2.4 -2.2,-0.2 -0.5,-4.1 1.3,-1.4 1.4,2.7 2.6,-1 0.4,-2.7 -3.3,-0.9 3.4,-1.8 -0.9,-2.7 -2.9,-0.3 -1,3.7 -1.6,-3 -2.6,1 -0.4,2.7 3.2,0.9 -1.2,1.7 -4.1,0.4 -0.7,-2.1 -2.4,0 -0.7,-4.1 0.5,-0.9 0,-0.8 2.1,3 2.4,-1.4 0.1,-2.7 -3.4,-0.4 3.1,-2.2 -1.3,-2.6 -2.9,0.1 -0.5,3.8 -2,-2.8 -2.4,1.3 -0.1,2.8 3.9,0.5 -0.8,0.2 -0.5,1 -3.4,0.9 -0.6,-1.4 -0.9,0.6 -3.5,-5.2 1.9,1.7 2,-1.8 -0.5,-2.7 -3.7,0.3 0.1,-0.1 0.2,-4.4 -4.2,-0.5 1.9,2.2 1.2,3.6 0,0 -0.3,0.4 0.6,0.6 -0.2,0.3 0.4,6.6 -1.4,6.1 c 0,0 6,2.1 14.3,8.4 7.5,5.7 11.2,12.3 11.2,12.3 l 5.7,-2.6 6.6,-1 0.3,-0.3 0.7,0.4 0.4,-0.4 3.7,0.4 2.5,1.4 -1.1,-4.3 0,0 z" />
	<path
   id="path451"
   d="m 600,437.5 c 6.1,2 17.1,0.7 25,1 0.1,-1.4 -0.4,-2.9 -1.2,-4.4 -23.8,2.5 -24.6,-21 -41.8,-11.1 7.3,3.3 10.6,12 18,14.5 z" />
	<path
   id="path453"
   d="m 557.5,422.9 c 1.8,0.6 5.2,1.9 7.1,2.6 0.8,-2 2.4,-8.1 -6.3,-11.8 2.2,5.4 1.7,7 -0.8,9.2 z" />
	<path
   id="path455"
   d="m 544.7,430.2 c 1,-0.9 1.9,-1.5 2.6,-1.8 -1.3,-1.4 -6.5,-5.9 -13.6,0.7 5.1,-0.3 7.3,2.8 8.1,4.4 0.4,-0.9 1.3,-2 2.9,-3.3 z" />
	<path
   id="path457"
   d="m 541.9,446.6 c -0.6,-1.3 -0.9,-2.3 -1,-3 -4.6,1.1 -7.7,5.1 -7.2,9.9 2.6,-2.6 5.9,-3.3 9.3,-2.2 -0.6,-1.3 -0.4,-3.3 -1.1,-4.7 z" />
	<path
   id="path459"
   d="m 549.6,500.5 c 1.2,-1.3 2.4,-3.6 3.7,-5 -2.3,-1 -8,-2.7 -11.2,4 4.3,-1.2 6.5,0.3 7.5,1 -0.1,0.1 -0.1,0 0,0 z" />
	<path
   id="path461"
   d="m 549.3,516.9 c 0.5,-1.8 0.6,-3.5 0.3,-5.3 -0.2,-0.4 -0.3,-0.7 -0.3,-1 -2.4,0.3 -8,1.6 -8.8,7.8 4.6,-2.8 7.5,-2 8.9,-1.3 -0.1,0 -0.1,-0.1 -0.1,-0.2 z" />
	<path
   id="path463"
   d="m 562.5,525.7 c -2.2,-0.1 -7.2,-1.3 -6.7,-1.1 -0.1,0 -0.2,-0.1 -0.3,-0.1 -0.1,2 0.1,8.1 7.2,9.3 -2.5,-4.6 -1.1,-7.1 -0.2,-8.1 z" />
	<path
   id="path465"
   d="m 586,564.9 c 0,0 0.1,-0.1 0.1,-0.1 0.6,-0.5 3.1,-3.1 5,-4.7 -1.6,-1.3 -7.4,-5.3 -12.8,0.4 6.4,0.4 7.6,3.2 7.7,4.4 z" />
	<path
   id="path467"
   d="m 580.4,574 c -2.2,0.3 -8.5,1.8 -8.5,9 4,-3.4 8.7,-2.3 10.6,-1.7 -1.2,-2.1 -1.8,-5.4 -2.1,-7.3 z" />
	<path
   id="path469"
   d="m 597.1,591 c -2.3,0.1 -5.6,-0.7 -7.1,-2.2 -0.6,2.4 -0.9,7.5 5.4,11.1 -1.2,-4 0.9,-7.7 1.7,-8.9 z" />
	<path
   id="path471"
   d="m 650.7,596.9 c 0,-1.1 0,-1.9 0.1,-2.6 -2.5,0 -9.4,0.7 -11,8.7 4.2,-4.1 9,-2.6 10.9,-1.7 0,-1 0,-2.5 0,-4.4 z" />
	<path
   id="path473"
   d="m 652.6,610.7 c -1.2,1.7 -4,6.6 0.3,11.6 0.1,-6.2 3.6,-7.2 5.4,-7.3 -3.6,-1 -5.3,-2.6 -5.7,-4.3 z" />
	<path
   id="path475"
   d="m 673.4,614.6 c -2.2,0.2 -5,0 -6,0.7 -0.4,0.3 -0.8,0.5 -1.1,0.6 0,2.8 1,7.3 7.2,9.1 -3.6,-3.9 -1.7,-8.2 -0.1,-10.4 z" />
</symbol>
<symbol
   id="cade-01">
	<path
   id="path478"
   d="m 715.2,782.7 c 0,-6.1 -4,-11.2 -9.4,-13 l 0,-20.2 8.6,-2.3 0,-22.7 -8.6,-2.3 0,-20.2 c 5.5,-1.8 9.4,-6.9 9.4,-13 0,-7.5 -6.1,-13.7 -13.7,-13.7 -5.8,0 -10.7,3.6 -12.7,8.6 l -14.1,0 -2.3,-8.5 -22.7,0 -2.3,8.5 -14.1,0 c -2,-5.1 -6.9,-8.6 -12.7,-8.6 -5.8,0 -10.7,3.6 -12.7,8.6 l -13.9,0 -2.3,-8.5 -22.7,0 -2.3,8.5 -14.1,0 c -2,-5.1 -6.9,-8.6 -12.7,-8.6 -7.5,0 -13.7,6.1 -13.7,13.7 0,6.1 4,11.2 9.4,13 l 0,20.2 -8.6,2.3 0,22.7 8.6,2.3 0,20.1 c -5.5,1.8 -9.4,6.9 -9.4,13 0,6.1 4,11.2 9.4,13 l 0,14 -9.2,3 1.2,22.7 9.6,2 c 1.1,5.7 2.8,11.2 5,16.4 -2.2,2.4 -3.6,5.7 -3.6,9.2 0,7.5 6.1,13.7 13.7,13.7 1.3,0 2.6,-0.2 3.9,-0.6 3.2,3.7 6.6,7.1 10.4,10.2 l -2.8,8.8 19.1,12.3 7.8,-7.1 c 5.3,2 10.9,3.5 16.7,4.4 1.6,5.8 6.9,10.1 13.2,10.1 6.3,0 11.6,-4.3 13.2,-10.1 5.8,-0.9 11.5,-2.4 16.9,-4.4 l 7.8,7.1 19.1,-12.3 -2.8,-8.8 c 3.7,-3.1 7.2,-6.5 10.3,-10.1 1.2,0.3 2.4,0.5 3.6,0.5 7.5,0 13.7,-6.1 13.7,-13.7 0,-3.5 -1.3,-6.6 -3.4,-9 2.3,-5.3 4,-10.9 5.1,-16.7 l 9.6,-2 1.2,-22.7 -9.2,-3 0,-14 c 5.6,-1.6 9.5,-6.7 9.5,-12.8 z m -9.3,-53.2 0,13.1 -8.7,0 0,-13.1 8.7,0 z m -4.3,-45.8 c 3,0 5.5,2.4 5.5,5.5 0,3.1 -2.4,5.5 -5.5,5.5 -3.1,0 -5.5,-2.4 -5.5,-5.5 0,-3.1 2.5,-5.5 5.5,-5.5 z m -5.2,18 c 0.2,0.1 0.5,0.2 0.7,0.3 l 0,20.3 -8.3,2.2 0,22.7 8.3,2.2 0,20.3 c -4,1.4 -7.1,4.5 -8.4,8.5 l -13.9,0 -2.3,-8.4 -22.7,0 -2.3,8.4 -9.8,0 c -0.5,-2 -1.4,-3.9 -2.6,-5.6 l 17.6,-20.5 8,3.6 14.4,-17.6 -4.7,-6.6 26,-29.8 z m -28.7,76.6 0,8.7 -13.1,0 0,-8.7 13.1,0 z m -17.1,-37 8.2,-10.2 6.8,5.5 -8.2,10.2 -6.8,-5.5 z m 4,-57.3 13.1,0 0,8.7 -13.1,0 0,-8.7 z m -20.7,8.8 13.7,0 2.2,8.3 22.7,0 2.2,-8.3 13.7,0 c 0.3,1.1 0.8,2.2 1.3,3.2 l -25.7,30 -8.5,-3.9 -14.5,17.5 5.1,7.1 -17.6,20.3 c -1.1,-0.5 -2.2,-1 -3.4,-1.3 l 0,-30 8.4,-2.3 0,-22.7 -8.4,-2.3 0,-6.4 c 4.3,-1.4 7.6,-4.8 8.8,-9.2 z m -13.1,99.9 c -5.5,0 -10,-4.5 -10,-10 0,-5.5 4.5,-10 10,-10 5.5,0 10,4.5 10,10 0,5.5 -4.5,10 -10,10 z m 4.3,44.7 0,13.1 -8.7,0 0,-13.1 8.7,0 z m -8.8,-108.7 0,-13.1 8.7,0 0,13.1 -8.7,0 z m 4.5,-45 c 3,0 5.5,2.4 5.5,5.5 0,3.1 -2.4,5.5 -5.5,5.5 -3.1,0 -5.5,-2.4 -5.5,-5.5 0,-3.1 2.5,-5.5 5.5,-5.5 z m -47,0.3 13.1,0 0,8.7 -13.1,0 0,-8.7 z m -20.7,8.8 13.7,0 2.2,8.3 22.7,0 2.2,-8.3 13.7,0 c 1.2,4.3 4.5,7.8 8.8,9.2 l 0,6.5 -8.4,2.3 0,22.7 8.4,2.3 0,30 c -1.2,0.3 -2.3,0.7 -3.4,1.3 l -17.5,-20.3 5.1,-7.1 -14.4,-17.5 -8.5,3.9 -25.8,-30 c 0.4,-1.1 0.9,-2.1 1.2,-3.3 z m 37.9,48.5 -6.8,5.5 -8.2,-10.2 6.8,-5.5 8.2,10.2 z m -19.9,-9.6 -4.7,6.6 14.4,17.6 8,-3.6 17.7,20.5 c -1.2,1.7 -2,3.6 -2.6,5.6 l -9.9,0 -2.3,-8.4 -22.7,0 -2.3,8.4 -13.9,0 c -1.3,-4 -4.5,-7.1 -8.4,-8.5 l 0,-20.3 8.3,-2.2 0,-22.7 -8.3,-2.2 0,-20.5 c 0.2,-0.1 0.5,-0.2 0.7,-0.3 l 26,30 z m 15.8,46.6 0,8.7 -13.1,0 0,-8.7 13.1,0 z m -52.4,-89.2 c 0,-3 2.4,-5.5 5.5,-5.5 3.1,0 5.5,2.4 5.5,5.5 0,3.1 -2.4,5.5 -5.5,5.5 -3.1,0 -5.5,-2.5 -5.5,-5.5 z m 1.1,53.3 0,-13.1 8.7,0 0,13.1 -8.7,0 z m -1.1,40.3 c 0,-3 2.4,-5.5 5.5,-5.5 3,0 5.4,2.4 5.4,5.5 0,3.1 -2.4,5.5 -5.4,5.5 -3,-0.1 -5.5,-2.5 -5.5,-5.5 z m 1.5,47.4 -0.7,-13.1 8.7,-0.5 0.7,13.1 -8.7,0.5 z m 16.5,38.4 c -3,0 -5.5,-2.4 -5.5,-5.5 0,-3.1 2.4,-5.5 5.5,-5.5 3,0 5.4,2.4 5.4,5.5 0,3.1 -2.4,5.5 -5.4,5.5 z m 4.4,-18.4 c -1.4,-0.5 -2.9,-0.7 -4.4,-0.7 -0.8,0 -1.5,0.1 -2.3,0.2 -1.7,-4.2 -3.1,-8.7 -4.1,-13.3 l 7.3,-2.4 -1.2,-22.7 -7.7,-1.6 0,-14.1 c 4,-1.4 7.1,-4.5 8.4,-8.5 l 13.8,0 2.3,8.4 22.7,0 2.3,-8.4 9.9,0 c 0.5,2 1.4,3.9 2.6,5.6 l -17.5,20.3 -8.2,-3.7 -14.4,17.5 4.8,6.7 -14.3,16.7 z m 33.8,-26.3 -8.2,10.2 -6.8,-5.5 8.2,-10.2 6.8,5.5 z m -7.1,73.9 -11.1,-7 4.6,-7.4 11.1,6.9 -4.6,7.5 z m 24.5,-1.8 c -4.6,-0.8 -9,-2 -13.3,-3.5 l 2.1,-6.6 -19.1,-12.3 -6,5.5 c -2.9,-2.5 -5.7,-5.2 -8.2,-8 1.6,-2.3 2.6,-5 2.6,-8 0,-2.8 -0.9,-5.4 -2.3,-7.6 l 14,-16.2 8.3,3.8 14.4,-17.6 -4.9,-6.9 17.4,-20.2 c 1.1,0.5 2.2,1 3.4,1.3 l 0,30.7 -8.5,2.3 0,22.7 8.5,2.3 0,30.7 c -3.8,1.2 -6.9,4 -8.4,7.6 z m 12.6,10.7 c -3,0 -5.5,-2.4 -5.5,-5.5 0,-3.1 2.4,-5.5 5.5,-5.5 3.1,0 5.5,2.4 5.5,5.5 0,3.1 -2.5,5.5 -5.5,5.5 z m 37.1,-8.9 -4.6,-7.4 11.1,-6.9 4.6,7.4 -11.1,6.9 z m 12.1,-18.6 -6,-5.5 -19.1,12.3 2.1,6.6 c -4.3,1.6 -8.8,2.8 -13.5,3.5 -1.5,-3.6 -4.5,-6.4 -8.2,-7.7 l 0,-30.8 8.3,-2.2 0,-22.7 -8.3,-2.2 0,-30.7 c 1.2,-0.3 2.3,-0.7 3.4,-1.3 l 17.4,20.2 -4.9,6.9 14.4,17.6 8.4,-3.8 13.8,16.1 c -1.5,2.2 -2.4,4.9 -2.4,7.8 0,3.1 1,5.9 2.8,8.2 -2.7,2.6 -5.4,5.3 -8.2,7.7 z m -19.3,-55.3 6.8,-5.5 8.2,10.2 -6.8,5.5 -8.2,-10.2 z m 38.2,44.7 c -3,0 -5.5,-2.4 -5.5,-5.5 0,-3.1 2.4,-5.5 5.5,-5.5 3.1,0 5.5,2.4 5.5,5.5 0,3.1 -2.5,5.5 -5.5,5.5 z m 2.6,-18.9 c -0.8,-0.2 -1.7,-0.3 -2.6,-0.3 -1.5,0 -2.9,0.2 -4.2,0.7 l -14.3,-16.6 4.8,-6.7 -14.4,-17.5 -8.2,3.7 -17.4,-20.2 c 1.2,-1.7 2,-3.6 2.6,-5.6 l 9.8,0 2.3,8.4 22.7,0 2.3,-8.4 13.9,0 c 1.3,4 4.5,7.1 8.4,8.5 l 0,14.1 -7.7,1.6 -1.2,22.7 7.3,2.4 c -1,4.5 -2.4,9 -4.1,13.2 z m 14.9,-32.6 -0.7,13.1 -8.7,-0.5 0.7,-13.1 8.7,0.5 z m -4.7,-28.9 c -3,0 -5.5,-2.4 -5.5,-5.5 0,-3.1 2.4,-5.5 5.5,-5.5 3.1,0 5.5,2.4 5.5,5.5 0,3.1 -2.5,5.5 -5.5,5.5 z" />
</symbol>
<symbol
   id="meda-01">
	<path
   id="path481"
   d="m 578.5,651 c 0,-51.2 -35.1,-92.7 -78.5,-92.7 -43.4,0 -78.5,41.5 -78.5,92.7 0,51.2 35.1,92.6 78.5,92.6 43.4,0 78.5,-41.5 78.5,-92.6 z" />
</symbol>
<symbol
   id="meda-02">
	<path
   id="path484"
   d="m 556.7,651 c 0,-37 -25.4,-66.9 -56.7,-66.9 -31.3,0 -56.7,30 -56.7,66.9 0,36.9 25.4,66.9 56.7,66.9 31.3,0 56.7,-30 56.7,-66.9 z" />
</symbol>
<symbol
   id="lis-01">
	<path
   id="path487"
   d="m 504.7,676 0,0 c 1.8,-4.2 4.8,-15 -4.7,-25.6 -9.5,10.7 -6.4,21.4 -4.7,25.6 l 0,0 0,0 c -3.3,-4.6 -13.1,-4.5 -13.1,4.2 0,2.4 3.5,8.9 3.5,8.9 5.4,-7.3 10.8,0 9.7,3.5 l -5.9,0 0,5.3 5.3,0 -3.9,8.2 5.2,-2.1 3.9,4.6 3.9,-4.6 5.2,2.1 -3.9,-8.2 5.3,0 0,-5.3 -5.9,0 c -1.1,-3.5 4.4,-10.8 9.7,-3.5 0,0 3.5,-6.5 3.5,-8.9 0,-8.7 -9.8,-8.8 -13.1,-4.2 z" />
</symbol>
<symbol
   id="gran-01">
	<path
   id="path490"
   d="m 498.9,952.3 c -25.6,-20.8 -43,-16.6 -55.1,-16.2 19.6,16.4 25.8,23.4 55.1,16.2" />
	<path
   id="path492"
   d="m 504.4,953.6 c 10.8,-8 16.2,-24.7 56.1,-12.5 -28,19.7 -35.7,11.6 -56.1,12.5" />
	<path
   id="path494"
   d="m 495.9,964.5 c 4.9,-15.5 2.5,-25.4 2.5,-25.4 l 3.8,0 c 0,0 3.8,6.6 1,23 l -7.3,2.4" />
	<path
   id="path496"
   d="m 500.7,936.9 c -7.8,-9.4 -11.7,-26.1 0.1,-37.8 11.7,7.9 9.7,28 -0.1,37.8" />
</symbol>
<symbol
   id="gran-02">
	<path
   id="path499"
   d="m 511.4,897.6 c 7.6,1.5 15.2,11.1 15.2,20.4 0,12 -11.1,21.2 -25.5,21.2 -14.4,0 -26.1,-9.2 -26.1,-21.2 0,-9.1 5.8,-18.9 14.8,-20 l -4.3,-5.9 c 0,0 5.8,-2 9.6,2.7 l 5.9,-6.6 c 0,0 3.2,3.1 4.3,6 l 7.9,-3.8 -1.8,7.2 z" />
</symbol>
<symbol
   id="mar-01">
	<path
   id="path502"
   d="m 217,964.5 c -18.7,0 -18.7,-8.6 -37.4,-8.6 -18.7,0 -18.7,8.6 -37.5,8.6 -18.7,0 -18.7,-8.6 -37.5,-8.6 -18.7,0 -18.8,8.6 -37.5,8.6 l 0,-12.3 c 18.7,0 18.7,-8.6 37.5,-8.6 18.7,0 18.8,8.6 37.5,8.6 18.7,0 18.7,-8.6 37.4,-8.6 18.7,0 18.7,8.6 37.5,8.6 l 0,12.3 z" />
	<path
   id="path504"
   d="m 217,940.1 c -18.7,0 -18.7,-8.6 -37.4,-8.6 -18.7,0 -18.7,8.6 -37.5,8.6 -18.7,0 -18.7,-8.6 -37.5,-8.6 -18.7,0 -18.8,8.6 -37.5,8.6 l 0,-12.3 c 18.7,0 18.7,-8.6 37.5,-8.6 18.7,0 18.8,8.6 37.5,8.6 18.7,0 18.7,-8.6 37.4,-8.6 18.7,0 18.7,8.6 37.5,8.6 l 0,12.3 z" />
	<path
   id="path506"
   d="m 217,915.6 c -18.7,0 -18.7,-8.6 -37.4,-8.6 -18.7,0 -18.7,8.6 -37.5,8.6 -18.7,0 -18.7,-8.6 -37.5,-8.6 -18.7,0 -18.8,8.6 -37.5,8.6 l 0,-12.3 c 18.7,0 18.7,-8.6 37.5,-8.6 18.7,0 18.8,8.6 37.5,8.6 18.7,0 18.7,-8.6 37.4,-8.6 18.7,0 18.7,8.6 37.5,8.6 l 0,12.3 z" />
</symbol>
<symbol
   id="colu-01">
	<path
   id="path509"
   d="m 197.1,899.2 0,-29.6 C 184.8,867 183.2,856.8 183,853.3 c 1.8,-0.4 3.1,-2 3.1,-3.9 0,-2.2 -1.8,-4 -4,-4 l -80.1,0 c -2.2,0 -4,1.8 -4,4 0,1.8 1.2,3.3 2.8,3.8 -0.1,3.5 -1.5,13.8 -13.8,16.4 l 0,29.6" />
	<line
   id="line511"
   y2="869.59998"
   x2="197.10001"
   y1="869.59998"
   x1="87"
   style="fill:none" />
	<line
   id="line513"
   y2="853.20001"
   x2="183.10001"
   y1="853.09998"
   x1="100.8"
   style="fill:none" />
	<line
   id="line515"
   y2="869.59998"
   x2="146.10001"
   y1="869.59998"
   x1="149.60001"
   style="fill:none" />
	<line
   id="line517"
   y2="587.70001"
   x2="103"
   y1="685"
   x1="103" />
	<line
   id="line519"
   y2="729.5"
   x2="103"
   y1="845.40002"
   x1="103" />
	<line
   id="line521"
   y2="845.40002"
   x2="181.2"
   y1="692.29999"
   x1="181.2" />
	<line
   id="line523"
   y2="646.79999"
   x2="181.2"
   y1="573.20001"
   x1="181.2" />
	<line
   id="line525"
   y2="525.70001"
   x2="181.2"
   y1="431.20001"
   x1="181.2" />
	<line
   id="line527"
   y2="431.20001"
   x2="103"
   y1="537.70001"
   x1="103" />
	<polygon
   id="polygon529"
   points="195.7,374.2 88.5,374.2 88.5,403.8 101,403.8 183.2,403.8 195.7,403.8 " />
	<path
   id="path531"
   d="m 184.5,423.5 c -1.7,-1 -3,-2.5 -3,-6 0,-3.5 1.9,-4.9 3.1,-6 0.9,-0.7 2.6,-2 2.6,-3.7 0,-2.2 -1.8,-4 -4,-4 l -82.2,0 c -2.2,0 -4,1.8 -4,4 0,1.7 1.7,3 2.6,3.7 1.2,1.1 3.1,2.5 3.1,6 0,3.5 -1.3,5 -3,6 -1.4,0.8 -2.6,2 -2.6,3.7 0,2.2 1.8,4 4,4 l 41.1,0 41.1,0 c 2.2,0 4,-1.8 4,-4 -0.1,-1.7 -1.4,-2.8 -2.8,-3.7 z" />
	<line
   id="line533"
   y2="411.5"
   x2="184.60001"
   y1="411.5"
   x1="99.599998"
   style="fill:none" />
	<line
   id="line535"
   y2="423.5"
   x2="99.599998"
   y1="423.5"
   x1="184.5"
   style="fill:none" />
</symbol>
<symbol
   id="band-01">
	<path
   id="path538"
   d="m 103,598.5 c 0,0 -13.3,-0.8 -19.1,-1.5" />
	<path
   id="path540"
   d="M 258.4,536.6 C 226.3,525.9 180,522 135.3,529.9 c -51.9,9.2 -91.5,31 -88.3,48.9 0.3,1.6 14.5,36.5 17.8,43.3 4.7,9.7 17.6,13.8 38.2,16" />
	<path
   id="path542"
   d="m 64.8,622.1 c -1.7,-14 12.3,-20.5 19.1,-25.1 27.3,-16.4 95.7,-38.3 174.5,-10.6" />
	<path
   id="path544"
   d="m 210.3,617.1 c 2.1,8.6 -29.1,29.7 -29.1,29.7 -10.9,6.8 -24.2,14 -38.9,20.9 -14,6.5 -25.3,11.9 -38.9,17.1 -29.9,11.6 -51,24.7 -49,31.2 l 7.2,41.1 c 0.6,3.2 4.1,5.5 9,8.9 7.8,5.7 12.5,15.9 8.8,20.6 6.5,-5.4 10.6,-13.6 10.6,-22.7 0,-9.5 -4.3,-18 -11.2,-23.6"
   style="fill:none" />
	<path
   id="path546"
   d="m 61.6,757.1 c 1.2,-8.9 12.6,-14.2 17.1,-16.8 14.3,-7.6 62.9,-25.5 92.9,-42.5 17,-9.6 44.3,-27.4 44.3,-37.2 0,-10.2 -2.9,-35.5 -5.1,-42 0,-0.2 -0.5,-1.5 -0.5,-1.5 -5.1,-4.4 -15.5,-8 -29.1,-10.2"
   style="fill:none" />
</symbol>
<symbol
   id="plusultra">
	<path
   id="path549"
   d="m 98.1,567.3 0,0 c 9.5,-3.7 15.8,-8 12.8,-16 -1.9,-5.1 -6.9,-6 -14.3,-3.2 l -13.1,5 11.8,30.7 8,-3.1 -5.2,-13.4 z m -5.6,-14.8 3.2,-1.2 c 2.8,-1.1 5.9,0.4 7.2,4 1,2.8 0.8,5.8 -2.4,7.9 -1,0.7 -2.2,1.2 -3.4,1.7 l -4.6,-12.4 z" />
	<polygon
   id="polygon551"
   points="127.1,573.3 148.2,568.8 147.4,564.8 134.7,568.2 128.7,539.6 120.3,541.4 " />
	<polyline
   id="polyline553"
   points="170.9,567.1 184.5,533.3 179.3,533.7 170.3,558 158.6,535.1    148.6,535.8 166.1,567.4 170.9,567.1  " />
	<path
   id="path555"
   d="m 215,542.6 2.3,-4.6 c 0,0 -4.6,-2.8 -8.7,-3.2 -8.6,-0.9 -13.5,3.2 -14.1,8.7 -1.2,11.5 16,10.4 15.2,18.1 -0.4,3.2 -3.6,4.6 -7.2,4.2 -3.9,-0.4 -8.3,-6.1 -8.3,-6.1 l -2.3,5.9 c 0,0 5.7,2.7 8.9,3 8.8,0.9 15.5,-2.8 16.1,-8.9 1.1,-10.9 -16.1,-11.6 -15.5,-18 0.3,-2.7 2.3,-4.5 6.7,-4 3.2,0.3 6.9,4.9 6.9,4.9 z" />
	<polyline
   id="polyline557"
   points="790.8,568.4 801.3,533.5 796.1,534.3 789.3,559.4 775.7,537.6    765.8,539.2 786,569.2 790.8,568.4  " />
	<polygon
   id="polygon559"
   points="812,533.6 811.4,566.2 833,566.5 833.1,562.4 820,562.9 820.5,533.7 820.5,533.7 " />
	<polygon
   id="polygon561"
   points="854.4,539.1 854.4,539.1 864.5,540.6 864.8,536.6 835.7,534 835.3,538.1 845.9,538.4 843.4,567.7 851.9,568.4 " />
	<path
   id="path563"
   d="m 866.3,571.2 0,0 c 1.4,0.3 8.3,1.9 8.3,1.9 l 3.5,-14.9 0.4,0.1 6.8,17.3 10.1,2.3 c 0,0 -6.3,-13.6 -8.3,-18.8 5.3,0.3 9.5,-1.8 10.6,-6.4 0.7,-3.2 -0.4,-5.7 -3.3,-7.8 -2.1,-1.5 -20.6,-5.7 -20.6,-5.7 l -7.5,32 z m 15.2,-27.5 c 0,0 9.3,-0.1 7.4,7.9 -1.8,7.6 -10.2,4.7 -10.2,4.7 l 2.8,-12.6 z" />
	<path
   id="path565"
   d="m 922,581 0,0 -1.5,10.6 8.4,4.9 2.9,-36.8 -3.7,-2.1 -30.7,20.6 4.7,2.7 8.4,-6.6 11.5,6.7 0,0 z m -8.7,-8.5 10.2,-7 -1.2,12.3 -9,-5.3 0,0 z" />
</symbol>

<mask
   fill="#FFFFFF"
   id="bola_cruz">
	<path
   id="path568"
   d="m 521.8,72.7 c 0,-12 -9.8,-21.8 -21.8,-21.8 -12,0 -21.8,9.8 -21.8,21.8 0,12 9.8,21.8 21.8,21.8 12,0 21.8,-9.8 21.8,-21.8 z" />
</mask>
<mask
   fill="#FFFFFF"
   id="cuartel_SI">
	<path
   id="path571"
   d="m 500,558.3 0,-189.2 -241.6,0 0,281.9 163.1,0 c 0,-51.2 35.2,-92.7 78.5,-92.7 z" />
</mask>
<mask
   fill="#FFFFFF"
   id="cuartel_II">
	<path
   id="path574"
   d="m 421.5,651 -163.1,0 0,170.8 c 0,66.7 54.1,120.8 120.8,120.8 66.7,0 120.8,-54.2 120.8,-120.9 l 0,-78.1 c -43.3,0 -78.5,-41.5 -78.5,-92.6 z" />
</mask>
<mask
   fill="#FFFFFF"
   id="cuartel_ID">
	<path
   id="path577"
   d="m 578.5,651 c 0,51.2 -35.1,92.6 -78.5,92.6 l 0,78.1 c 0,66.7 54.1,120.8 120.8,120.8 66.7,0 120.8,-54.1 120.8,-120.8 l 0,-170.7 -163.1,0 z" />
</mask>








	
</defs>

<use
   transform="translate(0,-33.8)"
   height="100%"
   width="100%"
   y="0"
   x="0"
   id="use581"
   xlink:href="#boe-01"
   style="fill:#004379" /><g
   id="escudo"
   transform="matrix(0.75,0,0,0.75,746,36.2)">

<g
   id="corona1">
	<g
   id="corona_izq">
		<use
   xlink:href="#coro-01"
   class="trazos1"
   id="use586"
   style="fill:none;stroke:#ffffff;stroke-width:3"
   x="0"
   y="0"
   width="100%"
   height="100%" />
		<use
   xlink:href="#coro-03"
   class="trazos1"
   id="use588"
   style="fill:none;stroke:#ffffff;stroke-width:3"
   x="0"
   y="0"
   width="100%"
   height="100%" />
		<use
   xlink:href="#joya-02"
   class="rellenos"
   id="use590"
   style="fill:#ffffff"
   x="0"
   y="0"
   width="100%"
   height="100%" />
		<use
   xlink:href="#perl-02"
   class="rellenos"
   id="use592"
   style="fill:#ffffff"
   x="0"
   y="0"
   width="100%"
   height="100%" />
	</g>
	<g
   id="corona_der"
   transform="matrix(-1,0,0,1,1000,0)">
		<use
   xlink:href="#coro-01"
   class="trazos1"
   id="use595"
   style="fill:none;stroke:#ffffff;stroke-width:3"
   x="0"
   y="0"
   width="100%"
   height="100%" />
		<use
   xlink:href="#coro-03"
   class="trazos1"
   id="use597"
   style="fill:none;stroke:#ffffff;stroke-width:3"
   x="0"
   y="0"
   width="100%"
   height="100%" />
		<use
   xlink:href="#joya-02"
   class="rellenos"
   id="use599"
   style="fill:#ffffff"
   x="0"
   y="0"
   width="100%"
   height="100%" />
		<use
   xlink:href="#perl-02"
   class="rellenos"
   id="use601"
   style="fill:#ffffff"
   x="0"
   y="0"
   width="100%"
   height="100%" />
	</g>
	<g
   id="corona_med">
		<use
   xlink:href="#cruz-01"
   class="trazos1"
   id="use604"
   style="fill:none;stroke:#ffffff;stroke-width:3"
   x="0"
   y="0"
   width="100%"
   height="100%" />
		<use
   xlink:href="#cruz-03"
   class="rellenos"
   id="use606"
   style="fill:#ffffff"
   x="0"
   y="0"
   width="100%"
   height="100%" />
		<use
   xlink:href="#cruz-02"
   class="rellenos"
   mask="url(#bola_cruz)"
   id="use608"
   style="fill:#ffffff"
   x="0"
   y="0"
   width="100%"
   height="100%" />
		<use
   xlink:href="#joya-01"
   class="rellenos"
   id="use610"
   style="fill:#ffffff"
   x="0"
   y="0"
   width="100%"
   height="100%" />
		<use
   xlink:href="#perl-03"
   class="trazos1"
   id="use612"
   style="fill:none;stroke:#ffffff;stroke-width:3"
   x="0"
   y="0"
   width="100%"
   height="100%" />
	</g>
</g>

<g
   id="corona2"
   transform="matrix(0.28,0,0,0.28,3,270)">
	<g
   id="g615">
		<use
   xlink:href="#coro-01"
   class="trazos3"
   id="use617"
   style="fill:none;stroke:#ffffff;stroke-width:8"
   x="0"
   y="0"
   width="100%"
   height="100%" />
		<use
   xlink:href="#coro-02"
   class="trazos3"
   id="use619"
   style="fill:none;stroke:#ffffff;stroke-width:8"
   x="0"
   y="0"
   width="100%"
   height="100%" />
		<use
   xlink:href="#joya-02"
   class="rellenos"
   id="use621"
   style="fill:#ffffff"
   x="0"
   y="0"
   width="100%"
   height="100%" />
	</g>
	<g
   id="g623"
   transform="matrix(-1,0,0,1,1000,0)">
		<use
   xlink:href="#coro-01"
   class="trazos3"
   id="use625"
   style="fill:none;stroke:#ffffff;stroke-width:8"
   x="0"
   y="0"
   width="100%"
   height="100%" />
		<use
   xlink:href="#coro-02"
   class="trazos3"
   id="use627"
   style="fill:none;stroke:#ffffff;stroke-width:8"
   x="0"
   y="0"
   width="100%"
   height="100%" />
		<use
   xlink:href="#joya-02"
   class="rellenos"
   id="use629"
   style="fill:#ffffff"
   x="0"
   y="0"
   width="100%"
   height="100%" />
	</g>
	<g
   id="g631">
		<use
   xlink:href="#cruz-01"
   class="trazos3"
   id="use633"
   style="fill:none;stroke:#ffffff;stroke-width:8"
   x="0"
   y="0"
   width="100%"
   height="100%" />
		<use
   xlink:href="#cruz-03"
   class="rellenos"
   id="use635"
   style="fill:#ffffff"
   x="0"
   y="0"
   width="100%"
   height="100%" />
		<use
   xlink:href="#cruz-02"
   class="rellenos"
   mask="url(#bola_cruz)"
   id="use637"
   style="fill:#ffffff"
   x="0"
   y="0"
   width="100%"
   height="100%" />
		<use
   xlink:href="#joya-01"
   class="rellenos"
   id="use639"
   style="fill:#ffffff"
   x="0"
   y="0"
   width="100%"
   height="100%" />
		<use
   xlink:href="#perl-03"
   class="trazos3"
   id="use641"
   style="fill:none;stroke:#ffffff;stroke-width:8"
   x="0"
   y="0"
   width="100%"
   height="100%" />
	</g>
</g>

<g
   id="corona3"
   transform="matrix(0.28,0,0,0.28,716,270)">
	<g
   id="g644">
		<use
   xlink:href="#coro-01"
   class="trazos3"
   id="use646"
   style="fill:none;stroke:#ffffff;stroke-width:8"
   x="0"
   y="0"
   width="100%"
   height="100%" />
		<use
   xlink:href="#coro-03"
   class="trazos3"
   id="use648"
   style="fill:none;stroke:#ffffff;stroke-width:8"
   x="0"
   y="0"
   width="100%"
   height="100%" />
		<use
   xlink:href="#joya-02"
   class="rellenos"
   id="use650"
   style="fill:#ffffff"
   x="0"
   y="0"
   width="100%"
   height="100%" />
		<use
   xlink:href="#perl-02"
   class="rellenos"
   id="use652"
   style="fill:#ffffff"
   x="0"
   y="0"
   width="100%"
   height="100%" />
	</g>
	<g
   id="g654"
   transform="matrix(-1,0,0,1,1000,0)">
		<use
   xlink:href="#coro-01"
   class="trazos3"
   id="use656"
   style="fill:none;stroke:#ffffff;stroke-width:8"
   x="0"
   y="0"
   width="100%"
   height="100%" />
		<use
   xlink:href="#coro-03"
   class="trazos3"
   id="use658"
   style="fill:none;stroke:#ffffff;stroke-width:8"
   x="0"
   y="0"
   width="100%"
   height="100%" />
		<use
   xlink:href="#joya-02"
   class="rellenos"
   id="use660"
   style="fill:#ffffff"
   x="0"
   y="0"
   width="100%"
   height="100%" />
		<use
   xlink:href="#perl-02"
   class="rellenos"
   id="use662"
   style="fill:#ffffff"
   x="0"
   y="0"
   width="100%"
   height="100%" />
	</g>
	<g
   id="g664">
		<use
   xlink:href="#cruz-01"
   class="trazos3"
   id="use666"
   style="fill:none;stroke:#ffffff;stroke-width:8"
   x="0"
   y="0"
   width="100%"
   height="100%" />
		<use
   xlink:href="#cruz-03"
   class="rellenos"
   id="use668"
   style="fill:#ffffff"
   x="0"
   y="0"
   width="100%"
   height="100%" />
		<use
   xlink:href="#cruz-02"
   class="rellenos"
   mask="url(#bola_cruz)"
   id="use670"
   style="fill:#ffffff"
   x="0"
   y="0"
   width="100%"
   height="100%" />
		<use
   xlink:href="#joya-01"
   class="rellenos"
   id="use672"
   style="fill:#ffffff"
   x="0"
   y="0"
   width="100%"
   height="100%" />
		<use
   xlink:href="#perl-03"
   class="trazos3"
   id="use674"
   style="fill:none;stroke:#ffffff;stroke-width:8"
   x="0"
   y="0"
   width="100%"
   height="100%" />
	</g>
</g>

<g
   id="cuarteles"
   class="color1">
	<use
   xlink:href="#cuar-01"
   class="trazos2"
   id="use677"
   style="fill:none;stroke:#ffffff;stroke-width:6"
   x="0"
   y="0"
   width="100%"
   height="100%" />
	<use
   xlink:href="#cuar-02"
   class="trazos1"
   id="use679"
   style="fill:none;stroke:#ffffff;stroke-width:3"
   x="0"
   y="0"
   width="100%"
   height="100%" />
	<use
   xlink:href="#cuar-03"
   class="trazos1"
   id="use681"
   style="fill:none;stroke:#ffffff;stroke-width:3"
   x="0"
   y="0"
   width="100%"
   height="100%" />
	<use
   xlink:href="#cuar-04"
   class="trazos1"
   id="use683"
   style="fill:none;stroke:#ffffff;stroke-width:3"
   x="0"
   y="0"
   width="100%"
   height="100%" />
	<use
   xlink:href="#palo-01"
   class="rellenos"
   mask="url(#cuartel_II)"
   id="use685"
   style="fill:#ffffff"
   x="0"
   y="0"
   width="100%"
   height="100%" />
	<use
   xlink:href="#cast-01"
   class="trazos1"
   mask="url(#cuartel_SI)"
   id="use687"
   style="fill:none;stroke:#ffffff;stroke-width:3"
   x="0"
   y="0"
   width="100%"
   height="100%" />
	<use
   xlink:href="#cast-02"
   class="rellenos"
   id="use689"
   style="fill:#ffffff"
   x="0"
   y="0"
   width="100%"
   height="100%" />
	<use
   xlink:href="#cast-03"
   class="trazos4"
   mask="url(#cuartel_SI)"
   id="use691"
   style="fill:none;stroke:#ffffff;stroke-width:1.5"
   x="0"
   y="0"
   width="100%"
   height="100%" />
	<use
   xlink:href="#leon-01"
   class="trazos1"
   id="use693"
   style="fill:none;stroke:#ffffff;stroke-width:3"
   x="0"
   y="0"
   width="100%"
   height="100%" />
	<use
   xlink:href="#leon-02"
   class="rellenos"
   id="use695"
   style="fill:#ffffff"
   x="0"
   y="0"
   width="100%"
   height="100%" />
	<use
   xlink:href="#cade-01"
   class="rellenos"
   mask="url(#cuartel_ID)"
   id="use697"
   style="fill:#ffffff"
   x="0"
   y="0"
   width="100%"
   height="100%" />
	<use
   xlink:href="#meda-01"
   class="trazos1"
   id="use699"
   style="fill:none;stroke:#ffffff;stroke-width:3"
   x="0"
   y="0"
   width="100%"
   height="100%" />
	<use
   xlink:href="#meda-02"
   class="trazos1"
   id="use701"
   style="fill:none;stroke:#ffffff;stroke-width:3"
   x="0"
   y="0"
   width="100%"
   height="100%" />
	<use
   xlink:href="#lis-01"
   class="rellenos"
   id="use703"
   style="fill:#ffffff"
   x="0"
   y="0"
   width="100%"
   height="100%" />
	<use
   xlink:href="#lis-01"
   transform="translate(28,-44)"
   class="rellenos"
   id="use705"
   style="fill:#ffffff"
   x="0"
   y="0"
   width="100%"
   height="100%" />
	<use
   xlink:href="#lis-01"
   transform="translate(-28,-44)"
   class="rellenos"
   id="use707"
   style="fill:#ffffff"
   x="0"
   y="0"
   width="100%"
   height="100%" />
	<use
   xlink:href="#gran-01"
   class="rellenos"
   id="use709"
   style="fill:#ffffff"
   x="0"
   y="0"
   width="100%"
   height="100%" />
	<use
   xlink:href="#gran-02"
   class="trazos1"
   id="use711"
   style="fill:none;stroke:#ffffff;stroke-width:3"
   x="0"
   y="0"
   width="100%"
   height="100%" />
</g>

<g
   id="columnas">
	<g
   id="columna_izq">
		<use
   xlink:href="#mar-01"
   class="rellenos"
   id="use715"
   style="fill:#ffffff"
   x="0"
   y="0"
   width="100%"
   height="100%" />
		<use
   xlink:href="#colu-01"
   class="trazos1"
   id="use717"
   style="fill:none;stroke:#ffffff;stroke-width:3"
   x="0"
   y="0"
   width="100%"
   height="100%" />
		<use
   xlink:href="#colu-02"
   class="trazos1"
   id="use719"
   style="fill:none;stroke:#ffffff;stroke-width:3"
   x="0"
   y="0"
   width="100%"
   height="100%" />
		<use
   xlink:href="#colu-03"
   class="trazos1"
   id="use721"
   style="fill:none;stroke:#ffffff;stroke-width:3"
   x="0"
   y="0"
   width="100%"
   height="100%" />
		<use
   xlink:href="#colu-04"
   class="trazos1"
   id="use723"
   style="fill:none;stroke:#ffffff;stroke-width:3"
   x="0"
   y="0"
   width="100%"
   height="100%" />
		<use
   xlink:href="#band-01"
   class="trazos1"
   id="use725"
   style="fill:none;stroke:#ffffff;stroke-width:3"
   x="0"
   y="0"
   width="100%"
   height="100%" />
		<use
   xlink:href="#band-02"
   class="trazos1"
   id="use727"
   style="fill:none;stroke:#ffffff;stroke-width:3"
   x="0"
   y="0"
   width="100%"
   height="100%" />
	</g>
	<g
   id="columna_der"
   transform="matrix(-1,0,0,1,1000,0)">
		<use
   xlink:href="#mar-01"
   class="rellenos"
   id="use730"
   style="fill:#ffffff"
   x="0"
   y="0"
   width="100%"
   height="100%" />
		<use
   xlink:href="#colu-01"
   class="trazos1"
   id="use732"
   style="fill:none;stroke:#ffffff;stroke-width:3"
   x="0"
   y="0"
   width="100%"
   height="100%" />
		<use
   xlink:href="#colu-02"
   class="trazos1"
   id="use734"
   style="fill:none;stroke:#ffffff;stroke-width:3"
   x="0"
   y="0"
   width="100%"
   height="100%" />
		<use
   xlink:href="#colu-03"
   class="trazos1"
   id="use736"
   style="fill:none;stroke:#ffffff;stroke-width:3"
   x="0"
   y="0"
   width="100%"
   height="100%" />
		<use
   xlink:href="#colu-04"
   class="trazos1"
   id="use738"
   style="fill:none;stroke:#ffffff;stroke-width:3"
   x="0"
   y="0"
   width="100%"
   height="100%" />
		<use
   xlink:href="#band-01"
   class="trazos1"
   id="use740"
   style="fill:none;stroke:#ffffff;stroke-width:3"
   x="0"
   y="0"
   width="100%"
   height="100%" />
		<use
   xlink:href="#band-02"
   class="trazos1"
   id="use742"
   style="fill:none;stroke:#ffffff;stroke-width:3"
   x="0"
   y="0"
   width="100%"
   height="100%" />
	</g>
	<g
   id="lema">
		<use
   xlink:href="#plusultra"
   class="rellenos"
   id="use745"
   style="fill:#ffffff"
   x="0"
   y="0"
   width="100%"
   height="100%" />
	</g>
</g>

</g>

</svg>