<?xml version="1.0" encoding="UTF-8" standalone="no"?>
<svg
   xmlns:dc="http://purl.org/dc/elements/1.1/"
   xmlns:cc="http://creativecommons.org/ns#"
   xmlns:rdf="http://www.w3.org/1999/02/22-rdf-syntax-ns#"
   xmlns:svg="http://www.w3.org/2000/svg"
   xmlns="http://www.w3.org/2000/svg"
   version="1.1"
   id="svg5647"
   viewBox="0 0 244.20001 205.89999"
   height="58.109554mm"
   width="68.918671mm">
  <defs
     id="defs5649" />
  <metadata
     id="metadata5652">
    <rdf:RDF>
      <cc:Work
         rdf:about="">
        <dc:format>image/svg+xml</dc:format>
        <dc:type
           rdf:resource="http://purl.org/dc/dcmitype/StillImage" />
        <dc:title></dc:title>
      </cc:Work>
    </rdf:RDF>
  </metadata>
  <g
     transform="translate(164.95714,-637.98363)"
     id="layer1">
    <g
       id="g5578"
       transform="translate(-234.15714,40.183646)">
      <path
         style="fill:#ea5078"
         id="path910"
         d="m 194.3,714.3 c 1.2,0.9 1.5,2.7 0.6,3.9 l 0,0 c -0.9,1.2 -2.7,1.5 -3.9,0.6 l -31.3,-23.3 c -1.2,-0.9 -1.5,-2.7 -0.6,-3.9 l 0,0 c 0.9,-1.2 2.7,-1.5 3.9,-0.6 l 31.3,23.3 z" />
      <path
         style="fill:#ea5078"
         id="path912"
         d="m 171.2,680.8 c 1.4,1.3 1.5,3.5 0.1,4.9 l -17.2,18.1 c -1.3,1.4 -3.5,1.5 -4.9,0.1 l 0,0 c -1.4,-1.3 -1.5,-3.5 -0.1,-4.9 l 17.2,-18.1 c 1.3,-1.4 3.5,-1.4 4.9,-0.1 l 0,0 z" />
      <path
         style="fill:#ea5078"
         id="path914"
         d="m 105.2,709.8 c 0,3.2 -2.6,5.7 -5.8,5.7 l 0,0 c -3.2,0 -5.8,-2.6 -5.8,-5.7 l 0,-34 c 0,-3.2 2.6,-5.7 5.8,-5.7 l 0,0 c 3.2,0 5.8,2.6 5.8,5.7 l 0,34 z" />
      <path
         style="fill:#ea5078"
         id="path916"
         d="m 102.4,710.7 c -3.2,0 -5.8,-2.6 -5.8,-5.7 l 0,0 c 0,-3.2 2.6,-5.7 5.8,-5.7 l 34.1,0 c 3.2,0 5.8,2.6 5.8,5.7 l 0,0 c 0,3.2 -2.6,5.7 -5.8,5.7 l -34.1,0 z" />
      <path
         style="fill:#1f4368"
         id="path918"
         d="m 157.1,620.8 -79.5,0 0,86.8 -8.4,-0.2 0,70 136,0 0,-69.8 -48.1,-86.8 z m 21.4,86.3 c -7.1,0 -90.7,0 -90.7,0 l 0,-74.6 1.2,0 60.9,0 c 0,0 23.2,47 28.6,61.2 5.5,14.3 2.3,13.4 0,13.4 z" />
      <g
         id="g920">
        <ellipse
           style="fill:#bfb68b"
           id="ellipse922"
           ry="27.9"
           rx="28"
           cy="775.79999"
           cx="102.7" />
        <circle
           style="fill:#1f4368"
           r="11"
           id="ellipse924"
           cy="775.79999"
           cx="102.7" />
      </g>
      <g
         id="g926">
        <g
           id="g928">
          <g
             id="g930">
            <rect
               style="fill:#1f4368"
               id="rect932"
               height="80.599998"
               width="80.900002"
               y="680.29999"
               x="232.5" />
            <g
               id="g934">
              <rect
                 style="fill:#f2e6ce"
                 id="rect936"
                 height="16.700001"
                 width="8.3999996"
                 y="684.5"
                 x="262.79999" />
              <rect
                 style="fill:#f2e6ce"
                 id="rect938"
                 height="16.700001"
                 width="8.3999996"
                 y="684.5"
                 x="274.79999" />
            </g>
            <polygon
               style="fill:#f2e6ce"
               id="polygon940"
               points="242.9,746.6 242.9,756.1 250,756.1 250,746.6 252.4,746.6 246.4,741.2 240.5,746.6 " />
          </g>
        </g>
      </g>
      <g
         id="g942">
        <g
           id="g944">
          <g
             id="g946">
            <rect
               style="fill:#9b9826"
               id="rect948"
               height="80.599998"
               width="80.900002"
               y="597.79999"
               x="232.5" />
            <g
               id="g950">
              <rect
                 style="fill:#f2e6ce"
                 id="rect952"
                 height="16.700001"
                 width="8.3999996"
                 y="602"
                 x="262.79999" />
              <rect
                 style="fill:#f2e6ce"
                 id="rect954"
                 height="16.700001"
                 width="8.3999996"
                 y="602"
                 x="274.79999" />
            </g>
            <polygon
               style="fill:#f2e6ce"
               id="polygon956"
               points="242.9,664 242.9,673.6 250,673.6 250,664 252.4,664 246.4,658.7 240.5,664 " />
          </g>
        </g>
      </g>
      <rect
         style="fill:#9b9826"
         id="rect958"
         height="169.7"
         width="14.3"
         y="606.09998"
         x="213.2" />
      <rect
         style="fill:#9b9826"
         id="rect960"
         height="11"
         width="111.6"
         y="764.79999"
         x="199.7" />
      <g
         id="g962">
        <ellipse
           style="fill:#bfb68b"
           id="ellipse964"
           ry="27.9"
           rx="28"
           cy="775.79999"
           cx="181.5" />
        <circle
           style="fill:#1f4368"
           r="11"
           id="ellipse966"
           cy="775.79999"
           cx="181.5" />
      </g>
    </g>
  </g>
</svg>
