<?xml version="1.0" encoding="UTF-8" standalone="no"?>
<!DOCTYPE svg  PUBLIC '-//W3C//DTD SVG 1.0//EN'  'http://www.w3.org/TR/2001/REC-SVG-20010904/DTD/svg10.dtd'>
<svg style="shape-rendering:geometricPrecision;text-rendering:geometricPrecision;image-rendering:optimizeQuality" xmlns="http://www.w3.org/2000/svg" fill-rule="evenodd" xml:space="preserve" height="351.49mm" width="75.448mm" version="1.0" clip-rule="evenodd" xmlns:xlink="http://www.w3.org/1999/xlink" viewBox="0 0 11747 54728">
 <defs>
  <style type="text/css">
   <![CDATA[
    .fil1 {fill:none}
    .fil0 {fill:#E31E24}
   ]]>
  </style>
   <clipPath id="id0" clip-rule="nonzero">
    <path d="m2375 38469l-2375-38469h11747l-2332 38469h-7040zm-1593 16259v-11231h10225v11231h-10225z"/>
   </clipPath>
 </defs>
 <g id="Warstwa_x0020_1">
  <g style="clip-path:url(#id0)">
    <g id="_950454512">
      <path class="fil0" d="m-47223 7433c3988-3045 19081-7355 28917-10005 2888-892 5801-1740 8751-2591 8767-2908 18231-5936 20489-6288 80-28 160-55 240-83-13 6-1 1-35 19l-6 38c141-14 239-12 282 11l-50 278c-40 21-30 18-59 29-3333 1209-6699 2295-10083 3320 492-121 977-237 1454-346 824-188 1453-298 1929-353 2275-539 4493-962 6631-1246 1115-190 2105-328 2921-397 3543-918 7077-1765 10590-2537 0 0 4601-1124 3546-146-504 467-7415 2789-13952 4937 352-76 702-150 1046-221 483-98 830-151 1060-164l139-65 20 63c56 2 97 9 128 20 2564-792 5001-1504 6697-1906 1146-418 2353-823 3037-939l195-77c22-9 29-12 48-21-40 22-58 45-68 74 180-19 305-7 358 43-42 205-12 201-188 271-346 138-695 275-1045 412 6 29-3 64-29 106-11 18-69 48-169 89l1 5-23 4c-340 137-1115 388-2181 714-4391 1647-9044 3236-13491 4795-3890 1567-7689 3176-11107 4660-887 385-1771 773-2651 1164 7151-2901 14472-5592 21779-7772 3201-1092 5832-1879 6186-1654 57 35 92 70 109 105 3036-842 6012-1516 5407-728-1 2-57 17-153 42l3 36c-74 6-149 14-225 22-869 224-2951 751-2982 760-2741 802-5726 1849-8809 3034 3321-1130 5643-1775 6138-1572 104 43 168 87 201 133l136-35c1901-481 1510 121-359 868-2459 981-5009 1926-7586 2847 3916-1351 10450-3471 9468-2212-435 557-12578 4510-14606 5341-7500 3075-14881 6580-22187 10279 685-321 1201-562 1502-701 9750-4500 21406-9895 31527-13312 0 0 3841-1285 4980-1287 16-2 34-5 50-7v8c267 9 355 103 161 321-9 10-59 27-141 50l1 17c-40 5-79 10-118 15-254 66-666 162-1114 263-322 133-647 266-974 401-842 544-1729 747-2893 1182-619 252-1247 507-1882 766-9646 3994-18111 7761-27465 12810-141 77-341 186-591 322 6446-3148 12888-6133 19074-8815 2886-1252 6297-2730 9632-3863 2596-1063 4860-1801 5319-1376 469 435-1190 555-1191 555-887 203-1884 486-2964 833-13436 4799-45011 24518-59205 33589 9570-5428 18548-11797 28536-16980 9282-4818 19923-10486 29545-14306 36-14 7701-2917 7179-1703 688-122 1041-54 877 292-6 12-61 46-157 98l4 14c-16 3-32 7-48 10-1453 771-10341 4824-11389 5346-15497 7721-30220 16896-45103 25762 5563-3138 11128-6321 16661-9354 10345-5669 22941-12743 33740-17231 0 0 6209-2580 5604-1449-2 4-60 32-165 81l6 24c-31 5-62 11-93 16-1428 657-8506 3788-9205 4131-17373 8532-38842 22038-54774 33871 12418-6795 23559-15341 36494-21974 2156-1105 4326-2209 6500-3315 9597-5480 19303-10826 20420-10727 1087 96-2130 1670-2130 1670-849 460-1702 918-2558 1375 2072-1046 4142-2072 6206-3073 0 0 2984-1515 2554-719-40 74-3186 1964-7492 4531 3121-1346 6755-2717 6911-1903 4 19-78 85-229 188l9 46c-30 2-60 5-90 8-1918 1265-12143 6955-13374 7665-6216 3585-13020 7561-19826 11769 2552-1478 5141-2937 7723-4355 2401-1387 4872-2728 7436-4015 4299-2295 8572-4392 12738-6210l84-39c71-32 96-48 141-59 3098-1346 6136-2537 9080-3536l224 305c-3 2-41 25-105 62l6 10-56 19c-1735 1002-17618 9988-22687 12894 6444-3375 12882-6387 18725-8640 679-262 1161-429 1476-516l126-70 20 32c413-96 419 2 142 232l41 67c-83 32-169 65-253 96-1897 1378-9873 5586-10095 5710-1753 983-3509 1960-5263 2938 2516-1292 4988-2489 7367-3540 297-131 4397-1847 5596-1929 18-4 37-9 54-13l2 11c259-7 352 79 193 300-5 8-55 29-138 59l3 22c-65 15-129 30-194 46-918 313-3445 1091-3696 1195-8817 3662-22542 13021-34763 21882 7290-4785 14640-9087 22161-13130 5922-3629 11547-6687 16062-8340 424-155 756-259 999-319l159-77 15 39c403-76 432 29 104 263l27 66c-94 32-190 67-285 101-209 125-485 272-828 438-5695 2755-11055 5490-16204 8282-6546 4001-13400 8668-19595 12966 13092-8481 26220-16474 40840-22710 1836-783 1232-626 1955-810l157 338c-805 711-11407 6703-13304 7830-12447 7392-24240 14473-35958 23010-3524 2567-7048 5266-10961 7212-103 38-217-14-256-116-38-103 14-217 116-256 3878-1933 7373-4615 10867-7160 10735-7821 21245-14225 32628-21029 4644-2775 9672-5569 14339-8395-10289 4478-19533 9506-29189 15434-1787 1098-16744 10745-21881 14050-539 370-1065 730-1574 1075l-30-46c-76 49-120 76-120 76-249-51-217-190-64-353l-5-8 34-22c314-312 1025-697 1072-729 6391-4355 15524-10922 24619-16845-9329 5330-18095 10969-27093 17413-2790 2081-5332 3988-7505 5606-75 56-2549 2139-3663 2705l-213 165-41-54c-192 63-299 33-277-130 3-27 33-71 83-128l-4-5 26-19c733-805 5285-4120 10126-7556 11101-8285 26366-19488 38232-26378-1346 720-2625 1423-3786 2055-4692 2556-9898 5457-15016 8473l-254 163c-5387 3450-10758 6826-16067 10323-2907 2080-7736 5509-9594 6546-158 113-315 225-473 338l-52-77c-127 49-206 61-229 27s17-106 108-206l-48-73c132-84 264-169 396-253 1721-1466 7817-5457 10816-7403 2798-1948 5635-3876 8643-5698l1772-1073c3033-1960 6077-3893 9008-5656 8881-5339 18530-10581 27724-15678-7436 2987-16187 7251-24868 12116-11320 7201-21850 15228-32959 22850-78 54-151 96-218 128-23 23-48 45-72 67l-18-27c-305 115-438-13-257-258 1561-2117 11899-9645 14474-11412 5672-3891 12325-8023 19215-11894 5009-3151 10058-6102 15560-9232 3862-2198 8256-4474 12147-6736-2351 849-4751 1810-7186 2866-856 561-6976 3461-11754 5759-1793 927-3648 1906-5543 2925-4055 2280-8112 4711-12106 7227-10183 6772-19521 14168-29904 21175-498 336-888 585-1181 758-97 76-196 152-293 228l-33-46c-457 236-473 134-147-202l-52-73c149-99 297-199 445-299 318-283 749-640 1274-1048 8372-6509 18542-13802 29218-20541-4282 2512-8512 5111-12449 7685-5273 3607-10277 7293-14702 10974-115 95-991 1013-1486 1257l-1 1c-204 100-343 87-339-144 18-933 10396-8479 11650-9344 1986-1369 4120-2782 6360-4217 14624-9905 31208-19307 45129-27090-2911 461-5647 1826-8289 3095-90 43-180 87-271 131-8547 5084-19596 11624-21486 12792-10684 6601-20537 13396-30907 20391-36 24-6667 4830-6055 3339 542-1323 17830-13341 20071-14772 11449-7314 24686-15375 36774-21404 196-97 842-409 1733-821 3261-1899 6366-3725 8195-4850-4742 2167-9848 4967-14363 7309-6864 3560-15038 7489-21546 11566-3351 2098-27803 19150-29103 18814-155-40-155-163-26-355l-11-16 36-18c1657-2311 20552-13858 23127-15414 1452-877 6401-3802 12343-7246-10224 5395-18574 11174-28415 17273-12 7-7072 4258-9346 5314-96 73-194 147-290 219l-46-72c-397 157-494 115-139-221l-26-41c56-29 113-59 169-89 265-232 684-565 1286-1016 15892-11906 43190-29302 62215-37444-2304 760-4648 1888-6682 2828-13214 6109-27091 13950-39854 21060-6265 3490-12955 7515-19226 10760-214 111-399 199-554 265l-237 134-11-37c-443 153-474 26-83-285l-15-49 304-161c187-127 420-271 700-430 22515-12779 43280-26821 66994-37482-563 152-1142 322-1733 507-1636 705-3376 1456-3642 1579-20315 9383-40746 22414-59871 33999 0 0-3637 2585-3711 1770 58-59 126-123 200-190-6 0-13 1-19 2 9-3 19-7 29-11 2770-2513 16200-10911 19532-13050 10984-7052 25120-14788 36952-20301 495-231 6884-3055 11017-4464 368-154 733-306 1096-455-3073 465-6953 2342-9620 3526-9528 4232-20566 9766-29736 14835-3568 1972-26444 16310-28909 17233l-36 23-4-8c-81 28-136 39-161 31-141-42-123-152 4-306l-36-61c63-32 126-65 188-98 852-798 3555-2309 3640-2363 15807-10084 33427-21102 50052-29603 348-177 1402-704 2789-1367-7061 2916-15042 6787-19885 9141-3782 1839-7813 3813-11905 5872-9240 5109-21891 12097-24401 13351-94 58-189 117-282 175l-18-30c-82 37-132 56-143 53-145-41-129-148 0-299l-39-67 240-128c1136-976 5084-3019 5290-3135 6033-3407 12463-6867 19019-10227 3295-1825 6596-3641 9911-5431 814-439 1621-869 2423-1290-1890 966-3663 1878-5259 2695-2626 1343-25912 13523-28976 15003-52 38-106 76-158 114l-19-31c-92 43-147 66-155 64-148-42-143-157-11-331l-23-38 94-48c1675-1882 15244-9291 16972-10174 8469-4326 17261-8237 26119-11973 2579-1247 5083-2428 7454-3508-8903 3661-18010 7916-26331 11843-1310 619-2878 1354-4606 2172-7867 4145-15666 8408-23455 12489-107 56-2164 1459-2047 712 172-1097 13165-7603 23564-12639 10852-5743 21825-11298 33005-15883 1876-769 11235-3848 13810-4911-2721 390-9309 2806-11177 3509-7470 2809-15404 6119-23247 9593-6307 3197-29171 14881-36533 18520-692 379-1391 750-2103 1111l-22-86c-107 47-172 71-179 66-507-371 1405-1036 1411-1038 5485-2938 9966-6143 15764-8952 6431-3116 13354-6357 20370-9482 3683-1838 7364-3651 11037-5424 4404-2125 7374-3024 12016-4665 3123-1104 8276-2750 11666-4225-226 52-453 106-682 161-454 141-905 243-965 262-7067 2222-14753 5100-22499 8277-1725 780-3385 1535-4948 2243-12938 5861-25568 12093-38411 18062-699 325-918 624-1208 253 10-51 79-127 196-223-7 1-15 1-23 2l42-18c2695-2155 29827-14457 34044-16291 2263-984 4553-1968 6863-2942 1040-475 2111-963 3206-1458-7758 3091-14911 6064-17150 7053-8322 3679-16908 7548-25341 10963-2029 1002-4067 1999-6119 2988-25 12-42 20-67 29l-222-304c232-219 1330-812 2920-1612-29-48-6-127 88-248 306-395 3709-2138 8160-4307 331-181 664-361 997-541-5998 2333-10855 3972-10532 3017 166-494 3634-2455 7135-4321-1653 626-3263 1202-4778 1691-318 102-564 142-732 136-273 107-544 212-813 315-263 102-482 172-655 215-943 412-1758 729-2200 812l-17 11 10-10c-189 34-309 25-338-40-21-46 66-138 239-268-20-5-42-7-65-4 39-11 80-24 122-38 1507-1078 8359-4438 12372-6382 1736-893 3529-1771 5368-2633-1715 630-3418 1265-5104 1905-2002 759-16302 7415-16527 6483-114-470 2570-2002 6140-3806 359-418 1281-1020 2463-1688-813 344-1612 677-2395 998-1 0-3425 1423-2599 482 994-1132 15047-7791 16864-8450 4351-1578 8908-3147 13537-4675 4134-1745 8318-3417 12445-4886-11708 3694-27266 9231-30075 10590-4765 2306-9411 5289-14029 7516-721 348-842-16 111-657 445-299 889-591 1333-879-1437 704-2791 1324-3943 1772-47 28-94 55-140 83l-5-27c-47 18-94 36-141 53-755-414 1633-1382 1761-1456 3544-2044 7546-3970 11664-5758 366-188 731-373 1096-555 1735-875 3457-1703 5157-2439 690-299 1422-598 2187-897 2149-888 4298-1704 6453-2470-9590 2821-18134 5742-20644 7619-66 87-190 105-278 39-87-66-105-190-39-278zm25887-8297c-2476 867-4975 1770-7464 2705 2008-707 4045-1392 6131-2108 1851-636 3828-1321 5872-2020-1594 490-3116 969-4539 1423zm-16644 6351c-573 242-1143 485-1709 730-176 88-353 178-533 269-1676 854-3803 2001-5995 3151-1484 852-2890 1691-3975 2393 2980-1559 6125-3441 9045-4980 1057-557 2111-1075 3167-1563zm36357-11931c-4327 1345-8808 3004-13304 4815 6655-2130 13357-4150 19717-5967 53-15 314-91 728-207 1536-447 3072-881 4607-1302-1323 214-2702 470-4122 759 47 173-180 377-234 386-1562 234-4160 771-7392 1516zm-18027 6765c-2690 1135-5369 2305-8007 3474 1026-382 2060-760 3101-1133 4206-1715 8469-3340 12765-4870-2626 826-5253 1670-7859 2529zm-14807 6510c-2277 1020-4501 2015-6651 2960-1490 733-2858 1469-4057 2199 711-345 1434-692 2160-1037 3384-1673 6834-3288 10336-4841-602 238-1198 478-1788 719zm51144-17244c768-63 1156 24 918 343-1 1-76 25-211 66v7h-23c-1425 436-9199 2769-16247 4893 5912-1675 11847-3301 17778-5026 36-10 729-292 1148-334l35-11 3 8c184-12 304 29 273 172 1663-564 3319-1141 4963-1740 531-194 1240-517 1850-781-970 168-2304 478-2339 485-2697 593-5416 1233-8148 1918zm-64428 24180c-34 27-68 54-101 81l-29-41c-19 5-37 9-54 13-2480 1261-4535 2381-5437 3042 2715-823 12946-5507 15603-6515 3026-1148 6106-2282 9217-3401 9041-4288 21798-9098 33113-12372 1667-555 3314-1097 4934-1627-14479 4058-28883 8023-42828 13960-1306 556-4950 2219-8812 4068-1413 756-4500 2424-5606 2792zm57281-20123c-3090 1008-5607 1827-6579 2167-511 179-1020 358-1526 537 2645-882 5247-1664 7787-2314 92-23 378-88 784-176 1242-408 2606-851 3996-1293-1497 333-2983 694-4462 1079zm-25254 9242c-8889 3628-17503 7506-26777 11845-61 29-158 76-283 138 8946-3736 18693-8337 28377-12433l-1317 450zm23694-7976c-2118 717-4081 1390-5702 1930-3371 1124-6790 2263-10228 3417-4677 1857-9458 3912-14152 5979 9551-3826 19418-7143 29152-10461 1436-589 2871-1189 4306-1807-54 11-108 24-162 36-1143 323-2233 630-3214 906zm-29702 10049c-1638 571-3271 1146-4898 1725-1724 749-3472 1535-5264 2365-1276 612-2565 1241-3872 1889-1066 529-2454 1191-3939 1910-622 333-1238 670-1846 1009 6780-3143 13256-6093 19819-8898zm-19712 9792c1117-428 2328-904 3560-1397 620-320 1202-619 1725-885-1816 797-3583 1563-5285 2282zm8170-3267c2606-1069 4872-2012 6009-2469 7274-2922 14330-5721 21486-8437-9293 3241-18774 6780-27495 10906zm18423-5318c-1856 887-3703 1783-5544 2685 8550-3677 17098-7471 25658-10873 216-86 548-216 975-381-7147 2606-14325 5590-21089 8569zm-10493 5130l-419 208 1367-609c-311 132-627 265-948 401zm-9453 4728l-276 138c8750-3848 21934-9788 24538-10881 6703-2813 13499-5424 20403-7705 5072-2133 10084-4087 14332-5433-6144 1613-13889 4683-18629 6551-13216 5208-27115 11073-40368 17330zm-9561 4137c404-197 822-399 1249-605 35-35 75-71 120-110-499 256-957 496-1369 715zm4240-2033c888-421 1787-845 2675-1262 2192-1093 4370-2178 6540-3255-304 125-609 250-915 374-1996 950-4035 1930-5936 2856-693 376-1382 751-2066 1125-78 42-180 97-298 162zm43947-19247c3628-1431 7239-2795 10801-4058-3508 1202-7158 2594-10801 4058zm4365-148c-334 144-668 289-1002 434 2545-984 5099-1935 7653-2839-484 149-970 301-1458 456-1630 598-3380 1256-5193 1949zm13131-4592c210-67 420-134 630-200-563 138-1259 338-2066 590 478-132 957-262 1436-390zm-51526 18676c6202-2928 12187-5683 14005-6486 913-403 1831-806 2753-1207 4437-2089 8906-4126 13457-6097-2833 1100-4880 1875-4880 1875-8368 3369-17029 7577-25335 11915zm43409-14661c-3043 1065-6092 2103-9044 3136-1938 678-5290 2342-8303 3881 5871-2519 11714-4899 17297-6999l50-18zm8916-1310c-3676 1246-8052 3118-12555 5209 2917-1205 5835-2398 8744-3587 864-360 1738-722 2622-1086 442-182 830-365 1189-536zm-18940 8268c-720 354-1438 709-2148 1063 917-446 1832-884 2746-1315l-598 252zm10589 6897c3496-1796 6977-3611 10402-5462-3119 1441-6908 3501-10402 5462zm-7740 4392c-457 259-914 518-1374 779 1411-745 2826-1492 4243-2239-957 488-1914 974-2869 1460zm-18067 10485c-6328 3801-12564 7727-18274 11668-1451 1001-2840 1975-4173 3074 7738-4176 14963-9700 22447-14742zm10359 2565c-9282 5540-18090 11597-24664 17310 6644-4663 13269-9359 19903-14036 1608-1134 3191-2221 4761-3274zm-15286 7126c-4345 3009-8520 6033-12430 8972 4247-2998 8341-6010 12430-8972zm32636-23611c-10387 5395-21394 12162-30949 18182-2888 1819-17901 12040-21454 15320 1869-1052 5194-3417 6614-4384 13040-8875 25254-16964 38820-25068 997-595 3741-2181 6969-4050zm3321-10176c-9679 3938-21091 10381-28207 14359-8564 4787-16026 9618-24192 14999-1619 1067-3497 2401-5318 3646 3624-2198 8625-5387 9957-6202 13567-8311 32018-19438 47760-26802zm-22120 5019c-12585 5470-25253 11568-34492 17871 7606-3938 21406-11346 34492-17871zm-26605 11960c-4477 2220-8972 4561-12397 6622 4121-2179 8251-4401 12397-6622zm9656-7042c-3899 1807-7712 3618-11366 5388-3324 1611-6339 3425-9342 5226 6872-3529 13787-7098 20708-10614zm21300-11705c-3483 1309-6819 2636-9806 3872-543 225-1598 681-3010 1300 3600-1484 8168-3337 12816-5172zm-36359 13952c4793-2526 9736-4974 14464-7378 4092-2081 8190-3896 12289-5603-6221 2387-12396 4841-18738 7388-3353 1347-7187 2976-10949 4471-3165 1640-6198 3371-9048 5208 2436-431 4875-1376 7160-2231 1607-602 3215-1221 4822-1855zm50156-22062l27-3 45-17-72 20zm-32883 17202c-5401 2456-10618 4929-15444 7285-1625 793-4037 1928-6344 3079 7269-3429 14504-6939 21788-10364zm-1940-6260c1311-454 2624-907 3939-1356 1041-427 2087-850 3139-1270-2396 839-4739 1707-7078 2626zm30340-12661c-8641 2362-17351 5151-25865 8296 10188-3351 20675-6381 30457-9218-272 21-548 45-828 71-1199 218-2490 521-3764 851zm-48462 16726c683-311 1218-550 1520-682 3782-1699 7764-3502 11836-5278-3060 1040-6068 2093-8983 3150-1684 611-12576 5768-15854 7752 592-226 1225-492 1302-523 3122-1279 6549-2792 10179-4419z"/>
     <path class="fil1" d="m-47064 7553c2533-3366 48622-15558 52826-15712 1239-2332-37582 11046-42333 13148-6086 2693-25213 14085-9544 4366 16698-10356 39036-14205 57355-20702 914-324-47268 13210-65780 24781 422 87 17460-8908 19713-9830 9055-3707 41307-13584 50796-13584-17076 0-47835 15820-63983 22503-9262 3833 11152-6347 12959-7059 5448-2145 49066-16589 52501-15653-13140 3823-57109 16356-65421 23890 22552-11850 47879-20602 72766-26225 13282-3001-16533 6297-16628 6330-19520 6660-30044 11019-48605 19745-24349 11448 3099-2195 8328-4671 21846-10349 36230-12556 57686-19316-3827 0-59052 19180-64914 21612-2285 948-24494 10948-9381 2889 24296-12957 43422-16903 68869-24351-20668 6662-48144 15397-66488 26758-3568 2210 34417-13693 45026-17422 584-206 34453-12286 27077-9772-27392 9336-46713 19519-72292 32314-10389 5196 8569-4361 9316-4704 10679-4905 56669-25592 66658-25958-14186 2332-81939 36251-73795 31879 16860-9051 49755-23726 67875-29146 705-1668-34614 12298-38501 14098-2071 959-37875 16721-30720 12979 18930-9901 49214-23826 69676-28899-17035 3687-64090 27149-71953 27552 16457-11167 44574-19664 63756-26413-15472 1628-47406 17853-63203 23986-5431 2109 16470-8618 16537-8652 11644-5916 34592-14081 47557-16512-12196 5778-23790 9018-37239 15972-125 64-37237 18802-15776 9173 20858-9359 37720-17482 60302-23284 6283-1615-20034 7498-20168 7553-5762 2383-52215 26360-52449 26374 3249-1496 10370-6287 15028-8613 9453-4722 49424-23120 58519-24176 2944-341-11432 4241-12315 4593-19423 7747-39554 19364-58272 29107 6710-5426 64945-32710 72408-33017-8863 566-54941 25763-66716 31651 14830-11241 47459-23943 65578-31423 109-45-18759 7515-26908 11782-13891 7274-27409 15195-40947 22373 10640-6765 57217-30717 67855-32333-8735 0-57563 30892-67855 37570 9741-4870 20711-13082 32165-18977 4336-2232 33624-17717 37512-16772-15937 6151-45879 24073-60549 33186-27001 16773 12756-9302 17285-11860 8905-5028 34700-19806 44174-21098-25005 10882-46727 25820-70014 38956 649-37 60970-35108 69331-35768-17877 6862-50984 27931-66261 39620 11183-5742 23358-15017 35671-21593 2362-1261 35911-18276 29016-15275-10335 4497-55785 30927-61935 37076 8520-4098 22663-15405 32978-21196 141-79 46172-24327 30551-15256-19454 11297-34470 20111-53282 33115-26283 18167-1992-324 6603-5940 6247-4082 43355-27210 49314-26433-18721 10440-48338 27531-63906 40967 11035-11036 42680-28262 58044-35483 4704-2211-14762 7177-14820 7209-18055 9725-29284 19925-45273 30551 18083-14276 48484-34684 69904-41631 156-50-25299 13789-35483 20832-1809 1251-27445 19368-27590 19432 13022-12578 43492-29908 60854-36243-104 97-28060 15641-31065 17591-9544 6198-20679 12969-29789 19563 5825-3632 11604-8332 18424-12484 6394-3894 33297-20160 39938-21027-11679 2032-49884 31511-61323 39887 21536-16660 37729-26501 62163-38254-12121 3846-37782 22585-49184 30284 18286-11975 34833-23241 55143-31631 188-77-30062 17363-43380 26563-3098 2141-13699 10292-16772 11444"/>
      <path class="fil0" d="m-41618 10771c3379-1902 8638-4182 12384-5959 5717-2712 10575-5078 16584-7131 2477-847 30278-10424 27462-7506-1541 1596-22349 9887-26324 11732-11464 5321-23097 11846-34091 18322 6176-2778 12623-6054 18704-8902 12105-5670 26022-12280 38561-16686 223-78 10280-3403 9688-2019-490 1146-25149 10948-29012 12821-6582 3190-14007 7727-20433 11374-422 240-3085 1758-6109 3482 2462-1196 4887-2339 6993-3365 12235-5960 26150-12764 38761-17632 361-139 7799-2919 6897-1653-1 1-68 25-188 67l1 14-65 9c-1222 431-6513 2273-7014 2476-12392 5028-27925 13872-41785 22595 11540-6453 24210-12954 35677-18155 795-361 13943-6202 14093-4866 10 93-75 179-215 256 1454-590 2663-1e3 3562-1189 290-61 542-96 744-110 85-16 169-31 250-44l3 37c358 10 416 121 20 271l7 88c-4194 650-14141 5652-25310 11960 1404-708 2841-1416 4322-2130 5921-2853 11916-5573 17851-8405l-10 5 22-10 169 358h-2 1c-1357 717-2709 1425-4055 2128 2308-976 4227-1599 3999-858-419 1366-30506 17720-34211 19970-2082 1265-4098 2637-6083 4051 2887-1909 5865-3772 9239-5628 2765-1520 5541-3015 8322-4499 2664-1591 5371-3111 8132-4543 8433-5070 18637-10913 17974-9132-5 15-62 56-156 117l4 9c-11 3-25 8-36 11-765 485-3843 2174-7889 4363 373-156 747-309 1123-461 906-367 1525-591 1916-704l236-140 35 72c333-65 339 29 113 234l24 50c-53 21-105 42-157 63-1383 1109-7291 4365-7733 4628-9518 5678-19095 11519-28452 17668 1326-851 2694-1708 4133-2583 4939-3002 30026-17743 34175-18476 440-78 373 93 112 341l18 33-95 38c-388 344-1063 795-1311 963-8235 5557-19105 10271-27936 15521-7135 4242-15411 10248-22181 15221-2670 1961-6675 4831-9120 7322 7054-3935 15731-10570 22458-15210 9194-6342 21662-13470 31635-18493 5724-2883 9554-4306 8507-3182l11 27c-17 5-35 10-52 15-379 386-1276 1042-2798 2008 3289-1605 7302-3389 6985-2386-101 317-3128 2124-7121 4399 3011-1619 5190-2575 5340-2047 9 32-52 87-166 159l25 87c-152 47-310 100-473 157-1152 575-3528 1522-3612 1556-9898 4822-28264 17084-40262 25786 6102-4342 12699-8668 18329-12326 4744-3082 25271-16207 29443-15979 237 13 318 268 64 391-697 335-2578 895-3696 1419-10618 4978-26014 15856-35705 22836-7070 5093-17398 12576-23922 18852 6960-4860 13310-11331 20528-16290 9787-6725 22882-15790 33356-20853 949-459 7287-3106 5828-1807l23 62c-46 11-93 24-138 35-284 231-763 561-1489 1013-243 151-486 301-729 451 3285-1552 6098-2564 7707-2466 306 18 265 160 18 369l8 27c-17 2-34 6-51 9-894 716-3970 2136-4107 2211-11610 6392-24855 14611-36518 22630 2041-1347 4156-2674 6405-4002 9949-5881 20105-11303 30353-16623 864-502 1218-878 1867-967l646-334c-61 118-121 223-181 317 112 6 232 17 363 36l-639 330c-505 548-1085 565-2236 1172-2106 1110-4090 2188-6013 3265 2284-1139 4553-2205 6796-3184 3727-2192 6561-3628 7867-3827 1249-192-353 1089-1462 1899l59 158s-58 40-159 109l25 3c-18 5-36 11-53 16-1752 1196-15500 10566-24671 16840 5710-3748 11437-7329 16969-10669 1369-877 2556-1600 3488-2113 3202-2098 5346-3346 5837-3279 962 130-1091 1067-1101 1073-840 459-1679 929-2516 1406 246 326-2488 2021-2488 2021-3376 2213-6834 4390-10318 6544-2841 1992-5883 4146-8984 6354 2983-1771 6034-3517 8809-5163 1360-807 12113-7512 12455-6845 73 141-499 646-1384 1315 803-454 1505-805 1916-913l63-47 15 29c223-45 337 2 300 171-158 709-22729 15900-32415 22491-6264 4790-12457 9669-18675 14648 1707-1252 3590-2738 4857-3671 14114-10396 29196-21687 43940-31049 36-23 5937-4078 5339-2602-746 1839-41055 31318-46032 35515-1439 1214-2931 2429-4224 3809 5 6 10 12 14 18 61 91 38 214-53 276-125 85-588 443-716 430-176-17-185-143-76-345l-16-17 43-29c675-1129 4610-4309 4773-4446 5167-4358 41326-30772 45541-34927-1223 641-4005 2414-4380 2653-16104 10226-32547 22671-47969 34018-442 325-2342 1980-3236 2310l-64 62c15-17 25-34 30-50-103 35-191 51-261 43-663 533-1326 1067-1989 1602 0 0-1217 1175-1179 495 1-19 55-83 151-181-11 5-24 11-37 18 21-15 43-30 66-47 1844-1853 17480-15072 18808-16056 8752-6481 18453-13207 27696-19266 2862-1982 5882-4081 7542-5282-2930 1577-9138 5320-10641 6212-4257 2524-9165 5286-13482 8011-5092 3641-10164 7290-14613 10485-5782 4518-11519 9324-16699 13668l-18-5c-59 55-118 111-177 166l-28-219-249-65c2542-2403 5451-4879 8492-7334-2123 1507-3768 2660-4750 3316-2077 1386-2137 872-241-732-46-96-29-208 32-332l-8 3 9-6c314-624 1772-1521 2181-1860 3723-3091 7673-6163 11760-9185 10561-8161 21273-15365 32444-22893 334-226 683-457 1041-694-5703 3525-11615 6960-17207 10264-359 212-1072 652-2045 1260-7443 5449-31946 23646-32443 23749-2044 420 7658-7333 7797-7441 1273-990 3596-2708 6589-4870-5251 3341-9690 6173-10585 6742l-54 49-6-11c-67 43-105 67-106 67-1558 267 4594-4183 4852-4371 10664-7813 23054-15633 34341-22625 838-520 2937-1657 5247-2902 1211-770 2381-1502 3496-2188-4288 2008-8699 4333-13097 6840-1643 1007-3317 2054-5062 3160-5916 3752-12195 7679-18297 11722-1345 941-2661 1874-3939 2793-1077 775-11065 8258-13130 9799l-208 208-30-30c-88 66-135 100-136 100-204-14-215-142-96-342l-12-12 37-28c580-897 3466-3064 3668-3221 4557-3522 9695-7054 14941-10493 7348-5106 15055-10071 22737-14411 606-369 1209-734 1810-1094-5724 3089-11402 6260-17015 9577-8268 4887-14742 9752-22286 15673-1286 1010-1791 1767-2924 2209-172 167-343 336-513 506 62-142 126-273 193-396-149 46-309 87-481 124 4994-5009 12367-10076 18323-14150 12089-8269 27358-18093 40402-24883-3024 715-6591 2246-10254 4134-3515 2077-7010 4047-10500 6074-3061 1922-5852 3775-8051 5233-11943 7918-22552 16917-34088 25262-292 211-535 360-726 456-25 23-48 45-66 64 10-14 19-29 25-44-573 274-622 24 0-511 9500-8175 19868-15928 30200-23013 5453-3740 10970-6934 16502-10120 1248-738 2530-1480 3811-2199 2602-1509 5205-3043 7803-4658-9612 3116-28029 16011-36167 21534-7064 4793-12354 9761-18907 14967-73 58-3224 2443-4606 3263-68 70-136 139-203 208l-53-63c-394 207-528 187-188-230l-9-10 38-25c170-205 442-495 841-891 8457-8396 41683-32705 58102-41154-7701 3620-18365 10565-23228 13724-8717 5663-19761 12932-27677 19378-943 768-8006 7118-9812 8144-26 28-51 57-75 84 10-17 17-36 21-54-190 102-314 137-352 88-33-43 23-152 150-316-16 1-33 4-51 9 29-18 58-37 88-56 1478-1821 10835-9572 12206-10666 6187-4939 13659-10036 20753-14711-1195 780-2355 1540-3468 2269-3805 2491-9619 6101-13074 8879-4807 3865-9479 8025-14331 11828-1016 796-1446 652-576-199 8071-7903 19541-16032 28878-22530 10995-7651 22671-12655 33626-19743-2790 908-6277 2552-9989 4531-2080 1202-4090 2317-6057 3393-6085 3547-12100 7409-16131 9973-3943 2508-8295 5222-12509 8033-6516 4937-12791 10031-19370 14917-128 95-135 119-270 145l-191-142c4-42 69-130 184-254-48 9-50 4-82 21 46-31 30-20 121-88l88-65c1936-1937 12312-10014 13586-10894 1665-1152 3388-2330 5154-3523 3279-2494 6612-4955 10071-7346 6514-4504 13547-8023 20355-11759 1216-693 2419-1367 3607-2020 2575-1479 5097-3021 7524-4694-8117 2791-25846 13370-32891 17736-3135 1942-28477 19901-29521 19689-2365-483 24592-18964 27126-20671 10423-7022 22715-11885 32833-18655-5625 2361-11455 5629-16686 8565-8015 4497-18372 10339-25773 15635-2958 2117-15897 11684-18791 13245-27 24-51 45-67 62 11-13 19-27 26-39-89 47-168 86-235 116-454-274 369-723 582-889 18247-14177 38244-26282 58107-38071-2048 848-4042 1731-5991 2646-2906 1562-5995 3217-8925 4785-7108 4356-14928 9385-22003 14148-1321 965-2648 1948-3986 2949-1516 1133-15469 11943-18002 13642-29 36-64 75-91 110l-37-25c-157 101-249 151-265 140-1219-811 9569-8497 19947-15519 4770-3528 9605-6955 14572-10167-1745 935-3006 1614-3532 1906-7439 4115-13764 9101-20669 13468-880 569-1767 1120-2667 1647-86 51-762 524-1190 677l-49 27-6-10c-217 66-353 31-280-219 1-3 42-32 116-80l-21-38c345-196 687-395 1027-596 793-495 1869-1162 2758-1715 4431-2879 8515-6096 12885-9172 12176-8569 26948-14533 38997-23014-5173 1269-11626 5138-16125 7683-13856 7838-29120 17330-42210 26331-489 337-2833 2213-3885 2619l-125 94c20-22 32-42 38-62-164 54-289 64-360 16l-8-159c2-11 50-53 135-121-8 2-17 5-26 9l57-34c1529-1205 13199-9378 14407-10234 12062-8551 25028-15699 38150-22506-6735 3178-13358 6363-19995 9986-3142 1851-6286 3741-9345 5609-8208 5268-22055 14360-25461 16503-140 102-278 204-407 300-47 36-94 71-139 109 34-34 49-69 52-103-159 96-255 151-277 156-169-190-163-255 25-402 3459-2701 12267-8454 22526-14754 4617-2959 8967-5579 13461-8075 4009-2347 7993-4626 11751-6706-8995 4673-18118 9829-26807 14880-6341 3833-12598 7723-18962 11714-732 458-1524 1291-1900 822 92-754 9169-6183 18462-11550 14434-8803 32855-19616 42864-23710-4496 1433-10141 4114-13381 5637-12503 5877-26703 13208-38869 20313-4372 2841-8480 5601-12149 8140-16 11-1832 1333-2427 1655l-12 10 2-4c-68 36-119 59-148 63l-188-241c23-37 65-85 119-140l-10 4 12-7c1337-1366 11379-7930 13093-8932 939-549 1891-1101 2854-1655 13510-8717 29650-18413 43192-24351-13793 5688-28482 12876-41730 19481-3259 1625-6985 3764-10165 5255l212-364-164-30c94-58 188-116 284-175l42-72c556-554 28230-16057 31751-18050 10394-5883 22658-9031 32735-14675-3120 185-6938 1646-9734 2667-13263 4844-27356 11535-40177 17572-5819 2739-12199 6043-17992 8513-321 137-567 231-750 291l-62 38-5-16c-536 165-435-19-83-305l-14-48 170-73c252-189 577-403 886-586 11414-6756 23680-13689 35696-19266 3322-1541 24351-10008 26153-11601-2341-148-22593 6618-25098 7465-5962 2016-9396 3508-15120 6192-5171 2425-10718 5316-15838 7563-109 10-205-71-215-180s70-206 179-215zm60187-10570c-543 175-1265 279-1313 296-6111 2082-17932 8775-26353 13661 390-216 712-394 946-522 5182-2840 17574-9684 25841-13061 301-131 595-256 879-374zm-21777 13199c-2057 1124-4118 2272-6188 3456-7494 4289-13470 8156-20473 13107-312 221-626 442-941 663 8757-5719 18240-11757 27602-17226zm14612-4594c3286-1756 6564-3530 9821-5344-2618 1183-6453 3259-10968 5882 381-181 764-360 1147-538zm-40007 25544c-5211 3685-9449 6899-11851 9084 3952-3021 7889-6071 11851-9084zm4276-1211c-2679 1836-5333 3700-7956 5598 1153-800 2083-1446 2532-1766 1882-1343 3664-2608 5424-3832zm25523-10449c-4037 2267-8069 4684-12358 7702-664 467-1323 938-1979 1410 4670-3072 9520-6166 14337-9112zm7256-2207c-3766 2085-6842 3783-7729 4314-6388 3826-13790 8973-20476 14042 726-527 1492-1067 2323-1634 7982-5447 17035-11456 25882-16722zm-32866 21969c-1384 1097-2713 2174-3967 3215-1760 1461-4044 3359-6019 5156 2239-1803 5128-4343 6446-5440 1294-1077 2438-2032 3540-2931zm-6519 6522c-1716 1425-3674 3069-5182 4467 1571-1266 3487-2973 5182-4467zm27746-15852c-194 132-389 264-583 397-9386 6437-18784 13414-27550 20765 2297-1717 4873-3795 6588-5100 7309-5565 14139-10915 21545-16062zm-16590 14054c-1531 1131-3051 2283-4527 3485 1539-1201 3039-2359 4527-3485zm49450-27835c233-29 360 19 155 252 1379-682 2666-1246 3474-1435 673-453 1294-888 1913-1447-957 170-2924 1135-5542 2630zm-13303 7778c-127 75-236 140-323 194-11278 6986-23660 14801-34315 22608-890 651-1709 1268-2512 1908 4990-3289 10209-6569 15313-9795 6677-4711 14657-10210 21837-14915zm-14522 10286c846-526 1695-1048 2546-1568 1742-1255 3492-2499 5244-3720-2674 1796-5314 3591-7790 5288zm7852-4758c7394-4396 14876-8701 21987-13409-6521 2668-15766 9020-21987 13409zm-17039 11130c-2116 1485-3713 2623-4549 3232-3651 2665-10931 7896-14199 11436 3830-2438 8867-6536 12458-9229 4108-3082 8419-6337 12822-9584-2039 1291-4279 2713-6532 4145zm785 2773l-192 149 410-307-218 158zm36401-23686c-1287 846-2754 1834-4361 2933 1696-1076 3353-2159 4921-3242-73 36-146 72-223 112l-337 197zm-20156 12587c1622-970 3210-1911 4661-2800 1030-728 2059-1450 3074-2157-2532 1599-5122 3255-7735 4957zm-17061 13054c1581-1214 3161-2401 4730-3545 1864-1392 6639-4907 12058-8796-1560 952-3114 1901-4657 2849-5564 3416-10653 7570-15839 11528-3191 2436-8059 5945-11325 8774 2169-1443 6158-4279 11074-7810 1331-1018 2657-2021 3959-3e3zm29467-17204c-4653 3261-9214 6559-13715 9899 7462-4965 14967-9847 21748-14891-148 86-324 188-536 312-2419 1407-4945 3e3 -7497 4680zm-28754 20900c-3167 2327-6190 4675-9126 7199 3049-2418 6083-4817 9126-7199zm-1105 229c3198-2393 6525-4730 9905-7036 1662-1267 3334-2531 5018-3790l-557 389c-3835 2678-9833 6616-13285 9527-356 301-717 604-1081 910zm-17609-11853c-1113 824-2190 1651-3218 2478-485 391-1010 807-1561 1240 1596-1238 3186-2479 4779-3718zm21230-22905c-2745 1685-5448 3448-8145 5288 4024-2645 6999-4562 7633-4964 120-77 293-186 512-324z"/>
     <path class="fil1" d="m-41600 10968c9-1 21759-10579 25425-11860 18215-6366 53218-17344 10858-130-12587 5115-30967 15465-43114 22692 862 0 61276-30212 69599-29126-7201 4431-22874 9182-32919 14781-131 72-42844 24257-30441 17370 7007-3890 55943-27752 60478-27161-17103 4642-52116 26621-67465 37291-8108 5636 6278-4580 7352-5264 8639-5504 52617-29228 60796-29750-7375 1185-50010 26918-58103 32125-12643 8135-4400 2527 1119-911 8831-5499 53879-31521 61538-32125-9076 664-58768 31741-69221 39353-3534 2574 24086-16039 30186-19563 13952-8059 22442-11500 35996-17988 197-94-33054 16421-47303 26849-2106 1542-26976 18970-10793 7820 7423-5114 51163-33283 57947-33283-7135 5422-26713 15108-35977 21007-6659 4239-13954 10478-20493 14059 7102-3909 14535-10231 23453-15198 11936-6647 24662-13006 36393-19660-7557 1296-65122 39209-66052 42827 19420-14721 38147-30465 61537-39392-21530 12759-39566 23567-59768 38956-7024 5352 18634-13066 18841-13206 7911-5361 34724-21199 43029-24078-7195 5350-23467 12437-33355 19029-4175 2783-25824 17534-28177 20968 5435-2662 21425-14614 28157-18899 5376-3421 29661-17828 35372-18899-8096 6029-21197 11438-31481 18483-11278 7725-19247 14325-29731 22386-2736 2103 10927-9010 11801-9635 6955-4977 45282-30330 53392-31462-10495 7064-22250 11730-34740 20474-10598 7419-18381 12972-27968 21690-6282 5712 13220-10750 14137-11405 8066-5766 38274-25687 46789-28293-8245 2151-45025 27343-51857 33055-11449 9573-18016 15877-2479 2518 7268-6249 49391-35198 57829-35989-10114 2395-56286 35282-64894 44629 5811-3568 14453-12187 22256-17455 6893-4654 31740-21881 39067-22959-9092 5837-17996 1e4 -28079 16883-13228 9029-19154 13704-30948 23453-5969 4935 24588-18612 26771-20135 6301-4396 29474-20252 37649-20773-12839 6420-51284 30516-59924 39639-72 76 14132-11377 21117-15633 12417-7566 24649-14067 37506-20708 70-36-11837 6102-17143 9511-6900 4435-37484 23435-41669 28405 17341-13535 36759-26798 56873-35951 7771-3536-8624 4972-10006 5816-7378 4508-35961 22643-40947 27630 176-26 25645-16521 28170-17982 123-71 39800-23351 28964-18697-9422 4046-56882 36214-60777 42144 1772-336 48755-38108 60816-40967 191-45-30226 20079-40362 27929-2976 2305-26971 21685-10129 7820 10756-8855 39643-27892 52130-34519-405-1618-53441 37151-58050 40192-7939 5236 23221-18319 24409-19081 1714-1100 35390-21583 29003-18392-9839 4915-48706 33796-56906 41799-109 107 19697-16686 30095-23414 105-67 35034-21155 25444-14612-19684 13433-34410 24787-52943 39796-5428 4396 16739-14463 17006-14671 3957-3072 35029-24924 38494-25957-15591 12056-39806 25454-53295 39047-867 874 38322-28738 54609-38462 11791-7039-39837 31021-41591 32451-1172 955-6574 5369-7475 6675l586-397"/>
      <path class="fil0" d="m-25294 21037l1366-683c98-49 217-9 266 89s10 217-88 266l-1367 683c-98 49-217 9-266-89s-9-217 89-266z"/>
     <path class="fil1" d="m-25205 21215l1366-683"/>
      <path class="fil0" d="m-145 10483c-2826 1427-5667 2886-8513 4367 5230-2380 10461-4760 15632-7253-1384 373-3169 1014-5234 1848-558 247-1128 505-1711 775 6 17 10 34 11 52 7 109-75 203-185 211zm-15074 7812c-2590 1371-5181 2755-7767 4145l-118 67c3977-2102 7985-4132 12009-6075 298-143 763-363 1357-639-1828 832-3656 1664-5481 2502zm-21204 11424c-1779 969-3551 1934-5314 2894-1066 581-2261 1274-3461 1963 438-220 895-451 1364-690 2478-1367 4947-2761 7411-4167zm-13103 6873c-12-1-25-1-38 0-688 454-1245 845-1629 1152 427-189 993-465 1566-754-274-6-187-163 101-398zm-32-4c19-6 40-12 61-19 67-53 143-110 227-169-98 64-194 126-288 188zm19531-9870c4073-2037 8292-4009 12531-5950 5323-2732 10637-5478 15927-8247-4181 1853-7987 3609-9354 4269-6464 3120-12829 6443-19104 9928zm18901-8848c2889-1312 5758-2617 8566-3926 2554-1191 11230-5061 14300-6853-1802 527-5451 2017-9331 3690-3810 2001-8556 4488-13535 7089zm14234-7806c1115-588 2228-1177 3340-1767-3539 1707-7105 3357-10679 4990 2304-1033 4892-2175 7339-3223zm5473-2901c408-218 627-338 1042-567-358 80-736 177-1131 288 292-13 379 61 89 279zm2196-803l7 24c-23 3-49 8-72 12-561 303-2089 1113-4294 2275 3100-1276 5541-2183 6177-2172 1427 26-3159 2191-3159 2191-9408 4673-19203 9078-28844 13497-11983 6233-23055 11930-23539 11976-300 29-348-43-253-167-2409 1345-4511 2482-6183 3316 0 0-3284 1737-2667 709 922-1537 18069-11047 20838-12471 4544-2335 9158-4539 13801-6692 3215-1790 6448-3543 9712-5230-10847 5094-23762 11851-29904 14866l-1322 731c-1371 831-2529 1484-3233 1785l-439 241-18-81c-161 37-256 23-272-51-4-22 74-88 221-188l-11-52c96-42 193-85 291-130 282-178 675-413 1147-687-234-23-160-165 99-373l-4-20 69-30c981-745 4003-2209 4086-2255 888-501 1747-989 2587-1466 2817-1907 5652-3877 8119-5215 12524-6795 26350-12291 38311-19919 91-61 214-36 275 56 61 91 36 214-56 275-5352 3413-10698 6152-16368 8966-7302 3625-16118 7522-23037 11554-261 152-1087 696-2230 1451 3401-1889 6776-3660 10834-5476 287-128 575-257 865-386 7785-4063 16023-8059 23322-10760 1272-471 1131 16 170 496-1463 730-2965 1455-4493 2175 1070-434 2112-835 3113-1192 3353-1374 6913-2646 6533-1684-1 3-65 39-179 101zm-21554 7807c4605-2033 9285-4116 13699-6239-4326 1731-9091 3954-13699 6239zm-6512 3313c-1794 933-3510 1841-5107 2693-1856 991-3707 1992-5554 3001 3391-1704 6782-3410 10186-5079 2507-1229 5313-2631 8202-4031-2612 1155-5208 2294-7727 3416zm-4848 4040c-2985 1419-5953 2872-8893 4383-2172 1116-11901 6503-17232 9853 1066-636 2295-1279 2295-1279 7164-3978 14441-7884 21720-11753 703-402 1406-804 2110-1204z"/>
     <path class="fil1" d="m-158 10285c-621 43-87103 46204-29783 16590 3331-1722 50624-23116 41396-19836-17373 6173-38610 17396-54421 26927 241-23 48850-24950 53737-27780-9187 587-49749 25705-60243 30948-8844 4419 9361-6530 9421-6564 15770-9063 32142-15444 48552-23492-4424-531-48835 22789-49645 22789 8145-4240 12614-7674 22275-11899 105-45 33920-15174 23037-10702-17174 7058-30751 14965-46861 23811 947 73 13791-8702 15438-9615 11139-6177 29947-14237 39393-20513"/>
      <path class="fil0" d="m5180 32543c-9457 5690-19032 13594-27535 21280 8494-6590 18832-13543 27435-18967 1735-1093 14633-9163 16292-8096 675 433-7079 5545-8003 6188-7220 5023-15679 10427-22124 16235-2888 2603-5707 5257-8552 7874 4074-3164 12806-10628 15134-12351 8200-6070 16925-11839 25332-17761 1023-798 2636-2034 3493-2486l201-135 31 25c196-80 321-87 344 5 7 29-35 88-120 173l44 36-544 395c-738 591-2045 1529-3412 2486-12205 8911-26349 19505-36935 29305-2136 1978-4298 4008-6014 6373 6597-4442 15019-12544 21173-17732 8699-7336 20849-15231 30753-20947 0 0 4965-3070 4377-1649-108 261-842 920-1984 1833 963-474 1666-711 1813-489-46 60-118 141-210 237 33 5 63 14 92 26-64 25-130 53-195 79-2912 2901-21850 17737-24796 20109-6176 4973-12148 9803-17970 15129 1991-1634 4216-3607 5754-4885 5318-4420 10551-9015 16288-12888 1602-1082 16061-10974 18528-12004 5-6 11-13 16-18-3 5-5 10-6 14 192-79 311-105 341-65 572 752-17449 12310-19031 13451-2246 1620-4629 3462-7056 5429 9149-6817 19505-13480 28771-18170 1320-668 1557-313 332 669-4378 3511-11021 7731-15833 10989-4424 2995-8074 5433-12259 8747-875 692-1751 1389-2628 2089 3004-2146 5481-3889 6231-4414 8212-5737 16830-11818 25306-17126 3327-2084 4269-2367 3598-1615l16 29c-24 11-49 23-73 34-488 520-1637 1462-3241 2621-374 270-748 537-1122 802 586-248 992-317 619 202-913 1265-18589 13570-21699 16051-7628 6088-18283 14185-25270 21818 11838-10934 38598-32680 49467-36670 1998-734 1284 294 219 1382 207-117 414-234 621-349l-7 248c1274-607 2154-797 2457-403 309 401-1462 1176-1519 1214-111 74-223 149-335 225-259 290-622 611-844 817-111 104-226 207-339 311 2151-1384 3465-1981 3383-1303-159 1305-26126 21341-29445 24218-3773 3270-7676 6904-11484 10566 6485-5742 13373-11493 19716-16803 2741-2295 22217-18625 21665-16140-78 353-3264 3077-7660 6707 4118-2811 7479-4551 9405-4464 2736 124-32874 27628-37523 31502-2945 2453-7699 6331-10474 9783 7429-7075 17051-14742 25006-21075 2103-1674 22046-17478 22291-15251l-193 136 9 83c-84 29-169 60-257 93l-943 668c1622-868 2535-1052 2057 27-59 133-1120 1024-2816 2396 1003-507 1659-671 1802-345 15 34-55 125-192 262l7 16c-11 3-22 7-33 10-1811 1763-14469 10803-21648 15960-3975 3156-7163 5720-8159 6632-459 420-1743 1616-3357 3106 9705-7555 20493-15885 30637-22550 277-182 8604-5777 6754-2290-197 371-3851 3478-8720 7527 3540-2356 7309-4741 10433-6453 579-317 694 55 330 328-5811 4359-13581 9414-21194 14734-7066 5804-13731 11243-15245 12523-501 424-6108 5422-7320 6410-26 31-52 62-77 93l-19-16c-76 60-122 93-133 93-430 11-197-457 440-1204-4164 3878-8069 7774-11509 11517-814 886-1470 1811-2641 2169-108 16-209-59-225-167-16-109 59-209 167-225 813-253 1327-868 1899-1482 4723-5078 9422-9807 14573-14455 7155-6458 16617-14208 24465-19721 824-579 1708-1194 2634-1830 4738-3816 10875-8801 11602-9706 2312-2874-5715 2303-5996 2487-10576 6948-21856 15712-31872 23513-5012 3903-8160 7768-12688 11833-294 264-961 868-1412 1169-15 22-32 46-47 68l-25-22c-304 191-481 207-312-188 1110-2598 8459-9235 13462-13562 5471-4794 11690-9936 12502-10600 1044-855 12948-10586 19186-14516 2083-1597 4376-3430 4450-3884-894-142-6819 4032-8730 5397-11728 8909-23815 18653-35027 28058-630 529-1249 1052-1861 1581-598 580-1269 1199-1753 1552-108 98-216 197-325 297l-59-58c-174 81-280 69-281-78 0-23 25-65 75-126l-17-16c8684-8452 21158-18113 30944-25553 409-311 3198-2461 6432-4813 2347-1837 4780-3686 6831-5095-5531 3223-13700 9855-17633 12971-8442 6691-18506 14729-26189 22024-143 136-816 855-1276 1216-14 22-28 45-42 67l-24-17c-291 215-473 252-328-166 1241-3573 18086-16758 22467-20212 7415-5848 20488-15483 26576-22121l-1311 259c-3233 1012-8514 4674-13926 8918-1789 1455-3625 2942-5426 4398-4652 3877-8907 7669-11455 9966-1994 1798-15422 14431-17746 16612-64 81-128 163-191 244l-36-31c-76 72-117 110-117 110-158 4-178-110-102-303l-43-37 108-105c563-1090 3139-3814 3268-3957 8553-9497 19728-17897 30460-26398 149-119 298-237 447-355 4681-3714 9268-7451 13508-11309-5294 3080-17840 13819-22221 17509-8693 7322-18814 15728-26862 23567l-64-63c-382 277-467 216-171-168l-48-47c6902-6873 14918-14765 22341-20982 8343-6987 19247-14394 26885-21874l-513 215c-992 498-2454 1419-4257 2657-3017 2495-6505 4993-10183 7523-2920 2257-6036 4726-9158 7257-2307 1888-4644 3807-6976 5746-1178 987-2333 1965-3459 2926-4307 4064-8037 7710-10436 10167-751 832-1494 1661-2229 2485-298 333-554 606-770 822l-417 510-69-55c-383 320-456 241-205-164l-35-28 220-248c213-300 530-699 952-1185 630-724 1549-1705 2694-2880 484-536 972-1072 1462-1610-2900 2693-5024 4859-5903 6118l-72-34c-393 386-427 239-255-120l-30-14c41-55 81-109 121-162 141-254 351-570 595-874 198-247 422-510 667-785-308-415 1148-2363 2709-4230-1565 1494-3539 3376-4163 3921l-44 57-12-9c-79 68-128 106-140 107-234 22-262-105-156-325l-9-7 26-27c493-944 3212-3421 3418-3612 1850-1714 3781-3429 5764-5139 1897-1776 3899-3464 5973-5090 2154-1828 4259-3588 6203-5218 459-386 1421-1191 2725-2266 2370-2182 4789-4301 7255-6329-4184 2892-8272 5845-12030 8802-4004 3150-8748 7928-12652 11522-662 610-8460 8253-8788 7408-391-1005 12497-12189 13888-13354 6856-5740 17087-13785 26094-19421 2739-1986 5530-3836 8372-5516 1133-966 1901-1701 2069-2046-210 13-601 158-695 193-11483 4219-41583 29010-51165 38292-305 296-554 523-751 688-61 76-122 151-182 227l-50-43c-375 276-434 186-216-186l-34-29c44-44 91-90 136-134 204-310 541-753 999-1298 6377-7595 18687-16968 26681-23347 3102-2476 17710-12567 21034-15414-906 473-2084 1176-3469 2064-1179 794-2360 1575-3540 2352-12964 8869-35744 26735-40161 32384-49 62-794 1557-1145 1445-1824-584 9704-10495 10657-11301 6636-5615 14664-12228 21738-17103 2281-1571 4990-3306 7759-5101 2139-1469 4019-2711 5521-3648 2156-1470 4193-2935 5920-4343-4673 2538-12170 7910-15978 10513-7170 4901-15100 10218-22494 15688-3215 2567-6444 5125-9670 7577-75 56-72 61-165 88l-219-230c15-35 48-82 93-137 644-778 4205-3473 8229-6415 3543-2814 7076-5663 10582-8438 3220-2548 22083-15064 26250-18274-11660 5934-25615 15212-37231 24930-3597 3183-7051 6392-10049 9300-48 46-1959 2204-2876 2821-45 49-91 97-136 146l-43-40c-182 91-297 80-303-86-32-850 11037-10708 12384-11841 534-449 1079-901 1631-1355 4422-3887 8940-7617 13255-10846 2687-2010 14683-9705 18959-12931-5718 3597-11268 7334-16874 11118-5995 4048-11909 9250-17493 13893-805 669-5757 5080-7262 5878-27 31-52 60-74 86 12-20 20-40 25-60-203 102-334 129-373 61-21-37 35-135 152-282-11 1-22 1-33 3l69-47c1286-1554 8669-7919 9737-8817 10639-8951 21883-17618 32713-26399 430-349 1143-1048 1814-1569-760 359-1564 780-2401 1252-5939 4485-16413 11750-18465 13342-351 272-783 608-1280 996-2016 1646-3850 3175-5378 4450-2049 1709-20800 18014-20891 18022-2475 210 14637-13709 22725-20166 5973-4935 12005-9644 17787-13631 413-285 2981-2006 5340-3398 1829-1380 3192-2465 3708-3003-516 200-1411 676-1544 747-7012 3723-15387 9364-21972 13867-10075 6888-17687 14510-26965 22130-3220 2645-5021 3925-5788 4261l-39 58-30-30c-1410 555 1303-2650 5022-6214 7998-7665 18997-16215 28986-23682-6266 4291-12975 8836-18513 13325-1250 1014-14058 11818-14486 11428-46-42 7-161 139-342-14 0-28 3-43 6 19-9 41-21 63-32 1301-1747 9479-8899 10165-9517 5106-4601 10675-8292 16307-12203 3005-2086 10575-7026 13386-9473l-758 116c-6885 1792-30082 18080-37320 23351-814 593-7149 5441-8981 6840l-348 324-31-35c-75 57-115 88-116 88-255-14-240-159-114-341l-6-6 27-22c240-324 797-746 816-763 9259-8592 20332-18063 31137-24564 94-56 216-24 272 70 55 94 24 216-70 272zm-7758 20360c-3430 2864-6595 5610-8655 7624 2785-2469 5685-5033 8655-7624zm39192-13280c-1365 1091-2756 2164-4159 3229 1730-1208 3462-2440 5197-3770-343 175-689 355-1038 541zm-20093 15531l-843 670c129-89 257-178 386-267l457-403zm-6896 5528c-831 675-1661 1354-2486 2034-2302 2017-4542 4011-6687 5945-1779 1845-3334 3731-4591 5665 525-521 795-765 2168-2015 122-112 246-224 369-336 2632-2643 5439-5323 8302-7975 1400-1451 2820-2895 4260-4324-448 334-894 670-1335 1006zm17440-14857c613-475 1229-950 1846-1421l-28 19c-609 461-1214 929-1818 1402zm12365-7060c-2667 1909-5460 4069-8228 6279 2357-1800 4598-3469 6528-4836 575-475 1142-956 1700-1443zm-21155 15280c181-123 363-246 544-369 990-881 1979-1753 2961-2610-1153 949-2327 1950-3505 2979zm3065-2068c1348-905 2694-1808 4033-2716 3313-2718 6864-5603 10336-8233-2967 2159-6921 4870-8889 6210-1774 1500-3616 3095-5480 4739zm19986-14997c-553 120-1288 445-2174 946l8 12c374-119 396-18 154 244l40 63c-65 31-130 63-196 94-297 285-793 691-1423 1177 1220-894 2422-1746 3591-2536zm-22000 16786c-1785 1595-3575 3218-5327 4828 2267-1871 4528-3720 6750-5537 590-482 1196-979 1814-1486-1077 728-2158 1459-3237 2195zm-3313 2282c-3487 3125-6924 6368-9891 9128l-63 58-66 69c623-532 1249-1063 1876-1594 2779-2619 5794-5402 8846-8150l-702 489zm-252 6504c-2608 2108-4553 3691-5287 4322-4604 3961-8806 7841-12682 12364 4005-3865 10725-10239 17969-16686zm25226-11268c-2799 2234-6425 5096-10083 7983 3928-2752 9891-6774 13208-9644-868 356-1929 929-3125 1661zm-38625 32150c-360 290-651 509-854 640-6 9-13 19-18 28 2-7 4-13 6-20-161 103-263 147-298 123-46-32-55-92-37-172-1310 1353-2487 2659-3449 3867 1631-1475 3142-2971 4650-4466zm34715-22931c-1346 1113-2739 2261-4143 3417 4742-3261 9504-6463 14168-9813-3220 2015-7235 4529-7718 4847-762 503-1531 1020-2307 1549zm-13925 10348c1540-1138 3090-2255 4648-3357 1309-1065 2608-2124 3888-3173l83-68c-2845 2078-5736 4293-8619 6598zm406 100c-5125 3791-9878 7651-13542 11434 4324-3849 8945-7679 13542-11434zm12616-16416c-4348 3137-9313 7131-13346 10463 4413-3518 8926-7006 13346-10463zm-24072 19520c-3256 2822-7337 6449-9416 8631 3212-2733 6302-5748 9416-8631zm12253-12524c-5043 3886-10113 7949-14909 11980 5252-4265 11114-8957 14909-11980zm-11986-2689c393-353 786-704 1178-1053-123 88-247 177-370 266-270 261-539 524-808 787zm-7015 3055c-152 127-303 253-452 378-1975 1653-10496 9083-13092 12107 2022-1695 6512-5877 7469-6758 1889-1739 3973-3753 6075-5727zm13283-8955l-143 129c1613-1281 3208-2546 4771-3791 889-708 3148-2394 5775-4375 968-793 1907-1548 2808-2257-4316 3149-8784 6657-13211 10294zm22461-16329c537-155 819-172 934-104 256-170 511-336 764-499-472 83-1057 301-1698 603zm-12820-7770c-2635 1745-5427 3783-8160 5875 2613-1870 5532-3960 8160-5875z"/>
     <path class="fil1" d="m5079 32372c-10380 6143-23034 16993-31950 25327 6217-5471 42475-31219 48136-30772-528 1020-23901 16486-27981 20154-24445 21975-7443 7470 3916-1652 2491-2e3 29724-20765 29836-21027-9751 7073-42820 31457-47531 39445 5860-3423 20909-18140 29386-24111 17854-12575 47357-29979 8009-2582-3257 2267-29867 23435-30493 25730 9181-8142 39624-35161 49789-38670 72 175-33030 26468-36790 29809-23288 20690 5913-4532 13584-10246 79-59 26868-18222 19927-12771-6510 5112-14353 9087-22289 15555-9130 7441-16016 13355-24221 21560 12277-13577 34219-28920 50589-37362 6061-3126-23004 16145-24403 17246-1657 1306-33340 26418-15022 11782 4621-3692 41480-29415 44051-30030-3974 3820-20188 13338-27058 19009-3624 2993-25210 19490-25880 23226 2848-6012 40890-34648 48540-38423 4127-2037-18132 13479-19687 14729-7521 6048-23844 18574-29308 25971 9529-9530 40592-34960 52189-39275 5544-2063-13973 12004-14345 12302-4702 3765-30948 24460-33062 28111 5451-5918 46053-41160 50471-39600-5970 3294-43482 34252-48650 39828 7013-13548 35866-27688 47076-38898-4462-1029-43353 35109-47531 40947 12651-14264 29978-32527 46906-41669 129-70-20910 13516-30102 20936-1827 1475-29711 27806-16869 14631 8716-8942 33203-28237 44961-33517-4103 3501-11489 7739-17104 12432-4096 3424-26316 23328-28703 27187 1173-3439 44826-39634 50322-40758-5574 5955-23156 18380-30948 25483-6117 5577-13101 12192-18990 18079 4589-4775 47377-41740 50393-41740-13956 13159-37950 28691-48819 43068 7349-7226 42086-40583 50758-40583-7455 8920-45344 34908-49411 42729 5238-5539 43933-37628 48513-37948-2118 318-44316 34331-47264 37363 9526-9526 51449-42257 47817-36204-77 128-27007 21168-29354 23244-1568 1388-25142 23218-10285 8614 4079-4009 34706-29965 38761-29900-1770 1982-23032 16431-27662 20356-5319 4508-17327 14129-20871 19810 4018-3228 7696-8011 13187-12335 3109-2447 44096-34296 39165-26524-523 825-35620 28913-41578 34800 7935-10223 32494-25336 43874-33798 1631-1212-13329 8004-19146 12452-13981 10693-23866 18761-35938 31722-554 596-1663 1981-2524 2108"/>
      <path class="fil0" d="m6278 84249c-173 48-319 77-444 92-755 742-1499 1481-2229 2217-437 440-3981 4577-5275 5672l-160 192c21-34 29-61 30-86-142 109-245 167-299 159-281-441 478-936 970-1499 3895-4462 8192-9508 12251-13754 849-888 4788-4453 9407-8452-626 468-1100 831-1374 1057-8017 6613-15320 13568-22818 20731-718 685-998 416-376-356 3354-4161 8612-9800 12408-13614 1587-1595 3261-3240 4986-4904-7079 5651-13209 10421-14682 11246l-2 4-2-2c-182 102-295 145-325 118-481-428 652-2052 2408-4057-620 520-1242 1032-1867 1533-562 450-890 211-174-513 5892-5955 13028-12261 19624-18095-5836 4893-11179 9957-16998 14927 0 0-4189 3814-3837 2517 100-366 881-1291 2089-2555-287 98-389-1-245-361 236-589 1125-1631 2421-2942-442 266-719 326-655 2 318-1614 15135-15664 17084-17219 1437-1146 14433-11348 18760-14801-5921 3706-24526 17623-27437 20026-1386 1144-12995 11694-13522 11073-575-679 12662-11757 19101-17106-4460 3472-8192 6390-9083 7128-3064 2538-5909 5202-8901 7728-1347 1137-1653 813-592-474 5937-7199 14756-15406 22452-22042-8439 6170-18296 13388-19903 14630-844 652-7429 6207-7803 5786-321-361 2516-3397 5552-6439-972 775-1941 1554-2907 2338-12 9-4213 3359-2931 1116 129-225 295-477 491-750 16-34 33-70 50-106 980-2061 5025-6115 6820-7824 80-74 206-69 280 11 75 81 70 206-11 281-1098 1045-2592 2455-3938 3955 5475-5698 15008-13952 18687-16823 3379-2637 12348-9070 16023-9428 262-25 254 105 70 334l25 52c-31 9-62 19-94 29-560 628-2172 1836-3381 2709 1466-879 2461-1266 2698-890 22 35-41 128-173 268l22 36c-25 6-52 15-78 22-1416 1446-8862 7030-9921 7847-6260 4835-12576 9606-18794 14497-3153 3017-6691 6550-7825 8108 685-485 1324-1046 1975-1568 9356-7512 19122-14387 28827-21386 1269-1050 7039-5773 8491-6196l13-9 3 5c234-65 351-13 310 193 0 1-49 37-134 100l24 41c-105 57-213 117-321 178-1092 802-4177 3057-8034 5876-4567 3794-9344 8255-12427 11079-3670 3361-6524 6249-9927 9899-234 251-1979 2256-3216 3665 272-242 475-428 489-441 8118-7254 16407-13586 24810-20016 3794-3169 8857-7290 10563-8165l269-212 53 73c190-60 285-30 267 109 0 2-43 37-116 95l31 43c-284 198-567 397-847 597-1708 1332-5568 4328-9860 7662-503 419-1008 844-1516 1274-2789 2362-20104 16676-24422 21009 2184-1644 5005-4210 6762-5729 7869-6809 15119-12234 23585-18230 853-604 10924-8092 11138-7144 6 25-64 106-198 235 4 0 9-1 13-2-6 2-13 6-19 8-2031 1952-18603 14802-20075 15977-3071 2449-13324 12439-16472 16296 1076-825 3036-2545 3329-2802 247-216 597-510 1030-869 5698-5095 13100-11107 15146-12722 564-444 1132-891 1705-1339 7082-5959 18741-15472 18257-13200-30 141-465 580-1208 1246 638-374 1278-738 1919-1092 1313-834 2204-1306 2515-1289 941 52-1016 930-1535 1182-1289 769-3101 1987-5245 3498l-7 11 6 11-27 18c-1231 1742-9876 8650-14314 12165-2124 1878-4245 3775-6349 5676 7057-6012 17298-14349 20149-15054 315-78 329 41 108 314l35 56-145 72c-2148 2364-17053 13040-19471 15029-5008 4118-9868 8877-14829 13224-1903 2080-3348 3924-4103 5360 471-295 442-293 1615-1166 5416-4030 10854-8434 16193-12768 4451-4191 9086-8363 13354-12002 748-638 9061-7642 9331-6148 3 14-73 90-209 215l14 19c-14 2-28 5-41 7-1660 1517-11856 9904-21647 17780-2530 2410-5006 4806-7384 7081-1837 1757-9320 9601-12648 13477 4587-4384 9094-8682 13877-12908 4884-4316 8896-7572 13764-11154 5021-4223 9935-8127 12006-9161 3732-3060 7271-5719 7049-4599-68 343-2850 2488-6547 5222-1982 2144-9459 8103-16690 13970-4994 4462-10038 9079-14670 13607 48 23 86 64 103 118 34 104-23 216-128 250zm-923 7c-11-13-22-27-29-43-189 210-378 420-567 631 198-196 397-392 596-588zm5360-5982c3498-3112 7966-6765 11107-9289 2397-2134 4774-4228 7081-6255l248-218c-1599 1158-3146 2276-4533 3283-6023 5067-12098 10497-13680 12234l-223 245zm17482-14395c1972-1602 4675-3814 6711-5550-708 517-1430 1043-2158 1573-1721 1484-3090 2691-3585 3126l-968 851zm8992-7569c184-176 331-325 434-440-76 34-156 72-243 117-542 447-1090 903-1631 1359 482-344 963-690 1440-1036zm-2592 1506c-1313 956-2896 2183-4616 3563 757-529 1552-1079 2366-1646 695-597 1458-1248 2250-1917zm-26457 23286c-797 877-1601 1764-2403 2654-36 73-59 137-72 195 2875-2821 5915-5679 9008-8516-2613 2173-4910 4143-6533 5667zm15991-24322c1246-1118 2928-2620 4689-4172-6953 5572-14487 11527-16040 12975-607 566-8373 7870-11843 10414-1079 1103-1972 2070-2558 2796 528-402 1148-922 1257-1012 6953-5743 13221-11982 20300-17688 1101-887 2567-2035 4195-3313zm-23653 19132c2680-2718 6731-6511 10309-9797-1513 1211-2812 2266-3818 3102-3427 3052-6362 5857-7114 7115 169-99 378-241 623-420zm27863-24678c3245-2416 6602-4772 10017-6880 954-801 1699-1448 2164-1888-2972 1490-7565 4973-12181 8768zm-1075 2094c-4194 3166-8519 6506-12248 9435l-597 534c-2039 1821-6895 6236-10863 10094 3411-2945 7847-7068 8951-8098 1640-1530 8289-6804 14757-11965zm-27941 6013c1253-1219 2391-2304 3180-3042-3273 2702-6528 5431-9769 8190-108 92-363 336-635 568 645-463 1356-1045 1560-1211 1883-1528 3770-3023 5664-4505zm19881-16461c-1172 916-2340 1834-3506 2756-4312 3477-8469 7114-10728 9028-433 366-1258 1110-2293 2070 1260-975 2526-1950 3796-2930 6863-5292 14438-10850 21121-16346-2116 885-5163 2963-8390 5422zm-27881 22679c-22 3-42 3-59-1-7 13-14 27-20 40 25-11 52-25 79-39zm733-1199c-60 111-116 221-169 330 11962-10178 23970-19856 36476-29352-6039 2134-11783 6551-16712 10539-3258 2637-16043 13922-19595 18483zm27102-5276c5272-4085 11118-8530 15893-12009 315-256 621-505 918-748-4847 3210-9800 6989-14098 10383-946 822-1857 1619-2713 2374zm10404-6615c2340-1890 4589-3770 6258-5327-235 198-468 396-702 592-1839 1546-3694 3127-5556 4735zm-22710 20664c2670-2415 5322-4867 7831-7098 6903-6138 14633-10749 21470-16653-547 280-836 469-2141 1317-5026 3266-18301 13793-27160 22434zm14602-8477c5602-4535 11290-9389 16921-13828-1633 701-3752 2460-4750 3244-4021 3157-8134 6822-12171 10584zm16712-9066c1782-1322 3465-2646 4867-3906-1140 695-2990 2125-4980 3749 51 17 90 46 111 93 7 17 5 40 2 64z"/>
     <path class="fil1" d="m6217 84060c-6525 2102 30874-26495 31729-28274 1169-2432-21196 15809-26680 21593-1395 1471-22107 24769-8861 10136 3759-4154 39133-36728 41611-36472-2964 3182-19643 14175-24989 18652-8662 7256-14748 12915-22828 20741-2801 2712 10163-11681 12946-14313 3529-3337 26473-25763 30089-25763-72 246-39205 32107-40758 32561 844-5026 32424-31861 38936-34382-6079 5650-14924 10731-22594 17643-5914 5330-29381 26318-6493 5068 2311-2145 28607-25831 29543-25899-1689 2408-19826 16215-23909 19979-7626 7032-27725 24901-7514 5029 4536-4460 29855-27164 34799-28443 136 861-25001 20152-27552 22542-22838 21400-14888 10842 1308-2465 7578-6227 20892-16790 29640-20949-1789-207-34912 25412-37837 28007-15843 14056 7332-9142 10116-11463 1654-1378 21495-16983 21573-17077 1097-1321-23030 15502-30726 22243-21514 18843-8498 5959 1867-2375 8007-6438 15673-13799 24136-19582-12292 9736-23751 17604-35632 28384-7549 6851 8005-9431 8783-10129 4829-4331 19245-18018 24436-20454-13248 9851-25230 17770-38573 28593-5878 4768 8916-10065 9999-10950 3895-3181 21763-18973 25750-19315-249 425-31229 24107-33368 25925-16297 13852 19210-24364 34266-28072-13549 10240-25081 19533-38033 30590 178-1897 5736-7392 7079-8633"/>
      <path class="fil0" d="m-8675 64622s-512 484-901 745l-22 30c3-7 5-13 7-20-289 192-505 253-379-113 280-817 6775-7155 10164-10329-2841 2407-5971 5334-8414 7473-953 834-12646 11332-13091 10776-450-563 6404-6901 12779-12585-2981 2477-5865 4861-8097 6681-2250 2123-4508 4236-6782 6326-1003 921-698 657-1464 1288-94 57-216 27-272-67-57-94-27-216 67-273 704-588 436-355 1400-1240 1089-1001 2174-2007 3256-3017-113 83-205 149-280 198l-10 13-4-3c-91 60-151 92-171 91-1322-67 4670-5864 10411-11128-2955 2364-5936 4692-8978 6933-51 38-2267 1876-1460 201 1883-3911 35681-30705 39954-32419 1185-475-522 1318-647 1436-850 809-1726 1603-2619 2389 2282-1552 4176-2659 5180-2863 244-50 356 188 169 356-350 317-5526 3601-6489 4278-2967 2085-5865 4265-8726 6497-1231 1045-2447 2104-3629 3189-5071 4655-10052 9417-15045 14158 7538-6260 14874-12753 22693-18658 7202-5665 16049-12077 21802-14239 452-170 774-271 987-316l26-19 6 12c369-73 376 43 141 280l28 57c-46 16-94 34-141 50-479 431-1532 1148-2684 1889 803 196-2002 1875-2356 2132-965 699-1933 1398-2904 2096 1763-933 3341-1602 4599-1871l62-42c713-489 6077-4474 7311-5390 57-48 110-93 153-132-15 16-20 24-26 38l126-94 235 242c-60 118-58 102-161 187-2061 1704-4136 3396-6221 5079 7 1 15 1 22 2 1006 126-3640 3225-5890 4697-8231 6546-16554 13010-24701 19595-1487 1202-8667 8166-11005 10424-159 164-318 328-477 493l-38 46c-29 37-26 33-43 57 7-14 12-25 16-37-2685 2767-5417 5532-8289 8261-409 389-717 660-940 834-9 19-22 39-31 57l-23-16c-1964 1483 3462-5535 3515-5598 3166-3810 11584-12689 20542-21219-2415 1975-9436 8547-12277 11786 16 10 31 22 45 36 75 80 71 205-9 280zm19293-18164c3371-2562 7182-5315 10669-7492 2197-1619 4976-3762 7212-5283-1504 934-2805 1703-2815 1709-2174 1274-4131 2427-5985 3558-2790 2121-5883 4693-9081 7508zm10490-4173c-4316 2976-8108 5681-12385 9238-3284 2731-7121 5904-10765 9216-317 322-634 644-950 966 1463-1369 3027-2740 4837-4151 6420-5003 12857-10123 19263-15269zm3404-2739c1640-1321 3277-2643 4910-3964l-13 4c-5767 3960-11835 7674-17373 12166-3176 2575-6137 5239-8981 7957 2946-2516 5841-4883 8330-6925 4043-3315 8693-6226 13127-9238zm-17254 9509c3114-2878 6214-5624 9108-8020-2439 1572-4814 3215-7417 5184-3280 2615-6237 5088-8503 7e3 -2382 2012-17348 15146-20783 19057 3666-2717 8566-7287 11856-10167 3334-2919 7929-7287 11351-9831 1452-1079 2916-2153 4388-3223zm11712-10121c1583-1242 3077-2344 4446-3264-2298 1466-4677 3122-7030 4846 860-540 1721-1065 2584-1582zm7375-5049c1112-592 2083-987 2876-1141 28-6 54-10 81-15 721-466 1439-942 2152-1433-1579 657-3301 1542-5109 2589zm-4338 5048c-4998 3581-10025 7155-14979 10775l-248 200c-11362 10405-23037 22779-26563 28271 2945-2820 5782-5712 8594-8620 2276-2804 5280-5816 8508-8784 3310-3356 6697-6652 10288-9798 6938-6077 13067-9989 20389-14964-1824 640-3865 1668-5989 2920zm-26598 15226c1787-1587 3099-2730 3462-3037 1886-1594 7551-6265 12769-10153 3013-2540 5894-5011 6992-6142-5647 3165-37132 27883-39163 31866 5424-3981 10679-8258 15940-12534zm4967-3485c-2408 1944-4804 3904-7207 5853-5324 4769-10022 9368-12812 12659 874-684 1743-1374 2607-2070 5802-5476 11550-11024 17412-16442zm22638-14125c1465-860 2925-1722 4372-2614-1254 601-2731 1493-4372 2614z"/>
     <path class="fil1" d="m-8811 64478c-4456 4194 7779-8431 9980-10247 4481-3698 23538-19446 29751-19107-1155 1221-15536 10560-19407 13812-7938 6667-14524 11755-21501 19582-5471 6136 6390-6739 11177-10208 1764-1278 43683-34856 34629-27701-8570 6773-15625 9965-25775 18535-12626 10659-19726 19865-30694 30134 2865-7005 43329-46887 50699-46412-49 128-26016 18724-27636 20006-2452 1938-38744 34414-16252 12803 8817-8471 35874-31887 46698-35125-5862 4366-13633 7803-20929 13168-11641 8559-21759 18227-32808 26680 4620-6886 34423-32423 41897-35066-13705 8357-28595 22245-41838 31820-1222-3531 67188-54349 27851-22178-5434 4443-31036 29164-32009 29750"/>
    </g>
  </g>
 </g>
</svg>
