<?xml version="1.0" encoding="UTF-8" standalone="no"?>
<svg
   xmlns:dc="http://purl.org/dc/elements/1.1/"
   xmlns:cc="http://creativecommons.org/ns#"
   xmlns:rdf="http://www.w3.org/1999/02/22-rdf-syntax-ns#"
   xmlns:svg="http://www.w3.org/2000/svg"
   xmlns="http://www.w3.org/2000/svg"
   id="svg2"
   xml:space="preserve"
   enable-background="new 0 0 1920 1080"
   viewBox="0 0 194.10001 65.090137"
   height="65.090134"
   width="194.10001"
   y="0px"
   x="0px"
   version="1.1"><metadata
   id="metadata582"><rdf:RDF><cc:Work
       rdf:about=""><dc:format>image/svg+xml</dc:format><dc:type
         rdf:resource="http://purl.org/dc/dcmitype/StillImage" /><dc:title></dc:title></cc:Work></rdf:RDF></metadata><defs
   id="defs580">
	
	
	
	
	
	
	
	
	
	
	
	
	
	
	
	
	
	
	
	
	
	
	
	
	
	
	
	
	
	
	
	
	
	
	
	
	
</defs>
<g
   transform="translate(-1489.2,-525)"
   id="Capa_2">
</g>
<g
   transform="translate(-1489.2,-525)"
   id="g195">
		<path
   d="m 1658.1,553.5 c 0,4.8 3.9,8.6 8.6,8.6 4.8,0 8.6,-3.9 8.6,-8.6 0,-4.8 -3.9,-8.6 -8.6,-8.6 -4.7,-0.1 -8.6,3.8 -8.6,8.6 z m 11.2,0 c 0,1.4 -1.1,2.5 -2.5,2.5 -1.4,0 -2.5,-1.1 -2.5,-2.5 0,-1.4 1.1,-2.5 2.5,-2.5 1.4,0 2.5,1.1 2.5,2.5 z"
   id="path197"
   style="fill:#4e5b68" />
		<path
   d="m 1578.6,587 2.4,-2.2 c 2,-1.9 4.6,-3 7.4,-3 l 4.2,0 c 1.2,0 2.2,-0.6 2.7,-1.6 l 17,0 30.7,0 c 2.2,1.6 4.3,3 6.3,4.1 7.3,4.1 12.4,4.7 15.3,1.9 0.8,-0.8 1.8,-2.3 1.8,-4.8 0,-2.9 -1.5,-6.9 -4.2,-11.4 l 18,0 c 1.7,0 3.1,-1.4 3.1,-3.1 l 0,-27 c 0,-1.7 -1.4,-3.1 -3.1,-3.1 l -30.6,0 0,-4.1 3.7,0 c 1.7,0 3.1,-1.4 3.1,-3.1 0,-1.7 -1.4,-3.1 -3.1,-3.1 l -6.7,0 -51.3,0 c -0.5,-0.9 -1.5,-1.5 -2.7,-1.5 l -88.4,0 c -3.8,0 -7.5,1.1 -10.6,3.2 -2.7,1.8 -4.3,4.9 -4.3,8.1 0,3.3 1.6,6.3 4.3,8.1 3.1,2.1 6.8,3.2 10.6,3.2 l 88.4,0 c 1.1,0 2.1,-0.6 2.6,-1.5 l 2,0 2.5,6.6 -2.6,7.5 -2,0 c -0.5,-0.9 -1.5,-1.5 -2.6,-1.5 l -88.4,0 c -3.8,0 -7.5,1.1 -10.6,3.2 -2.7,1.8 -4.3,4.9 -4.3,8.1 0,3.3 1.6,6.3 4.3,8.1 3.1,2.1 6.8,3.2 10.6,3.2 l 48.8,0 c 2.8,0 5.4,1.1 7.4,3 l 2.4,2.2 c 4.5,4.7 11.5,4.7 15.9,0.5 z m 75.5,-18.3 c 0,0 0,0 0,0 4.1,5.7 6.2,10.4 6.2,12.8 0,0.2 0,0.3 0,0.4 -0.7,0.2 -3.5,-0.2 -8.9,-3.4 -5.3,-3.2 -11.4,-8.1 -17.1,-13.9 C 1623.1,553.4 1617,543 1617,539 c 0,-0.2 0,-0.3 0,-0.4 0.7,-0.2 3.5,0.2 8.9,3.4 5.3,3.2 11.4,8.1 17.1,13.9 4.6,4.5 8.3,8.9 11.1,12.8 z m -10.6,-35.9 0,7.2 c 0,1.7 1.4,3.1 3.1,3.1 l 30.6,0 0,20.8 -19,0 c -1,-1.3 -2,-2.6 -3.1,-3.9 0.1,-0.3 0.2,-0.6 0.2,-0.9 l 0,-11.2 c 0,-1.7 -1.4,-3.1 -3.1,-3.1 -1.7,0 -3.1,1.4 -3.1,3.1 l 0,5.4 c -0.6,-0.6 -1.2,-1.2 -1.8,-1.8 -6.6,-6.6 -13.5,-12 -19.4,-15.4 -2.9,-1.6 -5.4,-2.7 -7.6,-3.2 l 23.2,0 0,-0.1 z m -139.3,9 c -2.6,0 -5.1,-0.8 -7.2,-2.2 -1,-0.7 -1.6,-1.8 -1.6,-3.1 0,-1.3 0.6,-2.4 1.6,-3.1 2.1,-1.4 4.6,-2.2 7.2,-2.2 l 85.4,0 0,10.5 -85.4,0 0,0.1 z m 99,20.1 1,2.5 c 0.6,1.6 2.4,2.4 4,1.8 1.6,-0.6 2.4,-2.4 1.8,-4 l -7.6,-20 c 0,0 0,0 0,0 -0.1,-0.1 -0.1,-0.3 -0.2,-0.4 0,0 0,0 0,-0.1 -0.1,-0.1 -0.1,-0.2 -0.2,-0.3 0,0 0,0 0,-0.1 -0.1,-0.1 -0.2,-0.2 -0.3,-0.3 0,0 0,0 -0.1,-0.1 -0.1,-0.1 -0.2,-0.2 -0.3,-0.2 0,0 0,0 0,0 -0.1,-0.1 -0.2,-0.1 -0.4,-0.2 0,0 0,0 -0.1,0 -0.2,-0.1 -0.5,-0.2 -0.8,-0.2 0,0 -0.1,0 -0.1,0 -0.1,0 -0.3,0 -0.4,0 l -3.7,0 0,-7.5 19.2,0 c -0.8,0.3 -1.6,0.8 -2.2,1.4 -0.8,0.8 -1.8,2.3 -1.8,4.8 0,6.6 7.5,18.4 19.1,30 1.8,1.8 3.7,3.6 5.5,5.2 l -21.1,0 -0.8,-2.2 c -0.6,-1.6 -2.4,-2.4 -4,-1.8 -1.2,0.5 -2,1.6 -2,2.9 0,0.4 0.1,0.7 0.2,1.1 l 0,0 -12.2,0 0,-7.5 3.7,0 c 1.3,0 2.5,-0.8 2.9,-2.1 l 0.9,-2.7 z m -36.2,20.7 -2.4,-2.2 c -3.2,-3 -7.3,-4.6 -11.6,-4.6 l -48.8,0 c -2.6,0 -5.1,-0.8 -7.2,-2.2 -1,-0.7 -1.6,-1.8 -1.6,-3.1 0,-1.3 0.6,-2.4 1.6,-3.1 2.1,-1.4 4.6,-2.2 7.2,-2.2 l 85.4,0 0,10.5 -1.2,0 c -4.3,0 -8.5,1.6 -11.6,4.6 l -2.4,2.2 c -2.1,2 -5.3,2 -7.4,0.1 z"
   id="path199"
   style="fill:#4e5b68" />
	</g>
</svg>