<?xml version="1.0" encoding="UTF-8" standalone="no"?>
<svg
   xmlns:dc="http://purl.org/dc/elements/1.1/"
   xmlns:cc="http://creativecommons.org/ns#"
   xmlns:rdf="http://www.w3.org/1999/02/22-rdf-syntax-ns#"
   xmlns:svg="http://www.w3.org/2000/svg"
   xmlns="http://www.w3.org/2000/svg"
   version="1.1"
   x="0px"
   y="0px"
   width="183.19995"
   height="75.355911"
   viewBox="0 0 183.19995 75.355912"
   enable-background="new 0 0 1920 1080"
   xml:space="preserve"
   id="svg2"><metadata
   id="metadata582"><rdf:RDF><cc:Work
       rdf:about=""><dc:format>image/svg+xml</dc:format><dc:type
         rdf:resource="http://purl.org/dc/dcmitype/StillImage" /><dc:title></dc:title></cc:Work></rdf:RDF></metadata><defs
   id="defs580">
	
	
	
	
	
	
	
	
	
	
	
	
	
	
	
	
	
	
	
	
	
	
	
	
	
	
	
	
	
	
	
	
	
	
	
	
	
</defs>
<g
   id="Capa_2"
   transform="translate(-874.40002,-466.95909)">
</g>
<g
   id="g307"
   transform="translate(-874.40002,-466.95909)">
		<line
   style="fill:none;stroke:#000000;stroke-width:2;stroke-miterlimit:10"
   id="line309"
   y2="478.79999"
   x2="1057.6"
   y1="478.79999"
   x1="874.40002"
   stroke-miterlimit="10" />
		<g
   id="g311">
			<path
   style="fill:#89cebf"
   id="path313"
   d="m 911.8,520 c 0,0 -6.5,-3.1 -7.9,-12.3 -0.7,-4.8 2.2,-11.6 -1.7,-15.3 l 9.6,1.4 0,26.2 z" />
			<path
   style="fill:#89cebf"
   id="path315"
   d="m 930.1,515.8 c 0,0 4.7,-1.6 6.4,-7.8 0.9,-3.2 -0.6,-8.1 2.3,-10.3 l -6.7,0.2 -2,17.9 z" />
			<path
   style="fill:#89cebf"
   id="path317"
   d="m 920.2,488.1 c 0,0 -11.8,-2.3 -11.8,-10.7 0,-8.4 -7.2,-8.4 -7.2,-8.4 0,0 12,-6.5 19,3.7 0,0 10.7,-7.2 18.4,-1.4 0,0 -5.6,3.2 -6.7,5.4 -4,7.6 -7.6,10 -11.7,11.4 z" />
			<path
   style="fill:#3f9c8f"
   id="path319"
   d="m 921.8,537.9 c 0,0 -12.5,-8.4 -12.5,-29.6 0,-21.2 10.9,-27.4 10.9,-27.4 0,0 14.4,5.8 13.9,28.3 -0.4,17.5 -11.9,28.7 -11.9,28.7" />
			<path
   style="fill:#464c53"
   id="path321"
   d="m 909.3,508.3 c 0,6.1 1.1,11.2 2.6,15.3 1,-1.6 2.3,-3 4,-4 1.9,-1.1 3.5,-1.4 5.7,-1.5 2.3,-0.1 3.6,0.6 5.6,1.5 0.9,0.5 1.6,1.1 2.3,1.8 0.7,0.7 1.3,1.4 1.7,2.3 1.6,-4.1 2.8,-8.9 2.9,-14.4 0.5,-22.5 -13.9,-28.3 -13.9,-28.3 0,0 -10.9,6.1 -10.9,27.3 z" />
			<path
   style="fill:#89cebf"
   id="path323"
   d="m 921.8,533.4 c 0,0 -5.3,5 -3.5,7.7 1.8,2.7 4.3,-0.5 4.3,-0.5 0,0 1.9,3.5 4.3,0.5 2.9,-3.9 -5.1,-7.7 -5.1,-7.7 z" />
			<g
   id="g325">
				<circle
   style="fill:#ffffff"
   id="circle327"
   r="4.0999999"
   cy="523.5"
   cx="920.09998" />
				<circle
   style="fill:#464c53"
   id="circle329"
   r="1.9"
   cy="523.5"
   cx="920.09998" />
			</g>
			<path
   style="fill:#89cebf"
   id="path331"
   d="m 924.8,512.8 c 0,0 3.4,-5.9 3.4,-9.7 0,-3.8 0.8,-5.9 0.8,-5.9 l -3.4,3.3 -0.8,12.3 z" />
		</g>
		<g
   id="g333">
			<path
   style="fill:#89cebf"
   id="path335"
   d="m 957.8,520 c 0,0 -6.5,-3.1 -7.9,-12.3 -0.7,-4.8 2.2,-11.6 -1.7,-15.3 l 9.6,1.4 0,26.2 z" />
			<path
   style="fill:#89cebf"
   id="path337"
   d="m 976.1,515.8 c 0,0 4.7,-1.6 6.4,-7.8 0.9,-3.2 -0.6,-8.1 2.3,-10.3 l -6.7,0.2 -2,17.9 z" />
			<path
   style="fill:#89cebf"
   id="path339"
   d="m 966.2,488.1 c 0,0 -11.8,-2.3 -11.8,-10.7 0,-8.4 -7.2,-8.4 -7.2,-8.4 0,0 12,-6.5 19,3.7 0,0 10.7,-7.2 18.4,-1.4 0,0 -5.6,3.2 -6.7,5.4 -4,7.6 -7.6,10 -11.7,11.4 z" />
			<path
   style="fill:#3f9c8f"
   id="path341"
   d="m 967.8,537.9 c 0,0 -12.5,-8.4 -12.5,-29.6 0,-21.2 10.9,-27.4 10.9,-27.4 0,0 14.4,5.8 13.9,28.3 -0.4,17.5 -11.9,28.7 -11.9,28.7" />
			<path
   style="fill:#464c53"
   id="path343"
   d="m 955.3,508.3 c 0,6.1 1.1,11.2 2.6,15.3 1,-1.6 2.3,-3 4,-4 1.9,-1.1 3.5,-1.4 5.7,-1.5 2.3,-0.1 3.6,0.6 5.6,1.5 0.9,0.5 1.6,1.1 2.3,1.8 0.7,0.7 1.3,1.4 1.7,2.3 1.6,-4.1 2.8,-8.9 2.9,-14.4 0.5,-22.5 -13.9,-28.3 -13.9,-28.3 0,0 -10.9,6.1 -10.9,27.3 z" />
			<path
   style="fill:#89cebf"
   id="path345"
   d="m 967.8,533.4 c 0,0 -5.3,5 -3.5,7.7 1.8,2.7 4.3,-0.5 4.3,-0.5 0,0 1.9,3.5 4.3,0.5 2.9,-3.9 -5.1,-7.7 -5.1,-7.7 z" />
			<g
   id="g347">
				<circle
   style="fill:#ffffff"
   id="circle349"
   r="4.0999999"
   cy="523.5"
   cx="966.09998" />
				<circle
   style="fill:#464c53"
   id="circle351"
   r="1.9"
   cy="523.5"
   cx="966.09998" />
			</g>
			<path
   style="fill:#89cebf"
   id="path353"
   d="m 970.8,512.8 c 0,0 3.4,-5.9 3.4,-9.7 0,-3.8 0.8,-5.9 0.8,-5.9 l -3.4,3.3 -0.8,12.3 z" />
		</g>
		<g
   id="g355">
			<path
   style="fill:#89cebf"
   id="path357"
   d="m 1003.8,520 c 0,0 -6.5,-3.1 -7.9,-12.3 -0.7,-4.8 2.2,-11.6 -1.7,-15.3 l 9.6,1.4 0,26.2 z" />
			<path
   style="fill:#89cebf"
   id="path359"
   d="m 1022.1,515.8 c 0,0 4.7,-1.6 6.4,-7.8 0.9,-3.2 -0.6,-8.1 2.3,-10.3 l -6.7,0.2 -2,17.9 z" />
			<path
   style="fill:#89cebf"
   id="path361"
   d="m 1012.2,488.1 c 0,0 -11.8,-2.3 -11.8,-10.7 0,-8.4 -7.2,-8.4 -7.2,-8.4 0,0 12,-6.5 19,3.7 0,0 10.7,-7.2 18.4,-1.4 0,0 -5.6,3.2 -6.7,5.4 -4,7.6 -7.6,10 -11.7,11.4 z" />
			<path
   style="fill:#3f9c8f"
   id="path363"
   d="m 1013.8,537.9 c 0,0 -12.5,-8.4 -12.5,-29.6 0,-21.2 10.9,-27.4 10.9,-27.4 0,0 14.4,5.8 13.9,28.3 -0.4,17.5 -11.9,28.7 -11.9,28.7" />
			<path
   style="fill:#464c53"
   id="path365"
   d="m 1001.3,508.3 c 0,6.1 1.1,11.2 2.6,15.3 1,-1.6 2.3,-3 4,-4 1.9,-1.1 3.5,-1.4 5.7,-1.5 2.3,-0.1 3.6,0.6 5.6,1.5 0.9,0.5 1.6,1.1 2.3,1.8 0.7,0.7 1.3,1.4 1.7,2.3 1.6,-4.1 2.8,-8.9 2.9,-14.4 0.5,-22.5 -13.9,-28.3 -13.9,-28.3 0,0 -10.9,6.1 -10.9,27.3 z" />
			<path
   style="fill:#89cebf"
   id="path367"
   d="m 1013.8,533.4 c 0,0 -5.3,5 -3.5,7.7 1.8,2.7 4.3,-0.5 4.3,-0.5 0,0 1.9,3.5 4.3,0.5 2.9,-3.9 -5.1,-7.7 -5.1,-7.7 z" />
			<g
   id="g369">
				<circle
   style="fill:#ffffff"
   id="circle371"
   r="4.0999999"
   cy="523.5"
   cx="1012.1" />
				<circle
   style="fill:#464c53"
   id="circle373"
   r="1.9"
   cy="523.5"
   cx="1012.1" />
			</g>
			<path
   style="fill:#89cebf"
   id="path375"
   d="m 1016.8,512.8 c 0,0 3.4,-5.9 3.4,-9.7 0,-3.8 0.8,-5.9 0.8,-5.9 l -3.4,3.3 -0.8,12.3 z" />
		</g>
	</g>
</svg>