<?xml version="1.0" encoding="UTF-8" standalone="no"?>
<svg
   xmlns:dc="http://purl.org/dc/elements/1.1/"
   xmlns:cc="http://creativecommons.org/ns#"
   xmlns:rdf="http://www.w3.org/1999/02/22-rdf-syntax-ns#"
   xmlns:svg="http://www.w3.org/2000/svg"
   xmlns="http://www.w3.org/2000/svg"
   id="svg2"
   xml:space="preserve"
   enable-background="new 0 0 1920 1080"
   viewBox="0 0 616.40002 380.10001"
   height="380.10001"
   width="616.40002"
   y="0px"
   x="0px"
   version="1.1"><metadata
   id="metadata807"><rdf:RDF><cc:Work
       rdf:about=""><dc:format>image/svg+xml</dc:format><dc:type
         rdf:resource="http://purl.org/dc/dcmitype/StillImage" /><dc:title></dc:title></cc:Work></rdf:RDF></metadata><defs
   id="defs805">
	
	
	
	
	
	
	
	
	
	
	
	
	
</defs>
<g
   transform="translate(-912.29999,-349.89999)"
   id="Capa_2">
</g>
<rect
   x="0"
   y="0"
   width="616.40002"
   height="380.10001"
   id="rect6"
   style="fill:#f8bbc8" /><rect
   x="18.600037"
   y="67.200012"
   width="579.29999"
   height="163.7"
   id="rect8"
   style="fill:#ffffff" /><g
   transform="translate(-912.29999,-349.89999)"
   id="g10">
		<path
   d="m 1121.4,396 -0.1,-0.5 0.5,-2.1 0.2,-0.4 0.1,-0.4 0.1,-0.4 0.6,-2.7 0.4,-1.3 0.1,-0.4 0.4,-1.9 0.1,-0.4 0.3,-0.8 0.1,-0.4 0.6,-2.2 0,-0.4 0.2,-0.5 0.1,-0.9 0.3,-0.9 0.1,-0.3 0.1,-0.5 0.1,-0.4 0.3,-0.9 0.3,-0.4 0.5,-0.3 0.5,-0.1 0.4,0.1 0.5,0.2 0.3,0.4 0.2,0.5 0.1,0.5 0.4,1.3 0.1,0.9 0.5,1.6 0.3,1.4 0.2,0.4 0.1,0.5 0.5,1.7 0.1,0.5 0.4,1.8 0.1,0.5 0.1,0.4 0,0.5 0.4,1.3 0.1,0.8 0.2,0.5 0,0.3 0.5,1.7 0.3,1.4 -0.1,0.4 -0.4,0.2 -0.5,0 -0.5,-0.3 -0.4,-0.4 -0.1,-0.9 -0.1,-0.4 -0.2,-0.4 -0.2,-1 -0.1,-0.4 -0.1,-0.5 -0.2,-0.8 -0.3,-0.5 -0.5,-0.2 -1.3,0 -0.7,-0.1 -0.6,0 -0.4,0.1 -1,0 -0.5,0.2 -0.3,0.5 -0.9,4.1 -0.2,0.4 -0.3,0.4 -0.4,0.3 -0.6,0 -0.8,-0.4 z m 6.3,-7.2 0.9,0 0.4,-0.1 0.1,-0.4 -0.2,-0.9 -0.1,-0.5 -0.1,-0.4 -0.1,-0.3 -0.2,-0.4 -0.1,-0.5 -0.1,-0.4 -0.2,-0.4 -0.1,-0.9 -0.2,-0.8 -0.1,-0.6 -0.3,-1.2 -0.1,-0.9 -0.3,-0.9 -0.1,-0.1 -0.2,0.9 -0.3,1.9 -0.1,0.3 -0.3,1.4 0,0.4 -0.1,0.5 -0.1,0.4 -0.3,0.8 0,0.5 -0.1,0.4 -0.3,0.8 0,0.5 -0.1,0.4 0.1,0.5 0.4,0.2 0.5,0 0.4,0 0.9,0.1 0.5,-0.3 z"
   id="path12" />
		<path
   d="m 1135.6,396.3 -0.4,-0.1 -0.3,-0.5 0.1,-2.6 -0.1,-0.4 0,-0.5 0,-0.5 0.1,-0.4 -0.1,-0.5 0.1,-0.4 -0.1,-0.5 0,-0.5 0.1,-0.6 0,-1.7 0,-0.7 0,-0.4 0.1,-1.2 0,-0.6 -0.1,-0.4 0.1,-0.5 -0.1,-0.5 0,-0.4 0,-0.4 0,-1.7 -0.1,-0.5 0,-0.5 0,-0.4 0.1,-0.5 0,-0.8 0.3,-0.5 0.4,-0.3 0.5,0.1 0.4,0 0.5,-0.1 0.9,0 0.5,0.1 0.7,-0.1 0.6,0.1 0.5,0 0.4,0.1 0.4,0.1 0.4,0.2 0.5,0.3 0.4,0.2 0.3,0.3 0.6,0.7 0.3,0.4 0.2,0.4 0.4,0.8 0.1,0.5 0.2,2.1 0,0.7 -0.1,0.5 0,0.5 -0.1,0.4 -0.4,1.2 -0.2,0.4 -0.5,0.7 -0.3,0.3 -0.4,0.3 -0.4,0.4 -0.8,0.4 -1.3,0.4 -2.7,0.2 -0.4,0.2 -0.2,0.4 0.1,0.4 0,3.1 -0.1,0.4 0,1.9 -0.2,0.6 -0.4,0.3 -0.5,-0.4 z m 3.2,-8.9 0.9,-0.2 0.4,-0.2 0.4,-0.1 0.4,-0.2 0.7,-0.7 0.2,-0.4 0.3,-0.3 0.3,-1 0,-0.5 0.1,-0.4 0,-1.3 -0.1,-0.8 -0.1,-0.4 -0.2,-0.6 -0.3,-0.7 -0.3,-0.4 -0.6,-0.5 -0.4,-0.1 -0.5,-0.2 -1.1,-0.1 -0.6,0.1 -0.4,0 -0.4,-0.1 -0.4,0.3 -0.2,0.5 0,0.4 -0.1,2.1 0,0.6 0,0.5 0,0.4 0,0.4 0.1,0.9 -0.1,0.5 0.1,0.7 -0.1,1 0.2,0.5 0.5,0.3 0.7,0.1 0.6,-0.1 z"
   id="path14" />
		<path
   d="m 1149.5,396.3 -0.5,0 -0.5,0 -0.5,0 -0.4,-0.2 -0.2,-0.4 -0.1,-0.5 0,-5.1 0,-0.3 -0.1,-0.5 0.1,-1.8 -0.1,-2.2 0.1,-1 -0.1,-0.5 0.1,-0.4 -0.1,-0.7 0,-2.8 0.1,-0.4 -0.1,-1.4 0,-0.4 0,-0.5 0.2,-0.4 0.4,-0.2 0.5,0.1 0.4,0.2 0.3,0.4 0,0.3 0,0.5 0.1,0.4 0,0.9 -0.1,0.4 0.1,0.5 0,0.6 0.1,0.7 0,0.3 0,1.2 -0.1,0.7 0.1,1.8 -0.1,0.4 0.1,2.2 -0.1,0.8 0.1,1 -0.1,1.1 0.1,0.6 -0.1,1.6 0,0.7 0.3,0.4 0.4,0.3 0.9,-0.1 0.4,0.1 3.1,0 0.5,0.2 0.3,0.4 0,0.4 -0.3,0.3 -0.5,0.2 -2.2,0.1 -0.9,-0.1 -0.5,0 -0.4,0.1 -0.7,0 z"
   id="path16" />
		<path
   d="m 1158.5,396.3 -0.5,-0.1 -0.3,-0.4 -0.1,-0.8 0,-0.5 0.1,-0.4 0,-0.4 0.1,-0.5 -0.1,-0.4 0,-0.7 -0.1,-0.6 0.1,-0.5 -0.1,-3.1 0.1,-0.4 -0.1,-0.9 0.1,-0.4 0,-0.5 0,-2 0,-0.7 0.1,-0.4 0,-2.2 -0.1,-0.5 0,-0.4 0.1,-0.5 0,-0.4 -0.1,-0.4 0,-0.5 -0.1,-0.4 0.2,-0.5 0.4,-0.3 0.4,0.1 0.5,0.2 0.3,0.4 0,0.4 0.1,1.3 0,0.5 0.1,0.5 0,1 -0.1,0.9 0.1,2.8 -0.1,0.5 0.1,4.5 -0.1,0.9 0,0.4 0.1,0.5 -0.1,0.6 0,0.6 0,0.5 0.1,1.7 0,0.5 0.1,0.4 -0.2,0.5 -0.5,0.2 -0.5,-0.1 z"
   id="path18" />
		<path
   d="m 1166.2,396.3 -0.8,-0.4 -0.6,-0.5 -0.3,-0.4 -0.2,-0.3 -0.3,-0.3 -0.2,-0.4 -0.3,-0.8 -0.1,-0.5 -0.1,-0.4 -0.1,-0.3 -0.3,-1.5 0.1,-0.5 -0.1,-1.3 0.1,-0.6 -0.1,-0.4 0,-0.4 -0.1,-0.7 0.1,-0.7 -0.1,-0.4 0.1,-0.7 0,-0.6 0.2,-1.4 0,-0.4 0.1,-0.4 0.1,-0.5 0.1,-0.5 0.2,-0.4 0.1,-0.5 0.2,-0.5 0.1,-0.3 0.2,-0.5 0.5,-0.8 0.3,-0.3 0.7,-0.7 0.4,-0.2 0.4,-0.1 0.4,-0.2 0.5,0 0.4,-0.1 1.3,0 1,0.2 0.8,0.3 0.5,0.1 0.4,0.3 0.3,0.5 -0.1,0.5 -0.3,0.4 -0.5,0.1 -0.4,-0.1 -0.4,-0.3 -0.4,-0.1 -0.4,-0.2 -0.4,-0.1 -0.7,-0.1 -0.7,0.1 -0.4,0 -0.3,0.2 -0.3,0.2 -0.3,0.3 -0.3,0.3 -0.1,0.5 -0.4,0.8 -0.1,0.4 -0.4,2.3 -0.1,4.2 0.1,0.4 0,0.4 0.1,0.4 0,0.5 -0.1,0.5 0.1,0.4 0.1,1.3 0.1,0.9 0.2,0.4 0.1,0.5 0.1,0.3 0.2,0.5 0.2,0.3 0.3,0.3 0.4,0.3 0.4,0.2 0.4,0.1 0.7,0 0.6,-0.1 0.7,-0.1 0.6,-0.1 0.8,-0.3 0.4,-0.3 0.5,0 0.4,0.3 0,0.6 -0.3,0.6 -1.9,0.8 -1,0.2 -0.7,-0.1 -0.7,0.1 -1.7,-0.2 z"
   id="path20" />
		<path
   d="m 1173.4,396 -0.1,-0.5 0.5,-2.1 0.2,-0.4 0.1,-0.4 0.1,-0.4 0.6,-2.7 0.4,-1.3 0.1,-0.4 0.4,-1.9 0.1,-0.4 0.3,-0.8 0.1,-0.4 0.6,-2.2 0,-0.4 0.2,-0.5 0.1,-0.9 0.3,-0.9 0.1,-0.3 0.1,-0.5 0.1,-0.4 0.3,-0.9 0.3,-0.4 0.5,-0.3 0.5,-0.1 0.4,0.1 0.5,0.2 0.3,0.4 0.2,0.5 0.1,0.5 0.4,1.3 0.1,0.9 0.5,1.6 0.3,1.4 0.2,0.4 0.1,0.5 0.5,1.7 0.1,0.5 0.4,1.8 0.1,0.5 0.1,0.4 0,0.5 0.4,1.3 0.1,0.8 0.2,0.5 0,0.3 0.5,1.7 0.3,1.4 -0.1,0.4 -0.4,0.2 -0.5,0 -0.5,-0.3 -0.4,-0.4 -0.1,-0.9 -0.1,-0.4 -0.2,-0.4 -0.2,-1 -0.1,-0.4 -0.1,-0.5 -0.2,-0.8 -0.3,-0.5 -0.5,-0.2 -1.3,0 -0.7,-0.1 -0.6,0 -0.4,0.1 -1,0 -0.5,0.2 -0.3,0.5 -0.9,4.1 -0.2,0.4 -0.3,0.4 -0.4,0.3 -0.6,0 -0.8,-0.4 z m 6.3,-7.2 0.9,0 0.4,-0.1 0.1,-0.4 -0.2,-0.9 -0.1,-0.5 -0.1,-0.4 -0.1,-0.3 -0.2,-0.4 -0.1,-0.5 -0.1,-0.4 -0.2,-0.4 -0.1,-0.9 -0.2,-0.8 -0.1,-0.6 -0.3,-1.2 -0.1,-0.9 -0.3,-0.9 -0.1,-0.1 -0.2,0.9 -0.3,1.9 -0.1,0.3 -0.3,1.4 0,0.4 -0.1,0.5 -0.1,0.4 -0.3,0.8 0,0.5 -0.1,0.4 -0.3,0.8 0,0.5 -0.1,0.4 0.1,0.5 0.4,0.2 0.5,0 0.4,0 0.9,0.1 0.5,-0.3 z"
   id="path22" />
		<path
   d="m 1189.7,396.3 -0.8,-0.4 -0.6,-0.5 -0.3,-0.4 -0.2,-0.3 -0.3,-0.3 -0.2,-0.4 -0.3,-0.8 -0.1,-0.5 -0.1,-0.4 -0.1,-0.3 -0.3,-1.5 0.1,-0.5 -0.1,-1.3 0.1,-0.6 -0.1,-0.4 0,-0.4 -0.1,-0.7 0.1,-0.7 -0.1,-0.4 0.1,-0.7 0,-0.6 0.2,-1.4 0,-0.4 0.1,-0.4 0.1,-0.5 0.1,-0.5 0.2,-0.4 0.1,-0.5 0.2,-0.5 0.1,-0.3 0.2,-0.5 0.5,-0.8 0.3,-0.3 0.7,-0.7 0.4,-0.2 0.4,-0.1 0.4,-0.2 0.5,0 0.4,-0.1 1.3,0 1,0.2 0.8,0.3 0.5,0.1 0.4,0.3 0.3,0.5 -0.1,0.5 -0.3,0.4 -0.5,0.1 -0.4,-0.1 -0.4,-0.3 -0.4,-0.1 -0.4,-0.2 -0.4,-0.1 -0.7,-0.1 -0.7,0.1 -0.4,0 -0.3,0.2 -0.3,0.2 -0.3,0.3 -0.3,0.3 -0.1,0.5 -0.4,0.8 -0.1,0.4 -0.4,2.3 -0.1,4.2 0.1,0.4 0,0.4 0.1,0.4 0,0.5 -0.1,0.5 0.1,0.4 0.1,1.3 0.1,0.9 0.2,0.4 0.1,0.5 0.1,0.3 0.2,0.5 0.2,0.3 0.3,0.3 0.4,0.3 0.4,0.2 0.4,0.1 0.7,0 0.6,-0.1 0.7,-0.1 0.6,-0.1 0.8,-0.3 0.4,-0.3 0.5,0 0.4,0.3 0,0.6 -0.3,0.6 -1.9,0.8 -1,0.2 -0.7,-0.1 -0.7,0.1 -1.7,-0.2 z"
   id="path24" />
		<path
   d="m 1199.4,396.3 -0.5,-0.1 -0.3,-0.4 -0.1,-0.8 0,-0.5 0.1,-0.4 0,-0.4 0.1,-0.5 -0.1,-0.4 0,-0.7 -0.1,-0.6 0.1,-0.5 -0.1,-3.1 0.1,-0.4 -0.1,-0.9 0.1,-0.4 0,-0.5 0,-2 0,-0.7 0.1,-0.4 0,-2.2 -0.1,-0.5 0,-0.4 0.1,-0.5 0,-0.4 -0.1,-0.4 0,-0.5 -0.1,-0.4 0.2,-0.5 0.4,-0.3 0.4,0.1 0.5,0.2 0.3,0.4 0,0.4 0.1,1.3 0,0.5 0.1,0.5 0,1 -0.1,0.9 0.1,2.8 -0.1,0.5 0.1,4.5 -0.1,0.9 0,0.4 0.1,0.5 -0.1,0.6 0,0.6 0,0.5 0.1,1.7 0,0.5 0.1,0.4 -0.2,0.5 -0.5,0.2 -0.5,-0.1 z"
   id="path26" />
		<path
   d="m 1207.7,396.6 -0.4,-0.1 -0.4,-0.1 -0.3,-0.2 -0.7,-0.5 -0.6,-0.6 -0.3,-0.4 -0.2,-0.3 -0.3,-0.8 -0.2,-0.4 -0.3,-0.9 -0.4,-3.3 0.1,-0.5 -0.1,-0.5 0,-0.4 0.1,-0.4 0,-2.8 0.1,-0.4 0,-0.5 0,-0.5 0,-0.4 0.1,-0.5 0.2,-1.4 0.4,-1.3 0.2,-0.3 0.1,-0.5 0.3,-0.3 0.2,-0.5 0.3,-0.4 0.4,-0.2 0.3,-0.3 0.4,-0.3 0.4,-0.2 0.4,-0.2 0.4,-0.1 0.4,-0.1 0.7,-0.1 0.6,0.1 0.5,0.1 0.4,0.1 0.4,0.1 0.4,0.2 0.7,0.4 0.3,0.3 0.6,0.7 0.4,0.8 0.3,0.8 0.2,0.4 0.1,0.5 0.4,3.3 0,0.5 -0.1,0.4 0.1,2.7 -0.1,0.9 0,0.9 -0.1,0.4 -0.1,1.4 -0.1,0.8 -0.2,0.9 -0.5,1.3 -0.5,0.7 -0.3,0.4 -0.3,0.3 -0.7,0.5 -0.3,0.2 -0.4,0 -0.4,0.1 -0.5,0.1 -0.7,0 -0.6,0 -0.8,0.4 z m 2.1,-1.7 0.4,-0.1 0.3,-0.3 0.3,-0.3 0.5,-0.6 0.3,-0.8 0.2,-0.4 0.1,-0.5 0.1,-0.6 0.1,-0.9 0.1,-1.3 0,-0.5 0.1,-0.4 0,-2.4 0.1,-0.4 -0.1,-0.9 0,-0.5 -0.1,-1.7 -0.2,-0.9 0,-0.5 -0.2,-0.4 -0.1,-0.4 -0.1,-0.5 -0.2,-0.4 -0.3,-0.4 -0.6,-0.6 -0.4,-0.1 -0.5,-0.1 -0.6,0 -0.6,-0.1 -0.4,0.1 -0.4,0.1 -0.3,0.2 -0.6,0.6 -0.4,0.7 -0.4,1.4 -0.2,1.3 -0.1,1 0,0.4 -0.1,1.3 0.1,1.2 -0.1,0.7 0,0.4 0.1,0.4 0,1.8 0.1,0.3 0,0.9 0.3,1.5 0.3,0.8 0.2,0.4 0.6,0.6 0.4,0.2 0.3,0.3 0.4,0.1 1.3,0 0.3,0.3 z m -1.9,-19.9 0,-0.4 0.4,-0.7 0.2,-0.4 0.2,-0.4 0.5,-0.3 0.5,-0.3 0.5,0 0.2,0.3 0,0.3 -0.3,0.4 -0.3,0.4 -0.2,0.3 -0.3,0.4 -0.5,0.5 -0.6,0.1 -0.3,-0.2 z"
   id="path28" />
		<path
   d="m 1224.7,396.1 -0.4,-0.4 -0.2,-0.4 -0.6,-1.7 -0.1,-0.5 -0.2,-0.4 -0.1,-0.4 -0.5,-1.3 -0.1,-0.3 -0.6,-1.7 -0.2,-1 -0.2,-0.4 -0.1,-0.5 -0.2,-0.3 -0.3,-0.9 -0.2,-0.4 -0.1,-0.4 -0.2,-0.4 -1.1,-3.5 -0.1,-0.4 -0.4,-1.3 -0.2,-0.4 -0.1,0 0,0.4 0,0.5 0.1,0.5 0,0.5 0.1,0.4 0,0.4 0.1,0.5 0,0.7 0.1,2.5 -0.1,0.4 0.1,1.8 0,0.5 0.1,0.5 0,0.4 -0.1,0.4 0,1 0.1,0.7 -0.1,0.6 0.1,0.5 0,0.4 0,0.4 0.1,0.5 -0.1,0.5 0.1,1.8 -0.3,0.4 -0.7,0.2 -0.6,-0.2 -0.2,-0.4 0,-2.2 0.1,-0.4 -0.1,-0.5 0,-1.8 -0.1,-1.1 0,-0.4 0,-0.7 0.1,-0.5 -0.1,-1.1 0,-1.2 0,-0.5 0,-0.4 0,-0.5 0.1,-0.4 -0.1,-0.4 0.1,-0.9 0,-0.5 -0.1,-0.4 0,-1.4 0,-0.5 0.1,-2.1 0,-0.5 0.2,-0.5 0.6,-0.2 0.7,0 0.5,-0.1 0.5,0.3 0.4,0.5 0.2,0.4 0.1,0.4 0.1,0.5 0.4,0.8 1.5,4.8 0.1,0.4 0.1,0.4 0.2,0.4 0.4,1.2 0.2,0.9 0.9,2.7 0.1,0.7 0.1,0.4 0.2,0.5 0.1,0.5 0.1,0.4 0.3,1 0.2,0.4 0.1,0 0,-1.4 -0.1,-0.8 0.1,-0.5 0,-0.5 -0.1,-0.6 0.1,-0.6 -0.1,-0.6 0.1,-1.1 -0.1,-0.4 0,-5.8 -0.1,-0.7 0.1,-0.6 -0.1,-0.4 0.1,-0.4 0,-0.5 0,-0.4 -0.1,-1.3 0.2,-0.4 0.4,-0.1 0.5,0 0.4,0.1 0.3,0.4 0.1,0.4 0.1,0.8 -0.1,0.5 0.1,0.5 -0.1,0.4 0.1,2.3 -0.1,0.3 0.1,1 0,0.4 -0.1,0.4 0.1,2.3 -0.1,0.4 0.1,0.5 0,1.9 0,0.4 -0.1,0.4 0.1,0.4 0,0.4 -0.1,0.5 0.1,1.8 -0.1,0.4 0,0.5 0.1,0.5 -0.1,0.4 0,0.4 -0.2,0.6 -0.4,0.2 -0.4,0 -0.5,0 -0.4,0.1 -0.7,-0.7 z"
   id="path30" />
		<path
   d="m 1235.1,396.1 -0.2,-0.5 0,-0.4 0.1,-0.4 -0.1,-0.5 0.1,-0.4 0,-1 -0.1,-0.4 0,-1.4 0.1,-0.5 -0.1,-0.3 0,-0.5 0,-0.5 0.1,-0.4 -0.1,-0.6 0,-0.7 -0.1,-0.4 0.1,-0.7 0,-0.7 0,-0.6 0,-0.8 0,-0.4 0,-0.4 0.1,-0.5 -0.1,-0.6 0.1,-0.4 -0.1,-0.5 0.1,-2.2 -0.1,-0.9 0.1,-1.3 0.2,-0.4 0.4,-0.3 1.9,0 0.5,-0.1 0.6,0.1 1.2,0 0.4,0.1 0.4,0 0.8,0.3 0.8,0.4 1,1 0.2,0.3 0.2,0.4 0.2,0.3 0.4,1.3 0.1,0.5 0.1,0.4 0.1,0.4 0,0.5 0,0.5 0.1,0.5 0,0.4 0.1,0.5 0,2.8 -0.1,0.5 0,0.9 -0.1,1.4 -0.1,0.4 -0.1,0.5 -0.1,0.8 -0.1,0.5 -0.1,0.5 -0.5,1.3 -0.3,0.3 -0.3,0.4 -0.3,0.3 -0.3,0.3 -0.3,0.2 -0.4,0.3 -0.4,0.2 -0.6,0.2 -0.7,0.1 -0.4,0 -0.4,0 -1.8,0.1 -0.4,-0.1 -1,0.1 -0.8,-0.2 z m 4.2,-1.4 0.4,-0.1 0.8,-0.4 0.4,-0.1 0.3,-0.3 0.3,-0.4 0.3,-0.3 0.3,-0.8 0.3,-0.8 0.2,-1 0,-1 0.1,-0.4 0.1,-3.3 -0.2,-2.7 -0.1,-0.5 0,-0.4 -0.1,-0.4 -0.1,-0.4 -0.2,-0.9 -0.4,-0.7 -0.3,-0.4 -0.4,-0.2 -0.3,-0.3 -0.4,-0.3 -0.4,-0.1 -0.5,-0.1 -0.4,-0.2 -1.3,0 -0.4,0.1 -0.5,0.3 -0.2,0.4 0,0.4 -0.1,0.6 0,0.4 0.1,0.4 -0.1,0.5 0,0.9 0,0.3 0,3 -0.1,0.5 0,0.6 0,0.4 0,2.2 -0.1,0.4 0.1,0.5 -0.1,1.4 0.1,0.4 0,0.4 -0.1,0.4 0,1.2 0.3,0.6 0.4,0.2 1,0 0.7,0.1 0.6,-0.1 z"
   id="path32" />
		<path
   d="m 1254.6,396.3 -0.9,0 -0.4,0 -0.5,0.1 -0.4,-0.1 -0.9,0.1 -0.5,-0.1 -0.4,0.1 -0.4,-0.1 -0.9,0.1 -0.9,0 -0.4,-0.2 -0.3,-0.4 0.1,-3.2 -0.1,-1.4 0,-0.5 0.1,-0.4 -0.1,-0.5 0.1,-0.4 0,-0.4 -0.1,-0.5 0,-0.5 0,-0.8 0,-0.5 0,-0.5 0.1,-0.5 -0.1,-0.5 0.1,-1.3 0,-0.6 0,-0.4 0,-0.9 0,-0.5 -0.1,-0.6 0.1,-1.1 -0.1,-0.4 0,-0.4 0,-0.3 0,-0.5 0,-0.5 -0.1,-0.4 0.2,-0.5 0.4,-0.2 0.5,0.1 0.4,-0.1 0.4,0.1 1.3,-0.1 2.3,0.1 1.3,0 0.4,0 0.4,0.2 0.3,0.3 0,0.4 -0.3,0.4 -0.7,0.3 -0.6,-0.1 -0.4,-0.1 -0.5,0 -0.4,0.1 -0.5,-0.1 -1,0 -0.9,0.1 -0.5,0.3 -0.3,0.6 0,1.6 0.1,0.9 -0.1,0.4 0.1,1.3 -0.1,0.5 0.1,0.4 0,0.5 0.2,0.6 0.5,0.2 0.4,0 0.4,-0.1 0.7,0 0.8,0 0.7,0.1 0.8,0 0.5,-0.1 0.5,0.2 0.2,0.5 -0.2,0.6 -0.4,0.3 -0.8,0.1 -0.4,-0.1 -1,0 -0.4,-0.1 -0.5,0.1 -0.9,0 -0.5,-0.1 -0.4,0.3 -0.2,0.4 0.1,0.4 0,0.5 0.1,0.5 0,0.5 -0.1,0.4 0.1,0.5 -0.1,2.9 0,0.5 0.2,0.6 0.5,0.2 0.9,0 0.5,0.1 0.5,-0.1 1,0 0.5,0.1 0.4,-0.1 0.5,0 0.4,0 0.5,0.2 0.3,0.4 0,0.4 -0.2,0.4 -0.5,0.2 -0.5,0.1 z"
   id="path34" />
		<path
   d="m 1265.7,396.3 -0.8,-0.4 -0.6,-0.5 -0.3,-0.4 -0.2,-0.3 -0.3,-0.3 -0.2,-0.4 -0.3,-0.8 -0.1,-0.5 -0.1,-0.4 -0.1,-0.3 -0.3,-1.5 0.1,-0.5 -0.1,-1.3 0.1,-0.6 -0.1,-0.4 0,-0.4 -0.1,-0.7 0.1,-0.7 -0.1,-0.4 0.1,-0.7 0,-0.6 0.2,-1.4 0,-0.4 0.1,-0.4 0.1,-0.5 0.1,-0.5 0.2,-0.4 0.1,-0.5 0.2,-0.5 0.1,-0.3 0.2,-0.5 0.5,-0.8 0.3,-0.3 0.7,-0.7 0.4,-0.2 0.4,-0.1 0.4,-0.2 0.5,0 0.4,-0.1 1.3,0 1,0.2 0.8,0.3 0.5,0.1 0.4,0.3 0.3,0.5 -0.1,0.5 -0.3,0.4 -0.5,0.1 -0.4,-0.1 -0.4,-0.3 -0.4,-0.1 -0.4,-0.2 -0.4,-0.1 -0.7,-0.1 -0.7,0.1 -0.4,0 -0.3,0.2 -0.3,0.2 -0.3,0.3 -0.3,0.3 -0.1,0.5 -0.4,0.8 -0.1,0.4 -0.4,2.3 -0.1,4.2 0.1,0.4 0,0.4 0.1,0.4 0,0.5 -0.1,0.5 0.1,0.4 0.1,1.3 0.1,0.9 0.2,0.4 0.1,0.5 0.1,0.3 0.2,0.5 0.2,0.3 0.3,0.3 0.4,0.3 0.4,0.2 0.4,0.1 0.7,0 0.6,-0.1 0.7,-0.1 0.6,-0.1 0.8,-0.3 0.4,-0.3 0.5,0 0.4,0.3 0,0.6 -0.3,0.6 -1.9,0.8 -1,0.2 -0.7,-0.1 -0.7,0.1 -1.7,-0.2 z"
   id="path36" />
		<path
   d="m 1272.9,396 -0.1,-0.5 0.5,-2.1 0.2,-0.4 0.1,-0.4 0.1,-0.4 0.6,-2.7 0.4,-1.3 0.1,-0.4 0.4,-1.9 0.1,-0.4 0.3,-0.8 0.1,-0.4 0.6,-2.2 0,-0.4 0.2,-0.5 0.1,-0.9 0.3,-0.9 0.1,-0.3 0.1,-0.5 0.1,-0.4 0.3,-0.9 0.3,-0.4 0.5,-0.3 0.5,-0.1 0.4,0.1 0.5,0.2 0.3,0.4 0.2,0.5 0.1,0.5 0.4,1.3 0.1,0.9 0.5,1.6 0.3,1.4 0.2,0.4 0.1,0.5 0.5,1.7 0.1,0.5 0.4,1.8 0.1,0.5 0.1,0.4 0,0.5 0.4,1.3 0.1,0.8 0.2,0.5 0,0.3 0.5,1.7 0.3,1.4 -0.1,0.4 -0.4,0.2 -0.5,0 -0.5,-0.3 -0.4,-0.4 -0.1,-0.9 -0.1,-0.4 -0.2,-0.4 -0.2,-1 -0.1,-0.4 -0.1,-0.5 -0.2,-0.8 -0.3,-0.5 -0.5,-0.2 -1.3,0 -0.7,-0.1 -0.6,0 -0.4,0.1 -1,0 -0.5,0.2 -0.3,0.5 -0.9,4.1 -0.2,0.4 -0.3,0.4 -0.4,0.3 -0.6,0 -0.8,-0.4 z m 6.3,-7.2 0.9,0 0.4,-0.1 0.1,-0.4 -0.2,-0.9 -0.1,-0.5 -0.1,-0.4 -0.1,-0.3 -0.2,-0.4 -0.1,-0.5 -0.1,-0.4 -0.2,-0.4 -0.1,-0.9 -0.2,-0.8 -0.1,-0.6 -0.3,-1.2 -0.1,-0.9 -0.3,-0.9 -0.1,-0.1 -0.2,0.9 -0.3,1.9 -0.1,0.3 -0.3,1.4 0,0.4 -0.1,0.5 -0.1,0.4 -0.3,0.8 0,0.5 -0.1,0.4 -0.3,0.8 0,0.5 -0.1,0.4 0.1,0.5 0.4,0.2 0.5,0 0.4,0 0.9,0.1 0.5,-0.3 z"
   id="path38" />
		<path
   d="m 1288.7,396.3 -0.5,0 -0.5,0 -0.5,0 -0.4,-0.2 -0.2,-0.4 -0.1,-0.5 0,-5.1 0,-0.3 -0.1,-0.5 0.1,-1.8 -0.1,-2.2 0.1,-1 -0.1,-0.5 0.1,-0.4 -0.1,-0.7 0,-2.8 0.1,-0.4 -0.1,-1.4 0,-0.4 0,-0.5 0.2,-0.4 0.4,-0.2 0.5,0.1 0.4,0.2 0.3,0.4 0,0.3 0,0.5 0.1,0.4 0,0.9 -0.1,0.4 0.1,0.5 0,0.6 0.1,0.7 0,0.3 0,1.2 -0.1,0.7 0.1,1.8 -0.1,0.4 0.1,2.2 -0.1,0.8 0.1,1 -0.1,1.1 0.1,0.6 -0.1,1.6 0,0.7 0.3,0.4 0.4,0.3 0.9,-0.1 0.4,0.1 3.1,0 0.5,0.2 0.3,0.4 0,0.4 -0.3,0.3 -0.5,0.2 -2.2,0.1 -0.9,-0.1 -0.5,0 -0.4,0.1 -0.7,0 z"
   id="path40" />
		<path
   d="m 1300.2,396.6 -0.4,-0.1 -0.4,-0.1 -0.3,-0.2 -0.7,-0.5 -0.6,-0.6 -0.3,-0.4 -0.2,-0.3 -0.3,-0.8 -0.2,-0.4 -0.3,-0.9 -0.4,-3.3 0.1,-0.5 -0.1,-0.5 0,-0.4 0.1,-0.4 0,-2.8 0.1,-0.4 0,-0.5 0,-0.5 0,-0.4 0.1,-0.5 0.2,-1.4 0.4,-1.3 0.2,-0.3 0.1,-0.5 0.3,-0.3 0.2,-0.5 0.3,-0.4 0.4,-0.2 0.3,-0.3 0.4,-0.3 0.4,-0.2 0.4,-0.2 0.4,-0.1 0.4,-0.1 0.7,-0.1 0.6,0.1 0.5,0.1 0.4,0.1 0.4,0.1 0.4,0.2 0.7,0.4 0.3,0.3 0.6,0.7 0.4,0.8 0.3,0.8 0.2,0.4 0.1,0.5 0.4,3.3 0,0.5 -0.1,0.4 0.1,2.7 -0.1,0.9 0,0.9 -0.1,0.4 -0.1,1.4 -0.1,0.8 -0.2,0.9 -0.5,1.3 -0.5,0.7 -0.3,0.4 -0.3,0.3 -0.7,0.5 -0.3,0.2 -0.4,0 -0.4,0.1 -0.5,0.1 -0.7,0 -0.6,0 -0.8,0.4 z m 2.1,-1.7 0.4,-0.1 0.3,-0.3 0.3,-0.3 0.5,-0.6 0.3,-0.8 0.2,-0.4 0.1,-0.5 0.1,-0.6 0.1,-0.9 0.1,-1.3 0,-0.5 0.1,-0.4 0,-2.4 0.1,-0.4 -0.1,-0.9 0,-0.5 -0.1,-1.7 -0.2,-0.9 0,-0.5 -0.2,-0.4 -0.1,-0.4 -0.1,-0.5 -0.2,-0.4 -0.3,-0.4 -0.6,-0.6 -0.4,-0.1 -0.5,-0.1 -0.6,0 -0.6,-0.1 -0.4,0.1 -0.4,0.1 -0.3,0.2 -0.6,0.6 -0.4,0.7 -0.4,1.4 -0.2,1.3 -0.1,1 0,0.4 -0.1,1.3 0.1,1.2 -0.1,0.7 0,0.4 0.1,0.4 0,1.8 0.1,0.3 0,0.9 0.3,1.5 0.3,0.8 0.2,0.4 0.6,0.6 0.4,0.2 0.3,0.3 0.4,0.1 1.3,0 0.3,0.3 z"
   id="path42" />
		<path
   d="m 1317.7,396.3 -0.5,-0.3 -0.3,-0.5 -0.3,-0.7 -0.1,-0.4 -0.2,-0.4 -0.1,-0.4 -0.2,-0.4 -0.1,-0.4 -0.4,-0.8 -0.1,-0.4 -0.4,-0.8 -0.2,-0.4 -0.3,-0.9 -0.2,-0.4 -0.3,-0.4 -0.4,-0.4 -0.5,0 -1,-0.1 -0.4,0 -0.4,0.3 -0.1,0.5 0.1,0.4 0,0.4 0,0.5 0,5.1 -0.1,0.4 -0.3,0.4 -0.5,0.1 -0.4,-0.1 -0.3,-0.3 -0.1,-0.4 0,-0.4 0.1,-1 -0.1,-0.8 0,-0.8 0.1,-1.1 0,-0.5 0,-0.5 -0.1,-1.5 0.1,-0.5 0,-0.5 -0.1,-0.5 0.1,-0.8 0,-2.2 -0.1,-0.5 0,-0.9 0.1,-0.4 0,-0.6 -0.1,-0.4 0,-0.4 0.1,-0.5 0,-0.7 -0.1,-0.6 0.1,-0.4 0,-0.4 -0.1,-0.9 0.1,-0.5 0.5,-0.4 0.8,0 0.5,-0.1 0.5,0 0.5,0.1 0.4,-0.1 0.6,0.1 0.7,0 0.6,0.1 0.4,-0.1 0.5,0.2 0.4,0.1 0.5,0.2 0.8,0.4 0.3,0.3 0.3,0.4 0.3,0.3 0.1,0.3 0.3,0.4 0.3,0.9 0.1,0.9 0.1,0.6 -0.1,0.7 -0.1,0.5 -0.1,0.4 0,0.5 -0.1,0.5 -0.3,0.8 -0.2,0.4 -0.3,0.4 -0.2,0.4 -0.3,0.3 -0.4,0.3 -0.4,0.3 -0.4,0.3 -0.2,0.4 0.1,0.5 0.6,1.7 0.2,0.4 0.1,0.4 0.1,0.4 0.2,0.4 0.1,0.4 0.2,0.5 0.5,1.1 0.2,0.6 0.4,0.8 0.2,0.4 0,0.4 -0.3,0.4 -0.4,0.1 -0.6,-0.2 z m -3.9,-9.7 0.4,-0.1 0.4,0 0.5,-0.1 0.4,-0.3 0.4,-0.2 0.3,-0.3 0.6,-1.1 0.2,-0.5 0,-0.5 0.1,-0.4 0,-0.7 -0.1,-1.8 -0.1,-0.4 -0.8,-1.1 -0.4,-0.3 -0.3,-0.2 -0.4,-0.1 -1.1,-0.2 -1.2,-0.1 -0.5,0.1 -0.4,0.1 -0.3,0.3 -0.2,0.5 0,0.4 0,0.9 -0.1,0.6 0,0.6 0.1,0.5 -0.1,1.1 0,0.6 0,0.5 0.1,0.4 0,0.5 0,0.4 0.1,0.4 0.3,0.4 0.6,0.1 1.5,0 z"
   id="path44" />
	</g><g
   transform="translate(-912.29999,-349.89999)"
   id="g46">
		<g
   id="g48">
			<g
   id="g50">
				<path
   d="m 962.3,449.6 -0.4,0 -3.6,-6.4 0,10.8 -3,0 0,-16.8 2.8,0 3.9,7.5 3.9,-7.5 2.8,0 0,16.8 -3,0 0,-10.8 -3.4,6.4 z"
   id="path52" />
				<path
   d="m 974.1,448.9 c 0.1,2 0.8,2.9 2.3,2.9 1.5,0 2.9,-0.5 2.9,-0.5 l 0.8,2.2 c -0.9,0.4 -2.1,0.8 -3.7,0.8 -3.7,0 -5.2,-2.3 -5.2,-6.2 0,-3.9 1.4,-6.2 4.9,-6.2 3.6,0 4.7,2.2 4.7,7.1 l -6.7,0 z m 0,-2.1 3.8,0 c 0,-1.4 -0.4,-2.7 -1.9,-2.7 -1.3,0 -1.8,1 -1.9,2.7 z m 2,-10.2 2.9,0 -1.8,3.8 -2,0 0.9,-3.8 z"
   id="path54" />
				<path
   d="m 986.1,442 2.6,0 0,2.4 -2.6,0 0,5.4 c 0,1 0.3,1.9 1.4,1.9 0.6,0 1.4,-0.3 1.4,-0.3 l 0.7,2.2 c 0,0 -1.1,0.5 -2.2,0.5 -3.1,0 -4.2,-2.2 -4.2,-4.1 l 0,-5.7 -1.4,0 0,-2.3 1.4,0 0,-3.1 2.9,0 0,3.1 z"
   id="path56" />
				<path
   d="m 990.7,448.1 c 0,-3.9 1.4,-6.2 5.1,-6.2 3.7,0 5.1,2.3 5.1,6.2 0,3.9 -1.4,6.2 -5.1,6.2 -3.7,0 -5.1,-2.3 -5.1,-6.2 z m 7.3,0 c 0,-2.5 -0.4,-3.8 -2.2,-3.8 -1.8,0 -2.2,1.3 -2.2,3.8 0,2.5 0.4,3.8 2.2,3.8 1.8,-0.1 2.2,-1.3 2.2,-3.8 z"
   id="path58" />
				<path
   d="m 1009.8,437.2 2.9,0 0,16.8 -2.3,0 -0.4,-1 c -0.7,0.7 -1.6,1.2 -2.8,1.2 -3,0 -4.6,-2.5 -4.6,-6.2 0,-3.6 1.6,-6.2 4.6,-6.2 1,0 1.8,0.4 2.6,1.1 l 0,-5.7 z m -1.9,14.8 c 0.7,0 1.4,-0.5 1.8,-1 l 0,-5.9 c -0.4,-0.5 -1.1,-1 -1.8,-1 -1.6,0 -2.5,1.4 -2.5,3.9 0,2.6 0.9,4 2.5,4 z"
   id="path60" />
				<path
   d="m 1014.7,448.1 c 0,-3.9 1.4,-6.2 5.1,-6.2 3.7,0 5.1,2.3 5.1,6.2 0,3.9 -1.4,6.2 -5.1,6.2 -3.7,0 -5.1,-2.3 -5.1,-6.2 z m 7.3,0 c 0,-2.5 -0.4,-3.8 -2.2,-3.8 -1.8,0 -2.2,1.3 -2.2,3.8 0,2.5 0.4,3.8 2.2,3.8 1.8,-0.1 2.2,-1.3 2.2,-3.8 z"
   id="path62" />
				<path
   d="m 1038.1,437.2 2.9,0 0,16.8 -2.3,0 -0.4,-1 c -0.7,0.7 -1.6,1.2 -2.8,1.2 -3,0 -4.6,-2.5 -4.6,-6.2 0,-3.6 1.6,-6.2 4.6,-6.2 1,0 1.8,0.4 2.6,1.1 l 0,-5.7 z m -1.8,14.8 c 0.7,0 1.4,-0.5 1.8,-1 l 0,-5.9 c -0.4,-0.5 -1.1,-1 -1.8,-1 -1.6,0 -2.5,1.4 -2.5,3.9 -0.1,2.6 0.8,4 2.5,4 z"
   id="path64" />
				<path
   d="m 1045.9,448.9 c 0.1,2 0.8,2.9 2.3,2.9 1.5,0 2.9,-0.5 2.9,-0.5 l 0.8,2.2 c -0.9,0.4 -2.1,0.8 -3.7,0.8 -3.7,0 -5.2,-2.3 -5.2,-6.2 0,-3.9 1.4,-6.2 4.9,-6.2 3.6,0 4.7,2.2 4.7,7.1 l -6.7,0 z m 0,-2.1 3.8,0 c 0,-1.4 -0.4,-2.7 -1.9,-2.7 -1.2,0 -1.7,1 -1.9,2.7 z"
   id="path66" />
				<path
   d="m 1066.4,453.6 c -0.7,0.4 -1.7,0.7 -2.7,0.7 -3.8,0 -5.1,-2.3 -5.1,-6.2 0,-3.9 1.4,-6.2 5.1,-6.2 1.2,0 2.4,0.5 2.8,0.8 l -1,2 c -0.4,-0.2 -1,-0.4 -1.8,-0.4 -1.8,0 -2.3,1.3 -2.3,3.8 0,2.5 0.3,3.8 2.3,3.8 1.1,0 1.8,-0.4 1.8,-0.4 l 0.9,2.1 z"
   id="path68" />
				<path
   d="m 1067.8,448.1 c 0,-3.9 1.4,-6.2 5.1,-6.2 3.7,0 5.1,2.3 5.1,6.2 0,3.9 -1.4,6.2 -5.1,6.2 -3.7,0 -5.1,-2.3 -5.1,-6.2 z m 7.3,0 c 0,-2.5 -0.4,-3.8 -2.2,-3.8 -1.8,0 -2.2,1.3 -2.2,3.8 0,2.5 0.4,3.8 2.2,3.8 1.8,-0.1 2.2,-1.3 2.2,-3.8 z"
   id="path70" />
				<path
   d="m 1087,446.1 c 0,-1.3 -0.2,-2.1 -1.5,-2.1 -1.2,0 -2.3,0.7 -2.5,1 l 0,9 -2.9,0 0,-12 2.1,0 0.6,1.1 c 0.8,-0.6 2.2,-1.3 3.6,-1.3 2.9,0 3.5,1.7 3.5,3.9 l 0,8.3 -2.9,0 0,-7.9 z"
   id="path72" />
				<path
   d="m 1095.4,454.2 c -2.3,0 -3.8,-1.2 -3.8,-1.3 l 1.2,-1.9 c 0,0 1.1,0.9 2.4,0.9 1.3,0 1.8,-0.7 1.8,-1.4 0,-0.5 -0.2,-0.8 -2,-1.7 -2.4,-1.2 -3,-2.3 -3,-3.6 0,-2.1 1.9,-3.4 4,-3.4 2.3,0 3.7,1 3.7,1 l -1.1,1.9 c 0,0 -1.2,-0.7 -2.4,-0.7 -0.9,0 -1.3,0.4 -1.3,1 0,0.6 0.5,0.9 1.7,1.6 2.8,1.4 3.3,2.3 3.3,3.8 -0.1,2.3 -2.2,3.8 -4.5,3.8 z"
   id="path74" />
				<path
   d="m 1104.4,448.9 c 0.1,2 0.8,2.9 2.3,2.9 1.5,0 2.9,-0.5 2.9,-0.5 l 0.8,2.2 c -0.9,0.4 -2.1,0.8 -3.7,0.8 -3.7,0 -5.2,-2.3 -5.2,-6.2 0,-3.9 1.4,-6.2 4.9,-6.2 3.6,0 4.7,2.2 4.7,7.1 l -6.7,0 z m 0,-2.1 3.8,0 c 0,-1.4 -0.4,-2.7 -1.9,-2.7 -1.2,0 -1.7,1 -1.9,2.7 z"
   id="path76" />
				<path
   d="m 1118.7,444.5 c -0.2,0 -0.5,-0.1 -0.8,-0.1 -1.3,0 -1.8,0.8 -1.8,0.8 l 0,8.9 -2.9,0 0,-12 2.1,0 0.6,1.1 c 0.2,-0.3 1.1,-1.3 2.8,-1.3 0.2,0 0.5,0 0.6,0.1 l -0.6,2.5 z"
   id="path78" />
				<path
   d="m 1125.4,451.1 2.7,-9.1 3,0 -3.9,12 -3.6,0 -3.9,-12 3,0 2.7,9.1 z"
   id="path80" />
				<path
   d="m 1137.6,446.5 0.9,0 0,-0.7 c 0,-0.8 -0.3,-1.7 -1.8,-1.7 -1.5,0 -3.2,0.5 -3.2,0.5 l -0.6,-2.1 c 0,0 1.7,-0.7 4,-0.7 2.5,0 4.5,1 4.5,3.8 l 0,8.4 -2.3,0 -0.4,-1.1 c -0.8,0.7 -1.8,1.2 -3.1,1.2 -2.5,0 -3.6,-1.9 -3.6,-3.8 -0.1,-1.7 1.3,-3.8 5.6,-3.8 z m 1,4.5 0,-2.4 -1.2,0 c -1.6,0 -2.5,0.8 -2.5,1.7 0,1.1 0.7,1.8 1.7,1.8 0.8,-0.1 1.5,-0.6 2,-1.1 z"
   id="path82" />
				<path
   d="m 1151.2,453.6 c -0.7,0.4 -1.7,0.7 -2.7,0.7 -3.8,0 -5.1,-2.3 -5.1,-6.2 0,-3.9 1.4,-6.2 5.1,-6.2 1.2,0 2.4,0.5 2.8,0.8 l -1,2 c -0.4,-0.2 -1,-0.4 -1.8,-0.4 -1.8,0 -2.3,1.3 -2.3,3.8 0,2.5 0.3,3.8 2.3,3.8 1.1,0 1.8,-0.4 1.8,-0.4 l 0.9,2.1 z"
   id="path84" />
				<path
   d="m 1154.7,437 c 0.9,0 1.7,0.7 1.7,1.7 0,0.9 -0.7,1.7 -1.7,1.7 -1,0 -1.7,-0.7 -1.7,-1.7 0,-0.9 0.7,-1.7 1.7,-1.7 z m -1.5,5 2.9,0 0,12 -2.9,0 0,-12 z"
   id="path86" />
				<path
   d="m 1158.4,448.1 c 0,-3.9 1.4,-6.2 5.1,-6.2 3.7,0 5.1,2.3 5.1,6.2 0,3.9 -1.4,6.2 -5.1,6.2 -3.7,0 -5.1,-2.3 -5.1,-6.2 z m 7.3,0 c 0,-2.5 -0.4,-3.8 -2.2,-3.8 -1.8,0 -2.2,1.3 -2.2,3.8 0,2.5 0.4,3.8 2.2,3.8 1.8,-0.1 2.2,-1.3 2.2,-3.8 z m -2.4,-11.5 2.9,0 -1.8,3.8 -2,0 0.9,-3.8 z"
   id="path88" />
				<path
   d="m 1177.6,446.1 c 0,-1.3 -0.2,-2.1 -1.5,-2.1 -1.2,0 -2.3,0.7 -2.5,1 l 0,9 -2.9,0 0,-12 2.1,0 0.6,1.1 c 0.8,-0.6 2.2,-1.3 3.6,-1.3 2.9,0 3.5,1.7 3.5,3.9 l 0,8.3 -2.9,0 0,-7.9 z"
   id="path90" />
				<path
   d="m 960.2,463.2 c 4.1,0 5.5,1.3 5.5,5.2 0,4 -1.6,5.2 -5.5,5.2 l -2.9,0 0,6.4 -1.7,0 0,-16.8 4.6,0 z m -3,1.5 0,7.4 2.6,0 c 3.2,0 4.2,-0.5 4.2,-3.7 0,-3 -0.8,-3.7 -4,-3.7 l -2.8,0 z"
   id="path92" />
				<path
   d="m 972.6,473 1.6,0 0,-1.7 c 0,-1.3 -0.6,-2.1 -2.1,-2.1 -1.7,0 -3.2,0.7 -3.2,0.7 l -0.4,-1.2 c 0,0 1.5,-0.8 3.6,-0.8 2.8,0 3.7,1.3 3.7,3.6 l 0,8.5 -1.2,0 -0.2,-0.9 c -0.8,0.5 -1.8,1.1 -3.3,1.1 -2.3,0 -3.5,-1.6 -3.5,-3.5 0,-1.9 1.3,-3.7 5,-3.7 z m 1.5,4.9 0,-3.6 -1.6,0 c -2.2,0 -3.4,1.1 -3.4,2.4 0,1.3 0.9,2.2 2.1,2.2 1.3,0 2.5,-0.6 2.9,-1 z"
   id="path94" />
				<path
   d="m 981.3,480.2 c -2,0 -3.4,-1.1 -3.4,-1.1 l 0.7,-1.2 c 0,0 1.2,0.9 2.6,0.9 1.7,0 2.3,-1.1 2.3,-2 0,-0.7 -0.7,-1.4 -2.3,-2.3 -2.2,-1.2 -3,-2.3 -3,-3.5 0,-2 1.7,-3.1 3.5,-3.1 1.9,0 3.2,0.9 3.2,0.9 l -0.6,1.2 c 0,0 -1.3,-0.7 -2.5,-0.7 -1.1,0 -1.9,0.6 -1.9,1.8 0,0.9 1.1,1.6 2.4,2.4 2,1.2 3,2.2 3,3.5 -0.2,1.7 -1.7,3.2 -4,3.2 z"
   id="path96" />
				<path
   d="m 989.5,468 2.8,0 0,1.4 -2.8,0 0,6.2 c 0,2.4 0.6,3.3 2.1,3.3 0.3,0 0.9,-0.1 1.1,-0.2 l 0.3,1.3 c -0.2,0 -0.9,0.2 -1.4,0.2 -2.4,0 -3.6,-1.4 -3.6,-4.3 l 0,-6.5 -1.4,0 0,-1.4 1.4,0 0,-3.1 1.6,0 0,3.1 z"
   id="path98" />
				<path
   d="m 996,474.4 c 0,2.7 0.7,4.4 3.2,4.4 1.8,0 2.9,-0.8 2.9,-0.8 l 0.6,1.2 c 0,0 -1.4,0.9 -3.5,0.9 -2.8,0 -4.8,-1.5 -4.8,-6.2 0,-4.7 2,-6.2 4.5,-6.2 3.4,0 4.3,2.4 4.3,6.5 l -7.2,0 z m 0,-1.2 5.6,0 c -0.1,-2.8 -0.9,-3.9 -2.7,-3.9 -2.1,-0.1 -2.8,1.5 -2.9,3.9 z"
   id="path100" />
				<path
   d="m 1007.3,476.4 c 0,1.9 0.8,2.5 2.3,2.5 1.6,0 3,-1.1 3.4,-1.4 l 0,-9.5 1.6,0 0,12 -1.2,0 -0.3,-1.2 c -0.9,0.7 -2.4,1.4 -3.8,1.4 -2.7,0 -3.5,-1.5 -3.5,-3.9 l 0,-8.3 1.6,0 0,8.4 z"
   id="path102" />
				<path
   d="m 1022.7,469.4 c -0.2,0 -0.5,-0.1 -0.8,-0.1 -1.6,0 -2.5,1.1 -2.7,1.4 l 0,9.4 -1.6,0 0,-12 1.2,0 0.3,1.2 c 0.7,-0.7 1.7,-1.4 3,-1.4 0.3,0 0.6,0 0.8,0.1 l -0.2,1.4 z"
   id="path104" />
				<path
   d="m 1025.7,463.5 c 0.6,0 1.2,0.6 1.2,1.2 0,0.7 -0.6,1.2 -1.2,1.2 -0.7,0 -1.2,-0.6 -1.2,-1.2 -0.1,-0.7 0.5,-1.2 1.2,-1.2 z m -0.9,4.5 1.6,0 0,12 -1.6,0 0,-12 z"
   id="path106" />
				<path
   d="m 1035.3,469.5 -5.8,0 0,-1.5 7.6,0 0,1.4 -6.1,9.2 5.9,0 0,1.4 -7.7,0 0,-1.4 6.1,-9.1 z"
   id="path108" />
				<path
   d="m 1043.9,473 1.6,0 0,-1.7 c 0,-1.3 -0.6,-2.1 -2.1,-2.1 -1.7,0 -3.2,0.7 -3.2,0.7 l -0.4,-1.2 c 0,0 1.5,-0.8 3.6,-0.8 2.8,0 3.7,1.3 3.7,3.6 l 0,8.5 -1.2,0 -0.2,-0.9 c -0.8,0.5 -1.8,1.1 -3.3,1.1 -2.3,0 -3.5,-1.6 -3.5,-3.5 0,-1.9 1.3,-3.7 5,-3.7 z m 1.5,4.9 0,-3.6 -1.6,0 c -2.2,0 -3.4,1.1 -3.4,2.4 0,1.3 0.9,2.2 2.1,2.2 1.4,0 2.5,-0.6 2.9,-1 z"
   id="path110" />
				<path
   d="m 1056.8,479.7 c -0.2,0.1 -1.2,0.6 -2.5,0.6 -2.8,0 -4.8,-1.5 -4.8,-6.2 0,-4.7 2,-6.2 4.8,-6.2 1,0 1.8,0.3 2.5,0.6 l -0.6,1.2 c -0.1,0 -0.9,-0.5 -1.9,-0.5 -2.6,0 -3.2,1.9 -3.2,4.8 0,2.9 0.6,4.8 3.2,4.8 1.2,0 2,-0.5 2,-0.5 l 0.5,1.4 z"
   id="path112" />
				<path
   d="m 1060.2,463.5 c 0.6,0 1.2,0.6 1.2,1.2 0,0.7 -0.6,1.2 -1.2,1.2 -0.7,0 -1.2,-0.6 -1.2,-1.2 0,-0.7 0.5,-1.2 1.2,-1.2 z m -0.8,4.5 1.6,0 0,12 -1.6,0 0,-12 z"
   id="path114" />
				<path
   d="m 1063.8,474 c 0,-4.7 2,-6.1 4.8,-6.1 2.8,0 4.8,1.4 4.8,6.1 0,4.7 -2,6.2 -4.8,6.2 -2.9,0 -4.8,-1.5 -4.8,-6.2 z m 7.9,0 c 0,-2.9 -0.6,-4.8 -3.2,-4.8 -2.6,0 -3.2,1.9 -3.2,4.8 0,2.9 0.6,4.8 3.2,4.8 2.6,0.1 3.2,-1.9 3.2,-4.8 z m -2.6,-11.4 2.1,0 -2.1,3.9 -1.1,0 1.1,-3.9 z"
   id="path116" />
				<path
   d="m 1083.1,471.7 c 0,-1.9 -0.8,-2.5 -2.3,-2.5 -1.6,0 -3,1.1 -3.4,1.4 l 0,9.4 -1.6,0 0,-12 1.2,0 0.3,1.2 c 1,-0.7 2.4,-1.4 3.8,-1.4 2.7,0 3.5,1.5 3.5,3.9 l 0,8.2 -1.6,0 0,-8.2 z"
   id="path118" />
				<path
   d="m 965,505.2 c 0,0 -1.5,1.1 -4,1.1 -4.2,0 -6.1,-2.5 -6.1,-8.6 0,-6.1 2,-8.6 6.1,-8.6 2.1,0 3.5,0.9 3.7,1 -0.7,1.3 -0.7,1.3 -0.7,1.3 -0.2,-0.1 -1.4,-0.9 -3,-0.9 -2.7,0 -4.5,1.5 -4.5,7.1 0,5.6 1.8,7.1 4.5,7.1 1.8,0 3.2,-0.9 3.2,-0.9 l 0.8,1.4 z"
   id="path120" />
				<path
   d="m 966.7,500 c 0,-4.7 2,-6.1 4.8,-6.1 2.8,0 4.8,1.4 4.8,6.1 0,4.7 -2,6.2 -4.8,6.2 -2.8,0 -4.8,-1.5 -4.8,-6.2 z m 7.9,0 c 0,-2.9 -0.6,-4.8 -3.2,-4.8 -2.6,0 -3.2,1.9 -3.2,4.8 0,2.9 0.6,4.8 3.2,4.8 2.6,0.1 3.2,-1.9 3.2,-4.8 z"
   id="path122" />
				<path
   d="m 985.6,505.7 c -0.2,0.1 -1.2,0.6 -2.5,0.6 -2.8,0 -4.8,-1.5 -4.8,-6.2 0,-4.7 2,-6.2 4.8,-6.2 1,0 1.8,0.3 2.5,0.6 l -0.6,1.2 c -0.1,0 -0.9,-0.5 -1.9,-0.5 -2.6,0 -3.2,1.9 -3.2,4.8 0,2.9 0.6,4.8 3.2,4.8 1.2,0 2,-0.5 2,-0.5 l 0.5,1.4 z"
   id="path124" />
				<path
   d="m 989,489.5 c 0.6,0 1.2,0.6 1.2,1.2 0,0.7 -0.6,1.2 -1.2,1.2 -0.7,0 -1.2,-0.6 -1.2,-1.2 0,-0.7 0.5,-1.2 1.2,-1.2 z m -0.8,4.5 1.6,0 0,12 -1.6,0 0,-12 z"
   id="path126" />
				<path
   d="m 1000.3,497.7 c 0,-1.9 -0.8,-2.5 -2.3,-2.5 -1.6,0 -3,1.1 -3.4,1.4 l 0,9.4 -1.6,0 0,-12 1.2,0 0.3,1.2 c 1,-0.7 2.4,-1.4 3.8,-1.4 2.7,0 3.5,1.5 3.5,3.9 l 0,8.2 -1.6,0 0,-8.2 z"
   id="path128" />
				<path
   d="m 1009.3,499 1.6,0 0,-1.7 c 0,-1.3 -0.6,-2.1 -2.1,-2.1 -1.7,0 -3.2,0.7 -3.2,0.7 l -0.4,-1.2 c 0,0 1.5,-0.8 3.6,-0.8 2.8,0 3.7,1.3 3.7,3.6 l 0,8.5 -1.2,0 -0.2,-0.9 c -0.8,0.5 -1.8,1.1 -3.3,1.1 -2.3,0 -3.5,-1.6 -3.5,-3.5 0,-1.9 1.4,-3.7 5,-3.7 z m 1.6,4.9 0,-3.6 -1.6,0 c -2.2,0 -3.4,1.1 -3.4,2.4 0,1.3 0.9,2.2 2.1,2.2 1.3,0 2.4,-0.6 2.9,-1 z"
   id="path130" />
				<path
   d="m 1022.4,489.2 1.6,0 0,16.8 -1.3,0 -0.2,-1 c -0.5,0.6 -1.5,1.2 -2.9,1.2 -2.6,0 -4.7,-1.5 -4.7,-6.2 0,-4.7 2.1,-6.2 4.6,-6.2 1.4,0 2.5,0.7 2.8,1.1 l 0,-5.7 z m -2.6,15.7 c 1.1,0 2.1,-0.6 2.6,-1.4 l 0,-6.8 c -0.3,-0.6 -1.2,-1.5 -2.6,-1.5 -2.5,0 -3.3,1.9 -3.3,4.8 0,2.9 0.8,4.9 3.3,4.9 z"
   id="path132" />
				<path
   d="m 1026.5,500 c 0,-4.7 2,-6.1 4.8,-6.1 2.8,0 4.8,1.4 4.8,6.1 0,4.7 -2,6.2 -4.8,6.2 -2.8,0 -4.8,-1.5 -4.8,-6.2 z m 8,0 c 0,-2.9 -0.6,-4.8 -3.2,-4.8 -2.6,0 -3.2,1.9 -3.2,4.8 0,2.9 0.6,4.8 3.2,4.8 2.6,0.1 3.2,-1.9 3.2,-4.8 z"
   id="path134" />
				<path
   d="m 1064.8,505.2 c 0,0 -1.5,1.1 -4,1.1 -4.2,0 -6.1,-2.5 -6.1,-8.6 0,-6.1 2,-8.6 6.1,-8.6 2.1,0 3.5,0.9 3.7,1 -0.7,1.3 -0.7,1.3 -0.7,1.3 -0.2,-0.1 -1.4,-0.9 -3,-0.9 -2.7,0 -4.5,1.5 -4.5,7.1 0,5.6 1.8,7.1 4.5,7.1 1.8,0 3.2,-0.9 3.2,-0.9 l 0.8,1.4 z"
   id="path136" />
				<path
   d="m 1066.5,500 c 0,-4.7 2,-6.1 4.8,-6.1 2.8,0 4.8,1.4 4.8,6.1 0,4.7 -2,6.2 -4.8,6.2 -2.8,0 -4.8,-1.5 -4.8,-6.2 z m 8,0 c 0,-2.9 -0.6,-4.8 -3.2,-4.8 -2.6,0 -3.2,1.9 -3.2,4.8 0,2.9 0.6,4.8 3.2,4.8 2.6,0.1 3.2,-1.9 3.2,-4.8 z"
   id="path138" />
				<path
   d="m 1085.4,505.7 c -0.2,0.1 -1.2,0.6 -2.5,0.6 -2.8,0 -4.8,-1.5 -4.8,-6.2 0,-4.7 2,-6.2 4.8,-6.2 1,0 1.8,0.3 2.5,0.6 l -0.6,1.2 c -0.1,0 -0.9,-0.5 -1.9,-0.5 -2.6,0 -3.2,1.9 -3.2,4.8 0,2.9 0.6,4.8 3.2,4.8 1.2,0 2,-0.5 2,-0.5 l 0.5,1.4 z"
   id="path140" />
				<path
   d="m 1094.6,505.7 c -0.2,0.1 -1.2,0.6 -2.5,0.6 -2.8,0 -4.8,-1.5 -4.8,-6.2 0,-4.7 2,-6.2 4.8,-6.2 1,0 1.8,0.3 2.5,0.6 l -0.6,1.2 c -0.1,0 -0.9,-0.5 -1.9,-0.5 -2.6,0 -3.2,1.9 -3.2,4.8 0,2.9 0.6,4.8 3.2,4.8 1.2,0 2,-0.5 2,-0.5 l 0.5,1.4 z"
   id="path142" />
				<path
   d="m 1098,489.5 c 0.6,0 1.2,0.6 1.2,1.2 0,0.7 -0.6,1.2 -1.2,1.2 -0.7,0 -1.2,-0.6 -1.2,-1.2 0,-0.7 0.5,-1.2 1.2,-1.2 z m -0.8,4.5 1.6,0 0,12 -1.6,0 0,-12 z"
   id="path144" />
				<path
   d="m 1101.6,500 c 0,-4.7 2,-6.1 4.8,-6.1 2.8,0 4.8,1.4 4.8,6.1 0,4.7 -2,6.2 -4.8,6.2 -2.9,0 -4.8,-1.5 -4.8,-6.2 z m 7.9,0 c 0,-2.9 -0.6,-4.8 -3.2,-4.8 -2.6,0 -3.2,1.9 -3.2,4.8 0,2.9 0.6,4.8 3.2,4.8 2.6,0.1 3.2,-1.9 3.2,-4.8 z m -2.6,-11.4 2.1,0 -2.1,3.9 -1.1,0 1.1,-3.9 z"
   id="path146" />
				<path
   d="m 1120.8,497.7 c 0,-1.9 -0.8,-2.5 -2.3,-2.5 -1.6,0 -3,1.1 -3.4,1.4 l 0,9.4 -1.6,0 0,-12 1.2,0 0.3,1.2 c 1,-0.7 2.4,-1.4 3.8,-1.4 2.7,0 3.5,1.5 3.5,3.9 l 0,8.2 -1.6,0 0,-8.2 z"
   id="path148" />
				<path
   d="m 1063.5,515.2 0,1.5 -6.4,0 0,5.9 5.9,0 0,1.5 -5.9,0 0,7.9 -1.7,0 0,-16.8 8.1,0 z"
   id="path150" />
				<path
   d="m 1071,521.4 c -0.2,0 -0.5,-0.1 -0.8,-0.1 -1.6,0 -2.5,1.1 -2.7,1.4 l 0,9.4 -1.6,0 0,-12 1.2,0 0.3,1.2 c 0.7,-0.7 1.7,-1.4 3,-1.4 0.3,0 0.6,0 0.8,0.1 l -0.2,1.4 z"
   id="path152" />
				<path
   d="m 1074,515.5 c 0.6,0 1.2,0.6 1.2,1.2 0,0.7 -0.6,1.2 -1.2,1.2 -0.7,0 -1.2,-0.6 -1.2,-1.2 0,-0.7 0.5,-1.2 1.2,-1.2 z m -0.8,4.5 1.6,0 0,12 -1.6,0 0,-12 z"
   id="path154" />
				<path
   d="m 1080.2,520 2.8,0 0,1.4 -2.8,0 0,6.2 c 0,2.4 0.6,3.3 2.1,3.3 0.3,0 0.9,-0.1 1.1,-0.2 l 0.3,1.3 c -0.2,0 -0.9,0.2 -1.4,0.2 -2.4,0 -3.6,-1.4 -3.6,-4.3 l 0,-6.5 -1.4,0 0,-1.4 1.4,0 0,-3.1 1.6,0 0,3.1 z"
   id="path156" />
				<path
   d="m 1087.2,528.4 c 0,1.9 0.8,2.5 2.3,2.5 1.6,0 3,-1.1 3.4,-1.4 l 0,-9.5 1.6,0 0,12 -1.2,0 -0.3,-1.2 c -0.9,0.7 -2.4,1.4 -3.8,1.4 -2.7,0 -3.5,-1.5 -3.5,-3.9 l 0,-8.3 1.6,0 0,8.4 z"
   id="path158" />
				<path
   d="m 1102.6,521.4 c -0.2,0 -0.5,-0.1 -0.8,-0.1 -1.6,0 -2.5,1.1 -2.7,1.4 l 0,9.4 -1.6,0 0,-12 1.2,0 0.3,1.2 c 0.7,-0.7 1.7,-1.4 3,-1.4 0.3,0 0.6,0 0.8,0.1 l -0.2,1.4 z"
   id="path160" />
				<path
   d="m 1109,525 1.6,0 0,-1.7 c 0,-1.3 -0.6,-2.1 -2.1,-2.1 -1.7,0 -3.2,0.7 -3.2,0.7 l -0.4,-1.2 c 0,0 1.5,-0.8 3.6,-0.8 2.8,0 3.7,1.3 3.7,3.6 l 0,8.5 -1.2,0 -0.2,-0.9 c -0.8,0.5 -1.8,1.1 -3.3,1.1 -2.3,0 -3.5,-1.6 -3.5,-3.5 0,-1.9 1.3,-3.7 5,-3.7 z m 1.6,4.9 0,-3.6 -1.6,0 c -2.2,0 -3.4,1.1 -3.4,2.4 0,1.3 0.9,2.2 2.1,2.2 1.3,0 2.4,-0.6 2.9,-1 z"
   id="path162" />
				<path
   d="m 955.6,541.2 8.3,0 0,1.5 -6.6,0 0,5.9 6.6,0 0,1.5 -6.6,0 0,6.5 6.8,0 0,1.5 -8.5,0 0,-16.9 z"
   id="path164" />
				<path
   d="m 969.4,558.2 c -2,0 -3.4,-1.1 -3.4,-1.1 l 0.7,-1.2 c 0,0 1.2,0.9 2.6,0.9 1.7,0 2.3,-1.1 2.3,-2 0,-0.7 -0.7,-1.4 -2.3,-2.3 -2.2,-1.2 -3,-2.3 -3,-3.5 0,-2 1.7,-3.1 3.5,-3.1 1.9,0 3.2,0.9 3.2,0.9 l -0.6,1.2 c 0,0 -1.3,-0.7 -2.5,-0.7 -1.1,0 -1.9,0.6 -1.9,1.8 0,0.9 1.1,1.6 2.4,2.4 2,1.2 3,2.2 3,3.5 -0.3,1.7 -1.7,3.2 -4,3.2 z"
   id="path166" />
				<path
   d="m 977.6,546 2.8,0 0,1.4 -2.8,0 0,6.2 c 0,2.4 0.6,3.3 2.1,3.3 0.3,0 0.9,-0.1 1.1,-0.2 l 0.3,1.3 c -0.2,0 -0.9,0.2 -1.4,0.2 -2.4,0 -3.6,-1.4 -3.6,-4.3 l 0,-6.5 -1.4,0 0,-1.4 1.4,0 0,-3.1 1.6,0 0,3.1 z"
   id="path168" />
				<path
   d="m 984.1,552.4 c 0,2.7 0.7,4.4 3.2,4.4 1.8,0 2.9,-0.8 2.9,-0.8 l 0.6,1.2 c 0,0 -1.4,0.9 -3.5,0.9 -2.8,0 -4.8,-1.5 -4.8,-6.2 0,-4.7 2,-6.2 4.5,-6.2 3.4,0 4.3,2.4 4.3,6.5 l -7.2,0 z m 0,-1.2 5.6,0 c -0.1,-2.8 -0.9,-3.9 -2.7,-3.9 -2.1,-0.1 -2.8,1.5 -2.9,3.9 z"
   id="path170" />
				<path
   d="m 998.9,547.4 c -0.2,0 -0.5,-0.1 -0.8,-0.1 -1.6,0 -2.5,1.1 -2.7,1.4 l 0,9.4 -1.6,0 0,-12 1.2,0 0.3,1.2 c 0.7,-0.7 1.7,-1.4 3,-1.4 0.3,0 0.6,0 0.8,0.1 l -0.2,1.4 z"
   id="path172" />
				<path
   d="m 1001.9,541.5 c 0.6,0 1.2,0.6 1.2,1.2 0,0.7 -0.6,1.2 -1.2,1.2 -0.7,0 -1.2,-0.6 -1.2,-1.2 0,-0.7 0.5,-1.2 1.2,-1.2 z m -0.8,4.5 1.6,0 0,12 -1.6,0 0,-12 z"
   id="path174" />
				<path
   d="m 1010.7,558.1 c -0.3,0.1 -0.7,0.1 -1.1,0.1 -2.3,0 -3.6,-1.4 -3.6,-4.3 l 0,-12.6 1.6,0 0,12.4 c 0,2.4 0.7,3.3 2.1,3.3 0.3,0 0.5,0 0.8,-0.1 l 0.2,1.2 z"
   id="path176" />
				<path
   d="m 1013.3,541.5 c 0.6,0 1.2,0.6 1.2,1.2 0,0.7 -0.6,1.2 -1.2,1.2 -0.7,0 -1.2,-0.6 -1.2,-1.2 0,-0.7 0.5,-1.2 1.2,-1.2 z m -0.8,4.5 1.6,0 0,12 -1.6,0 0,-12 z"
   id="path178" />
				<path
   d="m 1022.9,547.5 -5.8,0 0,-1.5 7.6,0 0,1.4 -6.1,9.2 5.9,0 0,1.4 -7.7,0 0,-1.4 6.1,-9.1 z"
   id="path180" />
				<path
   d="m 1031.5,551 1.6,0 0,-1.7 c 0,-1.3 -0.6,-2.1 -2.1,-2.1 -1.7,0 -3.2,0.7 -3.2,0.7 l -0.4,-1.2 c 0,0 1.5,-0.8 3.6,-0.8 2.8,0 3.7,1.3 3.7,3.6 l 0,8.5 -1.2,0 -0.2,-0.9 c -0.8,0.5 -1.8,1.1 -3.3,1.1 -2.3,0 -3.5,-1.6 -3.5,-3.5 0,-1.9 1.4,-3.7 5,-3.7 z m 1.6,4.9 0,-3.6 -1.6,0 c -2.2,0 -3.4,1.1 -3.4,2.4 0,1.3 0.9,2.2 2.1,2.2 1.3,0 2.4,-0.6 2.9,-1 z"
   id="path182" />
				<path
   d="m 1044.4,557.7 c -0.2,0.1 -1.2,0.6 -2.5,0.6 -2.8,0 -4.8,-1.5 -4.8,-6.2 0,-4.7 2,-6.2 4.8,-6.2 1,0 1.8,0.3 2.5,0.6 l -0.6,1.2 c -0.1,0 -0.9,-0.5 -1.9,-0.5 -2.6,0 -3.2,1.9 -3.2,4.8 0,2.9 0.6,4.8 3.2,4.8 1.2,0 2,-0.5 2,-0.5 l 0.5,1.4 z"
   id="path184" />
				<path
   d="m 1047.9,541.5 c 0.6,0 1.2,0.6 1.2,1.2 0,0.7 -0.6,1.2 -1.2,1.2 -0.7,0 -1.2,-0.6 -1.2,-1.2 -0.1,-0.7 0.5,-1.2 1.2,-1.2 z m -0.9,4.5 1.6,0 0,12 -1.6,0 0,-12 z"
   id="path186" />
				<path
   d="m 1051.4,552 c 0,-4.7 2,-6.1 4.8,-6.1 2.8,0 4.8,1.4 4.8,6.1 0,4.7 -2,6.2 -4.8,6.2 -2.8,0 -4.8,-1.5 -4.8,-6.2 z m 8,0 c 0,-2.9 -0.6,-4.8 -3.2,-4.8 -2.6,0 -3.2,1.9 -3.2,4.8 0,2.9 0.6,4.8 3.2,4.8 2.6,0.1 3.2,-1.9 3.2,-4.8 z m -2.6,-11.4 2.1,0 -2.1,3.9 -1.1,0 1.1,-3.9 z"
   id="path188" />
				<path
   d="m 1070.7,549.7 c 0,-1.9 -0.8,-2.5 -2.3,-2.5 -1.6,0 -3,1.1 -3.4,1.4 l 0,9.4 -1.6,0 0,-12 1.2,0 0.3,1.2 c 1,-0.7 2.4,-1.4 3.8,-1.4 2.7,0 3.5,1.5 3.5,3.9 l 0,8.2 -1.6,0 0,-8.2 z"
   id="path190" />
				<path
   d="m 1081,541.5 c 0.6,0 1.2,0.6 1.2,1.2 0,0.7 -0.6,1.2 -1.2,1.2 -0.7,0 -1.2,-0.6 -1.2,-1.2 0,-0.7 0.5,-1.2 1.2,-1.2 z m -0.8,4.5 1.6,0 0,12 -1.6,0 0,-12 z"
   id="path192" />
				<path
   d="m 1092.3,549.7 c 0,-1.9 -0.8,-2.5 -2.3,-2.5 -1.6,0 -3,1.1 -3.4,1.4 l 0,9.4 -1.6,0 0,-12 1.2,0 0.3,1.2 c 1,-0.7 2.4,-1.4 3.8,-1.4 2.7,0 3.5,1.5 3.5,3.9 l 0,8.2 -1.6,0 0,-8.2 z"
   id="path194" />
				<path
   d="m 1103.8,541.2 1.6,0 0,16.8 -1.3,0 -0.2,-1 c -0.5,0.6 -1.5,1.2 -2.9,1.2 -2.6,0 -4.7,-1.5 -4.7,-6.2 0,-4.7 2.1,-6.2 4.6,-6.2 1.4,0 2.5,0.7 2.8,1.1 l 0,-5.7 z m -2.6,15.7 c 1.1,0 2.1,-0.6 2.6,-1.4 l 0,-6.8 c -0.3,-0.6 -1.2,-1.5 -2.6,-1.5 -2.5,0 -3.3,1.9 -3.3,4.8 0,2.9 0.7,4.9 3.3,4.9 z"
   id="path196" />
				<path
   d="m 1110,554.4 c 0,1.9 0.8,2.5 2.3,2.5 1.6,0 3,-1.1 3.4,-1.4 l 0,-9.5 1.6,0 0,12 -1.2,0 -0.3,-1.2 c -0.9,0.7 -2.4,1.4 -3.8,1.4 -2.7,0 -3.5,-1.5 -3.5,-3.9 l 0,-8.3 1.6,0 0,8.4 z"
   id="path198" />
				<path
   d="m 1122.9,558.2 c -2,0 -3.4,-1.1 -3.4,-1.1 l 0.7,-1.2 c 0,0 1.2,0.9 2.6,0.9 1.7,0 2.3,-1.1 2.3,-2 0,-0.7 -0.7,-1.4 -2.3,-2.3 -2.2,-1.2 -3,-2.3 -3,-3.5 0,-2 1.7,-3.1 3.5,-3.1 1.9,0 3.2,0.9 3.2,0.9 l -0.6,1.2 c 0,0 -1.3,-0.7 -2.5,-0.7 -1.1,0 -1.9,0.6 -1.9,1.8 0,0.9 1.1,1.6 2.4,2.4 2,1.2 3,2.2 3,3.5 -0.2,1.7 -1.6,3.2 -4,3.2 z"
   id="path200" />
				<path
   d="m 1131.1,546 2.8,0 0,1.4 -2.8,0 0,6.2 c 0,2.4 0.6,3.3 2.1,3.3 0.3,0 0.9,-0.1 1.1,-0.2 l 0.3,1.3 c -0.2,0 -0.9,0.2 -1.4,0.2 -2.4,0 -3.6,-1.4 -3.6,-4.3 l 0,-6.5 -1.4,0 0,-1.4 1.4,0 0,-3.1 1.6,0 0,3.1 z"
   id="path202" />
				<path
   d="m 1141.6,547.4 c -0.2,0 -0.5,-0.1 -0.8,-0.1 -1.6,0 -2.5,1.1 -2.7,1.4 l 0,9.4 -1.6,0 0,-12 1.2,0 0.3,1.2 c 0.7,-0.7 1.7,-1.4 3,-1.4 0.3,0 0.6,0 0.8,0.1 l -0.2,1.4 z"
   id="path204" />
				<path
   d="m 1144.6,541.5 c 0.6,0 1.2,0.6 1.2,1.2 0,0.7 -0.6,1.2 -1.2,1.2 -0.7,0 -1.2,-0.6 -1.2,-1.2 0,-0.7 0.5,-1.2 1.2,-1.2 z m -0.8,4.5 1.6,0 0,12 -1.6,0 0,-12 z"
   id="path206" />
				<path
   d="m 1153.1,551 1.6,0 0,-1.7 c 0,-1.3 -0.6,-2.1 -2.1,-2.1 -1.7,0 -3.2,0.7 -3.2,0.7 l -0.4,-1.2 c 0,0 1.5,-0.8 3.6,-0.8 2.8,0 3.7,1.3 3.7,3.6 l 0,8.5 -1.2,0 -0.2,-0.9 c -0.8,0.5 -1.8,1.1 -3.3,1.1 -2.3,0 -3.5,-1.6 -3.5,-3.5 0,-1.9 1.4,-3.7 5,-3.7 z m 1.6,4.9 0,-3.6 -1.6,0 c -2.2,0 -3.4,1.1 -3.4,2.4 0,1.3 0.9,2.2 2.1,2.2 1.3,0 2.4,-0.6 2.9,-1 z"
   id="path208" />
				<path
   d="m 1164,558.1 c -0.3,0.1 -0.7,0.1 -1.1,0.1 -2.3,0 -3.6,-1.4 -3.6,-4.3 l 0,-12.6 1.6,0 0,12.4 c 0,2.4 0.7,3.3 2.1,3.3 0.3,0 0.5,0 0.8,-0.1 l 0.2,1.2 z"
   id="path210" />
			</g>
		</g>
		<g
   id="g212">
			<g
   id="g214">
				<path
   d="m 1255.1,437.2 0,2.7 -4.2,0 0,14.1 -3,0 0,-14.1 -4.2,0 0,-2.7 11.4,0 z"
   id="path216" />
				<path
   d="m 1259.2,448.9 c 0.1,2 0.8,2.9 2.3,2.9 1.5,0 2.9,-0.5 2.9,-0.5 l 0.8,2.2 c -0.9,0.4 -2.1,0.8 -3.7,0.8 -3.7,0 -5.2,-2.3 -5.2,-6.2 0,-3.9 1.4,-6.2 4.9,-6.2 3.6,0 4.7,2.2 4.7,7.1 l -6.7,0 z m 0,-2.1 3.8,0 c 0,-1.4 -0.4,-2.7 -1.9,-2.7 -1.3,0 -1.8,1 -1.9,2.7 z"
   id="path218" />
				<path
   d="m 1274.6,446.1 c 0,-1.5 -0.4,-2.1 -1.5,-2.1 -1.3,0 -2.3,1 -2.3,1 l 0,9 -2.9,0 0,-12 2.1,0 0.6,1.1 c 0.7,-0.6 1.9,-1.3 3.4,-1.3 1.7,0 2.6,0.6 3,1.5 0.6,-0.5 2,-1.5 3.7,-1.5 2.9,0 3.5,1.7 3.5,3.9 l 0,8.3 -2.9,0 0,-7.9 c 0,-1.3 -0.2,-2.1 -1.5,-2.1 -0.8,0 -1.7,0.5 -2.3,0.9 0,0 0,0.3 0,1 l 0,8 -2.9,0 0,-7.8 z"
   id="path220" />
				<path
   d="m 1289.3,458.4 -2.9,0 0,-16.4 2.1,0 0.6,1 c 0.7,-0.7 1.6,-1.2 2.8,-1.2 3,0 4.6,2.5 4.6,6.2 0,3.6 -1.6,6.2 -4.6,6.2 -1.1,0 -1.9,-0.4 -2.6,-1.1 l 0,5.3 z m 1.9,-14.3 c -0.8,0 -1.5,0.6 -1.8,1 l 0,5.9 c 0.4,0.5 1.1,1 1.8,1 1.6,0 2.5,-1.4 2.5,-3.9 0,-2.6 -0.9,-4 -2.5,-4 z"
   id="path222" />
				<path
   d="m 1301.1,448.9 c 0.1,2 0.8,2.9 2.3,2.9 1.5,0 2.9,-0.5 2.9,-0.5 l 0.8,2.2 c -0.9,0.4 -2.1,0.8 -3.7,0.8 -3.7,0 -5.2,-2.3 -5.2,-6.2 0,-3.9 1.4,-6.2 4.9,-6.2 3.6,0 4.7,2.2 4.7,7.1 l -6.7,0 z m 0,-2.1 3.8,0 c 0,-1.4 -0.4,-2.7 -1.9,-2.7 -1.2,0 -1.7,1 -1.9,2.7 z"
   id="path224" />
				<path
   d="m 1315.4,444.5 c -0.2,0 -0.5,-0.1 -0.8,-0.1 -1.3,0 -1.8,0.8 -1.8,0.8 l 0,8.9 -2.9,0 0,-12 2.1,0 0.6,1.1 c 0.2,-0.3 1.1,-1.3 2.8,-1.3 0.2,0 0.5,0 0.6,0.1 l -0.6,2.5 z"
   id="path226" />
				<path
   d="m 1322.6,446.5 0.9,0 0,-0.7 c 0,-0.8 -0.3,-1.7 -1.8,-1.7 -1.5,0 -3.2,0.5 -3.2,0.5 l -0.6,-2.1 c 0,0 1.7,-0.7 4,-0.7 2.5,0 4.5,1 4.5,3.8 l 0,8.4 -2.3,0 -0.4,-1.1 c -0.8,0.7 -1.8,1.2 -3.1,1.2 -2.5,0 -3.6,-1.9 -3.6,-3.8 -0.1,-1.7 1.4,-3.8 5.6,-3.8 z m 1,4.5 0,-2.4 -1.2,0 c -1.6,0 -2.5,0.8 -2.5,1.7 0,1.1 0.7,1.8 1.7,1.8 0.8,-0.1 1.5,-0.6 2,-1.1 z"
   id="path228" />
				<path
   d="m 1332.1,442 2.6,0 0,2.4 -2.6,0 0,5.4 c 0,1 0.3,1.9 1.4,1.9 0.6,0 1.4,-0.3 1.4,-0.3 l 0.7,2.2 c 0,0 -1.1,0.5 -2.2,0.5 -3.1,0 -4.2,-2.2 -4.2,-4.1 l 0,-5.7 -1.4,0 0,-2.3 1.4,0 0,-3.1 2.9,0 0,3.1 z"
   id="path230" />
				<path
   d="m 1339.8,450 c 0,1.3 0.2,2.1 1.5,2.1 1.1,0 2.2,-0.7 2.4,-1 l 0,-9 2.9,0 0,12 -2.3,0 -0.4,-1.1 c -0.7,0.6 -2.1,1.3 -3.5,1.3 -2.9,0 -3.5,-1.7 -3.5,-3.9 l 0,-8.4 2.9,0 0,8 z"
   id="path232" />
				<path
   d="m 1354.6,444.5 c -0.2,0 -0.5,-0.1 -0.8,-0.1 -1.3,0 -1.8,0.8 -1.8,0.8 l 0,8.9 -2.9,0 0,-12 2.1,0 0.6,1.1 c 0.2,-0.3 1.1,-1.3 2.8,-1.3 0.2,0 0.5,0 0.6,0.1 l -0.6,2.5 z"
   id="path234" />
				<path
   d="m 1361.9,446.5 0.9,0 0,-0.7 c 0,-0.8 -0.3,-1.7 -1.8,-1.7 -1.5,0 -3.2,0.5 -3.2,0.5 l -0.6,-2.1 c 0,0 1.7,-0.7 4,-0.7 2.5,0 4.5,1 4.5,3.8 l 0,8.4 -2.3,0 -0.4,-1.1 c -0.8,0.7 -1.8,1.2 -3.1,1.2 -2.5,0 -3.6,-1.9 -3.6,-3.8 -0.2,-1.7 1.3,-3.8 5.6,-3.8 z m 0.9,4.5 0,-2.4 -1.2,0 c -1.6,0 -2.5,0.8 -2.5,1.7 0,1.1 0.7,1.8 1.7,1.8 0.8,-0.1 1.5,-0.6 2,-1.1 z"
   id="path236" />
				<path
   d="m 1377.5,446.5 0.9,0 0,-0.7 c 0,-0.8 -0.3,-1.7 -1.8,-1.7 -1.5,0 -3.2,0.5 -3.2,0.5 l -0.6,-2.1 c 0,0 1.7,-0.7 4,-0.7 2.5,0 4.5,1 4.5,3.8 l 0,8.4 -2.3,0 -0.4,-1.1 c -0.8,0.7 -1.8,1.2 -3.1,1.2 -2.5,0 -3.6,-1.9 -3.6,-3.8 -0.1,-1.7 1.3,-3.8 5.6,-3.8 z m 0.9,4.5 0,-2.4 -1.2,0 c -1.6,0 -2.5,0.8 -2.5,1.7 0,1.1 0.7,1.8 1.7,1.8 0.9,-0.1 1.6,-0.6 2,-1.1 z"
   id="path238" />
				<path
   d="m 1389.1,454 c -0.4,0.1 -0.9,0.2 -1.5,0.2 -3.1,0 -4.2,-2.2 -4.2,-4.1 l 0,-12.9 2.9,0 0,12.6 c 0,1 0.3,1.9 1.4,1.9 0.2,0 0.5,0 0.7,-0.1 l 0.7,2.4 z"
   id="path240" />
				<path
   d="m 1398,453.6 c -0.7,0.4 -1.7,0.7 -2.7,0.7 -3.8,0 -5.1,-2.3 -5.1,-6.2 0,-3.9 1.4,-6.2 5.1,-6.2 1.2,0 2.4,0.5 2.8,0.8 l -1,2 c -0.4,-0.2 -1,-0.4 -1.8,-0.4 -1.8,0 -2.3,1.3 -2.3,3.8 0,2.5 0.3,3.8 2.3,3.8 1.1,0 1.8,-0.4 1.8,-0.4 l 0.9,2.1 z"
   id="path242" />
				<path
   d="m 1405,446.5 0.9,0 0,-0.7 c 0,-0.8 -0.3,-1.7 -1.8,-1.7 -1.5,0 -3.2,0.5 -3.2,0.5 l -0.6,-2.1 c 0,0 1.7,-0.7 4,-0.7 2.5,0 4.5,1 4.5,3.8 l 0,8.4 -2.3,0 -0.4,-1.1 c -0.8,0.7 -1.8,1.2 -3.1,1.2 -2.5,0 -3.6,-1.9 -3.6,-3.8 -0.1,-1.7 1.4,-3.8 5.6,-3.8 z m 1,4.5 0,-2.4 -1.2,0 c -1.6,0 -2.5,0.8 -2.5,1.7 0,1.1 0.7,1.8 1.7,1.8 0.8,-0.1 1.5,-0.6 2,-1.1 z"
   id="path244" />
				<path
   d="m 1418.1,446.1 c 0,-1.3 -0.2,-2.1 -1.5,-2.1 -1.2,0 -2.3,0.7 -2.5,1 l 0,9 -2.9,0 0,-12 2.1,0 0.6,1.1 c 0.8,-0.6 2.2,-1.3 3.6,-1.3 2.9,0 3.5,1.7 3.5,3.9 l 0,8.3 -2.9,0 0,-7.9 z"
   id="path246" />
				<path
   d="m 1428,444.6 -4.9,0 0,-2.6 8.1,0 0,2.6 -4.9,6.8 4.9,0 0,2.6 -8.2,0 0,-2.6 5,-6.8 z"
   id="path248" />
				<path
   d="m 1438.6,446.5 0.9,0 0,-0.7 c 0,-0.8 -0.3,-1.7 -1.8,-1.7 -1.5,0 -3.2,0.5 -3.2,0.5 l -0.6,-2.1 c 0,0 1.7,-0.7 4,-0.7 2.5,0 4.5,1 4.5,3.8 l 0,8.4 -2.3,0 -0.4,-1.1 c -0.8,0.7 -1.8,1.2 -3.1,1.2 -2.5,0 -3.6,-1.9 -3.6,-3.8 -0.1,-1.7 1.3,-3.8 5.6,-3.8 z m 0.9,4.5 0,-2.4 -1.2,0 c -1.6,0 -2.5,0.8 -2.5,1.7 0,1.1 0.7,1.8 1.7,1.8 0.9,-0.1 1.6,-0.6 2,-1.1 z"
   id="path250" />
				<path
   d="m 1451.6,437.2 2.9,0 0,16.8 -2.3,0 -0.4,-1 c -0.7,0.7 -1.6,1.2 -2.8,1.2 -3,0 -4.6,-2.5 -4.6,-6.2 0,-3.6 1.6,-6.2 4.6,-6.2 1,0 1.8,0.4 2.6,1.1 l 0,-5.7 z m -1.9,14.8 c 0.7,0 1.4,-0.5 1.8,-1 l 0,-5.9 c -0.4,-0.5 -1.1,-1 -1.8,-1 -1.6,0 -2.5,1.4 -2.5,3.9 0,2.6 0.9,4 2.5,4 z"
   id="path252" />
				<path
   d="m 1462.1,446.5 0.9,0 0,-0.7 c 0,-0.8 -0.3,-1.7 -1.8,-1.7 -1.5,0 -3.2,0.5 -3.2,0.5 l -0.6,-2.1 c 0,0 1.7,-0.7 4,-0.7 2.5,0 4.5,1 4.5,3.8 l 0,8.4 -2.3,0 -0.4,-1.1 c -0.8,0.7 -1.8,1.2 -3.1,1.2 -2.5,0 -3.6,-1.9 -3.6,-3.8 -0.1,-1.7 1.3,-3.8 5.6,-3.8 z m 0.9,4.5 0,-2.4 -1.2,0 c -1.6,0 -2.5,0.8 -2.5,1.7 0,1.1 0.7,1.8 1.7,1.8 0.8,-0.1 1.6,-0.6 2,-1.1 z"
   id="path254" />
				<path
   d="m 1245,463.2 8.3,0 0,1.5 -6.6,0 0,5.9 6.6,0 0,1.5 -6.6,0 0,6.5 6.8,0 0,1.5 -8.5,0 0,-16.9 z"
   id="path256" />
				<path
   d="m 1263.4,471.7 c 0,-1.9 -0.8,-2.5 -2.3,-2.5 -1.6,0 -3,1.1 -3.4,1.4 l 0,9.4 -1.6,0 0,-12 1.2,0 0.3,1.2 c 1,-0.7 2.4,-1.4 3.8,-1.4 2.7,0 3.5,1.5 3.5,3.9 l 0,8.2 -1.6,0 0,-8.2 z"
   id="path258" />
				<path
   d="m 1274.7,468 2.8,0 0,1.4 -2.8,0 0,6.2 c 0,2.4 0.6,3.3 2.1,3.3 0.3,0 0.9,-0.1 1.1,-0.2 l 0.3,1.3 c -0.2,0 -0.9,0.2 -1.4,0.2 -2.4,0 -3.6,-1.4 -3.6,-4.3 l 0,-6.5 -1.4,0 0,-1.4 1.4,0 0,-3.1 1.6,0 0,3.1 z"
   id="path260" />
				<path
   d="m 1279.6,474 c 0,-4.7 2,-6.1 4.8,-6.1 2.8,0 4.8,1.4 4.8,6.1 0,4.7 -2,6.2 -4.8,6.2 -2.8,0 -4.8,-1.5 -4.8,-6.2 z m 8,0 c 0,-2.9 -0.6,-4.8 -3.2,-4.8 -2.6,0 -3.2,1.9 -3.2,4.8 0,2.9 0.6,4.8 3.2,4.8 2.6,0.1 3.2,-1.9 3.2,-4.8 z"
   id="path262" />
				<path
   d="m 1296.8,469.4 c -0.2,0 -0.5,-0.1 -0.8,-0.1 -1.6,0 -2.5,1.1 -2.7,1.4 l 0,9.4 -1.6,0 0,-12 1.2,0 0.3,1.2 c 0.7,-0.7 1.7,-1.4 3,-1.4 0.3,0 0.6,0 0.8,0.1 l -0.2,1.4 z"
   id="path264" />
				<path
   d="m 1305.9,471.7 c 0,-1.9 -0.8,-2.5 -2.3,-2.5 -1.6,0 -3,1.1 -3.4,1.4 l 0,9.4 -1.6,0 0,-12 1.2,0 0.3,1.2 c 1,-0.7 2.4,-1.4 3.8,-1.4 2.7,0 3.5,1.5 3.5,3.9 l 0,8.2 -1.6,0 0,-8.2 z"
   id="path266" />
				<path
   d="m 1310,474 c 0,-4.7 2,-6.1 4.8,-6.1 2.8,0 4.8,1.4 4.8,6.1 0,4.7 -2,6.2 -4.8,6.2 -2.9,0 -4.8,-1.5 -4.8,-6.2 z m 7.9,0 c 0,-2.9 -0.6,-4.8 -3.2,-4.8 -2.6,0 -3.2,1.9 -3.2,4.8 0,2.9 0.6,4.8 3.2,4.8 2.6,0.1 3.2,-1.9 3.2,-4.8 z"
   id="path268" />
				<path
   d="m 1331.2,473 1.6,0 0,-1.7 c 0,-1.3 -0.6,-2.1 -2.1,-2.1 -1.7,0 -3.2,0.7 -3.2,0.7 l -0.4,-1.2 c 0,0 1.5,-0.8 3.6,-0.8 2.8,0 3.7,1.3 3.7,3.6 l 0,8.5 -1.2,0 -0.2,-0.9 c -0.8,0.5 -1.8,1.1 -3.3,1.1 -2.3,0 -3.5,-1.6 -3.5,-3.5 0,-1.9 1.4,-3.7 5,-3.7 z m 1.6,4.9 0,-3.6 -1.6,0 c -2.2,0 -3.4,1.1 -3.4,2.4 0,1.3 0.9,2.2 2.1,2.2 1.3,0 2.4,-0.6 2.9,-1 z"
   id="path270" />
				<path
   d="m 1344.2,480 -1.7,0 5.8,-15.4 -7.2,0 0,-1.4 9.1,0 0,1 -6,15.8 z"
   id="path272" />
				<path
   d="m 1357.3,480.3 c -3.5,0 -5.3,-2.8 -5.3,-8.6 0,-5.8 1.8,-8.6 5.3,-8.6 3.5,0 5.3,2.8 5.3,8.6 0,5.8 -1.8,8.6 -5.3,8.6 z m 0,-1.5 c 2.1,0 3.6,-1.6 3.6,-7.1 0,-5.5 -1.6,-7.1 -3.6,-7.1 -2.1,0 -3.7,1.6 -3.7,7.1 0,5.5 1.6,7.1 3.7,7.1 z"
   id="path274" />
				<path
   d="m 1371.7,472.6 0,1.4 -6,0 0,-1.4 6,0 z"
   id="path276" />
				<path
   d="m 1374.7,476 c 0,-2.4 1.5,-3.7 3.6,-4.7 -1.8,-1 -3,-2.2 -3,-4.2 0,-2.5 2,-4 4.5,-4 2.5,0 4.5,1.5 4.5,4 0,2.1 -1.5,3.4 -3,4.2 2.1,1.2 3.6,2.5 3.6,4.8 0,2.6 -2.1,4.3 -5,4.3 -3,-0.1 -5.2,-1.7 -5.2,-4.4 z m 8.3,0 c 0,-1.6 -1.2,-2.9 -3.4,-4 -2.1,1 -3.3,2 -3.3,4 0,1.7 1.7,2.9 3.3,2.9 1.7,0 3.4,-1.2 3.4,-2.9 z m -3.2,-5.6 c 1.5,-0.8 2.7,-1.6 2.7,-3.4 0,-1.6 -1.1,-2.6 -2.8,-2.6 -1.6,0 -2.8,1 -2.8,2.6 0,1.6 1.1,2.4 2.9,3.4 z"
   id="path278" />
				<path
   d="m 1392.3,480.3 c -3.5,0 -5.3,-2.8 -5.3,-8.6 0,-5.8 1.8,-8.6 5.3,-8.6 3.5,0 5.3,2.8 5.3,8.6 0,5.8 -1.9,8.6 -5.3,8.6 z m 0,-1.5 c 2.1,0 3.6,-1.6 3.6,-7.1 0,-5.5 -1.6,-7.1 -3.6,-7.1 -2.1,0 -3.7,1.6 -3.7,7.1 0,5.5 1.5,7.1 3.7,7.1 z"
   id="path280" />
				<path
   d="m 1404.5,466.9 c 0,-2.9 1.2,-3.9 3.1,-3.9 1.9,0 3.1,1 3.1,3.9 0,2.9 -1.2,3.9 -3.1,3.9 -1.9,0 -3.1,-1 -3.1,-3.9 z m 5,0 c 0,-1.7 -0.3,-2.9 -1.9,-2.9 -1.6,0 -1.9,1.2 -1.9,2.9 0,1.7 0.3,2.9 1.9,2.9 1.6,0 1.9,-1.2 1.9,-2.9 z"
   id="path282" />
				<path
   d="m 1422.9,479.2 c 0,0 -1.5,1.1 -4,1.1 -4.2,0 -6.1,-2.5 -6.1,-8.6 0,-6.1 2,-8.6 6.1,-8.6 2.1,0 3.5,0.9 3.7,1 -0.7,1.3 -0.7,1.3 -0.7,1.3 -0.2,-0.1 -1.4,-0.9 -3,-0.9 -2.7,0 -4.5,1.5 -4.5,7.1 0,5.6 1.8,7.1 4.5,7.1 1.8,0 3.2,-0.9 3.2,-0.9 l 0.8,1.4 z"
   id="path284" />
				<path
   d="m 1244.5,491.1 3.9,-1.8 1.3,0 0,15.3 3.1,0 0,1.5 -7.9,0 0,-1.5 3.1,0 0,-13.6 -3.1,1.4 -0.4,-1.3 z"
   id="path286" />
				<path
   d="m 1260.2,506.3 c -3.5,0 -5.3,-2.8 -5.3,-8.6 0,-5.8 1.8,-8.6 5.3,-8.6 3.5,0 5.3,2.8 5.3,8.6 0,5.8 -1.8,8.6 -5.3,8.6 z m 0,-1.5 c 2.1,0 3.6,-1.6 3.6,-7.1 0,-5.5 -1.6,-7.1 -3.6,-7.1 -2.1,0 -3.7,1.6 -3.7,7.1 0,5.5 1.6,7.1 3.7,7.1 z"
   id="path288" />
				<path
   d="m 1273.2,506.3 c -3.5,0 -5.3,-2.8 -5.3,-8.6 0,-5.8 1.8,-8.6 5.3,-8.6 3.5,0 5.3,2.8 5.3,8.6 0,5.8 -1.8,8.6 -5.3,8.6 z m 0,-1.5 c 2.1,0 3.6,-1.6 3.6,-7.1 0,-5.5 -1.6,-7.1 -3.6,-7.1 -2.1,0 -3.7,1.6 -3.7,7.1 0,5.5 1.6,7.1 3.7,7.1 z"
   id="path290" />
				<path
   d="m 1285.4,492.9 c 0,-2.9 1.2,-3.9 3.1,-3.9 1.9,0 3.1,1 3.1,3.9 0,2.9 -1.2,3.9 -3.1,3.9 -1.9,0 -3.1,-1 -3.1,-3.9 z m 5.1,0 c 0,-1.7 -0.3,-2.9 -1.9,-2.9 -1.6,0 -1.9,1.2 -1.9,2.9 0,1.7 0.3,2.9 1.9,2.9 1.5,0 1.9,-1.2 1.9,-2.9 z"
   id="path292" />
				<path
   d="m 1303.9,505.2 c 0,0 -1.5,1.1 -4,1.1 -4.2,0 -6.1,-2.5 -6.1,-8.6 0,-6.1 2,-8.6 6.1,-8.6 2.1,0 3.5,0.9 3.7,1 -0.7,1.3 -0.7,1.3 -0.7,1.3 -0.2,-0.1 -1.4,-0.9 -3,-0.9 -2.7,0 -4.5,1.5 -4.5,7.1 0,5.6 1.8,7.1 4.5,7.1 1.8,0 3.2,-0.9 3.2,-0.9 l 0.8,1.4 z"
   id="path294" />
				<path
   d="m 1244.5,517.1 3.9,-1.8 1.3,0 0,15.3 3.1,0 0,1.5 -7.9,0 0,-1.5 3.1,0 0,-13.6 -3.1,1.4 -0.4,-1.3 z"
   id="path296" />
				<path
   d="m 1255.7,515.2 8.2,0 0,1.4 -6.6,0 0,5 1.1,0 c 3.9,0 6.1,2 6.1,5.2 0,3 -1.8,5.5 -5.8,5.5 -1.8,0 -3,-0.4 -3.8,-0.7 l 0.6,-1.4 c 0,0 1.5,0.7 3.2,0.7 2.5,0 4.1,-1.5 4.1,-4.1 0,-2.3 -1.6,-3.7 -4.8,-3.7 l -2.4,0 0,-7.9 z"
   id="path298" />
				<path
   d="m 1272.1,532.3 c -3.5,0 -5.3,-2.8 -5.3,-8.6 0,-5.8 1.8,-8.6 5.3,-8.6 3.5,0 5.3,2.8 5.3,8.6 0,5.8 -1.8,8.6 -5.3,8.6 z m 0,-1.5 c 2.1,0 3.6,-1.6 3.6,-7.1 0,-5.5 -1.6,-7.1 -3.6,-7.1 -2.1,0 -3.7,1.6 -3.7,7.1 0,5.5 1.6,7.1 3.7,7.1 z"
   id="path300" />
				<path
   d="m 1284.4,518.9 c 0,-2.9 1.2,-3.9 3.1,-3.9 1.9,0 3.1,1 3.1,3.9 0,2.9 -1.2,3.9 -3.1,3.9 -1.9,0 -3.1,-1 -3.1,-3.9 z m 5,0 c 0,-1.7 -0.3,-2.9 -1.9,-2.9 -1.6,0 -1.9,1.2 -1.9,2.9 0,1.7 0.3,2.9 1.9,2.9 1.6,0 1.9,-1.2 1.9,-2.9 z"
   id="path302" />
				<path
   d="m 1302.8,531.2 c 0,0 -1.5,1.1 -4,1.1 -4.2,0 -6.1,-2.5 -6.1,-8.6 0,-6.1 2,-8.6 6.1,-8.6 2.1,0 3.5,0.9 3.7,1 -0.7,1.3 -0.7,1.3 -0.7,1.3 -0.2,-0.1 -1.4,-0.9 -3,-0.9 -2.7,0 -4.5,1.5 -4.5,7.1 0,5.6 1.8,7.1 4.5,7.1 1.8,0 3.2,-0.9 3.2,-0.9 l 0.8,1.4 z"
   id="path304" />
				<path
   d="m 1314.2,525 1.6,0 0,-1.7 c 0,-1.3 -0.6,-2.1 -2.1,-2.1 -1.7,0 -3.2,0.7 -3.2,0.7 l -0.4,-1.2 c 0,0 1.5,-0.8 3.6,-0.8 2.8,0 3.7,1.3 3.7,3.6 l 0,8.5 -1.2,0 -0.2,-0.9 c -0.8,0.5 -1.8,1.1 -3.3,1.1 -2.3,0 -3.5,-1.6 -3.5,-3.5 0,-1.9 1.3,-3.7 5,-3.7 z m 1.6,4.9 0,-3.6 -1.6,0 c -2.2,0 -3.4,1.1 -3.4,2.4 0,1.3 0.9,2.2 2.1,2.2 1.3,0 2.4,-0.6 2.9,-1 z"
   id="path306" />
				<path
   d="m 1321.9,536.4 -1.6,0 0,-16.4 1.2,0 0.3,1 c 0.2,-0.2 1.2,-1.2 2.9,-1.2 2.5,0 4.6,1.5 4.6,6.2 0,4.7 -2,6.2 -4.7,6.2 -1.3,0 -2.2,-0.6 -2.8,-1.1 l 0,5.3 z m 2.6,-15.2 c -1.4,0 -2.3,0.9 -2.6,1.5 l 0,6.8 c 0.5,0.8 1.4,1.4 2.6,1.4 2.5,0 3.3,-1.9 3.3,-4.8 0,-2.9 -0.8,-4.9 -3.3,-4.9 z"
   id="path308" />
				<path
   d="m 1337,521.4 c -0.2,0 -0.5,-0.1 -0.8,-0.1 -1.6,0 -2.5,1.1 -2.7,1.4 l 0,9.4 -1.6,0 0,-12 1.2,0 0.3,1.2 c 0.7,-0.7 1.7,-1.4 3,-1.4 0.3,0 0.6,0 0.8,0.1 l -0.2,1.4 z"
   id="path310" />
				<path
   d="m 1338.4,526 c 0,-4.7 2,-6.1 4.8,-6.1 2.8,0 4.8,1.4 4.8,6.1 0,4.7 -2,6.2 -4.8,6.2 -2.9,0 -4.8,-1.5 -4.8,-6.2 z m 7.9,0 c 0,-2.9 -0.6,-4.8 -3.2,-4.8 -2.6,0 -3.2,1.9 -3.2,4.8 0,2.9 0.6,4.8 3.2,4.8 2.6,0.1 3.2,-1.9 3.2,-4.8 z"
   id="path312" />
				<path
   d="m 1354,524.5 2.8,-4.4 1.8,0 -3.7,5.8 4,6.2 -1.8,0 -3.1,-4.8 -3.1,4.8 -1.8,0 3.9,-6.2 -3.6,-5.8 1.8,0 2.8,4.4 z"
   id="path314" />
				<path
   d="m 1361.6,515.5 c 0.6,0 1.2,0.6 1.2,1.2 0,0.7 -0.6,1.2 -1.2,1.2 -0.7,0 -1.2,-0.6 -1.2,-1.2 0,-0.7 0.5,-1.2 1.2,-1.2 z m -0.8,4.5 1.6,0 0,12 -1.6,0 0,-12 z"
   id="path316" />
				<path
   d="m 1372.7,523.6 c 0,-1.7 -0.7,-2.4 -2.2,-2.4 -1.5,0 -2.8,1.1 -3.2,1.4 l 0,9.4 -1.6,0 0,-12 1.2,0 0.3,1.2 c 0.9,-0.7 2.1,-1.4 3.6,-1.4 1.7,0 2.6,0.6 3.1,1.7 1,-0.9 2.4,-1.7 3.9,-1.7 2.7,0 3.4,1.5 3.4,3.9 l 0,8.2 -1.6,0 0,-8.3 c 0,-1.9 -0.7,-2.5 -2.2,-2.5 -1.3,0 -2.6,1 -3.2,1.5 0.1,0.3 0.1,0.7 0.1,1.2 l 0,8.2 -1.6,0 0,-8.4 z"
   id="path318" />
				<path
   d="m 1388.6,525 1.6,0 0,-1.7 c 0,-1.3 -0.6,-2.1 -2.1,-2.1 -1.7,0 -3.2,0.7 -3.2,0.7 l -0.4,-1.2 c 0,0 1.5,-0.8 3.6,-0.8 2.8,0 3.7,1.3 3.7,3.6 l 0,8.5 -1.2,0 -0.2,-0.9 c -0.8,0.5 -1.8,1.1 -3.3,1.1 -2.3,0 -3.5,-1.6 -3.5,-3.5 0,-1.9 1.4,-3.7 5,-3.7 z m 1.6,4.9 0,-3.6 -1.6,0 c -2.2,0 -3.4,1.1 -3.4,2.4 0,1.3 0.9,2.2 2.1,2.2 1.3,0 2.4,-0.6 2.9,-1 z"
   id="path320" />
				<path
   d="m 1401.7,515.2 1.6,0 0,16.8 -1.3,0 -0.2,-1 c -0.5,0.6 -1.5,1.2 -2.9,1.2 -2.6,0 -4.7,-1.5 -4.7,-6.2 0,-4.7 2.1,-6.2 4.6,-6.2 1.4,0 2.5,0.7 2.8,1.1 l 0,-5.7 z m -2.6,15.7 c 1.1,0 2.1,-0.6 2.6,-1.4 l 0,-6.8 c -0.3,-0.6 -1.2,-1.5 -2.6,-1.5 -2.5,0 -3.3,1.9 -3.3,4.8 0,2.9 0.8,4.9 3.3,4.9 z"
   id="path322" />
				<path
   d="m 1410.8,525 1.6,0 0,-1.7 c 0,-1.3 -0.6,-2.1 -2.1,-2.1 -1.7,0 -3.2,0.7 -3.2,0.7 l -0.4,-1.2 c 0,0 1.5,-0.8 3.6,-0.8 2.8,0 3.7,1.3 3.7,3.6 l 0,8.5 -1.2,0 -0.2,-0.9 c -0.8,0.5 -1.8,1.1 -3.3,1.1 -2.3,0 -3.5,-1.6 -3.5,-3.5 0,-1.9 1.4,-3.7 5,-3.7 z m 1.6,4.9 0,-3.6 -1.6,0 c -2.2,0 -3.4,1.1 -3.4,2.4 0,1.3 0.9,2.2 2.1,2.2 1.3,0 2.4,-0.6 2.9,-1 z"
   id="path324" />
				<path
   d="m 1423.9,523.6 c 0,-1.7 -0.7,-2.4 -2.2,-2.4 -1.5,0 -2.8,1.1 -3.2,1.4 l 0,9.4 -1.6,0 0,-12 1.2,0 0.3,1.2 c 0.9,-0.7 2.1,-1.4 3.6,-1.4 1.7,0 2.6,0.6 3.1,1.7 1,-0.9 2.4,-1.7 3.9,-1.7 2.7,0 3.4,1.5 3.4,3.9 l 0,8.2 -1.6,0 0,-8.3 c 0,-1.9 -0.7,-2.5 -2.2,-2.5 -1.3,0 -2.6,1 -3.2,1.5 0.1,0.3 0.1,0.7 0.1,1.2 l 0,8.2 -1.6,0 0,-8.4 z"
   id="path326" />
				<path
   d="m 1436.5,526.4 c 0,2.7 0.7,4.4 3.2,4.4 1.8,0 2.9,-0.8 2.9,-0.8 l 0.6,1.2 c 0,0 -1.4,0.9 -3.5,0.9 -2.8,0 -4.8,-1.5 -4.8,-6.2 0,-4.7 2,-6.2 4.5,-6.2 3.4,0 4.3,2.4 4.3,6.5 l -7.2,0 z m 0,-1.2 5.6,0 c -0.1,-2.8 -0.9,-3.9 -2.7,-3.9 -2,-0.1 -2.7,1.5 -2.9,3.9 z"
   id="path328" />
				<path
   d="m 1453.5,523.7 c 0,-1.9 -0.8,-2.5 -2.3,-2.5 -1.6,0 -3,1.1 -3.4,1.4 l 0,9.4 -1.6,0 0,-12 1.2,0 0.3,1.2 c 1,-0.7 2.4,-1.4 3.8,-1.4 2.7,0 3.5,1.5 3.5,3.9 l 0,8.2 -1.6,0 0,-8.2 z"
   id="path330" />
				<path
   d="m 1460.1,520 2.8,0 0,1.4 -2.8,0 0,6.2 c 0,2.4 0.6,3.3 2.1,3.3 0.3,0 0.9,-0.1 1.1,-0.2 l 0.3,1.3 c -0.2,0 -0.9,0.2 -1.4,0.2 -2.4,0 -3.6,-1.4 -3.6,-4.3 l 0,-6.5 -1.4,0 0,-1.4 1.4,0 0,-3.1 1.6,0 0,3.1 z"
   id="path332" />
				<path
   d="m 1466.7,526.4 c 0,2.7 0.7,4.4 3.2,4.4 1.8,0 2.9,-0.8 2.9,-0.8 l 0.6,1.2 c 0,0 -1.4,0.9 -3.5,0.9 -2.8,0 -4.8,-1.5 -4.8,-6.2 0,-4.7 2,-6.2 4.5,-6.2 3.4,0 4.3,2.4 4.3,6.5 l -7.2,0 z m 0,-1.2 5.6,0 c -0.1,-2.8 -0.9,-3.9 -2.7,-3.9 -2.1,-0.1 -2.8,1.5 -2.9,3.9 z"
   id="path334" />
				<path
   d="m 1244.5,543.1 3.9,-1.8 1.3,0 0,15.3 3.1,0 0,1.5 -7.9,0 0,-1.5 3.1,0 0,-13.6 -3.1,1.4 -0.4,-1.3 z"
   id="path336" />
				<path
   d="m 1260.2,558.3 c -3.5,0 -5.3,-2.8 -5.3,-8.6 0,-5.8 1.8,-8.6 5.3,-8.6 3.5,0 5.3,2.8 5.3,8.6 0,5.8 -1.8,8.6 -5.3,8.6 z m 0,-1.5 c 2.1,0 3.6,-1.6 3.6,-7.1 0,-5.5 -1.6,-7.1 -3.6,-7.1 -2.1,0 -3.7,1.6 -3.7,7.1 0,5.5 1.6,7.1 3.7,7.1 z"
   id="path338" />
				<path
   d="m 1273.2,558.3 c -3.5,0 -5.3,-2.8 -5.3,-8.6 0,-5.8 1.8,-8.6 5.3,-8.6 3.5,0 5.3,2.8 5.3,8.6 0,5.8 -1.8,8.6 -5.3,8.6 z m 0,-1.5 c 2.1,0 3.6,-1.6 3.6,-7.1 0,-5.5 -1.6,-7.1 -3.6,-7.1 -2.1,0 -3.7,1.6 -3.7,7.1 0,5.5 1.6,7.1 3.7,7.1 z"
   id="path340" />
				<path
   d="m 1287.6,550.6 0,1.4 -6,0 0,-1.4 6,0 z"
   id="path342" />
				<path
   d="m 1290.7,543.1 3.9,-1.8 1.3,0 0,15.3 3.1,0 0,1.5 -7.9,0 0,-1.5 3.1,0 0,-13.6 -3.1,1.4 -0.4,-1.3 z"
   id="path344" />
				<path
   d="m 1301.2,543.1 3.9,-1.8 1.3,0 0,15.3 3.1,0 0,1.5 -7.9,0 0,-1.5 3.1,0 0,-13.6 -3.1,1.4 -0.4,-1.3 z"
   id="path346" />
				<path
   d="m 1316.9,558.3 c -3.5,0 -5.3,-2.8 -5.3,-8.6 0,-5.8 1.8,-8.6 5.3,-8.6 3.5,0 5.3,2.8 5.3,8.6 0,5.8 -1.8,8.6 -5.3,8.6 z m 0,-1.5 c 2.1,0 3.6,-1.6 3.6,-7.1 0,-5.5 -1.6,-7.1 -3.6,-7.1 -2.1,0 -3.7,1.6 -3.7,7.1 0,5.5 1.6,7.1 3.7,7.1 z"
   id="path348" />
				<path
   d="m 1329.1,544.9 c 0,-2.9 1.2,-3.9 3.1,-3.9 1.9,0 3.1,1 3.1,3.9 0,2.9 -1.2,3.9 -3.1,3.9 -1.9,0 -3.1,-1 -3.1,-3.9 z m 5,0 c 0,-1.7 -0.3,-2.9 -1.9,-2.9 -1.6,0 -1.9,1.2 -1.9,2.9 0,1.7 0.3,2.9 1.9,2.9 1.6,0 1.9,-1.2 1.9,-2.9 z"
   id="path350" />
				<path
   d="m 1347.6,557.2 c 0,0 -1.5,1.1 -4,1.1 -4.2,0 -6.1,-2.5 -6.1,-8.6 0,-6.1 2,-8.6 6.1,-8.6 2.1,0 3.5,0.9 3.7,1 -0.7,1.3 -0.7,1.3 -0.7,1.3 -0.2,-0.1 -1.4,-0.9 -3,-0.9 -2.7,0 -4.5,1.5 -4.5,7.1 0,5.6 1.8,7.1 4.5,7.1 1.8,0 3.2,-0.9 3.2,-0.9 l 0.8,1.4 z"
   id="path352" />
			</g>
		</g>
	</g><g
   transform="translate(-912.29999,-349.89999)"
   id="g744">
		<g
   id="g746">
			<path
   d="m 1395.5,659.5 c 0.8,-0.2 1.3,-1.1 1.1,-1.9 -0.2,-0.8 -1,-1.3 -1.9,-1.1 -14.1,3.8 -28.6,6.4 -43.1,7.7 -0.7,0.1 -1.2,0.6 -1.3,1.2 0,0.1 0,0.3 0,0.4 0.1,0.8 0.8,1.4 1.6,1.4 14.7,-1.3 29.3,-3.9 43.6,-7.7 z"
   id="path748" />
			<path
   d="m 1352.8,681.9 1.1,-6.7 c 4,-0.4 8,-0.8 12,-1.4 l 0.5,7.2 c 0.1,0.8 0.8,1.5 1.6,1.4 0.8,-0.1 1.5,-0.8 1.4,-1.6 l -0.6,-7.4 c 4,-0.6 8,-1.3 12,-2.1 l 2.2,7.2 c 0.2,0.8 1.1,1.2 1.9,1 0.8,-0.2 1.2,-1.1 1,-1.9 l -2.1,-6.9 c 3.9,-0.8 7.9,-1.8 11.8,-2.8 l 1.6,6.4 c 0.2,0.8 1,1.3 1.8,1.1 0.8,-0.2 1.3,-1 1.1,-1.8 l -1.6,-6.5 c 3.2,-0.9 6.4,-1.8 9.6,-2.9 l 3.7,5.8 c 0.5,0.7 1.4,0.9 2.1,0.5 0.7,-0.5 0.9,-1.4 0.5,-2.1 l -3.3,-5.2 c 2,-0.7 4,-1.4 6,-2.1 2,-0.7 3.8,-2 5.3,-3.6 l 6.7,3.9 c 0.7,0.4 1.6,0.2 2.1,-0.6 0.4,-0.7 0.2,-1.6 -0.6,-2.1 l -6.4,-3.7 c 0.9,-1.5 1.5,-3.1 1.9,-4.8 0.4,-1.8 0.4,-3.6 0.1,-5.4 l 5.4,-2.6 c 0.8,-0.4 1.1,-1.3 0.7,-2 -0.4,-0.8 -1.3,-1.1 -2,-0.7 l -4.8,2.3 c -0.9,-2.6 -2.6,-4.6 -4.9,-5.9 l 1.9,-5 c 0.3,-0.8 -0.1,-1.7 -0.9,-2 -0.8,-0.3 -1.7,0.1 -2,0.9 l -1.9,5 c -2.1,-0.5 -4.4,-0.3 -6.7,0.5 -2.9,1.1 -5.9,2.1 -8.9,3 l 0.1,-5.4 c 0,-0.8 -0.6,-1.5 -1.5,-1.6 -0.7,0 -1.4,0.5 -1.5,1.2 0,0.1 0,0.2 0,0.3 l -0.2,6.4 c -4.6,1.4 -9.2,2.7 -13.8,3.8 l 0.1,-5.4 c 0,-0.8 -0.7,-1.5 -1.5,-1.5 -0.7,0 -1.4,0.5 -1.5,1.2 0,0.1 0,0.2 0,0.3 l -0.1,6.2 c -5.1,1.2 -10.2,2.2 -15.3,3 l -0.4,-5.4 c -0.1,-0.8 -0.8,-1.5 -1.6,-1.4 -0.7,0 -1.2,0.6 -1.4,1.2 0,0.1 0,0.3 0,0.4 l 0.4,5.6 c -5,0.8 -10,1.4 -15.1,1.9 l -2.6,-4.9 c -0.4,-0.7 -1.3,-1 -2,-0.6 -0.4,0.2 -0.7,0.6 -0.8,1 -0.1,0.3 0,0.7 0.1,1 l 2.2,4.1 c -3.9,1.2 -6.8,4.1 -7.6,8 0,0.2 -0.1,0.5 -0.1,0.7 l -5.8,-0.2 c -0.7,0 -1.4,0.5 -1.5,1.2 0,0.1 0,0.2 0,0.3 0,0.8 0.6,1.5 1.5,1.6 l 5.9,0.2 c 0.1,0.4 0.1,0.8 0.2,1.2 l 0.2,1.1 c 0.5,2 1.4,3.9 2.6,5.5 l -4.3,2.3 c -0.4,0.2 -0.7,0.6 -0.8,1 -0.1,0.3 0,0.7 0.1,1 0.4,0.7 1.3,1 2,0.6 l 5,-2.7 c 2.2,1.8 4.8,3.1 7.6,3.4 l -1,6.3 c -0.1,0.8 0.4,1.6 1.3,1.7 0.9,0.3 1.7,-0.2 1.8,-1 z m -11.4,-18.7 -0.2,-1.1 c -0.3,-1.3 -0.3,-2.5 -0.1,-3.6 0.7,-3.4 3.6,-5.8 7.5,-6.2 21.7,-1.9 43,-6.7 63.4,-14.1 2.5,-0.9 5,-0.8 7,0.4 1.9,1.1 3.3,3 3.8,5.4 l 0.2,1.1 c 0.3,1.5 0.3,3 0,4.6 -0.8,3.9 -3.6,7.3 -7.1,8.6 -20.2,7.3 -41.3,12 -62.7,13.9 -5.2,0.4 -10.7,-3.7 -11.8,-9 z"
   id="path750" />
			
				<line
   stroke-miterlimit="10"
   x1="1409.6"
   y1="643.70001"
   x2="1413.5"
   y2="644.70001"
   id="line752"
   style="fill:none;stroke:#000000;stroke-width:1.71889997;stroke-linecap:round;stroke-linejoin:round;stroke-miterlimit:10" />
			
				<line
   stroke-miterlimit="10"
   x1="1406.7"
   y1="650.09998"
   x2="1408.2"
   y2="652.5"
   id="line754"
   style="fill:none;stroke:#000000;stroke-width:2.63150001;stroke-linecap:round;stroke-linejoin:round;stroke-miterlimit:10" />
			
				<line
   stroke-miterlimit="10"
   x1="1416.1"
   y1="649.20001"
   x2="1415.1"
   y2="653"
   id="line756"
   style="fill:none;stroke:#000000;stroke-width:1.71889997;stroke-linecap:round;stroke-linejoin:round;stroke-miterlimit:10" />
			
				<line
   stroke-miterlimit="10"
   x1="1417.5"
   y1="651.59998"
   x2="1413.7"
   y2="650.59998"
   id="line758"
   style="fill:none;stroke:#000000;stroke-width:1.71889997;stroke-linecap:round;stroke-linejoin:round;stroke-miterlimit:10" />
			
				<line
   stroke-miterlimit="10"
   x1="1411"
   y1="646.09998"
   x2="1412.1"
   y2="642.29999"
   id="line760"
   style="fill:none;stroke:#000000;stroke-width:1.71889997;stroke-linecap:round;stroke-linejoin:round;stroke-miterlimit:10" />
		</g>
		
			<line
   stroke-miterlimit="10"
   x1="1340.1"
   y1="639"
   x2="1428.6"
   y2="677"
   id="line762"
   style="fill:none;stroke:#ffffff;stroke-width:5.40350008;stroke-linecap:round;stroke-linejoin:round;stroke-miterlimit:10" />
		
			<line
   stroke-miterlimit="10"
   x1="1365.4"
   y1="702.29999"
   x2="1403.3"
   y2="613.70001"
   id="line764"
   style="fill:none;stroke:#ffffff;stroke-width:5.40350008;stroke-linecap:round;stroke-linejoin:round;stroke-miterlimit:10" />
	</g><g
   transform="translate(-912.29999,-349.89999)"
   id="g766">
		<g
   id="XMLID_4_">
			<path
   d="m 1261.7,680.6 c 0,2.2 -0.6,8 -5.8,11.3 -1.8,1.1 -4,1.9 -7,2.2 -1.3,0.1 -2.3,0.1 -3,0.2 -5.6,-0.1 -14.3,-3.8 -14.3,-13.7 0,-4.8 3.6,-8.3 7.5,-12 2.9,-2.8 6,-5.8 7.3,-9.4 6,4.7 15.3,13.6 15.3,21.4 z"
   id="path769"
   style="fill:#f8bbc8" />
			<path
   d="m 1276,667.5 c 0,11.7 -5.4,18.3 -11.6,22 1.4,-2.6 2.1,-5.6 2.1,-8.9 0,-13.7 -19.5,-26.8 -20.3,-27.4 l -3.6,-2.4 0,4.3 c 0,3.7 -3.1,6.6 -6.6,10.1 -3.6,3.5 -7.7,7.5 -8.7,12.9 -0.1,0.8 -0.2,1.6 -0.2,2.4 0,3.6 0.9,6.5 2.1,8.8 -6.5,-4.2 -11.7,-11.2 -11.7,-21.9 0,-9.5 7.2,-16.4 14.2,-23.2 5.9,-5.7 11.9,-11.5 13.6,-18.8 8.2,6.4 30.7,24.6 30.7,42.1 z"
   id="path771"
   style="fill:#ed3f25" />
			<path
   d="m 1280.6,667.5 c 0,22.3 -17.4,30.8 -33.1,31.4 -0.5,0 -1,0 -1.5,0 0,0 -0.1,0 -0.1,0 -0.1,0 -0.3,0 -0.4,0 -7.6,0 -15.7,-2.8 -21.6,-7.5 -5.1,-4.1 -11.2,-11.5 -11.2,-24 0,-11.5 8.3,-19.5 15.6,-26.5 6.5,-6.3 12.6,-12.2 12.6,-19.7 l 0,-4.2 3.6,2.4 c 1.5,1 36.1,24.2 36.1,48.1 z m -16.3,22.1 c 6.3,-3.7 11.6,-10.3 11.6,-22 0,-17.5 -22.4,-35.8 -30.9,-42 -1.7,7.4 -7.7,13.2 -13.6,18.8 -7,6.7 -14.2,13.7 -14.2,23.2 0,10.7 5.2,17.7 11.7,21.9 -1.3,-2.3 -2.1,-5.2 -2.1,-8.8 0,-6.8 4.7,-11.3 8.9,-15.3 3.6,-3.4 6.6,-6.4 6.6,-10.1 l 0,-4.3 3.6,2.4 c 0.8,0.5 20.3,13.6 20.3,27.4 0.2,3.2 -0.5,6.2 -1.9,8.8 z m -15.4,4.6 c 11.8,-1.3 12.8,-10.5 12.8,-13.5 0,-7.9 -9.4,-16.8 -15.3,-21.4 -1.4,3.6 -4.4,6.5 -7.3,9.4 -3.8,3.7 -7.5,7.2 -7.5,12 0,9.9 8.7,13.6 14.3,13.7 0.7,-0.1 1.8,-0.1 3,-0.2 z"
   id="path773"
   style="fill:#ffffff" />
		</g>
	</g><g
   transform="translate(-912.29999,-349.89999)"
   id="g775">
		<path
   d="m 1156.1,652.5 -120.6,0 c -2.4,-4.6 -7.2,-7.7 -12.7,-7.7 -7.9,0 -14.3,6.4 -14.3,14.3 0,7.9 6.4,14.3 14.3,14.3 5.5,0 10.3,-3.1 12.7,-7.7 l 120.6,0 c 3.6,0 6.5,-2.9 6.5,-6.5 0.1,-3.8 -2.8,-6.7 -6.5,-6.7 z"
   id="path777"
   style="fill:#ffffff" />
		<path
   d="m 1145.7,654.3 -111.2,0 -0.5,-1 c -2.6,-5 -8.1,-7.7 -13.8,-6.5 -5,1.1 -8.9,5.2 -9.7,10.2 -1.2,7.8 4.8,14.5 12.3,14.5 4.7,0 8.9,-2.6 11.1,-6.8 l 0.5,-1 111.2,0 c 2.6,0 4.8,-2.1 4.8,-4.8 l 0,0 c 0,-2.5 -2.1,-4.6 -4.7,-4.6 z"
   id="path779"
   style="fill:#ed3f25" />
		<rect
   x="1043.6"
   y="642.70001"
   width="2.0999999"
   height="9.8000002"
   id="rect781"
   style="fill:#ffffff" />
		<rect
   x="1054.5"
   y="647.59998"
   width="2.0999999"
   height="4.9000001"
   id="rect783"
   style="fill:#ffffff" />
		<rect
   x="1065.5"
   y="647.59998"
   width="2.0999999"
   height="4.9000001"
   id="rect785"
   style="fill:#ffffff" />
		<rect
   x="1076.4"
   y="642.70001"
   width="2.0999999"
   height="9.8000002"
   id="rect787"
   style="fill:#ffffff" />
		<rect
   x="1087.4"
   y="647.59998"
   width="2.0999999"
   height="4.9000001"
   id="rect789"
   style="fill:#ffffff" />
		<rect
   x="1098.3"
   y="647.59998"
   width="2.0999999"
   height="4.9000001"
   id="rect791"
   style="fill:#ffffff" />
		<rect
   x="1109.3"
   y="642.70001"
   width="2.0999999"
   height="9.8000002"
   id="rect793"
   style="fill:#ffffff" />
		<rect
   x="1120.3"
   y="647.59998"
   width="2.0999999"
   height="4.9000001"
   id="rect795"
   style="fill:#ffffff" />
		<rect
   x="1131.2"
   y="647.59998"
   width="2.0999999"
   height="4.9000001"
   id="rect797"
   style="fill:#ffffff" />
		<rect
   x="1142.2"
   y="642.70001"
   width="2.0999999"
   height="9.8000002"
   id="rect799"
   style="fill:#ffffff" />
		<path
   d="m 1021,649.1 c -1.6,-1.6 -4.9,-0.8 -7.4,1.7 -2.5,2.5 -3.3,5.9 -1.7,7.4 1.6,1.6 4.9,0.8 7.4,-1.7 2.5,-2.5 3.3,-5.9 1.7,-7.4 z"
   id="path801"
   style="fill:#fafbfb" />
	</g>
</svg>