<?xml version="1.0" encoding="UTF-8" standalone="no"?>
<svg
   xmlns:dc="http://purl.org/dc/elements/1.1/"
   xmlns:cc="http://creativecommons.org/ns#"
   xmlns:rdf="http://www.w3.org/1999/02/22-rdf-syntax-ns#"
   xmlns:svg="http://www.w3.org/2000/svg"
   xmlns="http://www.w3.org/2000/svg"
   id="svg2"
   xml:space="preserve"
   enable-background="new 0 0 1920 1080"
   viewBox="0 0 616.40002 380.10001"
   height="380.10001"
   width="616.40002"
   y="0px"
   x="0px"
   version="1.1"><metadata
   id="metadata807"><rdf:RDF><cc:Work
       rdf:about=""><dc:format>image/svg+xml</dc:format><dc:type
         rdf:resource="http://purl.org/dc/dcmitype/StillImage" /><dc:title></dc:title></cc:Work></rdf:RDF></metadata><defs
   id="defs805">
	
	
	
	
	
	
	
	
	
	
	
	
	
</defs>
<g
   transform="translate(-195.3,-349.89999)"
   id="Capa_2">
</g>
<rect
   x="3.0517579e-006"
   y="3.8964845e-006"
   width="616.40002"
   height="380.10001"
   id="rect354"
   style="fill:#e2f3f3" /><rect
   x="18.500004"
   y="67.20002"
   width="579.29999"
   height="163.7"
   id="rect356"
   style="fill:#ffffff" /><g
   transform="translate(-195.3,-349.89999)"
   id="g358">
		<path
   d="m 412.7,396 -0.1,-0.5 0.5,-2.1 0.2,-0.4 0.1,-0.4 0.1,-0.4 0.6,-2.7 0.4,-1.3 0.1,-0.4 0.4,-1.9 0.1,-0.4 0.3,-0.8 0.1,-0.4 0.6,-2.2 0,-0.4 0.2,-0.5 0.1,-0.9 0.3,-0.9 0.1,-0.3 0.1,-0.5 0.1,-0.4 0.3,-0.9 0.3,-0.4 0.5,-0.3 0.5,-0.1 0.4,0.1 0.5,0.2 0.3,0.4 0.2,0.5 0.1,0.5 0.4,1.3 0.1,0.9 0.5,1.6 0.3,1.4 0.2,0.4 0.1,0.5 0.5,1.7 0.1,0.5 0.4,1.8 0.1,0.5 0.1,0.4 0,0.5 0.4,1.3 0.1,0.8 0.2,0.5 0,0.3 0.5,1.7 0.3,1.4 -0.1,0.4 -0.4,0.2 -0.9,0 -0.5,-0.3 -0.4,-0.4 -0.1,-0.9 -0.1,-0.4 -0.2,-0.4 -0.2,-1 -0.1,-0.4 -0.1,-0.5 -0.2,-0.8 -0.3,-0.5 -0.5,-0.2 -1.3,0 -0.7,-0.1 -0.6,0 -0.4,0.1 -1,0 -0.5,0.2 -0.3,0.5 -0.9,4.1 -0.2,0.4 -0.3,0.4 -0.4,0.3 -0.6,0 -0.4,-0.4 z m 6.3,-7.2 0.9,0 0.4,-0.1 0.1,-0.4 -0.2,-0.9 -0.1,-0.5 -0.1,-0.4 -0.1,-0.3 -0.2,-0.4 -0.1,-0.5 -0.1,-0.4 -0.2,-0.4 -0.1,-0.9 -0.2,-0.8 -0.1,-0.6 -0.3,-1.2 -0.1,-0.9 -0.3,-0.9 -0.1,-0.1 -0.2,0.9 -0.3,1.9 -0.1,0.3 -0.3,1.4 0,0.4 -0.1,0.5 -0.1,0.4 -0.3,0.8 0,0.5 -0.1,0.4 -0.3,0.8 0,0.5 -0.1,0.4 0.1,0.5 0.4,0.2 0.5,0 0.4,0 0.9,0.1 0.5,-0.3 z"
   id="path360" />
		<path
   d="m 426.9,396.3 -0.4,-0.1 -0.3,-0.5 0.1,-2.6 -0.1,-0.4 0,-0.5 0,-0.5 0.1,-0.4 -0.1,-0.5 0.1,-0.4 -0.1,-0.5 0,-0.5 0.1,-0.6 0,-1.7 0,-0.7 0,-0.4 0.1,-1.2 0,-0.6 -0.1,-0.4 0.1,-0.5 -0.1,-0.5 0,-0.4 0,-0.4 0,-1.7 -0.1,-0.5 0,-0.5 0,-0.4 0.1,-0.5 0,-0.8 0.3,-0.5 0.4,-0.3 0.5,0.1 0.4,0 0.5,-0.1 0.9,0 0.5,0.1 0.7,-0.1 0.6,0.1 0.5,0 0.4,0.1 0.4,0.1 0.4,0.2 0.5,0.3 0.4,0.2 0.3,0.3 0.6,0.7 0.3,0.4 0.2,0.4 0.4,0.8 0.1,0.5 0.2,2.1 0,0.7 -0.1,0.5 0,0.5 -0.1,0.4 -0.4,1.2 -0.2,0.4 -0.5,0.7 -0.3,0.3 -0.4,0.3 -0.4,0.4 -0.8,0.4 -1.3,0.4 -2.7,0.2 -0.4,0.2 -0.2,0.4 0.1,0.4 0,3.1 -0.1,0.4 0,1.9 -0.2,0.6 -0.4,0.3 -0.5,-0.4 z m 3.2,-8.9 0.9,-0.2 0.4,-0.2 0.4,-0.1 0.4,-0.2 0.7,-0.7 0.2,-0.4 0.3,-0.3 0.3,-1 0,-0.5 0.1,-0.4 0,-1.3 -0.1,-0.8 -0.1,-0.4 -0.2,-0.6 -0.3,-0.7 -0.3,-0.4 -0.6,-0.5 -0.4,-0.1 -0.5,-0.2 -1.1,-0.1 -0.6,0.1 -0.4,0 -0.4,-0.1 -0.4,0.3 -0.2,0.5 0,0.4 -0.1,2.1 0,0.6 0,0.5 0,0.4 0,0.4 0.1,0.9 -0.1,0.5 0.1,0.7 -0.1,1 0.2,0.5 0.5,0.3 0.7,0.1 0.6,-0.1 z"
   id="path362" />
		<path
   d="m 440.8,396.3 -0.5,0 -0.5,0 -0.5,0 -0.4,-0.2 -0.2,-0.4 -0.1,-0.5 0,-5.1 0,-0.3 -0.1,-0.5 0.1,-1.8 -0.1,-2.2 0.1,-1 -0.1,-0.5 0.1,-0.4 -0.1,-0.7 0,-2.8 0.1,-0.4 -0.1,-1.4 0,-0.4 0,-0.5 0.2,-0.4 0.4,-0.2 0.5,0.1 0.4,0.2 0.3,0.4 0,0.3 0,0.5 0.1,0.4 0,0.9 -0.1,0.4 0.1,0.5 0,0.6 0.1,0.7 0,0.3 0,1.2 -0.1,0.7 0.1,1.8 -0.1,0.4 0.1,2.2 -0.1,0.8 0.1,1 -0.1,1.1 0.1,0.6 -0.1,1.6 0,0.7 0.3,0.4 0.4,0.3 0.9,-0.1 0.4,0.1 3.1,0 0.5,0.2 0.3,0.4 0,0.4 -0.3,0.3 -0.5,0.2 -2.2,0.1 -0.9,-0.1 -0.5,0 -0.4,0.1 -0.7,0 z"
   id="path364" />
		<path
   d="m 449.9,396.3 -0.5,-0.1 -0.3,-0.4 -0.1,-0.8 0,-0.5 0.1,-0.4 0,-0.4 0.1,-0.5 -0.1,-0.4 0,-0.7 -0.1,-0.6 0.1,-0.5 -0.1,-3.1 0.1,-0.4 -0.1,-0.9 0.1,-0.4 0,-0.5 0,-2 0,-0.7 0.1,-0.4 0,-2.2 -0.1,-0.5 0,-0.4 0.1,-0.5 0,-0.4 -0.1,-0.4 0,-0.5 -0.1,-0.4 0.2,-0.5 0.4,-0.3 0.4,0.1 0.5,0.2 0.3,0.4 0,0.4 0.1,1.3 0,0.5 0.1,0.5 0,1 -0.1,0.9 0.1,2.8 -0.1,0.5 0.1,4.5 -0.1,0.9 0,0.4 0.1,0.5 -0.1,0.6 0,0.6 0,0.5 0.1,1.7 0,0.5 0.1,0.4 -0.2,0.5 -0.5,0.2 -0.5,-0.1 z"
   id="path366" />
		<path
   d="m 457.5,396.3 -0.8,-0.4 -0.6,-0.5 -0.3,-0.4 -0.2,-0.3 -0.3,-0.3 -0.2,-0.4 -0.3,-0.8 -0.1,-0.5 -0.1,-0.4 -0.1,-0.3 -0.3,-1.5 0.1,-0.5 -0.1,-1.3 0.1,-0.6 -0.1,-0.4 0,-0.4 -0.1,-0.7 0.1,-0.7 -0.1,-0.4 0.1,-0.7 0,-0.6 0.2,-1.4 0,-0.4 0.1,-0.4 0.1,-0.5 0.1,-0.5 0.2,-0.4 0.1,-0.5 0.2,-0.5 0.1,-0.3 0.2,-0.5 0.5,-0.8 0.3,-0.3 0.7,-0.7 0.4,-0.2 0.4,-0.1 0.4,-0.2 0.5,0 0.4,-0.1 1.3,0 1,0.2 0.8,0.3 0.5,0.1 0.4,0.3 0.3,0.5 -0.1,0.5 -0.3,0.4 -0.5,0.1 -0.4,-0.1 -0.4,-0.3 -0.4,-0.1 -0.4,-0.2 -0.4,-0.1 -0.7,-0.1 -0.7,0.1 -0.4,0 -0.3,0.2 -0.3,0.2 -0.3,0.3 -0.3,0.3 -0.1,0.5 -0.4,0.8 -0.1,0.4 -0.4,2.3 -0.1,4.2 0.1,0.4 0,0.4 0.1,0.4 0,0.5 -0.1,0.5 0.1,0.4 0.1,1.3 0.1,0.9 0.2,0.4 0.1,0.5 0.1,0.3 0.2,0.5 0.2,0.3 0.3,0.3 0.4,0.3 0.4,0.2 0.4,0.1 0.7,0 0.6,-0.1 0.7,-0.1 0.6,-0.1 0.8,-0.3 0.4,-0.3 0.5,0 0.4,0.3 0,0.6 -0.3,0.6 -1.9,0.8 -1,0.2 -0.7,-0.1 -0.7,0.1 -1.7,-0.2 z"
   id="path368" />
		<path
   d="m 464.7,396 -0.1,-0.5 0.5,-2.1 0.2,-0.4 0.1,-0.4 0.1,-0.4 0.6,-2.7 0.4,-1.3 0.1,-0.4 0.4,-1.9 0.1,-0.4 0.3,-0.8 0.1,-0.4 0.6,-2.2 0,-0.4 0.2,-0.5 0.1,-0.9 0.3,-0.9 0.1,-0.3 0.1,-0.5 0.1,-0.4 0.3,-0.9 0.3,-0.4 0.5,-0.3 0.5,-0.1 0.4,0.1 0.5,0.2 0.3,0.4 0.2,0.5 0.1,0.5 0.4,1.3 0.1,0.9 0.5,1.6 0.3,1.4 0.2,0.4 0.1,0.5 0.5,1.7 0.1,0.5 0.4,1.8 0.1,0.5 0.1,0.4 0,0.5 0.4,1.3 0.1,0.8 0.2,0.5 0,0.3 0.5,1.7 0.3,1.4 -0.1,0.4 -0.4,0.2 -0.9,0 -0.5,-0.3 -0.4,-0.4 -0.1,-0.9 -0.1,-0.4 -0.2,-0.4 -0.2,-1 -0.1,-0.4 -0.1,-0.5 -0.2,-0.8 -0.3,-0.5 -0.5,-0.2 -1.3,0 -0.7,-0.1 -0.6,0 -0.4,0.1 -1,0 -0.5,0.2 -0.3,0.5 -0.9,4.1 -0.2,0.4 -0.3,0.4 -0.4,0.3 -0.6,0 -0.4,-0.4 z m 6.3,-7.2 0.9,0 0.4,-0.1 0.1,-0.4 -0.2,-0.9 -0.1,-0.5 -0.1,-0.4 -0.1,-0.3 -0.2,-0.4 -0.1,-0.5 -0.1,-0.4 -0.2,-0.4 -0.1,-0.9 -0.2,-0.8 0,-0.8 -0.3,-1.2 -0.1,-0.9 -0.3,-0.9 -0.1,-0.1 -0.2,0.9 -0.3,1.9 -0.1,0.3 -0.3,1.4 0,0.4 -0.1,0.5 -0.1,0.4 -0.3,0.8 0,0.5 -0.1,0.4 -0.3,0.8 0,0.5 -0.1,0.4 0.1,0.5 0.4,0.2 0.5,0 0.4,0 0.9,0.1 0.4,-0.1 z"
   id="path370" />
		<path
   d="m 481,396.3 -0.8,-0.4 -0.6,-0.5 -0.3,-0.4 -0.2,-0.3 -0.3,-0.3 -0.2,-0.4 -0.3,-0.8 -0.1,-0.5 -0.1,-0.4 -0.1,-0.3 -0.3,-1.5 0.1,-0.5 -0.1,-1.3 0.1,-0.6 -0.1,-0.4 0,-0.4 -0.1,-0.7 0.1,-0.7 -0.1,-0.4 0.1,-0.7 0,-0.6 0.2,-1.4 0,-0.4 0.1,-0.4 0.1,-0.5 0.1,-0.5 0.2,-0.4 0.1,-0.5 0.2,-0.5 0.1,-0.3 0.2,-0.5 0.5,-0.8 0.3,-0.3 0.7,-0.7 0.4,-0.2 0.4,-0.1 0.4,-0.2 0.5,0 0.4,-0.1 1.3,0 1,0.2 0.8,0.3 0.5,0.1 0.4,0.3 0.3,0.5 -0.1,0.5 -0.3,0.4 -0.5,0.1 -0.4,-0.1 -0.4,-0.3 -0.4,-0.1 -0.4,-0.2 -0.4,-0.1 -0.7,-0.1 -0.7,0.1 -0.4,0 -0.3,0.2 -0.3,0.2 -0.3,0.3 -0.3,0.3 -0.1,0.5 -0.4,0.8 -0.1,0.4 -0.4,2.3 -0.1,4.2 0.1,0.4 0,0.4 0.1,0.4 0,0.5 -0.1,0.5 0.1,0.4 0.1,1.3 0.1,0.9 0.2,0.4 0.1,0.5 0.1,0.3 0.2,0.5 0.2,0.3 0.3,0.3 0.4,0.3 0.4,0.2 0.4,0.1 0.7,0 0.6,-0.1 0.7,-0.1 0.6,-0.1 0.8,-0.3 0.4,-0.3 0.5,0 0.4,0.3 0,0.6 -0.3,0.6 -1.9,0.8 -1,0.2 -0.7,-0.1 -0.7,0.1 -1.7,-0.2 z"
   id="path372" />
		<path
   d="m 490.7,396.3 -0.5,-0.1 -0.3,-0.4 -0.1,-0.8 0,-0.5 0.1,-0.4 0,-0.4 0.1,-0.5 -0.1,-0.4 0,-0.7 -0.1,-0.6 0.1,-0.5 -0.1,-3.1 0.1,-0.4 -0.1,-0.9 0.1,-0.4 0,-0.5 0,-2 0,-0.7 0.1,-0.4 0,-2.2 -0.1,-0.5 0,-0.4 0.1,-0.5 0,-0.4 -0.1,-0.4 0,-0.5 -0.1,-0.4 0.2,-0.5 0.4,-0.3 0.4,0.1 0.5,0.2 0.3,0.4 0,0.4 0.1,1.3 0,0.5 0.1,0.5 0,1 -0.1,0.9 0.1,2.8 -0.1,0.5 0.1,4.5 -0.1,0.9 0,0.4 0.1,0.5 -0.1,0.6 0,0.6 0,0.5 0.1,1.7 0,0.5 0.1,0.4 -0.2,0.5 -0.5,0.2 -0.5,-0.1 z"
   id="path374" />
		<path
   d="m 499.1,396.6 -0.4,-0.1 -0.4,-0.1 -0.3,-0.2 -0.7,-0.5 -0.6,-0.6 -0.3,-0.4 -0.2,-0.3 -0.3,-0.8 -0.2,-0.4 -0.3,-0.9 -0.4,-3.3 0.1,-0.5 -0.1,-0.5 0,-0.4 0.1,-0.4 0,-2.8 0.1,-0.4 0,-0.5 0,-0.5 0,-0.4 0.1,-0.5 0.2,-1.4 0.4,-1.3 0.2,-0.3 0.1,-0.5 0.3,-0.3 0.2,-0.5 0.3,-0.4 0.4,-0.2 0.3,-0.3 0.4,-0.3 0.4,-0.2 0.4,-0.2 0.4,-0.1 0.4,-0.1 0.7,-0.1 0.6,0.1 0.5,0.1 0.4,0.1 0.4,0.1 0.4,0.2 0.7,0.4 0.3,0.3 0.6,0.7 0.4,0.8 0.3,0.8 0.2,0.4 0.1,0.5 0.5,3.3 0,0.5 -0.1,0.4 0.1,2.7 -0.1,0.9 0,0.9 -0.1,0.4 -0.1,1.4 -0.5,1.1 -0.2,0.9 -0.5,1.3 -0.5,0.7 -0.3,0.4 -0.3,0.3 -0.7,0.5 -0.3,0.2 -0.4,0 -0.4,0.1 -0.5,0.1 -0.7,0 -0.6,0 -0.5,0.1 z m 2,-1.7 0.4,-0.1 0.3,-0.3 0.3,-0.3 0.5,-0.6 0.3,-0.8 0.2,-0.4 0.1,-0.5 0.1,-0.6 0.1,-0.9 0.1,-1.3 0,-0.5 0.1,-0.4 0,-2.4 0.1,-0.4 -0.1,-0.9 0,-0.5 -0.1,-1.7 -0.2,-0.9 0,-0.5 -0.2,-0.4 -0.1,-0.4 -0.1,-0.5 -0.2,-0.4 -0.3,-0.4 -0.6,-0.6 -0.4,-0.1 -0.5,-0.1 -0.6,0 -0.6,-0.1 -0.4,0.1 -0.4,0.1 -0.3,0.2 -0.6,0.6 -0.4,0.7 -0.4,1.4 -0.2,1.3 -0.1,1 0,0.4 -0.1,1.3 0.1,1.2 -0.1,0.7 0,0.4 0.1,0.4 0,1.8 0.1,0.3 0,0.9 0.3,1.5 0.3,0.8 0.2,0.4 0.6,0.6 0.4,0.2 0.3,0.3 0.4,0.1 1.3,0 0.3,0.3 z m -1.9,-19.9 0,-0.4 0.4,-0.7 0.2,-0.4 0.2,-0.4 0.5,-0.3 0.5,-0.3 0.5,0 0.2,0.3 0,0.3 -0.3,0.4 -0.3,0.4 -0.2,0.3 -0.3,0.4 -0.5,0.5 -0.6,0.1 -0.3,-0.2 z"
   id="path376" />
		<path
   d="m 516.1,396.1 -0.4,-0.4 -0.2,-0.4 -0.6,-1.7 -0.1,-0.5 -0.2,-0.4 -0.1,-0.4 -0.5,-1.3 -0.1,-0.3 -0.6,-1.7 -0.2,-1 -0.2,-0.4 -0.1,-0.5 -0.2,-0.3 -0.3,-0.9 -0.2,-0.4 -0.1,-0.4 -0.2,-0.4 -1.1,-3.5 -0.1,-0.4 -0.4,-1.3 -0.2,-0.4 -0.1,0 0,0.4 0,0.5 0.1,0.5 0,0.5 0.1,0.4 0,0.4 0.1,0.5 0,0.7 0.1,2.5 -0.1,0.4 0.1,1.8 0,0.5 0.1,0.5 0,0.4 -0.1,0.4 0,1 0.1,0.7 -0.1,0.6 0.1,0.5 0,0.4 0,0.4 0.1,0.5 -0.1,0.5 0.1,1.8 -0.3,0.4 -0.7,0.2 -0.6,-0.2 -0.2,-0.4 0,-2.2 0.1,-0.4 -0.1,-0.5 0,-1.8 -0.1,-1.1 0,-0.4 0,-0.7 0.1,-0.5 -0.1,-1.1 0,-1.2 0,-0.5 0,-0.4 0,-0.5 0.1,-0.4 -0.1,-0.4 0.1,-0.9 0,-0.5 -0.1,-0.4 0,-1.4 0,-0.5 0.1,-2.1 0,-0.5 0.2,-0.5 0.6,-0.2 0.7,0 0.5,-0.1 0.5,0.3 0.4,0.5 0.2,0.4 0.1,0.4 0.1,0.5 0.4,0.8 1.5,4.8 0.1,0.4 0.1,0.4 0.2,0.4 0.4,1.2 0.2,0.9 0.9,2.7 0.1,0.7 0.1,0.4 0.2,0.5 0.1,0.5 0.1,0.4 0.3,1 0.2,0.4 0.1,0 0,-1.4 -0.1,-0.8 0.1,-0.5 0,-0.5 -0.1,-0.6 0.1,-0.6 -0.1,-0.6 0.1,-1.1 -0.1,-0.4 0,-5.8 -0.1,-0.7 0.1,-0.6 -0.1,-0.4 0.1,-0.4 0,-0.5 0,-0.4 -0.1,-1.3 0.2,-0.4 0.4,-0.1 0.5,0 0.4,0.1 0.3,0.4 0.1,0.4 0.1,0.8 -0.1,0.5 0.1,0.5 -0.1,0.4 0.1,2.3 -0.1,0.3 0.1,1 0,0.4 -0.1,0.4 0.1,2.3 -0.1,0.4 0.1,0.5 0,1.9 0,0.4 -0.1,0.4 0.1,0.4 0,0.4 -0.1,0.5 0.1,1.8 -0.1,0.4 0,0.5 0.1,0.5 -0.1,0.4 0,0.4 -0.2,0.6 -0.4,0.2 -0.4,0 -0.5,0 -0.4,0.1 -0.7,-0.7 z"
   id="path378" />
		<path
   d="m 526.4,396.1 -0.2,-0.5 0,-0.4 0.1,-0.4 -0.1,-0.5 0.1,-0.4 0,-1 -0.1,-0.4 0,-1.4 0.1,-0.5 -0.1,-0.3 0,-0.5 0,-0.5 0.1,-0.4 -0.1,-0.6 0,-0.7 -0.1,-0.4 0.1,-0.7 0,-0.7 0,-0.6 0,-0.8 0,-0.4 0,-0.4 0.1,-0.5 -0.1,-0.6 0.1,-0.4 -0.1,-0.5 0.1,-2.2 -0.1,-0.9 0.1,-1.3 0.2,-0.4 0.4,-0.3 1.9,0 0.5,-0.1 0.6,0.1 1.2,0 0.4,0.1 0.4,0 0.8,0.3 0.8,0.4 1,1 0.2,0.3 0.2,0.4 0.2,0.3 0.4,1.3 0.1,0.5 0.1,0.4 0.1,0.4 0,0.5 0,0.5 0.1,0.5 0,0.4 0.1,0.5 0,2.8 -0.1,0.5 0,0.9 -0.1,1.4 -0.1,0.4 -0.1,0.5 -0.1,0.8 -0.1,0.5 -0.1,0.5 -0.5,1.3 -0.3,0.3 -0.3,0.4 -0.3,0.3 -0.3,0.3 -0.3,0.2 -0.4,0.3 -0.4,0.2 -0.6,0.2 -0.7,0.1 -0.4,0 -0.4,0 -1.8,0.1 -0.4,-0.1 -1,0.1 -0.8,-0.2 z m 4.3,-1.4 0.4,-0.1 0.8,-0.4 0.4,-0.1 0.3,-0.3 0.3,-0.4 0.3,-0.3 0.3,-0.8 0.3,-0.8 0.2,-1 0,-1 0.1,-0.4 0.1,-3.3 -0.2,-2.7 -0.1,-0.5 0,-0.4 -0.1,-0.4 -0.1,-0.4 -0.2,-0.9 -0.4,-0.7 -0.3,-0.4 -0.4,-0.2 -0.3,-0.3 -0.4,-0.3 -0.4,-0.1 -0.5,-0.1 -0.4,-0.2 -1.3,0 -0.4,0.1 -0.5,0.3 -0.2,0.4 0,0.4 -0.1,0.6 0,0.4 0.1,0.4 -0.1,0.5 0,0.9 0,0.3 0,3 -0.1,0.5 0,0.6 0,0.4 0,2.2 -0.1,0.4 0.1,0.5 -0.1,1.4 0.1,0.4 0,0.4 -0.1,0.4 0,1.2 0.3,0.6 0.4,0.2 1,0 0.7,0.1 0.6,-0.1 z"
   id="path380" />
		<path
   d="m 545.9,396.3 -0.9,0 -0.4,0 -0.5,0.1 -0.4,-0.1 -0.9,0.1 -0.5,-0.1 -0.4,0.1 -0.4,-0.1 -0.9,0.1 -0.9,0 -0.4,-0.2 -0.3,-0.4 0.1,-3.2 -0.1,-1.4 0,-0.5 0.1,-0.4 -0.1,-0.5 0.1,-0.4 0,-0.4 -0.1,-0.5 0,-0.5 0,-0.8 0,-0.5 0,-0.5 0.1,-0.5 -0.1,-0.5 0.1,-1.3 0,-0.6 0,-0.4 0,-0.9 0,-0.5 -0.1,-0.6 0.1,-1.1 -0.1,-0.4 0,-0.4 0,-0.3 0,-0.5 0,-0.5 -0.1,-0.4 0.2,-0.5 0.4,-0.2 0.5,0.1 0.4,-0.1 0.4,0.1 1.3,-0.1 2.3,0.1 1.3,0 0.4,0 0.4,0.2 0.3,0.3 0,0.4 -0.3,0.4 -0.7,0.3 -0.6,-0.1 -0.4,-0.1 -0.5,0 -0.4,0.1 -0.5,-0.1 -1,0 -0.9,0.1 -0.5,0.3 -0.3,0.6 0,1.6 0.1,0.9 -0.1,0.4 0.1,1.3 -0.1,0.5 0.1,0.4 0,0.5 0.2,0.6 0.5,0.2 0.4,0 0.4,-0.1 0.7,0 0.8,0 0.7,0.1 0.8,0 0.5,-0.1 0.5,0.2 0.2,0.5 -0.2,0.6 -0.3,0.3 -0.8,0.1 -0.4,-0.1 -1,0 -0.4,-0.1 -0.5,0.1 -0.9,0 -0.5,-0.1 -0.4,0.3 -0.2,0.4 0.1,0.4 0,0.5 0.1,0.5 0,0.5 -0.1,0.5 0.1,0.5 -0.1,2.9 0,0.5 0.2,0.6 0.5,0.2 0.9,0 0.5,0.1 0.5,-0.1 1,0 0.5,0.1 0.4,-0.1 0.5,0 0.4,0 0.5,0.2 0.3,0.4 0,0.4 -0.2,0.4 -0.5,0.2 -0.6,0 z"
   id="path382" />
		<path
   d="m 554.6,396 -0.2,-0.4 0.1,-6.7 -0.1,-0.5 0.1,-0.9 -0.1,-0.6 0.1,-0.3 0,-0.4 0,-0.5 -0.1,-0.4 0,-0.5 -0.1,-0.5 0,-0.5 0.1,-0.4 0,-0.4 0,-0.4 -0.1,-0.5 0.1,-0.4 0,-1.3 -0.1,-1 0.1,-0.4 0,-0.8 -0.1,-0.9 0.1,-0.5 0.4,-0.3 0.5,0 2.2,0.1 0.6,-0.1 2,0 0.5,0 0.4,0.1 0.4,-0.1 0.4,0.3 0.3,0.5 -0.3,0.5 -0.4,0.3 -0.7,0 -0.6,-0.1 -0.4,0.1 -0.5,0 -0.4,-0.1 -0.4,0.1 -0.5,-0.1 -0.9,0.1 -0.5,0.3 -0.2,0.4 0,0.4 -0.1,0.9 0,0.8 0,0.5 0,0.4 -0.1,0.9 0.1,0.4 -0.1,0.5 0,0.5 0.1,0.9 0.3,0.4 0.4,0.2 1,-0.1 1.8,0.1 0.4,-0.1 0.9,0.1 0.4,0.3 0.2,0.4 -0.3,0.6 -0.4,0.2 -0.5,0 -0.5,-0.1 -0.5,0.1 -0.4,-0.1 -0.5,0.1 -0.9,-0.1 -0.5,0 -0.8,0.3 -0.2,0.5 -0.1,0.4 0.1,0.5 0,2.3 0.1,0.4 -0.1,0.4 0,0.5 0.1,1 -0.1,0.9 0,0.5 0,0.4 0,0.4 -0.2,0.5 -0.5,0.3 -0.5,0 -0.3,-0.3 z"
   id="path384" />
		<path
   d="m 573.5,396.3 -0.5,-0.3 -0.3,-0.5 -0.3,-0.7 -0.1,-0.4 -0.2,-0.4 -0.1,-0.4 -0.2,-0.4 -0.1,-0.4 -0.4,-0.8 -0.1,-0.4 -0.4,-0.8 -0.2,-0.4 -0.3,-0.9 -0.2,-0.4 -0.3,-0.4 -0.4,-0.4 -0.4,0 -1,-0.1 -0.4,0 -0.4,0.3 -0.1,0.5 0.1,0.4 0,0.4 0,0.5 0,5.1 -0.1,0.4 -0.3,0.4 -0.5,0.1 -0.4,-0.1 -0.3,-0.3 -0.1,-0.4 0,-0.4 0.1,-1 -0.1,-0.8 0,-0.8 0.1,-1.1 0,-0.5 0,-0.5 -0.1,-1.5 0.1,-0.5 0,-0.5 -0.1,-0.5 0.1,-0.8 0,-2.2 -0.1,-0.5 0,-0.9 0.1,-0.4 0,-0.6 -0.1,-0.4 0,-0.4 0.1,-0.5 0,-0.7 -0.1,-0.6 0.1,-0.4 0,-0.4 -0.1,-0.9 0.1,-0.5 0.5,-0.4 0.8,0 0.5,-0.1 0.5,0 0.5,0.1 0.4,-0.1 0.6,0.1 0.7,0 0.6,0.1 0.4,-0.1 0.5,0.2 0.4,0.1 0.5,0.2 0.8,0.4 0.3,0.3 0.3,0.4 0.3,0.3 0.1,0.3 0.3,0.4 0.3,0.9 0.1,0.9 0.1,0.6 -0.1,0.7 -0.1,0.5 -0.1,0.4 0,0.5 -0.1,0.5 -0.3,0.8 -0.2,0.4 -0.3,0.4 -0.2,0.4 -0.3,0.3 -0.4,0.3 -0.4,0.3 -0.4,0.3 -0.2,0.4 0.1,0.5 0.6,1.7 0.2,0.4 0.1,0.4 0.1,0.4 0.2,0.4 0.1,0.4 0.2,0.5 0.5,1.1 0.2,0.6 0.4,0.8 0.2,0.4 0,0.4 -0.3,0.4 -0.4,0.1 -0.7,-0.2 z m -3.9,-9.7 0.4,-0.1 0.4,0 0.5,-0.1 0.4,-0.3 0.4,-0.2 0.3,-0.3 0.6,-1.1 0.2,-0.5 0,-0.5 0.1,-0.4 0,-0.7 -0.1,-1.8 -0.1,-0.4 -0.8,-1.1 -0.4,-0.3 -0.3,-0.2 -0.4,-0.1 -1.1,-0.2 -1.2,-0.1 -0.5,0.1 -0.4,0.1 -0.3,0.3 -0.2,0.5 0,0.4 0,0.9 -0.1,0.6 0,0.6 0.1,0.5 -0.1,1.1 0,0.6 0,0.5 0.1,0.4 0,0.5 0,0.4 0.1,0.4 0.3,0.4 0.6,0.1 1.5,0 z"
   id="path386" />
		<path
   d="m 578.8,396.3 -0.5,-0.1 -0.3,-0.4 -0.1,-0.8 0,-0.5 0.1,-0.4 0,-0.4 0.1,-0.5 -0.1,-0.4 0,-0.7 -0.1,-0.6 0.1,-0.5 -0.1,-3.1 0.1,-0.4 -0.1,-0.9 0.1,-0.4 0,-0.5 0,-2 0,-0.7 0.1,-0.4 0,-2.2 -0.1,-0.5 0,-0.4 0.1,-0.5 0,-0.4 -0.1,-0.4 0,-0.5 -0.1,-0.4 0.2,-0.5 0.4,-0.3 0.4,0.1 0.5,0.2 0.3,0.4 0,0.4 0.1,1.3 0,0.5 0.1,0.5 0,1 -0.1,0.9 0.1,2.8 -0.1,0.5 0.1,4.5 -0.1,0.9 0,0.4 0.1,0.5 -0.1,0.6 0,0.6 0,0.5 0.1,1.7 0,0.5 0.1,0.4 -0.2,0.5 -0.5,0.2 -0.5,-0.1 z m -0.9,-21.3 0,-0.4 0.4,-0.7 0.2,-0.4 0.2,-0.4 0.5,-0.3 0.5,-0.3 0.5,0 0.2,0.3 0,0.3 -0.3,0.4 -0.3,0.4 -0.2,0.3 -0.3,0.4 -0.5,0.5 -0.6,0.1 -0.3,-0.2 z"
   id="path388" />
		<path
   d="m 587.2,396.6 -0.4,-0.1 -0.4,-0.1 -0.3,-0.2 -0.7,-0.5 -0.6,-0.6 -0.3,-0.4 -0.2,-0.3 -0.3,-0.8 -0.2,-0.4 -0.3,-0.9 -0.4,-3.3 0.1,-0.5 -0.1,-0.5 0,-0.4 0.1,-0.4 0,-2.8 0.1,-0.4 0,-0.5 0,-0.5 0,-0.4 0.1,-0.5 0.2,-1.4 0.4,-1.3 0.2,-0.3 0.1,-0.5 0.3,-0.3 0.2,-0.5 0.3,-0.4 0.4,-0.2 0.3,-0.3 0.4,-0.3 0.4,-0.2 0.4,-0.2 0.4,-0.1 0.4,-0.1 0.7,-0.1 0.6,0.1 0.5,0.1 0.4,0.1 0.4,0.1 0.4,0.2 0.7,0.4 0.3,0.3 0.6,0.7 0.4,0.8 0.3,0.8 0.2,0.4 0.1,0.5 0.4,3.3 0,0.5 -0.1,0.4 0.1,2.7 -0.1,0.9 0,0.9 -0.1,0.4 -0.1,1.4 -0.1,0.8 -0.2,0.9 -0.5,1.3 -0.5,0.7 -0.3,0.4 -0.3,0.3 -0.7,0.5 -0.3,0.2 -0.4,0 -0.4,0.1 -0.5,0.1 -0.7,0 -0.6,0 -0.8,0.4 z m 2,-1.7 0.4,-0.1 0.3,-0.3 0.3,-0.3 0.5,-0.6 0.3,-0.8 0.2,-0.4 0.1,-0.5 0.1,-0.6 0.1,-0.9 0.1,-1.3 0,-0.5 0.1,-0.4 0,-2.4 0.1,-0.4 -0.1,-0.9 0,-0.5 -0.1,-1.7 -0.2,-0.9 0,-0.5 -0.2,-0.4 -0.1,-0.4 -0.1,-0.5 -0.2,-0.4 -0.3,-0.4 -0.6,-0.6 -0.4,-0.1 -0.5,-0.1 -0.6,0 -0.6,-0.1 -0.4,0.1 -0.4,0.1 -0.3,0.2 -0.6,0.6 -0.4,0.7 -0.4,1.4 -0.2,1.3 -0.1,1 0,0.4 -0.1,1.3 0.1,1.2 -0.1,0.7 0,0.4 0.1,0.4 0,1.8 0.1,0.3 0,0.9 0.3,1.5 0.3,0.8 0.2,0.4 0.6,0.6 0.4,0.2 0.3,0.3 0.4,0.1 1.3,0 0.3,0.3 z"
   id="path390" />
	</g><g
   transform="translate(-195.3,-349.89999)"
   id="g392">
		<g
   id="g394">
			<path
   d="m 254.2,449.6 -0.4,0 -3.6,-6.4 0,10.8 -3,0 0,-16.8 2.8,0 3.9,7.5 3.9,-7.5 2.8,0 0,16.8 -3,0 0,-10.8 -3.4,6.4 z"
   id="path396" />
			<path
   d="m 265.9,448.9 c 0.1,2 0.8,2.9 2.3,2.9 1.5,0 2.9,-0.5 2.9,-0.5 l 0.8,2.2 c -0.9,0.4 -2.1,0.8 -3.7,0.8 -3.7,0 -5.2,-2.3 -5.2,-6.2 0,-3.9 1.4,-6.2 4.9,-6.2 3.6,0 4.7,2.2 4.7,7.1 l -6.7,0 z m 0,-2.1 3.8,0 c 0,-1.4 -0.4,-2.7 -1.9,-2.7 -1.2,0 -1.8,1 -1.9,2.7 z m 2.1,-10.2 2.9,0 -1.8,3.8 -2,0 0.9,-3.8 z"
   id="path398" />
			<path
   d="m 277.9,442 2.6,0 0,2.4 -2.6,0 0,5.4 c 0,1 0.3,1.9 1.4,1.9 0.6,0 1.4,-0.3 1.4,-0.3 l 0.7,2.2 c 0,0 -1.1,0.5 -2.2,0.5 -3.1,0 -4.2,-2.2 -4.2,-4.1 l 0,-5.7 -1.4,0 0,-2.3 1.4,0 0,-3.1 2.9,0 0,3.1 z"
   id="path400" />
			<path
   d="m 282.5,448.1 c 0,-3.9 1.4,-6.2 5.1,-6.2 3.7,0 5.1,2.3 5.1,6.2 0,3.9 -1.4,6.2 -5.1,6.2 -3.7,0 -5.1,-2.3 -5.1,-6.2 z m 7.3,0 c 0,-2.5 -0.4,-3.8 -2.2,-3.8 -1.8,0 -2.2,1.3 -2.2,3.8 0,2.5 0.4,3.8 2.2,3.8 1.8,-0.1 2.2,-1.3 2.2,-3.8 z"
   id="path402" />
			<path
   d="m 301.6,437.2 2.9,0 0,16.8 -2.3,0 -0.4,-1 c -0.7,0.7 -1.6,1.2 -2.8,1.2 -3,0 -4.6,-2.5 -4.6,-6.2 0,-3.6 1.6,-6.2 4.6,-6.2 1,0 1.8,0.4 2.6,1.1 l 0,-5.7 z m -1.8,14.8 c 0.7,0 1.4,-0.5 1.8,-1 l 0,-5.9 c -0.4,-0.5 -1.1,-1 -1.8,-1 -1.6,0 -2.5,1.4 -2.5,3.9 0,2.6 0.9,4 2.5,4 z"
   id="path404" />
			<path
   d="m 306.5,448.1 c 0,-3.9 1.4,-6.2 5.1,-6.2 3.7,0 5.1,2.3 5.1,6.2 0,3.9 -1.4,6.2 -5.1,6.2 -3.7,0 -5.1,-2.3 -5.1,-6.2 z m 7.3,0 c 0,-2.5 -0.4,-3.8 -2.2,-3.8 -1.8,0 -2.2,1.3 -2.2,3.8 0,2.5 0.4,3.8 2.2,3.8 1.8,-0.1 2.2,-1.3 2.2,-3.8 z"
   id="path406" />
			<path
   d="m 329.9,437.2 2.9,0 0,16.8 -2.3,0 -0.4,-1 c -0.7,0.7 -1.6,1.2 -2.8,1.2 -3,0 -4.6,-2.5 -4.6,-6.2 0,-3.6 1.6,-6.2 4.6,-6.2 1,0 1.8,0.4 2.6,1.1 l 0,-5.7 z m -1.8,14.8 c 0.7,0 1.4,-0.5 1.8,-1 l 0,-5.9 c -0.4,-0.5 -1.1,-1 -1.8,-1 -1.6,0 -2.5,1.4 -2.5,3.9 0,2.6 0.9,4 2.5,4 z"
   id="path408" />
			<path
   d="m 337.8,448.9 c 0.1,2 0.8,2.9 2.3,2.9 1.5,0 2.9,-0.5 2.9,-0.5 l 0.8,2.2 c -0.9,0.4 -2.1,0.8 -3.7,0.8 -3.7,0 -5.2,-2.3 -5.2,-6.2 0,-3.9 1.4,-6.2 4.9,-6.2 3.6,0 4.7,2.2 4.7,7.1 l -6.7,0 z m 0,-2.1 3.8,0 c 0,-1.4 -0.4,-2.7 -1.9,-2.7 -1.3,0 -1.8,1 -1.9,2.7 z"
   id="path410" />
			<path
   d="m 358.2,453.6 c -0.7,0.4 -1.7,0.7 -2.7,0.7 -3.8,0 -5.1,-2.3 -5.1,-6.2 0,-3.9 1.4,-6.2 5.1,-6.2 1.2,0 2.4,0.5 2.8,0.8 l -1,2 c -0.4,-0.2 -1,-0.4 -1.8,-0.4 -1.8,0 -2.3,1.3 -2.3,3.8 0,2.5 0.3,3.8 2.3,3.8 1.1,0 1.8,-0.4 1.8,-0.4 l 0.9,2.1 z"
   id="path412" />
			<path
   d="m 359.7,448.1 c 0,-3.9 1.4,-6.2 5.1,-6.2 3.7,0 5.1,2.3 5.1,6.2 0,3.9 -1.4,6.2 -5.1,6.2 -3.7,0 -5.1,-2.3 -5.1,-6.2 z m 7.3,0 c 0,-2.5 -0.4,-3.8 -2.2,-3.8 -1.8,0 -2.2,1.3 -2.2,3.8 0,2.5 0.4,3.8 2.2,3.8 1.8,-0.1 2.2,-1.3 2.2,-3.8 z"
   id="path414" />
			<path
   d="m 378.8,446.1 c 0,-1.3 -0.2,-2.1 -1.5,-2.1 -1.2,0 -2.3,0.7 -2.5,1 l 0,9 -2.9,0 0,-12 2.1,0 0.6,1.1 c 0.8,-0.6 2.2,-1.3 3.6,-1.3 2.9,0 3.5,1.7 3.5,3.9 l 0,8.3 -2.9,0 0,-7.9 z"
   id="path416" />
			<path
   d="m 387.2,454.2 c -2.3,0 -3.8,-1.2 -3.8,-1.3 l 1.2,-1.9 c 0,0 1.1,0.9 2.4,0.9 1.3,0 1.8,-0.7 1.8,-1.4 0,-0.5 -0.2,-0.8 -2,-1.7 -2.4,-1.2 -3,-2.3 -3,-3.6 0,-2.1 1.9,-3.4 4,-3.4 2.3,0 3.7,1 3.7,1 l -1.1,1.9 c 0,0 -1.2,-0.7 -2.4,-0.7 -0.9,0 -1.3,0.4 -1.3,1 0,0.6 0.5,0.9 1.7,1.6 2.8,1.4 3.3,2.3 3.3,3.8 0,2.3 -2.2,3.8 -4.5,3.8 z"
   id="path418" />
			<path
   d="m 396.3,448.9 c 0.1,2 0.8,2.9 2.3,2.9 1.5,0 2.9,-0.5 2.9,-0.5 l 0.8,2.2 c -0.9,0.4 -2.1,0.8 -3.7,0.8 -3.7,0 -5.2,-2.3 -5.2,-6.2 0,-3.9 1.4,-6.2 4.9,-6.2 3.6,0 4.7,2.2 4.7,7.1 l -6.7,0 z m 0,-2.1 3.8,0 c 0,-1.4 -0.4,-2.7 -1.9,-2.7 -1.3,0 -1.8,1 -1.9,2.7 z"
   id="path420" />
			<path
   d="m 410.5,444.5 c -0.2,0 -0.5,-0.1 -0.8,-0.1 -1.3,0 -1.8,0.8 -1.8,0.8 l 0,8.9 -2.9,0 0,-12 2.1,0 0.6,1.1 c 0.2,-0.3 1.1,-1.3 2.8,-1.3 0.2,0 0.5,0 0.6,0.1 l -0.6,2.5 z"
   id="path422" />
			<path
   d="m 417.2,451.1 2.7,-9.1 3,0 -3.9,12 -3.6,0 -3.9,-12 3,0 2.7,9.1 z"
   id="path424" />
			<path
   d="m 429.5,446.5 0.9,0 0,-0.7 c 0,-0.8 -0.3,-1.7 -1.8,-1.7 -1.5,0 -3.2,0.5 -3.2,0.5 l -0.6,-2.1 c 0,0 1.7,-0.7 4,-0.7 2.5,0 4.5,1 4.5,3.8 l 0,8.4 -2.3,0 -0.4,-1.1 c -0.8,0.7 -1.8,1.2 -3.1,1.2 -2.5,0 -3.6,-1.9 -3.6,-3.8 -0.2,-1.7 1.3,-3.8 5.6,-3.8 z m 0.9,4.5 0,-2.4 -1.2,0 c -1.6,0 -2.5,0.8 -2.5,1.7 0,1.1 0.7,1.8 1.7,1.8 0.8,-0.1 1.5,-0.6 2,-1.1 z"
   id="path426" />
			<path
   d="m 443,453.6 c -0.7,0.4 -1.7,0.7 -2.7,0.7 -3.8,0 -5.1,-2.3 -5.1,-6.2 0,-3.9 1.4,-6.2 5.1,-6.2 1.2,0 2.4,0.5 2.8,0.8 l -1,2 c -0.4,-0.2 -1,-0.4 -1.8,-0.4 -1.8,0 -2.3,1.3 -2.3,3.8 0,2.5 0.3,3.8 2.3,3.8 1.1,0 1.8,-0.4 1.8,-0.4 l 0.9,2.1 z"
   id="path428" />
			<path
   d="m 446.5,437 c 0.9,0 1.7,0.7 1.7,1.7 0,0.9 -0.7,1.7 -1.7,1.7 -1,0 -1.7,-0.7 -1.7,-1.7 0,-0.9 0.8,-1.7 1.7,-1.7 z m -1.4,5 2.9,0 0,12 -2.9,0 0,-12 z"
   id="path430" />
			<path
   d="m 450.2,448.1 c 0,-3.9 1.4,-6.2 5.1,-6.2 3.7,0 5.1,2.3 5.1,6.2 0,3.9 -1.4,6.2 -5.1,6.2 -3.7,0 -5.1,-2.3 -5.1,-6.2 z m 7.3,0 c 0,-2.5 -0.4,-3.8 -2.2,-3.8 -1.8,0 -2.2,1.3 -2.2,3.8 0,2.5 0.4,3.8 2.2,3.8 1.8,-0.1 2.2,-1.3 2.2,-3.8 z m -2.3,-11.5 2.9,0 -1.8,3.8 -2,0 0.9,-3.8 z"
   id="path432" />
			<path
   d="m 469.4,446.1 c 0,-1.3 -0.2,-2.1 -1.5,-2.1 -1.2,0 -2.3,0.7 -2.5,1 l 0,9 -2.9,0 0,-12 2.1,0 0.6,1.1 c 0.8,-0.6 2.2,-1.3 3.6,-1.3 2.9,0 3.5,1.7 3.5,3.9 l 0,8.3 -2.9,0 0,-7.9 z"
   id="path434" />
			<path
   d="m 257.5,468 c 0,3.1 -1.2,4.5 -3.9,4.8 l 3.8,7.2 -1.8,0 -3.7,-7.2 -2.8,0 0,7.2 -1.7,0 0,-16.8 4.7,0 c 3.7,0 5.4,1.2 5.4,4.8 z m -8.4,-3.3 0,6.7 2.8,0 c 2.7,0 4,-0.3 4,-3.4 0,-2.8 -1.2,-3.3 -3.9,-3.3 l -2.9,0 z"
   id="path436" />
			<path
   d="m 261,474.4 c 0,2.7 0.7,4.4 3.2,4.4 1.8,0 2.9,-0.8 2.9,-0.8 l 0.6,1.2 c 0,0 -1.4,0.9 -3.5,0.9 -2.8,0 -4.8,-1.5 -4.8,-6.2 0,-4.7 2,-6.2 4.5,-6.2 3.4,0 4.3,2.4 4.3,6.5 l -7.2,0 z m 0,-1.2 5.6,0 c -0.1,-2.8 -0.9,-3.9 -2.7,-3.9 -2,-0.1 -2.7,1.5 -2.9,3.9 z"
   id="path438" />
			<path
   d="m 276.1,464.5 c -0.3,-0.1 -0.7,-0.1 -1,-0.1 -1.5,0 -2.2,1 -2.2,3.2 l 0,0.4 2.6,0 0,1.4 -2.6,0 0,10.6 -1.6,0 0,-10.6 -1.4,0 0,-1.4 1.4,0 0,-0.8 c 0,-2.2 1,-4.2 3.8,-4.2 0.5,0 1,0.1 1.3,0.2 l -0.3,1.3 z"
   id="path440" />
			<path
   d="m 282.8,469.4 c -0.2,0 -0.5,-0.1 -0.8,-0.1 -1.6,0 -2.5,1.1 -2.7,1.4 l 0,9.4 -1.6,0 0,-12 1.2,0 0.3,1.2 c 0.7,-0.7 1.7,-1.4 3,-1.4 0.3,0 0.6,0 0.8,0.1 l -0.2,1.4 z"
   id="path442" />
			<path
   d="m 285.8,463.5 c 0.6,0 1.2,0.6 1.2,1.2 0,0.7 -0.6,1.2 -1.2,1.2 -0.7,0 -1.2,-0.6 -1.2,-1.2 0,-0.7 0.5,-1.2 1.2,-1.2 z m -0.8,4.5 1.6,0 0,12 -1.6,0 0,-12 z"
   id="path444" />
			<path
   d="m 296.8,479.1 c -0.6,0.6 -1.6,1.1 -2.9,1.1 -3.4,0 -4.6,-2.8 -4.6,-6.2 0,-3 1,-6.2 4.5,-6.2 1.1,0 2.2,0.4 3,1.2 l 0.3,-1 1.2,0 0,12.5 c 0,2.2 -1,4.2 -3.9,4.2 -1.7,0 -2.7,-0.4 -2.7,-0.4 L 292,483 c 0,0 1,0.3 2.3,0.3 1.6,0 2.4,-1 2.4,-3.3 l 0,-0.9 z m -2.6,-0.2 c 1.2,0 2.1,-0.6 2.6,-1.4 l 0,-6.8 c -0.3,-0.6 -1.2,-1.5 -2.6,-1.5 -2.5,0 -3.3,1.9 -3.3,4.8 0,2.9 0.8,4.9 3.3,4.9 z"
   id="path446" />
			<path
   d="m 302.5,474.4 c 0,2.7 0.7,4.4 3.2,4.4 1.8,0 2.9,-0.8 2.9,-0.8 l 0.6,1.2 c 0,0 -1.4,0.9 -3.5,0.9 -2.8,0 -4.8,-1.5 -4.8,-6.2 0,-4.7 2,-6.2 4.5,-6.2 3.4,0 4.3,2.4 4.3,6.5 l -7.2,0 z m 0,-1.2 5.6,0 c -0.1,-2.8 -0.9,-3.9 -2.7,-3.9 -2,-0.1 -2.7,1.5 -2.9,3.9 z"
   id="path448" />
			<path
   d="m 317.4,469.4 c -0.2,0 -0.5,-0.1 -0.8,-0.1 -1.6,0 -2.5,1.1 -2.7,1.4 l 0,9.4 -1.6,0 0,-12 1.2,0 0.3,1.2 c 0.7,-0.7 1.7,-1.4 3,-1.4 0.3,0 0.6,0 0.8,0.1 l -0.2,1.4 z"
   id="path450" />
			<path
   d="m 323.8,473 1.6,0 0,-1.7 c 0,-1.3 -0.6,-2.1 -2.1,-2.1 -1.7,0 -3.2,0.7 -3.2,0.7 l -0.4,-1.2 c 0,0 1.5,-0.8 3.6,-0.8 2.8,0 3.7,1.3 3.7,3.6 l 0,8.5 -1.2,0 -0.2,-0.9 c -0.8,0.5 -1.8,1.1 -3.3,1.1 -2.3,0 -3.5,-1.6 -3.5,-3.5 0,-1.9 1.3,-3.7 5,-3.7 z m 1.5,4.9 0,-3.6 -1.6,0 c -2.2,0 -3.4,1.1 -3.4,2.4 0,1.3 0.9,2.2 2.1,2.2 1.4,0 2.5,-0.6 2.9,-1 z"
   id="path452" />
			<path
   d="m 336.7,479.7 c -0.2,0.1 -1.2,0.6 -2.5,0.6 -2.8,0 -4.8,-1.5 -4.8,-6.2 0,-4.7 2,-6.2 4.8,-6.2 1,0 1.8,0.3 2.5,0.6 l -0.6,1.2 c -0.1,0 -0.9,-0.5 -1.9,-0.5 -2.6,0 -3.2,1.9 -3.2,4.8 0,2.9 0.6,4.8 3.2,4.8 1.2,0 2,-0.5 2,-0.5 l 0.5,1.4 z"
   id="path454" />
			<path
   d="m 340.1,463.5 c 0.6,0 1.2,0.6 1.2,1.2 0,0.7 -0.6,1.2 -1.2,1.2 -0.7,0 -1.2,-0.6 -1.2,-1.2 0,-0.7 0.6,-1.2 1.2,-1.2 z m -0.8,4.5 1.6,0 0,12 -1.6,0 0,-12 z"
   id="path456" />
			<path
   d="m 343.7,474 c 0,-4.7 2,-6.1 4.8,-6.1 2.8,0 4.8,1.4 4.8,6.1 0,4.7 -2,6.2 -4.8,6.2 -2.9,0 -4.8,-1.5 -4.8,-6.2 z m 7.9,0 c 0,-2.9 -0.6,-4.8 -3.2,-4.8 -2.6,0 -3.2,1.9 -3.2,4.8 0,2.9 0.6,4.8 3.2,4.8 2.6,0.1 3.2,-1.9 3.2,-4.8 z m -2.6,-11.4 2.1,0 -2.1,3.9 -1.1,0 1.1,-3.9 z"
   id="path458" />
			<path
   d="m 363,471.7 c 0,-1.9 -0.8,-2.5 -2.3,-2.5 -1.6,0 -3,1.1 -3.4,1.4 l 0,9.4 -1.6,0 0,-12 1.2,0 0.3,1.2 c 1,-0.7 2.4,-1.4 3.8,-1.4 2.7,0 3.5,1.5 3.5,3.9 l 0,8.2 -1.5,0 0,-8.2 z"
   id="path460" />
			<path
   d="m 256.9,505.2 c 0,0 -1.5,1.1 -4,1.1 -4.2,0 -6.1,-2.5 -6.1,-8.6 0,-6.1 2,-8.6 6.1,-8.6 2.1,0 3.5,0.9 3.7,1 -0.7,1.3 -0.7,1.3 -0.7,1.3 -0.2,-0.1 -1.4,-0.9 -3,-0.9 -2.7,0 -4.5,1.5 -4.5,7.1 0,5.6 1.8,7.1 4.5,7.1 1.8,0 3.2,-0.9 3.2,-0.9 l 0.8,1.4 z"
   id="path462" />
			<path
   d="m 258.5,500 c 0,-4.7 2,-6.1 4.8,-6.1 2.8,0 4.8,1.4 4.8,6.1 0,4.7 -2,6.2 -4.8,6.2 -2.8,0 -4.8,-1.5 -4.8,-6.2 z m 8,0 c 0,-2.9 -0.6,-4.8 -3.2,-4.8 -2.6,0 -3.2,1.9 -3.2,4.8 0,2.9 0.6,4.8 3.2,4.8 2.6,0.1 3.2,-1.9 3.2,-4.8 z"
   id="path464" />
			<path
   d="m 277.8,497.7 c 0,-1.9 -0.8,-2.5 -2.3,-2.5 -1.6,0 -3,1.1 -3.4,1.4 l 0,9.4 -1.6,0 0,-12 1.2,0 0.3,1.2 c 1,-0.7 2.4,-1.4 3.8,-1.4 2.7,0 3.5,1.5 3.5,3.9 l 0,8.2 -1.6,0 0,-8.2 z"
   id="path466" />
			<path
   d="m 289.3,505.1 c -0.6,0.6 -1.6,1.1 -2.9,1.1 -3.4,0 -4.6,-2.8 -4.6,-6.2 0,-3 1,-6.2 4.5,-6.2 1.1,0 2.2,0.4 3,1.2 l 0.3,-1 1.2,0 0,12.5 c 0,2.2 -1,4.2 -3.9,4.2 -1.7,0 -2.7,-0.4 -2.7,-0.4 l 0.3,-1.3 c 0,0 1,0.3 2.3,0.3 1.6,0 2.4,-1 2.4,-3.3 l 0,-0.9 z m -2.6,-0.2 c 1.2,0 2.1,-0.6 2.6,-1.4 l 0,-6.8 c -0.3,-0.6 -1.2,-1.5 -2.6,-1.5 -2.5,0 -3.3,1.9 -3.3,4.8 0,2.9 0.8,4.9 3.3,4.9 z"
   id="path468" />
			<path
   d="m 295.1,500.4 c 0,2.7 0.7,4.4 3.2,4.4 1.8,0 2.9,-0.8 2.9,-0.8 l 0.6,1.2 c 0,0 -1.4,0.9 -3.5,0.9 -2.8,0 -4.8,-1.5 -4.8,-6.2 0,-4.7 2,-6.2 4.5,-6.2 3.4,0 4.3,2.4 4.3,6.5 l -7.2,0 z m 0,-1.2 5.6,0 c -0.1,-2.8 -0.9,-3.9 -2.7,-3.9 -2.1,-0.1 -2.8,1.5 -2.9,3.9 z"
   id="path470" />
			<path
   d="m 309.5,506.1 c -0.3,0.1 -0.7,0.1 -1.1,0.1 -2.3,0 -3.6,-1.4 -3.6,-4.3 l 0,-12.6 1.6,0 0,12.4 c 0,2.4 0.7,3.3 2.1,3.3 0.3,0 0.5,0 0.8,-0.1 l 0.2,1.2 z"
   id="path472" />
			<path
   d="m 315.6,499 1.6,0 0,-1.7 c 0,-1.3 -0.6,-2.1 -2.1,-2.1 -1.7,0 -3.2,0.7 -3.2,0.7 l -0.4,-1.2 c 0,0 1.5,-0.8 3.6,-0.8 2.8,0 3.7,1.3 3.7,3.6 l 0,8.5 -1.2,0 -0.2,-0.9 c -0.8,0.5 -1.8,1.1 -3.3,1.1 -2.3,0 -3.5,-1.6 -3.5,-3.5 0,-1.9 1.4,-3.7 5,-3.7 z m 1.6,4.9 0,-3.6 -1.6,0 c -2.2,0 -3.4,1.1 -3.4,2.4 0,1.3 0.9,2.2 2.1,2.2 1.3,0 2.4,-0.6 2.9,-1 z"
   id="path474" />
			<path
   d="m 328.5,505.7 c -0.2,0.1 -1.2,0.6 -2.5,0.6 -2.8,0 -4.8,-1.5 -4.8,-6.2 0,-4.7 2,-6.2 4.8,-6.2 1,0 1.8,0.3 2.5,0.6 l -0.6,1.2 c -0.1,0 -0.9,-0.5 -1.9,-0.5 -2.6,0 -3.2,1.9 -3.2,4.8 0,2.9 0.6,4.8 3.2,4.8 1.2,0 2,-0.5 2,-0.5 l 0.5,1.4 z"
   id="path476" />
			<path
   d="m 331.9,489.5 c 0.6,0 1.2,0.6 1.2,1.2 0,0.7 -0.6,1.2 -1.2,1.2 -0.7,0 -1.2,-0.6 -1.2,-1.2 0,-0.7 0.6,-1.2 1.2,-1.2 z m -0.8,4.5 1.6,0 0,12 -1.6,0 0,-12 z"
   id="path478" />
			<path
   d="m 335.5,500 c 0,-4.7 2,-6.1 4.8,-6.1 2.8,0 4.8,1.4 4.8,6.1 0,4.7 -2,6.2 -4.8,6.2 -2.8,0 -4.8,-1.5 -4.8,-6.2 z m 7.9,0 c 0,-2.9 -0.6,-4.8 -3.2,-4.8 -2.6,0 -3.2,1.9 -3.2,4.8 0,2.9 0.6,4.8 3.2,4.8 2.6,0.1 3.2,-1.9 3.2,-4.8 z m -2.5,-11.4 2.1,0 -2.1,3.9 -1.1,0 1.1,-3.9 z"
   id="path480" />
			<path
   d="m 354.8,497.7 c 0,-1.9 -0.8,-2.5 -2.3,-2.5 -1.6,0 -3,1.1 -3.4,1.4 l 0,9.4 -1.6,0 0,-12 1.2,0 0.3,1.2 c 1,-0.7 2.4,-1.4 3.8,-1.4 2.7,0 3.5,1.5 3.5,3.9 l 0,8.2 -1.6,0 0,-8.2 z"
   id="path482" />
		</g>
	</g><g
   transform="translate(-195.3,-349.89999)"
   id="g484">
		<g
   id="g486">
			<path
   d="m 546.9,437.2 0,2.7 -4.2,0 0,14.1 -3,0 0,-14.1 -4.2,0 0,-2.7 11.4,0 z"
   id="path488" />
			<path
   d="m 551,448.9 c 0.1,2 0.8,2.9 2.3,2.9 1.5,0 2.9,-0.5 2.9,-0.5 l 0.8,2.2 c -0.9,0.4 -2.1,0.8 -3.7,0.8 -3.7,0 -5.2,-2.3 -5.2,-6.2 0,-3.9 1.4,-6.2 4.9,-6.2 3.6,0 4.7,2.2 4.7,7.1 l -6.7,0 z m 0,-2.1 3.8,0 c 0,-1.4 -0.4,-2.7 -1.9,-2.7 -1.2,0 -1.8,1 -1.9,2.7 z"
   id="path490" />
			<path
   d="m 566.4,446.1 c 0,-1.5 -0.4,-2.1 -1.5,-2.1 -1.3,0 -2.3,1 -2.3,1 l 0,9 -2.9,0 0,-12 2.1,0 0.6,1.1 c 0.7,-0.6 1.9,-1.3 3.4,-1.3 1.7,0 2.6,0.6 3,1.5 0.6,-0.5 2,-1.5 3.7,-1.5 2.9,0 3.5,1.7 3.5,3.9 l 0,8.3 -2.9,0 0,-7.9 c 0,-1.3 -0.2,-2.1 -1.5,-2.1 -0.8,0 -1.7,0.5 -2.3,0.9 0,0 0,0.3 0,1 l 0,8 -2.9,0 0,-7.8 z"
   id="path492" />
			<path
   d="m 581.2,458.4 -2.9,0 0,-16.4 2.1,0 0.6,1 c 0.7,-0.7 1.6,-1.2 2.8,-1.2 3,0 4.6,2.5 4.6,6.2 0,3.6 -1.6,6.2 -4.6,6.2 -1.1,0 -1.9,-0.4 -2.6,-1.1 l 0,5.3 z m 1.8,-14.3 c -0.8,0 -1.5,0.6 -1.8,1 l 0,5.9 c 0.4,0.5 1.1,1 1.8,1 1.6,0 2.5,-1.4 2.5,-3.9 0,-2.6 -0.9,-4 -2.5,-4 z"
   id="path494" />
			<path
   d="m 593,448.9 c 0.1,2 0.8,2.9 2.3,2.9 1.5,0 2.9,-0.5 2.9,-0.5 l 0.8,2.2 c -0.9,0.4 -2.1,0.8 -3.7,0.8 -3.7,0 -5.2,-2.3 -5.2,-6.2 0,-3.9 1.4,-6.2 4.9,-6.2 3.6,0 4.7,2.2 4.7,7.1 l -6.7,0 z m 0,-2.1 3.8,0 c 0,-1.4 -0.4,-2.7 -1.9,-2.7 -1.3,0 -1.8,1 -1.9,2.7 z"
   id="path496" />
			<path
   d="m 607.2,444.5 c -0.2,0 -0.5,-0.1 -0.8,-0.1 -1.3,0 -1.8,0.8 -1.8,0.8 l 0,8.9 -2.9,0 0,-12 2.1,0 0.6,1.1 c 0.2,-0.3 1.1,-1.3 2.8,-1.3 0.2,0 0.5,0 0.6,0.1 l -0.6,2.5 z"
   id="path498" />
			<path
   d="m 614.5,446.5 0.9,0 0,-0.7 c 0,-0.8 -0.3,-1.7 -1.8,-1.7 -1.5,0 -3.2,0.5 -3.2,0.5 l -0.6,-2.1 c 0,0 1.7,-0.7 4,-0.7 2.5,0 4.5,1 4.5,3.8 l 0,8.4 -2.3,0 -0.4,-1.1 c -0.8,0.7 -1.8,1.2 -3.1,1.2 -2.5,0 -3.6,-1.9 -3.6,-3.8 -0.1,-1.7 1.3,-3.8 5.6,-3.8 z m 0.9,4.5 0,-2.4 -1.2,0 c -1.6,0 -2.5,0.8 -2.5,1.7 0,1.1 0.7,1.8 1.7,1.8 0.8,-0.1 1.6,-0.6 2,-1.1 z"
   id="path500" />
			<path
   d="m 623.9,442 2.6,0 0,2.4 -2.6,0 0,5.4 c 0,1 0.3,1.9 1.4,1.9 0.6,0 1.4,-0.3 1.4,-0.3 l 0.7,2.2 c 0,0 -1.1,0.5 -2.2,0.5 -3.1,0 -4.2,-2.2 -4.2,-4.1 l 0,-5.7 -1.4,0 0,-2.3 1.4,0 0,-3.1 2.9,0 0,3.1 z"
   id="path502" />
			<path
   d="m 631.6,450 c 0,1.3 0.2,2.1 1.5,2.1 1.1,0 2.2,-0.7 2.4,-1 l 0,-9 2.9,0 0,12 -2.3,0 -0.4,-1.1 c -0.7,0.6 -2.1,1.3 -3.5,1.3 -2.9,0 -3.5,-1.7 -3.5,-3.9 l 0,-8.4 2.9,0 0,8 z"
   id="path504" />
			<path
   d="m 646.4,444.5 c -0.2,0 -0.5,-0.1 -0.8,-0.1 -1.3,0 -1.8,0.8 -1.8,0.8 l 0,8.9 -2.9,0 0,-12 2.1,0 0.6,1.1 c 0.2,-0.3 1.1,-1.3 2.8,-1.3 0.2,0 0.5,0 0.6,0.1 l -0.6,2.5 z"
   id="path506" />
			<path
   d="m 653.7,446.5 0.9,0 0,-0.7 c 0,-0.8 -0.3,-1.7 -1.8,-1.7 -1.5,0 -3.2,0.5 -3.2,0.5 l -0.6,-2.1 c 0,0 1.7,-0.7 4,-0.7 2.5,0 4.5,1 4.5,3.8 l 0,8.4 -2.3,0 -0.4,-1.1 c -0.8,0.7 -1.8,1.2 -3.1,1.2 -2.5,0 -3.6,-1.9 -3.6,-3.8 -0.1,-1.7 1.3,-3.8 5.6,-3.8 z m 0.9,4.5 0,-2.4 -1.2,0 c -1.6,0 -2.5,0.8 -2.5,1.7 0,1.1 0.7,1.8 1.7,1.8 0.9,-0.1 1.6,-0.6 2,-1.1 z"
   id="path508" />
			<path
   d="m 669.3,446.5 0.9,0 0,-0.7 c 0,-0.8 -0.3,-1.7 -1.8,-1.7 -1.5,0 -3.2,0.5 -3.2,0.5 l -0.6,-2.1 c 0,0 1.7,-0.7 4,-0.7 2.5,0 4.5,1 4.5,3.8 l 0,8.4 -2.3,0 -0.4,-1.1 c -0.8,0.7 -1.8,1.2 -3.1,1.2 -2.5,0 -3.6,-1.9 -3.6,-3.8 -0.1,-1.7 1.4,-3.8 5.6,-3.8 z m 1,4.5 0,-2.4 -1.2,0 c -1.6,0 -2.5,0.8 -2.5,1.7 0,1.1 0.7,1.8 1.7,1.8 0.8,-0.1 1.5,-0.6 2,-1.1 z"
   id="path510" />
			<path
   d="m 680.9,454 c -0.4,0.1 -0.9,0.2 -1.5,0.2 -3.1,0 -4.2,-2.2 -4.2,-4.1 l 0,-12.9 2.9,0 0,12.6 c 0,1 0.3,1.9 1.4,1.9 0.2,0 0.5,0 0.7,-0.1 l 0.7,2.4 z"
   id="path512" />
			<path
   d="m 689.8,453.6 c -0.7,0.4 -1.7,0.7 -2.7,0.7 -3.8,0 -5.1,-2.3 -5.1,-6.2 0,-3.9 1.4,-6.2 5.1,-6.2 1.2,0 2.4,0.5 2.8,0.8 l -1,2 c -0.4,-0.2 -1,-0.4 -1.8,-0.4 -1.8,0 -2.3,1.3 -2.3,3.8 0,2.5 0.3,3.8 2.3,3.8 1.1,0 1.8,-0.4 1.8,-0.4 l 0.9,2.1 z"
   id="path514" />
			<path
   d="m 696.9,446.5 0.9,0 0,-0.7 c 0,-0.8 -0.3,-1.7 -1.8,-1.7 -1.5,0 -3.2,0.5 -3.2,0.5 l -0.6,-2.1 c 0,0 1.7,-0.7 4,-0.7 2.5,0 4.5,1 4.5,3.8 l 0,8.4 -2.3,0 -0.4,-1.1 c -0.8,0.7 -1.8,1.2 -3.1,1.2 -2.5,0 -3.6,-1.9 -3.6,-3.8 -0.1,-1.7 1.3,-3.8 5.6,-3.8 z m 0.9,4.5 0,-2.4 -1.2,0 c -1.6,0 -2.5,0.8 -2.5,1.7 0,1.1 0.7,1.8 1.7,1.8 0.8,-0.1 1.5,-0.6 2,-1.1 z"
   id="path516" />
			<path
   d="m 709.9,446.1 c 0,-1.3 -0.2,-2.1 -1.5,-2.1 -1.2,0 -2.3,0.7 -2.5,1 l 0,9 -2.9,0 0,-12 2.1,0 0.6,1.1 c 0.8,-0.6 2.2,-1.3 3.6,-1.3 2.9,0 3.5,1.7 3.5,3.9 l 0,8.3 -2.9,0 0,-7.9 z"
   id="path518" />
			<path
   d="m 719.9,444.6 -4.9,0 0,-2.6 8.1,0 0,2.6 -4.9,6.8 4.9,0 0,2.6 -8.2,0 0,-2.6 5,-6.8 z"
   id="path520" />
			<path
   d="m 730.4,446.5 0.9,0 0,-0.7 c 0,-0.8 -0.3,-1.7 -1.8,-1.7 -1.5,0 -3.2,0.5 -3.2,0.5 l -0.6,-2.1 c 0,0 1.7,-0.7 4,-0.7 2.5,0 4.5,1 4.5,3.8 l 0,8.4 -2.3,0 -0.4,-1.1 c -0.8,0.7 -1.8,1.2 -3.1,1.2 -2.5,0 -3.6,-1.9 -3.6,-3.8 -0.1,-1.7 1.4,-3.8 5.6,-3.8 z m 1,4.5 0,-2.4 -1.2,0 c -1.6,0 -2.5,0.8 -2.5,1.7 0,1.1 0.7,1.8 1.7,1.8 0.8,-0.1 1.5,-0.6 2,-1.1 z"
   id="path522" />
			<path
   d="m 743.4,437.2 2.9,0 0,16.8 -2.3,0 -0.4,-1 c -0.7,0.7 -1.6,1.2 -2.8,1.2 -3,0 -4.6,-2.5 -4.6,-6.2 0,-3.6 1.6,-6.2 4.6,-6.2 1,0 1.8,0.4 2.6,1.1 l 0,-5.7 z m -1.8,14.8 c 0.7,0 1.4,-0.5 1.8,-1 l 0,-5.9 c -0.4,-0.5 -1.1,-1 -1.8,-1 -1.6,0 -2.5,1.4 -2.5,3.9 0,2.6 0.8,4 2.5,4 z"
   id="path524" />
			<path
   d="m 753.9,446.5 0.9,0 0,-0.7 c 0,-0.8 -0.3,-1.7 -1.8,-1.7 -1.5,0 -3.2,0.5 -3.2,0.5 l -0.6,-2.1 c 0,0 1.7,-0.7 4,-0.7 2.5,0 4.5,1 4.5,3.8 l 0,8.4 -2.3,0 -0.4,-1 c -0.8,0.7 -1.8,1.2 -3.1,1.2 -2.5,0 -3.6,-1.9 -3.6,-3.8 -0.1,-1.8 1.3,-3.9 5.6,-3.9 z m 1,4.5 0,-2.4 -1.2,0 c -1.6,0 -2.5,0.8 -2.5,1.7 0,1.1 0.7,1.8 1.7,1.8 0.8,-0.1 1.5,-0.6 2,-1.1 z"
   id="path526" />
			<path
   d="m 536.8,480 0,-16.8 4.8,0 c 4.2,0 6.2,2.3 6.2,8.4 0,6.1 -1.9,8.4 -6.2,8.4 l -4.8,0 z m 4.8,-1.4 c 2.7,0 4.5,-1.3 4.5,-6.9 0,-5.7 -1.8,-6.9 -4.5,-6.9 l -3.1,0 0,13.8 3.1,0 z"
   id="path528" />
			<path
   d="m 551.3,474.4 c 0,2.7 0.7,4.4 3.2,4.4 1.8,0 2.9,-0.8 2.9,-0.8 l 0.6,1.2 c 0,0 -1.4,0.9 -3.5,0.9 -2.8,0 -4.8,-1.5 -4.8,-6.2 0,-4.7 2,-6.2 4.5,-6.2 3.4,0 4.3,2.4 4.3,6.5 l -7.2,0 z m 0,-1.2 5.6,0 c -0.1,-2.8 -0.9,-3.9 -2.7,-3.9 -2,-0.1 -2.7,1.5 -2.9,3.9 z"
   id="path530" />
			<path
   d="m 570.7,480.3 c -3.5,0 -5.3,-2.8 -5.3,-8.6 0,-5.8 1.8,-8.6 5.3,-8.6 3.5,0 5.3,2.8 5.3,8.6 0,5.8 -1.8,8.6 -5.3,8.6 z m 0,-1.5 c 2.1,0 3.6,-1.6 3.6,-7.1 0,-5.5 -1.6,-7.1 -3.6,-7.1 -2.1,0 -3.7,1.6 -3.7,7.1 0,5.5 1.6,7.1 3.7,7.1 z"
   id="path532" />
			<path
   d="m 587.9,473 1.6,0 0,-1.7 c 0,-1.3 -0.6,-2.1 -2.1,-2.1 -1.7,0 -3.2,0.7 -3.2,0.7 l -0.4,-1.2 c 0,0 1.5,-0.8 3.6,-0.8 2.8,0 3.7,1.3 3.7,3.6 l 0,8.5 -1.2,0 -0.2,-0.9 c -0.8,0.5 -1.8,1.1 -3.3,1.1 -2.3,0 -3.5,-1.6 -3.5,-3.5 0,-1.9 1.3,-3.7 5,-3.7 z m 1.5,4.9 0,-3.6 -1.6,0 c -2.2,0 -3.4,1.1 -3.4,2.4 0,1.3 0.9,2.2 2.1,2.2 1.3,0 2.5,-0.6 2.9,-1 z"
   id="path534" />
			<path
   d="m 606.5,463.2 c 0,0 -3.3,3.9 -4.5,5.9 0,0 0.6,-0.3 1.4,-0.3 3.6,0 5.1,2.7 5.1,5.7 0,2.1 -1.2,5.6 -5.1,5.6 -3.8,0 -5.1,-2.9 -5.1,-5.6 0,-4 3.9,-8.3 6.2,-11.4 l 2,0 z m -3.6,7 c -1,0 -1.7,0.6 -1.7,0.6 -0.5,0.7 -1.2,2.4 -1.2,3.8 0,2.5 1.1,4.2 3.4,4.2 2.2,0 3.4,-1.8 3.4,-4.2 0,-2.5 -1.2,-4.4 -3.9,-4.4 z"
   id="path536" />
			<path
   d="m 615.5,466.9 c 0,-2.9 1.2,-3.9 3.1,-3.9 1.9,0 3.1,1 3.1,3.9 0,2.9 -1.2,3.9 -3.1,3.9 -1.9,0 -3.1,-1 -3.1,-3.9 z m 5,0 c 0,-1.7 -0.3,-2.9 -1.9,-2.9 -1.6,0 -1.9,1.2 -1.9,2.9 0,1.7 0.3,2.9 1.9,2.9 1.6,0 1.9,-1.2 1.9,-2.9 z"
   id="path538" />
			<path
   d="m 633.9,479.2 c 0,0 -1.5,1.1 -4,1.1 -4.2,0 -6.1,-2.5 -6.1,-8.6 0,-6.1 2,-8.6 6.1,-8.6 2.1,0 3.5,0.9 3.7,1 -0.7,1.3 -0.7,1.3 -0.7,1.3 -0.2,-0.1 -1.4,-0.9 -3,-0.9 -2.7,0 -4.5,1.5 -4.5,7.1 0,5.6 1.8,7.1 4.5,7.1 1.8,0 3.2,-0.9 3.2,-0.9 l 0.8,1.4 z"
   id="path540" />
			<path
   d="m 543.1,498.6 0,1.4 -6,0 0,-1.4 6,0 z"
   id="path542" />
			<path
   d="m 546.2,491.1 3.9,-1.8 1.3,0 0,15.3 3.1,0 0,1.5 -7.9,0 0,-1.5 3.1,0 0,-13.6 -3.1,1.4 -0.4,-1.3 z"
   id="path544" />
			<path
   d="m 556.5,502 c 0,-2.4 1.5,-3.7 3.6,-4.7 -1.8,-1 -3,-2.2 -3,-4.2 0,-2.5 2,-4 4.5,-4 2.5,0 4.5,1.5 4.5,4 0,2.1 -1.5,3.4 -3,4.2 2.1,1.2 3.6,2.5 3.6,4.8 0,2.6 -2.1,4.3 -5,4.3 -2.9,-0.1 -5.2,-1.7 -5.2,-4.4 z m 8.4,0 c 0,-1.6 -1.2,-2.9 -3.4,-4 -2.1,1 -3.3,2 -3.3,4 0,1.7 1.7,2.9 3.3,2.9 1.7,0 3.4,-1.2 3.4,-2.9 z m -3.3,-5.6 c 1.5,-0.8 2.7,-1.6 2.7,-3.4 0,-1.6 -1.1,-2.6 -2.8,-2.6 -1.6,0 -2.8,1 -2.8,2.6 0,1.6 1.1,2.4 2.9,3.4 z"
   id="path546" />
			<path
   d="m 573.4,492.9 c 0,-2.9 1.2,-3.9 3.1,-3.9 1.9,0 3.1,1 3.1,3.9 0,2.9 -1.2,3.9 -3.1,3.9 -1.9,0 -3.1,-1 -3.1,-3.9 z m 5,0 c 0,-1.7 -0.3,-2.9 -1.9,-2.9 -1.6,0 -1.9,1.2 -1.9,2.9 0,1.7 0.3,2.9 1.9,2.9 1.6,0 1.9,-1.2 1.9,-2.9 z"
   id="path548" />
			<path
   d="m 591.8,505.2 c 0,0 -1.5,1.1 -4,1.1 -4.2,0 -6.1,-2.5 -6.1,-8.6 0,-6.1 2,-8.6 6.1,-8.6 2.1,0 3.5,0.9 3.7,1 -0.7,1.3 -0.7,1.3 -0.7,1.3 -0.2,-0.1 -1.4,-0.9 -3,-0.9 -2.7,0 -4.5,1.5 -4.5,7.1 0,5.6 1.8,7.1 4.5,7.1 1.8,0 3.2,-0.9 3.2,-0.9 l 0.8,1.4 z"
   id="path550" />
			<path
   d="m 599.8,498 c 0,4.6 1.3,7.6 2.4,9.4 l -1,0.3 c 0,0 -3.1,-3.6 -3.1,-9.6 0,-6 3.1,-9.6 3.1,-9.6 l 1,0.3 c -1.1,1.6 -2.4,4.5 -2.4,9.2 z"
   id="path552" />
			<path
   d="m 610.9,505.7 c -0.2,0.1 -1.2,0.6 -2.5,0.6 -2.8,0 -4.8,-1.5 -4.8,-6.2 0,-4.7 2,-6.2 4.8,-6.2 1,0 1.8,0.3 2.5,0.6 l -0.6,1.2 c -0.1,0 -0.9,-0.5 -1.9,-0.5 -2.6,0 -3.2,1.9 -3.2,4.8 0,2.9 0.6,4.8 3.2,4.8 1.2,0 2,-0.5 2,-0.5 l 0.5,1.4 z"
   id="path554" />
			<path
   d="m 612.8,500 c 0,-4.7 2,-6.1 4.8,-6.1 2.8,0 4.8,1.4 4.8,6.1 0,4.7 -2,6.2 -4.8,6.2 -2.8,0 -4.8,-1.5 -4.8,-6.2 z m 8,0 c 0,-2.9 -0.6,-4.8 -3.2,-4.8 -2.6,0 -3.2,1.9 -3.2,4.8 0,2.9 0.6,4.8 3.2,4.8 2.6,0.1 3.2,-1.9 3.2,-4.8 z"
   id="path556" />
			<path
   d="m 632.1,497.7 c 0,-1.9 -0.8,-2.5 -2.3,-2.5 -1.6,0 -3,1.1 -3.4,1.4 l 0,9.4 -1.6,0 0,-12 1.2,0 0.3,1.2 c 1,-0.7 2.4,-1.4 3.8,-1.4 2.7,0 3.5,1.5 3.5,3.9 l 0,8.2 -1.6,0 0,-8.2 z"
   id="path558" />
			<path
   d="m 639.2,506.2 c -2,0 -3.4,-1.1 -3.4,-1.1 l 0.7,-1.2 c 0,0 1.2,0.9 2.6,0.9 1.7,0 2.3,-1.1 2.3,-2 0,-0.7 -0.7,-1.4 -2.3,-2.3 -2.2,-1.2 -3,-2.3 -3,-3.5 0,-2 1.7,-3.1 3.5,-3.1 1.9,0 3.2,0.9 3.2,0.9 l -0.6,1.2 c 0,0 -1.3,-0.7 -2.5,-0.7 -1.1,0 -1.9,0.6 -1.9,1.8 0,0.9 1.1,1.6 2.4,2.4 2,1.2 3,2.2 3,3.5 -0.2,1.7 -1.6,3.2 -4,3.2 z"
   id="path560" />
			<path
   d="m 646.4,500.4 c 0,2.7 0.7,4.4 3.2,4.4 1.8,0 2.9,-0.8 2.9,-0.8 l 0.6,1.2 c 0,0 -1.4,0.9 -3.5,0.9 -2.8,0 -4.8,-1.5 -4.8,-6.2 0,-4.7 2,-6.2 4.5,-6.2 3.4,0 4.3,2.4 4.3,6.5 l -7.2,0 z m 0,-1.2 5.6,0 c -0.1,-2.8 -0.9,-3.9 -2.7,-3.9 -2,-0.1 -2.7,1.5 -2.9,3.9 z"
   id="path562" />
			<path
   d="m 661.3,495.4 c -0.2,0 -0.5,-0.1 -0.8,-0.1 -1.6,0 -2.5,1.1 -2.7,1.4 l 0,9.4 -1.6,0 0,-12 1.2,0 0.3,1.2 c 0.7,-0.7 1.7,-1.4 3,-1.4 0.3,0 0.6,0 0.8,0.1 l -0.2,1.4 z"
   id="path564" />
			<path
   d="m 666.7,504.5 3.3,-10.5 1.6,0 -3.8,12 -2.1,0 -3.8,-12 1.6,0 3.2,10.5 z"
   id="path566" />
			<path
   d="m 677.9,499 1.6,0 0,-1.7 c 0,-1.3 -0.6,-2.1 -2.1,-2.1 -1.7,0 -3.2,0.7 -3.2,0.7 l -0.4,-1.2 c 0,0 1.5,-0.8 3.6,-0.8 2.8,0 3.7,1.3 3.7,3.6 l 0,8.5 -1.2,0 -0.2,-0.9 c -0.8,0.5 -1.8,1.1 -3.3,1.1 -2.3,0 -3.5,-1.6 -3.5,-3.5 0,-1.9 1.3,-3.7 5,-3.7 z m 1.5,4.9 0,-3.6 -1.6,0 c -2.2,0 -3.4,1.1 -3.4,2.4 0,1.3 0.9,2.2 2.1,2.2 1.3,0 2.5,-0.6 2.9,-1 z"
   id="path568" />
			<path
   d="m 690.8,505.7 c -0.2,0.1 -1.2,0.6 -2.5,0.6 -2.8,0 -4.8,-1.5 -4.8,-6.2 0,-4.7 2,-6.2 4.8,-6.2 1,0 1.8,0.3 2.5,0.6 l -0.6,1.2 c -0.1,0 -0.9,-0.5 -1.9,-0.5 -2.6,0 -3.2,1.9 -3.2,4.8 0,2.9 0.6,4.8 3.2,4.8 1.2,0 2,-0.5 2,-0.5 l 0.5,1.4 z"
   id="path570" />
			<path
   d="m 694.2,489.5 c 0.6,0 1.2,0.6 1.2,1.2 0,0.7 -0.6,1.2 -1.2,1.2 -0.7,0 -1.2,-0.6 -1.2,-1.2 0,-0.7 0.5,-1.2 1.2,-1.2 z m -0.8,4.5 1.6,0 0,12 -1.6,0 0,-12 z"
   id="path572" />
			<path
   d="m 697.8,500 c 0,-4.7 2,-6.1 4.8,-6.1 2.8,0 4.8,1.4 4.8,6.1 0,4.7 -2,6.2 -4.8,6.2 -2.9,0 -4.8,-1.5 -4.8,-6.2 z m 7.9,0 c 0,-2.9 -0.6,-4.8 -3.2,-4.8 -2.6,0 -3.2,1.9 -3.2,4.8 0,2.9 0.6,4.8 3.2,4.8 2.6,0.1 3.2,-1.9 3.2,-4.8 z m -2.6,-11.4 2.1,0 -2.1,3.9 -1.1,0 1.1,-3.9 z"
   id="path574" />
			<path
   d="m 717.1,497.7 c 0,-1.9 -0.8,-2.5 -2.3,-2.5 -1.6,0 -3,1.1 -3.4,1.4 l 0,9.4 -1.6,0 0,-12 1.2,0 0.3,1.2 c 1,-0.7 2.4,-1.4 3.8,-1.4 2.7,0 3.5,1.5 3.5,3.9 l 0,8.2 -1.6,0 0,-8.2 z"
   id="path576" />
			<path
   d="m 721.5,488.3 c 0,0 3.1,3.6 3.1,9.6 0,6 -3.1,9.6 -3.1,9.6 l -1,-0.3 c 1,-1.8 2.4,-4.7 2.4,-9.4 0,-4.6 -1.3,-7.6 -2.4,-9.4 l 1,-0.1 z"
   id="path578" />
			<path
   d="m 543.1,524.6 0,1.4 -6,0 0,-1.4 6,0 z"
   id="path580" />
			<path
   d="m 549.2,524.1 -1.7,0 0,-1.4 1.4,0 c 2.7,0 4.2,-1.4 4.2,-3.4 0,-1.9 -1.2,-2.9 -3.5,-2.9 -1.5,0 -3,0.8 -3,0.8 -0.6,-1.3 -0.6,-1.4 -0.6,-1.4 0.3,-0.2 1.6,-0.9 3.6,-0.9 3.3,0 5.1,1.5 5.1,4.2 0,2.1 -1.4,3.6 -2.9,4.1 2,0.5 3,2.3 3,4 0,2.6 -1.7,4.9 -5.3,4.9 -2.4,0 -3.8,-0.8 -4,-0.9 l 0.6,-1.3 c 0,0 1.7,0.8 3.3,0.8 2.3,0 3.7,-1.3 3.7,-3.5 0,-1.4 -1.2,-3.1 -3.9,-3.1 z"
   id="path582" />
			<path
   d="m 562.6,532.3 c -3.5,0 -5.3,-2.8 -5.3,-8.6 0,-5.8 1.8,-8.6 5.3,-8.6 3.5,0 5.3,2.8 5.3,8.6 0,5.8 -1.9,8.6 -5.3,8.6 z m 0,-1.5 c 2.1,0 3.6,-1.6 3.6,-7.1 0,-5.5 -1.6,-7.1 -3.6,-7.1 -2.1,0 -3.7,1.6 -3.7,7.1 0,5.5 1.6,7.1 3.7,7.1 z"
   id="path584" />
			<path
   d="m 574.8,518.9 c 0,-2.9 1.2,-3.9 3.1,-3.9 1.9,0 3.1,1 3.1,3.9 0,2.9 -1.2,3.9 -3.1,3.9 -1.9,0 -3.1,-1 -3.1,-3.9 z m 5,0 c 0,-1.7 -0.3,-2.9 -1.9,-2.9 -1.6,0 -1.9,1.2 -1.9,2.9 0,1.7 0.3,2.9 1.9,2.9 1.6,0 1.9,-1.2 1.9,-2.9 z"
   id="path586" />
			<path
   d="m 593.2,531.2 c 0,0 -1.5,1.1 -4,1.1 -4.2,0 -6.1,-2.5 -6.1,-8.6 0,-6.1 2,-8.6 6.1,-8.6 2.1,0 3.5,0.9 3.7,1 -0.7,1.3 -0.7,1.3 -0.7,1.3 -0.2,-0.1 -1.4,-0.9 -3,-0.9 -2.7,0 -4.5,1.5 -4.5,7.1 0,5.6 1.8,7.1 4.5,7.1 1.8,0 3.2,-0.9 3.2,-0.9 l 0.8,1.4 z"
   id="path588" />
			<path
   d="m 601.2,524 c 0,4.6 1.3,7.6 2.4,9.4 l -1,0.3 c 0,0 -3.1,-3.6 -3.1,-9.6 0,-6 3.1,-9.6 3.1,-9.6 l 1,0.3 c -1,1.6 -2.4,4.5 -2.4,9.2 z"
   id="path590" />
			<path
   d="m 606.6,515.5 c 0.6,0 1.2,0.6 1.2,1.2 0,0.7 -0.6,1.2 -1.2,1.2 -0.7,0 -1.2,-0.6 -1.2,-1.2 0,-0.7 0.6,-1.2 1.2,-1.2 z m -0.8,4.5 1.6,0 0,12 -1.6,0 0,-12 z"
   id="path592" />
			<path
   d="m 617.9,523.7 c 0,-1.9 -0.8,-2.5 -2.3,-2.5 -1.6,0 -3,1.1 -3.4,1.4 l 0,9.4 -1.6,0 0,-12 1.2,0 0.3,1.2 c 1,-0.7 2.4,-1.4 3.8,-1.4 2.7,0 3.5,1.5 3.5,3.9 l 0,8.2 -1.6,0 0,-8.2 z"
   id="path594" />
			<path
   d="m 627,525 1.6,0 0,-1.7 c 0,-1.3 -0.6,-2.1 -2.1,-2.1 -1.7,0 -3.2,0.7 -3.2,0.7 l -0.4,-1.2 c 0,0 1.5,-0.8 3.6,-0.8 2.8,0 3.7,1.3 3.7,3.6 l 0,8.5 -1.2,0 -0.2,-0.9 c -0.8,0.5 -1.8,1.1 -3.3,1.1 -2.3,0 -3.5,-1.6 -3.5,-3.5 0,-1.9 1.3,-3.7 5,-3.7 z m 1.5,4.9 0,-3.6 -1.6,0 c -2.2,0 -3.4,1.1 -3.4,2.4 0,1.3 0.9,2.2 2.1,2.2 1.4,0 2.5,-0.6 2.9,-1 z"
   id="path596" />
			<path
   d="m 639.9,531.7 c -0.2,0.1 -1.2,0.6 -2.5,0.6 -2.8,0 -4.8,-1.5 -4.8,-6.2 0,-4.7 2,-6.2 4.8,-6.2 1,0 1.8,0.3 2.5,0.6 l -0.6,1.2 c -0.1,0 -0.9,-0.5 -1.9,-0.5 -2.6,0 -3.2,1.9 -3.2,4.8 0,2.9 0.6,4.8 3.2,4.8 1.2,0 2,-0.5 2,-0.5 l 0.5,1.4 z"
   id="path598" />
			<path
   d="m 644.4,520 2.8,0 0,1.4 -2.8,0 0,6.2 c 0,2.4 0.6,3.3 2.1,3.3 0.3,0 0.9,-0.1 1.1,-0.2 l 0.3,1.3 c -0.2,0 -0.9,0.2 -1.4,0.2 -2.4,0 -3.6,-1.4 -3.6,-4.3 l 0,-6.5 -1.4,0 0,-1.4 1.4,0 0,-3.1 1.6,0 0,3.1 z"
   id="path600" />
			<path
   d="m 650.9,515.5 c 0.6,0 1.2,0.6 1.2,1.2 0,0.7 -0.6,1.2 -1.2,1.2 -0.7,0 -1.2,-0.6 -1.2,-1.2 -0.1,-0.7 0.5,-1.2 1.2,-1.2 z m -0.9,4.5 1.6,0 0,12 -1.6,0 0,-12 z"
   id="path602" />
			<path
   d="m 658.5,530.5 3.2,-10.4 1.6,0 -3.8,12 -2.1,0 -3.8,-12 1.6,0 3.3,10.4 z"
   id="path604" />
			<path
   d="m 669.6,525 1.6,0 0,-1.7 c 0,-1.3 -0.6,-2.1 -2.1,-2.1 -1.7,0 -3.2,0.7 -3.2,0.7 l -0.4,-1.2 c 0,0 1.5,-0.8 3.6,-0.8 2.8,0 3.7,1.3 3.7,3.6 l 0,8.5 -1.2,0 -0.2,-0.9 c -0.8,0.5 -1.8,1.1 -3.3,1.1 -2.3,0 -3.5,-1.6 -3.5,-3.5 0,-1.9 1.4,-3.7 5,-3.7 z m 1.6,4.9 0,-3.6 -1.6,0 c -2.2,0 -3.4,1.1 -3.4,2.4 0,1.3 0.9,2.2 2.1,2.2 1.3,0 2.4,-0.6 2.9,-1 z"
   id="path606" />
			<path
   d="m 682.5,531.7 c -0.2,0.1 -1.2,0.6 -2.5,0.6 -2.8,0 -4.8,-1.5 -4.8,-6.2 0,-4.7 2,-6.2 4.8,-6.2 1,0 1.8,0.3 2.5,0.6 l -0.6,1.2 c -0.1,0 -0.9,-0.5 -1.9,-0.5 -2.6,0 -3.2,1.9 -3.2,4.8 0,2.9 0.6,4.8 3.2,4.8 1.2,0 2,-0.5 2,-0.5 l 0.5,1.4 z"
   id="path608" />
			<path
   d="m 685.9,515.5 c 0.6,0 1.2,0.6 1.2,1.2 0,0.7 -0.6,1.2 -1.2,1.2 -0.7,0 -1.2,-0.6 -1.2,-1.2 0,-0.7 0.6,-1.2 1.2,-1.2 z m -0.8,4.5 1.6,0 0,12 -1.6,0 0,-12 z"
   id="path610" />
			<path
   d="m 689.5,526 c 0,-4.7 2,-6.1 4.8,-6.1 2.8,0 4.8,1.4 4.8,6.1 0,4.7 -2,6.2 -4.8,6.2 -2.8,0 -4.8,-1.5 -4.8,-6.2 z m 7.9,0 c 0,-2.9 -0.6,-4.8 -3.2,-4.8 -2.6,0 -3.2,1.9 -3.2,4.8 0,2.9 0.6,4.8 3.2,4.8 2.6,0.1 3.2,-1.9 3.2,-4.8 z m -2.5,-11.4 2.1,0 -2.1,3.9 -1.1,0 1.1,-3.9 z"
   id="path612" />
			<path
   d="m 708.8,523.7 c 0,-1.9 -0.8,-2.5 -2.3,-2.5 -1.6,0 -3,1.1 -3.4,1.4 l 0,9.4 -1.6,0 0,-12 1.2,0 0.3,1.2 c 1,-0.7 2.4,-1.4 3.8,-1.4 2.7,0 3.5,1.5 3.5,3.9 l 0,8.2 -1.6,0 0,-8.2 z"
   id="path614" />
			<path
   d="m 724.9,515.2 1.6,0 0,16.8 -1.3,0 -0.2,-1 c -0.5,0.6 -1.5,1.2 -2.9,1.2 -2.6,0 -4.7,-1.5 -4.7,-6.2 0,-4.7 2.1,-6.2 4.6,-6.2 1.4,0 2.5,0.7 2.8,1.1 l 0,-5.7 z m -2.5,15.7 c 1.1,0 2.1,-0.6 2.6,-1.4 l 0,-6.8 c -0.3,-0.6 -1.2,-1.5 -2.6,-1.5 -2.5,0 -3.3,1.9 -3.3,4.8 0,2.9 0.7,4.9 3.3,4.9 z"
   id="path616" />
			<path
   d="m 730.7,526.4 c 0,2.7 0.7,4.4 3.2,4.4 1.8,0 2.9,-0.8 2.9,-0.8 l 0.6,1.2 c 0,0 -1.4,0.9 -3.5,0.9 -2.8,0 -4.8,-1.5 -4.8,-6.2 0,-4.7 2,-6.2 4.5,-6.2 3.4,0 4.3,2.4 4.3,6.5 l -7.2,0 z m 0,-1.2 5.6,0 c -0.1,-2.8 -0.9,-3.9 -2.7,-3.9 -2.1,-0.1 -2.7,1.5 -2.9,3.9 z"
   id="path618" />
			<path
   d="m 543.7,549.6 c 0,-1.7 -0.7,-2.4 -2.2,-2.4 -1.5,0 -2.8,1.1 -3.2,1.4 l 0,9.4 -1.6,0 0,-12 1.2,0 0.3,1.2 c 0.9,-0.7 2.1,-1.4 3.6,-1.4 1.7,0 2.6,0.6 3.1,1.7 1,-0.9 2.4,-1.7 3.9,-1.7 2.7,0 3.4,1.5 3.4,3.9 l 0,8.2 -1.6,0 0,-8.3 c 0,-1.9 -0.7,-2.5 -2.2,-2.5 -1.3,0 -2.6,1 -3.2,1.5 0.1,0.3 0.1,0.7 0.1,1.2 l 0,8.2 -1.6,0 0,-8.4 z"
   id="path620" />
			<path
   d="m 556.2,541.5 c 0.6,0 1.2,0.6 1.2,1.2 0,0.7 -0.6,1.2 -1.2,1.2 -0.7,0 -1.2,-0.6 -1.2,-1.2 0,-0.7 0.5,-1.2 1.2,-1.2 z m -0.8,4.5 1.6,0 0,12 -1.6,0 0,-12 z"
   id="path622" />
			<path
   d="m 567.1,557.7 c -0.2,0.1 -1.2,0.6 -2.5,0.6 -2.8,0 -4.8,-1.5 -4.8,-6.2 0,-4.7 2,-6.2 4.8,-6.2 1,0 1.8,0.3 2.5,0.6 l -0.6,1.2 c -0.1,0 -0.9,-0.5 -1.9,-0.5 -2.6,0 -3.2,1.9 -3.2,4.8 0,2.9 0.6,4.8 3.2,4.8 1.2,0 2,-0.5 2,-0.5 l 0.5,1.4 z"
   id="path624" />
			<path
   d="m 574.6,547.4 c -0.2,0 -0.5,-0.1 -0.8,-0.1 -1.6,0 -2.5,1.1 -2.7,1.4 l 0,9.4 -1.6,0 0,-12 1.2,0 0.3,1.2 c 0.7,-0.7 1.7,-1.4 3,-1.4 0.3,0 0.6,0 0.8,0.1 l -0.2,1.4 z"
   id="path626" />
			<path
   d="m 576,552 c 0,-4.7 2,-6.1 4.8,-6.1 2.8,0 4.8,1.4 4.8,6.1 0,4.7 -2,6.2 -4.8,6.2 -2.9,0 -4.8,-1.5 -4.8,-6.2 z m 7.9,0 c 0,-2.9 -0.6,-4.8 -3.2,-4.8 -2.6,0 -3.2,1.9 -3.2,4.8 0,2.9 0.6,4.8 3.2,4.8 2.6,0.1 3.2,-1.9 3.2,-4.8 z"
   id="path628" />
			<path
   d="m 589.6,547 c 0.3,-0.4 1.4,-1.1 2.8,-1.1 2.5,0 4.6,1.5 4.6,6.2 0,4.7 -2,6.2 -4.7,6.2 -1.3,0 -2.3,-0.6 -2.8,-1.2 l -0.3,1 -1.2,0 0,-16.8 1.6,0 0,5.7 z m 2.6,0.2 c -1.4,0 -2.2,0.9 -2.6,1.5 l 0,6.8 c 0.5,0.8 1.4,1.4 2.6,1.4 2.5,0 3.3,-1.9 3.3,-4.8 0,-2.9 -0.7,-4.9 -3.3,-4.9 z"
   id="path630" />
			<path
   d="m 600.6,541.5 c 0.6,0 1.2,0.6 1.2,1.2 0,0.7 -0.6,1.2 -1.2,1.2 -0.7,0 -1.2,-0.6 -1.2,-1.2 0,-0.7 0.6,-1.2 1.2,-1.2 z m -0.8,4.5 1.6,0 0,12 -1.6,0 0,-12 z"
   id="path632" />
			<path
   d="m 604.2,552 c 0,-4.7 2,-6.1 4.8,-6.1 2.8,0 4.8,1.4 4.8,6.1 0,4.7 -2,6.2 -4.8,6.2 -2.9,0 -4.8,-1.5 -4.8,-6.2 z m 7.9,0 c 0,-2.9 -0.6,-4.8 -3.2,-4.8 -2.6,0 -3.2,1.9 -3.2,4.8 0,2.9 0.6,4.8 3.2,4.8 2.6,0.1 3.2,-1.9 3.2,-4.8 z"
   id="path634" />
			<path
   d="m 618.8,558.2 c -2,0 -3.4,-1.1 -3.4,-1.1 l 0.7,-1.2 c 0,0 1.2,0.9 2.6,0.9 1.7,0 2.3,-1.1 2.3,-2 0,-0.7 -0.7,-1.4 -2.3,-2.3 -2.2,-1.2 -3,-2.3 -3,-3.5 0,-2 1.7,-3.1 3.5,-3.1 1.9,0 3.2,0.9 3.2,0.9 l -0.6,1.2 c 0,0 -1.3,-0.7 -2.5,-0.7 -1.1,0 -1.9,0.6 -1.9,1.8 0,0.9 1.1,1.6 2.4,2.4 2,1.2 3,2.2 3,3.5 -0.2,1.7 -1.6,3.2 -4,3.2 z"
   id="path636" />
			<path
   d="m 624.8,540.3 c 0,0 3.1,3.6 3.1,9.6 0,6 -3.1,9.6 -3.1,9.6 l -1,-0.3 c 1,-1.8 2.4,-4.7 2.4,-9.4 0,-4.6 -1.3,-7.6 -2.4,-9.4 l 1,-0.1 z"
   id="path638" />
		</g>
	</g><g
   transform="translate(-195.3,-349.89999)"
   id="g640">
		<g
   id="g642">
			<g
   id="g644">
				<path
   d="m 565.6,671 c 0,0.8 0.7,1.4 1.4,1.3 13.4,-0.6 26.9,-0.1 40.1,1.6 0.8,0.1 1.5,-0.4 1.6,-1.2 0,-0.1 0,-0.1 0,-0.2 0,-0.7 -0.5,-1.3 -1.2,-1.4 -13.4,-1.7 -27.1,-2.3 -40.6,-1.7 -0.7,0.1 -1.3,0.8 -1.3,1.6 z"
   id="path646" />
				<path
   d="m 579.1,655.3 0.5,6.6 c -3.7,0 -7.4,0 -11.1,0.2 l -0.1,-6 c 0,-0.8 -0.7,-1.4 -1.4,-1.4 -0.8,0 -1.4,0.7 -1.4,1.4 l 0.1,6.1 c -3.1,0.2 -6.1,0.4 -9.2,0.7 l -2.2,-6 c -0.3,-0.7 -1.1,-1.1 -1.8,-0.8 -0.7,0.3 -1.1,1.1 -0.8,1.8 l 1.9,5.3 c -1.9,0.2 -3.8,0.4 -5.8,0.7 -2,0.3 -3.8,1 -5.4,2.1 l -5.2,-4.8 c -0.6,-0.5 -1.4,-0.5 -2,0.1 -0.5,0.6 -0.5,1.4 0.1,2 l 5,4.6 c -2.2,2.3 -3.7,5.4 -3.8,8.7 l -5.4,1.3 c -0.7,0.2 -1.2,0.9 -1,1.7 0.2,0.7 0.9,1.2 1.7,1 l 4.8,-1.1 c 0.3,2.5 1.4,4.6 3.2,6.2 l -2.7,4.1 c -0.4,0.6 -0.3,1.5 0.4,1.9 0.6,0.4 1.5,0.3 1.9,-0.4 l 2.7,-4.1 c 1.8,0.9 3.9,1.2 6.1,0.9 2.8,-0.4 5.7,-0.7 8.5,-0.9 l -1.2,4.8 c -0.2,0.7 0.3,1.5 1,1.7 0.7,0.2 1.5,-0.3 1.7,-1 l 1.4,-5.7 c 4.4,-0.3 8.7,-0.6 13.1,-0.6 l -1.1,4.8 c -0.2,0.7 0.3,1.5 1,1.7 0.7,0.2 1.5,-0.3 1.7,-1 l 1.3,-5.5 c 4.8,0 9.6,0.1 14.3,0.3 l -0.7,4.9 c -0.1,0.8 0.4,1.5 1.2,1.6 0.8,0.1 1.5,-0.4 1.6,-1.2 l 0.8,-5.1 c 4.6,0.3 9.3,0.7 13.9,1.3 l 1.4,4.9 c 0.2,0.7 1,1.2 1.7,1 0.6,-0.2 1,-0.7 1,-1.3 0,-0.1 0,-0.2 0,-0.4 l -1.1,-4.1 c 2.3,-0.2 4.4,-1 6,-2.5 1.2,-1 2.1,-2.4 2.6,-3.9 l 5.1,1.3 c 0.7,0.2 1.5,-0.3 1.7,-1 0,-0.1 0,-0.2 0,-0.3 0,-0.6 -0.4,-1.2 -1,-1.3 l -5.2,-1.3 c 0,-0.4 0.1,-0.7 0.1,-1.1 l 0,-1 c 0,-1.9 -0.5,-3.8 -1.3,-5.5 l 4.3,-1.2 c 0.6,-0.2 1,-0.7 1,-1.3 0,-0.1 0,-0.2 -0.1,-0.4 -0.2,-0.7 -1,-1.2 -1.7,-1 l -5,1.4 c -1.6,-2.1 -3.7,-3.7 -6.1,-4.6 l 2.1,-5.4 c 0.1,-0.2 0.1,-0.3 0.1,-0.5 0,-0.6 -0.3,-1.1 -0.9,-1.3 -0.7,-0.3 -1.5,0.1 -1.8,0.8 l -2.3,5.8 c -3.7,-0.5 -7.3,-0.8 -11,-1.1 l 1,-6.6 c 0,-0.1 0,-0.1 0,-0.2 0,-0.7 -0.5,-1.3 -1.2,-1.4 -0.8,-0.1 -1.5,0.4 -1.6,1.2 l -1,6.8 c -3.7,-0.3 -7.4,-0.4 -11.1,-0.5 l -0.6,-6.9 c -0.1,-0.8 -0.7,-1.3 -1.5,-1.3 -0.7,-0.1 -1.2,0.5 -1.2,1.3 z m 37.1,21.6 0,1 c 0,2.2 -0.8,4.2 -2.4,5.6 -1.6,1.4 -3.8,2 -6.2,1.7 -19.8,-2.6 -39.8,-2.6 -59.6,0 -2.4,0.3 -4.6,-0.3 -6.2,-1.7 -1.5,-1.3 -2.4,-3.3 -2.4,-5.6 l 0,-1 c 0,-5 4.1,-9.7 8.9,-10.4 19.5,-2.5 39.3,-2.5 58.9,0 4.9,0.7 9,5.4 9,10.4 z"
   id="path648" />
				
					<line
   stroke-miterlimit="10"
   x1="547.5"
   y1="681.09998"
   x2="547.5"
   y2="678.79999"
   id="line650"
   style="fill:none;stroke:#000000;stroke-width:2.17459989;stroke-linecap:round;stroke-linejoin:round;stroke-miterlimit:10" />
				
					<line
   stroke-miterlimit="10"
   x1="554"
   y1="676.90002"
   x2="554"
   y2="674.5"
   id="line652"
   style="fill:none;stroke:#000000;stroke-width:2.17459989;stroke-linecap:round;stroke-linejoin:round;stroke-miterlimit:10" />
				
					<line
   stroke-miterlimit="10"
   x1="547.5"
   y1="673.79999"
   x2="547.5"
   y2="671.5"
   id="line654"
   style="fill:none;stroke:#000000;stroke-width:2.17459989;stroke-linecap:round;stroke-linejoin:round;stroke-miterlimit:10" />
			</g>
			<g
   id="g656">
				<g
   id="g658">
					<g
   id="g660">
						<path
   d="m 558.3,648 c -0.1,0 -0.2,0.1 -0.4,0.1 0,-0.1 0,-0.1 0,-0.2 0,-0.1 -0.1,-0.1 -0.1,-0.2 0,-0.2 0,-0.2 0,-0.4 0,-0.1 0.1,-0.2 0.1,-0.4 0.1,-0.1 0.1,-0.2 0.1,-0.3 0,-0.2 0.1,-0.2 0.1,-0.4 0.1,-0.2 0.1,-0.2 0.1,-0.4 0,-0.2 0.1,-0.3 0.1,-0.4 0,-0.1 0,-0.2 0.1,-0.3 0.1,-0.5 0.1,-0.7 0.2,-1.2 0.1,-0.2 0.1,-0.3 0.2,-0.6 0,-0.2 0,-0.2 0,-0.4 0.1,-0.5 0.2,-0.8 0.3,-1.4 0,-0.2 0,-0.2 0,-0.4 0,-0.2 0,-0.2 0.1,-0.4 0.1,-0.5 0.1,-0.7 0.2,-1.2 0,-0.2 0,-0.2 0.1,-0.4 0.2,-0.9 0.3,-1.4 0.4,-2.3 -0.1,0 -0.1,-0.1 -0.2,-0.1 -0.2,0.1 -0.2,0.2 -0.4,0.3 -0.3,0.4 -0.5,0.6 -0.8,0.9 -0.2,0.2 -0.3,0.3 -0.4,0.5 -0.5,0.6 -0.8,0.9 -1.3,1.5 -0.2,0.2 -0.2,0.3 -0.4,0.4 -0.2,0.2 -0.2,0.3 -0.4,0.5 -0.5,0.6 -0.8,0.9 -1.3,1.5 -0.2,0.2 -0.3,0.3 -0.5,0.5 -0.1,0 -0.2,0.1 -0.3,0.1 0,-0.1 -0.1,-0.1 -0.1,-0.2 0,-0.1 0,-0.2 0.1,-0.3 0.2,-0.2 0.2,-0.4 0.4,-0.6 0.2,-0.2 0.3,-0.3 0.4,-0.5 0.1,-0.2 0.2,-0.3 0.4,-0.5 0.2,-0.2 0.2,-0.3 0.4,-0.5 0.2,-0.2 0.3,-0.3 0.4,-0.5 0.2,-0.2 0.2,-0.3 0.4,-0.5 0.5,-0.6 0.8,-0.9 1.3,-1.5 0.2,-0.2 0.2,-0.2 0.4,-0.4 0.2,-0.2 0.3,-0.3 0.4,-0.5 0.4,-0.4 0.5,-0.6 0.9,-1 0.1,-0.2 0.2,-0.3 0.4,-0.5 0.2,-0.2 0.3,-0.3 0.4,-0.5 0.4,-0.4 0.5,-0.6 0.9,-1 0.2,-0.1 0.3,-0.2 0.5,-0.4 0.1,0 0.2,-0.1 0.4,-0.1 0.1,0.1 0.1,0.1 0.2,0.1 0,0.2 0.1,0.2 0.1,0.4 0,0.2 0,0.3 0,0.5 0,0.2 0,0.2 -0.1,0.4 0,0.1 0,0.2 -0.1,0.4 0,0.2 0,0.3 -0.1,0.5 0,0.2 -0.1,0.2 -0.1,0.4 0,0.2 0,0.2 0,0.4 -0.1,0.5 -0.2,0.7 -0.2,1.2 0,0.1 0,0.2 0,0.4 -0.1,0.3 -0.1,0.5 -0.2,0.9 -0.1,0.3 -0.1,0.5 -0.2,0.8 -0.1,0.5 -0.1,0.7 -0.2,1.2 0,0.1 0,0.2 0,0.4 -0.1,0.5 -0.1,0.7 -0.2,1.2 0,0.2 -0.1,0.2 -0.1,0.4 0,0.1 0,0.2 -0.1,0.3 -0.1,0.3 -0.1,0.5 -0.2,0.8 -0.1,0.4 -0.2,0.6 -0.3,1.1 0.1,0.1 0.1,0.1 0.1,0.1 0.2,-0.1 0.2,-0.2 0.4,-0.3 0.2,-0.2 0.3,-0.3 0.5,-0.5 0.2,-0.2 0.3,-0.3 0.4,-0.5 0.2,-0.2 0.3,-0.3 0.5,-0.4 0.2,-0.2 0.3,-0.3 0.5,-0.5 0.7,-0.6 1,-1 1.7,-1.6 0.2,-0.2 0.3,-0.3 0.5,-0.5 0.3,-0.3 0.4,-0.4 0.7,-0.6 0.4,-0.4 0.6,-0.6 0.9,-1 0.2,-0.2 0.4,-0.2 0.6,-0.4 0.2,0 0.3,0 0.4,0.1 0,0.2 0,0.2 0,0.4 -0.2,0.2 -0.3,0.3 -0.4,0.6 -0.2,0.2 -0.2,0.3 -0.4,0.4 -0.3,0.3 -0.4,0.4 -0.7,0.7 -0.2,0.2 -0.3,0.3 -0.4,0.5 -0.2,0.2 -0.3,0.3 -0.5,0.4 -0.2,0.2 -0.3,0.3 -0.5,0.5 -0.2,0.2 -0.3,0.3 -0.5,0.5 -0.2,0.2 -0.3,0.2 -0.4,0.4 -1.5,1.4 -2.3,2.1 -3.8,3.5 -0.3,0.3 -0.4,0.4 -0.7,0.7 -0.4,0 -0.5,0.1 -0.7,0.3 z"
   id="path662" />
						<path
   d="m 570,636.8 c -0.2,0 -0.3,0 -0.4,0 0,-0.1 -0.1,-0.1 -0.1,-0.2 -0.1,-0.1 -0.1,-0.2 -0.2,-0.3 0,-0.2 0,-0.3 -0.1,-0.5 0,-0.2 0,-0.2 0,-0.4 0,-0.1 0.1,-0.2 0.1,-0.4 0,-0.2 0,-0.3 0.1,-0.4 0,-0.2 0.1,-0.2 0.1,-0.4 0,-0.2 0,-0.3 0.1,-0.4 0,-0.1 0,-0.2 0,-0.3 0.1,-0.5 0.1,-0.7 0.2,-1.2 0.1,-0.2 0.1,-0.3 0.2,-0.6 0,-0.2 0,-0.3 0,-0.4 0.1,-0.6 0.1,-0.8 0.2,-1.4 0,-0.2 0,-0.2 0,-0.4 0,-0.2 0,-0.2 0.1,-0.4 0.1,-0.5 0.1,-0.8 0.2,-1.3 0,-0.2 0,-0.2 0.1,-0.4 0.1,-1 0.2,-1.4 0.4,-2.4 -0.1,-0.1 -0.1,-0.1 -0.2,-0.1 -0.2,0.1 -0.2,0.1 -0.4,0.2 -0.3,0.4 -0.5,0.6 -0.8,0.9 -0.2,0.2 -0.3,0.3 -0.4,0.5 -0.5,0.6 -0.8,0.9 -1.4,1.5 -0.2,0.2 -0.3,0.2 -0.4,0.4 -0.2,0.2 -0.2,0.3 -0.4,0.5 -0.5,0.6 -0.8,0.9 -1.3,1.5 -0.2,0.2 -0.3,0.3 -0.6,0.4 -0.2,0 -0.2,0 -0.4,0.1 -0.1,-0.1 -0.1,-0.1 -0.2,-0.2 0,-0.1 0,-0.2 0,-0.3 0.1,-0.2 0.2,-0.4 0.4,-0.6 0.2,-0.2 0.3,-0.3 0.4,-0.5 0.1,-0.2 0.2,-0.3 0.4,-0.5 0.2,-0.2 0.3,-0.3 0.4,-0.5 0.2,-0.2 0.3,-0.3 0.5,-0.5 0.2,-0.2 0.2,-0.3 0.4,-0.5 0.5,-0.6 0.8,-0.9 1.3,-1.5 0.2,-0.2 0.2,-0.2 0.4,-0.4 0.2,-0.2 0.3,-0.3 0.4,-0.5 0.4,-0.4 0.6,-0.6 0.9,-1 0.1,-0.2 0.2,-0.3 0.4,-0.5 0.2,-0.2 0.3,-0.3 0.4,-0.5 0.4,-0.4 0.5,-0.6 0.9,-1 0.2,-0.1 0.3,-0.2 0.5,-0.3 0.2,0 0.2,0 0.4,-0.1 0.1,0.1 0.1,0.1 0.2,0.2 0.1,0.2 0.1,0.3 0.2,0.5 0,0.2 0,0.3 0.1,0.5 0,0.2 0,0.3 0,0.4 0,0.1 0,0.2 -0.1,0.4 0,0.2 0,0.3 -0.1,0.5 0,0.2 -0.1,0.3 -0.1,0.4 0,0.2 0,0.2 0,0.4 -0.1,0.5 -0.1,0.7 -0.2,1.2 0,0.2 0,0.2 0,0.4 -0.1,0.4 -0.1,0.5 -0.1,0.9 -0.1,0.3 -0.1,0.5 -0.2,0.8 -0.1,0.5 -0.1,0.7 -0.2,1.2 0,0.2 0,0.2 0,0.4 -0.1,0.5 -0.1,0.8 -0.2,1.3 0,0.2 -0.1,0.3 -0.1,0.4 0,0.1 0,0.2 0,0.4 -0.1,0.3 -0.1,0.5 -0.2,0.8 -0.1,0.5 -0.1,0.7 -0.2,1.2 0.1,0.1 0.1,0.1 0.2,0.2 0.2,-0.1 0.3,-0.2 0.4,-0.3 0.2,-0.2 0.3,-0.3 0.5,-0.5 0.2,-0.2 0.2,-0.3 0.4,-0.5 0.2,-0.2 0.3,-0.2 0.4,-0.4 0.2,-0.2 0.3,-0.3 0.5,-0.5 0.7,-0.7 1,-1 1.6,-1.6 0.2,-0.2 0.3,-0.3 0.5,-0.5 0.3,-0.3 0.4,-0.4 0.6,-0.7 0.4,-0.4 0.6,-0.6 0.9,-1 0.2,-0.2 0.4,-0.2 0.6,-0.4 0.2,0 0.3,0.1 0.5,0.1 0,0.2 0.1,0.3 0.1,0.4 -0.2,0.2 -0.2,0.4 -0.4,0.6 -0.2,0.2 -0.2,0.3 -0.4,0.5 -0.3,0.3 -0.4,0.4 -0.7,0.7 -0.2,0.2 -0.3,0.3 -0.4,0.5 -0.2,0.2 -0.3,0.3 -0.5,0.4 -0.2,0.2 -0.3,0.3 -0.4,0.5 -0.2,0.2 -0.3,0.3 -0.5,0.5 -0.2,0.2 -0.3,0.2 -0.4,0.4 -1.5,1.5 -2.2,2.2 -3.7,3.7 -0.3,0.3 -0.4,0.4 -0.7,0.7 -0.2,0 -0.3,0.1 -0.5,0.2 z"
   id="path664" />
						<path
   d="m 581.3,625.3 c -0.2,0 -0.3,0 -0.5,0 -0.1,-0.1 -0.1,-0.1 -0.1,-0.2 -0.1,-0.2 -0.1,-0.2 -0.2,-0.4 0,-0.2 -0.1,-0.3 -0.1,-0.5 0,-0.2 0,-0.2 0,-0.4 0,-0.2 0.1,-0.2 0.1,-0.4 0,-0.2 0,-0.3 0.1,-0.5 0,-0.2 0.1,-0.3 0.1,-0.4 0,-0.2 0,-0.3 0,-0.4 0,-0.1 0,-0.2 0,-0.3 0.1,-0.5 0.1,-0.7 0.1,-1.2 0.1,-0.2 0.1,-0.3 0.2,-0.6 0,-0.2 0,-0.3 0,-0.4 0.1,-0.6 0.1,-0.8 0.2,-1.4 0,-0.2 0,-0.2 0,-0.4 0,-0.2 0,-0.2 0.1,-0.4 0.1,-0.5 0.1,-0.8 0.2,-1.3 0,-0.2 0,-0.2 0.1,-0.4 0.1,-1 0.2,-1.5 0.3,-2.5 -0.1,-0.1 -0.1,-0.1 -0.2,-0.2 -0.2,0.1 -0.3,0.1 -0.4,0.2 -0.3,0.4 -0.5,0.6 -0.8,0.9 -0.2,0.2 -0.3,0.3 -0.4,0.5 -0.6,0.6 -0.8,0.9 -1.4,1.5 -0.2,0.2 -0.3,0.2 -0.4,0.4 -0.2,0.2 -0.2,0.3 -0.4,0.5 -0.5,0.6 -0.8,0.9 -1.3,1.5 -0.2,0.2 -0.4,0.3 -0.6,0.4 -0.2,0 -0.3,0 -0.4,0 -0.1,-0.1 -0.1,-0.2 -0.2,-0.3 0,-0.2 0,-0.2 0,-0.4 0.1,-0.3 0.2,-0.4 0.4,-0.6 0.2,-0.2 0.3,-0.3 0.4,-0.4 0.1,-0.2 0.2,-0.3 0.4,-0.5 0.2,-0.2 0.3,-0.3 0.4,-0.5 0.2,-0.2 0.3,-0.3 0.4,-0.4 0.2,-0.2 0.2,-0.3 0.4,-0.5 0.5,-0.6 0.8,-0.9 1.3,-1.5 0.2,-0.2 0.2,-0.2 0.4,-0.4 0.2,-0.2 0.3,-0.3 0.4,-0.5 0.4,-0.4 0.6,-0.6 0.9,-1 0.1,-0.2 0.2,-0.3 0.3,-0.5 0.2,-0.2 0.3,-0.3 0.5,-0.5 0.4,-0.4 0.5,-0.6 0.9,-1 0.2,-0.1 0.3,-0.2 0.5,-0.3 0.2,0 0.3,0 0.4,0 0.1,0.1 0.1,0.1 0.2,0.2 0.1,0.2 0.1,0.3 0.2,0.5 0,0.2 0.1,0.3 0.1,0.5 0,0.2 0,0.3 0,0.4 0,0.2 0,0.2 -0.1,0.4 0,0.2 0,0.3 0,0.5 0,0.2 -0.1,0.3 -0.1,0.4 0,0.2 0,0.2 0,0.4 -0.1,0.5 -0.1,0.8 -0.2,1.2 0,0.2 0,0.2 0,0.4 -0.1,0.4 -0.1,0.5 -0.1,0.9 -0.1,0.3 -0.1,0.5 -0.2,0.8 -0.1,0.5 -0.1,0.7 -0.2,1.2 0,0.1 0,0.2 0,0.4 -0.1,0.5 -0.1,0.8 -0.2,1.3 0,0.2 -0.1,0.3 -0.1,0.4 0,0.1 0,0.2 0,0.4 -0.1,0.3 -0.1,0.5 -0.2,0.9 0,0.5 -0.1,0.7 -0.1,1.2 0.1,0.1 0.1,0.1 0.2,0.2 0.2,-0.1 0.3,-0.2 0.4,-0.3 0.2,-0.2 0.3,-0.3 0.5,-0.5 0.2,-0.2 0.2,-0.3 0.4,-0.5 0.2,-0.2 0.3,-0.2 0.4,-0.4 0.2,-0.2 0.3,-0.3 0.5,-0.5 0.7,-0.6 1,-1 1.6,-1.6 0.2,-0.2 0.3,-0.3 0.5,-0.5 0.3,-0.3 0.4,-0.4 0.7,-0.7 0.4,-0.4 0.6,-0.6 0.9,-1 0.2,-0.1 0.4,-0.2 0.6,-0.4 0.2,0 0.3,0.1 0.5,0.1 0.1,0.2 0.1,0.3 0.1,0.5 -0.1,0.2 -0.2,0.4 -0.4,0.6 -0.2,0.2 -0.2,0.3 -0.4,0.5 -0.3,0.3 -0.4,0.4 -0.7,0.7 -0.2,0.2 -0.2,0.3 -0.4,0.5 -0.2,0.2 -0.3,0.3 -0.5,0.4 -0.2,0.2 -0.3,0.3 -0.4,0.5 -0.2,0.2 -0.3,0.3 -0.5,0.5 -0.2,0.2 -0.3,0.2 -0.4,0.4 -1.5,1.5 -2.2,2.2 -3.6,3.7 -0.3,0.3 -0.4,0.4 -0.7,0.7 -0.1,0.2 -0.2,0.3 -0.4,0.4 z"
   id="path666" />
						<path
   d="m 592.7,613.9 c -0.2,0 -0.3,-0.1 -0.5,-0.1 -0.1,-0.1 -0.1,-0.2 -0.2,-0.3 -0.1,-0.2 -0.2,-0.3 -0.3,-0.4 -0.1,-0.2 -0.1,-0.3 -0.2,-0.5 0,-0.2 0,-0.3 0,-0.4 0,-0.2 0,-0.2 0.1,-0.4 0,-0.2 0,-0.3 0,-0.5 0,-0.2 0.1,-0.3 0.1,-0.4 0,-0.2 0,-0.3 0.1,-0.5 0,-0.1 0,-0.2 0,-0.3 0,-0.5 0.1,-0.8 0.1,-1.3 0.1,-0.2 0.1,-0.4 0.1,-0.6 0,-0.2 0,-0.3 0,-0.4 0.1,-0.6 0.1,-0.9 0.2,-1.4 0,-0.2 0,-0.2 0,-0.4 0,-0.2 0,-0.2 0,-0.4 0.1,-0.5 0.1,-0.8 0.1,-1.3 0,-0.2 0,-0.2 0,-0.4 0.1,-1 0.1,-1.5 0.1,-2.6 -0.1,-0.1 -0.2,-0.1 -0.3,-0.2 -0.2,0.1 -0.3,0.1 -0.4,0.2 -0.3,0.4 -0.5,0.6 -0.8,0.9 -0.2,0.2 -0.2,0.3 -0.4,0.6 -0.5,0.6 -0.8,0.9 -1.3,1.5 -0.2,0.2 -0.3,0.2 -0.4,0.4 -0.1,0.2 -0.2,0.3 -0.4,0.5 -0.5,0.6 -0.8,0.9 -1.3,1.5 -0.2,0.2 -0.4,0.2 -0.6,0.4 -0.2,0 -0.3,0 -0.4,0 -0.1,-0.1 -0.2,-0.2 -0.3,-0.3 0,-0.2 0,-0.3 -0.1,-0.4 0.1,-0.3 0.2,-0.4 0.3,-0.7 0.2,-0.2 0.3,-0.3 0.4,-0.4 0.1,-0.2 0.2,-0.3 0.3,-0.5 0.2,-0.2 0.3,-0.3 0.4,-0.5 0.2,-0.2 0.3,-0.3 0.5,-0.5 0.2,-0.2 0.2,-0.3 0.4,-0.5 0.5,-0.6 0.8,-0.9 1.3,-1.5 0.2,-0.2 0.2,-0.2 0.4,-0.4 0.2,-0.2 0.2,-0.3 0.4,-0.6 0.4,-0.4 0.5,-0.6 0.9,-1 0.1,-0.2 0.2,-0.3 0.3,-0.5 0.2,-0.2 0.3,-0.3 0.4,-0.5 0.3,-0.4 0.5,-0.6 0.8,-1 0.2,-0.1 0.3,-0.2 0.6,-0.3 0.2,0 0.3,0 0.5,0 0.1,0.1 0.2,0.2 0.3,0.3 0.1,0.2 0.2,0.4 0.3,0.6 0.1,0.2 0.1,0.3 0.2,0.6 0,0.2 0,0.3 0,0.5 0,0.2 0,0.2 0,0.4 0,0.2 0,0.3 0,0.5 0,0.2 0,0.3 -0.1,0.5 0,0.2 0,0.3 0.1,0.4 0,0.5 -0.1,0.8 -0.1,1.3 0,0.2 0,0.2 0,0.4 0,0.4 -0.1,0.5 -0.1,0.9 -0.1,0.3 -0.1,0.5 -0.1,0.8 -0.1,0.5 -0.1,0.8 -0.1,1.3 0,0.2 0,0.2 0,0.4 -0.1,0.5 -0.1,0.8 -0.2,1.3 0,0.2 -0.1,0.3 -0.1,0.4 0,0.2 0,0.2 0,0.4 -0.1,0.3 -0.1,0.5 -0.1,0.9 0,0.5 -0.1,0.8 -0.1,1.3 0.1,0.1 0.1,0.1 0.2,0.2 0.2,-0.1 0.3,-0.2 0.5,-0.3 0.2,-0.2 0.3,-0.3 0.5,-0.5 0.2,-0.2 0.3,-0.3 0.4,-0.5 0.2,-0.2 0.3,-0.2 0.4,-0.4 0.2,-0.2 0.3,-0.3 0.5,-0.5 0.7,-0.6 1,-0.9 1.7,-1.6 0.2,-0.2 0.3,-0.3 0.5,-0.5 0.3,-0.3 0.4,-0.4 0.7,-0.6 0.4,-0.4 0.6,-0.6 1,-1 0.3,-0.1 0.4,-0.2 0.7,-0.3 0.2,0.1 0.4,0.1 0.6,0.2 0.1,0.2 0.1,0.3 0.2,0.6 -0.2,0.2 -0.2,0.4 -0.4,0.6 -0.2,0.2 -0.2,0.3 -0.4,0.4 -0.3,0.3 -0.4,0.4 -0.7,0.6 -0.2,0.2 -0.3,0.3 -0.4,0.5 -0.2,0.2 -0.3,0.2 -0.5,0.4 -0.2,0.2 -0.3,0.3 -0.4,0.5 -0.2,0.2 -0.3,0.3 -0.5,0.5 -0.2,0.2 -0.3,0.2 -0.5,0.4 -1.5,1.4 -2.3,2.1 -3.8,3.6 -0.3,0.3 -0.4,0.4 -0.7,0.7 -0.1,0 -0.2,0 -0.4,0.2 z"
   id="path668" />
					</g>
				</g>
			</g>
		</g>
		<g
   id="g670">
			
				<path
   stroke-miterlimit="10"
   d="m 440.8,647.8 c 1,0 11.7,0 11.7,0 l -8.4,8.1 7.7,8.1 -11.1,0 0,11 -8.1,-7.7 -8,8.4 0,-11.8 -11.1,0 7.9,-7.9 -8.1,-8.1 11.3,0 0,-11.2 7.9,7.9 8.4,-8.4 -0.1,11.6 z"
   id="path672"
   style="fill:none;stroke:#40beb4;stroke-width:2.43560004;stroke-linecap:round;stroke-linejoin:round;stroke-miterlimit:10" />
			<g
   id="g674">
				<g
   id="g676">
					
						<line
   stroke-miterlimit="10"
   x1="432.70001"
   y1="605"
   x2="432.70001"
   y2="655.90002"
   id="line678"
   style="fill:none;stroke:#40beb4;stroke-width:2.43560004;stroke-linecap:round;stroke-linejoin:round;stroke-miterlimit:10" />
					
						<polyline
   stroke-miterlimit="10"
   points="       437.9,610.5 432.7,615.6 427.6,610.5      "
   id="polyline680"
   style="fill:none;stroke:#40beb4;stroke-width:2.43560004;stroke-linecap:round;stroke-linejoin:round;stroke-miterlimit:10" />
					
						<polyline
   stroke-miterlimit="10"
   points="       426.1,620.7 426.1,628 418.8,628      "
   id="polyline682"
   style="fill:none;stroke:#40beb4;stroke-width:2.43560004;stroke-linecap:round;stroke-linejoin:round;stroke-miterlimit:10" />
					
						<polyline
   stroke-miterlimit="10"
   points="       439.7,620.7 439.7,628 446.9,628      "
   id="polyline684"
   style="fill:none;stroke:#40beb4;stroke-width:2.43560004;stroke-linecap:round;stroke-linejoin:round;stroke-miterlimit:10" />
					
						<polyline
   stroke-miterlimit="10"
   points="       446.5,620.9 432.7,634.7 418.9,620.9      "
   id="polyline686"
   style="fill:none;stroke:#40beb4;stroke-width:2.43560004;stroke-linecap:round;stroke-linejoin:round;stroke-miterlimit:10" />
				</g>
				<g
   id="g688">
					
						<line
   stroke-miterlimit="10"
   x1="381.79999"
   y1="655.90002"
   x2="432.70001"
   y2="655.90002"
   id="line690"
   style="fill:none;stroke:#40beb4;stroke-width:2.43560004;stroke-linecap:round;stroke-linejoin:round;stroke-miterlimit:10" />
					
						<polyline
   stroke-miterlimit="10"
   points="       387.3,650.7 392.5,655.9 387.3,661      "
   id="polyline692"
   style="fill:none;stroke:#40beb4;stroke-width:2.43560004;stroke-linecap:round;stroke-linejoin:round;stroke-miterlimit:10" />
					
						<polyline
   stroke-miterlimit="10"
   points="       397.6,662.6 404.8,662.6 404.8,669.8      "
   id="polyline694"
   style="fill:none;stroke:#40beb4;stroke-width:2.43560004;stroke-linecap:round;stroke-linejoin:round;stroke-miterlimit:10" />
					
						<polyline
   stroke-miterlimit="10"
   points="       397.6,649 404.8,649 404.8,641.7      "
   id="polyline696"
   style="fill:none;stroke:#40beb4;stroke-width:2.43560004;stroke-linecap:round;stroke-linejoin:round;stroke-miterlimit:10" />
					
						<polyline
   stroke-miterlimit="10"
   points="       397.7,642.1 411.5,655.9 397.7,669.7      "
   id="polyline698"
   style="fill:none;stroke:#40beb4;stroke-width:2.43560004;stroke-linecap:round;stroke-linejoin:round;stroke-miterlimit:10" />
				</g>
				<g
   id="g700">
					
						<line
   stroke-miterlimit="10"
   x1="432.70001"
   y1="706.79999"
   x2="432.70001"
   y2="655.90002"
   id="line702"
   style="fill:none;stroke:#40beb4;stroke-width:2.43560004;stroke-linecap:round;stroke-linejoin:round;stroke-miterlimit:10" />
					
						<polyline
   stroke-miterlimit="10"
   points="       427.6,701.3 432.7,696.1 437.9,701.3      "
   id="polyline704"
   style="fill:none;stroke:#40beb4;stroke-width:2.43560004;stroke-linecap:round;stroke-linejoin:round;stroke-miterlimit:10" />
					
						<polyline
   stroke-miterlimit="10"
   points="       439.4,691.1 439.4,683.8 446.7,683.8      "
   id="polyline706"
   style="fill:none;stroke:#40beb4;stroke-width:2.43560004;stroke-linecap:round;stroke-linejoin:round;stroke-miterlimit:10" />
					
						<polyline
   stroke-miterlimit="10"
   points="       425.8,691.1 425.8,683.8 418.5,683.8      "
   id="polyline708"
   style="fill:none;stroke:#40beb4;stroke-width:2.43560004;stroke-linecap:round;stroke-linejoin:round;stroke-miterlimit:10" />
					
						<polyline
   stroke-miterlimit="10"
   points="       418.9,690.9 432.7,677.1 446.5,690.9      "
   id="polyline710"
   style="fill:none;stroke:#40beb4;stroke-width:2.43560004;stroke-linecap:round;stroke-linejoin:round;stroke-miterlimit:10" />
				</g>
				<g
   id="g712">
					
						<line
   stroke-miterlimit="10"
   x1="483.60001"
   y1="655.90002"
   x2="432.70001"
   y2="655.90002"
   id="line714"
   style="fill:none;stroke:#40beb4;stroke-width:2.43560004;stroke-linecap:round;stroke-linejoin:round;stroke-miterlimit:10" />
					
						<polyline
   stroke-miterlimit="10"
   points="       478.1,661 473,655.9 478.1,650.7      "
   id="polyline716"
   style="fill:none;stroke:#40beb4;stroke-width:2.43560004;stroke-linecap:round;stroke-linejoin:round;stroke-miterlimit:10" />
					
						<polyline
   stroke-miterlimit="10"
   points="       467.9,649.2 460.6,649.2 460.6,642      "
   id="polyline718"
   style="fill:none;stroke:#40beb4;stroke-width:2.43560004;stroke-linecap:round;stroke-linejoin:round;stroke-miterlimit:10" />
					
						<polyline
   stroke-miterlimit="10"
   points="       467.9,662.8 460.6,662.8 460.6,670.1      "
   id="polyline720"
   style="fill:none;stroke:#40beb4;stroke-width:2.43560004;stroke-linecap:round;stroke-linejoin:round;stroke-miterlimit:10" />
					
						<polyline
   stroke-miterlimit="10"
   points="       467.7,669.7 454,655.9 467.7,642.1      "
   id="polyline722"
   style="fill:none;stroke:#40beb4;stroke-width:2.43560004;stroke-linecap:round;stroke-linejoin:round;stroke-miterlimit:10" />
				</g>
			</g>
			<g
   id="g724">
				
					<line
   stroke-miterlimit="10"
   x1="466.20001"
   y1="622.40002"
   x2="399.20001"
   y2="689.40002"
   id="line726"
   style="fill:none;stroke:#40beb4;stroke-width:2.43560004;stroke-linecap:round;stroke-linejoin:round;stroke-miterlimit:10" />
			</g>
			<g
   id="g728">
				
					<polyline
   stroke-miterlimit="10"
   points="      469.9,630.8 457.8,630.8 457.8,618.7     "
   id="polyline730"
   style="fill:none;stroke:#40beb4;stroke-width:2.43560004;stroke-linecap:round;stroke-linejoin:round;stroke-miterlimit:10" />
				
					<polyline
   stroke-miterlimit="10"
   points="      395.5,681 407.6,681 407.6,693.1     "
   id="polyline732"
   style="fill:none;stroke:#40beb4;stroke-width:2.43560004;stroke-linecap:round;stroke-linejoin:round;stroke-miterlimit:10" />
			</g>
			<g
   id="g734">
				
					<line
   stroke-miterlimit="10"
   x1="466.20001"
   y1="689.40002"
   x2="399.20001"
   y2="622.40002"
   id="line736"
   style="fill:none;stroke:#40beb4;stroke-width:2.43560004;stroke-linecap:round;stroke-linejoin:round;stroke-miterlimit:10" />
			</g>
			<g
   id="g738">
				
					<polyline
   stroke-miterlimit="10"
   points="      457.8,693.1 457.8,681 469.9,681     "
   id="polyline740"
   style="fill:none;stroke:#40beb4;stroke-width:2.43560004;stroke-linecap:round;stroke-linejoin:round;stroke-miterlimit:10" />
				
					<polyline
   stroke-miterlimit="10"
   points="      407.6,618.7 407.6,630.8 395.5,630.8     "
   id="polyline742"
   style="fill:none;stroke:#40beb4;stroke-width:2.43560004;stroke-linecap:round;stroke-linejoin:round;stroke-miterlimit:10" />
			</g>
		</g>
	</g><g
   transform="translate(-195.3,-349.89999)"
   id="g775">
		<path
   d="m 1156.1,652.5 -120.6,0 c -2.4,-4.6 -7.2,-7.7 -12.7,-7.7 -7.9,0 -14.3,6.4 -14.3,14.3 0,7.9 6.4,14.3 14.3,14.3 5.5,0 10.3,-3.1 12.7,-7.7 l 120.6,0 c 3.6,0 6.5,-2.9 6.5,-6.5 0.1,-3.8 -2.8,-6.7 -6.5,-6.7 z"
   id="path777"
   style="fill:#ffffff" />
		
		<rect
   x="1043.6"
   y="642.70001"
   width="2.0999999"
   height="9.8000002"
   id="rect781"
   style="fill:#ffffff" />
		<rect
   x="1054.5"
   y="647.59998"
   width="2.0999999"
   height="4.9000001"
   id="rect783"
   style="fill:#ffffff" />
		<rect
   x="1065.5"
   y="647.59998"
   width="2.0999999"
   height="4.9000001"
   id="rect785"
   style="fill:#ffffff" />
		<rect
   x="1076.4"
   y="642.70001"
   width="2.0999999"
   height="9.8000002"
   id="rect787"
   style="fill:#ffffff" />
		<rect
   x="1087.4"
   y="647.59998"
   width="2.0999999"
   height="4.9000001"
   id="rect789"
   style="fill:#ffffff" />
		<rect
   x="1098.3"
   y="647.59998"
   width="2.0999999"
   height="4.9000001"
   id="rect791"
   style="fill:#ffffff" />
		<rect
   x="1109.3"
   y="642.70001"
   width="2.0999999"
   height="9.8000002"
   id="rect793"
   style="fill:#ffffff" />
		<rect
   x="1120.3"
   y="647.59998"
   width="2.0999999"
   height="4.9000001"
   id="rect795"
   style="fill:#ffffff" />
		<rect
   x="1131.2"
   y="647.59998"
   width="2.0999999"
   height="4.9000001"
   id="rect797"
   style="fill:#ffffff" />
		<rect
   x="1142.2"
   y="642.70001"
   width="2.0999999"
   height="9.8000002"
   id="rect799"
   style="fill:#ffffff" />
		<path
   d="m 1021,649.1 c -1.6,-1.6 -4.9,-0.8 -7.4,1.7 -2.5,2.5 -3.3,5.9 -1.7,7.4 1.6,1.6 4.9,0.8 7.4,-1.7 2.5,-2.5 3.3,-5.9 1.7,-7.4 z"
   id="path801"
   style="fill:#fafbfb" />
	</g>
</svg>