<?xml version="1.0" encoding="UTF-8" standalone="no"?>
<svg
   xmlns:dc="http://purl.org/dc/elements/1.1/"
   xmlns:cc="http://creativecommons.org/ns#"
   xmlns:rdf="http://www.w3.org/1999/02/22-rdf-syntax-ns#"
   xmlns:svg="http://www.w3.org/2000/svg"
   xmlns="http://www.w3.org/2000/svg"
   id="svg2"
   xml:space="preserve"
   enable-background="new 0 0 1920 1080"
   viewBox="0 0 80.773895 96.699998"
   height="96.699997"
   width="80.773895"
   y="0px"
   x="0px"
   version="1.1"><metadata
   id="metadata582"><rdf:RDF><cc:Work
       rdf:about=""><dc:format>image/svg+xml</dc:format><dc:type
         rdf:resource="http://purl.org/dc/dcmitype/StillImage" /><dc:title></dc:title></cc:Work></rdf:RDF></metadata><defs
   id="defs580">
	
	
	
	
	
	
	
	
	
	
	
	
	
	
	
	
	
	
	
	
	
	
	
	
	
	
	
	
	
	
	
	
	
	
	
	
	
</defs>
<g
   transform="translate(-925.63436,-308.7)"
   id="Capa_2">
</g>
<g
   transform="translate(-925.63436,-308.7)"
   id="g8">
		<path
   d="m 932,351.4 0,45.6 c 0,4.7 15.8,8.4 35.4,8.4 19.5,0 35.4,-3.8 35.4,-8.4 l 0,-45.7 -70.8,0 z"
   id="path10"
   style="fill:#c7ccce" />
		<path
   d="m 932,345.4 0,45.7 c 0,4.7 15.8,8.6 35.4,8.6 19.5,0 35.4,-3.9 35.4,-8.6 l 0,-45.7 -70.8,0 z"
   id="path12"
   style="fill:#faa231" />
		<path
   d="m 1002.8,347.6 c 0,4.7 -15.8,8.4 -35.4,8.4 -19.5,0 -35.4,-3.8 -35.4,-8.4 0,-4.7 3.9,-17.4 35.4,-17.4 30.5,0.1 35.4,12.8 35.4,17.4"
   id="path14"
   style="fill:#faa231" />
		<path
   d="m 931.9,333.7 c -2,4.6 -1.3,4 2.1,7.8 2.5,2.9 4.7,6.1 7.3,9 7.9,-3.8 17.4,-5.8 25.8,-8.9 7.5,-2.7 39.8,6.8 39.2,5.5 -1.4,-3.2 -4.5,-11.5 -5,-14.9 -0.4,-3.5 1,-10.4 1,-13.9 0,-6 -20.2,-5.9 -29.2,-6.3 -7.5,-0.4 -15.1,0.3 -22.5,0.8 -4.8,0.3 -15,-0.7 -18.4,3.8 -3.1,4.4 2.2,11.5 -0.3,17.1"
   id="path16"
   style="fill:#cbb084" />
		<path
   d="m 1002.6,317.1 c 0,4.7 -15.8,8.4 -35.4,8.4 -19.5,0 -35.4,-3.8 -35.4,-8.4 0,-4.6 15.8,-8.4 35.4,-8.4 19.6,0 35.4,3.8 35.4,8.4"
   id="path18"
   style="fill:#e0c08b" />
		<path
   d="m 1001.4,326.9 c -3.3,0 -8,2 -11.3,3 -7,2 -15.9,3.7 -23.4,3.4 -11.4,-0.5 -21.4,-1.5 -34.6,-7.5 0.5,2.7 -5,11 -6.1,13.5 -2,4.6 4.7,-1.5 8.1,2.4 2.5,2.9 4.7,6.1 7.3,9 7.9,-3.8 17.4,-5.8 25.8,-8.9 7.5,-2.7 39.8,6.8 39.2,5.5 -1.4,-3.2 -4.5,-11.5 -5,-14.9 -0.2,-1.4 -0.1,-3.3 0.2,-5.4 -0.1,-0.1 -0.1,-0.1 -0.2,-0.1"
   id="path20"
   style="fill:#e0c08b" />
		<path
   d="m 931,323.2 c -0.6,0.6 -0.6,1.5 0,2.1 8.5,8.7 56.4,9.7 71.2,1.5 0.7,-0.4 1,-1.3 0.6,-2 -0.4,-0.7 -1.3,-1 -2,-0.6 -14.4,8.1 -60.7,6.2 -67.6,-0.9 -0.7,-0.7 -1.6,-0.7 -2.2,-0.1"
   id="path22"
   style="fill:#543d3e" />
		<path
   d="m 931,327.1 c -0.6,0.6 -0.6,1.5 0,2.1 8.5,8.7 56.4,9.7 71.2,1.5 0.7,-0.4 1,-1.3 0.6,-2 -0.4,-0.7 -1.3,-1 -2,-0.6 -14.4,8.1 -60.7,6.2 -67.6,-0.9 -0.7,-0.6 -1.6,-0.6 -2.2,-0.1"
   id="path24"
   style="fill:#543d3e" />
		<path
   d="m 969,338.5 c 0,-0.1 0,-0.2 0,-0.2 0,-1.1 0.9,-2.2 2.3,-3.1 1.6,-1 3.8,-1.5 5.2,-1.2 -0.5,0.4 -1,0.8 -1.6,1.4 -1.1,1 -4.5,4 -5.7,4.1 -0.2,-0.2 -0.2,-0.5 -0.2,-1 m 0.7,-5.8 c -2.3,1.4 -3.6,3.4 -3.6,5.5 -0.1,2.1 0.5,3.4 1.7,4 1.7,0.8 3.7,-0.3 6,-2.1 -0.8,2.6 -1.2,5.2 -1.5,7.2 -0.2,1.2 -0.4,2.3 -0.5,2.8 -0.1,0.2 -0.1,0.3 -0.1,0.5 0,0.6 0.4,1.2 1,1.4 0.8,0.3 1.6,-0.1 1.9,-0.9 0.3,-0.7 0.4,-1.8 0.7,-3.3 0.5,-3.4 1.4,-8.6 3.9,-12.3 0,0 -0.7,-0.7 -1.3,-1.3 0.5,-0.1 0.9,-0.4 1.1,-0.8 0.1,-0.2 0.1,-0.4 0.1,-0.6 0,-0.6 -0.3,-1.1 -0.9,-1.4 -2.3,-1 -5.8,-0.5 -8.5,1.3"
   id="path26"
   style="fill:#543d3e" />
		<path
   d="m 982.6,335.1 c 1.4,0.9 2.2,2 2.3,3.1 0,0.1 0,0.2 0,0.2 0,0.5 -0.1,0.8 -0.1,0.9 -1.2,-0.1 -4.6,-3.1 -5.7,-4.1 -0.6,-0.6 -1.2,-1 -1.6,-1.4 1.4,-0.2 3.5,0.3 5.1,1.3 m -6.9,-3.7 c -0.6,0.2 -0.9,0.8 -0.9,1.4 0,0.2 0,0.4 0.1,0.6 0.2,0.5 0.6,0.8 1.1,0.8 -0.6,0.6 -1.3,1.3 -1.3,1.3 2.6,3.7 3.4,8.8 3.9,12.3 0.2,1.5 0.4,2.6 0.7,3.3 0.3,0.8 1.1,1.2 1.9,0.9 0.6,-0.2 1,-0.8 1,-1.4 0,-0.2 0,-0.3 -0.1,-0.5 -0.2,-0.5 -0.3,-1.6 -0.5,-2.8 -0.3,-2 -0.7,-4.6 -1.5,-7.2 2.4,1.9 4.4,2.9 6,2.1 1.2,-0.6 1.8,-1.9 1.7,-4 -0.1,-2.1 -1.4,-4.1 -3.6,-5.5 -2.7,-1.8 -6.2,-2.3 -8.5,-1.3"
   id="path28"
   style="fill:#543d3e" />
	</g>
</svg>