<?xml version="1.0" encoding="UTF-8" standalone="no"?>
<svg
   xmlns:dc="http://purl.org/dc/elements/1.1/"
   xmlns:cc="http://creativecommons.org/ns#"
   xmlns:rdf="http://www.w3.org/1999/02/22-rdf-syntax-ns#"
   xmlns:svg="http://www.w3.org/2000/svg"
   xmlns="http://www.w3.org/2000/svg"
   width="20.322002"
   height="22.17218"
   viewBox="0 0 20.322003 22.17218"
   id="svg4173"
   version="1.1">
  <defs
     id="defs4175" />
  <metadata
     id="metadata4178">
    <rdf:RDF>
      <cc:Work
         rdf:about="">
        <dc:format>image/svg+xml</dc:format>
        <dc:type
           rdf:resource="http://purl.org/dc/dcmitype/StillImage" />
        <dc:title></dc:title>
      </cc:Work>
    </rdf:RDF>
  </metadata>
  <g
     id="layer1"
     transform="matrix(0.03483838,0,0,0.03483838,0,-14.490414)">
    <path
       style="color:#000000;clip-rule:nonzero;display:inline;overflow:visible;visibility:visible;opacity:1;isolation:auto;mix-blend-mode:normal;color-interpolation:sRGB;color-interpolation-filters:linearRGB;solid-color:#000000;solid-opacity:1;fill:#1f89ef;fill-opacity:1;fill-rule:nonzero;stroke:none;stroke-width:0.05;stroke-miterlimit:4;stroke-dasharray:none;stroke-opacity:1;color-rendering:auto;image-rendering:auto;shape-rendering:auto;text-rendering:auto;enable-background:accumulate"
       d="m 262.15625,415.93248 0,78.6582 -60.88085,-35.15039 -30.71485,53.19726 91.5957,52.88282 0,336.08203 -91.5957,52.88281 30.71485,53.19729 60.88085,-35.15041 0,79.83011 61.42969,0 0,-80.8184 58.92969,34.0234 30.71289,-53.19722 -89.64258,-51.75586 0,-334.10547 89.64258,-51.75586 -30.71289,-53.19727 -58.92969,34.02344 0,-79.64648 -61.42969,0 z"
       id="rect4743" />
    <path
       style="color:#000000;clip-rule:nonzero;display:inline;overflow:visible;visibility:visible;opacity:1;isolation:auto;mix-blend-mode:normal;color-interpolation:sRGB;color-interpolation-filters:linearRGB;solid-color:#000000;solid-opacity:1;fill:#1f89ef;fill-opacity:1;fill-rule:nonzero;stroke:none;stroke-width:0.05;stroke-miterlimit:4;stroke-dasharray:none;stroke-opacity:1;color-rendering:auto;image-rendering:auto;shape-rendering:auto;text-rendering:auto;enable-background:accumulate"
       d="m 423.06055,518.31334 0,105.76757 -291.05273,168.03907 -91.597664,-52.88282 -30.71289,53.19727 60.88281,35.15039 -69.134763,39.91602 30.712893,53.19921 69.990234,-40.4082 0,68.04492 61.42774,0 0,-103.51172 289.34375,-167.05273 89.64257,51.75586 30.71485,-53.19727 -58.92969,-34.02343 68.97461,-39.82227 -30.71484,-53.19922 -68.11914,39.32813 0,-70.29883 -61.42774,-0.002 z"
       id="rect4766" />
    <path
       style="color:#000000;clip-rule:nonzero;display:inline;overflow:visible;visibility:visible;opacity:1;isolation:auto;mix-blend-mode:normal;color-interpolation:sRGB;color-interpolation-filters:linearRGB;solid-color:#000000;solid-opacity:1;fill:#1f89ef;fill-opacity:1;fill-rule:nonzero;stroke:none;stroke-width:0.05;stroke-miterlimit:4;stroke-dasharray:none;stroke-opacity:1;color-rendering:auto;image-rendering:auto;shape-rendering:auto;text-rendering:auto;enable-background:accumulate"
       d="m 99.849606,518.06724 0,70.29883 L 30.714846,548.45201 0,601.65123 l 69.990236,40.4082 -58.92969,34.02344 30.71289,53.19726 89.644534,-51.75586 289.34375,167.05274 0,103.51172 61.42774,0 0,-68.04493 68.97461,39.82227 30.71484,-53.19922 -68.12109,-39.33008 60.88281,-35.15039 -30.71289,-53.19726 -91.5957,52.88281 -291.05469,-168.03906 0,-105.76563 -61.427744,0 z"
       id="rect4772" />
  </g>
</svg>
