<?xml version="1.0" encoding="UTF-8" standalone="no"?>
<svg
   xmlns:dc="http://purl.org/dc/elements/1.1/"
   xmlns:cc="http://creativecommons.org/ns#"
   xmlns:rdf="http://www.w3.org/1999/02/22-rdf-syntax-ns#"
   xmlns:svg="http://www.w3.org/2000/svg"
   xmlns="http://www.w3.org/2000/svg"
   version="1.1"
   id="svg2"
   height="20.066998"
   width="13.72338">
  <metadata
     id="metadata15">
    <rdf:RDF>
      <cc:Work
         rdf:about="">
        <dc:format>image/svg+xml</dc:format>
        <dc:type
           rdf:resource="http://purl.org/dc/dcmitype/StillImage" />
        <dc:title></dc:title>
      </cc:Work>
    </rdf:RDF>
  </metadata>
  <defs
     id="defs4">
    <linearGradient
       gradientUnits="userSpaceOnUse"
       y2="134.92664"
       gradientTransform="scale(0.82696922,1.2092348)"
       x1="412.60391"
       x2="215.34326"
       y1="434.71222"
       id="svg_7">
      <stop
         id="stop7"
         offset="0"
         stop-color="#f00" />
      <stop
         id="stop9"
         offset="1"
         stop-opacity=".996"
         stop-color="#fff" />
    </linearGradient>
  </defs>
  <g
     transform="matrix(0.03713415,0,0,0.03713415,-6.612933,-6.0587336)"
     id="layer1">
    <path
       style="fill:url(#svg_7);fill-rule:evenodd;stroke-width:0"
       d="m 323.63,163.17 c -32.038,226.35 -133.67,228.42 -144.81,345.42 -11.194,117.53 108.4,190.04 128.1,194.96 0,0 -56.18,-64.966 -50.898,-120.43 3.6578,-38.406 19.464,-52.31 49.3,-94.342 21.444,-30.209 45.66,-71.663 63.462,-132.89 63.354,55.467 90.522,87.741 103.18,154.72 12.658,66.975 -39.611,187.4 -39.611,187.4 189.05,-142.5 140.62,-360.04 -108.72,-534.85 z"
       id="path4355" />
  </g>
</svg>
