<?xml version="1.0" encoding="UTF-8" standalone="no"?>
<svg
   xmlns:dc="http://purl.org/dc/elements/1.1/"
   xmlns:cc="http://creativecommons.org/ns#"
   xmlns:rdf="http://www.w3.org/1999/02/22-rdf-syntax-ns#"
   xmlns:svg="http://www.w3.org/2000/svg"
   xmlns="http://www.w3.org/2000/svg"
   version="1.1"
   x="0px"
   y="0px"
   width="42.200001"
   height="69.599998"
   viewBox="0 0 42.200001 69.599998"
   enable-background="new 0 0 1920 1080"
   xml:space="preserve"
   id="svg2"><metadata
   id="metadata582"><rdf:RDF><cc:Work
       rdf:about=""><dc:format>image/svg+xml</dc:format><dc:type
         rdf:resource="http://purl.org/dc/dcmitype/StillImage" /><dc:title></dc:title></cc:Work></rdf:RDF></metadata><defs
   id="defs580">
	
	
	
	
	
	
	
	
	
	
	
	
	
	
	
	
	
	
	
	
	
	
	
	
	
	
	
	
	
	
	
	
	
	
	
	
	
</defs>
<g
   id="Capa_2"
   transform="translate(-751.7,-194.7)">
</g>
<g
   transform="translate(-751.7,-194.7)"
   id="g102">
		<polygon
   style="fill:#93989c"
   id="polygon104"
   points="751.7,264.3 758.6,210.6 787,210.6 793.9,264.3 " />
		<path
   style="fill:#93989c"
   id="path106"
   d="m 773.2,220.3 -0.8,0 c -7,0 -12.8,-5.7 -12.8,-12.8 l 0,0 c 0,-7 5.7,-12.8 12.8,-12.8 l 0.8,0 c 7,0 12.8,5.7 12.8,12.8 l 0,0 c -0.1,7.1 -5.8,12.8 -12.8,12.8 z" />
		<rect
   style="fill:#4b5157"
   id="rect108"
   height="5"
   width="34.900002"
   y="207.3"
   x="755.29999" />
		<path
   style="fill:#373e46"
   id="path110"
   d="m 767.5,202 c 0,0.9 -0.7,1.6 -1.6,1.6 -0.9,0 -1.6,-0.7 -1.6,-1.6 0,-0.9 0.7,-1.6 1.6,-1.6 0.9,0 1.6,0.7 1.6,1.6 z" />
		<circle
   style="fill:#373e46"
   id="circle112"
   r="1.6"
   cy="198.10001"
   cx="772.5" />
		<circle
   style="fill:#373e46"
   id="circle114"
   r="1.6"
   cy="201.8"
   cx="778.59998" />
	</g>
</svg>