<?xml version="1.0" encoding="UTF-8" standalone="no"?>
<svg
   xmlns:dc="http://purl.org/dc/elements/1.1/"
   xmlns:cc="http://creativecommons.org/ns#"
   xmlns:rdf="http://www.w3.org/1999/02/22-rdf-syntax-ns#"
   xmlns:svg="http://www.w3.org/2000/svg"
   xmlns="http://www.w3.org/2000/svg"
   id="svg2"
   xml:space="preserve"
   enable-background="new 0 0 1920 1080"
   viewBox="0 0 38.200001 145.5"
   height="145.5"
   width="38.200001"
   y="0px"
   x="0px"
   version="1.1"><metadata
   id="metadata582"><rdf:RDF><cc:Work
       rdf:about=""><dc:format>image/svg+xml</dc:format><dc:type
         rdf:resource="http://purl.org/dc/dcmitype/StillImage" /><dc:title></dc:title></cc:Work></rdf:RDF></metadata><defs
   id="defs580">
	
	
	
	
	
	
	
	
	
	
	
	
	
	
	
	
	
	
	
	
	
	
	
	
	
	
	
	
	
	
	
	
	
	
	
	
	
</defs>
<g
   transform="translate(-753.7,-578.7)"
   id="Capa_2">
</g>
<g
   transform="translate(-753.7,-578.7)"
   id="g377">
		<g
   id="XMLID_1952_">
			<path
   id="XMLID_1968_"
   d="m 791.8,657.1 c 0,-25.6 1.1,-34.3 -5.7,-39.4 -6.4,-4.8 -4.7,-18.1 -4.5,-22.6 -0.2,0.1 -0.5,0.1 -0.8,0.1 l -16.1,0 c -0.3,0 -0.5,-0.1 -0.8,-0.1 0.3,4.6 2,17.9 -4.5,22.6 -6.9,5.1 -5.7,13.8 -5.7,39.4 0,24.3 0,58.8 0,62.4 0,0.1 -0.1,0.2 -0.1,0.3 0,2.4 8.6,4.4 19.1,4.4 10.6,0 19.1,-2 19.1,-4.4 0,-0.1 0,-0.2 -0.1,-0.3 0.1,-3.6 0.1,-38.2 0.1,-62.4 z"
   style="fill:#e0e1e2" />
			<path
   id="XMLID_1967_"
   d="m 791.9,644.3 c -1.8,0.5 -9.7,0.8 -19.1,0.8 -9.4,0 -17.3,-0.3 -19.1,-0.8 0,3.7 0.1,7.9 0.1,12.8 0,24.3 0,58.8 0,62.4 0,0.1 -0.1,0.2 -0.1,0.3 0,2.4 8.6,4.4 19.1,4.4 10.6,0 19.1,-2 19.1,-4.4 0,-0.1 0,-0.2 -0.1,-0.3 0,-3.6 0,-38.2 0,-62.4 0,-4.9 0.1,-9.1 0.1,-12.8 z"
   style="fill:#fbad26" />
			<path
   id="XMLID_1955_"
   d="m 753.7,692.2 c 1.9,0.4 9.7,0.8 19.1,0.8 9.4,0 17.2,-0.3 19.1,-0.8 0,-6 0,-11.9 0,-17.3 0,-4.8 0,-9.1 0.1,-12.8 -1.8,0.5 -9.7,0.8 -19.1,0.8 -9.4,0 -17.3,-0.3 -19.1,-0.8 0,3.7 0.1,7.9 0.1,12.8 -0.2,5.4 -0.2,11.3 -0.2,17.3 z"
   style="opacity:0.6;fill:#9a6c67" />
			<path
   id="XMLID_1966_"
   d="m 791.9,644.3 c 0,-0.1 0,-0.3 0,-0.4 -1.8,-0.5 -9.7,-0.8 -19.1,-0.8 -9.4,0 -17.3,0.3 -19.1,0.8 0,0.1 0,0.3 0,0.4 1.8,0.5 9.7,0.8 19.1,0.8 9.4,0 17.3,-0.4 19.1,-0.8 z"
   style="fill:#dca845" />
			<path
   id="XMLID_1965_"
   d="m 780.8,578.7 -16.1,0 c -1.3,0 -2.3,1 -2.3,2.3 l 0,11.9 c 0,1 0.6,1.8 1.5,2.1 0.2,0.1 0.5,0.1 0.8,0.1 l 16.1,0 c 0.3,0 0.5,-0.1 0.8,-0.1 0.9,-0.3 1.5,-1.1 1.5,-2.1 l 0,-11.9 c 0,-1.3 -1,-2.3 -2.3,-2.3 z"
   style="fill:#936247" />
			<line
   id="XMLID_1964_"
   x1="765.40002"
   y1="578.70001"
   x2="780.20001"
   y2="578.70001"
   style="fill:none" />
			<rect
   id="XMLID_1950_"
   x="762.40002"
   y="581.59998"
   width="20.700001"
   height="0.60000002"
   style="fill:#5b2712" />
			<rect
   id="XMLID_1970_"
   x="762.40002"
   y="582.70001"
   width="20.700001"
   height="0.60000002"
   style="fill:#5b2712" />
			<rect
   id="XMLID_1972_"
   x="762.40002"
   y="589.40002"
   width="20.700001"
   height="0.60000002"
   style="fill:#5b2712" />
			<rect
   id="XMLID_1971_"
   x="762.40002"
   y="590.5"
   width="20.700001"
   height="0.60000002"
   style="fill:#5b2712" />
		</g>
	</g>
</svg>