<?xml version="1.0" encoding="UTF-8" standalone="no"?>
<svg
   xmlns:dc="http://purl.org/dc/elements/1.1/"
   xmlns:cc="http://creativecommons.org/ns#"
   xmlns:rdf="http://www.w3.org/1999/02/22-rdf-syntax-ns#"
   xmlns:svg="http://www.w3.org/2000/svg"
   xmlns="http://www.w3.org/2000/svg"
   width="58.446644mm"
   height="37.537643mm"
   viewBox="0 0 207.09441 133.0074"
   id="svg2"
   version="1.1">
  <metadata
     id="metadata16">
    <rdf:RDF>
      <cc:Work
         rdf:about="">
        <dc:format>image/svg+xml</dc:format>
        <dc:type
           rdf:resource="http://purl.org/dc/dcmitype/StillImage" />
        <dc:title></dc:title>
      </cc:Work>
    </rdf:RDF>
  </metadata>
  <defs
     id="defs14" />
  <path
     style="fill:#ffffff"
     d="m 54.576175,98.532399 c 2.002,-1.638 4.217,-3.017 6.479,-4.283 2.26,-1.284 4.601,-2.421 6.981,-3.473 2.39,-1.02 4.812,-1.991 7.278,-2.82 2.461,-0.852 4.955,-1.605 7.47,-2.284 2.518,-0.663 5.051,-1.285 7.606,-1.783 2.551,-0.521 5.117,-0.988 7.696,-1.33 2.574995,-0.406 5.162995,-0.658 7.753995,-0.919 2.591,-0.218 5.188,-0.418 7.785,-0.494 2.598,-0.147 5.194,-0.139 7.792,-0.146 2.595,0.056 5.194,0.052 7.781,0.227 2.589,0.154 5.18,0.275 7.755,0.557 2.581,0.23 5.151,0.532 7.716,0.876 2.567,0.321 5.112,0.776 7.662,1.191 2.541,0.461 5.072,0.97 7.596,1.501 2.516,0.576 5.023,1.171 7.52,1.806 2.488,0.67 4.964,1.385 7.432,2.104 l 2.551,0.743 -0.133,2.243 c -0.346,5.829 -0.74,11.658001 -1.229,17.487001 -0.224,2.915 -0.529,5.829 -0.798,8.744 -0.13,1.458 -0.284,2.915 -0.452,4.372 -0.161,1.458 -0.318,2.915 -0.51,4.372 -0.197,-1.457 -0.361,-2.913 -0.528,-4.37 -0.174,-1.457 -0.334,-2.913 -0.47,-4.37 -0.28,-2.913 -0.598,-5.827 -0.834,-8.74 -0.512,-5.827 -0.932,-11.654001 -1.301,-17.481001 l 2.417,2.986 c -2.511,-0.288 -5.014,-0.586 -7.506,-0.917 -2.507,-0.245 -4.996,-0.567 -7.489,-0.838 -2.501,-0.213 -4.982,-0.542 -7.477,-0.747 -2.495,-0.187 -4.974,-0.508 -7.467,-0.643 -2.489,-0.183 -4.971,-0.416 -7.46,-0.527 l -3.728,-0.229 -3.727,-0.17 c -2.484,-0.108 -4.968,-0.167 -7.451,-0.248 -2.481,-0.001 -4.966,-0.082 -7.446,-0.055 -2.483,-0.013 -4.96,0.075 -7.443,0.099 -2.476,0.101 -4.958,0.174 -7.434995,0.317 -1.241,0.056 -2.479,0.133 -3.715,0.24 -1.238,0.083 -2.481,0.147 -3.716,0.272 -2.474,0.218 -4.95,0.447 -7.421,0.742 -2.471,0.294 -4.946,0.606 -7.411,0.995 -1.238,0.176 -2.471,0.378 -3.7,0.603 -1.24,0.192 -2.464,0.443 -3.701,0.667 -2.459,0.49 -4.922,1.016 -7.383,1.609 -2.446,0.627 -4.906,1.27 -7.34,2.114 z"
     id="path3553" />
  <path
     style="fill:#ffffff"
     d="m 54.725175,105.7494 c 0.26,2.03 0.455,4.059 0.681,6.089 0.212,2.029 0.408,4.059 0.589,6.088 0.364,4.06 0.699,8.119 0.984,12.178 l -3.072,-2.1 c 2.285,-1.193 4.547,-2.236 6.853,-3.272 2.302,-1.021 4.624,-1.99 6.968,-2.903 2.338,-0.93 4.705,-1.774 7.079,-2.608 2.376,-0.825 4.773,-1.583 7.178,-2.329 2.411,-0.714 4.834,-1.4 7.268,-2.047 2.44,-0.62 4.888,-1.217 7.347,-1.771 2.468,-0.514 4.935995,-1.033 7.418995,-1.482 2.483,-0.448 4.983,-0.813 7.479,-1.193 2.508,-0.323 5.017,-0.625 7.536,-0.863 2.515,-0.256 5.049,-0.376 7.573,-0.538 2.535,-0.074 5.064,-0.173 7.602,-0.136 2.533,0.001 5.074,0.114 7.604,0.256 2.534,0.186 5.059,0.388 7.577,0.733 2.517,0.293 5.021,0.759 7.507,1.219 2.482,0.552 4.95,1.087 7.374,1.841 2.435,0.668 4.81,1.586 7.149,2.501 -2.537,0.03 -5.018,-0.071 -7.506,-0.013 -2.473,-0.032 -4.948,0.1 -7.396,0.122 -2.461,0.147 -4.897,0.18 -7.339,0.38 -2.436,0.115 -4.868,0.362 -7.291,0.53 -2.426,0.27 -4.845,0.421 -7.26,0.739 -2.416,0.249 -4.828,0.554 -7.234,0.869 -2.409,0.321 -4.815,0.626 -7.217,1.014 -2.406,0.324 -4.803,0.74 -7.202,1.122 -2.398,0.4 -4.799,0.787 -7.189,1.25 -2.4,0.398 -4.791,0.867 -7.183995,1.33 -2.394,0.459 -4.789,0.918 -7.177,1.424 -2.392,0.486 -4.789,0.966 -7.174,1.5 -2.398,0.486 -4.786,1.022 -7.179,1.55 l -7.185,1.601 -7.187,1.661 c -2.39,0.553 -4.811,1.138 -7.157,1.713 l -3.276,0.803 0.204,-2.903 c 0.285,-4.059 0.62,-8.118 0.984,-12.178 0.181,-2.029 0.377,-4.059 0.589,-6.088 0.226,-2.03 0.421,-4.059 0.681,-6.089 z"
     id="path3557" />
  <path
     style="fill:#ffffff"
     d="m 174.23717,92.255399 c 0,0 0.059,-0.206 0.171,-0.605 0.126,-0.398 0.341,-0.979 0.675,-1.716 0.666,-1.475 1.852,-3.537 3.546,-6.035 1.693,-2.502 3.907,-5.42199 6.751,-8.56899 0.716,-0.785 1.474,-1.582 2.311,-2.378 0.424,-0.397 0.856,-0.796 1.353,-1.187 0.427,-0.366 0.853,-0.771 1.288,-1.161 1.64,-1.513 3.295,-3.257 4.77,-5.137 2.952,-3.788 5.039,-8.419 4.896,-13.4 -0.056,-4.998 -2.08,-10.232 -5.088,-15.437 -0.699,-1.158 -1.518,-2.393 -2.384,-3.576 -0.87,-1.184 -1.804,-2.335 -2.796,-3.45 -2.01,-2.208 -4.227,-4.294 -6.655,-6.186 -2.429,-1.886 -5.04,-3.609 -7.784,-5.146 -2.754,-1.522 -5.635,-2.868 -8.594,-4.04 -1.483,-0.577 -2.99,-1.1 -4.51,-1.578 -1.498,-0.491 -3.09,-0.94 -4.556,-1.304 -0.814,-0.19 -1.682,-0.416 -2.452,-0.578 l -2.278,-0.468 c -1.569,-0.296 -3.141,-0.5730003 -4.718,-0.7850003 -6.303,-0.833 -12.623,-1.073 -18.73,-0.614 -3.055,0.214 -6.057,0.574 -8.983,1.063 -1.46,0.2590003 -2.908,0.5190003 -4.325,0.8470003 l -0.533,0.115 -0.266,0.058 -0.066,0.014 c -0.082,0.024 0.035,-0.017 0,-0.005 l -0.135,0.04 c -0.344,0.104 -0.759,0.213 -1.017,0.308 -0.56,0.178 -1.221,0.424 -1.842,0.678 -2.517,1.028 -4.934,2.343 -7.177,3.746 -2.25,1.401 -4.352,2.902 -6.261995,4.476 -3.835,3.133 -6.961,6.493 -9.328,9.771 -2.378,3.275 -3.969,6.481 -4.975,9.236 -1.02,2.757 -1.49,5.057 -1.721,6.634 -0.14,0.788 -0.17,1.401 -0.228,1.812 -0.046,0.413 -0.069,0.626 -0.069,0.626 0,0 -0.01,-0.214 -0.029,-0.628 -0.01,-0.414 -0.074,-1.033 -0.061,-1.84 0,-1.614 0.151,-4 0.799,-6.99 0.643,-2.987 1.937,-6.527 4.018,-10.289 2.062,-3.776 5.027,-7.685 8.78,-11.442 3.792,-3.728 8.291995,-7.3560003 13.881995,-10.2570003 0.712,-0.361 1.41,-0.697 2.244,-1.042 0.432,-0.187 0.733,-0.292 1.096,-0.432 l 1.158,-0.42 c 1.466,-0.554 2.974,-1.042 4.505,-1.533 3.077,-0.919 6.281,-1.688 9.585,-2.267 6.605,-1.14999997 13.613,-1.48799997 20.688,-0.90199997 1.769,0.144 3.539,0.358 5.313,0.598 l 2.722,0.46899997 c 0.896,0.162 1.683,0.342 2.53,0.512 1.851,0.398 3.559,0.823 5.322,1.341 1.742,0.527 3.472,1.107 5.18,1.751 1.706,0.649 3.393,1.356 5.054,2.121 1.656,0.778 3.276,1.635 4.868,2.538 3.18,1.8120003 6.227,3.8710003 9.021,6.2250003 2.813,2.325 5.398,4.917 7.66,7.731 1.129,1.41 2.186,2.865 3.164,4.359 0.956,1.513 1.815,3.041 2.646,4.697 1.478,3.021 2.733,6.294 3.521,9.629 0.829,3.329 1.104,6.83 0.753,10.207 -0.357,3.38 -1.446,6.594 -3.002,9.297 -1.555,2.716 -3.495,4.953 -5.522,6.799 -2.039,1.855 -4.132,3.314 -6.226,4.608 -0.509,0.296 -1.017,0.567 -1.508,0.873 -0.43,0.271 -0.859,0.592 -1.278,0.912 -0.838,0.649 -1.638,1.334 -2.398,2.017 -3.044,2.748 -5.5,5.40999 -7.46,7.63899 -1.951,2.243 -3.335,4.131 -4.178,5.483 -0.852,1.349 -1.134,2.167 -1.134,2.167 z"
     id="path3561" />
  <path
     style="fill:#ffffff"
     d="m 98.604175,17.667409 c 0,0 -0.123,0.16 -0.361,0.469 -0.242,0.301 -0.643,0.747 -1.231,1.245 -1.186,0.979 -3.219,2.139 -5.994,2.946 -2.765,0.821 -6.188,1.504 -10.082,2.044 -3.894,0.555 -8.25,1.172 -12.911,1.973 -4.653,0.835 -9.61,1.934 -14.604,3.645 -4.987,1.716 -10.006,4.038 -14.697,7.169 -2.358,1.544 -4.623,3.304 -6.779,5.239 -2.169,1.919 -4.228,4.021 -6.155,6.279 -1.927,2.258 -3.758,4.644 -5.438,7.164 -0.836,1.263 -1.646,2.549 -2.43,3.857 l -1.175,2.009 -1.047,1.94 c -2.763,5.357 -4.907,11.006 -6.0930001,16.73399 -1.208,5.712 -1.514,11.494 -0.738,16.892 0.743,5.396001 2.5840001,10.402001 5.3630001,14.420001 2.755,4.043 6.47,7.023 10.436,8.807 3.964,1.813 8.113,2.49 11.833,2.577 3.73,0.041 7.05,-0.418 9.758,-0.964 2.704,-0.572 4.826,-1.178 6.264,-1.622 1.437,-0.464 2.203,-0.712 2.203,-0.712 0,0 -0.677,0.438 -1.986,1.208 -1.324,0.735 -3.274,1.842 -5.938,2.91 -1.326,0.547 -2.829,1.083 -4.507,1.585 -1.684,0.473 -3.546,0.881 -5.581,1.16 -2.036,0.268 -4.249,0.4 -6.602,0.264 -2.348,-0.158 -4.836,-0.576 -7.354,-1.378 -2.518,-0.796 -5.052,-2.003 -7.455,-3.607 -2.381,-1.632 -4.645,-3.643 -6.5880001,-6.026 -3.922,-4.751 -6.587,-10.818 -7.83199998,-17.267001 -0.625,-3.23 -0.891,-6.557 -0.88300000108,-9.908 0.0620000011,-3.348 0.39600000108,-6.721 1.02699998108,-10.05099 1.279,-6.661 3.66,-13.149 6.863,-19.136 l 1.259,-2.279 1.2700001,-2.128 c 0.887,-1.425 1.82,-2.822 2.778,-4.201 1.936,-2.744 4.016,-5.393 6.285,-7.85 4.522,-4.924 9.699,-9.174 15.235,-12.373 5.522,-3.224 11.322,-5.433 16.901,-6.821 5.583,-1.409 10.939,-2.049 15.828,-2.359 4.893,-0.333 9.34,-0.27 13.234,-0.335 3.895,-0.069 7.263,-0.089 9.982,-0.473 2.721,-0.351 4.788,-0.999 6.079,-1.725 0.639,-0.369 1.107,-0.687 1.409,-0.938 0.3,-0.253 0.454,-0.383 0.454,-0.383 z"
     id="path3565" />
  <path
     style="fill:#ffffff"
     d="m 34.063175,109.4994 c 0,0 0.395,-0.044 1.088,-0.263 0.349,-0.082 0.767,-0.266 1.252,-0.436 0.475,-0.229 1.028,-0.432 1.619,-0.743 0.591,-0.31 1.241,-0.634 1.91,-1.081 0.336,-0.21 0.687,-0.428 1.05,-0.655 0.352,-0.246 0.716,-0.5 1.093,-0.764 1.498,-1.052 3.066,-2.411 4.727,-3.919 0.826,-0.76 1.642,-1.617 2.505,-2.459001 0.844,-0.87 1.677,-1.821 2.55,-2.764 1.695,-1.954 3.445,-4.041 5.146,-6.307 0.431,-0.56 0.864,-1.125 1.301,-1.694 0.42,-0.586 0.842,-1.177 1.266,-1.771 0.832,-1.202 1.741,-2.357 2.55,-3.619 0.834,-1.24 1.652,-2.503 2.514,-3.74399 1.005,-1.419 1.7,-2.545 2.781,-3.923 0.526,-0.661 1.05,-1.333 1.589,-1.975 l 1.658,-1.843 c 1.145,-1.195 2.328,-2.35 3.605,-3.395 2.51,-2.132 5.285,-3.916 8.154,-5.253 2.868,-1.345 5.835,-2.213 8.679,-2.66 2.849,-0.445 5.567,-0.47 8.021,-0.234 2.457995,0.232 4.647995,0.744 6.526995,1.322 1.887,0.559 3.451,1.25 4.705,1.857 1.259,0.599 2.184,1.192 2.809,1.586 0.622,0.405 0.928,0.656 0.928,0.656 0,0 -0.377,-0.119 -1.084,-0.307 -0.703,-0.197 -1.754,-0.419 -3.071,-0.679 -2.643,-0.476 -6.452,-0.949 -10.859995,-0.575 -4.396,0.347 -9.35,1.625 -13.955,4.291 -2.308,1.319 -4.516,2.976 -6.602,4.866 -1.061,0.922 -2.021,1.986 -3.016,3.02 l -1.428,1.627 -1.31,1.665 c -0.864,1.04199 -1.844,2.53699 -2.645,3.62599 -0.903,1.297 -1.843,2.562 -2.753,3.83 -0.881,1.286 -1.918,2.462 -2.876,3.66 -0.485,0.595 -0.968,1.186 -1.446,1.773 -0.491,0.579 -1.022,1.123 -1.524,1.677 -1.985,2.237 -4.098,4.249 -6.155,6.082 -1.077,0.875001 -2.074,1.768001 -3.123,2.544001 -1.075,0.75 -2.062,1.521 -3.094,2.164 -2.05,1.3 -4.018,2.346 -5.847,3.097 -0.909,0.382 -1.758,0.734 -2.591,0.952 -0.807,0.269 -1.582,0.426 -2.269,0.576 -1.382,0.29 -2.496,0.324 -3.243,0.307 -0.372,0 -0.659,-0.037 -0.85,-0.067 -0.191,-0.021 -0.285,-0.048 -0.285,-0.048 z"
     id="path3569" />
</svg>
