<svg xmlns="http://www.w3.org/2000/svg" height="763.6" width="342.7"><g transform="translate(-504.205 -182.21)"><circle r="140" cy="418.8" cx="707" fill="#eaf5f7"/><path d="M612.6 202.2h-.8l-.4-.2-.2-.4v-18.1l.2-.5.5-.2h4.8l1 .4.7.4.3.2.4.4.5.7.3 1v.8l.2 1.4v.4l-.4 1-.2.2-.2.3-.3.3-.2.4-.8.5-.2.3.3.2.5.3.3.2.3.3.5.3.7 1v.6l.3.5v.8l.2 1.4-.3 1.4-.3.8v.4l-.4.4-.2.3-.4.3-.3.2-.4.4-.3.2-1.8.5-3 .3h-.6zm4.2-1.8l.4-.2.3-.2.4-.3v-.3l.3-.4.2-.5v-.4l.2-.2v-2.4l-.2-1-.4-.7-.2-.3-.7-.6-1.3-.4h-2.1l-.3.3-.2.5v6.8l.3.5h.4l.5.2h.7l1.8-.3zm-1.2-9.5l.5-.3h.5l.8-.6.3-.2.6-1.3V186l-.3-.5-.3-.4-.3-.2-.8-.4-.4-.2h-3l-.2.6v5.5l.3.5h2.3zM622.2 202v-.5l.4-2.2v-.4l.2-.5v-.4l.7-2.6.4-1.3v-.3l.4-2v-.2l.3-1v-.3l.7-2.2v-.4l.2-.5.2-.8.2-1v-.2l.2-.5v-.4l.4-.8.2-.4.6-.3h.8l.5.2.3.4.2.6v.5l.4 1.4v1l.7 1.5.2 1.3.2.4v.5l.5 1.7v.3l.5 1.8v.6l.2.4v.4l.4 1.4v.8l.3.5v.5l.5 1.7.3 1.4v.4l-.5.2h-.5l-.6-.3-.4-.4-.2-1v-.4l-.2-.4-.2-1-.2-.4v-.5l-.3-1-.3-.4-.5-.2h-3.9l-.5.2-.3.5-1 4.2v.3l-.4.5-.4.3h-.6zm6.3-7.3h1.2v-1.4l-.2-.5v-.8l-.3-.4v-.6l-.2-.4-.2-.4v-1l-.3-.6v-.7l-.3-1.3v-1l-.4-.8v-.2l-.3 1-.3 1.8v.3l-.4 1.4v.8l-.3.4-.2.8v1l-.4.8-.2.5v1h1.3l1 .2h.5zM638.5 202.2l-.8-.4-.6-.5-.2-.4-.2-.4-.3-.3-.2-.4-.2-1v-.5l-.2-.4v-.2l-.4-1.5V188l.2-.3v-.5l.2-.5.2-.3v-.5l.2-.6v-.3l.3-.4.5-.7.3-.4.8-.7.3-.3h.5l.5-.4h3.1l.8.5h.5l.3.4.3.4v.5l-.2.5h-.9l-.5-.3h-.5l-.4-.3h-.4l-.7-.2h-.7l-.4.2h-.3l-.2.3-.4.3-.3.3v.4l-.4.7v.5l-.5 2.4V195.5l.3 1.3v1l.3.3v.5l.2.4.2.5.2.3.4.3.4.3.3.2H641.7l.6-.2.8-.3.5-.2h.5l.4.4v.6l-.3.5-1.8.8-1 .2h-1.4l-1.3-.3zM650.6 202.2l-.5-.2-.2-.3V184.7l-.3-.5-.5-.2h-2.6l-.5-.2-.3-.5.2-.4.4-.4h8.5l.4.2.2.6-.2.6-.6.2h-2.6l-.4.2-.2.4v17.4l-.5.3-.4-.2zM665 202.2h-6.3l-.4-.2-.3-.4v-18.8l.6-.2H665l.4.3.3.3v.4l-.3.4-.7.3h-4.6l-.3.3-.3.7V191l.6.3h4.4l.4.2.2.5-.2.6-.4.2h-4.6l-.4.3v7.1l.6.2h4.6l.4.2.3.4v.6l-.2.4-.5.2h-.4zM677.3 202.2l-.6-.4-.3-.5-.2-.7-.2-.4-.2-.5v-.4l-.3-.4v-.5l-.5-.8v-.4l-.4-.8-.2-.4-.3-.8v-.4l-.4-.4-.3-.3h-1.9l-.4.4v6.9l-.2.4-.3.3-.5.2h-.4l-.4-.4V183l.5-.4h5l.5.2h.4l.4.3.8.6.3.2.4.4.3.3.2.3.2.4.2 1v1l.3.4v.7l-.2.5v1.4l-.5.8-.2.5-.3.4-.2.2-.3.3-.4.3-.4.2-.3.3-.3.5v.5l.7 1.7.2.4v.4l.2.4.2.4v.4l.3.5.5 1 .2.6.3 1 .2.4v.4l-.3.4h-1zm-4-9.7l.5-.2h.8l.5-.4.5-.3.3-.2.6-1 .2-.6V186.2l-.8-1.2-.4-.3-.4-.2h-.4l-1-.4h-1.8l-.3.3-.3.2-.2.5V192l.5.4h1.9zM682.6 202.2l-.6-.2-.3-.4v-19l.5-.2h.4l.5.2.4.4v8l.2 4.5-.2 1v.3l.2.5V201.7l-.2.5-.4.2h-.4zM686 202v-.5l.4-2.2.2-.4v-.5l.2-.4.6-2.6.4-1.3v-.3l.5-2v-.2l.3-1v-.3l.7-2.2v-.4l.2-.5v-.8l.4-1v-.7l.2-.4.2-.8.3-.4.5-.3h.9l.5.2.4.4v1.1l.5 1.4v1l.6 1.5.4 1.3v.4l.2.5.5 1.7v.3l.6 1.8v.6l.2.4v.4l.5 1.4v.8l.2.5v.5l.6 1.7.4 1.4-.2.4-.3.2h-.7l-.5-.3-.4-.4v-1l-.2-.4-.2-.4v-1l-.3-.4v-.5l-.3-1-.3-.4-.4-.2h-3.9l-.4.2-.3.5-1 4.2-.2.3-.3.5-.5.3h-.5l-.5-.4zm6.4-7.3H693.6v-1.4l-.2-.5v-.4l-.2-.4v-.4l-.2-.6v-.4l-.3-.4v-1l-.3-.6v-.7l-.4-1.3v-1l-.3-.8v-.2l-.3 1-.3 1.8v.3l-.3 1.4v.4l-.2.4v.4l-.3.8v.6l-.2.4-.3.8v1.5h1.4l1 .2h.4zM702.7 202.4h-1.3l-.5-.2-.6-.2-.8-.5-.4-.3-.2-.5v-.5l.6-.3h.4l.4.2 1.2.5h.5l.5.2h1.4l.8-.4.7-.5.3-.2.3-.4.3-.4v-.4l.3-.5v-2.4l-.3-.5v-.3l-.7-.6-1-1h-.3l-.4-.4-1.7-.8-.7-.6-.4-.2-.3-.4-.7-.6-.6-1-.4-1v-.7l-.2-.7.3-1 .4-1.4.3-.4.3-.2.4-.4.4-.2.3-.3.5-.2.6-.2h2.5l.8.2.4.2 1 .5v1l-.5.4-.6-.2-.2-.2-.5-.2h-.5l-.5-.2H703l-.8.4-.3.3-.4.3-.2.4-.3.3v2.3l.3.3v.6l.4.3.2.3 1 1 1.6.7 1.5 1 1.4 1.2.2.5.3.4v.4l.4 1v.8l.2.7v.5l-.2.5v.8l-.3.5v.4l-.2.3-.3.5-.4.3v.3l-.5.4-.7.5h-.4l-1 .3h-1.7zM714 202v-.5l.4-2.2.2-.4v-.5l.2-.4.5-2.6.4-1.3v-.3l.5-2v-.2l.4-1v-.3l.6-2.2v-.4l.3-.5v-.8l.3-1 .2-.2v-.9l.4-.8.3-.4.5-.3h.9l.5.2.3.4.2.6v.5l.4 1.4.2 1 .5 1.5.3 1.3.2.4v.5l.6 1.7v.3l.6 1.8v.6l.2.4v.4l.4 1.4v.8l.3.5v.5l.6 1.7.3 1.4v.4l-.5.2h-.5l-.5-.3-.4-.4v-1l-.2-.4-.2-.4-.2-1v-.4l-.2-.5-.2-1-.4-.4-.4-.2h-4l-.5.2v.5l-1 4.2-.2.3-.3.5-.5.3h-.6l-.4-.4zm6.3-7.3h1.3v-.6l-.2-.8v-.9l-.2-.4-.2-.4v-1l-.3-.4v-1l-.3-.6v-.7l-.4-1.3v-1l-.4-.8v-.2l-.2 1-.3 1.8v.3l-.3 1.4v.4l-.2.4v.4l-.4.8v1l-.3.8v1.5h1.4l1 .2h.3zM734.5 202.2h-6.1l-.4-.2-.3-.4v-18.8l.6-.2H735l.4.3.3.3v.4l-.3.4-.7.3h-4.4l-.4.3-.2.7V190.6l.2.5.5.3h4.4l.5.2.3.5-.2.6-.3.2h-4.5l-.4.3-.2.5v6l.2.6.5.2h4.8l.4.2.3.4v.6l-.2.4-.5.2h-.5zM747 202.2l-.6-.4-.3-.5-.2-.7v-.4l-.3-.5v-.4l-.3-.4v-.5l-.5-.8v-.4l-.5-.8-.2-.4-.2-.8-.2-.4-.3-.4-.4-.3H741l-.3.4v6.9l-.2.4-.3.3-.5.2h-.4l-.4-.4-.2-.5V183l.6-.4h5.1l.5.2h.3l.4.3.8.6.3.2.3.4.4.3.2.3.3.4v1l.2 1v2.5l-.2.5-.3.8-.2.5-.3.4-.2.2-.3.3-.4.3-.4.2-.4.3-.2.5v.5l.7 1.7.3.4v.4l.2.4.2.4v.4l.3.5.5 1v.6l.5 1 .2.4v.4l-.3.4h-1.1zm-4-9.7l.5-.2h.7l.5-.4.4-.3.3-.2.6-1 .3-.6V186.2l-1-1.2-.3-.3-.3-.2h-.4l-1-.4h-1.8l-.4.3v.2l-.3.5V192l.5.4h1.8zM754.7 202.5l-.4-.2h-.4l-.5-.2-.7-.4-.5-.6-.3-.4-.2-.3-.3-.8-.2-.4-.2-.8-.4-3.2v-6.5l.2-.4.2-1.4.4-1.4.2-.3v-.4l.4-.2.2-.5.3-.5.3-.2.3-.3.5-.2.4-.2.3-.2h.8l.8-.2h.7l.5.2h.7l.4.3.8.5.3.2.7.7.4 1 .3.7.2.4v.6l.6 3.2v5.9l-.2 1.4v1l-.3 1-.6 1-.5.8-.3.5-.4.3-.7.5-.2.2h-.4l-.4.2h-2.3zm2-1.7h.5l.3-.4.3-.3.5-.5.3-1 .2-.3v-1l.2-1v-1.7l.2-.4V190l-.2-1.8v-1l-.2-.4-.2-.4v-.4l-.2-.5-.2-.4-.3-.3-.7-.5-.4-.2h-1.2l-.6-.2-.4.2h-.4l-.3.3-.4.7-.4.6-.4 1.5-.2 1.4v8.7l.4 1.4.3.8v.4l.7.7.4.2.4.2.4.2h1.2l.4-.2zM765.6 202.2h-.8l-.4-.2-.2-.4v-18.1l.2-.5.4-.2h5.1l1 .4.7.4.3.2.4.4.4.7.4 1v.8l.2 1.4-.2.4-.2 1-.2.2-.3.3-.2.3-.3.4-.7.5-.2.3.2.2.4.3.4.2.3.3.5.3.6 1 .3.6v.5l.2.4V198.6l-.4.8-.2.4-.2.4-.3.3-.3.3-.4.2-.3.4-.4.2-2 .5-3 .3h-.4zm4-1.8l.5-.2.5-.2.3-.3.3-.3.3-.4.2-.5v-.4l.2-.2v-2.4l-.2-1-.5-.7-.2-.3-.8-.6-1.3-.4H766.6l-.4.3-.2.5v6.8l.3.5h.4l.4.2h.8l2-.3zm-1-9.5l.4-.3h.5l.7-.6.3-.2.7-1.3V186l-.3-.5-.4-.4-.3-.2-.7-.4-.4-.2h-2.9l-.3.6v5.5l.3.5h2.3zM777.5 202.2l-.5-.2-.3-.4v-19l.5-.2h.4l.5.2.4.4v16.1l.2 1.8v.8l-.2.5-.4.2h-.4zM781 202v-.5l.4-2.2.2-.4v-.5l.2-.4.6-2.6.3-1.3v-.3l.5-2v-.2l.4-1v-.3l.6-2.2v-.4l.3-.5v-.8l.4-1v-1.1l.4-.8.3-.4.5-.3h.9l.5.2.3.4.2.6v.5l.5 1.4v1l.6 1.5.4 1.3v.4l.2.5.5 1.7v.3l.6 1.8v.6l.2.4v.4l.4 1.4.2.8v.5l.2.5.5 1.7.3 1.4v.4l-.5.2h-.5l-.5-.3-.4-.4v-1l-.2-.4-.2-.4-.2-1v-.4l-.2-.5-.2-1-.4-.4-.4-.2h-4l-.4.2-.3.5-1 4.2-.2.3-.3.5-.5.3h-.5l-.5-.4zm6.4-7.3H788.6v-1.4l-.2-.5v-.4l-.2-.4v-.4l-.2-.6v-.4l-.3-.4v-1l-.3-.6v-.7l-.4-1.3v-1l-.3-.8v-.2l-.3 1-.3 1.8v.3l-.3 1.4v.4l-.2.4v.4l-.3.8v.6l-.2.4-.3.8v1.5h1.4l1 .2h.4zM797.7 202.4h-1.3l-.5-.2-.6-.2-.8-.5-.4-.3-.2-.5v-.5l.6-.3h.4l.4.2 1.2.5h.5l.5.2h1.4l.7-.4.8-.5.3-.2.3-.4.3-.4v-.4l.2-.5V197.2l.2-.6v-.5l-.2-.4-.2-.5-.2-.3-.4-.6-1-1h-.4l-.3-.4-1.7-.8-.7-.6-.4-.2-.3-.4-.7-.6-.7-1-.3-1v-.7l-.2-.7.2-1 .5-1.4.2-.4.3-.2.4-.4.3-.2.3-.3.4-.2.7-.2h2.5l.8.2.4.2 1 .5v1l-.5.4-.6-.2-.3-.2-.4-.2h-.5l-.5-.2H798l-.8.4-.4.3-.2.3-.3.4-.2.3v2.3l.3.3v.6l.4.3.2.3 1 1 1.6.7 1.5 1 1.4 1.2.2.5.3.4v.4l.4 1v.8l.2.7v.5l-.2.5v.8l-.3.5v.4l-.2.3-.3.5-.4.3v.3l-.5.4-.7.5h-.4l-1 .3h-1.7z"/><g><path d="M628.2 245.5h4l2.6.3 1.7-.3c4 2.2 7.4 5.8 10.4 10.7-.6 1.4-2 2-4 2l-9.3-2.6c-8 2.2-12 3.8-12 4.6 0 .6-2 1.7-5.4 3.4l-1-.4c-.6 1-1.4 1.6-2.2 1.6l-.2.3c-.4 0-.8.7-1 2h-.4l-1-.4c0 .7-.6 1-1.5 1l.2.2v.4l-1.7 1.5-.5-.6c-.6 0-1.4 1-2.5 3.2l-.8-.3c-1.7 1-2.7 2.3-3 3.5-1 0-2 1-3.4 3l.3 1.6-.3.4h-.2l-1-.3c-4.8 7-8 12.5-9.7 16.7l.3.3c-2 1.4-3.5 7.3-4.4 17.8v.6l.3 1.5-.3.2v.3c1.4 7.7 3.5 13 6.3 16 1.8 1.2 3.7 1.8 5.8 1.8h2c17.8 0 32.3-11 43.5-33.4 3-6.8 4.5-13 4.5-18.8v-3l.5-.7c-.4-9-1.4-13.5-3-13.5-6.6-2.4-10-4.2-10-5.5v-.6l.5-1-.5-.7.3-.2h.3c10.2 1 15.2 2.2 15.2 4 3.5 2 6.5 4.7 8.8 8 1.2 4.4 1.7 7.6 1.7 9.5 0 11-3.5 21.7-10.7 32.2-7.8 14.4-18.2 24.4-31.2 30-3.7 1.3-7.6 2-11.5 2-8.5 0-16.5-2-24-6.2-5.4-3.5-9-8.5-11-15-.5-4.2-.8-8-.8-11.4v-.5c0-8 2.2-16 6.6-24.2.8-2.6 4.4-8.5 10.8-17.5 9-9.8 16-15.7 21-17.5 8-4 15-5.8 21.2-5.8zM694 237h1.2c5.8 0 9.8 2.3 12 7 .4 1 .6 2.2.6 3.8l-.7.6c.2 0 .3 0 .3.3-1 3.7-2.2 6.5-4 8.2l.2.2c0 .4-.2.5-.6.5h-.4c0 .5-.3 1-1 1.3 0 .6-2 2.8-6 6.7-.3 0-.5.2-.5.6-.8.2-1.3.4-1.3.7v.5c-.4 0-1 .4-2 1.4-.4 0-.7.3-.8 1-.5 0-1 .3-1.7 1l-1.3.2v.2l.2.3-5.7 4.4c9.7-2.4 16-3.6 18.7-3.6 2.3 1 4.4 2.4 6.3 4l.2.4c0 .3-.8.6-2.4.8l-.3-.2-2.5.4h-.2s-.8.3-2.6.6l-3 .5-.2.3-.4-.3-1.8.7-.7-.2c-.3.3-2.2.8-5.6 1.4-4.7 1-9 2.2-13.4 3-2.2 1-3.8 1.7-4.7 2.3h-.5c-.7 0-1.6-.7-3-1.8l-3-2v-.3l1.7-1c1.2-.7 1.8-1.2 1.8-1.6v-.2l.2.2c1.3-.7 2-1 2-1.2l-.2-.2 1-.5c.4-.3.6-.6.6-1l1.3-.4v-.2h-.7c.5-1 1.3-1.6 2.4-2.2l.6-.4h.5v.4h.3l.7-.5-.4-.8c2.5-2 3.7-3 4-3l.8-.6c.3-.4.5-.5.8-.5v-.3c3-2.7 6.6-5.8 10.4-9.4 6-6 8.8-10.5 8.8-13.3v-.4c0-1-.4-1.6-1-2h-1c-1.7 0-3.7 1-6 3-2 1.6-3.4 3-4.3 4.4-1.6 2-2.4 3.8-2.4 5l.2 1c-.2 0-.4.3-.5 1l-1 .3c-2.4-.7-4-1.3-5-2-.5-.4-.8-.7-.8-1l-.5-.3v.2h-.3c-.5-.4-.7-.6-.7-.8 0-3.8 3.2-8.4 9.7-13.7 3-2 5.6-3 7.7-3z"/></g><g fill="#010202"><path d="M663.6 372.8c-1 0-1.8.5-2 1.4-2 16-2.6 32.3-2 48.4.2 1 1 1.6 1.8 1.6 1 0 1.7-.8 1.6-1.7-.7-16 0-32 2-48 0-.8-.5-1.6-1.4-1.7zM663.6 431.5c0-1-1-1.6-1.8-1.6-1 0-1.6.8-1.5 1.7.4 4.5.8 9 1.4 13.5 0 1 .8 1.5 1.6 1.5h.3c1-.2 1.5-1 1.4-2-.6-4.3-1-8.8-1.4-13.2z"/><path d="M687.5 373.6c1-.2 1.4-1 1-2 0-1-1-1.4-2-1.2l-4.7 1.4c-.2-2.7-1.2-5.2-3-7.2-1.2-1.4-2.8-2.5-4.5-3l1.5-6.3c.3-.8-.3-1.7-1-2-1-.2-2 .3-2.2 1.2l-1.6 6.2h-2.5c-2.3 0-4.5.5-6.5 1.5l-1.5-5c-.2-1-1-1.5-2-1.3-1 .2-1.4 1-1 2l1.6 6c-2.4 1.8-4.3 4.4-5.4 7.2l-6.5-2.5c-.7-.3-1.7 0-2 1-.3.8 0 1.7 1 2l7 2.8c-.7 4.3-1 8.7-1.5 13l-7.8-1c-1-.2-1.8.4-2 1.4 0 .8.6 1.6 1.5 1.7l8 1.2-.5 13.2-8.2.6c-1 0-1.6 1-1.5 1.8 0 1 .8 1.5 1.7 1.5l8-.5c0 4.4 0 8.8.2 13.2l-7.3.2c-1 0-1.7.7-1.7 1.6 0 1 .8 1.6 1.7 1.6l7.3-.2.8 11-7 2.6c-1 .3-1.4 1.2-1 2 0 .8.8 1.2 1.4 1.2h.6l6.3-2.4 1 6.8c.2 2.4 1 4.6 2.4 6.5l-5.7 6.3c-.6.6-.6 1.7 0 2.3.4.3.8.4 1.2.4.4 0 .8-.2 1.2-.5l5.4-6c2.8 2.7 6.5 4.4 10.4 4.6l1.5 6.3c.2 1 1 1.4 1.6 1.4h.5c1-.2 1.5-1 1.2-2l-1.3-5.7c3-.4 5.5-1.7 7.4-3.8l5 3c.2.3.5.4.8.4.5 0 1-.3 1.4-.7.5-.8.3-1.8-.5-2.3l-5-3.3c1.2-2 1.5-4.6 1.2-7.2-.5-3.4-.8-6.8-1-10.2l5.6 1.5h.4c.7 0 1.4-.4 1.6-1 .2-1-.4-2-1.2-2l-6.7-1.8c-.4-5.2-.7-10.4-.8-15.6l5.8 1.3h.3c.8 0 1.5-.6 1.7-1.3.2-1-.4-1.8-1.3-2l-6.5-1.5c0-5.7 0-11.4.3-17l6 .7c1 0 1.6-.6 1.7-1.4.2-1-.5-1.8-1.4-2l-6-.8c.4-5.6 1-11 1.6-16.6l6-1.6zm-17.8 81.8h-1.2c-6 0-11.6-4.8-12.3-10.6-3-23.3-3-47 0-70.2.7-5.7 6.4-10.6 12.3-10.6h1.2c2.7 0 5 1 6.7 2.8 1.7 2 2.4 4.6 2 7.4-3 23.6-3 47.5 0 71 .4 3-.4 5.5-2 7.4-1.6 1.8-4 2.8-6.7 2.8zM729 434.5c-1 0-1.6.8-1.6 1.7.7 16 0 32-2 47.8 0 1 .6 1.8 1.5 2 1 0 1.6-.7 1.7-1.5 2-16 2.7-32.3 2-48.5 0-1-.8-1.6-1.7-1.5z"/><path d="M747.6 450.5l-7.8.7c0-4.4 0-8.8-.2-13.2l7.2-.2c1 0 1.6-.8 1.6-1.7 0-.8-.8-1.5-1.7-1.5h-7.3c-.2-3.5-.4-7.2-.8-10.8l7-2.6c1-.2 1.4-1.2 1-2-.2-1-1-1.3-2-1l-6.3 2.3-.8-7c-.3-2.2-1.2-4.4-2.5-6.4l5.7-6.3c.6-.7.6-1.7 0-2.3-.8-.6-1.8-.6-2.4 0l-5.5 6c-2.8-2.6-6.5-4.4-10.4-4.5l-1.5-6.5c-.3-1-1.2-1.4-2-1.2-1 .2-1.6 1-1.3 2l1.3 5.7c-3 .4-5.5 1.7-7.4 3.8l-5-3.3c-.6-.5-1.7-.3-2.2.5-.5.8-.3 1.8.5 2.3l4.8 3.3c-1 2-1.4 4.6-1 7.2l1 10.2-5.7-1.4c-.8-.2-1.7.3-2 1.2 0 1 .4 1.8 1.3 2l6.8 1.7c.5 5.2.8 10.4 1 15.6l-6-1.2c-.8-.2-1.6.3-1.8 1.2-.3 1 .3 1.8 1.2 2l6.5 1.5c0 5.7 0 11.4-.4 17l-6-.8c-.8 0-1.6.5-1.7 1.4-.3 1 .4 1.8 1.3 2l6 1c-.3 5.4-.8 11-1.5 16.4l-6 1.6c-.8.3-1.3 1.2-1 2 .2.8.8 1.3 1.5 1.3h.5l4.8-1.4c.2 2.6 1.2 5 3 7 1.2 1.5 2.8 2.5 4.5 3.2l-1.4 6c-.3 1 .3 2 1 2l.6.2c.7 0 1.4-.5 1.6-1.3l1.6-6h2.5c2.2 0 4.4-.6 6.4-1.5l1.4 5c.2.8 1 1.3 1.6 1.3h.5c.8-.3 1.3-1.2 1-2l-1.7-6c2.5-2 4.4-4.5 5.5-7.4l6.5 2.6h.6c.5 0 1-.3 1.4-1 .3-.8 0-1.8-1-2l-7-2.8c.7-4.4 1-8.8 1.5-13l7.7 1h.3c.8 0 1.5-.6 1.6-1.4 0-1-.5-1.8-1.4-2l-8-1 .5-13.3 8.2-.7c.8 0 1.5-1 1.4-1.8 0-1-.8-1.5-1.8-1.5zM722 494.7h-1.3c-2.7 0-5-1-6.7-2.8-1.6-2-2.4-4.7-2-7.5 3-23.6 3-47.5 0-71-.4-3 .4-5.5 2-7.5 1.6-1.8 4-2.8 6.7-2.8h1.2c5.8 0 11.5 5 12.2 10.7 3 23 3 46.8 0 70-.7 5.8-6.4 10.7-12.3 10.7zM762.5 370.7c-.4-.8-1.4-1-2.2-.7-.8.4-1.2 1.4-.7 2.2 7.2 14.2 13.2 29.2 17.8 44.4.2.7 1 1.2 1.6 1.2h.5c1-.3 1.4-1.3 1-2-4.6-15.6-10.7-30.7-18-45z"/><path d="M796 411.4l-7.5.4-4-12.5 7.5-2.2c1-.2 1.4-1 1-2 0-.8-1-1.4-2-1l-7.7 2-5-12.2 7.2-4c.8-.4 1-1.4.7-2.2-.5-.8-1.5-1-2.3-.6l-7 3.8-5.6-12 6.5-3c.7-.5 1-1.5.7-2.3-.4-.8-1.4-1.2-2.2-.8L770 366l-5.3-9.8 5.4-5.3c.7-.7.8-1.8 0-2.4-.5-.7-1.6-.7-2.2 0L763 353l-3.6-6c-1.2-2-3-3.5-5-4.8l2.7-8c.4-1 0-1.8-1-2-.8-.4-1.7 0-2 1l-2.6 7.6c-1.7-.6-3.6-1-5.5-1-2.2 0-4 .5-6 1.2l-4-5.2c-.5-.7-1.5-1-2.2-.3-.7.5-1 1.6-.3 2.3l3.6 4.7c-2.5 1.5-4.3 3.8-5 6.5l-6-1c-.8 0-1.7.5-1.8 1.4-.2 1 .4 1.7 1.3 2l5.8.8c0 2.4.7 5 2 7 2 3 3.6 6 5.3 9l-5.8 1c-1 0-1.5 1-1.3 2 0 .7.8 1.3 1.6 1.3h.4l7-1.3c2.4 4.5 4.7 9.2 7 14l-5.8 1c-1 .2-1.5 1-1.3 2 0 .7.8 1.3 1.6 1.3h.2l6.6-1.3c2.4 5 4.6 10.4 6.7 15.7l-5.6 1.7c-1 .2-1.5 1-1.3 2 .2.8 1 1.2 1.6 1.2h.5l6-1.8c1.8 5.2 3.6 10.4 5.2 15.7l-4.7 3.8c-.7.6-.8 1.6-.2 2.3.5.5 1 .7 1.4.7.4 0 .7 0 1-.4l4-3.2c2 4 6 6.5 10.2 6.5h.8l1 6.2c.2.8 1 1.3 1.7 1.3h.4c1 0 1.5-1 1.3-2l-1-6.2 1-.5 1.3-.5c2-1 3.8-2.4 5.3-4l3.4 4c.3.4.8.6 1.3.6.3 0 .7 0 1-.4.7-.6.8-1.6.2-2.3l-4-4.8c1.5-2.8 2.2-6 2-9l7-.3c1 0 1.6-.8 1.5-1.7 0-1-.8-1.6-1.7-1.6zm-17.4 16.4l-1 .5c-1.4.6-2.7 1-4 1-3.8 0-7-2.7-8.2-6.8-7-22.7-16.8-44.5-29.2-64.7-1.5-2.4-2-5-1.2-7.6.7-2.3 2.4-4.2 5-5.3l1-.6c1.5-.7 3.2-1 5-1 4.3 0 8.5 2.2 10.6 5.6 12.3 20 22 41.5 29 64 1.6 5.6-1.6 12.3-7 14.8zM638 377.4h-20c-1 0-1.7.7-1.7 1.6 0 1 .7 1.7 1.6 1.7h20c1 0 1.8-.8 1.8-1.7 0-1-.8-1.6-1.7-1.6zM785 469.8h-23c-1 0-1.6.8-1.6 1.7 0 1 .7 1.6 1.7 1.6h23c1 0 1.6-.6 1.6-1.5 0-1-.7-1.7-1.6-1.7zM716.6 378.7c1 0 1.6-.7 1.6-1.6 0-.8-.7-1.6-1.6-1.6h-14.8c-1 0-1.6.8-1.6 1.7 0 1 .7 1.7 1.6 1.7h14.8zM679 486.2h-23.4c-1 0-1.6.7-1.6 1.6 0 1 .7 1.7 1.6 1.7H679c.8 0 1.6-.8 1.6-1.7 0-1-.8-1.6-1.7-1.6z"/><circle r="2.5" cy="356.1" cx="743"/><circle r="2.5" cy="352.9" cx="750.2"/><path d="M752 359.5c.4 1 0 2.3-1 3-1 .4-2.4 0-3-1l-1.7 1c1 2 3.6 2.7 5.6 1.7 2-1 2.7-3.6 1.6-5.6l-1.6 1zM721 416.3c-.6 1.3-2 2-3.4 1.5-1.3-.5-2-2-1.5-3.2.6-1.4 2-2 3.4-1.6 1.3.5 2 2 1.5 3.3zM728.7 415.8c-.5 1.3-2 2-3.2 1.5-1.3-.5-2-2-1.5-3.3.4-1.3 2-2 3.2-1.5 1.3.5 2 2 1.5 3.3zM725.8 421.7c0 1-.8 2.2-2 2.3-1.2.2-2.3-.6-2.6-1.7l-1.8.3c.3 2.2 2.4 3.8 4.7 3.5 2.3-.3 4-2.3 3.6-4.6l-1.8.3z"/></g><circle r="140" cy="805.8" cx="707" fill="#eaf5f7"/><g><path d="M628.2 627.6h4l2.6.3 1.7-.4c4 2.2 7.4 5.7 10.4 10.7-.6 1.4-2 2-4 2l-9.3-2.6c-8 2.2-12 3.8-12 4.6 0 .5-2 1.7-5.4 3.3l-1-.3c-.6 1-1.4 1.6-2.2 1.6l-.2.2c-.4 0-.8.6-1 1.8h-.4l-1-.3c0 .6-.6 1-1.5 1l.2.2v.2l-1.7 1.6-.5-.6c-.6 0-1.4 1-2.5 3l-.8-.3c-1.7 1-2.7 2.3-3 3.6-1 0-2 1-3.4 3l.3 1.6-.3.3h-.2l-1-.3c-4.8 6.8-8 12.4-9.7 16.6l.3.3c-2 1.5-3.5 7.4-4.4 17.8v.7l.3 1.5-.3.3v.3c1.4 7.6 3.5 13 6.3 16 1.8 1.2 3.7 1.8 5.8 1.8h2c17.8 0 32.3-11 43.5-33.4 3-6.7 4.5-13 4.5-18.7v-3l.5-.8c-.4-9-1.4-13.4-3-13.4-6.6-2.3-10-4.2-10-5.4v-.6l.5-1-.5-.6.3-.3h.3c10.2 1 15.2 2.2 15.2 4 3.5 2 6.5 4.7 8.8 8 1.2 4.4 1.7 7.6 1.7 9.5 0 11-3.5 21.8-10.7 32.3-7.8 14.3-18.2 24.3-31.2 30-3.7 1.2-7.6 1.8-11.5 1.8-8.5 0-16.5-2-24-6-5.4-3.5-9-8.5-11-15-.5-4.2-.8-8-.8-11.4v-.7c0-8 2.2-16 6.6-24.2.8-2.6 4.4-8.4 10.8-17.5 9-9.8 16-15.6 21-17.4 8-4 15-5.8 21.2-5.8zM694 619h1.2c5.8 0 9.8 2.4 12 7 .4 1 .6 2.2.6 4l-.7.5c.2 0 .3 0 .3.3-1 3.7-2.2 6.5-4 8.2l.2.2c0 .4-.2.6-.6.6h-.4c0 .5-.3 1-1 1.3 0 .7-2 3-6 6.7-.3 0-.5.3-.5.7-.8.2-1.3.4-1.3.7v.5c-.4 0-1 .5-2 1.5-.4 0-.7.3-.8 1-.5 0-1 .4-1.7 1l-1.3.3v.2l.2.2-5.7 4.4c9.7-2.3 16-3.5 18.7-3.5 2.3 1 4.4 2.4 6.3 4l.2.3c0 .3-.8.6-2.4 1l-.3-.3-2.5.4-.2-.3c0 .2-.8.5-2.6.8l-3 .5-.2.4-.4-.3-1.8.7h-.7c-.3.2-2.2.7-5.6 1.3-4.7 1.2-9 2.3-13.4 3.2-2.2.8-3.8 1.5-4.7 2l-.5.2c-.7 0-1.6-.8-3-2 0 0-1-.5-3-2 0-.2.6-.5 1.7-1.2 1.2-.6 1.8-1 1.8-1.5v-.2l.2.2c1.3-.7 2-1 2-1.3h-.2v-.2l1-.4c.4-.3.6-.6.6-1l1.3-.4v-.2c-.5 0-.7-.2-.7-.3.5-1 1.3-1.6 2.4-2.2l.6-.3h.5v.4h.3l.7-.6-.4-.8c2.5-2 3.7-3 4-3 .5-.3.8-.5.8-.7.3-.3.5-.4.8-.4v-.3c3-2.7 6.6-5.8 10.4-9.4 6-6 8.8-10.6 8.8-13.4v-.4c0-1-.4-1.7-1-2l-1-.2c-1.7 0-3.7 1-6 3-2 1.7-3.4 3.2-4.3 4.5-1.6 2-2.4 3.8-2.4 5l.2 1c-.2 0-.4.3-.5 1l-1 .3c-2.4-.7-4-1.3-5-2-.5-.4-.8-.7-.8-1l-.5-.3v.2h-.3c-.5-.4-.7-.7-.7-.8 0-4 3.2-8.5 9.7-13.8 3-2 5.6-3 7.7-3z"/></g><g><path d="M732.3 812c1.5-.4 2.4-2 2-3.3-.4-1.5-2-2.4-3.4-2-25.6 7-52 11.7-78.3 14-1.2 0-2.2 1-2.4 2.2v.7c0 1.5 1.4 2.6 3 2.5 26.6-2.4 53.2-7.2 79-14.2z"/><path d="M655 852.6l1.8-12.2c7.3-.6 14.5-1.5 21.8-2.5l1 13c0 1.5 1.4 2.7 3 2.6 1.4-.2 2.5-1.5 2.4-3l-1-13.5c7.2-1 14.5-2.3 21.7-3.7l4 13c.4 1.4 2 2.2 3.4 1.8 1.6-.3 2.4-2 2-3.3l-4-12.5c7.2-1.6 14.4-3.2 21.4-5l3 11.5c.3 1.5 1.7 2.4 3.2 2 1.5-.4 2.4-1.8 2-3.3l-3-11.7c6-1.6 11.8-3.4 17.6-5.2L762 831c.8 1.3 2.4 1.7 3.7 1 1.3-1 1.7-2.6 1-4l-6.2-9.3 11-3.7c3.5-1.4 6.8-3.6 9.5-6.5l12 7c1.4.8 3 .4 4-1 .6-1.3.2-3-1-3.7l-11.7-6.7c1.6-2.5 2.8-5.5 3.4-8.6.7-3.3.7-6.6.2-9.8l9.7-4.7c1.3-.8 2-2.4 1.2-3.8-.7-1.3-2.4-2-3.7-1.3l-8.8 4.2c-1.6-4.6-4.7-8.4-8.8-10.7l3.5-9c.5-1.4-.2-3-1.6-3.6-1.4-.6-3 0-3.5 1.5l-3.5 9c-3.8-.8-8-.5-12.2 1-5.3 2-10.6 3.7-16 5.4l.3-9.8c0-1.5-1.2-2.8-2.7-2.8-1.5 0-2.6 1-3 2.2v.4l-.2 11.7c-8.3 2.5-16.6 4.8-25 6.8v-9.8c0-1.5-1-2.7-2.6-2.8-1.4 0-2.5 1-2.7 2v.6l-.2 11.2c-9.2 2-18.5 4-27.8 5.5l-.7-9.7c0-1.5-1.4-2.6-3-2.5-1.2.2-2.2 1-2.4 2.2v.8l.7 10.2c-9 1.4-18 2.5-27.3 3.4l-4.7-9c-.7-1.3-2.4-1.8-3.7-1-.7.3-1.2 1-1.4 1.8-.2.6 0 1.2.2 1.8l4 7.4c-7.2 2-12.4 7.5-14 14.6v1.2l-10.6-.3c-1.3 0-2.5 1-2.8 2.2v.5c0 1.5 1 2.8 2.6 2.8l10.7.4c0 .6.3 1.3.4 2l.5 2c.7 3.7 2.4 7 4.6 10l-7.7 4.2c-.8.4-1.3 1-1.5 1.8 0 .7 0 1.3.3 2 .7 1.2 2.4 1.7 3.7 1l9-4.8c4 3.3 8.8 5.5 13.8 6l-1.8 11.6c-.2 1.5.8 3 2.3 3 1.5.3 3-.7 3-2.2zM634 818.8l-.5-2c-.5-2.2-.5-4.4 0-6.5 1.2-6.2 6.5-10.5 13.5-11.2 39.2-3.4 78-12 115-25.4 4.5-1.6 9-1.4 12.7.7 3.5 2 6 5.4 7 9.7l.3 2c.6 2.6.6 5.5 0 8.3-1.5 7.2-6.5 13.3-12.8 15.5-36.6 13.2-75 21.7-113.7 25.2-9.6 1-19.5-6.5-21.6-16.2z"/><path stroke-miterlimit="10" fill="none" stroke="#010202" stroke-width="3.1" stroke-linecap="round" stroke-linejoin="round" d="M758 783.4l7 2"/><path stroke-miterlimit="10" fill="none" stroke="#010202" stroke-width="4.8" stroke-linecap="round" stroke-linejoin="round" d="M752.7 795l2.7 4.3"/><path stroke-miterlimit="10" fill="none" stroke="#010202" stroke-width="3.1" stroke-linecap="round" stroke-linejoin="round" d="M769.8 793.4l-2 7M772.3 797.8l-7-2M760.5 788l2-7"/></g><path stroke-miterlimit="10" fill="none" stroke="#e30613" stroke-width="12.1" stroke-linecap="round" stroke-linejoin="round" d="M510.3 650.4l208 56.6M586.2 783l56.4-208.4"/></g></svg>