<svg xmlns="http://www.w3.org/2000/svg" height="763.3" width="294.5"><g transform="translate(-904.145 -182.46)"><path d="M957.2 202.2h-.8l-.4-.2-.2-.4v-18.1l.2-.5.4-.2h5l1 .4.7.4.4.2.4.4.5.7.3 1v.8l.2 1.4v.4l-.4 1-.2.2-.3.3-.3.3-.4.4-.7.5-.2.3.2.2.4.3.4.2.3.3.4.3.7 1 .2.6v.9l.2.4v1.4l-.2 1.4-.3.8-.3.4-.2.4-.2.3-.4.3-.4.2-.3.4-.5.2-1.8.5-3 .3h-.5zm4-1.8l.6-.2.3-.2.4-.3.3-.3.2-.4v-.9l.3-.2v-2.4l-.2-1-.4-.7-.2-.3-.7-.6-1.4-.4H958.2l-.4.3-.2.5v6.8l.3.5h.3l.4.2h.7l2-.3zm-1-9.5l.4-.3h.5l1-.6v-.2l.8-1.3V186l-.3-.5-.3-.4-.3-.2-.8-.4-.4-.2H958l-.4.6v5.5l.3.5H960zM966.7 202v-.5l.4-2.2.3-.4v-.5l.2-.4.6-2.6.4-1.3v-.3l.5-2v-.2l.3-1v-.3l.6-2.2v-.4l.2-.5v-.8l.4-1v-.2l.2-.5v-.4l.3-.8.4-.4.5-.3h.8l.4.2.3.4.2.6v.5l.5 1.4v1l.6 1.5.3 1.3.2.4v.5l.6 1.7v.3l.5 1.8v.6l.2.4v.4l.4 1.4v.8l.2.5v.5l.6 1.7.2 1.4v.4l-.5.2h-.5l-.5-.3-.4-.4v-1.4l-.3-.4-.2-1v-.4l-.2-.5-.2-1-.3-.4-.4-.2h-4l-.5.2-.2.5-1 4.2v.3l-.4.5-.5.3h-.6l-.3-.4zm6.4-7.3h1.3v-1.4l-.2-.5v-.8l-.2-.4v-.6l-.2-.4-.2-.4v-1l-.3-.6v-.7l-.3-1.3v-1l-.3-.8v-.2l-.3 1-.2 1.8v.3l-.4 1.4v.4l-.2.4v.4l-.3.8-.2.6v.4l-.4.8v1.5h1.3l1 .2h.4zM983 202.2l-.7-.4-.6-.5-.3-.4-.2-.4-.3-.3-.3-.4-.3-1v-.5l-.2-.4v-.2l-.4-1.5V188l.2-.3v-1l.3-.3v-.5l.3-.6v-.3l.2-.4.6-.7.2-.4.7-.7.4-.3h.4l.5-.4h3.3l.8.5h.4l.4.4.3.4v.5l-.4.5h-.9l-.4-.3h-.4l-.4-.3h-.5l-.6-.2h-.7l-.3.2h-.4l-.3.3-.3.3-.3.3v.4l-.6.7v.5l-.3 2.4v7.9l.3 1v.3l.2.5v.4l.4.5.2.3.3.3.5.3.4.2h2.3l.6-.2.7-.3.3-.2h.6l.4.4v.6l-.3.5-2 .8-1 .2h-1.2l-1.3-.3zM995 202.2l-.4-.2-.2-.3v-1.4l-.2-.4v-15.2l-.2-.5-.4-.2h-2.8l-.4-.2-.2-.5.2-.4.5-.4h8.5l.5.2v1.1H996.8l-.4.3-.3.5v.4l.2.4V202l-.6.2h-.4zM1009.4 202.2h-6.1l-.4-.2-.2-.4v-18.8l.5-.2h7l.3.3.3.3v.4l-.3.4-.7.3h-4.4l-.5.3-.2.7V190.6l.2.5.4.3h4.5l.5.2.2.5-.3.6-.5.2h-4.5l-.3.3-.3.5v6l.3.6.5.2H1009.8l.5.2.3.4v.6l-.3.4-.4.2h-.6zM1021.8 202.2l-.5-.4-.3-.5-.3-.7v-.4l-.3-.5v-.4l-.3-.4v-.5l-.4-.8v-.4l-.5-.8v-.4l-.3-.8-.2-.4-.3-.4-.4-.3h-1.9l-.4.4v6.9l-.2.4-.3.3-.4.2h-.5l-.2-.4V199l-.2-.7v-5l.2-.8V190l-.2-.3v-5.1l.2-.4V183l.5-.4H1019.2l.6.2h.3l.6.3.7.6.4.2.3.4.3.3v.3l.4.4.3 1v1l.2.4v1.2l-.2.4v1l-.4.8-.2.5-.3.4v.2l-.4.3-.4.3-.4.2-.4.3-.2.5v.5l.7 1.7v.4l.2.4.2.4.2.4v.4l.3.5.3 1 .2.6.4 1v.8l-.2.4h-1zm-4-9.7l.5-.2h.9l.4-.4.4-.3.4-.2.6-1 .2-.6V186.2l-1-1.2-.3-.3-.4-.2h-.4l-1-.4h-1.9l-.4.3-.3.2-.2.5V191.6l.2.4.3.4h1.9zM1027 202.2l-.4-.2-.3-.4v-18.2l-.2-.3.3-.5.4-.2h.5l.5.2.3.4v18.3l.2.4-.2.5-.5.2h-.4zM1030.6 202v-.5l.4-2.2.2-.4v-.5l.2-.4.5-2.6.3-1.3v-.3l.5-2v-.2l.4-1v-.3l.6-2.2v-.4l.2-.5.2-.8.2-1 .2-.2v-.9l.4-.8.3-.4.5-.3h.8l.5.2.4.4.2.6v.5l.4 1.4.2 1 .5 1.5.2 1.3v.4l.2.5.4 1.7v.3l.6 1.8v.6l.2.4v.4l.4 1.4v.8l.3.5v.5l.6 1.7.3 1.4-.2.4-.4.2h-.5l-.6-.3-.4-.4v-1l-.2-.4-.2-.4-.2-1v-.4l-.2-.5-.2-1-.4-.4-.4-.2h-4.1l-.5.2-.3.5-1 4.2v.3l-.4.5-.4.3h-.6l-.4-.4zm6.3-7.3H1038v-.6l-.2-.8v-.9l-.2-.4-.2-.4v-1l-.3-.4-.2-1V188l-.4-1.3v-1l-.4-.8v-.2l-.2 1-.3 1.8-.2.3-.3 1.4v.8l-.2.4-.3.8v1l-.4.8v1.5h1.3l1 .2h.4zM1047.3 202.4h-1.4l-.5-.2-.5-.2-.8-.5-.4-.3-.2-.5v-.5l.5-.3h.6l.4.2 1.2.5h.5l.4.2h1.5l.8-.4.8-.5.4-.2.3-.4v-.4l.3-.4v-.5l.2-.2V195.6l-.3-.5-.3-.3-.5-.6-1-1h-.4l-.4-.4-1.5-.8-.8-.6-.4-.2-.3-.4-.7-.6-.6-1-.3-1-.2-.7v-1.7l.5-1.4.2-.4.3-.2.4-.4.4-.2.3-.3.3-.2.7-.2h2.5l1 .2.3.2 1 .5v1l-.6.4-.6-.2-.3-.2-.5-.2h-.4l-.5-.2h-1.5l-.7.4-.4.3-.3.3v.4l-.3.3V188l.3.6.3.3.2.3 1.2 1 1.5.7 1.5 1 1.3 1.2.2.5.3.4.2.4.3 1v2.9l-.2.4v.5l-.3.4v.3l-.4.5-.3.3-.2.3-.4.4-.6.5h-.4l-1 .3h-1.7zM1058.6 202v-.5l.4-2.2v-.4l.2-.5v-.4l.7-2.6.3-1.3v-.3l.5-2v-.2l.3-1 .2-.3.6-2.2v-.4l.2-.5v-.8l.4-1v-.2l.2-.5v-.4l.4-.8.2-.4.5-.3h.9l.5.2.4.4.2.6v.5l.4 1.4v1l.7 1.5.2 1.3v.9l.6 1.7v.3l.5 1.8.2.6v.4l.2.4.4 1.4v.8l.3.5v.5l.6 1.7.3 1.4-.2.4-.4.2h-.5l-.7-.3-.3-.4-.2-1v-.4l-.2-.4-.2-1-.2-.4v-.5l-.3-1-.4-.4-.5-.2h-3.8l-.5.2-.3.5-1 4.2v.3l-.4.5-.4.3h-.6l-.4-.4zm6.3-7.3h1.1l.2-.6-.2-.8v-.5l-.2-.4v-.4l-.2-.4v-.6l-.2-.4-.2-.4v-1l-.3-.6-.2-.7-.2-1.3v-1l-.4-.8v-.2l-.3 1-.4 1.8v.3l-.4 1.4v.8l-.3.4-.3.8v1l-.4.8v1.5h1.3l1 .2h.4zM1079.7 202l-.4-.5-.2-.4-.4-1.6v-.4l-.3-.5v-.4l-.6-1.2v-.3l-.7-1.7-.2-1-.2-.4v-.5l-.3-.4-.3-1-.2-.3v-.5l-.2-.4-1-3.4-.2-.4-.3-1.3v-.4h-.2v8.9l.2.4V201.6l-.3.4-.7.2-.6-.2-.2-.4V183l.2-.5.6-.2h1.2l.4.2.5.5.2.4v.4l.2.4.4.8 1.5 4.8v.4l.2.4.2.4.5 1.3.2.8 1 2.7v.7l.2.4.2.7v.4l.2.6.2 1 .2.3v-17.2h1.3l.3.5.2.5v17.8l-.2.6-.4.2h-1.3l-.5-.3zM1084.5 202v-.5l.4-2.2v-.9l.3-.4.5-2.6.4-1.3v-.3l.5-2v-.2l.4-1v-.3l.7-2.2v-.4l.2-.5v-.8l.3-1 .2-.2v-.9l.4-.8.2-.4.5-.3h.9l.5.2.3.4.2.6v.5l.4 1.4v1l.6 1.5.2 1.3.2.4v.5l.5 1.7v.3l.5 1.8v.6l.3.4v.4l.4 1.4v.8l.3.5v.5l.5 1.7.3 1.4v.4l-.5.2h-.5l-.5-.3-.4-.4-.2-1-.2-.4v-.4l-.3-1v-.4l-.2-.5v-1l-.5-.4-.4-.2h-3.8l-.4.2-.3.5-1 4.2v.3l-.4.5-.5.3h-.6l-.5-.4zm6.3-7.3h1.2v-1.4l-.2-.5v-.8l-.3-.4v-.6l-.2-.4-.2-.4v-1l-.2-.6v-.7l-.3-1.3v-1l-.4-.8v-.2l-.2 1-.2 1.8-.2.3-.3 1.4V190.6l-.4.8v1l-.4.8v1.5H1089.3l1 .2h.4zM1105 202.2h-6l-.6-.2-.2-.4v-18.8l.5-.2H1105.6l.4.3v.3l.2.4-.3.4-.8.3h-4.3l-.4.3-.2.7V190.6l.3.5.4.3h4.6l.6.2.2.5-.3.6-.4.2h-4.4l-.4.3-.3.5v6l.3.6.5.2h4.7l.5.2.2.4v.6l-.3.4-.5.2h-.5zM1117.4 202.2l-.5-.4-.4-.5-.3-.7v-.4l-.3-.5v-.4l-.3-.4v-.5l-.5-.8v-.4l-.5-.8-.2-.4-.2-.8-.2-.4-.2-.4-.4-.3h-2l-.3.4v6.9l-.2.4-.3.3-.5.2h-.5l-.3-.4V199l-.2-.7v-1.6l.2-.5V188l-.2-.6v-2.7l.2-.4V183l.5-.4h5l.4.2h.3l.5.3.8.6.3.2.3.4.3.3v.3l.4.4.2 1v1l.2.4v1.2l-.2.4v1l-.4.8-.2.5-.3.4-.2.2-.3.3-.4.3-.4.2-.4.3-.2.5v.5l.7 1.7.2.4.2.4v.4l.2.4v.4l.3.5.5 1v.6l.5 1 .2.4v.4l-.3.4h-1zm-4-9.7l.5-.2h.8l.4-.4.4-.3.4-.2.6-1 .2-.6V186.2l-1-1.2-.3-.3-.3-.2h-.4l-1-.4h-1.8l-.4.3-.3.2-.2.5.2.4V192l.4.4h1.9zM1125.2 202.5l-.5-.2h-.4l-.3-.2-.7-.4-.6-.6-.2-.4-.2-.3-.3-.8-.2-.4-.3-.8-.4-3.2.2-.6V188l.3-1.4.4-1.4v-.3l.2-.4.3-.2v-.5l.4-.5.3-.2.3-.3.4-.2.4-.2.4-.2h.8l.7-.2h.6l.4.2h.8l.4.3.7.5.3.2.6.7.4 1 .2.7.2.4v.6l.5 3.2v5.9l-.2 1.4v1l-.4 1-.6 1-.4.8-.3.5-.4.3-.7.5-.3.2h-.4l-.6.2h-2.2zm2-1.7h.5l.3-.4.3-.3.5-.5.2-1 .2-.3v-.4l.2-.6v-1l.2-1.2v-6.8l-.3-1v-.4l-.2-.4v-.9l-.3-.4-.3-.3-.6-.5-.4-.2h-1.2l-.7-.2-.3.2h-.4l-.4.3-.6.7-.3.6-.4 1.5-.2 1.4v8.7l.5 1.4.2.8.2.4.5.7.4.2.2.2.4.2h1.3l.3-.2zM1136 202.2h-.8l-.3-.2-.4-.4v-18.1l.2-.5.5-.2H1140.5l1 .4.5.4.3.2.3.4.5.7.4 1v.3l.2.5V188.3l-.3 1-.3.2-.2.3-.3.3-.3.4-.8.5-.2.3.3.2.4.3.3.2.3.3.3.3.6 1 .2.6v.5l.2.4V198.6l-.4.8-.3.4-.3.4-.2.3-.3.3-.4.2-.2.4-.4.2-1.8.5-3 .3h-.5zm4.2-1.8l.4-.2.3-.2.3-.3.3-.3.2-.4v-.5l.2-.4.2-.2v-2.4l-.2-1-.5-.7-.3-.3-.7-.6-1.3-.4h-2.3l-.3.3-.2.5v6.8l.3.5h.4l.4.2h.7l2-.3zm-1.2-9.5l.5-.3h.5l.7-.6.3-.2.6-1.3.2-.5v-1.3l-.2-.3v-.5l-.2-.5-.3-.4-.2-.2-.8-.4-.4-.2H1136.8l-.2.6v5.5l.2.5h2.3zM1148 202.2l-.5-.2-.3-.4v-18.2l-.2-.3.2-.5.4-.2h.5l.6.2.3.4v19.2l-.6.2h-.4zM1151.5 202v-.5l.4-2.2v-.9l.3-.4.5-2.6.4-1.3v-.3l.5-2v-.2l.4-1v-.3l.7-2.2v-.4l.2-.5v-.8l.3-1 .2-.2v-.9l.4-.8.2-.4.5-.3h1l.4.2.3.4.2.6v.5l.4 1.4v1l.6 1.5.2 1.3.2.4v.5l.6 1.7v.3l.5 1.8v.6l.3.4v.4l.4 1.4v.8l.3.5v.5l.6 1.7.2 1.4v.4l-.5.2h-.5l-.5-.3-.4-.4-.2-1v-.4l-.3-.4-.2-1v-.4l-.2-.5v-1l-.5-.4-.4-.2H1155.5l-.6.2-.2.5-1 4.2v.3l-.5.5-.5.3h-.6l-.5-.4zm6.3-7.3h1.3v-1.9l-.2-.4v-.4l-.3-.4v-1l-.3-.4-.2-1-.2-.6v-.7l-.3-1.3v-1l-.4-.8v-.2 1l-.4 1.8-.2.3-.3 1.4V190.6l-.4.8v1l-.4.8v1.5H1156.4l1 .2h.4zM1168.2 202.4h-1.4l-.4-.2-.5-.2-1-.5-.3-.3-.2-.5v-.5l.5-.3h.5l.4.2 1 .5h.6l.4.2h1.4l.8-.4.8-.5.3-.2.3-.4v-.4l.3-.4v-2.9l-.2-.5-.2-.3-.5-.6-1-1h-.3l-.4-.4-1.5-.8-.7-.6-.3-.2-.3-.4-.7-.6-.6-1-.2-1v-.7l-.2-.7v-1l.6-1.4.2-.4.3-.2.4-.4.5-.2.3-.3.4-.2.7-.2h2.3l1 .2.3.2 1 .5v1l-.6.4-.4-.2-.4-.2-.5-.2h-.4l-.5-.2h-1.2l-.8.4-.4.3-.3.3-.2.4-.2.3V188l.3.6.2.3.2.3 1.2 1 1.5.7 1.6 1 1.3 1.2v.5l.4.4.2.4.3 1v2.5l-.2.4v.4l-.2.5-.2.4v.3l-.4.5-.4.3-.2.3-.4.4-.7.5h-.4l-1 .3H1168.2z"/><circle r="140" cy="418.8" cx="1058.7" fill="#eaf5f7"/><g><path d="M967.3 245.5h4l2.6.3 1.5-.3c4 2.2 7.5 5.8 10.5 10.7-.6 1.4-1.8 2-4 2l-9.2-2.6c-8 2.2-12 3.8-12 4.6 0 .6-2 1.7-5.4 3.4l-1-.4c-.7 1-1.4 1.6-2.3 1.6v.3c-.5 0-1 .7-1.3 2h-.2l-1.2-.4c0 .7-.4 1-1.3 1l.3.2v.4l-1.7 1.5-.5-.6c-.5 0-1.4 1-2.4 3.2l-1-.3c-1.5 1-2.5 2.3-3 3.5-.7 0-1.8 1-3.2 3l.3 1.6-.3.4h-.3l-1-.3c-4.7 7-8 12.5-9.6 16.7l.3.3c-2 1.4-3.5 7.3-4.4 17.8v.6l.2 1.5-.2.2v.3c1.3 7.7 3.4 13 6.3 16 1.7 1.2 3.7 1.8 5.8 1.8h2c17.7 0 32.2-11 43.5-33.4 2.8-6.8 4.3-13 4.3-18.8v-3l.5-.7c-.4-9-1.4-13.5-3-13.5-6.5-2.4-9.8-4.2-10-5.5v-.6l.6-1-.5-.7v-.2h.4c10 1 15.2 2.2 15.2 4 3.5 2 6.4 4.7 8.8 8 1 4.4 1.7 7.6 1.7 9.5 0 11-3.5 21.7-10.7 32.2-7.8 14.4-18.2 24.4-31 30-4 1.3-7.8 2-11.7 2-8.6 0-16.6-2-24-6.2-5.4-3.5-9-8.5-11-15-.6-4.2-1-8-1-11.4v-.5c0-8 2.3-16 6.7-24.2 1-2.6 4.5-8.5 10.8-17.5 9-9.8 16-15.7 21-17.5 8-4 15-5.8 21.3-5.8zM1033.2 237h1c6 0 10 2.3 12 7 .5 1 .7 2.2.7 3.8l-.8.6s.2 0 .2.3c-1 3.7-2.2 6.5-4 8.2l.2.2c0 .4-.2.5-.7.5h-.4c0 .5-.3 1-1 1.3 0 .6-2 2.8-6 6.7-.3 0-.4.2-.4.6-1 .2-1.4.4-1.4.7l-.2.5c-.2 0-.8.4-1.8 1.4-.4 0-.7.3-1 1-.3 0-.8.3-1.5 1l-1.3.2v.2l.3.3-5.7 4.4c9.7-2.4 16-3.6 18.7-3.6 2.3 1 4.4 2.4 6.3 4l.2.4c0 .3-.8.6-2.5.8l-.2-.2-2.4.4h-.2l-2.6.6-3 .5-.3.3-.3-.3-2 .7-.6-.2c-.3.3-2.2.8-5.7 1.4-4.6 1-9 2.2-13.3 3-2.2 1-3.8 1.7-4.7 2.3h-.4c-.7 0-1.7-.7-3-1.8l-3-2v-.3l1.7-1c1-.7 1.7-1.2 1.7-1.6 0 0 0-.2.2-.2v.2c1.4-.7 2-1 2-1.2v-.2l.8-.5c.5-.3.7-.6.7-1l1.3-.4v-.2h-.7c.6-1 1.4-1.6 2.4-2.2.3-.3.6-.4.7-.4h.5v.4h.2c.3-.4.5-.5.6-.5l-.4-.8 3.8-3 1-.6c0-.4.4-.5.7-.5l-.2-.3 10.5-9.4c5.8-6 8.8-10.5 8.8-13.3v-.4c0-1-.3-1.6-1-2h-.8c-1.8 0-3.8 1-6 3-2 1.6-3.6 3-4.5 4.4-1.6 2-2.4 3.8-2.4 5l.2 1c-.2 0-.4.3-.5 1l-1 .3c-2.3-.7-4-1.3-5-2-.5-.4-.7-.7-.7-1l-.5-.3-.2.2h-.2c-.4-.4-.7-.6-.7-.8 0-3.8 3.3-8.4 9.8-13.7 3-2 5.6-3 7.6-3z"/></g><circle r="140" cy="805.8" cx="1058.7" fill="#eaf5f7"/><g><path d="M1031 627.6h4.2l2.5.3 1.6-.4c4 2.2 7.5 5.7 10.5 10.7-.6 1.4-1.8 2-3.8 2l-9.4-2.6c-8 2.2-12 3.8-12 4.6 0 .5-2 1.7-5.4 3.3l-1-.3c-.7 1-1.4 1.6-2.3 1.6l-.3.2c-.4 0-.8.6-1.2 1.8h-.2l-1-.3c0 .6-.6 1-1.5 1l.3.2v.2l-1.6 1.6-.5-.6c-.7 0-1.5 1-2.6 3l-.8-.3c-1.7 1-2.7 2.3-3 3.6-1 0-2 1-3.4 3l.3 1.6-.3.3h-.3l-1.2-.3c-4.7 6.8-8 12.4-9.6 16.6l.3.3c-2 1.5-3.5 7.4-4.4 17.8v.7l.3 1.5-.2.3v.3c1.4 7.6 3.5 13 6.4 16 1.8 1.2 3.7 1.8 5.8 1.8h2c17.7 0 32.3-11 43.5-33.4 3-6.7 4.4-13 4.4-18.7v-3l.6-.8c-.4-9-1.4-13.4-3-13.4-6.5-2.3-9.8-4.2-10-5.4v-.6l.6-1-.5-.6.3-.3h.2c10 1 15.2 2.2 15.2 4 3.5 2 6.5 4.7 8.8 8 1 4.4 1.7 7.6 1.7 9.5 0 11-3.7 21.8-11 32.3-7.7 14.3-18 24.3-31 30-3.8 1.2-7.7 1.8-11.6 1.8-8.6 0-16.6-2-24-6-5.4-3.5-9-8.5-11-15-.6-4.2-.8-8-.8-11.4v-.7c0-8 2.2-16 6.6-24.2.8-2.6 4.4-8.4 10.7-17.5 9-9.8 16-15.6 21-17.4 7.8-4 15-5.8 21-5.8zM1097 619h1c6 0 10 2.4 12 7 .5 1 .7 2.2.7 4l-.7.5s.2 0 .2.3c-1 3.7-2.2 6.5-4 8.2l.2.2c0 .4-.2.6-.7.6h-.3c0 .5-.3 1-1 1.3 0 .7-2 3-6 6.7-.3 0-.4.3-.4.7-1 .2-1.4.4-1.4.7l-.2.5c-.2 0-.8.5-1.8 1.5-.4 0-.7.3-1 1-.3 0-.8.4-1.5 1l-1.2.3v.2l.3.2-5.6 4.4c9.7-2.3 16-3.5 18.7-3.5 2.4 1 4.5 2.4 6.4 4l.2.3c0 .3-.8.6-2.5 1v-.3l-2.6.4-.2-.3c0 .2-1 .5-2.6.8l-3 .5-.3.4-.3-.3-2 .7h-.6c-.3.2-2.2.7-5.7 1.3-4.5 1.2-9 2.3-13.2 3.2-2.2.8-3.8 1.5-4.7 2l-.4.2c-.7 0-1.7-.8-3-2 0 0-1-.5-3-2 0-.2.6-.5 1.7-1.2 1.2-.6 1.8-1 1.8-1.5v-.2l.3.2c1.4-.7 2-1 2-1.3v-.2l.8-.4c.5-.3.7-.6.7-1l1.3-.4v-.2c-.4 0-.7-.2-.7-.3.7-1 1.5-1.6 2.5-2.2l.7-.3h.5v.4h.3c.3-.5.5-.6.6-.6l-.4-.8 3.8-3c.6-.3 1-.5 1-.7 0-.3.4-.4.7-.4v-.3l10.4-9.4c6-6 9-10.6 9-13.4v-.4c0-1-.5-1.7-1.2-2l-.8-.2c-1.8 0-3.8 1-6 3-2 1.7-3.6 3.2-4.5 4.5-1.6 2-2.4 3.8-2.4 5l.3 1c-.2 0-.4.3-.5 1l-1 .3c-2.3-.7-4-1.3-5-2-.5-.4-.7-.7-.7-1l-.4-.3-.2.2h-.2l-.7-.8c0-4 3.3-8.5 9.8-13.8 3-2 5.6-3 7.6-3z"/></g><g><path d="M1084 425c1.5-.4 2.3-2 2-3.4-.5-1.4-2-2.3-3.4-2-25.6 7-52 11.7-78.2 14-1.3.2-2.2 1-2.5 2.3v.7c0 1.5 1.4 2.6 3 2.5 26.5-2.4 53.2-7.2 79-14.2z"/><path d="M1006.6 465.6l2-12.2c7-.7 14.4-1.5 21.6-2.5l1 13c0 1.5 1.4 2.6 3 2.5 1.4 0 2.6-1.4 2.4-3l-1-13.4c7.3-1 14.6-2.3 21.8-3.7l4 13c.4 1.4 2 2.2 3.4 1.8 1.4-.4 2.2-2 1.8-3.4l-4-12.5c7.3-1.4 14.4-3 21.5-5l3 11.7c.3 1.4 1.8 2.3 3.3 2 1.4-.4 2.3-2 2-3.3l-3-11.8c6-1.6 11.7-3.3 17.5-5.2l6.8 10.6c.8 1.3 2.5 1.7 3.8.8 1.3-.8 1.6-2.5.8-3.7l-6-9.3 11-3.8c3.5-1.4 6.8-3.6 9.4-6.5l12.2 7c1.3.8 3 .3 3.7-1 .8-1.3.4-3-1-3.7L1136 417c1.5-2.6 2.7-5.5 3.4-8.6.7-3.3.7-6.6 0-9.8l10-4.8c1.3-.6 2-2.2 1.2-3.6-.7-1.4-2.3-2-3.7-1.3l-8.8 4.2c-1.7-4.7-4.7-8.4-9-10.7l3.6-9c.6-1.5 0-3-1.5-3.6-1.4-.6-3 0-3.6 1.5l-3.5 9c-4-.8-8-.5-12.2 1-5.3 2-10.7 3.7-16 5.4l.2-9.8c0-1.5-1-2.8-2.7-2.8-1.3 0-2.4 1-2.7 2v.6l-.4 11.6c-8.2 2.5-16.6 4.8-25 7v-10c.2-1.4-1-2.7-2.6-2.7-1.3 0-2.4.8-2.7 2V397c-9.3 2-18.5 4-27.8 5.5l-.7-9.7c0-1.5-1.5-2.7-3-2.6-1.2 0-2.2 1-2.5 2.2v.8l.7 10.2c-9 1.4-18.2 2.5-27.3 3.4l-4.7-9c-.7-1.3-2.4-2-3.7-1-.8.3-1.3 1-1.4 1.7-.2.6 0 1.3.2 2l4 7.3c-7.2 2-12.4 7.5-14 14.5v1.4l-10.5-.4c-1.4 0-2.6 1-2.8 2.2v.5c0 1.5 1 2.8 2.6 2.8l10.7.4c0 .6.2 1.3.4 2l.5 2c.8 3.7 2.5 7 4.8 10l-7.7 4.2c-.8.4-1.3 1-1.4 1.8-.2.6 0 1.3.2 2 .7 1.2 2.4 1.7 3.7 1l9.2-5c4 3.5 8.7 5.7 13.8 6.3l-1.8 11.4c-.3 1.5.8 3 2.2 3.2 1.5 0 3-1 3.2-2.4zm-20.8-33.8l-.4-2c-.5-2.2-.5-4.5 0-6.5 1.2-6.2 6.5-10.6 13.5-11.2 39-3.4 77.8-12 115-25.4 4.4-1.6 9-1.4 12.6.7 3.5 2 6 5.4 7 9.7l.4 2c.6 2.6.6 5.5 0 8.3-1.5 7-6.5 13.2-12.8 15.5-36.6 13.2-75 21.7-113.7 25.2-9.6.8-19.5-6.6-21.7-16.2z"/><path stroke-miterlimit="10" fill="none" stroke="#010202" stroke-width="3.1" stroke-linecap="round" stroke-linejoin="round" d="M1109.6 396.4l7 2"/><path stroke-miterlimit="10" fill="none" stroke="#010202" stroke-width="4.8" stroke-linecap="round" stroke-linejoin="round" d="M1104.4 408l2.7 4.3"/><path stroke-miterlimit="10" fill="none" stroke="#010202" stroke-width="3.1" stroke-linecap="round" stroke-linejoin="round" d="M1121.4 406.3l-2 7M1124 410.8l-7-2M1112.2 400.8l2-7"/></g><path stroke-miterlimit="10" fill="none" stroke="#e30613" stroke-width="12.1" stroke-linecap="round" stroke-linejoin="round" d="M910.3 650.4l208 56.6M986 783l56.6-208.4"/><g fill="#010202"><path d="M1015.2 759.8c-1 0-1.7.5-1.8 1.5-2 16-2.8 32.3-2 48.4 0 .8.8 1.5 1.6 1.5 1 0 1.7-.8 1.7-1.7-.7-16 0-32 2-47.8 0-1-.6-1.8-1.5-2zM1015.3 818.5c0-1-1-1.6-1.8-1.5-1 0-1.6 1-1.5 1.8.3 4.5.8 9 1.4 13.5 0 .8.8 1.4 1.6 1.4h.2c1 0 1.6-1 1.4-2-.5-4.3-1-8.8-1.3-13.2z"/><path d="M1039.2 760.7c1-.3 1.4-1.2 1-2 0-1-1-1.5-2-1.2l-4.8 1.3c-.2-2.7-1.2-5.2-3-7-1-1.6-2.7-2.6-4.5-3.3l1.5-6c.2-1-.3-2-1.2-2-1-.3-1.8.2-2 1l-1.6 6.3h-2.5c-2.3 0-4.5.5-6.6 1.4l-1.4-5c-.2-1-1-1.5-2-1.2-1 .2-1.4 1-1.2 2l1.7 6c-2.4 2-4.4 4.4-5.4 7.3l-6.5-2.6c-.8-.3-1.8 0-2 1-.5.8 0 1.8.8 2l7 2.8c-.6 4.4-1 8.8-1.4 13l-8-1c-.8 0-1.6.5-1.7 1.4-.2.8.4 1.6 1.3 1.8l8 1-.5 13.4-8 .7c-1 0-1.7.7-1.6 1.7 0 .8.8 1.5 1.6 1.5l8-.7c0 4.4 0 8.8.2 13.3h-7.2c-1 0-1.6 1-1.6 1.8 0 1 .8 1.6 1.7 1.6h7.3l.7 10.8-7 2.6c-1 .3-1.4 1.3-1 2 .2.8.8 1.2 1.5 1.2h.5l6.3-2.4.8 7c.3 2.2 1.2 4.4 2.5 6.4l-5.6 6.2c-.6.7-.6 1.7 0 2.3.4.3.8.5 1.2.5.5 0 1-.2 1.2-.6l5.5-6c2.8 2.7 6.5 4.4 10.4 4.6l1.5 6.4c.2.7 1 1.2 1.6 1.2h.4c1-.2 1.4-1 1.2-2l-1.4-5.7c3-.4 5.6-1.7 7.5-3.8l5 3c0 .3.5.4.8.4.5 0 1-.2 1.3-.7.6-.8.3-1.8-.4-2.3l-5-3.3c1-2 1.5-4.5 1.2-7.2-.5-3.3-.8-6.7-1.2-10l5.7 1.3h.3c.8 0 1.4-.4 1.6-1 .2-1-.4-2-1.3-2l-6.8-1.8c-.5-5.2-.7-10.4-.8-15.6l5.7 1.3h.3c.8 0 1.4-.5 1.6-1.3 0-1-.4-1.8-1.3-2l-6.6-1.5c0-5.7.2-11.4.5-17l5.8.8h.3c.8 0 1.5-.6 1.6-1.4 0-1-.5-1.8-1.4-2l-6-.8c.3-5.5.8-11 1.5-16.5l6-1.6zm-17.8 81.8h-1.2c-6 0-11.6-5-12.4-10.7-3-23.2-3-46.8 0-70 .8-6 6.4-10.8 12.4-10.8h1.2c2.7 0 5 1 6.6 3 1.7 1.8 2.5 4.4 2 7.3-3 23.5-3 47.4 0 71 .5 2.8-.3 5.5-2 7.4-1.6 1.8-4 2.8-6.6 2.8zM1080.6 821.5c-1 0-1.6.8-1.5 1.7.8 16 .2 32-2 48 0 .8.6 1.6 1.5 1.7h.3c.8 0 1.5-.7 1.6-1.5 2-16 2.7-32.3 2-48.4 0-.8-1-1.5-1.8-1.5z"/><path d="M1099.3 837.6l-8 .6c.2-4.4 0-8.8 0-13.2l7-.2c1 0 1.8-.8 1.8-1.7 0-.8-.7-1.5-1.6-1.5l-7.3.2c0-3.7-.4-7.3-.7-11l7-2.6c1-.2 1.4-1 1-2-.2-.8-1.2-1.3-2-1l-6.3 2.3-.8-6.8c-.3-2.4-1.2-4.6-2.6-6.5l5.8-6.3c.6-.6.5-1.7 0-2.3-.8-.6-2-.6-2.5 0l-5.5 6c-2.8-2.6-6.5-4.3-10.4-4.5l-1.4-6.5c-.3-.8-1-1.4-2-1.2-1 .2-1.5 1-1.3 2l1.4 5.7c-3 .4-5.5 1.7-7.4 3.8l-5-3.2c-.7-.5-1.7-.3-2.2.4-.4.8-.2 1.8.6 2.3l5 3.3c-1.2 2.2-1.5 4.7-1.2 7.3.4 3.3.8 6.7 1 10l-5.6-1.4c-1-.2-1.8.4-2 1.2-.2 1 .3 1.8 1.2 2l6.8 1.7c.4 5.2.7 10.4.8 15.6l-5.8-1.2c-1-.2-1.8.3-2 1.2-.2 1 .4 1.8 1.3 2l6.6 1.5c0 5.7 0 11.4-.4 17l-5.8-.8c-1 0-1.7.5-2 1.4 0 1 .6 2 1.5 2l6 1c-.3 5.4-.8 11-1.5 16.5l-6 1.6c-.8.3-1.3 1.2-1 2 0 .8.8 1.3 1.5 1.3h.5l4.8-1.4c.2 2.6 1.2 5 3 7 1.2 1.5 2.8 2.6 4.5 3.2l-1.6 6c-.2 1 .3 2 1.2 2.2h.4c.8 0 1.4-.5 1.6-1.2l1.6-6.2h2.6c2.2 0 4.5-.5 6.5-1.5l1.5 5c.2.8 1 1.3 1.6 1.3h.6c.8-.3 1.4-1.2 1-2l-1.6-6c2.5-2 4.4-4.5 5.5-7.3l6.4 2.5h.5c.7 0 1.3-.3 1.6-1 .4-.8 0-1.7-.8-2l-7-2.8c.6-4.3 1-8.7 1.4-13l7.8 1h.3c.8 0 1.5-.5 1.6-1.4 0-1-.5-1.7-1.4-1.8l-8.2-1.2c.3-4.4.5-9 .6-13.3l8.2-.6c1-.2 1.5-1 1.5-2 0-.8-.8-1.5-1.7-1.4zm-25.7 44h-1.3c-2.6 0-5-1-6.6-2.7-1.7-2-2.4-4.6-2-7.5 3-23.6 3-47.5 0-71-.4-3 .3-5.5 2-7.4 1.6-1.7 4-2.7 6.6-2.7h1.3c6 0 11.6 4.8 12.3 10.6 3 23.2 3 46.8 0 70-.8 6-6.5 10.7-12.4 10.7zM1114.2 757.8c-.5-1-1.5-1.2-2.3-.8-1 .4-1.2 1.4-.8 2.2 7.2 14.3 13.3 29.2 18 44.5 0 .7.8 1 1.5 1h.5c.8-.2 1.3-1 1-2-4.6-15.4-10.7-30.6-18-45z"/><path d="M1147.7 798.4l-7.5.4-4-12.5 7.5-2.2c1 0 1.4-1 1-2 0-.8-1-1.3-2-1l-7.8 2.2-5-12.3 7.2-4c.8-.6 1-1.6.6-2.4-.4-.8-1.4-1-2.2-.6l-7 3.8c-1.7-4-3.6-8-5.5-12l6.5-3c1-.5 1.2-1.5.8-2.3-.4-.8-1.4-1.2-2.2-.8l-6.4 3.2-5.2-9.8 5.4-5.3c.6-.7.6-1.7 0-2.4s-1.7-.7-2.3 0l-4.8 4.7-3.6-6c-1-2-2.8-3.6-5-4.8l2.8-8c.3-1-.2-2-1-2.2-1-.2-2 .2-2.2 1l-2.5 7.8c-1.6-.6-3.5-1-5.4-1-2 0-4 .5-5.8 1.2l-4-5.2c-.6-.7-1.6-.8-2.4-.3-.7.6-.8 1.6-.3 2.3l3.7 4.7c-2.5 1.5-4.3 3.8-5.2 6.5l-5.8-1c-1 0-1.7.5-2 1.4 0 1 .6 1.8 1.5 2l5.8 1c0 2.3.7 4.7 2 7 1.8 3 3.6 5.8 5.2 8.8l-5.7 1c-1 .2-1.5 1-1.4 2 .3.7 1 1.3 1.7 1.3h.3l7-1.3c2.4 4.6 4.8 9.2 7 14l-5.7 1c-1 .2-1.5 1-1.3 2 0 .8.8 1.3 1.6 1.3h.3l6.5-1.3c2.4 5.2 4.6 10.4 6.7 15.7l-5.7 1.7c-1 .3-1.4 1.2-1 2 0 .8.7 1.3 1.5 1.3h.4l6-1.8c2 5.2 3.7 10.4 5.3 15.7l-4.7 3.8c-.7.6-.8 1.6-.2 2.3.3.5.8.7 1.3.7.4 0 .8 0 1-.3l4-3.2c2 4 6 6.3 10.3 6.3h.8l1 6.2c.3.8 1 1.4 1.8 1.4h.2c1 0 1.5-1 1.4-2l-1-6.2c.3 0 .7-.3 1-.5l1.2-.5c2-1 4-2.3 5.4-4l3.4 4c.3.4.8.6 1.2.6.4 0 .8 0 1-.4.8-.6 1-1.6.3-2.3l-4-4.8c1.4-2.8 2-6 2-9l6.8-.3c1 0 1.6-.8 1.6-1.7 0-1-.8-1.6-1.8-1.6zm-17.4 16.4l-1.2.5c-1 .6-2.4 1-3.7 1-3.8 0-7-2.7-8.3-6.7-7-22.7-16.7-44.5-29.2-64.7-1.5-2.6-2-5.3-1.2-7.7.8-2.4 2.5-4.2 5-5.3l1-.5c1.5-.7 3.2-1 5-1 4.4 0 8.6 2.2 10.7 5.6 12.3 20 22 41.6 28.8 64 1.8 5.6-1.3 12.4-6.7 14.8zM989.8 764.4h-20.2c-1 0-1.7.8-1.7 1.7 0 1 .7 1.7 1.6 1.7h20.2c1 0 1.6-.7 1.6-1.6 0-.8-.7-1.6-1.6-1.6zM1136.6 857h-23c-.8 0-1.5.6-1.5 1.5 0 1 .8 1.7 1.7 1.7h23c.8 0 1.6-.8 1.6-1.7 0-1-.8-1.6-1.7-1.6zM1068.3 765.8c1 0 1.6-.8 1.6-1.7 0-.8-.8-1.5-1.7-1.5h-14.8c-1 0-1.7.7-1.7 1.6 0 1 .8 1.8 1.7 1.8h14.8zM1030.6 873.2h-23.3c-1 0-1.7.7-1.7 1.6 0 1 .7 1.7 1.7 1.7h23.3c1 0 1.6-.7 1.6-1.6 0-1-.7-1.8-1.6-1.8z"/><circle r="2.5" cy="743.1" cx="1094.7"/><circle r="2.5" cy="739.9" cx="1101.9"/><path d="M1103.7 746.5c.4 1 0 2.3-1 3-1 .5-2.4 0-3-.8l-1.7.8c1 2 3.6 2.8 5.6 1.7 2-1 2.8-3.5 1.7-5.6l-1.6 1z"/><circle r="2.5" cy="802.5" cx="1070.2"/><path d="M1080.4 802.8c-.5 1.3-2 2-3.3 1.5-1.2-.5-2-2-1.4-3.2.5-1.3 2-2 3.3-1.5 1.2.5 2 2 1.4 3.3zM1077.5 808.7c0 1.2-1 2.2-2 2.4-1.2.2-2.3-.5-2.6-1.6l-2 .2c.4 2.3 2.5 3.8 4.8 3.5 2.2-.2 3.8-2.3 3.5-4.5l-1.8.2z"/></g></g></svg>