<?xml version="1.0" encoding="utf-8"?>
<!-- Generator: Adobe Illustrator 16.0.0, SVG Export Plug-In . SVG Version: 6.00 Build 0)  -->
<!DOCTYPE svg PUBLIC "-//W3C//DTD SVG 1.1//EN" "http://www.w3.org/Graphics/SVG/1.1/DTD/svg11.dtd" [
	<!ENTITY ns_extend "http://ns.adobe.com/Extensibility/1.0/">
	<!ENTITY ns_ai "http://ns.adobe.com/AdobeIllustrator/10.0/">
	<!ENTITY ns_graphs "http://ns.adobe.com/Graphs/1.0/">
	<!ENTITY ns_vars "http://ns.adobe.com/Variables/1.0/">
	<!ENTITY ns_imrep "http://ns.adobe.com/ImageReplacement/1.0/">
	<!ENTITY ns_sfw "http://ns.adobe.com/SaveForWeb/1.0/">
	<!ENTITY ns_custom "http://ns.adobe.com/GenericCustomNamespace/1.0/">
	<!ENTITY ns_adobe_xpath "http://ns.adobe.com/XPath/1.0/">
]>
<svg version="1.1" xmlns:x="&ns_extend;" xmlns:i="&ns_ai;" xmlns:graph="&ns_graphs;"
	 xmlns="http://www.w3.org/2000/svg" xmlns:xlink="http://www.w3.org/1999/xlink" x="0px" y="0px" width="1366px" height="768px"
	 viewBox="0 0 1366 768" enable-background="new 0 0 1366 768" xml:space="preserve">
<metadata>
	<sfw  xmlns="&ns_sfw;">
		<slices></slices>
		<sliceSourceBounds  height="1768.631" width="8395.566" y="-463.576" x="-4191.462" bottomLeftOrigin="true"></sliceSourceBounds>
	</sfw>
</metadata>
<g id="Fondo" display="none">
</g>
<g id="Guías">
</g>
<g id="Primer_plano">
</g>
<g id="Capa_1">
	<rect fill="#E8D300" width="1366" height="768"/>
	<g>
		<g>
			<path fill="#FFFFFF" d="M682.998,245.507c-57.661,0-104.404,46.745-104.404,104.405c0,57.664,46.743,104.409,104.404,104.409
				c57.664,0,104.409-46.745,104.409-104.409C787.407,292.252,740.662,245.507,682.998,245.507z M682.998,415.014
				c-35.95,0-65.099-29.145-65.099-65.102c0-35.953,29.148-65.098,65.099-65.098c35.956,0,65.104,29.145,65.104,65.098
				C748.103,385.869,718.954,415.014,682.998,415.014z"/>
			<path fill="none" stroke="#FFFFFF" stroke-width="3.9838" stroke-miterlimit="10" d="M795.546,349.912
				c0,62.157-50.391,112.544-112.548,112.544c-62.155,0-112.539-50.387-112.539-112.544c0-62.153,50.384-112.54,112.539-112.54
				C745.155,237.372,795.546,287.759,795.546,349.912z"/>
			<g>
				<path d="M692.116,242.639c0,3.326-2.695,6.026-6.026,6.026l0,0c-3.33,0-6.026-2.7-6.026-6.026v-7.834
					c0-3.33,2.696-6.026,6.026-6.026l0,0c3.331,0,6.026,2.696,6.026,6.026V242.639z"/>
				<path d="M575.728,340.797c3.326,0,6.025,2.7,6.025,6.026l0,0c0,3.331-2.699,6.03-6.025,6.03h-7.839
					c-3.327,0-6.024-2.699-6.024-6.03l0,0c0-3.326,2.697-6.026,6.024-6.026H575.728z"/>
				<path d="M673.886,457.189c0-3.33,2.697-6.026,6.023-6.026l0,0c3.33,0,6.03,2.696,6.03,6.026v7.834c0,3.326-2.7,6.026-6.03,6.026
					l0,0c-3.326,0-6.023-2.7-6.023-6.026V457.189z"/>
				<path d="M790.275,359.031c-3.327,0-6.026-2.7-6.026-6.03l0,0c0-3.327,2.699-6.026,6.026-6.026h7.837
					c3.324,0,6.025,2.699,6.025,6.026l0,0c0,3.33-2.701,6.03-6.025,6.03H790.275z"/>
			</g>
			<g>
				<defs>
					<path id="SVGID_5_" d="M682.998,245.507c-57.661,0-104.404,46.745-104.404,104.405c0,57.664,46.743,104.409,104.404,104.409
						c57.664,0,104.409-46.745,104.409-104.409C787.407,292.252,740.662,245.507,682.998,245.507z M682.998,415.014
						c-35.95,0-65.099-29.145-65.099-65.102c0-35.953,29.148-65.098,65.099-65.098c35.956,0,65.104,29.145,65.104,65.098
						C748.103,385.869,718.954,415.014,682.998,415.014z"/>
				</defs>
				<clipPath id="SVGID_2_">
					<use xlink:href="#SVGID_5_"  overflow="visible"/>
				</clipPath>
				
					<line clip-path="url(#SVGID_2_)" fill="none" stroke="#FFF7AE" stroke-width="67.7242" stroke-miterlimit="10" x1="685.638" y1="297.393" x2="685.638" y2="212.418"/>
				
					<line clip-path="url(#SVGID_2_)" fill="none" stroke="#FFF7AE" stroke-width="67.7242" stroke-miterlimit="10" x1="629.589" y1="346.211" x2="544.61" y2="346.211"/>
				
					<line clip-path="url(#SVGID_2_)" fill="none" stroke="#FFF7AE" stroke-width="67.7242" stroke-miterlimit="10" x1="678.403" y1="402.257" x2="678.403" y2="487.235"/>
				
					<line clip-path="url(#SVGID_2_)" fill="none" stroke="#FFF7AE" stroke-width="67.7242" stroke-miterlimit="10" x1="734.45" y1="353.442" x2="819.43" y2="353.442"/>
			</g>
		</g>
	</g>
</g>
</svg>
