<?xml version="1.0" encoding="utf-8"?>
<!-- Generator: Adobe Illustrator 16.0.0, SVG Export Plug-In . SVG Version: 6.00 Build 0)  -->
<!DOCTYPE svg PUBLIC "-//W3C//DTD SVG 1.1//EN" "http://www.w3.org/Graphics/SVG/1.1/DTD/svg11.dtd" [
	<!ENTITY ns_extend "http://ns.adobe.com/Extensibility/1.0/">
	<!ENTITY ns_ai "http://ns.adobe.com/AdobeIllustrator/10.0/">
	<!ENTITY ns_graphs "http://ns.adobe.com/Graphs/1.0/">
	<!ENTITY ns_vars "http://ns.adobe.com/Variables/1.0/">
	<!ENTITY ns_imrep "http://ns.adobe.com/ImageReplacement/1.0/">
	<!ENTITY ns_sfw "http://ns.adobe.com/SaveForWeb/1.0/">
	<!ENTITY ns_custom "http://ns.adobe.com/GenericCustomNamespace/1.0/">
	<!ENTITY ns_adobe_xpath "http://ns.adobe.com/XPath/1.0/">
]>
<svg version="1.1" xmlns:x="&ns_extend;" xmlns:i="&ns_ai;" xmlns:graph="&ns_graphs;"
	 xmlns="http://www.w3.org/2000/svg" xmlns:xlink="http://www.w3.org/1999/xlink" x="0px" y="0px" width="1366px" height="768px"
	 viewBox="0 0 1366 768" enable-background="new 0 0 1366 768" xml:space="preserve">
<metadata>
	<sfw  xmlns="&ns_sfw;">
		<slices></slices>
		<sliceSourceBounds  height="1768.631" width="8395.566" y="-463.576" x="-4191.462" bottomLeftOrigin="true"></sliceSourceBounds>
	</sfw>
</metadata>
<g id="Fondo" display="none">
</g>
<g id="Guías">
</g>
<g id="Primer_plano">
</g>
<g id="Capa_1">
	<rect fill="#E8D300" width="1366" height="768"/>
	<g>
		<g>
			<path d="M432.747,363.622c0,0,0.292-0.397,0.874-1.191c0.529-0.636,1.297-1.482,2.304-2.542c0.211-0.264,1.562-1.641,4.052-4.131
				c-0.848-0.211-1.668,0.027-2.463,0.715c-0.848,0.689-1.537,1.033-2.065,1.033c0-0.9,0.026-1.376,0.08-1.43
				c0.264-0.37,0.874-1.005,1.827-1.906c2.012-1.959,3.098-3.76,3.257-5.402c0.105-1.271,0.821-1.668,2.145-1.191
				c1.218,0.477,2.225,0.079,3.019-1.192h-7.626c0.37-1.694,1.535-2.515,3.495-2.463c0.583,0,1.51,0.027,2.781,0.08
				c1.218,0.053,2.145,0.08,2.78,0.08c1.112,0,1.907-0.105,2.383-0.318c1.589-0.741,2.912-0.636,3.972,0.318
				c0.318,0.212,1.006,0.133,2.066-0.238c0.105,0,0.926-0.397,2.462-1.192c0.688,1.271,2.33,2.065,4.926,2.383
				c3.707,0.425,8.341,1.06,13.902,1.907c1.641,0.212,3.019-0.08,4.131-0.874c1.323-0.953,2.197-0.608,2.622,1.033
				c0,0.054,0.052,0.371,0.159,0.954l0.636,0.397c2.065,0,3.071,0,3.019,0c2.701,1.325,6.01,3.125,9.93,5.402
				c1.641,1.007,2.807,1.457,3.496,1.351c0.847-0.105,1.43-0.052,1.748,0.159c0.211,0.212,0.423,0.769,0.636,1.668l0.08,0.953
				c0.582,0.212,0.9,0.318,0.953,0.318c0.953,0.107,1.536,0.238,1.748,0.397c0.211,0.266,0.265,0.822,0.159,1.668
				c-0.159,1.271,0.318,2.411,1.43,3.416c0.9,0.794,1.244,1.854,1.033,3.178c-0.159,1.112-0.187,2.967-0.08,5.561
				c0.105,3.178-0.504,6.224-1.827,9.136c-1.537,3.549-4.528,6.462-8.977,8.739c-4.767,2.542-10.249,4.317-16.445,5.323
				c-0.794,0.107-2.119,0.371-3.972,0.794c-1.748,0.371-3.099,0.636-4.052,0.794c-0.159,0-1.854,0-5.084,0c-1.43,0-2.225,0-2.383,0
				c-1.907,0.266-2.967,1.324-3.178,3.178c-0.636,4.556-0.769,9.533-0.397,14.936c0.052,0.901-0.212,4.343-0.794,10.328
				c-0.107,1.005-0.715,1.509-1.828,1.509c-0.583-0.053-1.219-0.133-1.906-0.238c-0.743-0.159-2.383-0.504-4.926-1.033
				c-2.808-0.636-6.25-0.688-10.328-0.159c-1.589,0.212-2.967,0.292-4.131,0.238c-1.166-0.105-1.748-0.794-1.748-2.065
				c0-0.846-0.027-2.038-0.079-3.575c0-1.694,0-2.886,0-3.575c0-1.218,0.026-2.038,0.079-2.462c0.211-0.794,0.503-6.011,0.874-15.65
				c0.052-2.225,0.08-3.575,0.08-4.052c-0.212-2.33-0.159-4.421,0.159-6.276c0.159-0.847,0.37-4.131,0.636-9.851v-3.337
				c-0.848,0.371-1.722,0.769-2.622,1.192c-0.107-0.954,0.502-2.225,1.827-3.813c1.164-1.271,1.509-2.78,1.033-4.528
				c-0.318,0.212-0.874,0.583-1.668,1.112c-0.742,0.424-1.378,0.822-1.907,1.192c0.159-1.377,0.238-2.092,0.238-2.145
				c0.9-1.323,1.8-2.436,2.701-3.337c1.218-1.323,1.562-2.674,1.033-4.052c-0.901,0.054-1.775,0.53-2.622,1.43
				c-1.166,1.166-1.907,1.827-2.224,1.986C433.223,363.834,432.747,363.622,432.747,363.622z M458.089,400.643
				c0,0-0.027,0.027-0.079,0.08c-0.848,0.583-5.35,3.761-13.505,9.533c-0.318,0.266-1.112,0.822-2.383,1.668
				c-0.954,0.689-1.722,1.245-2.304,1.668c-0.953,0.688-1.006,1.722-0.159,3.098l0.794-0.477c6.143-5.137,9.4-7.865,9.771-8.183
				c-0.159,0.106,2.356-1.589,7.547-5.084c1.218-0.847,1.8-1.774,1.748-2.781C458.566,400.484,458.089,400.643,458.089,400.643z
				 M459.996,395.559c0,0,0.105-0.052,0.318-0.159c1.271-0.635,2.171-0.926,2.701-0.874c1.694,0.054,3.575-0.556,5.641-1.827
				c0.37-0.264,1.005-0.688,1.906-1.271c0.847-0.529,1.482-0.926,1.907-1.191c10.062-6.197,20.39-13.77,30.983-22.721
				c0.636-0.529,1.059-1.005,1.271-1.43c0.529-0.954,0.344-1.827-0.556-2.622c-0.477-0.423-1.166-0.265-2.066,0.477
				c-8.262,6.673-12.977,10.46-14.141,11.36c-3.443,2.542-8.818,6.33-16.127,11.36c-1.748,1.219-4.079,2.808-6.991,4.767
				c-3.602,2.331-5.958,3.867-7.07,4.608l-1.271,1.43c-1.537,0.371-2.357,0.556-2.462,0.556c-0.266,0.159-0.61,0.371-1.033,0.636
				c-0.477,0.318-0.822,0.53-1.033,0.635c-0.953,0.53-2.595,1.378-4.925,2.542c-2.065,1.112-3.682,1.986-4.846,2.622
				c-2.331,1.219-3.098,3.257-2.304,6.117c0.847-0.636,1.271-0.979,1.271-1.033c5.031-4.237,7.679-6.461,7.944-6.673
				c0.318-0.265,2.781-2.092,7.388-5.481C458.83,396.168,459.996,395.559,459.996,395.559z M445.14,417.564
				c0.37-0.265,2.992-1.986,7.865-5.164c1.958-1.271,3.707-2.409,5.243-3.416c0.9-0.582,1.085-1.271,0.556-2.065
				c-0.583,0.053-0.874,0.106-0.874,0.159c-3.178,1.748-5.058,2.808-5.641,3.178c-1.166,0.848-2.939,2.172-5.323,3.972
				c-2.331,1.748-4.105,3.046-5.323,3.893c-1.695,1.219-2.224,2.755-1.589,4.608C443.233,419.498,444.928,417.776,445.14,417.564z
				 M444.901,400.086c1.376-0.846,3.389-2.065,6.038-3.654c2.648-1.641,4.634-2.86,5.958-3.654
				c11.969-7.202,24.336-15.756,37.1-25.66c1.589-1.218,3.627-2.912,6.117-5.084c1.059-0.953,1.456-1.774,1.191-2.463
				c-1.748,0.583-3.443,1.51-5.084,2.781c-0.53,0.424-2.172,1.722-4.926,3.893c-2.013,1.589-3.654,2.86-4.925,3.813
				c-2.225,1.642-6.701,4.794-13.426,9.454c-3.92,2.754-7.309,5.084-10.168,6.991c-3.761,2.542-6.515,4.317-8.262,5.323
				c-0.318,0.159-4.687,2.569-13.108,7.229c-1.219,0.689-1.642,1.907-1.271,3.655C443.154,401.067,444.743,400.193,444.901,400.086z
				 M443.63,394.843c-1.537,0.266-2.516,0.583-2.939,0.954c-0.424,0.371-0.609,1.086-0.556,2.145
				C441.353,396.883,442.518,395.85,443.63,394.843z M496.937,358.141c0.847-0.583,1.005-1.112,0.477-1.589
				c-0.053-0.052-0.609-0.318-1.668-0.794c-1.112-1.43-2.039-2.197-2.78-2.304c-0.742-0.105-1.722,0.425-2.939,1.589
				c-2.914,2.649-8.713,7.204-17.398,13.665c-1.007,0.742-6.304,4.396-15.889,10.963c-0.477,0.372-1.166,0.848-2.066,1.43
				c-1.006,0.689-1.695,1.166-2.065,1.43c-4.925,3.336-8.713,5.906-11.36,7.706c-1.007,0.689-1.298,1.642-0.874,2.86
				c0.847-0.318,1.297-0.503,1.351-0.556c1.694-1.112,4.687-3.125,8.977-6.038c16.524-11.281,25.819-17.637,27.885-19.066
				c1.8-1.271,4.21-2.992,7.229-5.164c3.547-2.594,5.958-4.342,7.229-5.243c0.052-0.052,0.979-0.477,2.78-1.271
				C496.089,356.234,496.46,357.028,496.937,358.141z M442.518,386.264c0.582-0.423,1.509-1.112,2.781-2.066
				c1.218-0.9,2.171-1.562,2.86-1.986c1.005-0.741,2.727-1.933,5.164-3.575c2.225-1.535,3.945-2.727,5.164-3.575
				c9.957-6.991,16.63-11.73,20.02-14.221c0.954-0.688,3.813-3.019,8.58-6.991c0.052-0.052,0.608-0.636,1.668-1.748
				c-0.794-0.582-1.722-0.449-2.781,0.397c-8.262,6.409-11.944,9.269-11.042,8.58c-2.278,1.695-7.098,5.164-14.459,10.407
				c-1.748,1.166-4.714,3.231-8.897,6.197c-3.813,2.649-6.78,4.714-8.897,6.197c-1.537,1.112-2.357,2.304-2.463,3.575
				C441.696,386.714,442.465,386.317,442.518,386.264z M443.63,380.067c0.423-0.265,1.244-0.9,2.463-1.907
				c1.005-0.847,1.827-1.482,2.462-1.907c3.972-2.86,8.024-5.746,12.155-8.659c0.741-0.529,2.118-1.456,4.131-2.78
				c1.748-1.165,3.098-2.092,4.052-2.781c2.118-1.589,5.958-4.501,11.519-8.739c0.105-0.052,1.059-0.874,2.86-2.463
				c-1.537-0.9-2.993-0.847-4.369,0.159c-4.29,3.125-8.104,5.932-11.44,8.421c-2.542,1.907-6.752,5.058-12.631,9.454
				c-5.402,4.079-9.613,7.229-12.632,9.454c-1.112,0.794-1.509,1.986-1.191,3.575C442.703,380.782,443.577,380.174,443.63,380.067z
				 M442.359,375.062c14.246-10.963,21.768-16.763,22.562-17.398c1.005-0.794,2.409-1.8,4.21-3.019
				c2.171-1.482,3.575-2.463,4.21-2.939c1.43-1.005,2.224-1.827,2.383-2.463c-0.742-0.477-1.589-0.397-2.542,0.238
				c-2.437,1.801-5.243,3.813-8.421,6.038c-1.642,1.219-4.953,3.575-9.93,7.07c-4.131,2.913-7.442,5.243-9.931,6.991
				c-1.007,0.742-1.934,1.509-2.78,2.304c-1.112,1.007-1.325,2.224-0.636,3.654C442.067,375.274,442.359,375.115,442.359,375.062z
				 M443.074,367.912c10.274-7.468,18.642-13.558,25.104-18.272c0.052-0.052,0.583-0.608,1.589-1.668
				c-2.595-0.264-4.025-0.397-4.29-0.397c-0.848-0.052-1.43,0.106-1.748,0.477c-1.007,1.219-2.516,2.49-4.528,3.813
				c-2.808,1.907-4.423,3.019-4.846,3.337c-1.43,1.166-3.311,2.649-5.641,4.449c-3.125,2.383-5.032,3.867-5.72,4.449
				c-1.537,1.166-1.934,2.649-1.191,4.449C442.598,368.125,443.021,367.912,443.074,367.912z M443.392,360.047
				c5.72-4.713,10.91-8.526,15.571-11.439c0-0.052,0.291-0.477,0.874-1.271c-1.112-0.794-2.357-0.715-3.734,0.239
				c-5.35,3.813-7.626,5.455-6.832,4.925c-2.332,1.642-4.264,3.098-5.799,4.369c-1.112,0.848-1.43,2.014-0.954,3.496
				C443.047,360.154,443.339,360.047,443.392,360.047z M451.893,346.542c-0.107-0.159-0.187-0.264-0.238-0.317
				c-2.914,1.906-4.476,2.966-4.688,3.178c-2.331,1.642-3.628,2.887-3.893,3.734c1.323-0.636,2.886-1.615,4.687-2.939
				c2.436-1.854,3.893-2.939,4.37-3.257C452.078,346.887,451.998,346.754,451.893,346.542z M443.71,422.808
				c4.449,0.318,7.15,0.477,8.103,0.477c0.211,0.053,0.636-0.238,1.271-0.874c0.318-0.318,0.767-0.767,1.351-1.351
				c0.582-0.635,1.005-1.085,1.271-1.351c2.118-2.118,3.045-3.019,2.781-2.701c0.953-1.112,0.926-2.41-0.08-3.893
				c-9.057,5.35-13.982,8.369-14.776,9.057C443.683,422.438,443.71,422.648,443.71,422.808z M452.369,388.885
				c-3.654,2.331-5.641,3.575-5.958,3.734c0.477,0.212,0.9,0.212,1.271,0c0.477-0.318,2.145-1.403,5.005-3.257
				C452.633,389.256,452.528,389.097,452.369,388.885z M458.168,424.158c0.847-0.423,1.005-1.271,0.477-2.542
				c0.688-0.318-0.715,0.371-4.21,2.065C455.811,424.529,457.056,424.688,458.168,424.158z M476.282,373.632
				c11.492-8.103,17.636-12.842,18.431-14.22c-4.607,3.231-11.149,7.839-19.623,13.823c-9.057,6.355-15.598,10.937-19.623,13.744
				C457.744,386.291,464.683,381.842,476.282,373.632z M499.797,373.95c-2.596,2.119-4.396,3.549-5.402,4.29
				c-1.377,0.953-3.311,2.331-5.799,4.131c-2.595,1.96-4.502,3.364-5.72,4.21c-0.477,0.372-4.264,2.914-11.36,7.627
				c0.635,0.212,1.43,0.266,2.383,0.159c3.601-0.318,6.09-1.351,7.468-3.098c0.159-0.105,0.662-0.503,1.509-1.192
				c10.856-8.368,16.842-12.975,17.954-13.823c0.954-0.741,2.356-2.038,4.21-3.893c0.847-0.847,0.954-1.694,0.318-2.542
				C503.875,370.667,502.021,372.043,499.797,373.95z M504.961,376.413c-6.197,4.767-13.267,10.168-21.211,16.207h1.191
				c2.753-0.211,6.143-1.403,10.169-3.575c2.436-1.323,4.449-2.647,6.038-3.972c2.383-2.012,3.813-4.819,4.29-8.421
				C504.961,376.44,504.802,376.36,504.961,376.413z"/>
			<path d="M539.757,424.635c-7.362-1.112-10.937-1.641-10.725-1.589c-7.416-1.536-12.949-5.323-16.604-11.36
				c-3.231-5.349-5.057-11.043-5.481-17.081c0-0.105-0.026-2.515-0.08-7.229c0-3.283,1.271-7.996,3.813-14.141
				c0.477-1.059,0.715-1.641,0.715-1.748c1.43-4.713,5.084-9.744,10.963-15.094c4.078-3.707,9.029-6.223,14.856-7.547
				c0.317-0.105,1.35-0.662,3.098-1.668c0.159-0.105,0.397-0.264,0.715-0.477c0.265-0.265,0.477-0.449,0.636-0.556
				c1.059-0.582,1.8-0.318,2.224,0.794c0,0.053,0.08,0.556,0.238,1.509h3.257c1.112,0.054,1.774,0.159,1.986,0.318
				c1.059,1.06,2.833,1.722,5.323,1.986c0.741,0.106,1.191,0.212,1.351,0.317c1.8,1.483,3.362,2.383,4.687,2.701
				c0.582,0.159,0.926,0.504,1.033,1.033c0.105,0.477-0.053,0.981-0.477,1.51c-0.107,0.053-0.769,0.635-1.986,1.748
				c0.847,0.953,1.482,1.668,1.907,2.145c0.953-0.847,1.456-1.323,1.509-1.43c0.583-0.529,1.165-0.582,1.748-0.159
				c0.741,0.53,0.9,1.166,0.477,1.907c-0.053,0.106-0.451,0.609-1.192,1.509c0.423,1.007,0.821,1.616,1.192,1.827
				c0.318,0.159,0.874,0,1.668-0.477c1.271-0.688,2.118-0.794,2.542-0.318c0.741,0.901,0.582,1.827-0.477,2.781
				c-0.053,0-0.318,0.397-0.794,1.191c0.953,0,1.456,0,1.509,0c0.847-0.477,1.482-0.344,1.907,0.397
				c0.105,0.212,0.131,0.794,0.08,1.748c0-0.318-0.133-0.105-0.397,0.636c-0.424,1.324,0.105,2.119,1.589,2.383
				c0.954,0.159,1.536,0.424,1.748,0.794c0.211,0.317,0.131,0.953-0.238,1.906c-0.372,0.848-0.53,1.589-0.477,2.225
				c0,1.325,0.08,3.39,0.238,6.197c0.106,2.649,0.185,4.687,0.239,6.117c0.052,1.166,0.079,2.887,0.079,5.164
				c-0.053,2.331-0.053,4.079,0,5.243c0.052,2.542-0.451,5.191-1.509,7.944c-1.748,4.608-4.767,8.818-9.057,12.632
				c-1.43,1.219-5.376,2.701-11.837,4.449c-0.477,0.159-1.748,0.345-3.813,0.556c-1.642,0.159-3.152,0.769-4.528,1.827
				C543.199,425.826,541.981,424.953,539.757,424.635z M548.178,352.738c-0.371-0.052-0.953,0.292-1.748,1.033
				c-6.197,5.243-9.771,8.262-10.725,9.057c-0.848,0.689-2.065,1.642-3.654,2.86c-1.748,1.325-2.993,2.304-3.734,2.939
				c-10.911,8.846-16.286,13.188-16.127,13.029c-1.43,1.112-2.172,2.437-2.225,3.972c-0.106,1.696-0.133,4.105-0.079,7.229
				c0,0.053,0.159,0.53,0.477,1.43c0.688-0.529,1.059-0.82,1.112-0.874c5.349-4.872,8.129-7.388,8.341-7.547
				c3.601-3.019,9.295-7.626,17.081-13.823c1.907-1.535,4.501-3.601,7.785-6.196c3.76-2.966,6.355-5.005,7.786-6.117
				c0.688-0.529,1.297-1.165,1.827-1.907c0.318-0.318,0.344-0.662,0.08-1.033c-0.318-0.37-0.663-0.477-1.033-0.318
				c-0.477,0.107-1.033,0.424-1.668,0.953c-0.583,0.425-2.304,1.668-5.164,3.734c-2.065,1.589-3.787,2.86-5.164,3.813
				c-6.568,4.661-11.864,8.687-15.889,12.075c-2.437,2.066-6.832,5.748-13.188,11.043c0,0.053-0.451,0.397-1.351,1.033
				c-0.425-1.059-0.187-2.065,0.715-3.019c2.965-3.071,5.323-5.481,7.07-7.229c0.529-0.528,1.456-1.323,2.781-2.383
				c0.423-0.264,1.218-0.846,2.383-1.748c1.005-0.794,1.8-1.43,2.383-1.907c0.477-0.37,1.589-1.297,3.336-2.78
				c1.323-1.165,2.436-2.092,3.337-2.781c2.065-1.535,4.713-3.496,7.944-5.879c4.607-3.389,7.255-5.349,7.944-5.878
				c0.052-0.052,0.608-0.583,1.668-1.589C549.263,353.136,548.496,352.738,548.178,352.738z M512.428,397.862
				c0,0,0.052-0.026,0.159-0.08c10.592-8.155,16.604-12.763,18.034-13.823c9.375-7.202,18.483-14.246,27.329-21.132
				c0.052,0,0.45-0.477,1.192-1.43c-1.43-1.323-2.014-1.879-1.748-1.668l-1.509,1.191c-11.017,8.792-16.127,12.87-15.333,12.234
				c0.953-0.794-5.906,4.635-20.576,16.286c-5.615,4.449-8.369,6.647-8.262,6.594c-1.219,0.953-1.51,1.96-0.874,3.019
				C511.898,398.259,512.428,397.862,512.428,397.862z M566.371,369.104c0,0-0.027-0.079-0.08-0.238l-1.351,0.238
				c-0.053,0.054-0.822,0.663-2.304,1.827c-9.428,7.575-14.618,11.758-15.571,12.552c-1.854,1.43-6.383,4.767-13.584,10.01
				c-6.462,4.661-12.208,8.792-17.239,12.394c-0.054,0.053-0.61,0.159-1.668,0.317c-0.107-1.164-0.133-1.773-0.08-1.827
				c0.636-1.005,1.377-1.827,2.225-2.462c1.218-0.954,2.833-2.145,4.846-3.575c2.594-1.907,4.21-3.098,4.846-3.575
				c14.459-10.856,23.78-17.875,27.964-21.053c0.635-0.477,3.23-2.648,7.785-6.514c0.847-0.741,1.112-1.403,0.794-1.986
				c-0.583-1.165-1.483-1.244-2.701-0.238c-7.309,5.827-12.155,9.666-14.539,11.519c-1.748,1.378-4.131,3.152-7.15,5.323
				c-3.549,2.649-5.958,4.423-7.229,5.323c-2.278,1.748-5.271,4.026-8.977,6.833c-4.608,3.549-7.627,5.853-9.057,6.911
				c-0.954,0.743-1.51,1.299-1.668,1.668c-0.107,0.425,0.026,1.192,0.397,2.304c0.635,1.696,1.112,2.914,1.43,3.655
				c0.052,0.053,0.556,0.848,1.509,2.383c4.024-3.337,6.144-5.084,6.355-5.244c10.91-8.367,18.272-13.955,22.085-16.762
				c6.461-4.767,13.426-10.487,20.894-17.16c0.105-0.052,0.874-0.82,2.304-2.304C566.45,369.21,566.371,369.104,566.371,369.104z
				 M538.883,352.5c-0.53,0.477-1.271,1.086-2.224,1.827c-1.219,0.953-1.96,1.563-2.225,1.827
				c-10.699,8.687-16.631,13.479-17.795,14.379c-0.318,0.212-1.854,2.808-4.607,7.786c2.753-2.436,7.996-6.805,15.729-13.108
				c6.726-5.454,11.943-9.903,15.65-13.347C541.346,351.495,539.836,351.706,538.883,352.5z M566.529,373.711
				c0,0-0.027,0.027-0.08,0.08c-5.296,4.661-7.892,6.939-7.785,6.832c-8.633,6.885-16.366,12.923-23.198,18.113
				c-2.808,2.119-8.341,6.144-16.604,12.075c-1.43,1.007-2.145,1.801-2.145,2.383c0,0.53,0.715,1.351,2.145,2.463h0.079
				c3.284-3.019,5.005-4.581,5.164-4.688c2.647-2.012,7.44-5.692,14.379-11.042c6.038-4.66,10.804-8.341,14.3-11.042
				c2.86-2.225,8.024-6.461,15.491-12.711c0.9-0.741,1.351-1.323,1.351-1.748c0-0.423-0.397-1.164-1.191-2.224
				C567.165,373.208,566.529,373.711,566.529,373.711z M518.228,365.131c3.919-2.807,8.765-6.858,14.538-12.155
				C527.469,355.254,522.623,359.306,518.228,365.131z M523.55,417.803c0.159-0.159,0.397-0.344,0.715-0.556
				c0.37-0.318,0.636-0.529,0.794-0.636c12.711-9.057,19.569-13.955,20.576-14.697c3.813-2.86,8.686-6.805,14.618-11.837
				c1.218-1.005,4.554-4.051,10.01-9.136c1.005-0.954,1.164-1.933,0.477-2.939c-4.979,4.449-21.529,17.398-49.652,38.848
				C521.829,418.068,522.649,418.386,523.55,417.803z M562.319,392.222c-2.437,2.065-5.35,4.449-8.739,7.15
				c-3.603,2.967-6.621,5.35-9.057,7.15c-3.443,2.649-6.462,4.899-9.057,6.753c-0.424,0.318-3.549,2.437-9.375,6.355
				c1.006,0.583,1.641,0.874,1.907,0.874c0.318,0,0.821-0.264,1.51-0.794c1.748-1.323,2.912-2.197,3.495-2.622
				c10.592-6.991,22.721-15.994,36.385-27.011c0.529-0.423,1.033-0.926,1.51-1.509c0.9-1.112,0.9-2.383,0-3.813
				C565.549,389.362,562.688,391.852,562.319,392.222z M541.902,417.961c0,0,0.052-0.052,0.159-0.159
				c5.667-4.342,11.996-9.029,18.987-14.062c1.059-0.794,2.489-1.774,4.29-2.939c2.225-1.377,3.681-2.304,4.37-2.781
				c1.748-1.164,2.25-2.78,1.509-4.846l-0.715,0.079c-15.307,11.97-27.779,21.106-37.418,27.408
				c-0.053,0.053-0.212,0.292-0.477,0.715c0.636,0.266,2.542,0.556,5.72,0.874C540.71,419.392,541.902,417.961,541.902,417.961z
				 M545.794,422.013c4.131-3.654,10.751-8.632,19.861-14.936c1.165-0.794,2.674-1.879,4.528-3.257
				c1.165-0.846,1.536-1.986,1.112-3.416c-1.325,0.743-2.04,1.14-2.145,1.192c-0.212,0.159-0.504,0.371-0.874,0.635
				c-0.371,0.318-0.663,0.556-0.874,0.715l-13.505,9.057c-1.325,0.901-4.344,3.178-9.057,6.832
				c-0.159,0.106-1.458,1.191-3.893,3.257C542.855,423.205,544.47,423.179,545.794,422.013z M569.23,408.508
				c-0.159-0.105-0.266-0.211-0.318-0.318c-2.331,1.696-3.602,2.596-3.813,2.701c-0.371,0.266-1.086,0.715-2.145,1.351
				c-0.901,0.583-1.589,1.06-2.065,1.43c-0.53,0.318-1.166,0.794-1.907,1.43c-0.901,0.742-1.537,1.245-1.906,1.509
				c-0.371,0.266-1.06,0.769-2.066,1.509c-0.848,0.583-1.537,1.086-2.065,1.51c-2.224,1.801-3.39,2.808-3.496,3.019
				c1.323,0.212,2.41-0.105,3.257-0.953c0.477-0.529,0.979-0.926,1.509-1.192c4.449-2.383,7.309-3.865,8.58-4.449
				c1.907-0.9,4.131-3.309,6.673-7.229C569.416,408.773,569.336,408.667,569.23,408.508z M556.36,354.725l-0.079,0.238
				c0.264,0.106,0.741,0.238,1.43,0.397c-0.371-0.423-0.583-0.635-0.635-0.635c0-0.052-0.212-0.132-0.636-0.239L556.36,354.725z"/>
			<path d="M597.433,375.539c0.211-1.376,0.767-3.257,1.668-5.641c1.005-2.542,1.641-4.396,1.907-5.561
				c0.423-2.224,1.403-6.038,2.939-11.44c-0.107,0.318,0.608-1.748,2.145-6.196c0.582-1.748,1.774-2.648,3.575-2.701
				c2.489-0.105,4.37-0.847,5.641-2.225c0.954-0.953,1.827-1.059,2.622-0.317c1.005,1.006,2.781,0.98,5.323-0.08
				c1.112-0.477,1.827-0.582,2.145-0.318c0.794,0.689,0.979,1.509,0.556,2.463c-0.424,0.953-0.371,2.278,0.159,3.972
				c0.583,1.748,1.297,4.052,2.145,6.912c1.218,3.813,1.933,6.117,2.145,6.912c0,0.053,0.344,0.848,1.033,2.383
				c2.595-1.694,3.945-3.442,4.052-5.244c0.318-4.183,0.608-9.162,0.874-14.935c0.052-1.482,0.953-2.304,2.701-2.463
				c5.084-0.318,8.208-0.529,9.374-0.636c-0.901,0.107,3.178-0.317,12.234-1.271c0.741-0.105,1.376-0.131,1.907-0.079
				c1.853,0.159,2.86,0.317,3.019,0.477c0.529,0.477,1.165,1.562,1.907,3.257c0.265,0.636,0.265,1.245,0,1.828
				c-0.53,1.166-0.609,2.913-0.238,5.243c0.265,1.537,0.397,2.649,0.397,3.336c0.052,1.007,0.37,1.801,0.953,2.383
				c0.9,0.901,0.953,2.014,0.159,3.337c-0.53,0.953-0.822,1.775-0.874,2.462c-0.425,5.138-0.212,9.11,0.635,11.917
				c0.105,0.477,0.105,1.033,0,1.668c-1.166,5.668-1.509,10.46-1.033,14.379c0.105,0.53,0.105,1.007,0,1.43
				c-1.112,5.614-1.562,13.056-1.351,22.323c0.052,2.437-0.106,4.476-0.477,6.117c-0.212,1.112-0.345,2.729-0.397,4.846
				c-0.054,1.219-0.266,2.013-0.636,2.383c-0.371,0.37-1.166,0.582-2.383,0.636c-0.636,0-3.125-0.027-7.468-0.08
				c-1.112-0.053-1.509-0.107-1.191-0.159c-1.483,0.264-3.364,0.317-5.641,0.159c-3.072-0.212-4.953-0.318-5.641-0.318
				c-0.477,0-1.191,0.105-2.145,0.318c-0.953,0.159-1.668,0.238-2.145,0.238c-0.424-0.053-1.06-0.212-1.906-0.477
				c-0.848-0.318-1.483-0.477-1.907-0.477c-2.172-0.159-4.661-0.159-7.468,0c-2.225,0.106-3.813-0.847-4.767-2.86
				c-2.701-5.507-5.164-11.519-7.388-18.034c-0.053-0.052-0.266-0.556-0.636-1.509c-0.635,0.318-1.219,1.351-1.748,3.098
				c-0.636,1.748-1.404,4.026-2.304,6.833c-1.271,3.92-2.014,6.224-2.225,6.912c-0.107,0.317-0.345,0.901-0.715,1.748
				c-0.689,1.589-1.271,2.542-1.748,2.86s-1.589,0.425-3.336,0.318c-2.225-0.105-5.668-0.344-10.328-0.715
				c-4.556-0.37-7.998-0.608-10.328-0.715c-0.425-0.052-2.437,0-6.038,0.159c-1.589,0.106-2.224,0.159-1.906,0.159
				c-1.483-0.105-2.225-0.874-2.225-2.304c0-1.218-0.159-3.786-0.477-7.706c0-0.105-0.159-0.926-0.477-2.463
				c0.582,0.107-0.187,0.027-2.304-0.238c-0.477-0.688-0.292-1.403,0.556-2.145c1.112-1.059,1.589-2.622,1.43-4.687
				c-1.271-13.452-2.172-23.462-2.701-30.03c-0.053-0.847-0.477-6.699-1.271-17.557c-0.107-1.8-0.371-2.965-0.794-3.495
				c-0.741-0.794-0.582-1.536,0.477-2.225c0.529-0.318,1.218-0.503,2.065-0.556c1.482-0.159,3.468-0.318,5.958-0.477
				c3.019-0.211,5.031-0.37,6.038-0.477c1.641-0.105,2.912-0.688,3.813-1.748c0.846-0.9,1.456-1.351,1.827-1.351
				c0.318,0.054,0.874,0.53,1.668,1.43c0.529,0.583,1.244,0.794,2.145,0.636c0.265-0.052,1.694-0.397,4.29-1.033
				c-0.424,1.907-0.635,2.914-0.635,3.019c-0.689,1.907-0.425,3.231,0.794,3.972c0.9,0.53,1.059,1.404,0.477,2.622
				c-0.53,1.112-0.609,2.49-0.238,4.131c1.112,4.873,1.694,8.315,1.748,10.328c0,1.324,0.477,2.622,1.43,3.893L597.433,375.539z
				 M575.586,353.851c-0.477,0.583-1.112,1.271-1.907,2.065c-0.424,0.371-1.033,0.901-1.827,1.589
				c-0.794,0.689-1.378,1.219-1.748,1.589c-0.954,0.901-1.112,1.881-0.477,2.939c1.112-1.112,2.542-2.568,4.29-4.37
				c2.33-2.33,3.76-3.76,4.29-4.29C577.147,352.897,576.273,353.056,575.586,353.851z M586.231,352.262
				c-1.06-0.159-2.304,0.477-3.734,1.907c-6.832,6.621-10.725,10.407-11.678,11.36c-1.06,1.06-1.351,2.093-0.874,3.098
				c2.065-1.907,4.926-4.581,8.58-8.024c4.078-3.76,6.964-6.461,8.659-8.103C586.601,352.341,586.284,352.262,586.231,352.262z
				 M587.582,357.028c-3.443,2.754-5.748,4.635-6.912,5.641c-3.496,3.019-6.647,5.773-9.454,8.262
				c-1.324,1.219-1.43,2.649-0.317,4.29c3.124-3.23,4.767-4.952,4.925-5.164c2.489-2.171,6.435-5.587,11.837-10.249
				c1.218-1.005,1.589-2.118,1.112-3.336C587.979,356.843,587.582,357.028,587.582,357.028z M590.998,368.15
				c0,0-0.08-0.159-0.238-0.477c-0.848,0.371-1.298,0.583-1.351,0.635c-0.53,0.371-1.271,0.981-2.225,1.827
				c-1.007,0.848-1.748,1.458-2.224,1.828c-1.43,1.166-3.603,2.86-6.515,5.084c-2.913,2.332-5.084,4.052-6.514,5.164
				c-1.06,0.848-1.245,1.827-0.556,2.939l0.715-0.397c4.608-4.078,6.884-6.09,6.832-6.038c1.323-1.112,3.125-2.594,5.402-4.449
				c2.701-2.171,4.528-3.627,5.481-4.37l1.271-1.509C591.024,368.23,590.998,368.15,590.998,368.15z M589.647,363.146
				c0,0-0.027-0.026-0.08-0.08l-0.079-0.08c-0.848,0.53-1.299,0.794-1.351,0.794c-3.231,2.49-5.244,4.079-6.038,4.767
				c-1.219,1.007-4.396,3.708-9.533,8.104c-0.953,0.848-1.483,1.748-1.589,2.701c9.003-7.627,15.067-12.763,18.193-15.412
				c0.052,0,0.211-0.238,0.477-0.715C589.647,363.173,589.647,363.146,589.647,363.146z M586.867,376.413
				c-8.739,6.568-13.374,10.063-13.902,10.486c-1.642,1.219-1.96,2.993-0.954,5.323c3.337-3.125,5.084-4.767,5.244-4.925
				c1.164-1.005,3.229-2.86,6.196-5.561c2.648-2.33,4.713-4.157,6.197-5.482c1.059-1.005,1.589-2.065,1.589-3.178
				C588.482,375.195,587.026,376.307,586.867,376.413z M573.917,397.227c0,0,0.026,0,0.08,0c6.408-5.507,11.466-9.851,15.174-13.029
				c1.164-0.953,2.304-1.986,3.416-3.098c0.953-0.9,0.979-1.879,0.08-2.939l-1.351,1.112c-5.35,4.608-8.818,7.601-10.407,8.977
				c-3.708,3.231-6.383,5.535-8.024,6.912c-1.112,1.007-1.271,2.093-0.477,3.257C573.414,397.624,573.917,397.227,573.917,397.227z
				 M580.909,399.689c13.188-11.015,21.714-18.219,25.581-21.609c0.847-0.794,6.884-6.566,18.113-17.318
				c0.741-0.688,0.874-1.456,0.397-2.304c-0.848,0.636-1.299,0.981-1.351,1.033c-0.425,0.371-1.271,1.112-2.542,2.224
				c-1.006,0.954-1.827,1.722-2.462,2.304c-9.587,8.315-15.333,13.215-17.239,14.697c-0.794,0.636-1.616,1.775-2.463,3.416
				c-0.794,1.589-1.642,2.331-2.542,2.225c-1.219-0.105-2.78,0.583-4.687,2.065c-2.331,1.801-8.369,6.514-18.113,14.141
				c-1.483,1.166-1.589,2.808-0.317,4.925C578.101,401.834,580.643,399.902,580.909,399.689z M575.904,411.05
				c7.837-6.991,11.996-10.671,12.473-11.042c1.323-1.165,3.071-2.622,5.243-4.37c2.965-2.436,4.739-3.893,5.323-4.369
				c0.953-0.794,2.489-2.092,4.607-3.893c2.012-1.641,3.575-2.912,4.688-3.813c1.748-1.482,4.846-4.024,9.295-7.626
				c3.972-3.23,7.096-5.8,9.374-7.706c0.847-0.688,1.271-1.271,1.271-1.748c-0.054-0.529-0.504-1.323-1.351-2.383
				c-1.43,1.219-2.199,1.854-2.304,1.907c-9.64,9.11-14.565,13.744-14.776,13.903c-5.243,4.714-10.699,9.348-16.365,13.902
				c-3.813,3.072-9.931,7.759-18.352,14.062c-1.06,0.848-1.642,1.483-1.748,1.907c-0.107,0.477,0.185,1.43,0.874,2.86
				C575.268,411.686,575.85,411.157,575.904,411.05z M581.544,412.083c0,0,0.132-0.105,0.397-0.318
				c2.701-2.171,6.302-5.031,10.804-8.58c5.455-4.342,9.029-7.202,10.725-8.58c8.632-6.884,15.915-12.737,21.847-17.557
				c0.9-0.741,2.277-2.065,4.131-3.972c0.052-0.052,0.264-0.582,0.635-1.589c-0.794-0.052-1.377,0.08-1.748,0.397
				c-1.483,1.219-3.682,3.046-6.594,5.481c-2.967,2.437-5.164,4.264-6.594,5.481c-4.502,3.655-8.58,6.939-12.234,9.851
				c-1.696,1.378-4.582,3.682-8.659,6.912c-3.708,2.967-6.594,5.271-8.66,6.912c-0.583,0.477-1.324,1.14-2.224,1.986
				c-1.166,1.06-1.934,1.748-2.304,2.065l-5.879,4.925c-0.953,0.848-1.219,1.827-0.794,2.939
				C579.161,414.202,581.544,412.083,581.544,412.083z M616.261,389.441c-1.219,0.848-1.854,1.298-1.907,1.351
				c-6.462,5.191-9.587,7.733-9.375,7.626c-2.86,2.172-7.018,5.323-12.473,9.454c-5.668,4.343-9.799,7.521-12.393,9.533
				c-2.014,1.537-3.311,2.729-3.893,3.575c2.435,0.689,4.395,0.238,5.878-1.351c0.954-1.059,2.145-2.171,3.575-3.337
				c2.118-1.748,6.514-5.349,13.188-10.804c8.314-6.726,12.816-10.38,13.505-10.963c0.159-0.159,1.562-1.748,4.21-4.767
				L616.261,389.441z M584.643,421.139c1.8,0.901,3.15,0.848,4.052-0.159c0.211-0.265,3.124-2.542,8.739-6.833
				c3.495-2.647,6.752-5.216,9.771-7.706c1.323-1.059,2.118-2.515,2.383-4.37C603.709,406.521,595.394,412.877,584.643,421.139z
				 M606.489,412.162c-3.284,2.596-4.953,3.946-5.005,4.052c-0.953-0.052-2.04,0.53-3.257,1.748
				c-3.019,1.219-5.112,2.622-6.276,4.21c5.349,0.318,8.235,0.477,8.66,0.477c2.383,0.107,3.442-1.164,3.178-3.813
				c-0.636-0.052-1.643,0.186-3.019,0.715c-1.378,0.53-2.49,0.742-3.336,0.636c0.317-1.059,0.556-1.827,0.715-2.304
				c0.37-0.211,0.926-0.502,1.668-0.874c0.741-0.37,1.297-0.636,1.668-0.794C604.027,414.891,605.695,413.54,606.489,412.162z
				 M605.854,371.09c6.249-5.772,9.665-8.924,10.248-9.454c1.271-1.217,3.496-3.442,6.673-6.673c0.741-0.741,0.9-1.43,0.477-2.066
				c-0.953,0.583-1.457,0.901-1.509,0.954c-1.43,1.166-4.21,3.523-8.342,7.07c-3.495,2.967-6.303,5.323-8.421,7.071
				c-1.907,1.589-2.808,3.682-2.701,6.276C604.344,372.414,605.536,371.355,605.854,371.09z M616.817,353.056
				c-2.172,1.642-5.853,4.74-11.042,9.295c-0.053,0.053-0.292,0.504-0.715,1.351c0.105,0.053,0.238,0.159,0.397,0.318
				c3.019-2.753,6.912-6.276,11.678-10.566C617.028,353.348,616.923,353.215,616.817,353.056z M619.042,346.065
				c-1.483-0.423-2.887-0.079-4.21,1.033c-2.808,2.278-4.025,3.285-3.654,3.019c0.211-0.105-1.14,1.827-4.052,5.799l0.08,0.953
				C609.747,354.54,613.691,350.938,619.042,346.065z M623.888,387.455c-0.53,0.318-0.794,0.769-0.794,1.351
				c0,1.06-0.689,2.172-2.065,3.336c-0.266,0.266-0.822,0.743-1.668,1.43c-0.689,0.583-1.245,1.033-1.668,1.351
				c-0.053,0.107-0.556,0.663-1.509,1.668c0.159,0.106,0.291,0.238,0.397,0.397c0.688-0.477,1.059-0.715,1.112-0.715
				c1.112-0.794,2.833-2.092,5.164-3.893c2.276-1.748,3.998-3.071,5.164-3.972c0.477-0.318,1.165-0.821,2.065-1.51
				c0.954-0.635,1.641-1.112,2.066-1.43c1.164-0.9,1.376-2.092,0.635-3.575C627.86,384.966,624.893,386.82,623.888,387.455z
				 M635.089,387.932c-1.271,0.583-1.934,0.901-1.986,0.954c-3.178,2.224-7.203,5.111-12.075,8.659
				c-1.589,1.166-2.729,2.04-3.417,2.622c-1.006,0.901-1.112,1.748-0.317,2.542c0.529,0.583,1.271,0.477,2.224-0.318
				c1.854-1.589,4.396-3.786,7.626-6.594c3.655-3.125,6.223-5.323,7.706-6.594l0.556-0.636
				C635.195,388.144,635.089,387.932,635.089,387.932z M621.107,349.799c-0.053-0.052-0.079-0.105-0.079-0.159
				c0.052-0.052-0.663,0.583-2.145,1.907c0.052,0.106,0.105,0.186,0.159,0.238c0.477-0.423,1.192-1.059,2.145-1.907
				C621.133,349.878,621.107,349.852,621.107,349.799z M661.782,372.758c-0.371,0.317-1.192,0.98-2.463,1.986
				c-1.007,0.794-1.827,1.43-2.463,1.907c-7.044,5.084-14.22,10.673-21.529,16.763c-1.854,1.537-6.806,5.481-14.856,11.837
				c-1.589,1.271-1.589,2.86,0,4.767c0.9-0.741,1.376-1.138,1.43-1.191l6.832-6.435c0.423-0.318,2.384-1.854,5.879-4.608
				c10.01-7.837,15.915-12.445,17.716-13.823c1.164-0.9,2.912-2.224,5.243-3.972c2.436-1.8,4.21-3.15,5.323-4.051
				c1.376-1.006,1.748-2.542,1.112-4.608C662.629,372.229,661.888,372.706,661.782,372.758z M621.266,385.469
				c0.105,0.106,0.185,0.159,0.238,0.159c5.031-3.442,8.076-5.508,9.136-6.197c0.529-0.37,0.926-0.767,1.192-1.191
				c0.423-0.741,0.211-1.271-0.636-1.589c-2.383,2.013-5.773,4.874-10.168,8.58C621.08,385.284,621.159,385.364,621.266,385.469z
				 M663.609,380.861c-0.107-0.105-0.186-0.185-0.238-0.238c-0.901,0.53-1.378,0.822-1.43,0.874
				c-11.493,8.527-18.007,13.4-19.543,14.617c-0.583,0.477-7.07,5.72-19.464,15.73c-1.271,1.007-1.616,2.198-1.033,3.575
				c0.583,1.43,1.297,2.887,2.145,4.369c0.052,0.159,0.741,1.245,2.065,3.257c1.112-2.171,1.721-3.31,1.828-3.416
				c1.641-1.854,3.416-3.601,5.322-5.243c4.29-3.707,8.314-7.043,12.076-10.01c1.323-1.112,3.098-2.515,5.323-4.21
				c2.753-2.065,4.528-3.416,5.323-4.052c1.8-1.376,3.865-3.071,6.196-5.084c1.165-0.954,1.403-1.907,0.715-2.86
				c-0.954,0.583-1.43,0.901-1.43,0.954c-0.636,0.53-1.907,1.589-3.813,3.178c-1.589,1.324-2.887,2.357-3.893,3.098
				c-0.794,0.689-2.542,2.093-5.243,4.21c-2.225,1.748-3.972,3.178-5.243,4.29c-6.78,5.561-11.996,9.454-15.65,11.678
				c-1.112,0.689-1.827,1.086-2.145,1.192c-0.848,0.317-1.325,0.266-1.43-0.159c-0.266-0.688-0.238-1.244,0.08-1.668
				c0.529-0.635,1.351-1.402,2.463-2.304c0.794-0.688,1.958-1.615,3.495-2.78c1.589-1.271,2.753-2.197,3.496-2.781
				c2.012-1.694,5.19-4.29,9.533-7.786c4.183-3.389,7.361-5.984,9.533-7.785c0.529-0.423,1.482-1.165,2.86-2.225
				c1.217-0.953,2.171-1.694,2.86-2.224c0.423-0.423,2.25-2.41,5.481-5.958C663.794,381.047,663.715,380.968,663.609,380.861z
				 M631.673,422.251c0.741-0.741,1.615-1.589,2.622-2.542c3.601-3.495,9.744-8.262,18.431-14.3c5.084-3.495,7.944-5.454,8.58-5.878
				c1.43-1.059,1.8-2.356,1.112-3.893c-14.935,11.811-26.295,20.788-34.081,26.932C629.767,423.258,630.878,423.153,631.673,422.251
				z M635.168,366.323c-1.006,0.477-1.537,0.822-1.589,1.033c-0.106,0.212,0.132,0.715,0.715,1.509
				C634.877,367.118,635.168,366.271,635.168,366.323z M659.637,405.171c-4.608,3.178-7.654,5.297-9.136,6.355
				c-2.913,2.066-7.283,5.297-13.108,9.692c-0.053,0.053-0.583,0.583-1.589,1.589c1.536,0.689,2.912,0.609,4.131-0.238
				c4.131-2.807,7.071-4.739,8.818-5.799c1.376-0.794,3.257-1.879,5.641-3.257c2.753-1.536,4.66-2.594,5.72-3.178
				c2.171-1.271,2.727-3.389,1.668-6.355C660.404,404.722,659.689,405.119,659.637,405.171z M638.902,379.431
				c0.37-0.37,1.271-1.191,2.701-2.462c1.112-1.006,2.012-1.8,2.701-2.383c3.336-2.86,6.117-5.19,8.341-6.991
				c0.105-0.105,3.496-2.833,10.169-8.183c1.112-0.847,1.351-1.959,0.715-3.337c-1.695,1.06-2.569,1.616-2.622,1.668
				c-5.084,3.867-8.792,6.701-11.122,8.5c-2.542,2.014-5.906,4.741-10.089,8.183c-1.748,1.483-2.331,3.311-1.748,5.482
				C638.584,379.59,638.902,379.431,638.902,379.431z M638.982,385.787c6.62-5.136,12.34-9.559,17.16-13.267
				c2.012-1.589,4.131-3.283,6.355-5.084c1.112-0.9,1.43-1.986,0.954-3.257c-0.901,0.424-1.378,0.663-1.43,0.715
				c-3.972,3.072-9.931,7.706-17.875,13.903c-2.437,1.854-4.079,3.125-4.925,3.813c-1.271,1.06-1.696,2.278-1.271,3.655
				C638.637,385.946,638.982,385.787,638.982,385.787z M638.823,370.772c0,0,0.106,0.133,0.318,0.397l1.271-0.954
				c4.024-3.919,9.321-8.341,15.889-13.267c1.853-1.376,3.998-3.071,6.435-5.084c1.059-0.846,1.297-1.827,0.715-2.939
				c-8.687,6.462-16.922,13.692-24.707,21.688C638.796,370.72,638.823,370.772,638.823,370.772z M639.141,365.211
				c0.052,0.053,0.159,0.107,0.318,0.159c0.159,0,0.265,0.027,0.318,0.08c1.059-1.059,1.615-1.615,1.668-1.668
				c6.832-6.461,10.75-10.141,11.757-11.042c-0.477,0.424,2.489-2.038,8.898-7.388c0.052-0.052,0.423-0.477,1.112-1.271
				l-0.317-0.397c-1.06,0.477-1.616,0.742-1.668,0.794c-7.257,5.032-12.818,9.507-16.683,13.426
				c-1.219,1.219-1.854,2.013-1.907,2.383c-0.477,1.695-1.642,2.224-3.496,1.589V365.211z M653.361,342.729
				c-0.371,0.318-0.901,0.715-1.589,1.191c-0.689,0.53-1.192,0.927-1.51,1.192c-4.396,3.602-7.309,5.985-8.739,7.15
				c-1.907,1.589-2.49,3.84-1.748,6.752c4.66-6.09,11.174-11.837,19.543-17.239C656.777,341.246,654.791,341.564,653.361,342.729z
				 M641.047,343.364c-0.424,0.054-0.689,0.318-0.794,0.794c-0.371,2.119-0.266,3.734,0.318,4.846
				c0.423-0.37,2.674-2.409,6.752-6.117C646.317,342.729,644.225,342.887,641.047,343.364z M644.781,423.443
				c3.548,0.636,6.223,0.318,8.024-0.953c0.688-0.477,1.615-1.033,2.78-1.668c1.482-0.794,2.436-1.323,2.86-1.589
				c1.006-0.582,1.907-1.244,2.701-1.986c0.9-0.794,1.059-1.827,0.477-3.099C654.208,417.803,648.595,420.901,644.781,423.443z
				 M658.843,424.079c1.165,0.107,1.879-0.397,2.145-1.509c-0.318,0.159-0.769,0.317-1.351,0.477
				c-0.424,0.212-0.769,0.345-1.033,0.397C658.498,423.125,658.577,423.337,658.843,424.079z"/>
			<path d="M711.435,425.111c0,0-1.458-0.159-4.37-0.477c-2.013-0.211-3.761-0.477-5.243-0.794
				c-1.271-0.318-1.827-1.165-1.668-2.542c0.741-6.938,1.085-9.982,1.033-9.136c0.37-3.76,0.265-6.302-0.318-7.626
				c-0.106-0.159-0.106-0.556,0-1.192c-0.053,0.318,0.238-2.542,0.874-8.58v-0.477c-0.583-0.953-0.477-2.939,0.318-5.958
				c0.264-0.954,0.477-2.939,0.635-5.958c0.052-0.635-0.133-1.218-0.556-1.748c-0.848-1.271-0.715-2.436,0.397-3.496
				c0.318-0.264,0.556-0.582,0.715-0.953c0.688-1.377,0.608-2.463-0.238-3.257c-0.212-0.211-0.477-0.608-0.794-1.192
				c-0.689-1.271-1.562-1.482-2.622-0.635c-0.212,0.159-0.477,0.451-0.794,0.874c-0.371,0.424-0.635,0.715-0.794,0.874
				c-0.583,0.477-1.06,0.636-1.43,0.477c-0.318-0.105-0.53-0.529-0.636-1.271c-0.053-0.052,0.026-0.556,0.238-1.509
				c-1.642-1.005-3.39-0.715-5.243,0.874c-1.907-1.377-3.046-2.012-3.416-1.907c-1.112,0.266-2.542,0.186-4.29-0.238
				c-0.159,0-1.537,0.266-4.131,0.794c-1.006-0.741-2.41-0.847-4.21-0.318c-0.583,0.212-2.013,0.053-4.29-0.477
				c-0.689-0.159-1.061-0.821-1.112-1.986c0-1.907-0.345-3.178-1.033-3.813c-0.423-0.423-0.344-0.979,0.238-1.668
				c0.688-0.847,1.112-2.225,1.271-4.131c0.318-3.972,0.582-6.673,0.794-8.103c0.159-1.271,0.449-2.092,0.874-2.463
				c0.317-0.317,1.138-0.635,2.462-0.953c5.349-1.323,11.387-2.304,18.113-2.939c2.648-0.264,7.468-0.556,14.458-0.874
				c2.33-0.105,8.845-0.344,19.543-0.715c3.813-0.159,6.381-0.238,7.706-0.238c1.43,0,2.647-0.503,3.654-1.509
				c0.847-0.9,1.456-1.323,1.827-1.271c0.37,0.054,0.953,0.61,1.748,1.668c0.954,1.219,2.197,1.271,3.734,0.159
				c-0.106,0.054,0.662-0.662,2.304-2.145c0.846-0.794,1.509-1.085,1.986-0.874c0.741,0.318,1.059,1.06,0.954,2.224
				c-0.054,0.054-0.107,0.372-0.159,0.954c1.005,0.318,1.748,0.345,2.225,0.08c0.529-0.265,1.218-1.059,2.065-2.383
				c-0.266-0.37-0.715-0.979-1.351-1.828c1.376-1.164,2.674-1.271,3.893-0.317c2.118,1.695,3.468,4,4.052,6.912
				c-0.106-0.529,0.132,1.298,0.715,5.481c0.106,0.848,0.265,1.483,0.477,1.907c1.059,1.907,1.138,3.364,0.238,4.369
				c0.847,0.477,1.271,0.742,1.271,0.794c1.165,0.583,1.43,1.298,0.794,2.145c-0.53,0.689-1.033,3.893-1.509,9.613
				c-0.054,1.06-0.238,1.748-0.556,2.065c-0.266,0.318-0.901,0.477-1.907,0.477c-1.537,0.054-4.449,0.08-8.739,0.08
				c-3.603,0.053-6.488,0.107-8.659,0.159c-1.06,0-2.675,0.133-4.846,0.397c-0.689,0.107-1.192,0.318-1.509,0.636
				c-2.225,2.49-3.337,4.502-3.337,6.038c0-0.477-0.212,3.469-0.636,11.837c-0.106,1.907-0.238,4.423-0.397,7.547
				c-0.159,3.972-0.266,6.514-0.318,7.626c-0.053,0.901,0.291,1.642,1.033,2.225c1.482,1.166,1.615,2.462,0.397,3.893
				c-1.166,1.378-1.827,3.39-1.986,6.038c-0.159,1.96-0.477,4.687-0.953,8.183c-0.212,1.43-1.06,2.225-2.542,2.383
				c-1.06,0.105-2.277,0.105-3.654,0c-2.595-0.212-4.899-0.451-6.912-0.715c-2.013-0.265-3.549,0.08-4.607,1.033
				C711.857,425.826,711.435,425.111,711.435,425.111z M695.466,345.509c-2.437,0.212-3.841,0.345-4.21,0.397
				c-0.477,0.053-0.769,0.371-0.874,0.953c-0.425,1.643-1.934,3.575-4.528,5.799c-5.402,4.661-9.136,8.157-11.202,10.487
				c-0.901,1.06-1.033,2.198-0.397,3.416c0.582-0.423,0.9-0.636,0.953-0.636c2.753-4.078,7.891-9.108,15.412-15.094
				c0.159-0.159,1.879-1.694,5.164-4.607L695.466,345.509z M675.208,348.369c-0.318,0.053-0.53,0.266-0.635,0.635
				c-0.743,2.49-0.848,4.502-0.318,6.038c1.907-1.958,4.369-4.475,7.388-7.547C680.424,347.284,678.279,347.575,675.208,348.369z
				 M681.802,352.738c3.125-3.178,4.819-5.402,5.084-6.673c-1.007,0.901-1.537,1.378-1.589,1.43
				c-0.107,0.159-0.371,0.504-0.794,1.033c-0.318,0.424-0.583,0.742-0.794,0.953c-0.53,0.477-1.404,1.245-2.622,2.304
				c-1.166,0.953-2.04,1.722-2.622,2.304c-2.383,2.225-3.813,3.92-4.29,5.084C676.188,358.061,678.729,355.916,681.802,352.738z
				 M700.312,345.43c-0.317,0.106-0.688,0.53-1.112,1.271c-0.53,0.901-1.007,1.537-1.43,1.907c-0.53,0.477-1.271,1.086-2.225,1.827
				c-1.166,1.006-1.906,1.616-2.224,1.827c-6.303,5.35-10.328,8.792-12.076,10.328c-0.106,0.107-1.219,1.351-3.336,3.734
				c1.218-0.052,2.145-0.423,2.78-1.112c3.655-3.865,8.05-7.891,13.188-12.075c0.318-0.265,3.204-2.753,8.659-7.468
				C701.318,345.457,700.577,345.377,700.312,345.43z M708.256,344.874c-3.019,2.383-4.767,3.761-5.243,4.131
				c-0.742,0.636-1.483,1.271-2.224,1.907c-7.044,6.091-11.599,10.037-13.665,11.837c-1.748,1.589-2.754,2.781-3.019,3.575
				c0.846,0.371,1.72,0.08,2.622-0.874c3.496-3.707,5.375-5.692,5.64-5.958c-0.371,0.371,4.263-3.496,13.903-11.599
				c0.052-0.105,0.874-0.9,2.463-2.383C708.626,345.35,708.468,345.139,708.256,344.874z M712.626,345.986
				c-1.325,1.112-3.178,2.675-5.561,4.687c-2.542,2.119-4.37,3.654-5.481,4.607c-2.49,2.172-6.355,5.561-11.599,10.169
				c-0.053,0-0.424,0.425-1.112,1.271c1.589,0.583,3.045,0.318,4.369-0.794c1.482-1.271,5.216-4.449,11.202-9.533
				c5.984-5.031,9.295-7.837,9.93-8.421c0.052-0.052,0.847-1.005,2.383-2.86C715.327,344.476,713.949,344.768,712.626,345.986z
				 M700.789,366.323c2.383-2.225,4.818-4.421,7.309-6.594c1.748-1.482,4.263-3.627,7.547-6.435
				c3.442-2.912,5.958-5.031,7.547-6.355c0.052-0.105,0.741-0.9,2.065-2.383h-6.276c-0.689,2.331-1.06,3.549-1.112,3.654
				c-1.112,1.537-2.411,2.887-3.893,4.052c-1.43,1.112-3.496,2.701-6.197,4.767c-2.86,2.172-4.925,3.761-6.196,4.767
				c-0.266,0.159-2.332,1.934-6.197,5.323C697.611,367.807,699.411,367.542,700.789,366.323z M727.641,346.621
				c-1.801,1.854-3.495,3.443-5.084,4.767c-2.119,1.748-4.979,4.079-8.58,6.991c-4.185,3.39-7.044,5.72-8.58,6.991
				c-0.053,0.054-0.794,0.822-2.224,2.304c1.694,0.318,3.071,0.027,4.131-0.874c11.281-9.533,18.695-15.809,22.244-18.828
				c0.052-0.105,1.138-1.271,3.257-3.496c0.688,0.107-0.504-0.079-3.575-0.556C728.223,345.668,727.693,346.569,727.641,346.621z
				 M706.032,412.162c5.295-4.554,8.977-7.706,11.042-9.454c2.807-2.436,5.323-4.688,7.547-6.753
				c0.847-0.794,1.509-1.033,1.986-0.715c1.005,0.583,1.218,1.43,0.636,2.542c-0.53,1.007-1.112,1.775-1.748,2.304
				c-1.006,0.901-3.708,3.152-8.103,6.753c-7.574,6.197-11.573,9.454-11.996,9.771c-1.271,1.112-1.616,2.781-1.033,5.005
				c0.741-0.423,1.112-0.662,1.112-0.715c5.402-4.501,9.585-8.024,12.552-10.566c1.271-1.059,4.157-3.521,8.659-7.388
				c1.165-1.005,1.72-2.356,1.668-4.052c0,0.689,0.026-1.323,0.079-6.038c0-0.052-0.027-0.715-0.079-1.986
				c-3.126,2.596-4.794,4-5.005,4.21c-0.425,0.318-1.404,1.192-2.939,2.622c-1.219,1.112-2.225,1.986-3.019,2.622
				c-0.901,0.742-4.661,3.733-11.281,8.977c-1.112,0.848-1.51,2.013-1.192,3.496C705.661,412.375,706.032,412.162,706.032,412.162z
				 M724.146,387.137c-5.773,4.979-9.799,8.395-12.076,10.249c-0.583,0.53-1.509,1.219-2.78,2.065
				c-1.271,0.901-2.199,1.589-2.781,2.065c-1.166,1.007-1.378,2.383-0.636,4.131c1.323-1.005,2.012-1.535,2.066-1.589
				c7.891-6.725,12.524-10.725,13.902-11.996c1.218-1.059,3.442-3.337,6.673-6.833c0.953-1.005,1.192-1.906,0.715-2.701
				C726.052,385.443,724.356,386.979,724.146,387.137z M711.593,393.572c5.984-4.608,10.856-9.109,14.618-13.505
				c1.164-1.323,2.25-1.8,3.257-1.43c0.37-1.218,0.397-2.304,0.08-3.257c-4.238,3.336-6.514,5.138-6.832,5.402
				c-3.443,2.914-6.727,5.748-9.851,8.5c-1.96,1.643-3.972,3.496-6.038,5.561c-1.166,1.112-1.509,2.278-1.033,3.496
				C709.448,395.32,711.381,393.731,711.593,393.572z M757.353,345.986c-0.953,0.583-1.457,0.901-1.509,0.953
				c-0.583,0.477-1.458,1.245-2.622,2.304c-1.112,1.06-1.986,1.827-2.622,2.304c-6.621,5.72-12.711,10.963-18.272,15.729
				c-3.92,3.39-10.407,8.925-19.464,16.604c-0.477,0.424-1.351,1.139-2.622,2.145c-1.112,0.901-1.986,1.642-2.622,2.224
				c-0.901,0.742-1.192,1.483-0.874,2.225c0.741-0.477,1.112-0.741,1.112-0.794c4.29-3.919,6.302-5.772,6.038-5.561
				c5.295-4.555,10.884-9.268,16.763-14.141c0.636-0.529,1.509-0.9,2.622-1.112c1.694-0.423,2.992-1.164,3.893-2.224
				c6.779-7.415,13.24-13.69,19.384-18.828c0.052,0,0.45-0.45,1.192-1.351C757.643,346.303,757.512,346.145,757.353,345.986z
				 M707.065,384.833c0.529-0.423,1.297-1.059,2.304-1.907c0.954-0.794,1.694-1.402,2.225-1.827
				C708.892,382.212,707.383,383.457,707.065,384.833z M744.642,345.271c-6.621,5.773-10.089,8.792-10.407,9.057
				c-1.907,1.537-7.044,5.799-15.412,12.791c-1.06,0.848-2.649,2.145-4.767,3.893c-2.119,1.696-3.708,2.993-4.767,3.893
				c-1.43,1.166-2.014,2.649-1.748,4.449c9.268-6.673,22.985-18.404,41.152-35.194C747.263,343.789,745.913,344.158,744.642,345.271
				z M710.878,419.868c-0.212,0.159-0.504,0.371-0.874,0.635c-0.425,0.266-0.715,0.477-0.874,0.636
				c-0.106,0.053-0.238,0.238-0.397,0.556c-0.054,0.053-0.054,0.133,0,0.238l0.159,0.397c2.807,0.848,4.846,0.397,6.117-1.351
				c0.052-0.052,0.423-0.37,1.112-0.954c5.984-4.501,9.4-7.07,10.248-7.706c1.536-1.164,2.038-2.965,1.509-5.402
				C718.823,413.858,713.155,418.174,710.878,419.868z M736.936,345.032c-0.583,0.477-1.537,1.404-2.86,2.781
				c-1.219,1.166-2.198,2.065-2.939,2.701c-2.278,1.907-5.217,4.344-8.818,7.309c-5.032,4.131-7.972,6.542-8.818,7.229
				c-0.794,0.689-2.119,1.88-3.972,3.575c-0.743,0.689-0.901,1.378-0.477,2.065c1.271-0.529,6.646-4.818,16.127-12.87
				c9.533-7.997,14.59-12.525,15.173-13.585C738.974,343.92,737.835,344.186,736.936,345.032z M717.949,423.761
				c3.178,0.318,5.641,0.53,7.388,0.636c0.636,0,1.033-0.211,1.192-0.636c0.953-2.594,1.138-5.031,0.556-7.309
				c0.265-0.211-2.913,2.013-9.533,6.673L717.949,423.761z M743.688,366.8c2.065-1.959,4.687-4.316,7.865-7.07
				c0.582-0.529,1.536-1.323,2.86-2.383c1.271-1.059,2.225-1.854,2.86-2.383c1.218-1.112,1.43-2.304,0.635-3.575
				c-1.219,0.583-1.854,0.901-1.907,0.954c-6.567,5.878-11.811,10.883-15.729,15.015C741.596,367.833,742.735,367.647,743.688,366.8
				z M751.235,366.72c0.318-0.317,1.244-1.085,2.781-2.304c1.112-0.953,2.038-1.72,2.78-2.304c0.688-0.636,1.271-1.297,1.748-1.986
				c0.052,0,0.131-0.502,0.238-1.509c-4.661,1.96-8.342,4.82-11.042,8.58C748.958,367.78,750.124,367.622,751.235,366.72z
				 M756.32,366.958c1.323,0.477,2.197,0.53,2.622,0.159c0.37-0.318,0.503-1.218,0.397-2.701
				C757.802,364.841,756.796,365.688,756.32,366.958z"/>
			<path d="M764.899,424.635c-7.362-1.112-10.937-1.641-10.725-1.589c-7.416-1.536-12.949-5.323-16.604-11.36
				c-3.231-5.349-5.057-11.043-5.481-17.081c0-0.105-0.026-2.515-0.08-7.229c0-3.283,1.271-7.996,3.813-14.141
				c0.477-1.059,0.715-1.641,0.715-1.748c1.43-4.713,5.084-9.744,10.963-15.094c4.078-3.707,9.029-6.223,14.856-7.547
				c0.317-0.105,1.35-0.662,3.098-1.668c0.159-0.105,0.397-0.264,0.715-0.477c0.265-0.265,0.477-0.449,0.636-0.556
				c1.059-0.582,1.8-0.318,2.224,0.794c0,0.053,0.08,0.556,0.238,1.509h3.257c1.112,0.054,1.774,0.159,1.986,0.318
				c1.059,1.06,2.833,1.722,5.323,1.986c0.741,0.106,1.191,0.212,1.351,0.317c1.8,1.483,3.362,2.383,4.687,2.701
				c0.582,0.159,0.926,0.504,1.033,1.033c0.105,0.477-0.053,0.981-0.477,1.51c-0.107,0.053-0.769,0.635-1.986,1.748
				c0.847,0.953,1.482,1.668,1.907,2.145c0.953-0.847,1.456-1.323,1.509-1.43c0.583-0.529,1.165-0.582,1.748-0.159
				c0.741,0.53,0.9,1.166,0.477,1.907c-0.053,0.106-0.451,0.609-1.192,1.509c0.423,1.007,0.821,1.616,1.192,1.827
				c0.318,0.159,0.874,0,1.668-0.477c1.271-0.688,2.118-0.794,2.542-0.318c0.741,0.901,0.582,1.827-0.477,2.781
				c-0.053,0-0.318,0.397-0.794,1.191c0.953,0,1.456,0,1.509,0c0.847-0.477,1.482-0.344,1.907,0.397
				c0.105,0.212,0.131,0.794,0.08,1.748c0-0.318-0.133-0.105-0.397,0.636c-0.424,1.324,0.105,2.119,1.589,2.383
				c0.954,0.159,1.536,0.424,1.748,0.794c0.211,0.317,0.131,0.953-0.238,1.906c-0.372,0.848-0.53,1.589-0.477,2.225
				c0,1.325,0.08,3.39,0.238,6.197c0.106,2.649,0.185,4.687,0.239,6.117c0.052,1.166,0.079,2.887,0.079,5.164
				c-0.053,2.331-0.053,4.079,0,5.243c0.052,2.542-0.451,5.191-1.509,7.944c-1.748,4.608-4.767,8.818-9.057,12.632
				c-1.43,1.219-5.376,2.701-11.837,4.449c-0.477,0.159-1.748,0.345-3.813,0.556c-1.642,0.159-3.152,0.769-4.528,1.827
				C768.341,425.826,767.124,424.953,764.899,424.635z M773.32,352.738c-0.371-0.052-0.953,0.292-1.748,1.033
				c-6.197,5.243-9.771,8.262-10.725,9.057c-0.848,0.689-2.065,1.642-3.654,2.86c-1.748,1.325-2.993,2.304-3.734,2.939
				c-10.911,8.846-16.286,13.188-16.127,13.029c-1.43,1.112-2.172,2.437-2.225,3.972c-0.106,1.696-0.133,4.105-0.079,7.229
				c0,0.053,0.159,0.53,0.477,1.43c0.688-0.529,1.059-0.82,1.112-0.874c5.349-4.872,8.129-7.388,8.341-7.547
				c3.601-3.019,9.295-7.626,17.081-13.823c1.907-1.535,4.501-3.601,7.785-6.196c3.76-2.966,6.355-5.005,7.786-6.117
				c0.688-0.529,1.297-1.165,1.827-1.907c0.318-0.318,0.344-0.662,0.08-1.033c-0.318-0.37-0.663-0.477-1.033-0.318
				c-0.477,0.107-1.033,0.424-1.668,0.953c-0.583,0.425-2.304,1.668-5.164,3.734c-2.065,1.589-3.787,2.86-5.164,3.813
				c-6.568,4.661-11.864,8.687-15.889,12.075c-2.437,2.066-6.832,5.748-13.188,11.043c0,0.053-0.451,0.397-1.351,1.033
				c-0.425-1.059-0.187-2.065,0.715-3.019c2.965-3.071,5.323-5.481,7.07-7.229c0.529-0.528,1.456-1.323,2.781-2.383
				c0.423-0.264,1.218-0.846,2.383-1.748c1.005-0.794,1.8-1.43,2.383-1.907c0.477-0.37,1.589-1.297,3.336-2.78
				c1.323-1.165,2.436-2.092,3.337-2.781c2.065-1.535,4.713-3.496,7.944-5.879c4.607-3.389,7.255-5.349,7.944-5.878
				c0.052-0.052,0.608-0.583,1.668-1.589C774.405,353.136,773.638,352.738,773.32,352.738z M737.571,397.862
				c0,0,0.052-0.026,0.159-0.08c10.592-8.155,16.604-12.763,18.034-13.823c9.375-7.202,18.483-14.246,27.329-21.132
				c0.052,0,0.45-0.477,1.192-1.43c-1.43-1.323-2.014-1.879-1.748-1.668l-1.509,1.191c-11.017,8.792-16.127,12.87-15.333,12.234
				c0.953-0.794-5.906,4.635-20.576,16.286c-5.615,4.449-8.369,6.647-8.262,6.594c-1.219,0.953-1.51,1.96-0.874,3.019
				C737.041,398.259,737.571,397.862,737.571,397.862z M791.513,369.104c0,0-0.027-0.079-0.08-0.238l-1.351,0.238
				c-0.053,0.054-0.822,0.663-2.304,1.827c-9.428,7.575-14.618,11.758-15.571,12.552c-1.854,1.43-6.383,4.767-13.584,10.01
				c-6.462,4.661-12.208,8.792-17.239,12.394c-0.054,0.053-0.61,0.159-1.668,0.317c-0.107-1.164-0.133-1.773-0.08-1.827
				c0.636-1.005,1.377-1.827,2.225-2.462c1.218-0.954,2.833-2.145,4.846-3.575c2.594-1.907,4.21-3.098,4.846-3.575
				c14.459-10.856,23.78-17.875,27.964-21.053c0.635-0.477,3.23-2.648,7.785-6.514c0.847-0.741,1.112-1.403,0.794-1.986
				c-0.583-1.165-1.483-1.244-2.701-0.238c-7.309,5.827-12.155,9.666-14.539,11.519c-1.748,1.378-4.131,3.152-7.15,5.323
				c-3.549,2.649-5.958,4.423-7.229,5.323c-2.278,1.748-5.271,4.026-8.977,6.833c-4.608,3.549-7.627,5.853-9.057,6.911
				c-0.954,0.743-1.51,1.299-1.668,1.668c-0.107,0.425,0.026,1.192,0.397,2.304c0.635,1.696,1.112,2.914,1.43,3.655
				c0.052,0.053,0.556,0.848,1.509,2.383c4.024-3.337,6.144-5.084,6.355-5.244c10.91-8.367,18.272-13.955,22.085-16.762
				c6.461-4.767,13.426-10.487,20.894-17.16c0.105-0.052,0.874-0.82,2.304-2.304C791.592,369.21,791.513,369.104,791.513,369.104z
				 M764.025,352.5c-0.53,0.477-1.271,1.086-2.224,1.827c-1.219,0.953-1.96,1.563-2.225,1.827
				c-10.699,8.687-16.631,13.479-17.795,14.379c-0.318,0.212-1.854,2.808-4.607,7.786c2.753-2.436,7.996-6.805,15.729-13.108
				c6.726-5.454,11.943-9.903,15.65-13.347C766.488,351.495,764.979,351.706,764.025,352.5z M791.672,373.711
				c0,0-0.027,0.027-0.08,0.08c-5.296,4.661-7.892,6.939-7.785,6.832c-8.633,6.885-16.366,12.923-23.198,18.113
				c-2.808,2.119-8.341,6.144-16.604,12.075c-1.43,1.007-2.145,1.801-2.145,2.383c0,0.53,0.715,1.351,2.145,2.463h0.079
				c3.284-3.019,5.005-4.581,5.164-4.688c2.647-2.012,7.44-5.692,14.379-11.042c6.038-4.66,10.804-8.341,14.3-11.042
				c2.86-2.225,8.024-6.461,15.491-12.711c0.9-0.741,1.351-1.323,1.351-1.748c0-0.423-0.397-1.164-1.191-2.224
				C792.308,373.208,791.672,373.711,791.672,373.711z M743.37,365.131c3.919-2.807,8.765-6.858,14.538-12.155
				C752.612,355.254,747.766,359.306,743.37,365.131z M748.693,417.803c0.159-0.159,0.397-0.344,0.715-0.556
				c0.37-0.318,0.636-0.529,0.794-0.636c12.711-9.057,19.569-13.955,20.576-14.697c3.813-2.86,8.686-6.805,14.618-11.837
				c1.218-1.005,4.554-4.051,10.01-9.136c1.005-0.954,1.164-1.933,0.477-2.939c-4.979,4.449-21.529,17.398-49.652,38.848
				C746.971,418.068,747.792,418.386,748.693,417.803z M787.461,392.222c-2.437,2.065-5.35,4.449-8.739,7.15
				c-3.603,2.967-6.621,5.35-9.057,7.15c-3.443,2.649-6.462,4.899-9.057,6.753c-0.424,0.318-3.549,2.437-9.375,6.355
				c1.006,0.583,1.641,0.874,1.907,0.874c0.318,0,0.821-0.264,1.51-0.794c1.748-1.323,2.912-2.197,3.495-2.622
				c10.592-6.991,22.721-15.994,36.385-27.011c0.529-0.423,1.033-0.926,1.51-1.509c0.9-1.112,0.9-2.383,0-3.813
				C790.691,389.362,787.831,391.852,787.461,392.222z M767.044,417.961c0,0,0.052-0.052,0.159-0.159
				c5.667-4.342,11.996-9.029,18.987-14.062c1.059-0.794,2.489-1.774,4.29-2.939c2.225-1.377,3.681-2.304,4.37-2.781
				c1.748-1.164,2.25-2.78,1.509-4.846l-0.715,0.079c-15.307,11.97-27.779,21.106-37.418,27.408
				c-0.053,0.053-0.212,0.292-0.477,0.715c0.636,0.266,2.542,0.556,5.72,0.874C765.853,419.392,767.044,417.961,767.044,417.961z
				 M770.937,422.013c4.131-3.654,10.751-8.632,19.861-14.936c1.165-0.794,2.674-1.879,4.528-3.257
				c1.165-0.846,1.536-1.986,1.112-3.416c-1.325,0.743-2.04,1.14-2.145,1.192c-0.212,0.159-0.504,0.371-0.874,0.635
				c-0.371,0.318-0.663,0.556-0.874,0.715l-13.505,9.057c-1.325,0.901-4.344,3.178-9.057,6.832
				c-0.159,0.106-1.458,1.191-3.893,3.257C767.998,423.205,769.613,423.179,770.937,422.013z M794.373,408.508
				c-0.159-0.105-0.266-0.211-0.318-0.318c-2.331,1.696-3.602,2.596-3.813,2.701c-0.371,0.266-1.086,0.715-2.145,1.351
				c-0.901,0.583-1.589,1.06-2.065,1.43c-0.53,0.318-1.166,0.794-1.907,1.43c-0.901,0.742-1.537,1.245-1.906,1.509
				c-0.371,0.266-1.06,0.769-2.066,1.509c-0.848,0.583-1.537,1.086-2.065,1.51c-2.224,1.801-3.39,2.808-3.496,3.019
				c1.323,0.212,2.41-0.105,3.257-0.953c0.477-0.529,0.979-0.926,1.509-1.192c4.449-2.383,7.309-3.865,8.58-4.449
				c1.907-0.9,4.131-3.309,6.673-7.229C794.558,408.773,794.479,408.667,794.373,408.508z M781.503,354.725l-0.079,0.238
				c0.264,0.106,0.741,0.238,1.43,0.397c-0.371-0.423-0.583-0.635-0.635-0.635c0-0.052-0.212-0.132-0.636-0.239L781.503,354.725z"/>
			<path d="M831.076,424.635c-7.362-1.112-10.937-1.641-10.725-1.589c-7.416-1.536-12.949-5.323-16.604-11.36
				c-3.231-5.349-5.057-11.043-5.481-17.081c0-0.105-0.026-2.515-0.08-7.229c0-3.283,1.271-7.996,3.813-14.141
				c0.477-1.059,0.715-1.641,0.715-1.748c1.43-4.713,5.084-9.744,10.963-15.094c4.078-3.707,9.029-6.223,14.856-7.547
				c0.317-0.105,1.35-0.662,3.098-1.668c0.159-0.105,0.397-0.264,0.715-0.477c0.265-0.265,0.477-0.449,0.636-0.556
				c1.059-0.582,1.8-0.318,2.224,0.794c0,0.053,0.08,0.556,0.238,1.509h3.257c1.112,0.054,1.774,0.159,1.986,0.318
				c1.059,1.06,2.833,1.722,5.323,1.986c0.741,0.106,1.191,0.212,1.351,0.317c1.8,1.483,3.362,2.383,4.687,2.701
				c0.582,0.159,0.926,0.504,1.033,1.033c0.105,0.477-0.053,0.981-0.477,1.51c-0.107,0.053-0.769,0.635-1.986,1.748
				c0.847,0.953,1.482,1.668,1.907,2.145c0.953-0.847,1.456-1.323,1.509-1.43c0.583-0.529,1.165-0.582,1.748-0.159
				c0.741,0.53,0.9,1.166,0.477,1.907c-0.053,0.106-0.451,0.609-1.192,1.509c0.423,1.007,0.821,1.616,1.192,1.827
				c0.318,0.159,0.874,0,1.668-0.477c1.271-0.688,2.118-0.794,2.542-0.318c0.741,0.901,0.582,1.827-0.477,2.781
				c-0.053,0-0.318,0.397-0.794,1.191c0.953,0,1.456,0,1.509,0c0.847-0.477,1.482-0.344,1.907,0.397
				c0.105,0.212,0.131,0.794,0.08,1.748c0-0.318-0.133-0.105-0.397,0.636c-0.424,1.324,0.105,2.119,1.589,2.383
				c0.954,0.159,1.536,0.424,1.748,0.794c0.211,0.317,0.131,0.953-0.238,1.906c-0.372,0.848-0.53,1.589-0.477,2.225
				c0,1.325,0.08,3.39,0.238,6.197c0.106,2.649,0.185,4.687,0.239,6.117c0.052,1.166,0.079,2.887,0.079,5.164
				c-0.053,2.331-0.053,4.079,0,5.243c0.052,2.542-0.451,5.191-1.509,7.944c-1.748,4.608-4.767,8.818-9.057,12.632
				c-1.43,1.219-5.376,2.701-11.837,4.449c-0.477,0.159-1.748,0.345-3.813,0.556c-1.642,0.159-3.152,0.769-4.528,1.827
				C834.518,425.826,833.3,424.953,831.076,424.635z M839.497,352.738c-0.371-0.052-0.953,0.292-1.748,1.033
				c-6.197,5.243-9.771,8.262-10.725,9.057c-0.848,0.689-2.065,1.642-3.654,2.86c-1.748,1.325-2.993,2.304-3.734,2.939
				c-10.911,8.846-16.286,13.188-16.127,13.029c-1.43,1.112-2.172,2.437-2.225,3.972c-0.106,1.696-0.133,4.105-0.079,7.229
				c0,0.053,0.159,0.53,0.477,1.43c0.688-0.529,1.059-0.82,1.112-0.874c5.349-4.872,8.129-7.388,8.341-7.547
				c3.601-3.019,9.295-7.626,17.081-13.823c1.907-1.535,4.501-3.601,7.785-6.196c3.76-2.966,6.355-5.005,7.786-6.117
				c0.688-0.529,1.297-1.165,1.827-1.907c0.318-0.318,0.344-0.662,0.08-1.033c-0.318-0.37-0.663-0.477-1.033-0.318
				c-0.477,0.107-1.033,0.424-1.668,0.953c-0.583,0.425-2.304,1.668-5.164,3.734c-2.065,1.589-3.787,2.86-5.164,3.813
				c-6.568,4.661-11.864,8.687-15.889,12.075c-2.437,2.066-6.832,5.748-13.188,11.043c0,0.053-0.451,0.397-1.351,1.033
				c-0.425-1.059-0.187-2.065,0.715-3.019c2.965-3.071,5.323-5.481,7.07-7.229c0.529-0.528,1.456-1.323,2.781-2.383
				c0.423-0.264,1.218-0.846,2.383-1.748c1.005-0.794,1.8-1.43,2.383-1.907c0.477-0.37,1.589-1.297,3.336-2.78
				c1.323-1.165,2.436-2.092,3.337-2.781c2.065-1.535,4.713-3.496,7.944-5.879c4.607-3.389,7.255-5.349,7.944-5.878
				c0.052-0.052,0.608-0.583,1.668-1.589C840.582,353.136,839.814,352.738,839.497,352.738z M803.747,397.862
				c0,0,0.052-0.026,0.159-0.08c10.592-8.155,16.604-12.763,18.034-13.823c9.375-7.202,18.483-14.246,27.329-21.132
				c0.052,0,0.45-0.477,1.192-1.43c-1.43-1.323-2.014-1.879-1.748-1.668l-1.509,1.191c-11.017,8.792-16.127,12.87-15.333,12.234
				c0.953-0.794-5.906,4.635-20.576,16.286c-5.615,4.449-8.369,6.647-8.262,6.594c-1.219,0.953-1.51,1.96-0.874,3.019
				C803.217,398.259,803.747,397.862,803.747,397.862z M857.689,369.104c0,0-0.027-0.079-0.08-0.238l-1.351,0.238
				c-0.053,0.054-0.822,0.663-2.304,1.827c-9.428,7.575-14.618,11.758-15.571,12.552c-1.854,1.43-6.383,4.767-13.584,10.01
				c-6.462,4.661-12.208,8.792-17.239,12.394c-0.054,0.053-0.61,0.159-1.668,0.317c-0.107-1.164-0.133-1.773-0.08-1.827
				c0.636-1.005,1.377-1.827,2.225-2.462c1.218-0.954,2.833-2.145,4.846-3.575c2.594-1.907,4.21-3.098,4.846-3.575
				c14.459-10.856,23.78-17.875,27.964-21.053c0.635-0.477,3.23-2.648,7.785-6.514c0.847-0.741,1.112-1.403,0.794-1.986
				c-0.583-1.165-1.483-1.244-2.701-0.238c-7.309,5.827-12.155,9.666-14.539,11.519c-1.748,1.378-4.131,3.152-7.15,5.323
				c-3.549,2.649-5.958,4.423-7.229,5.323c-2.278,1.748-5.271,4.026-8.977,6.833c-4.608,3.549-7.627,5.853-9.057,6.911
				c-0.954,0.743-1.51,1.299-1.668,1.668c-0.107,0.425,0.026,1.192,0.397,2.304c0.635,1.696,1.112,2.914,1.43,3.655
				c0.052,0.053,0.556,0.848,1.509,2.383c4.024-3.337,6.144-5.084,6.355-5.244c10.91-8.367,18.272-13.955,22.085-16.762
				c6.461-4.767,13.426-10.487,20.894-17.16c0.105-0.052,0.874-0.82,2.304-2.304C857.769,369.21,857.689,369.104,857.689,369.104z
				 M830.202,352.5c-0.53,0.477-1.271,1.086-2.224,1.827c-1.219,0.953-1.96,1.563-2.225,1.827
				c-10.699,8.687-16.631,13.479-17.795,14.379c-0.318,0.212-1.854,2.808-4.607,7.786c2.753-2.436,7.996-6.805,15.729-13.108
				c6.726-5.454,11.943-9.903,15.65-13.347C832.665,351.495,831.155,351.706,830.202,352.5z M857.848,373.711
				c0,0-0.027,0.027-0.08,0.08c-5.296,4.661-7.892,6.939-7.785,6.832c-8.633,6.885-16.366,12.923-23.198,18.113
				c-2.808,2.119-8.341,6.144-16.604,12.075c-1.43,1.007-2.145,1.801-2.145,2.383c0,0.53,0.715,1.351,2.145,2.463h0.079
				c3.284-3.019,5.005-4.581,5.164-4.688c2.647-2.012,7.44-5.692,14.379-11.042c6.038-4.66,10.804-8.341,14.3-11.042
				c2.86-2.225,8.024-6.461,15.491-12.711c0.9-0.741,1.351-1.323,1.351-1.748c0-0.423-0.397-1.164-1.191-2.224
				C858.484,373.208,857.848,373.711,857.848,373.711z M809.546,365.131c3.919-2.807,8.765-6.858,14.538-12.155
				C818.788,355.254,813.942,359.306,809.546,365.131z M814.869,417.803c0.159-0.159,0.397-0.344,0.715-0.556
				c0.37-0.318,0.636-0.529,0.794-0.636c12.711-9.057,19.569-13.955,20.576-14.697c3.813-2.86,8.686-6.805,14.618-11.837
				c1.218-1.005,4.554-4.051,10.01-9.136c1.005-0.954,1.164-1.933,0.477-2.939c-4.979,4.449-21.529,17.398-49.652,38.848
				C813.147,418.068,813.968,418.386,814.869,417.803z M853.638,392.222c-2.437,2.065-5.35,4.449-8.739,7.15
				c-3.603,2.967-6.621,5.35-9.057,7.15c-3.443,2.649-6.462,4.899-9.057,6.753c-0.424,0.318-3.549,2.437-9.375,6.355
				c1.006,0.583,1.641,0.874,1.907,0.874c0.318,0,0.821-0.264,1.51-0.794c1.748-1.323,2.912-2.197,3.495-2.622
				c10.592-6.991,22.721-15.994,36.385-27.011c0.529-0.423,1.033-0.926,1.51-1.509c0.9-1.112,0.9-2.383,0-3.813
				C856.868,389.362,854.007,391.852,853.638,392.222z M833.221,417.961c0,0,0.052-0.052,0.159-0.159
				c5.667-4.342,11.996-9.029,18.987-14.062c1.059-0.794,2.489-1.774,4.29-2.939c2.225-1.377,3.681-2.304,4.37-2.781
				c1.748-1.164,2.25-2.78,1.509-4.846l-0.715,0.079c-15.307,11.97-27.779,21.106-37.418,27.408
				c-0.053,0.053-0.212,0.292-0.477,0.715c0.636,0.266,2.542,0.556,5.72,0.874C832.029,419.392,833.221,417.961,833.221,417.961z
				 M837.113,422.013c4.131-3.654,10.751-8.632,19.861-14.936c1.165-0.794,2.674-1.879,4.528-3.257
				c1.165-0.846,1.536-1.986,1.112-3.416c-1.325,0.743-2.04,1.14-2.145,1.192c-0.212,0.159-0.504,0.371-0.874,0.635
				c-0.371,0.318-0.663,0.556-0.874,0.715l-13.505,9.057c-1.325,0.901-4.344,3.178-9.057,6.832
				c-0.159,0.106-1.458,1.191-3.893,3.257C834.174,423.205,835.789,423.179,837.113,422.013z M860.549,408.508
				c-0.159-0.105-0.266-0.211-0.318-0.318c-2.331,1.696-3.602,2.596-3.813,2.701c-0.371,0.266-1.086,0.715-2.145,1.351
				c-0.901,0.583-1.589,1.06-2.065,1.43c-0.53,0.318-1.166,0.794-1.907,1.43c-0.901,0.742-1.537,1.245-1.906,1.509
				c-0.371,0.266-1.06,0.769-2.066,1.509c-0.848,0.583-1.537,1.086-2.065,1.51c-2.224,1.801-3.39,2.808-3.496,3.019
				c1.323,0.212,2.41-0.105,3.257-0.953c0.477-0.529,0.979-0.926,1.509-1.192c4.449-2.383,7.309-3.865,8.58-4.449
				c1.907-0.9,4.131-3.309,6.673-7.229C860.734,408.773,860.655,408.667,860.549,408.508z M847.679,354.725l-0.079,0.238
				c0.264,0.106,0.741,0.238,1.43,0.397c-0.371-0.423-0.583-0.635-0.635-0.635c0-0.052-0.212-0.132-0.636-0.239L847.679,354.725z"/>
			<path d="M883.587,354.407c0,0,0.159,0.345,0.477,1.033c0.688,1.483,0.926,2.04,0.715,1.668c1.218-0.477,2.463-0.318,3.734,0.477
				c0.37,0.212,1.376,0.371,3.019,0.477c3.389,0.266,5.746,1.907,7.07,4.925c0.159,0.266,1.589,2.675,4.29,7.229
				c0.794,1.378,1.112,1.934,0.953,1.668c2.807,4.025,4.952,7.044,6.435,9.057c0,0.053,0.582,0.477,1.748,1.271
				c0.477-1.748,0.715-2.648,0.715-2.701c0.159-4.396,0.238-8.421,0.238-12.075c0-0.636-0.266-1.244-0.794-1.827
				c-0.689-0.741-0.769-1.615-0.238-2.622c0.052-0.105,0.397-0.846,1.033-2.224c-1.325-1.059-1.986-1.615-1.986-1.668
				c-0.159-0.9,0.052-1.8,0.636-2.701c1.164-1.641,1.164-3.839,0-6.594c-0.371-0.9-0.477-1.509-0.318-1.827
				c0.211-0.37,0.767-0.582,1.668-0.636c0.37,0,1.138,0.027,2.304,0.08c0.953,0.107,1.72,0.107,2.304,0
				c1.694-0.318,3.681-0.291,5.958,0.08c1.112,0.159,2.594-0.449,4.449-1.827c1.641,1.219,2.674,1.827,3.098,1.827
				c0.741,0,2.092-0.847,4.052-2.542c0.052,0.107,0.608,0.874,1.668,2.304c0.688,0.106,1.059,0.159,1.112,0.159
				c1.217,0.107,1.958,0.318,2.224,0.636c0.265,0.318,0.344,1.06,0.238,2.224c-0.212,2.49-0.345,4.397-0.397,5.72
				c0,1.324-0.371,2.357-1.112,3.098c-1.642,1.748-2.093,4.052-1.351,6.912c0.37,1.325,0.477,3.549,0.318,6.673
				c-0.053,0.689-0.397,4.369-1.033,11.042c-0.107,0.901-0.159,1.298-0.159,1.192c-0.424,10.486-0.635,16.18-0.635,17.08
				c0,2.649,0.264,8.846,0.794,18.59c0.052,1.325-0.345,2.437-1.192,3.337c-0.901,0.953-1.96,1.324-3.178,1.112
				c-2.383-0.37-5.481-0.131-9.295,0.715c-2.49,0.583-5.747,0.238-9.771-1.033c-0.477-0.159-0.98-0.529-1.509-1.112
				c-2.596-2.86-4-4.528-4.21-5.005c-0.054-0.052-1.404-1.482-4.052-4.29c-0.583-0.636-0.874-1.112-0.874-1.43
				c-0.106-1.694-0.874-2.33-2.304-1.907c-0.424-0.37-0.53-1.138-0.318-2.304c0.159-1.005-0.159-1.641-0.953-1.907
				c-0.318,0.159-0.927,0.477-1.827,0.954c-0.848,0.424-1.563,0.794-2.145,1.112c0.159,1.166,0.264,1.986,0.318,2.462
				c0.159,1.537,0.238,2.331,0.238,2.383c-0.53,1.696-0.715,5.456-0.556,11.281l-0.08,1.191c-1.642,0.636-2.569,0.979-2.78,1.033
				c-0.689,0.159-1.192,0.105-1.51-0.159c-0.742-0.582-2.145-0.82-4.21-0.715c-1.112,0.106-2.225,0.238-3.336,0.397
				c-2.119,0.423-4.476,0.238-7.071-0.556c-0.953-0.264-3.231-0.582-6.832-0.953c-1.589-0.159-2.411-0.979-2.463-2.463
				c0-0.688,0-4.396,0-11.122c-0.901-0.318-1.35-0.503-1.35-0.556c-0.266-0.37-0.292-0.979-0.08-1.827
				c0.211-0.741,0.529-1.376,0.953-1.907c0.9-1.271,1.297-2.886,1.192-4.846c0-0.159,0-1.35,0-3.575
				c-0.794,0.266-1.51,0.504-2.145,0.715c-0.741-0.37-0.954-1.005-0.636-1.907c0.212-0.688,0.503-1.164,0.874-1.43
				c1.536-1.271,2.25-3.627,2.145-7.07c0-0.741,0.026-4.184,0.08-10.328c0.052-1.535,0.079-2.276,0.079-2.224
				c-0.318-1.907,0.026-3.654,1.033-5.243c0.741-1.271,0.847-2.489,0.318-3.655c-0.742,0.266-1.14,0.397-1.191,0.397
				c-0.054,0-0.425,0.133-1.112,0.397c-0.794-0.846-0.848-1.827-0.159-2.939c0.211-0.265,0.529-0.688,0.954-1.271
				c0.423-0.529,0.741-0.953,0.953-1.271c0.529-0.847,0.847-1.562,0.954-2.145c0.423-1.694-0.266-2.647-2.066-2.86
				c-1.324-0.105-2.119-0.211-2.383-0.318c-0.053,0-0.37-0.318-0.953-0.953c0.742-0.636,1.138-0.954,1.192-0.954
				c0.052-0.052,0.767-0.026,2.145,0.08c1.323,0.053,2.012-0.582,2.066-1.907c0-0.37-0.027-0.926-0.08-1.668
				c-0.053-0.741-0.08-1.297-0.08-1.668c0-0.052,0.238-0.477,0.715-1.271l1.35,0.953c-0.053-0.159,0.026,0.98,0.239,3.416
				c0.105,1.43,0.423,2.252,0.953,2.463c0.741,0.318,1.615,0.08,2.622-0.715c0.052-0.052,0.636-0.423,1.748-1.112
				c0.583,0.901,0.9,1.351,0.954,1.351c0.9,1.166,1.879,1.219,2.939,0.159c0.052-0.052,0.502-0.556,1.351-1.509
				C883.216,354.407,883.587,354.407,883.587,354.407z M871.274,418.12c3.23-3.283,7.229-7.334,11.996-12.155
				c0.477-0.529,0.767-0.9,0.874-1.112c1.218-2.435,3.945-5.931,8.183-10.486c1.376-1.482,4.687-5.19,9.93-11.122
				c0.052,0,0.344-0.449,0.874-1.351l-0.397-0.238c-5.191,5.297-7.944,8.103-8.262,8.421c-7.839,8.157-11.546,12.023-11.122,11.599
				c-2.86,2.86-7.098,6.912-12.711,12.155c-1.537,1.43-1.96,3.416-1.271,5.958C870.585,418.73,871.221,418.174,871.274,418.12z
				 M870.797,410.017c2.542-2.489,4.475-4.421,5.799-5.799c8.791-8.95,17.345-17.663,25.66-26.137
				c1.218-1.217,1.456-2.091,0.715-2.622c-0.53-0.423-1.351-0.159-2.462,0.794c-3.972,3.549-6.673,6.038-8.104,7.468
				c-2.595,2.649-6.17,6.303-10.725,10.963c-5.084,5.191-8.633,8.846-10.646,10.963c-1.483,1.483-1.934,3.178-1.351,5.084
				C870.426,410.309,870.797,410.07,870.797,410.017z M888.593,367.118c-2.383,2.437-4.131,4.423-5.244,5.958
				c-5.509,7.521-8.554,11.785-9.136,12.791c0.9-0.582,1.72-1.323,2.463-2.225c2.753-3.229,5.454-6.435,8.103-9.612
				c1.059-1.271,2.436-2.939,4.131-5.005c3.071-3.919,4.449-5.693,4.131-5.323c0.635-0.794,1.164-1.033,1.589-0.715
				c0.635,0.477,0.953,1.033,0.953,1.668c0,0.477-0.318,1.112-0.953,1.907c-2.701,3.285-5.164,6.25-7.388,8.897
				c-2.808,3.337-6.197,7.309-10.169,11.917c-0.742,0.848-1.827,2.093-3.257,3.734c-1.483,1.643-2.569,2.887-3.257,3.734
				c-1.112,1.271-1.271,2.49-0.477,3.654c1.006-1.059,1.51-1.615,1.51-1.668c0.741-0.794,2.304-2.622,4.687-5.482
				c1.959-2.33,3.521-4.183,4.687-5.561c0.9-1.005,2.912-3.362,6.038-7.07c2.489-2.912,4.501-5.27,6.038-7.07
				c1.164-1.323,2.012-2.594,2.542-3.813c0.37-0.9,1.138-1.271,2.304-1.112c-2.649-3.972-3.867-5.879-3.655-5.72
				C893.173,362.378,891.293,364.417,888.593,367.118z M886.448,361.239c-3.019,3.285-4.953,5.43-5.799,6.435
				c0.052,0-3.205,3.972-9.772,11.917c-1.006,1.271-1.245,3.364-0.715,6.276c1.112-1.059,2.277-2.515,3.496-4.369
				c1.641-2.436,2.647-3.893,3.019-4.37c0.635-0.794,1.72-2.25,3.257-4.369c1.377-1.8,2.489-3.204,3.337-4.211
				c0.37-0.423,2.807-3.098,7.309-8.023C888.99,359.729,887.612,359.968,886.448,361.239z M870.4,389.124
				c-0.424,0.053-0.556,0.212-0.397,0.477c0.264,0.318,0.449,0.477,0.556,0.477c0.052,0,0.37-0.238,0.953-0.715
				C870.823,389.203,870.452,389.124,870.4,389.124z M891.85,403.026c-0.901,0.212-1.351,0.345-1.351,0.397
				c-3.39,2.86-5.561,4.767-6.514,5.72c-1.801,1.748-5.799,5.827-11.996,12.234c-0.053,0.053-0.424,0.583-1.112,1.589
				c1.112,0.425,2.225,0.053,3.337-1.112c7.043-7.309,10.513-10.884,10.407-10.725c0.794-0.794,1.853-1.854,3.178-3.178
				c1.641-1.536,2.701-2.568,3.178-3.099c0.052-0.052,0.423-0.528,1.112-1.43C892.035,403.371,891.955,403.238,891.85,403.026z
				 M874.452,370.534c2.807-3.336,5.587-6.673,8.341-10.01c0.052,0,0.132-0.265,0.239-0.794c-0.054-0.052-0.133-0.105-0.239-0.159
				c-0.106-0.052-0.159-0.105-0.159-0.159c-1.06,0.953-1.616,1.457-1.668,1.509c-2.172,2.754-4.079,5.243-5.72,7.468
				c-0.107,0.107-0.609,0.98-1.509,2.622c-1.166,0.742-1.801,1.668-1.907,2.781c1.218-0.847,1.827-1.774,1.827-2.781
				C874.186,370.692,874.452,370.534,874.452,370.534z M878.106,359.412c-1.378-0.052-2.331,0.345-2.86,1.191
				c-0.212,0.266-0.556,0.663-1.033,1.192c-0.477,0.53-0.822,0.953-1.033,1.271c-0.742,1.06-0.954,2.278-0.636,3.654
				C875.193,364.02,877.046,361.584,878.106,359.412z M878.583,424.793c0.37,0,0.954-0.318,1.748-0.953
				c1.112-0.847,2.727-2.118,4.846-3.813c2.171-1.694,3.786-2.939,4.846-3.734c0.105-0.105,0.715-0.635,1.827-1.589
				c0.794-0.741,1.218-1.668,1.271-2.78c0-0.37,0.052-0.9,0.159-1.589c0.105-0.688,0.159-1.192,0.159-1.509
				c0-0.052-0.079-0.583-0.238-1.589c-4.184,1.589-9.771,7.124-16.763,16.604C877.443,424.476,878.158,424.793,878.583,424.793z
				 M878.265,393.493c-0.212,0.212-0.504,0.504-0.874,0.874c-0.371,0.477-0.636,0.794-0.794,0.953l0.238,0.159l0.238,0.159
				c0.636-0.741,0.953-1.138,0.953-1.191c0.052-0.052,0.211-0.291,0.477-0.715L878.265,393.493z M879.774,391.586
				c0.052,0,0.105,0.053,0.159,0.159c0.105,0.053,0.159,0.107,0.159,0.159c1.005-0.794,1.535-1.218,1.589-1.271
				c2.224-2.171,5.057-4.952,8.5-8.341c4.872-4.767,7.706-7.547,8.5-8.342c0.953-0.953,1.43-1.668,1.43-2.145
				c0-0.529-0.477-1.351-1.43-2.463C894.444,374.321,888.142,381.735,879.774,391.586z M885.097,423.761
				c3.389,0.689,5.295,1.086,5.72,1.192c1.005,0.212,1.589-0.185,1.748-1.192c0.052-0.37,0.238-2.197,0.556-5.481
				C889.254,419.657,886.579,421.484,885.097,423.761z M897.172,395.479c3.654-3.601,6.884-6.805,9.692-9.613
				c0.635-0.636,1.033-1.138,1.191-1.509c0.052-0.052,0.08-0.556,0.08-1.51c-0.901,0-1.378,0.027-1.43,0.08
				c-0.635,0.425-1.351,1.06-2.145,1.907c-2.913,3.072-5.799,6.17-8.659,9.295c-0.053,0.053-0.477,0.689-1.271,1.907
				C895.53,396.406,896.378,396.221,897.172,395.479z M895.663,405.409c1.005-0.582,1.536-1.005,1.589-1.271
				c0.052-0.211-0.318-0.82-1.112-1.827C895.715,404.748,895.556,405.781,895.663,405.409z M906.865,395.32
				c2.86-2.701,5.057-4.978,6.594-6.832c-0.848-0.794-1.404-1.218-1.668-1.271c-0.266-0.052-0.715,0.133-1.351,0.556
				c-2.701,1.854-4.21,2.78-4.528,2.78c-0.053,0-0.292,0.212-0.715,0.636c-4.131,4.025-6.435,6.25-6.912,6.673
				c-0.794,0.742-0.874,1.509-0.238,2.304c0.052,0.107,0.662,0.769,1.827,1.986C900.933,401.04,903.262,398.763,906.865,395.32z
				 M934.114,371.566c-5.773,5.509-9.164,8.925-10.169,10.248c-0.901,1.112-2.224,2.542-3.972,4.29
				c-1.801,1.801-4.21,4.159-7.229,7.071c-3.655,3.549-6.065,5.906-7.229,7.07c-1.06,1.06-2.304,2.331-3.734,3.813
				c-0.636,0.743-0.609,1.299,0.08,1.668c0.105,0.054,0.582-0.08,1.43-0.397c0.052,0,0.238-0.159,0.556-0.477
				c13.929-13.664,21.847-21.422,23.753-23.277c3.23-3.124,5.562-4.952,6.991-5.481c0.423-0.159,0.662-0.529,0.715-1.112
				c0.052-0.318,0.159-1.774,0.318-4.369C934.617,371.196,934.114,371.514,934.114,371.566z M932.287,381.02
				c-5.35,4.874-8.713,7.972-10.089,9.295c-1.907,1.854-7.468,7.388-16.683,16.604c-0.583,0.583-1.06,1.139-1.43,1.668
				c-0.212,0.372-0.212,0.663,0,0.874c0.423,0.318,0.767,0.425,1.033,0.318c0.636-0.318,1.244-0.715,1.827-1.192
				c1.589-1.482,4.952-4.634,10.089-9.454c4.237-3.919,7.627-7.07,10.169-9.454c0.847-0.741,1.959-1.721,3.336-2.939
				c1.748-1.482,2.886-2.436,3.417-2.86c0.37-0.318,0.582-0.715,0.635-1.192c0.052-0.211,0.185-1.403,0.397-3.575
				C933.292,380.333,932.392,380.968,932.287,381.02z M932.604,388.409c-1.96,1.801-5.535,5.111-10.725,9.93
				c-4.449,4.185-7.998,7.495-10.646,9.931c-0.266,0.266-0.689,0.635-1.271,1.112c-0.583,0.477-1.007,0.848-1.271,1.112
				c-0.901,0.794-1.51,1.404-1.827,1.827c-0.53,0.689-0.292,1.219,0.715,1.589c1.323-1.112,2.038-1.694,2.145-1.748
				c9.057-7.626,14.379-12.155,15.968-13.585c0.317-0.211,2.701-2.356,7.15-6.435c1.271-1.164,1.641-2.753,1.112-4.767
				C933.054,388.011,932.604,388.356,932.604,388.409z M932.604,395.797c-1.748,1.537-3.364,2.966-4.846,4.29
				c-4.025,3.603-5.799,5.217-5.323,4.846c-0.053,0.054-4.131,3.285-12.234,9.692c-0.477,0.424-0.742,0.715-0.794,0.874
				c-0.107,0.743-0.053,1.325,0.159,1.748c0.423,0.742,0.979,0.848,1.668,0.318c0.688-0.529,1.271-0.979,1.748-1.351
				c6.407-5.667,11.333-10.036,14.776-13.108c1.482-1.271,3.125-2.78,4.925-4.528c1.112-1.005,1.456-2.118,1.033-3.336
				C933.028,395.559,932.656,395.745,932.604,395.797z M928.473,406.045c-0.583,0.477-1.351,1.112-2.304,1.907
				c-1.166,0.953-1.934,1.589-2.304,1.907c-1.96,1.642-3.231,2.728-3.813,3.257c-0.318,0.266-0.794,0.769-1.43,1.51
				c-0.635,0.635-1.139,1.112-1.509,1.43c-0.371,0.266-0.927,0.636-1.668,1.112c-0.794,0.53-1.351,0.927-1.668,1.192
				c-1.007,0.794-1.483,1.457-1.43,1.986c0,0.53,0.503,1.14,1.509,1.827c5.826-4.872,8.977-7.52,9.454-7.944
				c1.059-0.794,2.462-1.853,4.21-3.178c2.171-1.641,3.575-2.727,4.21-3.257c1.8-1.376,2.304-3.362,1.509-5.958
				C930.273,404.43,928.684,405.834,928.473,406.045z M928.791,369.024c-1.43,1.43-5.932,6.011-13.505,13.744
				c-0.371,0.371-0.742,0.768-1.112,1.191c-0.53,0.636-0.53,1.219,0,1.748c0.636,0.689,1.271,0.794,1.907,0.318
				c0.264-0.265,0.82-0.847,1.668-1.748c5.667-5.772,9.665-9.851,11.996-12.234c1.271-1.271,2.701-2.78,4.29-4.528
				c0.954-1.005,1.059-2.171,0.318-3.495C930.803,367.197,928.95,368.865,928.791,369.024z M916.795,349.799
				c0,0-0.027-0.052-0.079-0.159l-1.589,0.159c-0.689,0.53-0.61,1.245,0.238,2.145c1.376-1.536,1.906-2.118,1.589-1.748
				C916.847,349.932,916.795,349.799,916.795,349.799z M933.001,351.229c-1.748,1.907-6.594,7.15-14.538,15.729
				c-1.166,1.271-1.775,1.934-1.827,1.986c-1.112,0.689-1.458,2.013-1.033,3.972c0.741-0.423,4.157-4.131,10.248-11.122
				c6.09-6.991,9.4-11.016,9.931-12.076C934.988,349.561,934.061,350.064,933.001,351.229z M922.833,349.561
				c-1.271,0.583-1.934,0.901-1.986,0.953c-1.112,1.112-2.754,2.888-4.925,5.323c-0.636,0.689-0.583,1.351,0.159,1.986
				c0.9-0.954,2.092-2.225,3.575-3.813c1.854-1.958,3.045-3.204,3.575-3.734C923.018,349.906,922.885,349.667,922.833,349.561z
				 M927.599,350.275c-0.688,0.583-1.43,1.298-2.224,2.145c-5.032,5.402-7.654,8.21-7.865,8.421
				c-1.643,1.483-2.278,3.47-1.907,5.958c0.37-0.211,0.556-0.344,0.556-0.397c2.912-4.184,6.779-8.66,11.599-13.426
				c0.052-0.105,0.82-1.085,2.304-2.939C929.268,349.508,928.446,349.588,927.599,350.275z M917.033,377.445
				c6.197-6.302,11.889-12.076,17.081-17.319c1.218-1.271,2.118-2.276,2.701-3.019c1.112-1.377,1.351-2.807,0.715-4.29
				c-1.112,1.006-1.696,1.537-1.748,1.589c-0.477,0.583-1.43,1.722-2.86,3.416c-1.219,1.43-2.198,2.569-2.939,3.416
				c-1.589,1.748-3.734,4.105-6.435,7.07c-3.231,3.549-5.376,5.932-6.435,7.15c-1.007,1.06-1.537,2.145-1.589,3.257
				C916.529,377.922,917.033,377.499,917.033,377.445z M922.912,422.648c1.165-0.9,2.542-2.038,4.131-3.416
				c1.694-1.535,3.627-3.336,5.799-5.402c1.164-1.112,1.402-2.33,0.715-3.655c-7.15,3.496-12.552,7.893-16.207,13.188
				C919.734,423.84,921.588,423.602,922.912,422.648z M931.969,422.648c1.376-0.052,2.171-0.635,2.383-1.748
				c0.265-1.641,0.052-2.992-0.636-4.052c-0.053,0.054-1.88,1.827-5.481,5.323C930.565,422.49,931.81,422.648,931.969,422.648z"/>
		</g>
	</g>
	<g>
		<g>
			<path d="M476.254,491.554v11.072c0.879,0.146,1.43,0.242,1.654,0.287c0.224,0.045,0.336,0.193,0.336,0.446v1.05h-5.823v-1.05
				c0-0.252,0.122-0.403,0.366-0.452l1.392-0.281v-13.928c-0.781-0.155-1.245-0.248-1.392-0.281
				c-0.244-0.049-0.366-0.199-0.366-0.452v-1.05h3.503c0.211,0,0.375,0.021,0.488,0.061s0.224,0.155,0.33,0.342l6.042,10.767
				c0.146,0.244,0.33,0.667,0.549,1.27c0.171-0.472,0.358-0.899,0.562-1.282l5.92-10.754c0.106-0.188,0.216-0.301,0.33-0.342
				c0.114-0.041,0.277-0.062,0.488-0.061h3.516v1.05c0,0.252-0.126,0.403-0.378,0.452c-0.919,0.187-1.383,0.281-1.392,0.281v13.928
				c0.79,0.155,1.253,0.248,1.392,0.281c0.252,0.049,0.378,0.199,0.378,0.452v1.05h-5.835v-1.05c0-0.252,0.118-0.403,0.354-0.452
				s0.781-0.143,1.636-0.281v-11.072c0-0.358,0.016-0.741,0.049-1.147l-5.994,10.938c-0.204,0.366-0.488,0.549-0.854,0.549h-0.342
				c-0.366,0-0.651-0.183-0.854-0.549l-6.128-10.974C476.229,490.793,476.254,491.188,476.254,491.554z"/>
			<path d="M515.587,503.443v0.964h-5.017v-0.964c0-0.22,0.11-0.358,0.33-0.415l1.001-0.281l-1.367-3.528h-7.544l-1.367,3.528
				l1.001,0.281c0.22,0.057,0.33,0.195,0.33,0.415v0.964h-5.017v-0.964c0-0.22,0.106-0.354,0.317-0.403l0.977-0.293l6.335-15.833
				h2.405l6.323,15.833l0.977,0.293C515.482,503.089,515.587,503.224,515.587,503.443z M509.875,497.511l-2.588-6.714
				c-0.179-0.439-0.354-0.989-0.525-1.648c-0.195,0.716-0.366,1.27-0.513,1.66l-2.6,6.702H509.875z"/>
			<path d="M533.316,499.305v-10.608c-0.952-0.163-1.493-0.256-1.624-0.281c-0.244-0.049-0.366-0.199-0.366-0.452v-1.05h1.99h2.075
				h1.77v1.05c0,0.252-0.126,0.403-0.378,0.452l-1.392,0.281v15.71h-1.196c-0.333,0-0.614-0.143-0.842-0.427l-10.12-13.171
				c0.033,0.415,0.049,0.793,0.049,1.135v10.681c0.96,0.163,1.501,0.256,1.624,0.281c0.244,0.049,0.366,0.199,0.366,0.452v1.05
				h-5.823v-1.05c0-0.252,0.122-0.403,0.366-0.452l1.392-0.281v-13.928c-0.781-0.155-1.245-0.248-1.392-0.281
				c-0.244-0.049-0.366-0.199-0.366-0.452v-1.05h2.979c0.211,0,0.368,0.026,0.47,0.08c0.102,0.053,0.218,0.161,0.348,0.323
				l10.132,13.184C533.336,500.151,533.316,499.753,533.316,499.305z"/>
			<path d="M557.893,486.915v1.05c0,0.252-0.126,0.403-0.378,0.452l-1.392,0.281v8.85c0,2.059-0.619,3.744-1.855,5.054
				c-1.278,1.343-2.979,2.014-5.103,2.014c-2.116,0-3.817-0.671-5.103-2.014c-1.245-1.31-1.868-2.995-1.868-5.054v-8.85
				c-0.781-0.155-1.245-0.248-1.392-0.281c-0.244-0.049-0.366-0.199-0.366-0.452v-1.05h6.116v1.05c0,0.252-0.126,0.403-0.378,0.452
				c-0.122,0.024-0.663,0.118-1.624,0.281v8.838c0,1.489,0.407,2.686,1.221,3.589c0.838,0.936,1.969,1.404,3.394,1.404
				s2.555-0.464,3.394-1.392c0.806-0.903,1.208-2.1,1.208-3.589v-8.85c-0.952-0.163-1.489-0.256-1.611-0.281
				c-0.252-0.049-0.378-0.199-0.378-0.452v-1.05h1.99h2.356H557.893z"/>
			<path d="M578.137,503.443v0.964h-5.017v-0.964c0-0.22,0.11-0.358,0.33-0.415l1.001-0.281l-1.367-3.528h-7.544l-1.367,3.528
				l1.001,0.281c0.22,0.057,0.33,0.195,0.33,0.415v0.964h-5.017v-0.964c0-0.22,0.106-0.354,0.317-0.403l0.977-0.293l6.335-15.833
				h2.405l6.323,15.833l0.977,0.293C578.032,503.089,578.137,503.224,578.137,503.443z M572.424,497.511l-2.588-6.714
				c-0.179-0.439-0.354-0.989-0.525-1.648c-0.195,0.716-0.366,1.27-0.513,1.66l-2.6,6.702H572.424z"/>
			<path d="M594.242,504.408h-0.558h-0.222h-9.715h-1.761v-1.054c0-0.216,0.158-0.408,0.372-0.451
				c0.214-0.042,1.389-0.276,1.389-0.276v-13.93c0,0-1.175-0.234-1.389-0.277c-0.214-0.042-0.372-0.235-0.372-0.451v-1.054h1.761
				h2.365h0.003h1.758v1.054c0,0.216-0.158,0.409-0.372,0.451c-0.211,0.042-1.353,0.27-1.387,0.276v13.722h6.311
				c0.057-0.698,0.11-1.306,0.129-1.401c0.047-0.24,0.263-0.417,0.505-0.417h1.181V504.408z"/>
			<path d="M622.102,499.244c-0.415,1.074-1.001,1.994-1.758,2.759c-1.587,1.603-3.666,2.405-6.238,2.405h-8.069v-1.05
				c0-0.252,0.122-0.403,0.366-0.452l1.392-0.281v-13.928c-0.781-0.155-1.245-0.248-1.392-0.281
				c-0.244-0.049-0.366-0.199-0.366-0.452v-1.05h8.069c2.58,0,4.659,0.802,6.238,2.405c1.587,1.62,2.38,3.735,2.38,6.348
				C622.724,496.978,622.517,498.17,622.102,499.244z M619.855,492.787c-0.293-0.846-0.708-1.562-1.245-2.148
				c-1.099-1.205-2.6-1.807-4.504-1.807h-3.931v13.66h3.931c1.896,0,3.397-0.602,4.504-1.807c1.123-1.212,1.685-2.885,1.685-5.017
				C620.295,494.593,620.148,493.633,619.855,492.787z"/>
			<path d="M639.147,486.915v4.224h-1.172c-0.285,0-0.456-0.143-0.513-0.427c-0.017-0.073-0.073-0.696-0.171-1.868h-6.543v5.811
				h6.445v1.855h-6.445v5.969h6.555c0.089-1.083,0.143-1.66,0.159-1.733c0.057-0.277,0.228-0.415,0.513-0.415h1.172v4.077H626.61
				v-1.05c0-0.252,0.122-0.403,0.366-0.452l1.392-0.281v-13.928c-0.781-0.155-1.245-0.248-1.392-0.281
				c-0.244-0.049-0.366-0.199-0.366-0.452v-1.05H639.147z"/>
			<path d="M662.051,499.098c0,1.595-0.509,2.897-1.526,3.906c-1.083,1.066-2.527,1.599-4.333,1.599
				c-0.757,0-1.556-0.077-2.399-0.232c-0.842-0.155-1.499-0.309-1.971-0.464l-0.696-0.244v-4.382h1.184
				c0.277,0,0.443,0.138,0.5,0.415c0.024,0.106,0.063,0.509,0.116,1.208c0.053,0.7,0.079,1.054,0.079,1.062
				c1.205,0.448,2.189,0.671,2.954,0.671s1.367-0.077,1.807-0.232s0.814-0.375,1.123-0.659c0.626-0.578,0.94-1.347,0.94-2.307
				c0-0.928-0.436-1.644-1.306-2.148c-0.391-0.228-0.834-0.423-1.331-0.586c-1.546-0.48-2.572-0.832-3.076-1.056
				c-0.504-0.224-0.952-0.51-1.343-0.86c-0.871-0.781-1.306-1.868-1.306-3.259c0-1.302,0.468-2.413,1.404-3.333
				c1.001-0.985,2.301-1.477,3.9-1.477s3.232,0.333,4.901,1.001v4.016h-1.184c-0.285,0-0.452-0.138-0.5-0.415
				c-0.016-0.049-0.082-0.773-0.195-2.173c-1.09-0.309-2.051-0.464-2.881-0.464c-1.025,0-1.831,0.265-2.417,0.793
				c-0.553,0.488-0.83,1.131-0.83,1.929c0,0.854,0.439,1.534,1.318,2.039c0.391,0.228,0.842,0.427,1.355,0.598
				c1.465,0.488,2.486,0.858,3.064,1.111C661.168,495.952,662.051,497.267,662.051,499.098z"/>
			<path d="M682.931,486.915v1.05c0,0.252-0.126,0.403-0.378,0.452l-1.392,0.281v8.85c0,2.059-0.619,3.744-1.855,5.054
				c-1.278,1.343-2.979,2.014-5.103,2.014c-2.116,0-3.817-0.671-5.103-2.014c-1.245-1.31-1.868-2.995-1.868-5.054v-8.85
				c-0.781-0.155-1.245-0.248-1.392-0.281c-0.244-0.049-0.366-0.199-0.366-0.452v-1.05h6.116v1.05c0,0.252-0.126,0.403-0.378,0.452
				c-0.122,0.024-0.663,0.118-1.624,0.281v8.838c0,1.489,0.407,2.686,1.221,3.589c0.838,0.936,1.969,1.404,3.394,1.404
				s2.555-0.464,3.394-1.392c0.806-0.903,1.208-2.1,1.208-3.589v-8.85c-0.952-0.163-1.489-0.256-1.611-0.281
				c-0.252-0.049-0.378-0.199-0.378-0.452v-1.05h1.99h2.356H682.931z"/>
			<path d="M699.708,492.335c0,1.66-0.558,2.987-1.672,3.979c-1.164,1.034-2.779,1.55-4.846,1.55h-2.478v4.761
				c0.155,0.033,0.619,0.126,1.392,0.281c0.244,0.049,0.366,0.199,0.366,0.452v1.05h-5.872v-1.05c0-0.252,0.122-0.403,0.366-0.452
				l1.392-0.281v-13.928c-0.781-0.155-1.245-0.248-1.392-0.281c-0.244-0.049-0.366-0.199-0.366-0.452v-1.05h6.592
				c1.107,0,2.071,0.126,2.893,0.378C698.5,488.059,699.708,489.739,699.708,492.335z M696.308,489.723
				c-0.688-0.626-1.727-0.94-3.119-0.94h-2.478v7.202h2.478c1.318,0,2.34-0.332,3.064-0.995c0.724-0.664,1.086-1.55,1.086-2.661
				S696.996,490.349,696.308,489.723z"/>
			<path d="M716.01,486.915v4.224h-1.172c-0.285,0-0.456-0.143-0.513-0.427c-0.017-0.073-0.073-0.696-0.171-1.868h-6.543v5.811
				h6.445v1.855h-6.445v5.969h6.555c0.089-1.083,0.143-1.66,0.159-1.733c0.057-0.277,0.228-0.415,0.513-0.415h1.172v4.077h-12.537
				v-1.05c0-0.252,0.122-0.403,0.366-0.452l1.392-0.281v-13.928c-0.781-0.155-1.245-0.248-1.392-0.281
				c-0.244-0.049-0.366-0.199-0.366-0.452v-1.05H716.01z"/>
			<path d="M735.116,503.354v1.054h-0.435h-1.327h-0.773c-0.432,0-0.749-0.167-0.952-0.5l-4.541-6.25
				c-0.138-0.195-0.289-0.335-0.452-0.421s-0.407-0.128-0.732-0.128h-1.559v5.519c0.012,0.002,1.175,0.234,1.388,0.276
				c0.214,0.042,0.372,0.235,0.372,0.451v1.054h-1.76h-0.001h-2.355h-1.761v-1.054c0-0.216,0.158-0.409,0.372-0.451
				c0.214-0.042,1.39-0.276,1.39-0.276v-13.93c0,0-1.175-0.234-1.39-0.277c-0.214-0.042-0.372-0.235-0.372-0.451v-1.054h1.762h4.708
				c1.106,0,2.063,0.112,2.869,0.336s1.471,0.547,1.996,0.971c0.525,0.423,0.914,0.934,1.166,1.532
				c0.252,0.598,0.378,1.268,0.378,2.008c0,0.619-0.097,1.196-0.292,1.733s-0.479,1.02-0.849,1.447s-0.822,0.791-1.355,1.092
				s-1.137,0.529-1.812,0.684c0.293,0.171,0.553,0.419,0.781,0.745l3.796,5.168c0.152,0.03,1.171,0.233,1.369,0.272
				C734.958,502.945,735.116,503.138,735.116,503.354z M728.413,495.137c0.525-0.167,0.964-0.403,1.318-0.708
				c0.354-0.306,0.621-0.669,0.8-1.093c0.179-0.423,0.268-0.891,0.268-1.404c0-1.042-0.344-1.827-1.031-2.356
				c-0.688-0.529-1.711-0.793-3.07-0.793h-2.353v6.604h2.243C727.279,495.387,727.888,495.304,728.413,495.137z"/>
			<path d="M754.816,486.915v1.05c0,0.252-0.122,0.403-0.366,0.452l-1.221,0.281l-6.409,15.71h-2.136l-6.396-15.71
				c-0.675-0.155-1.086-0.248-1.233-0.281c-0.244-0.049-0.366-0.199-0.366-0.452v-1.05h5.811v1.05c0,0.252-0.161,0.411-0.482,0.476
				c-0.322,0.065-0.747,0.15-1.276,0.256l4.456,11.121c0.171,0.407,0.366,1.046,0.586,1.917c0.179-0.83,0.358-1.469,0.537-1.917
				l4.431-11.121c-0.781-0.155-1.245-0.248-1.392-0.281c-0.244-0.049-0.366-0.199-0.366-0.452v-1.05H754.816z"/>
			<path d="M762.633,488.697v13.928c0.79,0.155,1.282,0.252,1.477,0.293s0.293,0.187,0.293,0.439v1.05h-5.896v-1.05
				c0-0.252,0.122-0.403,0.366-0.452l1.392-0.281v-13.928c-0.781-0.155-1.27-0.252-1.465-0.293s-0.293-0.187-0.293-0.439v-1.05
				h5.896v1.05c0,0.252-0.126,0.403-0.378,0.452L762.633,488.697z"/>
			<path d="M786.176,486.915v1.05c0,0.252-0.122,0.403-0.366,0.452l-1.221,0.281l-6.409,15.71h-2.136l-6.396-15.71
				c-0.675-0.155-1.086-0.248-1.233-0.281c-0.244-0.049-0.366-0.199-0.366-0.452v-1.05h5.811v1.05c0,0.252-0.161,0.411-0.482,0.476
				c-0.322,0.065-0.747,0.15-1.276,0.256l4.456,11.121c0.171,0.407,0.366,1.046,0.586,1.917c0.179-0.83,0.358-1.469,0.537-1.917
				l4.431-11.121c-0.781-0.155-1.245-0.248-1.392-0.281c-0.244-0.049-0.366-0.199-0.366-0.452v-1.05H786.176z"/>
			<path d="M802.416,486.915v4.224h-1.172c-0.285,0-0.456-0.143-0.513-0.427c-0.017-0.073-0.073-0.696-0.171-1.868h-6.543v5.811
				h6.445v1.855h-6.445v5.969h6.555c0.089-1.083,0.143-1.66,0.159-1.733c0.057-0.277,0.228-0.415,0.513-0.415h1.172v4.077h-12.537
				v-1.05c0-0.252,0.122-0.403,0.366-0.452l1.392-0.281v-13.928c-0.781-0.155-1.245-0.248-1.392-0.281
				c-0.244-0.049-0.366-0.199-0.366-0.452v-1.05H802.416z"/>
			<path d="M820.512,499.305v-10.608c-0.952-0.163-1.493-0.256-1.624-0.281c-0.244-0.049-0.366-0.199-0.366-0.452v-1.05h1.99h2.075
				h1.77v1.05c0,0.252-0.126,0.403-0.378,0.452l-1.392,0.281v15.71h-1.196c-0.333,0-0.614-0.143-0.842-0.427l-10.12-13.171
				c0.033,0.415,0.049,0.793,0.049,1.135v10.681c0.96,0.163,1.501,0.256,1.624,0.281c0.244,0.049,0.366,0.199,0.366,0.452v1.05
				h-5.823v-1.05c0-0.252,0.122-0.403,0.366-0.452l1.392-0.281v-13.928c-0.781-0.155-1.245-0.248-1.392-0.281
				c-0.244-0.049-0.366-0.199-0.366-0.452v-1.05h2.979c0.211,0,0.368,0.026,0.47,0.08c0.102,0.053,0.218,0.161,0.348,0.323
				l10.132,13.184C820.533,500.151,820.512,499.753,820.512,499.305z"/>
			<path d="M842.062,487.977v1.367v2.71h-1.184c-0.277,0-0.444-0.138-0.5-0.415c-0.024-0.098-0.061-0.468-0.11-1.111
				c-0.049-0.643-0.078-1.009-0.085-1.099c-3.646-1.156-6.393-0.757-8.24,1.196c-1.188,1.253-1.782,2.934-1.782,5.042
				c0,2.116,0.586,3.809,1.758,5.078c1.107,1.212,2.543,1.819,4.309,1.819c1.017,0,1.786-0.098,2.307-0.293
				c0.797-0.293,1.518-0.724,2.161-1.294c0.138-0.122,0.272-0.183,0.403-0.183s0.248,0.053,0.354,0.159l0.928,1.013
				c-1.514,1.758-3.613,2.637-6.299,2.637c-2.506,0-4.525-0.83-6.055-2.49c-1.522-1.644-2.283-3.792-2.283-6.445
				c0-2.645,0.814-4.797,2.441-6.458s3.784-2.49,6.47-2.49C838.037,486.72,839.84,487.139,842.062,487.977z"/>
			<path d="M850.087,488.697v13.928c0.79,0.155,1.282,0.252,1.477,0.293s0.293,0.187,0.293,0.439v1.05h-5.896v-1.05
				c0-0.252,0.122-0.403,0.366-0.452l1.392-0.281v-13.928c-0.781-0.155-1.27-0.252-1.465-0.293s-0.293-0.187-0.293-0.439v-1.05
				h5.896v1.05c0,0.252-0.126,0.403-0.378,0.452L850.087,488.697z"/>
			<path d="M873.301,503.443v0.964h-5.017v-0.964c0-0.22,0.11-0.358,0.33-0.415l1.001-0.281l-1.367-3.528h-7.544l-1.367,3.528
				l1.001,0.281c0.22,0.057,0.33,0.195,0.33,0.415v0.964h-5.017v-0.964c0-0.22,0.106-0.354,0.317-0.403l0.977-0.293l6.335-15.833
				h2.405l6.323,15.833l0.977,0.293C873.196,503.089,873.301,503.224,873.301,503.443z M867.588,497.511L865,490.797
				c-0.179-0.439-0.354-0.989-0.525-1.648c-0.195,0.716-0.366,1.27-0.513,1.66l-2.6,6.702H867.588z"/>
		</g>
	</g>
	<g>
		
			<path fill="none" stroke="#000000" stroke-width="1.3558" stroke-linecap="round" stroke-linejoin="round" stroke-miterlimit="10" stroke-dasharray="16.2688" d="
			M947.33,323.069c-13.981-6.262-29.375-12.875-45.198-10.218c-6.599,1.108-12.292,4.618-18.104,7.654
			c-11.3,5.905-23.285,9.045-36.23,8.569c-59.056-2.171-111.271-50.695-165.686-68.479
			c-49.359-16.132-109.038-26.643-160.259-11.727c-13.999,4.077-26.158,8.007-33.362,21.799
			c-5.737,10.982-0.486,25.049-5.899,34.917c-5.247,9.564-22.04,9.763-31.53,10.96c-17.667,2.23-36.233,3.164-52.996,9.508
			c-26.126,9.887-43.675,40.158-42.289,67.963c1.057,21.19,14.326,31.791,32.663,39.872c16.71,7.364,15.244,12.479,15.116,29.708
			c-0.136,18.108-11.61,31.383-13.194,49.023c-2.212,24.65,23.927,44.833,43.368,55.468c13.518,7.396,28.744,11.534,42.967,16.412
			c-26.022-12.708-55.697-40.328-47.544-67.27c2.568-8.489,9.809-14.994,8.797-24.332c-0.644-5.938-11.915-9.503-7.349-18.333
			c12.224-23.656,36.691-38.324,69.651-32.238c30.935,5.71,61.164,34.105,95.197,24.938c18.525-4.989,31.288-26.489,50.632-28.518
			c19.963-2.095,33.055,15.535,51.775,19.087c23.566,4.473,41.187-7.176,63.062-12.688c8.851-2.23,23.545-4.237,32.034,0.191
			c13.539,7.061,14.795,18.673,31.635,18.227c22.212-0.586,36.12-7.534,55.367,8.76c21.169,17.919,56.848,34.195,81.524,11.331
			C1001.856,446.242,1000.703,346.973,947.33,323.069z"/>
		
			<path fill="none" stroke="#000000" stroke-width="1.3558" stroke-linecap="round" stroke-linejoin="round" stroke-miterlimit="10" stroke-dasharray="16.2688" d="
			M476.697,584.497c5.146,2.514,10.151,4.448,14.692,5.673C486.703,588.064,481.762,586.234,476.697,584.497z"/>
	</g>
	<g>
		<g>
			<path fill="#FFFFFF" d="M547.94,162.738c-43.604,0-78.953,35.349-78.953,78.955c0,43.606,35.349,78.956,78.953,78.956
				c43.606,0,78.956-35.35,78.956-78.956C626.896,198.087,591.547,162.738,547.94,162.738z M547.94,290.923
				c-27.187,0-49.229-22.042-49.229-49.231c0-27.19,22.043-49.23,49.229-49.23c27.191,0,49.232,22.04,49.232,49.23
				C597.173,268.882,575.132,290.923,547.94,290.923z"/>
			<circle fill="none" stroke="#FFFFFF" stroke-width="3.0126" stroke-miterlimit="10" cx="547.943" cy="241.693" r="85.107"/>
			<g>
				<path d="M554.835,160.57c0,2.517-2.039,4.558-4.558,4.558l0,0c-2.517,0-4.556-2.041-4.556-4.558v-5.924
					c0-2.518,2.039-4.558,4.556-4.558l0,0c2.519,0,4.558,2.041,4.558,4.558V160.57z"/>
				<path d="M466.82,234.799c2.516,0,4.556,2.041,4.556,4.557l0,0c0,2.517-2.04,4.559-4.556,4.559h-5.928
					c-2.516,0-4.557-2.042-4.557-4.559l0,0c0-2.516,2.041-4.557,4.557-4.557H466.82z"/>
				<path d="M541.049,322.816c0-2.517,2.04-4.557,4.556-4.557l0,0c2.519,0,4.56,2.04,4.56,4.557v5.925
					c0,2.516-2.041,4.557-4.56,4.557l0,0c-2.516,0-4.556-2.041-4.556-4.557V322.816z"/>
				<path d="M629.065,248.586c-2.516,0-4.559-2.041-4.559-4.558l0,0c0-2.518,2.043-4.559,4.559-4.559h5.926
					c2.515,0,4.557,2.041,4.557,4.559l0,0c0,2.517-2.042,4.558-4.557,4.558H629.065z"/>
			</g>
			<g>
				<defs>
					<path id="SVGID_1_" d="M547.94,162.738c-43.604,0-78.953,35.349-78.953,78.955c0,43.606,35.349,78.956,78.953,78.956
						c43.606,0,78.956-35.35,78.956-78.956C626.896,198.087,591.547,162.738,547.94,162.738z M547.94,290.923
						c-27.187,0-49.229-22.042-49.229-49.231c0-27.19,22.043-49.23,49.229-49.23c27.191,0,49.232,22.04,49.232,49.23
						C597.173,268.882,575.132,290.923,547.94,290.923z"/>
				</defs>
				<clipPath id="SVGID_2_">
					<use xlink:href="#SVGID_1_"  overflow="visible"/>
				</clipPath>
				
					<line clip-path="url(#SVGID_2_)" fill="none" stroke="#FFF7AE" stroke-width="51.2143" stroke-miterlimit="10" x1="549.936" y1="201.977" x2="549.936" y2="137.716"/>
				
					<line clip-path="url(#SVGID_2_)" fill="none" stroke="#FFF7AE" stroke-width="51.2143" stroke-miterlimit="10" x1="507.552" y1="238.892" x2="443.289" y2="238.892"/>
				
					<line clip-path="url(#SVGID_2_)" fill="none" stroke="#FFF7AE" stroke-width="51.2143" stroke-miterlimit="10" x1="544.466" y1="281.276" x2="544.466" y2="345.537"/>
				
					<line clip-path="url(#SVGID_2_)" fill="none" stroke="#FFF7AE" stroke-width="51.2143" stroke-miterlimit="10" x1="586.85" y1="244.361" x2="651.112" y2="244.361"/>
			</g>
		</g>
	</g>
</g>
</svg>
